ply
format ascii 1.0
element vertex 512
property float x
property float y
property float z
end_header
-0.009850740432739258 1.010054588317871 -1.0875499248504639
-0.00985074695199728 1.010054588317871 -0.9366388916969299
-0.009850753471255302 1.010054588317871 -0.7857277989387512
-0.009850759990513325 1.010054588317871 -0.6348167657852173
-0.009850766509771347 1.010054588317871 -0.4839056730270386
-0.00985077302902937 1.010054588317871 -0.33299461007118225
-0.009850779548287392 1.010054588317871 -0.18208356201648712
-0.009850786998867989 1.010054588317871 -0.03117249719798565
-0.009850793518126011 1.010054588317871 0.11973856389522552
-0.009850800037384033 1.010054588317871 0.27064961194992065
-0.009850806556642056 1.010054588317871 0.421560674905777
-0.009850813075900078 1.010054588317871 0.5724717378616333
-0.0098508195951581 1.010054588317871 0.723382830619812
-0.009850826114416122 1.010054588317871 0.874293863773346
-0.009850832633674145 1.010054588317871 1.0252048969268799
-0.009850839152932167 1.010054588317871 1.1761159896850586
-0.21420377492904663 0.9892739057540894 -1.0875499248504639
-0.21420377492904663 0.9892739057540894 -0.9366388916969299
-0.21420378983020782 0.9892739057540894 -0.7857277989387512
-0.21420378983020782 0.9892739057540894 -0.6348167657852173
-0.21420378983020782 0.9892739057540894 -0.48390570282936096
-0.21420380473136902 0.9892739057540894 -0.33299463987350464
-0.21420380473136902 0.9892739057540894 -0.18208356201648712
-0.2142038196325302 0.9892739057540894 -0.031172506511211395
-0.2142038196325302 0.9892739057540894 0.11973855644464493
-0.2142038345336914 0.9892739057540894 0.27064961194992065
-0.2142038345336914 0.9892739057540894 0.421560674905777
-0.2142038494348526 0.9892739057540894 0.5724717378616333
-0.2142038494348526 0.9892739057540894 0.7233827710151672
-0.2142038494348526 0.9892739057540894 0.874293863773346
-0.2142038643360138 0.9892739057540894 1.0252048969268799
-0.2142038643360138 0.9892739057540894 1.1761159896850586
-0.41019055247306824 0.9277826547622681 -1.0875499248504639
-0.4101905822753906 0.9277826547622681 -0.9366388916969299
-0.4101905822753906 0.9277826547622681 -0.7857277989387512
-0.4101905822753906 0.9277826547622681 -0.6348167657852173
-0.4101905822753906 0.9277826547622681 -0.48390570282936096
-0.4101905822753906 0.9277826547622681 -0.33299463987350464
-0.410190612077713 0.9277826547622681 -0.18208357691764832
-0.410190612077713 0.9277826547622681 -0.03117251582443714
-0.410190612077713 0.9277826547622681 0.11973854899406433
-0.410190612077713 0.9277826547622681 0.27064961194992065
-0.4101906418800354 0.9277826547622681 0.421560674905777
-0.4101906418800354 0.9277826547622681 0.5724717378616333
-0.4101906418800354 0.9277826547622681 0.7233827710151672
-0.4101906418800354 0.9277826547622681 0.874293863773346
-0.4101906418800354 0.9277826547622681 1.0252048969268799
-0.4101906716823578 0.9277826547622681 1.1761159896850586
-0.5897874236106873 0.8280982971191406 -1.0875499248504639
-0.5897874236106873 0.8280982971191406 -0.9366388916969299
-0.5897874236106873 0.8280982971191406 -0.7857277989387512
-0.5897874236106873 0.8280982971191406 -0.6348167657852173
-0.5897874236106873 0.8280982971191406 -0.48390570282936096
-0.5897874236106873 0.8280982971191406 -0.33299463987350464
-0.5897874236106873 0.8280982971191406 -0.1820835918188095
-0.5897874236106873 0.8280982971191406 -0.03117252327501774
-0.5897874236106873 0.8280982971191406 0.11973853409290314
-0.589787483215332 0.8280982971191406 0.27064961194992065
-0.589787483215332 0.8280982971191406 0.4215606451034546
-0.589787483215332 0.8280982971191406 0.5724717378616333
-0.589787483215332 0.8280982971191406 0.7233827710151672
-0.589787483215332 0.8280982971191406 0.874293863773346
-0.589787483215332 0.8280982971191406 1.0252048969268799
-0.589787483215332 0.8280982971191406 1.1761159896850586
-0.7456415295600891 0.6943019032478333 -1.0875499248504639
-0.7456415891647339 0.6943019032478333 -0.9366388916969299
-0.7456415891647339 0.6943019032478333 -0.785727858543396
-0.7456415891647339 0.6943019032478333 -0.6348167657852173
-0.7456415891647339 0.6943019032478333 -0.48390570282936096
-0.7456415891647339 0.6943019032478333 -0.33299463987350464
-0.7456415891647339 0.6943019032478333 -0.1820835918188095
-0.7456415891647339 0.6943019032478333 -0.031172530725598335
-0.7456415891647339 0.6943019032478333 0.11973853409290314
-0.7456415891647339 0.6943019032478333 0.27064958214759827
-0.7456416487693787 0.6943019032478333 0.4215606451034546
-0.7456416487693787 0.6943019032478333 0.5724717378616333
-0.7456416487693787 0.6943019032478333 0.7233827710151672
-0.7456416487693787 0.6943019032478333 0.874293863773346
-0.7456416487693787 0.6943019032478333 1.0252048969268799
-0.7456416487693787 0.6943019032478333 1.1761159896850586
-0.8713723421096802 0.5318710803985596 -1.0875499248504639
-0.8713723421096802 0.5318710803985596 -0.9366388916969299
-0.8713723421096802 0.5318710803985596 -0.785727858543396
-0.871372401714325 0.5318710803985596 -0.6348167657852173
-0.871372401714325 0.5318710803985596 -0.48390573263168335
-0.871372401714325 0.5318710803985596 -0.332994669675827
-0.871372401714325 0.5318710803985596 -0.1820835918188095
-0.871372401714325 0.5318710803985596 -0.031172536313533783
-0.871372401714325 0.5318710803985596 0.11973852664232254
-0.871372401714325 0.5318710803985596 0.27064958214759827
-0.871372401714325 0.5318710803985596 0.4215606451034546
-0.871372401714325 0.5318710803985596 0.5724717378616333
-0.8713724613189697 0.5318710803985596 0.7233827710151672
-0.8713724613189697 0.5318710803985596 0.8742938041687012
-0.8713724613189697 0.5318710803985596 1.0252048969268799
-0.8713724613189697 0.5318710803985596 1.1761159896850586
-0.9618323445320129 0.34745582938194275 -1.0875499248504639
-0.9618323445320129 0.34745582938194275 -0.9366388916969299
-0.9618323445320129 0.34745582938194275 -0.785727858543396
-0.9618323445320129 0.34745582938194275 -0.6348167657852173
-0.9618324041366577 0.34745582938194275 -0.48390573263168335
-0.9618324041366577 0.34745582938194275 -0.332994669675827
-0.9618324041366577 0.34745582938194275 -0.1820836067199707
-0.9618324041366577 0.34745582938194275 -0.03117254003882408
-0.9618324041366577 0.34745582938194275 0.11973851919174194
-0.9618324041366577 0.34745582938194275 0.27064958214759827
-0.9618324041366577 0.34745582938194275 0.4215606451034546
-0.9618324041366577 0.34745582938194275 0.5724716782569885
-0.9618324041366577 0.34745582938194275 0.7233827710151672
-0.9618324637413025 0.34745582938194275 0.8742938041687012
-0.9618324637413025 0.34745582938194275 1.0252048969268799
-0.9618324637413025 0.34745582938194275 1.1761159896850586
-1.0133180618286133 0.1486061066389084 -1.0875499248504639
-1.0133180618286133 0.1486061066389084 -0.9366388916969299
-1.0133181810379028 0.1486061066389084 -0.785727858543396
-1.0133181810379028 0.1486061066389084 -0.6348167657852173
-1.0133181810379028 0.1486061066389084 -0.48390573263168335
-1.0133181810379028 0.1486061066389084 -0.332994669675827
-1.0133181810379028 0.1486061066389084 -0.1820836067199707
-1.0133181810379028 0.1486061066389084 -0.03117254190146923
-1.0133181810379028 0.1486061066389084 0.11973851919174194
-1.0133181810379028 0.1486061066389084 0.27064958214759827
-1.0133181810379028 0.1486061066389084 0.4215606451034546
-1.0133181810379028 0.1486061066389084 0.5724716782569885
-1.0133181810379028 0.1486061066389084 0.7233827710151672
-1.0133181810379028 0.1486061066389084 0.8742938041687012
-1.0133181810379028 0.1486061066389084 1.0252048969268799
-1.0133181810379028 0.1486061066389084 1.1761159896850586
-1.0237218141555786 -0.05653716251254082 -1.0875499248504639
-1.0237218141555786 -0.05653716251254082 -0.9366388916969299
-1.0237218141555786 -0.05653716251254082 -0.785727858543396
-1.0237218141555786 -0.05653716251254082 -0.6348167657852173
-1.0237218141555786 -0.05653716251254082 -0.48390573263168335
-1.0237218141555786 -0.05653716251254082 -0.332994669675827
-1.0237218141555786 -0.05653716251254082 -0.1820836067199707
-1.0237218141555786 -0.05653716251254082 -0.03117254190146923
-1.0237218141555786 -0.05653716251254082 0.11973851919174194
-1.0237218141555786 -0.05653716251254082 0.27064958214759827
-1.0237218141555786 -0.05653716251254082 0.4215606451034546
-1.0237219333648682 -0.05653716251254082 0.5724716782569885
-1.0237219333648682 -0.05653716251254082 0.7233827710151672
-1.0237219333648682 -0.05653716251254082 0.8742938041687012
-1.0237219333648682 -0.05653716251254082 1.0252048969268799
-1.0237219333648682 -0.05653716251254082 1.1761159896850586
-0.9926174879074097 -0.25957539677619934 -1.0875499248504639
-0.9926174879074097 -0.25957539677619934 -0.9366388916969299
-0.9926174879074097 -0.25957539677619934 -0.785727858543396
-0.9926174879074097 -0.25957539677619934 -0.6348167657852173
-0.9926175475120544 -0.25957539677619934 -0.48390573263168335
-0.9926175475120544 -0.25957539677619934 -0.332994669675827
-0.9926175475120544 -0.25957539677619934 -0.1820836067199707
-0.9926175475120544 -0.25957539677619934 -0.03117254190146923
-0.9926175475120544 -0.25957539677619934 0.11973851919174194
-0.9926175475120544 -0.25957539677619934 0.27064958214759827
-0.9926175475120544 -0.25957539677619934 0.4215606451034546
-0.9926175475120544 -0.25957539677619934 0.5724716782569885
-0.9926175475120544 -0.25957539677619934 0.7233827710151672
-0.9926176071166992 -0.25957539677619934 0.8742938041687012
-0.9926176071166992 -0.25957539677619934 1.0252048969268799
-0.9926176071166992 -0.25957539677619934 1.1761159896850586
-0.9212785959243774 -0.4521961510181427 -1.0875499248504639
-0.9212785959243774 -0.4521961510181427 -0.9366388916969299
-0.9212785959243774 -0.4521961510181427 -0.785727858543396
-0.9212785959243774 -0.4521961510181427 -0.6348167657852173
-0.9212785959243774 -0.4521961510181427 -0.48390573263168335
-0.9212786555290222 -0.4521961510181427 -0.332994669675827
-0.9212786555290222 -0.4521961510181427 -0.1820835918188095
-0.9212786555290222 -0.4521961510181427 -0.031172538176178932
-0.9212786555290222 -0.4521961510181427 0.11973852664232254
-0.9212786555290222 -0.4521961510181427 0.27064958214759827
-0.9212786555290222 -0.4521961510181427 0.4215606451034546
-0.9212786555290222 -0.4521961510181427 0.5724716782569885
-0.9212786555290222 -0.4521961510181427 0.7233827710151672
-0.9212786555290222 -0.4521961510181427 0.8742938041687012
-0.921278715133667 -0.4521961510181427 1.0252048969268799
-0.921278715133667 -0.4521961510181427 1.1761159896850586
-0.8126257061958313 -0.6265135407447815 -1.0875499248504639
-0.8126257658004761 -0.6265135407447815 -0.9366388916969299
-0.8126257658004761 -0.6265135407447815 -0.785727858543396
-0.8126257658004761 -0.6265135407447815 -0.6348167657852173
-0.8126257658004761 -0.6265135407447815 -0.48390570282936096
-0.8126257658004761 -0.6265135407447815 -0.332994669675827
-0.8126257658004761 -0.6265135407447815 -0.1820835918188095
-0.8126257658004761 -0.6265135407447815 -0.031172532588243484
-0.8126257658004761 -0.6265135407447815 0.11973852664232254
-0.8126257658004761 -0.6265135407447815 0.27064958214759827
-0.8126258254051208 -0.6265135407447815 0.4215606451034546
-0.8126258254051208 -0.6265135407447815 0.5724717378616333
-0.8126258254051208 -0.6265135407447815 0.7233827710151672
-0.8126258254051208 -0.6265135407447815 0.8742938041687012
-0.8126258254051208 -0.6265135407447815 1.0252048969268799
-0.8126258254051208 -0.6265135407447815 1.1761159896850586
-0.6711071729660034 -0.7753909826278687 -1.0875499248504639
-0.6711071729660034 -0.7753909826278687 -0.9366388916969299
-0.6711071729660034 -0.7753909826278687 -0.785727858543396
-0.6711071729660034 -0.7753909826278687 -0.6348167657852173
-0.6711071729660034 -0.7753909826278687 -0.48390570282936096
-0.6711071729660034 -0.7753909826278687 -0.33299463987350464
-0.6711072325706482 -0.7753909826278687 -0.1820835918188095
-0.6711072325706482 -0.7753909826278687 -0.031172527000308037
-0.6711072325706482 -0.7753909826278687 0.11973853409290314
-0.6711072325706482 -0.7753909826278687 0.27064958214759827
-0.6711072325706482 -0.7753909826278687 0.4215606451034546
-0.6711072325706482 -0.7753909826278687 0.5724717378616333
-0.6711072325706482 -0.7753909826278687 0.7233827710151672
-0.6711072325706482 -0.7753909826278687 0.874293863773346
-0.6711072325706482 -0.7753909826278687 1.0252048969268799
-0.671107292175293 -0.7753909826278687 1.1761159896850586
-0.5025166869163513 -0.8927333950996399 -1.0875499248504639
-0.5025166869163513 -0.8927333950996399 -0.9366388916969299
-0.5025166869163513 -0.8927333950996399 -0.7857277989387512
-0.5025166869163513 -0.8927333950996399 -0.6348167657852173
-0.5025166869163513 -0.8927333950996399 -0.48390570282936096
-0.5025167465209961 -0.8927333950996399 -0.33299463987350464
-0.5025167465209961 -0.8927333950996399 -0.18208357691764832
-0.5025167465209961 -0.8927333950996399 -0.03117251954972744
-0.5025167465209961 -0.8927333950996399 0.11973854154348373
-0.5025167465209961 -0.8927333950996399 0.27064961194992065
-0.5025167465209961 -0.8927333950996399 0.421560674905777
-0.5025167465209961 -0.8927333950996399 0.5724717378616333
-0.5025167465209961 -0.8927333950996399 0.7233827710151672
-0.5025167465209961 -0.8927333950996399 0.874293863773346
-0.5025168061256409 -0.8927333950996399 1.0252048969268799
-0.5025168061256409 -0.8927333950996399 1.1761159896850586
-0.31375640630722046 -0.9737368226051331 -1.0875499248504639
-0.31375640630722046 -0.9737368226051331 -0.9366388916969299
-0.31375643610954285 -0.9737368226051331 -0.7857277989387512
-0.31375643610954285 -0.9737368226051331 -0.6348167657852173
-0.31375643610954285 -0.9737368226051331 -0.48390570282936096
-0.31375643610954285 -0.9737368226051331 -0.33299463987350464
-0.31375643610954285 -0.9737368226051331 -0.18208357691764832
-0.31375646591186523 -0.9737368226051331 -0.031172512099146843
-0.31375646591186523 -0.9737368226051331 0.11973854899406433
-0.31375646591186523 -0.9737368226051331 0.27064961194992065
-0.31375646591186523 -0.9737368226051331 0.421560674905777
-0.3137564957141876 -0.9737368226051331 0.5724717378616333
-0.3137564957141876 -0.9737368226051331 0.7233827710151672
-0.3137564957141876 -0.9737368226051331 0.874293863773346
-0.3137564957141876 -0.9737368226051331 1.0252048969268799
-0.3137564957141876 -0.9737368226051331 1.1761159896850586
-0.11255419254302979 -1.015084981918335 -1.0875499248504639
-0.11255419999361038 -1.015084981918335 -0.9366388916969299
-0.11255420744419098 -1.015084981918335 -0.7857277989387512
-0.11255421489477158 -1.015084981918335 -0.6348167657852173
-0.11255422234535217 -1.015084981918335 -0.4839056730270386
-0.11255422979593277 -1.015084981918335 -0.33299461007118225
-0.11255422979593277 -1.015084981918335 -0.18208356201648712
-0.11255423724651337 -1.015084981918335 -0.031172502785921097
-0.11255424469709396 -1.015084981918335 0.11973855644464493
-0.11255425214767456 -1.015084981918335 0.27064961194992065
-0.11255425959825516 -1.015084981918335 0.421560674905777
-0.11255426704883575 -1.015084981918335 0.5724717378616333
-0.11255427449941635 -1.015084981918335 0.723382830619812
-0.11255428194999695 -1.015084981918335 0.874293863773346
-0.11255428940057755 -1.015084981918335 1.0252048969268799
-0.11255428940057755 -1.015084981918335 1.1761159896850586
0.09285271167755127 -1.015084981918335 -1.0875499248504639
0.09285270422697067 -1.015084981918335 -0.9366388320922852
0.09285269677639008 -1.015084981918335 -0.7857277989387512
0.09285268932580948 -1.015084981918335 -0.6348167657852173
0.09285268932580948 -1.015084981918335 -0.4839056730270386
0.09285268187522888 -1.015084981918335 -0.33299461007118225
0.09285267442464828 -1.015084981918335 -0.18208354711532593
0.09285266697406769 -1.015084981918335 -0.03117249347269535
0.09285265952348709 -1.015084981918335 0.11973856389522552
0.0928526520729065 -1.015084981918335 0.27064964175224304
0.0928526446223259 -1.015084981918335 0.421560674905777
0.0928526371717453 -1.015084981918335 0.5724717378616333
0.0928526371717453 -1.015084981918335 0.723382830619812
0.0928526297211647 -1.015084981918335 0.874293863773346
0.0928526222705841 -1.015084981918335 1.0252048969268799
0.09285261482000351 -1.015084981918335 1.1761159896850586
0.29405492544174194 -0.9737368226051331 -1.0875499248504639
0.29405492544174194 -0.9737368226051331 -0.9366388320922852
0.29405492544174194 -0.9737368226051331 -0.7857277989387512
0.29405489563941956 -0.9737368226051331 -0.6348167061805725
0.29405489563941956 -0.9737368226051331 -0.4839056730270386
0.29405489563941956 -0.9737368226051331 -0.33299461007118225
0.29405489563941956 -0.9737368226051331 -0.18208354711532593
0.29405489563941956 -0.9737368226051331 -0.031172484159469604
0.29405486583709717 -0.9737368226051331 0.11973857879638672
0.29405486583709717 -0.9737368226051331 0.27064964175224304
0.29405486583709717 -0.9737368226051331 0.42156070470809937
0.29405486583709717 -0.9737368226051331 0.5724717378616333
0.2940548360347748 -0.9737368226051331 0.723382830619812
0.2940548360347748 -0.9737368226051331 0.874293863773346
0.2940548360347748 -0.9737368226051331 1.0252048969268799
0.2940548360347748 -0.9737368226051331 1.1761159896850586
0.4828152060508728 -0.8927333950996399 -1.0875499248504639
0.4828152060508728 -0.8927333950996399 -0.9366388320922852
0.4828152060508728 -0.8927333950996399 -0.7857277989387512
0.4828151762485504 -0.8927333950996399 -0.6348167061805725
0.4828151762485504 -0.8927333950996399 -0.4839056730270386
0.4828151762485504 -0.8927333950996399 -0.33299461007118225
0.4828151762485504 -0.8927333950996399 -0.18208353221416473
0.4828151762485504 -0.8927333950996399 -0.031172476708889008
0.482815146446228 -0.8927333950996399 0.11973858624696732
0.482815146446228 -0.8927333950996399 0.27064964175224304
0.482815146446228 -0.8927333950996399 0.42156070470809937
0.482815146446228 -0.8927333950996399 0.5724717378616333
0.48281511664390564 -0.8927333950996399 0.723382830619812
0.48281511664390564 -0.8927333950996399 0.874293863773346
0.48281511664390564 -0.8927333950996399 1.0252048969268799
0.48281511664390564 -0.8927333950996399 1.1761159896850586
0.6514056921005249 -0.7753909826278687 -1.0875499248504639
0.6514056921005249 -0.7753909826278687 -0.9366388320922852
0.6514056921005249 -0.7753909826278687 -0.7857277989387512
0.6514056921005249 -0.7753909826278687 -0.6348167061805725
0.6514056921005249 -0.7753909826278687 -0.4839056432247162
0.6514056324958801 -0.7753909826278687 -0.33299458026885986
0.6514056324958801 -0.7753909826278687 -0.18208353221416473
0.6514056324958801 -0.7753909826278687 -0.03117246925830841
0.6514056324958801 -0.7753909826278687 0.11973859369754791
0.6514056324958801 -0.7753909826278687 0.27064964175224304
0.6514056324958801 -0.7753909826278687 0.42156070470809937
0.6514056324958801 -0.7753909826278687 0.5724717974662781
0.6514056324958801 -0.7753909826278687 0.723382830619812
0.6514056324958801 -0.7753909826278687 0.8742939233779907
0.6514055728912354 -0.7753909826278687 1.0252050161361694
0.6514055728912354 -0.7753909826278687 1.1761159896850586
0.7929242253303528 -0.6265135407447815 -1.0875499248504639
0.7929242253303528 -0.6265135407447815 -0.9366388320922852
0.7929242253303528 -0.6265135407447815 -0.7857277393341064
0.7929242253303528 -0.6265135407447815 -0.6348167061805725
0.7929242253303528 -0.6265135407447815 -0.4839056432247162
0.7929242253303528 -0.6265135407447815 -0.33299458026885986
0.7929242253303528 -0.6265135407447815 -0.18208351731300354
0.7929242253303528 -0.6265135407447815 -0.031172463670372963
0.7929242253303528 -0.6265135407447815 0.11973860114812851
0.792924165725708 -0.6265135407447815 0.27064967155456543
0.792924165725708 -0.6265135407447815 0.42156073451042175
0.792924165725708 -0.6265135407447815 0.5724717974662781
0.792924165725708 -0.6265135407447815 0.723382830619812
0.792924165725708 -0.6265135407447815 0.8742939233779907
0.792924165725708 -0.6265135407447815 1.0252050161361694
0.792924165725708 -0.6265135407447815 1.1761159896850586
0.9015771150588989 -0.4521961510181427 -1.0875499248504639
0.9015771150588989 -0.4521961510181427 -0.9366388320922852
0.9015771150588989 -0.4521961510181427 -0.7857277393341064
0.9015771150588989 -0.4521961510181427 -0.6348167061805725
0.9015771150588989 -0.4521961510181427 -0.4839056432247162
0.9015770554542542 -0.4521961510181427 -0.33299458026885986
0.9015770554542542 -0.4521961510181427 -0.18208351731300354
0.9015770554542542 -0.4521961510181427 -0.031172458082437515
0.9015770554542542 -0.4521961510181427 0.11973860114812851
0.9015770554542542 -0.4521961510181427 0.27064967155456543
0.9015770554542542 -0.4521961510181427 0.42156073451042175
0.9015770554542542 -0.4521961510181427 0.5724717974662781
0.9015770554542542 -0.4521961510181427 0.723382830619812
0.9015770554542542 -0.4521961510181427 0.8742939233779907
0.9015769958496094 -0.4521961510181427 1.0252050161361694
0.9015769958496094 -0.4521961510181427 1.1761159896850586
0.9729160070419312 -0.25957539677619934 -1.0875499248504639
0.9729160070419312 -0.25957539677619934 -0.9366388320922852
0.9729160070419312 -0.25957539677619934 -0.7857277393341064
0.9729160070419312 -0.25957539677619934 -0.6348167061805725
0.9729160070419312 -0.25957539677619934 -0.4839056432247162
0.9729160070419312 -0.25957539677619934 -0.33299458026885986
0.9729159474372864 -0.25957539677619934 -0.18208351731300354
0.9729159474372864 -0.25957539677619934 -0.031172454357147217
0.9729159474372864 -0.25957539677619934 0.1197386085987091
0.9729159474372864 -0.25957539677619934 0.27064967155456543
0.9729159474372864 -0.25957539677619934 0.42156073451042175
0.9729159474372864 -0.25957539677619934 0.5724717974662781
0.9729159474372864 -0.25957539677619934 0.723382830619812
0.9729159474372864 -0.25957539677619934 0.8742939233779907
0.9729159474372864 -0.25957539677619934 1.0252050161361694
0.9729158878326416 -0.25957539677619934 1.1761159896850586
1.0040203332901 -0.05653716251254082 -1.0875499248504639
1.0040203332901 -0.05653716251254082 -0.9366388320922852
1.0040203332901 -0.05653716251254082 -0.7857277393341064
1.0040203332901 -0.05653716251254082 -0.6348167061805725
1.0040203332901 -0.05653716251254082 -0.4839056432247162
1.0040203332901 -0.05653716251254082 -0.33299458026885986
1.0040203332901 -0.05653716251254082 -0.18208351731300354
1.0040203332901 -0.05653716251254082 -0.031172454357147217
1.0040202140808105 -0.05653716251254082 0.1197386085987091
1.0040202140808105 -0.05653716251254082 0.27064967155456543
1.0040202140808105 -0.05653716251254082 0.42156073451042175
1.0040202140808105 -0.05653716251254082 0.5724717974662781
1.0040202140808105 -0.05653716251254082 0.723382830619812
1.0040202140808105 -0.05653716251254082 0.8742939233779907
1.0040202140808105 -0.05653716251254082 1.0252050161361694
1.0040202140808105 -0.05653716251254082 1.1761159896850586
0.9936166405677795 0.1486061066389084 -1.0875499248504639
0.9936166405677795 0.1486061066389084 -0.9366388320922852
0.9936166405677795 0.1486061066389084 -0.7857277393341064
0.9936166405677795 0.1486061066389084 -0.6348167061805725
0.9936165809631348 0.1486061066389084 -0.4839056432247162
0.9936165809631348 0.1486061066389084 -0.33299458026885986
0.9936165809631348 0.1486061066389084 -0.18208351731300354
0.9936165809631348 0.1486061066389084 -0.031172454357147217
0.9936165809631348 0.1486061066389084 0.1197386085987091
0.9936165809631348 0.1486061066389084 0.27064967155456543
0.9936165809631348 0.1486061066389084 0.42156073451042175
0.9936165809631348 0.1486061066389084 0.5724717974662781
0.9936165809631348 0.1486061066389084 0.723382830619812
0.99361652135849 0.1486061066389084 0.8742939233779907
0.99361652135849 0.1486061066389084 1.0252050161361694
0.99361652135849 0.1486061066389084 1.1761159896850586
0.9421308636665344 0.34745582938194275 -1.0875499248504639
0.9421308636665344 0.34745582938194275 -0.9366388320922852
0.9421308636665344 0.34745582938194275 -0.7857277393341064
0.9421308636665344 0.34745582938194275 -0.6348167061805725
0.9421308636665344 0.34745582938194275 -0.4839056432247162
0.9421308636665344 0.34745582938194275 -0.33299458026885986
0.9421308040618896 0.34745582938194275 -0.18208351731300354
0.9421308040618896 0.34745582938194275 -0.031172456219792366
0.9421308040618896 0.34745582938194275 0.11973860114812851
0.9421308040618896 0.34745582938194275 0.27064967155456543
0.9421308040618896 0.34745582938194275 0.42156073451042175
0.9421308040618896 0.34745582938194275 0.5724717974662781
0.9421308040618896 0.34745582938194275 0.723382830619812
0.9421308040618896 0.34745582938194275 0.8742939233779907
0.9421308040618896 0.34745582938194275 1.0252050161361694
0.9421307444572449 0.34745582938194275 1.1761159896850586
0.8516708612442017 0.5318710803985596 -1.0875499248504639
0.8516708612442017 0.5318710803985596 -0.9366388320922852
0.8516708612442017 0.5318710803985596 -0.7857277393341064
0.8516708612442017 0.5318710803985596 -0.6348167061805725
0.8516708612442017 0.5318710803985596 -0.4839056432247162
0.8516708612442017 0.5318710803985596 -0.33299458026885986
0.8516708612442017 0.5318710803985596 -0.18208351731300354
0.8516708016395569 0.5318710803985596 -0.031172459945082664
0.8516708016395569 0.5318710803985596 0.11973860114812851
0.8516708016395569 0.5318710803985596 0.27064967155456543
0.8516708016395569 0.5318710803985596 0.42156073451042175
0.8516708016395569 0.5318710803985596 0.5724717974662781
0.8516708016395569 0.5318710803985596 0.723382830619812
0.8516708016395569 0.5318710803985596 0.8742939233779907
0.8516708016395569 0.5318710803985596 1.0252050161361694
0.8516708016395569 0.5318710803985596 1.1761159896850586
0.7259400486946106 0.6943019032478333 -1.0875499248504639
0.7259400486946106 0.6943019032478333 -0.9366388320922852
0.7259400486946106 0.6943019032478333 -0.7857277989387512
0.7259400486946106 0.6943019032478333 -0.6348167061805725
0.7259400486946106 0.6943019032478333 -0.4839056432247162
0.7259400486946106 0.6943019032478333 -0.33299458026885986
0.7259400486946106 0.6943019032478333 -0.18208353221416473
0.7259400486946106 0.6943019032478333 -0.031172465533018112
0.7259400486946106 0.6943019032478333 0.11973859369754791
0.7259399890899658 0.6943019032478333 0.27064964175224304
0.7259399890899658 0.6943019032478333 0.42156070470809937
0.7259399890899658 0.6943019032478333 0.5724717974662781
0.7259399890899658 0.6943019032478333 0.723382830619812
0.7259399890899658 0.6943019032478333 0.8742939233779907
0.7259399890899658 0.6943019032478333 1.0252050161361694
0.7259399890899658 0.6943019032478333 1.1761159896850586
0.5700859427452087 0.8280982971191406 -1.0875499248504639
0.570085883140564 0.8280982971191406 -0.9366388320922852
0.570085883140564 0.8280982971191406 -0.7857277989387512
0.570085883140564 0.8280982971191406 -0.6348167061805725
0.570085883140564 0.8280982971191406 -0.4839056432247162
0.570085883140564 0.8280982971191406 -0.33299458026885986
0.570085883140564 0.8280982971191406 -0.18208353221416473
0.570085883140564 0.8280982971191406 -0.03117247298359871
0.570085883140564 0.8280982971191406 0.11973858624696732
0.570085883140564 0.8280982971191406 0.27064964175224304
0.5700858235359192 0.8280982971191406 0.42156070470809937
0.5700858235359192 0.8280982971191406 0.5724717974662781
0.5700858235359192 0.8280982971191406 0.723382830619812
0.5700858235359192 0.8280982971191406 0.874293863773346
0.5700858235359192 0.8280982971191406 1.0252048969268799
0.5700858235359192 0.8280982971191406 1.1761159896850586
0.3904890716075897 0.9277826547622681 -1.0875499248504639
0.3904890716075897 0.9277826547622681 -0.9366388320922852
0.3904890716075897 0.9277826547622681 -0.7857277989387512
0.3904890716075897 0.9277826547622681 -0.6348167061805725
0.39048904180526733 0.9277826547622681 -0.4839056730270386
0.39048904180526733 0.9277826547622681 -0.33299461007118225
0.39048904180526733 0.9277826547622681 -0.18208354711532593
0.39048904180526733 0.9277826547622681 -0.031172480434179306
0.39048904180526733 0.9277826547622681 0.11973857879638672
0.39048901200294495 0.9277826547622681 0.27064964175224304
0.39048901200294495 0.9277826547622681 0.42156070470809937
0.39048901200294495 0.9277826547622681 0.5724717378616333
0.39048901200294495 0.9277826547622681 0.723382830619812
0.39048898220062256 0.9277826547622681 0.874293863773346
0.39048898220062256 0.9277826547622681 1.0252048969268799
0.39048898220062256 0.9277826547622681 1.1761159896850586
0.19450229406356812 0.9892739057540894 -1.0875499248504639
0.19450227916240692 0.9892739057540894 -0.9366388320922852
0.19450227916240692 0.9892739057540894 -0.7857277989387512
0.19450226426124573 0.9892739057540894 -0.6348167061805725
0.19450226426124573 0.9892739057540894 -0.4839056730270386
0.19450224936008453 0.9892739057540894 -0.33299461007118225
0.19450224936008453 0.9892739057540894 -0.18208354711532593
0.19450224936008453 0.9892739057540894 -0.031172489747405052
0.19450223445892334 0.9892739057540894 0.11973857134580612
0.19450223445892334 0.9892739057540894 0.27064964175224304
0.19450221955776215 0.9892739057540894 0.42156070470809937
0.19450221955776215 0.9892739057540894 0.5724717378616333
0.19450220465660095 0.9892739057540894 0.723382830619812
0.19450220465660095 0.9892739057540894 0.874293863773346
0.19450220465660095 0.9892739057540894 1.0252048969268799
0.19450218975543976 0.9892739057540894 1.1761159896850586
-0.009850740432739258 1.010054588317871 -1.0875499248504639
-0.00985074695199728 1.010054588317871 -0.9366388916969299
-0.009850753471255302 1.010054588317871 -0.7857277989387512
-0.009850759990513325 1.010054588317871 -0.6348167657852173
-0.009850766509771347 1.010054588317871 -0.4839056730270386
-0.00985077302902937 1.010054588317871 -0.33299461007118225
-0.009850779548287392 1.010054588317871 -0.18208356201648712
-0.009850786998867989 1.010054588317871 -0.03117249719798565
-0.009850793518126011 1.010054588317871 0.11973856389522552
-0.009850800037384033 1.010054588317871 0.27064961194992065
-0.009850806556642056 1.010054588317871 0.421560674905777
-0.009850813075900078 1.010054588317871 0.5724717378616333
-0.0098508195951581 1.010054588317871 0.723382830619812
-0.009850826114416122 1.010054588317871 0.874293863773346
-0.009850832633674145 1.010054588317871 1.0252048969268799
-0.009850839152932167 1.010054588317871 1.1761159896850586
