ply
format ascii 1.0
element vertex 512
property float x
property float y
property float z
end_header
0.0035858154296875 -1.0025080442428589 0.9826995730400085
0.0031576366163790226 -1.0022183656692505 0.8495683073997498
0.002729458035901189 -1.0019285678863525 0.7164371013641357
0.0023012792225927114 -1.0016388893127441 0.5833058953285217
0.0018731005256995559 -1.0013490915298462 0.4501746892929077
0.0014449217123910785 -1.0010594129562378 0.3170434832572937
0.001016743015497923 -1.0007696151733398 0.1839122474193573
0.0005885642603971064 -1.0004799365997314 0.05078103765845299
0.00016038553440012038 -1.0001901388168335 -0.08235017955303192
-0.00026779319159686565 -0.9999004602432251 -0.21548138558864594
-0.0006959719466976821 -0.9996107220649719 -0.34861260652542114
-0.0011241507017984986 -0.9993209838867188 -0.48174381256103516
-0.0015523293986916542 -0.9990312457084656 -0.6148750185966492
-0.0019805082120001316 -0.9987415075302124 -0.7480062246322632
-0.0024086867924779654 -0.9984517693519592 -0.881137490272522
-0.0028368656057864428 -0.9981620907783508 -1.0142686367034912
-0.19780714809894562 -0.9820297360420227 0.9833918213844299
-0.19823531806468964 -0.9817399978637695 0.8502606153488159
-0.19866350293159485 -0.9814502596855164 0.7171294093132019
-0.19909168779850006 -0.9811605215072632 0.5839982032775879
-0.19951985776424408 -0.9808708429336548 0.4508669674396515
-0.1999480426311493 -0.9805811047554016 0.3177357614040375
-0.2003762125968933 -0.9802913665771484 0.18460454046726227
-0.20080439746379852 -0.9800016283988953 0.051473330706357956
-0.20123258233070374 -0.9797118902206421 -0.08165788650512695
-0.20166075229644775 -0.9794221520423889 -0.21478910744190216
-0.20208893716335297 -0.9791324138641357 -0.34792032837867737
-0.20251710712909698 -0.9788426756858826 -0.4810515344142914
-0.2029452919960022 -0.9785529375076294 -0.6141827702522278
-0.20337346196174622 -0.9782631993293762 -0.7473139762878418
-0.20380164682865143 -0.977973461151123 -0.8804451823234558
-0.20422983169555664 -0.9776837825775146 -1.0135763883590698
-0.3909550607204437 -0.9214304089546204 0.984144926071167
-0.39138323068618774 -0.9211406707763672 0.851013720035553
-0.39181140065193176 -0.920850932598114 0.717882513999939
-0.39223960041999817 -0.9205611944198608 0.584751307964325
-0.3926677703857422 -0.9202714562416077 0.45162007212638855
-0.3930959403514862 -0.9199817180633545 0.31848883628845215
-0.3935241401195526 -0.9196919798851013 0.18535763025283813
-0.39395231008529663 -0.9194022417068481 0.052226416766643524
-0.39438048005104065 -0.919112503528595 -0.08090479671955109
-0.39480865001678467 -0.9188227653503418 -0.2140360176563263
-0.3952368497848511 -0.9185330271720886 -0.3471672236919403
-0.3956650197505951 -0.9182433485984802 -0.4802984595298767
-0.3960931897163391 -0.917953610420227 -0.6134296655654907
-0.3965213894844055 -0.9176638722419739 -0.7465608716011047
-0.39694955945014954 -0.9173741340637207 -0.8796920776367188
-0.39737772941589355 -0.9170843958854675 -1.0128233432769775
-0.567950427532196 -0.8231909275054932 0.9849279522895813
-0.5683785676956177 -0.82290118932724 0.8517967462539673
-0.5688067674636841 -0.8226114511489868 0.7186655402183533
-0.5692349672317505 -0.8223217129707336 0.5855343341827393
-0.5696631073951721 -0.8220319747924805 0.45240312814712524
-0.5700913071632385 -0.8217422366142273 0.31927189230918884
-0.5705195069313049 -0.8214524984359741 0.18614068627357483
-0.5709476470947266 -0.821162760257721 0.05300946906208992
-0.571375846862793 -0.8208730220794678 -0.08012174814939499
-0.5718040466308594 -0.8205832839012146 -0.2132529616355896
-0.572232186794281 -0.8202936053276062 -0.3463841676712036
-0.5726603865623474 -0.820003867149353 -0.47951540350914
-0.5730885863304138 -0.8197141289710999 -0.6126465797424316
-0.5735167264938354 -0.8194243907928467 -0.7457778453826904
-0.5739449262619019 -0.8191346526145935 -0.8789090514183044
-0.5743731260299683 -0.8188449144363403 -1.0120402574539185
-0.72154700756073 -0.6913332343101501 0.9857089519500732
-0.7219752073287964 -0.691043496131897 0.8525777459144592
-0.722403347492218 -0.6907538175582886 0.7194464802742004
-0.7228315472602844 -0.6904640793800354 0.5863152742385864
-0.7232597470283508 -0.6901743412017822 0.4531840682029724
-0.7236878871917725 -0.689884603023529 0.3200528621673584
-0.7241160869598389 -0.6895948648452759 0.1869216412305832
-0.7245442867279053 -0.6893051266670227 0.05379043146967888
-0.7249724268913269 -0.6890153884887695 -0.07934078574180603
-0.7254006266593933 -0.6887256503105164 -0.21247200667858124
-0.7258288264274597 -0.6884359121322632 -0.34560322761535645
-0.7262569665908813 -0.68814617395401 -0.47873443365097046
-0.7266851663589478 -0.6878564357757568 -0.6118656396865845
-0.7271133661270142 -0.6875667572021484 -0.7449968457221985
-0.7275415062904358 -0.6872770190238953 -0.8781280517578125
-0.7279697060585022 -0.6869872808456421 -1.0112593173980713
-0.845456600189209 -0.5312557220458984 0.9864558577537537
-0.8458847999572754 -0.5309659838676453 0.8533245921134949
-0.846312940120697 -0.5306762456893921 0.7201933860778809
-0.8467411398887634 -0.5303865075111389 0.5870621800422668
-0.8471692800521851 -0.5300967693328857 0.45393097400665283
-0.8475974798202515 -0.5298070311546326 0.3207997679710388
-0.8480256795883179 -0.5295172929763794 0.1876685470342636
-0.8484538197517395 -0.5292275547981262 0.0545373260974884
-0.8488820195198059 -0.528937816619873 -0.07859388738870621
-0.8493102192878723 -0.5286480784416199 -0.21172510087490082
-0.849738359451294 -0.5283583998680115 -0.344856321811676
-0.8501665592193604 -0.5280686616897583 -0.47798752784729004
-0.8505947589874268 -0.5277789235115051 -0.611118733882904
-0.8510228991508484 -0.527489185333252 -0.7442499399185181
-0.8514510989189148 -0.5271994471549988 -0.8773812055587769
-0.8518792986869812 -0.5269097089767456 -1.010512351989746
-0.9346062541007996 -0.3495118319988251 0.9871380925178528
-0.935034453868866 -0.3492220938205719 0.8540068864822388
-0.9354626536369324 -0.3489323556423187 0.7208756804466248
-0.935890793800354 -0.34864261746406555 0.587744414806366
-0.9363189935684204 -0.34835290908813477 0.45461323857307434
-0.9367471933364868 -0.3480631709098816 0.32148200273513794
-0.9371753334999084 -0.3477734327316284 0.18835079669952393
-0.9376035332679749 -0.34748369455337524 0.05521957948803902
-0.9380316734313965 -0.34719395637512207 -0.07791163772344589
-0.9384598731994629 -0.3469042479991913 -0.2110428512096405
-0.9388880729675293 -0.3466145098209381 -0.3441740572452545
-0.9393162131309509 -0.34632477164268494 -0.4773052930831909
-0.9397444128990173 -0.34603503346443176 -0.6104364991188049
-0.9401726126670837 -0.3457452952861786 -0.743567705154419
-0.9406007528305054 -0.3454555571079254 -0.876698911190033
-0.9410289525985718 -0.34516584873199463 -1.009830117225647
-0.985346257686615 -0.15354226529598236 0.9877277612686157
-0.9857744574546814 -0.1532525271177292 0.8545965552330017
-0.986202597618103 -0.1529628038406372 0.7214653491973877
-0.9866307973861694 -0.15267306566238403 0.5883341431617737
-0.9870589971542358 -0.15238332748413086 0.4552029073238373
-0.9874871373176575 -0.15209360420703888 0.32207170128822327
-0.9879153370857239 -0.1518038660287857 0.18894048035144806
-0.9883435368537903 -0.15151412785053253 0.05580925941467285
-0.9887716770172119 -0.15122440457344055 -0.07732195407152176
-0.9891998767852783 -0.15093466639518738 -0.21045316755771637
-0.9896280169487 -0.1506449282169342 -0.3435843884944916
-0.9900562167167664 -0.15035520493984222 -0.4767155945301056
-0.9904844164848328 -0.15006546676158905 -0.609846830368042
-0.9909125566482544 -0.14977572858333588 -0.742978036403656
-0.9913407564163208 -0.1494860053062439 -0.87610924243927
-0.9917689561843872 -0.14919626712799072 -1.0092405080795288
-0.9955992698669434 0.04862998425960541 0.9882007241249084
-0.996027410030365 0.04891971871256828 0.8550695180892944
-0.9964556097984314 0.04920944944024086 0.7219383120536804
-0.9968838095664978 0.049499183893203735 0.5888071060180664
-0.9973119497299194 0.04978891834616661 0.45567587018013
-0.9977401494979858 0.05007864907383919 0.322544664144516
-0.9981683492660522 0.05036838352680206 0.18941344320774078
-0.9985964894294739 0.05065811425447464 0.056282222270965576
-0.9990246891975403 0.050947848707437515 -0.07684899121522903
-0.9994528293609619 0.05123758316040039 -0.20998020470142365
-0.9998810291290283 0.05152731388807297 -0.34311142563819885
-1.0003092288970947 0.05181704834103584 -0.47624263167381287
-1.0007374286651611 0.05210678279399872 -0.6093738675117493
-1.0011656284332275 0.052396513521671295 -0.7425050735473633
-1.0015937089920044 0.05268624797463417 -0.8756362795829773
-1.0020219087600708 0.05297597870230675 -1.0087674856185913
-0.9649454951286316 0.2487279623746872 0.988537609577179
-0.9653736352920532 0.24901768565177917 0.8554064035415649
-0.9658018350601196 0.24930742383003235 0.7222751975059509
-0.966230034828186 0.24959716200828552 0.5891439914703369
-0.9666581749916077 0.2498868852853775 0.4560127556324005
-0.9670863747596741 0.2501766085624695 0.3228815495967865
-0.9675145745277405 0.25046634674072266 0.1897503137588501
-0.9679427146911621 0.25075608491897583 0.056619103997945786
-0.9683709144592285 0.251045823097229 -0.07651211321353912
-0.9687991142272949 0.2513355612754822 -0.20964331924915314
-0.9692272543907166 0.25162529945373535 -0.34277454018592834
-0.969655454158783 0.25191500782966614 -0.47590574622154236
-0.9700836539268494 0.2522047460079193 -0.6090369820594788
-0.970511794090271 0.2524944841861725 -0.7421681880950928
-0.9709399938583374 0.25278422236442566 -0.8752993941307068
-0.9713681936264038 0.25307396054267883 -1.0084306001663208
-0.8946399092674255 0.4385596215724945 0.9887246489524841
-0.8950681090354919 0.4388493597507477 0.8555933833122253
-0.8954963088035583 0.43913909792900085 0.7224621772766113
-0.89592444896698 0.43942880630493164 0.5893309712409973
-0.8963526487350464 0.4397185444831848 0.4561997652053833
-0.8967808485031128 0.440008282661438 0.3230685591697693
-0.8972089886665344 0.44029802083969116 0.18993733823299408
-0.8976371884346008 0.44058775901794434 0.05680611729621887
-0.8980653882026672 0.4408774971961975 -0.07632509618997574
-0.8984935283660889 0.4411672055721283 -0.20945630967617035
-0.8989217281341553 0.44145694375038147 -0.34258753061294556
-0.8993499279022217 0.44174668192863464 -0.47571873664855957
-0.8997780680656433 0.4420364201068878 -0.6088499426841736
-0.9002062678337097 0.442326158285141 -0.7419811487197876
-0.9006344676017761 0.44261589646339417 -0.8751124143600464
-0.9010626077651978 0.44290560483932495 -1.0082435607910156
-0.7875609397888184 0.6103532314300537 0.9887540936470032
-0.78798907995224 0.6106429696083069 0.8556228876113892
-0.7884172797203064 0.6109327077865601 0.7224916815757751
-0.7888454794883728 0.6112224459648132 0.5893604755401611
-0.7892736196517944 0.6115121841430664 0.45622923970222473
-0.7897018194198608 0.6118019223213196 0.3230980336666107
-0.7901300191879272 0.6120916604995728 0.1899668127298355
-0.7905581593513489 0.6123813986778259 0.0568356029689312
-0.7909863591194153 0.6126710772514343 -0.07629561424255371
-0.7914145588874817 0.6129608154296875 -0.20942683517932892
-0.7918426990509033 0.6132505536079407 -0.3425580561161041
-0.7922708988189697 0.6135402917861938 -0.47568926215171814
-0.7926990389823914 0.613830029964447 -0.6088204979896545
-0.7931272387504578 0.6141197681427002 -0.7419517040252686
-0.7935554385185242 0.6144095063209534 -0.8750829100608826
-0.7939835786819458 0.6146992444992065 -1.0082141160964966
-0.6480922698974609 0.7570755481719971 0.9886248707771301
-0.6485204696655273 0.7573652863502502 0.8554936647415161
-0.648948609828949 0.7576550245285034 0.7223624587059021
-0.6493768095970154 0.7579447627067566 0.5892311930656433
-0.6498050093650818 0.7582345008850098 0.4560999870300293
-0.6502331495285034 0.7585242390632629 0.3229687809944153
-0.6506613492965698 0.7588139772415161 0.18983757495880127
-0.6510894894599915 0.7591037154197693 0.056706350296735764
-0.6515176892280579 0.7593934535980225 -0.07642486691474915
-0.6519458889961243 0.7596831917762756 -0.20955607295036316
-0.6523740291595459 0.7599729299545288 -0.34268730878829956
-0.6528022289276123 0.7602626085281372 -0.4758185148239136
-0.6532304286956787 0.7605523467063904 -0.6089497208595276
-0.6536585688591003 0.7608420848846436 -0.7420809268951416
-0.6540867686271667 0.7611318230628967 -0.8752121329307556
-0.6545149683952332 0.7614215612411499 -1.0083433389663696
-0.48194384574890137 0.8727197647094727 0.9883421659469604
-0.4823720157146454 0.8730095028877258 0.8552109599113464
-0.4828001856803894 0.873299241065979 0.7220797538757324
-0.4832283556461334 0.8735889792442322 0.5889485478401184
-0.48365655541419983 0.8738787174224854 0.455817312002182
-0.48408472537994385 0.8741684556007385 0.3226860761642456
-0.48451289534568787 0.8744581937789917 0.1895548701286316
-0.4849410951137543 0.8747479319572449 0.05642366036772728
-0.4853692650794983 0.875037670135498 -0.07670755684375763
-0.4857974350452423 0.8753274083137512 -0.20983877778053284
-0.48622560501098633 0.8756170868873596 -0.34296998381614685
-0.48665380477905273 0.8759068250656128 -0.47610118985176086
-0.48708197474479675 0.876196563243866 -0.6092324256896973
-0.48751014471054077 0.8764863014221191 -0.7423636317253113
-0.4879383444786072 0.8767760396003723 -0.8754948377609253
-0.4883665144443512 0.8770657777786255 -1.008626103401184
-0.2959177494049072 0.9525513648986816 0.9879176020622253
-0.29634594917297363 0.9528411030769348 0.8547863960266113
-0.29677411913871765 0.953130841255188 0.7216551899909973
-0.29720228910446167 0.9534205794334412 0.5885239839553833
-0.2976304590702057 0.9537103176116943 0.4553927481174469
-0.2980586588382721 0.9540000557899475 0.3222615122795105
-0.2984868288040161 0.9542897939682007 0.18913030624389648
-0.29891499876976013 0.9545795321464539 0.05599909648299217
-0.29934319853782654 0.954869270324707 -0.07713212072849274
-0.29977136850357056 0.9551590085029602 -0.21026334166526794
-0.3001995384693146 0.9554486870765686 -0.34339454770088196
-0.3006277084350586 0.9557384252548218 -0.47652575373649597
-0.301055908203125 0.956028163433075 -0.6096569895744324
-0.301484078168869 0.9563179016113281 -0.7427881956100464
-0.30191224813461304 0.9566076397895813 -0.8759194016456604
-0.30234044790267944 0.9568973779678345 -1.0090506076812744
-0.09762997180223465 0.993302047252655 0.9873685240745544
-0.09805814921855927 0.9935917854309082 0.8542373180389404
-0.09848632663488388 0.9938815236091614 0.7211061120033264
-0.0989145040512085 0.9941712617874146 0.5879749059677124
-0.09934268891811371 0.9944609999656677 0.4548436999320984
-0.09977086633443832 0.9947507381439209 0.321712464094162
-0.10019904375076294 0.9950404763221741 0.18858125805854797
-0.10062722116708755 0.9953302145004272 0.05545004457235336
-0.10105539858341217 0.9956199526786804 -0.07768116891384125
-0.10148357599973679 0.9959096312522888 -0.21081238985061646
-0.101911760866642 0.996199369430542 -0.34394359588623047
-0.10233993828296661 0.9964891076087952 -0.4770748019218445
-0.10276811569929123 0.9967788457870483 -0.6102060079574585
-0.10319629311561584 0.9970685839653015 -0.7433372735977173
-0.10362447053194046 0.9973583221435547 -0.8764684796333313
-0.10405265539884567 0.9976480603218079 -1.0095996856689453
0.10480160266160965 0.9933034777641296 0.9867175221443176
0.10437342524528503 0.9935932159423828 0.8535862565040588
0.10394524037837982 0.993882954120636 0.7204550504684448
0.1035170629620552 0.9941726922988892 0.5873238444328308
0.10308888554573059 0.9944624304771423 0.4541926383972168
0.10266070812940598 0.9947521686553955 0.3210614025592804
0.10223253071308136 0.9950419068336487 0.18793019652366638
0.10180435329675674 0.9953315854072571 0.05479898303747177
0.10137616842985153 0.9956213235855103 -0.07833223044872284
0.10094799101352692 0.9959110617637634 -0.21146345138549805
0.1005198135972023 0.9962007999420166 -0.34459465742111206
0.10009163618087769 0.9964905381202698 -0.4777258634567261
0.09966345876455307 0.996780276298523 -0.6108570694923401
0.09923528134822845 0.9970700144767761 -0.7439883351325989
0.09880709648132324 0.9973597526550293 -0.8771195411682129
0.09837891906499863 0.9976494908332825 -1.0102506875991821
0.3030893802642822 0.9525555968284607 0.9859910607337952
0.3026612102985382 0.9528453350067139 0.8528598546981812
0.3022330403327942 0.953135073184967 0.7197286486625671
0.3018048405647278 0.9534247517585754 0.5865974426269531
0.30137667059898376 0.9537144899368286 0.4534662067890167
0.30094850063323975 0.9540042281150818 0.3203350007534027
0.30052030086517334 0.954293966293335 0.1872037798166275
0.3000921308994293 0.9545837044715881 0.05407257005572319
0.2996639609336853 0.9548734426498413 -0.07905864715576172
0.2992357909679413 0.9551631808280945 -0.21218986809253693
0.2988075911998749 0.9554529190063477 -0.34532108902931213
0.29837942123413086 0.9557426571846008 -0.47845229506492615
0.29795125126838684 0.956032395362854 -0.6115835309028625
0.29752305150032043 0.9563221335411072 -0.7447147369384766
0.2970948815345764 0.9566118121147156 -0.8778459429740906
0.2966667115688324 0.9569015502929688 -1.0109771490097046
0.48911547660827637 0.872726559638977 0.9852190613746643
0.48868727684020996 0.8730162978172302 0.8520878553390503
0.48825910687446594 0.8733060359954834 0.7189565896987915
0.4878309369087219 0.8735957741737366 0.5858253836631775
0.4874027371406555 0.8738855123519897 0.4526941776275635
0.4869745671749115 0.8741752505302429 0.31956297159194946
0.4865463972091675 0.8744649887084961 0.18643175065517426
0.4861181974411011 0.8747547268867493 0.053300537168979645
0.48569002747535706 0.8750444650650024 -0.07983067631721497
0.48526185750961304 0.8753342032432556 -0.21296189725399017
0.484833687543869 0.875623881816864 -0.3460931181907654
0.4844054877758026 0.8759136199951172 -0.4792243242263794
0.4839773178100586 0.8762033581733704 -0.6123555302619934
0.4835491478443146 0.8764930963516235 -0.7454867362976074
0.48312094807624817 0.8767828345298767 -0.8786179423332214
0.48269277811050415 0.8770725727081299 -1.0117491483688354
0.6552639007568359 0.7570846676826477 0.9844329953193665
0.6548357009887695 0.7573744058609009 0.8513017892837524
0.6544075608253479 0.757664144039154 0.7181705832481384
0.6539793610572815 0.7579538822174072 0.5850393772125244
0.6535511612892151 0.7582436203956604 0.451908141374588
0.6531230211257935 0.7585333585739136 0.318776935338974
0.652694821357727 0.7588230967521667 0.1856457144021988
0.6522666215896606 0.7591128349304199 0.05251449719071388
0.651838481426239 0.7594025731086731 -0.08061672002077103
0.6514102816581726 0.7596923112869263 -0.21374793350696564
0.6509820818901062 0.7599820494651794 -0.34687915444374084
0.6505539417266846 0.7602717876434326 -0.48001036047935486
0.6501257419586182 0.760561466217041 -0.6131415963172913
0.6496976017951965 0.7608512043952942 -0.7462728023529053
0.6492694020271301 0.7611409425735474 -0.8794040083885193
0.6488412022590637 0.7614306807518005 -1.0125352144241333
0.7947325706481934 0.6103643178939819 0.9836651086807251
0.794304370880127 0.6106540560722351 0.8505339026451111
0.7938761711120605 0.6109437942504883 0.7174026966094971
0.7934480309486389 0.6112335324287415 0.5842714905738831
0.7930198311805725 0.6115232706069946 0.45114028453826904
0.7925916314125061 0.6118130087852478 0.31800904870033264
0.7921634912490845 0.6121026873588562 0.18487784266471863
0.7917352914810181 0.6123924255371094 0.05174662917852402
0.7913071513175964 0.6126821637153625 -0.0813845843076706
0.79087895154953 0.6129719018936157 -0.2145158052444458
0.7904507517814636 0.6132616400718689 -0.3476470112800598
0.790022611618042 0.6135513782501221 -0.4807782471179962
0.7895944118499756 0.6138411164283752 -0.6139094233512878
0.7891662120819092 0.6141308546066284 -0.7470406889915466
0.7887380719184875 0.6144205927848816 -0.8801718950271606
0.7883098721504211 0.6147103309631348 -1.0133030414581299
0.9018115401268005 0.4385721981525421 0.9829468727111816
0.9013833999633789 0.4388619363307953 0.8498156666755676
0.9009552001953125 0.43915167450904846 0.7166844606399536
0.9005270600318909 0.43944138288497925 0.5835532546043396
0.9000988602638245 0.4397311210632324 0.4504220187664032
0.8996706604957581 0.4400208592414856 0.3172908127307892
0.8992425203323364 0.44031059741973877 0.18415959179401398
0.89881432056427 0.44060033559799194 0.05102836713194847
0.8983861207962036 0.44089004397392273 -0.08210285007953644
0.897957980632782 0.4411797821521759 -0.21523405611515045
0.8975297808647156 0.4414695203304291 -0.34836527705192566
0.8971015810966492 0.44175925850868225 -0.4814964830875397
0.8966734409332275 0.4420489966869354 -0.6146277189254761
0.8962452411651611 0.4423387348651886 -0.7477589249610901
0.8958170413970947 0.4426284432411194 -0.8808901309967041
0.8953889012336731 0.44291818141937256 -1.014021396636963
0.9721171259880066 0.2487415224313736 0.9823076128959656
0.9716889262199402 0.24903124570846558 0.8491764068603516
0.9712607860565186 0.24932098388671875 0.7160452008247375
0.9708325862884521 0.24961072206497192 0.5829139947891235
0.9704043865203857 0.2499004453420639 0.44978275895118713
0.9699762463569641 0.2501901686191559 0.3166515529155731
0.9695480465888977 0.25047990679740906 0.1835203319787979
0.9691198468208313 0.25076964497566223 0.0503891222178936
0.9686917066574097 0.2510593831539154 -0.08274209499359131
0.9682635068893433 0.2513491213321686 -0.21587330102920532
0.9678353071212769 0.25163885951042175 -0.3490045368671417
0.9674071669578552 0.25192856788635254 -0.48213574290275574
0.9669789671897888 0.2522183060646057 -0.6152669787406921
0.9665507674217224 0.2525080442428589 -0.7483981847763062
0.9661226272583008 0.25279778242111206 -0.8815293908119202
0.9656944274902344 0.25308752059936523 -1.0146605968475342
1.0027709007263184 0.04864397272467613 0.9817735552787781
1.002342700958252 0.04893370717763901 0.8486423492431641
1.0019145011901855 0.049223437905311584 0.71551114320755
1.0014863014221191 0.04951317235827446 0.582379937171936
1.0010582208633423 0.04980290308594704 0.44924870133399963
1.0006300210952759 0.05009263753890991 0.3161174952983856
1.0002018213272095 0.05038237199187279 0.1829862743616104
0.9997736215591431 0.050672102719545364 0.0498550608754158
0.9993454217910767 0.05096183717250824 -0.08327615261077881
0.998917281627655 0.05125156790018082 -0.21640737354755402
0.9984890818595886 0.05154130235314369 -0.3495385944843292
0.998060941696167 0.05183103680610657 -0.48266980051994324
0.9976327419281006 0.052120767533779144 -0.6158010363578796
0.9972045421600342 0.05241050198674202 -0.7489322423934937
0.9967764019966125 0.0527002327144146 -0.8820634484291077
0.9963482022285461 0.05298996716737747 -1.0151946544647217
0.99251788854599 -0.15352842211723328 0.9813665747642517
0.9920896887779236 -0.1532386839389801 0.8482353687286377
0.991661548614502 -0.15294894576072693 0.7151041030883789
0.9912333488464355 -0.15265922248363495 0.5819728970527649
0.9908051490783691 -0.15236948430538177 0.4488416910171509
0.9903770089149475 -0.1520797610282898 0.31571048498153687
0.9899488091468811 -0.15179002285003662 0.18257926404476166
0.9895206093788147 -0.15150028467178345 0.04944805055856705
0.9890924692153931 -0.15121056139469147 -0.08368316292762756
0.9886642694473267 -0.1509208232164383 -0.21681438386440277
0.988236129283905 -0.15063108503818512 -0.349945604801178
0.9878079295158386 -0.15034136176109314 -0.483076810836792
0.9873797297477722 -0.15005162358283997 -0.616208016872406
0.9869515895843506 -0.1497618854045868 -0.74933922290802
0.9865233898162842 -0.1494721621274948 -0.882470428943634
0.9860951900482178 -0.14918242394924164 -1.015601634979248
0.9417778849601746 -0.3494986891746521 0.981103241443634
0.9413497447967529 -0.3492089509963989 0.84797203540802
0.9409215450286865 -0.34891924262046814 0.714840829372406
0.9404933452606201 -0.34862950444221497 0.581709623336792
0.9400652050971985 -0.3483397662639618 0.4485783874988556
0.9396370053291321 -0.3480500280857086 0.3154471814632416
0.9392088055610657 -0.34776028990745544 0.18231597542762756
0.938780665397644 -0.34747055172920227 0.049184754490852356
0.9383524656295776 -0.3471808433532715 -0.08394646644592285
0.9379242658615112 -0.3468911051750183 -0.21707767248153687
0.9374961256980896 -0.34660136699676514 -0.35020890831947327
0.9370679259300232 -0.34631162881851196 -0.4833401143550873
0.9366397857666016 -0.3460218906402588 -0.6164713501930237
0.9362115859985352 -0.345732182264328 -0.7496025562286377
0.9357833862304688 -0.34544244408607483 -0.8827337622642517
0.9353552460670471 -0.34515270590782166 -1.0158649682998657
0.852628231048584 -0.5312438011169434 0.980994462966919
0.8522000312805176 -0.5309540629386902 0.8478632569313049
0.851771891117096 -0.530664324760437 0.7147320508956909
0.8513436913490295 -0.5303745865821838 0.5816007852554321
0.8509154915809631 -0.5300849080085754 0.4484695792198181
0.8504873514175415 -0.5297951698303223 0.3153383731842041
0.8500591516494751 -0.5295054316520691 0.1822071671485901
0.8496309518814087 -0.5292156934738159 0.04907594621181488
0.8492028117179871 -0.5289259552955627 -0.08405526727437973
0.8487746119499207 -0.5286362171173096 -0.21718648076057434
0.8483464121818542 -0.5283464789390564 -0.35031768679618835
0.8479182720184326 -0.5280567407608032 -0.48344892263412476
0.8474900722503662 -0.52776700258255 -0.6165801286697388
0.8470618724822998 -0.5274772644042969 -0.7497113347053528
0.8466337323188782 -0.5271875262260437 -0.8828425407409668
0.8462055325508118 -0.5268978476524353 -1.0159738063812256
0.728718638420105 -0.6913231015205383 0.981044590473175
0.7282904386520386 -0.6910333633422852 0.847913384437561
0.7278622984886169 -0.690743625164032 0.714782178401947
0.7274340987205505 -0.6904538869857788 0.581650972366333
0.7270059585571289 -0.6901641488075256 0.4485197365283966
0.7265777587890625 -0.6898744702339172 0.3153885304927826
0.7261495590209961 -0.6895847320556641 0.1822572946548462
0.7257214188575745 -0.6892949938774109 0.04912608489394188
0.7252932190895081 -0.6890052556991577 -0.08400513231754303
0.7248650193214417 -0.6887155175209045 -0.21713633835315704
0.72443687915802 -0.6884257793426514 -0.35026755928993225
0.7240086793899536 -0.6881360411643982 -0.48339876532554626
0.7235804796218872 -0.687846302986145 -0.6165300011634827
0.7231523394584656 -0.6875565648078918 -0.7496612071990967
0.7227241396903992 -0.6872668266296387 -0.8827924132347107
0.7222959399223328 -0.6869770884513855 -1.0159236192703247
0.575122058391571 -0.8231828808784485 0.9812516570091248
0.5746938586235046 -0.8228932023048401 0.848120391368866
0.574265718460083 -0.8226034641265869 0.714989185333252
0.5738375186920166 -0.8223137259483337 0.5818579792976379
0.5734093189239502 -0.8220239877700806 0.4487267732620239
0.5729811787605286 -0.8217342495918274 0.3155955374240875
0.5725529789924622 -0.8214445114135742 0.1824643313884735
0.5721247792243958 -0.821154773235321 0.0493331216275692
0.5716966390609741 -0.8208650350570679 -0.08379809558391571
0.5712684392929077 -0.8205752968788147 -0.21692931652069092
0.5708402395248413 -0.8202855587005615 -0.35006052255630493
0.5704120993614197 -0.8199958205223083 -0.48319172859191895
0.5699838995933533 -0.8197060823440552 -0.616322934627533
0.5695556998252869 -0.8194164037704468 -0.7494542002677917
0.5691275596618652 -0.8191266655921936 -0.8825854063034058
0.5686993598937988 -0.8188369274139404 -1.015716552734375
0.3981266915798187 -0.9214248657226562 0.9816070795059204
0.3976985216140747 -0.9211351275444031 0.8484758734703064
0.3972703218460083 -0.9208453893661499 0.7153446674346924
0.3968421518802643 -0.9205556511878967 0.5822134613990784
0.39641398191452026 -0.9202659130096436 0.44908222556114197
0.39598578214645386 -0.9199761748313904 0.31595098972320557
0.39555761218070984 -0.9196864366531372 0.18281978368759155
0.3951294422149658 -0.9193967580795288 0.04968857020139694
0.3947012424468994 -0.9191070199012756 -0.08344264328479767
0.3942730724811554 -0.9188172817230225 -0.21657386422157288
0.3938449025154114 -0.9185275435447693 -0.3497050702571869
0.39341673254966736 -0.9182378053665161 -0.4828362762928009
0.39298853278160095 -0.9179480671882629 -0.6159675121307373
0.39256036281585693 -0.9176583290100098 -0.7490987181663513
0.3921321928501129 -0.9173685908317566 -0.8822299242019653
0.3917039930820465 -0.9170788526535034 -1.0153611898422241
0.20497877895832062 -0.9820269346237183 0.9820963740348816
0.2045505940914154 -0.9817371964454651 0.8489651679992676
0.2041224241256714 -0.9814474582672119 0.7158339619636536
0.20369423925876617 -0.9811577200889587 0.5827027559280396
0.20326605439186096 -0.9808679819107056 0.44957154989242554
0.20283788442611694 -0.9805782437324524 0.31644031405448914
0.20240969955921173 -0.9802885055541992 0.18330910801887512
0.2019815295934677 -0.9799988269805908 0.050177887082099915
0.2015533447265625 -0.9797090888023376 -0.0829533264040947
0.20112517476081848 -0.9794193506240845 -0.2160845398902893
0.20069698989391327 -0.9791296124458313 -0.3492157459259033
0.20026880502700806 -0.9788398742675781 -0.4823469817638397
0.19984063506126404 -0.978550136089325 -0.6154782176017761
0.19941245019435883 -0.9782603979110718 -0.7486094236373901
0.1989842802286148 -0.9779706597328186 -0.8817406296730042
0.1985560953617096 -0.9776809215545654 -1.0148718357086182
0.0035858154296875 -1.0025080442428589 0.9826995730400085
0.0031576366163790226 -1.0022183656692505 0.8495683073997498
0.002729458035901189 -1.0019285678863525 0.7164371013641357
0.0023012792225927114 -1.0016388893127441 0.5833058953285217
0.0018731005256995559 -1.0013490915298462 0.4501746892929077
0.0014449217123910785 -1.0010594129562378 0.3170434832572937
0.001016743015497923 -1.0007696151733398 0.1839122474193573
0.0005885642603971064 -1.0004799365997314 0.05078103765845299
0.00016038553440012038 -1.0001901388168335 -0.08235017955303192
-0.00026779319159686565 -0.9999004602432251 -0.21548138558864594
-0.0006959719466976821 -0.9996107220649719 -0.34861260652542114
-0.0011241507017984986 -0.9993209838867188 -0.48174381256103516
-0.0015523293986916542 -0.9990312457084656 -0.6148750185966492
-0.0019805082120001316 -0.9987415075302124 -0.7480062246322632
-0.0024086867924779654 -0.9984517693519592 -0.881137490272522
-0.0028368656057864428 -0.9981620907783508 -1.0142686367034912
