ply
format ascii 1.0
element vertex 512
property float x
property float y
property float z
end_header
0.019548892974853516 1.0058555603027344 -0.944029688835144
0.020013095811009407 1.0058555603027344 -0.8196274042129517
0.0204772986471653 1.0058555603027344 -0.6952251195907593
0.02094150148332119 1.0058555603027344 -0.5708228349685669
0.021405702456831932 1.0058555603027344 -0.4464205205440521
0.021869905292987823 1.0058555603027344 -0.32201823592185974
0.022334108129143715 1.0058555603027344 -0.19761593639850616
0.022798310965299606 1.0058555603027344 -0.07321363687515259
0.023262513801455498 1.0058555603027344 0.05118865147233009
0.02372671663761139 1.0058555603027344 0.17559094727039337
0.02419091761112213 1.0058555603027344 0.29999324679374695
0.024655120447278023 1.0058555603027344 0.42439553141593933
0.025119323283433914 1.0058555603027344 0.5487978458404541
0.025583526119589806 1.0058555603027344 0.6732001304626465
0.026047728955745697 1.0058555603027344 0.7976024150848389
0.02651193179190159 1.0058555603027344 0.9220046997070312
-0.18310990929603577 0.985247015953064 -0.9432734847068787
-0.18264570832252502 0.985247015953064 -0.8188712000846863
-0.18218150734901428 0.985247015953064 -0.6944689154624939
-0.18171729147434235 0.985247015953064 -0.5700665712356567
-0.1812530905008316 0.985247015953064 -0.44566431641578674
-0.18078888952732086 0.985247015953064 -0.321262001991272
-0.18032468855381012 0.985247015953064 -0.1968597173690796
-0.17986048758029938 0.985247015953064 -0.07245742529630661
-0.17939628660678864 0.985247015953064 0.05194486677646637
-0.1789320856332779 0.985247015953064 0.17634716629981995
-0.17846788465976715 0.985247015953064 0.30074945092201233
-0.1780036836862564 0.985247015953064 0.4251517355442047
-0.17753948271274567 0.985247015953064 0.5495540499687195
-0.17707526683807373 0.985247015953064 0.6739563345909119
-0.176611065864563 0.985247015953064 0.7983586192131042
-0.17614686489105225 0.985247015953064 0.9227609038352966
-0.37747183442115784 0.9242651462554932 -0.9425482153892517
-0.3770076334476471 0.9242651462554932 -0.8181459307670593
-0.37654343247413635 0.9242651462554932 -0.6937436461448669
-0.3760792315006256 0.9242651462554932 -0.5693413615226746
-0.37561503052711487 0.9242651462554932 -0.4449390470981598
-0.3751508295536041 0.9242651462554932 -0.3205367624759674
-0.3746866285800934 0.9242651462554932 -0.19613446295261383
-0.37422242760658264 0.9242651462554932 -0.07173217087984085
-0.3737581968307495 0.9242651462554932 0.05267012119293213
-0.37329399585723877 0.9242651462554932 0.1770724207162857
-0.372829794883728 0.9242651462554932 0.3014747202396393
-0.3723655939102173 0.9242651462554932 0.42587700486183167
-0.37190139293670654 0.9242651462554932 0.5502793192863464
-0.3714371919631958 0.9242651462554932 0.6746816039085388
-0.37097299098968506 0.9242651462554932 0.7990838885307312
-0.3705087900161743 0.9242651462554932 0.9234861731529236
-0.555579662322998 0.825406551361084 -0.9418836236000061
-0.5551154613494873 0.825406551361084 -0.8174813389778137
-0.5546512603759766 0.825406551361084 -0.6930790543556213
-0.5541870594024658 0.825406551361084 -0.568676769733429
-0.5537228584289551 0.825406551361084 -0.4442744553089142
-0.5532586574554443 0.825406551361084 -0.3198721408843994
-0.5527944564819336 0.825406551361084 -0.19546985626220703
-0.5523302555084229 0.825406551361084 -0.07106757164001465
-0.5518660545349121 0.825406551361084 0.05333472415804863
-0.5514018535614014 0.825406551361084 0.1777370125055313
-0.5509376525878906 0.825406551361084 0.3021393120288849
-0.5504734516143799 0.825406551361084 0.42654159665107727
-0.5500092506408691 0.825406551361084 0.550943911075592
-0.5495450496673584 0.825406551361084 0.6753461956977844
-0.5490808486938477 0.825406551361084 0.7997484803199768
-0.5486166477203369 0.825406551361084 0.9241507649421692
-0.7101417183876038 0.692718505859375 -0.9413068890571594
-0.709677517414093 0.692718505859375 -0.816904604434967
-0.7092133164405823 0.692718505859375 -0.6925023198127747
-0.7087491154670715 0.692718505859375 -0.5680999755859375
-0.7082849144935608 0.692718505859375 -0.4436976909637451
-0.70782071352005 0.692718505859375 -0.31929540634155273
-0.7073564529418945 0.692718505859375 -0.19489312171936035
-0.7068922519683838 0.692718505859375 -0.07049082964658737
-0.706428050994873 0.692718505859375 0.053911466151475906
-0.7059638500213623 0.692718505859375 0.17831376194953918
-0.7054996490478516 0.692718505859375 0.30271604657173157
-0.7050354480743408 0.692718505859375 0.42711833119392395
-0.7045712471008301 0.692718505859375 0.5515206456184387
-0.7041070461273193 0.692718505859375 0.6759229302406311
-0.7036428451538086 0.692718505859375 0.8003252148628235
-0.7031786441802979 0.692718505859375 0.9247274994850159
-0.834830105304718 0.5316332578659058 -0.9408416152000427
-0.8343659043312073 0.5316332578659058 -0.8164393305778503
-0.8339017033576965 0.5316332578659058 -0.692037045955658
-0.8334375023841858 0.5316332578659058 -0.5676347017288208
-0.832973301410675 0.5316332578659058 -0.4432324469089508
-0.8325091004371643 0.5316332578659058 -0.31883013248443604
-0.8320448994636536 0.5316332578659058 -0.19442784786224365
-0.8315806984901428 0.5316332578659058 -0.07002555578947067
-0.8311164975166321 0.5316332578659058 0.05437673628330231
-0.8306522965431213 0.5316332578659058 0.17877903580665588
-0.8301880955696106 0.5316332578659058 0.30318132042884827
-0.8297238945960999 0.5316332578659058 0.42758360505104065
-0.8292596936225891 0.5316332578659058 0.5519859194755554
-0.8287954926490784 0.5316332578659058 0.6763882040977478
-0.8283312320709229 0.5316332578659058 0.8007904887199402
-0.8278670310974121 0.5316332578659058 0.9251927733421326
-0.924540102481842 0.3487456440925598 -0.9405068755149841
-0.9240759015083313 0.3487456440925598 -0.8161045908927917
-0.9236117005348206 0.3487456440925598 -0.6917022466659546
-0.9231474995613098 0.3487456440925598 -0.5672999620437622
-0.9226832985877991 0.3487456440925598 -0.4428976774215698
-0.9222190976142883 0.3487456440925598 -0.31849539279937744
-0.9217548966407776 0.3487456440925598 -0.19409309327602386
-0.9212906956672668 0.3487456440925598 -0.06969080865383148
-0.9208264946937561 0.3487456440925598 0.054711487144231796
-0.9203622937202454 0.3487456440925598 0.17911377549171448
-0.9198980927467346 0.3487456440925598 0.30351606011390686
-0.9194338917732239 0.3487456440925598 0.42791837453842163
-0.9189696907997131 0.3487456440925598 0.552320659160614
-0.9185054898262024 0.3487456440925598 0.6767229437828064
-0.9180412888526917 0.3487456440925598 0.8011252284049988
-0.9175770878791809 0.3487456440925598 0.9255275130271912
-0.9755990505218506 0.15154314041137695 -0.9403163194656372
-0.9751348495483398 0.15154314041137695 -0.8159140348434448
-0.9746706485748291 0.15154314041137695 -0.6915117502212524
-0.9742064476013184 0.15154314041137695 -0.5671094655990601
-0.9737422466278076 0.15154314041137695 -0.4427071511745453
-0.9732779860496521 0.15154314041137695 -0.3183048665523529
-0.9728137850761414 0.15154314041137695 -0.19390258193016052
-0.9723495841026306 0.15154314041137695 -0.06950028240680695
-0.9718853831291199 0.15154314041137695 0.054902009665966034
-0.9714211821556091 0.15154314041137695 0.179304301738739
-0.9709569811820984 0.15154314041137695 0.3037065863609314
-0.9704927802085876 0.15154314041137695 0.42810890078544617
-0.9700285792350769 0.15154314041137695 0.5525111556053162
-0.9695643782615662 0.15154314041137695 0.6769134998321533
-0.9691001772880554 0.15154314041137695 0.8013157844543457
-0.9686359763145447 0.15154314041137695 0.9257180690765381
-0.9859164357185364 -0.05190075933933258 -0.9402778148651123
-0.9854522347450256 -0.05190075561404228 -0.8158755302429199
-0.9849880337715149 -0.05190075561404228 -0.6914732456207275
-0.9845238327980042 -0.05190075561404228 -0.5670709609985352
-0.9840596318244934 -0.05190075561404228 -0.4426686465740204
-0.9835954308509827 -0.05190075561404228 -0.318266361951828
-0.9831312298774719 -0.05190075561404228 -0.19386407732963562
-0.9826670289039612 -0.05190075561404228 -0.06946178525686264
-0.9822028279304504 -0.05190075561404228 0.05494051054120064
-0.9817386269569397 -0.05190075561404228 0.17934280633926392
-0.981274425983429 -0.05190075561404228 0.3037450909614563
-0.9808102250099182 -0.05190075561404228 0.4281473755836487
-0.9803460240364075 -0.05190075561404228 0.5525496602058411
-0.9798818230628967 -0.05190075561404228 0.6769519448280334
-0.979417622089386 -0.05190075561404228 0.8013542890548706
-0.9789534211158752 -0.05190075561404228 0.925756573677063
-0.9550700187683105 -0.25325703620910645 -0.9403929114341736
-0.9546058177947998 -0.25325703620910645 -0.8159906268119812
-0.9541416168212891 -0.25325703620910645 -0.6915883421897888
-0.9536774158477783 -0.25325703620910645 -0.5671860575675964
-0.9532132148742676 -0.25325703620910645 -0.44278377294540405
-0.9527490139007568 -0.25325703620910645 -0.3183814585208893
-0.9522848129272461 -0.25325703620910645 -0.1939791738986969
-0.9518206119537354 -0.25325703620910645 -0.06957688182592392
-0.9513564109802246 -0.25325703620910645 0.05482540652155876
-0.9508922100067139 -0.25325703620910645 0.17922769486904144
-0.9504280090332031 -0.25325703620910645 0.303629994392395
-0.9499638080596924 -0.25325703620910645 0.4280322790145874
-0.9494996070861816 -0.25325703620910645 0.5524345636367798
-0.9490354061126709 -0.25325703620910645 0.6768368482589722
-0.9485712051391602 -0.25325703620910645 0.8012391924858093
-0.9481070041656494 -0.25325703620910645 0.9256414771080017
-0.8843225836753845 -0.4442821741104126 -0.9406569004058838
-0.8838583827018738 -0.4442821741104126 -0.8162546157836914
-0.883394181728363 -0.4442821741104126 -0.691852331161499
-0.8829299807548523 -0.4442821741104126 -0.5674500465393066
-0.8824657797813416 -0.4442821741104126 -0.44304776191711426
-0.8820015788078308 -0.4442821741104126 -0.3186454474925995
-0.8815373778343201 -0.4442821741104126 -0.1942431628704071
-0.8810731768608093 -0.4442821741104126 -0.06984087824821472
-0.8806089758872986 -0.4442821741104126 0.054561417549848557
-0.8801447749137878 -0.4442821741104126 0.17896370589733124
-0.8796805739402771 -0.4442821741104126 0.3033660054206848
-0.8792163729667664 -0.4442821741104126 0.4277682900428772
-0.8787521719932556 -0.4442821741104126 0.5521705746650696
-0.8782879710197449 -0.4442821741104126 0.676572859287262
-0.8778237700462341 -0.4442821741104126 0.8009751439094543
-0.8773595690727234 -0.4442821741104126 0.9253774881362915
-0.7765704989433289 -0.6171555519104004 -0.9410589933395386
-0.7761062979698181 -0.6171555519104004 -0.8166567087173462
-0.7756420969963074 -0.6171555519104004 -0.6922544240951538
-0.7751778960227966 -0.6171555519104004 -0.5678521394729614
-0.7747136950492859 -0.6171555519104004 -0.44344982504844666
-0.7742494940757751 -0.6171555519104004 -0.3190475404262543
-0.7737852931022644 -0.6171555519104004 -0.1946452409029007
-0.7733210921287537 -0.6171555519104004 -0.07024294883012772
-0.7728568911552429 -0.6171555519104004 0.054159343242645264
-0.7723926901817322 -0.6171555519104004 0.17856164276599884
-0.7719284892082214 -0.6171555519104004 0.3029639422893524
-0.7714642882347107 -0.6171555519104004 0.4273662269115448
-0.7710000872612 -0.6171555519104004 0.5517685413360596
-0.7705358862876892 -0.6171555519104004 0.676170825958252
-0.7700716853141785 -0.6171555519104004 0.8005731105804443
-0.7696074843406677 -0.6171555519104004 0.9249753952026367
-0.6362252831459045 -0.7647997140884399 -0.9415826797485352
-0.635761022567749 -0.7647997140884399 -0.8171803951263428
-0.6352968215942383 -0.7647997140884399 -0.6927781105041504
-0.6348326206207275 -0.7647997140884399 -0.568375825881958
-0.6343684196472168 -0.7647997140884399 -0.44397351145744324
-0.633904218673706 -0.7647997140884399 -0.31957122683525085
-0.6334400177001953 -0.7647997140884399 -0.19516894221305847
-0.6329758167266846 -0.7647997140884399 -0.0707666426897049
-0.6325116157531738 -0.7647997140884399 0.053635649383068085
-0.6320474147796631 -0.7647997140884399 0.17803794145584106
-0.6315832138061523 -0.7647997140884399 0.30244022607803345
-0.6311190128326416 -0.7647997140884399 0.4268425405025482
-0.6306548118591309 -0.7647997140884399 0.5512447953224182
-0.6301906108856201 -0.7647997140884399 0.6756471395492554
-0.6297264099121094 -0.7647997140884399 0.8000494241714478
-0.6292622089385986 -0.7647997140884399 0.9244517087936401
-0.46903249621391296 -0.8811701536178589 -0.9422065615653992
-0.4685682952404022 -0.8811701536178589 -0.8178042769432068
-0.4681040942668915 -0.8811701536178589 -0.6934019923210144
-0.46763989329338074 -0.8811701536178589 -0.568999707698822
-0.46717569231987 -0.8811701536178589 -0.44459739327430725
-0.46671149134635925 -0.8811701536178589 -0.32019510865211487
-0.4662472903728485 -0.8811701536178589 -0.1957928091287613
-0.46578308939933777 -0.8811701536178589 -0.07139051705598831
-0.465318888425827 -0.8811701536178589 0.053011778742074966
-0.4648546874523163 -0.8811701536178589 0.17741407454013824
-0.46439048647880554 -0.8811701536178589 0.3018163740634918
-0.4639262855052948 -0.8811701536178589 0.4262186586856842
-0.46346208453178406 -0.8811701536178589 0.550620973110199
-0.4629978835582733 -0.8811701536178589 0.6750232577323914
-0.4625336825847626 -0.8811701536178589 0.7994255423545837
-0.46206948161125183 -0.8811701536178589 0.9238278269767761
-0.28183719515800476 -0.9615025520324707 -0.942905068397522
-0.281372994184494 -0.9615025520324707 -0.8185027837753296
-0.2809087634086609 -0.9615025520324707 -0.6941004991531372
-0.28044456243515015 -0.9615025520324707 -0.5696982145309448
-0.2799803614616394 -0.9615025520324707 -0.44529590010643005
-0.27951616048812866 -0.9615025520324707 -0.32089361548423767
-0.2790519595146179 -0.9615025520324707 -0.1964913159608841
-0.2785877585411072 -0.9615025520324707 -0.07208903133869171
-0.27812355756759644 -0.9615025520324707 0.05231326445937157
-0.2776593565940857 -0.9615025520324707 0.17671555280685425
-0.27719515562057495 -0.9615025520324707 0.30111783742904663
-0.2767309546470642 -0.9615025520324707 0.4255201518535614
-0.27626675367355347 -0.9615025520324707 0.5499224066734314
-0.2758025527000427 -0.9615025520324707 0.6743247509002686
-0.275338351726532 -0.9615025520324707 0.7987270355224609
-0.27487415075302124 -0.9615025520324707 0.9231293201446533
-0.08230307698249817 -1.0025081634521484 -0.9436496496200562
-0.08183887600898743 -1.0025081634521484 -0.8192473649978638
-0.08137466758489609 -1.0025081634521484 -0.6948450207710266
-0.08091046661138535 -1.0025081634521484 -0.5704427361488342
-0.0804462656378746 -1.0025081634521484 -0.44604045152664185
-0.07998206466436386 -1.0025081634521484 -0.32163816690444946
-0.07951786369085312 -1.0025081634521484 -0.19723588228225708
-0.07905365526676178 -1.0025081634521484 -0.0728335827589035
-0.07858945429325104 -1.0025081634521484 0.051568709313869476
-0.0781252533197403 -1.0025081634521484 0.17597100138664246
-0.07766105234622955 -1.0025081634521484 0.30037328600883484
-0.07719685137271881 -1.0025081634521484 0.4247756004333496
-0.07673264294862747 -1.0025081634521484 0.549177885055542
-0.07626844197511673 -1.0025081634521484 0.6735801696777344
-0.07580424100160599 -1.0025081634521484 0.7979824542999268
-0.07534004002809525 -1.0025081634521484 0.9223847389221191
0.1214008629322052 -1.0025081634521484 -0.9444097280502319
0.12186506390571594 -1.0025081634521484 -0.8200074434280396
0.12232926487922668 -1.0025081634521484 -0.6956051588058472
0.12279347330331802 -1.0025081634521484 -0.5712028741836548
0.12325767427682877 -1.0025081634521484 -0.44680055975914
0.12372187525033951 -1.0025081634521484 -0.32239827513694763
0.12418607622385025 -1.0025081634521484 -0.19799599051475525
0.12465027719736099 -1.0025081634521484 -0.07359369844198227
0.12511448562145233 -1.0025081634521484 0.05080859735608101
0.12557868659496307 -1.0025081634521484 0.1752108931541443
0.12604288756847382 -1.0025081634521484 0.29961317777633667
0.12650708854198456 -1.0025081634521484 0.42401546239852905
0.1269712895154953 -1.0025081634521484 0.5484177470207214
0.12743549048900604 -1.0025081634521484 0.6728200316429138
0.12789969146251678 -1.0025081634521484 0.797222375869751
0.12836390733718872 -1.0025081634521484 0.9216246604919434
0.3209349811077118 -0.9615025520324707 -0.9451543092727661
0.32139918208122253 -0.9615025520324707 -0.8207520246505737
0.3218633830547333 -0.9615025520324707 -0.6963497400283813
0.322327584028244 -0.9615025520324707 -0.5719473958015442
0.32279178500175476 -0.9615025520324707 -0.4475451409816742
0.3232559859752655 -0.9615025520324707 -0.3231428265571594
0.32372018694877625 -0.9615025520324707 -0.19874054193496704
0.324184387922287 -0.9615025520324707 -0.07433824986219406
0.32464858889579773 -0.9615025520324707 0.05006404221057892
0.32511278986930847 -0.9615025520324707 0.1744663417339325
0.3255769908428192 -0.9615025520324707 0.2988686263561249
0.32604119181632996 -0.9615025520324707 0.42327091097831726
0.3265053927898407 -0.9615025520324707 0.547673225402832
0.32696959376335144 -0.9615025520324707 0.6720755100250244
0.3274337947368622 -0.9615025520324707 0.7964777946472168
0.3278979957103729 -0.9615025520324707 0.9208800792694092
0.5081303119659424 -0.8811701536178589 -0.9458528161048889
0.5085945129394531 -0.8811701536178589 -0.8214505314826965
0.5090587139129639 -0.8811701536178589 -0.6970482468605042
0.5095229148864746 -0.8811701536178589 -0.5726459622383118
0.5099871158599854 -0.8811701536178589 -0.448243647813797
0.5104513168334961 -0.8811701536178589 -0.3238413333892822
0.5109155178070068 -0.8811701536178589 -0.19943904876708984
0.5113797187805176 -0.8811701536178589 -0.07503676414489746
0.5118439197540283 -0.8811701536178589 0.04936553165316582
0.5123081207275391 -0.8811701536178589 0.1737678200006485
0.5127723217010498 -0.8811701536178589 0.2981701195240021
0.5132365226745605 -0.8811701536178589 0.42257240414619446
0.5137007236480713 -0.8811701536178589 0.5469747185707092
0.514164924621582 -0.8811701536178589 0.6713770031929016
0.5146291255950928 -0.8811701536178589 0.795779287815094
0.5150933265686035 -0.8811701536178589 0.9201815724372864
0.6753230690956116 -0.7647997140884399 -0.9464766979217529
0.6757872700691223 -0.7647997140884399 -0.8220744132995605
0.6762514710426331 -0.7647997140884399 -0.6976721286773682
0.6767156720161438 -0.7647997140884399 -0.573269784450531
0.6771798729896545 -0.7647997140884399 -0.4488674998283386
0.6776440739631653 -0.7647997140884399 -0.32446521520614624
0.678108274936676 -0.7647997140884399 -0.20006293058395386
0.6785724759101868 -0.7647997140884399 -0.07566063851118088
0.6790366768836975 -0.7647997140884399 0.0487416572868824
0.6795008778572083 -0.7647997140884399 0.17314395308494568
0.679965078830719 -0.7647997140884399 0.29754623770713806
0.6804292798042297 -0.7647997140884399 0.42194852232933044
0.6808934807777405 -0.7647997140884399 0.5463508367538452
0.6813576817512512 -0.7647997140884399 0.6707531213760376
0.681821882724762 -0.7647997140884399 0.79515540599823
0.6822860836982727 -0.7647997140884399 0.9195576906204224
0.8156682848930359 -0.6171555519104004 -0.9470003843307495
0.8161325454711914 -0.6171555519104004 -0.8225980997085571
0.8165967464447021 -0.6171555519104004 -0.6981958150863647
0.8170609474182129 -0.6171555519104004 -0.5737934708595276
0.8175251483917236 -0.6171555519104004 -0.4493912160396576
0.8179893493652344 -0.6171555519104004 -0.3249889016151428
0.8184535503387451 -0.6171555519104004 -0.20058661699295044
0.8189177513122559 -0.6171555519104004 -0.07618433237075806
0.8193819522857666 -0.6171555519104004 0.04821796342730522
0.8198461532592773 -0.6171555519104004 0.1726202517747879
0.8203103542327881 -0.6171555519104004 0.2970225512981415
0.8207745552062988 -0.6171555519104004 0.42142483592033386
0.8212387561798096 -0.6171555519104004 0.5458271503448486
0.8217029571533203 -0.6171555519104004 0.670229434967041
0.822167158126831 -0.6171555519104004 0.7946317195892334
0.8226313591003418 -0.6171555519104004 0.9190340042114258
0.9234203696250916 -0.4442821741104126 -0.9474024772644043
0.9238845705986023 -0.4442821741104126 -0.8230001330375671
0.924348771572113 -0.4442821741104126 -0.6985978484153748
0.9248129725456238 -0.4442821741104126 -0.5741955637931824
0.9252771735191345 -0.4442821741104126 -0.44979327917099
0.9257413744926453 -0.4442821741104126 -0.3253909945487976
0.926205575466156 -0.4442821741104126 -0.20098869502544403
0.9266697764396667 -0.4442821741104126 -0.07658640295267105
0.9271339774131775 -0.4442821741104126 0.04781588912010193
0.9275981783866882 -0.4442821741104126 0.1722181886434555
0.928062379360199 -0.4442821741104126 0.2966204881668091
0.9285265803337097 -0.4442821741104126 0.42102277278900146
0.9289907813072205 -0.4442821741104126 0.5454250574111938
0.9294549822807312 -0.4442821741104126 0.6698273420333862
0.9299191832542419 -0.4442821741104126 0.7942296266555786
0.9303833842277527 -0.4442821741104126 0.918631911277771
0.9941678047180176 -0.25325703620910645 -0.9476664662361145
0.9946320056915283 -0.25325703620910645 -0.8232641220092773
0.9950962066650391 -0.25325703620910645 -0.698861837387085
0.9955604076385498 -0.25325703620910645 -0.5744595527648926
0.9960246086120605 -0.25325703620910645 -0.4500572681427002
0.9964888095855713 -0.25325703620910645 -0.3256549835205078
0.996953010559082 -0.25325703620910645 -0.20125268399715424
0.9974172115325928 -0.25325703620910645 -0.07685039192438126
0.9978814125061035 -0.25325703620910645 0.047551900148391724
0.9983456134796143 -0.25325703620910645 0.1719541847705841
0.998809814453125 -0.25325703620910645 0.2963564991950989
0.9992740154266357 -0.25325703620910645 0.42075878381729126
0.9997382164001465 -0.25325703620910645 0.5451610684394836
1.0002024173736572 -0.25325703620910645 0.669563353061676
1.000666618347168 -0.25325703620910645 0.7939656376838684
1.0011308193206787 -0.25325703620910645 0.9183679223060608
1.0250142812728882 -0.05190075933933258 -0.9477815628051758
1.025478482246399 -0.05190075561404228 -0.8233792781829834
1.0259426832199097 -0.05190075561404228 -0.6989769339561462
1.0264068841934204 -0.05190075561404228 -0.5745746493339539
1.0268710851669312 -0.05190075561404228 -0.4501723647117615
1.027335286140442 -0.05190075561404228 -0.3257700800895691
1.0277994871139526 -0.05190075561404228 -0.2013677954673767
1.0282636880874634 -0.05190075561404228 -0.07696549594402313
1.0287278890609741 -0.05190075561404228 0.04743679612874985
1.0291920900344849 -0.05190075561404228 0.17183908820152283
1.0296562910079956 -0.05190075561404228 0.2962413728237152
1.0301204919815063 -0.05190075561404228 0.42064368724823
1.030584692955017 -0.05190075561404228 0.5450459718704224
1.0310488939285278 -0.05190075561404228 0.6694482564926147
1.0315130949020386 -0.05190075561404228 0.7938505411148071
1.0319772958755493 -0.05190075561404228 0.9182528257369995
1.0146968364715576 0.15154314041137695 -0.9477430582046509
1.0151610374450684 0.15154314041137695 -0.8233407735824585
1.015625238418579 0.15154314041137695 -0.6989384889602661
1.0160894393920898 0.15154314041137695 -0.574536144733429
1.0165536403656006 0.15154314041137695 -0.45013388991355896
1.0170178413391113 0.15154314041137695 -0.3257315754890442
1.017482042312622 0.15154314041137695 -0.2013292908668518
1.0179462432861328 0.15154314041137695 -0.07692699879407883
1.0184104442596436 0.15154314041137695 0.04747529700398445
1.0188746452331543 0.15154314041137695 0.17187759280204773
1.019338846206665 0.15154314041137695 0.2962798774242401
1.0198030471801758 0.15154314041137695 0.4206821620464325
1.0202672481536865 0.15154314041137695 0.5450844764709473
1.0207314491271973 0.15154314041137695 0.6694867610931396
1.021195650100708 0.15154314041137695 0.793889045715332
1.0216598510742188 0.15154314041137695 0.9182913303375244
0.9636378884315491 0.3487456440925598 -0.947552502155304
0.9641020894050598 0.3487456440925598 -0.8231502175331116
0.9645662903785706 0.3487456440925598 -0.6987479329109192
0.9650304913520813 0.3487456440925598 -0.5743456482887268
0.965494692325592 0.3487456440925598 -0.4499433636665344
0.9659588932991028 0.3487456440925598 -0.32554104924201965
0.9664230942726135 0.3487456440925598 -0.20113876461982727
0.9668872952461243 0.3487456440925598 -0.07673647254705429
0.9673515558242798 0.3487456440925598 0.04766581952571869
0.9678157567977905 0.3487456440925598 0.17206811904907227
0.9682799577713013 0.3487456440925598 0.29647040367126465
0.968744158744812 0.3487456440925598 0.42087268829345703
0.9692083597183228 0.3487456440925598 0.5452749729156494
0.9696725606918335 0.3487456440925598 0.6696772575378418
0.9701367616653442 0.3487456440925598 0.794079601764679
0.970600962638855 0.3487456440925598 0.9184818863868713
0.873927891254425 0.5316332578659058 -0.9472177624702454
0.8743920922279358 0.5316332578659058 -0.822815477848053
0.8748562932014465 0.5316332578659058 -0.6984131932258606
0.8753204941749573 0.5316332578659058 -0.5740109086036682
0.875784695148468 0.5316332578659058 -0.44960859417915344
0.8762488961219788 0.5316332578659058 -0.32520630955696106
0.8767130970954895 0.5316332578659058 -0.20080401003360748
0.8771772980690002 0.5316332578659058 -0.0764017254114151
0.877641499042511 0.5316332578659058 0.04800057038664818
0.8781057000160217 0.5316332578659058 0.17240285873413086
0.8785699009895325 0.5316332578659058 0.29680514335632324
0.8790341019630432 0.5316332578659058 0.421207457780838
0.879498302936554 0.5316332578659058 0.545609712600708
0.8799625039100647 0.5316332578659058 0.6700120568275452
0.8804267048835754 0.5316332578659058 0.7944143414497375
0.8808909058570862 0.5316332578659058 0.9188166260719299
0.7492395043373108 0.692718505859375 -0.9467524886131287
0.7497037053108215 0.692718505859375 -0.8223502039909363
0.7501679062843323 0.692718505859375 -0.6979479193687439
0.750632107257843 0.692718505859375 -0.5735456347465515
0.7510963082313538 0.692718505859375 -0.44914332032203674
0.7515605092048645 0.692718505859375 -0.32474103569984436
0.7520247101783752 0.692718505859375 -0.20033875107765198
0.752488911151886 0.692718505859375 -0.0759364515542984
0.7529531121253967 0.692718505859375 0.04846584051847458
0.7534173130989075 0.692718505859375 0.17286813259124756
0.7538815140724182 0.692718505859375 0.29727041721343994
0.754345715045929 0.692718505859375 0.4216727316379547
0.7548099160194397 0.692718505859375 0.5460749864578247
0.7552741169929504 0.692718505859375 0.6704773306846619
0.7557383179664612 0.692718505859375 0.7948796153068542
0.7562025189399719 0.692718505859375 0.9192818999290466
0.5946774482727051 0.825406551361084 -0.946175754070282
0.5951416492462158 0.825406551361084 -0.8217734694480896
0.5956058502197266 0.825406551361084 -0.6973711848258972
0.5960700511932373 0.825406551361084 -0.5729689002037048
0.596534252166748 0.825406551361084 -0.44856658577919006
0.5969984531402588 0.825406551361084 -0.3241643011569977
0.5974626541137695 0.825406551361084 -0.1997620016336441
0.5979268550872803 0.825406551361084 -0.07535970956087112
0.5983911156654358 0.825406551361084 0.049042582511901855
0.5988553166389465 0.825406551361084 0.17344486713409424
0.5993195176124573 0.825406551361084 0.297847181558609
0.599783718585968 0.825406551361084 0.4222494661808014
0.6002479195594788 0.825406551361084 0.5466517806053162
0.6007121205329895 0.825406551361084 0.6710540652275085
0.6011763215065002 0.825406551361084 0.7954563498497009
0.601640522480011 0.825406551361084 0.9198586344718933
0.41656962037086487 0.9242651462554932 -0.9455111622810364
0.4170338213443756 0.9242651462554932 -0.821108877658844
0.41749802231788635 0.9242651462554932 -0.6967065930366516
0.4179622232913971 0.9242651462554932 -0.5723043084144592
0.41842642426490784 0.9242651462554932 -0.44790199398994446
0.4188906252384186 0.9242651462554932 -0.3234996795654297
0.4193548262119293 0.9242651462554932 -0.1990973949432373
0.41981902718544006 0.9242651462554932 -0.07469511032104492
0.4202832281589508 0.9242651462554932 0.049707185477018356
0.42074742913246155 0.9242651462554932 0.17410947382450104
0.4212116301059723 0.9242651462554932 0.2985117733478546
0.42167583107948303 0.9242651462554932 0.422914057970047
0.4221400320529938 0.9242651462554932 0.5473163723945618
0.4226042628288269 0.9242651462554932 0.6717186570167542
0.42306846380233765 0.9242651462554932 0.7961209416389465
0.4235326647758484 0.9242651462554932 0.9205232262611389
0.2222076952457428 0.985247015953064 -0.9447858929634094
0.22267189621925354 0.985247015953064 -0.820383608341217
0.22313609719276428 0.985247015953064 -0.6959813237190247
0.22360029816627502 0.985247015953064 -0.5715790390968323
0.22406449913978577 0.985247015953064 -0.4471767246723175
0.2245287001132965 0.985247015953064 -0.3227744400501251
0.22499290108680725 0.985247015953064 -0.19837214052677155
0.2254571169614792 0.985247015953064 -0.07396985590457916
0.22592131793498993 0.985247015953064 0.050432439893484116
0.22638551890850067 0.985247015953064 0.1748347282409668
0.2268497198820114 0.985247015953064 0.2992370128631592
0.22731392085552216 0.985247015953064 0.42363932728767395
0.2277781218290329 0.985247015953064 0.548041582107544
0.22824232280254364 0.985247015953064 0.6724439263343811
0.22870652377605438 0.985247015953064 0.7968462109565735
0.22917072474956512 0.985247015953064 0.9212484955787659
0.019548892974853516 1.0058555603027344 -0.944029688835144
0.020013095811009407 1.0058555603027344 -0.8196274042129517
0.0204772986471653 1.0058555603027344 -0.6952251195907593
0.02094150148332119 1.0058555603027344 -0.5708228349685669
0.021405702456831932 1.0058555603027344 -0.4464205205440521
0.021869905292987823 1.0058555603027344 -0.32201823592185974
0.022334108129143715 1.0058555603027344 -0.19761593639850616
0.022798310965299606 1.0058555603027344 -0.07321363687515259
0.023262513801455498 1.0058555603027344 0.05118865147233009
0.02372671663761139 1.0058555603027344 0.17559094727039337
0.02419091761112213 1.0058555603027344 0.29999324679374695
0.024655120447278023 1.0058555603027344 0.42439553141593933
0.025119323283433914 1.0058555603027344 0.5487978458404541
0.025583526119589806 1.0058555603027344 0.6732001304626465
0.026047728955745697 1.0058555603027344 0.7976024150848389
0.02651193179190159 1.0058555603027344 0.9220046997070312
