ply
format ascii 1.0
element vertex 1600
property float x
property float y
property float z
end_header
0.5238268375396729 0.7644373774528503 -0.40347447991371155
0.5847163796424866 0.7242411375045776 -0.3803001344203949
0.6403539180755615 0.6845253705978394 -0.3565235137939453
0.6905883550643921 0.645575761795044 -0.3325442969799042
0.7354040741920471 0.6076313257217407 -0.30875036120414734
0.7749094367027283 0.5708795189857483 -0.2855083644390106
0.8093224763870239 0.535454273223877 -0.2631564438343048
0.8389537334442139 0.501436710357666 -0.24200023710727692
0.8641877174377441 0.4688579738140106 -0.2223111391067505
0.8854655623435974 0.4377022981643677 -0.20432676374912262
0.9032687544822693 0.40791207551956177 -0.1882535219192505
0.9181051850318909 0.3793926239013672 -0.17427079379558563
0.9304978251457214 0.3520163595676422 -0.16253605484962463
0.9409766793251038 0.3256271779537201 -0.1531911939382553
0.9500021934509277 0.3000478446483612 -0.14631739258766174
0.9577440023422241 0.27510592341423035 -0.14178895950317383
0.9642937779426575 0.25063860416412354 -0.1394374966621399
0.9697379469871521 0.22648991644382477 -0.13910311460494995
0.9741577506065369 0.2025095820426941 -0.1406327337026596
0.9776314496994019 0.17855235934257507 -0.14387859404087067
0.9802336692810059 0.15447741746902466 -0.14869670569896698
0.982036828994751 0.13014741241931915 -0.15494590997695923
0.9831117391586304 0.10542873293161392 -0.16248652338981628
0.9835279583930969 0.0801907628774643 -0.17117956280708313
0.9833540320396423 0.05430620163679123 -0.18088579177856445
0.9826580882072449 0.02765057608485222 -0.19146500527858734
0.9815086126327515 0.00010266898607369512 -0.2027755230665207
0.9798654317855835 -0.0285053588449955 -0.21470001339912415
0.9772561192512512 -0.05853494256734848 -0.22722427546977997
0.9730985164642334 -0.09038450568914413 -0.2403542399406433
0.9668115973472595 -0.12443603575229645 -0.2540886402130127
0.9578192234039307 -0.1610514521598816 -0.2684180736541748
0.9455558061599731 -0.20056794583797455 -0.28332415223121643
0.929472804069519 -0.2432926595211029 -0.2987788915634155
0.9090468287467957 -0.28949689865112305 -0.3147442042827606
0.8837892413139343 -0.33940985798835754 -0.3311716318130493
0.8532558679580688 -0.39321228861808777 -0.3480021357536316
0.8170569539070129 -0.45103076100349426 -0.36516624689102173
0.774868369102478 -0.5129318833351135 -0.3825850784778595
0.7264404892921448 -0.5789183974266052 -0.40017038583755493
0.4933030605316162 0.7986761927604675 -0.3639550805091858
0.5574049353599548 0.7650060653686523 -0.32259100675582886
0.6155702471733093 0.7303503751754761 -0.28314104676246643
0.6678789258003235 0.6949809789657593 -0.2458408623933792
0.7145039439201355 0.65915447473526 -0.21088175475597382
0.7556986212730408 0.6231067180633545 -0.17841143906116486
0.7917851805686951 0.5870498418807983 -0.1485365629196167
0.8231401443481445 0.5511690378189087 -0.12132588028907776
0.8501836061477661 0.5156224370002747 -0.09681501239538193
0.8733662962913513 0.4805397689342499 -0.07501091063022614
0.8931607604026794 0.44602322578430176 -0.05589711293578148
0.9100519418716431 0.41214871406555176 -0.039438944309949875
0.9245316386222839 0.3789668381214142 -0.025588374584913254
0.9370932579040527 0.34650495648384094 -0.01428897213190794
0.9481587409973145 0.3147493302822113 -0.005471003241837025
0.9578677415847778 0.2835967540740967 0.0009703156538307667
0.9662864208221436 0.2529238760471344 0.005142575595527887
0.9734772443771362 0.22260765731334686 0.007146509829908609
0.9794996976852417 0.192525252699852 0.007076154462993145
0.9844093918800354 0.16255293786525726 0.005018946714699268
0.9882591962814331 0.1325661689043045 0.0010558873182162642
0.9910985827445984 0.10243827104568481 -0.004738445393741131
0.9929742813110352 0.07204040884971619 -0.012295756489038467
0.993929386138916 0.04124041646718979 -0.021554049104452133
0.9940048456192017 0.00990237481892109 -0.032457493245601654
0.9932382106781006 -0.02211468107998371 -0.04495658725500107
0.9916643500328064 -0.054957564920186996 -0.059008125215768814
0.9892057180404663 -0.08880025148391724 -0.07459060847759247
0.9853396415710449 -0.1238955408334732 -0.09174535423517227
0.9794245958328247 -0.16049571335315704 -0.11052054166793823
0.9708107113838196 -0.19882699847221375 -0.1309511512517929
0.9588444828987122 -0.23908592760562897 -0.15305523574352264
0.942875862121582 -0.2814341187477112 -0.1768297255039215
0.9222691655158997 -0.32599279284477234 -0.20224636793136597
0.8964168429374695 -0.3728365898132324 -0.2292477786540985
0.8647550344467163 -0.42198723554611206 -0.25774386525154114
0.8267830014228821 -0.47340795397758484 -0.28760915994644165
0.7820823788642883 -0.5269982218742371 -0.3186807930469513
0.7303373217582703 -0.5825910568237305 -0.3507583737373352
0.6713548302650452 -0.6399518251419067 -0.3836055397987366
0.46214210987091064 0.8297501802444458 -0.3282756209373474
0.5281134247779846 0.8015895485877991 -0.27073556184768677
0.5875886082649231 0.7710350751876831 -0.21747750043869019
0.6408641338348389 0.7384181022644043 -0.16848616302013397
0.6882830858230591 0.7040644884109497 -0.1237078383564949
0.7302261590957642 0.6682894825935364 -0.083055280148983
0.7671036720275879 0.6313953995704651 -0.04641268402338028
0.7993475794792175 0.5936686992645264 -0.013640694320201874
0.8274053335189819 0.5553787350654602 0.01541877444833517
0.8517333269119263 0.516775906085968 0.040938157588243484
0.8727924823760986 0.47809189558029175 0.06310011446475983
0.8910442590713501 0.43953943252563477 0.08209385722875595
0.9069477915763855 0.40131261944770813 0.09811197221279144
0.920957624912262 0.3635879456996918 0.11134754866361618
0.9334570169448853 0.32648709416389465 0.12197396159172058
0.9445604085922241 0.28996673226356506 0.13008913397789001
0.9543143510818481 0.2539382576942444 0.13576839864253998
0.9627647399902344 0.21830660104751587 0.1390817016363144
0.9699544310569763 0.18297037482261658 0.14009220898151398
0.9759241938591003 0.14782144129276276 0.13885553181171417
0.9807114005088806 0.11274496465921402 0.13541863858699799
0.9843499064445496 0.07761804014444351 0.12981891632080078
0.9868695735931396 0.04230974614620209 0.12208309024572372
0.9882956743240356 0.006679513491690159 0.11222623288631439
0.9886483550071716 -0.029423709958791733 0.1002504974603653
0.9879422783851624 -0.06616359949111938 0.08614370971918106
0.9861862063407898 -0.10371822863817215 0.06987789273262024
0.9832724332809448 -0.14227434992790222 0.051394954323768616
0.9786445498466492 -0.18198755383491516 0.030576184391975403
0.9716182947158813 -0.22297430038452148 0.007296279072761536
0.9614913463592529 -0.26531198620796204 -0.018556104972958565
0.9475473761558533 -0.3090343773365021 -0.04707123339176178
0.9290647506713867 -0.3541260361671448 -0.07830999791622162
0.9053295254707336 -0.4005167484283447 -0.11229504644870758
0.8756541609764099 -0.44807615876197815 -0.14900146424770355
0.8393983840942383 -0.4966093897819519 -0.18834735453128815
0.7959973216056824 -0.545854389667511 -0.23018553853034973
0.7449896931648254 -0.595481276512146 -0.2742965817451477
0.6860483884811401 -0.6450958847999573 -0.32038459181785583
0.6190105676651001 -0.6942464709281921 -0.3680764436721802
0.43039801716804504 0.8576862215995789 -0.29641708731651306
0.49699220061302185 0.8341702222824097 -0.22452911734580994
0.55669105052948 0.8069233298301697 -0.15910181403160095
0.6099777221679688 0.7763880491256714 -0.09982466697692871
0.6573365926742554 0.7429943680763245 -0.0463809035718441
0.6992507576942444 0.7071580290794373 0.0015498129650950432
0.7361988425254822 0.6692793965339661 0.04428890720009804
0.7686536908149719 0.6297435164451599 0.08215676248073578
0.7970802783966064 0.588919460773468 0.11547081917524338
0.8219351172447205 0.547160804271698 0.14454421401023865
0.8436649441719055 0.5048055052757263 0.16968443989753723
0.8627068996429443 0.4621770679950714 0.19119247794151306
0.8794874548912048 0.4195846915245056 0.20936191082000732
0.8944239020347595 0.377324640750885 0.2244785726070404
0.9078619480133057 0.33562758564949036 0.2367860972881317
0.919895589351654 0.2944985032081604 0.2463856190443039
0.9305572509765625 0.253876268863678 0.253340482711792
0.9398797154426575 0.21368740499019623 0.2577091157436371
0.9478940963745117 0.17384618520736694 0.2595425844192505
0.9546296000480652 0.13425487279891968 0.25888320803642273
0.9601122736930847 0.09480379521846771 0.25576233863830566
0.964364230632782 0.055370111018419266 0.2501986622810364
0.9674026966094971 0.015817690640687943 0.24219615757465363
0.9692389965057373 -0.0240046177059412 0.23174206912517548
0.9698776602745056 -0.06426429748535156 0.21880444884300232
0.9693153500556946 -0.10514804720878601 0.20332945883274078
0.9675395488739014 -0.14686444401741028 0.18523810803890228
0.9644204378128052 -0.1896137297153473 0.16440816223621368
0.9593848586082458 -0.2334643006324768 0.14063896238803864
0.9517267346382141 -0.27840927243232727 0.11371544003486633
0.9407116770744324 -0.3243890702724457 0.08343273401260376
0.9255813956260681 -0.3712853491306305 0.04960589483380318
0.9055616855621338 -0.4189144968986511 0.012081669643521309
0.8798767328262329 -0.4670218229293823 -0.029247945174574852
0.8477696776390076 -0.515277087688446 -0.07443052530288696
0.8085286021232605 -0.5632722973823547 -0.12343718111515045
0.7615187764167786 -0.6105223298072815 -0.17614653706550598
0.7062202095985413 -0.656471312046051 -0.2323303073644638
0.6422662734985352 -0.7005030512809753 -0.2916417121887207
0.569483757019043 -0.7419583797454834 -0.35360926389694214
0.3981311321258545 0.882537305355072 -0.26832833886146545
0.4642046093940735 0.86294025182724 -0.18374869227409363
0.5231660604476929 0.8383525013923645 -0.1075923964381218
0.5756446719169617 0.8093635439872742 -0.03924268111586571
0.622231125831604 0.7765309810638428 0.021876299753785133
0.6634814143180847 0.7403836250305176 0.07630358636379242
0.6999205946922302 0.7014251947402954 0.12454500794410706
0.7320457100868225 0.6601364612579346 0.1670764833688736
0.7603286504745483 0.6169784665107727 0.20434680581092834
0.7852190136909485 0.5723940134048462 0.2367803454399109
0.8071461319923401 0.5268104672431946 0.2647794783115387
0.8265211582183838 0.48064136505126953 0.2887265384197235
0.8437393307685852 0.4342878460884094 0.30898594856262207
0.8591811060905457 0.3881406784057617 0.3259057402610779
0.8731580972671509 0.3425157964229584 0.33977699279785156
0.885748028755188 0.29745420813560486 0.35071101784706116
0.896973192691803 0.25291433930397034 0.35877275466918945
0.9068567156791687 0.2088373452425003 0.3640214800834656
0.915420651435852 0.16514797508716583 0.3665080666542053
0.9226855635643005 0.1217547059059143 0.36627256870269775
0.9286683797836304 0.07855010032653809 0.3633418083190918
0.9333822131156921 0.03540963679552078 0.3577267527580261
0.9368338584899902 -0.007808541879057884 0.34941986203193665
0.9390238523483276 -0.05126551538705826 0.3383922278881073
0.9399443864822388 -0.09514327347278595 0.32459044456481934
0.9395776391029358 -0.1396482288837433 0.30793213844299316
0.9378944039344788 -0.18501479923725128 0.288301944732666
0.9347496032714844 -0.23145344853401184 0.26552703976631165
0.9295696020126343 -0.2789537310600281 0.2393302619457245
0.92164546251297 -0.3273981809616089 0.2094079554080963
0.910232424736023 -0.37660419940948486 0.17545975744724274
0.8945515155792236 -0.42631617188453674 0.13719947636127472
0.8737979531288147 -0.47619786858558655 0.09436903893947601
0.8471534252166748 -0.5258252620697021 0.04675555229187012
0.8138077855110168 -0.5746828317642212 -0.0057886699214577675
0.7729858756065369 -0.6221624612808228 -0.06332380324602127
0.7239832282066345 -0.6675679683685303 -0.12579883635044098
0.6662071943283081 -0.7101255059242249 -0.19302813708782196
0.5992233753204346 -0.7490030527114868 -0.2646706700325012
0.522803783416748 -0.783336877822876 -0.34021449089050293
0.3654079735279083 0.904383659362793 -0.24392609298229218
0.42992672324180603 0.8881047368049622 -0.14815302193164825
0.4873095750808716 0.8656556606292725 -0.06253443658351898
0.5382846593856812 0.8377949595451355 0.013838448561728
0.5835101008415222 0.8052219152450562 0.08178088814020157
0.6235848069190979 0.7685869336128235 0.14202821254730225
0.6590566039085388 0.7284988760948181 0.19524717330932617
0.6904300451278687 0.6855323314666748 0.2420455664396286
0.7181721925735474 0.6402336955070496 0.28298038244247437
0.7427180409431458 0.5931253433227539 0.31856489181518555
0.7644752264022827 0.5447102785110474 0.34927448630332947
0.7838272452354431 0.4954756498336792 0.37555190920829773
0.8011374473571777 0.4458957314491272 0.397811621427536
0.8167516589164734 0.3964346945285797 0.416443794965744
0.8309488296508789 0.3474724590778351 0.4317713677883148
0.8437952399253845 0.2990746796131134 0.44392094016075134
0.855306088924408 0.2512110471725464 0.45296716690063477
0.8654982447624207 0.20383146405220032 0.45897769927978516
0.8743873238563538 0.1568664312362671 0.46200984716415405
0.8819869756698608 0.11022744327783585 0.4621075391769409
0.8883076310157776 0.06380763649940491 0.4592989385128021
0.8933547139167786 0.017480336129665375 0.4535932242870331
0.8971274495124817 -0.028901003301143646 0.4449775516986847
0.8996177315711975 -0.07550513744354248 0.43341386318206787
0.9008079767227173 -0.12252485007047653 0.4188344180583954
0.900669515132904 -0.17018109560012817 0.4011373519897461
0.8991605639457703 -0.21872718632221222 0.3801807463169098
0.8961272239685059 -0.2683783173561096 0.3557528257369995
0.8910085558891296 -0.31905215978622437 0.32751017808914185
0.8831095099449158 -0.37053266167640686 0.29507020115852356
0.8716931343078613 -0.42252880334854126 0.2580442428588867
0.8559801578521729 -0.4746643900871277 0.2160487025976181
0.8351554870605469 -0.5264686942100525 0.16871996223926544
0.8083793520927429 -0.5773687362670898 0.11573279649019241
0.7748056650161743 -0.626684308052063 0.056823503226041794
0.7336089611053467 -0.6736271381378174 -0.008183191530406475
0.6840187311172485 -0.7173072099685669 -0.07934408634901047
0.6253625154495239 -0.7567475438117981 -0.1565658301115036
0.557115375995636 -0.790907084941864 -0.23957407474517822
0.4789537489414215 -0.818717896938324 -0.32788679003715515
0.33229994773864746 0.9233317375183105 -0.2230948656797409
0.3943462073802948 0.9098818302154541 -0.11748194694519043
0.4494250416755676 0.8891626596450806 -0.023517120629549026
0.49831366539001465 0.8621132373809814 0.05996822565793991
0.5416988134384155 0.8295820951461792 0.1339987814426422
0.5801917910575867 0.7923450469970703 0.19947898387908936
0.6143408417701721 0.7511169910430908 0.2572120428085327
0.6446409821510315 0.7065642476081848 0.30791613459587097
0.671542763710022 0.6593130826950073 0.35223710536956787
0.6954586505889893 0.6099575757980347 0.39075967669487
0.7167693972587585 0.5590659976005554 0.4240168035030365
0.7358285188674927 0.5071861147880554 0.45249706506729126
0.7529665231704712 0.4548497200012207 0.47665148973464966
0.7684945464134216 0.4025764763355255 0.49689897894859314
0.7826613783836365 0.35079315304756165 0.5135852098464966
0.7955250144004822 0.2995789647102356 0.5268542766571045
0.8070975542068481 0.24890828132629395 0.5367957353591919
0.817392110824585 0.1987341046333313 0.543489396572113
0.8264205455780029 0.1489889770746231 0.5470019578933716
0.834192156791687 0.09958525747060776 0.5473842024803162
0.8407124280929565 0.050415653735399246 0.5446680784225464
0.8459816575050354 0.0013518637279048562 0.5388637185096741
0.8499936461448669 -0.047755684703588486 0.5299558043479919
0.8527339100837708 -0.09708031266927719 0.5179007053375244
0.8541783690452576 -0.14682118594646454 0.5026207566261292
0.8542908430099487 -0.19720780849456787 0.48399999737739563
0.8530207872390747 -0.24850468337535858 0.46187669038772583
0.8502116203308105 -0.30092522501945496 0.43600910902023315
0.8453250527381897 -0.3543210029602051 0.40600088238716125
0.8376927971839905 -0.40838879346847534 0.37140336632728577
0.8266001343727112 -0.4627428650856018 0.33175212144851685
0.8112843036651611 -0.5169031620025635 0.2865765392780304
0.7909380197525024 -0.5702842473983765 0.2354142814874649
0.7647185921669006 -0.6221858859062195 0.1778293251991272
0.7317621111869812 -0.6717861294746399 0.11343611031770706
0.6912073493003845 -0.7181407809257507 0.04192827641963959
0.64222651720047 -0.7601881623268127 -0.03688712790608406
0.5840668678283691 -0.7967648506164551 -0.1230519637465477
0.5160989165306091 -0.8266321420669556 -0.21641740202903748
0.43787217140197754 -0.848516047000885 -0.31660595536231995
0.29888278245925903 0.9395135045051575 -0.20568786561489105
0.35766205191612244 0.9285027384757996 -0.09145684540271759
0.4098237454891205 0.9092012047767639 0.009868291206657887
0.45614615082740784 0.8827325105667114 0.09967198222875595
0.4973074793815613 0.8500973582267761 0.17915233969688416
0.5339033007621765 0.812197208404541 0.249353289604187
0.5664606094360352 0.7698526382446289 0.31119048595428467
0.5954493880271912 0.7238187789916992 0.36547255516052246
0.6212918162345886 0.6747978329658508 0.4129180312156677
0.6443701982498169 0.6234490275382996 0.4541698098182678
0.6650330424308777 0.5703976154327393 0.48980680108070374
0.6836004853248596 0.5162414312362671 0.5203537344932556
0.7003688812255859 0.4615575969219208 0.5462893843650818
0.7156142592430115 0.4069069027900696 0.5680534839630127
0.7295563817024231 0.3527480959892273 0.586008608341217
0.7422478199005127 0.29916539788246155 0.6003177165985107
0.7537016272544861 0.2461320459842682 0.6110876798629761
0.763930082321167 0.1935998797416687 0.6184118390083313
0.7729436159133911 0.1415005922317505 0.6223670840263367
0.7807497382164001 0.08974583446979523 0.6230118274688721
0.7873512506484985 0.03822758048772812 0.6203820705413818
0.7927461862564087 -0.013183219358325005 0.6144898533821106
0.796924889087677 -0.06463713943958282 0.6053183674812317
0.7998696565628052 -0.11630882322788239 0.5928196310997009
0.8015527129173279 -0.16839930415153503 0.576908528804779
0.801934003829956 -0.22114066779613495 0.5574579834938049
0.800959050655365 -0.2748011350631714 0.5342913269996643
0.7984737753868103 -0.32958585023880005 0.5071439146995544
0.7939691543579102 -0.3852854073047638 0.4755793511867523
0.7868123054504395 -0.4415196180343628 0.43909773230552673
0.7763213515281677 -0.4978211224079132 0.3971732258796692
0.7617624402046204 -0.5536219477653503 0.349261999130249
0.7423509359359741 -0.6082406640052795 0.29481416940689087
0.7172564268112183 -0.6608712673187256 0.23329079151153564
0.6856138706207275 -0.7105743885040283 0.16418609023094177
0.6465412378311157 -0.7562739849090576 0.0870559960603714
0.5991663336753845 -0.796760618686676 0.0015529828378930688
0.542661726474762 -0.830704927444458 -0.09253329783678055
0.47628965973854065 -0.856682538986206 -0.19523069262504578
0.3994552493095398 -0.8732147812843323 -0.3063375651836395
0.26523566246032715 0.9530854225158691 -0.19152861833572388
0.3200829029083252 0.9442100524902344 -0.06978113204240799
0.36882445216178894 0.9260979890823364 0.038030046969652176
0.41219618916511536 0.9000540375709534 0.1334550976753235
0.4508346915245056 0.8672295808792114 0.21782666444778442
0.48529452085494995 0.8286502361297607 0.29229822754859924
0.5160623788833618 0.7852403521537781 0.35787463188171387
0.5435688495635986 0.7378411889076233 0.41543734073638916
0.5681975483894348 0.6872267723083496 0.46576356887817383
0.5902926921844482 0.6341164708137512 0.5095436573028564
0.6101655960083008 0.5791857838630676 0.5473941564559937
0.6280996203422546 0.5230745077133179 0.5798693895339966
0.6443548202514648 0.46639496088027954 0.6074704527854919
0.6591712236404419 0.40973812341690063 0.6306532025337219
0.6727400422096252 0.3535832464694977 0.6497938632965088
0.6851118206977844 0.2980128228664398 0.6650750041007996
0.6963030099868774 0.2429943084716797 0.6766209602355957
0.7063283324241638 0.1884753257036209 0.6845386624336243
0.7151994705200195 0.13438472151756287 0.6889148950576782
0.7229247689247131 0.08063241839408875 0.6898148655891418
0.729507565498352 0.027109859511256218 0.6872786283493042
0.7349452376365662 -0.026311827823519707 0.6813189387321472
0.7392280101776123 -0.07978218048810959 0.6719180345535278
0.7423380613327026 -0.133474200963974 0.6590235829353333
0.7442470788955688 -0.18758662045001984 0.6425443291664124
0.7449151277542114 -0.24234890937805176 0.6223436594009399
0.7442883253097534 -0.2980261445045471 0.5982328057289124
0.7422196269035339 -0.3548094928264618 0.569930374622345
0.7382336854934692 -0.41243359446525574 0.5369716882705688
0.7317374348640442 -0.47045066952705383 0.4988197982311249
0.7220882177352905 -0.5283233523368835 0.4549020826816559
0.708590030670166 -0.5854104161262512 0.4046157896518707
0.69049072265625 -0.6409518122673035 0.3473372459411621
0.6669847965240479 -0.6940556764602661 0.2824357748031616
0.6372195482254028 -0.7436875104904175 0.20929288864135742
0.6003075242042542 -0.7886632084846497 0.12732768058776855
0.5553459525108337 -0.8276492357254028 0.0360293984413147
0.5014446377754211 -0.85917067527771 -0.06500262022018433
0.43776366114616394 -0.8816326260566711 -0.17601226270198822
0.3635602295398712 -0.8933554291725159 -0.29703444242477417
0.2314397394657135 0.9642253518104553 -0.18041318655014038
0.2818257510662079 0.9572575092315674 -0.052141379565000534
0.32675257325172424 0.9401782155036926 0.061377085745334625
0.36687806248664856 0.9144668579101562 0.16180644929409027
0.40276941657066345 0.8814194202423096 0.2505751848220825
0.4349190294742584 0.842182993888855 0.32891738414764404
0.46375736594200134 0.7977816462516785 0.39790549874305725
0.4896635115146637 0.7491403222084045 0.4584774971008301
0.512973427772522 0.6971012353897095 0.511457622051239
0.5339867472648621 0.6424394845962524 0.5575750470161438
0.5529727339744568 0.5858752131462097 0.5974775552749634
0.5701748132705688 0.528084397315979 0.631744384765625
0.5858146548271179 0.4697071313858032 0.6608954071998596
0.6000955104827881 0.41135600209236145 0.6854007840156555
0.613179624080658 0.35352247953414917 0.7056484818458557
0.6251181960105896 0.2962823212146759 0.7218400239944458
0.635934054851532 0.23959435522556305 0.7341172099113464
0.6456470489501953 0.18339994549751282 0.7425994873046875
0.6542729139328003 0.12762373685836792 0.7473825812339783
0.661823570728302 0.07217365503311157 0.7485376000404358
0.6683048009872437 0.016940666362643242 0.7461068630218506
0.6737168431282043 -0.03820280730724335 0.7401039004325867
0.678052544593811 -0.09340354800224304 0.7305086851119995
0.6812968850135803 -0.14883039891719818 0.7172650694847107
0.683424711227417 -0.20467650890350342 0.7002753019332886
0.684400200843811 -0.2611643373966217 0.6793950796127319
0.6841739416122437 -0.3185502588748932 0.6544252038002014
0.682610809803009 -0.3770071268081665 0.6250714063644409
0.6792702674865723 -0.4362185001373291 0.590851902961731
0.6736007332801819 -0.4956776797771454 0.5512048006057739
0.665002167224884 -0.5547882318496704 0.5055240988731384
0.6528200507164001 -0.612848162651062 0.45316192507743835
0.6363418102264404 -0.6690340042114258 0.3934346139431
0.6147956252098083 -0.7223857641220093 0.3256329596042633
0.5873520374298096 -0.7717934250831604 0.24903661012649536
0.5531312823295593 -0.8159862756729126 0.162934809923172
0.511215090751648 -0.8535282611846924 0.06665405631065369
0.46066662669181824 -0.8828195333480835 -0.04040667414665222
0.4005581736564636 -0.90211021900177 -0.15873192250728607
0.33000919222831726 -0.9095275402069092 -0.2886379063129425
0.19757741689682007 0.9731318950653076 -0.1721128225326538
0.2431141883134842 0.9679086804389954 -0.03820861503481865
0.2839396893978119 0.9517673254013062 0.08031974732875824
0.3206068277359009 0.926349937915802 0.18520140647888184
0.35359275341033936 0.8930896520614624 0.27792438864707947
0.38331177830696106 0.8532489538192749 0.35977646708488464
0.41012585163116455 0.8079487085342407 0.43187811970710754
0.43435320258140564 0.758192777633667 0.4952094554901123
0.45627492666244507 0.7048885226249695 0.550631582736969
0.4761410057544708 0.6488631963729858 0.5989049673080444
0.4941748380661011 0.5908777713775635 0.6407036781311035
0.510577380657196 0.5316393375396729 0.6766284704208374
0.5255302786827087 0.47181129455566406 0.7072165608406067
0.5391986966133118 0.412021666765213 0.7329500913619995
0.5517164468765259 0.35276874899864197 0.7542288303375244
0.5631371736526489 0.2941187918186188 0.7712725400924683
0.5734925270080566 0.2360202670097351 0.7842389941215515
0.5828095078468323 0.17840714752674103 0.7932590842247009
0.5911107659339905 0.12119953334331512 0.7984367609024048
0.5984135270118713 0.06430301070213318 0.7998467683792114
0.604729175567627 0.0076086134649813175 0.7975338101387024
0.6100632548332214 -0.04900914430618286 0.7915105819702148
0.6144140362739563 -0.10569299012422562 0.7817546725273132
0.6177721619606018 -0.16260576248168945 0.7682054042816162
0.6201192140579224 -0.21993261575698853 0.750759482383728
0.6214269399642944 -0.2778858244419098 0.7292648553848267
0.6216550469398499 -0.33670923113822937 0.7035138607025146
0.6206835508346558 -0.39655449986457825 0.673202633857727
0.618105947971344 -0.4570591151714325 0.6378400921821594
0.6134116053581238 -0.5176659822463989 0.5968503355979919
0.6060428619384766 -0.577728807926178 0.5496047139167786
0.595388650894165 -0.6364959478378296 0.49542227387428284
0.5807786583900452 -0.6930935382843018 0.4335724413394928
0.561479926109314 -0.7465079426765442 0.36328065395355225
0.5366947054862976 -0.7955701351165771 0.2837379276752472
0.5055621266365051 -0.8389411568641663 0.19411517679691315
0.46716296672821045 -0.8751006722450256 0.09358402341604233
0.42053183913230896 -0.902343213558197 -0.018654946237802505
0.3646741211414337 -0.9187806248664856 -0.14333544671535492
0.29859301447868347 -0.9223576188087463 -0.2810792624950409
0.1637309491634369 0.9800195693969727 -0.16637732088565826
0.20417653024196625 0.9764341115951538 -0.02764027565717697
0.2407216876745224 0.9611886739730835 0.09526999294757843
0.2737978398799896 0.936072587966919 0.20410417020320892
0.30377933382987976 0.9026462435722351 0.30037763714790344
0.3309921324253082 0.8622807264328003 0.3854082524776459
0.3557218015193939 0.8161874413490295 0.46034714579582214
0.37821945548057556 0.7654462456703186 0.5262039303779602
0.39870700240135193 0.7110258340835571 0.583867609500885
0.417381227016449 0.6538024544715881 0.6341236233711243
0.4344174861907959 0.5945753455162048 0.6776684522628784
0.44997256994247437 0.5340800285339355 0.7151213884353638
0.4641873836517334 0.4729993939399719 0.7470352649688721
0.4771888852119446 0.4119745194911957 0.7739043235778809
0.4890822470188141 0.3515072166919708 0.7961389422416687
0.49992504715919495 0.2916533648967743 0.813976526260376
0.509759247303009 0.23235061764717102 0.8275894522666931
0.5186211466789246 0.17352566123008728 0.8371191024780273
0.526541531085968 0.11509377509355545 0.8426756262779236
0.5335453748703003 0.05695860832929611 0.8443374037742615
0.5396516919136047 -0.0009883457096293569 0.8421504497528076
0.5448735356330872 -0.058869995176792145 0.8361262679100037
0.5492168664932251 -0.1168241873383522 0.8262394070625305
0.5526809096336365 -0.1750066578388214 0.8124252557754517
0.5552568435668945 -0.2335931807756424 0.794574499130249
0.5569272637367249 -0.2927841544151306 0.772528886795044
0.5576645731925964 -0.3528085947036743 0.7460728883743286
0.5573666095733643 -0.41379597783088684 0.7148959636688232
0.555659294128418 -0.4753435552120209 0.6785035133361816
0.5520697236061096 -0.5368511080741882 0.6363127827644348
0.5460808873176575 -0.5976313948631287 0.5876814126968384
0.5371237993240356 -0.6568923592567444 0.5319048762321472
0.5245712995529175 -0.71371990442276 0.46821701526641846
0.5077317357063293 -0.7670586109161377 0.3957904577255249
0.48584410548210144 -0.8156932592391968 0.3137412667274475
0.45807504653930664 -0.8582303524017334 0.22113685309886932
0.42351847887039185 -0.8930822014808655 0.1170087456703186
0.38119879364967346 -0.9184530377388 0.00037179383798502386
0.3300790786743164 -0.9323331117630005 -0.1297488659620285
0.26907601952552795 -0.932499885559082 -0.2742815911769867
0.12998147308826447 0.9851173162460327 -0.1629386842250824
0.16524378955364227 0.9831112027168274 -0.020082339644432068
0.19743718206882477 0.9687644243240356 0.10664127767086029
0.22686634957790375 0.9439961314201355 0.2189694195985794
0.25379788875579834 0.9104818105697632 0.3184185028076172
0.27846577763557434 0.8696915507316589 0.40631675720214844
0.3010760545730591 0.8229221105575562 0.4838311970233917
0.32181063294410706 0.7713240385055542 0.5519903898239136
0.34083038568496704 0.7159243822097778 0.6117030382156372
0.3582780361175537 0.6576461791992188 0.6637741923332214
0.3742804527282715 0.5973248481750488 0.7089187502861023
0.3889502286911011 0.5357227325439453 0.7477725148200989
0.4023877680301666 0.47354158759117126 0.7809022068977356
0.4146825075149536 0.41143476963043213 0.8088136315345764
0.4259119927883148 0.34990715980529785 0.8319281935691833
0.4361380636692047 0.289004921913147 0.8504990339279175
0.4454137682914734 0.22865591943264008 0.8647120594978333
0.45378533005714417 0.16877983510494232 0.874717652797699
0.46129289269447327 0.10928813368082047 0.8806317448616028
0.4679703712463379 0.050082672387361526 0.8825360536575317
0.47384580969810486 -0.008944263681769371 0.8804770708084106
0.4789411723613739 -0.06791266053915024 0.8744651675224304
0.4832724630832672 -0.12695524096488953 0.8644726276397705
0.4868493974208832 -0.18622048199176788 0.8504306674003601
0.48967480659484863 -0.24587446451187134 0.8322253823280334
0.49174463748931885 -0.306105375289917 0.8096924424171448
0.49304676055908203 -0.3671271800994873 0.782610297203064
0.4934987723827362 -0.42904800176620483 0.7506632208824158
0.4927560091018677 -0.49143099784851074 0.7133566737174988
0.49037954211235046 -0.5536403059959412 0.6701052784919739
0.4858895540237427 -0.614954948425293 0.6202585101127625
0.4787566065788269 -0.6745505928993225 0.56309574842453
0.4683949947357178 -0.7314805388450623 0.4978237748146057
0.45415452122688293 -0.7846561074256897 0.42357370257377625
0.4353138506412506 -0.8328253030776978 0.33940064907073975
0.4110738933086395 -0.8745507001876831 0.24428531527519226
0.380552738904953 -0.9081882238388062 0.13713902235031128
0.3427826762199402 -0.9318665862083435 0.016813650727272034
0.2967100739479065 -0.9434700608253479 -0.11788248270750046
0.24119970202445984 -0.9406263828277588 -0.268160879611969
0.09640795737504959 0.9886643886566162 -0.16151517629623413
0.1265474557876587 0.9882212281227112 -0.015172037295997143
0.15442585945129395 0.9748143553733826 0.11484776437282562
0.18022632598876953 0.9504735469818115 0.2302434742450714
0.20411168038845062 0.9169750809669495 0.33251330256462097
0.22622667253017426 0.8758780360221863 0.4229806661605835
0.24670010805130005 0.8285567760467529 0.502816915512085
0.2656466066837311 0.7762278914451599 0.5730604529380798
0.2831680476665497 0.7199732661247253 0.6346331238746643
0.2993548512458801 0.6607605814933777 0.6883544325828552
0.31428688764572144 0.5994606614112854 0.7349539995193481
0.3280348777770996 0.5368631482124329 0.7750816941261292
0.3406606614589691 0.47368964552879333 0.8093169927597046
0.35221800208091736 0.41060671210289 0.838176429271698
0.362758606672287 0.34812483191490173 0.8620919585227966
0.3723481595516205 0.28628265857696533 0.8813312649726868
0.3810499608516693 0.2250000536441803 0.8960918188095093
0.3889201283454895 0.16419127583503723 0.9065327644348145
0.3960080146789551 0.10376467555761337 0.9127752184867859
0.40235698223114014 0.04362115263938904 0.9149041175842285
0.4080044627189636 -0.016346076503396034 0.912967324256897
0.41298237442970276 -0.07625413686037064 0.9069744944572449
0.4173172414302826 -0.13623099029064178 0.8968961238861084
0.42103058099746704 -0.19641847908496857 0.8826608061790466
0.42413824796676636 -0.2569739818572998 0.8641505837440491
0.4266509711742401 -0.31807467341423035 0.8411970138549805
0.4285736382007599 -0.37992098927497864 0.8135731816291809
0.42984434962272644 -0.4426026940345764 0.7809600234031677
0.4301443099975586 -0.5056553483009338 0.7428631782531738
0.42906486988067627 -0.5684149265289307 0.6986966133117676
0.4261588156223297 -0.6301331520080566 0.647803783416748
0.4209330976009369 -0.6899592876434326 0.5894525647163391
0.412840336561203 -0.746920108795166 0.5228287577629089
0.4012705683708191 -0.7998988032341003 0.44703173637390137
0.38554292917251587 -0.8476126194000244 0.3610687553882599
0.3648967146873474 -0.8885862231254578 0.2638520300388336
0.33848336338996887 -0.9211277961730957 0.1541971117258072
0.3053586781024933 -0.9433007836341858 0.03082437813282013
0.2644769847393036 -0.9528986811637878 -0.10763508081436157
0.21468697488307953 -0.9474204182624817 -0.26262781023979187
0.06310375034809113 0.990871250629425 -0.16183365881443024
0.08830232918262482 0.9919978976249695 -0.01256969477981329
0.11198654770851135 0.9795942902565002 0.12026854604482651
0.1342318058013916 0.955780565738678 0.23832787573337555
0.15510788559913635 0.9224173426628113 0.3430756628513336
0.1746790111064911 0.8811415433883667 0.43582022190093994
0.19300374388694763 0.8333964347839355 0.5177280306816101
0.21013528108596802 0.7804586291313171 0.5898400545120239
0.2261214256286621 0.7234617471694946 0.6530852317810059
0.24100466072559357 0.66341632604599 0.7082931399345398
0.254822313785553 0.6012287139892578 0.7562042474746704
0.2676064670085907 0.5377166271209717 0.797480046749115
0.279384046792984 0.47362402081489563 0.8327106833457947
0.29017674922943115 0.40963396430015564 0.8624228835105896
0.30001261830329895 0.34626635909080505 0.8870580792427063
0.3089599609375 0.28355589509010315 0.9068968296051025
0.3170906901359558 0.22141709923744202 0.922147274017334
0.32446911931037903 0.15976078808307648 0.9329761266708374
0.3311530649662018 0.09849343448877335 0.9395103454589844
0.3371943235397339 0.037515707314014435 0.9418385624885559
0.34263932704925537 -0.023278161883354187 0.9400104284286499
0.3475296199321747 -0.084002785384655 0.9340367913246155
0.3519023656845093 -0.14478224515914917 0.9238875508308411
0.3557906150817871 -0.2057531177997589 0.9094897508621216
0.3592235743999481 -0.26706597208976746 0.8907238245010376
0.36222702264785767 -0.3288894295692444 0.8674179315567017
0.3648231029510498 -0.39141348004341125 0.8393421769142151
0.3669700026512146 -0.45471394062042236 0.8061742186546326
0.36837223172187805 -0.5183058977127075 0.767419159412384
0.36864715814590454 -0.5815039873123169 0.7224886417388916
0.36737698316574097 -0.6435383558273315 0.6707204580307007
0.36410093307495117 -0.7035362720489502 0.6113720536231995
0.35830721259117126 -0.7605020403862 0.5436134934425354
0.34942400455474854 -0.813293993473053 0.4665193259716034
0.336810439825058 -0.8606007099151611 0.37906166911125183
0.31974688172340393 -0.9009129405021667 0.28010299801826477
0.29742488265037537 -0.9324957728385925 0.16839013993740082
0.2689369320869446 -0.9533559083938599 0.042549725621938705
0.23326678574085236 -0.9612103700637817 -0.09891305863857269
0.1892806589603424 -0.9534524083137512 -0.2576119899749756
0.03021378256380558 0.9918122887611389 -0.16368867456912994
0.050646085292100906 0.9944837093353271 -0.012047416530549526
0.07024417072534561 0.9831216335296631 0.12314433604478836
0.08899137377738953 0.9599144458770752 0.24347081780433655
0.10687693953514099 0.9267914891242981 0.35035908222198486
0.1238943487405777 0.8854541778564453 0.445093035697937
0.14004011452198029 0.8374054431915283 0.5288267731666565
0.1553126722574234 0.7839758992195129 0.6025969386100769
0.16971132159233093 0.7263455986976624 0.6673336029052734
0.1832355409860611 0.6655665636062622 0.7238713502883911
0.19588418304920197 0.602579653263092 0.7729580998420715
0.2076546847820282 0.5382320284843445 0.8152633309364319
0.2185426503419876 0.4732915759086609 0.8513862490653992
0.2285410463809967 0.40846121311187744 0.8818618059158325
0.23765651881694794 0.3442736864089966 0.9071401357650757
0.2459583431482315 0.28076308965682983 0.9275124669075012
0.25352463126182556 0.2178412824869156 0.9431965947151184
0.26042622327804565 0.1554175764322281 0.9543666243553162
0.2667276859283447 0.09339778125286102 0.9611555337905884
0.27248814702033997 0.03168286383152008 0.9636558294296265
0.27776187658309937 -0.029831597581505775 0.9619206786155701
0.28259921073913574 -0.09125812351703644 0.9559626579284668
0.2870471775531769 -0.15271788835525513 0.9457530379295349
0.2911498546600342 -0.2143433392047882 0.9312190413475037
0.29494917392730713 -0.27628010511398315 0.9122406840324402
0.2984853684902191 -0.33869078755378723 0.8886452317237854
0.3017975986003876 -0.4017578959465027 0.8602008819580078
0.304863303899765 -0.4655475318431854 0.826583206653595
0.30740854144096375 -0.5295608043670654 0.7872951626777649
0.3090747892856598 -0.5930963754653931 0.7417438626289368
0.3094715178012848 -0.6553680300712585 0.6892614960670471
0.30816850066185 -0.715485155582428 0.6290962100028992
0.3046876788139343 -0.7724320292472839 0.560405433177948
0.2984946072101593 -0.8250449299812317 0.48224619030952454
0.28898903727531433 -0.8719862699508667 0.3935667872428894
0.2754949629306793 -0.9117163419723511 0.29319775104522705
0.25724974274635315 -0.9424617290496826 0.1798430234193802
0.23339341580867767 -0.962181568145752 0.05207284912467003
0.20295695960521698 -0.9685318470001221 -0.09168197214603424
0.16485141217708588 -0.9588263034820557 -0.2531324028968811
-0.0021441334392875433 0.9915339350700378 -0.1668914556503296
0.013658461160957813 0.995680570602417 -0.013402522541582584
0.029244989156723022 0.9853605628013611 0.12368455529212952
0.044521916657686234 0.9628099203109741 0.24588443338871002
0.05941000208258629 0.9300090074539185 0.3545762300491333
0.07384182512760162 0.8887107372283936 0.4510120749473572
0.08775971084833145 0.8404675722122192 0.5363264083862305
0.10111383348703384 0.7866561412811279 0.6115452647209167
0.11386051028966904 0.7284995317459106 0.6775944232940674
0.12596070766448975 0.6670867800712585 0.7353085279464722
0.1373787522315979 0.6033928394317627 0.7854385375976562
0.14808103442192078 0.5382937788963318 0.828659176826477
0.15803492069244385 0.4725831151008606 0.8655756711959839
0.16720759868621826 0.4069856107234955 0.8967293500900269
0.17558634281158447 0.3420499861240387 0.9225776791572571
0.18323935568332672 0.2778126299381256 0.9434210658073425
0.19024872779846191 0.21418499946594238 0.9594852924346924
0.19668962061405182 0.15107648074626923 0.970951497554779
0.2026316374540329 0.08839339017868042 0.977958619594574
0.20813950896263123 0.02603769861161709 0.9806042909622192
0.21327410638332367 -0.03609361872076988 0.978945255279541
0.21809333562850952 -0.09811125695705414 0.9729977250099182
0.22265277802944183 -0.1601339727640152 0.9627352356910706
0.2270066738128662 -0.2222914844751358 0.9480871558189392
0.23120856285095215 -0.28472596406936646 0.9289344549179077
0.23531225323677063 -0.34759587049484253 0.9051052331924438
0.23937256634235382 -0.41107887029647827 0.8763675689697266
0.24338559806346893 -0.4752349555492401 0.842396080493927
0.2470983862876892 -0.5395564436912537 0.8026897311210632
0.25017625093460083 -0.6033312082290649 0.7566505670547485
0.2522556185722351 -0.6657606959342957 0.7036041617393494
0.2529364228248596 -0.7259396910667419 0.6427910327911377
0.2517744302749634 -0.7828355431556702 0.5733592510223389
0.2482730746269226 -0.8352648019790649 0.49435484409332275
0.24187414348125458 -0.8818666934967041 0.40471282601356506
0.23194821178913116 -0.9210742712020874 0.3032480478286743
0.21778413653373718 -0.9510822296142578 0.18864580988883972
0.19857820868492126 -0.9698121547698975 0.05945400893688202
0.17342263460159302 -0.9748750925064087 -0.08592302352190018
0.14129437506198883 -0.9635322093963623 -0.24922774732112885
-0.033898476511240005 0.9900863170623779 -0.17125728726387024
-0.022624725475907326 0.9955958127975464 -0.01643410138785839
-0.01100457739084959 0.9862812161445618 0.12209706753492355
0.0008055431535467505 0.9644059538841248 0.2457776516675949
0.012669259682297707 0.9319844841957092 0.35593360662460327
0.024467449635267258 0.890807569026947 0.4537796974182129
0.036095716059207916 0.8424671292304993 0.5404250025749207
0.047462113201618195 0.7883773446083069 0.616878867149353
0.05848497897386551 0.729797899723053 0.684057891368866
0.0690910741686821 0.667852520942688 0.7427920699119568
0.07921376824378967 0.6035467386245728 0.7938314080238342
0.08879154175519943 0.5377858281135559 0.8378525972366333
0.09776632487773895 0.47138920426368713 0.8754639029502869
0.10608212649822235 0.4051046669483185 0.907211184501648
0.11370830982923508 0.339499294757843 0.9335570335388184
0.12071025371551514 0.27461424469947815 0.9548094272613525
0.12717130780220032 0.210362508893013 0.9712007641792297
0.13316898047924042 0.14665505290031433 0.9829192161560059
0.1387757807970047 0.0833997055888176 0.9901091456413269
0.1440603882074356 0.02049991302192211 0.9928734302520752
0.14908863604068756 -0.04214576259255409 0.9912738800048828
0.153924360871315 -0.10464631021022797 0.9853306412696838
0.15863043069839478 -0.16711872816085815 0.9750211834907532
0.16326965391635895 -0.22969074547290802 0.9602779150009155
0.167905792593956 -0.29250237345695496 0.9409847855567932
0.1726047843694687 -0.35570964217185974 0.9169719815254211
0.17743591964244843 -0.4194875955581665 0.8880095481872559
0.18241256475448608 -0.48389288783073425 0.853771984577179
0.18730349838733673 -0.5484133362770081 0.8137534856796265
0.19179895520210266 -0.6123305559158325 0.7673500180244446
0.19556312263011932 -0.6748366951942444 0.7138807773590088
0.19822730123996735 -0.7350153923034668 0.652580201625824
0.1993824541568756 -0.7918198108673096 0.5825904011726379
0.19857138395309448 -0.8440492749214172 0.5029525756835938
0.19528034329414368 -0.8903232216835022 0.41259869933128357
0.18892987072467804 -0.92905193567276 0.3103426992893219
0.17886514961719513 -0.9584048986434937 0.1948729157447815
0.16434606909751892 -0.9762767553329468 0.06474582850933075
0.14453670382499695 -0.980251133441925 -0.08161792159080505
0.11849552392959595 -0.9675636291503906 -0.24593380093574524
-0.06502051651477814 0.9875199794769287 -0.17661026120185852
-0.05820802226662636 0.9942390322685242 -0.02094832807779312
-0.0505346804857254 0.985856831073761 0.1185830608010292
-0.04220745339989662 0.9646444916725159 0.2433518022298813
-0.03340975195169449 0.9326349496841431 0.35462817549705505
-0.024304134771227837 0.891643226146698 0.45358577370643616
-0.015034922398626804 0.8432887196540833 0.5413036346435547
-0.005730627104640007 0.7890158295631409 0.6187703609466553
0.003493709722533822 0.7301141619682312 0.6868885159492493
0.0125344293192029 0.6677367091178894 0.7464790344238281
0.021297240629792213 0.602918267250061 0.7982879877090454
0.029695354402065277 0.5365905165672302 0.8429896831512451
0.037647735327482224 0.46959859132766724 0.8811933994293213
0.0450773760676384 0.40271443128585815 0.913446843624115
0.05193702504038811 0.33652475476264954 0.9402163028717041
0.05828719958662987 0.27107733488082886 0.9618143439292908
0.06421024352312088 0.2062886506319046 0.9784799814224243
0.06978354603052139 0.14207223057746887 0.9904066920280457
0.07508059591054916 0.07833828032016754 0.9977442026138306
0.08017212897539139 0.01499226875603199 1.000601053237915
0.08512703329324722 -0.04806544631719589 0.9990442395210266
0.09001343697309494 -0.11094235628843307 0.993098795413971
0.09489975869655609 -0.17375405132770538 0.9827471971511841
0.09985572099685669 -0.2366269826889038 0.9679260849952698
0.10495367646217346 -0.29969996213912964 0.9485234618186951
0.11026991158723831 -0.36312779784202576 0.9243731498718262
0.11588627099990845 -0.42708447575569153 0.8952487707138062
0.12183229625225067 -0.4916258454322815 0.8608260154724121
0.1278998702764511 -0.5562387704849243 0.8205937743186951
0.1338062435388565 -0.620201587677002 0.7739418148994446
0.13924556970596313 -0.6827011108398438 0.7201836705207825
0.1438826471567154 -0.7428121566772461 0.6585496068000793
0.1473459005355835 -0.799476683139801 0.5881797075271606
0.14922015368938446 -0.8514798283576965 0.5081163644790649
0.14903904497623444 -0.8974249362945557 0.41729751229286194
0.14627666771411896 -0.9357044100761414 0.3145500421524048
0.14033910632133484 -0.9644702076911926 0.19858472049236298
0.130555659532547 -0.9816012382507324 0.06799359619617462
0.11617013067007065 -0.984671413898468 -0.07874959707260132
0.09633278846740723 -0.9709163308143616 -0.2432837039232254
-0.09552069753408432 0.9838809967041016 -0.18278628587722778
-0.09313299506902695 0.9916182160377502 -0.026762383058667183
-0.08940915763378143 0.9840591549873352 0.1133328527212143
-0.08459644019603729 0.9634665846824646 0.23879650235176086
-0.07891672849655151 0.9318757057189941 0.3508433997631073
-0.07256890833377838 0.8911129236221313 0.450604110956192
-0.06573135405778885 0.8428142666816711 0.5391250252723694
-0.05856429040431976 0.7884450554847717 0.6173705458641052
-0.051212113350629807 0.7293174862861633 0.6862249374389648
-0.04380559176206589 0.6666094064712524 0.7464978098869324
-0.03646394982933998 0.6013798713684082 0.7989262938499451
-0.029296860098838806 0.5345858931541443 0.8441804051399231
-0.022406328469514847 0.46709659695625305 0.882867157459259
-0.015888551250100136 0.39970794320106506 0.9155339598655701
-0.009806486777961254 0.3330269455909729 0.9426486492156982
-0.00410628505051136 0.267109751701355 0.9645271897315979
0.0012909222859889269 0.20187726616859436 0.9814123511314392
0.006460254546254873 0.1372467279434204 0.9935024976730347
0.011474130675196648 0.07313144207000732 1.0009527206420898
0.01640331745147705 0.009439290501177311 1.0038765668869019
0.021317902952432632 -0.05392749235033989 1.0023462772369385
0.026288460940122604 -0.11707482486963272 0.9963927268981934
0.031387053430080414 -0.18011720478534698 0.9860033392906189
0.03668854385614395 -0.2431802749633789 0.9711206555366516
0.04227188974618912 -0.3064022958278656 0.9516374468803406
0.04822181537747383 -0.369937926530838 0.927392840385437
0.05463060364127159 -0.43396106362342834 0.898164689540863
0.06154261529445648 -0.4985283315181732 0.8636317849159241
0.0687749981880188 -0.5631285309791565 0.82327800989151
0.07607484608888626 -0.6270402073860168 0.7764874696731567
0.08316932618618011 -0.6894466280937195 0.7225689888000488
0.0897597149014473 -0.749417245388031 0.6607516407966614
0.09551503509283066 -0.8058852553367615 0.5901771783828735
0.10006548464298248 -0.8576256036758423 0.5098955035209656
0.10299552977085114 -0.9032294154167175 0.41885921359062195
0.10383661836385727 -0.9410772919654846 0.3159203827381134
0.10205984860658646 -0.9693114757537842 0.19982916116714478
0.09706859290599823 -0.9858075380325317 0.06923582404851913
0.08819161355495453 -0.9881462454795837 -0.07730253040790558
0.0746769979596138 -0.9735884070396423 -0.24130868911743164
-0.125444695353508 0.9792090058326721 -0.1896352469921112
-0.1274746209383011 0.9877362847328186 -0.033707160502672195
-0.12772254645824432 0.9808571338653564 0.10652291029691696
-0.12646812200546265 0.9608101844787598 0.23228712379932404
-0.12396486848592758 0.9296192526817322 0.3447474241256714
-0.12044233083724976 0.8891089558601379 0.4449916481971741
-0.11610814183950424 0.8409214019775391 0.5340324640274048
-0.11115026473999023 0.7865331768989563 0.6128076314926147
-0.10573914647102356 0.7272722125053406 0.6821815371513367
-0.10002989321947098 0.664334237575531 0.7429478764533997
-0.09416444599628448 0.5987990498542786 0.7958335280418396
-0.08827342838048935 0.5316449999809265 0.8415006995201111
-0.08247823268175125 0.46376365423202515 0.8805515766143799
-0.07689285278320312 0.3959738612174988 0.9135314226150513
-0.07159530371427536 0.32890287041664124 0.9409072399139404
-0.06654014438390732 0.2626160979270935 0.9629961252212524
-0.0616542212665081 0.1970398873090744 0.9800435304641724
-0.05686677247285843 0.13209594786167145 0.9922511577606201
-0.052108511328697205 0.06770109385251999 0.9997782707214355
-0.04731055721640587 0.0037659204099327326 1.0027434825897217
-0.04240355268120766 -0.059805165976285934 1.001224398612976
-0.037316419184207916 -0.12311664968729019 0.9952570796012878
-0.031975314021110535 -0.1862819790840149 0.9848352074623108
-0.02630225010216236 -0.2494262158870697 0.9699068665504456
-0.020213657990098 -0.31268760561943054 0.9503709673881531
-0.01361855212599039 -0.3762210011482239 0.9260727763175964
-0.006416459567844868 -0.44020095467567444 0.8967965841293335
0.0014503312995657325 -0.5046860575675964 0.8622243404388428
0.009826770052313805 -0.5691690444946289 0.8218365907669067
0.0184934064745903 -0.6329308152198792 0.7750124335289001
0.027213996276259422 -0.6951543688774109 0.7210595011711121
0.035729967057704926 -0.754905641078949 0.6592074632644653
0.0437547005712986 -0.8111129999160767 0.588604748249054
0.050967562943696976 -0.8625444173812866 0.508314847946167
0.05700774863362312 -0.9077840447425842 0.4173131287097931
0.06146794930100441 -0.9452071785926819 0.3144878149032593
0.0638880655169487 -0.9729556441307068 0.1986425817012787
0.06374912708997726 -0.9889132380485535 0.06850435584783554
0.0604679211974144 -0.9906847476959229 -0.07726327329874039
0.05339282751083374 -0.9755786657333374 -0.24003849923610687
-0.15487073361873627 0.9735344648361206 -0.19702216982841492
-0.16133934259414673 0.9825891852378845 -0.04162928834557533
-0.16559885442256927 0.9762126803398132 0.09831362962722778
-0.1679559201002121 0.9566068649291992 0.22398227453231812
-0.1686910092830658 0.925771176815033 0.33649057149887085
-0.16806012392044067 0.8855168223381042 0.436886191368103
-0.16629664599895477 0.8374808430671692 0.5261483788490295
-0.1636132001876831 0.7831414937973022 0.6051875352859497
-0.16020388901233673 0.7238346934318542 0.6748464703559875
-0.1562461107969284 0.660767674446106 0.7359016537666321
-0.15190276503562927 0.5950352549552917 0.7890663146972656
-0.1473240703344345 0.5276334881782532 0.8349932432174683
-0.14264966547489166 0.45947346091270447 0.8742774724960327
-0.1380104273557663 0.3913947641849518 0.9074599146842957
-0.13349902629852295 0.3240441083908081 0.9350050687789917
-0.12908008694648743 0.25749656558036804 0.9572288393974304
-0.12468812614679337 0.1916845589876175 0.9743772149085999
-0.12025870382785797 0.1265345811843872 0.9866539239883423
-0.11572755128145218 0.06196730211377144 0.9942216277122498
-0.11102955043315887 -0.002103623002767563 0.9972025752067566
-0.1060980036854744 -0.06577165424823761 0.9956796765327454
-0.10086313635110855 -0.12913963198661804 0.9896942377090454
-0.09525129199028015 -0.19232001900672913 0.9792455434799194
-0.08918338268995285 -0.255437433719635 0.9642881751060486
-0.0825732871890068 -0.31863003969192505 0.9447277188301086
-0.07532600313425064 -0.3820531368255615 0.9204162359237671
-0.06733527034521103 -0.44588223099708557 0.8911449313163757
-0.058531537652015686 -0.5101780295372009 0.8566014766693115
-0.049039192497730255 -0.5744389891624451 0.8162639737129211
-0.03904024511575699 -0.6379501223564148 0.7695097923278809
-0.028730323538184166 -0.6998963356018066 0.7156465649604797
-0.01832371950149536 -0.7593435645103455 0.6539099216461182
-0.008058520965278149 -0.815217912197113 0.5834592580795288
0.001797971548512578 -0.8662852048873901 0.5033773183822632
0.010943845845758915 -0.9111283421516418 0.41267040371894836
0.01903693377971649 -0.9481244087219238 0.31027209758758545
0.02568941004574299 -0.9754244685173035 0.19505125284194946
0.030462682247161865 -0.9909334182739258 0.06582489609718323
0.0328630767762661 -0.9922954440116882 -0.07862100750207901
0.032338883727788925 -0.9768872857093811 -0.2395022213459015
-0.1839066594839096 0.9668755531311035 -0.2048271745443344
-0.19486263394355774 0.9761617183685303 -0.05039196088910103
-0.20318980515003204 0.9700782895088196 0.08884792029857635
-0.20921891927719116 0.9507790803909302 0.21402229368686676
-0.2132549285888672 0.9202286005020142 0.3262041509151459
-0.2155778408050537 0.8802127838134766 0.42640507221221924
-0.2164447009563446 0.8323535919189453 0.5155732035636902
-0.2160910665988922 0.7781218886375427 0.5945923328399658
-0.21473291516304016 0.7188520431518555 0.6642827987670898
-0.21256883442401886 0.6557567119598389 0.7254031300544739
-0.20978154242038727 0.5899392366409302 0.7786514163017273
-0.2065400928258896 0.5224084258079529 0.8246685862541199
-0.20300176739692688 0.45409131050109863 0.8640413880348206
-0.19931384921073914 0.38584545254707336 0.897304117679596
-0.1955837905406952 0.31833532452583313 0.9249172806739807
-0.1917874962091446 0.25164535641670227 0.9471932053565979
-0.18786893784999847 0.18571414053440094 0.9643763303756714
-0.18377172946929932 0.12047320604324341 0.9766706228256226
-0.1794382780790329 0.05584714561700821 0.9842403531074524
-0.1748090535402298 -0.008247265592217445 0.9872113466262817
-0.16982164978981018 -0.07190115004777908 0.9856700301170349
-0.16440950334072113 -0.1352156549692154 0.9796628952026367
-0.15850095450878143 -0.19830211997032166 0.9691946506500244
-0.1520177721977234 -0.2612844705581665 0.9542261958122253
-0.14487338066101074 -0.3243008255958557 0.9346699118614197
-0.13697101175785065 -0.3875066339969635 0.9103853702545166
-0.12820109724998474 -0.45107781887054443 0.8811719417572021
-0.118483766913414 -0.5150773525238037 0.846724271774292
-0.10790973156690598 -0.5790101885795593 0.8065205216407776
-0.09661934524774551 -0.6421670913696289 0.7599389553070068
-0.08476335555315018 -0.7037370800971985 0.7062922120094299
-0.07250739634037018 -0.7627884149551392 0.6448249220848083
-0.060036662966012955 -0.8182494640350342 0.5747131705284119
-0.0475606732070446 -0.8688884973526001 0.4950653314590454
-0.035318247973918915 -0.9132934808731079 0.40492525696754456
-0.02358250692486763 -0.9498521089553833 0.30327993631362915
-0.01266577746719122 -0.9767343401908875 0.18907171487808228
-0.0029241894371807575 -0.9918785691261292 0.06121683120727539
0.005238502752035856 -0.9929842948913574 -0.0813678726553917
0.011368301697075367 -0.9775137901306152 -0.23972879350185394
-0.21268890798091888 0.9592365622520447 -0.21294552087783813
-0.2282087802886963 0.9684250950813293 -0.05987560749053955
-0.2406749278306961 0.9623926281929016 0.0782499611377716
-0.25044259428977966 0.9432363510131836 0.202527716755867
-0.2578405439853668 0.9128751754760742 0.3139984607696533
-0.2631726562976837 0.8730604648590088 0.4136437475681305
-0.26671889424324036 0.8253883719444275 0.5023841261863708
-0.2687371075153351 0.7713127732276917 0.5810790061950684
-0.26946499943733215 0.7121586799621582 0.6505270004272461
-0.2691216468811035 0.6491354703903198 0.7114678621292114
-0.2679094970226288 0.5833489894866943 0.7645842432975769
-0.26601624488830566 0.515815258026123 0.8105043768882751
-0.2636169195175171 0.44747206568717957 0.849804699420929
-0.26087525486946106 0.3791913688182831 0.8830119967460632
-0.2579137682914734 0.31165260076522827 0.9105804562568665
-0.2547209858894348 0.2449490875005722 0.9328171014785767
-0.25125160813331604 0.17902514338493347 0.9499622583389282
-0.24745863676071167 0.11381707340478897 0.9622182250022888
-0.24329273402690887 0.04925338178873062 0.9697498679161072
-0.23870131373405457 -0.014746083877980709 0.9726840257644653
-0.23362794518470764 -0.07826997339725494 0.9711102247238159
-0.2280108481645584 -0.14141766726970673 0.9650790691375732
-0.22178217768669128 -0.20429904758930206 0.9546000957489014
-0.2148662656545639 -0.26703712344169617 0.9396400451660156
-0.20717822015285492 -0.3297693729400635 0.9201186299324036
-0.19862158596515656 -0.3926507532596588 0.8959029316902161
-0.18908603489398956 -0.4558570384979248 0.8668015599250793
-0.17848283052444458 -0.5194525122642517 0.8325172662734985
-0.16686606407165527 -0.582949161529541 0.7925323843955994
-0.15433011949062347 -0.6456446051597595 0.7462292909622192
-0.14097653329372406 -0.7067336440086365 0.6929296255111694
-0.12691792845726013 -0.7652906775474548 0.6318930983543396
-0.11228207498788834 -0.8202497959136963 0.5623176693916321
-0.09721639752388 -0.8703877329826355 0.48334306478500366
-0.08189231157302856 -0.9143047332763672 0.3940570652484894
-0.0665101408958435 -0.9504077434539795 0.2935062646865845
-0.0513036847114563 -0.9768968820571899 0.1807120144367218
-0.03654484823346138 -0.9917567372322083 0.05469376593828201
-0.02254769392311573 -0.992756187915802 -0.08549942076206207
-0.009671495296061039 -0.9774575233459473 -0.24074774980545044
-0.24138189852237701 0.9506050944328308 -0.2212865650653839
-0.2615708112716675 0.9593336582183838 -0.06997774541378021
-0.27826255559921265 0.9530777931213379 0.06662473827600479
-0.29183968901634216 0.9338712096214294 0.1895981878042221
-0.3026573359966278 0.9035785794258118 0.299961656332016
-0.3110445737838745 0.8639069199562073 0.3986741006374359
-0.3173055648803711 0.8164174556732178 0.48663368821144104
-0.32172155380249023 0.7625375390052795 0.564678430557251
-0.32455238699913025 0.7035737633705139 0.6335871815681458
-0.3260384500026703 0.6407238245010376 0.6940817832946777
-0.3264026343822479 0.5750892162322998 0.7468295693397522
-0.32585182785987854 0.5076860785484314 0.7924450635910034
-0.3245794177055359 0.4394579529762268 0.8314937353134155
-0.3227665424346924 0.3712862432003021 0.8644938468933105
-0.32055166363716125 0.3038618266582489 0.8918922543525696
-0.3179366886615753 0.23728525638580322 0.9139876961708069
-0.3148879110813141 0.1715058982372284 0.9310145974159241
-0.311368852853775 0.1064644530415535 0.9431713819503784
-0.30733954906463623 0.04209297150373459 0.9506208300590515
-0.30275559425354004 -0.021685786545276642 0.9534898996353149
-0.2975676357746124 -0.0849580243229866 0.9518693685531616
-0.2917202413082123 -0.14782100915908813 0.9458127021789551
-0.2851507365703583 -0.21038299798965454 0.9353338479995728
-0.2777879238128662 -0.27276545763015747 0.9204047322273254
-0.2695501744747162 -0.3351042866706848 0.900951623916626
-0.2603435516357422 -0.3975532054901123 0.8768497109413147
-0.25005924701690674 -0.46028652787208557 0.8479176163673401
-0.23860125243663788 -0.5233685374259949 0.81386798620224
-0.2259841114282608 -0.5863178372383118 0.7741906046867371
-0.21225200593471527 -0.6484400033950806 0.7282772064208984
-0.19745326042175293 -0.70893794298172 0.6754640340805054
-0.18164309859275818 -0.7668944001197815 0.6150306463241577
-0.1648876816034317 -0.8212547898292542 0.5462027192115784
-0.14726801216602325 -0.8708101511001587 0.46815747022628784
-0.12888409197330475 -0.9141811728477478 0.38003167510032654
-0.10985974967479706 -0.9498037695884705 0.280935674905777
-0.09034734219312668 -0.9759196043014526 0.16997233033180237
-0.07053292542695999 -0.9905725121498108 0.046263501048088074
-0.050641018897295 -0.9916132092475891 -0.09101519733667374
-0.030938921496272087 -0.9767166972160339 -0.24259014427661896
-0.2701798975467682 0.940950334072113 -0.22977319359779358
-0.295173317193985 0.9488215446472168 -0.0806131511926651
-0.31619247794151306 0.9420351386070251 0.054057225584983826
-0.3336538076400757 0.9225555658340454 0.17531131207942963
-0.34794363379478455 0.8921856880187988 0.28415822982788086
-0.3594200611114502 0.8525794148445129 0.38154295086860657
-0.3684147000312805 0.8052536249160767 0.4683477282524109
-0.3752345144748688 0.7515998482704163 0.5453934669494629
-0.38016384840011597 0.6928971409797668 0.6134421825408936
-0.3834662139415741 0.6303232908248901 0.6731997728347778
-0.3853863477706909 0.5649665594100952 0.7253183126449585
-0.38615238666534424 0.4978368282318115 0.7703996896743774
-0.3859773278236389 0.4298762083053589 0.8089976906776428
-0.3850612938404083 0.3619700074195862 0.8416213393211365
-0.38356009125709534 0.2948159873485565 0.868709146976471
-0.38148945569992065 0.22851984202861786 0.8905498385429382
-0.3788279891014099 0.16303491592407227 0.9073688983917236
-0.37554997205734253 0.09830516576766968 0.9193582534790039
-0.3716256320476532 0.03426574170589447 0.9266773462295532
-0.3670194447040558 -0.02915799990296364 0.9294507503509521
-0.3616902828216553 -0.09204979240894318 0.9277690649032593
-0.355589896440506 -0.15450462698936462 0.9216867685317993
-0.34866225719451904 -0.2166285514831543 0.9112211465835571
-0.3408415615558624 -0.2785406708717346 0.8963482975959778
-0.33205148577690125 -0.34037449955940247 0.8770008683204651
-0.32220223546028137 -0.40228092670440674 0.8530625700950623
-0.31118878722190857 -0.46443119645118713 0.82436203956604
-0.29890936613082886 -0.5268875956535339 0.7906243205070496
-0.2853360176086426 -0.5891746878623962 0.7513505220413208
-0.2704593241214752 -0.6506067514419556 0.7059479355812073
-0.2542702853679657 -0.7103963494300842 0.6537723541259766
-0.23676306009292603 -0.7676385641098022 0.5941296219825745
-0.21793818473815918 -0.8212948441505432 0.5262787938117981
-0.19780635833740234 -0.870177686214447 0.44943976402282715
-0.17639237642288208 -0.912936806678772 0.3628024458885193
-0.15374015271663666 -0.948047935962677 0.26554328203201294
-0.12991775572299957 -0.9738062620162964 0.15684553980827332
-0.10502343624830246 -0.9883270263671875 0.03592798858880997
-0.07919161021709442 -0.9895551800727844 -0.09791906923055649
-0.05259913578629494 -0.9752876162528992 -0.2452891767024994
-0.29930970072746277 0.9302183985710144 -0.2383403331041336
-0.32927536964416504 0.9367974996566772 -0.09171334654092789
-0.35473981499671936 0.9291393160820007 0.04061199724674225
-0.37616291642189026 0.9091341495513916 0.15972144901752472
-0.3939701318740845 0.8785162568092346 0.2666269838809967
-0.408555269241333 0.8388784527778625 0.36226963996887207
-0.4202825725078583 0.7916838526725769 0.447522908449173
-0.42948904633522034 0.738278865814209 0.5231962203979492
-0.43648719787597656 0.6799056529998779 0.5900385975837708
-0.44156694412231445 0.6177129745483398 0.6487422585487366
-0.4449979066848755 0.5527673363685608 0.6999463438987732
-0.4470316469669342 0.48606371879577637 0.7442399859428406
-0.44790369272232056 0.41853588819503784 0.782166063785553
-0.4478355050086975 0.3510659337043762 0.8142243027687073
-0.4470022916793823 0.28435322642326355 0.8408445715904236
-0.4454338252544403 0.21850551664829254 0.8623024225234985
-0.4431205689907074 0.15347851812839508 0.878812849521637
-0.4400480389595032 0.08921833336353302 0.890559196472168
-0.43619635701179504 0.025662193074822426 0.8976939916610718
-0.431539386510849 -0.03726222366094589 0.9003377556800842
-0.4260447323322296 -0.09963639080524445 0.8985790014266968
-0.41967201232910156 -0.16155265271663666 0.8924719095230103
-0.4123722016811371 -0.22311417758464813 0.8820346593856812
-0.40408653020858765 -0.2844369113445282 0.8672475814819336
-0.39474478363990784 -0.34565049409866333 0.848048985004425
-0.38426315784454346 -0.40690138936042786 0.8243305087089539
-0.3725420832633972 -0.4683552384376526 0.7959319353103638
-0.3594754636287689 -0.5300703644752502 0.7625927329063416
-0.34499073028564453 -0.5915756821632385 0.7238302826881409
-0.3290213644504547 -0.652194619178772 0.6790732741355896
-0.3114980459213257 -0.7111515402793884 0.6277033686637878
-0.2923503518104553 -0.7675573825836182 0.5690584778785706
-0.2715100646018982 -0.8203954100608826 0.5024373531341553
-0.2489141970872879 -0.8685072064399719 0.4271062910556793
-0.2245090752840042 -0.910581111907959 0.34231171011924744
-0.19825541973114014 -0.9451438784599304 0.2472955733537674
-0.17013417184352875 -0.9705564975738525 0.14131766557693481
-0.1401531994342804 -0.9850181341171265 0.023683467879891396
-0.10835495591163635 -0.9865787029266357 -0.10621996223926544
-0.07482481747865677 -0.973163902759552 -0.24888108670711517
-0.32903552055358887 0.9182608127593994 -0.24697786569595337
-0.3641381859779358 0.9230794906616211 -0.10329759865999222
-0.39415207505226135 0.9141824245452881 0.026243193075060844
-0.41959330439567566 0.8933797478675842 0.14275838434696198
-0.440936803817749 0.8623300194740295 0.2472749501466751
-0.4586203992366791 0.8225556015968323 0.340739369392395
-0.4730477035045624 0.7754571437835693 0.42402371764183044
-0.48459187150001526 0.7223262786865234 0.49793118238449097
-0.49359795451164246 0.6643581390380859 0.5632016658782959
-0.500386655330658 0.6026625633239746 0.620516300201416
-0.5052559971809387 0.5382752418518066 0.6705027222633362
-0.5084846019744873 0.4721675515174866 0.7137387990951538
-0.5103334188461304 0.4052562117576599 0.750756561756134
-0.5110486149787903 0.3384128212928772 0.7820464372634888
-0.5108270645141602 0.2723314166069031 0.8080286979675293
-0.5097123384475708 0.2071191370487213 0.8289650082588196
-0.5077059268951416 0.14273177087306976 0.8450561165809631
-0.5048038959503174 0.07911622524261475 0.8564751744270325
-0.500995934009552 0.016210967674851418 0.8633655309677124
-0.4962650239467621 -0.04605451971292496 0.8658413887023926
-0.49058714509010315 -0.10775943100452423 0.8639867901802063
-0.4839300215244293 -0.16899323463439941 0.8578538298606873
-0.4762522280216217 -0.2298554629087448 0.8474610447883606
-0.46750229597091675 -0.2904576361179352 0.8327913880348206
-0.45761701464653015 -0.35092395544052124 0.8137879371643066
-0.446519672870636 -0.41139450669288635 0.7903512120246887
-0.4341178238391876 -0.4720267057418823 0.7623324394226074
-0.42030221223831177 -0.5328718423843384 0.7294876575469971
-0.4049539268016815 -0.5934625267982483 0.6913567185401917
-0.3879472017288208 -0.6531314849853516 0.6473953127861023
-0.36914995312690735 -0.7111173272132874 0.5970182418823242
-0.34842514991760254 -0.7665516138076782 0.5396014451980591
-0.32563331723213196 -0.8184455037117004 0.4744878113269806
-0.3006354868412018 -0.8656785488128662 0.4009949564933777
-0.27329710125923157 -0.9069884419441223 0.31842660903930664
-0.24349315464496613 -0.9409651756286621 0.22608888149261475
-0.21111458539962769 -0.9660484194755554 0.12331072986125946
-0.1760757863521576 -0.980534017086029 0.009471199475228786
-0.1383238434791565 -0.9825870394706726 -0.11596774309873581
-0.09784863144159317 -0.9702677130699158 -0.2534216344356537
-0.35962995886802673 0.9046350717544556 -0.2558521330356598
-0.39987772703170776 0.9072199463844299 -0.1156761571764946
-0.4344103932380676 0.896727979183197 0.010536723770201206
-0.4638112187385559 0.8748787045478821 0.12393654137849808
-0.48861339688301086 0.843243420124054 0.22557109594345093
-0.5093051791191101 0.8032634258270264 0.31639620661735535
-0.5263348817825317 0.7562649250030518 0.39728474617004395
-0.540115475654602 0.7034732699394226 0.46903517842292786
-0.5510286092758179 0.646026074886322 0.5323782563209534
-0.5594277381896973 0.5849840044975281 0.5879842042922974
-0.5656422972679138 0.5213418006896973 0.6364680528640747
-0.5699796676635742 0.45603784918785095 0.6783949732780457
-0.5727288126945496 0.38996344804763794 0.7142853140830994
-0.5741622447967529 0.32397133111953735 0.7446178793907166
-0.574500322341919 0.25874409079551697 0.7698022127151489
-0.5737993121147156 0.19438552856445312 0.7900833487510681
-0.5720704793930054 0.13085044920444489 0.8056473135948181
-0.5693188309669495 0.06808584928512573 0.8166536092758179
-0.5655429363250732 0.0060309539549052715 0.8232355713844299
-0.5607340931892395 -0.05538305267691612 0.825499415397644
-0.5548760890960693 -0.11623276025056839 0.8235230445861816
-0.5479441285133362 -0.17660418152809143 0.8173556327819824
-0.5399045944213867 -0.2365923821926117 0.8070151209831238
-0.5307133197784424 -0.2963032126426697 0.7924862504005432
-0.520314633846283 -0.3558540344238281 0.7737181186676025
-0.5086396932601929 -0.41537630558013916 0.7506195902824402
-0.49560436606407166 -0.4750172197818756 0.7230554819107056
-0.48109710216522217 -0.5348185300827026 0.6908003687858582
-0.4649525284767151 -0.5943168997764587 0.6534233093261719
-0.4469846487045288 -0.6528567671775818 0.6104145050048828
-0.426998108625412 -0.7096954584121704 0.5612280368804932
-0.4047888219356537 -0.7639917731285095 0.5052850842475891
-0.3801458179950714 -0.8147938251495361 0.4419785737991333
-0.3528537452220917 -0.861030101776123 0.3706812858581543
-0.3226965367794037 -0.9015007019042969 0.2907562255859375
-0.2894628643989563 -0.9348732829093933 0.201571524143219
-0.25295206904411316 -0.9596818685531616 0.10251905024051666
-0.2129828929901123 -0.9743330478668213 -0.006961422506719828
-0.1694030463695526 -0.9771198034286499 -0.1273534893989563
-0.12210112810134888 -0.9662439227104187 -0.2590295374393463
-0.3913133144378662 0.8888311386108398 -0.26515963673591614
-0.43651360273361206 0.888708233833313 -0.12922105193138123
-0.4753659963607788 0.876283586025238 -0.007006470579653978
-0.5085287094116211 0.8531693816184998 0.10266939550638199
-0.5365979075431824 0.820834219455719 0.20087303221225739
-0.5601159930229187 0.7806234955787659 0.2885667383670807
-0.5795783400535583 0.7337754368782043 0.3666210472583771
-0.5954391360282898 0.6814366579055786 0.4358258545398712
-0.6081171631813049 0.6246746778488159 0.496899276971817
-0.6179999709129333 0.5644899606704712 0.550496518611908
-0.6254478693008423 0.5018258690834045 0.5972161293029785
-0.6307982206344604 0.4375782907009125 0.6376070380210876
-0.6343678832054138 0.3726039528846741 0.6721734404563904
-0.6364568471908569 0.3077286183834076 0.701379656791687
-0.6373087763786316 0.24361680448055267 0.7256205081939697
-0.6369912624359131 0.18036748468875885 0.7451232671737671
-0.63552325963974 0.1179344654083252 0.7600569725036621
-0.6329173445701599 0.05626467242836952 0.7705672979354858
-0.6291793584823608 -0.004701540805399418 0.7767757177352905
-0.6243076324462891 -0.06503094732761383 0.7787793874740601
-0.6182928085327148 -0.12479697912931442 0.7766500115394592
-0.6111175417900085 -0.18408145010471344 0.7704330682754517
-0.6027547717094421 -0.2429739236831665 0.760145902633667
-0.5931679606437683 -0.30157357454299927 0.7457757592201233
-0.5823091864585876 -0.3599895238876343 0.7272778749465942
-0.570117712020874 -0.4183429777622223 0.7045713067054749
-0.5565186142921448 -0.47676900029182434 0.6775355935096741
-0.5413994789123535 -0.5352985858917236 0.645967960357666
-0.5245489478111267 -0.5934744477272034 0.6094728708267212
-0.505722165107727 -0.6506580710411072 0.567582905292511
-0.4846617579460144 -0.7061324119567871 0.5197994112968445
-0.46109822392463684 -0.7590922713279724 0.46559542417526245
-0.43475085496902466 -0.8086346983909607 0.40442007780075073
-0.4053298830986023 -0.8537504076957703 0.3357054889202118
-0.3725396990776062 -0.893317699432373 0.2588759958744049
-0.3360835909843445 -0.9260983467102051 0.17336033284664154
-0.2956698536872864 -0.9507380723953247 0.07860777527093887
-0.25101983547210693 -0.9657710194587708 -0.025892486795783043
-0.20187829434871674 -0.9696317911148071 -0.14058730006217957
-0.14802519977092743 -0.9606741666793823 -0.26583153009414673
-0.42424142360687256 0.8703480362892151 -0.27508172392845154
-0.4739924371242523 0.8670411109924316 -0.1442927122116089
-0.516792356967926 0.8523606657981873 -0.026878075674176216
-0.553377091884613 0.8277900218963623 0.07837260514497757
-0.5844071507453918 0.7946757674217224 0.17253471910953522
-0.6104783415794373 0.7542497515678406 0.25656768679618835
-0.6321321725845337 0.7076469659805298 0.3313310444355011
-0.6498627662658691 0.6559206247329712 0.39759793877601624
-0.664124071598053 0.6000553965568542 0.4560662508010864
-0.6753354668617249 0.5409793853759766 0.5073685646057129
-0.683887243270874 0.47957366704940796 0.5520807504653931
-0.6901444792747498 0.4166813790798187 0.5907287001609802
-0.694451093673706 0.3531154692173004 0.6237947344779968
-0.6971331834793091 0.2896660566329956 0.6517229080200195
-0.6984575390815735 0.22697290778160095 0.6748887300491333
-0.6985000371932983 0.16512952744960785 0.6934996843338013
-0.6972856521606445 0.1040894091129303 0.7077071666717529
-0.6948320865631104 0.04380027949810028 0.7176414728164673
-0.6911510229110718 -0.01579570770263672 0.7234123945236206
-0.6862462759017944 -0.07476247102022171 0.7251077890396118
-0.6801146864891052 -0.13316956162452698 0.7227930426597595
-0.6727447509765625 -0.19109365344047546 0.7165102958679199
-0.6641162037849426 -0.24861811101436615 0.7062770128250122
-0.6541994214057922 -0.3058343827724457 0.692084014415741
-0.6429541110992432 -0.3628422021865845 0.6738938093185425
-0.6303282976150513 -0.41975176334381104 0.6516376733779907
-0.6162567138671875 -0.4766846299171448 0.6252121329307556
-0.6006273031234741 -0.5336609482765198 0.5944406390190125
-0.5831850171089172 -0.5902340412139893 0.5589702129364014
-0.5636289715766907 -0.6457893252372742 0.5183838605880737
-0.5416432023048401 -0.6996452808380127 0.472237765789032
-0.5168964266777039 -0.7510446310043335 0.4200638234615326
-0.4890424907207489 -0.7991465926170349 0.3613729774951935
-0.4577212631702423 -0.8430201411247253 0.2956608533859253
-0.4225616157054901 -0.8816388249397278 0.22241486608982086
-0.3831847608089447 -0.9138773083686829 0.14112333953380585
-0.339209645986557 -0.9385108947753906 0.05128774046897888
-0.2902601361274719 -0.9542191028594971 -0.047562677413225174
-0.2359739989042282 -0.9595934748649597 -0.1558527797460556
-0.17601415514945984 -0.9531518816947937 -0.2739405632019043
-0.4584980607032776 0.8487037420272827 -0.2857828140258789
-0.5121803283691406 0.8417329788208008 -0.16123563051223755
-0.5583776235580444 0.8244855403900146 -0.04955664649605751
-0.5979003310203552 0.7982894778251648 0.05047033354640007
-0.6314690709114075 0.7643471956253052 0.1399124711751938
-0.6597291231155396 0.7237575054168701 0.2197110950946808
-0.6832623481750488 0.6775345206260681 0.29070088267326355
-0.7025983929634094 0.6266228556632996 0.35362595319747925
-0.7182215452194214 0.5719107389450073 0.40915265679359436
-0.7305790781974792 0.5142412185668945 0.45788124203681946
-0.7400867938995361 0.45442134141921997 0.500355064868927
-0.7471340298652649 0.39323100447654724 0.5370684862136841
-0.7520888447761536 0.3314293622970581 0.5684739351272583
-0.755300760269165 0.2697617709636688 0.5949875712394714
-0.7570569515228271 0.20883619785308838 0.6169596314430237
-0.757439911365509 0.1487407684326172 0.6345759034156799
-0.7564769983291626 0.08943019062280655 0.6479690074920654
-0.7541900277137756 0.030854230746626854 0.6572546362876892
-0.7505940198898315 -0.027041973546147346 0.6625300645828247
-0.7456972002983093 -0.08431846648454666 0.6638743281364441
-0.7395012378692627 -0.14104007184505463 0.661347508430481
-0.7319996356964111 -0.19727763533592224 0.6549891233444214
-0.7231782674789429 -0.25310757756233215 0.6448180675506592
-0.7130141258239746 -0.3086130619049072 0.6308304071426392
-0.701474666595459 -0.36388424038887024 0.6129979491233826
-0.6885166168212891 -0.41901957988739014 0.5912660360336304
-0.6740850806236267 -0.4741271138191223 0.5655511617660522
-0.6580696702003479 -0.5292172431945801 0.5357063412666321
-0.6401752233505249 -0.5838606357574463 0.5014285445213318
-0.6200495958328247 -0.6374771595001221 0.46235883235931396
-0.5973235368728638 -0.6894320249557495 0.4181154668331146
-0.5716099143028259 -0.7390297651290894 0.36829522252082825
-0.5425030589103699 -0.7855074405670166 0.31247609853744507
-0.5095793008804321 -0.828029453754425 0.25022047758102417
-0.47239768505096436 -0.8656825423240662 0.1810799390077591
-0.43050268292427063 -0.8974727392196655 0.10460105538368225
-0.3834274709224701 -0.9223243594169617 0.020333388820290565
-0.33069896697998047 -0.9390795826911926 -0.0721612498164177
-0.271844744682312 -0.9465039372444153 -0.17329701781272888
-0.20640145242214203 -0.9432927370071411 -0.283450186252594
-0.49408477544784546 0.8234527111053467 -0.2974059581756592
-0.5508551597595215 0.8123344779014587 -0.18036966025829315
-0.5997180342674255 0.792216420173645 -0.07549676299095154
-0.6415485143661499 0.7642424702644348 0.018406959250569344
-0.6771171689033508 0.7294459342956543 0.1023765578866005
-0.7071091532707214 0.6887724995613098 0.1773146092891693
-0.7321385741233826 0.6430972814559937 0.24401310086250305
-0.7527614235877991 0.5932401418685913 0.3031711280345917
-0.7694849371910095 0.5399783849716187 0.3554096519947052
-0.7827770113945007 0.4840569496154785 0.4012836813926697
-0.7930728793144226 0.4261970520019531 0.4412926137447357
-0.800780713558197 0.3671037554740906 0.47588878870010376
-0.8062872290611267 0.30747199058532715 0.505484938621521
-0.8099617958068848 0.24799226224422455 0.5304601788520813
-0.8121078610420227 0.18923316895961761 0.5511319041252136
-0.8128113150596619 0.1312778741121292 0.5676623582839966
-0.812100350856781 0.07408425956964493 0.5801652073860168
-0.8099976181983948 0.017605911940336227 0.588740885257721
-0.8065205216407776 -0.0382077693939209 0.5934751629829407
-0.8016800880432129 -0.09341193735599518 0.5944390892982483
-0.7954814434051514 -0.14806589484214783 0.5916882753372192
-0.7879227995872498 -0.20223428308963776 0.5852615237236023
-0.7789952158927917 -0.2559862732887268 0.5751805901527405
-0.7686822414398193 -0.3093969523906708 0.5614488124847412
-0.756959080696106 -0.36254698038101196 0.5440495610237122
-0.7437914609909058 -0.41552406549453735 0.5229448676109314
-0.729135274887085 -0.468423455953598 0.4980732202529907
-0.7128830552101135 -0.5212485790252686 0.4693208336830139
-0.6947049498558044 -0.5735969543457031 0.43644118309020996
-0.6742036938667297 -0.6249346733093262 0.39914044737815857
-0.6509639620780945 -0.6746881008148193 0.3571048676967621
-0.6245502829551697 -0.7222387194633484 0.31000128388404846
-0.5945059061050415 -0.7669180035591125 0.2574780583381653
-0.5603516697883606 -0.8080028295516968 0.19916650652885437
-0.5215849876403809 -0.8447114825248718 0.13468264043331146
-0.4776805341243744 -0.8761997818946838 0.0636298730969429
-0.4280906617641449 -0.9015579223632812 -0.014397627674043179
-0.3722476661205292 -0.9198092222213745 -0.09981062263250351
-0.30956628918647766 -0.9299092888832092 -0.19301943480968475
-0.23944804072380066 -0.9307475090026855 -0.29442736506462097
-0.5309094190597534 0.7942091226577759 -0.3100664019584656
-0.5897005796432495 0.7784551382064819 -0.20197731256484985
-0.6403156518936157 0.7551649212837219 -0.10511287301778793
-0.6836767196655273 0.7252680659294128 -0.01833566650748253
-0.7205891609191895 0.6896047592163086 0.05932798981666565
-0.7517632246017456 0.6489460468292236 0.12871724367141724
-0.7778320908546448 0.604010283946991 0.19056016206741333
-0.7993663549423218 0.5554768443107605 0.24549263715744019
-0.8168860077857971 0.503997802734375 0.2940739691257477
-0.8308696150779724 0.4502062201499939 0.3367995321750641
-0.8417631983757019 0.39472496509552 0.3741118609905243
-0.84998619556427 0.33817237615585327 0.4064090847969055
-0.8559374809265137 0.2811676859855652 0.4340530335903168
-0.8599998950958252 0.22433538734912872 0.45737528800964355
-0.8624885678291321 0.16819608211517334 0.4766522943973541
-0.8634893298149109 0.11282823979854584 0.4920196235179901
-0.8630285263061523 0.0581953302025795 0.503572404384613
-0.8611285090446472 0.0042564235627651215 0.5113958716392517
-0.8578067421913147 -0.049033571034669876 0.5155650973320007
-0.8530760407447815 -0.10172421485185623 0.5161440372467041
-0.8469441533088684 -0.1538689285516739 0.5131851434707642
-0.8394132256507874 -0.2055261731147766 0.5067283511161804
-0.8304793834686279 -0.25675860047340393 0.49680036306381226
-0.8201327919960022 -0.3076339364051819 0.48341360688209534
-0.8083559274673462 -0.35822489857673645 0.4665652811527252
-0.7951244711875916 -0.4086102247238159 0.44623613357543945
-0.7804051637649536 -0.45887473225593567 0.4223887622356415
-0.7640951871871948 -0.5090194344520569 0.394944965839386
-0.7458361387252808 -0.5586802959442139 0.3637203872203827
-0.7251933813095093 -0.6073840260505676 0.32849159836769104
-0.701714038848877 -0.6546332836151123 0.2890172302722931
-0.6749237179756165 -0.6999024152755737 0.24503709375858307
-0.644324541091919 -0.7426338791847229 0.19627182185649872
-0.6093911528587341 -0.7822335958480835 0.14242185652256012
-0.5695694088935852 -0.818067729473114 0.08316710591316223
-0.5242725610733032 -0.8494579792022705 0.018166054040193558
-0.47287893295288086 -0.8756769299507141 -0.05294463038444519
-0.4147298038005829 -0.8959450721740723 -0.13055066764354706
-0.34912651777267456 -0.9094249606132507 -0.21506047248840332
-0.27532821893692017 -0.9152182340621948 -0.30690523982048035
-0.5687767267227173 0.7606772184371948 -0.3238436281681061
-0.6283031702041626 0.7397932410240173 -0.2262876033782959
-0.6795789003372192 0.7130236029624939 -0.13875845074653625
-0.7235487699508667 0.6810553669929504 -0.06021542847156525
-0.7610307931900024 0.6445122361183167 0.010221186093986034
-0.7927413582801819 0.6039716005325317 0.07330016046762466
-0.8193163275718689 0.5599783658981323 0.1296629160642624
-0.8413259983062744 0.5130562782287598 0.17986273765563965
-0.859289288520813 0.4637179672718048 0.22438016533851624
-0.8736842274665833 0.41247186064720154 0.26363593339920044
-0.8849570155143738 0.3598291277885437 0.2980017364025116
-0.8935286402702332 0.3063087463378906 0.32780882716178894
-0.8998019099235535 0.2524414360523224 0.3533560633659363
-0.9041652679443359 0.1987728774547577 0.3749161660671234
-0.9069392681121826 0.14576558768749237 0.3927149772644043
-0.9082068204879761 0.09349334985017776 0.4068596065044403
-0.9079902172088623 0.04192708060145378 0.41742557287216187
-0.9063089489936829 -0.00896740797907114 0.42448338866233826
-0.9031800627708435 -0.05922901630401611 0.4280976355075836
-0.8986167907714844 -0.10890156775712967 0.42832648754119873
-0.8926290273666382 -0.158033087849617 0.42522042989730835
-0.8852224349975586 -0.2066769003868103 0.41882187128067017
-0.8763982057571411 -0.2548905611038208 0.40916410088539124
-0.8661527037620544 -0.3027367889881134 0.3962703347206116
-0.8544768691062927 -0.35028278827667236 0.38015320897102356
-0.8413558006286621 -0.3976016938686371 0.36081328988075256
-0.8267679214477539 -0.4447719156742096 0.33823826909065247
-0.8106164932250977 -0.49179807305336 0.31238633394241333
-0.7925213575363159 -0.5383684039115906 0.28313910961151123
-0.7720195055007935 -0.5840857625007629 0.25034669041633606
-0.7486299276351929 -0.6285445690155029 0.21384191513061523
-0.7218500971794128 -0.6713279485702515 0.17343835532665253
-0.6911510229110718 -0.712003767490387 0.12892824411392212
-0.6559730172157288 -0.7501218318939209 0.08008008450269699
-0.6157203316688538 -0.7852095365524292 0.026635773479938507
-0.5697550773620605 -0.8167676329612732 -0.03169255703687668
-0.5173901319503784 -0.844264805316925 -0.09522635489702225
-0.4578815996646881 -0.8671324253082275 -0.16432510316371918
-0.39041924476623535 -0.8847572207450867 -0.23939138650894165
-0.31411609053611755 -0.8964745402336121 -0.3208770751953125
-0.6073804497718811 0.722683846950531 -0.3387719690799713
-0.6661550998687744 0.6961679458618164 -0.2534564137458801
-0.7168319821357727 0.6655963063240051 -0.1767006516456604
-0.7603476643562317 0.6313897967338562 -0.10760209709405899
-0.7975067496299744 0.5939366221427917 -0.04540788009762764
-0.8290096521377563 0.553604781627655 0.010513484477996826
-0.855474591255188 0.5107516050338745 0.060694653540849686
-0.877454936504364 0.46573248505592346 0.10558751970529556
-0.8954533338546753 0.4189074635505676 0.14557762444019318
-0.9099336862564087 0.37064746022224426 0.18099646270275116
-0.9213300347328186 0.321338951587677 0.21213145554065704
-0.9300545454025269 0.2713877856731415 0.2392345815896988
-0.9365034103393555 0.2212219089269638 0.262529581785202
-0.9410626292228699 0.1712934672832489 0.2822187542915344
-0.9440501928329468 0.12199438363313675 0.29846763610839844
-0.9455429315567017 0.07339243590831757 0.31135180592536926
-0.9455569982528687 0.02546689100563526 0.3209264278411865
-0.9441081881523132 -0.021809449419379234 0.32724669575691223
-0.9412112832069397 -0.06846974045038223 0.33036699891090393
-0.9368794560432434 -0.11455308645963669 0.33033958077430725
-0.9311246275901794 -0.1601039469242096 0.327213853597641
-0.923955500125885 -0.20517277717590332 0.32103508710861206
-0.9153785109519958 -0.24981504678726196 0.31184375286102295
-0.905396580696106 -0.2940918505191803 0.29967445135116577
-0.894008994102478 -0.33806926012039185 0.284555047750473
-0.8812107443809509 -0.3818192780017853 0.26650571823120117
-0.8669919967651367 -0.42541930079460144 0.2455378919839859
-0.8512633442878723 -0.4688856303691864 0.22164513170719147
-0.8336300849914551 -0.5119730234146118 0.19477562606334686
-0.813609778881073 -0.5543767213821411 0.1648535579442978
-0.7907039523124695 -0.5957980155944824 0.13178513944149017
-0.7643917202949524 -0.6359416246414185 0.09545562416315079
-0.7341247200965881 -0.674513578414917 0.05572621151804924
-0.6993202567100525 -0.7112178206443787 0.012430490925908089
-0.659352719783783 -0.7457528114318848 -0.03462984412908554
-0.6135441064834595 -0.7778074145317078 -0.08568992465734482
-0.5611521005630493 -0.8070560693740845 -0.14102767407894135
-0.5013564229011536 -0.8331533670425415 -0.20097103714942932
-0.43324118852615356 -0.8557270765304565 -0.2659066617488861
-0.3557744026184082 -0.874370813369751 -0.3362906575202942
-0.6463035941123962 0.6802119612693787 -0.3548327088356018
-0.7026644945144653 0.6475530862808228 -0.28354698419570923
-0.7513304948806763 0.6128305792808533 -0.2190934717655182
-0.7931951880455017 0.5761836171150208 -0.1607462763786316
-0.8290208578109741 0.5377531051635742 -0.10790938138961792
-0.8594672679901123 0.49768710136413574 -0.06009213626384735
-0.8851144909858704 0.45614588260650635 -0.016889622434973717
-0.906480610370636 0.413306325674057 0.02203284576535225
-0.9240363240242004 0.36936596035957336 0.05695231631398201
-0.9382168054580688 0.3245462477207184 0.08809881657361984
-0.9494314193725586 0.2790957987308502 0.11566426604986191
-0.9580715894699097 0.23329272866249084 0.13981018960475922
-0.9645165801048279 0.18744608759880066 0.16067461669445038
-0.9691392779350281 0.14189685881137848 0.17837820947170258
-0.9722482562065125 0.09695088118314743 0.19301702082157135
-0.9739102721214294 0.05266635864973068 0.20463140308856964
-0.9741336107254028 0.009029805660247803 0.21325425803661346
-0.9729291796684265 -0.033980630338191986 0.21892401576042175
-0.9703088402748108 -0.07639466226100922 0.22168324887752533
-0.9662852883338928 -0.11824976652860641 0.22157730162143707
-0.9608713388442993 -0.15959027409553528 0.21865299344062805
-0.9540795087814331 -0.20046791434288025 0.2129574418067932
-0.9459207653999329 -0.24094067513942719 0.20453667640686035
-0.9364049434661865 -0.2810731828212738 0.1934347003698349
-0.9255394339561462 -0.32093584537506104 0.17969226837158203
-0.9133288860321045 -0.3606056571006775 0.16334585845470428
-0.8997746109962463 -0.4001653492450714 0.1444265991449356
-0.8847953677177429 -0.4396512508392334 0.12295891344547272
-0.8679879307746887 -0.4789000153541565 0.0989551916718483
-0.8488602638244629 -0.5177138447761536 0.07241102308034897
-0.8269050717353821 -0.5559130907058716 0.043302133679389954
-0.8015938401222229 -0.5933346748352051 0.011580976657569408
-0.7723701000213623 -0.6298301219940186 -0.022826697677373886
-0.7386391758918762 -0.665263295173645 -0.06002601981163025
-0.6997578144073486 -0.6995083093643188 -0.10015769302845001
-0.6550201773643494 -0.7324467301368713 -0.14340358972549438
-0.6036413311958313 -0.7639647722244263 -0.18999367952346802
-0.5447362661361694 -0.793950080871582 -0.24021455645561218
-0.4772945046424866 -0.8222887516021729 -0.29442018270492554
-0.40014758706092834 -0.8488606214523315 -0.35304540395736694
-0.6850256323814392 0.6334301829338074 -0.3719463646411896
-0.7371748685836792 0.5941069722175598 -0.31651049852371216
-0.7822883725166321 0.5548475384712219 -0.26595011353492737
-0.821181058883667 0.5155049562454224 -0.21974685788154602
-0.8545444011688232 0.47597020864486694 -0.1774844080209732
-0.8829741477966309 0.43616950511932373 -0.13882997632026672
-0.9069916009902954 0.3960624635219574 -0.10351923853158951
-0.9270625114440918 0.3556428849697113 -0.07134474068880081
-0.9436099529266357 0.3149384558200836 -0.04214628040790558
-0.9570271372795105 0.27401167154312134 -0.015802748501300812
-0.9676862359046936 0.23296083509922028 0.007775038946419954
-0.9759467840194702 0.19192081689834595 0.02865070290863514
-0.9821606874465942 0.15106356143951416 0.04686841368675232
-0.9866776466369629 0.11059775203466415 0.06245860457420349
-0.9897879362106323 0.07072325795888901 0.0754391998052597
-0.9915456771850586 0.03148152679204941 0.08581111580133438
-0.991950273513794 -0.007137831766158342 0.09358152002096176
-0.9910060167312622 -0.04515613988041878 0.09876822680234909
-0.9887208342552185 -0.08260494470596313 0.10139814019203186
-0.9851060509681702 -0.11952567100524902 0.10150547325611115
-0.9801750779151917 -0.15596862137317657 0.09913024306297302
-0.9739428758621216 -0.19199307262897491 0.0943165272474289
-0.9664250612258911 -0.22766603529453278 0.0871109738945961
-0.9576370120048523 -0.2630622088909149 0.07756125926971436
-0.9475932717323303 -0.2982631027698517 0.0657147467136383
-0.9363069534301758 -0.3333572745323181 0.051617056131362915
-0.923788845539093 -0.36843955516815186 0.035310860723257065
-0.9099649786949158 -0.4035745859146118 0.016843009740114212
-0.8944293260574341 -0.4386942982673645 -0.0037155982572585344
-0.8766870498657227 -0.47371989488601685 -0.02630382962524891
-0.8562309741973877 -0.5085994005203247 -0.05088265985250473
-0.8325345516204834 -0.5433067679405212 -0.07743852585554123
-0.8050427436828613 -0.5778413414955139 -0.10598655790090561
-0.7731608152389526 -0.6122270822525024 -0.13657432794570923
-0.7362397313117981 -0.6465126872062683 -0.16928598284721375
-0.6935593485832214 -0.680772066116333 -0.20424745976924896
-0.6443066000938416 -0.7151055335998535 -0.24163299798965454
-0.587548017501831 -0.7496421337127686 -0.28167322278022766
-0.5221953988075256 -0.7845431566238403 -0.3246663212776184
-0.4469614326953888 -0.8200072646141052 -0.37099215388298035
-0.7229419350624084 0.5827121734619141 -0.38996997475624084
-0.768994152545929 0.5361952781677246 -0.3521721661090851
-0.8089123368263245 0.4919666349887848 -0.3171197474002838
-0.8434011936187744 0.44960346817970276 -0.28452056646347046
-0.8730559945106506 0.4087563753128052 -0.2541499733924866
-0.8983875513076782 0.3691371977329254 -0.22583995759487152
-0.9198421835899353 0.33051082491874695 -0.1994704008102417
-0.9378183484077454 0.292689710855484 -0.17496240139007568
-0.9526800513267517 0.25553008913993835 -0.15227292478084564
-0.9647666811943054 0.21892918646335602 -0.1313895583152771
-0.9744038581848145 0.18282407522201538 -0.11232627928256989
-0.9819090366363525 0.14719049632549286 -0.09511875361204147
-0.9875977635383606 0.11204233020544052 -0.07981959730386734
-0.991788387298584 0.07743066549301147 -0.06649331003427505
-0.9947446584701538 0.04342382028698921 -0.05520600825548172
-0.9965060949325562 0.010034102015197277 -0.04600168392062187
-0.9970611929893494 -0.022754954174160957 -0.038905128836631775
-0.996406078338623 -0.05497341975569725 -0.03392646089196205
-0.9945434927940369 -0.0866641029715538 -0.031062765046954155
-0.9914809465408325 -0.11788170039653778 -0.030299851670861244
-0.9872309565544128 -0.14869160950183868 -0.031614162027835846
-0.981808602809906 -0.17916937172412872 -0.03497469797730446
-0.9752315878868103 -0.20939931273460388 -0.04034490883350372
-0.9675183296203613 -0.23947390913963318 -0.04768455773591995
-0.958687961101532 -0.2694927453994751 -0.05695141479372978
-0.9487585425376892 -0.2995621860027313 -0.06810300052165985
-0.9377464652061462 -0.32979482412338257 -0.08109807223081589
-0.9255825877189636 -0.36028996109962463 -0.09587986767292023
-0.9118610620498657 -0.3910852372646332 -0.1123279258608818
-0.8960898518562317 -0.4222280979156494 -0.13032348453998566
-0.8777687549591064 -0.4537971615791321 -0.1497717648744583
-0.8563807010650635 -0.48590245842933655 -0.17060457170009613
-0.8313819169998169 -0.5186870694160461 -0.19278278946876526
-0.8021876811981201 -0.5523291826248169 -0.2162986546754837
-0.7681562900543213 -0.5870459675788879 -0.24117876589298248
-0.7285677194595337 -0.6230989694595337 -0.26748743653297424
-0.6825982332229614 -0.660801887512207 -0.29533159732818604
-0.6292860507965088 -0.700531542301178 -0.32486698031425476
-0.5674895644187927 -0.7427425384521484 -0.35630735754966736
-0.495829701423645 -0.7879875898361206 -0.38993626832962036
-0.7593923807144165 0.528640866279602 -0.40869811177253723
-0.7974321842193604 0.4743996858596802 -0.39022397994995117
-0.8304460048675537 0.42471936345100403 -0.3722713887691498
-0.859004557132721 0.37892815470695496 -0.35477757453918457
-0.8835881352424622 0.33645957708358765 -0.33770760893821716
-0.9046085476875305 0.2968313694000244 -0.3210523724555969
-0.9224262237548828 0.25962966680526733 -0.304827481508255
-0.9373636841773987 0.2244969606399536 -0.2890723645687103
-0.9497181177139282 0.19112344086170197 -0.27384984493255615
-0.9597704410552979 0.15924033522605896 -0.25924545526504517
-0.9677929878234863 0.1286153346300125 -0.2453662008047104
-0.9740567207336426 0.09904944896697998 -0.23233884572982788
-0.9788357615470886 0.07037518918514252 -0.2203073799610138
-0.9824103116989136 0.04245537519454956 -0.20942896604537964
-0.9850137829780579 0.015193898230791092 -0.19985561072826385
-0.986668050289154 -0.011445991694927216 -0.1916828602552414
-0.9873492121696472 -0.037502892315387726 -0.1849779337644577
-0.9870426058769226 -0.063031405210495 -0.17979204654693604
-0.9857414960861206 -0.08810058236122131 -0.17616136372089386
-0.9834461212158203 -0.11279251426458359 -0.17410841584205627
-0.9801626801490784 -0.13720032572746277 -0.17364375293254852
-0.9759015440940857 -0.1614270657300949 -0.17476773262023926
-0.9706769585609436 -0.18558380007743835 -0.17747244238853455
-0.9645048379898071 -0.20978857576847076 -0.1817437708377838
-0.9574021100997925 -0.23416495323181152 -0.18756312131881714
-0.9493857622146606 -0.2588415741920471 -0.19490952789783478
-0.9404715299606323 -0.2839512228965759 -0.20376110076904297
-0.9305896162986755 -0.30963069200515747 -0.21406757831573486
-0.919334352016449 -0.33602824807167053 -0.22566960752010345
-0.9062196016311646 -0.36331892013549805 -0.2383991926908493
-0.8907569646835327 -0.3917080760002136 -0.2521127164363861
-0.8724457025527954 -0.4214343726634979 -0.2666923999786377
-0.8507611751556396 -0.452774316072464 -0.2820473611354828
-0.8251398801803589 -0.4860491454601288 -0.29811403155326843
-0.7949598431587219 -0.5216338634490967 -0.31485700607299805
-0.7595177888870239 -0.5599696040153503 -0.33226996660232544
-0.7179988622665405 -0.6015807390213013 -0.3503773510456085
-0.6694388389587402 -0.6470969915390015 -0.3692372441291809
-0.6126731038093567 -0.6972847580909729 -0.38894587755203247
-0.5462692379951477 -0.753089427947998 -0.4096445143222809
