ply
format ascii 1.0
element vertex 512
property float x
property float y
property float z
end_header
-0.612804651260376 -1.42555832862854 0.049872756004333496
-0.4869489371776581 -1.3657418489456177 0.0426393561065197
-0.3610932528972626 -1.3059252500534058 0.0354059562087059
-0.23523755371570587 -1.2461086511611938 0.028172554448246956
-0.10938186198472977 -1.1862921714782715 0.02093915455043316
0.016473829746246338 -1.1264755725860596 0.013705753721296787
0.14232952892780304 -1.0666590929031372 0.006472353357821703
0.26818522810935974 -1.0068424940109253 -0.0007610472966916859
0.39404091238975525 -0.9470259547233582 -0.007994447834789753
0.5198966264724731 -0.8872093558311462 -0.015227848663926125
0.6457523107528687 -0.8273928165435791 -0.02246124856173992
0.7716079950332642 -0.767576277256012 -0.02969464845955372
0.8974636793136597 -0.7077596783638 -0.036928050220012665
1.0233193635940552 -0.6479431390762329 -0.04416145011782646
1.1491750478744507 -0.5881265997886658 -0.05139485001564026
1.2750307321548462 -0.5283100605010986 -0.058628249913454056
-0.6304634213447571 -1.4119751453399658 -0.14504975080490112
-0.5046076774597168 -1.352158546447754 -0.15228314697742462
-0.3787520229816437 -1.2923420667648315 -0.15951654314994812
-0.2528963088989258 -1.2325254678726196 -0.1667499542236328
-0.12704062461853027 -1.1727088689804077 -0.1739833503961563
-0.0011849356815218925 -1.1128923892974854 -0.1812167465686798
0.12467075884342194 -1.0530757904052734 -0.1884501427412033
0.25052645802497864 -0.9932592511177063 -0.195683553814888
0.37638214230537415 -0.9334426522254944 -0.2029169499874115
0.502237856388092 -0.8736261129379272 -0.210150346159935
0.6280935406684875 -0.8138095736503601 -0.2173837572336197
0.7539492249488831 -0.7539929747581482 -0.2246171534061432
0.8798049092292786 -0.694176435470581 -0.2318505495786667
1.0056606531143188 -0.6343598961830139 -0.23908394575119019
1.1315163373947144 -0.5745433568954468 -0.24631735682487488
1.2573720216751099 -0.5147267580032349 -0.25355076789855957
-0.6644394993782043 -1.363094687461853 -0.33199208974838257
-0.5385838150978088 -1.3032780885696411 -0.33922550082206726
-0.41272813081741333 -1.2434616088867188 -0.34645891189575195
-0.2868724465370178 -1.1836450099945068 -0.35369229316711426
-0.16101676225662231 -1.123828411102295 -0.36092570424079895
-0.03516106307506561 -1.0640119314193726 -0.36815911531448364
0.09069462865591049 -1.0041953325271606 -0.37539249658584595
0.2165503203868866 -0.9443787932395935 -0.38262590765953064
0.3424060046672821 -0.8845621943473816 -0.38985928893089294
0.46826171875 -0.8247456550598145 -0.39709270000457764
0.5941174030303955 -0.7649291157722473 -0.40432611107826233
0.719973087310791 -0.7051125764846802 -0.41155949234962463
0.8458287715911865 -0.6452959775924683 -0.4187929034233093
0.971684455871582 -0.5854794383049011 -0.426026314496994
1.0975401401519775 -0.525662899017334 -0.4332596957683563
1.223395824432373 -0.46584632992744446 -0.440493106842041
-0.713342010974884 -1.2809182405471802 -0.5033008456230164
-0.5874863266944885 -1.2211016416549683 -0.5105342864990234
-0.461630642414093 -1.1612850427627563 -0.5177676677703857
-0.3357749581336975 -1.101468563079834 -0.525001049041748
-0.2099192589521408 -1.041651964187622 -0.5322344899177551
-0.0840635672211647 -0.9818354249000549 -0.5394678711891174
0.0417921245098114 -0.9220188856124878 -0.5467012524604797
0.1676478236913681 -0.8622022867202759 -0.553934633731842
0.2935035228729248 -0.8023857474327087 -0.5611680746078491
0.4193592071533203 -0.7425692081451416 -0.5684014558792114
0.5452148914337158 -0.6827526092529297 -0.5756348371505737
0.6710705757141113 -0.6229360699653625 -0.5828682780265808
0.7969262599945068 -0.5631195306777954 -0.5901016592979431
0.9227820038795471 -0.5033029913902283 -0.5973350405693054
1.0486376285552979 -0.44348642230033875 -0.6045684814453125
1.1744933128356934 -0.3836698532104492 -0.6118018627166748
-0.7751688361167908 -1.1688100099563599 -0.6519626379013062
-0.6493131518363953 -1.108993411064148 -0.6591960191726685
-0.5234574675559998 -1.0491769313812256 -0.6664294004440308
-0.39760175347328186 -0.9893603324890137 -0.6736628413200378
-0.27174606919288635 -0.9295437932014465 -0.6808962225914001
-0.14589037001132965 -0.8697272539138794 -0.6881296038627625
-0.020034680142998695 -0.8099106550216675 -0.6953630447387695
0.10582101345062256 -0.7500941157341003 -0.7025964260101318
0.23167671263217926 -0.6902775764465332 -0.7098298072814941
0.35753241181373596 -0.6304610371589661 -0.7170632481575012
0.48338809609413147 -0.5706444382667542 -0.7242966294288635
0.6092438101768494 -0.510827898979187 -0.7315300107002258
0.7350994944572449 -0.4510113298892975 -0.7387634515762329
0.8609551787376404 -0.39119479060173035 -0.7459968328475952
0.9868108630180359 -0.3313782215118408 -0.7532302141189575
1.1126666069030762 -0.2715616822242737 -0.7604636549949646
-0.847388744354248 -1.0313599109649658 -0.771891176700592
-0.7215330600738525 -0.9715433120727539 -0.7791245579719543
-0.595677375793457 -0.911726713180542 -0.7863579988479614
-0.46982166171073914 -0.8519101738929749 -0.7935913801193237
-0.34396597743034363 -0.7920936346054077 -0.800824761390686
-0.21811027824878693 -0.7322770953178406 -0.8080581426620483
-0.09225458651781082 -0.6724604964256287 -0.8152915835380554
0.03360110521316528 -0.6126439571380615 -0.8225249648094177
0.15945680439472198 -0.5528274178504944 -0.82975834608078
0.2853125035762787 -0.49301084876060486 -0.8369917869567871
0.4111681878566742 -0.43319427967071533 -0.8442251682281494
0.5370239019393921 -0.3733777403831482 -0.8514585494995117
0.6628795862197876 -0.31356117129325867 -0.8586919903755188
0.7887352705001831 -0.25374463200569153 -0.8659253716468811
0.9145909547805786 -0.193928062915802 -0.8731587529182434
1.0404466390609741 -0.13411150872707367 -0.8803921937942505
-0.9270450472831726 -0.8741949200630188 -0.858176589012146
-0.8011893630027771 -0.8143783807754517 -0.8654100298881531
-0.6753336787223816 -0.7545618414878845 -0.8726434111595154
-0.5494779944419861 -0.6947452425956726 -0.8798767924308777
-0.4236223101615906 -0.6349287033081055 -0.8871102333068848
-0.2977665960788727 -0.5751121640205383 -0.8943436145782471
-0.17191091179847717 -0.5152955651283264 -0.9015769958496094
-0.04605521634221077 -0.4554790258407593 -0.9088103771209717
0.07980047166347504 -0.39566248655319214 -0.9160438179969788
0.20565617084503174 -0.3358459174633026 -0.9232771992683411
0.33151185512542725 -0.2760293781757355 -0.9305105805397034
0.45736753940582275 -0.21621280908584595 -0.9377440214157104
0.5832232236862183 -0.15639625489711761 -0.9449774026870728
0.7090789675712585 -0.09657970070838928 -0.9522107839584351
0.834934651851654 -0.03676313906908035 -0.9594442248344421
0.9607903361320496 0.02305341511964798 -0.9666776061058044
-1.0108766555786133 -0.7037495970726013 -0.9072864055633545
-0.8850209712982178 -0.6439330577850342 -0.9145197868347168
-0.7591652870178223 -0.5841164588928223 -0.9217531681060791
-0.6333096027374268 -0.5242999196052551 -0.9289866089820862
-0.5074539184570312 -0.464483380317688 -0.9362199902534485
-0.38159820437431335 -0.40466681122779846 -0.9434533715248108
-0.25574252009391785 -0.3448502719402313 -0.9506868124008179
-0.12988680601119995 -0.2850337028503418 -0.9579201936721802
-0.0040311203338205814 -0.22521714866161346 -0.9651535749435425
0.12182457000017166 -0.16540059447288513 -0.9723870158195496
0.24768026173114777 -0.1055840328335762 -0.9796203970909119
0.37353596091270447 -0.04576747864484787 -0.9868537783622742
0.4993916451931 0.014049079269170761 -0.9940872192382812
0.6252473592758179 0.07386563718318939 -1.0013206005096436
0.7511030435562134 0.13368219137191772 -1.0085539817810059
0.8769587278366089 0.19349874556064606 -1.0157873630523682
-1.0954514741897583 -0.5270019173622131 -0.9172099828720093
-0.9695957899093628 -0.4671853482723236 -0.9244433641433716
-0.8437400460243225 -0.40736880898475647 -0.9316767454147339
-0.717884361743927 -0.34755223989486694 -0.938910186290741
-0.5920286774635315 -0.2877356708049774 -0.9461435675621033
-0.466172993183136 -0.22791913151741028 -0.9533769488334656
-0.3403173089027405 -0.16810256242752075 -0.9606103897094727
-0.21446160972118378 -0.10828601568937302 -0.967843770980835
-0.08860591799020767 -0.048469457775354385 -0.9750771522521973
0.03724977746605873 0.011347099207341671 -0.9823105931282043
0.16310547292232513 0.07116365432739258 -0.9895439743995667
0.28896117210388184 0.1309802085161209 -0.996777355670929
0.41481685638427734 0.19079676270484924 -1.004010796546936
0.5406725406646729 0.25061333179473877 -1.0112441778182983
0.6665282249450684 0.3104298710823059 -1.0184775590896606
0.7923839092254639 0.37024644017219543 -1.025710940361023
-1.177306890487671 -0.35118794441223145 -0.8875410556793213
-1.0514512062072754 -0.2913713753223419 -0.8947744369506836
-0.9255955815315247 -0.2315548211336136 -0.9020078778266907
-0.7997398972511292 -0.17173826694488525 -0.909241259098053
-0.6738841533660889 -0.11192170530557632 -0.9164746403694153
-0.5480284690856934 -0.05210515111684799 -0.9237080812454224
-0.42217278480529785 0.007711405400186777 -0.9309414625167847
-0.29631710052490234 0.06752796471118927 -0.938174843788147
-0.17046140134334564 0.1273445188999176 -0.945408284664154
-0.044605713337659836 0.18716107308864594 -0.9526416659355164
0.08124998211860657 0.24697762727737427 -0.9598750472068787
0.20710566639900208 0.3067941963672638 -0.9671084880828857
0.33296138048171997 0.36661073565483093 -0.974341869354248
0.4588170647621155 0.42642730474472046 -0.9815752506256104
0.584672749042511 0.4862438440322876 -0.9888086915016174
0.7105284333229065 0.5460603833198547 -0.9960420727729797
-1.2530919313430786 -0.18350552022457123 -0.8194943070411682
-1.127236247062683 -0.1236889585852623 -0.8267277479171753
-1.0013805627822876 -0.06387240439653397 -0.8339611291885376
-0.8755248785018921 -0.004055847879499197 -0.8411945104598999
-0.7496691942214966 0.055760707706213 -0.848427951335907
-0.6238135099411011 0.11557726562023163 -0.8556613326072693
-0.4979577958583832 0.17539381980895996 -0.8628947138786316
-0.37210211157798767 0.2352103739976883 -0.8701281547546387
-0.24624641239643097 0.2950269281864166 -0.877361536026001
-0.12039072811603546 0.35484349727630615 -0.8845949172973633
0.005464967805892229 0.4146600365638733 -0.8918283581733704
0.13132065534591675 0.4744766056537628 -0.8990617394447327
0.25717633962631226 0.5342931747436523 -0.906295120716095
0.38303205370903015 0.5941097140312195 -0.913528561592102
0.508887767791748 0.6539262533187866 -0.9207619428634644
0.6347434520721436 0.7137428522109985 -0.9279953241348267
-1.3197038173675537 -0.030819598585367203 -0.715855598449707
-1.1938481330871582 0.02899695746600628 -0.7230889797210693
-1.0679924488067627 0.08881351351737976 -0.7303224205970764
-0.9421367645263672 0.1486300677061081 -0.7375558018684387
-0.8162810802459717 0.20844662189483643 -0.744789183139801
-0.6904253959655762 0.26826319098472595 -0.7520226240158081
-0.5645697116851807 0.3280797302722931 -0.7592560052871704
-0.43871399760246277 0.3878962993621826 -0.7664893865585327
-0.31285831332206726 0.44771283864974976 -0.7737228274345398
-0.18700261414051056 0.5075294375419617 -0.7809562087059021
-0.061146922409534454 0.5673459768295288 -0.7881895899772644
0.06470876932144165 0.627162516117096 -0.7954230308532715
0.19056446850299835 0.6869790554046631 -0.8026564121246338
0.31642016768455505 0.746795654296875 -0.8098897933959961
0.44227585196495056 0.8066121935844421 -0.8171232342720032
0.5681315660476685 0.8664287328720093 -0.8243566155433655
-1.3744155168533325 0.10061884671449661 -0.5808678865432739
-1.248559832572937 0.16043539345264435 -0.5881012678146362
-1.1227041482925415 0.22025196254253387 -0.5953346490859985
-0.996848464012146 0.2800685167312622 -0.6025680899620056
-0.8709927201271057 0.33988505601882935 -0.6098014712333679
-0.7451370358467102 0.39970162510871887 -0.6170348525047302
-0.6192813515663147 0.4595181941986084 -0.6242682933807373
-0.4934256672859192 0.5193347334861755 -0.6315016746520996
-0.3675699830055237 0.5791512727737427 -0.6387350559234619
-0.24171428382396698 0.6389678716659546 -0.645968496799469
-0.11585858464241028 0.6987844109535217 -0.6532018780708313
0.009997106157243252 0.7586009502410889 -0.6604352593421936
0.13585279881954193 0.818417489528656 -0.6676687002182007
0.26170849800109863 0.8782340884208679 -0.674902081489563
0.38756418228149414 0.9380506277084351 -0.6821354627609253
0.5134198665618896 0.9978671669960022 -0.6893689036369324
-1.4149870872497559 0.20542870461940765 -0.4200575351715088
-1.2891314029693604 0.265245258808136 -0.4272909462451935
-1.1632757186889648 0.3250618278980255 -0.4345243275165558
-1.0374200344085693 0.38487836718559265 -0.4417577385902405
-0.911564290523529 0.4446949362754822 -0.44899114966392517
-0.7857086062431335 0.5045114755630493 -0.4562245309352875
-0.659852921962738 0.5643280148506165 -0.46345794200897217
-0.5339971780776978 0.6241446137428284 -0.47069135308265686
-0.40814152359962463 0.6839611530303955 -0.47792473435401917
-0.28228580951690674 0.7437776923179626 -0.48515814542770386
-0.15643012523651123 0.8035942912101746 -0.49239155650138855
-0.030574435368180275 0.8634108304977417 -0.49962493777275085
0.09528125822544098 0.9232273697853088 -0.5068583488464355
0.22113695740699768 0.983043909072876 -0.5140917301177979
0.3469926416873932 1.042860507965088 -0.5213251709938049
0.4728483259677887 1.1026771068572998 -0.5285585522651672
-1.4397574663162231 0.27931904792785645 -0.24000820517539978
-1.3139017820358276 0.33913561701774597 -0.24724160134792328
-1.1880460977554321 0.3989521563053131 -0.2544749975204468
-1.0621904134750366 0.45876872539520264 -0.26170840859413147
-0.9363346695899963 0.5185852646827698 -0.26894181966781616
-0.8104789853096008 0.5784018635749817 -0.27617520093917847
-0.6846233010292053 0.6382184028625488 -0.28340861201286316
-0.5587676167488098 0.698034942150116 -0.29064202308654785
-0.4329119324684143 0.7578514814376831 -0.29787540435791016
-0.3070562183856964 0.817668080329895 -0.30510881543159485
-0.1812005341053009 0.8774846196174622 -0.31234222650527954
-0.0553448460996151 0.9373011589050293 -0.31957560777664185
0.07051084190607071 0.9971177577972412 -0.32680901885032654
0.19636653363704681 1.0569342374801636 -0.33404240012168884
0.3222222328186035 1.1167508363723755 -0.34127581119537354
0.448077917098999 1.1765674352645874 -0.3485092222690582
-1.4477126598358154 0.31926482915878296 -0.04809111729264259
-1.32185697555542 0.3790813684463501 -0.05532451719045639
-1.1960012912750244 0.4388979375362396 -0.06255791336297989
-1.070145606994629 0.49871447682380676 -0.06979131698608398
-0.9442898631095886 0.5585310459136963 -0.07702472060918808
-0.8184341788291931 0.6183475852012634 -0.08425811678171158
-0.6925784945487976 0.6781641244888306 -0.09149152040481567
-0.5667228102684021 0.7379807233810425 -0.09872491657733917
-0.4408670961856842 0.7977972626686096 -0.10595832020044327
-0.3150114119052887 0.8576138019561768 -0.11319172382354736
-0.189155712723732 0.9174304008483887 -0.12042511999607086
-0.06330002844333649 0.9772469401359558 -0.12765851616859436
0.06255566328763962 1.037063479423523 -0.13489192724227905
0.18841135501861572 1.0968800783157349 -0.14212532341480255
0.31426703929901123 1.1566965579986572 -0.14935871958732605
0.4401227533817291 1.2165131568908691 -0.15659211575984955
-1.4385268688201904 0.32363060116767883 0.1478366255760193
-1.312671184539795 0.38344717025756836 0.1406032294034958
-1.1868155002593994 0.4432637095451355 0.1333698332309723
-1.060959815979004 0.5030802488327026 0.1261364221572876
-0.9351041316986084 0.5628968477249146 0.1189030259847641
-0.8092484474182129 0.6227133870124817 0.11166962236166
-0.6833927631378174 0.6825299263000488 0.1044362261891365
-0.5575370788574219 0.7423465251922607 0.09720282256603241
-0.431681364774704 0.8021630644798279 0.08996942639350891
-0.30582568049430847 0.861979603767395 0.08273602277040482
-0.17996998131275177 0.9217961430549622 0.07550262659788132
-0.054114289581775665 0.9816127419471741 0.06826922297477722
0.07174140214920044 1.0414292812347412 0.061035823076963425
0.19759710133075714 1.1012458801269531 0.05380242317914963
0.32345280051231384 1.1610623598098755 0.04656902328133583
0.44930848479270935 1.2208789587020874 0.039335619658231735
-1.4125763177871704 0.29223766922950745 0.3397537171840668
-1.286720633506775 0.352054238319397 0.3325203061103821
-1.1608649492263794 0.4118708074092865 0.3252869248390198
-1.0350092649459839 0.47168734669685364 0.3180535137653351
-0.9091535210609436 0.5315039157867432 0.3108201324939728
-0.7832978367805481 0.5913204550743103 0.3035867214202881
-0.6574421525001526 0.6511369943618774 0.2963533103466034
-0.5315864682197571 0.7109535932540894 0.2891199290752411
-0.4057307839393616 0.7707701325416565 0.2818865180015564
-0.2798750698566437 0.8305866718292236 0.2746531069278717
-0.15401938557624817 0.8904032707214355 0.2674197256565094
-0.028163697570562363 0.9502198100090027 0.2601863145828247
0.09769199788570404 1.0100363492965698 0.25295290350914
0.22354768216609955 1.0698529481887817 0.24571950733661652
0.34940338134765625 1.129669427871704 0.23848611116409302
0.47525906562805176 1.189486026763916 0.23125271499156952
-1.3709232807159424 0.22637127339839935 0.5198030471801758
-1.2450675964355469 0.2861878275871277 0.5125696659088135
-1.1192119121551514 0.3460043966770172 0.5053362250328064
-0.9933562278747559 0.40582093596458435 0.4981028437614441
-0.8675005435943604 0.4656375050544739 0.4908694624900818
-0.7416448593139648 0.525454044342041 0.4836360514163971
-0.6157891154289246 0.5852706432342529 0.4764026403427124
-0.48993343114852905 0.6450871825218201 0.4691692590713501
-0.36407774686813354 0.7049037218093872 0.4619358479976654
-0.23822206258773804 0.7647202610969543 0.4547024369239807
-0.11236636340618134 0.8245368599891663 0.4474690556526184
0.01348932646214962 0.8843533992767334 0.4402356445789337
0.13934502005577087 0.9441699385643005 0.433002233505249
0.2652007043361664 1.0039864778518677 0.4257688522338867
0.3910564184188843 1.0638030767440796 0.418535441160202
0.5169121026992798 1.1236196756362915 0.41130203008651733
-1.3152731657028198 0.1287279725074768 0.6806133985519409
-1.1894174814224243 0.18854454159736633 0.6733799576759338
-1.0635616779327393 0.24836109578609467 0.6661465764045715
-0.9377060532569885 0.308177649974823 0.6589131951332092
-0.811850368976593 0.36799418926239014 0.6516797542572021
-0.6859946250915527 0.42781075835227966 0.6444463729858398
-0.5601389408111572 0.4876273274421692 0.6372129917144775
-0.4342832565307617 0.5474438667297363 0.6299795508384705
-0.3084275722503662 0.6072604060173035 0.6227461695671082
-0.1825718879699707 0.6670770049095154 0.6155127882957458
-0.056716188788414 0.7268935441970825 0.6082793474197388
0.0691395029425621 0.7867100834846497 0.6010459661483765
0.1949951946735382 0.8465266823768616 0.5938125848770142
0.3208508789539337 0.9063432216644287 0.5865792036056519
0.4467065930366516 0.9661597609519958 0.5793457627296448
0.5725622773170471 1.025976300239563 0.5721123814582825
-1.2479040622711182 0.00330530246719718 0.815601110458374
-1.1220483779907227 0.06312185525894165 0.8083677291870117
-0.9961927533149719 0.12293841689825058 0.8011342883110046
-0.8703370094299316 0.1827549785375595 0.7939009070396423
-0.7444813251495361 0.24257153272628784 0.78666752576828
-0.6186256408691406 0.302388072013855 0.779434084892273
-0.4927699565887451 0.3622046411037445 0.7722007036209106
-0.3669142723083496 0.42202121019363403 0.7649673223495483
-0.2410585731267929 0.48183774948120117 0.7577338814735413
-0.1152028739452362 0.5416542887687683 0.750500500202179
0.01065281592309475 0.6014708876609802 0.7432671189308167
0.136508509516716 0.6612874269485474 0.7360337376594543
0.2623642086982727 0.7211039662361145 0.7288002967834473
0.3882198929786682 0.7809205055236816 0.721566915512085
0.5140755772590637 0.8407371044158936 0.7143335342407227
0.6399312615394592 0.9005536437034607 0.7071000933647156
-1.171574354171753 -0.14476191997528076 0.9192398190498352
-1.0457186698913574 -0.08494537323713303 0.9120064377784729
-0.9198629856109619 -0.025128813460469246 0.9047730565071106
-0.7940073013305664 0.034687742590904236 0.8975396156311035
-0.6681516170501709 0.09450429677963257 0.8903062343597412
-0.5422959327697754 0.1543208509683609 0.8830728530883789
-0.4164402186870575 0.21413740515708923 0.8758394122123718
-0.290584534406662 0.27395397424697876 0.8686060309410095
-0.16472883522510529 0.3337705135345459 0.8613726496696472
-0.03887313976883888 0.3935870826244354 0.8541392087936401
0.08698255568742752 0.45340362191200256 0.8469058275222778
0.21283824741840363 0.5132201910018921 0.8396724462509155
0.3386939465999603 0.5730367302894592 0.8324390053749084
0.46454963088035583 0.6328533291816711 0.8252056241035461
0.5904053449630737 0.6926698684692383 0.8179722428321838
0.7162610292434692 0.7524864077568054 0.8107388615608215
-1.0894088745117188 -0.30941182374954224 0.9872865676879883
-0.9635531306266785 -0.2495952695608139 0.980053186416626
-0.837697446346283 -0.18977870047092438 0.9728197455406189
-0.7118417620658875 -0.12996214628219604 0.9655863642692566
-0.5859860777854919 -0.07014559209346771 0.9583529829978943
-0.46013039350509644 -0.010329038836061954 0.9511195421218872
-0.33427467942237854 0.04948751628398895 0.9438861608505249
-0.20841899514198303 0.10930407047271729 0.9366527795791626
-0.08256331086158752 0.16912062466144562 0.9294193983078003
0.04329238459467888 0.22893717885017395 0.9221859574317932
0.16914807260036469 0.2887537479400635 0.9149525761604309
0.2950037717819214 0.3485702872276306 0.9077191948890686
0.4208594560623169 0.40838685631752014 0.9004857540130615
0.5467151403427124 0.46820342540740967 0.8932523727416992
0.6725708246231079 0.5280199646949768 0.8860189914703369
0.7984265685081482 0.587836503982544 0.8787855505943298
-1.00477135181427 -0.48390358686447144 1.0169554948806763
-0.8789157271385193 -0.4240870475769043 1.009722113609314
-0.7530600428581238 -0.36427047848701477 1.0024887323379517
-0.6272043585777283 -0.30445390939712524 0.9952552914619446
-0.501348614692688 -0.2446373701095581 0.9880218505859375
-0.3754929304122925 -0.18482081592082977 0.9807884693145752
-0.24963724613189697 -0.12500426173210144 0.9735550880432129
-0.12378155440092087 -0.06518770009279251 0.9663216471672058
0.0020741350017488003 -0.005371141713112593 0.9590882658958435
0.12792982161045074 0.05444541573524475 0.9518548846244812
0.25378552079200745 0.11426196992397308 0.9446214437484741
0.37964120507240295 0.17407852411270142 0.9373880624771118
0.5054969191551208 0.23389507830142975 0.9301546812057495
0.6313526034355164 0.2937116324901581 0.9229212999343872
0.7572082877159119 0.3535282015800476 0.9156878590583801
0.8830639719963074 0.41334474086761475 0.9084544777870178
-0.9211271405220032 -0.661093533039093 1.0070319175720215
-0.7952713966369629 -0.6012769937515259 0.9997984766960144
-0.6694157123565674 -0.541460394859314 0.9925650954246521
-0.5435600280761719 -0.4816438555717468 0.9853317141532898
-0.41770434379577637 -0.4218273162841797 0.9780982732772827
-0.29184865951538086 -0.36201074719429016 0.9708648920059204
-0.16599296033382416 -0.30219417810440063 0.9636315107345581
-0.040137264877557755 -0.2423776388168335 0.956398069858551
0.08571843057870865 -0.18256108462810516 0.9491646885871887
0.21157412230968475 -0.12274452298879623 0.9419313073158264
0.33742982149124146 -0.0629279688000679 0.9346978664398193
0.46328550577163696 -0.003111409256234765 0.927464485168457
0.5891411900520325 0.05670514702796936 0.9202311038970947
0.714996874332428 0.11652170121669769 0.9129977226257324
0.8408525586128235 0.17633825540542603 0.9057642817497253
0.9667083024978638 0.23615480959415436 0.898530900478363
-0.8419003486633301 -0.8337274789810181 0.957922101020813
-0.7160446643829346 -0.7739108800888062 0.9506887197494507
-0.5901889801025391 -0.714094340801239 0.9434553384780884
-0.46433329582214355 -0.6542778015136719 0.9362218976020813
-0.33847761154174805 -0.59446120262146 0.928988516330719
-0.21262191236019135 -0.5346446633338928 0.9217551350593567
-0.08676622062921524 -0.4748281240463257 0.9145216941833496
0.03908947482705116 -0.41501155495643616 0.9072883129119873
0.16494517028331757 -0.355195015668869 0.900054931640625
0.29080086946487427 -0.2953784465789795 0.8928214907646179
0.4166565537452698 -0.23556189239025116 0.8855881094932556
0.5425122380256653 -0.17574533820152283 0.8783547282218933
0.6683679223060608 -0.1159287765622139 0.8711212873458862
0.7942236065864563 -0.056112222373485565 0.8638879060745239
0.9200793504714966 0.003704335540533066 0.8566545248031616
1.045935034751892 0.0635208934545517 0.8494210839271545
-0.7703347206115723 -0.9947376847267151 0.871636688709259
-0.6444790363311768 -0.934921145439148 0.8644033074378967
-0.5186233520507812 -0.8751046061515808 0.8571698665618896
-0.39276766777038574 -0.8152880668640137 0.8499364852905273
-0.26691198348999023 -0.7554714679718018 0.842703104019165
-0.14105628430843353 -0.6956549286842346 0.835469663143158
-0.01520058698952198 -0.6358383893966675 0.8282362818717957
0.11065510660409927 -0.5760217905044556 0.8210029006004333
0.23651079833507538 -0.5162052512168884 0.8137694597244263
0.3623664975166321 -0.4563887119293213 0.806536078453064
0.4882221817970276 -0.39657214283943176 0.7993026971817017
0.6140778660774231 -0.3367556035518646 0.7920692563056946
0.7399335503578186 -0.2769390344619751 0.7848358750343323
0.8657892346382141 -0.21712248027324677 0.77760249376297
0.9916449785232544 -0.15730592608451843 0.7703690528869629
1.11750066280365 -0.0974893644452095 0.7631356716156006
-0.7093601226806641 -1.1375324726104736 0.7517081499099731
-0.5835044384002686 -1.0777159929275513 0.7444747090339661
-0.45764875411987305 -1.0178993940353394 0.7372413277626038
-0.33179304003715515 -0.9580828547477722 0.7300079464912415
-0.20593735575675964 -0.8982663154602051 0.7227745652198792
-0.08008166402578354 -0.8384497165679932 0.7155411243438721
0.045774031430482864 -0.778633177280426 0.7083077430725098
0.17162972688674927 -0.7188166379928589 0.7010743618011475
0.2974854111671448 -0.6590000987052917 0.6938409209251404
0.4233410954475403 -0.5991834998130798 0.6866075396537781
0.5491967797279358 -0.5393669605255127 0.6793741583824158
0.6750525236129761 -0.47955039143562317 0.6721407175064087
0.8009082078933716 -0.41973385214805603 0.6649073362350464
0.9267638921737671 -0.3599172830581665 0.6576739549636841
1.0526195764541626 -0.30010074377059937 0.650440514087677
1.178475260734558 -0.24028417468070984 0.6432071328163147
-0.6614728569984436 -1.2562658786773682 0.6030463576316833
-0.5356171131134033 -1.1964492797851562 0.595812976360321
-0.4097614288330078 -1.1366328001022339 0.5885795950889587
-0.2839057445526123 -1.076816201210022 0.5813461542129517
-0.1580500602722168 -1.01699960231781 0.5741127729415894
-0.032194364815950394 -0.9571830630302429 0.566879391670227
0.09366133064031601 -0.8973665237426758 0.55964595079422
0.21951702237129211 -0.8375499844551086 0.5524125695228577
0.3453727066516876 -0.7777333855628967 0.5451791882514954
0.4712284207344055 -0.7179168462753296 0.5379457473754883
0.597084105014801 -0.6581003069877625 0.530712366104126
0.7229397892951965 -0.5982837677001953 0.5234789848327637
0.848795473575592 -0.5384671688079834 0.5162455439567566
0.9746511578559875 -0.47865062952041626 0.5090121626853943
1.1005069017410278 -0.41883406043052673 0.501778781414032
1.2263625860214233 -0.3590175211429596 0.4945453703403473
-0.6286333799362183 -1.3460767269134521 0.43173760175704956
-0.5027776956558228 -1.2862602472305298 0.42450422048568726
-0.37692198157310486 -1.2264436483383179 0.41727080941200256
-0.25106629729270935 -1.166627049446106 0.41003739833831787
-0.12521059811115265 -1.1068105697631836 0.40280401706695557
0.0006451014778576791 -1.0469939708709717 0.3955706059932709
0.12650080025196075 -0.9871774315834045 0.3883371949195862
0.25235649943351746 -0.9273608326911926 0.3811038136482239
0.37821218371391296 -0.8675442934036255 0.3738704025745392
0.5040678977966309 -0.8077277541160583 0.3666369915008545
0.6299235820770264 -0.7479112148284912 0.3594036102294922
0.7557792663574219 -0.6880946159362793 0.3521701991558075
0.8816349506378174 -0.6282780766487122 0.3449368178844452
1.007490634918213 -0.568461537361145 0.3377034068107605
1.1333463191986084 -0.5086449384689331 0.3304699957370758
1.259202003479004 -0.44882839918136597 0.3232366144657135
-0.6121861934661865 -1.4032883644104004 0.24479526281356812
-0.48633047938346863 -1.3434717655181885 0.23756185173988342
-0.3604747951030731 -1.2836552858352661 0.23032845556735992
-0.23461909592151642 -1.2238386869430542 0.22309505939483643
-0.10876341164112091 -1.1640220880508423 0.21586166322231293
0.017092281952500343 -1.10420560836792 0.20862825214862823
0.1429479718208313 -1.044389009475708 0.20139485597610474
0.2688036561012268 -0.9845724701881409 0.19416145980358124
0.3946593701839447 -0.924755871295929 0.18692804872989655
0.5205150246620178 -0.8649393320083618 0.17969465255737305
0.6463707685470581 -0.8051227927207947 0.17246125638484955
0.7722264528274536 -0.7453062534332275 0.16522786021232605
0.8980821371078491 -0.6854896545410156 0.15799444913864136
1.0239378213882446 -0.6256731152534485 0.15076105296611786
1.1497935056686401 -0.5658565759658813 0.14352765679359436
1.2756491899490356 -0.5060399770736694 0.13629424571990967
-0.612804651260376 -1.42555832862854 0.049872756004333496
-0.4869489371776581 -1.3657418489456177 0.0426393561065197
-0.3610932528972626 -1.3059252500534058 0.0354059562087059
-0.23523755371570587 -1.2461086511611938 0.028172554448246956
-0.10938186198472977 -1.1862921714782715 0.02093915455043316
0.016473829746246338 -1.1264755725860596 0.013705753721296787
0.14232952892780304 -1.0666590929031372 0.006472353357821703
0.26818522810935974 -1.0068424940109253 -0.0007610472966916859
0.39404091238975525 -0.9470259547233582 -0.007994447834789753
0.5198966264724731 -0.8872093558311462 -0.015227848663926125
0.6457523107528687 -0.8273928165435791 -0.02246124856173992
0.7716079950332642 -0.767576277256012 -0.02969464845955372
0.8974636793136597 -0.7077596783638 -0.036928050220012665
1.0233193635940552 -0.6479431390762329 -0.04416145011782646
1.1491750478744507 -0.5881265997886658 -0.05139485001564026
1.2750307321548462 -0.5283100605010986 -0.058628249913454056
