ply
format ascii 1.0
element vertex 512
property float x
property float y
property float z
end_header
-0.021794795989990234 -1.0665347576141357 1.34432053565979
-0.02179480344057083 -1.0665347576141357 1.1644659042358398
-0.021794810891151428 -1.0665347576141357 0.9846112728118896
-0.021794820204377174 -1.0665347576141357 0.8047566413879395
-0.02179482765495777 -1.0665347576141357 0.6249020099639893
-0.021794835105538368 -1.0665347576141357 0.44504737854003906
-0.021794842556118965 -1.0665347576141357 0.26519274711608887
-0.02179485186934471 -1.0665347576141357 0.08533811569213867
-0.021794859319925308 -1.0665347576141357 -0.09451651573181152
-0.021794866770505905 -1.0665347576141357 -0.2743711471557617
-0.021794874221086502 -1.0665347576141357 -0.4542257785797119
-0.0217948816716671 -1.0665347576141357 -0.6340804100036621
-0.021794890984892845 -1.0665347576141357 -0.8139350414276123
-0.021794898435473442 -1.0665347576141357 -0.9937896728515625
-0.02179490588605404 -1.0665347576141357 -1.1736443042755127
-0.021794913336634636 -1.0665347576141357 -1.353498935699463
-0.22968809306621552 -1.0453940629959106 1.34432053565979
-0.2296881079673767 -1.0453940629959106 1.1644659042358398
-0.2296881228685379 -1.0453940629959106 0.9846112728118896
-0.2296881228685379 -1.0453940629959106 0.8047566413879395
-0.2296881377696991 -1.0453940629959106 0.6249020099639893
-0.2296881377696991 -1.0453940629959106 0.44504737854003906
-0.2296881526708603 -1.0453940629959106 0.26519274711608887
-0.2296881526708603 -1.0453940629959106 0.08533812314271927
-0.22968816757202148 -1.0453940629959106 -0.09451650828123093
-0.22968816757202148 -1.0453940629959106 -0.2743711471557617
-0.22968818247318268 -1.0453940629959106 -0.4542257785797119
-0.22968818247318268 -1.0453940629959106 -0.6340804100036621
-0.22968819737434387 -1.0453940629959106 -0.8139350414276123
-0.22968819737434387 -1.0453940629959106 -0.9937896728515625
-0.22968821227550507 -1.0453940629959106 -1.1736443042755127
-0.22968821227550507 -1.0453940629959106 -1.353498935699463
-0.42907023429870605 -0.9828375577926636 1.34432053565979
-0.42907023429870605 -0.9828375577926636 1.1644659042358398
-0.42907023429870605 -0.9828375577926636 0.9846112728118896
-0.42907026410102844 -0.9828375577926636 0.8047566413879395
-0.42907026410102844 -0.9828375577926636 0.6249020099639893
-0.42907026410102844 -0.9828375577926636 0.44504740834236145
-0.42907026410102844 -0.9828375577926636 0.26519277691841125
-0.42907029390335083 -0.9828375577926636 0.08533813059329987
-0.42907029390335083 -0.9828375577926636 -0.09451650083065033
-0.42907029390335083 -0.9828375577926636 -0.27437111735343933
-0.42907029390335083 -0.9828375577926636 -0.4542257487773895
-0.4290703237056732 -0.9828375577926636 -0.6340804100036621
-0.4290703237056732 -0.9828375577926636 -0.8139350414276123
-0.4290703237056732 -0.9828375577926636 -0.9937896728515625
-0.4290703237056732 -0.9828375577926636 -1.1736443042755127
-0.4290703535079956 -0.9828375577926636 -1.353498935699463
-0.6117784380912781 -0.881426215171814 1.34432053565979
-0.6117784380912781 -0.881426215171814 1.1644659042358398
-0.6117784976959229 -0.881426215171814 0.9846112728118896
-0.6117784976959229 -0.881426215171814 0.8047566413879395
-0.6117784976959229 -0.881426215171814 0.6249020099639893
-0.6117784976959229 -0.881426215171814 0.44504740834236145
-0.6117784976959229 -0.881426215171814 0.26519277691841125
-0.6117784976959229 -0.881426215171814 0.08533813804388046
-0.6117784976959229 -0.881426215171814 -0.09451649338006973
-0.6117784976959229 -0.881426215171814 -0.27437111735343933
-0.6117785573005676 -0.881426215171814 -0.4542257487773895
-0.6117785573005676 -0.881426215171814 -0.6340804100036621
-0.6117785573005676 -0.881426215171814 -0.8139350414276123
-0.6117785573005676 -0.881426215171814 -0.9937896728515625
-0.6117785573005676 -0.881426215171814 -1.1736443042755127
-0.6117785573005676 -0.881426215171814 -1.353498935699463
-0.7703326940536499 -0.7453118562698364 1.34432053565979
-0.7703326940536499 -0.7453118562698364 1.1644659042358398
-0.7703326940536499 -0.7453118562698364 0.9846113324165344
-0.7703326940536499 -0.7453118562698364 0.8047567009925842
-0.7703326940536499 -0.7453118562698364 0.624902069568634
-0.7703326940536499 -0.7453118562698364 0.44504740834236145
-0.7703326940536499 -0.7453118562698364 0.26519277691841125
-0.7703327536582947 -0.7453118562698364 0.08533814549446106
-0.7703327536582947 -0.7453118562698364 -0.09451648592948914
-0.7703327536582947 -0.7453118562698364 -0.27437111735343933
-0.7703327536582947 -0.7453118562698364 -0.4542257487773895
-0.7703327536582947 -0.7453118562698364 -0.6340803503990173
-0.7703327536582947 -0.7453118562698364 -0.8139349818229675
-0.7703327536582947 -0.7453118562698364 -0.9937896132469177
-0.7703328132629395 -0.7453118562698364 -1.1736443042755127
-0.7703328132629395 -0.7453118562698364 -1.353498935699463
-0.8982416987419128 -0.5800670385360718 1.34432053565979
-0.8982416987419128 -0.5800670385360718 1.1644659042358398
-0.8982416987419128 -0.5800670385360718 0.9846113324165344
-0.8982416987419128 -0.5800670385360718 0.8047567009925842
-0.8982416987419128 -0.5800670385360718 0.624902069568634
-0.8982416987419128 -0.5800670385360718 0.44504740834236145
-0.8982416987419128 -0.5800670385360718 0.26519277691841125
-0.8982416987419128 -0.5800670385360718 0.08533815294504166
-0.8982417583465576 -0.5800670385360718 -0.09451647847890854
-0.8982417583465576 -0.5800670385360718 -0.27437111735343933
-0.8982417583465576 -0.5800670385360718 -0.4542257487773895
-0.8982417583465576 -0.5800670385360718 -0.6340803503990173
-0.8982417583465576 -0.5800670385360718 -0.8139349818229675
-0.8982417583465576 -0.5800670385360718 -0.9937896132469177
-0.8982417583465576 -0.5800670385360718 -1.1736443042755127
-0.8982418179512024 -0.5800670385360718 -1.353498935699463
-0.9902688264846802 -0.39245694875717163 1.34432053565979
-0.9902688264846802 -0.39245694875717163 1.1644659042358398
-0.9902688264846802 -0.39245694875717163 0.9846113324165344
-0.9902688264846802 -0.39245694875717163 0.8047567009925842
-0.990268886089325 -0.39245694875717163 0.624902069568634
-0.990268886089325 -0.39245694875717163 0.44504740834236145
-0.990268886089325 -0.39245694875717163 0.26519277691841125
-0.990268886089325 -0.39245694875717163 0.08533816039562225
-0.990268886089325 -0.39245694875717163 -0.09451647102832794
-0.990268886089325 -0.39245694875717163 -0.27437111735343933
-0.990268886089325 -0.39245694875717163 -0.4542257487773895
-0.990268886089325 -0.39245694875717163 -0.6340803503990173
-0.9902689456939697 -0.39245694875717163 -0.8139349818229675
-0.9902689456939697 -0.39245694875717163 -0.9937896132469177
-0.9902689456939697 -0.39245694875717163 -1.1736443042755127
-0.9902689456939697 -0.39245694875717163 -1.353498935699463
-1.0426465272903442 -0.1901622712612152 1.34432053565979
-1.0426465272903442 -0.1901622712612152 1.1644659042358398
-1.0426465272903442 -0.1901622712612152 0.9846113324165344
-1.0426465272903442 -0.1901622712612152 0.8047567009925842
-1.0426465272903442 -0.1901622712612152 0.624902069568634
-1.0426465272903442 -0.1901622712612152 0.44504740834236145
-1.0426466464996338 -0.1901622712612152 0.26519277691841125
-1.0426466464996338 -0.1901622712612152 0.08533816039562225
-1.0426466464996338 -0.1901622712612152 -0.09451647102832794
-1.0426466464996338 -0.1901622712612152 -0.27437111735343933
-1.0426466464996338 -0.1901622712612152 -0.4542257487773895
-1.0426466464996338 -0.1901622712612152 -0.6340803503990173
-1.0426466464996338 -0.1901622712612152 -0.8139349818229675
-1.0426466464996338 -0.1901622712612152 -0.9937896132469177
-1.0426466464996338 -0.1901622712612152 -1.1736443042755127
-1.0426466464996338 -0.1901622712612152 -1.353498935699463
-1.0532305240631104 0.018534956499934196 1.34432053565979
-1.0532305240631104 0.018534956499934196 1.1644659042358398
-1.0532305240631104 0.018534956499934196 0.9846113324165344
-1.0532305240631104 0.018534956499934196 0.8047567009925842
-1.0532305240631104 0.018534956499934196 0.624902069568634
-1.0532305240631104 0.018534956499934196 0.44504743814468384
-1.0532305240631104 0.018534956499934196 0.26519280672073364
-1.0532305240631104 0.018534956499934196 0.08533816039562225
-1.0532305240631104 0.018534956499934196 -0.09451647102832794
-1.0532305240631104 0.018534956499934196 -0.27437108755111694
-1.0532305240631104 0.018534956499934196 -0.45422571897506714
-1.0532305240631104 0.018534956499934196 -0.6340803503990173
-1.0532305240631104 0.018534956499934196 -0.8139349818229675
-1.0532305240631104 0.018534956499934196 -0.9937896132469177
-1.0532305240631104 0.018534956499934196 -1.1736443042755127
-1.0532306432724 0.018534956499934196 -1.353498935699463
-1.0215872526168823 0.22509066760540009 1.34432053565979
-1.0215872526168823 0.22509066760540009 1.1644659042358398
-1.0215873718261719 0.22509066760540009 0.9846113324165344
-1.0215873718261719 0.22509066760540009 0.8047567009925842
-1.0215873718261719 0.22509066760540009 0.624902069568634
-1.0215873718261719 0.22509066760540009 0.44504740834236145
-1.0215873718261719 0.22509066760540009 0.26519277691841125
-1.0215873718261719 0.22509066760540009 0.08533816039562225
-1.0215873718261719 0.22509066760540009 -0.09451647102832794
-1.0215873718261719 0.22509066760540009 -0.27437111735343933
-1.0215873718261719 0.22509066760540009 -0.4542257487773895
-1.0215873718261719 0.22509066760540009 -0.6340803503990173
-1.0215873718261719 0.22509066760540009 -0.8139349818229675
-1.0215873718261719 0.22509066760540009 -0.9937896132469177
-1.0215873718261719 0.22509066760540009 -1.1736443042755127
-1.0215873718261719 0.22509066760540009 -1.353498935699463
-0.9490125179290771 0.42104846239089966 1.34432053565979
-0.9490125179290771 0.42104846239089966 1.1644659042358398
-0.9490125179290771 0.42104846239089966 0.9846113324165344
-0.9490125179290771 0.42104846239089966 0.8047567009925842
-0.9490125179290771 0.42104846239089966 0.624902069568634
-0.9490125179290771 0.42104846239089966 0.44504740834236145
-0.9490125775337219 0.42104846239089966 0.26519277691841125
-0.9490125775337219 0.42104846239089966 0.08533815294504166
-0.9490125775337219 0.42104846239089966 -0.09451647847890854
-0.9490125775337219 0.42104846239089966 -0.27437111735343933
-0.9490125775337219 0.42104846239089966 -0.4542257487773895
-0.9490125775337219 0.42104846239089966 -0.6340803503990173
-0.9490125775337219 0.42104846239089966 -0.8139349818229675
-0.9490125775337219 0.42104846239089966 -0.9937896132469177
-0.9490126371383667 0.42104846239089966 -1.1736443042755127
-0.9490126371383667 0.42104846239089966 -1.353498935699463
-0.8384773135185242 0.598385751247406 1.34432053565979
-0.8384773135185242 0.598385751247406 1.1644659042358398
-0.8384773135185242 0.598385751247406 0.9846113324165344
-0.8384773135185242 0.598385751247406 0.8047567009925842
-0.8384773135185242 0.598385751247406 0.624902069568634
-0.838477373123169 0.598385751247406 0.44504740834236145
-0.838477373123169 0.598385751247406 0.26519277691841125
-0.838477373123169 0.598385751247406 0.08533815294504166
-0.838477373123169 0.598385751247406 -0.09451647847890854
-0.838477373123169 0.598385751247406 -0.27437111735343933
-0.838477373123169 0.598385751247406 -0.4542257487773895
-0.838477373123169 0.598385751247406 -0.6340803503990173
-0.838477373123169 0.598385751247406 -0.8139349818229675
-0.8384774327278137 0.598385751247406 -0.9937896132469177
-0.8384774327278137 0.598385751247406 -1.1736443042755127
-0.8384774327278137 0.598385751247406 -1.353498935699463
-0.6945070624351501 0.7498424053192139 1.34432053565979
-0.6945070624351501 0.7498424053192139 1.1644659042358398
-0.6945070624351501 0.7498424053192139 0.9846112728118896
-0.6945070624351501 0.7498424053192139 0.8047566413879395
-0.6945070624351501 0.7498424053192139 0.6249020099639893
-0.6945070624351501 0.7498424053192139 0.44504740834236145
-0.6945070624351501 0.7498424053192139 0.26519277691841125
-0.6945070624351501 0.7498424053192139 0.08533814549446106
-0.6945071220397949 0.7498424053192139 -0.09451648592948914
-0.6945071220397949 0.7498424053192139 -0.27437111735343933
-0.6945071220397949 0.7498424053192139 -0.4542257487773895
-0.6945071220397949 0.7498424053192139 -0.6340804100036621
-0.6945071220397949 0.7498424053192139 -0.8139350414276123
-0.6945071220397949 0.7498424053192139 -0.9937896728515625
-0.6945071220397949 0.7498424053192139 -1.1736443042755127
-0.6945071220397949 0.7498424053192139 -1.353498935699463
-0.5229958295822144 0.8692177534103394 1.34432053565979
-0.5229958295822144 0.8692177534103394 1.1644659042358398
-0.5229958295822144 0.8692177534103394 0.9846112728118896
-0.5229958891868591 0.8692177534103394 0.8047566413879395
-0.5229958891868591 0.8692177534103394 0.6249020099639893
-0.5229958891868591 0.8692177534103394 0.44504740834236145
-0.5229958891868591 0.8692177534103394 0.26519277691841125
-0.5229958891868591 0.8692177534103394 0.08533813804388046
-0.5229958891868591 0.8692177534103394 -0.09451649338006973
-0.5229958891868591 0.8692177534103394 -0.27437111735343933
-0.5229959487915039 0.8692177534103394 -0.4542257487773895
-0.5229959487915039 0.8692177534103394 -0.6340804100036621
-0.5229959487915039 0.8692177534103394 -0.8139350414276123
-0.5229959487915039 0.8692177534103394 -0.9937896728515625
-0.5229959487915039 0.8692177534103394 -1.1736443042755127
-0.5229959487915039 0.8692177534103394 -1.353498935699463
-0.33096542954444885 0.9516244530677795 1.34432053565979
-0.33096542954444885 0.9516244530677795 1.1644659042358398
-0.33096542954444885 0.9516244530677795 0.9846112728118896
-0.33096542954444885 0.9516244530677795 0.8047566413879395
-0.33096545934677124 0.9516244530677795 0.6249020099639893
-0.33096545934677124 0.9516244530677795 0.44504737854003906
-0.33096545934677124 0.9516244530677795 0.26519274711608887
-0.33096545934677124 0.9516244530677795 0.08533813059329987
-0.33096548914909363 0.9516244530677795 -0.09451650083065033
-0.33096548914909363 0.9516244530677795 -0.2743711471557617
-0.33096548914909363 0.9516244530677795 -0.4542257785797119
-0.330965518951416 0.9516244530677795 -0.6340804100036621
-0.330965518951416 0.9516244530677795 -0.8139350414276123
-0.330965518951416 0.9516244530677795 -0.9937896728515625
-0.330965518951416 0.9516244530677795 -1.1736443042755127
-0.3309655487537384 0.9516244530677795 -1.353498935699463
-0.12627752125263214 0.9936888813972473 1.34432053565979
-0.12627752125263214 0.9936888813972473 1.1644659042358398
-0.12627753615379333 0.9936888813972473 0.9846112728118896
-0.12627753615379333 0.9936888813972473 0.8047566413879395
-0.12627755105495453 0.9936888813972473 0.6249020099639893
-0.12627755105495453 0.9936888813972473 0.44504737854003906
-0.12627756595611572 0.9936888813972473 0.26519274711608887
-0.12627756595611572 0.9936888813972473 0.08533812314271927
-0.12627758085727692 0.9936888813972473 -0.09451650828123093
-0.12627758085727692 0.9936888813972473 -0.2743711471557617
-0.1262775957584381 0.9936888813972473 -0.4542257785797119
-0.1262775957584381 0.9936888813972473 -0.6340804100036621
-0.1262776106595993 0.9936888813972473 -0.8139350414276123
-0.1262776106595993 0.9936888813972473 -0.9937896728515625
-0.1262776255607605 0.9936888813972473 -1.1736443042755127
-0.1262776404619217 0.9936888813972473 -1.353498935699463
0.08268792182207108 0.9936888813972473 1.34432053565979
0.08268791437149048 0.9936888813972473 1.1644659042358398
0.08268790692090988 0.9936888813972473 0.9846112728118896
0.08268789947032928 0.9936888813972473 0.8047566413879395
0.08268789201974869 0.9936888813972473 0.6249020099639893
0.08268788456916809 0.9936888813972473 0.44504737854003906
0.0826878771185875 0.9936888813972473 0.26519274711608887
0.0826878696680069 0.9936888813972473 0.08533810824155807
0.0826878622174263 0.9936888813972473 -0.09451652318239212
0.0826878547668457 0.9936888813972473 -0.2743711471557617
0.0826878473162651 0.9936888813972473 -0.4542257785797119
0.08268783986568451 0.9936888813972473 -0.6340804100036621
0.08268783241510391 0.9936888813972473 -0.8139350414276123
0.08268781751394272 0.9936888813972473 -0.9937896728515625
0.08268781006336212 0.9936888813972473 -1.1736443042755127
0.08268780261278152 0.9936888813972473 -1.353498935699463
0.2873758375644684 0.9516244530677795 1.34432053565979
0.287375807762146 0.9516244530677795 1.1644659042358398
0.287375807762146 0.9516244530677795 0.9846112728118896
0.287375807762146 0.9516244530677795 0.8047566413879395
0.287375807762146 0.9516244530677795 0.6249020099639893
0.2873757779598236 0.9516244530677795 0.44504737854003906
0.2873757779598236 0.9516244530677795 0.26519274711608887
0.2873757779598236 0.9516244530677795 0.08533810079097748
0.2873757779598236 0.9516244530677795 -0.09451653063297272
0.2873757481575012 0.9516244530677795 -0.2743711471557617
0.2873757481575012 0.9516244530677795 -0.4542257785797119
0.2873757481575012 0.9516244530677795 -0.6340804100036621
0.28737571835517883 0.9516244530677795 -0.8139350414276123
0.28737571835517883 0.9516244530677795 -0.9937896728515625
0.28737571835517883 0.9516244530677795 -1.1736443042755127
0.28737571835517883 0.9516244530677795 -1.353498935699463
0.4794062376022339 0.8692177534103394 1.34432053565979
0.4794062376022339 0.8692177534103394 1.1644659042358398
0.4794062376022339 0.8692177534103394 0.9846112728118896
0.4794062376022339 0.8692177534103394 0.8047566413879395
0.4794062077999115 0.8692177534103394 0.6249020099639893
0.4794062077999115 0.8692177534103394 0.4450473487377167
0.4794062077999115 0.8692177534103394 0.2651927173137665
0.4794062077999115 0.8692177534103394 0.08533809334039688
0.4794061779975891 0.8692177534103394 -0.09451653808355331
0.4794061779975891 0.8692177534103394 -0.2743711769580841
0.4794061779975891 0.8692177534103394 -0.4542258083820343
0.4794061481952667 0.8692177534103394 -0.6340804100036621
0.4794061481952667 0.8692177534103394 -0.8139350414276123
0.4794061481952667 0.8692177534103394 -0.9937896728515625
0.4794061481952667 0.8692177534103394 -1.1736443042755127
0.47940611839294434 0.8692177534103394 -1.353498935699463
0.6509174704551697 0.7498424053192139 1.34432053565979
0.6509174108505249 0.7498424053192139 1.1644659042358398
0.6509174108505249 0.7498424053192139 0.9846112728118896
0.6509174108505249 0.7498424053192139 0.8047566413879395
0.6509174108505249 0.7498424053192139 0.6249020099639893
0.6509174108505249 0.7498424053192139 0.4450473487377167
0.6509174108505249 0.7498424053192139 0.2651927173137665
0.6509174108505249 0.7498424053192139 0.08533808588981628
0.6509173512458801 0.7498424053192139 -0.09451654553413391
0.6509173512458801 0.7498424053192139 -0.2743711769580841
0.6509173512458801 0.7498424053192139 -0.4542258083820343
0.6509173512458801 0.7498424053192139 -0.6340804100036621
0.6509173512458801 0.7498424053192139 -0.8139350414276123
0.6509173512458801 0.7498424053192139 -0.9937896728515625
0.6509173512458801 0.7498424053192139 -1.1736443042755127
0.6509173512458801 0.7498424053192139 -1.353498935699463
0.7948877215385437 0.598385751247406 1.34432053565979
0.7948877215385437 0.598385751247406 1.1644659042358398
0.7948877215385437 0.598385751247406 0.9846112132072449
0.7948877215385437 0.598385751247406 0.8047565817832947
0.7948876619338989 0.598385751247406 0.6249019503593445
0.7948876619338989 0.598385751247406 0.4450473487377167
0.7948876619338989 0.598385751247406 0.2651927173137665
0.7948876619338989 0.598385751247406 0.08533807843923569
0.7948876619338989 0.598385751247406 -0.09451655298471451
0.7948876619338989 0.598385751247406 -0.2743711769580841
0.7948876619338989 0.598385751247406 -0.4542258083820343
0.7948876023292542 0.598385751247406 -0.6340804696083069
0.7948876023292542 0.598385751247406 -0.8139351010322571
0.7948876023292542 0.598385751247406 -0.9937897324562073
0.7948876023292542 0.598385751247406 -1.1736443042755127
0.7948876023292542 0.598385751247406 -1.353498935699463
0.9054229259490967 0.42104846239089966 1.34432053565979
0.9054229259490967 0.42104846239089966 1.1644659042358398
0.9054229259490967 0.42104846239089966 0.9846112132072449
0.9054228663444519 0.42104846239089966 0.8047565817832947
0.9054228663444519 0.42104846239089966 0.6249019503593445
0.9054228663444519 0.42104846239089966 0.4450473487377167
0.9054228663444519 0.42104846239089966 0.2651927173137665
0.9054228663444519 0.42104846239089966 0.08533807843923569
0.9054228663444519 0.42104846239089966 -0.09451655298471451
0.9054228663444519 0.42104846239089966 -0.2743711769580841
0.9054228067398071 0.42104846239089966 -0.4542258083820343
0.9054228067398071 0.42104846239089966 -0.6340804696083069
0.9054228067398071 0.42104846239089966 -0.8139351010322571
0.9054228067398071 0.42104846239089966 -0.9937897324562073
0.9054228067398071 0.42104846239089966 -1.1736443042755127
0.9054228067398071 0.42104846239089966 -1.353498935699463
0.9779977202415466 0.22509066760540009 1.34432053565979
0.9779977202415466 0.22509066760540009 1.1644659042358398
0.9779977202415466 0.22509066760540009 0.9846112132072449
0.9779976606369019 0.22509066760540009 0.8047565817832947
0.9779976606369019 0.22509066760540009 0.6249019503593445
0.9779976606369019 0.22509066760540009 0.4450473487377167
0.9779976606369019 0.22509066760540009 0.2651927173137665
0.9779976606369019 0.22509066760540009 0.08533807098865509
0.9779976606369019 0.22509066760540009 -0.0945165604352951
0.9779976606369019 0.22509066760540009 -0.2743711769580841
0.9779976010322571 0.22509066760540009 -0.4542258083820343
0.9779976010322571 0.22509066760540009 -0.6340804696083069
0.9779976010322571 0.22509066760540009 -0.8139351010322571
0.9779976010322571 0.22509066760540009 -0.9937897324562073
0.9779976010322571 0.22509066760540009 -1.1736443042755127
0.9779976010322571 0.22509066760540009 -1.353498935699463
1.0096409320831299 0.018534956499934196 1.34432053565979
1.0096408128738403 0.018534956499934196 1.1644659042358398
1.0096408128738403 0.018534956499934196 0.9846112132072449
1.0096408128738403 0.018534956499934196 0.8047565817832947
1.0096408128738403 0.018534956499934196 0.6249019503593445
1.0096408128738403 0.018534956499934196 0.4450473189353943
1.0096408128738403 0.018534956499934196 0.2651926875114441
1.0096408128738403 0.018534956499934196 0.08533807098865509
1.0096408128738403 0.018534956499934196 -0.0945165604352951
1.0096408128738403 0.018534956499934196 -0.2743712067604065
1.0096408128738403 0.018534956499934196 -0.4542258381843567
1.0096408128738403 0.018534956499934196 -0.6340804696083069
1.0096408128738403 0.018534956499934196 -0.8139351010322571
1.0096408128738403 0.018534956499934196 -0.9937897324562073
1.0096408128738403 0.018534956499934196 -1.1736443042755127
1.0096408128738403 0.018534956499934196 -1.353498935699463
0.9990569353103638 -0.1901622712612152 1.34432053565979
0.9990569353103638 -0.1901622712612152 1.1644659042358398
0.9990569353103638 -0.1901622712612152 0.9846112132072449
0.9990569353103638 -0.1901622712612152 0.8047565817832947
0.9990569353103638 -0.1901622712612152 0.6249019503593445
0.9990569353103638 -0.1901622712612152 0.4450473487377167
0.9990569353103638 -0.1901622712612152 0.2651927173137665
0.999056875705719 -0.1901622712612152 0.08533807098865509
0.999056875705719 -0.1901622712612152 -0.0945165604352951
0.999056875705719 -0.1901622712612152 -0.2743711769580841
0.999056875705719 -0.1901622712612152 -0.4542258083820343
0.999056875705719 -0.1901622712612152 -0.6340804696083069
0.999056875705719 -0.1901622712612152 -0.8139351010322571
0.999056875705719 -0.1901622712612152 -0.9937897324562073
0.9990568161010742 -0.1901622712612152 -1.1736443042755127
0.9990568161010742 -0.1901622712612152 -1.353498935699463
0.9466792345046997 -0.39245694875717163 1.34432053565979
0.9466792345046997 -0.39245694875717163 1.1644659042358398
0.9466792345046997 -0.39245694875717163 0.9846112132072449
0.9466792345046997 -0.39245694875717163 0.8047565817832947
0.9466792345046997 -0.39245694875717163 0.6249019503593445
0.9466791749000549 -0.39245694875717163 0.4450473487377167
0.9466791749000549 -0.39245694875717163 0.2651927173137665
0.9466791749000549 -0.39245694875717163 0.08533807098865509
0.9466791749000549 -0.39245694875717163 -0.0945165604352951
0.9466791749000549 -0.39245694875717163 -0.2743711769580841
0.9466791749000549 -0.39245694875717163 -0.4542258083820343
0.9466791749000549 -0.39245694875717163 -0.6340804696083069
0.9466791152954102 -0.39245694875717163 -0.8139351010322571
0.9466791152954102 -0.39245694875717163 -0.9937897324562073
0.9466791152954102 -0.39245694875717163 -1.1736443042755127
0.9466791152954102 -0.39245694875717163 -1.353498935699463
0.8546521067619324 -0.5800670385360718 1.34432053565979
0.8546520471572876 -0.5800670385360718 1.1644659042358398
0.8546520471572876 -0.5800670385360718 0.9846112132072449
0.8546520471572876 -0.5800670385360718 0.8047565817832947
0.8546520471572876 -0.5800670385360718 0.6249019503593445
0.8546520471572876 -0.5800670385360718 0.4450473487377167
0.8546520471572876 -0.5800670385360718 0.2651927173137665
0.8546520471572876 -0.5800670385360718 0.08533807843923569
0.8546519875526428 -0.5800670385360718 -0.09451655298471451
0.8546519875526428 -0.5800670385360718 -0.2743711769580841
0.8546519875526428 -0.5800670385360718 -0.4542258083820343
0.8546519875526428 -0.5800670385360718 -0.6340804696083069
0.8546519875526428 -0.5800670385360718 -0.8139351010322571
0.8546519875526428 -0.5800670385360718 -0.9937897324562073
0.8546519875526428 -0.5800670385360718 -1.1736443042755127
0.8546519875526428 -0.5800670385360718 -1.353498935699463
0.7267431020736694 -0.7453118562698364 1.34432053565979
0.7267431020736694 -0.7453118562698364 1.1644659042358398
0.7267430424690247 -0.7453118562698364 0.9846112132072449
0.7267430424690247 -0.7453118562698364 0.8047565817832947
0.7267430424690247 -0.7453118562698364 0.6249019503593445
0.7267430424690247 -0.7453118562698364 0.4450473487377167
0.7267430424690247 -0.7453118562698364 0.2651927173137665
0.7267430424690247 -0.7453118562698364 0.08533808588981628
0.7267430424690247 -0.7453118562698364 -0.09451654553413391
0.7267430424690247 -0.7453118562698364 -0.2743711769580841
0.7267429828643799 -0.7453118562698364 -0.4542258083820343
0.7267429828643799 -0.7453118562698364 -0.6340804696083069
0.7267429828643799 -0.7453118562698364 -0.8139351010322571
0.7267429828643799 -0.7453118562698364 -0.9937897324562073
0.7267429828643799 -0.7453118562698364 -1.1736443042755127
0.7267429828643799 -0.7453118562698364 -1.353498935699463
0.5681888461112976 -0.881426215171814 1.34432053565979
0.5681888461112976 -0.881426215171814 1.1644659042358398
0.5681888461112976 -0.881426215171814 0.9846112728118896
0.5681888461112976 -0.881426215171814 0.8047566413879395
0.5681888461112976 -0.881426215171814 0.6249020099639893
0.5681888461112976 -0.881426215171814 0.4450473487377167
0.5681887865066528 -0.881426215171814 0.2651927173137665
0.5681887865066528 -0.881426215171814 0.08533809334039688
0.5681887865066528 -0.881426215171814 -0.09451653808355331
0.5681887865066528 -0.881426215171814 -0.2743711769580841
0.5681887865066528 -0.881426215171814 -0.4542258083820343
0.5681887865066528 -0.881426215171814 -0.6340804100036621
0.5681887865066528 -0.881426215171814 -0.8139350414276123
0.5681887865066528 -0.881426215171814 -0.9937896728515625
0.5681887269020081 -0.881426215171814 -1.1736443042755127
0.5681887269020081 -0.881426215171814 -1.353498935699463
0.3854806423187256 -0.9828375577926636 1.34432053565979
0.3854806423187256 -0.9828375577926636 1.1644659042358398
0.3854806125164032 -0.9828375577926636 0.9846112728118896
0.3854806125164032 -0.9828375577926636 0.8047566413879395
0.3854806125164032 -0.9828375577926636 0.6249020099639893
0.3854805827140808 -0.9828375577926636 0.4450473487377167
0.3854805827140808 -0.9828375577926636 0.2651927173137665
0.3854805827140808 -0.9828375577926636 0.08533810079097748
0.3854805827140808 -0.9828375577926636 -0.09451653063297272
0.3854805529117584 -0.9828375577926636 -0.2743711769580841
0.3854805529117584 -0.9828375577926636 -0.4542258083820343
0.3854805529117584 -0.9828375577926636 -0.6340804100036621
0.3854805529117584 -0.9828375577926636 -0.8139350414276123
0.38548052310943604 -0.9828375577926636 -0.9937896728515625
0.38548052310943604 -0.9828375577926636 -1.1736443042755127
0.38548052310943604 -0.9828375577926636 -1.353498935699463
0.18609850108623505 -1.0453940629959106 1.34432053565979
0.18609850108623505 -1.0453940629959106 1.1644659042358398
0.18609848618507385 -1.0453940629959106 0.9846112728118896
0.18609848618507385 -1.0453940629959106 0.8047566413879395
0.18609847128391266 -1.0453940629959106 0.6249020099639893
0.18609847128391266 -1.0453940629959106 0.44504737854003906
0.18609845638275146 -1.0453940629959106 0.26519274711608887
0.18609845638275146 -1.0453940629959106 0.08533810824155807
0.18609844148159027 -1.0453940629959106 -0.09451652318239212
0.18609844148159027 -1.0453940629959106 -0.2743711471557617
0.18609842658042908 -1.0453940629959106 -0.4542257785797119
0.18609842658042908 -1.0453940629959106 -0.6340804100036621
0.18609841167926788 -1.0453940629959106 -0.8139350414276123
0.18609841167926788 -1.0453940629959106 -0.9937896728515625
0.1860983967781067 -1.0453940629959106 -1.1736443042755127
0.1860983967781067 -1.0453940629959106 -1.353498935699463
-0.021794795989990234 -1.0665347576141357 1.34432053565979
-0.02179480344057083 -1.0665347576141357 1.1644659042358398
-0.021794810891151428 -1.0665347576141357 0.9846112728118896
-0.021794820204377174 -1.0665347576141357 0.8047566413879395
-0.02179482765495777 -1.0665347576141357 0.6249020099639893
-0.021794835105538368 -1.0665347576141357 0.44504737854003906
-0.021794842556118965 -1.0665347576141357 0.26519274711608887
-0.02179485186934471 -1.0665347576141357 0.08533811569213867
-0.021794859319925308 -1.0665347576141357 -0.09451651573181152
-0.021794866770505905 -1.0665347576141357 -0.2743711471557617
-0.021794874221086502 -1.0665347576141357 -0.4542257785797119
-0.0217948816716671 -1.0665347576141357 -0.6340804100036621
-0.021794890984892845 -1.0665347576141357 -0.8139350414276123
-0.021794898435473442 -1.0665347576141357 -0.9937896728515625
-0.02179490588605404 -1.0665347576141357 -1.1736443042755127
-0.021794913336634636 -1.0665347576141357 -1.353498935699463
