ply
format ascii 1.0
element vertex 512
property float x
property float y
property float z
end_header
0.0035866498947143555 -1.0025017261505127 0.9826924204826355
0.0031580172944813967 -1.0022118091583252 0.8495603799819946
0.0027293844614177942 -1.0019220113754272 0.716428279876709
0.0023007518611848354 -1.0016320943832397 0.5832962393760681
0.0018721191445365548 -1.0013421773910522 0.45016416907310486
0.001443486544303596 -1.0010522603988647 0.3170320987701416
0.0010148538276553154 -1.0007624626159668 0.18390004336833954
0.0005862211692146957 -1.0004725456237793 0.05076798051595688
0.0001575884671183303 -1.0001826286315918 -0.08236408233642578
-0.00027104420587420464 -0.9998927116394043 -0.21549615263938904
-0.0006996768643148243 -0.9996028542518616 -0.3486282229423523
-0.001128309522755444 -0.9993129372596741 -0.48176026344299316
-0.0015569422394037247 -0.9990230798721313 -0.6148923635482788
-0.0019855748396366835 -0.9987331628799438 -0.7480244040489197
-0.002414207672700286 -0.9984433054924011 -0.8811564445495605
-0.0028428402729332447 -0.9981533885002136 -1.0142885446548462
-0.19780611991882324 -0.9820234775543213 0.983385443687439
-0.19823475182056427 -0.9817335605621338 0.8502533435821533
-0.1986633837223053 -0.9814436435699463 0.7171213030815125
-0.19909201562404633 -0.9811537861824036 0.5839892029762268
-0.19952064752578735 -0.9808638691902161 0.45085716247558594
-0.19994927942752838 -0.9805740118026733 0.3177250921726227
-0.2003779113292694 -0.9802840948104858 0.18459303677082062
-0.20080654323101044 -0.9799942374229431 0.051460977643728256
-0.20123517513275146 -0.9797043204307556 -0.0816710889339447
-0.2016638070344925 -0.9794144630432129 -0.21480315923690796
-0.20209243893623352 -0.9791245460510254 -0.3479352295398712
-0.20252107083797455 -0.9788346886634827 -0.4810672700405121
-0.20294970273971558 -0.9785447716712952 -0.6141993403434753
-0.2033783346414566 -0.9782549142837524 -0.7473313808441162
-0.20380698144435883 -0.9779649972915649 -0.8804634809494019
-0.20423561334609985 -0.9776751399040222 -1.0135955810546875
-0.39095383882522583 -0.921424150466919 0.9841392636299133
-0.39138248562812805 -0.9211342334747314 0.8510071635246277
-0.3918111026287079 -0.9208443760871887 0.7178751230239868
-0.3922397494316101 -0.9205544590950012 0.5847430229187012
-0.39266836643218994 -0.9202646017074585 0.4516109824180603
-0.39309701323509216 -0.919974684715271 0.31847891211509705
-0.393525630235672 -0.9196848273277283 0.18534685671329498
-0.3939542770385742 -0.9193949103355408 0.052214786410331726
-0.39438289403915405 -0.919105052947998 -0.08091727644205093
-0.3948115408420563 -0.9188151359558105 -0.2140493392944336
-0.3952401578426361 -0.9185252785682678 -0.34718140959739685
-0.39566880464553833 -0.9182353615760803 -0.4803134799003601
-0.39609742164611816 -0.9179454445838928 -0.613445520401001
-0.3965260684490204 -0.9176555871963501 -0.7465776205062866
-0.3969546854496002 -0.9173656702041626 -0.8797096610069275
-0.39738333225250244 -0.9170758128166199 -1.0128417015075684
-0.5679490566253662 -0.8231847882270813 0.9849230051040649
-0.568377673625946 -0.8228948712348938 0.8517909646034241
-0.5688062906265259 -0.8226050138473511 0.7186588644981384
-0.5692349076271057 -0.8223150968551636 0.5855268239974976
-0.5696635842323303 -0.8220251798629761 0.4523947536945343
-0.5700922012329102 -0.8217353224754333 0.31926268339157104
-0.57052081823349 -0.8214454054832458 0.1861306130886078
-0.5709494352340698 -0.8211555480957031 0.05299855396151543
-0.5713781118392944 -0.8208656311035156 -0.08013351261615753
-0.5718067288398743 -0.8205757737159729 -0.2132655680179596
-0.5722353458404541 -0.8202858567237854 -0.34639763832092285
-0.5726639628410339 -0.8199959993362427 -0.4795297086238861
-0.5730926394462585 -0.8197060823440552 -0.6126617789268494
-0.5735212564468384 -0.8194162249565125 -0.7457938194274902
-0.5739498734474182 -0.819126307964325 -0.8789259195327759
-0.574378490447998 -0.8188364505767822 -1.012057900428772
-0.7215454578399658 -0.6913272142410278 0.9857046604156494
-0.7219741344451904 -0.6910373568534851 0.8525725603103638
-0.7224027514457703 -0.6907474398612976 0.7194405198097229
-0.7228313684463501 -0.6904575824737549 0.5863084197044373
-0.7232599854469299 -0.6901676654815674 0.4531763792037964
-0.7236886620521545 -0.6898778080940247 0.32004430890083313
-0.7241172790527344 -0.6895878911018372 0.18691225349903107
-0.7245458960533142 -0.6892980337142944 0.05378018692135811
-0.7249745726585388 -0.6890081167221069 -0.07935187220573425
-0.7254031896591187 -0.6887182593345642 -0.2124839425086975
-0.7258318066596985 -0.6884283423423767 -0.34561601281166077
-0.7262604236602783 -0.688138484954834 -0.47874805331230164
-0.7266891002655029 -0.6878485679626465 -0.6118801236152649
-0.7271177172660828 -0.6875587105751038 -0.7450122237205505
-0.7275463342666626 -0.6872687935829163 -0.8781442642211914
-0.7279749512672424 -0.6869788765907288 -1.011276364326477
-0.8454549312591553 -0.5312498211860657 0.9864521622657776
-0.8458835482597351 -0.530959963798523 0.8533200621604919
-0.8463122248649597 -0.5306700468063354 0.7201880216598511
-0.8467408418655396 -0.5303801894187927 0.5870559215545654
-0.8471694588661194 -0.5300902724266052 0.45392388105392456
-0.8475980758666992 -0.5298004150390625 0.3207918107509613
-0.8480267524719238 -0.529510498046875 0.18765975534915924
-0.8484553694725037 -0.5292206406593323 0.05452768877148628
-0.8488839864730835 -0.5289307236671448 -0.07860437780618668
-0.8493126034736633 -0.5286408066749573 -0.21173644065856934
-0.8497412800788879 -0.5283509492874146 -0.3448685109615326
-0.8501698970794678 -0.528061032295227 -0.47800058126449585
-0.8505985140800476 -0.5277711749076843 -0.6111326217651367
-0.8510271906852722 -0.5274812579154968 -0.7442647218704224
-0.851455807685852 -0.5271914005279541 -0.8773967623710632
-0.8518844246864319 -0.5269014835357666 -1.010528802871704
-0.9346045255661011 -0.349506139755249 0.9871348738670349
-0.9350331425666809 -0.3492162525653839 0.854002833366394
-0.9354618191719055 -0.3489263653755188 0.7208707928657532
-0.9358904361724854 -0.3486364781856537 0.5877386927604675
-0.9363190531730652 -0.3483465909957886 0.45460665225982666
-0.936747670173645 -0.34805670380592346 0.3214745819568634
-0.9371763467788696 -0.34776681661605835 0.18834251165390015
-0.9376049637794495 -0.34747692942619324 0.055210456252098083
-0.9380335807800293 -0.3471870422363281 -0.07792160660028458
-0.9384621977806091 -0.346897155046463 -0.21105366945266724
-0.9388908743858337 -0.3466072380542755 -0.3441857397556305
-0.9393194913864136 -0.3463173508644104 -0.47731781005859375
-0.9397481083869934 -0.3460274636745453 -0.6104498505592346
-0.940176784992218 -0.3457375764846802 -0.7435819506645203
-0.9406054019927979 -0.34544768929481506 -0.8767139911651611
-0.9410340189933777 -0.34515780210494995 -1.0098460912704468
-0.9853444695472717 -0.15353676676750183 0.9877249598503113
-0.9857730865478516 -0.15324687957763672 0.8545929193496704
-0.9862017631530762 -0.1529569923877716 0.7214608788490295
-0.986630380153656 -0.1526670902967453 0.5883287787437439
-0.9870589971542358 -0.1523772031068802 0.455196738243103
-0.9874876141548157 -0.15208731591701508 0.32206466794013977
-0.9879162907600403 -0.15179742872714996 0.1889325976371765
-0.9883449077606201 -0.15150754153728485 0.055800531059503555
-0.9887735247612 -0.15121765434741974 -0.0773315355181694
-0.9892021417617798 -0.15092776715755463 -0.21046359837055206
-0.9896308183670044 -0.15063786506652832 -0.3435956537723541
-0.9900594353675842 -0.1503479778766632 -0.4767277240753174
-0.9904880523681641 -0.1500580906867981 -0.6098597645759583
-0.9909166693687439 -0.14976820349693298 -0.7429918646812439
-0.9913453459739685 -0.14947831630706787 -0.8761239051818848
-0.9917739629745483 -0.14918842911720276 -1.0092560052871704
-0.9955974221229553 0.04863528907299042 0.9881982207298279
-0.9960260987281799 0.04892517998814583 0.8550661206245422
-0.9964547157287598 0.04921506717801094 0.7219340801239014
-0.9968833327293396 0.04950495809316635 0.5888020396232605
-0.9973120093345642 0.049794845283031464 0.45566996932029724
-0.997740626335144 0.050084736198186874 0.322537899017334
-0.9981692433357239 0.050374627113342285 0.18940582871437073
-0.9985978603363037 0.0506645143032074 0.05627376213669777
-0.9990265369415283 0.05095440521836281 -0.07685829699039459
-0.9994551539421082 0.05124429240822792 -0.20999036729335785
-0.999883770942688 0.05153418332338333 -0.3431224226951599
-1.0003124475479126 0.051824070513248444 -0.47625449299812317
-1.0007410049438477 0.052113961428403854 -0.6093865633010864
-1.0011696815490723 0.05240384861826897 -0.7425186038017273
-1.0015983581542969 0.05269373953342438 -0.8756507039070129
-1.002026915550232 0.05298363044857979 -1.0087827444076538
-0.9649437069892883 0.24873307347297668 0.9885352253913879
-0.9653723239898682 0.2490229606628418 0.8554031848907471
-0.9658010005950928 0.2493128478527069 0.7222710847854614
-0.9662296175956726 0.24960273504257202 0.5891390442848206
-0.9666582345962524 0.24989262223243713 0.4560069739818573
-0.9670868515968323 0.25018250942230225 0.32287490367889404
-0.9675155282020569 0.25047239661216736 0.1897428333759308
-0.9679441452026367 0.25076228380203247 0.056610774248838425
-0.9683727622032166 0.2510521709918976 -0.07652129232883453
-0.9688014388084412 0.2513420879840851 -0.2096533477306366
-0.969230055809021 0.2516319751739502 -0.34278541803359985
-0.9696586728096008 0.2519218623638153 -0.4759174883365631
-0.9700872898101807 0.2522117495536804 -0.6090495586395264
-0.9705159664154053 0.25250163674354553 -0.7421815991401672
-0.9709445834159851 0.25279152393341064 -0.8753136992454529
-0.9713732004165649 0.25308141112327576 -1.0084457397460938
-0.8946382403373718 0.4385645389556885 0.9887222051620483
-0.8950668573379517 0.438854455947876 0.8555901646614075
-0.8954954743385315 0.4391443431377411 0.7224580645561218
-0.8959241509437561 0.4394342303276062 0.589326024055481
-0.8963527679443359 0.4397241175174713 0.4561939537525177
-0.8967813849449158 0.4400140047073364 0.32306188344955444
-0.8972100615501404 0.44030389189720154 0.18992982804775238
-0.8976386785507202 0.44059377908706665 0.05679776892066002
-0.8980672955513 0.44088366627693176 -0.07633429765701294
-0.8984959125518799 0.4411735534667969 -0.209466353058815
-0.8989245891571045 0.441463440656662 -0.34259843826293945
-0.8993532061576843 0.4417533278465271 -0.4757304787635803
-0.8997818231582642 0.4420432150363922 -0.608862578868866
-0.900210440158844 0.4423331022262573 -0.7419946193695068
-0.9006391167640686 0.44262298941612244 -0.8751266598701477
-0.9010677337646484 0.44291290640830994 -1.0082587003707886
-0.7875593304634094 0.6103579998016357 0.9887515306472778
-0.7879879474639893 0.6106479167938232 0.855619490146637
-0.7884165644645691 0.610937774181366 0.7224873900413513
-0.7888452410697937 0.6112276911735535 0.5893553495407104
-0.7892738580703735 0.6115175485610962 0.4562232792377472
-0.7897024750709534 0.6118074655532837 0.32309120893478394
-0.7901310920715332 0.6120973229408264 0.18995915353298187
-0.7905597686767578 0.6123872399330139 0.05682709068059921
-0.7909883856773376 0.6126770973205566 -0.07630497217178345
-0.7914170026779175 0.6129670143127441 -0.2094370424747467
-0.7918456792831421 0.6132569313049316 -0.34256911277770996
-0.7922742962837219 0.6135467886924744 -0.47570115327835083
-0.7927029132843018 0.6138367056846619 -0.6088332533836365
-0.7931315302848816 0.6141265630722046 -0.7419652938842773
-0.7935602068901062 0.6144164800643921 -0.8750973343849182
-0.793988823890686 0.6147063374519348 -1.008229374885559
-0.6480907797813416 0.7570801973342896 0.9886220097541809
-0.6485194563865662 0.757370114326477 0.8554899096488953
-0.648948073387146 0.7576599717140198 0.7223578691482544
-0.6493766903877258 0.7579498887062073 0.5892257690429688
-0.6498053073883057 0.75823974609375 0.4560937285423279
-0.6502339839935303 0.7585296630859375 0.3229616582393646
-0.6506626009941101 0.7588195204734802 0.18982960283756256
-0.6510912179946899 0.7591094374656677 0.0566975362598896
-0.6515198349952698 0.7593992948532104 -0.07643453031778336
-0.6519485116004944 0.759689211845398 -0.20956659317016602
-0.6523771286010742 0.7599790692329407 -0.3426986634731293
-0.652805745601654 0.7602689862251282 -0.47583073377609253
-0.6532344222068787 0.7605589032173157 -0.6089627742767334
-0.6536630392074585 0.7608487606048584 -0.742094874382019
-0.6540916562080383 0.7611386775970459 -0.8752269148826599
-0.6545202732086182 0.7614285349845886 -1.0083589553833008
-0.4819425344467163 0.8727242946624756 0.9883388876914978
-0.48237115144729614 0.8730142116546631 0.8552067875862122
-0.48279979825019836 0.8733040690422058 0.7220747470855713
-0.4832284152507782 0.8735939860343933 0.5889426469802856
-0.4836570620536804 0.873883843421936 0.4558106064796448
-0.48408567905426025 0.8741737604141235 0.3226785361766815
-0.4845143258571625 0.8744636178016663 0.18954648077487946
-0.4849429428577423 0.8747535347938538 0.0564144141972065
-0.48537158966064453 0.8750433921813965 -0.07671764492988586
-0.48580023646354675 0.875333309173584 -0.20984971523284912
-0.4862288534641266 0.8756232261657715 -0.3429817855358124
-0.4866575002670288 0.8759130835533142 -0.47611382603645325
-0.48708611726760864 0.8762030005455017 -0.6092458963394165
-0.48751476407051086 0.8764928579330444 -0.7423779964447021
-0.4879433810710907 0.8767827749252319 -0.875510036945343
-0.4883720278739929 0.8770726323127747 -1.0086420774459839
-0.2959166467189789 0.9525558352470398 0.9879137873649597
-0.2963452637195587 0.9528457522392273 0.8547816872596741
-0.29677391052246094 0.95313560962677 0.7216496467590332
-0.29720252752304077 0.9534255266189575 0.5885175466537476
-0.297631174325943 0.9537153840065002 0.4553855061531067
-0.2980597913265228 0.9540053009986877 0.32225343585014343
-0.29848843812942505 0.9542951583862305 0.18912138044834137
-0.2989170551300049 0.954585075378418 0.05598931387066841
-0.2993457019329071 0.9548749327659607 -0.07714274525642395
-0.29977431893348694 0.9551648497581482 -0.2102748155593872
-0.30020296573638916 0.9554547071456909 -0.34340688586235046
-0.300631582736969 0.9557446241378784 -0.47653892636299133
-0.3010602295398712 0.9560344815254211 -0.6096709966659546
-0.30148884654045105 0.9563243985176086 -0.7428030967712402
-0.30191749334335327 0.9566142559051514 -0.8759351372718811
-0.3023461103439331 0.9569041728973389 -1.009067177772522
-0.09762904047966003 0.9933064579963684 0.9873641133308411
-0.09805767238140106 0.9935963749885559 0.8542320132255554
-0.09848630428314209 0.9938862323760986 0.7210999727249146
-0.09891493618488312 0.9941761493682861 0.5879678726196289
-0.09934356808662415 0.9944660067558289 0.45483583211898804
-0.09977219998836517 0.9947559237480164 0.3217037618160248
-0.1002008318901062 0.9950457811355591 0.18857170641422272
-0.10062946379184723 0.9953356981277466 0.05543963983654976
-0.10105810314416885 0.9956256151199341 -0.0776924267411232
-0.10148673504590988 0.9959154725074768 -0.21082448959350586
-0.10191536694765091 0.9962053894996643 -0.3439565598964691
-0.10234399884939194 0.996495246887207 -0.4770886301994324
-0.10277263075113297 0.9967851638793945 -0.6102206707000732
-0.10320126265287399 0.9970750212669373 -0.7433527708053589
-0.10362989455461502 0.9973649382591248 -0.8764848113059998
-0.10405852645635605 0.9976547956466675 -1.0096168518066406
0.10480234026908875 0.993307888507843 0.9867123365402222
0.10437370836734772 0.9935978055000305 0.8535802960395813
0.10394507646560669 0.9938876628875732 0.7204481959342957
0.10351643711328506 0.9941775798797607 0.5873161554336548
0.10308780521154404 0.9944674372673035 0.45418408513069153
0.10265917330980301 0.994757354259491 0.32105201482772827
0.10223054140806198 0.9950472116470337 0.1879199594259262
0.10180190950632095 0.9953371286392212 0.05478789284825325
0.10137327760457993 0.9956269860267639 -0.07834416627883911
0.1009446457028389 0.9959169030189514 -0.21147623658180237
0.10051601380109787 0.9962067604064941 -0.3446083068847656
0.10008738189935684 0.9964966773986816 -0.4777403473854065
0.09965874254703522 0.9967865943908691 -0.6108724474906921
0.09923011064529419 0.9970764517784119 -0.744004487991333
0.09880147874355316 0.9973663687705994 -0.8771365284919739
0.09837284684181213 0.9976562261581421 -1.0102685689926147
0.3030899465084076 0.9525600075721741 0.9859852194786072
0.30266129970550537 0.9528499245643616 0.8528531193733215
0.30223265290260315 0.9531398415565491 0.7197210788726807
0.3018040359020233 0.9534296989440918 0.5865890383720398
0.3013753890991211 0.9537196159362793 0.45345693826675415
0.30094677209854126 0.954009473323822 0.3203248977661133
0.30051812529563904 0.9542993903160095 0.18719282746315002
0.3000895082950592 0.9545892477035522 0.054060760885477066
0.299660861492157 0.9548791646957397 -0.07907130569219589
0.29923224449157715 0.9551690220832825 -0.21220336854457855
0.2988035976886749 0.95545893907547 -0.3453354239463806
0.2983749806880951 0.9557487964630127 -0.47846749424934387
0.29794633388519287 0.9560387134552002 -0.6115995645523071
0.29751771688461304 0.9563285708427429 -0.744731605052948
0.2970890700817108 0.9566184878349304 -0.8778637051582336
0.296660453081131 0.9569083452224731 -1.0109957456588745
0.489115834236145 0.87273108959198 0.9852124452590942
0.4886871874332428 0.8730210065841675 0.8520804047584534
0.48825857043266296 0.8733108639717102 0.7189483046531677
0.48782992362976074 0.8736007809638977 0.5858162641525269
0.4874013066291809 0.8738906979560852 0.4526841938495636
0.4869726598262787 0.8741805553436279 0.31955212354660034
0.48654404282569885 0.8744704723358154 0.18642006814479828
0.48611539602279663 0.8747603297233582 0.05328800529241562
0.4856867790222168 0.8750502467155457 -0.07984405755996704
0.4852581322193146 0.8753401041030884 -0.2129761278629303
0.48482951521873474 0.8756300210952759 -0.34610819816589355
0.4844008684158325 0.8759198784828186 -0.4792402386665344
0.4839722216129303 0.8762097954750061 -0.6123723387718201
0.48354360461235046 0.8764996528625488 -0.7455043792724609
0.48311495780944824 0.8767895698547363 -0.8786364197731018
0.4826863408088684 0.877079427242279 -1.0117684602737427
0.6552640795707703 0.7570893168449402 0.9844257235527039
0.6548354625701904 0.7573792338371277 0.851293683052063
0.6544068455696106 0.7576690912246704 0.7181615829467773
0.6539782285690308 0.7579590082168579 0.5850295424461365
0.6535495519638062 0.7582489252090454 0.4518974721431732
0.6531209349632263 0.7585387825965881 0.31876540184020996
0.6526923179626465 0.7588286995887756 0.1856333315372467
0.6522637009620667 0.7591185569763184 0.052501268684864044
0.651835024356842 0.7594084739685059 -0.08063079416751862
0.6514064073562622 0.7596983313560486 -0.21376286447048187
0.6509777903556824 0.7599882483482361 -0.34689491987228394
0.6505491137504578 0.7602781057357788 -0.4800269901752472
0.6501204967498779 0.7605680227279663 -0.6131590604782104
0.6496918797492981 0.760857880115509 -0.7462911009788513
0.6492632627487183 0.7611477971076965 -0.879423201084137
0.6488345861434937 0.7614376544952393 -1.0125552415847778
0.7947326302528381 0.610369086265564 0.98365718126297
0.7943040132522583 0.6106590032577515 0.8505251407623291
0.7938753366470337 0.6109488606452942 0.7173931002616882
0.7934467196464539 0.6112387776374817 0.5842610001564026
0.793018102645874 0.6115286350250244 0.4511289596557617
0.7925894856452942 0.6118185520172119 0.31799688935279846
0.7921608090400696 0.6121084690093994 0.1848648190498352
0.7917321920394897 0.6123983263969421 0.051732759922742844
0.7913035750389099 0.6126882433891296 -0.08139930665493011
0.7908749580383301 0.6129781007766724 -0.21453137695789337
0.7904462814331055 0.6132680177688599 -0.34766343235969543
0.7900176644325256 0.6135578751564026 -0.4807955026626587
0.7895890474319458 0.6138477921485901 -0.6139275431632996
0.7891603708267212 0.6141376495361328 -0.7470596432685852
0.7887317538261414 0.6144275665283203 -0.8801916837692261
0.7883031368255615 0.614717423915863 -1.0133237838745117
0.9018115401268005 0.43857714533805847 0.9829384088516235
0.9013829231262207 0.4388670325279236 0.8498063087463379
0.9009542465209961 0.4391569197177887 0.716674268245697
0.9005256295204163 0.4394468069076538 0.5835421681404114
0.9000970125198364 0.4397366940975189 0.4504101276397705
0.8996683955192566 0.44002658128738403 0.31727805733680725
0.899239718914032 0.44031646847724915 0.1841460019350052
0.8988111019134521 0.44060638546943665 0.05101393535733223
0.8983824849128723 0.44089627265930176 -0.08211812376976013
0.8979538679122925 0.44118615984916687 -0.2152501940727234
0.8975251913070679 0.441476047039032 -0.34838226437568665
0.897096574306488 0.4417659342288971 -0.4815143048763275
0.8966679573059082 0.4420558214187622 -0.6146463751792908
0.8962393403053284 0.4423457086086273 -0.7477784752845764
0.8958106637001038 0.44263559579849243 -0.8809105157852173
0.8953820466995239 0.44292548298835754 -1.014042615890503
0.972117006778717 0.24874664843082428 0.9822986721992493
0.9716883897781372 0.2490365356206894 0.8491666316986084
0.9712597727775574 0.2493264228105545 0.7160345315933228
0.9708310961723328 0.2496163249015808 0.5829024910926819
0.9704024791717529 0.24990621209144592 0.44977042078971863
0.9699738621711731 0.25019609928131104 0.31663835048675537
0.9695452451705933 0.25048598647117615 0.1835062950849533
0.9691165685653687 0.25077587366104126 0.05037423223257065
0.9686879515647888 0.25106576085090637 -0.08275783061981201
0.968259334564209 0.2513556480407715 -0.21588990092277527
0.9678307175636292 0.2516455352306366 -0.3490219712257385
0.9674020409584045 0.2519354224205017 -0.4821540117263794
0.9669734239578247 0.2522253096103668 -0.615286111831665
0.9665448069572449 0.25251519680023193 -0.7484181523323059
0.9661161303520203 0.25280511379241943 -0.8815501928329468
0.9656875133514404 0.25309500098228455 -1.0146822929382324
1.0027707815170288 0.04864929988980293 0.9817642569541931
1.0023421049118042 0.048939187079668045 0.8486322164535522
1.0019134283065796 0.049229077994823456 0.7155001759529114
1.0014848709106445 0.04951896890997887 0.5823680758476257
1.00105619430542 0.04980885609984398 0.44923603534698486
1.0006276369094849 0.05009874701499939 0.3161039650440216
1.0001989603042603 0.0503886342048645 0.18297189474105835
0.9997703433036804 0.05067852512001991 0.04983983933925629
0.9993416666984558 0.050968412309885025 -0.08329222351312637
0.998913049697876 0.051258303225040436 -0.21642428636550903
0.9984844326972961 0.05154819041490555 -0.3495563566684723
0.9980558156967163 0.05183808133006096 -0.48268842697143555
0.9976271390914917 0.05212797224521637 -0.6158204674720764
0.9971985220909119 0.05241785943508148 -0.7489525675773621
0.996769905090332 0.05270775035023689 -0.8820846080780029
0.9963412880897522 0.052997637540102005 -1.0152167081832886
0.9925177693367004 -0.15352289378643036 0.9813570976257324
0.9920891523361206 -0.15323300659656525 0.8482249975204468
0.991660475730896 -0.15294311940670013 0.7150929570198059
0.9912318587303162 -0.15265323221683502 0.5819608569145203
0.9908032417297363 -0.1523633450269699 0.4488288164138794
0.9903746247291565 -0.1520734578371048 0.31569674611091614
0.9899459481239319 -0.1517835557460785 0.18256469070911407
0.989517331123352 -0.15149366855621338 0.049432627856731415
0.9890887141227722 -0.15120378136634827 -0.08369943499565125
0.9886600971221924 -0.15091389417648315 -0.2168315052986145
0.9882314205169678 -0.15062400698661804 -0.34996357560157776
0.9878028035163879 -0.15033411979675293 -0.48309561610221863
0.9873741865158081 -0.15004423260688782 -0.6162276864051819
0.9869455695152283 -0.1497543454170227 -0.7493597865104675
0.9865168929100037 -0.1494644433259964 -0.8824918270111084
0.9860882759094238 -0.1491745561361313 -1.015623927116394
0.9417778253555298 -0.34949299693107605 0.98109370470047
0.94134920835495 -0.34920310974121094 0.8479616641998291
0.9409205913543701 -0.3489132225513458 0.7148295640945435
0.9404919147491455 -0.3486233353614807 0.5816975235939026
0.9400632977485657 -0.3483334183692932 0.44856545329093933
0.9396346807479858 -0.3480435311794281 0.31543341279029846
0.939206063747406 -0.347753643989563 0.1823013424873352
0.9387773871421814 -0.3474637567996979 0.04916927218437195
0.9383487701416016 -0.34717386960983276 -0.08396279066801071
0.9379201531410217 -0.34688398241996765 -0.21709485352039337
0.9374914765357971 -0.34659409523010254 -0.35022690892219543
0.9370628595352173 -0.3463042080402374 -0.4833589792251587
0.9366342425346375 -0.3460143208503723 -0.6164910197257996
0.9362056255340576 -0.3457244336605072 -0.7496231198310852
0.935776948928833 -0.3454345464706421 -0.8827551603317261
0.9353483319282532 -0.345144659280777 -1.0158872604370117
0.852628231048584 -0.5312379598617554 0.9809849858283997
0.8521996140480042 -0.5309480428695679 0.8478529453277588
0.8517709970474243 -0.5306581854820251 0.7147209048271179
0.8513423204421997 -0.5303682684898376 0.5815888047218323
0.8509137034416199 -0.5300783514976501 0.4484567642211914
0.85048508644104 -0.5297884941101074 0.31532469391822815
0.8500564694404602 -0.5294985771179199 0.1821926236152649
0.8496277928352356 -0.5292087197303772 0.049060557037591934
0.8491991758346558 -0.5289188027381897 -0.08407150954008102
0.8487705588340759 -0.528628945350647 -0.21720357239246368
0.8483418822288513 -0.5283390283584595 -0.35033562779426575
0.8479132652282715 -0.5280491709709167 -0.483467698097229
0.8474846482276917 -0.5277592539787292 -0.6165997385978699
0.8470560312271118 -0.5274693965911865 -0.7497318387031555
0.8466273546218872 -0.527179479598999 -0.8828638792037964
0.8461987376213074 -0.5268896222114563 -1.015995979309082
0.7287187576293945 -0.691317081451416 0.9810353517532349
0.7282901406288147 -0.6910271644592285 0.847903311252594
0.7278615236282349 -0.6907373070716858 0.7147712707519531
0.727432906627655 -0.6904473900794983 0.5816391706466675
0.7270042300224304 -0.6901575326919556 0.4485071301460266
0.7265756130218506 -0.6898676156997681 0.31537505984306335
0.7261469960212708 -0.6895777583122253 0.1822429895401001
0.7257183790206909 -0.6892878413200378 0.049110930413007736
0.7252897024154663 -0.6889979839324951 -0.08402112871408463
0.7248610854148865 -0.6887080669403076 -0.21715319156646729
0.7244324684143066 -0.6884182095527649 -0.35028526186943054
0.7240038514137268 -0.6881282925605774 -0.4834173321723938
0.7235751748085022 -0.6878383755683899 -0.6165493726730347
0.7231465578079224 -0.6875485181808472 -0.7496814727783203
0.7227179408073425 -0.6872586011886597 -0.8828135132789612
0.7222892642021179 -0.6869687438011169 -1.015945553779602
0.5751223564147949 -0.8231767416000366 0.9812427759170532
0.5746936798095703 -0.8228868842124939 0.8481107354164124
0.5742650628089905 -0.8225969672203064 0.7149786353111267
0.5738364458084106 -0.8223071098327637 0.5818465948104858
0.5734078288078308 -0.8220171928405762 0.4487145245075226
0.5729791522026062 -0.8217272758483887 0.3155824542045593
0.5725505352020264 -0.821437418460846 0.18245039880275726
0.5721219182014465 -0.8211475014686584 0.049318332225084305
0.5716932415962219 -0.8208576440811157 -0.08381372690200806
0.5712646245956421 -0.8205677270889282 -0.2169457972049713
0.5708360075950623 -0.8202778697013855 -0.35007786750793457
0.5704073905944824 -0.819987952709198 -0.48320990800857544
0.5699787139892578 -0.8196980953216553 -0.6163420081138611
0.569550096988678 -0.8194081783294678 -0.749474048614502
0.5691214799880981 -0.819118320941925 -0.8826060891151428
0.5686928629875183 -0.8188284039497375 -1.0157381296157837
0.39812713861465454 -0.9214186072349548 0.9815987348556519
0.3976985216140747 -0.9211287498474121 0.8484666347503662
0.3972698748111725 -0.9208388328552246 0.7153345942497253
0.39684122800827026 -0.9205489158630371 0.5822025537490845
0.39641261100769043 -0.9202590584754944 0.44907045364379883
0.3959839642047882 -0.9199691414833069 0.31593841314315796
0.3955553472042084 -0.9196792840957642 0.1828063279390335
0.39512670040130615 -0.9193893671035767 0.049674272537231445
0.3946980834007263 -0.9190995097160339 -0.08345779031515121
0.3942694365978241 -0.9188095927238464 -0.21658985316753387
0.39384081959724426 -0.9185197353363037 -0.34972190856933594
0.39341217279434204 -0.9182298183441162 -0.4828539788722992
0.3929835557937622 -0.9179399609565735 -0.6159860491752625
0.39255490899086 -0.917650043964386 -0.7491180896759033
0.39212629199028015 -0.9173601865768433 -0.882250189781189
0.39169764518737793 -0.9170702695846558 -1.0153822898864746
0.20497941970825195 -0.9820206165313721 0.9820886254310608
0.20455078780651093 -0.9817307591438293 0.8489565849304199
0.2041221559047699 -0.9814408421516418 0.7158244848251343
0.20369352400302887 -0.9811509847640991 0.5826924443244934
0.20326489210128784 -0.9808610677719116 0.44956037402153015
0.20283626019954681 -0.9805711507797241 0.3164283037185669
0.2024076133966446 -0.9802812933921814 0.18329623341560364
0.20197898149490356 -0.9799913763999939 0.05016417056322098
0.20155034959316254 -0.9797015190124512 -0.08296789228916168
0.2011217176914215 -0.9794116020202637 -0.21609996259212494
0.20069308578968048 -0.979121744632721 -0.349232017993927
0.20026445388793945 -0.9788318276405334 -0.48236408829689026
0.19983582198619843 -0.9785419702529907 -0.6154961585998535
0.1994071900844574 -0.9782520532608032 -0.7486281991004944
0.19897855818271637 -0.9779621958732605 -0.88176029920578
0.19854992628097534 -0.977672278881073 -1.014892339706421
0.0035866498947143555 -1.0025017261505127 0.9826924204826355
0.0031580172944813967 -1.0022118091583252 0.8495603799819946
0.0027293844614177942 -1.0019220113754272 0.716428279876709
0.0023007518611848354 -1.0016320943832397 0.5832962393760681
0.0018721191445365548 -1.0013421773910522 0.45016416907310486
0.001443486544303596 -1.0010522603988647 0.3170320987701416
0.0010148538276553154 -1.0007624626159668 0.18390004336833954
0.0005862211692146957 -1.0004725456237793 0.05076798051595688
0.0001575884671183303 -1.0001826286315918 -0.08236408233642578
-0.00027104420587420464 -0.9998927116394043 -0.21549615263938904
-0.0006996768643148243 -0.9996028542518616 -0.3486282229423523
-0.001128309522755444 -0.9993129372596741 -0.48176026344299316
-0.0015569422394037247 -0.9990230798721313 -0.6148923635482788
-0.0019855748396366835 -0.9987331628799438 -0.7480244040489197
-0.002414207672700286 -0.9984433054924011 -0.8811564445495605
-0.0028428402729332447 -0.9981533885002136 -1.0142885446548462
