ply
format ascii 1.0
element vertex 512
property float x
property float y
property float z
end_header
0.923182487487793 1.7205456495285034 -1.4186108112335205
0.9219846129417419 1.7355732917785645 -1.1344867944717407
0.9207866787910461 1.750601053237915 -0.8503628373146057
0.9195888042449951 1.765628695487976 -0.5662388205528259
0.9183909296989441 1.7806564569473267 -0.28211483359336853
0.9171929955482483 1.7956842184066772 0.002009137300774455
0.9159951210021973 1.8107118606567383 0.2861331105232239
0.9147972464561462 1.8257396221160889 0.5702571272850037
0.9135993123054504 1.84076726436615 0.8543810844421387
0.9124014377593994 1.8557950258255005 1.1385051012039185
0.9112035036087036 1.870822787284851 1.4226289987564087
0.9100056290626526 1.885850429534912 1.7067530155181885
0.9088077545166016 1.9008781909942627 1.9908770322799683
0.9076098203659058 1.9159059524536133 2.275001049041748
0.9064119458198547 1.9309335947036743 2.5591249465942383
0.9052140712738037 1.945961356163025 2.8432490825653076
0.5494115948677063 1.6825064420700073 -1.4181747436523438
0.5482136607170105 1.6975340843200684 -1.134050726890564
0.5470157861709595 1.712561845779419 -0.8499267101287842
0.5458179116249084 1.7275896072387695 -0.5658027529716492
0.5446199774742126 1.7426172494888306 -0.2816787660121918
0.5434221029281616 1.7576450109481812 0.00244522700086236
0.5422242283821106 1.7726726531982422 0.286569207906723
0.5410262942314148 1.7877004146575928 0.5706931948661804
0.5398284196853638 1.8027281761169434 0.8548171520233154
0.538630485534668 1.8177558183670044 1.1389411687850952
0.5374326109886169 1.832783579826355 1.423065185546875
0.5362347364425659 1.8478113412857056 1.7071890830993652
0.5350368022918701 1.8628389835357666 1.991313099861145
0.5338389277458191 1.8778667449951172 2.275437116622925
0.5326410531997681 1.8928943872451782 2.559561014175415
0.5314431190490723 1.9079221487045288 2.8436851501464844
0.1909428834915161 1.5701124668121338 -1.4137413501739502
0.1897449940443039 1.5851401090621948 -1.1296173334121704
0.18854708969593048 1.6001678705215454 -0.8454933762550354
0.18734920024871826 1.6151955127716064 -0.5613694190979004
0.18615129590034485 1.630223274230957 -0.277245432138443
0.18495340645313263 1.6452510356903076 0.0068785627372562885
0.18375550210475922 1.6602786779403687 0.2910025417804718
0.182557612657547 1.6753064393997192 0.5751265287399292
0.18135972321033478 1.6903340816497803 0.8592504858970642
0.18016181886196136 1.7053618431091309 1.1433744430541992
0.17896392941474915 1.7203896045684814 1.427498459815979
0.17776602506637573 1.7354172468185425 1.7116224765777588
0.1765681356191635 1.750445008277893 1.9957464933395386
0.1753702461719513 1.7654727697372437 2.2798705101013184
0.17417234182357788 1.7805004119873047 2.5639944076538086
0.17297445237636566 1.7955281734466553 2.848118305206299
-0.1375478357076645 1.3879650831222534 -1.4054923057556152
-0.1387457251548767 1.4029927253723145 -1.1213682889938354
-0.13994362950325012 1.418020486831665 -0.8372443318367004
-0.14114151895046234 1.433048129081726 -0.5531203150749207
-0.14233940839767456 1.4480758905410767 -0.26899632811546326
-0.14353731274604797 1.4631036520004272 0.015127643011510372
-0.1447352021932602 1.4781312942504883 0.29925161600112915
-0.1459331065416336 1.4931590557098389 0.5833756327629089
-0.14713099598884583 1.5081866979599 0.867499589920044
-0.14832888543605804 1.5232144594192505 1.1516236066818237
-0.14952678978443146 1.538242220878601 1.435747504234314
-0.15072467923164368 1.553269863128662 1.7198715209960938
-0.1519225835800171 1.5682976245880127 2.003995418548584
-0.1531204730272293 1.5833253860473633 2.2881195545196533
-0.15431837737560272 1.5983530282974243 2.5722434520721436
-0.15551626682281494 1.613380789756775 2.856367588043213
-0.42261213064193726 1.1435214281082153 -1.3937652111053467
-0.4238100051879883 1.1585490703582764 -1.109641194343567
-0.4250079095363617 1.173576831817627 -0.8255171775817871
-0.4262058138847351 1.1886045932769775 -0.5413932204246521
-0.4274037182331085 1.2036322355270386 -0.2572692334651947
-0.42860159277915955 1.2186599969863892 0.026854749768972397
-0.42979949712753296 1.2336876392364502 0.3109787404537201
-0.43099740147590637 1.2487154006958008 0.5951027274131775
-0.4321952760219574 1.2637431621551514 0.8792266845703125
-0.4333931803703308 1.2787708044052124 1.1633507013320923
-0.4345910847187042 1.293798565864563 1.447474718093872
-0.43578895926475525 1.308826208114624 1.7315986156463623
-0.43698686361312866 1.3238539695739746 2.0157227516174316
-0.4381847679615021 1.3388817310333252 2.299846649169922
-0.4393826723098755 1.3539093732833862 2.583970546722412
-0.4405805468559265 1.3689371347427368 2.8680946826934814
-0.6525794267654419 0.8467890620231628 -1.3790401220321655
-0.6537773013114929 0.8618167638778687 -1.0949161052703857
-0.6549752354621887 0.8768444657325745 -0.8107921481132507
-0.6561731100082397 0.8918721675872803 -0.5266681909561157
-0.6573709845542908 0.9068999290466309 -0.24254420399665833
-0.6585689187049866 0.9219276309013367 0.041579775512218475
-0.6597667932510376 0.9369553327560425 0.32570376992225647
-0.6609646677970886 0.9519830346107483 0.6098277568817139
-0.6621626019477844 0.9670107960700989 0.8939517140388489
-0.6633604764938354 0.9820384979248047 1.1780756711959839
-0.6645583510398865 0.9970661997795105 1.4621996879577637
-0.6657562851905823 1.0120939016342163 1.7463237047195435
-0.6669541597366333 1.027121663093567 2.0304477214813232
-0.6681520938873291 1.042149305343628 2.3145716190338135
-0.6693499684333801 1.0571770668029785 2.5986955165863037
-0.6705478429794312 1.072204828262329 2.882819652557373
-0.818034827709198 0.5099162459373474 -1.3619199991226196
-0.8192327618598938 0.524944007396698 -1.0777961015701294
-0.8204306364059448 0.5399717092514038 -0.7936720848083496
-0.8216285109519958 0.5549994111061096 -0.5095480680465698
-0.8228264451026917 0.5700271129608154 -0.22542411088943481
-0.8240243196487427 0.585054874420166 0.058699872344732285
-0.8252221941947937 0.6000825762748718 0.34282386302948
-0.8264201283454895 0.6151102781295776 0.626947820186615
-0.8276180028915405 0.6301379799842834 0.9110718369483948
-0.8288158774375916 0.6451656818389893 1.1951957941055298
-0.8300138115882874 0.6601934432983398 1.4793198108673096
-0.8312116861343384 0.6752211451530457 1.7634438276290894
-0.8324096202850342 0.6902488470077515 2.047567844390869
-0.8336074948310852 0.7052765488624573 2.3316917419433594
-0.8348053693771362 0.7203043103218079 2.6158156394958496
-0.836003303527832 0.7353320121765137 2.899939775466919
-0.9122046232223511 0.14669464528560638 -1.3431057929992676
-0.9134024977684021 0.1617223620414734 -1.0589817762374878
-0.9146004319190979 0.1767500787973404 -0.7748578190803528
-0.9157983064651489 0.1917777955532074 -0.4907338321208954
-0.9169961810112 0.2068055123090744 -0.206609845161438
-0.9181941151618958 0.2218332290649414 0.07751414179801941
-0.9193919897079468 0.2368609458208084 0.3616381287574768
-0.9205899238586426 0.2518886625766754 0.6457620859146118
-0.9217877984046936 0.2669163644313812 0.9298861026763916
-0.9229856729507446 0.2819440960884094 1.2140101194381714
-0.9241836071014404 0.29697179794311523 1.4981340169906616
-0.9253814816474915 0.31199952960014343 1.7822580337524414
-0.9265793561935425 0.32702723145484924 2.0663819313049316
-0.9277772903442383 0.34205496311187744 2.350506067276001
-0.9289751648902893 0.35708266496658325 2.634629964828491
-0.9301730394363403 0.37211039662361145 2.9187538623809814
-0.9312334656715393 -0.22800546884536743 -1.3233675956726074
-0.9324313402175903 -0.21297775208950043 -1.0392435789108276
-0.9336292147636414 -0.19795003533363342 -0.7551196217536926
-0.9348271489143372 -0.18292231857776642 -0.47099563479423523
-0.9360250234603882 -0.16789460182189941 -0.18687164783477783
-0.9372228980064392 -0.1528668850660324 0.09725233167409897
-0.938420832157135 -0.1378391683101654 0.38137632608413696
-0.939618706703186 -0.1228114515542984 0.665500283241272
-0.9408165812492371 -0.1077837347984314 0.9496243000030518
-0.9420145153999329 -0.09275601804256439 1.2337483167648315
-0.9432123899459839 -0.07772830128669739 1.5178722143173218
-0.9444103240966797 -0.06270059198141098 1.8019962310791016
-0.9456081986427307 -0.04767287150025368 2.086120128631592
-0.9468060731887817 -0.03264515474438667 2.370244264602661
-0.9480040073394775 -0.017617439851164818 2.6543681621551514
-0.9492018818855286 -0.0025897242594510317 2.9384920597076416
-0.8743422627449036 -0.5988438129425049 -1.303513526916504
-0.8755401372909546 -0.5838161110877991 -1.0193896293640137
-0.8767380714416504 -0.5687883496284485 -0.7352656126022339
-0.8779359459877014 -0.5537606477737427 -0.4511416256427765
-0.8791338205337524 -0.5387329459190369 -0.1670176386833191
-0.8803317546844482 -0.523705244064331 0.1171063482761383
-0.8815296292304993 -0.5086774826049805 0.4012303352355957
-0.8827275037765503 -0.49364981055259705 0.6853542923927307
-0.8839254379272461 -0.47862207889556885 0.9694783091545105
-0.8851233124732971 -0.46359437704086304 1.2536022663116455
-0.8863211870193481 -0.44856664538383484 1.5377262830734253
-0.887519121170044 -0.43353894352912903 1.821850299835205
-0.888716995716095 -0.41851121187210083 2.1059741973876953
-0.889914870262146 -0.403483510017395 2.3900983333587646
-0.8911128044128418 -0.3884557783603668 2.674222230911255
-0.8923106789588928 -0.373428076505661 2.958346128463745
-0.7438601851463318 -0.9506382346153259 -1.2843565940856934
-0.7450580596923828 -0.9356104731559753 -1.0002325773239136
-0.7462559938430786 -0.9205827713012695 -0.7161085605621338
-0.7474538683891296 -0.9055550694465637 -0.4319846034049988
-0.7486518025398254 -0.8905273675918579 -0.14786061644554138
-0.7498496770858765 -0.8754996657371521 0.13626337051391602
-0.7510475516319275 -0.8604719042778015 0.4203873574733734
-0.7522454857826233 -0.8454442024230957 0.7045113444328308
-0.7534433603286743 -0.8304165005683899 0.9886353015899658
-0.7546412348747253 -0.8153887987136841 1.2727593183517456
-0.7558391690254211 -0.8003610372543335 1.5568833351135254
-0.7570370435714722 -0.7853333353996277 1.8410072326660156
-0.7582349181175232 -0.7703056335449219 2.125131368637085
-0.759432852268219 -0.7552779316902161 2.409255266189575
-0.76063072681427 -0.7402501702308655 2.6933791637420654
-0.761828601360321 -0.7252224683761597 2.9775032997131348
-0.5451291799545288 -1.2689862251281738 -1.2666808366775513
-0.5463271141052246 -1.2539584636688232 -0.9825568199157715
-0.5475249886512756 -1.2389307022094727 -0.6984328627586365
-0.5487228631973267 -1.2239030599594116 -0.4143088459968567
-0.5499207973480225 -1.208875298500061 -0.13018487393856049
-0.5511186718940735 -1.19384765625 0.1539391130208969
-0.5523166060447693 -1.1788198947906494 0.4380630850791931
-0.5535144805908203 -1.1637921333312988 0.7221871018409729
-0.5547123551368713 -1.1487644910812378 1.006311058998108
-0.5559102892875671 -1.1337367296218872 1.2904350757598877
-0.5571081638336182 -1.1187089681625366 1.574558973312378
-0.5583060383796692 -1.1036813259124756 1.8586829900741577
-0.559503972530365 -1.088653564453125 2.1428070068359375
-0.560701847076416 -1.073625922203064 2.4269309043884277
-0.561899721622467 -1.0585981607437134 2.711055040359497
-0.5630976557731628 -1.0435703992843628 2.9951789379119873
-0.2862853705883026 -1.540854573249817 -1.2512099742889404
-0.287483274936676 -1.5258268117904663 -0.9670860171318054
-0.28868114948272705 -1.5107990503311157 -0.6829620003700256
-0.28987905383110046 -1.4957714080810547 -0.3988380432128906
-0.2910769581794739 -1.480743646621704 -0.11471405625343323
-0.2922748327255249 -1.4657158851623535 0.16940993070602417
-0.2934727370738983 -1.4506882429122925 0.45353391766548157
-0.29467064142227173 -1.435660481452942 0.737657904624939
-0.29586851596832275 -1.4206328392028809 1.0217819213867188
-0.29706642031669617 -1.4056050777435303 1.305905818939209
-0.2982643246650696 -1.3905773162841797 1.5900298357009888
-0.299462229013443 -1.3755496740341187 1.8741538524627686
-0.300660103559494 -1.360521912574768 2.158277750015259
-0.30185800790786743 -1.3454941511154175 2.442401885986328
-0.30305591225624084 -1.3304665088653564 2.7265257835388184
-0.30425378680229187 -1.3154387474060059 3.0106496810913086
0.022074230015277863 -1.755112886428833 -1.2385774850845337
0.020876334980130196 -1.7400851249694824 -0.9544535279273987
0.01967843994498253 -1.7250574827194214 -0.6703295111656189
0.018480543047189713 -1.7100297212600708 -0.3862055540084839
0.017282648012042046 -1.6950019598007202 -0.10208155959844589
0.01608475297689438 -1.6799743175506592 0.1820424199104309
0.014886857010424137 -1.6649465560913086 0.4661664068698883
0.013688961043953896 -1.6499189138412476 0.7502903938293457
0.012491065077483654 -1.634891152381897 1.0344144105911255
0.011293170042335987 -1.6198633909225464 1.3185383081436157
0.010095274075865746 -1.6048357486724854 1.6026623249053955
0.008897378109395504 -1.5898079872131348 1.8867863416671753
0.00769948260858655 -1.5747803449630737 2.170910358428955
0.0065015871077775955 -1.5597525835037231 2.4550342559814453
0.005303691606968641 -1.5447248220443726 2.7391583919525146
0.004105796106159687 -1.5296971797943115 3.023282289505005
0.3673253059387207 -1.9029895067214966 -1.2293004989624023
0.3661274015903473 -1.887961745262146 -0.9451764822006226
0.36492952704429626 -1.872934103012085 -0.6610525250434875
0.36373162269592285 -1.8579063415527344 -0.37692853808403015
0.36253371834754944 -1.8428786993026733 -0.09280454367399216
0.361335813999176 -1.8278509378433228 0.19131943583488464
0.360137939453125 -1.8128231763839722 0.47544342279434204
0.3589400351047516 -1.7977955341339111 0.759567379951477
0.3577421307563782 -1.7827677726745605 1.0436913967132568
0.35654425621032715 -1.7677401304244995 1.3278154134750366
0.35534635186195374 -1.752712368965149 1.6119393110275269
0.3541484475135803 -1.7376846075057983 1.8960633277893066
0.3529505431652069 -1.7226569652557373 2.180187225341797
0.3517526686191559 -1.7076292037963867 2.464311361312866
0.35055476427078247 -1.6926014423370361 2.7484352588653564
0.34935685992240906 -1.677573800086975 3.032559394836426
0.735333263874054 -1.9784303903579712 -1.2237586975097656
0.7341353297233582 -1.9634026288986206 -0.9396347403526306
0.7329374551773071 -1.94837486743927 -0.6555107831954956
0.7317395210266113 -1.933347225189209 -0.3713867962360382
0.7305416464805603 -1.9183194637298584 -0.08726280927658081
0.7293437719345093 -1.9032917022705078 0.1968611776828766
0.7281458377838135 -1.8882640600204468 0.480985164642334
0.7269479632377625 -1.8732362985610962 0.765109121799469
0.7257500886917114 -1.8582086563110352 1.049233078956604
0.7245521545410156 -1.8431808948516846 1.3333570957183838
0.7233542799949646 -1.828153133392334 1.6174811124801636
0.7221564054489136 -1.813125491142273 1.9016051292419434
0.7209584712982178 -1.7980977296829224 2.1857290267944336
0.7197605967521667 -1.7830700874328613 2.469852924346924
0.7185627222061157 -1.7680423259735107 2.753977060317993
0.7173647880554199 -1.7530145645141602 3.0381009578704834
1.1110317707061768 -1.978346824645996 -1.2221791744232178
1.109833836555481 -1.9633190631866455 -0.9380552172660828
1.1086359024047852 -1.9482914209365845 -0.653931200504303
1.107438087463379 -1.9332636594772339 -0.36980724334716797
1.106240153312683 -1.9182358980178833 -0.08568324893712997
1.1050422191619873 -1.9032082557678223 0.19844073057174683
1.103844404220581 -1.8881804943084717 0.4825647175312042
1.1026464700698853 -1.873152732849121 0.7666887044906616
1.1014485359191895 -1.85812509059906 1.0508127212524414
1.1002507209777832 -1.8430973291397095 1.3349366188049316
1.0990527868270874 -1.8280696868896484 1.6190606355667114
1.0978548526763916 -1.8130419254302979 1.9031846523284912
1.0966570377349854 -1.7980141639709473 2.1873085498809814
1.0954591035842896 -1.7829865217208862 2.471432685852051
1.0942611694335938 -1.7679587602615356 2.755556583404541
1.0930633544921875 -1.752930998802185 3.0396804809570312
1.4790396690368652 -1.9027422666549683 -1.2246264219284058
1.4778417348861694 -1.8877146244049072 -0.9405024647712708
1.4766439199447632 -1.8726868629455566 -0.6563785076141357
1.4754459857940674 -1.857659101486206 -0.37225449085235596
1.4742480516433716 -1.842631459236145 -0.08813051879405975
1.4730502367019653 -1.8276036977767944 0.19599346816539764
1.4718523025512695 -1.8125760555267334 0.48011744022369385
1.4706543684005737 -1.7975482940673828 0.7642414569854736
1.4694565534591675 -1.7825205326080322 1.0483654737472534
1.4682586193084717 -1.7674928903579712 1.3324893712997437
1.4670606851577759 -1.7524651288986206 1.6166133880615234
1.4658628702163696 -1.73743736743927 1.9007374048233032
1.4646649360656738 -1.722409725189209 2.184861421585083
1.463467001914978 -1.7073819637298584 2.4689853191375732
1.4622691869735718 -1.6923543214797974 2.7531092166900635
1.461071252822876 -1.6773265600204468 3.037233352661133
1.8242907524108887 -1.7547121047973633 -1.231000304222107
1.8230928182601929 -1.7396843433380127 -0.9468764066696167
1.8218950033187866 -1.7246567010879517 -0.6627523899078369
1.8206970691680908 -1.709628939628601 -0.3786284029483795
1.819499135017395 -1.69460129737854 -0.09450442343950272
1.8183013200759888 -1.6795735359191895 0.18961955606937408
1.817103385925293 -1.6645457744598389 0.4737435281276703
1.8159054517745972 -1.6495181322097778 0.7578675150871277
1.814707636833191 -1.6344903707504272 1.0419914722442627
1.8135097026824951 -1.6194627285003662 1.3261154890060425
1.8123117685317993 -1.6044349670410156 1.6102395057678223
1.8111138343811035 -1.589407205581665 1.8943634033203125
1.8099160194396973 -1.574379563331604 2.178487539291382
1.8087180852890015 -1.5593518018722534 2.462611436843872
1.8075201511383057 -1.5443240404129028 2.7467353343963623
1.8063223361968994 -1.5292963981628418 3.0308594703674316
2.132650375366211 -1.5403165817260742 -1.2410399913787842
2.1314525604248047 -1.5252889394760132 -0.9569159746170044
2.1302545070648193 -1.5102611780166626 -0.6727920174598694
2.129056692123413 -1.495233416557312 -0.3886680006980896
2.1278586387634277 -1.480205774307251 -0.1045440286397934
2.1266608238220215 -1.4651780128479004 0.179579958319664
2.1254630088806152 -1.4501503705978394 0.4637039303779602
2.12426495552063 -1.4351226091384888 0.74782794713974
2.1230671405792236 -1.4200948476791382 1.031951904296875
2.1218693256378174 -1.4050672054290771 1.3160759210586548
2.120671272277832 -1.3900394439697266 1.600199818611145
2.119473457336426 -1.375011682510376 1.8843238353729248
2.1182756423950195 -1.359984040260315 2.168447732925415
2.117077589035034 -1.3449562788009644 2.4525718688964844
2.115879774093628 -1.3299286365509033 2.7366957664489746
2.1146819591522217 -1.3149008750915527 3.020819902420044
2.3914942741394043 -1.2683331966400146 -1.2543342113494873
2.390296220779419 -1.253305435180664 -0.9702102541923523
2.3890984058380127 -1.2382776737213135 -0.6860862970352173
2.3879005908966064 -1.2232500314712524 -0.4019622802734375
2.386702537536621 -1.2082222700119019 -0.1178383082151413
2.385504722595215 -1.1931946277618408 0.1662856787443161
2.3843069076538086 -1.1781668663024902 0.4504096508026123
2.3831088542938232 -1.1631391048431396 0.7345336675643921
2.381911039352417 -1.1481114625930786 1.0186576843261719
2.3807132244110107 -1.133083701133728 1.302781581878662
2.3795151710510254 -1.118056058883667 1.586905598640442
2.378317356109619 -1.1030282974243164 1.8710296154022217
2.377119541168213 -1.0880005359649658 2.155153512954712
2.3759214878082275 -1.0729728937149048 2.4392776489257812
2.3747236728668213 -1.0579451322555542 2.7234015464782715
2.373525857925415 -1.0429173707962036 3.0075254440307617
2.5902252197265625 -0.9498968124389648 -1.2703388929367065
2.589027166366577 -0.934869110584259 -0.9862149357795715
2.587829351425171 -0.9198413491249084 -0.7020909190177917
2.5866315364837646 -0.9048136472702026 -0.41796696186065674
2.5854334831237793 -0.8897859454154968 -0.13384297490119934
2.584235668182373 -0.874758243560791 0.15028099715709686
2.583037853240967 -0.8597304821014404 0.43440499901771545
2.5818397998809814 -0.8447027802467346 0.7185289859771729
2.580641984939575 -0.8296750783920288 1.0026530027389526
2.579444169998169 -0.814647376537323 1.2867769002914429
2.5782461166381836 -0.7996196746826172 1.5709009170532227
2.5770483016967773 -0.7845919132232666 1.8550249338150024
2.575850486755371 -0.7695642113685608 2.1391489505767822
2.5746524333953857 -0.754536509513855 2.4232728481292725
2.5734546184539795 -0.7395088076591492 2.7073967456817627
2.5722568035125732 -0.7244810461997986 2.991520881652832
2.7207071781158447 -0.5980443358421326 -1.2883987426757812
2.7195093631744385 -0.5830166339874268 -1.0042747259140015
2.7183115482330322 -0.567988932132721 -0.7201507687568665
2.717113494873047 -0.5529612302780151 -0.43602681159973145
2.7159156799316406 -0.5379335284233093 -0.15190282464027405
2.7147178649902344 -0.5229057669639587 0.13222116231918335
2.713519811630249 -0.5078780651092529 0.41634514927864075
2.7123219966888428 -0.4928503632545471 0.7004691362380981
2.7111241817474365 -0.4778226315975189 0.9845930933952332
2.709926128387451 -0.4627949297428131 1.2687170505523682
2.708728313446045 -0.4477671980857849 1.552841067314148
2.7075302600860596 -0.4327394962310791 1.8369650840759277
2.7063324451446533 -0.4177117645740509 2.121088981628418
2.705134630203247 -0.4026840627193451 2.4052131175994873
2.7039365768432617 -0.3876563310623169 2.6893370151519775
2.7027387619018555 -0.3726286292076111 2.9734609127044678
2.7775983810424805 -0.22718071937561035 -1.3077744245529175
2.776400566101074 -0.21215300261974335 -1.0236504077911377
2.775202512741089 -0.19712528586387634 -0.7395264506340027
2.7740046977996826 -0.18209756910800934 -0.4554024338722229
2.7728068828582764 -0.16706985235214233 -0.1712784618139267
2.771608829498291 -0.15204213559627533 0.1128455176949501
2.7704110145568848 -0.13701441884040833 0.3969694972038269
2.7692131996154785 -0.12198670953512192 0.6810935139656067
2.768015146255493 -0.10695899277925491 0.9652174711227417
2.766817331314087 -0.09193127602338791 1.2493414878845215
2.7656195163726807 -0.0769035592675209 1.5334653854370117
2.7644214630126953 -0.0618758425116539 1.8175894021987915
2.763223648071289 -0.046848125755786896 2.1017134189605713
2.762025833129883 -0.03182040899991989 2.3858373165130615
2.7608277797698975 -0.016792694106698036 2.669961452484131
2.759629964828491 -0.00176497851498425 2.954085350036621
2.7585697174072266 0.14751093089580536 -1.3276726007461548
2.757371664047241 0.16253864765167236 -1.043548583984375
2.756173849105835 0.17756636440753937 -0.75942462682724
2.7549760341644287 0.19259408116340637 -0.4753006398677826
2.7537779808044434 0.20762179791927338 -0.1911766529083252
2.752580165863037 0.22264951467514038 0.0929473266005516
2.7513821125030518 0.23767723143100739 0.3770713210105896
2.7501842975616455 0.2527049481868744 0.6611952781677246
2.7489864826202393 0.2677326500415802 0.9453192949295044
2.747788429260254 0.2827603816986084 1.2294433116912842
2.7465906143188477 0.2977880835533142 1.5135672092437744
2.7453927993774414 0.3128158152103424 1.7976912260055542
2.744194746017456 0.3278435170650482 2.081815242767334
2.74299693107605 0.3428712487220764 2.365939140319824
2.7417991161346436 0.3578989505767822 2.6500632762908936
2.740601062774658 0.3729266822338104 2.934187173843384
2.6643998622894287 0.5106906890869141 -1.3472787141799927
2.6632018089294434 0.5257183909416199 -1.063154697418213
2.662003993988037 0.5407460927963257 -0.7790307402610779
2.660806179046631 0.5557737946510315 -0.4949067533016205
2.6596081256866455 0.5708015561103821 -0.21078276634216309
2.6584103107452393 0.5858292579650879 0.07334121316671371
2.657212495803833 0.6008569598197937 0.3574652075767517
2.6560144424438477 0.6158846616744995 0.6415891647338867
2.6548166275024414 0.6309124231338501 0.9257131814956665
2.653618812561035 0.6459401249885559 1.2098371982574463
2.65242075920105 0.6609678268432617 1.4939610958099365
2.6512229442596436 0.6759955286979675 1.7780851125717163
2.6500251293182373 0.6910232305526733 2.062209129333496
2.648827075958252 0.7060509920120239 2.3463330268859863
2.6476292610168457 0.7210786938667297 2.6304571628570557
2.6464314460754395 0.7361063957214355 2.914581060409546
2.4989442825317383 0.8474898338317871 -1.3657900094985962
2.497746467590332 0.8625175952911377 -1.081666111946106
2.496548652648926 0.8775452971458435 -0.7975420951843262
2.4953505992889404 0.8925729990005493 -0.5134181380271912
2.494152784347534 0.9076007008552551 -0.22929413616657257
2.492954969406128 0.9226284623146057 0.05482985079288483
2.4917569160461426 0.9376561641693115 0.33895382285118103
2.4905591011047363 0.9526838660240173 0.6230778098106384
2.48936128616333 0.9677115678787231 0.9072018265724182
2.4881632328033447 0.9827393293380737 1.1913257837295532
2.4869654178619385 0.9977670311927795 1.475449800491333
2.4857676029205322 1.0127947330474854 1.7595736980438232
2.484569549560547 1.027822494506836 2.0436978340148926
2.4833717346191406 1.042850136756897 2.327821731567383
2.4821739196777344 1.0578778982162476 2.611945629119873
2.480975866317749 1.0729056596755981 2.8960697650909424
2.268977165222168 1.1441199779510498 -1.3824487924575806
2.2677791118621826 1.1591476202011108 -1.0983247756958008
2.2665812969207764 1.1741753816604614 -0.8142008185386658
2.26538348197937 1.1892030239105225 -0.5300768613815308
2.2641854286193848 1.204230785369873 -0.24595287442207336
2.2629876136779785 1.2192585468292236 0.038171105086803436
2.2617897987365723 1.2342861890792847 0.32229509949684143
2.260591745376587 1.2493139505386353 0.6064190864562988
2.2593939304351807 1.2643417119979858 0.8905430436134338
2.2581961154937744 1.2793693542480469 1.1746670007705688
2.256998062133789 1.2943971157073975 1.4587910175323486
2.255800247192383 1.3094247579574585 1.7429150342941284
2.2546024322509766 1.324452519416809 2.027039051055908
2.253404378890991 1.3394802808761597 2.3111629486083984
2.252206563949585 1.3545079231262207 2.5952868461608887
2.2510087490081787 1.3695356845855713 2.879410982131958
1.9839128255844116 1.3884367942810059 -1.3965729475021362
1.9827148914337158 1.4034645557403564 -1.1124489307403564
1.98151695728302 1.4184921979904175 -0.8283249735832214
1.9803191423416138 1.433519959449768 -0.5442009568214417
1.979121208190918 1.448547601699829 -0.26007699966430664
1.9779232740402222 1.4635753631591797 0.024046985432505608
1.976725459098816 1.4786031246185303 0.30817097425460815
1.9755275249481201 1.4936307668685913 0.5922949314117432
1.9743295907974243 1.508658528327942 0.876418948173523
1.973131775856018 1.523686170578003 1.1605429649353027
1.9719338417053223 1.5387139320373535 1.444666862487793
1.9707359075546265 1.553741693496704 1.7287908792495728
1.9695380926132202 1.5687693357467651 2.0129148960113525
1.9683401584625244 1.5837970972061157 2.2970387935638428
1.9671422243118286 1.5988248586654663 2.581162929534912
1.9659444093704224 1.6138525009155273 2.8652868270874023
1.6554220914840698 1.570438027381897 -1.4075841903686523
1.654224157333374 1.5854657888412476 -1.1234601736068726
1.6530263423919678 1.6004935503005981 -0.8393362164497375
1.651828408241272 1.6155211925506592 -0.5552122592926025
1.6506304740905762 1.6305489540100098 -0.27108824253082275
1.64943265914917 1.6455765962600708 0.013035731390118599
1.6482347249984741 1.6606043577194214 0.29715970158576965
1.6470367908477783 1.675632119178772 0.581283688545227
1.645838975906372 1.690659761428833 0.8654077053070068
1.6446410417556763 1.7056875228881836 1.1495317220687866
1.6434431076049805 1.7207152843475342 1.4336556196212769
1.6422452926635742 1.7357429265975952 1.7177796363830566
1.6410473585128784 1.7507706880569458 2.001903533935547
1.6398494243621826 1.7657983303070068 2.286027669906616
1.6386516094207764 1.7808260917663574 2.5701515674591064
1.6374536752700806 1.795853853225708 2.8542754650115967
1.2969534397125244 1.6826726198196411 -1.4150317907333374
1.2957555055618286 1.6977003812789917 -1.1309077739715576
1.2945575714111328 1.7127280235290527 -0.8467838168144226
1.2933597564697266 1.7277557849884033 -0.5626598000526428
1.2921618223190308 1.742783546447754 -0.2785358428955078
1.290963888168335 1.757811188697815 0.005588147323578596
1.2897660732269287 1.7728389501571655 0.289712131023407
1.288568139076233 1.7878667116165161 0.573836088180542
1.287370204925537 1.8028943538665771 0.8579601049423218
1.2861723899841309 1.8179221153259277 1.1420841217041016
1.284974455833435 1.8329497575759888 1.4262080192565918
1.2837765216827393 1.8479775190353394 1.7103320360183716
1.282578706741333 1.86300528049469 1.9944560527801514
1.2813807725906372 1.878032922744751 2.2785799503326416
1.2801828384399414 1.8930606842041016 2.562704086303711
1.2789850234985352 1.9080883264541626 2.846827983856201
0.923182487487793 1.7205456495285034 -1.4186108112335205
0.9219846129417419 1.7355732917785645 -1.1344867944717407
0.9207866787910461 1.750601053237915 -0.8503628373146057
0.9195888042449951 1.765628695487976 -0.5662388205528259
0.9183909296989441 1.7806564569473267 -0.28211483359336853
0.9171929955482483 1.7956842184066772 0.002009137300774455
0.9159951210021973 1.8107118606567383 0.2861331105232239
0.9147972464561462 1.8257396221160889 0.5702571272850037
0.9135993123054504 1.84076726436615 0.8543810844421387
0.9124014377593994 1.8557950258255005 1.1385051012039185
0.9112035036087036 1.870822787284851 1.4226289987564087
0.9100056290626526 1.885850429534912 1.7067530155181885
0.9088077545166016 1.9008781909942627 1.9908770322799683
0.9076098203659058 1.9159059524536133 2.275001049041748
0.9064119458198547 1.9309335947036743 2.5591249465942383
0.9052140712738037 1.945961356163025 2.8432490825653076
