ply
format ascii 1.0
element vertex 3297
property float x
property float y
property float z
end_header
0.25 34.25 0.0
0.25 34.75 0.0
0.25 35.25 0.0
0.25 35.75 0.0
0.25 36.25 0.0
0.25 36.75 0.0
0.25 37.25 0.0
0.25 37.75 0.0
0.25 38.25 0.0
0.75 33.75 0.0
0.75 34.25 0.0
0.75 34.75 0.0
0.75 35.25 0.0
0.75 35.75 0.0
0.75 36.25 0.0
0.75 36.75 0.0
0.75 37.25 0.0
0.75 37.75 0.0
0.75 38.25 0.0
1.25 33.75 0.0
1.25 34.25 0.0
1.25 34.75 0.0
1.25 35.25 0.0
1.25 35.75 0.0
1.25 36.25 0.0
1.25 36.75 0.0
1.25 37.25 0.0
1.25 37.75 0.0
1.25 38.25 0.0
1.75 33.25 0.0
1.75 33.75 0.0
1.75 34.25 0.0
1.75 34.75 0.0
1.75 35.25 0.0
1.75 35.75 0.0
1.75 36.25 0.0
1.75 36.75 0.0
1.75 37.25 0.0
1.75 37.75 0.0
1.75 38.25 0.0
2.25 33.25 0.0
2.25 33.75 0.0
2.25 34.25 0.0
2.25 34.75 0.0
2.25 35.25 0.0
2.25 35.75 0.0
2.25 36.25 0.0
2.25 36.75 0.0
2.25 37.25 0.0
2.25 37.75 0.0
2.75 33.25 0.0
2.75 33.75 0.0
2.75 34.25 0.0
2.75 34.75 0.0
2.75 35.25 0.0
2.75 35.75 0.0
2.75 36.25 0.0
2.75 36.75 0.0
2.75 37.25 0.0
2.75 37.75 0.0
3.25 12.25 0.0
3.25 12.75 0.0
3.25 32.75 0.0
3.25 33.25 0.0
3.25 33.75 0.0
3.25 34.25 0.0
3.25 34.75 0.0
3.25 35.25 0.0
3.25 35.75 0.0
3.25 36.25 0.0
3.25 36.75 0.0
3.25 37.25 0.0
3.75 10.25 0.0
3.75 10.75 0.0
3.75 11.25 0.0
3.75 11.75 0.0
3.75 12.25 0.0
3.75 12.75 0.0
3.75 13.25 0.0
3.75 32.75 0.0
3.75 33.25 0.0
3.75 33.75 0.0
3.75 34.25 0.0
3.75 34.75 0.0
3.75 35.25 0.0
3.75 35.75 0.0
3.75 36.25 0.0
3.75 36.75 0.0
3.75 37.25 0.0
4.25 10.25 0.0
4.25 10.75 0.0
4.25 11.25 0.0
4.25 11.75 0.0
4.25 12.25 0.0
4.25 12.75 0.0
4.25 13.25 0.0
4.25 32.75 0.0
4.25 33.25 0.0
4.25 33.75 0.0
4.25 34.25 0.0
4.25 34.75 0.0
4.25 35.25 0.0
4.25 35.75 0.0
4.25 36.25 0.0
4.25 36.75 0.0
4.25 37.25 0.0
4.25 45.25 0.0
4.75 9.75 0.0
4.75 10.25 0.0
4.75 10.75 0.0
4.75 11.25 0.0
4.75 11.75 0.0
4.75 12.25 0.0
4.75 12.75 0.0
4.75 13.25 0.0
4.75 13.75 0.0
4.75 32.75 0.0
4.75 33.25 0.0
4.75 33.75 0.0
4.75 34.25 0.0
4.75 34.75 0.0
4.75 35.25 0.0
4.75 35.75 0.0
4.75 36.25 0.0
4.75 36.75 0.0
4.75 43.25 0.0
4.75 43.75 0.0
4.75 44.25 0.0
4.75 44.75 0.0
4.75 45.25 0.0
4.75 45.75 0.0
4.75 46.25 0.0
5.25 9.75 0.0
5.25 10.25 0.0
5.25 10.75 0.0
5.25 11.25 0.0
5.25 11.75 0.0
5.25 12.25 0.0
5.25 12.75 0.0
5.25 13.25 0.0
5.25 13.75 0.0
5.25 32.25 0.0
5.25 32.75 0.0
5.25 33.25 0.0
5.25 33.75 0.0
5.25 34.25 0.0
5.25 34.75 0.0
5.25 35.25 0.0
5.25 35.75 0.0
5.25 36.25 0.0
5.25 36.75 0.0
5.25 43.25 0.0
5.25 43.75 0.0
5.25 44.25 0.0
5.25 44.75 0.0
5.25 45.25 0.0
5.25 45.75 0.0
5.25 46.25 0.0
5.75 9.75 0.0
5.75 10.25 0.0
5.75 10.75 0.0
5.75 11.25 0.0
5.75 11.75 0.0
5.75 12.25 0.0
5.75 12.75 0.0
5.75 13.25 0.0
5.75 13.75 0.0
5.75 32.25 0.0
5.75 32.75 0.0
5.75 33.25 0.0
5.75 33.75 0.0
5.75 34.25 0.0
5.75 34.75 0.0
5.75 35.25 0.0
5.75 35.75 0.0
5.75 36.25 0.0
5.75 36.75 0.0
5.75 42.75 0.0
5.75 43.25 0.0
5.75 43.75 0.0
5.75 44.25 0.0
5.75 44.75 0.0
5.75 45.25 0.0
5.75 45.75 0.0
5.75 46.25 0.0
6.25 9.25 0.0
6.25 9.75 0.0
6.25 10.25 0.0
6.25 10.75 0.0
6.25 11.25 0.0
6.25 11.75 0.0
6.25 12.25 0.0
6.25 12.75 0.0
6.25 13.25 0.0
6.25 13.75 0.0
6.25 31.75 0.0
6.25 32.25 0.0
6.25 32.75 0.0
6.25 33.25 0.0
6.25 33.75 0.0
6.25 34.25 0.0
6.25 34.75 0.0
6.25 35.25 0.0
6.25 35.75 0.0
6.25 36.25 0.0
6.25 36.75 0.0
6.25 42.25 0.0
6.25 42.75 0.0
6.25 43.25 0.0
6.25 43.75 0.0
6.25 44.25 0.0
6.25 44.75 0.0
6.25 45.25 0.0
6.25 45.75 0.0
6.25 46.25 0.0
6.75 9.25 0.0
6.75 9.75 0.0
6.75 10.25 0.0
6.75 10.75 0.0
6.75 11.25 0.0
6.75 11.75 0.0
6.75 12.25 0.0
6.75 12.75 0.0
6.75 13.25 0.0
6.75 13.75 0.0
6.75 31.75 0.0
6.75 32.25 0.0
6.75 32.75 0.0
6.75 33.25 0.0
6.75 33.75 0.0
6.75 34.25 0.0
6.75 34.75 0.0
6.75 35.25 0.0
6.75 35.75 0.0
6.75 36.25 0.0
6.75 41.75 0.0
6.75 42.25 0.0
6.75 42.75 0.0
6.75 43.25 0.0
6.75 43.75 0.0
6.75 44.25 0.0
6.75 44.75 0.0
6.75 45.25 0.0
6.75 45.75 0.0
6.75 46.25 0.0
6.75 46.75 0.0
7.25 9.25 0.0
7.25 9.75 0.0
7.25 10.25 0.0
7.25 10.75 0.0
7.25 11.25 0.0
7.25 11.75 0.0
7.25 12.25 0.0
7.25 12.75 0.0
7.25 13.25 0.0
7.25 13.75 0.0
7.25 31.75 0.0
7.25 32.25 0.0
7.25 32.75 0.0
7.25 33.25 0.0
7.25 33.75 0.0
7.25 34.25 0.0
7.25 34.75 0.0
7.25 35.25 0.0
7.25 35.75 0.0
7.25 41.75 0.0
7.25 42.25 0.0
7.25 42.75 0.0
7.25 43.25 0.0
7.25 43.75 0.0
7.25 44.25 0.0
7.25 44.75 0.0
7.25 45.25 0.0
7.25 45.75 0.0
7.25 46.25 0.0
7.25 46.75 0.0
7.75 8.75 0.0
7.75 9.25 0.0
7.75 9.75 0.0
7.75 10.25 0.0
7.75 10.75 0.0
7.75 11.25 0.0
7.75 11.75 0.0
7.75 12.25 0.0
7.75 12.75 0.0
7.75 13.25 0.0
7.75 31.25 0.0
7.75 31.75 0.0
7.75 32.25 0.0
7.75 32.75 0.0
7.75 33.25 0.0
7.75 33.75 0.0
7.75 34.25 0.0
7.75 34.75 0.0
7.75 35.25 0.0
7.75 35.75 0.0
7.75 41.25 0.0
7.75 41.75 0.0
7.75 42.25 0.0
7.75 42.75 0.0
7.75 43.25 0.0
7.75 43.75 0.0
7.75 44.25 0.0
7.75 44.75 0.0
7.75 45.25 0.0
7.75 45.75 0.0
7.75 46.25 0.0
8.25 8.75 0.0
8.25 9.25 0.0
8.25 9.75 0.0
8.25 10.25 0.0
8.25 10.75 0.0
8.25 11.25 0.0
8.25 11.75 0.0
8.25 12.25 0.0
8.25 12.75 0.0
8.25 31.25 0.0
8.25 31.75 0.0
8.25 32.25 0.0
8.25 32.75 0.0
8.25 33.25 0.0
8.25 33.75 0.0
8.25 34.25 0.0
8.25 34.75 0.0
8.25 35.25 0.0
8.25 35.75 0.0
8.25 41.25 0.0
8.25 41.75 0.0
8.25 42.25 0.0
8.25 42.75 0.0
8.25 43.25 0.0
8.25 43.75 0.0
8.25 44.25 0.0
8.25 44.75 0.0
8.25 45.25 0.0
8.25 45.75 0.0
8.75 8.75 0.0
8.75 9.25 0.0
8.75 9.75 0.0
8.75 10.25 0.0
8.75 10.75 0.0
8.75 11.25 0.0
8.75 11.75 0.0
8.75 12.25 0.0
8.75 12.75 0.0
8.75 13.25 0.0
8.75 31.25 0.0
8.75 31.75 0.0
8.75 32.25 0.0
8.75 32.75 0.0
8.75 33.25 0.0
8.75 33.75 0.0
8.75 34.25 0.0
8.75 34.75 0.0
8.75 35.25 0.0
8.75 35.75 0.0
8.75 40.75 0.0
8.75 41.25 0.0
8.75 41.75 0.0
8.75 42.25 0.0
8.75 42.75 0.0
8.75 43.25 0.0
8.75 43.75 0.0
8.75 44.25 0.0
8.75 44.75 0.0
8.75 45.25 0.0
8.75 45.75 0.0
9.25 8.75 0.0
9.25 9.25 0.0
9.25 9.75 0.0
9.25 10.25 0.0
9.25 10.75 0.0
9.25 11.25 0.0
9.25 11.75 0.0
9.25 12.25 0.0
9.25 12.75 0.0
9.25 31.25 0.0
9.25 31.75 0.0
9.25 32.25 0.0
9.25 32.75 0.0
9.25 33.25 0.0
9.25 33.75 0.0
9.25 34.25 0.0
9.25 34.75 0.0
9.25 35.25 0.0
9.25 40.25 0.0
9.25 40.75 0.0
9.25 41.25 0.0
9.25 41.75 0.0
9.25 42.25 0.0
9.25 42.75 0.0
9.25 43.25 0.0
9.25 43.75 0.0
9.25 44.25 0.0
9.25 44.75 0.0
9.25 45.25 0.0
9.75 8.75 0.0
9.75 9.25 0.0
9.75 9.75 0.0
9.75 10.25 0.0
9.75 10.75 0.0
9.75 11.25 0.0
9.75 11.75 0.0
9.75 12.25 0.0
9.75 12.75 0.0
9.75 31.25 0.0
9.75 31.75 0.0
9.75 32.25 0.0
9.75 32.75 0.0
9.75 33.25 0.0
9.75 33.75 0.0
9.75 34.25 0.0
9.75 34.75 0.0
9.75 35.25 0.0
9.75 40.25 0.0
9.75 40.75 0.0
9.75 41.25 0.0
9.75 41.75 0.0
9.75 42.25 0.0
9.75 42.75 0.0
9.75 43.25 0.0
9.75 43.75 0.0
9.75 44.25 0.0
9.75 44.75 0.0
9.75 45.25 0.0
10.25 8.25 0.0
10.25 8.75 0.0
10.25 9.25 0.0
10.25 9.75 0.0
10.25 10.25 0.0
10.25 10.75 0.0
10.25 11.25 0.0
10.25 11.75 0.0
10.25 12.25 0.0
10.25 12.75 0.0
10.25 30.75 0.0
10.25 31.25 0.0
10.25 31.75 0.0
10.25 32.25 0.0
10.25 32.75 0.0
10.25 33.25 0.0
10.25 33.75 0.0
10.25 34.25 0.0
10.25 34.75 0.0
10.25 35.25 0.0
10.25 39.75 0.0
10.25 40.25 0.0
10.25 40.75 0.0
10.25 41.25 0.0
10.25 41.75 0.0
10.25 42.25 0.0
10.25 42.75 0.0
10.25 43.25 0.0
10.25 43.75 0.0
10.25 44.25 0.0
10.25 44.75 0.0
10.75 8.25 0.0
10.75 8.75 0.0
10.75 9.25 0.0
10.75 9.75 0.0
10.75 10.25 0.0
10.75 10.75 0.0
10.75 11.25 0.0
10.75 11.75 0.0
10.75 12.25 0.0
10.75 12.75 0.0
10.75 30.75 0.0
10.75 31.25 0.0
10.75 31.75 0.0
10.75 32.25 0.0
10.75 32.75 0.0
10.75 33.25 0.0
10.75 33.75 0.0
10.75 34.25 0.0
10.75 34.75 0.0
10.75 35.25 0.0
10.75 39.75 0.0
10.75 40.25 0.0
10.75 40.75 0.0
10.75 41.25 0.0
10.75 41.75 0.0
10.75 42.25 0.0
10.75 42.75 0.0
10.75 43.25 0.0
10.75 43.75 0.0
10.75 44.25 0.0
11.25 7.75 0.0
11.25 8.25 0.0
11.25 8.75 0.0
11.25 9.25 0.0
11.25 9.75 0.0
11.25 10.25 0.0
11.25 10.75 0.0
11.25 11.25 0.0
11.25 11.75 0.0
11.25 12.25 0.0
11.25 12.75 0.0
11.25 30.75 0.0
11.25 31.25 0.0
11.25 31.75 0.0
11.25 32.25 0.0
11.25 32.75 0.0
11.25 33.25 0.0
11.25 33.75 0.0
11.25 34.25 0.0
11.25 34.75 0.0
11.25 39.75 0.0
11.25 40.25 0.0
11.25 40.75 0.0
11.25 41.25 0.0
11.25 41.75 0.0
11.25 42.25 0.0
11.25 42.75 0.0
11.25 43.25 0.0
11.25 43.75 0.0
11.25 44.25 0.0
11.25 44.75 0.0
11.75 8.25 0.0
11.75 8.75 0.0
11.75 9.25 0.0
11.75 9.75 0.0
11.75 10.25 0.0
11.75 10.75 0.0
11.75 11.25 0.0
11.75 11.75 0.0
11.75 12.25 0.0
11.75 30.25 0.0
11.75 30.75 0.0
11.75 31.25 0.0
11.75 31.75 0.0
11.75 32.25 0.0
11.75 32.75 0.0
11.75 33.25 0.0
11.75 33.75 0.0
11.75 34.25 0.0
11.75 34.75 0.0
11.75 39.75 0.0
11.75 40.25 0.0
11.75 40.75 0.0
11.75 41.25 0.0
11.75 41.75 0.0
11.75 42.25 0.0
11.75 42.75 0.0
11.75 43.25 0.0
11.75 43.75 0.0
11.75 44.25 0.0
12.25 7.75 0.0
12.25 8.25 0.0
12.25 8.75 0.0
12.25 9.25 0.0
12.25 9.75 0.0
12.25 10.25 0.0
12.25 10.75 0.0
12.25 11.25 0.0
12.25 11.75 0.0
12.25 12.25 0.0
12.25 30.25 0.0
12.25 30.75 0.0
12.25 31.25 0.0
12.25 31.75 0.0
12.25 32.25 0.0
12.25 32.75 0.0
12.25 33.25 0.0
12.25 33.75 0.0
12.25 34.25 0.0
12.25 34.75 0.0
12.25 39.25 0.0
12.25 39.75 0.0
12.25 40.25 0.0
12.25 40.75 0.0
12.25 41.25 0.0
12.25 41.75 0.0
12.25 42.25 0.0
12.25 42.75 0.0
12.25 43.25 0.0
12.25 43.75 0.0
12.75 7.75 0.0
12.75 8.25 0.0
12.75 8.75 0.0
12.75 9.25 0.0
12.75 9.75 0.0
12.75 10.25 0.0
12.75 10.75 0.0
12.75 11.25 0.0
12.75 11.75 0.0
12.75 30.25 0.0
12.75 30.75 0.0
12.75 31.25 0.0
12.75 31.75 0.0
12.75 32.25 0.0
12.75 32.75 0.0
12.75 33.25 0.0
12.75 33.75 0.0
12.75 34.25 0.0
12.75 34.75 0.0
12.75 38.75 0.0
12.75 39.25 0.0
12.75 39.75 0.0
12.75 40.25 0.0
12.75 40.75 0.0
12.75 41.25 0.0
12.75 41.75 0.0
12.75 42.25 0.0
12.75 42.75 0.0
12.75 43.25 0.0
12.75 43.75 0.0
13.25 7.75 0.0
13.25 8.25 0.0
13.25 8.75 0.0
13.25 9.25 0.0
13.25 9.75 0.0
13.25 10.25 0.0
13.25 10.75 0.0
13.25 11.25 0.0
13.25 11.75 0.0
13.25 12.25 0.0
13.25 30.25 0.0
13.25 30.75 0.0
13.25 31.25 0.0
13.25 31.75 0.0
13.25 32.25 0.0
13.25 32.75 0.0
13.25 33.25 0.0
13.25 33.75 0.0
13.25 34.25 0.0
13.25 38.25 0.0
13.25 38.75 0.0
13.25 39.25 0.0
13.25 39.75 0.0
13.25 40.25 0.0
13.25 40.75 0.0
13.25 41.25 0.0
13.25 41.75 0.0
13.25 42.25 0.0
13.25 42.75 0.0
13.25 43.25 0.0
13.25 43.75 0.0
13.75 7.75 0.0
13.75 8.25 0.0
13.75 8.75 0.0
13.75 9.25 0.0
13.75 9.75 0.0
13.75 10.25 0.0
13.75 10.75 0.0
13.75 11.25 0.0
13.75 11.75 0.0
13.75 30.25 0.0
13.75 30.75 0.0
13.75 31.25 0.0
13.75 31.75 0.0
13.75 32.25 0.0
13.75 32.75 0.0
13.75 33.25 0.0
13.75 33.75 0.0
13.75 34.25 0.0
13.75 38.25 0.0
13.75 38.75 0.0
13.75 39.25 0.0
13.75 39.75 0.0
13.75 40.25 0.0
13.75 40.75 0.0
13.75 41.25 0.0
13.75 41.75 0.0
13.75 42.25 0.0
13.75 42.75 0.0
13.75 43.25 0.0
14.25 7.75 0.0
14.25 8.25 0.0
14.25 8.75 0.0
14.25 9.25 0.0
14.25 9.75 0.0
14.25 10.25 0.0
14.25 10.75 0.0
14.25 11.25 0.0
14.25 11.75 0.0
14.25 29.75 0.0
14.25 30.25 0.0
14.25 30.75 0.0
14.25 31.25 0.0
14.25 31.75 0.0
14.25 32.25 0.0
14.25 32.75 0.0
14.25 33.25 0.0
14.25 33.75 0.0
14.25 34.25 0.0
14.25 37.75 0.0
14.25 38.25 0.0
14.25 38.75 0.0
14.25 39.25 0.0
14.25 39.75 0.0
14.25 40.25 0.0
14.25 40.75 0.0
14.25 41.25 0.0
14.25 41.75 0.0
14.25 42.25 0.0
14.25 42.75 0.0
14.75 0.25 0.0
14.75 0.75 0.0
14.75 7.25 0.0
14.75 7.75 0.0
14.75 8.25 0.0
14.75 8.75 0.0
14.75 9.25 0.0
14.75 9.75 0.0
14.75 10.25 0.0
14.75 10.75 0.0
14.75 11.25 0.0
14.75 30.25 0.0
14.75 30.75 0.0
14.75 31.25 0.0
14.75 31.75 0.0
14.75 32.25 0.0
14.75 32.75 0.0
14.75 33.25 0.0
14.75 33.75 0.0
14.75 34.25 0.0
14.75 37.25 0.0
14.75 37.75 0.0
14.75 38.25 0.0
14.75 38.75 0.0
14.75 39.25 0.0
14.75 39.75 0.0
14.75 40.25 0.0
14.75 40.75 0.0
14.75 41.25 0.0
14.75 41.75 0.0
14.75 42.25 0.0
15.25 0.25 0.0
15.25 0.75 0.0
15.25 1.25 0.0
15.25 7.25 0.0
15.25 7.75 0.0
15.25 8.25 0.0
15.25 8.75 0.0
15.25 9.25 0.0
15.25 9.75 0.0
15.25 10.25 0.0
15.25 10.75 0.0
15.25 11.25 0.0
15.25 11.75 0.0
15.25 29.75 0.0
15.25 30.25 0.0
15.25 30.75 0.0
15.25 31.25 0.0
15.25 31.75 0.0
15.25 32.25 0.0
15.25 32.75 0.0
15.25 33.25 0.0
15.25 33.75 0.0
15.25 36.75 0.0
15.25 37.25 0.0
15.25 37.75 0.0
15.25 38.25 0.0
15.25 38.75 0.0
15.25 39.25 0.0
15.25 39.75 0.0
15.25 40.25 0.0
15.25 40.75 0.0
15.25 41.25 0.0
15.25 41.75 0.0
15.25 42.25 0.0
15.75 0.25 0.0
15.75 0.75 0.0
15.75 1.25 0.0
15.75 1.75 0.0
15.75 7.75 0.0
15.75 8.25 0.0
15.75 8.75 0.0
15.75 9.25 0.0
15.75 9.75 0.0
15.75 10.25 0.0
15.75 10.75 0.0
15.75 11.25 0.0
15.75 11.75 0.0
15.75 29.75 0.0
15.75 30.25 0.0
15.75 30.75 0.0
15.75 31.25 0.0
15.75 31.75 0.0
15.75 32.25 0.0
15.75 32.75 0.0
15.75 33.25 0.0
15.75 33.75 0.0
15.75 36.25 0.0
15.75 36.75 0.0
15.75 37.25 0.0
15.75 37.75 0.0
15.75 38.25 0.0
15.75 38.75 0.0
15.75 39.25 0.0
15.75 39.75 0.0
15.75 40.25 0.0
15.75 40.75 0.0
15.75 41.25 0.0
15.75 41.75 0.0
16.25 0.25 0.0
16.25 0.75 0.0
16.25 1.25 0.0
16.25 1.75 0.0
16.25 2.25 0.0
16.25 2.75 0.0
16.25 7.25 0.0
16.25 7.75 0.0
16.25 8.25 0.0
16.25 8.75 0.0
16.25 9.25 0.0
16.25 9.75 0.0
16.25 10.25 0.0
16.25 10.75 0.0
16.25 11.25 0.0
16.25 29.75 0.0
16.25 30.25 0.0
16.25 30.75 0.0
16.25 31.25 0.0
16.25 31.75 0.0
16.25 32.25 0.0
16.25 32.75 0.0
16.25 33.25 0.0
16.25 33.75 0.0
16.25 36.25 0.0
16.25 36.75 0.0
16.25 37.25 0.0
16.25 37.75 0.0
16.25 38.25 0.0
16.25 38.75 0.0
16.25 39.25 0.0
16.25 39.75 0.0
16.25 40.25 0.0
16.25 40.75 0.0
16.25 41.25 0.0
16.25 41.75 0.0
16.75 0.25 0.0
16.75 0.75 0.0
16.75 1.25 0.0
16.75 1.75 0.0
16.75 2.25 0.0
16.75 2.75 0.0
16.75 7.25 0.0
16.75 7.75 0.0
16.75 8.25 0.0
16.75 8.75 0.0
16.75 9.25 0.0
16.75 9.75 0.0
16.75 10.25 0.0
16.75 10.75 0.0
16.75 11.25 0.0
16.75 29.75 0.0
16.75 30.25 0.0
16.75 30.75 0.0
16.75 31.25 0.0
16.75 31.75 0.0
16.75 32.25 0.0
16.75 32.75 0.0
16.75 33.25 0.0
16.75 33.75 0.0
16.75 36.25 0.0
16.75 36.75 0.0
16.75 37.25 0.0
16.75 37.75 0.0
16.75 38.25 0.0
16.75 38.75 0.0
16.75 39.25 0.0
16.75 39.75 0.0
16.75 40.25 0.0
16.75 40.75 0.0
16.75 41.25 0.0
17.25 0.25 0.0
17.25 0.75 0.0
17.25 1.25 0.0
17.25 1.75 0.0
17.25 2.25 0.0
17.25 2.75 0.0
17.25 3.25 0.0
17.25 7.25 0.0
17.25 7.75 0.0
17.25 8.25 0.0
17.25 8.75 0.0
17.25 9.25 0.0
17.25 9.75 0.0
17.25 10.25 0.0
17.25 10.75 0.0
17.25 11.25 0.0
17.25 11.75 0.0
17.25 29.75 0.0
17.25 30.25 0.0
17.25 30.75 0.0
17.25 31.25 0.0
17.25 31.75 0.0
17.25 32.25 0.0
17.25 32.75 0.0
17.25 33.25 0.0
17.25 33.75 0.0
17.25 35.75 0.0
17.25 36.25 0.0
17.25 36.75 0.0
17.25 37.25 0.0
17.25 37.75 0.0
17.25 38.25 0.0
17.25 38.75 0.0
17.25 39.25 0.0
17.25 39.75 0.0
17.25 40.25 0.0
17.25 40.75 0.0
17.75 0.25 0.0
17.75 0.75 0.0
17.75 1.25 0.0
17.75 1.75 0.0
17.75 2.25 0.0
17.75 2.75 0.0
17.75 3.25 0.0
17.75 3.75 0.0
17.75 7.25 0.0
17.75 7.75 0.0
17.75 8.25 0.0
17.75 8.75 0.0
17.75 9.25 0.0
17.75 9.75 0.0
17.75 10.25 0.0
17.75 10.75 0.0
17.75 11.25 0.0
17.75 29.75 0.0
17.75 30.25 0.0
17.75 30.75 0.0
17.75 31.25 0.0
17.75 31.75 0.0
17.75 32.25 0.0
17.75 32.75 0.0
17.75 33.25 0.0
17.75 33.75 0.0
17.75 34.75 0.0
17.75 35.25 0.0
17.75 35.75 0.0
17.75 36.25 0.0
17.75 36.75 0.0
17.75 37.25 0.0
17.75 37.75 0.0
17.75 38.25 0.0
17.75 38.75 0.0
17.75 39.25 0.0
17.75 39.75 0.0
17.75 40.25 0.0
18.25 0.25 0.0
18.25 0.75 0.0
18.25 1.25 0.0
18.25 1.75 0.0
18.25 2.25 0.0
18.25 2.75 0.0
18.25 3.25 0.0
18.25 3.75 0.0
18.25 4.25 0.0
18.25 4.75 0.0
18.25 7.25 0.0
18.25 7.75 0.0
18.25 8.25 0.0
18.25 8.75 0.0
18.25 9.25 0.0
18.25 9.75 0.0
18.25 10.25 0.0
18.25 10.75 0.0
18.25 11.25 0.0
18.25 29.25 0.0
18.25 29.75 0.0
18.25 30.25 0.0
18.25 30.75 0.0
18.25 31.25 0.0
18.25 31.75 0.0
18.25 32.25 0.0
18.25 32.75 0.0
18.25 33.25 0.0
18.25 33.75 0.0
18.25 34.75 0.0
18.25 35.25 0.0
18.25 35.75 0.0
18.25 36.25 0.0
18.25 36.75 0.0
18.25 37.25 0.0
18.25 37.75 0.0
18.25 38.25 0.0
18.25 38.75 0.0
18.25 39.25 0.0
18.25 39.75 0.0
18.25 40.25 0.0
18.75 0.25 0.0
18.75 0.75 0.0
18.75 1.25 0.0
18.75 1.75 0.0
18.75 2.25 0.0
18.75 2.75 0.0
18.75 3.25 0.0
18.75 3.75 0.0
18.75 4.25 0.0
18.75 4.75 0.0
18.75 5.25 0.0
18.75 7.25 0.0
18.75 7.75 0.0
18.75 8.25 0.0
18.75 8.75 0.0
18.75 9.25 0.0
18.75 9.75 0.0
18.75 10.25 0.0
18.75 10.75 0.0
18.75 11.25 0.0
18.75 29.25 0.0
18.75 29.75 0.0
18.75 30.25 0.0
18.75 30.75 0.0
18.75 31.25 0.0
18.75 31.75 0.0
18.75 32.25 0.0
18.75 32.75 0.0
18.75 33.25 0.0
18.75 33.75 0.0
18.75 34.25 0.0
18.75 34.75 0.0
18.75 35.25 0.0
18.75 35.75 0.0
18.75 36.25 0.0
18.75 36.75 0.0
18.75 37.25 0.0
18.75 37.75 0.0
18.75 38.25 0.0
18.75 38.75 0.0
18.75 39.25 0.0
18.75 39.75 0.0
19.25 0.25 0.0
19.25 0.75 0.0
19.25 1.25 0.0
19.25 1.75 0.0
19.25 2.25 0.0
19.25 2.75 0.0
19.25 3.25 0.0
19.25 3.75 0.0
19.25 4.25 0.0
19.25 4.75 0.0
19.25 5.25 0.0
19.25 5.75 0.0
19.25 6.25 0.0
19.25 6.75 0.0
19.25 7.25 0.0
19.25 7.75 0.0
19.25 8.25 0.0
19.25 8.75 0.0
19.25 9.25 0.0
19.25 9.75 0.0
19.25 10.25 0.0
19.25 10.75 0.0
19.25 11.25 0.0
19.25 29.75 0.0
19.25 30.25 0.0
19.25 30.75 0.0
19.25 31.25 0.0
19.25 31.75 0.0
19.25 32.25 0.0
19.25 32.75 0.0
19.25 33.25 0.0
19.25 33.75 0.0
19.25 34.25 0.0
19.25 34.75 0.0
19.25 35.25 0.0
19.25 35.75 0.0
19.25 36.25 0.0
19.25 36.75 0.0
19.25 37.25 0.0
19.25 37.75 0.0
19.25 38.25 0.0
19.25 38.75 0.0
19.25 39.25 0.0
19.75 0.25 0.0
19.75 0.75 0.0
19.75 1.25 0.0
19.75 1.75 0.0
19.75 2.25 0.0
19.75 2.75 0.0
19.75 3.25 0.0
19.75 3.75 0.0
19.75 4.25 0.0
19.75 4.75 0.0
19.75 5.25 0.0
19.75 5.75 0.0
19.75 6.25 0.0
19.75 6.75 0.0
19.75 7.25 0.0
19.75 7.75 0.0
19.75 8.25 0.0
19.75 8.75 0.0
19.75 9.25 0.0
19.75 9.75 0.0
19.75 10.25 0.0
19.75 10.75 0.0
19.75 11.25 0.0
19.75 29.75 0.0
19.75 30.25 0.0
19.75 30.75 0.0
19.75 31.25 0.0
19.75 31.75 0.0
19.75 32.25 0.0
19.75 32.75 0.0
19.75 33.25 0.0
19.75 33.75 0.0
19.75 34.25 0.0
19.75 34.75 0.0
19.75 35.25 0.0
19.75 35.75 0.0
19.75 36.25 0.0
19.75 36.75 0.0
19.75 37.25 0.0
19.75 37.75 0.0
19.75 38.25 0.0
19.75 38.75 0.0
19.75 39.25 0.0
20.25 0.25 0.0
20.25 0.75 0.0
20.25 1.25 0.0
20.25 1.75 0.0
20.25 2.25 0.0
20.25 2.75 0.0
20.25 3.25 0.0
20.25 3.75 0.0
20.25 4.25 0.0
20.25 4.75 0.0
20.25 5.25 0.0
20.25 5.75 0.0
20.25 6.25 0.0
20.25 6.75 0.0
20.25 7.25 0.0
20.25 7.75 0.0
20.25 8.25 0.0
20.25 8.75 0.0
20.25 9.25 0.0
20.25 9.75 0.0
20.25 10.25 0.0
20.25 10.75 0.0
20.25 11.25 0.0
20.25 29.25 0.0
20.25 29.75 0.0
20.25 30.25 0.0
20.25 30.75 0.0
20.25 31.25 0.0
20.25 31.75 0.0
20.25 32.25 0.0
20.25 32.75 0.0
20.25 33.25 0.0
20.25 33.75 0.0
20.25 34.25 0.0
20.25 34.75 0.0
20.25 35.25 0.0
20.25 35.75 0.0
20.25 36.25 0.0
20.25 36.75 0.0
20.25 37.25 0.0
20.25 37.75 0.0
20.25 38.25 0.0
20.25 38.75 0.0
20.75 1.25 0.0
20.75 1.75 0.0
20.75 2.25 0.0
20.75 2.75 0.0
20.75 3.25 0.0
20.75 3.75 0.0
20.75 4.25 0.0
20.75 4.75 0.0
20.75 5.25 0.0
20.75 5.75 0.0
20.75 6.25 0.0
20.75 6.75 0.0
20.75 7.25 0.0
20.75 7.75 0.0
20.75 8.25 0.0
20.75 8.75 0.0
20.75 9.25 0.0
20.75 9.75 0.0
20.75 10.25 0.0
20.75 10.75 0.0
20.75 11.25 0.0
20.75 29.25 0.0
20.75 29.75 0.0
20.75 30.25 0.0
20.75 30.75 0.0
20.75 31.25 0.0
20.75 31.75 0.0
20.75 32.25 0.0
20.75 32.75 0.0
20.75 33.25 0.0
20.75 33.75 0.0
20.75 34.25 0.0
20.75 34.75 0.0
20.75 35.25 0.0
20.75 35.75 0.0
20.75 36.25 0.0
20.75 36.75 0.0
20.75 37.25 0.0
20.75 37.75 0.0
20.75 38.25 0.0
21.25 1.75 0.0
21.25 2.25 0.0
21.25 2.75 0.0
21.25 3.25 0.0
21.25 3.75 0.0
21.25 4.25 0.0
21.25 4.75 0.0
21.25 5.25 0.0
21.25 5.75 0.0
21.25 6.25 0.0
21.25 6.75 0.0
21.25 7.25 0.0
21.25 7.75 0.0
21.25 8.25 0.0
21.25 8.75 0.0
21.25 9.25 0.0
21.25 9.75 0.0
21.25 10.25 0.0
21.25 10.75 0.0
21.25 11.25 0.0
21.25 29.75 0.0
21.25 30.25 0.0
21.25 30.75 0.0
21.25 31.25 0.0
21.25 31.75 0.0
21.25 32.25 0.0
21.25 32.75 0.0
21.25 33.25 0.0
21.25 33.75 0.0
21.25 34.25 0.0
21.25 34.75 0.0
21.25 35.25 0.0
21.25 35.75 0.0
21.25 36.25 0.0
21.25 36.75 0.0
21.25 37.25 0.0
21.25 37.75 0.0
21.75 1.75 0.0
21.75 2.25 0.0
21.75 2.75 0.0
21.75 3.25 0.0
21.75 3.75 0.0
21.75 4.25 0.0
21.75 4.75 0.0
21.75 5.25 0.0
21.75 5.75 0.0
21.75 6.25 0.0
21.75 6.75 0.0
21.75 7.25 0.0
21.75 7.75 0.0
21.75 8.25 0.0
21.75 8.75 0.0
21.75 9.25 0.0
21.75 9.75 0.0
21.75 10.25 0.0
21.75 10.75 0.0
21.75 11.25 0.0
21.75 11.75 0.0
21.75 29.75 0.0
21.75 30.25 0.0
21.75 30.75 0.0
21.75 31.25 0.0
21.75 31.75 0.0
21.75 32.25 0.0
21.75 32.75 0.0
21.75 33.25 0.0
21.75 33.75 0.0
21.75 34.25 0.0
21.75 34.75 0.0
21.75 35.25 0.0
21.75 35.75 0.0
21.75 36.25 0.0
21.75 36.75 0.0
21.75 37.25 0.0
22.25 3.25 0.0
22.25 3.75 0.0
22.25 4.25 0.0
22.25 4.75 0.0
22.25 5.25 0.0
22.25 5.75 0.0
22.25 6.25 0.0
22.25 6.75 0.0
22.25 7.25 0.0
22.25 7.75 0.0
22.25 8.25 0.0
22.25 8.75 0.0
22.25 9.25 0.0
22.25 9.75 0.0
22.25 10.25 0.0
22.25 10.75 0.0
22.25 11.25 0.0
22.25 11.75 0.0
22.25 12.75 0.0
22.25 29.25 0.0
22.25 29.75 0.0
22.25 30.25 0.0
22.25 30.75 0.0
22.25 31.25 0.0
22.25 31.75 0.0
22.25 32.25 0.0
22.25 32.75 0.0
22.25 33.25 0.0
22.25 33.75 0.0
22.25 34.25 0.0
22.25 34.75 0.0
22.25 35.25 0.0
22.25 35.75 0.0
22.25 36.25 0.0
22.25 36.75 0.0
22.75 3.75 0.0
22.75 4.25 0.0
22.75 4.75 0.0
22.75 5.25 0.0
22.75 5.75 0.0
22.75 6.25 0.0
22.75 6.75 0.0
22.75 7.25 0.0
22.75 7.75 0.0
22.75 8.25 0.0
22.75 8.75 0.0
22.75 9.25 0.0
22.75 9.75 0.0
22.75 10.25 0.0
22.75 10.75 0.0
22.75 11.25 0.0
22.75 11.75 0.0
22.75 12.25 0.0
22.75 12.75 0.0
22.75 13.25 0.0
22.75 13.75 0.0
22.75 14.75 0.0
22.75 15.25 0.0
22.75 27.25 0.0
22.75 27.75 0.0
22.75 28.25 0.0
22.75 28.75 0.0
22.75 29.25 0.0
22.75 29.75 0.0
22.75 30.25 0.0
22.75 30.75 0.0
22.75 31.25 0.0
22.75 31.75 0.0
22.75 32.25 0.0
22.75 32.75 0.0
22.75 33.25 0.0
22.75 33.75 0.0
22.75 34.25 0.0
22.75 34.75 0.0
22.75 35.25 0.0
22.75 35.75 0.0
22.75 36.25 0.0
22.75 36.75 0.0
23.25 4.25 0.0
23.25 4.75 0.0
23.25 5.25 0.0
23.25 5.75 0.0
23.25 6.25 0.0
23.25 6.75 0.0
23.25 7.25 0.0
23.25 7.75 0.0
23.25 8.25 0.0
23.25 8.75 0.0
23.25 9.25 0.0
23.25 9.75 0.0
23.25 10.25 0.0
23.25 10.75 0.0
23.25 11.25 0.0
23.25 11.75 0.0
23.25 12.25 0.0
23.25 12.75 0.0
23.25 13.25 0.0
23.25 13.75 0.0
23.25 14.25 0.0
23.25 14.75 0.0
23.25 15.25 0.0
23.25 15.75 0.0
23.25 16.25 0.0
23.25 16.75 0.0
23.25 17.25 0.0
23.25 17.75 0.0
23.25 19.25 0.0
23.25 21.25 0.0
23.25 23.25 0.0
23.25 23.75 0.0
23.25 25.25 0.0
23.25 25.75 0.0
23.25 26.25 0.0
23.25 26.75 0.0
23.25 27.25 0.0
23.25 27.75 0.0
23.25 28.25 0.0
23.25 28.75 0.0
23.25 29.25 0.0
23.25 29.75 0.0
23.25 30.25 0.0
23.25 30.75 0.0
23.25 31.25 0.0
23.25 31.75 0.0
23.25 32.25 0.0
23.25 32.75 0.0
23.25 33.25 0.0
23.25 33.75 0.0
23.25 34.25 0.0
23.25 34.75 0.0
23.25 35.25 0.0
23.25 35.75 0.0
23.75 4.25 0.0
23.75 4.75 0.0
23.75 5.25 0.0
23.75 5.75 0.0
23.75 6.25 0.0
23.75 6.75 0.0
23.75 7.25 0.0
23.75 7.75 0.0
23.75 8.25 0.0
23.75 8.75 0.0
23.75 9.25 0.0
23.75 9.75 0.0
23.75 10.25 0.0
23.75 10.75 0.0
23.75 11.25 0.0
23.75 11.75 0.0
23.75 12.25 0.0
23.75 12.75 0.0
23.75 13.25 0.0
23.75 13.75 0.0
23.75 14.25 0.0
23.75 14.75 0.0
23.75 15.25 0.0
23.75 15.75 0.0
23.75 16.25 0.0
23.75 16.75 0.0
23.75 17.25 0.0
23.75 17.75 0.0
23.75 18.25 0.0
23.75 18.75 0.0
23.75 19.25 0.0
23.75 19.75 0.0
23.75 20.25 0.0
23.75 20.75 0.0
23.75 21.25 0.0
23.75 21.75 0.0
23.75 22.25 0.0
23.75 22.75 0.0
23.75 23.25 0.0
23.75 23.75 0.0
23.75 24.25 0.0
23.75 24.75 0.0
23.75 25.25 0.0
23.75 25.75 0.0
23.75 26.25 0.0
23.75 26.75 0.0
23.75 27.25 0.0
23.75 27.75 0.0
23.75 28.25 0.0
23.75 28.75 0.0
23.75 29.25 0.0
23.75 29.75 0.0
23.75 30.25 0.0
23.75 30.75 0.0
23.75 31.25 0.0
23.75 31.75 0.0
23.75 32.25 0.0
23.75 32.75 0.0
23.75 33.25 0.0
23.75 33.75 0.0
23.75 34.25 0.0
23.75 34.75 0.0
24.25 5.75 0.0
24.25 6.25 0.0
24.25 6.75 0.0
24.25 7.25 0.0
24.25 7.75 0.0
24.25 8.25 0.0
24.25 8.75 0.0
24.25 9.25 0.0
24.25 9.75 0.0
24.25 10.25 0.0
24.25 10.75 0.0
24.25 11.25 0.0
24.25 11.75 0.0
24.25 12.25 0.0
24.25 12.75 0.0
24.25 13.25 0.0
24.25 13.75 0.0
24.25 14.25 0.0
24.25 14.75 0.0
24.25 15.25 0.0
24.25 15.75 0.0
24.25 16.25 0.0
24.25 16.75 0.0
24.25 17.25 0.0
24.25 17.75 0.0
24.25 18.25 0.0
24.25 18.75 0.0
24.25 19.25 0.0
24.25 19.75 0.0
24.25 20.25 0.0
24.25 20.75 0.0
24.25 21.25 0.0
24.25 21.75 0.0
24.25 22.25 0.0
24.25 22.75 0.0
24.25 23.25 0.0
24.25 23.75 0.0
24.25 24.25 0.0
24.25 24.75 0.0
24.25 25.25 0.0
24.25 25.75 0.0
24.25 26.25 0.0
24.25 26.75 0.0
24.25 27.25 0.0
24.25 27.75 0.0
24.25 28.25 0.0
24.25 28.75 0.0
24.25 29.25 0.0
24.25 29.75 0.0
24.25 30.25 0.0
24.25 30.75 0.0
24.25 31.25 0.0
24.25 31.75 0.0
24.25 32.25 0.0
24.25 32.75 0.0
24.25 33.25 0.0
24.25 33.75 0.0
24.25 34.25 0.0
24.25 34.75 0.0
24.75 6.25 0.0
24.75 6.75 0.0
24.75 7.25 0.0
24.75 7.75 0.0
24.75 8.25 0.0
24.75 8.75 0.0
24.75 9.25 0.0
24.75 9.75 0.0
24.75 10.25 0.0
24.75 10.75 0.0
24.75 11.25 0.0
24.75 11.75 0.0
24.75 12.25 0.0
24.75 12.75 0.0
24.75 13.25 0.0
24.75 13.75 0.0
24.75 14.25 0.0
24.75 14.75 0.0
24.75 15.25 0.0
24.75 15.75 0.0
24.75 16.25 0.0
24.75 16.75 0.0
24.75 17.25 0.0
24.75 17.75 0.0
24.75 18.25 0.0
24.75 18.75 0.0
24.75 19.25 0.0
24.75 19.75 0.0
24.75 20.25 0.0
24.75 20.75 0.0
24.75 21.25 0.0
24.75 21.75 0.0
24.75 22.25 0.0
24.75 22.75 0.0
24.75 23.25 0.0
24.75 23.75 0.0
24.75 24.25 0.0
24.75 24.75 0.0
24.75 25.25 0.0
24.75 25.75 0.0
24.75 26.25 0.0
24.75 26.75 0.0
24.75 27.25 0.0
24.75 27.75 0.0
24.75 28.25 0.0
24.75 28.75 0.0
24.75 29.25 0.0
24.75 29.75 0.0
24.75 30.25 0.0
24.75 30.75 0.0
24.75 31.25 0.0
24.75 31.75 0.0
24.75 32.25 0.0
24.75 32.75 0.0
24.75 33.25 0.0
24.75 33.75 0.0
24.75 34.25 0.0
24.75 34.75 0.0
25.25 6.75 0.0
25.25 7.75 0.0
25.25 8.25 0.0
25.25 8.75 0.0
25.25 9.25 0.0
25.25 9.75 0.0
25.25 10.25 0.0
25.25 10.75 0.0
25.25 11.25 0.0
25.25 11.75 0.0
25.25 12.25 0.0
25.25 12.75 0.0
25.25 13.25 0.0
25.25 13.75 0.0
25.25 14.25 0.0
25.25 14.75 0.0
25.25 15.25 0.0
25.25 15.75 0.0
25.25 16.25 0.0
25.25 16.75 0.0
25.25 17.25 0.0
25.25 17.75 0.0
25.25 18.25 0.0
25.25 18.75 0.0
25.25 19.25 0.0
25.25 19.75 0.0
25.25 20.25 0.0
25.25 20.75 0.0
25.25 21.25 0.0
25.25 21.75 0.0
25.25 22.25 0.0
25.25 22.75 0.0
25.25 23.25 0.0
25.25 23.75 0.0
25.25 24.25 0.0
25.25 24.75 0.0
25.25 25.25 0.0
25.25 25.75 0.0
25.25 26.25 0.0
25.25 26.75 0.0
25.25 27.25 0.0
25.25 27.75 0.0
25.25 28.25 0.0
25.25 28.75 0.0
25.25 29.25 0.0
25.25 29.75 0.0
25.25 30.25 0.0
25.25 30.75 0.0
25.25 31.25 0.0
25.25 31.75 0.0
25.25 32.25 0.0
25.25 32.75 0.0
25.25 33.25 0.0
25.25 33.75 0.0
25.25 34.25 0.0
25.25 34.75 0.0
25.75 8.25 0.0
25.75 8.75 0.0
25.75 9.25 0.0
25.75 9.75 0.0
25.75 10.25 0.0
25.75 10.75 0.0
25.75 11.25 0.0
25.75 11.75 0.0
25.75 12.25 0.0
25.75 12.75 0.0
25.75 13.25 0.0
25.75 13.75 0.0
25.75 14.25 0.0
25.75 14.75 0.0
25.75 15.25 0.0
25.75 15.75 0.0
25.75 16.25 0.0
25.75 16.75 0.0
25.75 17.25 0.0
25.75 17.75 0.0
25.75 18.25 0.0
25.75 18.75 0.0
25.75 19.25 0.0
25.75 19.75 0.0
25.75 20.25 0.0
25.75 20.75 0.0
25.75 21.25 0.0
25.75 21.75 0.0
25.75 22.25 0.0
25.75 22.75 0.0
25.75 23.25 0.0
25.75 23.75 0.0
25.75 24.25 0.0
25.75 24.75 0.0
25.75 25.25 0.0
25.75 25.75 0.0
25.75 26.25 0.0
25.75 26.75 0.0
25.75 27.25 0.0
25.75 27.75 0.0
25.75 28.25 0.0
25.75 28.75 0.0
25.75 29.25 0.0
25.75 29.75 0.0
25.75 30.25 0.0
25.75 30.75 0.0
25.75 31.25 0.0
25.75 31.75 0.0
25.75 32.25 0.0
25.75 32.75 0.0
25.75 33.25 0.0
25.75 33.75 0.0
25.75 34.25 0.0
25.75 34.75 0.0
26.25 8.75 0.0
26.25 9.25 0.0
26.25 9.75 0.0
26.25 10.25 0.0
26.25 10.75 0.0
26.25 11.25 0.0
26.25 11.75 0.0
26.25 12.25 0.0
26.25 12.75 0.0
26.25 13.25 0.0
26.25 13.75 0.0
26.25 14.25 0.0
26.25 14.75 0.0
26.25 15.25 0.0
26.25 15.75 0.0
26.25 16.25 0.0
26.25 16.75 0.0
26.25 17.25 0.0
26.25 17.75 0.0
26.25 18.25 0.0
26.25 18.75 0.0
26.25 19.25 0.0
26.25 19.75 0.0
26.25 20.25 0.0
26.25 20.75 0.0
26.25 21.25 0.0
26.25 21.75 0.0
26.25 22.25 0.0
26.25 22.75 0.0
26.25 23.25 0.0
26.25 23.75 0.0
26.25 24.25 0.0
26.25 24.75 0.0
26.25 25.25 0.0
26.25 25.75 0.0
26.25 26.25 0.0
26.25 26.75 0.0
26.25 27.25 0.0
26.25 27.75 0.0
26.25 28.25 0.0
26.25 28.75 0.0
26.25 29.25 0.0
26.25 29.75 0.0
26.25 30.25 0.0
26.25 30.75 0.0
26.25 31.25 0.0
26.25 31.75 0.0
26.25 32.25 0.0
26.25 32.75 0.0
26.25 33.25 0.0
26.25 33.75 0.0
26.25 34.25 0.0
26.25 34.75 0.0
26.25 35.25 0.0
26.25 35.75 0.0
26.75 8.75 0.0
26.75 9.25 0.0
26.75 9.75 0.0
26.75 10.25 0.0
26.75 10.75 0.0
26.75 11.25 0.0
26.75 11.75 0.0
26.75 12.25 0.0
26.75 12.75 0.0
26.75 13.25 0.0
26.75 13.75 0.0
26.75 14.25 0.0
26.75 14.75 0.0
26.75 15.25 0.0
26.75 15.75 0.0
26.75 16.25 0.0
26.75 16.75 0.0
26.75 17.25 0.0
26.75 17.75 0.0
26.75 18.25 0.0
26.75 18.75 0.0
26.75 19.25 0.0
26.75 19.75 0.0
26.75 20.25 0.0
26.75 20.75 0.0
26.75 21.25 0.0
26.75 21.75 0.0
26.75 22.25 0.0
26.75 22.75 0.0
26.75 23.25 0.0
26.75 23.75 0.0
26.75 24.25 0.0
26.75 24.75 0.0
26.75 25.25 0.0
26.75 25.75 0.0
26.75 26.25 0.0
26.75 26.75 0.0
26.75 27.25 0.0
26.75 27.75 0.0
26.75 28.25 0.0
26.75 28.75 0.0
26.75 29.25 0.0
26.75 29.75 0.0
26.75 30.25 0.0
26.75 30.75 0.0
26.75 31.25 0.0
26.75 31.75 0.0
26.75 32.25 0.0
26.75 32.75 0.0
26.75 33.25 0.0
26.75 33.75 0.0
26.75 34.25 0.0
26.75 34.75 0.0
26.75 35.25 0.0
26.75 35.75 0.0
27.25 8.75 0.0
27.25 9.25 0.0
27.25 9.75 0.0
27.25 10.25 0.0
27.25 10.75 0.0
27.25 11.25 0.0
27.25 11.75 0.0
27.25 12.25 0.0
27.25 12.75 0.0
27.25 13.25 0.0
27.25 13.75 0.0
27.25 14.25 0.0
27.25 14.75 0.0
27.25 15.25 0.0
27.25 15.75 0.0
27.25 16.25 0.0
27.25 16.75 0.0
27.25 17.25 0.0
27.25 17.75 0.0
27.25 18.25 0.0
27.25 18.75 0.0
27.25 19.25 0.0
27.25 19.75 0.0
27.25 20.25 0.0
27.25 20.75 0.0
27.25 21.25 0.0
27.25 21.75 0.0
27.25 22.25 0.0
27.25 22.75 0.0
27.25 23.25 0.0
27.25 23.75 0.0
27.25 24.25 0.0
27.25 24.75 0.0
27.25 25.25 0.0
27.25 25.75 0.0
27.25 26.25 0.0
27.25 26.75 0.0
27.25 27.25 0.0
27.25 27.75 0.0
27.25 28.25 0.0
27.25 28.75 0.0
27.25 29.25 0.0
27.25 29.75 0.0
27.25 31.25 0.0
27.25 31.75 0.0
27.25 32.25 0.0
27.25 32.75 0.0
27.25 33.25 0.0
27.25 33.75 0.0
27.25 34.25 0.0
27.25 34.75 0.0
27.25 35.25 0.0
27.25 35.75 0.0
27.75 9.75 0.0
27.75 10.25 0.0
27.75 10.75 0.0
27.75 11.25 0.0
27.75 11.75 0.0
27.75 12.25 0.0
27.75 12.75 0.0
27.75 13.25 0.0
27.75 13.75 0.0
27.75 14.25 0.0
27.75 14.75 0.0
27.75 15.25 0.0
27.75 16.75 0.0
27.75 17.25 0.0
27.75 18.25 0.0
27.75 18.75 0.0
27.75 19.25 0.0
27.75 20.25 0.0
27.75 20.75 0.0
27.75 21.25 0.0
27.75 22.25 0.0
27.75 22.75 0.0
27.75 23.25 0.0
27.75 25.25 0.0
27.75 26.25 0.0
27.75 26.75 0.0
27.75 27.25 0.0
27.75 27.75 0.0
27.75 28.25 0.0
27.75 28.75 0.0
27.75 29.25 0.0
27.75 29.75 0.0
27.75 31.25 0.0
27.75 31.75 0.0
27.75 32.25 0.0
27.75 32.75 0.0
27.75 33.25 0.0
27.75 33.75 0.0
27.75 34.25 0.0
27.75 34.75 0.0
27.75 35.25 0.0
27.75 35.75 0.0
27.75 36.25 0.0
28.25 9.75 0.0
28.25 10.25 0.0
28.25 10.75 0.0
28.25 11.25 0.0
28.25 11.75 0.0
28.25 12.25 0.0
28.25 12.75 0.0
28.25 13.25 0.0
28.25 13.75 0.0
28.25 14.25 0.0
28.25 14.75 0.0
28.25 26.25 0.0
28.25 26.75 0.0
28.25 27.25 0.0
28.25 27.75 0.0
28.25 28.25 0.0
28.25 28.75 0.0
28.25 29.25 0.0
28.25 29.75 0.0
28.25 31.75 0.0
28.25 32.25 0.0
28.25 32.75 0.0
28.25 33.25 0.0
28.25 33.75 0.0
28.25 34.25 0.0
28.25 34.75 0.0
28.25 35.25 0.0
28.25 35.75 0.0
28.25 36.25 0.0
28.25 36.75 0.0
28.75 9.75 0.0
28.75 10.25 0.0
28.75 10.75 0.0
28.75 11.25 0.0
28.75 11.75 0.0
28.75 12.25 0.0
28.75 12.75 0.0
28.75 13.25 0.0
28.75 13.75 0.0
28.75 14.25 0.0
28.75 14.75 0.0
28.75 15.25 0.0
28.75 15.75 0.0
28.75 26.25 0.0
28.75 26.75 0.0
28.75 27.25 0.0
28.75 27.75 0.0
28.75 28.25 0.0
28.75 28.75 0.0
28.75 29.25 0.0
28.75 29.75 0.0
28.75 32.25 0.0
28.75 32.75 0.0
28.75 33.25 0.0
28.75 33.75 0.0
28.75 34.25 0.0
28.75 34.75 0.0
28.75 35.25 0.0
28.75 35.75 0.0
28.75 36.25 0.0
28.75 36.75 0.0
29.25 10.25 0.0
29.25 10.75 0.0
29.25 11.25 0.0
29.25 11.75 0.0
29.25 12.25 0.0
29.25 12.75 0.0
29.25 13.25 0.0
29.25 13.75 0.0
29.25 14.25 0.0
29.25 14.75 0.0
29.25 15.25 0.0
29.25 15.75 0.0
29.25 26.25 0.0
29.25 26.75 0.0
29.25 27.25 0.0
29.25 27.75 0.0
29.25 28.25 0.0
29.25 28.75 0.0
29.25 29.25 0.0
29.25 29.75 0.0
29.25 30.25 0.0
29.25 32.25 0.0
29.25 32.75 0.0
29.25 33.25 0.0
29.25 33.75 0.0
29.25 34.25 0.0
29.25 34.75 0.0
29.25 35.25 0.0
29.25 35.75 0.0
29.25 36.25 0.0
29.25 36.75 0.0
29.25 37.25 0.0
29.75 10.75 0.0
29.75 11.25 0.0
29.75 11.75 0.0
29.75 12.25 0.0
29.75 12.75 0.0
29.75 13.25 0.0
29.75 13.75 0.0
29.75 14.25 0.0
29.75 14.75 0.0
29.75 15.25 0.0
29.75 15.75 0.0
29.75 16.25 0.0
29.75 26.25 0.0
29.75 26.75 0.0
29.75 27.25 0.0
29.75 27.75 0.0
29.75 28.25 0.0
29.75 28.75 0.0
29.75 29.25 0.0
29.75 29.75 0.0
29.75 30.25 0.0
29.75 32.75 0.0
29.75 33.25 0.0
29.75 33.75 0.0
29.75 34.25 0.0
29.75 34.75 0.0
29.75 35.25 0.0
29.75 35.75 0.0
29.75 36.25 0.0
29.75 36.75 0.0
29.75 37.25 0.0
30.25 10.75 0.0
30.25 11.25 0.0
30.25 11.75 0.0
30.25 12.25 0.0
30.25 12.75 0.0
30.25 13.25 0.0
30.25 13.75 0.0
30.25 14.25 0.0
30.25 14.75 0.0
30.25 15.25 0.0
30.25 15.75 0.0
30.25 16.25 0.0
30.25 26.25 0.0
30.25 26.75 0.0
30.25 27.25 0.0
30.25 27.75 0.0
30.25 28.25 0.0
30.25 28.75 0.0
30.25 29.25 0.0
30.25 29.75 0.0
30.25 30.25 0.0
30.25 32.75 0.0
30.25 33.25 0.0
30.25 33.75 0.0
30.25 34.25 0.0
30.25 34.75 0.0
30.25 35.25 0.0
30.25 35.75 0.0
30.25 36.25 0.0
30.25 36.75 0.0
30.25 37.25 0.0
30.25 37.75 0.0
30.25 38.25 0.0
30.75 11.25 0.0
30.75 11.75 0.0
30.75 12.25 0.0
30.75 12.75 0.0
30.75 13.25 0.0
30.75 13.75 0.0
30.75 14.25 0.0
30.75 14.75 0.0
30.75 15.25 0.0
30.75 15.75 0.0
30.75 16.25 0.0
30.75 16.75 0.0
30.75 17.25 0.0
30.75 17.75 0.0
30.75 26.25 0.0
30.75 26.75 0.0
30.75 27.25 0.0
30.75 27.75 0.0
30.75 28.25 0.0
30.75 28.75 0.0
30.75 29.25 0.0
30.75 29.75 0.0
30.75 30.25 0.0
30.75 33.25 0.0
30.75 33.75 0.0
30.75 34.25 0.0
30.75 34.75 0.0
30.75 35.25 0.0
30.75 35.75 0.0
30.75 36.25 0.0
30.75 36.75 0.0
30.75 37.25 0.0
30.75 37.75 0.0
30.75 38.25 0.0
31.25 12.25 0.0
31.25 12.75 0.0
31.25 13.25 0.0
31.25 13.75 0.0
31.25 14.25 0.0
31.25 14.75 0.0
31.25 15.25 0.0
31.25 15.75 0.0
31.25 16.25 0.0
31.25 16.75 0.0
31.25 17.25 0.0
31.25 17.75 0.0
31.25 26.25 0.0
31.25 26.75 0.0
31.25 27.25 0.0
31.25 27.75 0.0
31.25 28.25 0.0
31.25 28.75 0.0
31.25 29.25 0.0
31.25 29.75 0.0
31.25 30.25 0.0
31.25 30.75 0.0
31.25 33.75 0.0
31.25 34.25 0.0
31.25 34.75 0.0
31.25 35.25 0.0
31.25 35.75 0.0
31.25 36.25 0.0
31.25 36.75 0.0
31.25 37.25 0.0
31.25 37.75 0.0
31.25 38.25 0.0
31.25 38.75 0.0
31.75 12.25 0.0
31.75 12.75 0.0
31.75 13.25 0.0
31.75 13.75 0.0
31.75 14.25 0.0
31.75 14.75 0.0
31.75 15.25 0.0
31.75 15.75 0.0
31.75 16.25 0.0
31.75 16.75 0.0
31.75 17.25 0.0
31.75 17.75 0.0
31.75 18.25 0.0
31.75 26.75 0.0
31.75 27.25 0.0
31.75 27.75 0.0
31.75 28.25 0.0
31.75 28.75 0.0
31.75 29.25 0.0
31.75 29.75 0.0
31.75 30.25 0.0
31.75 30.75 0.0
31.75 33.75 0.0
31.75 34.25 0.0
31.75 34.75 0.0
31.75 35.25 0.0
31.75 35.75 0.0
31.75 36.25 0.0
31.75 36.75 0.0
31.75 37.25 0.0
31.75 37.75 0.0
31.75 38.25 0.0
31.75 38.75 0.0
31.75 39.25 0.0
32.25 12.75 0.0
32.25 13.25 0.0
32.25 13.75 0.0
32.25 14.25 0.0
32.25 14.75 0.0
32.25 15.25 0.0
32.25 15.75 0.0
32.25 16.25 0.0
32.25 16.75 0.0
32.25 17.25 0.0
32.25 17.75 0.0
32.25 18.25 0.0
32.25 26.75 0.0
32.25 27.25 0.0
32.25 27.75 0.0
32.25 28.25 0.0
32.25 28.75 0.0
32.25 29.25 0.0
32.25 29.75 0.0
32.25 30.25 0.0
32.25 30.75 0.0
32.25 33.75 0.0
32.25 34.25 0.0
32.25 34.75 0.0
32.25 35.25 0.0
32.25 35.75 0.0
32.25 36.25 0.0
32.25 36.75 0.0
32.25 37.25 0.0
32.25 37.75 0.0
32.25 38.25 0.0
32.25 38.75 0.0
32.25 39.25 0.0
32.25 39.75 0.0
32.75 12.75 0.0
32.75 13.25 0.0
32.75 13.75 0.0
32.75 14.25 0.0
32.75 14.75 0.0
32.75 15.25 0.0
32.75 15.75 0.0
32.75 16.25 0.0
32.75 16.75 0.0
32.75 17.25 0.0
32.75 17.75 0.0
32.75 18.25 0.0
32.75 18.75 0.0
32.75 19.25 0.0
32.75 26.75 0.0
32.75 27.25 0.0
32.75 27.75 0.0
32.75 28.25 0.0
32.75 28.75 0.0
32.75 29.25 0.0
32.75 29.75 0.0
32.75 30.25 0.0
32.75 30.75 0.0
32.75 31.25 0.0
32.75 34.75 0.0
32.75 35.25 0.0
32.75 35.75 0.0
32.75 36.25 0.0
32.75 36.75 0.0
32.75 37.25 0.0
32.75 37.75 0.0
32.75 38.25 0.0
32.75 38.75 0.0
32.75 39.25 0.0
32.75 39.75 0.0
32.75 40.25 0.0
33.25 13.75 0.0
33.25 14.25 0.0
33.25 14.75 0.0
33.25 15.25 0.0
33.25 15.75 0.0
33.25 16.25 0.0
33.25 16.75 0.0
33.25 17.25 0.0
33.25 17.75 0.0
33.25 18.25 0.0
33.25 18.75 0.0
33.25 19.25 0.0
33.25 26.75 0.0
33.25 27.25 0.0
33.25 27.75 0.0
33.25 28.25 0.0
33.25 28.75 0.0
33.25 29.25 0.0
33.25 29.75 0.0
33.25 30.25 0.0
33.25 30.75 0.0
33.25 31.25 0.0
33.25 35.25 0.0
33.25 35.75 0.0
33.25 36.25 0.0
33.25 36.75 0.0
33.25 37.25 0.0
33.25 37.75 0.0
33.25 38.25 0.0
33.25 38.75 0.0
33.25 39.25 0.0
33.25 39.75 0.0
33.25 40.25 0.0
33.75 14.25 0.0
33.75 14.75 0.0
33.75 15.25 0.0
33.75 15.75 0.0
33.75 16.25 0.0
33.75 16.75 0.0
33.75 17.25 0.0
33.75 17.75 0.0
33.75 18.25 0.0
33.75 18.75 0.0
33.75 19.25 0.0
33.75 19.75 0.0
33.75 20.25 0.0
33.75 27.25 0.0
33.75 27.75 0.0
33.75 28.25 0.0
33.75 28.75 0.0
33.75 29.25 0.0
33.75 29.75 0.0
33.75 30.25 0.0
33.75 30.75 0.0
33.75 31.25 0.0
33.75 35.25 0.0
33.75 35.75 0.0
33.75 36.25 0.0
33.75 36.75 0.0
33.75 37.25 0.0
33.75 37.75 0.0
33.75 38.25 0.0
33.75 38.75 0.0
33.75 39.25 0.0
33.75 39.75 0.0
33.75 40.25 0.0
33.75 40.75 0.0
33.75 41.25 0.0
34.25 14.75 0.0
34.25 15.25 0.0
34.25 15.75 0.0
34.25 16.25 0.0
34.25 16.75 0.0
34.25 17.25 0.0
34.25 17.75 0.0
34.25 18.25 0.0
34.25 18.75 0.0
34.25 19.25 0.0
34.25 19.75 0.0
34.25 20.25 0.0
34.25 20.75 0.0
34.25 27.25 0.0
34.25 27.75 0.0
34.25 28.25 0.0
34.25 28.75 0.0
34.25 29.25 0.0
34.25 29.75 0.0
34.25 30.25 0.0
34.25 30.75 0.0
34.25 31.25 0.0
34.25 35.25 0.0
34.25 35.75 0.0
34.25 36.25 0.0
34.25 36.75 0.0
34.25 37.25 0.0
34.25 37.75 0.0
34.25 38.25 0.0
34.25 38.75 0.0
34.25 39.25 0.0
34.25 39.75 0.0
34.25 40.25 0.0
34.25 40.75 0.0
34.25 41.25 0.0
34.75 14.75 0.0
34.75 15.25 0.0
34.75 15.75 0.0
34.75 16.25 0.0
34.75 16.75 0.0
34.75 17.25 0.0
34.75 17.75 0.0
34.75 18.25 0.0
34.75 18.75 0.0
34.75 19.25 0.0
34.75 19.75 0.0
34.75 20.25 0.0
34.75 20.75 0.0
34.75 21.25 0.0
34.75 27.25 0.0
34.75 27.75 0.0
34.75 28.25 0.0
34.75 28.75 0.0
34.75 29.25 0.0
34.75 29.75 0.0
34.75 30.25 0.0
34.75 30.75 0.0
34.75 31.25 0.0
34.75 31.75 0.0
34.75 36.25 0.0
34.75 36.75 0.0
34.75 37.25 0.0
34.75 37.75 0.0
34.75 38.25 0.0
34.75 38.75 0.0
34.75 39.25 0.0
34.75 39.75 0.0
34.75 40.25 0.0
34.75 40.75 0.0
34.75 41.25 0.0
34.75 41.75 0.0
35.25 15.75 0.0
35.25 16.25 0.0
35.25 16.75 0.0
35.25 17.25 0.0
35.25 17.75 0.0
35.25 18.25 0.0
35.25 18.75 0.0
35.25 19.25 0.0
35.25 19.75 0.0
35.25 20.25 0.0
35.25 20.75 0.0
35.25 21.25 0.0
35.25 27.25 0.0
35.25 27.75 0.0
35.25 28.25 0.0
35.25 28.75 0.0
35.25 29.25 0.0
35.25 29.75 0.0
35.25 30.25 0.0
35.25 30.75 0.0
35.25 31.25 0.0
35.25 31.75 0.0
35.25 36.25 0.0
35.25 36.75 0.0
35.25 37.25 0.0
35.25 37.75 0.0
35.25 38.25 0.0
35.25 38.75 0.0
35.25 39.25 0.0
35.25 39.75 0.0
35.25 40.25 0.0
35.25 40.75 0.0
35.25 41.25 0.0
35.25 41.75 0.0
35.75 15.75 0.0
35.75 16.25 0.0
35.75 16.75 0.0
35.75 17.25 0.0
35.75 17.75 0.0
35.75 18.25 0.0
35.75 18.75 0.0
35.75 19.25 0.0
35.75 19.75 0.0
35.75 20.25 0.0
35.75 20.75 0.0
35.75 21.25 0.0
35.75 21.75 0.0
35.75 27.75 0.0
35.75 28.25 0.0
35.75 28.75 0.0
35.75 29.25 0.0
35.75 29.75 0.0
35.75 30.25 0.0
35.75 30.75 0.0
35.75 31.25 0.0
35.75 31.75 0.0
35.75 36.75 0.0
35.75 37.25 0.0
35.75 37.75 0.0
35.75 38.25 0.0
35.75 38.75 0.0
35.75 39.25 0.0
35.75 39.75 0.0
35.75 40.25 0.0
35.75 40.75 0.0
35.75 41.25 0.0
35.75 41.75 0.0
35.75 42.25 0.0
35.75 42.75 0.0
36.25 16.25 0.0
36.25 16.75 0.0
36.25 17.25 0.0
36.25 17.75 0.0
36.25 18.25 0.0
36.25 18.75 0.0
36.25 19.25 0.0
36.25 19.75 0.0
36.25 20.25 0.0
36.25 20.75 0.0
36.25 21.25 0.0
36.25 21.75 0.0
36.25 22.25 0.0
36.25 22.75 0.0
36.25 27.75 0.0
36.25 28.25 0.0
36.25 28.75 0.0
36.25 29.25 0.0
36.25 29.75 0.0
36.25 30.25 0.0
36.25 30.75 0.0
36.25 31.25 0.0
36.25 31.75 0.0
36.25 37.75 0.0
36.25 38.25 0.0
36.25 38.75 0.0
36.25 39.25 0.0
36.25 39.75 0.0
36.25 40.25 0.0
36.25 40.75 0.0
36.25 41.25 0.0
36.25 41.75 0.0
36.25 42.25 0.0
36.25 42.75 0.0
36.25 43.25 0.0
36.75 17.25 0.0
36.75 17.75 0.0
36.75 18.25 0.0
36.75 18.75 0.0
36.75 19.25 0.0
36.75 19.75 0.0
36.75 20.25 0.0
36.75 20.75 0.0
36.75 21.25 0.0
36.75 21.75 0.0
36.75 22.25 0.0
36.75 22.75 0.0
36.75 27.75 0.0
36.75 28.25 0.0
36.75 28.75 0.0
36.75 29.25 0.0
36.75 29.75 0.0
36.75 30.25 0.0
36.75 30.75 0.0
36.75 31.25 0.0
36.75 31.75 0.0
36.75 32.25 0.0
36.75 37.75 0.0
36.75 38.25 0.0
36.75 38.75 0.0
36.75 39.25 0.0
36.75 39.75 0.0
36.75 40.25 0.0
36.75 40.75 0.0
36.75 41.25 0.0
36.75 41.75 0.0
36.75 42.25 0.0
36.75 42.75 0.0
36.75 43.25 0.0
37.25 17.75 0.0
37.25 18.25 0.0
37.25 18.75 0.0
37.25 19.25 0.0
37.25 19.75 0.0
37.25 20.25 0.0
37.25 20.75 0.0
37.25 21.25 0.0
37.25 21.75 0.0
37.25 22.25 0.0
37.25 22.75 0.0
37.25 23.25 0.0
37.25 28.25 0.0
37.25 28.75 0.0
37.25 29.25 0.0
37.25 29.75 0.0
37.25 30.25 0.0
37.25 30.75 0.0
37.25 31.25 0.0
37.25 31.75 0.0
37.25 32.25 0.0
37.25 38.25 0.0
37.25 38.75 0.0
37.25 39.25 0.0
37.25 39.75 0.0
37.25 40.25 0.0
37.25 40.75 0.0
37.25 41.25 0.0
37.25 41.75 0.0
37.25 42.25 0.0
37.25 42.75 0.0
37.25 43.25 0.0
37.25 43.75 0.0
37.25 44.25 0.0
37.75 17.75 0.0
37.75 18.25 0.0
37.75 18.75 0.0
37.75 19.25 0.0
37.75 19.75 0.0
37.75 20.25 0.0
37.75 20.75 0.0
37.75 21.25 0.0
37.75 21.75 0.0
37.75 22.25 0.0
37.75 22.75 0.0
37.75 23.25 0.0
37.75 23.75 0.0
37.75 28.25 0.0
37.75 28.75 0.0
37.75 29.25 0.0
37.75 29.75 0.0
37.75 30.25 0.0
37.75 30.75 0.0
37.75 31.25 0.0
37.75 31.75 0.0
37.75 32.25 0.0
37.75 38.25 0.0
37.75 38.75 0.0
37.75 39.25 0.0
37.75 39.75 0.0
37.75 40.25 0.0
37.75 40.75 0.0
37.75 41.25 0.0
37.75 41.75 0.0
37.75 42.25 0.0
37.75 42.75 0.0
37.75 43.25 0.0
37.75 43.75 0.0
37.75 44.25 0.0
38.25 18.25 0.0
38.25 18.75 0.0
38.25 19.25 0.0
38.25 19.75 0.0
38.25 20.25 0.0
38.25 20.75 0.0
38.25 21.25 0.0
38.25 21.75 0.0
38.25 22.25 0.0
38.25 22.75 0.0
38.25 23.25 0.0
38.25 23.75 0.0
38.25 24.25 0.0
38.25 28.25 0.0
38.25 28.75 0.0
38.25 29.25 0.0
38.25 29.75 0.0
38.25 30.25 0.0
38.25 30.75 0.0
38.25 31.25 0.0
38.25 31.75 0.0
38.25 32.25 0.0
38.25 39.25 0.0
38.25 39.75 0.0
38.25 40.25 0.0
38.25 40.75 0.0
38.25 41.25 0.0
38.25 41.75 0.0
38.25 42.25 0.0
38.25 42.75 0.0
38.25 43.25 0.0
38.25 43.75 0.0
38.25 44.25 0.0
38.25 44.75 0.0
38.75 19.25 0.0
38.75 19.75 0.0
38.75 20.25 0.0
38.75 20.75 0.0
38.75 21.25 0.0
38.75 21.75 0.0
38.75 22.25 0.0
38.75 22.75 0.0
38.75 23.25 0.0
38.75 23.75 0.0
38.75 24.25 0.0
38.75 28.25 0.0
38.75 28.75 0.0
38.75 29.25 0.0
38.75 29.75 0.0
38.75 30.25 0.0
38.75 30.75 0.0
38.75 31.25 0.0
38.75 31.75 0.0
38.75 32.25 0.0
38.75 32.75 0.0
38.75 39.75 0.0
38.75 40.25 0.0
38.75 40.75 0.0
38.75 41.25 0.0
38.75 41.75 0.0
38.75 42.25 0.0
38.75 42.75 0.0
38.75 43.25 0.0
38.75 43.75 0.0
38.75 44.25 0.0
38.75 44.75 0.0
38.75 45.25 0.0
39.25 19.25 0.0
39.25 19.75 0.0
39.25 20.25 0.0
39.25 20.75 0.0
39.25 21.25 0.0
39.25 21.75 0.0
39.25 22.25 0.0
39.25 22.75 0.0
39.25 23.25 0.0
39.25 23.75 0.0
39.25 24.25 0.0
39.25 28.75 0.0
39.25 29.25 0.0
39.25 29.75 0.0
39.25 30.25 0.0
39.25 30.75 0.0
39.25 31.25 0.0
39.25 31.75 0.0
39.25 32.25 0.0
39.25 32.75 0.0
39.25 39.75 0.0
39.25 40.25 0.0
39.25 40.75 0.0
39.25 41.25 0.0
39.25 41.75 0.0
39.25 42.25 0.0
39.25 42.75 0.0
39.25 43.25 0.0
39.25 43.75 0.0
39.25 44.25 0.0
39.25 44.75 0.0
39.25 45.25 0.0
39.25 45.75 0.0
39.25 46.25 0.0
39.75 19.75 0.0
39.75 20.25 0.0
39.75 20.75 0.0
39.75 21.25 0.0
39.75 21.75 0.0
39.75 22.25 0.0
39.75 22.75 0.0
39.75 23.25 0.0
39.75 23.75 0.0
39.75 24.25 0.0
39.75 24.75 0.0
39.75 25.25 0.0
39.75 28.75 0.0
39.75 29.25 0.0
39.75 29.75 0.0
39.75 30.25 0.0
39.75 30.75 0.0
39.75 31.25 0.0
39.75 31.75 0.0
39.75 32.25 0.0
39.75 32.75 0.0
39.75 40.75 0.0
39.75 41.25 0.0
39.75 41.75 0.0
39.75 42.25 0.0
39.75 42.75 0.0
39.75 43.25 0.0
39.75 43.75 0.0
39.75 44.25 0.0
39.75 44.75 0.0
39.75 45.25 0.0
39.75 45.75 0.0
39.75 46.25 0.0
40.25 20.25 0.0
40.25 20.75 0.0
40.25 21.25 0.0
40.25 21.75 0.0
40.25 22.25 0.0
40.25 22.75 0.0
40.25 23.25 0.0
40.25 23.75 0.0
40.25 24.25 0.0
40.25 24.75 0.0
40.25 25.25 0.0
40.25 25.75 0.0
40.25 28.75 0.0
40.25 29.25 0.0
40.25 29.75 0.0
40.25 30.25 0.0
40.25 30.75 0.0
40.25 31.25 0.0
40.25 31.75 0.0
40.25 32.25 0.0
40.25 40.75 0.0
40.25 41.25 0.0
40.25 41.75 0.0
40.25 42.25 0.0
40.25 42.75 0.0
40.25 43.25 0.0
40.25 43.75 0.0
40.25 44.25 0.0
40.25 44.75 0.0
40.25 45.25 0.0
40.25 45.75 0.0
40.25 46.25 0.0
40.25 46.75 0.0
40.75 20.75 0.0
40.75 21.25 0.0
40.75 21.75 0.0
40.75 22.25 0.0
40.75 22.75 0.0
40.75 23.25 0.0
40.75 23.75 0.0
40.75 24.25 0.0
40.75 24.75 0.0
40.75 25.25 0.0
40.75 25.75 0.0
40.75 28.75 0.0
40.75 29.25 0.0
40.75 29.75 0.0
40.75 30.25 0.0
40.75 30.75 0.0
40.75 31.25 0.0
40.75 31.75 0.0
40.75 32.25 0.0
40.75 32.75 0.0
40.75 41.25 0.0
40.75 41.75 0.0
40.75 42.25 0.0
40.75 42.75 0.0
40.75 43.25 0.0
40.75 43.75 0.0
40.75 44.25 0.0
40.75 44.75 0.0
40.75 45.25 0.0
40.75 45.75 0.0
40.75 46.25 0.0
40.75 46.75 0.0
41.25 20.75 0.0
41.25 21.25 0.0
41.25 21.75 0.0
41.25 22.25 0.0
41.25 22.75 0.0
41.25 23.25 0.0
41.25 23.75 0.0
41.25 24.25 0.0
41.25 24.75 0.0
41.25 25.25 0.0
41.25 25.75 0.0
41.25 26.25 0.0
41.25 28.75 0.0
41.25 29.25 0.0
41.25 29.75 0.0
41.25 30.25 0.0
41.25 30.75 0.0
41.25 31.25 0.0
41.25 31.75 0.0
41.25 32.25 0.0
41.25 32.75 0.0
41.25 41.75 0.0
41.25 42.25 0.0
41.25 42.75 0.0
41.25 43.25 0.0
41.25 43.75 0.0
41.25 44.25 0.0
41.25 44.75 0.0
41.25 45.25 0.0
41.25 45.75 0.0
41.25 46.25 0.0
41.25 46.75 0.0
41.25 47.25 0.0
41.25 47.75 0.0
41.25 48.25 0.0
41.75 21.25 0.0
41.75 21.75 0.0
41.75 22.25 0.0
41.75 22.75 0.0
41.75 23.25 0.0
41.75 23.75 0.0
41.75 24.25 0.0
41.75 24.75 0.0
41.75 25.25 0.0
41.75 25.75 0.0
41.75 26.25 0.0
41.75 26.75 0.0
41.75 28.75 0.0
41.75 29.25 0.0
41.75 29.75 0.0
41.75 30.25 0.0
41.75 30.75 0.0
41.75 31.25 0.0
41.75 31.75 0.0
41.75 32.25 0.0
41.75 32.75 0.0
41.75 42.75 0.0
41.75 43.25 0.0
41.75 43.75 0.0
41.75 44.25 0.0
41.75 44.75 0.0
41.75 45.25 0.0
41.75 45.75 0.0
41.75 46.25 0.0
41.75 46.75 0.0
41.75 47.25 0.0
41.75 47.75 0.0
41.75 48.25 0.0
42.25 22.25 0.0
42.25 22.75 0.0
42.25 23.25 0.0
42.25 23.75 0.0
42.25 24.25 0.0
42.25 24.75 0.0
42.25 25.25 0.0
42.25 25.75 0.0
42.25 26.25 0.0
42.25 26.75 0.0
42.25 27.25 0.0
42.25 28.75 0.0
42.25 29.25 0.0
42.25 29.75 0.0
42.25 30.25 0.0
42.25 30.75 0.0
42.25 31.25 0.0
42.25 31.75 0.0
42.25 32.25 0.0
42.25 32.75 0.0
42.25 42.75 0.0
42.25 43.25 0.0
42.25 43.75 0.0
42.25 44.25 0.0
42.25 44.75 0.0
42.25 45.25 0.0
42.25 45.75 0.0
42.25 46.25 0.0
42.25 46.75 0.0
42.25 47.25 0.0
42.25 47.75 0.0
42.25 48.25 0.0
42.25 48.75 0.0
42.75 22.25 0.0
42.75 22.75 0.0
42.75 23.25 0.0
42.75 23.75 0.0
42.75 24.25 0.0
42.75 24.75 0.0
42.75 25.25 0.0
42.75 25.75 0.0
42.75 26.25 0.0
42.75 26.75 0.0
42.75 27.25 0.0
42.75 28.75 0.0
42.75 29.25 0.0
42.75 29.75 0.0
42.75 30.25 0.0
42.75 30.75 0.0
42.75 31.25 0.0
42.75 31.75 0.0
42.75 32.25 0.0
42.75 32.75 0.0
42.75 33.25 0.0
42.75 43.25 0.0
42.75 43.75 0.0
42.75 44.25 0.0
42.75 44.75 0.0
42.75 45.25 0.0
42.75 45.75 0.0
42.75 46.25 0.0
42.75 46.75 0.0
42.75 47.25 0.0
42.75 47.75 0.0
42.75 48.25 0.0
42.75 48.75 0.0
42.75 49.25 0.0
42.75 49.75 0.0
43.25 22.25 0.0
43.25 22.75 0.0
43.25 23.25 0.0
43.25 23.75 0.0
43.25 24.25 0.0
43.25 24.75 0.0
43.25 25.25 0.0
43.25 25.75 0.0
43.25 26.25 0.0
43.25 26.75 0.0
43.25 27.25 0.0
43.25 27.75 0.0
43.25 28.25 0.0
43.25 29.25 0.0
43.25 29.75 0.0
43.25 30.25 0.0
43.25 30.75 0.0
43.25 31.25 0.0
43.25 31.75 0.0
43.25 32.25 0.0
43.25 32.75 0.0
43.25 33.25 0.0
43.25 43.25 0.0
43.25 43.75 0.0
43.25 44.25 0.0
43.25 44.75 0.0
43.25 45.25 0.0
43.25 45.75 0.0
43.25 46.25 0.0
43.25 46.75 0.0
43.25 47.25 0.0
43.25 47.75 0.0
43.25 48.25 0.0
43.25 48.75 0.0
43.25 49.25 0.0
43.25 49.75 0.0
43.75 22.75 0.0
43.75 23.25 0.0
43.75 23.75 0.0
43.75 24.25 0.0
43.75 24.75 0.0
43.75 25.25 0.0
43.75 25.75 0.0
43.75 26.25 0.0
43.75 26.75 0.0
43.75 27.25 0.0
43.75 27.75 0.0
43.75 28.25 0.0
43.75 29.25 0.0
43.75 29.75 0.0
43.75 30.25 0.0
43.75 30.75 0.0
43.75 31.25 0.0
43.75 31.75 0.0
43.75 32.25 0.0
43.75 32.75 0.0
43.75 33.25 0.0
43.75 44.75 0.0
43.75 45.25 0.0
43.75 45.75 0.0
43.75 46.25 0.0
43.75 46.75 0.0
43.75 47.25 0.0
43.75 47.75 0.0
43.75 48.25 0.0
43.75 48.75 0.0
43.75 49.25 0.0
43.75 49.75 0.0
43.75 50.25 0.0
44.25 23.25 0.0
44.25 23.75 0.0
44.25 24.25 0.0
44.25 24.75 0.0
44.25 25.25 0.0
44.25 25.75 0.0
44.25 26.25 0.0
44.25 26.75 0.0
44.25 27.25 0.0
44.25 27.75 0.0
44.25 28.25 0.0
44.25 28.75 0.0
44.25 29.25 0.0
44.25 29.75 0.0
44.25 30.25 0.0
44.25 30.75 0.0
44.25 31.25 0.0
44.25 31.75 0.0
44.25 32.25 0.0
44.25 32.75 0.0
44.25 33.25 0.0
44.25 44.75 0.0
44.25 45.25 0.0
44.25 45.75 0.0
44.25 46.25 0.0
44.25 46.75 0.0
44.25 47.25 0.0
44.25 47.75 0.0
44.25 48.25 0.0
44.25 48.75 0.0
44.25 49.25 0.0
44.25 49.75 0.0
44.25 50.25 0.0
44.25 50.75 0.0
44.75 23.75 0.0
44.75 24.25 0.0
44.75 24.75 0.0
44.75 25.25 0.0
44.75 25.75 0.0
44.75 26.25 0.0
44.75 26.75 0.0
44.75 27.25 0.0
44.75 27.75 0.0
44.75 28.25 0.0
44.75 28.75 0.0
44.75 29.25 0.0
44.75 29.75 0.0
44.75 30.25 0.0
44.75 30.75 0.0
44.75 31.25 0.0
44.75 31.75 0.0
44.75 32.25 0.0
44.75 32.75 0.0
44.75 33.25 0.0
44.75 33.75 0.0
44.75 45.25 0.0
44.75 45.75 0.0
44.75 46.25 0.0
44.75 46.75 0.0
44.75 47.25 0.0
44.75 47.75 0.0
44.75 48.25 0.0
44.75 48.75 0.0
44.75 49.25 0.0
44.75 49.75 0.0
44.75 50.25 0.0
44.75 50.75 0.0
44.75 51.25 0.0
45.25 23.75 0.0
45.25 24.25 0.0
45.25 24.75 0.0
45.25 25.25 0.0
45.25 25.75 0.0
45.25 26.25 0.0
45.25 26.75 0.0
45.25 27.25 0.0
45.25 27.75 0.0
45.25 28.25 0.0
45.25 28.75 0.0
45.25 29.25 0.0
45.25 29.75 0.0
45.25 30.25 0.0
45.25 30.75 0.0
45.25 31.25 0.0
45.25 31.75 0.0
45.25 32.25 0.0
45.25 32.75 0.0
45.25 33.25 0.0
45.25 45.75 0.0
45.25 46.25 0.0
45.25 46.75 0.0
45.25 47.25 0.0
45.25 47.75 0.0
45.25 48.25 0.0
45.25 48.75 0.0
45.25 49.25 0.0
45.25 49.75 0.0
45.25 50.25 0.0
45.25 50.75 0.0
45.25 51.25 0.0
45.25 51.75 0.0
45.75 24.25 0.0
45.75 24.75 0.0
45.75 25.25 0.0
45.75 25.75 0.0
45.75 26.25 0.0
45.75 26.75 0.0
45.75 27.25 0.0
45.75 27.75 0.0
45.75 28.25 0.0
45.75 28.75 0.0
45.75 29.25 0.0
45.75 29.75 0.0
45.75 30.25 0.0
45.75 30.75 0.0
45.75 31.25 0.0
45.75 31.75 0.0
45.75 32.25 0.0
45.75 32.75 0.0
45.75 33.25 0.0
45.75 46.25 0.0
45.75 46.75 0.0
45.75 47.25 0.0
45.75 47.75 0.0
45.75 48.25 0.0
45.75 48.75 0.0
45.75 49.25 0.0
45.75 49.75 0.0
45.75 50.25 0.0
45.75 50.75 0.0
45.75 51.25 0.0
45.75 51.75 0.0
46.25 24.75 0.0
46.25 25.25 0.0
46.25 25.75 0.0
46.25 26.25 0.0
46.25 26.75 0.0
46.25 27.25 0.0
46.25 27.75 0.0
46.25 28.25 0.0
46.25 28.75 0.0
46.25 29.25 0.0
46.25 29.75 0.0
46.25 30.25 0.0
46.25 30.75 0.0
46.25 31.25 0.0
46.25 31.75 0.0
46.25 32.25 0.0
46.25 32.75 0.0
46.25 33.25 0.0
46.25 46.75 0.0
46.25 47.25 0.0
46.25 47.75 0.0
46.25 48.25 0.0
46.25 48.75 0.0
46.25 49.25 0.0
46.25 49.75 0.0
46.25 50.25 0.0
46.25 50.75 0.0
46.25 51.25 0.0
46.25 51.75 0.0
46.75 25.25 0.0
46.75 25.75 0.0
46.75 26.25 0.0
46.75 26.75 0.0
46.75 27.25 0.0
46.75 27.75 0.0
46.75 28.25 0.0
46.75 28.75 0.0
46.75 29.25 0.0
46.75 29.75 0.0
46.75 30.25 0.0
46.75 30.75 0.0
46.75 31.25 0.0
46.75 31.75 0.0
46.75 32.25 0.0
46.75 32.75 0.0
46.75 33.25 0.0
46.75 33.75 0.0
46.75 47.25 0.0
46.75 47.75 0.0
46.75 48.25 0.0
46.75 48.75 0.0
46.75 49.25 0.0
46.75 49.75 0.0
46.75 50.25 0.0
46.75 50.75 0.0
46.75 51.25 0.0
46.75 51.75 0.0
47.25 25.25 0.0
47.25 25.75 0.0
47.25 26.25 0.0
47.25 26.75 0.0
47.25 27.25 0.0
47.25 27.75 0.0
47.25 28.25 0.0
47.25 28.75 0.0
47.25 29.25 0.0
47.25 29.75 0.0
47.25 30.25 0.0
47.25 30.75 0.0
47.25 31.25 0.0
47.25 31.75 0.0
47.25 32.25 0.0
47.25 32.75 0.0
47.25 33.25 0.0
47.25 33.75 0.0
47.25 47.75 0.0
47.25 48.25 0.0
47.25 48.75 0.0
47.25 49.25 0.0
47.25 49.75 0.0
47.75 26.25 0.0
47.75 26.75 0.0
47.75 27.25 0.0
47.75 27.75 0.0
47.75 28.25 0.0
47.75 28.75 0.0
47.75 29.25 0.0
47.75 29.75 0.0
47.75 30.25 0.0
47.75 30.75 0.0
47.75 31.25 0.0
47.75 31.75 0.0
47.75 32.25 0.0
47.75 32.75 0.0
47.75 33.25 0.0
47.75 33.75 0.0
48.25 26.25 0.0
48.25 26.75 0.0
48.25 27.25 0.0
48.25 27.75 0.0
48.25 28.25 0.0
48.25 28.75 0.0
48.25 29.25 0.0
48.25 29.75 0.0
48.25 30.25 0.0
48.25 30.75 0.0
48.25 31.25 0.0
48.25 31.75 0.0
48.25 32.25 0.0
48.25 32.75 0.0
48.25 33.25 0.0
48.75 26.75 0.0
48.75 27.25 0.0
48.75 27.75 0.0
48.75 28.25 0.0
48.75 28.75 0.0
48.75 29.25 0.0
48.75 29.75 0.0
48.75 30.25 0.0
48.75 30.75 0.0
48.75 31.25 0.0
48.75 31.75 0.0
48.75 32.25 0.0
48.75 32.75 0.0
48.75 33.25 0.0
48.75 33.75 0.0
49.25 26.75 0.0
49.25 27.25 0.0
49.25 27.75 0.0
49.25 28.25 0.0
49.25 28.75 0.0
49.25 29.25 0.0
49.25 29.75 0.0
49.25 30.25 0.0
49.25 30.75 0.0
49.25 31.25 0.0
49.25 31.75 0.0
49.25 32.25 0.0
49.25 32.75 0.0
49.25 33.25 0.0
49.25 33.75 0.0
49.75 27.75 0.0
49.75 28.25 0.0
49.75 28.75 0.0
49.75 29.25 0.0
49.75 29.75 0.0
49.75 30.25 0.0
49.75 30.75 0.0
49.75 31.25 0.0
49.75 31.75 0.0
49.75 32.25 0.0
49.75 32.75 0.0
49.75 33.25 0.0
49.75 33.75 0.0
50.25 27.75 0.0
50.25 28.25 0.0
50.25 28.75 0.0
50.25 29.25 0.0
50.25 29.75 0.0
50.25 30.25 0.0
50.25 30.75 0.0
50.25 31.25 0.0
50.25 31.75 0.0
50.25 32.25 0.0
50.25 32.75 0.0
50.25 33.25 0.0
50.75 28.25 0.0
50.75 28.75 0.0
50.75 29.25 0.0
50.75 29.75 0.0
50.75 30.25 0.0
50.75 30.75 0.0
50.75 31.25 0.0
50.75 31.75 0.0
50.75 32.25 0.0
50.75 32.75 0.0
50.75 33.25 0.0
51.25 28.25 0.0
51.25 28.75 0.0
51.25 29.25 0.0
51.25 29.75 0.0
51.25 30.25 0.0
51.25 30.75 0.0
51.25 31.25 0.0
51.25 31.75 0.0
51.25 32.25 0.0
51.25 32.75 0.0
51.75 29.75 0.0
51.75 30.25 0.0
51.75 30.75 0.0
51.75 31.25 0.0
51.75 31.75 0.0
51.75 32.25 0.0
