ply
format ascii 1.0
element vertex 1600
property float x
property float y
property float z
end_header
-1.2581006288528442 -0.49194473028182983 -0.0037652035243809223
-1.263451337814331 -0.45571210980415344 -0.002122818259522319
-1.2675817012786865 -0.42163893580436707 -0.0007324727484956384
-1.2706098556518555 -0.3897170126438141 0.00042333078454248607
-1.2726600170135498 -0.3598880469799042 0.001364592812024057
-1.2738621234893799 -0.33205169439315796 0.0021129511296749115
-1.2743463516235352 -0.30607280135154724 0.002690948313102126
-1.2742410898208618 -0.28178825974464417 0.0031214372720569372
-1.2736716270446777 -0.25901269912719727 0.003427135059610009
-1.2727582454681396 -0.23754307627677917 0.003630315186455846
-1.2716172933578491 -0.2171618938446045 0.0037526353262364864
-1.2703592777252197 -0.19763898849487305 0.0038150742184370756
-1.269092321395874 -0.17873190343379974 0.0038379873149096966
-1.2679215669631958 -0.1601848304271698 0.0038412553258240223
-1.266931176185608 -0.14173221588134766 0.003840330522507429
-1.266124963760376 -0.12313004583120346 0.003833830589428544
-1.2654887437820435 -0.10416071116924286 0.003816064214333892
-1.2650107145309448 -0.08462883532047272 0.003781168023124337
-1.2646809816360474 -0.06436143070459366 0.0037230958696454763
-1.2644894123077393 -0.04320964217185974 0.0036356376949697733
-1.2644273042678833 -0.021052589640021324 0.0035125049762427807
-1.2644847631454468 0.002198413945734501 0.0033474534284323454
-1.2646520137786865 0.026593809947371483 0.0031344713643193245
-1.2649180889129639 0.0521400049328804 0.002868012059479952
-1.2652696371078491 0.07879336923360825 0.0025432819966226816
-1.265692949295044 0.10645589232444763 0.002156551694497466
-1.266172170639038 0.13497236371040344 0.0017054839991033077
-1.2666771411895752 0.16407689452171326 0.0011965461308136582
-1.2671269178390503 0.19329406321048737 0.0006650802679359913
-1.2674331665039062 0.2222084105014801 0.0001509941794211045
-1.2675114870071411 0.25053292512893677 -0.00030915686511434615
-1.267281413078308 0.2781016230583191 -0.0006818757392466068
-1.2666627168655396 0.3048575520515442 -0.000935756484977901
-1.2655706405639648 0.3308408856391907 -0.0010399621678516269
-1.2639106512069702 0.3561801314353943 -0.0009621573844924569
-1.261568546295166 0.38108891248703003 -0.0006657919730059803
-1.2584006786346436 0.4058711528778076 -0.00010644337453413755
-1.254216194152832 0.43093857169151306 0.0007733742240816355
-1.2487518787384033 0.456846684217453 0.0020520223770290613
-1.2416300773620605 0.48436200618743896 0.0038412550929933786
-1.1785037517547607 -0.48824265599250793 -0.003765203757211566
-1.188509225845337 -0.4540255665779114 -0.0021646569948643446
-1.196796178817749 -0.4214383065700531 -0.0007936522015370429
-1.2034550905227661 -0.3905624449253082 0.0003581899218261242
-1.2086035013198853 -0.3614251911640167 0.0013050218112766743
-1.2123774290084839 -0.334003210067749 0.0020639291033148766
-1.2149261236190796 -0.3082284927368164 0.0026541240513324738
-1.2164076566696167 -0.28399476408958435 0.0030962179880589247
-1.2169828414916992 -0.2611628472805023 0.0034116024617105722
-1.2168128490447998 -0.23956646025180817 0.003621966578066349
-1.2160567045211792 -0.2190161794424057 0.0037489377427846193
-1.2148687839508057 -0.19930297136306763 0.0038138648960739374
-1.2133992910385132 -0.18019992113113403 0.0038377237506210804
-1.211794137954712 -0.16146282851696014 0.003841149155050516
-1.210174560546875 -0.14284048974514008 0.003840427612885833
-1.2085776329040527 -0.12412194907665253 0.003835225710645318
-1.2070207595825195 -0.10512378811836243 0.0038210039492696524
-1.2055238485336304 -0.08568087220191956 0.0037931285332888365
-1.2041089534759521 -0.065646231174469 0.0037468622904270887
-1.2028003931045532 -0.044892024248838425 0.00367738283239305
-1.201625108718872 -0.02331184409558773 0.00357983005233109
-1.2006114721298218 -0.0008230814128182828 0.003449380863457918
-1.1997891664505005 0.022629274055361748 0.003281358862295747
-1.1991888284683228 0.04706921800971031 0.0030713703017681837
-1.1988403797149658 0.0724857971072197 0.0028154682368040085
-1.1987730264663696 0.09883034229278564 0.002510338556021452
-1.1990128755569458 0.12601391971111298 0.0021534899715334177
-1.199552297592163 0.15386240184307098 0.0017491716425865889
-1.2002599239349365 0.18202698230743408 0.0013247679453343153
-1.2009774446487427 0.21019402146339417 0.0009118309244513512
-1.2015525102615356 0.23814165592193604 0.0005398557404987514
-1.2018382549285889 0.2657368779182434 0.0002364336105529219
-1.2016913890838623 0.292930543422699 2.782749288599007e-05
-1.200967788696289 0.31975144147872925 -6.009246135363355e-05
-1.1995153427124023 0.3463030755519867 -5.590001137534273e-07
-1.1971663236618042 0.37276309728622437 0.00023578733089379966
-1.1937243938446045 0.3993888199329376 0.0006831325590610504
-1.1889489889144897 0.4265305697917938 0.0013835416175425053
-1.1825299263000488 0.45465683937072754 0.0023913017939776182
-1.1740527153015137 0.48439809679985046 0.0037794322706758976
-1.106837511062622 -0.48542049527168274 -0.0037652035243809223
-1.1200520992279053 -0.45279592275619507 -0.0021983208134770393
-1.1312811374664307 -0.42142680287361145 -0.0008440059027634561
-1.1405749320983887 -0.39144086837768555 0.00030335027258843184
-1.1480234861373901 -0.36291441321372986 0.0012537043076008558
-1.1537487506866455 -0.3358730375766754 0.002020660089328885
-1.1578983068466187 -0.31029531359672546 0.002620725193992257
-1.1606383323669434 -0.28611671924591064 0.0030725703109055758
-1.162147045135498 -0.2632348835468292 0.003396353218704462
-1.1626099348068237 -0.2415143996477127 0.003613133216276765
-1.1622142791748047 -0.22079133987426758 0.003744402900338173
-1.1611469984054565 -0.2008773386478424 0.0038117512594908476
-1.1595916748046875 -0.18156196177005768 0.0038366513326764107
-1.1577280759811401 -0.16261468827724457 0.0038403852377086878
-1.155709147453308 -0.14380037784576416 0.0038399845361709595
-1.1535969972610474 -0.12493852525949478 0.0038360359612852335
-1.151431679725647 -0.10587611049413681 0.003824989777058363
-1.1492559909820557 -0.08647406846284866 0.0038032508455216885
-1.1471142768859863 -0.06660712510347366 0.003767171408981085
-1.1450533866882324 -0.04616433009505272 0.003713063895702362
-1.1431224346160889 -0.025050276890397072 0.003637226764112711
-1.1413729190826416 -0.0031863669864833355 0.0035359894391149282
-1.1398578882217407 0.019486933946609497 0.003405770054087043
-1.1386315822601318 0.04300814867019653 0.003243149258196354
-1.1377482414245605 0.06739237904548645 0.00304496381431818
-1.1372612714767456 0.09262946993112564 0.002808403456583619
-1.1372216939926147 0.11868225783109665 0.0025311224162578583
-1.137636661529541 0.14545027911663055 0.002215790096670389
-1.1383512020111084 0.1726936399936676 0.001882985234260559
-1.1391726732254028 0.20019088685512543 0.0015568347880616784
-1.13991379737854 0.22778315842151642 0.0012602723436430097
-1.1403919458389282 0.25537407398223877 0.0010151095921173692
-1.1404287815093994 0.28292834758758545 0.0008423494291491807
-1.1398464441299438 0.31046998500823975 0.0007627083687111735
-1.1384615898132324 0.3380817472934723 0.0007973493193276227
-1.1360793113708496 0.36590641736984253 0.0009688426507636905
-1.1324816942214966 0.3941511809825897 0.0013024072395637631
-1.1274170875549316 0.4230973422527313 0.001827544765546918
-1.120579481124878 0.4531155526638031 0.0025802424643188715
-1.1115859746932983 0.4846923351287842 0.0036060644779354334
-1.0413641929626465 -0.48335695266723633 -0.0037652035243809223
-1.0568467378616333 -0.4519798457622528 -0.0022254891227930784
-1.0701868534088135 -0.4216001331806183 -0.0008857701322995126
-1.0814002752304077 -0.3923634886741638 0.0002565378963481635
-1.0905497074127197 -0.36437004804611206 0.0012085107155144215
-1.09773850440979 -0.33767345547676086 0.001981188775971532
-1.103105068206787 -0.3122815489768982 0.002588948467746377
-1.1068150997161865 -0.28815922141075134 0.003048824844881892
-1.109054446220398 -0.2652318775653839 0.0033798441290855408
-1.1100236177444458 -0.24338945746421814 0.003602412762120366
-1.1099296808242798 -0.22249066829681396 0.0037377888802438974
-1.1089845895767212 -0.20236678421497345 0.003807667875662446
-1.107399344444275 -0.18282480537891388 0.0038338869344443083
-1.1053822040557861 -0.16364942491054535 0.003838253440335393
-1.1031142473220825 -0.14462314546108246 0.003838444361463189
-1.1006746292114258 -0.1255934238433838 0.0038358373567461967
-1.0981192588806152 -0.10643421858549118 0.0038277290295809507
-1.0955041646957397 -0.08702891319990158 0.0038113959599286318
-1.0928882360458374 -0.06727048009634018 0.0037840912118554115
-1.0903313159942627 -0.04706151783466339 0.0037430543452501297
-1.0878950357437134 -0.02631506882607937 0.0036855251528322697
-1.0856435298919678 -0.004955059848725796 0.003608765546232462
-1.0836412906646729 0.017082348465919495 0.0035100907552987337
-1.0819538831710815 0.03984779119491577 0.003386904951184988
-1.0806474685668945 0.06337723135948181 0.0032367485109716654
-1.079787015914917 0.08769097179174423 0.003057344350963831
-1.0794360637664795 0.11279238015413284 0.002846658229827881
-1.079610824584961 0.1386403739452362 0.00260622869245708
-1.080150842666626 0.16508843004703522 0.0023507827427238226
-1.0808532238006592 0.19199684262275696 0.0020978497341275215
-1.0815181732177734 0.21926569938659668 0.001864324207417667
-1.0819505453109741 0.246835857629776 0.0016664894064888358
-1.0819580554962158 0.27468907833099365 0.00152015988714993
-1.0813493728637695 0.3028484284877777 0.0014409328578040004
-1.0799301862716675 0.33137908577919006 0.001444546622224152
-1.0774985551834106 0.36038970947265625 0.0015473501989617944
-1.0738381147384644 0.390036404132843 0.00176689971704036
-1.0687096118927002 0.4205276072025299 0.002122714649885893
-1.0618395805358887 0.4521334767341614 0.0026372489519417286
-1.0529052019119263 0.4851985275745392 0.0033371644094586372
-0.9805652499198914 -0.4819491505622864 -0.003765203757211566
-0.9977433681488037 -0.45153841376304626 -0.002247747266665101
-1.0126594305038452 -0.4219541549682617 -0.0009211667929776013
-1.025306224822998 -0.3933420777320862 0.00021539237059187144
-1.0357264280319214 -0.3658086359500885 0.0011671645333990455
-1.0440096855163574 -0.33941972255706787 0.0019433936104178429
-1.0502856969833374 -0.3141993582248688 0.0025568343698978424
-1.0547184944152832 -0.29013121128082275 0.003023173427209258
-1.057498812675476 -0.2671605348587036 0.003360418137162924
-1.0588374137878418 -0.24519746005535126 0.0035883071832358837
-1.0589592456817627 -0.22412027418613434 0.0037277720402926207
-1.0580952167510986 -0.20377878844738007 0.003800479229539633
-1.0564814805984497 -0.18399758636951447 0.003828485030680895
-1.0543535947799683 -0.16457830369472504 0.003833995433524251
-1.0519167184829712 -0.14532209932804108 0.0038352098781615496
-1.0492620468139648 -0.12610217928886414 0.0038341782055795193
-1.0464531183242798 -0.10681617259979248 0.003828910645097494
-1.0435538291931152 -0.08736693114042282 0.0038174083456397057
-1.0406297445297241 -0.06766274571418762 0.003797666635364294
-1.0377464294433594 -0.047617219388484955 0.003767680376768112
-1.0349714756011963 -0.027149908244609833 0.0037254502531141043
-1.0323724746704102 -0.006186214275658131 0.0036689932458102703
-1.03001868724823 0.015341675840318203 0.003596358234062791
-1.027978777885437 0.03749453276395798 0.0035056385677307844
-1.0263216495513916 0.060325149446725845 0.0033949913922697306
-1.0251158475875854 0.0838780403137207 0.0032626637257635593
-1.024428129196167 0.10818848013877869 0.0031070082914084196
-1.0242799520492554 0.13326339423656464 0.002928742440417409
-1.0245171785354614 0.15903539955615997 0.0027375342324376106
-1.0249418020248413 0.1854364573955536 0.002545062219724059
-1.0253592729568481 0.21242018043994904 0.0023627139162272215
-1.0255767107009888 0.23996283113956451 0.002201579511165619
-1.025404691696167 0.26806432008743286 0.0020725035574287176
-1.0246535539627075 0.29674863815307617 0.0019861694891005754
-1.0231342315673828 0.32606545090675354 0.0019532355945557356
-1.0206528902053833 0.3560909926891327 0.0019845073111355305
-1.0170091390609741 0.3869301974773407 0.0020911567844450474
-1.0119911432266235 0.41871941089630127 0.0022849934175610542
-1.0053694248199463 0.4516304135322571 0.0025787949562072754
-0.9968912601470947 0.48587566614151 0.002986712846904993
-0.9230848550796509 -0.48110729455947876 -0.0037652042228728533
-0.9416582584381104 -0.45143598318099976 -0.00226660817861557
-0.9578421711921692 -0.42248520255088806 -0.0009524058550596237
-0.9716188907623291 -0.39438873529434204 0.00017748840036801994
-0.9830220341682434 -0.36724814772605896 0.0011272738920524716
-0.9921343326568604 -0.3411300778388977 0.0019050216069445014
-0.9990823864936829 -0.3160645663738251 0.002522299764677882
-1.0040316581726074 -0.2920454442501068 0.002993704518303275
-1.0071789026260376 -0.2690313160419464 0.003336333204060793
-1.0087465047836304 -0.24694760143756866 0.003569247666746378
-1.0089744329452515 -0.22568920254707336 0.0037129633128643036
-1.008115530014038 -0.20512329041957855 0.0037889895029366016
-1.0064290761947632 -0.18509197235107422 0.003819450968876481
-1.0041778087615967 -0.16541485488414764 0.0038268030621111393
-1.001591444015503 -0.14591272175312042 0.0038296421989798546
-0.9987683296203613 -0.12648223340511322 0.003830574220046401
-0.9957740902900696 -0.10704177618026733 0.0038281993474811316
-0.9926744699478149 -0.08751105517148972 0.0038211161736398935
-0.9895363450050354 -0.06781122088432312 0.003807925386354327
-0.9864263534545898 -0.047864966094493866 0.003787233494222164
-0.9834114909172058 -0.02759683132171631 0.0037576542235910892
-0.9805589318275452 -0.006933093536645174 0.0037178152706474066
-0.9779354929924011 0.014197737909853458 0.003666359232738614
-0.9756083488464355 0.03586486354470253 0.003601951990276575
-0.9736436009407043 0.058134760707616806 0.003523284802213311
-0.97210693359375 0.0810711532831192 0.003429081756621599
-0.971063494682312 0.10473468154668808 0.003318107919767499
-0.9705356955528259 0.12917089462280273 0.003190463175997138
-0.9703829288482666 0.1543789654970169 0.0030514304526150227
-0.9704240560531616 0.1803523749113083 0.002907512942329049
-0.9704793691635132 0.20709192752838135 0.0027651169802993536
-0.9703713059425354 0.23460638523101807 0.00263054296374321
-0.9699234962463379 0.2629128098487854 0.00250998861156404
-0.9689611196517944 0.29203709959983826 0.002409560140222311
-0.9673103094100952 0.3220146894454956 0.002335296245291829
-0.9647971391677856 0.3528909385204315 0.002293194644153118
-0.9612467288970947 0.384721964597702 0.002289255615323782
-0.9564815163612366 0.4175755977630615 0.002329525537788868
-0.9503204822540283 0.4515320956707001 0.0024201583582907915
-0.9425761699676514 0.48668545484542847 0.0025674791540950537
-0.8676885366439819 -0.48075148463249207 -0.003765203757211566
-0.887557864189148 -0.4516400098800659 -0.0022835363633930683
-0.9048749804496765 -0.4231899380683899 -0.0009816874517127872
-0.9196233153343201 -0.39551642537117004 0.0001403547212248668
-0.9318373799324036 -0.36870837211608887 0.001086362055502832
-0.9416017532348633 -0.34282535314559937 0.0018637205939739943
-0.9490469694137573 -0.3178962171077728 0.00248316815122962
-0.9543450474739075 -0.29391834139823914 0.0029584274161607027
-0.9577030539512634 -0.27085810899734497 0.0033057809341698885
-0.9593575596809387 -0.24865226447582245 0.0035436092875897884
-0.9595676064491272 -0.22720956802368164 0.0036919303238391876
-0.9586081504821777 -0.20641300082206726 0.003771962830796838
-0.9567654132843018 -0.18612201511859894 0.0038057465571910143
-0.9543318152427673 -0.16617488861083984 0.003815833479166031
-0.9515633583068848 -0.14641264081001282 0.0038210744969546795
-0.9485623240470886 -0.12675316631793976 0.0038245178293436766
-0.9453920722007751 -0.10713294893503189 0.003825243329629302
-0.9421167373657227 -0.08748619258403778 0.003822335507720709
-0.9388001561164856 -0.06774497032165527 0.0038148839958012104
-0.9355056881904602 -0.04783942177891731 0.003801985876634717
-0.9322964549064636 -0.027698079124093056 0.0037827473133802414
-0.9292348623275757 -0.007247630041092634 0.0037562833167612553
-0.9263827204704285 0.01358661986887455 0.00372171844355762
-0.9238008856773376 0.034880928695201874 0.003678186796605587
-0.9215495586395264 0.05671282857656479 0.003624829463660717
-0.9196881651878357 0.07916146516799927 0.0035607970785349607
-0.918274998664856 0.10230744630098343 0.003485241672024131
-0.9173319339752197 0.12622736394405365 0.003397784661501646
-0.9167363047599792 0.15097546577453613 0.0032999010290950537
-0.9163306355476379 0.17659710347652435 0.0031935335136950016
-0.9159581065177917 0.20313362777233124 0.0030806290451437235
-0.9154633283615112 0.2306220978498459 0.002963139908388257
-0.9146921634674072 0.2590949833393097 0.0028430200181901455
-0.9134925007820129 0.2885797917842865 0.002722225384786725
-0.9117137789726257 0.31909891963005066 0.002602707128971815
-0.9092089533805847 0.35066917538642883 0.002486409619450569
-0.905833899974823 0.383301705121994 0.002375263487920165
-0.9014481902122498 0.4170014262199402 0.00227117701433599
-0.8959160447120667 0.4517669379711151 0.002176030771806836
-0.8891071677207947 0.48759058117866516 0.002091666916385293
-0.8132311105728149 -0.48080897331237793 -0.0037652039900422096
-0.8344447016716003 -0.45211997628211975 -0.002299966523423791
-0.852891743183136 -0.4240655303001404 -0.0010112117743119597
-0.8685660362243652 -0.3967384696006775 0.00010147897410206497
-0.8815126419067383 -0.37021031975746155 0.0010418816236779094
-0.891825795173645 -0.34452882409095764 0.001817058539018035
-0.8996471762657166 -0.3197164833545685 0.0024371847975999117
-0.9051616787910461 -0.29576951265335083 0.002915285062044859
-0.9085924625396729 -0.2726580798625946 0.0032669028732925653
-0.9101948142051697 -0.25032684206962585 0.003509728005155921
-0.9102512001991272 -0.22869598865509033 0.0036632008850574493
-0.9090639352798462 -0.20766288042068481 0.0037481251638382673
-0.9069501161575317 -0.18710394203662872 0.0037863017059862614
-0.9042366743087769 -0.16687628626823425 0.0038002105429768562
-0.9012099504470825 -0.1468416452407837 0.0038088089786469936
-0.8979745507240295 -0.12693677842617035 0.0038154765497893095
-0.8945892453193665 -0.10711390525102615 0.0038196747191250324
-0.8911132216453552 -0.08731963485479355 0.003820874495431781
-0.8876049518585205 -0.06749536842107773 0.0038185552693903446
-0.8841219544410706 -0.04757743328809738 0.0038122052792459726
-0.880720853805542 -0.02749757468700409 0.0038013216108083725
-0.8774569034576416 -0.007182689383625984 0.003785408101975918
-0.874384343624115 0.013444682583212852 0.0037639758083969355
-0.8715558052062988 0.03446657955646515 0.0037365376483649015
-0.8690230846405029 0.055969491600990295 0.003702608635649085
-0.8668365478515625 0.07804479449987411 0.0036617000587284565
-0.8650459051132202 0.10078888386487961 0.0036133150570094585
-0.8636701107025146 0.12430302053689957 0.003556682728230953
-0.8626079559326172 0.14868618547916412 0.0034899746533483267
-0.8617292046546936 0.17402644455432892 0.003411137033253908
-0.8609048128128052 0.20039871335029602 0.0033181665930896997
-0.8600068092346191 0.22786393761634827 0.003209133865311742
-0.8589086532592773 0.25646740198135376 0.0030822025146335363
-0.8574861288070679 0.28623777627944946 0.0029356577433645725
-0.8556178212165833 0.3171854019165039 0.0027679353952407837
-0.8531867265701294 0.3493015170097351 0.0025776526890695095
-0.850081205368042 0.3825569450855255 0.002363641280680895
-0.8461971282958984 0.41690173745155334 0.0021249803248792887
-0.8414389491081238 0.45226481556892395 0.0018610245315358043
-0.8357216119766235 0.48855406045913696 0.0015714329201728106
-0.7586337924003601 -0.48121145367622375 -0.0037652039900422096
-0.7813474535942078 -0.452846884727478 -0.00231731403619051
-0.8010185956954956 -0.42510974407196045 -0.0010431802365928888
-0.8176599144935608 -0.39806893467903137 5.831521048094146e-05
-0.8313339948654175 -0.3717765808105469 0.0009912290843203664
-0.8421522974967957 -0.3462660014629364 0.0017625364707782865
-0.8502741456031799 -0.3215503394603729 0.002382035134360194
-0.8559041619300842 -0.2976219058036804 0.0028621715027838945
-0.8592871427536011 -0.2744516432285309 0.0032178012188524008
-0.8607036471366882 -0.2519896626472473 0.003465907881036401
-0.8604647517204285 -0.2301657348871231 0.0036252804566174746
-0.8589063286781311 -0.20889031887054443 0.0037161833606660366
-0.8563826680183411 -0.188056081533432 0.003760023508220911
-0.8532616496086121 -0.1675390899181366 0.0037790387868881226
-0.8498654961585999 -0.14722152054309845 0.0037921294569969177
-0.8463013172149658 -0.1270570456981659 0.003802902065217495
-0.8426222801208496 -0.10701128840446472 0.0038111144676804543
-0.8388809561729431 -0.087041474878788 0.003816538956016302
-0.8351289629936218 -0.06709686666727066 0.0038189582992345095
-0.8314164876937866 -0.04711907356977463 0.0038181699346750975
-0.8277922868728638 -0.0270424522459507 0.0038139796815812588
-0.8243030905723572 -0.006794076878577471 0.0038062003441154957
-0.8209941387176514 0.01370578445494175 0.003794650314375758
-0.8179087042808533 0.034543879330158234 0.003779149614274502
-0.81508868932724 0.055813826620578766 0.0037595159374177456
-0.8125744462013245 0.07761665433645248 0.003735562786459923
-0.8104052543640137 0.1000610962510109 0.003707092022523284
-0.8085964322090149 0.12326768040657043 0.0036730002611875534
-0.8070693612098694 0.14737096428871155 0.0036286027170717716
-0.8057238459587097 0.17249292135238647 0.003568365005776286
-0.8044609427452087 0.1987355649471283 0.003486829809844494
-0.8031834363937378 0.2261788696050644 0.003378660185262561
-0.8017953634262085 0.2548784911632538 0.003238706849515438
-0.8002033829689026 0.2848631739616394 0.0030620882753282785
-0.7983174324035645 0.3161327838897705 0.002844291040673852
-0.7960519194602966 0.3486562669277191 0.002581278095021844
-0.7933273911476135 0.38237038254737854 0.002269602147862315
-0.7900721430778503 0.417179137468338 0.001906521269120276
-0.7862235307693481 0.45295438170433044 0.0014901040121912956
-0.7817302942276001 0.48953744769096375 0.0010193217312917113
-0.702866792678833 -0.4818938970565796 -0.0037652042228728533
-0.7273108959197998 -0.45379334688186646 -0.002336993347853422
-0.7483705282211304 -0.4263210892677307 -0.001079813577234745
-0.7660831809043884 -0.3995227515697479 8.276076187030412e-06
-0.7805351614952087 -0.37343111634254456 0.000931738642975688
-0.7918617129325867 -0.3480644226074219 0.001697584637440741
-0.8002458810806274 -0.32342544198036194 0.00231533357873559
-0.8059175610542297 -0.2995012104511261 0.0027969186194241047
-0.809149444103241 -0.27626192569732666 0.0031565309036523104
-0.8102537989616394 -0.25366175174713135 0.003410420147702098
-0.8095769882202148 -0.23163847625255585 0.0035766493529081345
-0.8074948191642761 -0.2101147472858429 0.003674824256449938
-0.8044063448905945 -0.18899860978126526 0.00372580299153924
-0.8007288575172424 -0.16818499565124512 0.0037514062132686377
-0.7968264222145081 -0.1475760042667389 0.0037703055422753096
-0.7928110957145691 -0.1271401345729828 0.003786238841712475
-0.788729727268219 -0.10685430467128754 0.0037991825956851244
-0.7846283912658691 -0.08668476343154907 0.0038091379683464766
-0.7805514335632324 -0.06658747792243958 0.0038161245174705982
-0.7765410542488098 -0.04650845378637314 0.0038201806601136923
-0.7726376056671143 -0.026384323835372925 0.003821355989202857
-0.7688788175582886 -0.006142378784716129 0.0038197089452296495
-0.7653005123138428 0.014298911206424236 0.003815304720774293
-0.7619360685348511 0.03502998873591423 0.003808209439739585
-0.7588169574737549 0.056150052696466446 0.003798488061875105
-0.7559729814529419 0.07776763290166855 0.003786201123148203
-0.75343257188797 0.10000094771385193 0.003771401708945632
-0.7512064576148987 0.12298525124788284 0.003752694232389331
-0.7492398619651794 0.14688235521316528 0.00372293614782393
-0.7474631667137146 0.1718403398990631 0.003673594444990158
-0.7458092570304871 0.197982057929039 0.0035962259862571955
-0.7442124485969543 0.2254021167755127 0.0034825557377189398
-0.7426087260246277 0.2541637122631073 0.0033245952799916267
-0.7409368753433228 0.2842954099178314 0.0031147953122854233
-0.7391379475593567 0.31578806042671204 0.002846227725967765
-0.7371571063995361 0.3485923707485199 0.0025127874687314034
-0.7349442839622498 0.38261762261390686 0.002109405817463994
-0.7324552536010742 0.4177316129207611 0.0016322550363838673
-0.7296530604362488 0.4537621736526489 0.001078933011740446
-0.7265087962150574 0.49050047993659973 0.00044861118658445776
-0.6449378728866577 -0.4827927052974701 -0.0037652042228728533
-0.6713882088661194 -0.45493248105049133 -0.0023604242596775293
-0.6940460205078125 -0.4276987910270691 -0.00112335744779557
-0.7129780650138855 -0.40111616253852844 -5.127843178343028e-05
-0.728299081325531 -0.37519967555999756 0.0008606736664660275
-0.7401720285415649 -0.34995386004447937 0.0016195515636354685
-0.7488098740577698 -0.3253721594810486 0.002234614221379161
-0.754472553730011 -0.30143603682518005 0.0027172891423106194
-0.7574670314788818 -0.27811509370803833 0.0030810919124633074
-0.75814288854599 -0.2553666830062866 0.003341496689245105
-0.7568891644477844 -0.23313620686531067 0.0035157627426087856
-0.7541288733482361 -0.21135753393173218 0.003622720018029213
-0.7503141164779663 -0.18995364010334015 0.003682526294142008
-0.7459192276000977 -0.1688375174999237 0.0037163991946727037
-0.7413594722747803 -0.14793062210083008 0.003742608707398176
-0.7367532253265381 -0.1272142082452774 0.0037649315781891346
-0.7321426272392273 -0.1066746711730957 0.0037835040129721165
-0.7275675535202026 -0.08628574013710022 0.0037984964437782764
-0.7230654954910278 -0.066009022295475 0.0038101118989288807
-0.7186715006828308 -0.04579430818557739 0.0038185783196240664
-0.7144172191619873 -0.02558022178709507 0.0038241404108703136
-0.7103320360183716 -0.005294316913932562 0.0038270566146820784
-0.70644211769104 0.015146232210099697 0.003827593754976988
-0.7027710676193237 0.0358346663415432 0.0038260198198258877
-0.6993402242660522 0.05687444657087326 0.0038226048927754164
-0.6961687803268433 0.07837976515293121 0.0038176144007593393
-0.6932743787765503 0.10047594457864761 0.003811309114098549
-0.6906636357307434 0.1233091652393341 0.003802041755989194
-0.6883047819137573 0.14706119894981384 0.0037805698812007904
-0.6861596703529358 0.17189933359622955 0.0037357984110713005
-0.6841922998428345 0.19796156883239746 0.0036567384377121925
-0.6823688745498657 0.22535324096679688 0.003532624337822199
-0.680657148361206 0.25414299964904785 0.0033530809450894594
-0.6790268421173096 0.2843588888645172 0.0031083531212061644
-0.677449107170105 0.31598472595214844 0.002789570949971676
-0.6758971810340881 0.34895753860473633 0.0023890468291938305
-0.674346387386322 0.38316625356674194 0.0019005808280780911
-0.6727745532989502 0.41845211386680603 0.001319748000241816
-0.6711627244949341 0.45461151003837585 0.0006441496661864221
-0.6694945096969604 0.4914005696773529 -0.00012640596833080053
-0.5838849544525146 -0.4838445484638214 -0.0037652039900422096
-0.6126339435577393 -0.45623815059661865 -0.0023890449665486813
-0.6371215581893921 -0.429242879152298 -0.0011761036003008485
-0.6574458479881287 -0.40286633372306824 -0.00012306170538067818
-0.6737523674964905 -0.3771096169948578 0.0007751980447210371
-0.6862356066703796 -0.35196661949157715 0.0015256745973601937
-0.695141077041626 -0.32742342352867126 0.0021372982300817966
-0.7007642984390259 -0.30345791578292847 0.002620943356305361
-0.7034514546394348 -0.2800399661064148 0.0029894013423472643
-0.7035960555076599 -0.2571306824684143 0.0032573104836046696
-0.701636016368866 -0.23468302190303802 0.0034410385414958
-0.698049783706665 -0.2126418799161911 0.0035585237201303244
-0.6933503150939941 -0.19094456732273102 0.003629070008173585
-0.6880787014961243 -0.1695215404033661 0.003673106199130416
-0.6827083230018616 -0.14831237494945526 0.0037083146162331104
-0.6773679256439209 -0.12730929255485535 0.003738436382263899
-0.6720960140228271 -0.10650639981031418 0.0037637175992131233
-0.6669278740882874 -0.08588362485170364 0.0037844597827643156
-0.6618952751159668 -0.06540729850530624 0.0038010096177458763
-0.6570265293121338 -0.0450303740799427 0.003813750110566616
-0.6523463129997253 -0.02469322271645069 0.003823091508820653
-0.6478752493858337 -0.004323780070990324 0.003829461056739092
-0.6436312198638916 0.01616164855659008 0.003833300666883588
-0.6396282911300659 0.036858342587947845 0.003835053648799658
-0.635878324508667 0.05787288025021553 0.0038351675029844046
-0.632390558719635 0.07932359725236893 0.0038340867031365633
-0.6291720867156982 0.10134096443653107 0.0038322508335113525
-0.6262257099151611 0.1240789070725441 0.003827801439911127
-0.623542845249176 0.14773301780223846 0.0038097151555120945
-0.6211154460906982 0.17248380184173584 0.003764730878174305
-0.6189382672309875 0.1984798163175583 0.003679717658087611
-0.6170080304145813 0.22583383321762085 0.0035418227780610323
-0.615323007106781 0.2546183168888092 0.0033386950381100178
-0.6138818860054016 0.2848610579967499 0.0030587762594223022
-0.6126834154129028 0.31654152274131775 0.0026916468050330877
-0.6117253303527832 0.3495875895023346 0.002228404162451625
-0.6110038161277771 0.3838748335838318 0.001662044902332127
-0.6105133295059204 0.4192275106906891 0.0009878232376649976
-0.6102455258369446 0.4554217457771301 0.00020354556909296662
-0.6101893782615662 0.49219220876693726 -0.0006902271416038275
-0.5187748670578003 -0.48498570919036865 -0.0037652042228728533
-0.5500994324684143 -0.45768436789512634 -0.002424318576231599
-0.5766456127166748 -0.43095433712005615 -0.0012404053704813123
-0.5985409021377563 -0.4047923982143402 -0.00020988928736187518
-0.6159607768058777 -0.3791908621788025 0.0006723429542034864
-0.6291323900222778 -0.3541375994682312 0.001413037651218474
-0.6383362412452698 -0.3296152949333191 0.002020652871578932
-0.6439071893692017 -0.30560144782066345 0.002505400450900197
-0.6462350487709045 -0.2820682227611542 0.002879259642213583
-0.645763099193573 -0.2589823603630066 0.00315594719722867
-0.6429852843284607 -0.2363051027059555 0.0033508422784507275
-0.6384425759315491 -0.213992640376091 0.0034808653872460127
-0.632716953754425 -0.1919962614774704 0.0035643100272864103
-0.6264246106147766 -0.17026308178901672 0.003620627336204052
-0.6201051473617554 -0.1487494558095932 0.0036667222157120705
-0.6139002442359924 -0.12745682895183563 0.0037062347400933504
-0.6078468561172485 -0.10638544708490372 0.0037394941318780184
-0.6019773483276367 -0.08552039414644241 0.003766909707337618
-0.5963192582130432 -0.06483177840709686 0.003788952948525548
-0.590895414352417 -0.04427517578005791 0.0038061467930674553
-0.5857238173484802 -0.023792482912540436 0.003819052129983902
-0.5808182954788208 -0.0033120750449597836 0.0038282577879726887
-0.5761884450912476 0.01725028082728386 0.003834366798400879
-0.5718401670455933 0.037991274148225784 0.0038379933685064316
-0.5677763223648071 0.059019677340984344 0.0038397519383579493
-0.5639969110488892 0.08045676350593567 0.0038402562495321035
-0.5604994297027588 0.1024366021156311 0.0038401151541620493
-0.5572834610939026 0.12511830031871796 0.003837304888293147
-0.5543628931045532 0.1487063467502594 0.0038193047512322664
-0.5517585873603821 0.17338970303535461 0.003771033836528659
-0.5494946837425232 0.1993238925933838 0.00367757142521441
-0.5475970506668091 0.2266266942024231 0.0035243311431258917
-0.5460919737815857 0.2553735673427582 0.003297331277281046
-0.5450051426887512 0.28559309244155884 0.0029835388995707035
-0.5443592071533203 0.31726282835006714 0.0025712784845381975
-0.544173002243042 0.35030660033226013 0.0020506756845861673
-0.5444592833518982 0.38459330797195435 0.001414103084243834
-0.5452238321304321 0.4199385344982147 0.0006565872463397682
-0.546463668346405 0.45610857009887695 -0.00022386133787222207
-0.5481670498847961 0.49282729625701904 -0.001226038672029972
-0.4487033784389496 -0.4861511290073395 -0.003765203757211566
-0.48282772302627563 -0.4592449963092804 -0.0024677379988133907
-0.511629581451416 -0.43283528089523315 -0.0013187002623453736
-0.5352582931518555 -0.4069152772426605 -0.0003147158131469041
-0.5539155602455139 -0.38147586584091187 0.0005489522591233253
-0.5678583383560181 -0.3565049469470978 0.0012785111321136355
-0.5774023532867432 -0.33198729157447815 0.0018817243399098516
-0.5829241275787354 -0.3079044818878174 0.002367975190281868
-0.5848612785339355 -0.2842348515987396 0.0027482970617711544
-0.5837119817733765 -0.2609531283378601 0.0030353672336786985
-0.5800327658653259 -0.2380308359861374 0.003243456594645977
-0.5744339227676392 -0.21543626487255096 0.0033883340656757355
-0.5675742030143738 -0.19313476979732513 0.0034871180541813374
-0.5601521134376526 -0.17108915746212006 0.0035580804105848074
-0.5527796149253845 -0.1492709517478943 0.0036171593237668276
-0.5456144213676453 -0.12768930196762085 0.0036678446922451258
-0.5386931300163269 -0.10634937882423401 0.0037105451337993145
-0.5320464968681335 -0.08524022996425629 0.0037457733415067196
-0.5256990194320679 -0.06433502584695816 0.003774130018427968
-0.5196690559387207 -0.043591469526290894 0.0037962833885103464
-0.5139693021774292 -0.022952670231461525 0.003812953131273389
-0.5086070895195007 -0.002347408328205347 0.0038248966448009014
-0.5035848021507263 0.01830887608230114 0.0038328934460878372
-0.49890080094337463 0.0391138531267643 0.003837733529508114
-0.4945496618747711 0.060177844017744064 0.0038402134086936712
-0.4905228018760681 0.08162414282560349 0.003841124940663576
-0.48680931329727173 0.10358931124210358 0.0038412553258240223
-0.4834058880805969 0.12623579800128937 0.0038384690415114164
-0.4803480803966522 0.1497732400894165 0.0038189897313714027
-0.47768494486808777 0.1743958294391632 0.003766212146729231
-0.4754682779312134 0.20026341080665588 0.0036637166049331427
-0.47375133633613586 0.22749754786491394 0.0034954724833369255
-0.47258660197257996 0.2561766803264618 0.003246134612709284
-0.47202378511428833 0.28633156418800354 0.0029014318715780973
-0.4721071422100067 0.31794092059135437 0.0024486214388161898
-0.4728733003139496 0.35092905163764954 0.001876980997622013
-0.4743480384349823 0.3851643204689026 0.0011782997753471136
-0.47654494643211365 0.4204612672328949 0.0003473251999821514
-0.47946277260780334 0.45658430457115173 -0.0006178813637234271
-0.48308488726615906 0.49325528740882874 -0.0017157252877950668
-0.37307754158973694 -0.48728349804878235 -0.003765204455703497
-0.41011714935302734 -0.4608922302722931 -0.002520389622077346
-0.44129499793052673 -0.43487975001335144 -0.0014128093607723713
-0.46676936745643616 -0.40924471616744995 -0.00043980416376143694
-0.48675814270973206 -0.383984237909317 0.00040256461943499744
-0.5015425682067871 -0.3590936064720154 0.0011196222621947527
-0.5114713311195374 -0.3345663547515869 0.0017181687289848924
-0.5169621706008911 -0.31039345264434814 0.002206544391810894
-0.5185032486915588 -0.2865639925003052 0.002594663528725505
-0.5166521668434143 -0.2630646228790283 0.0028940157499164343
-0.5120329260826111 -0.2398795634508133 0.003117620013654232
-0.5053314566612244 -0.21699075400829315 0.003279938828200102
-0.49728819727897644 -0.19437791407108307 0.0033967404160648584
-0.48868903517723083 -0.17201858758926392 0.0034849122166633606
-0.48022207617759705 -0.14989785850048065 0.003559233620762825
-0.47206199169158936 -0.12803113460540771 0.003623012686148286
-0.46424630284309387 -0.10642740875482559 0.003676753956824541
-0.4568046033382416 -0.08507881313562393 0.0037210953887552023
-0.4497588872909546 -0.06396081298589706 0.003756787860766053
-0.4431237280368805 -0.0430326871573925 0.0037846709601581097
-0.43690672516822815 -0.022238396108150482 0.0038056503981351852
-0.431109219789505 -0.0015069738728925586 0.0038206789176911116
-0.4257270097732544 0.019246423617005348 0.003830739064142108
-0.42075106501579285 0.04012022167444229 0.003836827352643013
-0.4161684811115265 0.06122586876153946 0.003839945886284113
-0.4119628071784973 0.08268812298774719 0.0038410916458815336
-0.4081151485443115 0.1046452671289444 0.003841254860162735
-0.4046199321746826 0.12726187705993652 0.0038382508791983128
-0.401533842086792 0.15075036883354187 0.0038172565400600433
-0.3989326059818268 0.17530779540538788 0.0037603832315653563
-0.3968943655490875 0.20109711587429047 0.003649955615401268
-0.39549800753593445 0.2282431721687317 0.0034687211737036705
-0.39482033252716064 0.25682803988456726 0.003200171049684286
-0.39493319392204285 0.2868863344192505 0.0028289519250392914
-0.39590033888816833 0.31840112805366516 0.0023413526359945536
-0.3977738916873932 0.35130128264427185 0.0017258264124393463
-0.40059083700180054 0.3854599595069885 0.0009735198109410703
-0.40437057614326477 0.420696496963501 7.874664152041078e-05
-0.40911203622817993 0.4567802846431732 -0.0009606292587704957
-0.414792537689209 0.4934377074241638 -0.002142958575859666
-0.2924410402774811 -0.4883608818054199 -0.0037652042228728533
-0.3323359489440918 -0.4625907838344574 -0.002581596840173006
-0.36587199568748474 -0.4370456039905548 -0.0015217203181236982
-0.3932007849216461 -0.411735862493515 -0.0005840124213136733
-0.4145444333553314 -0.38667163252830505 0.00023433941532857716
-0.43020036816596985 -0.3618616461753845 0.0009375012014061213
-0.44054481387138367 -0.3373134434223175 0.0015310763847082853
-0.4460349977016449 -0.313032865524292 0.0020221651066094637
-0.4472094178199768 -0.28902387619018555 0.0024193916469812393
-0.44468602538108826 -0.26528841257095337 0.0027328983414918184
-0.43915852904319763 -0.24182602763175964 0.002974298782646656
-0.431389719247818 -0.2186337560415268 0.0031565867830067873
-0.4222029149532318 -0.19570602476596832 0.0032940004020929337
-0.4124709665775299 -0.1730346381664276 0.003401843598112464
-0.402956485748291 -0.15061640739440918 0.003493555821478367
-0.393851101398468 -0.1284717172384262 0.003572245594114065
-0.38519302010536194 -0.10661236941814423 0.003638535039499402
-0.3770109713077545 -0.08503266423940659 0.003693214850500226
-0.369324654340744 -0.06370958685874939 0.0037372163496911526
-0.3621448874473572 -0.042603399604558945 0.0037715781945735216
-0.3554746210575104 -0.0216585211455822 0.003797423793002963
-0.3493095934391022 -0.000804030685685575 0.003815931500867009
-0.3436392843723297 0.020045241340994835 0.003828316228464246
-0.3384482264518738 0.040988337248563766 0.0038358087185770273
-0.3337165117263794 0.06213753670454025 0.003839645069092512
-0.3294207453727722 0.0836186408996582 0.003841054392978549
-0.3255349099636078 0.10557105392217636 0.0038412550929933786
-0.32205185294151306 0.12816046178340912 0.0038380746264010668
-0.3190470337867737 0.15160009264945984 0.003815846983343363
-0.316619873046875 0.1760881394147873 0.003755645826458931
-0.3148719370365143 0.20178954303264618 0.0036387713626027107
-0.31390446424484253 0.2288321554660797 0.0034469689708203077
-0.3138154447078705 0.25730210542678833 0.0031627523712813854
-0.3146961033344269 0.2872394919395447 0.0027698297053575516
-0.31662678718566895 0.3186340630054474 0.002253601560369134
-0.31967318058013916 0.35142263770103455 0.0016017055604606867
-0.32388201355934143 0.3854876458644867 0.0008045631693676114
-0.3292776346206665 0.42065808176994324 -0.0001441205240553245
-0.33585914969444275 0.45671355724334717 -0.001246948610059917
-0.34359878301620483 0.49339017271995544 -0.00250257202424109
-0.2076398879289627 -0.4893702268600464 -0.003765204455703497
-0.2501576840877533 -0.464302659034729 -0.0026502127293497324
-0.28589463233947754 -0.4392794072628021 -0.0016436396399512887
-0.31497976183891296 -0.4143275320529938 -0.0007452329737134278
-0.3376270830631256 -0.38947418332099915 4.6493936679326e-05
-0.3541405498981476 -0.36474609375 0.0007343602483160794
-0.3649173676967621 -0.3401692807674408 0.0013225966831669211
-0.3704495131969452 -0.3157680928707123 0.0018168964888900518
-0.37132278084754944 -0.2915652096271515 0.002224433934316039
-0.36821338534355164 -0.2675805687904358 0.002553847385570407
-0.36188235878944397 -0.24383127689361572 0.002815184649080038
-0.35316646099090576 -0.2203308641910553 0.0030198018066585064
-0.3429674804210663 -0.1970888078212738 0.0031802316661924124
-0.332239031791687 -0.17411042749881744 0.0033100051805377007
-0.3218117952346802 -0.15140293538570404 0.003421059576794505
-0.31189221143722534 -0.12899045646190643 0.0035162910353392363
-0.30251893401145935 -0.10688658058643341 0.0035964702256023884
-0.2937195599079132 -0.08508683741092682 0.0036625692155212164
-0.2855112552642822 -0.06356898695230484 0.003715729108080268
-0.2779013216495514 -0.04229366034269333 0.0037572206929326057
-0.2708882987499237 -0.021205350756645203 0.0037884118501096964
-0.26446282863616943 -0.00023290487297344953 0.0038107354193925858
-0.25860902667045593 0.020709237083792686 0.003825666382908821
-0.25330546498298645 0.041720643639564514 0.003834696253761649
-0.2485264241695404 0.06291420757770538 0.00383931677788496
-0.24424272775650024 0.08441636711359024 0.0038410131819546223
-0.2404228299856186 0.10636721551418304 0.0038412553258240223
-0.23705802857875824 0.12893271446228027 0.003837938653305173
-0.2342391312122345 0.15232515335083008 0.003814766649156809
-0.2320844978094101 0.17674247920513153 0.0037520176265388727
-0.23071415722370148 0.20235060155391693 0.0036302076186984777
-0.23024705052375793 0.22927987575531006 0.0034302982967346907
-0.23079779744148254 0.25762084126472473 0.0031340199057012796
-0.23247277736663818 0.2874199151992798 0.002724289894104004
-0.23536576330661774 0.3186754882335663 0.002185714663937688
-0.2395533323287964 0.35133475065231323 0.0015051342779770494
-0.24509043991565704 0.3852924406528473 0.0006721813697367907
-0.25200632214546204 0.4203912913799286 -0.0003202036314178258
-0.2603013813495636 0.45642492175102234 -0.0014753390569239855
-0.2699451446533203 0.4931436777114868 -0.002792511135339737
-0.11954768747091293 -0.49029800295829773 -0.0037652042228728533
-0.16430848836898804 -0.4659879505634308 -0.002725040540099144
-0.20196665823459625 -0.4415249824523926 -0.0017766633536666632
-0.23261494934558868 -0.4169543981552124 -0.0009211851865984499
-0.25644755363464355 -0.39232319593429565 -0.00015852932119742036
-0.27376529574394226 -0.36767902970314026 0.0005126729956828058
-0.28497859835624695 -0.3430691063404083 0.001095158513635397
-0.29060760140419006 -0.3185395300388336 0.0015930793015286326
-0.291279673576355 -0.29413414001464844 0.0020120132248848677
-0.2877237796783447 -0.26989343762397766 0.002358941128477454
-0.2807615399360657 -0.24585355818271637 0.0026421798393130302
-0.27129629254341125 -0.22204548120498657 0.0028712847270071507
-0.26029884815216064 -0.1984941065311432 0.0030569068621844053
-0.24879209697246552 -0.17521768808364868 0.003210630966350436
-0.2376636266708374 -0.15223263204097748 0.003342753043398261
-0.22713162004947662 -0.12956561148166656 0.0034559525083750486
-0.2172342985868454 -0.10723105818033218 0.0035511795431375504
-0.2079976499080658 -0.08522481471300125 0.0036296206526458263
-0.19943618774414062 -0.06352479010820389 0.0036926581524312496
-0.19155378639698029 -0.04209136217832565 0.0037418229039758444
-0.18434497714042664 -0.020868675783276558 0.0037787561304867268
-0.1777961403131485 0.0002148668427253142 0.0038051744922995567
-0.17188680171966553 0.0212453231215477 0.003822833066806197
-0.16659097373485565 0.04232275113463402 0.003833506256341934
-0.16187837719917297 0.06356048583984375 0.003838965902104974
-0.1577156037092209 0.08508533239364624 0.0038409698754549026
-0.15406697988510132 0.10703766345977783 0.0038412550929933786
-0.15092310309410095 0.12958306074142456 0.003837843891233206
-0.14838507771492004 0.15293163061141968 0.003814014606177807
-0.14658419787883759 0.17727971076965332 0.0037494944408535957
-0.14565284550189972 0.20279335975646973 0.003624251112341881
-0.14572176337242126 0.22960492968559265 0.003418685169890523
-0.14691665768623352 0.2578093707561493 0.0031139382626861334
-0.14935413002967834 0.2874598801136017 0.002692297799512744
-0.1531372219324112 0.31856441497802734 0.0021376833319664
-0.15835045278072357 0.3510822057723999 0.0014361836947500706
-0.1650552600622177 0.3849223852157593 0.0005766134709119797
-0.17328566312789917 0.41994380950927734 -0.00044896284816786647
-0.18304474651813507 0.45595741271972656 -0.0016447780653834343
-0.19430238008499146 0.4927307069301605 -0.0030110368970781565
-0.029068686068058014 -0.4911302328109741 -0.003765204455703497
-0.07557543367147446 -0.4676052927970886 -0.0028048257809132338
-0.11477441340684891 -0.4437226951122284 -0.0019187425496056676
-0.1467122882604599 -0.4195466935634613 -0.0011093607172369957
-0.17155414819717407 -0.3951447308063507 -0.0003779914986807853
-0.1895889788866043 -0.370586633682251 0.00027525442419573665
-0.2012321501970291 -0.34594273567199707 0.0008515518857166171
-0.20702408254146576 -0.3212824761867523 0.001353409723378718
-0.2076253890991211 -0.2966727316379547 0.0017846818082034588
-0.20380842685699463 -0.2721758782863617 0.0021505439653992653
-0.19644540548324585 -0.24784831702709198 0.0024574273265898228
-0.1864938735961914 -0.2237391173839569 0.002712919609621167
-0.1749797761440277 -0.19988857209682465 0.00292563415132463
-0.1629793643951416 -0.17632733285427094 0.0031050515826791525
-0.15142224729061127 -0.15307991206645966 0.0032597072422504425
-0.1405344009399414 -0.1301746815443039 0.0033920705318450928
-0.13035264611244202 -0.10762588679790497 0.0035033042076975107
-0.12090089917182922 -0.08542906492948532 0.0035948422737419605
-0.11219091713428497 -0.06356141716241837 0.0036683371290564537
-0.1042235791683197 -0.041982706636190414 0.0037256102077662945
-0.09699011594057083 -0.02063634991645813 0.003768601454794407
-0.0904734656214714 0.0005499600083567202 0.0037993306759744883
-0.08464988321065903 0.021662864834070206 0.003819857956841588
-0.07949025183916092 0.04280289262533188 0.0038322582840919495
-0.07496144622564316 0.06408372521400452 0.0038385980296880007
-0.0710274949669838 0.0856323391199112 0.0038409242406487465
-0.06765063852071762 0.10758910328149796 0.0038412553258240223
-0.06482105702161789 0.13011875748634338 0.003837789408862591
-0.06264493614435196 0.15342818200588226 0.00381358340382576
-0.06125953420996666 0.17771121859550476 0.0037480522878468037
-0.060802754014730453 0.2031332403421402 0.0036208450328558683
-0.061410561203956604 0.2298281341791153 0.0034120194613933563
-0.06321357935667038 0.2578948438167572 0.0031023293267935514
-0.0663331001996994 0.2873934507369995 0.0026736014988273382
-0.07087664306163788 0.31834161281585693 0.0021092004608362913
-0.07693317532539368 0.35071131587028503 0.001394543913193047
-0.08456837385892868 0.3844270706176758 0.0005176500417292118
-0.09382031112909317 0.4193652272224426 -0.000530343153513968
-0.10469577461481094 0.455355703830719 -0.0017547077732160687
-0.11716775596141815 0.4921852648258209 -0.0031567695550620556
0.06286156177520752 -0.49185270071029663 -0.003765204455703497
0.015187797136604786 -0.4691113233566284 -0.0028882413171231747
-0.025096872821450233 -0.44581007957458496 -0.0020676578860729933
-0.05798855423927307 -0.4220302402973175 -0.0013069779379293323
-0.08361756056547165 -0.3978593945503235 -0.0006087998044677079
-0.10225445032119751 -0.37338945269584656 2.5325294700451195e-05
-0.11431168764829636 -0.3487142026424408 0.0005949906189925969
-0.12034083157777786 -0.3239270746707916 0.0011009947629645467
-0.1210252046585083 -0.2991184592247009 0.001545363455079496
-0.11716838926076889 -0.27437329292297363 0.0019313377561047673
-0.10967904329299927 -0.24976861476898193 0.002263318747282028
-0.09955301135778427 -0.2253715842962265 0.0025467793457210064
-0.08785351365804672 -0.20123770833015442 0.0027881499845534563
-0.07569066435098648 -0.17740947008132935 0.0029946761205792427
-0.06401888281106949 -0.1539188176393509 0.0031730402261018753
-0.05306733772158623 -0.1307947337627411 0.003325510071590543
-0.04287083074450493 -0.10805073380470276 0.0034534954465925694
-0.033450897783041 -0.08568122237920761 0.0035587074235081673
-0.024816861376166344 -0.0636623427271843 0.0036430982872843742
-0.016967086121439934 -0.041952699422836304 0.0037088030949234962
-0.009890480898320675 -0.020494723692536354 0.0037580844946205616
-0.003567900275811553 0.0007847773958928883 0.00379328359849751
0.0020261972676962614 0.021973153576254845 0.003816781798377633
0.006922362372279167 0.043171413242816925 0.0038309681694954634
0.011154728941619396 0.06449349224567413 0.003838217817246914
0.014759846031665802 0.08606643229722977 0.0038408765103667974
0.017775563523173332 0.10803046077489853 0.0038412553258240223
0.02021152898669243 0.1305491179227829 0.0038377733435481787
0.021962150931358337 0.15382544696331024 0.0038134618662297726
0.022891344502568245 0.17805016040802002 0.0037476508878171444
0.022862646728754044 0.20338720083236694 0.003619894152507186
0.021741710603237152 0.2299714982509613 0.0034101225901395082
0.019399426877498627 0.25790542364120483 0.003098901594057679
0.015715692192316055 0.2872554063796997 0.0026677800342440605
0.010583621449768543 0.31804847717285156 0.0020997230894863605
0.003914033528417349 0.35026898980140686 0.0013796002604067326
-0.004360006656497717 0.383856862783432 0.0004947084817104042
-0.014278977178037167 0.4187059998512268 -0.0005647128564305604
-0.02585325390100479 0.4546656906604767 -0.001805008389055729
-0.03906046971678734 0.4915427267551422 -0.0032287247013300657
0.15527424216270447 -0.49245086312294006 -0.0037652042228728533
0.1070556566119194 -0.4704613983631134 -0.0029738852754235268
0.06618580967187881 -0.4477211534976959 -0.0022209975868463516
0.03271728754043579 -0.42432618141174316 -0.0015109485248103738
0.006555580534040928 -0.4003823697566986 -0.0008474619826301932
-0.01254739798605442 -0.3760022521018982 -0.0002334380551474169
-0.02499442920088768 -0.3513021767139435 0.00032916091731749475
-0.0313386432826519 -0.3263985812664032 0.000839393527712673
-0.03227381408214569 -0.3014049828052521 0.0012973850825801492
-0.028619980439543724 -0.27642831206321716 0.0017043383559212089
-0.021305140107870102 -0.2515655755996704 0.0020625037141144276
-0.011344361118972301 -0.22690165042877197 0.0023751170374453068
0.00018248645938001573 -0.20250661671161652 0.002646307460963726
0.012153012678027153 -0.17843425273895264 0.002880981657654047
0.0236066821962595 -0.15472331643104553 0.0030839014798402786
0.034315433353185654 -0.1314029097557068 0.00325714610517025
0.04424689710140228 -0.10848508030176163 0.0034024009946733713
0.053381744772195816 -0.08596275746822357 0.003521681297570467
0.061712563037872314 -0.06381054222583771 0.003617263399064541
0.06924249231815338 -0.041985634714365005 0.0036916150711476803
0.0759836807847023 -0.02042922005057335 0.0037473365664482117
0.08195588737726212 0.000932894297875464 0.003787107765674591
0.08718466758728027 0.02218882367014885 0.0038136416114866734
0.09170017391443253 0.04344009608030319 0.003829652676358819
0.09553559124469757 0.0648009181022644 0.003837831085547805
0.09872600436210632 0.08639830350875854 0.0038408285472542048
0.10130733251571655 0.10837224870920181 0.003841254860162735
0.10328849405050278 0.1308850795030594 0.003837794763967395
0.10456995666027069 0.15413561463356018 0.003813636489212513
0.10502364486455917 0.17831093072891235 0.0037482413463294506
0.10452134907245636 0.2035732865333557 0.0036212829872965813
0.10293687880039215 0.23005779087543488 0.0034127729013562202
0.100149005651474 0.2578696310520172 0.003103290218859911
0.09604472666978836 0.2870806157588959 0.002674299059435725
0.09052316844463348 0.317726194858551 0.002108545508235693
0.08349964022636414 0.3498019874095917 0.0013905114028602839
0.0749097615480423 0.38326191902160645 0.0005069151520729065
0.06471341848373413 0.41801658272743225 -0.0005527952453121543
0.052898190915584564 0.4539335370063782 -0.001795968390069902
0.03948197141289711 0.4908389747142792 -0.0032263491302728653
0.24717015027999878 -0.492910236120224 -0.003765204455703497
0.199031800031662 -0.4716097116470337 -0.0030602768529206514
0.1580907106399536 -0.4493876099586487 -0.002376153599470854
0.12444008886814117 -0.42635229229927063 -0.0017178680282086134
0.09801743179559708 -0.40262463688850403 -0.0010900723282247782
0.07859789580106735 -0.3783354163169861 -0.0004968870780430734
0.06579359620809555 -0.3536209166049957 5.823566243634559e-05
0.0590592585504055 -0.328618586063385 0.0005726264207623899
0.05770387500524521 -0.30346301198005676 0.0010444765212014318
0.06090746819972992 -0.27828124165534973 0.0014728865353390574
0.06774181127548218 -0.25318896770477295 0.001857873983681202
0.07719352841377258 -0.22828735411167145 0.00220034783706069
0.08818814158439636 -0.20366010069847107 0.002502053277567029
0.09961331635713577 -0.17937183380126953 0.0027654890436679125
0.11052096635103226 -0.1554676592350006 0.0029934514313936234
0.12068810313940048 -0.13197648525238037 0.0031878447625786066
0.13008464872837067 -0.10890860855579376 0.003350650891661644
0.1386929601430893 -0.08625508844852448 0.0034842095337808132
0.14650656282901764 -0.06398878991603851 0.003591133514419198
0.15352891385555267 -0.04206538200378418 0.0036742400843650103
0.1597716510295868 -0.020424675196409225 0.003736477578058839
0.1652534455060959 0.0010086011607199907 0.0037808704655617476
0.16999810934066772 0.022323379293084145 0.0038104711566120386
0.17403347790241241 0.0436217337846756 0.00382832414470613
0.17738983035087585 0.06501814723014832 0.003837439464405179
0.18009892106056213 0.08663967251777649 0.0038407801184803247
0.18219274282455444 0.1086260974407196 0.003841255558654666
0.1836790293455124 0.13113848865032196 0.003837851108983159
0.18446914851665497 0.15437155961990356 0.0038140888791531324
0.18444937467575073 0.17850863933563232 0.0037497677840292454
0.18350577354431152 0.20370976626873016 0.003624881384894252
0.18152639269828796 0.23010976612567902 0.0034197228960692883
0.17840372025966644 0.2578156292438507 0.0031150877475738525
0.17403754591941833 0.2869033217430115 0.0026925562415271997
0.16833841800689697 0.3174150586128235 0.0021348572336137295
0.16123102605342865 0.34935587644577026 0.0014262896729633212
0.15265803039073944 0.38269156217575073 0.0005531893111765385
0.1425834745168686 0.41734686493873596 -0.0004955960903316736
0.13099581003189087 0.4532054662704468 -0.0017282437765970826
0.1179104670882225 0.49011069536209106 -0.003149548079818487
0.3375190198421478 -0.4932158589363098 -0.003765204455703497
0.29004886746406555 -0.4725091755390167 -0.0031458591111004353
0.24953165650367737 -0.45073962211608887 -0.0025303277652710676
0.2160871922969818 -0.42802369594573975 -0.0019240184919908643
0.189676895737648 -0.4044942855834961 -0.00133231480140239
0.17009662091732025 -0.3802962899208069 -0.0007604070124216378
0.1569766104221344 -0.35558217763900757 -0.0002131338114850223
0.1497879922389984 -0.33050674200057983 0.0003051622770726681
0.14785577356815338 -0.30522191524505615 0.0007907554972916842
0.15037712454795837 -0.27987194061279297 0.0012406310997903347
0.15644319355487823 -0.2545885145664215 0.001652540871873498
0.165063738822937 -0.2294870764017105 0.0020250275265425444
0.17519141733646393 -0.20466367900371552 0.0023574111983180046
0.18574552237987518 -0.18019303679466248 0.002649747533723712
0.19580772519111633 -0.15612676739692688 0.002902851440012455
0.20516330003738403 -0.13249348104000092 0.0031184565741568804
0.21378396451473236 -0.10930147022008896 0.003298853524029255
0.2216528207063675 -0.08653994649648666 0.003446711925789714
0.2287631779909134 -0.06418004631996155 0.003564991522580385
0.23511725664138794 -0.042175840586423874 0.0036568590439856052
0.24072477221488953 -0.02046576887369156 0.003725614631548524
0.24560150504112244 0.0010265029268339276 0.0037746308371424675
0.24976779520511627 0.02239074930548668 0.003807299304753542
0.25324735045433044 0.04372962936758995 0.00382699491456151
0.25606584548950195 0.0651579424738884 0.003837048076093197
0.2582499384880066 0.0868028998374939 0.0038407312240451574
0.259826123714447 0.10880416631698608 0.0038412553258240223
0.26080045104026794 0.13132184743881226 0.003837940748780966
0.2610993981361389 0.15454673767089844 0.00381480366922915
0.26062875986099243 0.178658589720726 0.0037521745543926954
0.2592940926551819 0.20381499826908112 0.0036305575631558895
0.25700291991233826 0.23014989495277405 0.0034307220485061407
0.25366654992103577 0.25777095556259155 0.0031338774133473635
0.2492026686668396 0.28675684332847595 0.0027219296898692846
0.24353820085525513 0.31715425848960876 0.002177811460569501
0.2366122156381607 0.3489750027656555 0.0014858742943033576
0.22837911546230316 0.3821937143802643 0.0006323236739262938
0.21881142258644104 0.4167458713054657 -0.00039432852645404637
0.20790249109268188 0.45252731442451477 -0.0016028151148930192
0.19566865265369415 0.4893947243690491 -0.0029987068846821785
0.4252642095088959 -0.4933531582355499 -0.0037652039900422096
0.37897613644599915 -0.47311317920684814 -0.0032290101516991854
0.3393278121948242 -0.4517066180706024 -0.002680544974282384
0.30644795298576355 -0.42925509810447693 -0.002125401282683015
0.28030967712402344 -0.4058987498283386 -0.0015695084584876895
0.26072418689727783 -0.38179171085357666 -0.0010189679451286793
0.24734078347682953 -0.35709741711616516 -0.0004798741720151156
0.23965395987033844 -0.33198243379592896 4.18609197367914e-05
0.23701699078083038 -0.3066112995147705 0.0005406698910519481
0.2386600226163864 -0.2811407148838043 0.0010114733595401049
0.24371254444122314 -0.25571468472480774 0.0014497902011498809
0.2512272298336029 -0.23046015202999115 0.0018518127035349607
0.2602040767669678 -0.20548377931118011 0.0022144466638565063
0.2696130871772766 -0.18086975812911987 0.0025353110395371914
0.2785806655883789 -0.1566765159368515 0.00281324191018939
0.28690284490585327 -0.13293255865573883 0.00304980156943202
0.2945522665977478 -0.10964440554380417 0.0032475830521434546
0.3015116751194 -0.08679958432912827 0.0034095810260623693
0.3077729046344757 -0.06436759978532791 0.0035390937700867653
0.3133356273174286 -0.042301081120967865 0.0036396326031535864
0.31820598244667053 -0.02053726837038994 0.003714843885973096
0.322395384311676 0.0010012206621468067 0.0037684410344809294
0.3259192407131195 0.02240496501326561 0.0038041514344513416
0.3287956416606903 0.043777234852313995 0.0038256747648119926
0.3310442268848419 0.06523328274488449 0.0038366594817489386
0.3326852023601532 0.08690055459737778 0.0038406827952712774
0.3337382674217224 0.10891889035701752 0.0038412550929933786
0.3342076241970062 0.13144773244857788 0.0038380613550543785
0.3340378999710083 0.15467466413974762 0.003815764794126153
0.3331585228443146 0.1787760704755783 0.0037554071750491858
0.33149880170822144 0.20390717685222626 0.0036381857935339212
0.32898956537246704 0.23020027577877045 0.003445530077442527
0.3255651891231537 0.2577625513076782 0.0031592596787959337
0.32116544246673584 0.2866734266281128 0.002761817304417491
0.3157380521297455 0.31698164343833923 0.0022365765180438757
0.30924081802368164 0.3487023711204529 0.0015682020457461476
0.3016441762447357 0.3818150460720062 0.00074306211899966
0.2929336726665497 0.4162611663341522 -0.00025034096324816346
0.28311190009117126 0.4519438147544861 -0.0014209403889253736
0.27219995856285095 0.48872753977775574 -0.0027747037820518017
0.5093257427215576 -0.4933076500892639 -0.0037652042228728533
0.4646279215812683 -0.47337520122528076 -0.0033080517314374447
0.4262169897556305 -0.4522193670272827 -0.002823698567226529
0.39420977234840393 -0.42996278405189514 -0.0023177966941148043
0.36857667565345764 -0.40674760937690735 -0.001796683412976563
0.34913620352745056 -0.3827311396598816 -0.0012672151206061244
0.3355552554130554 -0.3580806851387024 -0.000736584363039583
0.3273566663265228 -0.3329680263996124 -0.00021211910643614829
0.32393136620521545 -0.307563453912735 0.0002989143831655383
0.324556440114975 -0.2820304334163666 0.0007894982118159533
0.32841554284095764 -0.2565203309059143 0.0012530236272141337
0.3346211314201355 -0.2311680018901825 0.0016834187554195523
0.342237263917923 -0.20608867704868317 0.0020752393174916506
0.3503003716468811 -0.1813753843307495 0.0024237162433564663
0.3579932451248169 -0.1570940464735031 0.0027257325127720833
0.36512428522109985 -0.13327351212501526 0.0029826622921973467
0.3716663420200348 -0.10991907119750977 0.0031973777804523706
0.3776007890701294 -0.08701688051223755 0.003373175160959363
0.38291677832603455 -0.0645352378487587 0.003513670526444912
0.38761022686958313 -0.04242561757564545 0.0036227020900696516
0.39168259501457214 -0.020624253898859024 0.0037042463663965464
0.3951399624347687 0.0009471154771745205 0.00376234482973814
0.3979913890361786 0.02237984724342823 0.0038010478019714355
0.40024852752685547 0.04377786070108414 0.0038243725430220366
0.40192392468452454 0.06525696069002151 0.0038362753111869097
0.4030305743217468 0.08694510906934738 0.003840635297819972
0.40358060598373413 0.10898258537054062 0.0038412550929933786
0.40357616543769836 0.13152869045734406 0.0038382112979888916
0.4029824733734131 0.15476864576339722 0.003816958051174879
0.40175503492355347 0.17887617647647858 0.0037594183813780546
0.39984971284866333 0.20400403439998627 0.0036476533859968185
0.3972236216068268 0.23028235137462616 0.003463931381702423
0.39383700489997864 0.25781646370887756 0.003190874122083187
0.3896549940109253 0.2866843640804291 0.0028116744942963123
0.3846491575241089 0.3169337511062622 0.002310386160388589
0.37879952788352966 0.34857937693595886 0.0016722672153264284
0.3720962405204773 0.38160043954849243 0.0008841696544550359
0.3645414412021637 0.4159389138221741 -6.50480724289082e-05
0.35615041851997375 0.45149850845336914 -0.001184105989523232
0.3469529449939728 0.48814502358436584 -0.0024789166636765003
0.588607132434845 -0.49306514859199524 -0.003765204455703497
0.545779287815094 -0.47325047850608826 -0.003381273476406932
0.5088776350021362 -0.45221146941185 -0.0029565945733338594
0.4779857099056244 -0.4300673305988312 -0.002496853470802307
0.453055202960968 -0.4069558084011078 -0.0020087005104869604
0.43390190601348877 -0.3830297291278839 -0.0014996071113273501
0.4202069342136383 -0.3584522008895874 -0.0009776810184121132
0.4115228056907654 -0.33339157700538635 -0.0004514589090831578
0.4072848856449127 -0.3080160319805145 7.030795677565038e-05
0.40682661533355713 -0.28248855471611023 0.0005788711714558303
0.4093972444534302 -0.25696197152137756 0.0010656816884875298
0.4141818881034851 -0.23157501220703125 0.0015225622337311506
0.4203205406665802 -0.20644892752170563 0.0019418441224843264
0.4269270896911621 -0.18168509006500244 0.0023164607118815184
0.4332485795021057 -0.15735776722431183 0.0026413872838020325
0.4391070604324341 -0.1334971934556961 0.00291777728125453
0.4444747269153595 -0.1101078912615776 0.003148735500872135
0.4493310749530792 -0.0871753916144371 0.0033378193620592356
0.45366182923316956 -0.06466728448867798 0.0034889259841293097
0.45745858550071716 -0.04253437742590904 0.00360619043931365
0.46071743965148926 -0.020712194964289665 0.003693891456350684
0.4634382426738739 0.0008782274671830237 0.0037563773803412914
0.465623676776886 0.022328926250338554 0.0037980054039508104
0.46727806329727173 0.0437445193529129 0.003823094302788377
0.4684068560600281 0.06524156033992767 0.003835897659882903
0.46901535987854004 0.08694875985383987 0.0038405878003686666
0.4691081643104553 0.10900729149580002 0.0038412553258240223
0.4686853587627411 0.13157695531845093 0.0038383882492780685
0.467733770608902 0.1548418253660202 0.0038183708675205708
0.46623650193214417 0.1789737343788147 0.0037641681265085936
0.46417704224586487 0.20412307977676392 0.003658867673948407
0.4615404009819031 0.23041726648807526 0.0034857490099966526
0.4583144187927246 0.257958322763443 0.003228421788662672
0.4544910788536072 0.28682032227516174 0.002871040254831314
0.45006781816482544 0.31704649329185486 0.0023985812440514565
0.4450486898422241 0.3486464321613312 0.0017971775960177183
0.43944576382637024 0.38159361481666565 0.0010544965043663979
0.43327972292900085 0.4158236086368561 0.0001601347903488204
0.4265807867050171 0.45123347640037537 -0.0008939793333411217
0.41938915848731995 0.487682044506073 -0.0021132174879312515
0.6620009541511536 -0.49261194467544556 -0.003765204455703497
0.6211830377578735 -0.4726964235305786 -0.003446954069659114
0.5859566926956177 -0.45162177085876465 -0.003076026448979974
0.5563502311706543 -0.42949697375297546 -0.002658201614394784
0.5322803854942322 -0.4064476191997528 -0.0022004065103828907
0.5135492086410522 -0.38261300325393677 -0.0017105938168242574
0.4998456835746765 -0.358142226934433 -0.001197579549625516
0.4907507002353668 -0.3331904411315918 -0.0006708501023240387
0.4857461154460907 -0.3079145848751068 -0.00014035346976015717
0.4842262268066406 -0.2824689447879791 0.00038372111157514155
0.48551270365715027 -0.2570013701915741 0.0008911564364098012
0.4888696074485779 -0.23164957761764526 0.0013719035778194666
0.4935198128223419 -0.20653820037841797 0.0018162549240514636
0.49866020679473877 -0.18177638947963715 0.002214981010183692
0.5036063194274902 -0.15744799375534058 0.0025612120516598225
0.5081942081451416 -0.13358567655086517 0.0028558324556797743
0.5123956799507141 -0.11019427329301834 0.0031021106988191605
0.516187846660614 -0.0872594341635704 0.003303804202005267
0.5195533037185669 -0.06474874168634415 0.003465039189904928
0.5224789381027222 -0.042612846940755844 0.003590201260522008
0.5249555706977844 -0.02078702114522457 0.00368383526802063
0.5269772410392761 0.0008081376436166465 0.0037505673244595528
0.5285400152206421 0.022265279665589333 0.0037950356490910053
0.5296414494514465 0.043689802289009094 0.0038218428380787373
0.5302800536155701 0.06519920378923416 0.003835526993498206
0.5304539799690247 0.08692333847284317 0.003840541932731867
0.5301606059074402 0.10900469869375229 0.003841254860162735
0.529398500919342 0.13160446286201477 0.003838591743260622
0.528175950050354 0.1549070030450821 0.003819994395598769
0.5265036821365356 0.17908328771591187 0.003769625909626484
0.5243925452232361 0.20428167283535004 0.0036717604380100965
0.5218554735183716 0.23062607645988464 0.003510851878672838
0.5189080238342285 0.25821369886398315 0.003271681722253561
0.5155690312385559 0.28711187839508057 0.0029395679011940956
0.51186203956604 0.3173554539680481 0.0025006469804793596
0.5078151822090149 0.34894344210624695 0.0019422025652602315
0.5034624338150024 0.38183724880218506 0.0012530351523309946
0.4988429546356201 0.41595858335494995 0.0004238506662659347
0.49400168657302856 0.45118921995162964 -0.0005523572908714414
0.48898839950561523 0.4873720407485962 -0.001679958775639534
0.7286933064460754 -0.4919448494911194 -0.0037652042228728533
0.6898970603942871 -0.471691370010376 -0.0035029512364417315
0.6564122438430786 -0.4504171907901764 -0.0031780218705534935
0.6281921863555908 -0.42821264266967773 -0.0027964317705482244
0.6051033735275269 -0.4051813781261444 -0.002365383319556713
0.5869230031967163 -0.3814387023448944 -0.0018931854283437133
0.5733405947685242 -0.3571092188358307 -0.001389130367897451
0.563960611820221 -0.3323246240615845 -0.0008633449324406683
0.558309018611908 -0.3072209656238556 -0.00032661837758496404
0.5558409094810486 -0.28193560242652893 0.0002097915712511167
0.5559502243995667 -0.25660452246665955 0.0007343555334955454
0.5579813718795776 -0.23135946691036224 0.001235472154803574
0.561240553855896 -0.20632563531398773 0.0017016573110595345
0.5650085806846619 -0.18161934614181519 0.002121714875102043
0.5686691999435425 -0.15733517706394196 0.002487033372744918
0.5720730423927307 -0.13350962102413177 0.0027981677558273077
0.5751915574073792 -0.11014871299266815 0.0030584619380533695
0.5780004262924194 -0.08723925054073334 0.0032717958092689514
0.5804792642593384 -0.06474962085485458 0.0034424562472850084
0.5826112031936646 -0.042630985379219055 0.0035750202368944883
0.5843825340270996 -0.02081877738237381 0.0036742512602359056
0.585781991481781 0.000766563753131777 0.003745010821148753
0.5868000388145447 0.022218193858861923 0.0037921867333352566
0.587428629398346 0.04364236071705818 0.0038206405006349087
0.5876597762107849 0.06515774130821228 0.0038351707626134157
0.5874855518341064 0.08689573407173157 0.0038404969964176416
0.5868974328041077 0.10900076478719711 0.0038412550929933786
0.5858930349349976 0.13163626194000244 0.0038388208486139774
0.5845010280609131 0.1549885869026184 0.0038218176923692226
0.5827576518058777 0.17922894656658173 0.0037757556419819593
0.5807002186775208 0.20450402796268463 0.0036862436681985855
0.5783677697181702 0.2309337556362152 0.003539069090038538
0.5758018493652344 0.25860854983329773 0.0033203500788658857
0.5730468034744263 0.28758618235588074 0.0030167563818395138
0.5701501965522766 0.31788861751556396 0.0026157936081290245
0.5671625733375549 0.3494991660118103 0.002106132684275508
0.5641372203826904 0.38235992193222046 0.001477978308685124
0.5611291527748108 0.4163709580898285 0.0007234446820802987
0.5581946969032288 0.4513903260231018 -0.00016308133490383625
0.555389940738678 0.48723599314689636 -0.0011846207780763507
0.7890737652778625 -0.4910998046398163 -0.003765204455703497
0.752247154712677 -0.47028374671936035 -0.0035454409662634134
0.7205114364624023 -0.448654443025589 -0.0032555575016885996
0.6937326192855835 -0.4262731969356537 -0.002901962026953697
0.6717165112495422 -0.4032115042209625 -0.002492136089131236
0.654208242893219 -0.3795510232448578 -0.0020346075762063265
0.6408911943435669 -0.35538291931152344 -0.0015388919273391366
0.6313884854316711 -0.3308068513870239 -0.0010154088959097862
0.6252651810646057 -0.30593031644821167 -0.00047537623322568834
0.6220321655273438 -0.2808668613433838 6.932750693522394e-05
0.6211517453193665 -0.25573495030403137 0.0006063156761229038
0.6220439672470093 -0.23065605759620667 0.0011228671064600348
0.6240948438644409 -0.20575295388698578 0.0016061128117144108
0.6266651153564453 -0.18114788830280304 0.002043225336819887
0.6292043328285217 -0.15694671869277954 0.0024240720085799694
0.6315772533416748 -0.13319064676761627 0.002748841419816017
0.6337556838989258 -0.10988809168338776 0.003020860953256488
0.635714590549469 -0.08702777326107025 0.0032440461218357086
0.6374315023422241 -0.06457969546318054 0.0034227643627673388
0.6388868093490601 -0.042496178299188614 0.0035617139656096697
0.6400630474090576 -0.020713292062282562 0.003665811149403453
0.6409446597099304 0.0008483825949952006 0.003740096464753151
0.6415179967880249 0.02228236012160778 0.0037896574940532446
0.6417697668075562 0.04369574785232544 0.0038195685483515263
0.6416872143745422 0.06520857661962509 0.0038348515518009663
0.6412575840950012 0.08695415407419205 0.003840456949546933
0.6404671669006348 0.1090792641043663 0.0038412550929933786
0.6393133997917175 0.13175050914287567 0.0038390711415559053
0.6378430128097534 0.15515747666358948 0.0038238060660660267
0.6361151337623596 0.17947275936603546 0.003782440908253193
0.6341906189918518 0.20484165847301483 0.003702042158693075
0.6321317553520203 0.23137949407100677 0.0035698532592505217
0.6300032734870911 0.25916868448257446 0.0033734585158526897
0.6278716921806335 0.28825485706329346 0.003101007780060172
0.6258053779602051 0.3186437785625458 0.0027415072545409203
0.6238731145858765 0.35029810667037964 0.0022851501125842333
0.6221433877944946 0.38313567638397217 0.0017236788989976048
0.6206825375556946 0.4170286953449249 0.0010507428087294102
0.6195528507232666 0.451805055141449 0.00026223724125884473
0.6188110113143921 0.48725172877311707 -0.0006434197421185672
0.8438769578933716 -0.4901226758956909 -0.0037652046885341406
0.8089658617973328 -0.4685397148132324 -0.0035703456960618496
0.7789767980575562 -0.44641292095184326 -0.003301317570731044
0.7536810040473938 -0.4237622618675232 -0.0029649767093360424
0.7328209280967712 -0.40061745047569275 -0.0025690090842545033
0.7161052823066711 -0.37701791524887085 -0.002121963771060109
0.7032082080841064 -0.35301387310028076 -0.0016332811210304499
0.6937662363052368 -0.328667014837265 -0.0011132890358567238
0.6873779296875 -0.3040505647659302 -0.0005731821293011308
0.6836035847663879 -0.2792496681213379 -2.4961744202300906e-05
0.6819666028022766 -0.25436079502105713 0.0005186513299122453
0.6819561719894409 -0.22949160635471344 0.0010443427599966526
0.6830312013626099 -0.2047596424818039 0.0015383659629151225
0.6846264600753784 -0.1802913397550583 0.001986738061532378
0.6862525939941406 -0.1562032401561737 0.002378154778853059
0.6877881288528442 -0.13254199922084808 0.0027124383486807346
0.6892057657241821 -0.10931932181119919 0.0029928162693977356
0.6904802918434143 -0.08652671426534653 0.003223152132704854
0.6915879249572754 -0.06413649767637253 0.0034078115131706
0.6925072073936462 -0.042102742940187454 0.0035515327472239733
0.6932181715965271 -0.02036263979971409 0.0036593088880181313
0.6937020421028137 0.001162728643976152 0.0037362875882536173
0.6939414143562317 0.022567039355635643 0.0037876861169934273
0.6939194798469543 0.04395819827914238 0.0038187282625585794
0.6936197876930237 0.06545770913362503 0.0038346005603671074
0.693025529384613 0.08720093220472336 0.00384042551741004
0.692119300365448 0.1093374714255333 0.0038412550929933786
0.6908983588218689 0.13203762471675873 0.0038393354043364525
0.6894245743751526 0.15549539029598236 0.0038259150460362434
0.6877766847610474 0.17988546192646027 0.0037895338609814644
0.6860345005989075 0.20535197854042053 0.0037188054993748665
0.6842802166938782 0.2320055067539215 0.0036025168374180794
0.6825974583625793 0.25991928577423096 0.003429795615375042
0.681070864200592 0.2891252338886261 0.003190340707078576
0.6797850131988525 0.3196103870868683 0.0028747108299285173
0.6788223385810852 0.3513137996196747 0.002474651439115405
0.6782612800598145 0.3841251730918884 0.001983440248295665
0.6781737804412842 0.4178851544857025 0.001396224950440228
0.6786227822303772 0.4523879289627075 0.0007103228708729148
0.6796595454216003 0.48738616704940796 -7.454910519300029e-05
0.8938813209533691 -0.4890587031841278 -0.003765204455703497
0.860872745513916 -0.4665239155292511 -0.0035737797152251005
0.8326515555381775 -0.4437696933746338 -0.003308527637273073
0.80889493227005 -0.4207615852355957 -0.0029765975195914507
0.7892817854881287 -0.39747726917266846 -0.002585634123533964
0.773485541343689 -0.37390652298927307 -0.0021439017727971077
0.7611696720123291 -0.35005342960357666 -0.0016603954136371613
0.7519813776016235 -0.3259372413158417 -0.001144927111454308
0.7455475926399231 -0.3015936315059662 -0.0006081903702579439
0.7414714694023132 -0.2770759165287018 -6.178695912240073e-05
0.739329993724823 -0.2524558901786804 0.00048178821452893317
0.7386736273765564 -0.22782446444034576 0.0010092122247442603
0.7390266060829163 -0.20329143106937408 0.0015064571052789688
0.7398903965950012 -0.17898499965667725 0.0019589741714298725
0.7408320903778076 -0.15503109991550446 0.002354760654270649
0.741742730140686 -0.13148239254951477 0.002693314803764224
0.7425962686538696 -0.10835453122854233 0.0029776901938021183
0.7433674335479736 -0.08564262837171555 0.0032116230577230453
0.7440321445465088 -0.06332201510667801 0.0033993953838944435
0.7445673942565918 -0.041349105536937714 0.0035457017365843058
0.7449514865875244 -0.01966269686818123 0.003655527252703905
0.7451635003089905 0.0018152854172512889 0.0037340412382036448
0.745183527469635 0.023178398609161377 0.0037865086924284697
0.7449918389320374 0.044535212218761444 0.0038182209245860577
0.7445693612098694 0.06600864976644516 0.0038344471249729395
0.7438962459564209 0.08773630112409592 0.003840405959635973
0.7429522275924683 0.10987076163291931 0.003841254860162735
0.7417348027229309 0.1325865238904953 0.0038396089803427458
0.740317165851593 0.1560826301574707 0.0038280952721834183
0.7387927770614624 0.1805364191532135 0.003796870354562998
0.7372564673423767 0.20609115064144135 0.0037361476570367813
0.7358052730560303 0.2328525334596634 0.0036363035906106234
0.7345371246337891 0.260884165763855 0.003488042624667287
0.7335498929023743 0.29020336270332336 0.003282626625150442
0.7329393029212952 0.32077696919441223 0.0030121502932161093
0.7327965497970581 0.3525189161300659 0.002669855020940304
0.7332050800323486 0.3852889835834503 0.002250451361760497
0.7342373728752136 0.418894499540329 0.001750422758050263
0.7359521985054016 0.4530945122241974 0.0011682851472869515
0.7383913397789001 0.48760727047920227 0.0005047616432420909
0.9398992657661438 -0.48795247077941895 -0.0037652049213647842
0.9088507890701294 -0.46429845690727234 -0.0035520109813660383
0.8824665546417236 -0.4407976567745209 -0.0032708675134927034
0.8603352308273315 -0.4173472821712494 -0.0029287280049175024
0.8420777916908264 -0.3938629627227783 -0.002532724291086197
0.8273373246192932 -0.37027907371520996 -0.0020903765689581633
0.8157678246498108 -0.3465494215488434 -0.0016097747720777988
0.8070265054702759 -0.32264819741249084 -0.0010997445788234472
0.8007649779319763 -0.29857170581817627 -0.0005699838511645794
0.7966243028640747 -0.2743399143218994 -3.116280640824698e-05
0.7942283153533936 -0.24999798834323883 0.000505023926962167
0.7931810617446899 -0.22561801970005035 0.0010258624097332358
0.7930649518966675 -0.20129959285259247 0.0015177007298916578
0.7934415340423584 -0.17717020213603973 0.001966111594811082
0.793928325176239 -0.1533629596233368 0.0023589732591062784
0.7944281101226807 -0.1299367994070053 0.002695543924346566
0.794915497303009 -0.10691206157207489 0.002978651551529765
0.7953658103942871 -0.08428824692964554 0.0032118400558829308
0.7957546710968018 -0.062044303864240646 0.0033992331009358168
0.7960581183433533 -0.04013953357934952 0.003545397659763694
0.7962532043457031 -0.018514879047870636 0.003655221313238144
0.7963175177574158 0.0029064754489809275 0.0037338025867938995
0.7962292432785034 0.024217646569013596 0.0037863566540181637
0.7959670424461365 0.04552764818072319 0.0038181450217962265
0.7955094575881958 0.06696069240570068 0.003834421280771494
0.7948349118232727 0.08865654468536377 0.003840402001515031
0.7939209938049316 0.11077091842889786 0.0038412546273320913
0.7927650809288025 0.13348278403282166 0.003839884651824832
0.7914477586746216 0.15699642896652222 0.0038302941247820854
0.7900721430778503 0.1814921498298645 0.003804270178079605
0.78874272108078 0.20711255073547363 0.003753641853109002
0.7875663042068481 0.2339586317539215 0.0036703820805996656
0.7866499423980713 0.2620845437049866 0.0035467632114887238
0.7860996723175049 0.2914927303791046 0.003375573083758354
0.7860174775123596 0.322130024433136 0.0031503732316195965
0.7864985466003418 0.35388481616973877 0.0028657845687121153
0.787627100944519 0.38658708333969116 0.0025177765637636185
0.7894729375839233 0.4200110137462616 0.00210393569432199
0.7920873761177063 0.4538815915584564 0.0016236728988587856
0.7955008149147034 0.4878838360309601 0.0010783554753288627
0.9827699661254883 -0.48684781789779663 -0.0037652049213647842
0.9538292288780212 -0.46192172169685364 -0.003501398954540491
0.9294129610061646 -0.437563419342041 -0.00318231713026762
0.909032940864563 -0.4135870337486267 -0.0028138149064034224
0.8922641277313232 -0.3898378610610962 -0.0024017621763050556
0.8787258267402649 -0.36618947982788086 -0.0019522944930940866
0.868068516254425 -0.34254273772239685 -0.001472036587074399
0.85996013879776 -0.3188258111476898 -0.0009683050448074937
0.8540768027305603 -0.29499492049217224 -0.00044928895658813417
0.8500929474830627 -0.27103614807128906 7.580820965813473e-05
0.8476743698120117 -0.24696719646453857 0.0005966693861410022
0.8464728593826294 -0.22283966839313507 0.0011018268996849656
0.8461223840713501 -0.19874082505702972 0.0015787060838192701
0.8462386131286621 -0.17479446530342102 0.0020137657411396503
0.846484899520874 -0.15113838016986847 0.00239543872885406
0.8467739820480347 -0.12783761322498322 0.0027228682301938534
0.847081184387207 -0.10491814464330673 0.0029986253939568996
0.8473816514015198 -0.0823843851685524 0.00322601106017828
0.847650945186615 -0.060219570994377136 0.003408922115340829
0.8478643298149109 -0.03838653489947319 0.0035517190117388964
0.8479980230331421 -0.016828829422593117 0.003659099107608199
0.8480287194252014 0.004528616555035114 0.0037359893321990967
0.8479330539703369 0.025778120383620262 0.0037874479312449694
0.8476885557174683 0.04702877253293991 0.0038185936864465475
0.8472726345062256 0.06840583682060242 0.003834550967440009
0.8466621041297913 0.09005110710859299 0.0038404182996600866
0.845833420753479 0.11212338507175446 0.0038412550929933786
0.8447834253311157 0.1348060518503189 0.0038401552010327578
0.8435959815979004 0.15830858051776886 0.003832452232018113
0.842377781867981 0.1828141063451767 0.003811535658314824
0.8412379622459412 0.2084648758172989 0.0037708233576267958
0.8402873277664185 0.2353575974702835 0.003703849157318473
0.8396368026733398 0.26353755593299866 0.0036044041626155376
0.8393953442573547 0.2929934561252594 0.0034667281433939934
0.8396673202514648 0.32365307211875916 0.003285739803686738
0.8405474424362183 0.3553808331489563 0.0030572835821658373
0.8421180248260498 0.38797855377197266 0.002778383204713464
0.8444439172744751 0.42118948698043823 0.002447461476549506
0.847568690776825 0.4547068476676941 0.0020645088516175747
0.8515123128890991 0.48818594217300415 0.0016311712097376585
1.0233547687530518 -0.4857877790927887 -0.0037652042228728533
0.996771514415741 -0.45944836735725403 -0.003418318461626768
0.9745240211486816 -0.4341263771057129 -0.003036969806998968
0.9560672044754028 -0.40953943133354187 -0.002624549437314272
0.9409449100494385 -0.38545456528663635 -0.0021846105810254812
0.9287657141685486 -0.3616809844970703 -0.0017210745718330145
0.9191834330558777 -0.3380652070045471 -0.0012384254951030016
0.9118818044662476 -0.31448894739151 -0.0007418905734084547
0.9065612554550171 -0.290868878364563 -0.00023760952171869576
0.9029290676116943 -0.2671572268009186 0.0002672234841156751
0.9006894826889038 -0.2433440387248993 0.0007642521522939205
0.8995376229286194 -0.2194594442844391 0.0012439063284546137
0.8991548418998718 -0.19557616114616394 0.0016954269958660007
0.8992056250572205 -0.1718113124370575 0.002106988336890936
0.899395763874054 -0.1483040153980255 0.0024683326482772827
0.8996464014053345 -0.12512549757957458 0.00277864933013916
0.8999329209327698 -0.10230802744626999 0.0030402373522520065
0.900230348110199 -0.07986163347959518 0.0032561158295720816
0.9005134105682373 -0.057774513959884644 0.0034298959653824568
0.9007571935653687 -0.03601353242993355 0.0035656513646245003
0.9009370803833008 -0.014525427483022213 0.0036677964963018894
0.9010288715362549 0.006762647535651922 0.0037409767974168062
0.9010087847709656 0.02794170379638672 0.003789977403357625
0.9008532166481018 0.04912053048610687 0.003819650039076805
0.9005389213562012 0.07042506337165833 0.0038348608650267124
0.9000421762466431 0.09199881553649902 0.003840456251055002
0.8993385434150696 0.11400346457958221 0.003841254860162735
0.8984242081642151 0.13662657141685486 0.0038404122460633516
0.8973814249038696 0.160082146525383 0.0038345055654644966
0.8963155150413513 0.18455582857131958 0.003818455385044217
0.8953341841697693 0.21018970012664795 0.0037871948443353176
0.8945468068122864 0.23707684874534607 0.0037357420660555363
0.8940631747245789 0.2652551233768463 0.0036593200638890266
0.8939904570579529 0.29470133781433105 0.0035535141360014677
0.8944308161735535 0.32532668113708496 0.0034144637174904346
0.8954763412475586 0.3569745421409607 0.003239068202674389
0.8972052931785583 0.3894219994544983 0.0030251930002123117
0.8996774554252625 0.4223853051662445 0.002771848114207387
0.9029301404953003 0.45552995800971985 0.002479314571246505
0.9069758653640747 0.48848533630371094 0.0021492023952305317
1.062536358833313 -0.48481497168540955 -0.0037652046885341406
1.038670301437378 -0.4569288492202759 -0.003299059346318245
1.018867015838623 -0.430538147687912 -0.00282880337908864
1.0025523900985718 -0.4052520990371704 -0.0023535171058028936
0.9892615675926208 -0.3807537257671356 -0.001873072818852961
0.9786068797111511 -0.35678496956825256 -0.0013881552731618285
0.9702569246292114 -0.333137571811676 -0.0009003119776025414
0.9639169573783875 -0.3096473813056946 -0.00041202822467312217
0.9593159556388855 -0.28619229793548584 7.318539428524673e-05
0.956194281578064 -0.2626917064189911 0.0005507104215212166
0.9542936086654663 -0.2391079217195511 0.001014753826893866
0.9533504843711853 -0.2154487520456314 0.001458318205550313
0.9530901908874512 -0.19177037477493286 0.0018732353346422315
0.9532241821289062 -0.16817981004714966 0.0022502834908664227
0.9534978270530701 -0.14481402933597565 0.0025813381653279066
0.953839898109436 -0.12175016105175018 0.002865823218598962
0.9542253017425537 -0.09902751445770264 0.003105760784819722
0.9546282291412354 -0.07666244357824326 0.0033038563560694456
0.9550230503082275 -0.05464869737625122 0.0034633781760931015
0.9553840756416321 -0.032957762479782104 0.003588032675907016
0.9556863307952881 -0.011540092527866364 0.003681849455460906
0.9559050798416138 0.009674379602074623 0.003749080467969179
0.9560162425041199 0.030774889513850212 0.0037941099144518375
0.9559961557388306 0.05186938866972923 0.0038213857915252447
0.9558212161064148 0.0730840265750885 0.00383537239395082
0.9554675817489624 0.0945635661482811 0.003840520279482007
0.9549104571342468 0.11647216230630875 0.0038412553258240223
0.9541450142860413 0.1390010565519333 0.003840648103505373
0.9532477855682373 0.16236770153045654 0.0038363905623555183
0.952317476272583 0.1867596060037613 0.0038248116616159678
0.9514551162719727 0.21231870353221893 0.003802241524681449
0.9507635831832886 0.2391355186700821 0.0037650656886398792
0.9503464102745056 0.26724228262901306 0.0037098138127475977
0.9503051042556763 0.2966068387031555 0.0036332833115011454
0.9507360458374023 0.32712751626968384 0.0035326876677572727
0.951726496219635 0.35863131284713745 0.003405811730772257
0.9533498287200928 0.39087557792663574 0.0032511733006685972
0.9556620717048645 0.42355474829673767 0.003068159334361553
0.9586966633796692 0.45631173253059387 0.0028571169823408127
0.9624632000923157 0.4887548089027405 0.0026193950325250626
1.1012181043624878 -0.4839712977409363 -0.0037652042228728533
1.0805460214614868 -0.45440950989723206 -0.0031397019047290087
1.0635415315628052 -0.4268423914909363 -0.0025514138396829367
1.0496388673782349 -0.40076208114624023 -0.001992801669985056
1.0383906364440918 -0.37576329708099365 -0.0014584045857191086
1.0294333696365356 -0.35151952505111694 -0.0009444563183933496
1.022463083267212 -0.3277680575847626 -0.00044864756637252867
1.017216682434082 -0.30430006980895996 3.001867480634246e-05
1.0134562253952026 -0.2809557616710663 0.0004913050797767937
1.010957956314087 -0.2576225697994232 0.0009337856899946928
1.0095031261444092 -0.23423540592193604 0.001354874693788588
1.0088690519332886 -0.21077898144721985 0.0017508667660877109
1.0088251829147339 -0.18729093670845032 0.0021170098334550858
1.0091291666030884 -0.16386444866657257 0.002447634469717741
1.0095655918121338 -0.14063017070293427 0.0027376303914934397
1.0100711584091187 -0.11767107248306274 0.0029868590645492077
1.0106192827224731 -0.0950341746211052 0.003197064157575369
1.011183738708496 -0.07274283468723297 0.0033706030808389187
1.0117384195327759 -0.05079690366983414 0.003510334761813283
1.0122570991516113 -0.029173100367188454 0.003619511378929019
1.0127148628234863 -0.007826087065041065 0.003701669629663229
1.0130869150161743 0.013310912996530533 0.003760540159419179
1.0133490562438965 0.03432478383183479 0.0037999681662768126
1.0134785175323486 0.055322129279375076 0.0038238526321947575
1.013451337814331 0.07642866671085358 0.003836102085188031
1.0132445096969604 0.09778989106416702 0.003840611083433032
1.0128334760665894 0.11957183480262756 0.0038412550929933786
1.0122119188308716 0.14196860790252686 0.0038408541586250067
1.0114474296569824 0.16519956290721893 0.0038380420301109552
1.0106273889541626 0.18945306539535522 0.0038303874898701906
1.0098419189453125 0.21487092971801758 0.003815452568233013
1.0091829299926758 0.24154214560985565 0.0037908274680376053
1.0087436437606812 0.2694958448410034 0.0037541924975812435
1.0086160898208618 0.29869455099105835 0.0037034021224826574
1.0088880062103271 0.3290287256240845 0.003636585548520088
1.0096405744552612 0.36031490564346313 0.003552260808646679
1.0109416246414185 0.3922972083091736 0.003449443494901061
1.0128448009490967 0.4246548116207123 0.003327746409922838
1.015383005142212 0.4570145010948181 0.0031874445267021656
1.018567442893982 0.4889683723449707 0.0030295015312731266
1.1403299570083618 -0.48329922556877136 -0.0037652046885341406
1.1234549283981323 -0.451933354139328 -0.0029359871987253428
1.1096895933151245 -0.42307549715042114 -0.0021977131254971027
1.0985220670700073 -0.3960955739021301 -0.0015335421776399016
1.0895557403564453 -0.37049829959869385 -0.0009307718719355762
1.0824742317199707 -0.345889151096344 -0.0003797939862124622
1.0770180225372314 -0.321951687335968 0.00012661739310715348
1.0729659795761108 -0.2984338104724884 0.0005937929381616414
1.0701216459274292 -0.27513954043388367 0.001025508507154882
1.0683032274246216 -0.2519252598285675 0.0014242330798879266
1.0673338174819946 -0.2286985069513321 0.001791312824934721
1.0670353174209595 -0.20542027056217194 0.002127127954736352
1.0672237873077393 -0.182107076048851 0.002431238302960992
1.0677052736282349 -0.15883424878120422 0.002702539786696434
1.068306803703308 -0.13572178781032562 0.0029398694168776274
1.0689722299575806 -0.11285793036222458 0.003143731504678726
1.0696752071380615 -0.09029827266931534 0.0033155723940581083
1.070388913154602 -0.0680738165974617 0.003457349492236972
1.0710870027542114 -0.04619106650352478 0.0035714346449822187
1.0717440843582153 -0.02463240921497345 0.0036605182103812695
1.0723347663879395 -0.0033572185784578323 0.003727516857907176
1.0728355646133423 0.017697500064969063 0.003775501623749733
1.0732232332229614 0.03861577436327934 0.003807626897469163
1.0734750032424927 0.059502217918634415 0.0038270815275609493
1.0735687017440796 0.08048151433467865 0.0038370576221495867
1.0734819173812866 0.10169915109872818 0.003840730059891939
1.0731911659240723 0.12332230061292648 0.0038412550929933786
1.0726885795593262 0.14554694294929504 0.0038410245906561613
1.072029948234558 0.16859231889247894 0.0038394012954086065
1.0712891817092896 0.19264626502990723 0.0038349798414856195
1.0705417394638062 0.21785026788711548 0.0038263441529124975
1.0698657035827637 0.24429310858249664 0.003812086535617709
1.069340705871582 0.2720034420490265 0.003790845163166523
1.0690466165542603 0.30094289779663086 0.0037613532040268183
1.0690609216690063 0.33100005984306335 0.003722496796399355
1.0694562196731567 0.3619879484176636 0.003673384664580226
1.0702953338623047 0.39364537596702576 0.0036134165711700916
1.0716300010681152 0.4256443679332733 0.003542346181347966
1.0734944343566895 0.4576024115085602 0.0034603194799274206
1.0759053230285645 0.48910120129585266 0.0033679006155580282
1.1808347702026367 -0.48284149169921875 -0.0037652042228728533
1.168501377105713 -0.4495401680469513 -0.002683138707652688
1.158511996269226 -0.41926610469818115 -0.0017595677636563778
1.1504641771316528 -0.3912675082683563 -0.0009654133464209735
1.144049882888794 -0.364960253238678 -0.0002786343975458294
1.1390272378921509 -0.3398832678794861 0.00031777966069057584
1.1352001428604126 -0.3156682252883911 0.0008371819858439267
1.1324039697647095 -0.29202142357826233 0.0012902346206828952
1.1304945945739746 -0.26871201395988464 0.0016856082947924733
1.1293392181396484 -0.24556578695774078 0.002030504634603858
1.1288107633590698 -0.2224632203578949 0.0023310561664402485
1.128781795501709 -0.19933992624282837 0.0025926397647708654
1.1291199922561646 -0.17618876695632935 0.0028201225213706493
1.1296870708465576 -0.15306267142295837 0.0030180576723068953
1.130358099937439 -0.13006560504436493 0.0031902033369988203
1.1310864686965942 -0.10729093849658966 0.0033378927037119865
1.1318467855453491 -0.08480352908372879 0.0034622272942215204
1.1326128244400024 -0.06264256685972214 0.0035646790638566017
1.1333589553833008 -0.040821656584739685 0.003647018224000931
1.1340610980987549 -0.019329261034727097 0.00371123687364161
1.1346956491470337 0.0018701601075008512 0.0037594835739582777
1.135240077972412 0.022835392504930496 0.0037940056063234806
1.135672688484192 0.04364709183573723 0.003817099379375577
1.1359726190567017 0.06440731883049011 0.003831076668575406
1.136118769645691 0.08523903787136078 0.003838241333141923
1.1360905170440674 0.1062868982553482 0.0038408783730119467
1.1358658075332642 0.12771834433078766 0.003841254860162735
1.1354351043701172 0.1497298926115036 0.0038411503192037344
1.1348423957824707 0.17253844439983368 0.003840415272861719
1.134145975112915 0.19632960855960846 0.0038384099025279284
1.133406162261963 0.22124411165714264 0.003834487870335579
1.1326855421066284 0.24737155437469482 0.0038280023727566004
1.1320492029190063 0.2747432589530945 0.003818322904407978
1.1315627098083496 0.3033244013786316 0.00380485481582582
1.1312919855117798 0.3330082893371582 0.003787069348618388
1.1313002109527588 0.363612562417984 0.003764534369111061
1.131644606590271 0.3948797881603241 0.003736946964636445
1.1323738098144531 0.426483690738678 0.003704165108501911
1.1335248947143555 0.45804089307785034 0.0036662293132394552
1.1351200342178345 0.4891289472579956 0.0036233775317668915
1.2237387895584106 -0.48264262080192566 -0.003765203757211566
1.216856598854065 -0.4472675919532776 -0.0023756702430546284
1.211296796798706 -0.4154365062713623 -0.0012273703468963504
1.20682692527771 -0.3862820565700531 -0.0002760154311545193
1.203271508216858 -0.3591364920139313 0.0005119818961247802
1.2004938125610352 -0.333475261926651 0.0011627415660768747
1.1983848810195923 -0.308881014585495 0.0016971335280686617
1.1968539953231812 -0.28502002358436584 0.0021323440596461296
1.195823311805725 -0.2616274654865265 0.0024830230977386236
1.1952219009399414 -0.23849919438362122 0.0027621500194072723
1.194982886314392 -0.21548771858215332 0.002981690689921379
1.1950390338897705 -0.19250138103961945 0.0031531001441180706
1.1953221559524536 -0.16950595378875732 0.0032876895274966955
1.1957594156265259 -0.14652663469314575 0.003396854968741536
1.1962846517562866 -0.12364567816257477 0.0034902787301689386
1.1968650817871094 -0.10096099972724915 0.0035702690947800875
1.1974773406982422 -0.0785474181175232 0.0036374747287482023
1.1980977058410645 -0.05645284056663513 0.0036927429027855396
1.1987038850784302 -0.03469833359122276 0.003737077582627535
1.1992732286453247 -0.013278650119900703 0.0037715937942266464
1.1997848749160767 0.007836340926587582 0.003797484328970313
1.2002191543579102 0.02870093286037445 0.0038159836549311876
1.2005558013916016 0.04939195513725281 0.003828343702480197
1.200776219367981 0.07000834494829178 0.0038358173333108425
1.2008616924285889 0.09067066758871078 0.0038396455347537994
1.200792670249939 0.11152184009552002 0.003841054392978549
1.2005491256713867 0.13272860646247864 0.0038412553258240223
1.2001208066940308 0.15448647737503052 0.0038412283174693584
1.199540376663208 0.17700748145580292 0.00384104298427701
1.1988515853881836 0.20047308504581451 0.00384053448215127
1.1981014013290405 0.2250225841999054 0.003839538199827075
1.1973376274108887 0.250747412443161 0.0038378883618861437
1.1966115236282349 0.2776840627193451 0.0038354208227247
1.1959751844406128 0.3058061897754669 0.0038319770246744156
1.1954829692840576 0.3350185751914978 0.0038274163380265236
1.1951875686645508 0.3651518225669861 0.0038216167595237494
1.1951395273208618 0.3959622085094452 0.003814489347860217
1.1953840255737305 0.42713549733161926 0.0038059845101088285
1.1959583759307861 0.45829692482948303 0.00379609945230186
1.196889042854309 0.4890277683734894 0.003784882603213191
1.2701077461242676 -0.48274922370910645 -0.0037652039900422096
1.2697893381118774 -0.44515228271484375 -0.0020071344915777445
1.269458532333374 -0.4116023778915405 -0.0005895057111047208
1.2691187858581543 -0.3811320960521698 0.0005498935934156179
1.268774151802063 -0.35299888253211975 0.0014583857264369726
1.2684301137924194 -0.3266207277774811 0.002173037501052022
1.2680916786193848 -0.30153435468673706 0.00272383913397789
1.2677656412124634 -0.27736809849739075 0.0031359619460999966
1.2674590349197388 -0.2538238763809204 0.003431415418162942
1.2671809196472168 -0.23066699504852295 0.0036302937660366297
1.266940712928772 -0.20772044360637665 0.0037517244927585125
1.2667492628097534 -0.18486253917217255 0.0038145696744322777
1.2666178941726685 -0.16202738881111145 0.003837901633232832
1.2665586471557617 -0.1392061710357666 0.0038412550929933786
1.2665784358978271 -0.11645292490720749 0.003841254860162735
1.2666641473770142 -0.09386935830116272 0.0038412553258240223
1.2667975425720215 -0.07154101878404617 0.003841254860162735
1.2669599056243896 -0.04952489957213402 0.0038412550929933786
1.2671327590942383 -0.0278497114777565 0.0038412546273320913
1.267297625541687 -0.006516692228615284 0.003841254860162735
1.2674368619918823 0.014498795382678509 0.003841255558654666
1.2675327062606812 0.035246238112449646 0.003841254860162735
1.2675687074661255 0.055798355489969254 0.0038412553258240223
1.2675273418426514 0.07625041902065277 0.003841255558654666
1.2673919200897217 0.09671981632709503 0.0038412550929933786
1.2671446800231934 0.11734693497419357 0.0038412553258240223
1.266767144203186 0.13829660415649414 0.0038412550929933786
1.266248345375061 0.15976178646087646 0.003841254860162735
1.2656129598617554 0.18194690346717834 0.0038412550929933786
1.2648950815200806 0.205027237534523 0.0038412550929933786
1.2641305923461914 0.22913971543312073 0.0038412546273320913
1.2633579969406128 0.25437819957733154 0.0038412553258240223
1.2626174688339233 0.2807864844799042 0.0038412550929933786
1.2619513273239136 0.3083512485027313 0.0038412553258240223
1.261404275894165 0.3369949758052826 0.0038412550929933786
1.2610210180282593 0.3665703237056732 0.003841255558654666
1.2608447074890137 0.39685723185539246 0.003841254860162735
1.2609158754348755 0.42756494879722595 0.003841254860162735
1.261269211769104 0.45833879709243774 0.003841254860162735
1.261932134628296 0.4887733459472656 0.0038412550929933786
