ply
format ascii 1.0
element vertex 512
property float x
property float y
property float z
end_header
-0.00859224796295166 1.100894808769226 -1.353499174118042
-0.008592255413532257 1.100894808769226 -1.1736445426940918
-0.008592263795435429 1.100894808769226 -0.9937899112701416
-0.008592271246016026 1.100894808769226 -0.8139352798461914
-0.008592279627919197 1.100894808769226 -0.6340806484222412
-0.008592287078499794 1.100894808769226 -0.454226016998291
-0.008592295460402966 1.100894808769226 -0.2743713855743408
-0.008592302910983562 1.100894808769226 -0.09451675415039062
-0.00859231036156416 1.100894808769226 0.08533787727355957
-0.008592318743467331 1.100894808769226 0.26519250869750977
-0.008592326194047928 1.100894808769226 0.44504714012145996
-0.0085923345759511 1.100894808769226 0.6249017715454102
-0.008592342026531696 1.100894808769226 0.8047564029693604
-0.008592350408434868 1.100894808769226 0.9846110343933105
-0.008592357859015465 1.100894808769226 1.1644656658172607
-0.008592365309596062 1.100894808769226 1.344320297241211
-0.22873486578464508 1.0785084962844849 -1.353499174118042
-0.22873486578464508 1.0785084962844849 -1.1736445426940918
-0.22873488068580627 1.0785084962844849 -0.9937899112701416
-0.22873488068580627 1.0785084962844849 -0.8139352798461914
-0.22873489558696747 1.0785084962844849 -0.6340806484222412
-0.22873489558696747 1.0785084962844849 -0.454226016998291
-0.22873491048812866 1.0785084962844849 -0.2743713855743408
-0.22873491048812866 1.0785084962844849 -0.09451676905155182
-0.22873492538928986 1.0785084962844849 0.08533786237239838
-0.22873492538928986 1.0785084962844849 0.26519250869750977
-0.22873494029045105 1.0785084962844849 0.44504714012145996
-0.22873494029045105 1.0785084962844849 0.6249017715454102
-0.22873495519161224 1.0785084962844849 0.8047564029693604
-0.22873495519161224 1.0785084962844849 0.9846110343933105
-0.22873497009277344 1.0785084962844849 1.1644656658172607
-0.22873498499393463 1.0785084962844849 1.344320297241211
-0.4398648142814636 1.0122660398483276 -1.353499174118042
-0.4398648142814636 1.0122660398483276 -1.1736445426940918
-0.4398648142814636 1.0122660398483276 -0.9937899112701416
-0.439864844083786 1.0122660398483276 -0.8139352798461914
-0.439864844083786 1.0122660398483276 -0.6340806484222412
-0.439864844083786 1.0122660398483276 -0.4542260468006134
-0.439864844083786 1.0122660398483276 -0.2743714153766632
-0.4398648738861084 1.0122660398483276 -0.09451677650213242
-0.4398648738861084 1.0122660398483276 0.08533785492181778
-0.4398648738861084 1.0122660398483276 0.2651924788951874
-0.4398648738861084 1.0122660398483276 0.4450471103191376
-0.4398649036884308 1.0122660398483276 0.6249017715454102
-0.4398649036884308 1.0122660398483276 0.8047564029693604
-0.4398649036884308 1.0122660398483276 0.9846110343933105
-0.4398649036884308 1.0122660398483276 1.1644656658172607
-0.4398649334907532 1.0122660398483276 1.344320297241211
-0.6333383917808533 0.9048794507980347 -1.353499174118042
-0.6333383917808533 0.9048794507980347 -1.1736445426940918
-0.633338451385498 0.9048794507980347 -0.9937899708747864
-0.633338451385498 0.9048794507980347 -0.8139353394508362
-0.633338451385498 0.9048794507980347 -0.634080708026886
-0.633338451385498 0.9048794507980347 -0.4542260468006134
-0.633338451385498 0.9048794507980347 -0.2743714153766632
-0.633338451385498 0.9048794507980347 -0.09451678395271301
-0.633338451385498 0.9048794507980347 0.08533784747123718
-0.633338451385498 0.9048794507980347 0.2651924788951874
-0.6333385109901428 0.9048794507980347 0.4450471103191376
-0.6333385109901428 0.9048794507980347 0.6249017119407654
-0.6333385109901428 0.9048794507980347 0.8047563433647156
-0.6333385109901428 0.9048794507980347 0.9846109747886658
-0.6333385109901428 0.9048794507980347 1.1644656658172607
-0.6333385109901428 0.9048794507980347 1.344320297241211
-0.8012348413467407 0.760745108127594 -1.353499174118042
-0.8012348413467407 0.760745108127594 -1.1736445426940918
-0.8012348413467407 0.760745108127594 -0.9937899708747864
-0.8012348413467407 0.760745108127594 -0.8139353394508362
-0.8012348413467407 0.760745108127594 -0.634080708026886
-0.8012348413467407 0.760745108127594 -0.4542260468006134
-0.8012348413467407 0.760745108127594 -0.2743714153766632
-0.8012349009513855 0.760745108127594 -0.09451679140329361
-0.8012349009513855 0.760745108127594 0.08533784002065659
-0.8012349009513855 0.760745108127594 0.2651924788951874
-0.8012349009513855 0.760745108127594 0.4450471103191376
-0.8012349009513855 0.760745108127594 0.6249017119407654
-0.8012349009513855 0.760745108127594 0.8047563433647156
-0.8012349009513855 0.760745108127594 0.9846109747886658
-0.8012349605560303 0.760745108127594 1.1644656658172607
-0.8012349605560303 0.760745108127594 1.344320297241211
-0.9366803765296936 0.5857638716697693 -1.353499174118042
-0.9366803765296936 0.5857638716697693 -1.1736445426940918
-0.9366803765296936 0.5857638716697693 -0.9937899708747864
-0.9366803765296936 0.5857638716697693 -0.8139353394508362
-0.9366803765296936 0.5857638716697693 -0.634080708026886
-0.9366803765296936 0.5857638716697693 -0.4542260468006134
-0.9366804361343384 0.5857638716697693 -0.2743714153766632
-0.9366804361343384 0.5857638716697693 -0.0945167988538742
-0.9366804361343384 0.5857638716697693 0.08533783257007599
-0.9366804361343384 0.5857638716697693 0.2651924788951874
-0.9366804361343384 0.5857638716697693 0.4450471103191376
-0.9366804361343384 0.5857638716697693 0.6249017119407654
-0.9366804361343384 0.5857638716697693 0.8047563433647156
-0.9366804361343384 0.5857638716697693 0.9846109747886658
-0.9366804957389832 0.5857638716697693 1.1644656658172607
-0.9366804957389832 0.5857638716697693 1.344320297241211
-1.0341298580169678 0.38709956407546997 -1.353499174118042
-1.0341298580169678 0.38709956407546997 -1.1736445426940918
-1.0341298580169678 0.38709956407546997 -0.9937899708747864
-1.0341298580169678 0.38709956407546997 -0.8139353394508362
-1.0341298580169678 0.38709956407546997 -0.634080708026886
-1.0341298580169678 0.38709956407546997 -0.4542260766029358
-1.0341298580169678 0.38709956407546997 -0.2743714451789856
-1.0341298580169678 0.38709956407546997 -0.0945167988538742
-1.0341299772262573 0.38709956407546997 0.08533783257007599
-1.0341299772262573 0.38709956407546997 0.265192449092865
-1.0341299772262573 0.38709956407546997 0.4450470805168152
-1.0341299772262573 0.38709956407546997 0.6249017119407654
-1.0341299772262573 0.38709956407546997 0.8047563433647156
-1.0341299772262573 0.38709956407546997 0.9846109747886658
-1.0341299772262573 0.38709956407546997 1.1644656658172607
-1.0341299772262573 0.38709956407546997 1.344320297241211
-1.089593768119812 0.1728854775428772 -1.353499174118042
-1.089593768119812 0.1728854775428772 -1.1736445426940918
-1.089593768119812 0.1728854775428772 -0.9937899708747864
-1.089593768119812 0.1728854775428772 -0.8139353394508362
-1.089593768119812 0.1728854775428772 -0.634080708026886
-1.089593768119812 0.1728854775428772 -0.4542260766029358
-1.089593768119812 0.1728854775428772 -0.2743714451789856
-1.089593768119812 0.1728854775428772 -0.0945167988538742
-1.089593768119812 0.1728854775428772 0.08533783257007599
-1.089593768119812 0.1728854775428772 0.265192449092865
-1.089593768119812 0.1728854775428772 0.4450470805168152
-1.089593768119812 0.1728854775428772 0.6249017119407654
-1.089593768119812 0.1728854775428772 0.8047563433647156
-1.0895938873291016 0.1728854775428772 0.9846109747886658
-1.0895938873291016 0.1728854775428772 1.1644656658172607
-1.0895938873291016 0.1728854775428772 1.344320297241211
-1.1008012294769287 -0.04810843616724014 -1.353499174118042
-1.1008012294769287 -0.04810843616724014 -1.1736445426940918
-1.1008013486862183 -0.048108432441949844 -0.9937899708747864
-1.1008013486862183 -0.048108432441949844 -0.8139353394508362
-1.1008013486862183 -0.048108432441949844 -0.634080708026886
-1.1008013486862183 -0.048108432441949844 -0.4542260766029358
-1.1008013486862183 -0.048108432441949844 -0.2743714451789856
-1.1008013486862183 -0.048108432441949844 -0.0945167988538742
-1.1008013486862183 -0.048108432441949844 0.08533783257007599
-1.1008013486862183 -0.048108428716659546 0.265192449092865
-1.1008013486862183 -0.048108428716659546 0.4450470805168152
-1.1008013486862183 -0.048108428716659546 0.6249017119407654
-1.1008013486862183 -0.048108428716659546 0.8047563433647156
-1.1008013486862183 -0.048108428716659546 0.9846109747886658
-1.1008013486862183 -0.048108428716659546 1.1644656658172607
-1.1008013486862183 -0.048108428716659546 1.344320297241211
-1.067293643951416 -0.26683464646339417 -1.353499174118042
-1.067293643951416 -0.26683464646339417 -1.1736445426940918
-1.067293643951416 -0.26683464646339417 -0.9937899708747864
-1.067293643951416 -0.26683464646339417 -0.8139353394508362
-1.067293643951416 -0.26683464646339417 -0.634080708026886
-1.067293643951416 -0.26683464646339417 -0.4542260766029358
-1.067293643951416 -0.26683464646339417 -0.2743714451789856
-1.0672937631607056 -0.26683464646339417 -0.0945167988538742
-1.0672937631607056 -0.26683464646339417 0.08533783257007599
-1.0672937631607056 -0.26683464646339417 0.265192449092865
-1.0672937631607056 -0.26683464646339417 0.4450470805168152
-1.0672937631607056 -0.26683464646339417 0.6249017119407654
-1.0672937631607056 -0.26683464646339417 0.8047563433647156
-1.0672937631607056 -0.26683464646339417 0.9846109747886658
-1.0672937631607056 -0.26683464646339417 1.1644656658172607
-1.0672937631607056 -0.26683464646339417 1.344320297241211
-0.99044269323349 -0.47433847188949585 -1.353499174118042
-0.99044269323349 -0.47433847188949585 -1.1736445426940918
-0.99044269323349 -0.47433847188949585 -0.9937899708747864
-0.99044269323349 -0.47433847188949585 -0.8139353394508362
-0.99044269323349 -0.47433847188949585 -0.634080708026886
-0.99044269323349 -0.47433847188949585 -0.4542260468006134
-0.99044269323349 -0.47433847188949585 -0.2743714153766632
-0.9904427528381348 -0.47433847188949585 -0.0945167988538742
-0.9904427528381348 -0.47433847188949585 0.08533783257007599
-0.9904427528381348 -0.47433847188949585 0.2651924788951874
-0.9904427528381348 -0.47433847188949585 0.4450471103191376
-0.9904427528381348 -0.47433847188949585 0.6249017119407654
-0.9904427528381348 -0.47433847188949585 0.8047563433647156
-0.9904427528381348 -0.47433847188949585 0.9846109747886658
-0.9904427528381348 -0.47433847188949585 1.1644656658172607
-0.9904428124427795 -0.47433847188949585 1.344320297241211
-0.8733946084976196 -0.6621246933937073 -1.353499174118042
-0.8733946084976196 -0.6621246933937073 -1.1736445426940918
-0.8733946084976196 -0.6621246933937073 -0.9937899708747864
-0.8733946084976196 -0.6621246933937073 -0.8139353394508362
-0.8733946681022644 -0.6621246933937073 -0.634080708026886
-0.8733946681022644 -0.6621246933937073 -0.4542260468006134
-0.8733946681022644 -0.6621246933937073 -0.2743714153766632
-0.8733946681022644 -0.6621246933937073 -0.09451679140329361
-0.8733946681022644 -0.6621246933937073 0.08533784002065659
-0.8733946681022644 -0.6621246933937073 0.2651924788951874
-0.8733946681022644 -0.6621246933937073 0.4450471103191376
-0.8733947277069092 -0.6621246933937073 0.6249017119407654
-0.8733947277069092 -0.6621246933937073 0.8047563433647156
-0.8733947277069092 -0.6621246933937073 0.9846109747886658
-0.8733947277069092 -0.6621246933937073 1.1644656658172607
-0.8733947277069092 -0.6621246933937073 1.344320297241211
-0.720941424369812 -0.8225053548812866 -1.353499174118042
-0.7209414839744568 -0.8225053548812866 -1.1736445426940918
-0.7209414839744568 -0.8225053548812866 -0.9937899112701416
-0.7209414839744568 -0.8225053548812866 -0.8139352798461914
-0.7209414839744568 -0.8225053548812866 -0.6340806484222412
-0.7209414839744568 -0.8225053548812866 -0.4542260468006134
-0.7209414839744568 -0.8225053548812866 -0.2743714153766632
-0.7209414839744568 -0.8225053548812866 -0.09451678395271301
-0.7209414839744568 -0.8225053548812866 0.08533784747123718
-0.7209415435791016 -0.8225053548812866 0.2651924788951874
-0.7209415435791016 -0.8225053548812866 0.4450471103191376
-0.7209415435791016 -0.8225053548812866 0.6249017715454102
-0.7209415435791016 -0.8225053548812866 0.8047564029693604
-0.7209415435791016 -0.8225053548812866 0.9846110343933105
-0.7209415435791016 -0.8225053548812866 1.1644656658172607
-0.7209415435791016 -0.8225053548812866 1.344320297241211
-0.5393246412277222 -0.9489144086837769 -1.353499174118042
-0.5393246412277222 -0.9489144086837769 -1.1736445426940918
-0.5393246412277222 -0.9489144086837769 -0.9937899112701416
-0.5393246412277222 -0.9489144086837769 -0.8139352798461914
-0.5393246412277222 -0.9489144086837769 -0.6340806484222412
-0.5393246412277222 -0.9489144086837769 -0.4542260468006134
-0.5393246412277222 -0.9489144086837769 -0.2743714153766632
-0.5393247008323669 -0.9489144086837769 -0.09451677650213242
-0.5393247008323669 -0.9489144086837769 0.08533785492181778
-0.5393247008323669 -0.9489144086837769 0.2651924788951874
-0.5393247008323669 -0.9489144086837769 0.4450471103191376
-0.5393247008323669 -0.9489144086837769 0.6249017715454102
-0.5393247008323669 -0.9489144086837769 0.8047564029693604
-0.5393247008323669 -0.9489144086837769 0.9846110343933105
-0.5393247604370117 -0.9489144086837769 1.1644656658172607
-0.5393247604370117 -0.9489144086837769 1.344320297241211
-0.33597955107688904 -1.0361766815185547 -1.353499174118042
-0.33597955107688904 -1.0361766815185547 -1.1736445426940918
-0.3359795808792114 -1.0361766815185547 -0.9937899112701416
-0.3359795808792114 -1.0361766815185547 -0.8139352798461914
-0.3359795808792114 -1.0361766815185547 -0.6340806484222412
-0.3359795808792114 -1.0361766815185547 -0.454226016998291
-0.3359796106815338 -1.0361766815185547 -0.2743713855743408
-0.3359796106815338 -1.0361766815185547 -0.09451676905155182
-0.3359796106815338 -1.0361766815185547 0.08533786237239838
-0.3359796106815338 -1.0361766815185547 0.26519250869750977
-0.3359796404838562 -1.0361766815185547 0.44504714012145996
-0.3359796404838562 -1.0361766815185547 0.6249017715454102
-0.3359796404838562 -1.0361766815185547 0.8047564029693604
-0.3359796404838562 -1.0361766815185547 0.9846110343933105
-0.3359796702861786 -1.0361766815185547 1.1644656658172607
-0.3359796702861786 -1.0361766815185547 1.344320297241211
-0.1192312091588974 -1.0807195901870728 -1.353499174118042
-0.119231216609478 -1.0807195901870728 -1.1736445426940918
-0.1192312240600586 -1.0807195901870728 -0.9937899112701416
-0.11923123151063919 -1.0807195901870728 -0.8139352798461914
-0.11923123896121979 -1.0807195901870728 -0.6340806484222412
-0.11923124641180038 -1.0807195901870728 -0.454226016998291
-0.11923125386238098 -1.0807195901870728 -0.2743713855743408
-0.11923126131296158 -1.0807195901870728 -0.09451675415039062
-0.11923126876354218 -1.0807195901870728 0.08533787727355957
-0.11923127621412277 -1.0807195901870728 0.26519250869750977
-0.11923128366470337 -1.0807195901870728 0.44504714012145996
-0.11923129111528397 -1.0807195901870728 0.6249017715454102
-0.11923129856586456 -1.0807195901870728 0.8047564029693604
-0.11923130601644516 -1.0807195901870728 0.9846110343933105
-0.11923131346702576 -1.0807195901870728 1.1644656658172607
-0.11923132091760635 -1.0807195901870728 1.344320297241211
0.10204671323299408 -1.0807195901870728 -1.353499174118042
0.10204670578241348 -1.0807195901870728 -1.1736445426940918
0.10204669833183289 -1.0807195901870728 -0.9937899112701416
0.10204669088125229 -1.0807195901870728 -0.8139352798461914
0.1020466759800911 -1.0807195901870728 -0.6340806484222412
0.1020466685295105 -1.0807195901870728 -0.454226016998291
0.1020466610789299 -1.0807195901870728 -0.2743713855743408
0.1020466536283493 -1.0807195901870728 -0.09451674669981003
0.10204664617776871 -1.0807195901870728 0.08533788472414017
0.10204663872718811 -1.0807195901870728 0.26519250869750977
0.10204663127660751 -1.0807195901870728 0.44504714012145996
0.10204662382602692 -1.0807195901870728 0.6249017715454102
0.10204661637544632 -1.0807195901870728 0.8047564029693604
0.10204660892486572 -1.0807195901870728 0.9846110343933105
0.10204660147428513 -1.0807195901870728 1.1644656658172607
0.10204659402370453 -1.0807195901870728 1.344320297241211
0.3187950551509857 -1.0361766815185547 -1.353499174118042
0.3187950551509857 -1.0361766815185547 -1.1736445426940918
0.3187950551509857 -1.0361766815185547 -0.9937899112701416
0.31879502534866333 -1.0361766815185547 -0.8139352798461914
0.31879502534866333 -1.0361766815185547 -0.6340806484222412
0.31879502534866333 -1.0361766815185547 -0.45422598719596863
0.31879499554634094 -1.0361766815185547 -0.27437135577201843
0.31879499554634094 -1.0361766815185547 -0.09451673924922943
0.31879499554634094 -1.0361766815185547 0.08533789217472076
0.31879499554634094 -1.0361766815185547 0.26519253849983215
0.31879496574401855 -1.0361766815185547 0.44504716992378235
0.31879496574401855 -1.0361766815185547 0.6249017715454102
0.31879496574401855 -1.0361766815185547 0.8047564029693604
0.31879496574401855 -1.0361766815185547 0.9846110343933105
0.31879493594169617 -1.0361766815185547 1.1644656658172607
0.31879493594169617 -1.0361766815185547 1.344320297241211
0.5221401453018188 -0.9489144086837769 -1.353499174118042
0.5221401453018188 -0.9489144086837769 -1.1736445426940918
0.5221400856971741 -0.9489144086837769 -0.9937899112701416
0.5221400856971741 -0.9489144086837769 -0.8139352798461914
0.5221400856971741 -0.9489144086837769 -0.6340806484222412
0.5221400856971741 -0.9489144086837769 -0.45422598719596863
0.5221400856971741 -0.9489144086837769 -0.27437135577201843
0.5221400856971741 -0.9489144086837769 -0.09451673179864883
0.5221400856971741 -0.9489144086837769 0.08533789962530136
0.5221400856971741 -0.9489144086837769 0.26519253849983215
0.5221400260925293 -0.9489144086837769 0.44504716992378235
0.5221400260925293 -0.9489144086837769 0.6249017715454102
0.5221400260925293 -0.9489144086837769 0.8047564029693604
0.5221400260925293 -0.9489144086837769 0.9846110343933105
0.5221400260925293 -0.9489144086837769 1.1644656658172607
0.5221400260925293 -0.9489144086837769 1.344320297241211
0.7037569284439087 -0.8225053548812866 -1.353499174118042
0.7037569284439087 -0.8225053548812866 -1.1736445426940918
0.7037569284439087 -0.8225053548812866 -0.9937898516654968
0.7037569284439087 -0.8225053548812866 -0.8139352202415466
0.7037569284439087 -0.8225053548812866 -0.6340805888175964
0.7037569284439087 -0.8225053548812866 -0.45422598719596863
0.7037569284439087 -0.8225053548812866 -0.27437135577201843
0.7037568688392639 -0.8225053548812866 -0.09451672434806824
0.7037568688392639 -0.8225053548812866 0.08533790707588196
0.7037568688392639 -0.8225053548812866 0.26519253849983215
0.7037568688392639 -0.8225053548812866 0.44504716992378235
0.7037568688392639 -0.8225053548812866 0.6249018311500549
0.7037568688392639 -0.8225053548812866 0.8047564625740051
0.7037568688392639 -0.8225053548812866 0.9846110939979553
0.7037568688392639 -0.8225053548812866 1.1644656658172607
0.7037568092346191 -0.8225053548812866 1.344320297241211
0.8562101125717163 -0.6621246933937073 -1.353499174118042
0.8562101125717163 -0.6621246933937073 -1.1736445426940918
0.8562101125717163 -0.6621246933937073 -0.9937898516654968
0.8562101125717163 -0.6621246933937073 -0.8139352202415466
0.8562101125717163 -0.6621246933937073 -0.6340805888175964
0.8562100529670715 -0.6621246933937073 -0.45422598719596863
0.8562100529670715 -0.6621246933937073 -0.27437135577201843
0.8562100529670715 -0.6621246933937073 -0.09451671689748764
0.8562100529670715 -0.6621246933937073 0.08533791452646255
0.8562100529670715 -0.6621246933937073 0.26519253849983215
0.8562100529670715 -0.6621246933937073 0.44504716992378235
0.8562100529670715 -0.6621246933937073 0.6249018311500549
0.8562100529670715 -0.6621246933937073 0.8047564625740051
0.8562099933624268 -0.6621246933937073 0.9846110939979553
0.8562099933624268 -0.6621246933937073 1.1644656658172607
0.8562099933624268 -0.6621246933937073 1.344320297241211
0.9732581973075867 -0.47433847188949585 -1.353499174118042
0.9732581377029419 -0.47433847188949585 -1.1736445426940918
0.9732581377029419 -0.47433847188949585 -0.9937898516654968
0.9732581377029419 -0.47433847188949585 -0.8139352202415466
0.9732581377029419 -0.47433847188949585 -0.6340805888175964
0.9732581377029419 -0.47433847188949585 -0.45422598719596863
0.9732581377029419 -0.47433847188949585 -0.27437135577201843
0.9732581377029419 -0.47433847188949585 -0.09451670944690704
0.9732581377029419 -0.47433847188949585 0.08533792197704315
0.9732580780982971 -0.47433847188949585 0.26519253849983215
0.9732580780982971 -0.47433847188949585 0.44504716992378235
0.9732580780982971 -0.47433847188949585 0.6249018311500549
0.9732580780982971 -0.47433847188949585 0.8047564625740051
0.9732580780982971 -0.47433847188949585 0.9846110939979553
0.9732580780982971 -0.47433847188949585 1.1644656658172607
0.9732580780982971 -0.47433847188949585 1.344320297241211
1.0501091480255127 -0.26683464646339417 -1.353499174118042
1.0501091480255127 -0.26683464646339417 -1.1736445426940918
1.0501091480255127 -0.26683464646339417 -0.9937898516654968
1.0501091480255127 -0.26683464646339417 -0.8139352202415466
1.0501091480255127 -0.26683464646339417 -0.6340805888175964
1.0501091480255127 -0.26683464646339417 -0.45422595739364624
1.0501091480255127 -0.26683464646339417 -0.27437132596969604
1.0501091480255127 -0.26683464646339417 -0.09451670944690704
1.0501091480255127 -0.26683464646339417 0.08533792197704315
1.0501090288162231 -0.26683464646339417 0.26519256830215454
1.0501090288162231 -0.26683464646339417 0.44504719972610474
1.0501090288162231 -0.26683464646339417 0.6249018311500549
1.0501090288162231 -0.26683464646339417 0.8047564625740051
1.0501090288162231 -0.26683464646339417 0.9846110939979553
1.0501090288162231 -0.26683464646339417 1.1644656658172607
1.0501090288162231 -0.26683464646339417 1.344320297241211
1.0836167335510254 -0.04810843616724014 -1.353499174118042
1.0836167335510254 -0.04810843616724014 -1.1736445426940918
1.0836167335510254 -0.048108432441949844 -0.9937898516654968
1.0836167335510254 -0.048108432441949844 -0.8139352202415466
1.0836167335510254 -0.048108432441949844 -0.6340805888175964
1.0836167335510254 -0.048108432441949844 -0.45422595739364624
1.0836167335510254 -0.048108432441949844 -0.27437132596969604
1.0836167335510254 -0.048108432441949844 -0.09451670944690704
1.0836167335510254 -0.048108432441949844 0.08533792197704315
1.0836167335510254 -0.048108428716659546 0.26519256830215454
1.0836167335510254 -0.048108428716659546 0.44504719972610474
1.0836167335510254 -0.048108428716659546 0.6249018311500549
1.0836167335510254 -0.048108428716659546 0.8047564625740051
1.0836167335510254 -0.048108428716659546 0.9846110939979553
1.0836166143417358 -0.048108428716659546 1.1644656658172607
1.0836166143417358 -0.048108428716659546 1.344320297241211
1.0724092721939087 0.1728854775428772 -1.353499174118042
1.0724092721939087 0.1728854775428772 -1.1736445426940918
1.0724092721939087 0.1728854775428772 -0.9937898516654968
1.0724092721939087 0.1728854775428772 -0.8139352202415466
1.0724091529846191 0.1728854775428772 -0.6340805888175964
1.0724091529846191 0.1728854775428772 -0.45422595739364624
1.0724091529846191 0.1728854775428772 -0.27437132596969604
1.0724091529846191 0.1728854775428772 -0.09451670944690704
1.0724091529846191 0.1728854775428772 0.08533792197704315
1.0724091529846191 0.1728854775428772 0.26519256830215454
1.0724091529846191 0.1728854775428772 0.44504719972610474
1.0724091529846191 0.1728854775428772 0.6249018311500549
1.0724091529846191 0.1728854775428772 0.8047564625740051
1.0724091529846191 0.1728854775428772 0.9846110939979553
1.0724091529846191 0.1728854775428772 1.1644656658172607
1.0724091529846191 0.1728854775428772 1.344320297241211
1.0169453620910645 0.38709956407546997 -1.353499174118042
1.0169453620910645 0.38709956407546997 -1.1736445426940918
1.0169453620910645 0.38709956407546997 -0.9937898516654968
1.0169453620910645 0.38709956407546997 -0.8139352202415466
1.0169453620910645 0.38709956407546997 -0.6340805888175964
1.0169453620910645 0.38709956407546997 -0.45422598719596863
1.0169453620910645 0.38709956407546997 -0.27437135577201843
1.0169453620910645 0.38709956407546997 -0.09451670944690704
1.0169453620910645 0.38709956407546997 0.08533792197704315
1.016945242881775 0.38709956407546997 0.26519253849983215
1.016945242881775 0.38709956407546997 0.44504716992378235
1.016945242881775 0.38709956407546997 0.6249018311500549
1.016945242881775 0.38709956407546997 0.8047564625740051
1.016945242881775 0.38709956407546997 0.9846110939979553
1.016945242881775 0.38709956407546997 1.1644656658172607
1.016945242881775 0.38709956407546997 1.344320297241211
0.9194958806037903 0.5857638716697693 -1.353499174118042
0.9194958806037903 0.5857638716697693 -1.1736445426940918
0.9194958209991455 0.5857638716697693 -0.9937898516654968
0.9194958209991455 0.5857638716697693 -0.8139352202415466
0.9194958209991455 0.5857638716697693 -0.6340805888175964
0.9194958209991455 0.5857638716697693 -0.45422598719596863
0.9194958209991455 0.5857638716697693 -0.27437135577201843
0.9194958209991455 0.5857638716697693 -0.09451671689748764
0.9194958209991455 0.5857638716697693 0.08533791452646255
0.9194958209991455 0.5857638716697693 0.26519253849983215
0.9194957613945007 0.5857638716697693 0.44504716992378235
0.9194957613945007 0.5857638716697693 0.6249018311500549
0.9194957613945007 0.5857638716697693 0.8047564625740051
0.9194957613945007 0.5857638716697693 0.9846110939979553
0.9194957613945007 0.5857638716697693 1.1644656658172607
0.9194957613945007 0.5857638716697693 1.344320297241211
0.7840503454208374 0.760745108127594 -1.353499174118042
0.7840503454208374 0.760745108127594 -1.1736445426940918
0.7840502858161926 0.760745108127594 -0.9937898516654968
0.7840502858161926 0.760745108127594 -0.8139352202415466
0.7840502858161926 0.760745108127594 -0.6340805888175964
0.7840502858161926 0.760745108127594 -0.45422598719596863
0.7840502858161926 0.760745108127594 -0.27437135577201843
0.7840502858161926 0.760745108127594 -0.09451672434806824
0.7840502858161926 0.760745108127594 0.08533790707588196
0.7840502858161926 0.760745108127594 0.26519253849983215
0.7840502262115479 0.760745108127594 0.44504716992378235
0.7840502262115479 0.760745108127594 0.6249018311500549
0.7840502262115479 0.760745108127594 0.8047564625740051
0.7840502262115479 0.760745108127594 0.9846110939979553
0.7840502262115479 0.760745108127594 1.1644656658172607
0.7840502262115479 0.760745108127594 1.344320297241211
0.61615389585495 0.9048794507980347 -1.353499174118042
0.61615389585495 0.9048794507980347 -1.1736445426940918
0.61615389585495 0.9048794507980347 -0.9937899112701416
0.61615389585495 0.9048794507980347 -0.8139352798461914
0.61615389585495 0.9048794507980347 -0.6340806484222412
0.61615389585495 0.9048794507980347 -0.45422598719596863
0.6161538362503052 0.9048794507980347 -0.27437135577201843
0.6161538362503052 0.9048794507980347 -0.09451673179864883
0.6161538362503052 0.9048794507980347 0.08533789962530136
0.6161538362503052 0.9048794507980347 0.26519253849983215
0.6161538362503052 0.9048794507980347 0.44504716992378235
0.6161538362503052 0.9048794507980347 0.6249017715454102
0.6161538362503052 0.9048794507980347 0.8047564029693604
0.6161538362503052 0.9048794507980347 0.9846110343933105
0.6161537766456604 0.9048794507980347 1.1644656658172607
0.6161537766456604 0.9048794507980347 1.344320297241211
0.4226803183555603 1.0122660398483276 -1.353499174118042
0.4226803183555603 1.0122660398483276 -1.1736445426940918
0.4226802885532379 1.0122660398483276 -0.9937899112701416
0.4226802885532379 1.0122660398483276 -0.8139352798461914
0.4226802885532379 1.0122660398483276 -0.6340806484222412
0.4226802587509155 1.0122660398483276 -0.45422598719596863
0.4226802587509155 1.0122660398483276 -0.27437135577201843
0.4226802587509155 1.0122660398483276 -0.09451673924922943
0.4226802587509155 1.0122660398483276 0.08533789217472076
0.42268022894859314 1.0122660398483276 0.26519253849983215
0.42268022894859314 1.0122660398483276 0.44504716992378235
0.42268022894859314 1.0122660398483276 0.6249017715454102
0.42268022894859314 1.0122660398483276 0.8047564029693604
0.42268019914627075 1.0122660398483276 0.9846110343933105
0.42268019914627075 1.0122660398483276 1.1644656658172607
0.42268019914627075 1.0122660398483276 1.344320297241211
0.21155036985874176 1.0785084962844849 -1.353499174118042
0.21155035495758057 1.0785084962844849 -1.1736445426940918
0.21155035495758057 1.0785084962844849 -0.9937899112701416
0.21155034005641937 1.0785084962844849 -0.8139352798461914
0.21155034005641937 1.0785084962844849 -0.6340806484222412
0.21155032515525818 1.0785084962844849 -0.454226016998291
0.21155031025409698 1.0785084962844849 -0.2743713855743408
0.21155031025409698 1.0785084962844849 -0.09451674669981003
0.2115502953529358 1.0785084962844849 0.08533788472414017
0.2115502953529358 1.0785084962844849 0.26519250869750977
0.2115502804517746 1.0785084962844849 0.44504714012145996
0.2115502804517746 1.0785084962844849 0.6249017715454102
0.2115502655506134 1.0785084962844849 0.8047564029693604
0.2115502655506134 1.0785084962844849 0.9846110343933105
0.2115502506494522 1.0785084962844849 1.1644656658172607
0.2115502506494522 1.0785084962844849 1.344320297241211
-0.00859224796295166 1.100894808769226 -1.353499174118042
-0.008592255413532257 1.100894808769226 -1.1736445426940918
-0.008592263795435429 1.100894808769226 -0.9937899112701416
-0.008592271246016026 1.100894808769226 -0.8139352798461914
-0.008592279627919197 1.100894808769226 -0.6340806484222412
-0.008592287078499794 1.100894808769226 -0.454226016998291
-0.008592295460402966 1.100894808769226 -0.2743713855743408
-0.008592302910983562 1.100894808769226 -0.09451675415039062
-0.00859231036156416 1.100894808769226 0.08533787727355957
-0.008592318743467331 1.100894808769226 0.26519250869750977
-0.008592326194047928 1.100894808769226 0.44504714012145996
-0.0085923345759511 1.100894808769226 0.6249017715454102
-0.008592342026531696 1.100894808769226 0.8047564029693604
-0.008592350408434868 1.100894808769226 0.9846110343933105
-0.008592357859015465 1.100894808769226 1.1644656658172607
-0.008592365309596062 1.100894808769226 1.344320297241211
