ply
format ascii 1.0
element vertex 512
property float x
property float y
property float z
end_header
0.9085602760314941 1.8665714263916016 -1.4888163805007935
0.9085661172866821 1.866564154624939 -1.20429265499115
0.9085719585418701 1.866557002067566 -0.9197690486907959
0.9085777401924133 1.8665497303009033 -0.6352453827857971
0.9085835814476013 1.8665425777435303 -0.3507217466831207
0.9085894227027893 1.8665353059768677 -0.06619809567928314
0.9085952639579773 1.866528034210205 0.21832555532455444
0.9086010456085205 1.866520881652832 0.5028492212295532
0.9086068868637085 1.8665136098861694 0.7873728275299072
0.9086127281188965 1.8665064573287964 1.0718964338302612
0.9086185693740845 1.8664991855621338 1.3564201593399048
0.9086243510246277 1.8664919137954712 1.6409437656402588
0.9086301922798157 1.8664847612380981 1.9254673719406128
0.9086360335350037 1.8664774894714355 2.209990978240967
0.9086418747901917 1.8664703369140625 2.4945147037506104
0.9086476564407349 1.8664630651474 2.779038429260254
0.5347860455513 1.8285622596740723 -1.488809585571289
0.534791886806488 1.8285551071166992 -1.204285979270935
0.534797728061676 1.8285478353500366 -0.9197623133659363
0.5348035097122192 1.8285406827926636 -0.6352387070655823
0.5348093509674072 1.828533411026001 -0.3507150411605835
0.5348151922225952 1.8285261392593384 -0.0661914050579071
0.5348210334777832 1.8285189867019653 0.21833224594593048
0.5348268151283264 1.8285117149353027 0.5028558969497681
0.5348326563835144 1.8285045623779297 0.7873795628547668
0.5348384976387024 1.828497290611267 1.0719032287597656
0.5348443388938904 1.8284900188446045 1.3564268350601196
0.5348501205444336 1.8284828662872314 1.6409504413604736
0.5348559617996216 1.8284755945205688 1.9254741668701172
0.5348618030548096 1.8284684419631958 2.2099976539611816
0.5348676443099976 1.8284611701965332 2.494521379470825
0.5348734259605408 1.8284538984298706 2.7790451049804688
0.17631417512893677 1.7160910367965698 -1.4888051748275757
0.17632000148296356 1.7160837650299072 -1.2042814493179321
0.17632582783699036 1.7160766124725342 -0.9197578430175781
0.17633165419101715 1.7160693407058716 -0.6352342367172241
0.17633748054504395 1.7160621881484985 -0.35071057081222534
0.17634330689907074 1.716054916381836 -0.06618691980838776
0.17634913325309753 1.7160476446151733 0.21833673119544983
0.17635495960712433 1.7160404920578003 0.5028603672981262
0.17636078596115112 1.7160332202911377 0.787384033203125
0.17636661231517792 1.7160260677337646 1.071907639503479
0.1763724386692047 1.716018795967102 1.3564313650131226
0.1763782650232315 1.7160115242004395 1.6409549713134766
0.1763840913772583 1.7160043716430664 1.9254785776138306
0.1763899177312851 1.7159970998764038 2.2100021839141846
0.1763957440853119 1.7159898281097412 2.494525909423828
0.17640157043933868 1.7159826755523682 2.7790496349334717
-0.15217944979667664 1.5337622165679932 -1.4888030290603638
-0.15217362344264984 1.5337549448013306 -1.2042794227600098
-0.15216779708862305 1.5337477922439575 -0.919755756855011
-0.15216197073459625 1.533740520477295 -0.6352320909500122
-0.15215614438056946 1.5337332487106323 -0.3507084548473358
-0.15215031802654266 1.5337260961532593 -0.06618481874465942
-0.15214449167251587 1.5337188243865967 0.21833881735801697
-0.15213866531848907 1.5337116718292236 0.5028624534606934
-0.15213283896446228 1.533704400062561 0.7873861193656921
-0.15212701261043549 1.5336971282958984 1.071909785270691
-0.1521211862564087 1.5336899757385254 1.356433391571045
-0.1521153599023819 1.5336827039718628 1.640956997871399
-0.1521095335483551 1.5336755514144897 1.9254807233810425
-0.1521037071943283 1.5336682796478271 2.2100043296813965
-0.1520978808403015 1.5336610078811646 2.49452805519104
-0.15209205448627472 1.5336538553237915 2.7790515422821045
-0.43724626302719116 1.2890403270721436 -1.4888033866882324
-0.4372404217720032 1.2890331745147705 -1.2042797803878784
-0.4372346103191376 1.289025902748108 -0.9197561144828796
-0.4372287690639496 1.2890186309814453 -0.6352325081825256
-0.437222957611084 1.2890114784240723 -0.35070884227752686
-0.437217116355896 1.2890042066574097 -0.06618519872426987
-0.4372113049030304 1.2889970541000366 0.21833844482898712
-0.4372054636478424 1.288989782333374 0.5028620958328247
-0.4371996521949768 1.2889825105667114 0.7873857617378235
-0.4371938109397888 1.2889753580093384 1.0719094276428223
-0.4371879994869232 1.2889680862426758 1.3564330339431763
-0.43718215823173523 1.2889609336853027 1.6409566402435303
-0.43717634677886963 1.2889536619186401 1.9254803657531738
-0.43717050552368164 1.2889463901519775 2.2100038528442383
-0.43716469407081604 1.2889392375946045 2.494527578353882
-0.43715885281562805 1.288931965827942 2.7790513038635254
-0.6672155857086182 0.9919444918632507 -1.4888062477111816
-0.6672097444534302 0.9919372200965881 -1.2042826414108276
-0.667203962802887 0.9919300079345703 -0.9197589755058289
-0.667198121547699 0.9919227957725525 -0.6352353096008301
-0.667192280292511 0.9919155836105347 -0.3507116734981537
-0.667186439037323 0.9919083118438721 -0.0661880299448967
-0.6671806573867798 0.9919010996818542 0.2183356136083603
-0.6671748161315918 0.9918938875198364 0.5028592348098755
-0.6671689748764038 0.9918866753578186 0.7873829007148743
-0.6671631336212158 0.9918794631958008 1.071906566619873
-0.6671573519706726 0.9918721914291382 1.356430172920227
-0.6671515107154846 0.9918649792671204 1.6409538984298706
-0.6671456694602966 0.9918577671051025 1.9254775047302246
-0.6671398282051086 0.9918505549430847 2.210001230239868
-0.6671340465545654 0.9918433427810669 2.4945247173309326
-0.6671282052993774 0.9918360710144043 2.779048442840576
-0.8326724767684937 0.6546376347541809 -1.4888114929199219
-0.8326666355133057 0.6546304225921631 -1.2042877674102783
-0.8326608538627625 0.6546232104301453 -0.9197641611099243
-0.8326550126075745 0.6546159982681274 -0.6352404952049255
-0.8326491713523865 0.6546087265014648 -0.35071685910224915
-0.8326433300971985 0.654601514339447 -0.06619320809841156
-0.8326375484466553 0.6545943021774292 0.21833044290542603
-0.8326317071914673 0.6545870900154114 0.5028541088104248
-0.8326258659362793 0.6545798778533936 0.7873777151107788
-0.8326200246810913 0.654572606086731 1.0719013214111328
-0.8326142430305481 0.6545653939247131 1.3564250469207764
-0.8326084017753601 0.6545581817626953 1.6409486532211304
-0.8326025605201721 0.6545509696006775 1.9254722595214844
-0.8325967192649841 0.6545437574386597 2.209995985031128
-0.8325909376144409 0.6545364856719971 2.4945197105407715
-0.8325850963592529 0.6545292735099792 2.779043197631836
-0.9268431067466736 0.29092931747436523 -1.4888187646865845
-0.9268372654914856 0.290922075510025 -1.204295039176941
-0.9268314242362976 0.2909148633480072 -0.9197714328765869
-0.9268256425857544 0.290907621383667 -0.6352478265762329
-0.9268198013305664 0.29090040922164917 -0.35072416067123413
-0.9268139600753784 0.29089319705963135 -0.06620051711797714
-0.9268081188201904 0.29088595509529114 0.21832312643527985
-0.9268023371696472 0.2908787429332733 0.5028467774391174
-0.9267964959144592 0.2908715009689331 0.7873704433441162
-0.9267906546592712 0.2908642888069153 1.0718940496444702
-0.9267848134040833 0.2908570468425751 1.3564176559448242
-0.92677903175354 0.29084983468055725 1.6409413814544678
-0.926773190498352 0.29084262251853943 1.9254649877548218
-0.9267673492431641 0.2908353805541992 2.209988594055176
-0.9267615079879761 0.2908281683921814 2.4945123195648193
-0.9267557263374329 0.2908209264278412 2.779036045074463
-0.9458720684051514 -0.08429031819105148 -1.4888278245925903
-0.9458662867546082 -0.0842975378036499 -1.2043042182922363
-0.9458604454994202 -0.08430476486682892 -0.9197806119918823
-0.9458546042442322 -0.08431199193000793 -0.6352569460868835
-0.9458487629890442 -0.08431921154260635 -0.35073330998420715
-0.945842981338501 -0.08432643860578537 -0.06620965152978897
-0.945837140083313 -0.08433366566896439 0.21831399202346802
-0.945831298828125 -0.0843408852815628 0.5028376579284668
-0.945825457572937 -0.08434811234474182 0.7873612642288208
-0.9458196759223938 -0.08435533940792084 1.0718849897384644
-0.9458138346672058 -0.08436255902051926 1.3564085960388184
-0.9458079934120178 -0.08436978608369827 1.6409322023391724
-0.9458021521568298 -0.08437700569629669 1.925455927848816
-0.9457963705062866 -0.08438423275947571 2.20997953414917
-0.9457905292510986 -0.08439145982265472 2.4945032596588135
-0.9457846879959106 -0.08439867943525314 2.779026746749878
-0.8889803886413574 -0.4556596875190735 -1.4888384342193604
-0.8889745473861694 -0.4556668996810913 -1.2043148279190063
-0.8889687657356262 -0.45567411184310913 -0.9197911620140076
-0.8889629244804382 -0.45568135380744934 -0.6352675557136536
-0.8889570832252502 -0.45568856596946716 -0.3507438898086548
-0.8889512419700623 -0.4556958079338074 -0.0662202462553978
-0.888945460319519 -0.4557030200958252 0.2183033972978592
-0.888939619064331 -0.4557102620601654 0.5028270483016968
-0.8889337778091431 -0.4557174742221832 0.7873507142066956
-0.8889279365539551 -0.45572468638420105 1.0718743801116943
-0.8889221549034119 -0.45573192834854126 1.3563979864120483
-0.8889163136482239 -0.4557391405105591 1.6409215927124023
-0.8889104723930359 -0.4557463824748993 1.925445318222046
-0.8889046311378479 -0.4557535946369171 2.2099688053131104
-0.8888988494873047 -0.45576080679893494 2.494492530822754
-0.8888930082321167 -0.45576804876327515 2.7790162563323975
-0.7584971785545349 -0.8079748749732971 -1.4888501167297363
-0.7584913372993469 -0.8079820871353149 -1.2043263912200928
-0.7584854960441589 -0.8079892992973328 -0.9198027849197388
-0.7584797143936157 -0.8079965710639954 -0.6352791786193848
-0.7584738731384277 -0.8080037832260132 -0.350755512714386
-0.7584680318832397 -0.808010995388031 -0.0662318617105484
-0.7584621906280518 -0.8080182075500488 0.218291774392128
-0.7584564089775085 -0.8080254197120667 0.5028154253959656
-0.7584505677223206 -0.8080326914787292 0.7873390913009644
-0.7584447264671326 -0.8080399036407471 1.0718626976013184
-0.7584388852119446 -0.8080471158027649 1.356386423110962
-0.7584331035614014 -0.8080543279647827 1.640910029411316
-0.7584272623062134 -0.8080615401268005 1.92543363571167
-0.7584214210510254 -0.8080688118934631 2.2099573612213135
-0.7584155797958374 -0.808076024055481 2.494480848312378
-0.7584097981452942 -0.8080832362174988 2.7790045738220215
-0.5597644448280334 -1.1268121004104614 -1.4888622760772705
-0.5597586035728455 -1.1268192529678345 -1.2043386697769165
-0.5597527623176575 -1.126826524734497 -0.919814944267273
-0.5597469210624695 -1.1268337965011597 -0.635291337966919
-0.5597411394119263 -1.1268409490585327 -0.35076767206192017
-0.5597352981567383 -1.1268482208251953 -0.06624402850866318
-0.5597294569015503 -1.1268553733825684 0.2182796150445938
-0.5597236156463623 -1.126862645149231 0.5028032660484314
-0.5597178339958191 -1.1268699169158936 0.7873269319534302
-0.5597119927406311 -1.1268770694732666 1.0718505382537842
-0.5597061514854431 -1.1268843412399292 1.3563741445541382
-0.5597003102302551 -1.1268914937973022 1.6408978700637817
-0.5596945285797119 -1.1268987655639648 1.9254214763641357
-0.5596886873245239 -1.1269060373306274 2.2099452018737793
-0.5596828460693359 -1.1269131898880005 2.4944686889648438
-0.559677004814148 -1.126920461654663 2.7789924144744873
-0.3009182810783386 -1.3991180658340454 -1.4888744354248047
-0.300912469625473 -1.3991252183914185 -1.2043508291244507
-0.30090662837028503 -1.399132490158081 -0.9198271632194519
-0.30090081691741943 -1.3991397619247437 -0.6353035569190979
-0.30089497566223145 -1.3991469144821167 -0.3507798910140991
-0.30088916420936584 -1.3991541862487793 -0.06625624746084213
-0.30088332295417786 -1.3991613388061523 0.21826739609241486
-0.30087751150131226 -1.399168610572815 0.5027910470962524
-0.30087167024612427 -1.3991758823394775 0.7873147130012512
-0.30086585879325867 -1.3991830348968506 1.07183837890625
-0.3008600175380707 -1.3991903066635132 1.356361985206604
-0.3008542060852051 -1.3991975784301758 1.640885591506958
-0.3008483648300171 -1.3992047309875488 1.9254093170166016
-0.3008425533771515 -1.3992120027542114 2.209932804107666
-0.3008367121219635 -1.3992191553115845 2.4944565296173096
-0.3008309006690979 -1.399226427078247 2.778980255126953
0.007444032933562994 -1.6137446165084839 -1.4888862371444702
0.0074498592875897884 -1.613751769065857 -1.2043626308441162
0.007455685641616583 -1.6137590408325195 -0.9198389649391174
0.007461511995643377 -1.6137661933898926 -0.6353152990341187
0.007467338349670172 -1.6137734651565552 -0.35079166293144226
0.007473164703696966 -1.6137807369232178 -0.06626800447702408
0.007478991523385048 -1.6137878894805908 0.2182556390762329
0.007484817877411842 -1.6137951612472534 0.5027793049812317
0.007490644231438637 -1.6138023138046265 0.7873029112815857
0.007496470585465431 -1.613809585571289 1.0718265771865845
0.007502296939492226 -1.6138168573379517 1.3563501834869385
0.00750812329351902 -1.6138240098953247 1.640873908996582
0.0075139496475458145 -1.6138312816619873 1.925397515296936
0.007519776001572609 -1.6138384342193604 2.20992112159729
0.007525602821260691 -1.613845705986023 2.4944448471069336
0.007531429175287485 -1.6138529777526855 2.778968334197998
0.3526981770992279 -1.7619048357009888 -1.4888970851898193
0.3527039885520935 -1.7619119882583618 -1.2043734788894653
0.3527098298072815 -1.7619192600250244 -0.9198497533798218
0.3527156412601471 -1.7619264125823975 -0.6353261470794678
0.3527214825153351 -1.76193368434906 -0.350802481174469
0.3527272939682007 -1.7619409561157227 -0.066278837621212
0.35273313522338867 -1.7619481086730957 0.21824480593204498
0.3527389466762543 -1.7619553804397583 0.5027684569358826
0.35274478793144226 -1.7619625329971313 0.7872921228408813
0.35275059938430786 -1.761969804763794 1.0718157291412354
0.35275644063949585 -1.7619770765304565 1.3563393354415894
0.35276225209236145 -1.7619842290878296 1.640863060951233
0.35276809334754944 -1.7619915008544922 1.925386667251587
0.35277390480041504 -1.7619986534118652 2.2099103927612305
0.352779746055603 -1.7620059251785278 2.494433879852295
0.35278555750846863 -1.7620131969451904 2.7789576053619385
0.7207093834877014 -1.8375329971313477 -1.4889065027236938
0.7207151651382446 -1.8375402688980103 -1.2043828964233398
0.7207210063934326 -1.8375474214553833 -0.9198592305183411
0.7207268476486206 -1.837554693222046 -0.6353355646133423
0.7207326889038086 -1.837561845779419 -0.3508119285106659
0.7207384705543518 -1.8375691175460815 -0.0662882998585701
0.7207443118095398 -1.8375763893127441 0.2182353436946869
0.7207501530647278 -1.8375835418701172 0.5027589797973633
0.7207559943199158 -1.8375908136367798 0.7872826457023621
0.720761775970459 -1.8375979661941528 1.0718063116073608
0.720767617225647 -1.8376052379608154 1.3563299179077148
0.720773458480835 -1.837612509727478 1.6408535242080688
0.720779299736023 -1.837619662284851 1.9253772497177124
0.7207850813865662 -1.8376269340515137 2.2099008560180664
0.7207909226417542 -1.8376342058181763 2.49442458152771
0.7207967638969421 -1.8376413583755493 2.7789480686187744
1.0964112281799316 -1.8375329971313477 -1.4889142513275146
1.0964170694351196 -1.8375402688980103 -1.204390525817871
1.096422791481018 -1.8375474214553833 -0.9198669195175171
1.096428632736206 -1.837554693222046 -0.6353432536125183
1.096434473991394 -1.837561845779419 -0.3508196473121643
1.096440315246582 -1.8375691175460815 -0.06629598885774612
1.09644615650177 -1.8375763893127441 0.21822765469551086
1.096451997756958 -1.8375835418701172 0.5027512907981873
1.096457839012146 -1.8375908136367798 0.787274956703186
1.096463680267334 -1.8375979661941528 1.07179856300354
1.0964694023132324 -1.8376052379608154 1.3563222885131836
1.0964752435684204 -1.837612509727478 1.6408458948135376
1.0964810848236084 -1.837619662284851 1.9253695011138916
1.0964869260787964 -1.8376269340515137 2.209893226623535
1.0964927673339844 -1.8376342058181763 2.4944167137145996
1.0964986085891724 -1.8376413583755493 2.778940439224243
1.464422345161438 -1.7619048357009888 -1.4889198541641235
1.464428186416626 -1.7619119882583618 -1.2043962478637695
1.464434027671814 -1.7619192600250244 -0.919872522354126
1.464439868927002 -1.7619264125823975 -0.635348916053772
1.46444571018219 -1.76193368434906 -0.3508252501487732
1.464451551437378 -1.7619409561157227 -0.0663016065955162
1.464457392692566 -1.7619481086730957 0.21822203695774078
1.4644631147384644 -1.7619553804397583 0.5027456879615784
1.4644689559936523 -1.7619625329971313 0.7872693538665771
1.4644747972488403 -1.761969804763794 1.0717929601669312
1.4644806385040283 -1.7619770765304565 1.3563165664672852
1.4644864797592163 -1.7619842290878296 1.6408402919769287
1.4644923210144043 -1.7619915008544922 1.9253638982772827
1.4644981622695923 -1.7619986534118652 2.2098875045776367
1.4645040035247803 -1.7620059251785278 2.4944112300872803
1.4645097255706787 -1.7620131969451904 2.778934955596924
1.8096765279769897 -1.6137446165084839 -1.488923192024231
1.8096823692321777 -1.613751769065857 -1.2043994665145874
1.8096882104873657 -1.6137590408325195 -0.9198758602142334
1.8096940517425537 -1.6137661933898926 -0.6353521943092346
1.8096997737884521 -1.6137734651565552 -0.3508285582065582
1.8097056150436401 -1.6137807369232178 -0.06630491465330124
1.8097114562988281 -1.6137878894805908 0.21821872889995575
1.8097172975540161 -1.6137951612472534 0.502742350101471
1.809723138809204 -1.6138023138046265 0.7872660160064697
1.809728980064392 -1.613809585571289 1.0717896223068237
1.80973482131958 -1.6138168573379517 1.3563133478164673
1.809740662574768 -1.6138240098953247 1.6408369541168213
1.8097463846206665 -1.6138312816619873 1.9253605604171753
1.8097522258758545 -1.6138384342193604 2.2098841667175293
1.8097580671310425 -1.613845705986023 2.494407892227173
1.8097639083862305 -1.6138529777526855 2.7789316177368164
2.1180388927459717 -1.3991180658340454 -1.4889240264892578
2.11804461479187 -1.3991252183914185 -1.2044004201889038
2.1180505752563477 -1.399132490158081 -0.9198766946792603
2.118056297302246 -1.3991397619247437 -0.6353530883789062
2.1180622577667236 -1.3991469144821167 -0.35082942247390747
2.118067979812622 -1.3991541862487793 -0.06630577892065048
2.1180737018585205 -1.3991613388061523 0.2182178646326065
2.118079662322998 -1.399168610572815 0.5027415156364441
2.1180853843688965 -1.3991758823394775 0.7872651815414429
2.118091344833374 -1.3991830348968506 1.0717887878417969
2.1180970668792725 -1.3991903066635132 1.3563123941421509
2.11810302734375 -1.3991974592208862 1.6408361196517944
2.1181087493896484 -1.3992047309875488 1.9253597259521484
2.118114709854126 -1.3992120027542114 2.209883451461792
2.1181204319000244 -1.3992191553115845 2.4944069385528564
2.118126153945923 -1.399226427078247 2.7789306640625
2.376884937286377 -1.1268121004104614 -1.488922357559204
2.3768908977508545 -1.1268192529678345 -1.20439875125885
2.376896619796753 -1.126826524734497 -0.9198750853538513
2.3769023418426514 -1.1268337965011597 -0.6353514790534973
2.376908302307129 -1.1268409490585327 -0.35082781314849854
2.3769140243530273 -1.1268482208251953 -0.06630416214466095
2.376919984817505 -1.1268553733825684 0.21821947395801544
2.3769257068634033 -1.126862645149231 0.502743124961853
2.376931667327881 -1.1268699169158936 0.7872667908668518
2.3769373893737793 -1.1268770694732666 1.0717904567718506
2.376943349838257 -1.1268843412399292 1.3563140630722046
2.3769490718841553 -1.1268914937973022 1.6408376693725586
2.3769547939300537 -1.1268987655639648 1.9253613948822021
2.3769607543945312 -1.1269060373306274 2.2098851203918457
2.3769664764404297 -1.1269131898880005 2.49440860748291
2.3769724369049072 -1.126920461654663 2.7789323329925537
2.575617790222168 -0.8079748749732971 -1.488918423652649
2.5756235122680664 -0.8079820871353149 -1.2043946981430054
2.575629472732544 -0.8079892992973328 -0.9198710918426514
2.5756351947784424 -0.8079965710639954 -0.6353474259376526
2.575640916824341 -0.8080037832260132 -0.3508237898349762
2.5756468772888184 -0.808010995388031 -0.06630013883113861
2.575652599334717 -0.8080182075500488 0.21822351217269897
2.5756585597991943 -0.8080254197120667 0.5027471780776978
2.5756642818450928 -0.8080326914787292 0.7872707843780518
2.5756702423095703 -0.8080399036407471 1.0717943906784058
2.5756759643554688 -0.8080471158027649 1.3563181161880493
2.5756819248199463 -0.8080543279647827 1.6408417224884033
2.5756876468658447 -0.8080615401268005 1.9253653287887573
2.575693368911743 -0.8080688118934631 2.2098889350891113
2.5756993293762207 -0.808076024055481 2.494412660598755
2.575705051422119 -0.8080832362174988 2.7789363861083984
2.7061009407043457 -0.4556596875190735 -1.4889121055603027
2.706106662750244 -0.4556668996810913 -1.2043884992599487
2.7061126232147217 -0.45567411184310913 -0.9198647737503052
2.70611834526062 -0.45568135380744934 -0.6353411674499512
2.7061243057250977 -0.45568856596946716 -0.3508175015449524
2.706130027770996 -0.4556958079338074 -0.066293865442276
2.7061359882354736 -0.4557030200958252 0.21822978556156158
2.706141710281372 -0.455710232257843 0.5027534365653992
2.7061476707458496 -0.4557174742221832 0.7872770428657532
2.706153392791748 -0.45572468638420105 1.071800708770752
2.7061591148376465 -0.45573192834854126 1.356324315071106
2.706165075302124 -0.4557391405105591 1.6408480405807495
2.7061707973480225 -0.4557463526725769 1.9253716468811035
2.7061767578125 -0.4557535946369171 2.209895372390747
2.7061824798583984 -0.45576080679893494 2.4944188594818115
2.706188440322876 -0.45576804876327515 2.778942584991455
2.7629926204681396 -0.08429031819105148 -1.4889038801193237
2.762998580932617 -0.0842975378036499 -1.2043801546096802
2.7630043029785156 -0.08430476486682892 -0.9198565483093262
2.763010025024414 -0.08431198447942734 -0.6353328824043274
2.7630159854888916 -0.08431921154260635 -0.350809246301651
2.76302170753479 -0.08432643860578537 -0.06628560274839401
2.7630276679992676 -0.08433365821838379 0.21823804080486298
2.763033390045166 -0.0843408852815628 0.5027616620063782
2.7630393505096436 -0.08434811234474182 0.787285327911377
2.763045072555542 -0.08435533195734024 1.071808934211731
2.7630507946014404 -0.08436255902051926 1.3563326597213745
2.763056755065918 -0.08436978608369827 1.6408562660217285
2.7630624771118164 -0.08437700569629669 1.9253798723220825
2.763068437576294 -0.08438423275947571 2.2099034786224365
2.7630741596221924 -0.08439145237207413 2.49442720413208
2.76308012008667 -0.08439867943525314 2.7789509296417236
2.7439637184143066 0.29092931747436523 -1.4888938665390015
2.743969440460205 0.290922075510025 -1.2043702602386475
2.7439754009246826 0.2909148633480072 -0.9198465943336487
2.743981122970581 0.290907621383667 -0.6353229880332947
2.7439868450164795 0.29090040922164917 -0.3507993221282959
2.743992805480957 0.29089319705963135 -0.0662756860256195
2.7439985275268555 0.29088595509529114 0.21824796497821808
2.744004487991333 0.2908787429332733 0.5027716159820557
2.7440102100372314 0.2908715009689331 0.7872952818870544
2.744016170501709 0.2908642888069153 1.0718189477920532
2.7440218925476074 0.29085707664489746 1.3563425540924072
2.744027853012085 0.29084983468055725 1.6408661603927612
2.7440335750579834 0.29084262251853943 1.9253898859024048
2.744039297103882 0.2908353805541992 2.209913492202759
2.7440452575683594 0.2908281683921814 2.4944372177124023
2.744050979614258 0.2908209562301636 2.778960704803467
2.6497931480407715 0.6546376347541809 -1.4888827800750732
2.64979887008667 0.6546304225921631 -1.2043590545654297
2.6498045921325684 0.6546232104301453 -0.9198354482650757
2.649810552597046 0.6546159982681274 -0.6353118419647217
2.6498162746429443 0.6546087861061096 -0.3507881760597229
2.649822235107422 0.654601514339447 -0.06626451760530472
2.6498279571533203 0.6545943021774292 0.21825912594795227
2.649833917617798 0.6545870900154114 0.5027827620506287
2.6498396396636963 0.6545798778533936 0.7873064279556274
2.6498453617095947 0.654572606086731 1.0718300342559814
2.6498513221740723 0.6545653939247131 1.356353759765625
2.6498570442199707 0.6545581817626953 1.640877366065979
2.6498630046844482 0.6545509696006775 1.925400972366333
2.6498687267303467 0.6545437574386597 2.2099246978759766
2.649874687194824 0.6545364856719971 2.494448184967041
2.6498804092407227 0.6545292735099792 2.7789719104766846
2.4843361377716064 0.9919444918632507 -1.4888707399368286
2.484341859817505 0.9919372200965881 -1.2043471336364746
2.4843478202819824 0.9919300079345703 -0.9198235273361206
2.484353542327881 0.9919227957725525 -0.6352998614311218
2.4843595027923584 0.9919155836105347 -0.35077622532844543
2.484365224838257 0.9919083714485168 -0.06625256687402725
2.4843711853027344 0.9919010996818542 0.21827107667922974
2.484376907348633 0.9918938875198364 0.5027947425842285
2.4843828678131104 0.9918866753578186 0.7873183488845825
2.484388589859009 0.9918794631958008 1.071842074394226
2.4843943119049072 0.9918721914291382 1.35636568069458
2.4844002723693848 0.9918649792671204 1.640889286994934
2.484405994415283 0.9918577671051025 1.925412893295288
2.4844119548797607 0.9918505549430847 2.2099366188049316
2.484417676925659 0.9918433427810669 2.494460344314575
2.4844236373901367 0.9918360710144043 2.7789838314056396
2.254366874694824 1.2890403270721436 -1.4888585805892944
2.2543725967407227 1.2890331745147705 -1.2043348550796509
2.2543785572052 1.289025902748108 -0.9198112487792969
2.2543842792510986 1.2890186309814453 -0.6352875828742981
2.254390001296997 1.2890114784240723 -0.3507639467716217
2.2543959617614746 1.2890042066574097 -0.06624031811952591
2.254401683807373 1.2889970541000366 0.21828332543373108
2.2544076442718506 1.288989782333374 0.5028069615364075
2.254413366317749 1.2889825105667114 0.7873306274414062
2.2544193267822266 1.2889753580093384 1.0718542337417603
2.254425048828125 1.2889680862426758 1.3563779592514038
2.2544310092926025 1.2889609336853027 1.6409015655517578
2.254436731338501 1.2889536619186401 1.9254251718521118
2.2544424533843994 1.2889463901519775 2.209948778152466
2.254448413848877 1.2889392375946045 2.4944725036621094
2.2544541358947754 1.288931965827942 2.778996229171753
1.9693000316619873 1.5337622165679932 -1.4888465404510498
1.9693058729171753 1.5337549448013306 -1.2043228149414062
1.9693115949630737 1.5337477922439575 -0.9197992086410522
1.9693174362182617 1.533740520477295 -0.6352755427360535
1.9693232774734497 1.5337332487106323 -0.3507519066333771
1.9693291187286377 1.5337260961532593 -0.06622826308012009
1.9693349599838257 1.5337188243865967 0.2182953804731369
1.9693408012390137 1.5337116718292236 0.5028190016746521
1.9693466424942017 1.533704400062561 0.7873426675796509
1.9693524837493896 1.5336971282958984 1.0718662738800049
1.969358205795288 1.5336899757385254 1.3563899993896484
1.969364047050476 1.5336827039718628 1.6409136056900024
1.969369888305664 1.5336755514144897 1.9254372119903564
1.969375729560852 1.5336682796478271 2.2099609375
1.96938157081604 1.5336610078811646 2.4944846630096436
1.969387412071228 1.5336538553237915 2.779008150100708
1.6408063173294067 1.7160910367965698 -1.488835096359253
1.6408121585845947 1.7160837650299072 -1.204311490058899
1.6408179998397827 1.7160766124725342 -0.9197878241539001
1.6408238410949707 1.7160693407058716 -0.6352642178535461
1.6408296823501587 1.7160621881484985 -0.35074055194854736
1.6408355236053467 1.716054916381836 -0.06621690839529037
1.6408413648605347 1.7160476446151733 0.2183067351579666
1.6408472061157227 1.7160404920578003 0.5028303861618042
1.640852928161621 1.7160332202911377 0.787354052066803
1.640858769416809 1.7160260677337646 1.0718777179718018
1.640864610671997 1.716018795967102 1.3564013242721558
1.640870451927185 1.7160115242004395 1.6409249305725098
1.640876293182373 1.7160043716430664 1.9254486560821533
1.640882134437561 1.7159970998764038 2.2099721431732178
1.640887975692749 1.7159899473190308 2.4944958686828613
1.640893816947937 1.7159826755523682 2.779019594192505
1.2823344469070435 1.8285622596740723 -1.4888249635696411
1.2823402881622314 1.8285551071166992 -1.2043012380599976
1.2823461294174194 1.8285478353500366 -0.9197776317596436
1.2823519706726074 1.8285406827926636 -0.6352540254592896
1.2823578119277954 1.828533411026001 -0.35073035955429077
1.2823636531829834 1.8285261392593384 -0.06620670855045319
1.2823694944381714 1.8285189867019653 0.2183169275522232
1.2823753356933594 1.8285117149353027 0.5028405785560608
1.2823810577392578 1.8285045623779297 0.7873642444610596
1.2823868989944458 1.828497290611267 1.0718878507614136
1.2823927402496338 1.8284900188446045 1.3564115762710571
1.2823985815048218 1.8284828662872314 1.6409351825714111
1.2824044227600098 1.8284755945205688 1.9254587888717651
1.2824102640151978 1.8284684419631958 2.209982395172119
1.2824161052703857 1.8284611701965332 2.4945061206817627
1.2824219465255737 1.8284538984298706 2.7790298461914062
0.9085602760314941 1.8665714263916016 -1.4888163805007935
0.9085661172866821 1.866564154624939 -1.20429265499115
0.9085719585418701 1.866557002067566 -0.9197690486907959
0.9085777401924133 1.8665497303009033 -0.6352453827857971
0.9085835814476013 1.8665425777435303 -0.3507217466831207
0.9085894227027893 1.8665353059768677 -0.06619809567928314
0.9085952639579773 1.866528034210205 0.21832555532455444
0.9086010456085205 1.866520881652832 0.5028492212295532
0.9086068868637085 1.8665136098861694 0.7873728275299072
0.9086127281188965 1.8665064573287964 1.0718964338302612
0.9086185693740845 1.8664991855621338 1.3564201593399048
0.9086243510246277 1.8664919137954712 1.6409437656402588
0.9086301922798157 1.8664847612380981 1.9254673719406128
0.9086360335350037 1.8664774894714355 2.209990978240967
0.9086418747901917 1.8664703369140625 2.4945147037506104
0.9086476564407349 1.8664630651474 2.779038429260254
