ply
format ascii 1.0
element vertex 512
property float x
property float y
property float z
end_header
0.5145280361175537 -1.0942410230636597 1.2999775409698486
0.528099000453949 -1.0818034410476685 1.0160499811172485
0.5416699647903442 -1.0693659782409668 0.7321224212646484
0.5552409291267395 -1.0569283962249756 0.4481948912143707
0.5688119530677795 -1.0444908142089844 0.1642673760652542
0.5823829174041748 -1.0320533514022827 -0.1196601539850235
0.5959538817405701 -1.0196157693862915 -0.40358766913414
0.6095248460769653 -1.0071781873703003 -0.6875151991844177
0.6230958104133606 -0.9947407245635986 -0.9714427590370178
0.6366667747497559 -0.9823031425476074 -1.2553702592849731
0.6502377390861511 -0.969865620136261 -1.5392978191375732
0.6638087630271912 -0.9574280977249146 -1.8232253789901733
0.6773797273635864 -0.9449905157089233 -2.1071529388427734
0.6909506916999817 -0.9325529932975769 -2.391080379486084
0.704521656036377 -0.9201154708862305 -2.6750078201293945
0.7180926203727722 -0.907677948474884 -2.958935499191284
0.14117921888828278 -1.055488109588623 1.2838300466537476
0.15475019812583923 -1.0430505275726318 0.9999024868011475
0.1683211624622345 -1.0306130647659302 0.7159749269485474
0.18189214169979095 -1.018175482749939 0.43204742670059204
0.1954631209373474 -1.0057379007339478 0.14811989665031433
0.20903408527374268 -0.9933003783226013 -0.13580763339996338
0.22260506451129913 -0.9808628559112549 -0.4197351634502411
0.2361760288476944 -0.9684253334999084 -0.7036626935005188
0.24974700808525085 -0.9559877514839172 -0.9875901937484741
0.2633179724216461 -0.9435502290725708 -1.2715177536010742
0.27688896656036377 -0.9311127066612244 -1.5554453134536743
0.29045993089675903 -0.9186751842498779 -1.8393727540969849
0.3040308952331543 -0.9062376022338867 -2.123300313949585
0.31760185956954956 -0.8938000798225403 -2.4072277545928955
0.3311728537082672 -0.8813625574111938 -2.691155433654785
0.3447438180446625 -0.8689249753952026 -2.9750828742980957
-0.21688464283943176 -0.9423763155937195 1.2716704607009888
-0.2033136785030365 -0.929938793182373 0.9877429008483887
-0.18974269926548004 -0.9175012111663818 0.7038153409957886
-0.17617173492908478 -0.9050636887550354 0.41988784074783325
-0.16260075569152832 -0.892626166343689 0.13596029579639435
-0.14902977645397186 -0.8801885843276978 -0.14796723425388336
-0.1354588121175766 -0.8677510619163513 -0.4318947494029999
-0.12188783288002014 -0.8553135395050049 -0.7158222794532776
-0.10831686109304428 -0.8428760170936584 -0.9997498393058777
-0.09474588930606842 -0.8304384350776672 -1.283677339553833
-0.08117491751909256 -0.8180009126663208 -1.567604899406433
-0.0676039457321167 -0.8055633902549744 -1.8515324592590332
-0.05403297021985054 -0.7931258082389832 -2.1354598999023438
-0.04046199843287468 -0.7806882858276367 -2.4193873405456543
-0.02689102478325367 -0.7682507634162903 -2.703315019607544
-0.01332005113363266 -0.7558132410049438 -2.9872424602508545
-0.5450043678283691 -0.7595364451408386 1.2639964818954468
-0.5314334034919739 -0.7470989227294922 0.9800689816474915
-0.5178624391555786 -0.7346614003181458 0.6961414813995361
-0.5042914748191833 -0.7222238183021545 0.4122139513492584
-0.4907205104827881 -0.7097862958908081 0.1282864212989807
-0.47714951634407043 -0.6973487734794617 -0.155641108751297
-0.46357855200767517 -0.6849112510681152 -0.4395686388015747
-0.4500075876712799 -0.672473669052124 -0.72349613904953
-0.43643662333488464 -0.6600361466407776 -1.0074236392974854
-0.422865629196167 -0.6475986242294312 -1.2913511991500854
-0.40929466485977173 -0.6351610422134399 -1.5752787590026855
-0.39572370052337646 -0.6227235198020935 -1.8592063188552856
-0.3821527063846588 -0.6102859973907471 -2.1431338787078857
-0.36858174204826355 -0.5978484749794006 -2.4270613193511963
-0.3550107777118683 -0.5854108929634094 -2.710988759994507
-0.341439813375473 -0.572973370552063 -2.9949164390563965
-0.8297467827796936 -0.5144540667533875 1.2611225843429565
-0.8161757588386536 -0.5020164847373962 0.9771950244903564
-0.8026047945022583 -0.4895789623260498 0.6932674646377563
-0.789033830165863 -0.477141410112381 0.40933993458747864
-0.7754628658294678 -0.46470388770103455 0.12541241943836212
-0.7618919014930725 -0.4522663354873657 -0.1585151106119156
-0.7483209371566772 -0.4398288130760193 -0.4424426555633545
-0.734749972820282 -0.42739126086235046 -0.7263701558113098
-0.7211789488792419 -0.41495373845100403 -1.0102976560592651
-0.7076079845428467 -0.4025161862373352 -1.2942252159118652
-0.6940370202064514 -0.39007866382598877 -1.5781527757644653
-0.6804660558700562 -0.37764111161231995 -1.8620803356170654
-0.6668950915336609 -0.3652035593986511 -2.146007776260376
-0.6533241271972656 -0.3527660369873047 -2.4299354553222656
-0.6397531628608704 -0.34032848477363586 -2.713862895965576
-0.6261821389198303 -0.32789096236228943 -2.9977903366088867
-1.059454321861267 -0.21716275811195374 1.263166069984436
-1.0458834171295166 -0.2047252207994461 0.9792385101318359
-1.0323123931884766 -0.19228766858577728 0.6953110098838806
-1.018741488456726 -0.17985013127326965 0.4113834798336029
-1.005170464515686 -0.16741259396076202 0.1274559497833252
-0.9915995001792908 -0.1549750566482544 -0.15647158026695251
-0.9780285358428955 -0.14253751933574677 -0.4403991103172302
-0.9644575715065002 -0.13009998202323914 -0.7243266105651855
-0.9508865475654602 -0.11766243726015091 -1.0082541704177856
-0.9373155832290649 -0.10522489994764328 -1.2921817302703857
-0.9237446188926697 -0.09278736263513565 -1.5761091709136963
-0.9101736545562744 -0.08034981787204742 -1.8600367307662964
-0.8966026902198792 -0.0679122805595398 -2.1439642906188965
-0.8830317258834839 -0.055474743247032166 -2.427891731262207
-0.8694607615470886 -0.04303720220923424 -2.7118194103240967
-0.8558897376060486 -0.03059966489672661 -2.9957468509674072
-1.224722981452942 0.12016626447439194 1.2700434923171997
-1.2111519575119019 0.13260380923748016 0.9861159324645996
-1.1975809335708618 0.1450413465499878 0.7021884322166443
-1.1840100288391113 0.15747888386249542 0.4182609021663666
-1.1704390048980713 0.16991642117500305 0.13433337211608887
-1.1568681001663208 0.18235395848751068 -0.14959415793418884
-1.1432970762252808 0.1947914958000183 -0.43352168798446655
-1.1297261714935303 0.20722903311252594 -0.7174492478370667
-1.1161551475524902 0.21966658532619476 -1.001376748085022
-1.1025841236114502 0.2321041226387024 -1.285304307937622
-1.0890132188796997 0.24454165995121002 -1.5692317485809326
-1.0754421949386597 0.25697919726371765 -1.8531593084335327
-1.0618712902069092 0.2694167494773865 -2.137086868286133
-1.0483002662658691 0.2818542718887329 -2.4210143089294434
-1.0347293615341187 0.29429182410240173 -2.704941987991333
-1.0211583375930786 0.30672934651374817 -2.9888694286346436
-1.318786382675171 0.4837227165699005 1.281473159790039
-1.3052153587341309 0.49616026878356934 0.9975456595420837
-1.2916444540023804 0.5085977911949158 0.7136181592941284
-1.2780734300613403 0.5210353136062622 0.4296906292438507
-1.2645025253295898 0.5334728956222534 0.145763099193573
-1.2509315013885498 0.5459104180335999 -0.1381644308567047
-1.2373604774475098 0.5583479404449463 -0.4220919609069824
-1.2237895727157593 0.5707855224609375 -0.7060194611549377
-1.2102185487747192 0.5832230448722839 -0.9899470210075378
-1.1966476440429688 0.5956605672836304 -1.2738745212554932
-1.1830766201019287 0.6080980896949768 -1.5578020811080933
-1.1695057153701782 0.620535671710968 -1.8417296409606934
-1.1559346914291382 0.6329731941223145 -2.125657081604004
-1.1423636674880981 0.6454107165336609 -2.4095847606658936
-1.1287927627563477 0.6578482985496521 -2.693512201309204
-1.1152217388153076 0.6702858209609985 -2.9774396419525146
-1.3377937078475952 0.8586225509643555 1.2969872951507568
-1.3242226839065552 0.8710601329803467 1.0130598545074463
-1.3106517791748047 0.8834976553916931 0.7291322946548462
-1.2970807552337646 0.8959351778030396 0.4452047348022461
-1.2835098505020142 0.9083727598190308 0.16127720475196838
-1.2699388265609741 0.9208102822303772 -0.12265031784772873
-1.256367802619934 0.9332478046417236 -0.40657785534858704
-1.2427968978881836 0.9456853270530701 -0.6905053853988647
-1.2292258739471436 0.9581229090690613 -0.9744328856468201
-1.215654969215393 0.9705604314804077 -1.2583603858947754
-1.202083945274353 0.9829979538917542 -1.5422879457473755
-1.1885130405426025 0.9954355359077454 -1.8262155055999756
-1.1749420166015625 1.0078730583190918 -2.110142946243286
-1.1613709926605225 1.020310640335083 -2.394070625305176
-1.147800087928772 1.0327481031417847 -2.6779980659484863
-1.134229063987732 1.0451856851577759 -2.961925506591797
-1.2809667587280273 1.2295173406600952 1.315950632095337
-1.2673957347869873 1.2419549226760864 1.0320231914520264
-1.2538248300552368 1.2543925046920776 0.7480956315994263
-1.2402538061141968 1.2668299674987793 0.46416807174682617
-1.2266829013824463 1.2792675495147705 0.18024055659770966
-1.2131118774414062 1.2917051315307617 -0.10368697345256805
-1.1995409727096558 1.3041425943374634 -0.38761448860168457
-1.1859699487686157 1.3165801763534546 -0.6715420484542847
-1.1723989248275757 1.3290176391601562 -0.95546954870224
-1.1588280200958252 1.3414552211761475 -1.2393970489501953
-1.1452569961547852 1.3538928031921387 -1.5233246088027954
-1.1316860914230347 1.3663302659988403 -1.8072521686553955
-1.1181150674819946 1.3787678480148315 -2.091179609298706
-1.1045440435409546 1.3912054300308228 -2.3751072883605957
-1.090973138809204 1.4036428928375244 -2.6590347290039062
-1.077402114868164 1.4160804748535156 -2.942962169647217
-1.1506320238113403 1.581222653388977 1.3375868797302246
-1.1370611190795898 1.5936602354049683 1.0536593198776245
-1.1234900951385498 1.60609769821167 0.7697318196296692
-1.1099190711975098 1.6185352802276611 0.4858042895793915
-1.0963481664657593 1.6309728622436523 0.20187677443027496
-1.0827771425247192 1.643410325050354 -0.08205075562000275
-1.0692062377929688 1.6558479070663452 -0.36597830057144165
-1.0556352138519287 1.6682854890823364 -0.649905800819397
-1.0420643091201782 1.680722951889038 -0.9338333606719971
-1.0284932851791382 1.6931605339050293 -1.2177609205245972
-1.0149222612380981 1.705597996711731 -1.5016883611679077
-1.0013513565063477 1.7180355787277222 -1.7856159210205078
-0.9877803921699524 1.7304731607437134 -2.0695433616638184
-0.9742093682289124 1.742910623550415 -2.353471040725708
-0.9606384038925171 1.7553482055664062 -2.6373984813690186
-0.9470674395561218 1.7677857875823975 -2.921326160430908
-0.9521254897117615 1.8993395566940308 1.361010193824768
-0.9385545253753662 1.911777138710022 1.077082633972168
-0.924983561038971 1.9242146015167236 0.7931551337242126
-0.9114125370979309 1.9366521835327148 0.5092275738716125
-0.8978415727615356 1.949089765548706 0.22530007362365723
-0.8842706084251404 1.9615272283554077 -0.05862746015191078
-0.8706996440887451 1.973964810371399 -0.3425549864768982
-0.8571286797523499 1.9864023923873901 -0.6264825463294983
-0.8435577154159546 1.9988398551940918 -0.9104100465774536
-0.8299867510795593 2.011277437210083 -1.1943376064300537
-0.8164157271385193 2.023715019226074 -1.4782650470733643
-0.802844762802124 2.0361526012420654 -1.7621926069259644
-0.7892737984657288 2.0485899448394775 -2.0461201667785645
-0.7757028341293335 2.0610275268554688 -2.330047607421875
-0.7621318697929382 2.07346510887146 -2.6139752864837646
-0.748560905456543 2.085902690887451 -2.897902727127075
-0.6935739517211914 2.170844316482544 1.3852616548538208
-0.6800029873847961 2.183281898498535 1.1013340950012207
-0.6664320230484009 2.1957194805145264 0.8174065351486206
-0.6528610587120056 2.2081570625305176 0.5334790349006653
-0.6392900943756104 2.2205944061279297 0.24955148994922638
-0.6257190704345703 2.233031988143921 -0.03437603637576103
-0.612148106098175 2.245469570159912 -0.31830355525016785
-0.5985771417617798 2.2579071521759033 -0.6022310853004456
-0.5850061774253845 2.2703447341918945 -0.8861586451530457
-0.5714352130889893 2.2827820777893066 -1.170086145401001
-0.557864248752594 2.295219659805298 -1.454013705253601
-0.5442932844161987 2.307657241821289 -1.7379412651062012
-0.5307222604751587 2.3200948238372803 -2.0218687057495117
-0.5171512961387634 2.3325324058532715 -2.3057961463928223
-0.5035803318023682 2.3449699878692627 -2.589723825454712
-0.4900093674659729 2.357407331466675 -2.8736512660980225
-0.38556259870529175 2.3846216201782227 1.4093482494354248
-0.3719916343688965 2.397059202194214 1.1254208087921143
-0.35842064023017883 2.409496545791626 0.8414932489395142
-0.34484967589378357 2.421934127807617 0.5575656890869141
-0.3312787115573883 2.4343717098236084 0.27363818883895874
-0.31770771741867065 2.4468092918395996 -0.01028933934867382
-0.3041367530822754 2.459246873855591 -0.2942168712615967
-0.2905657887458801 2.471684217453003 -0.578144371509552
-0.27699482440948486 2.484121799468994 -0.8620719313621521
-0.2634238302707672 2.4965593814849854 -1.1459994316101074
-0.24985286593437195 2.5089969635009766 -1.4299269914627075
-0.2362818866968155 2.5214345455169678 -1.7138545513153076
-0.22271092236042023 2.533872127532959 -1.9977819919586182
-0.20913994312286377 2.546309471130371 -2.281709671020508
-0.1955689787864685 2.5587470531463623 -2.5656371116638184
-0.18199799954891205 2.5711846351623535 -2.849564552307129
-0.04070141538977623 2.531919240951538 1.4322841167449951
-0.02713044174015522 2.54435658454895 1.1483566761016846
-0.013559469021856785 2.5567941665649414 0.8644291162490845
1.1504231224535033e-05 2.5692317485809326 0.5805015563964844
0.01358247734606266 2.581669330596924 0.29657405614852905
0.02715345099568367 2.594106912612915 0.012646517716348171
0.04072442278265953 2.6065444946289062 -0.27128100395202637
0.05429539456963539 2.6189818382263184 -0.5552085638046265
0.06786637008190155 2.6314194202423096 -0.8391360640525818
0.08143734186887741 2.643857002258301 -1.123063564300537
0.09500831365585327 2.656294584274292 -1.4069911241531372
0.10857928544282913 2.668732166290283 -1.6909186840057373
0.12215026468038559 2.6811695098876953 -1.9748461246490479
0.13572123646736145 2.6936070919036865 -2.2587738037109375
0.1492922008037567 2.7060446739196777 -2.542701244354248
0.16286318004131317 2.718482255935669 -2.8266286849975586
0.3268909156322479 2.6067066192626953 1.4531301259994507
0.3404619097709656 2.6191442012786865 1.1692026853561401
0.35403287410736084 2.6315817832946777 0.88527512550354
0.3676038384437561 2.644019365310669 0.6013476252555847
0.38117480278015137 2.65645694732666 0.3174200654029846
0.394745796918869 2.6688945293426514 0.03349253907799721
0.4083167612552643 2.6813318729400635 -0.2504349946975708
0.42188772559165955 2.6937694549560547 -0.5343624949455261
0.4354587197303772 2.706207036972046 -0.8182900547981262
0.44902968406677246 2.718644618988037 -1.1022175550460815
0.4626006484031677 2.7310822010040283 -1.3861451148986816
0.476171612739563 2.7435195446014404 -1.6700726747512817
0.48974260687828064 2.7559571266174316 -1.9540001153945923
0.5033136010169983 2.768394708633423 -2.2379276752471924
0.5168845653533936 2.780832290649414 -2.521855115890503
0.5304555296897888 2.7932698726654053 -2.8057827949523926
0.7021651268005371 2.6059224605560303 1.471032977104187
0.7157361507415771 2.6183600425720215 1.187105417251587
0.7293071150779724 2.6307976245880127 0.9031778573989868
0.7428780794143677 2.643235206604004 0.6192503571510315
0.7564490437507629 2.655672550201416 0.3353228271007538
0.7700200080871582 2.6681101322174072 0.05139528587460518
0.7835909724235535 2.6805477142333984 -0.23253224790096283
0.7971619367599487 2.6929852962493896 -0.5164597630500793
0.8107329607009888 2.705422878265381 -0.8003873229026794
0.824303925037384 2.717860460281372 -1.0843148231506348
0.8378748893737793 2.730297803878784 -1.3682423830032349
0.8514458537101746 2.7427353858947754 -1.652169942855835
0.8650168180465698 2.7551729679107666 -1.9360973834991455
0.8785877823829651 2.767610549926758 -2.220025062561035
0.8921587467193604 2.780048131942749 -2.5039525032043457
0.9057297706604004 2.792485475540161 -2.7878799438476562
1.0697574615478516 2.5295984745025635 1.4852594137191772
1.0833284854888916 2.5420360565185547 1.2013319730758667
1.096899390220642 2.554473638534546 0.9174044132232666
1.1104704141616821 2.566911220550537 0.6334768533706665
1.1240414381027222 2.5793488025665283 0.3495493531227112
1.1376123428344727 2.5917861461639404 0.06562181562185287
1.1511833667755127 2.6042237281799316 -0.21830570697784424
1.1647542715072632 2.616661310195923 -0.5022332668304443
1.1783252954483032 2.629098892211914 -0.7861607670783997
1.1918962001800537 2.6415364742279053 -1.070088267326355
1.2054672241210938 2.6539738178253174 -1.354015827178955
1.2190382480621338 2.6664113998413086 -1.6379433870315552
1.2326091527938843 2.6788489818573 -1.9218708276748657
1.2461801767349243 2.691286563873291 -2.205798387527466
1.2597510814666748 2.7037241458892822 -2.4897258281707764
1.2733221054077148 2.7161617279052734 -2.773653507232666
1.4146186113357544 2.380859613418579 1.495227336883545
1.4281896352767944 2.3932971954345703 1.2112997770309448
1.4417606592178345 2.4057347774505615 0.9273722767829895
1.455331563949585 2.4181721210479736 0.6434447765350342
1.468902587890625 2.430609703063965 0.3595172166824341
1.4824734926223755 2.443047285079956 0.07558969408273697
1.4960445165634155 2.4554848670959473 -0.20833782851696014
1.509615421295166 2.4679224491119385 -0.49226537346839905
1.523186445236206 2.4803597927093506 -0.7761929035186768
1.536757469177246 2.492797374725342 -1.0601204633712769
1.5503283739089966 2.505234956741333 -1.3440479040145874
1.5638993978500366 2.517672538757324 -1.6279754638671875
1.577470302581787 2.5301101207733154 -1.9119030237197876
1.5910413265228271 2.5425477027893066 -2.1958305835723877
1.6046122312545776 2.5549850463867188 -2.4797580242156982
1.6181832551956177 2.56742262840271 -2.763685703277588
1.7226300239562988 2.165795087814331 1.5005284547805786
1.7362010478973389 2.1782326698303223 1.2166008949279785
1.7497719526290894 2.1906700134277344 0.9326733946800232
1.7633429765701294 2.2031075954437256 0.6487458944320679
1.7769138813018799 2.215545177459717 0.36481836438179016
1.79048490524292 2.227982759475708 0.08089083433151245
1.8040558099746704 2.240420341491699 -0.20303669571876526
1.8176268339157104 2.2528579235076904 -0.48696422576904297
1.8311978578567505 2.2652952671051025 -0.7708917260169983
1.844768762588501 2.2777328491210938 -1.0548192262649536
1.858339786529541 2.290170431137085 -1.3387467861175537
1.8719106912612915 2.302608013153076 -1.6226743459701538
1.8854817152023315 2.3150455951690674 -1.906601905822754
1.8990527391433716 2.3274829387664795 -2.1905293464660645
1.912623643875122 2.3399205207824707 -2.474457025527954
1.926194667816162 2.352358102798462 -2.7583844661712646
1.9811815023422241 1.8932095766067505 1.500945806503296
1.9947525262832642 1.9056471586227417 1.2170183658599854
2.0083234310150146 1.918084740638733 0.9330908060073853
2.0218944549560547 1.9305222034454346 0.6491632461547852
2.0354654788970947 1.9429597854614258 0.36523574590682983
2.0490365028381348 1.955397367477417 0.08130820840597153
2.0626072883605957 1.9678348302841187 -0.20261931419372559
2.0761783123016357 1.9802724123001099 -0.4865468442440033
2.089749336242676 1.992709994316101 -0.770474374294281
2.103320360183716 2.0051474571228027 -1.0544018745422363
2.116891384124756 2.017585039138794 -1.3383294343948364
2.130462169647217 2.030022621154785 -1.6222569942474365
2.144033193588257 2.0424602031707764 -1.906184434890747
2.157604217529297 2.0548975467681885 -2.1901121139526367
2.171175241470337 2.0673351287841797 -2.4740395545959473
2.184746265411377 2.079772710800171 -2.757966995239258
2.1796882152557373 1.574263095855713 1.496462345123291
2.1932590007781982 1.5867005586624146 1.2125349044799805
2.2068300247192383 1.5991381406784058 0.9286073446273804
2.2204010486602783 1.611575722694397 0.6446797847747803
2.2339720726013184 1.6240131855010986 0.36075225472450256
2.2475430965423584 1.6364507675170898 0.07682473212480545
2.2611138820648193 1.648888349533081 -0.20710279047489166
2.2746849060058594 1.6613258123397827 -0.49103033542633057
2.2882559299468994 1.673763394355774 -0.7749578356742859
2.3018269538879395 1.6862009763717651 -1.0588853359222412
2.3153977394104004 1.6986384391784668 -1.3428128957748413
2.3289687633514404 1.711076021194458 -1.6267404556274414
2.3425397872924805 1.7235134840011597 -1.9106680154800415
2.3561108112335205 1.7359510660171509 -2.1945955753326416
2.3696818351745605 1.748388648033142 -2.478523015975952
2.3832526206970215 1.7608261108398438 -2.7624504566192627
2.3100228309631348 1.222012996673584 1.4872616529464722
2.323593854904175 1.2344505786895752 1.203334093093872
2.337164878845215 1.2468881607055664 0.919406533241272
2.350735664367676 1.259325623512268 0.6354790329933167
2.364306688308716 1.2717632055282593 0.35155147314071655
2.377877712249756 1.2842007875442505 0.06762395054101944
2.391448736190796 1.2966382503509521 -0.21630357205867767
2.405019521713257 1.3090758323669434 -0.5002310872077942
2.418590545654297 1.3215134143829346 -0.7841586470603943
2.432161569595337 1.3339508771896362 -1.0680861473083496
2.445732593536377 1.3463884592056274 -1.3520137071609497
2.459303617477417 1.3588260412216187 -1.6359412670135498
2.472874402999878 1.3712635040283203 -1.9198687076568604
2.486445426940918 1.3837010860443115 -2.20379638671875
2.500016450881958 1.3961385488510132 -2.4877238273620605
2.513587474822998 1.4085761308670044 -2.771651268005371
2.366849660873413 0.8508807420730591 1.4737201929092407
2.380420684814453 0.8633182644844055 1.1897926330566406
2.393991708755493 0.875755786895752 0.9058651328086853
2.407562732696533 0.8881933689117432 0.62193763256073
2.4211337566375732 0.9006308913230896 0.3380100727081299
2.434704542160034 0.913068413734436 0.05408255383372307
2.448275566101074 0.9255059957504272 -0.22984497249126434
2.4618465900421143 0.9379435181617737 -0.5137724876403809
2.4754176139831543 0.9503810405731201 -0.797700047492981
2.4889886379241943 0.9628185629844666 -1.081627607345581
2.5025594234466553 0.9752561450004578 -1.3655550479888916
2.5161304473876953 0.9876936674118042 -1.6494826078414917
2.5297014713287354 1.0001312494277954 -1.9334101676940918
2.5432724952697754 1.012568712234497 -2.2173376083374023
2.5568432807922363 1.0250062942504883 -2.501265287399292
2.5704143047332764 1.0374438762664795 -2.7851927280426025
2.3478424549102783 0.47606033086776733 1.456392526626587
2.3614134788513184 0.48849785327911377 1.1724650859832764
2.3749845027923584 0.5009353756904602 0.8885375261306763
2.3885552883148193 0.5133729577064514 0.6046099662780762
2.4021263122558594 0.5258104801177979 0.32068243622779846
2.4156973361968994 0.5382480025291443 0.036754921078681946
2.4292683601379395 0.5506855845451355 -0.24717260897159576
2.4428391456604004 0.5631231069564819 -0.5311001539230347
2.4564101696014404 0.5755606293678284 -0.81502765417099
2.4699811935424805 0.5879981517791748 -1.0989551544189453
2.4835522174835205 0.600435733795166 -1.3828827142715454
2.4971232414245605 0.6128732562065125 -1.6668102741241455
2.5106940269470215 0.6253107786178589 -1.9507378339767456
2.5242650508880615 0.6377483606338501 -2.2346653938293457
2.5378360748291016 0.6501858830451965 -2.5185928344726562
2.5514070987701416 0.662623405456543 -2.802520275115967
2.2537789344787598 0.11289700865745544 1.4359880685806274
2.2673499584198 0.12533454596996307 1.1520605087280273
2.28092098236084 0.1377720832824707 0.868133008480072
2.29449200630188 0.15020962059497833 0.5842055082321167
2.308062791824341 0.16264715790748596 0.300277978181839
2.321633815765381 0.1750846952199936 0.016350451856851578
2.335204839706421 0.18752224743366241 -0.26757708191871643
2.348775863647461 0.19995978474617004 -0.5515046119689941
2.362346887588501 0.21239732205867767 -0.8354321122169495
2.375917673110962 0.2248348593711853 -1.1193596124649048
2.389488697052002 0.23727239668369293 -1.4032871723175049
2.403059720993042 0.24970993399620056 -1.687214732170105
2.416630744934082 0.2621474862098694 -1.971142292022705
2.430201768875122 0.2745850086212158 -2.2550697326660156
2.443772554397583 0.28702256083488464 -2.5389974117279053
2.457343578338623 0.2994600832462311 -2.822924852371216
2.088510513305664 -0.22374126315116882 1.4133421182632446
2.102081298828125 -0.2113037258386612 1.129414677619934
2.115652322769165 -0.19886618852615356 0.845487117767334
2.129223346710205 -0.18642865121364594 0.5615595579147339
2.142794370651245 -0.1739911139011383 0.2776320278644562
2.156365394592285 -0.16155357658863068 -0.006295491941273212
2.169936180114746 -0.14911602437496185 -0.29022303223609924
2.183507204055786 -0.13667848706245422 -0.574150562286377
2.197078227996826 -0.1242409497499466 -0.8580780625343323
2.210649251937866 -0.11180341243743896 -1.1420055627822876
2.2242202758789062 -0.09936587512493134 -1.4259331226348877
2.237791061401367 -0.0869283378124237 -1.7098606824874878
2.2513620853424072 -0.07449079304933548 -1.993788242340088
2.2649331092834473 -0.06205325573682785 -2.2777156829833984
2.2785041332244873 -0.04961571842432022 -2.561643362045288
2.2920749187469482 -0.03717817738652229 -2.8455708026885986
1.8588027954101562 -0.5200724601745605 1.3893818855285645
1.8723738193511963 -0.5076349377632141 1.1054543256759644
1.8859447240829468 -0.4951974153518677 0.821526825428009
1.8995157480239868 -0.48275986313819885 0.5375992655754089
1.9130867719650269 -0.4703223407268524 0.2536717355251312
1.9266576766967773 -0.4578847885131836 -0.030255785211920738
1.9402287006378174 -0.44544723629951477 -0.3141833245754242
1.9537996053695679 -0.43300971388816833 -0.5981108546257019
1.967370629310608 -0.4205721616744995 -0.8820383548736572
1.9809415340423584 -0.4081346392631531 -1.1659659147262573
1.9945125579833984 -0.39569708704948425 -1.4498934745788574
2.0080835819244385 -0.3832595646381378 -1.733820915222168
2.0216546058654785 -0.370822012424469 -2.0177485942840576
2.0352253913879395 -0.35838446021080017 -2.301676034927368
2.0487964153289795 -0.34594693779945374 -2.5856034755706787
2.0623674392700195 -0.3335093855857849 -2.8695311546325684
1.5740604400634766 -0.763964831829071 1.3650881052017212
1.5876314640045166 -0.7515272498130798 1.0811606645584106
1.601202368736267 -0.7390897274017334 0.7972331047058105
1.6147733926773071 -0.726652204990387 0.5133055448532104
1.6283444166183472 -0.7142146825790405 0.22937804460525513
1.6419153213500977 -0.7017771005630493 -0.05454948917031288
1.6554863452911377 -0.6893395781517029 -0.3384770154953003
1.6690572500228882 -0.6769020557403564 -0.6224045753479004
1.6826282739639282 -0.6644644737243652 -0.9063320755958557
1.6961991786956787 -0.6520269513130188 -1.190259575843811
1.7097702026367188 -0.6395894289016724 -1.4741871356964111
1.7233412265777588 -0.6271519064903259 -1.7581146955490112
1.7369121313095093 -0.6147143244743347 -2.0420422554016113
1.7504831552505493 -0.6022768020629883 -2.325969696044922
1.7640540599822998 -0.5898392796516418 -2.6098971366882324
1.7776250839233398 -0.5774016976356506 -2.893824815750122
1.2459406852722168 -0.9454332590103149 1.3414555788040161
1.2595117092132568 -0.9329957365989685 1.0575281381607056
1.2730826139450073 -0.9205582141876221 0.7736005783081055
1.2866536378860474 -0.9081206321716309 0.48967304825782776
1.3002246618270874 -0.8956831097602844 0.20574551820755005
1.313795566558838 -0.883245587348938 -0.07818201929330826
1.327366590499878 -0.8708080053329468 -0.36210954189300537
1.3409374952316284 -0.8583704829216003 -0.6460371017456055
1.3545085191726685 -0.8459329605102539 -0.9299646019935608
1.368079423904419 -0.8334954380989075 -1.2138921022415161
1.381650447845459 -0.8210578560829163 -1.4978196620941162
1.395221471786499 -0.8086203336715698 -1.7817472219467163
1.4087923765182495 -0.7961828112602234 -2.0656747817993164
1.4223634004592896 -0.783745288848877 -2.349602222442627
1.43593430519104 -0.7713077068328857 -2.6335296630859375
1.44950532913208 -0.7588701844215393 -2.917457342147827
0.8878768682479858 -1.0570485591888428 1.3194518089294434
0.9014478325843811 -1.0446109771728516 1.0355242490768433
0.9150187969207764 -1.0321733951568604 0.7515967488288879
0.9285897612571716 -1.0197359323501587 0.46766921877861023
0.9421607255935669 -1.0072983503341675 0.18374167382717133
0.9557316899299622 -0.994860827922821 -0.10018584877252579
0.9693027138710022 -0.9824233055114746 -0.3841133713722229
0.9828736782073975 -0.9699857234954834 -0.668040931224823
0.9964446425437927 -0.957548201084137 -0.9519684314727783
1.010015606880188 -0.9451106786727905 -1.2358959913253784
1.023586630821228 -0.9326730966567993 -1.5198235511779785
1.0371575355529785 -0.9202355742454529 -1.803750991821289
1.0507285594940186 -0.9077980518341064 -2.0876784324645996
1.064299464225769 -0.89536052942276 -2.3716061115264893
1.077870488166809 -0.8829229474067688 -2.6555335521698
1.0914413928985596 -0.8704854249954224 -2.9394612312316895
0.5145280361175537 -1.0942410230636597 1.2999775409698486
0.528099000453949 -1.0818034410476685 1.0160499811172485
0.5416699647903442 -1.0693659782409668 0.7321224212646484
0.5552409291267395 -1.0569283962249756 0.4481948912143707
0.5688119530677795 -1.0444908142089844 0.1642673760652542
0.5823829174041748 -1.0320533514022827 -0.1196601539850235
0.5959538817405701 -1.0196157693862915 -0.40358766913414
0.6095248460769653 -1.0071781873703003 -0.6875151991844177
0.6230958104133606 -0.9947407245635986 -0.9714427590370178
0.6366667747497559 -0.9823031425476074 -1.2553702592849731
0.6502377390861511 -0.969865620136261 -1.5392978191375732
0.6638087630271912 -0.9574280977249146 -1.8232253789901733
0.6773797273635864 -0.9449905157089233 -2.1071529388427734
0.6909506916999817 -0.9325529932975769 -2.391080379486084
0.704521656036377 -0.9201154708862305 -2.6750078201293945
0.7180926203727722 -0.907677948474884 -2.958935499191284
