ply
format ascii 1.0
element vertex 3000
property float x
property float y
property float z
end_header
-0.763457 0.650029 0.659242
0.193254 0.975892 0.192656
-0.905980 0.439998 -0.507261
-0.589321 0.813727 0.490340
0.955112 0.298556 -0.825876
-0.990445 0.080978 0.547373
-0.729111 0.679328 0.181206
-0.772428 0.620065 -0.780055
0.920978 0.398934 -0.838680
0.167476 0.995190 0.499790
0.395733 0.909363 -0.405890
-0.973537 0.230799 0.788691
-0.443132 0.898984 0.528516
-0.843392 0.523315 0.404087
0.174324 0.985549 -0.450484
0.752584 0.648032 0.410782
-0.164238 0.983000 0.894688
0.985761 0.195155 -0.816674
-0.851270 0.512934 -0.348666
-0.403752 0.915308 -0.538866
-0.725098 0.683836 -0.207742
0.440977 0.905237 0.495436
-0.991853 0.094391 -0.045110
-0.936389 0.338469 0.146889
-0.765426 0.640528 -0.370560
0.828676 0.571332 -0.721636
0.108845 1.003332 -0.465770
0.989372 0.134289 0.729889
0.888951 0.465065 0.203074
-0.535360 0.842757 -0.246297
-0.685385 0.712457 0.585348
-0.988861 0.105451 -0.865217
0.520414 0.856909 -0.496457
0.394739 0.924674 -0.541101
0.098378 0.999880 0.968220
0.836383 0.567209 0.412546
0.920021 0.396369 0.241090
0.078524 0.992775 -0.994050
0.756754 0.664548 -0.625932
-0.510178 0.853406 0.271591
0.195352 0.973439 -0.228930
-0.864317 0.504607 0.850155
-0.579868 0.816652 0.528964
0.554720 0.832185 -0.102358
-0.864071 0.507914 0.497344
-0.822051 0.565632 0.941832
0.349764 0.935670 -0.079241
0.623882 0.777555 0.283770
-0.534307 0.844003 0.829368
0.906175 0.417339 -0.503016
0.812058 0.581163 0.762780
0.998965 0.025697 -0.806649
-0.781556 0.625822 0.298114
-0.493482 0.868069 0.566161
-0.600544 0.802223 0.227157
-0.771282 0.638347 -0.009358
0.130971 0.990605 0.230774
-0.215753 0.971298 -0.696618
0.903886 0.428027 -0.568568
0.944502 0.355159 -0.464703
-0.491164 0.867755 0.196897
0.084657 0.997440 -0.114891
-0.209811 0.973230 -0.511879
-0.744414 0.676467 0.777724
-0.411224 0.911760 -0.252860
-0.163052 0.983453 -0.109333
-0.181978 0.981278 -0.182710
0.578561 0.812797 -0.640969
0.997962 0.101110 0.466684
0.194041 0.973212 -0.106515
0.780025 0.619256 -0.970326
0.283327 0.957350 0.925336
-0.903730 0.452508 0.626603
0.736063 0.675816 0.438363
0.977665 0.173937 0.735869
0.637889 0.780034 0.817981
0.605174 0.803771 -0.324036
-0.483966 0.867520 0.229720
-0.187413 0.971384 0.221370
-0.785679 0.627579 -0.462781
-0.490268 0.875310 -0.546682
0.275980 0.965021 -0.772671
-0.827991 0.547238 0.318944
0.856427 0.509593 0.561781
1.001672 0.060152 0.529625
0.955809 0.277295 -0.367437
-0.637873 0.763681 -0.592722
0.135521 0.998598 -0.089833
0.863009 0.491743 0.089546
0.000195 1.004766 0.840842
0.878645 0.453698 0.751716
-0.576260 0.820071 0.831170
0.167316 0.988273 0.703354
0.365789 0.922597 0.921723
0.579377 0.801465 -0.068185
-0.394060 0.922592 -0.907367
0.413378 0.906336 -0.818565
0.968535 0.265468 -0.218669
0.930018 0.361252 -0.487608
-0.999858 0.121237 -0.667010
-0.951065 0.282856 0.912935
-0.587377 0.801798 -0.610911
0.680527 0.750896 0.914802
-0.989208 0.101705 0.523359
-0.771997 0.638766 0.285140
-0.630291 0.775228 0.355208
0.159021 0.989170 -0.336953
0.663645 0.749101 0.293650
0.956687 0.299828 -0.625456
-0.952670 0.294578 0.877093
0.137487 0.990012 -0.394289
0.804378 0.587933 -0.484155
0.579067 0.814284 0.422608
-0.246296 0.977419 0.308813
0.847742 0.527535 -0.098124
-0.903070 0.436416 0.268661
-0.728546 0.677873 -0.689946
-0.643134 0.768603 0.337753
0.207970 0.979636 -0.454187
-0.381883 0.922050 -0.446727
-0.262172 0.954531 -0.681966
-0.450039 0.892261 -0.334743
0.952623 0.264022 -0.339496
0.264267 0.971642 -0.092946
0.990660 0.127087 -0.617633
0.016470 0.988611 -0.620449
0.510321 0.855536 0.077941
0.896205 0.433111 -0.743751
0.937079 0.322850 0.377067
-0.267266 0.948748 0.882264
0.861007 0.508402 -0.142461
-0.974028 0.240207 0.800123
-0.256748 0.967785 -0.805476
0.455381 0.890981 -0.912671
-0.280632 0.951278 0.442093
1.005502 0.063569 0.526231
-0.990521 0.137009 0.681449
0.048653 0.998961 -0.893352
-0.774836 0.631296 0.552265
0.966148 0.251397 -0.246621
0.046222 0.999626 -0.399529
0.032224 0.993844 -0.660891
-0.995914 0.200019 0.992943
-0.220712 0.988357 -0.876462
0.078172 0.998953 0.646753
0.661300 0.740619 0.283816
0.503850 0.850572 0.467002
-0.062844 0.989470 0.429183
0.182536 0.989415 0.717011
1.001219 0.062698 -0.630942
-0.850937 0.517179 -0.999408
-0.947025 0.323742 0.183781
0.900155 0.433899 -0.297967
-0.173842 0.984627 -0.753054
0.947517 0.332501 -0.625899
-0.522642 0.857497 -0.345450
0.639755 0.769840 -0.859801
-0.480989 0.874310 -0.891785
-0.654679 0.758381 0.833226
-0.755835 0.665420 -0.375892
0.942528 0.342710 0.968179
-0.962323 0.263000 0.934068
0.742984 0.667572 -0.712563
0.995594 0.111908 0.434151
-0.171027 0.987815 0.199858
0.391268 0.915287 0.395410
-0.856132 0.511587 -0.813712
-0.834992 0.570061 -0.625519
0.545128 0.839727 -0.842216
-0.980975 0.159468 0.212032
0.617826 0.799059 0.975619
-0.045337 1.004768 0.347346
0.692224 0.724054 0.411105
-0.983061 0.208393 0.977117
0.867727 0.487203 0.355004
0.992782 0.147475 -0.913407
0.198452 0.974328 0.723844
-0.995926 0.021129 -0.269361
-0.931987 0.336582 -0.994090
-0.704317 0.716358 0.017329
-0.948443 0.330626 0.875615
-0.951217 0.325968 -0.483508
-0.055328 0.998733 -0.022268
0.546282 0.836474 -0.652731
-0.749893 0.660826 -0.885516
-0.488989 0.890960 -0.836434
0.390729 0.924354 0.458968
0.955493 0.288762 0.728901
-0.703602 0.707720 -0.719783
0.676887 0.732612 -0.422825
-0.986347 0.192505 -0.596886
0.736825 0.689104 -0.938058
0.926070 0.378427 0.091991
-0.859294 0.503714 0.400161
0.883591 0.473084 0.300416
0.840298 0.530207 -0.224805
-0.308342 0.951057 0.107720
-0.917846 0.387150 -0.813136
0.812946 0.583147 -0.688632
0.556889 0.834040 0.857847
-0.764513 0.645827 0.528959
-0.993590 0.093649 0.845198
0.005886 0.996672 0.828685
0.901315 0.441417 0.304407
1.002262 0.048292 0.848752
0.754422 0.668065 -0.169368
0.909701 0.394053 -0.995626
-0.534419 0.843710 -0.864138
0.922222 0.377587 -0.784450
-0.026545 0.986545 -0.820068
-0.569131 0.821940 -0.299504
-0.250636 0.973004 0.404819
0.809829 0.584333 0.585218
-0.829529 0.575102 0.191809
-0.615963 0.774259 -0.700093
-0.686688 0.728542 0.496743
0.926689 0.397733 -0.294853
0.918124 0.375649 -0.965893
-0.978280 0.221921 -0.440666
0.305230 0.947323 -0.342090
0.587182 0.809350 -0.453594
0.030350 1.008728 0.617479
-0.494984 0.869965 0.517528
-0.997160 0.140683 0.389939
0.625577 0.780379 -0.718337
-0.968672 0.231083 0.613727
1.006012 0.069497 0.348015
-0.175971 0.977145 -0.618343
-0.407484 0.906689 0.297236
0.938722 0.327502 -0.032614
0.902697 0.432125 -0.124071
0.248790 0.958954 -0.778091
-0.992056 0.103141 0.038551
-0.292084 0.947990 -0.793184
-0.972989 0.207543 -0.675394
-0.821208 0.582026 -0.734463
0.107287 0.992520 0.913008
-0.780186 0.625585 -0.434151
0.996807 0.063283 -0.289670
0.938246 0.338496 -0.356029
-0.862627 0.506785 0.789944
-0.794388 0.596640 0.126774
0.746136 0.663374 0.838477
-0.095642 0.997434 -0.397375
-0.328246 0.947624 -0.776265
-0.902681 0.396821 0.112487
-0.311761 0.948871 -0.302017
0.267619 0.961928 0.614201
0.383682 0.925619 0.765247
0.229679 0.977170 -0.060738
-0.458658 0.890623 0.944973
-0.918101 0.402855 0.103610
0.146525 0.994196 -0.456740
0.719150 0.697926 -0.025910
0.729538 0.670263 -0.933947
-0.703838 0.699929 0.606280
-0.840919 0.544546 -0.793517
0.943618 0.320636 -0.381063
0.988210 0.209569 0.132648
-0.287331 0.946459 -0.912968
0.901122 0.440010 -0.839344
-0.853410 0.525749 0.394880
0.559782 0.822522 -0.857819
0.892323 0.438800 -0.045420
-0.965428 0.242951 -0.313892
0.870258 0.496745 -0.543131
0.632359 0.782856 -0.622229
0.884741 0.468840 0.527337
0.934190 0.355377 0.901995
0.998644 0.062320 -0.721817
0.989354 0.170862 0.920406
0.845877 0.524723 0.186996
0.989651 0.161813 0.282593
-0.282542 0.958395 0.415900
-0.543014 0.841194 0.408778
0.317562 0.944166 0.642543
0.540462 0.835883 -0.034122
-0.006981 0.990639 0.056675
-0.915512 0.385273 -0.349394
-0.890838 0.455641 -0.788884
1.000497 0.127196 0.324314
0.841582 0.541640 -0.928914
0.740697 0.682473 -0.455722
0.706210 0.708725 -0.806313
-0.224494 0.972981 -0.618833
0.256658 0.960879 0.266118
0.977750 0.154525 0.257845
0.393138 0.923444 -0.159921
-0.077761 0.997696 -0.822440
0.945413 0.313107 -0.136941
-0.872122 0.494246 -0.295146
0.985684 0.164632 0.438492
-0.963436 0.236283 0.148770
0.962383 0.307370 -0.010508
-0.889966 0.472437 -0.027258
-0.955371 0.309475 0.928934
-1.003113 0.061015 0.506946
-0.807800 0.589032 -0.002187
-0.768033 0.635018 -0.048047
-0.436008 0.907023 -0.946372
-0.768137 0.646017 0.882100
0.909594 0.408767 -0.364279
-0.104998 1.001892 -0.493640
-0.041933 1.001347 0.995716
-0.898204 0.428282 0.437423
0.103269 0.991308 -0.904096
0.352878 0.941207 -0.880157
-0.414121 0.910026 -0.949452
0.676236 0.737427 0.203680
0.895901 0.424425 -0.865184
0.067878 0.998603 0.866745
0.252136 0.963569 0.869059
0.753303 0.679135 0.086845
0.405531 0.915790 0.234583
0.403685 0.912886 -0.418937
0.515969 0.862665 -0.878139
0.356653 0.927329 0.481542
-0.556398 0.839560 -0.791828
0.595878 0.794872 -0.838546
-0.982892 0.157709 -0.384926
-0.975373 0.265031 -0.972101
0.058030 1.006053 -0.133353
0.518515 0.854243 0.422865
-0.118349 0.989361 0.605780
-0.887798 0.460853 0.210112
-0.460888 0.884172 0.688639
-0.808478 0.575225 -0.184538
-0.103770 0.999103 0.691165
-0.406401 0.911355 0.019473
0.621750 0.776763 -0.551817
-0.679396 0.733352 0.884167
0.803449 0.593930 -0.446035
-0.576765 0.809197 -0.936389
-0.906481 0.422248 -0.515740
0.919353 0.396242 -0.263873
-0.348881 0.944331 -0.299460
0.951961 0.305154 0.049762
-0.650472 0.753653 0.758718
0.972429 0.263621 -0.415326
-0.983974 0.195093 0.041759
0.908990 0.416850 -0.310727
-0.992633 0.137840 0.634571
-0.810962 0.583202 -0.686201
-0.298234 0.955572 -0.786539
-0.768688 0.626338 0.004782
-0.803773 0.605863 0.342918
-0.980529 0.152433 0.586884
0.696444 0.712369 0.174587
-0.282348 0.959998 0.538570
0.961813 0.290883 -0.217726
-0.351929 0.938461 -0.939211
0.859713 0.518539 -0.767211
-0.198830 0.972194 -0.926493
-0.227031 0.984690 -0.344511
0.106616 0.987180 -0.011278
-0.074348 1.003917 -0.287606
-0.732830 0.676259 0.118556
-0.811087 0.587185 -0.044091
0.032075 0.997649 0.356314
-0.309381 0.951283 0.339262
-0.976654 0.215393 -0.363229
0.933878 0.362745 -0.310620
0.933207 0.358479 0.169680
0.960787 0.268219 0.182612
-0.476011 0.873446 -0.371297
0.257391 0.963400 -0.341366
-0.762334 0.645318 0.383423
-0.512999 0.856666 0.291061
0.499223 0.868666 -0.731950
-0.945135 0.314497 -0.112954
-0.734890 0.688598 0.790872
0.669092 0.740169 -0.932029
0.413044 0.912703 0.707738
0.549304 0.834872 -0.676107
0.879042 0.479243 0.018545
0.887563 0.451357 -0.150600
-0.985119 0.198493 -0.979277
0.191192 0.981895 0.833475
0.364087 0.929845 -0.093132
-0.660737 0.753832 0.915356
-0.168138 0.976779 -0.426521
-0.973810 0.203163 0.728272
-0.763361 0.636578 0.843631
0.071044 0.995465 0.119824
0.374469 0.924343 -0.596770
-1.001594 0.041190 0.375243
-0.622918 0.781466 0.094829
-0.987063 0.168894 0.885231
0.930187 0.369776 -0.118158
-0.888175 0.449669 -0.467343
-0.412407 0.911852 -0.719313
0.924680 0.377098 0.399025
-0.272634 0.957180 0.943851
-0.547266 0.827607 -0.943670
0.993452 0.038324 0.478147
0.143084 0.993758 0.855606
-0.858867 0.513369 -0.840998
0.594600 0.796757 -0.781513
0.127042 0.994396 0.386583
0.182621 0.983832 0.296049
0.581266 0.819643 -0.862225
-0.970596 0.246371 0.668019
-0.772840 0.646047 0.042561
0.934518 0.332787 0.816070
-0.997813 -0.000830 0.754538
-0.923191 0.370166 0.620492
0.627519 0.772609 0.036869
-0.872581 0.490081 -0.496084
0.946499 0.327765 0.010811
-1.010138 0.001834 -0.791677
-0.494642 0.863352 0.308512
-0.438831 0.892991 -0.725681
0.959293 0.278734 0.017945
-0.948731 0.323385 -0.890178
0.999571 0.090077 -0.403915
0.735412 0.681618 -0.540454
0.905619 0.425911 0.246633
-0.774779 0.644354 0.582855
0.815137 0.576866 -0.886500
-0.947991 0.270315 0.702245
-0.468337 0.884530 0.721820
0.987781 0.104476 -0.306809
1.001264 0.024118 0.307442
0.980457 0.162375 -0.192888
-0.320502 0.944921 -0.695254
-0.816524 0.578839 0.045545
0.732445 0.685048 -0.829083
-0.894451 0.455630 0.766185
0.981147 0.175402 0.845299
-0.803362 0.586332 0.647180
-0.973865 0.216483 0.131050
-0.757271 0.648152 0.115134
-0.588725 0.806872 0.969817
-0.882591 0.489052 -0.512778
0.985799 0.125788 -0.851684
0.806273 0.597550 0.128417
0.928872 0.377862 -0.342125
-0.017036 1.002772 -0.353486
-0.688484 0.717146 -0.985164
-0.400770 0.913025 0.203439
-0.893804 0.452748 -0.474085
0.878054 0.468191 -0.616256
-0.667178 0.737286 -0.918469
0.832160 0.570170 -0.262806
0.650713 0.751038 0.751813
-0.614401 0.789570 -0.325735
-0.991743 0.060085 0.356180
-0.350531 0.932702 0.513791
0.988211 0.170756 -0.337687
-0.351211 0.929969 0.645176
0.991553 0.127554 0.389861
-0.931741 0.354781 0.115133
-0.603055 0.794636 -1.002129
0.865441 0.518403 -0.929738
0.958461 0.281523 0.981538
0.835666 0.542309 0.563639
-1.002632 0.065884 0.870337
0.134703 0.979554 0.810600
-0.785481 0.631480 -0.960928
-0.416806 0.900204 0.590825
-0.225022 0.967158 -0.097645
0.895332 0.437735 0.582359
-0.984258 0.179608 -0.983780
0.597190 0.819876 -0.427723
-0.243260 0.973646 0.504484
-0.589393 0.811213 0.595683
-0.446766 0.882786 0.240687
-0.981438 0.186330 -0.392981
0.900419 0.446869 -0.375808
-0.025414 0.995572 0.935063
0.295696 0.955671 -0.120643
0.072144 0.994353 -0.103012
0.922580 0.370184 0.108482
0.903392 0.399241 -0.187756
0.643967 0.767020 0.106580
0.568953 0.813220 -0.136250
0.230845 0.972410 0.651472
-0.341504 0.941348 0.824582
-0.411673 0.906296 0.860555
0.269304 0.962686 0.121619
0.285772 0.958158 -0.111724
0.771218 0.628363 0.403378
-0.278804 0.959412 0.667007
0.549594 0.838538 0.130506
0.995363 0.109204 0.400756
0.252381 0.967356 0.501822
0.084382 0.995309 0.350575
0.759240 0.647807 0.485345
-0.223757 0.982152 -0.588638
-0.209246 0.980804 -0.004612
-0.582510 0.803390 0.170175
-0.451137 0.894643 -0.993509
-0.453008 0.882376 0.709613
0.544886 0.835712 0.220974
-0.781150 0.617661 -0.740952
-0.150108 0.981871 0.634648
0.219527 0.978816 0.436611
-0.389823 0.920130 0.514880
0.429288 0.903927 -0.214995
-0.030779 0.996356 0.709585
-0.678260 0.750810 -0.184089
-0.936819 0.346036 0.144251
-0.972021 0.235128 -0.997966
-0.013145 0.991935 0.292566
-0.055096 1.001769 0.429917
-0.813799 0.594797 0.132640
0.545754 0.831450 -0.012340
-0.864261 0.495338 0.623596
0.021526 1.003539 0.355720
0.945091 0.355044 -0.448495
0.972233 0.223150 0.920818
-0.878675 0.477161 0.411388
0.981498 0.178074 0.971236
0.636659 0.773723 0.947056
0.488960 0.863890 0.842558
0.859340 0.516245 0.514353
0.553543 0.843800 0.223102
-0.690977 0.724408 -0.656817
0.996984 0.050458 0.085680
-0.860662 0.519364 0.527513
-0.896518 0.436933 0.042553
0.384762 0.921097 0.733839
0.888356 0.468561 -0.782854
-0.301155 0.953831 -0.235120
0.937582 0.368487 0.017852
0.404220 0.907830 -0.133358
-0.994168 0.132155 -0.773855
-0.997791 0.013913 -0.696471
-0.754819 0.654796 0.666045
0.552585 0.842169 -0.027658
-0.554075 0.823486 -0.906414
-0.601491 0.803710 -0.968386
0.354681 0.934249 -0.061898
-0.429570 0.904291 -0.675739
1.005272 0.046538 0.402741
0.785631 0.605753 0.588475
-0.083876 0.993276 -0.545379
0.874177 0.491960 0.184804
0.872635 0.493695 -0.684912
-0.875441 0.496316 -0.389450
-0.999297 0.031460 0.769480
-0.181836 0.987851 0.091236
-0.875801 0.477667 0.772336
-0.995353 0.021367 -0.549994
0.900506 0.429165 -0.340065
0.160631 0.978969 -0.057073
0.325473 0.951179 -0.043299
0.965303 0.241191 0.994384
-0.710057 0.689979 -0.765190
0.206907 0.980506 0.700411
0.091202 0.992429 0.722215
0.888471 0.448281 0.106089
0.834777 0.548482 -0.317578
-0.962786 0.282709 0.029838
0.996980 0.138828 -0.416787
0.743443 0.666961 0.605458
0.617236 0.797655 -0.003635
0.030314 1.001838 0.852577
-0.268429 0.959215 0.234732
0.024283 0.998149 0.030829
0.951924 0.260057 0.422606
0.722058 0.696645 0.004541
-0.881927 0.466003 0.809913
-0.411483 0.918117 -0.630257
-0.446784 0.888421 0.941400
-0.515259 0.860373 0.626040
-0.728971 0.672071 0.727452
0.982072 0.175050 -0.035324
0.402382 0.909099 0.670065
-0.122875 0.987447 -0.387340
0.484983 0.871889 0.528169
-0.875306 0.464481 -0.725231
0.056426 1.001979 -0.383003
-0.746225 0.660625 -0.111925
-0.889360 0.443871 -0.354150
-0.009588 0.997922 -0.228787
-0.955982 0.285306 0.637374
-0.263206 0.963850 -0.479033
-0.888354 0.452724 0.483517
0.480965 0.870034 -0.850149
0.009912 0.994280 0.540135
-0.098975 0.988743 0.587474
0.946272 0.330391 -0.203258
0.321947 0.952294 0.438548
-0.958360 0.252474 0.826519
-0.399587 0.913891 0.602215
0.846232 0.525070 -0.217977
0.492217 0.870140 -0.037931
0.828242 0.568543 0.554351
0.998539 0.076467 -0.418868
-0.975755 0.236328 0.606862
0.163653 0.993043 -0.333934
0.568363 0.829251 0.607315
-0.307785 0.955881 -0.831284
1.000381 0.020864 -0.916871
0.643527 0.769527 0.998529
-0.597345 0.801635 0.738708
-0.403470 0.921138 0.761214
-0.991923 0.059149 0.900746
-0.364320 0.930674 -0.127325
0.069227 0.998139 -0.424849
-0.728263 0.689961 -0.726528
-0.953845 0.291888 0.005173
-0.645286 0.778309 -0.560368
-0.989965 0.114387 0.867777
-0.773783 0.625527 -0.998711
-0.900750 0.402589 -0.709938
0.943722 0.342586 -0.503651
-0.663425 0.748344 -0.604417
0.188353 0.977148 -0.542376
-0.165239 0.986959 0.312201
-0.470454 0.890753 -0.341102
-1.004202 0.091326 0.231530
-1.003189 0.047090 0.779630
0.617057 0.780214 0.200339
-0.680639 0.740319 0.388338
-0.709792 0.720013 -0.264783
0.462542 0.889840 -0.683064
0.924155 0.378077 -0.356633
0.988429 0.125226 0.923152
-0.766874 0.643620 0.247523
0.040973 1.000127 -0.443413
-0.995658 0.043316 -0.104180
0.107016 0.996602 0.669906
-0.997936 0.064553 0.341544
0.274092 0.956871 0.115011
-0.801032 0.605577 0.764971
0.960861 0.257482 0.344532
-0.168305 0.988504 0.296126
-0.814903 0.582466 -0.623827
-0.977624 0.225217 -0.784746
-0.848864 0.529505 0.931585
0.993853 0.107460 0.194769
0.379479 0.924560 -0.167828
0.988116 0.151151 0.175802
0.945982 0.345871 -0.878165
-0.521061 0.857495 0.635948
-0.609814 0.778537 -0.566831
-0.751534 0.642395 0.613587
-0.904748 0.406431 0.069044
-0.669244 0.724084 -0.441403
-0.806833 0.594697 -0.936678
0.989008 0.153167 0.631369
0.745482 0.676599 -0.650219
-0.376458 0.926140 -0.898821
-0.901765 0.430203 0.504403
0.996661 0.013974 -0.301249
-0.043953 1.004477 -0.220602
-0.531872 0.850422 -0.497288
0.992243 0.087593 0.720999
0.307031 0.960476 -0.409665
-0.947418 0.320566 -0.586812
-0.523034 0.855874 -0.382533
0.726707 0.665018 -0.589642
-0.900675 0.449360 -0.365793
0.455077 0.888687 -0.831418
-0.893655 0.445103 -0.683846
0.591561 0.805048 -0.162309
-0.274631 0.957136 0.750947
0.321909 0.946194 -0.877398
0.655225 0.762365 -0.580213
-0.934120 0.352089 0.820660
0.832354 0.554660 0.778668
0.970210 0.268047 0.358323
0.481037 0.878812 -0.520258
-0.629811 0.772699 -0.159101
-0.816163 0.569731 -0.575270
-1.011721 -0.002849 -0.737531
0.595541 0.803410 -0.232963
0.283665 0.950759 0.153302
0.914797 0.411584 -0.271566
-0.225197 0.962370 0.222114
-1.007222 0.006727 -0.402103
-0.582966 0.815435 -0.306155
-0.300537 0.955011 0.578601
0.326020 0.946594 0.757536
-0.965976 0.274729 -0.353416
0.008096 1.001973 0.142871
0.904428 0.405875 -0.441611
0.413680 0.908754 -0.889004
0.981217 0.209451 0.475598
0.810617 0.589639 -0.672712
0.996293 0.052689 -0.140184
0.146051 0.994174 -0.027397
-0.410350 0.917127 -0.635173
0.481104 0.873008 -0.816510
0.233357 0.964790 -0.305656
-0.996585 0.125477 0.901758
-0.711427 0.705728 0.226586
-0.133431 0.997489 -0.240590
0.625076 0.793038 -0.919530
-0.948729 0.315648 0.210698
0.736137 0.671160 -0.811382
0.521903 0.856145 0.090701
-0.956329 0.278400 0.502014
-0.093857 0.994992 -0.152306
-0.692103 0.721889 -0.399045
-0.282066 0.946530 -0.908529
-0.463628 0.886666 -0.952573
0.580650 0.806965 -0.135674
0.728319 0.694039 0.772142
0.526944 0.848525 -0.511537
0.889423 0.462882 0.142135
-0.920098 0.383382 0.367134
0.635382 0.766520 -0.885547
-0.197030 0.975345 -0.693423
-0.795798 0.611172 -0.336169
-0.784328 0.626885 0.338833
0.188833 0.985937 -0.120721
0.080781 0.987385 0.470475
-0.992424 0.015432 0.736480
-0.527161 0.850923 0.510737
-0.837475 0.554751 0.983228
-0.953886 0.304740 0.510771
-0.782564 0.622084 0.712252
0.826699 0.557201 0.663373
-0.202091 0.979146 0.463286
0.951649 0.321346 0.607994
-0.471896 0.881580 0.868383
-0.992412 0.134410 -0.043843
-0.039178 1.002964 0.282585
0.211099 0.970388 0.036781
0.992958 0.115229 0.704366
-0.993854 0.126543 -0.125480
0.952322 0.323334 0.636377
0.993110 0.128399 0.609330
0.712555 0.698595 0.927614
0.979072 0.206965 -0.495457
0.142451 0.986763 0.417639
-0.041929 0.995192 0.518061
0.559319 0.833964 0.879692
0.993285 0.159268 0.808368
0.936113 0.341428 0.146235
0.352310 0.934479 0.147600
0.980798 0.196985 -0.666309
-0.583893 0.810132 0.945845
0.790817 0.603124 -0.491054
0.588837 0.804288 0.464091
0.330931 0.944980 0.600179
0.257464 0.969164 -0.124766
1.003195 0.009398 -0.574834
0.939772 0.345392 -0.618085
-0.904892 0.422684 0.711303
0.993271 0.007530 0.022405
-0.026384 1.005236 -0.818346
0.032684 1.004378 0.427306
0.503769 0.873499 -0.504815
0.210931 0.975969 0.753651
-0.784175 0.629381 -0.380359
-0.883531 0.481755 -0.603001
0.683443 0.733621 -0.834255
0.529524 0.856344 0.022613
0.732026 0.696619 -0.094094
0.066133 1.007727 0.502242
-0.544034 0.841898 -0.062681
0.753568 0.658329 -0.315847
0.512571 0.854991 -0.475725
-0.979130 0.218504 -0.445478
0.987680 0.149231 0.858636
0.117488 0.993472 -0.673751
-0.609673 0.787418 0.985990
0.892321 0.457620 -0.354614
0.985408 0.147794 -0.814642
0.906641 0.425346 -0.502169
-0.965109 0.238653 -0.880409
0.998323 0.030036 0.586732
0.827360 0.563728 0.029394
0.991903 0.107472 -0.329677
0.941904 0.344258 0.327100
-0.370351 0.938028 0.270630
0.723166 0.689136 0.875308
-0.222407 0.976468 0.933113
-0.279192 0.962769 0.363296
-0.891106 0.455554 0.633466
0.998281 0.010983 0.580384
-0.894768 0.441957 -0.018509
-0.361810 0.925231 0.399140
0.875630 0.491930 -0.845558
-0.753418 0.654419 0.514728
-0.899909 0.436750 0.918294
0.694738 0.713681 -0.826311
-0.972853 0.254884 0.671138
0.139623 0.993684 0.862781
-0.319132 0.942024 -0.549249
-1.002769 0.041768 0.051398
0.421888 0.911644 0.856083
-0.837446 0.546971 0.916947
0.531761 0.844360 -0.743607
-0.803465 0.597867 -0.302245
-0.313581 0.958438 0.390592
0.773575 0.632250 -0.558326
0.261354 0.967290 -0.347562
0.544199 0.851584 -0.950557
0.976918 0.231258 -0.694106
0.993595 0.091270 0.128043
0.462742 0.890172 0.301280
1.003571 0.058075 0.293079
0.858819 0.502988 0.555465
-0.640052 0.759835 -0.161949
-0.595937 0.794475 -0.452202
-0.694821 0.730641 -0.970215
0.542869 0.836889 -0.579020
-0.944496 0.335945 -0.376659
-0.291851 0.958223 -0.632413
0.920549 0.381788 -0.962267
0.903850 0.441087 -0.690163
-0.570662 0.824842 0.331367
0.851443 0.522477 0.257925
-0.023770 0.994093 0.867329
-0.997092 0.017341 0.609346
0.994002 0.012569 0.137105
0.990413 0.066557 -0.722566
-0.989800 0.028055 0.125834
-0.265991 0.962084 -0.879698
0.920880 0.390343 -0.133102
-0.950392 0.320704 -0.227862
-0.927475 0.360171 -0.150087
-0.104618 1.000388 -0.441585
-0.370454 0.926852 0.378416
0.646176 0.756242 0.680016
0.980511 0.158166 0.539115
-0.294737 0.961914 0.255643
0.599694 0.795447 0.083171
-0.500301 0.862235 -0.945755
-0.866466 0.493672 0.449548
0.992941 0.046804 0.088971
-0.288716 0.953626 -0.453893
0.756548 0.670259 -0.348412
-0.923779 0.388803 0.871336
0.701114 0.720412 0.248212
-0.347173 0.943160 -0.053187
-0.164293 0.997939 0.235441
0.317957 0.944325 -0.175417
-0.534937 0.850300 -0.058986
-0.652731 0.756643 -0.423166
-0.211074 0.982754 -0.121944
-0.727192 0.687844 0.361755
-0.993895 0.060667 -0.921969
0.246977 0.965358 0.595173
-0.037123 1.005986 -0.430515
0.992607 0.042131 0.364685
-0.793543 0.597671 0.286669
-0.068594 1.000693 0.301115
0.285130 0.959794 0.224380
0.954195 0.293032 0.928542
-0.942233 0.338719 0.017512
0.327903 0.942585 0.477592
-0.535158 0.838279 0.407498
0.897850 0.443822 -0.533720
-0.994737 0.124712 -0.436936
0.847862 0.525511 -0.153063
0.805952 0.585532 -0.433044
-0.908420 0.431909 -0.267920
-0.968257 0.275387 -0.222377
0.783814 0.609350 0.203237
0.095979 0.995044 -0.554520
-0.679067 0.745104 0.613570
-0.928106 0.373153 -0.127355
0.378470 0.935397 0.403109
-0.047833 0.994462 -0.842758
-0.691394 0.715022 -0.051463
-0.670969 0.751798 -0.940117
-0.774108 0.627546 0.352147
-0.229527 0.967169 -0.303236
0.952027 0.321981 0.908297
-0.955908 0.303274 -0.351931
-0.902986 0.403558 0.127524
-0.814124 0.604290 -0.488135
0.955781 0.304417 0.238802
0.800317 0.599340 -0.073347
-0.694404 0.715084 -0.266195
0.990510 0.072841 -0.601235
-0.994892 0.064553 -0.771536
0.379831 0.918989 -0.768049
-0.626833 0.786017 1.007830
-0.933228 0.343431 -0.179030
0.322048 0.943236 -0.987454
0.533107 0.847710 0.904032
-0.341857 0.951284 -0.967871
-0.244333 0.973438 -0.156409
0.277694 0.953530 0.441965
-0.306914 0.950388 0.824668
-0.976840 0.192207 0.424114
0.103136 0.999345 -0.077277
0.813456 0.571299 0.948281
0.379575 0.922493 -0.920822
0.326493 0.945157 0.972027
0.914520 0.402567 0.689689
0.875405 0.488335 0.854956
-0.548592 0.844157 -0.486938
0.479199 0.879131 -0.716128
-0.986979 0.144441 0.324993
0.720867 0.686593 0.027065
0.954540 0.314299 0.043286
-0.717118 0.695264 0.856283
-0.937015 0.373784 0.234463
0.650655 0.776833 -0.374268
0.812877 0.595643 -0.199632
0.838902 0.556193 -0.731784
-0.071038 0.982195 -0.619034
0.097558 0.994107 -0.715059
0.692740 0.733274 0.620554
0.988178 0.146062 0.407144
0.054951 0.992211 0.062347
-0.982488 0.125945 -0.248977
-0.461266 0.874704 0.347852
0.022958 1.001965 0.627202
0.933150 0.331366 0.752905
0.704265 0.718150 0.099848
0.611343 0.805172 0.638751
-0.739067 0.671097 0.032672
-0.927243 0.380319 -0.043585
-0.958477 0.303022 0.728337
-0.993413 0.049670 -0.223643
-1.002317 0.049632 -0.211144
-0.989592 0.150234 -0.390164
0.968480 0.215520 0.040783
0.915541 0.410347 0.095265
0.582150 0.816575 0.325398
-0.165579 0.985167 -0.138620
0.948177 0.301335 -0.551908
-0.877255 0.462468 0.731859
-0.360460 0.942908 -0.316034
-0.138225 0.991959 0.838813
0.859336 0.497472 -0.577923
0.696608 0.715288 0.119732
0.868561 0.487627 0.074025
-0.896861 0.451451 0.654583
-0.257810 0.967405 -0.724561
-0.675190 0.743037 0.815939
0.599601 0.792506 0.065212
0.389917 0.910376 0.171732
0.294802 0.955279 0.022508
-0.719396 0.683524 -0.926253
-0.756721 0.658648 -0.007948
0.798173 0.605067 -0.480194
-0.991009 0.185540 -0.322353
0.936617 0.363810 0.313336
-0.949607 0.320527 0.002785
0.955924 0.303494 -0.806863
0.673465 0.740592 -0.857291
-0.882872 0.454428 -0.628637
0.848537 0.536220 -0.622307
0.265948 0.956016 0.210041
0.162331 0.985701 -0.647315
0.713765 0.700971 0.770070
-0.609626 0.790820 -0.576275
-0.894853 0.442022 -0.822587
-0.921620 0.380554 0.749918
0.481309 0.867772 -0.405599
-0.096518 0.986833 -0.152010
0.705265 0.704146 0.918451
0.719809 0.698255 0.890748
0.874623 0.487405 0.431788
-0.984999 0.190336 -0.860851
-0.938997 0.344616 0.183412
-0.764527 0.642429 0.975401
-0.058539 0.993096 0.888164
0.028858 0.997364 -0.795802
-0.098341 0.989030 -0.208639
-0.102901 0.989183 -0.364845
0.209427 0.979388 -0.747445
0.916917 0.401612 0.390961
0.928940 0.399933 -0.448380
-0.998666 0.142721 -0.319452
0.043634 0.997782 -0.820635
-0.991210 0.139362 0.004166
0.863945 0.489631 -0.680905
-0.171306 0.983687 -0.145171
0.795558 0.611449 -0.710024
0.704599 0.711897 0.903961
0.989855 0.093322 -0.706578
0.932980 0.362914 0.040324
-0.966002 0.251262 -0.606306
0.533492 0.843638 -0.849964
-0.335801 0.940946 -0.595367
0.116606 0.994335 -0.893288
0.307151 0.954288 -0.722323
-0.091135 0.993814 -0.018910
0.827973 0.553627 0.306084
-0.995645 0.027190 -0.824444
-0.841766 0.543006 -0.126045
-0.689875 0.722007 0.167459
0.101150 0.998923 -0.532430
0.885371 0.468608 -0.255034
-0.982411 0.245724 -0.852507
0.462616 0.873281 -0.558097
0.993998 0.156682 -0.060668
0.481274 0.881663 0.979418
-0.789223 0.600206 0.997702
-0.376111 0.923790 0.959858
-0.715430 0.708059 -0.151289
-0.799201 0.606331 -0.836621
0.786434 0.616016 -0.346649
-0.976506 0.228890 -0.520964
0.201824 0.983366 -0.973962
-0.411776 0.902305 -0.812739
1.002365 0.008325 -0.093865
-0.999837 0.021588 -0.324476
0.628777 0.762860 -0.644554
0.988784 0.194149 0.421560
0.131130 0.993988 -0.293515
0.917515 0.397535 0.713663
0.890070 0.461078 -0.521328
-0.406648 0.904997 0.086304
0.330805 0.950342 -0.629706
-0.977226 0.245104 -0.009648
0.543498 0.836888 -0.702570
-0.652785 0.754054 -0.676819
0.127700 0.993698 0.233908
-0.482625 0.879779 -0.464640
-0.308788 0.948912 -0.653894
0.079336 1.000475 0.853793
-0.983920 0.147281 -0.918779
0.469886 0.875170 0.126033
0.846518 0.518152 0.102918
-0.530756 0.843034 -0.490624
-0.884636 0.472670 -0.093477
0.983484 0.136413 -0.826040
0.156420 0.988680 0.450284
-0.939523 0.328182 -0.561499
-0.708151 0.706845 -0.612970
-1.000793 0.028101 -0.367928
-0.097717 0.987319 0.800426
-0.482372 0.873451 0.589754
0.576311 0.820747 0.890216
-0.986629 0.158848 0.311008
0.412657 0.909377 0.335415
-0.686385 0.732229 -0.039364
0.297747 0.955474 0.809032
-0.199899 0.978075 0.018755
-0.632191 0.771333 -0.289871
-0.028526 1.002646 0.277999
-0.961951 0.297577 0.091794
0.251278 0.967403 -0.749894
-0.451793 0.894939 -0.216576
0.470069 0.887495 -0.374297
0.277247 0.955916 0.692740
0.181893 0.975695 -0.243903
0.929693 0.386276 0.640903
0.955103 0.289568 -0.111410
-0.499907 0.866535 0.498147
-0.473548 0.882518 -0.721565
-0.485946 0.864624 0.849978
0.992942 0.061766 -0.035830
0.518545 0.861335 -0.476778
0.813306 0.576034 -0.520561
-0.755159 0.640664 -0.474417
-0.902516 0.422049 -0.271713
0.711478 0.696206 0.433804
-0.499788 0.865402 0.902702
0.929239 0.397526 0.335156
0.640935 0.762881 0.097372
0.902406 0.417067 -0.114644
0.627678 0.769286 0.654461
-0.523878 0.854384 0.705150
-0.962243 0.275475 -0.414780
0.797813 0.603369 0.902695
-0.124791 1.000697 -0.213053
-0.598428 0.816394 0.585016
-0.990084 0.142659 0.928581
-0.333688 0.943663 0.412602
0.695521 0.722715 -0.679812
-0.388968 0.927095 0.169951
0.527780 0.843382 -0.774105
-0.998339 0.081320 0.570130
0.306199 0.950744 -0.431419
-0.549119 0.835709 0.393516
0.990331 0.065218 0.813692
0.312899 0.954340 -0.641133
-0.923431 0.381069 -0.214430
-0.338461 0.942962 0.288257
0.182405 0.985708 -0.170704
-0.982005 0.200807 -0.651158
-0.900248 0.442574 -0.938994
0.527198 0.851970 -0.183844
-0.140459 0.989228 0.302794
0.031508 0.992213 0.140201
-0.407642 0.917829 -0.687228
0.487767 0.863200 -0.099955
0.717058 0.687496 -0.261494
-0.960802 0.265810 -0.452654
-0.970857 0.238299 0.455240
-0.875290 0.472097 -0.395785
-0.987879 0.057756 0.086093
-0.692097 0.716227 0.848097
-0.732014 0.679632 0.071131
-0.730681 0.676336 0.236411
0.069435 0.997317 -0.855745
0.145637 0.995871 -0.645827
0.733238 0.689043 -0.801940
-0.435897 0.903386 0.532311
0.613567 0.774981 0.667843
0.689343 0.732906 -0.632574
-0.268474 0.966938 -0.555798
0.282151 0.972586 -0.354480
0.769196 0.630741 0.181418
-0.838580 0.537430 0.247055
-0.917364 0.424195 0.370170
0.873014 0.501431 0.808045
0.998620 0.026850 -0.408391
0.494650 0.875759 0.309811
-0.797107 0.593657 0.120551
-0.873552 0.482823 -0.392104
0.914271 0.423637 0.819108
-0.765258 0.649751 -0.806300
0.946647 0.353843 0.426075
0.343988 0.946133 0.447713
-0.998944 0.010667 0.830136
0.829604 0.574216 0.031275
0.879441 0.464209 -0.356940
0.238716 0.960035 0.643905
-0.359935 0.929418 0.533916
-0.987199 0.205451 0.006576
-0.995383 0.059567 0.537560
0.978823 0.213686 -0.466018
0.917334 0.419975 0.174469
-0.799489 0.605877 0.724946
0.667869 0.745019 -0.363030
-0.938074 0.360032 -0.034618
-0.493467 0.866181 0.909823
0.932792 0.344187 0.595500
-0.870199 0.506959 0.774372
0.852424 0.530699 -0.236448
0.232477 0.975230 0.991207
-0.159509 0.988106 -0.693984
-0.005722 1.003617 0.035677
-0.558138 0.840661 -0.043881
-0.464134 0.889268 0.598499
-0.998004 0.015812 0.824810
-1.001385 -0.000827 0.463004
-0.051515 1.002145 0.259353
0.959090 0.291503 -0.142034
-0.650802 0.762675 0.026074
-0.998864 0.072930 0.015552
0.535038 0.841925 -0.960298
0.121945 0.998207 0.005078
0.236480 0.971292 0.714673
0.979677 0.161718 0.422510
-0.519605 0.861595 0.592043
0.441027 0.888357 -0.214646
-0.786286 0.617757 0.055130
-0.867918 0.507443 -0.928606
-0.842858 0.532886 -0.228925
0.250795 0.973262 -0.047780
0.523822 0.839040 -0.488911
-0.706152 0.701271 -0.933951
-0.812453 0.588097 0.376346
0.020189 1.003952 -0.128833
-0.947097 0.328797 -0.167141
0.897525 0.438860 -0.506674
-0.930662 0.374569 0.078034
0.955535 0.293258 -0.130191
0.882616 0.460297 -0.054171
-0.098722 0.995303 0.161941
0.980029 0.215049 -0.991004
0.982235 0.159309 0.815805
1.000471 0.000640 -0.857492
0.199355 0.978832 -0.102251
-0.753564 0.652436 -0.582414
0.991015 0.109186 0.043744
-0.456462 0.885035 -0.428100
-0.849342 0.533749 0.719466
0.871380 0.500929 -0.213137
0.901891 0.443729 0.272589
-0.904911 0.415544 -0.496503
-0.850858 0.523945 -0.963233
-0.119501 0.995106 -0.198510
-0.843881 0.539550 0.077242
0.966244 0.290293 -0.082984
0.325850 0.948311 0.927296
-0.681515 0.744126 0.418356
0.688062 0.719726 0.992712
-0.718327 0.693817 -0.397900
-0.010344 0.994661 0.569483
-0.711797 0.702997 0.107027
0.116225 0.988978 0.222241
0.396717 0.915588 0.983012
0.772771 0.641723 0.316964
0.799016 0.616574 0.804077
-0.721172 0.706309 0.447530
0.941123 0.375646 -0.748615
0.961612 0.265067 0.394705
0.851219 0.517791 -0.035286
0.854928 0.528692 0.845060
-0.845888 0.518365 0.612450
0.314845 0.945821 -0.792288
-0.994557 0.032792 -0.728297
0.911118 0.417324 -0.869096
-0.455066 0.884948 -0.013247
0.162987 0.981152 -0.843941
0.339921 0.943893 0.445885
-0.919475 0.387457 0.101785
-1.006091 0.076693 0.668580
-0.908229 0.384738 -0.439281
0.820125 0.561809 0.039388
0.776391 0.635305 -0.766140
-0.470775 0.884144 0.771073
0.620485 0.790105 -0.654333
-0.675816 0.736209 -0.791868
-0.204027 0.967254 -0.590930
-0.160520 0.989338 0.610045
-0.850514 0.508477 -0.792345
-0.612035 0.792573 0.227648
1.001196 0.079619 0.501716
0.977132 0.149816 0.501846
-0.314098 0.950298 -0.625600
0.045418 1.010848 -0.872158
0.685242 0.733111 -0.104747
0.257583 0.968206 -0.593611
-0.726288 0.691112 0.395513
-0.855031 0.509420 -0.280211
-0.185248 0.975948 -0.104246
0.340995 0.923299 -0.766041
0.662615 0.760206 0.129854
-0.070474 1.005267 -0.630416
0.545119 0.837339 0.364971
-0.198320 0.980471 -0.856821
-0.520780 0.842158 0.963147
0.983725 0.205010 0.367708
0.999319 0.012315 -0.635256
0.790129 0.619201 -0.962285
-0.941247 0.322546 -0.338644
-0.444014 0.887446 -0.702562
0.854125 0.521234 -0.567155
-0.944338 0.337607 0.749567
0.098435 0.986765 0.198360
0.074829 0.992559 -0.644099
-0.984798 0.194732 0.115952
0.974164 0.185138 -0.478367
0.784239 0.626716 0.957629
-0.268943 0.961399 -0.932665
0.818922 0.580140 0.471433
-0.528373 0.845517 0.548689
0.775666 0.628326 -0.867975
0.951646 0.304711 -0.661984
0.795071 0.620622 -0.234234
0.242260 0.967861 0.736109
0.856962 0.521028 0.074875
0.905154 0.405501 0.299938
-0.902355 0.423923 0.564928
0.539930 0.836398 0.656388
0.422690 0.907312 -0.044693
0.984276 0.163239 0.025720
0.435334 0.902086 0.436940
0.675185 0.732467 -0.477863
-0.337260 0.938457 0.699889
0.801754 0.604423 -0.954991
-0.944039 0.355085 -0.612802
-0.970736 0.213775 0.604734
0.957054 0.307761 -0.312496
0.944544 0.327431 -0.708055
0.927610 0.350085 -0.623721
-0.367440 0.926699 0.067976
0.928454 0.377989 0.697458
-0.900102 0.444869 -0.869180
-0.718332 0.708801 -0.943306
-0.851053 0.538414 -0.076065
-0.078744 0.991600 0.914992
-0.999116 0.008605 -0.439914
0.982157 0.134326 0.904852
0.306992 0.956277 0.773858
0.525061 0.842696 -0.429726
-0.984432 0.153931 0.634636
-0.241084 0.968031 0.372466
-0.824303 0.575355 0.021820
0.856342 0.516129 -0.159462
-1.000439 0.073975 0.630920
0.004368 1.002640 0.586419
0.020618 0.999388 0.516949
-0.996773 0.095314 0.999994
0.363868 0.924899 -0.042546
0.314645 0.939402 0.619321
-0.250585 0.966945 0.723082
0.916314 0.386497 -0.584015
0.530154 0.845824 -0.913482
0.837843 0.570989 -0.189871
0.949923 0.320051 0.715958
-0.919777 0.412923 -0.428116
-0.272759 0.965038 0.408974
0.424998 0.904019 -0.981751
0.287548 0.956909 -0.290711
0.212429 0.977485 0.226356
-0.408407 0.910800 -0.735100
-0.965607 0.227055 0.787705
-0.974952 0.222704 -0.676145
0.339189 0.943369 0.816521
0.513209 0.861811 -0.558619
0.150964 0.984670 0.987635
-0.208748 0.982412 0.217401
0.125711 0.996616 -0.834985
-0.477644 0.882023 -0.869351
-0.161061 0.986507 -0.846133
0.538180 0.850701 0.183096
0.466959 0.891196 0.624662
0.373489 0.929555 -0.196512
0.956811 0.292385 -0.109904
0.860716 0.502829 0.184817
-0.645381 0.759720 0.062555
0.342512 0.936326 0.378986
0.779255 0.623845 -0.057524
-0.193933 0.971973 0.428751
-0.719198 0.698833 0.995044
0.694296 0.718587 -0.303346
-0.852249 0.515338 -0.976873
-0.973341 0.224720 -0.748025
-0.308058 0.953750 0.106515
-0.497239 0.860702 -0.303621
0.985681 0.164085 0.885015
-0.985793 0.170022 0.256342
0.329671 0.941261 0.036895
-0.974000 0.232937 0.591959
-0.237857 0.974784 -0.472951
1.006825 0.003988 0.634428
0.994900 0.119759 -0.993308
-0.537475 0.841278 0.241159
-0.192512 0.982776 0.867958
0.996897 0.075986 0.570709
-0.693381 0.718986 0.703344
-0.892356 0.447463 -0.208823
0.009049 1.005287 0.644930
0.108630 0.995880 0.108302
1.000873 0.011276 0.237035
-0.780646 0.618752 -0.884788
0.504008 0.866315 -0.596362
-0.924789 0.365729 0.105269
0.383774 0.921138 -0.884121
-0.205890 0.979128 0.487404
0.657861 0.748892 0.673758
0.870055 0.496851 0.846581
-0.755140 0.647604 -0.796508
0.005866 1.002191 0.879200
-0.117874 0.989606 -0.868225
-0.987826 0.111074 -0.058027
-0.996314 0.118522 0.672169
-0.899854 0.435187 -0.863192
0.826219 0.555582 -0.960599
-0.287691 0.951986 -0.954911
-0.923385 0.367808 0.014798
0.387934 0.928418 0.618648
0.952665 0.309550 -0.747071
-0.828409 0.547511 -0.752507
0.054638 1.007186 0.136449
-0.204993 0.975597 -0.526246
-0.991978 0.054834 0.466674
-0.326658 0.952017 0.909298
0.230042 0.971646 0.523942
0.397392 0.916918 0.750071
0.254427 0.960555 0.042665
0.925975 0.355269 0.662368
-0.798326 0.600215 -0.629890
-0.874906 0.489841 -0.862269
0.621957 0.780772 0.319802
0.570698 0.813564 -0.890881
-0.930896 0.384716 0.790268
0.995309 0.066048 0.381049
-0.064650 1.000236 0.903914
0.109492 0.994303 -0.373753
-0.559159 0.836725 -0.035213
0.870796 0.491101 0.490740
-0.501636 0.858686 -0.510715
0.376730 0.925697 0.081973
-0.368303 0.929616 0.325458
0.992648 0.127803 0.954465
0.113635 0.992915 0.480216
-0.067149 0.991258 -0.758701
0.777066 0.615411 -0.055726
0.909921 0.426024 0.176563
0.828073 0.565028 -0.705723
0.475626 0.882896 -0.134141
0.948492 0.303537 -0.427746
-0.989725 0.169809 -0.759441
0.295963 0.957121 0.026833
-0.819404 0.560685 -0.672688
-0.988439 0.081261 0.182546
0.968213 0.256962 -0.668134
-0.449469 0.891263 0.455001
-0.920952 0.396823 -0.616530
-0.403827 0.910078 0.790838
0.216417 0.974233 -0.954176
0.216943 0.976055 0.040344
0.981939 0.112284 -0.359723
-0.114095 0.999938 -0.552491
-0.997461 0.008548 -0.051073
-0.998160 0.129513 0.685174
0.994091 0.126180 0.828240
-0.597888 0.791321 -0.394171
0.580784 0.815622 -0.685414
-0.958761 0.296450 0.444825
0.987602 0.139473 0.158304
-0.984605 0.209341 -0.601371
-0.872965 0.493738 0.522966
0.933145 0.363696 0.039628
0.980860 0.188743 0.301538
-0.859804 0.495433 -0.277576
0.879052 0.480029 -0.126259
-0.102459 0.998007 -0.632797
-0.970378 0.257867 0.515679
-0.209949 0.970634 -0.691637
0.323187 0.951169 0.553960
0.177536 0.984839 0.593283
0.978304 0.189847 0.494001
-0.992410 0.100153 -0.962174
0.562488 0.826889 -0.459461
0.825503 0.563082 -0.070296
0.625751 0.784692 0.193834
-0.984430 0.108650 0.839875
0.958809 0.295060 -0.248260
-0.911525 0.402420 0.751400
-0.604180 0.792124 -0.676236
-0.868078 0.506328 -0.256519
-0.994833 0.081303 -0.882743
-0.884631 0.474408 0.490851
-0.987172 0.183795 -0.700137
0.932346 0.397211 -0.488577
-0.802436 0.594744 0.536164
-0.146703 0.975117 0.074777
-0.130458 0.995901 -0.968122
-0.954742 0.310528 -0.998249
-0.998316 0.084134 0.014163
-0.593769 0.797046 -0.395865
0.053789 0.996490 -0.637155
0.128726 0.997121 0.226741
0.352249 0.937725 -0.539669
0.419246 0.913373 0.184847
0.341979 0.944945 -0.236634
0.957479 0.276700 -0.624660
0.975811 0.238928 -0.719647
-0.761374 0.640547 -0.536727
0.164353 0.989785 -0.946508
-0.977350 0.221028 -0.385568
-0.343351 0.937187 0.809307
0.989613 0.111160 0.672127
0.881380 0.477841 -0.256814
0.797011 0.600558 0.148609
-0.998321 0.070479 0.124946
0.773346 0.630251 0.661793
-0.049121 0.997570 -0.530171
-0.979146 0.202476 -0.392433
-1.000428 0.077885 -0.400126
0.733972 0.669387 -0.907734
0.987525 0.150709 -0.366882
0.885589 0.462254 0.750686
0.978080 0.201616 0.825136
0.819545 0.572684 -0.776872
-0.222830 0.974738 -0.085009
-0.966064 0.264535 -0.233112
-0.118060 0.995589 -0.017202
-0.389834 0.921878 0.112421
0.813701 0.589251 -0.959565
-0.809999 0.585003 0.678610
-0.360773 0.937946 0.946944
-0.912700 0.408960 0.307690
-0.987192 0.155815 0.311524
0.453780 0.894254 0.056806
0.958935 0.281116 -0.331937
0.753822 0.655013 -0.708528
0.192651 0.983003 0.166462
-0.998281 0.169605 -0.911676
0.367416 0.926067 0.658656
-0.744396 0.663646 -0.157076
-0.122667 0.997738 -0.165311
0.846162 0.548677 -0.346247
0.540817 0.839634 0.929338
-0.459537 0.892934 -0.646804
-0.519001 0.854355 -0.700675
0.198340 0.975294 -0.670615
0.758652 0.657268 0.311790
-0.641705 0.770837 0.984154
0.875009 0.508693 -0.523724
-0.982099 0.196371 0.815898
0.840629 0.560812 -0.434836
0.942923 0.331481 0.304440
0.014070 0.997108 -0.929231
-0.052895 0.994574 -0.014660
-0.030851 1.001720 0.300099
0.195230 0.979859 0.075799
-1.005032 0.009411 -0.527795
0.036938 1.003307 0.654548
0.072563 0.995200 0.939190
0.242329 0.977909 -0.079695
0.978305 0.201386 0.264412
-0.285117 0.956757 0.574532
0.745031 0.653009 -0.517015
-0.412537 0.903123 0.734895
0.985530 0.156586 -0.439725
-0.995629 0.067294 0.547703
0.100323 0.995980 -0.786543
-0.941003 0.314737 -0.418463
0.076177 0.987911 0.063560
0.971474 0.179795 0.044107
-0.847748 0.527260 0.692286
-0.447896 0.890414 0.985059
-0.779191 0.632041 -0.790384
0.224488 0.963286 -0.458418
-0.421710 0.907109 -0.290847
-0.906433 0.441607 -0.041235
-0.396860 0.924534 -0.013413
0.457672 0.878193 0.723500
-0.490734 0.868444 0.532596
-0.516360 0.853491 -0.961489
-0.986167 0.124232 -0.089086
0.394311 0.912790 0.230995
0.233591 0.980841 -0.078733
-0.833014 0.556772 -0.734861
-0.015788 0.999220 -0.204569
-0.669913 0.744260 -0.169766
0.129478 0.991920 -0.635457
0.782891 0.628457 0.508403
-0.693341 0.713926 -0.349823
0.909406 0.393623 0.182535
0.807244 0.581128 0.034163
-0.388999 0.932605 0.761020
-0.704645 0.716311 -0.765553
-0.951090 0.326218 -0.767496
0.645834 0.750578 -0.394039
0.933375 0.345434 -0.140864
-0.991764 0.130857 -0.389769
0.884265 0.458492 0.527356
0.809338 0.579045 -0.520432
0.609996 0.802480 -0.828544
-0.094374 1.005230 -0.176000
-0.927555 0.357601 0.552584
-0.730950 0.679925 0.703864
-0.604842 0.785488 0.463700
0.853360 0.523372 0.123286
0.425345 0.902513 0.453081
0.067338 1.001647 0.358639
0.888470 0.451324 -0.532027
0.652651 0.756206 0.104102
0.562681 0.826906 0.539397
0.923029 0.385777 -0.367431
-0.163890 0.990255 0.308130
-0.600418 0.797095 -0.042368
0.978826 0.220231 -0.004846
0.063807 1.000135 -0.818694
-0.778743 0.632400 0.322490
-0.702539 0.715530 0.726409
-0.835013 0.540979 -0.725995
0.169627 0.981484 -0.276031
-0.852671 0.532998 -0.900533
0.722792 0.679053 -0.941848
0.437496 0.903874 0.978025
0.849042 0.524252 -0.019636
0.092518 1.001336 -0.292241
0.329729 0.943766 -0.448364
0.713127 0.691815 0.959765
-0.709847 0.704648 -0.491385
0.556096 0.831134 0.456242
0.650119 0.756577 -0.433745
0.914287 0.403360 -0.868282
0.195634 0.987554 0.362770
0.571474 0.813795 -0.997227
0.392636 0.908607 0.347615
0.736378 0.666737 -0.504520
-0.739480 0.675655 0.492557
-0.977388 0.206443 0.551652
0.000178 1.008954 0.445774
-0.433212 0.903761 -0.951047
-0.914937 0.402107 0.400913
-0.997247 -0.001871 0.986508
-0.348109 0.942222 -0.510376
-0.939612 0.333822 -0.447494
-0.966296 0.278096 0.633852
-0.790479 0.605468 -0.681343
0.120775 0.993048 0.319655
0.966842 0.255304 0.518602
1.004009 0.055598 -0.922515
0.067968 1.002661 0.096428
0.024616 0.999844 0.154029
0.294161 0.963052 -0.396023
-0.208757 0.973802 0.757180
-0.168045 0.977498 -0.672460
-0.882063 0.487695 -0.280313
0.947696 0.330734 0.698682
0.760600 0.646712 -0.617661
-0.799632 0.600624 0.644566
-0.882033 0.457729 -0.838984
-1.004176 0.019360 -0.014062
-0.923470 0.397312 -0.847269
-0.938149 0.330410 0.355922
0.545166 0.828242 0.586943
0.303501 0.948699 0.710931
0.671258 0.749948 0.967100
-0.326721 0.943730 0.345062
-0.975340 0.187446 0.540286
0.474595 0.886821 0.012797
-0.178082 0.988791 0.825566
0.585467 0.802036 0.298343
0.855533 0.504419 0.763358
0.821631 0.576833 -0.523321
0.975725 0.179871 -0.007154
-0.988972 0.157421 0.452236
0.302093 0.951251 -0.595498
-0.859912 0.502481 -0.580054
-0.542224 0.843332 0.958973
0.820456 0.572243 -0.130323
0.851618 0.530418 -0.641479
-0.828821 0.559201 -0.329717
0.672911 0.736489 -0.199797
-0.957876 0.274267 0.254101
0.900757 0.428265 0.847214
-0.529134 0.861180 0.973001
-0.832673 0.551954 0.306915
0.737088 0.677096 0.396957
0.650758 0.764316 -0.355691
-0.993049 0.110741 0.713439
0.677891 0.737486 -0.571709
0.219245 0.977359 -0.786601
0.212306 0.980216 0.944307
0.697171 0.719588 0.727065
-0.765172 0.649100 -0.390891
-0.747819 0.654628 0.356704
0.376210 0.926184 -0.070207
-0.873942 0.488501 -0.355426
0.785102 0.628817 -0.430277
0.988040 0.010821 -0.732096
-0.224591 0.979947 0.095663
-0.995022 0.019987 -0.107789
0.992014 0.122625 0.027302
0.794584 0.607338 -0.567683
-0.074469 0.994296 0.871937
-0.828937 0.557395 0.283653
0.962820 0.284742 0.803923
0.325546 0.946894 -0.785964
-0.695769 0.719199 0.251822
0.391643 0.926594 0.700558
0.828301 0.557002 -0.338941
0.810592 0.578396 -0.607923
0.277821 0.960562 -0.470086
0.058310 0.992124 -0.451407
-0.916479 0.419687 -0.104665
-0.437597 0.904729 -0.349760
-0.555584 0.823875 -0.467581
-0.999925 0.051798 0.299661
0.274524 0.961026 -0.895804
0.296410 0.964818 -0.315383
-0.980097 0.229322 0.381912
0.720890 0.700394 -0.650039
-0.671737 0.749228 -0.553029
-0.719966 0.693672 -0.597643
0.952908 0.301011 -0.997330
0.100791 0.998361 -0.053155
0.804345 0.592837 -0.913665
0.825970 0.550938 -0.457687
0.109387 0.999014 0.987993
0.610578 0.795400 0.830606
-0.805546 0.601835 -0.566215
-0.953317 0.283478 -0.382906
-0.820079 0.583321 -0.074941
0.672119 0.744303 0.686242
0.652305 0.754559 0.605605
0.701328 0.709685 -0.753771
0.910688 0.401510 -0.762319
-0.980498 0.175996 -0.164247
0.302031 0.954515 0.729623
0.763211 0.642797 0.768441
-0.893725 0.468514 -0.777476
0.298229 0.951033 0.147773
0.995808 0.116846 -0.682152
0.875508 0.488943 0.372137
-0.421270 0.900496 0.840863
-0.778924 0.632656 -0.092743
0.795801 0.618574 -0.845659
-0.968815 0.253868 0.158109
-0.890320 0.443987 -0.174427
-0.885712 0.459019 0.624472
0.763544 0.650778 -0.321888
0.985838 0.163702 0.751439
-0.917776 0.402527 -0.447744
0.565456 0.828216 -0.685393
-0.357195 0.920403 -0.373907
-0.726790 0.685297 -0.932756
0.922136 0.399368 -0.432496
-0.756606 0.630941 0.324045
-0.979775 0.191177 -0.718933
-0.663985 0.751462 -0.779392
0.182627 0.979581 -0.730139
-0.930758 0.379031 -0.844173
-0.088133 0.989805 0.750961
-0.697409 0.718072 0.880050
-0.848114 0.537064 -0.903598
-0.712634 0.707467 0.521580
0.626181 0.781006 0.473984
0.933743 0.366969 0.995623
0.731404 0.684384 -0.306305
-0.005244 0.994753 -0.431942
-0.014222 0.993392 -0.095045
-0.255349 0.961724 0.710829
0.327040 0.948915 0.468090
-0.783462 0.621972 -0.052193
-0.959660 0.273414 -0.515717
0.718110 0.698164 0.464213
-0.675731 0.731778 0.706889
-0.531538 0.852319 -0.199950
-0.064825 0.994603 0.341658
0.827278 0.559191 -0.209426
-0.798166 0.592087 -0.044198
-0.990290 0.120532 0.046954
-0.644906 0.771870 0.552477
-0.970928 0.251615 0.956862
-1.000535 0.053736 -0.111654
0.445780 0.882258 -0.315988
-0.428014 0.904392 -0.247492
0.078544 0.995792 -0.730714
-0.997787 0.050707 -0.405915
0.963217 0.284613 -0.826366
0.274591 0.965703 -0.135032
-0.937524 0.386403 -0.664422
0.630772 0.774956 -0.309759
-0.788677 0.616504 0.577610
0.362246 0.933668 -0.515314
-0.998093 0.055450 0.221454
-0.934765 0.355516 0.801821
0.583913 0.817829 0.131080
-0.750624 0.663470 -0.610659
0.497106 0.870723 -0.313310
-0.328063 0.945255 0.176166
-0.472138 0.881501 0.016285
-0.855395 0.513997 -0.695913
1.000386 0.073957 -0.111943
0.761264 0.645480 0.087352
-0.612073 0.793030 -0.474860
-0.200532 0.983539 0.217518
0.017385 0.995690 -0.862624
0.980133 0.167478 -0.321111
0.452885 0.886901 0.604660
-0.901651 0.411531 -0.485511
0.990509 0.088058 0.210534
0.325376 0.950011 -0.179755
-0.984597 0.177907 -0.371005
0.985151 0.162049 0.842194
-0.706677 0.704380 -0.314803
0.683490 0.719842 -0.526080
-0.913540 0.408402 0.816594
-0.703732 0.715021 0.494089
-0.938202 0.353617 0.369774
0.783237 0.630516 -0.892612
-0.096880 1.000631 -0.741401
-0.776460 0.633529 0.282184
0.720852 0.698598 -0.578386
0.748523 0.661251 -0.543851
0.993645 0.084798 0.557818
-0.987786 0.134281 -0.429085
-0.613785 0.794988 -0.852147
-0.418946 0.917670 -0.922363
-0.684402 0.722448 -0.105815
-0.099238 0.994522 0.235250
0.074501 0.995926 0.737236
0.155860 0.978784 -0.790690
-0.421128 0.910937 -0.614711
0.803549 0.590070 0.057630
-0.946522 0.346999 -0.277289
-0.833556 0.560917 -0.030854
0.461845 0.884157 0.841699
-0.240295 0.965044 0.087277
0.902173 0.436432 -0.172069
-0.989362 0.088220 0.984904
-0.950086 0.297459 -0.872610
-0.971381 0.242280 0.866489
0.502351 0.869612 0.004302
0.863769 0.511371 0.012029
0.782571 0.609966 0.848180
0.960315 0.287167 0.014481
0.931191 0.373278 -0.131667
0.966580 0.221379 -0.456182
-1.000436 0.026008 0.317534
0.971541 0.235836 0.140720
0.919694 0.406847 -0.574997
-0.865542 0.509157 0.424530
-0.251328 0.967235 0.288242
-0.761624 0.666470 -0.209935
-0.394975 0.916695 -0.993489
-0.932488 0.358053 -0.097195
-0.412438 0.901824 -0.984562
-0.066141 1.006446 -0.844761
-0.621761 0.789070 -0.143988
0.165717 0.993411 -0.839604
0.463203 0.886566 -0.452076
0.105745 1.001111 0.311905
0.854538 0.504027 -0.383639
-0.806758 0.597277 0.992850
0.685212 0.731916 0.830784
0.892044 0.470760 0.166650
0.704154 0.700551 0.932995
-0.872549 0.472917 0.741601
0.507796 0.861384 -0.369769
-0.561196 0.825610 0.500925
-0.914976 0.424353 -0.719436
0.962674 0.245978 0.368187
-0.739781 0.671082 -0.020481
0.567805 0.821629 -0.961727
0.780400 0.633367 -0.456461
-0.561973 0.836001 0.910651
-0.965655 0.282277 -0.373536
0.598307 0.809361 -0.646442
-0.214398 0.979223 -0.625697
0.614473 0.791347 -0.047890
-0.173664 0.986695 0.685240
-0.369050 0.921180 0.521579
-0.342836 0.945303 -0.117025
-0.382809 0.913390 -0.582079
0.908588 0.408812 -0.902774
-0.565874 0.820892 -0.072745
-0.522494 0.849101 0.627635
-0.546147 0.837685 0.449740
0.977678 0.239802 -0.174666
0.176949 0.991606 0.184160
0.282949 0.956014 -0.120593
0.969294 0.266708 0.160716
0.770931 0.636753 0.030130
0.181382 0.986374 0.363493
-0.691041 0.721439 0.026082
0.728843 0.667957 0.888900
-0.861367 0.510221 -0.146507
-0.146515 0.991862 -0.971727
-0.731889 0.688397 -0.526752
0.082362 0.995919 0.000386
0.001096 0.998133 0.087142
-0.364644 0.940032 0.108468
-0.975104 0.224394 0.420643
0.016397 1.003267 -0.448410
-0.093639 0.993252 0.328912
-0.322574 0.952549 0.408250
-0.677615 0.727012 -0.176194
0.977149 0.221502 -0.189668
-0.047981 0.992744 -0.637261
0.053862 0.995303 -0.175774
-0.968652 0.249812 0.573340
0.018048 0.996730 0.815703
0.093669 0.998643 0.178817
-0.989248 0.126060 -0.401806
0.158736 0.987832 0.373803
0.847580 0.543140 0.471732
0.773611 0.632585 -0.335695
0.961516 0.295186 0.652815
0.997531 0.005536 -0.851170
0.215441 0.986432 -0.983306
-0.751090 0.659909 -0.761184
-0.670561 0.738069 -0.694876
0.982798 0.095738 0.764513
-0.219600 0.980901 -0.154950
0.885273 0.471585 -0.452634
-0.984965 0.181374 -0.131327
0.873707 0.491219 -0.213989
-0.393248 0.918523 -0.395365
0.516360 0.857406 -0.718882
-0.434737 0.902394 0.316910
0.269351 0.963151 -0.733449
-0.723043 0.682747 0.547282
0.756089 0.667981 -0.595112
-0.960025 0.293378 0.472388
-0.004274 1.002932 0.607365
-0.726298 0.694238 -0.751816
-0.884090 0.457367 -0.824411
-0.994388 0.005973 0.902244
0.762023 0.642285 -0.070505
0.613611 0.785999 0.256239
0.699611 0.712026 -0.956139
0.678797 0.740890 -0.441502
-0.253375 0.968725 0.017107
-1.010124 0.015522 0.771244
-1.001140 0.026481 -0.457233
-0.075920 0.994289 0.545253
-0.424100 0.907071 0.333742
-0.897339 0.425252 -0.768687
-0.974640 0.203522 -0.407861
0.796407 0.591905 -0.524122
-0.091010 0.985490 -0.114518
-0.865888 0.485752 0.263167
0.574855 0.814230 -0.143914
0.183121 0.993776 -0.504667
-0.991446 0.054141 0.392148
-1.003784 0.042069 0.169974
-0.951418 0.291465 0.032383
-0.808325 0.584399 0.104324
0.663230 0.741741 -0.550887
0.536379 0.839769 0.369563
-0.150991 0.987860 -0.228105
-0.186940 0.980914 -0.269707
-0.027519 1.001114 -0.699581
-0.414093 0.912547 0.193072
0.271704 0.957126 0.214589
-0.706404 0.709120 -0.321665
0.503682 0.860896 0.725904
0.510321 0.855100 0.692823
0.914689 0.381640 -0.781976
0.823500 0.561979 0.396937
-0.895192 0.450842 -0.210880
0.168890 0.976438 0.998948
0.744364 0.655957 -0.543056
-0.727616 0.679810 -0.432705
-0.167218 0.993957 -0.109778
0.996377 0.063521 -0.482009
0.548070 0.841555 0.386188
0.850457 0.533294 -0.037123
-0.473060 0.877705 -0.558417
0.639693 0.760850 0.015797
0.979924 0.205391 0.778878
0.980379 0.172306 0.588180
-0.256834 0.969025 -0.003682
1.000068 0.061545 -0.415524
-0.882191 0.460138 -0.636332
0.882991 0.466601 0.759478
-0.325799 0.946227 0.422802
0.165672 0.989540 0.150113
0.179802 0.987270 0.763978
0.974370 0.225393 -0.757183
-0.807923 0.583979 0.369930
-0.946788 0.333142 -0.565705
0.998193 0.042080 -0.749260
0.851964 0.531949 -0.063294
-0.955235 0.298149 -0.228342
-0.160407 0.992596 0.894001
0.903708 0.451649 -0.362551
0.798440 0.588178 0.632991
-0.482039 0.878794 0.494173
-0.647277 0.759749 0.345259
-0.305966 0.945574 0.842065
-0.990136 0.149161 -0.188120
0.017725 1.006982 -0.221990
0.585919 0.801370 -0.681675
0.065884 1.002555 -0.450005
0.437479 0.891695 0.757910
0.760496 0.646050 -0.054992
0.992577 0.153099 -0.315943
0.446113 0.892499 -0.565820
-0.618173 0.787883 -0.035061
0.996046 0.061706 0.425039
0.182167 0.973218 -0.425061
-0.437945 0.899753 0.518093
-0.341967 0.940771 0.263227
-0.757901 0.654813 0.577881
-0.833981 0.554554 -0.490317
-0.620018 0.784951 0.267042
0.943812 0.312722 -0.679130
0.085601 0.991751 -0.256903
-0.323523 0.953333 0.439930
0.719699 0.697322 0.252351
0.995929 0.130505 -0.624316
0.762544 0.643485 0.719207
0.134346 0.987161 -0.893677
0.260292 0.961296 0.193949
0.854191 0.520634 0.966290
-0.857982 0.522770 0.059540
-0.970911 0.229551 0.598629
0.807092 0.587418 0.189361
-0.973738 0.220228 0.570394
1.000784 0.057282 0.308755
-0.977011 0.230777 0.380819
-0.993496 0.149726 -0.541527
1.002858 0.048646 0.482648
-0.738576 0.688204 -0.518597
-1.009372 0.088207 0.956683
-0.953379 0.286758 -0.550107
-1.000951 0.086590 -0.525109
-0.155103 0.992814 0.719368
0.976972 0.241082 -0.518353
-0.890622 0.455779 -0.271476
-0.345050 0.946724 0.438905
-0.351932 0.935684 -0.685642
0.264975 0.969933 -0.674420
-0.229097 0.977240 -0.039194
0.885804 0.461041 -0.507226
-0.680654 0.734759 -0.532973
0.971405 0.229250 -0.976642
-0.655034 0.757266 -0.263907
-0.891705 0.453910 -0.363841
0.096731 0.993872 -0.941739
-0.020267 0.994081 0.241397
0.557727 0.826349 0.262460
-0.992637 0.093668 -0.858939
-0.662685 0.731427 -0.355365
0.394126 0.915321 0.743682
0.846396 0.519443 0.171793
0.777637 0.640356 -0.184179
0.114469 0.995699 -0.071229
-0.984900 0.175911 -0.586121
-0.670971 0.739141 0.631452
0.768021 0.624667 0.828936
-0.905192 0.434456 0.810888
0.369610 0.923569 -0.558682
-0.888859 0.445564 -0.383583
0.730278 0.682787 -0.674084
-0.361326 0.923907 -0.381573
-0.971604 0.229874 -0.335891
0.681868 0.725438 0.263469
-0.566711 0.828292 -0.617125
-0.996059 0.045055 0.833146
0.896378 0.467650 -0.791513
0.972273 0.273798 -0.984381
-0.528804 0.852656 0.708517
0.480538 0.869406 0.409528
0.971345 0.225440 -0.288770
0.078364 0.997585 0.193487
-0.715366 0.701937 -0.559582
0.623772 0.774975 -0.660148
0.500469 0.870462 -0.052569
-0.890299 0.467013 -0.292020
-0.068222 0.998708 0.233466
-0.885530 0.470799 -0.564251
0.165826 0.991797 0.330312
-0.995250 0.157448 0.534049
-0.456456 0.884319 -0.672467
0.933615 0.359717 -0.908182
-0.939480 0.338812 -0.128996
0.038087 1.002774 0.549462
0.902325 0.421082 0.299639
0.892451 0.458880 0.401523
-0.556634 0.824845 -0.193461
0.988825 0.147198 -0.533655
0.618513 0.787745 0.066119
0.905076 0.415889 -0.590985
0.187617 0.981119 0.449371
0.263774 0.961453 -0.599376
-0.066081 1.005544 -0.416450
0.634240 0.771943 0.016244
0.998733 0.094612 -0.019497
-0.354570 0.933768 0.208700
0.390660 0.930111 -0.122212
-0.457419 0.892666 0.837433
0.949896 0.330204 0.672720
0.993293 0.041934 0.759260
0.703505 0.702132 0.264506
0.133006 0.988007 0.271787
0.319751 0.936586 0.201174
-0.834528 0.557909 -0.125881
0.377540 0.934200 -0.351131
-0.095509 0.993525 0.182500
-0.291978 0.956638 -0.943995
0.995714 0.069234 -0.981947
-0.050511 1.009961 0.699856
0.476650 0.883562 -0.900795
0.241115 0.975045 0.043253
0.944166 0.306885 0.229689
-0.772151 0.629274 -0.604443
-0.984753 0.180019 0.787335
1.007748 0.066032 -0.618289
-0.315747 0.948696 0.775582
-0.732952 0.680134 0.532219
0.631125 0.776051 -0.514896
-0.788032 0.618957 -0.706991
-0.407642 0.918335 -0.374214
-0.971633 0.216587 -0.203268
-0.995346 0.065117 -0.508602
0.984111 0.133007 0.995293
0.166480 0.984250 -0.531169
-0.159763 0.979084 0.661799
0.898582 0.442983 -0.679052
0.490637 0.872484 0.965429
-1.000058 0.047524 -0.548678
0.990243 0.053807 -0.143668
0.143157 0.994521 0.112426
-0.882684 0.468383 -0.762459
0.522077 0.850197 0.628926
0.064011 1.004091 -0.442816
-0.994705 0.064478 0.102550
0.090193 1.001713 0.096547
0.916501 0.403469 0.200962
0.992405 0.163147 -0.882104
-0.989483 0.168996 -0.660954
0.662755 0.736409 -0.670563
-0.014528 1.008795 -0.396198
0.951688 0.284267 -0.707614
0.237625 0.973078 0.845344
-0.979891 0.215755 0.022788
-0.017352 1.000161 0.246430
-0.987211 0.091381 -0.290945
0.684521 0.728459 -0.445037
-0.022467 1.003570 0.010161
-0.899708 0.423200 -0.406403
0.158212 0.979482 -0.309375
0.644115 0.769907 -0.095139
-0.902351 0.429861 0.019227
0.336360 0.939145 0.973090
-0.094646 0.992800 -0.546412
-0.994316 0.076134 -0.016791
0.837082 0.562825 -0.701605
0.583771 0.801873 -0.298062
0.997883 0.108824 0.438494
0.337028 0.941655 -0.656821
0.809681 0.589990 0.157068
-0.536633 0.837195 -0.173095
0.834870 0.544312 -0.897381
-0.519001 0.853155 0.864484
0.676758 0.736092 -0.179972
0.437256 0.888642 0.568600
0.463566 0.889745 -0.167851
-0.636667 0.781207 0.880632
0.113240 0.993289 -0.408994
0.421972 0.912428 -0.173256
-0.893129 0.452298 0.514245
-0.226095 0.971356 -0.309432
0.774386 0.630347 -0.271239
-0.951843 0.308971 0.988446
0.476115 0.880536 0.106921
0.995893 0.122646 0.376440
0.015973 1.000203 0.286036
0.914188 0.366448 0.659869
0.724550 0.680100 0.726205
-0.690400 0.706676 0.135640
0.911351 0.407446 -0.407516
-0.814511 0.577928 -0.952278
-0.985091 0.201176 0.227275
-0.329380 0.943323 0.645750
-0.610672 0.784423 -0.101770
-0.625872 0.779911 -0.674087
-0.991784 0.032306 -0.436640
0.477892 0.875164 0.014935
0.874252 0.477820 0.681373
-0.061517 1.003338 -0.654651
-0.100974 1.002052 0.222417
0.855718 0.538574 0.508730
-0.348569 0.942719 0.862328
1.007664 0.050367 -0.765182
-0.977351 0.225551 0.859171
0.677822 0.728349 0.202329
0.994732 0.124102 0.524543
0.937387 0.336666 -0.894520
0.729502 0.684441 0.018693
0.652094 0.757266 0.246552
0.990426 0.098073 -0.393424
0.640774 0.764211 -0.124861
0.822582 0.578894 0.102327
0.371786 0.937545 0.103881
0.352639 0.935617 -0.921464
0.484033 0.876208 -0.126216
0.512806 0.852499 -0.574624
0.961228 0.281393 0.836571
0.993647 0.087899 0.959613
0.818379 0.585500 -0.402637
-0.728769 0.694502 -0.654680
-1.002507 0.031563 -0.558599
-0.977425 0.225298 -0.041956
-0.003053 1.008126 0.750213
-0.106412 1.005186 0.001451
0.552251 0.833917 -0.889779
-0.756996 0.655344 -0.919738
-0.737448 0.673999 -0.546126
-0.876512 0.466788 0.690894
-0.940518 0.323771 0.254103
0.202534 0.982164 0.126814
-0.742614 0.669727 -0.362094
-0.829989 0.566999 0.860130
0.566575 0.822033 -0.340933
-0.979365 0.218186 0.673714
0.955467 0.287850 0.794013
-1.008265 0.019571 -0.035432
-0.748275 0.663189 0.793089
0.948893 0.293742 -0.446298
-0.470599 0.877663 0.312017
0.988108 0.104284 -0.822315
-0.754748 0.668644 -0.050947
-0.801806 0.588936 -0.560534
-0.313270 0.948840 -0.870316
-0.894837 0.433808 -0.993095
0.960889 0.308351 -0.352856
0.643374 0.768147 0.179070
0.273859 0.969438 -0.087723
0.983790 0.133123 -0.394043
0.165698 0.982434 0.983907
0.670050 0.749708 0.878596
0.325990 0.948038 -0.743709
0.236204 0.970162 -0.173157
-0.924370 0.376961 0.310091
0.665084 0.748141 0.470797
-0.943725 0.334704 -0.272893
0.231138 0.980469 0.493490
0.517592 0.852608 -0.747837
-0.006373 1.002878 -0.338122
0.258257 0.970707 0.425391
0.691561 0.736367 0.246170
-0.004203 0.996253 0.677131
0.880287 0.466189 -0.915059
0.447924 0.893829 -0.658463
-0.212137 0.972510 -0.900327
0.270077 0.962626 -0.616884
-0.842640 0.525421 -0.994913
0.689648 0.716586 0.005947
-0.994858 0.096384 0.049275
-0.776102 0.630713 0.318206
-1.005160 0.102825 -0.234208
-0.876082 0.484166 -0.996263
0.903816 0.431008 0.349516
-0.097516 0.996524 -0.892701
0.855892 0.510070 0.728818
-0.835827 0.546070 -0.964639
-0.256318 0.966608 0.062787
0.678479 0.729330 0.790231
-0.971230 0.216561 0.142392
0.936313 0.354852 0.211646
-0.196509 0.985562 0.363286
-0.641518 0.774915 -0.752780
0.983538 0.192700 0.350343
-0.305766 0.953769 0.768900
-0.831041 0.550471 0.951966
0.985190 0.203283 -0.114432
-0.031553 1.001410 -0.307299
0.685804 0.720482 0.506863
-0.494553 0.871531 0.085975
0.937683 0.379407 -0.478909
-0.977790 0.197990 -0.660175
-0.944166 0.320405 -0.659423
0.830955 0.553618 -0.075697
0.529264 0.847196 -0.658206
-0.277275 0.957536 -0.962407
-0.629552 0.784895 -0.904353
0.186073 0.989151 0.848417
0.890015 0.473239 -0.843696
0.950488 0.319435 -0.852096
-1.006910 -0.000817 -0.100543
0.140793 0.997891 -0.508052
-0.910186 0.391369 0.920649
0.050996 0.983054 0.820316
-0.970694 0.253614 -0.195218
0.969301 0.273140 -0.109603
0.939614 0.352308 -0.260298
-0.963263 0.224704 -0.932256
-0.990090 0.166535 -0.409200
0.544816 0.839054 -0.759587
0.445595 0.896137 -0.792585
0.142848 0.982714 0.126506
0.259367 0.966915 -0.802387
0.826672 0.569359 -0.795630
-0.944287 0.310628 -0.038307
0.702792 0.710776 -0.117518
-0.598819 0.805276 -0.718711
0.975815 0.207128 -0.981719
0.998674 0.119388 -0.606802
-0.444272 0.883759 -0.538973
0.487917 0.874488 0.598312
-0.468706 0.875221 0.830898
0.950203 0.288403 -0.185796
-0.990803 0.158047 -0.198583
-0.704868 0.711515 0.416245
-0.928069 0.384792 0.260378
0.909412 0.424917 -0.634515
0.544290 0.852161 -0.792059
0.408152 0.920250 -0.130294
-0.117310 0.992445 0.131609
0.589674 0.800080 -0.726698
0.988601 0.189417 -0.412245
0.400134 0.919277 -0.393008
0.688296 0.721250 -0.486125
0.354328 0.939579 -0.071356
0.819723 0.579425 0.308118
0.668063 0.736968 0.017111
-0.392466 0.927819 -0.599694
0.343637 0.943301 -0.786797
0.470538 0.884169 0.646699
-0.108895 0.990163 -0.035657
-0.758124 0.652628 -0.878640
0.375065 0.925055 -0.483504
-0.273841 0.963724 0.610079
-0.991658 0.108577 0.500702
-0.074555 0.990544 0.751156
-0.966878 0.277082 0.201258
-0.793398 0.604966 -0.152193
0.984296 0.178927 -0.153337
0.225517 0.977465 -0.609140
-0.586166 0.810574 0.303151
-1.003104 0.038117 0.169121
0.137196 0.991728 -0.688024
0.950201 0.289345 0.769501
-0.187320 0.976842 -0.266414
0.928591 0.386005 -0.897804
-0.706174 0.706062 -0.341303
-0.027555 0.995899 0.737177
-0.649776 0.755308 0.830948
-0.918007 0.391304 -0.020118
-0.400588 0.916972 0.909920
-0.350747 0.931665 0.758109
-0.713962 0.695143 0.652044
-0.876749 0.483306 0.719493
-0.921818 0.392981 -0.240913
0.996839 0.112786 0.516633
-0.173340 0.995121 0.151620
0.785480 0.630390 0.436104
-0.902444 0.422957 -0.640565
-0.444207 0.892496 0.464724
0.250398 0.970904 0.902668
0.835313 0.565626 -0.395462
0.478004 0.872171 0.972950
-0.597954 0.798196 -0.244946
0.800696 0.591916 -0.599751
0.955874 0.290298 -0.784476
-0.936546 0.337530 0.555769
-0.734787 0.672526 0.104773
0.811357 0.582721 -0.384326
0.606268 0.799956 0.200776
-0.999832 0.085090 -0.340015
-0.602904 0.795623 -0.112898
-0.338532 0.932304 0.724115
0.563137 0.823527 0.346122
0.589038 0.801383 0.523718
0.983585 0.121720 0.166450
-0.657550 0.764313 0.986992
0.989823 0.139884 -0.517073
0.997011 0.014617 -0.476493
-0.652198 0.767154 -0.810249
-0.992909 0.155352 0.110398
-0.717872 0.698340 0.228162
0.099911 0.988370 0.451229
0.049212 0.997820 -0.330838
0.199132 0.973202 -0.970901
0.517782 0.853341 0.262777
-0.074975 0.997954 1.003547
0.212555 0.975161 -0.416137
-0.306973 0.958280 -0.624962
-0.952813 0.311793 -0.434106
-1.001509 0.017312 -0.154012
0.969046 0.248967 -0.495629
0.356831 0.927676 -0.309331
0.836948 0.533957 0.276581
0.444634 0.894280 -0.312377
0.618362 0.788415 -0.208547
0.852422 0.528364 -0.915230
-0.728492 0.674077 0.838478
0.012820 0.998350 -0.191855
-0.976059 0.246622 -0.349053
0.996853 0.103863 -0.825678
0.980672 0.207383 0.270082
0.298594 0.952814 0.724278
0.962299 0.249064 -0.909737
0.687061 0.737570 -0.705388
-1.004386 0.041056 -0.710348
0.795458 0.606460 0.200938
0.813479 0.585150 0.841322
-0.226287 0.958229 -0.126123
0.014823 0.996962 -0.306106
-0.247215 0.962483 0.536604
0.374848 0.931968 0.485313
-0.849990 0.515565 -0.503098
0.903561 0.418937 -0.674232
0.223886 0.974560 -0.284089
-0.567930 0.824524 0.553220
-0.920707 0.400213 0.393098
0.398640 0.917705 0.334145
-0.209386 0.975327 0.654963
0.967991 0.213359 -0.449128
0.862718 0.504853 -0.322076
0.972407 0.209731 -0.918854
-0.649905 0.754800 0.730126
0.615952 0.787938 0.168239
-0.652064 0.755819 -0.402023
0.978702 0.210887 -0.867864
-0.912787 0.422344 0.445614
-0.863111 0.498885 0.496554
0.961230 0.277257 0.333267
0.996458 0.077749 -0.597848
0.987364 0.186841 0.819662
-0.901151 0.442292 0.508915
0.733812 0.667095 0.307843
-0.149033 0.980852 0.300725
0.224144 0.982053 0.807085
-0.806175 0.607943 0.855998
0.039054 0.994769 0.192538
0.000549 0.996361 -0.158668
-1.005682 0.032642 -0.280529
0.887726 0.460474 0.642541
-0.866384 0.500700 0.276650
0.995695 0.152028 -0.838499
0.074691 1.008373 -0.725842
-0.939022 0.351111 0.812554
-0.493161 0.870570 0.767047
-0.556367 0.834411 0.910117
0.673550 0.738392 -0.138877
0.253548 0.959889 0.565939
0.409243 0.909231 0.654651
-0.067802 0.998258 -0.372792
0.119626 0.981613 -0.705388
0.517796 0.854228 0.991935
0.572951 0.817196 -0.943657
0.703729 0.707485 0.197358
0.409248 0.908709 0.295939
0.892250 0.448847 0.361934
-0.918306 0.381962 -0.488209
-0.314351 0.949702 0.439946
0.907073 0.406536 -0.569659
-0.577064 0.813329 0.665751
-0.885660 0.460823 -0.562788
0.741605 0.677408 0.391614
0.890910 0.453366 0.565951
0.997575 0.016284 -0.619836
0.990125 0.151311 -0.529196
-0.739476 0.673209 0.560344
-0.992645 0.040561 -0.826723
0.991010 0.136488 -0.627421
-0.706156 0.709435 -0.079967
0.973790 0.229610 0.867668
-0.288054 0.961061 0.119753
-0.713915 0.699133 -0.230256
0.427028 0.905412 0.957881
1.000187 0.036326 -0.079707
-0.291740 0.946712 -0.125709
-1.003326 0.025915 -0.179054
0.690953 0.722700 -0.367531
0.829350 0.566879 -0.352732
0.917395 0.377033 0.375113
-0.171457 0.986295 -0.911993
-0.298605 0.955577 0.362017
-0.793858 0.613043 -0.596231
-0.713723 0.699578 -0.226121
-0.942259 0.335354 -0.709702
-0.812856 0.564493 0.099193
0.707254 0.692940 0.451407
-0.176355 0.973215 -0.287772
0.597677 0.808141 -0.671223
0.512026 0.863767 -0.541681
-0.974934 0.216662 0.634856
-0.527078 0.837735 -0.471856
-0.993745 0.076924 0.537641
0.263728 0.965520 -0.323261
-0.118878 1.000310 -0.619900
0.035502 1.007650 0.455301
0.942162 0.334676 -0.061517
0.739582 0.678613 -0.944602
-0.084679 1.002910 0.915910
0.979699 0.208806 -0.695776
-0.977980 0.211704 -0.289894
0.923395 0.378680 -0.234229
0.811830 0.577748 -0.027274
-0.736688 0.671391 0.568310
0.958192 0.294257 -0.989397
-0.956357 0.313311 0.875190
-0.647309 0.761692 0.291038
0.973599 0.221061 0.895350
-0.564529 0.815659 0.634486
-0.402798 0.925219 0.856998
-0.715414 0.682731 0.195598
-0.859937 0.507915 -0.283371
-0.632530 0.770702 -0.108127
-0.264403 0.970114 0.316758
0.524907 0.849577 -0.150122
-0.581199 0.812802 0.460701
-0.992210 0.130803 -0.824598
-0.274075 0.955557 0.659304
-0.495868 0.875313 -0.590069
0.201796 0.984550 0.883412
-0.723565 0.700142 -0.679210
-0.997141 0.009312 -0.737710
0.877290 0.469615 0.614788
0.797567 0.587659 0.628542
-0.120985 0.994659 0.472599
0.051410 0.996440 0.928927
-0.219813 0.972035 -0.454466
0.985603 0.148045 0.661416
0.296254 0.959860 -0.295868
-0.264213 0.968495 0.073750
-0.263841 0.966905 -0.115037
-0.469763 0.877143 -0.986552
-0.641982 0.770962 0.147944
-0.433208 0.896058 0.493838
-0.788350 0.611654 -0.642805
-0.379590 0.911527 0.862680
-0.129732 0.985225 0.067454
-0.317394 0.943250 -0.651448
0.952534 0.324456 0.305336
0.657326 0.747628 -0.618021
-0.086690 0.990080 -0.869397
-0.930718 0.389602 0.374962
-0.529935 0.854768 -0.781097
0.957109 0.281233 -0.783470
-0.283127 0.961786 0.484242
0.765927 0.639933 -0.893161
-0.669534 0.739154 0.616032
-0.860497 0.516356 0.592524
-0.285080 0.953916 -0.717791
-0.289041 0.962712 0.043727
0.496855 0.866135 -0.803236
0.179249 0.990227 0.264790
-0.902083 0.414262 -0.871110
-0.639049 0.762749 0.878728
-0.062441 0.989860 -0.587615
0.408071 0.910636 0.367228
0.987020 0.163606 -0.737840
0.892996 0.433266 -0.579808
0.829217 0.571310 -0.090810
0.393014 0.917527 0.150532
-0.984800 0.174433 0.995285
-0.022315 0.993008 -0.948848
0.737038 0.673140 -0.997329
0.936214 0.327999 -0.301509
0.491137 0.875333 -0.260031
-0.845082 0.542585 0.762131
0.359774 0.931881 0.826746
-0.759512 0.658072 0.764727
-0.821116 0.579832 -0.715210
0.941196 0.339726 -0.178484
-0.336442 0.951816 0.491390
-0.987564 0.123395 -0.370718
0.296284 0.958513 0.323977
0.983433 0.153590 -0.531059
-0.983050 0.241901 -0.347409
-0.944876 0.360932 0.722856
-0.060512 0.995030 -0.493943
-0.153004 0.980469 0.932445
0.787254 0.607368 -0.376581
-0.847521 0.534207 -0.947369
0.002906 1.002621 -0.493819
0.998709 0.100841 -0.655239
-0.546372 0.839700 0.010866
-0.986743 0.147512 -0.776838
-0.859444 0.510167 0.245035
0.641337 0.759137 0.748368
0.983369 0.166353 -0.272237
-0.981027 0.183791 -0.663345
-0.985401 0.190486 -0.205447
-0.099401 0.991525 0.564319
-0.434713 0.897032 0.193535
0.117862 0.986536 -0.796088
0.256324 0.973813 0.070254
0.929572 0.364712 -0.061520
0.958758 0.288288 -0.334830
0.735447 0.664609 -0.776577
-0.873526 0.495548 0.948289
0.897013 0.438479 -0.634652
0.766546 0.660985 -0.623760
-0.161932 0.984077 -0.709865
0.779692 0.628081 0.134719
0.878693 0.495740 -0.116361
-0.201530 0.982533 -0.499464
0.401574 0.908487 -0.151508
-0.384387 0.917767 0.346592
-0.961281 0.278182 -0.430862
0.897415 0.452745 0.826275
-0.961005 0.273495 -0.394259
-0.946806 0.299417 -0.604338
-0.861079 0.512214 0.907444
-0.404555 0.909212 0.618145
-0.369682 0.926565 -0.319666
-0.429335 0.901501 0.685460
-0.560953 0.827332 0.040605
0.996730 0.052223 -0.311823
-0.994705 0.133589 0.674587
-0.263209 0.961603 0.505013
-0.779159 0.629218 -0.409075
0.379903 0.927513 0.214250
0.996850 0.033789 -0.253879
-0.024782 1.004925 -0.998195
-0.024550 0.999172 0.917563
0.199823 0.978840 0.101219
0.483430 0.878189 0.195977
0.711213 0.706339 0.199032
-0.085877 0.987968 0.103660
0.373559 0.918906 -0.416449
-0.990498 0.099610 0.943330
0.855586 0.517355 0.243033
0.540661 0.835357 0.352160
0.606480 0.799480 -0.084412
-0.139507 0.987962 -0.420109
-0.002313 0.995625 -0.870646
-0.433106 0.894037 -0.304568
-0.989205 0.161429 -0.642168
0.629383 0.771037 0.324898
-0.570154 0.817967 0.755122
1.002024 0.079186 -0.395706
0.681175 0.741976 -0.339066
0.115171 0.996281 0.346016
0.993393 0.092989 -0.698042
-0.360145 0.940094 0.859783
-0.525374 0.840384 -0.272520
-0.700080 0.715656 -0.801004
-0.049391 1.001084 -0.661282
-0.320547 0.942748 0.858428
0.321372 0.950652 -0.509475
1.000231 0.126668 0.320073
0.957112 0.312349 -0.686223
-0.467521 0.874574 -0.607739
-0.998830 0.015638 0.757834
0.995258 0.047566 -0.696889
-0.180784 0.989430 -0.966413
-0.707797 0.704642 0.001789
-0.851287 0.523982 0.725199
-0.137792 0.992471 -0.342557
-0.373425 0.929236 -0.743146
-0.574546 0.818960 0.965129
-0.903883 0.432686 0.345203
0.922170 0.377162 0.696882
-0.966548 0.218371 0.509756
1.003978 0.076732 0.386108
-0.869174 0.499102 -0.224157
0.974623 0.232479 -0.348822
0.822658 0.578462 0.430180
1.006904 0.015766 0.429266
0.174775 0.981619 0.910657
0.490568 0.857656 0.144377
0.877131 0.495321 -0.411355
0.158379 0.998608 -0.020269
0.299377 0.949015 0.224197
-0.750380 0.662835 -0.145866
-0.941642 0.324481 0.578897
-0.462553 0.893390 0.168834
0.926237 0.379757 -0.972077
0.603155 0.797292 0.139202
-0.965982 0.276033 0.261967
0.955815 0.278069 0.823691
0.290392 0.952895 -0.171921
-0.986398 0.173529 0.145131
-0.987282 0.160162 -0.048772
0.268643 0.961425 0.055215
-0.503246 0.857131 -0.861941
0.139045 0.981866 0.789267
-0.711723 0.693798 0.821056
0.991140 0.092856 0.094428
0.893348 0.427329 0.121703
-0.351040 0.930833 -0.884030
0.747590 0.662710 0.205628
-0.496302 0.864675 -0.138893
0.448003 0.901209 0.425214
-0.935770 0.347300 -0.906794
-0.835567 0.536952 0.423503
0.023525 1.002293 -0.420119
-0.764260 0.653276 0.307935
0.659642 0.754471 0.256907
0.028252 1.001240 -0.547957
0.807204 0.581980 -0.119889
-0.905860 0.437091 0.676955
-0.850584 0.532221 0.217913
-0.952642 0.297179 -0.865488
-0.925858 0.377334 -0.117901
-0.986255 0.122633 -0.380978
0.753981 0.659613 0.287440
-0.970765 0.205671 0.224481
-0.222449 0.969539 -0.975116
0.239339 0.972222 0.218119
-0.191881 0.987055 0.466974
0.465488 0.882729 0.545279
0.617872 0.791631 -0.889360
0.736406 0.689420 -0.384385
0.968949 0.256933 -0.155858
0.014225 0.997423 -0.650824
-0.940541 0.349411 -0.150573
-0.398808 0.922689 -0.852880
-0.060926 0.997514 -0.775706
0.232499 0.974358 0.332566
0.119042 1.001710 -0.482700
0.795571 0.611009 0.434889
-0.849058 0.528395 -0.908400
0.813041 0.586089 0.119088
-0.632981 0.776744 -0.215763
-0.736177 0.680480 0.585753
-0.238679 0.974356 0.562995
-0.908454 0.417249 -0.243906
0.608836 0.801384 0.247749
-0.938982 0.367338 -0.546834
-0.660108 0.748357 0.160905
-0.808294 0.594603 -0.839683
-0.500176 0.870824 -0.131101
-0.887583 0.470744 -0.638354
-1.001370 0.019057 0.763861
0.245111 0.969654 -0.113252
-0.829299 0.551371 0.177918
-0.704479 0.719337 -0.274017
0.137593 0.984633 -0.418667
-0.973765 0.230367 -0.598822
0.326104 0.947589 0.817771
-0.202199 0.985351 0.598145
0.942427 0.326667 -0.722701
0.754232 0.649239 0.488311
-0.877395 0.483782 -0.163745
0.317091 0.943683 -0.968763
0.334394 0.950574 0.056191
0.714357 0.703537 -0.742198
0.026088 1.005939 -0.574356
-0.807246 0.574787 0.394354
-0.947226 0.320997 -0.481487
0.978619 0.219040 0.786723
-0.229666 0.974402 0.318809
0.106290 0.991919 0.672489
-0.349916 0.942905 0.237034
0.165851 0.989214 0.749323
0.313565 0.945271 -0.270544
0.085345 1.005515 0.094934
-0.253140 0.967489 0.036017
0.007054 0.994525 0.811134
0.093453 0.992022 -0.660568
-0.839145 0.548995 0.151286
-0.693094 0.725833 0.511652
0.473608 0.883432 -0.263306
-0.811384 0.592914 0.737726
-0.891415 0.449825 -0.255044
0.893408 0.466523 -0.650985
-0.260698 0.968098 0.161045
0.622059 0.783742 -0.154898
-0.671742 0.734426 -0.968589
0.732057 0.678052 -0.859562
-0.503715 0.862149 -0.599694
0.696666 0.725692 0.536748
-0.033771 0.998355 0.785790
-0.988542 0.159067 0.091783
0.369015 0.933664 -0.787879
-0.917976 0.377291 0.079947
-1.004334 0.034419 0.711530
-0.925462 0.388855 0.496119
0.871856 0.495565 -0.408449
-0.844400 0.536825 -0.753757
0.992437 0.097778 0.793338
0.334008 0.950728 0.704473
-0.913150 0.399298 -0.898802
-0.561085 0.828074 0.638349
-0.101614 0.988815 -0.807390
0.339002 0.936852 -0.873784
-0.835592 0.558951 0.523104
-0.611189 0.791948 0.075768
0.099252 0.995623 -0.167985
-0.948330 0.332443 0.803258
0.746639 0.664983 0.683032
0.854790 0.509890 -0.877797
-0.431457 0.903292 0.234147
-1.005970 0.082934 0.546647
0.708117 0.713755 0.094658
0.698524 0.704955 0.971283
0.907591 0.425372 0.380999
-0.914593 0.427009 -0.790099
0.757706 0.650726 -0.606376
-0.001788 0.999989 0.651681
-0.991222 0.028649 0.991411
0.990243 0.033562 -0.805124
-0.175034 0.986489 -0.796101
-0.043542 0.991009 0.528171
-0.828512 0.577461 -0.866272
0.438577 0.902381 -0.861025
0.284103 0.963788 0.773313
0.867020 0.494772 0.598396
-0.689988 0.723250 0.760312
-0.776333 0.632903 0.300094
0.898022 0.437027 -0.345954
0.324735 0.950478 0.822401
-0.948052 0.335322 -0.398370
1.000355 0.011130 -0.448384
0.589921 0.802482 0.765993
-0.172767 0.990062 0.362745
0.497056 0.861712 0.787394
0.656591 0.748292 -0.680045
0.127917 0.985762 0.896563
0.842501 0.544739 0.227407
-0.094358 0.995385 0.331699
-0.602664 0.796979 0.828074
-0.230216 0.972076 -0.235164
0.954743 0.282729 0.444260
-0.883192 0.466217 0.280378
0.858486 0.519337 0.579312
-0.744747 0.666423 0.790573
0.433196 0.903060 0.361349
-0.782710 0.625309 -0.859710
0.795550 0.606502 -0.632059
0.828178 0.556684 0.905310
0.020283 0.993488 0.935906
0.992135 0.101804 0.939905
0.757295 0.659438 -0.931860
-0.648939 0.757514 -0.239825
-0.871839 0.491074 0.522353
0.966324 0.251607 0.503576
-0.932824 0.367512 -0.835447
-0.822054 0.595555 0.225732
-0.917075 0.395901 -0.719759
-0.583695 0.812243 -0.014578
-0.515035 0.854434 -0.523726
-0.072206 0.996436 -0.895166
-0.462713 0.880402 -0.844384
-0.963803 0.257614 0.825357
0.945041 0.315908 0.489846
0.550851 0.831903 0.868566
0.971343 0.224160 -0.063066
-0.990927 0.171407 -0.162750
0.170180 0.979470 -0.292709
-0.516419 0.842740 0.224689
-0.877091 0.475314 -0.288116
-0.992118 0.026488 0.494917
0.869852 0.479447 0.604342
-0.802877 0.589908 0.753846
-0.941368 0.352159 -0.511542
0.989362 0.157154 0.055543
-0.715052 0.697328 -0.557940
0.444021 0.888446 -0.920797
-0.448805 0.896578 0.418954
-0.047815 0.999758 0.105105
0.689539 0.730536 0.456676
0.919775 0.421829 -0.823102
0.930345 0.355067 0.984915
0.938603 0.304554 0.997560
-0.416990 0.902494 -0.075091
0.448381 0.895440 0.733807
0.776556 0.629374 -0.514147
-0.564191 0.817659 0.472979
-0.556152 0.825505 0.762273
-0.124085 0.990666 0.630555
-0.979697 0.196687 0.626114
0.359606 0.938506 -0.078025
-0.869821 0.491045 0.639109
0.966089 0.230736 0.377562
-0.690140 0.725540 -0.736093
-0.998645 0.037601 -0.772225
-0.891751 0.463700 0.553066
-0.255481 0.969854 0.249631
-0.384626 0.922643 0.028124
0.448181 0.895290 0.821499
-0.536301 0.840028 0.321427
-0.749464 0.656728 -0.208362
-0.999044 0.003592 -0.174322
0.026688 1.010046 0.205754
0.984535 0.184660 0.530241
-0.309644 0.952902 0.128966
0.929698 0.365764 0.008833
0.721229 0.693866 0.455440
0.510285 0.864154 0.416560
-0.663554 0.746425 0.661476
0.841611 0.544717 -0.879404
0.867862 0.501585 0.504949
0.997579 0.149844 0.022934
-0.916114 0.394824 -0.843005
-0.571750 0.820157 0.357662
0.991146 0.124919 0.424687
0.981801 0.089000 0.049175
-0.184921 0.983794 0.588303
0.624503 0.771327 -0.401748
-0.298114 0.958867 -0.601288
0.204769 0.980003 -0.303852
-0.967639 0.238373 -0.174466
0.625315 0.779562 0.393105
-0.533689 0.846075 0.693433
0.997018 0.159536 0.443060
-0.989239 0.135316 -0.650386
-1.004724 0.057600 -0.269908
-0.685235 0.732391 -0.684202
0.107207 1.003433 0.379273
0.773487 0.640268 -0.496583
-0.836234 0.562770 0.044663
-0.677643 0.739987 0.582618
0.765781 0.647767 0.346075
0.150422 0.997564 -0.393842
0.120662 0.989519 -0.325357
-0.851741 0.514730 0.302750
-0.540153 0.841139 0.105311
-0.436417 0.900527 -0.806920
-0.447495 0.892354 0.753205
0.653383 0.749844 0.029168
0.385266 0.916895 -0.059598
0.983659 0.151065 -0.600371
-0.784183 0.614972 -0.240984
0.214953 0.981360 -0.334451
0.189804 0.983856 -0.459760
0.714963 0.688821 0.126955
0.790176 0.607331 -0.072031
-0.269550 0.958867 0.779439
0.742395 0.670130 0.878077
0.977057 0.198518 -0.562682
-0.751637 0.666737 -0.799017
0.375556 0.918348 0.567882
0.373324 0.941678 0.989736
0.214554 0.977168 0.718450
-0.839584 0.551400 -0.945858
0.539786 0.843031 -0.497393
-0.727658 0.685768 -0.918812
-0.974919 0.198349 0.629260
-0.477124 0.865406 0.167960
0.213266 0.978448 0.030228
-0.709673 0.705942 0.109953
0.143331 0.989240 -0.490779
0.267545 0.960891 0.207581
-0.080965 0.991917 -0.937694
0.546635 0.840649 0.290752
0.950357 0.308848 0.466782
0.270876 0.962857 0.348157
0.921936 0.378912 -0.328780
0.279251 0.953883 0.652011
-0.183840 0.991613 0.438470
-0.973070 0.212990 -0.741540
0.993418 0.112363 -0.607808
-0.370976 0.925119 0.286242
0.131657 0.990790 -0.412904
0.996720 0.070150 -0.752741
0.703769 0.718467 -0.694050
0.935470 0.367424 -0.657805
0.784342 0.635072 -0.044829
0.647691 0.768111 0.213633
0.307879 0.953561 -0.657992
-0.088943 1.003693 0.426625
1.000036 0.007072 -0.443392
0.865829 0.487612 -0.374842
0.950600 0.291484 -0.558811
-0.159326 0.978741 0.579401
0.500846 0.860720 0.922386
-0.144421 0.980745 -0.003601
0.768688 0.633701 -0.921054
0.996955 0.077010 -0.471115
-0.994034 0.177591 -0.692913
0.933549 0.333697 0.686565
0.921617 0.388764 -0.833450
0.905732 0.445213 0.930713
-1.001764 0.054267 0.174445
-0.356961 0.936951 0.030906
-0.341994 0.940126 0.688403
-0.998851 0.043982 -0.947117
0.967724 0.268296 0.554886
-0.998523 0.079131 -0.760973
0.798092 0.603425 0.683033
-0.369989 0.931032 0.064185
0.248663 0.964662 -0.885132
0.362009 0.931547 0.664325
-0.980188 0.209386 -0.941817
0.899139 0.448545 -0.721543
-0.998589 0.002213 0.591343
0.372853 0.928070 -0.065587
-0.449900 0.895913 0.760121
-0.997449 0.096728 0.266972
0.983663 0.179520 0.249492
-0.972995 0.238861 -0.415499
-0.206630 0.982669 -0.735254
-0.599919 0.797763 0.919560
0.884685 0.448829 -0.795754
-0.113095 0.990274 0.056042
-0.527145 0.849383 -0.449363
0.140111 0.993214 -0.470496
0.878030 0.467213 0.193965
0.721550 0.694197 0.598449
-0.896504 0.448025 0.551298
0.993818 0.114743 0.729358
-0.607886 0.784110 -0.418829
-0.999207 0.005155 -0.071853
0.986175 0.024635 -0.985074
0.873101 0.482322 0.498620
-0.518079 0.855680 -0.390461
0.990494 0.178721 0.134046
-0.269925 0.967791 -0.665218
-0.553210 0.840103 0.646786
-0.275143 0.957576 0.642501
0.403155 0.908715 0.753744
-0.573257 0.805490 -0.905758
-0.286857 0.954873 0.991121
0.796436 0.604611 -0.504736
-0.196218 0.973768 -0.381815
-0.925062 0.366431 -0.504465
-0.494397 0.872148 -0.476735
0.094294 0.995939 0.105675
0.533902 0.845456 -0.523928
0.962073 0.268732 -0.217834
0.722777 0.694973 0.313324
1.003463 0.029726 0.664796
-1.000071 0.038740 0.389513
0.763763 0.641931 0.191064
-0.829927 0.550589 -0.706544
0.871222 0.505419 0.631915
0.624919 0.778727 -0.931401
0.252611 0.959599 -0.467865
0.525844 0.854989 -0.884945
-0.803528 0.591986 0.336167
-0.993792 0.145283 -0.260748
-0.914816 0.379890 0.300885
0.887958 0.465594 -0.313533
-0.761184 0.659551 -0.083732
0.902711 0.449205 -0.080634
-0.965448 0.268437 -0.911515
-0.056580 0.993488 -0.137501
0.485419 0.878414 0.288419
0.879908 0.467748 0.097798
0.991867 0.039226 -0.852255
0.715392 0.700164 0.328668
-0.961641 0.265895 -0.388861
-0.805317 0.587602 -0.972689
-0.996003 0.101469 -0.681497
0.954122 0.309902 -0.008523
-0.291236 0.952286 -0.382178
0.692066 0.729075 0.385681
-0.130999 0.988393 -0.521352
0.525708 0.846766 0.545536
0.632422 0.781614 -0.433446
-0.238287 0.975581 0.247149
0.838109 0.533616 0.597709
0.091001 0.998779 -0.216492
-0.449106 0.889342 -0.912258
0.914222 0.390255 0.078840
-0.984573 0.215775 0.997775
-0.017317 0.991788 0.935925
-0.845601 0.538039 -0.559931
-0.472411 0.878547 0.506787
-0.610280 0.788724 -0.314645
-0.637969 0.778985 -0.679458
-0.929181 0.387764 0.331933
-0.352249 0.932886 -0.006274
0.645741 0.774189 0.089929
0.958009 0.312286 0.653488
-0.322118 0.942658 -0.326585
0.977586 0.201403 0.331058
0.714044 0.680285 -0.268952
0.983823 0.190922 -0.916342
-0.145629 0.984543 -0.243984
0.881963 0.488681 0.899996
-0.337627 0.937049 -0.029451
-0.797765 0.606254 -0.782403
-0.850106 0.531997 0.379175
0.572938 0.822843 0.926710
-0.160273 0.988240 0.817047
-0.202403 0.985401 0.142715
0.089787 0.996961 -0.242423
-0.470402 0.884203 0.162968
0.784078 0.614149 0.631072
-0.990235 0.056698 0.721535
0.955209 0.305233 0.637142
