ply
format ascii 1.0
element vertex 3000
property float x
property float y
property float z
end_header
0.547912 0.658442 -0.133034
-0.122243 0.188192 -0.021036
0.717196 -0.510291 0.248385
0.394736 0.491350 -0.077959
-0.811645 -0.831038 -0.023576
0.951245 0.548836 0.621484
0.522279 0.179970 0.234350
0.572129 -0.778499 -0.272066
-0.743773 -0.840989 -0.173156
-0.099228 0.501673 -0.233539
-1.914279 1.399977 -2.694437
0.853530 0.778604 0.112446
0.287730 0.524146 -0.188618
0.645523 0.396380 0.253368
-0.125844 0.675126 -1.603323
1.441340 0.888156 -1.698133
0.991515 0.166792 -2.029042
-0.872365 -0.816880 0.084399
1.252477 -0.657920 1.580533
0.263329 -0.530655 -0.216040
0.516176 -0.213500 0.229054
-0.290948 0.484665 -0.141770
1.642930 -0.419955 -3.393368
0.786242 0.141461 0.608617
0.556767 -0.371690 0.165728
-0.610723 -0.717421 -0.139349
1.170521 -0.984462 3.763207
-0.912392 0.719361 0.318692
-0.691421 0.204834 0.461620
0.366098 -0.244023 0.075752
0.489524 0.579812 -0.101146
0.025418 -0.731408 1.460172
-0.348349 -0.492218 -0.135621
-0.259081 -0.539794 -0.209765
-0.060888 0.970729 -0.935479
-0.621057 0.412197 0.205317
-0.032688 1.417883 0.284800
-0.048590 -0.990030 -0.977646
-0.546181 -0.631380 -0.091007
0.339628 0.271083 0.030352
-1.383450 -1.591332 3.994238
0.665356 0.848561 -0.278273
-0.260399 0.612242 -0.041352
-0.375267 -0.105232 0.125074
0.664520 0.499030 0.210041
0.609529 0.950809 -0.546394
-0.225043 -0.078038 0.037236
-0.144762 0.666879 0.356955
0.364991 0.837329 -0.565737
-0.720495 -0.502651 0.258543
0.787530 -0.486228 3.254282
-0.985275 -0.804911 0.333010
1.409705 0.072655 -0.192571
1.108154 1.970497 -3.873233
0.410331 0.229212 0.111250
0.561458 -0.008930 0.318002
1.130783 0.253609 -1.425480
0.137482 -0.696673 -0.453173
-0.720406 -0.568859 0.212387
-1.908410 1.809876 3.630332
0.336806 0.195559 0.078756
-0.282816 0.543315 2.517787
1.385083 1.117685 3.727814
0.529998 0.765619 -0.289705
0.269437 -0.252156 -0.008342
0.107159 -0.107937 -0.003323
0.118414 -0.180598 -0.013587
-0.392100 -0.636114 -0.255841
-0.938364 0.463254 0.683751
-0.126565 -0.103083 0.021686
-0.465089 -1.095333 1.586064
-0.182943 0.928027 -0.829391
0.706806 0.631527 0.093253
-0.532121 0.447119 0.081286
0.646027 0.853927 -2.323786
-0.437232 0.813614 -0.461254
0.852129 0.009741 -3.354640
0.323833 0.221917 0.029453
0.193564 0.109086 1.886978
0.567796 -0.465401 0.095512
0.328627 -0.556095 -0.207803
-0.187226 -0.772186 -0.559345
0.628041 0.318628 0.282113
1.245754 -0.829013 -2.382424
-0.954576 0.521906 0.629535
-0.819904 -0.367449 0.526068
1.130623 -1.875556 1.305276
-0.076246 -0.092772 -0.008766
-0.795953 1.937021 1.416346
0.002090 0.838174 -0.712427
-0.695376 0.749646 -0.081998
0.392641 0.832117 -0.543702
-0.107687 0.700525 -0.471050
-0.534370 0.701105 -3.193930
-0.396976 -0.069000 0.163336
0.260565 -0.905053 -0.762750
-0.276375 -0.832876 -0.617793
-0.824700 -0.219448 0.626214
1.020633 -1.611469 0.412463
0.923795 -0.660119 0.416966
0.817161 0.906408 -0.136493
0.399414 -0.609161 -0.220074
1.574073 -1.983933 0.646861
0.938353 0.521678 0.595236
0.557502 0.281891 0.216753
0.433780 0.352038 0.056362
-0.101277 -0.337051 -0.107846
-0.455517 0.292854 0.117676
-0.807218 -0.626616 0.256693
0.790002 -0.789835 3.077070
-0.088447 -0.396413 -0.155580
-0.595273 -0.489627 0.119633
1.441380 1.948575 1.349602
0.158439 0.312897 -0.076353
1.867846 0.493530 2.775763
0.713229 0.264892 0.430704
0.517039 -0.681014 -0.193035
0.438926 0.346657 0.057274
-0.135814 -0.458779 -0.183148
0.254618 -0.454328 -0.137926
0.168196 -0.675640 -0.427643
0.299693 -0.335246 -0.011326
-0.869627 0.277325 3.249539
0.322300 1.684679 3.631532
-0.916772 -0.619161 0.470835
-0.012018 -0.613985 -0.358425
-0.340278 0.083477 0.101886
-0.710952 -0.742245 -0.046613
-0.793194 0.377794 0.496879
0.175289 0.887894 -0.758411
-0.658814 -0.146409 0.418546
0.850240 0.802211 0.087171
0.162122 -0.803367 -0.624738
1.081941 0.267670 2.292857
0.181831 0.442738 -0.163016
-0.954392 0.522043 0.626167
0.917118 0.686116 0.360454
-1.839899 0.567469 1.582390
0.565470 0.553814 0.022332
-0.834540 -0.246923 0.645100
-0.026683 -0.393325 -0.146493
-0.055749 -0.880259 -1.988787
0.875653 0.992032 -0.213230
0.143456 -0.872673 -0.738203
-0.053021 0.654016 -0.420850
-0.466049 0.278989 0.144120
-0.336862 0.470161 -0.121619
0.041345 0.423434 -0.185490
-0.122177 0.716869 -0.509263
0.286660 -1.985812 -0.607577
0.652584 -0.998351 -0.554298
0.792322 0.197057 0.567252
-0.719502 -0.292283 0.447902
0.108072 -0.752425 -0.553597
-0.782849 -0.627723 0.228943
0.344480 -0.336501 0.010498
-0.437532 -0.859533 -0.532959
0.318845 -0.886174 -0.681544
0.453989 0.832053 -0.499840
0.537295 -0.375795 0.146408
-0.784518 0.964461 -0.309561
0.832024 0.928734 -0.172443
0.275046 0.526877 1.015652
-0.925175 0.429849 0.670522
0.109705 0.201610 -0.034566
-0.258155 0.381294 -0.089601
0.659580 -0.807618 -0.221120
0.616503 -0.622880 -0.005858
-0.365722 -0.846723 -0.602780
0.905799 0.208268 0.769295
-0.418164 0.973182 -0.792189
0.706765 -1.169192 1.818088
1.969378 0.513512 -3.816104
0.872087 0.969170 -0.190616
-0.670784 0.356023 0.330231
-1.956102 1.567355 2.087324
-0.129806 0.734011 -0.507388
0.984751 -0.270643 0.897822
-1.330690 1.461914 -0.917490
0.497216 0.014468 0.233318
0.781585 0.874030 -0.168788
0.786893 -0.485339 0.383934
0.037717 -0.016974 0.005121
-1.374096 0.906978 2.228589
0.544025 -0.884615 -0.492268
0.323323 -0.838910 -0.597299
1.132266 -1.037377 0.980340
-0.811067 0.728149 0.126314
0.493579 -0.713402 -0.266047
-1.035839 1.869385 -3.143834
1.261405 -1.822538 -1.395257
-0.518059 -0.946288 -0.625126
0.343627 1.702770 0.554072
0.662225 0.399844 0.285325
-0.693431 0.295755 0.403654
-0.641463 -0.223893 0.368121
0.198766 0.110020 0.016979
0.749124 -0.811801 -0.096838
-0.607131 -0.691393 -0.118530
-0.379353 0.863589 -0.600912
-1.883894 0.267384 -3.579909
0.943653 0.845478 0.188419
0.001482 0.833361 -0.686654
0.904372 -1.632797 -0.888046
-0.972127 0.856477 0.221996
1.760978 1.394431 3.540776
-0.736356 -0.992768 -0.447624
0.355317 -0.874858 -0.621708
-0.756335 -0.781025 -0.039609
0.012660 -0.809293 -0.668341
0.388525 -0.296595 0.073058
-1.760437 1.388058 -0.840797
1.042366 -1.046617 1.482262
0.608249 0.180427 0.339843
0.430814 -0.707128 -0.314629
0.477968 0.495803 -0.002106
-0.737885 -0.290396 0.444759
0.653091 0.916738 -3.079561
0.855125 -0.438823 0.529800
-0.204844 -0.338799 -0.094775
-0.398103 -0.451509 -0.036643
-0.022832 0.623740 -0.394105
0.325728 0.519853 -0.155094
0.911247 0.391104 0.681299
-0.427108 -0.721990 -0.332777
0.849617 0.615668 0.338248
-0.950281 0.354352 0.769826
0.033979 -1.797735 2.628948
0.267950 0.296188 -0.006738
-0.788205 -0.032977 0.619676
-0.719321 -0.121300 0.495689
-1.109277 0.841619 3.545332
0.932464 0.036609 0.870190
0.192085 -0.800136 -0.608862
0.866046 -0.671493 0.298416
0.608722 -0.734907 -0.171934
-0.065237 0.908217 -0.825046
-0.355195 0.466389 -3.269271
-0.964326 -0.289591 0.851607
-0.781712 -0.355839 0.504105
-1.185943 -0.815622 -2.920398
0.593634 0.125932 0.352480
-0.534719 0.838320 -0.425042
0.061539 -0.400150 -0.172343
0.212032 -0.770331 -0.548596
0.735478 0.112437 0.536866
0.206214 -0.308926 -0.045899
-0.174857 0.603814 -0.321902
-0.251632 0.758847 -0.537895
-0.148236 -0.054853 0.031495
0.303862 0.942718 -0.793031
0.710774 1.311656 3.112422
1.145387 -1.172701 -2.038123
1.770876 -0.754088 1.688080
-1.160741 1.210104 2.937334
-0.161755 -0.785901 -1.400903
0.622743 0.263502 0.299636
-0.789444 -0.382503 0.462185
-0.866882 0.130633 0.732990
0.188867 -0.914050 -0.815993
-0.707654 -0.841366 -0.200633
0.649328 0.392233 0.281761
-0.379331 -0.856446 -0.602022
0.569950 -0.384909 -2.599555
0.147477 0.702131 -3.027135
-0.668937 -0.543841 0.147174
0.860081 -0.116828 1.168052
-0.692773 0.526823 0.197962
0.193377 1.713962 1.039856
-0.957704 -0.719640 0.409968
-0.889209 0.919362 -0.043517
-0.650717 0.189525 0.376331
-0.893236 0.283321 0.731459
0.182288 0.419853 -0.128387
0.361429 0.408238 -0.020500
-0.212739 0.639622 -0.365437
-0.364018 -0.033063 0.123897
0.009052 0.066717 -0.014212
0.750010 -0.352346 0.427349
0.702263 -0.789485 -0.129996
-0.913050 0.329280 0.733713
1.048848 -0.152100 1.550490
-0.526510 -0.448730 0.070999
-0.501225 -0.811540 -0.407758
0.142465 -0.618546 -0.363344
-0.167475 0.277462 -0.055290
-0.901492 0.256953 0.754020
-0.252772 -0.157890 0.042593
0.047506 -0.819656 -0.668161
-0.796656 -0.133252 0.620488
0.756440 1.634069 -2.650652
-0.786408 0.142910 -0.548430
0.849684 0.158053 0.688597
-0.801774 -0.016868 0.651520
0.687150 -0.026036 0.474051
0.805306 0.932594 -0.225559
0.959141 0.512588 0.659548
0.604052 -0.006041 0.368287
-1.365650 0.844290 -1.958382
0.284967 -0.947042 -0.826144
0.557993 0.885019 -0.458652
-0.730896 -0.361652 0.403648
0.072136 -0.488122 -0.238121
1.150128 -1.668452 3.388571
0.715144 0.437379 0.310117
0.185352 -1.847646 -1.280723
-0.229821 -0.876229 -0.708186
0.279127 -0.948997 -0.802875
-0.467073 0.199238 0.162286
-0.720463 -0.856871 -0.224665
-0.044245 0.866777 -0.741828
-0.166221 0.873813 -0.736376
0.677930 1.846786 0.192997
-0.264976 0.233278 0.014777
-0.267215 -0.416211 -0.107634
-0.345009 -0.872055 -0.643707
-0.241072 0.474921 -0.191255
0.371487 -0.796428 -0.507730
-0.406247 -0.828885 -0.512530
0.897716 -0.377554 0.675266
0.832696 -0.975069 -0.243315
-0.038179 -0.131929 -0.011539
-0.343278 0.415362 -0.077247
0.070870 0.602698 -0.364572
0.697121 0.208615 0.455704
0.305175 0.693748 -0.371925
-0.366815 -1.464124 -1.419490
1.314727 1.502886 1.891796
0.265835 0.012947 0.057435
-0.423689 -0.553928 -0.127730
0.469786 0.888291 -0.568214
-0.595191 -0.450058 0.167355
0.389596 -0.947597 -0.743877
0.721438 -0.514652 0.255773
-0.735794 -0.266625 0.471039
0.228759 -0.297301 -0.032058
0.644293 1.287825 -0.909229
0.451431 0.766254 -0.390600
-0.831014 -0.415324 0.507514
0.871880 0.041541 0.772154
-0.725184 -0.319722 0.407259
0.917760 0.643546 0.444510
0.601768 -0.684797 -0.125929
0.187364 -0.792979 -0.599557
0.565248 0.005991 0.329188
0.590230 0.343775 0.230193
1.069660 -1.836091 -3.994370
-0.493233 0.179250 0.215413
0.180152 0.547700 -0.266850
-0.809902 -0.214580 0.607736
0.232331 -0.934265 -0.825112
-0.657417 -0.767801 -0.157667
0.325838 -1.351588 -3.509266
0.144861 -0.342113 -0.071711
-0.068030 -0.009017 0.002147
0.045264 -0.287365 -0.084267
0.527847 0.121199 0.258517
0.598489 -0.038782 0.374455
-0.015694 0.355886 -0.142799
0.199187 0.333924 -0.068236
-1.106841 -1.308610 -0.326311
-0.760533 -0.307571 0.469576
-0.765793 0.170296 0.549247
0.621143 0.963091 1.097658
0.315727 -0.370600 -0.046305
-1.049129 -0.714583 2.425560
0.548643 0.388090 0.167687
-0.814213 -1.469095 2.351240
-0.332724 -0.729898 -0.436581
0.796733 -0.117916 0.612411
0.525064 0.785412 -0.344034
-0.458930 -0.927389 -0.652955
-0.271616 0.710328 -0.429270
-0.371120 -0.673644 -0.312941
-0.684777 0.014497 0.486014
-0.704433 -0.151327 0.473289
0.872255 -0.979741 -0.210586
-0.124192 0.830794 -0.663257
-0.233360 -0.090150 0.058960
-0.968762 -1.913685 -1.313724
1.803306 1.354029 -3.380948
1.297919 -1.335708 0.901734
0.560603 0.844779 -0.401487
-0.041261 0.113665 -0.031774
-0.247281 -0.594644 -0.286819
0.973263 0.370495 0.818897
0.435520 0.097956 0.194494
0.902389 0.889059 0.016572
-0.763043 -0.121456 0.569745
0.701067 -0.462973 0.279630
0.274148 -0.723426 -0.447334
-0.756157 0.397267 0.415100
0.176516 0.948219 -0.867590
0.372193 -0.943312 -0.749193
-0.975395 0.480891 0.727546
-0.091364 0.853861 -0.708528
0.773232 0.566332 0.855058
-0.409282 -0.779660 -0.442081
-0.082904 0.383914 -0.144743
-0.115372 0.295927 -0.079919
-0.396145 -0.862345 -0.602868
0.836884 0.668845 0.253262
0.562588 0.046848 0.319104
-0.778823 0.814395 -0.058224
0.994069 0.755982 0.416576
0.758400 0.625016 0.188711
-0.432183 0.031798 0.199882
0.673793 -0.496579 0.203209
-0.787161 0.011951 0.607763
0.998209 -0.798377 0.358112
0.331369 0.317692 0.027713
0.300250 -0.732046 -0.457350
0.756386 -1.087018 2.876070
0.794067 -0.891236 -0.152180
-0.942001 -0.400975 0.702930
-0.518344 -0.535839 -0.014341
-0.614620 -1.758346 2.227141
1.464799 1.521130 -1.209900
0.246287 -0.944605 2.467644
0.821276 0.700567 0.177794
0.312538 0.721535 -0.426219
-0.927675 -0.315462 0.758043
-0.989140 0.318008 0.872362
-0.896684 -0.194774 0.762661
0.211850 -0.691618 -0.421547
-0.378465 0.547912 1.232457
-0.522894 -0.827281 -0.428465
0.698818 0.756944 -0.072551
-0.885536 0.848580 0.062167
0.601928 0.643226 -0.055305
0.855591 0.125056 0.715284
0.544217 0.115197 0.284994
0.396242 0.969215 -0.787610
0.675960 -0.504197 0.207768
-0.919697 -0.848103 0.116942
-0.596436 0.123882 0.337371
-1.987680 -1.381609 0.669036
0.009062 -0.355322 -0.114450
-1.594440 1.452727 3.962150
0.260024 0.192479 0.037265
-1.003753 0.520814 -3.128495
-0.689574 -0.624283 0.091281
0.469242 -0.919136 -0.624701
-0.613917 -0.271277 0.307185
-0.458483 0.757938 -0.373876
0.419809 -0.326658 0.057822
0.960410 0.358148 0.793105
0.223087 0.513094 -0.220295
-0.890999 -0.343798 0.689937
0.232618 0.643281 -0.355949
-0.915299 0.383759 0.683336
-0.247075 -1.144116 -2.210219
0.419157 -0.998015 -0.819012
-0.653744 -0.929818 -0.437861
-0.816558 0.981732 -0.294313
-0.632934 0.564568 0.082555
1.364338 0.685697 -3.575548
-0.082879 0.804606 -0.662032
0.568162 -0.959114 -0.600828
1.463962 0.558763 0.059788
0.144826 -0.097709 0.007804
-0.709740 0.579116 0.180720
0.892049 -0.986568 -0.178035
-0.397315 -0.423601 -0.008007
-1.861290 1.037055 0.037820
0.399552 0.586042 -0.173290
-0.437989 1.396756 -1.107782
0.881189 -0.397488 0.618669
-0.703122 -0.379275 0.362759
0.016705 0.933528 -0.868472
-0.191931 -0.121576 0.027601
0.849089 -0.924967 3.042717
-0.025561 -0.898347 -0.785352
1.715367 1.902473 -1.410958
-0.443849 0.105343 0.165960
-0.390591 -0.135329 0.130736
-0.144194 0.653430 -0.430654
0.221975 0.818102 -0.630869
0.269258 0.864220 -0.648792
-0.176378 0.128592 0.010773
-0.182434 -0.115703 0.005617
-0.564743 0.410480 0.150694
0.176612 0.676647 -0.435637
0.234333 -1.727984 0.947474
-0.927880 0.399962 0.692097
-0.163200 0.499459 -0.220117
-0.051735 0.352788 -0.133253
-0.548814 0.492267 0.084860
0.948641 0.068783 -3.127704
0.131544 -0.003251 0.015838
0.404004 0.176537 0.129125
0.295897 -0.995044 -0.908094
0.304866 0.711925 -0.421503
-0.367572 0.220049 0.078803
0.574864 -0.741727 -0.202907
0.098289 0.632714 -0.396193
-0.137164 0.434114 -0.190935
0.252025 0.516599 -0.215018
-0.278685 -0.215915 0.040323
1.515015 -0.583311 1.368605
0.473411 -0.171945 0.193212
0.772806 0.141018 0.589041
-0.561699 -0.895231 -2.030593
0.007266 0.289746 -0.077576
0.040550 0.436352 -0.195437
0.599741 0.134219 0.347433
-0.371099 -0.006882 0.133755
0.674765 0.619873 0.068649
-0.011717 0.362745 -0.123246
-0.768287 -0.443852 0.400740
-1.392748 -1.772056 -1.038148
0.683986 0.414534 0.291282
-0.888864 0.975878 -0.146267
-0.438777 0.942523 -0.689930
-0.331740 0.837819 -0.595801
-0.654011 0.510743 0.160341
-0.372213 0.218859 0.100893
0.485385 -0.655659 -0.193136
1.212911 0.990286 -2.697825
0.294137 0.251645 2.540853
0.713096 0.041714 0.510144
-0.255477 0.736478 -0.477699
-1.582693 1.470396 -3.706119
0.201681 -0.238119 -0.003432
-0.760655 0.011929 0.583772
-0.270161 -0.135349 0.068415
-1.243571 1.218409 2.049212
0.990929 -0.692943 0.508673
0.544210 0.675235 -0.149733
-0.378077 -0.031231 0.152157
0.375330 -0.902555 -0.664573
0.410813 -0.967017 -0.760044
-0.224317 -0.053049 0.067075
0.281777 -0.671243 -0.376565
-0.084332 -1.279542 3.973530
-0.581885 0.590647 -0.012419
0.050177 -0.543407 -0.296454
-0.672497 0.184354 0.398379
0.506004 1.151958 -3.471942
0.672609 -0.392835 0.287823
0.978266 0.777591 0.354055
0.933361 0.347313 -2.528884
0.678139 0.771777 -0.129560
0.980643 -0.549504 0.651852
-0.716808 -0.339951 0.386888
-0.103509 -0.058096 0.009282
-0.214855 -0.039840 0.037568
-0.839901 0.995296 -0.290921
0.510660 -0.771109 -0.332118
-0.132442 0.703930 -0.469977
-0.061346 0.727364 -0.533479
1.127939 -1.066983 2.634880
-0.638147 -0.311926 0.310168
0.814207 0.038452 0.666847
-0.910702 -0.415065 0.671727
-0.534295 0.598215 -0.083103
-0.415881 -0.003442 0.169766
-0.019605 0.851684 -0.713224
0.172890 0.245383 -0.010591
-0.013420 0.028639 -0.010571
-0.831769 0.422139 0.506251
-0.512665 0.007866 0.266575
0.687177 0.809013 -0.188067
0.275177 -0.631108 -0.330167
0.298298 0.946697 -0.804809
0.340407 0.624381 -0.258481
-1.511948 -1.760614 -1.587853
-0.883783 -0.034184 0.794887
-0.735654 0.947287 0.544083
0.079055 -0.386452 -0.139637
-0.323087 0.523896 -0.154174
0.688958 -0.719100 -0.039188
-0.034855 -0.385896 -0.150676
-0.419107 -1.528536 3.079533
0.704031 -0.355361 0.367647
0.009583 -0.225966 -0.045755
0.819104 0.640209 0.259017
0.174248 -0.486648 -0.197853
0.700549 0.490562 0.236175
-0.063607 -1.570811 0.007456
-0.002366 0.531478 -0.296553
-0.389309 1.744049 -2.871168
-0.790041 -0.196602 0.570216
-0.202895 0.444956 -0.163737
0.834675 0.830277 -0.003752
0.261664 0.601426 -0.278448
-0.644987 -0.219107 0.358093
-0.322289 -0.031573 0.090008
-0.616794 0.558715 0.070756
-0.950354 -0.414811 0.747972
0.854921 0.607765 0.360350
-0.103585 -0.343858 -0.107895
-0.384930 0.611981 -0.213442
0.196954 -0.826399 -0.635362
-0.985371 -0.911205 0.144915
1.451275 1.803571 -3.063313
0.406067 0.738914 -0.376544
0.267540 0.765695 -0.528319
0.963612 0.902560 0.107697
-0.095094 -0.145380 -0.016234
-0.044988 -0.426329 -0.166712
0.522865 -0.739950 -0.269763
0.806656 0.002418 0.631394
-1.179431 1.346864 -2.279690
0.396285 1.820342 -2.365504
0.564010 -0.991994 -0.667661
0.733603 -0.713607 0.016435
-0.771792 -0.507048 0.336102
0.464827 -0.602087 -0.128771
-0.119823 -0.548443 -0.282424
0.106208 0.312095 -0.083935
0.308205 -0.344976 -0.034194
0.939630 0.230049 0.813593
0.969156 0.780516 0.317777
-0.423544 0.205114 0.120524
0.467507 0.389066 0.067941
0.499967 -0.268993 0.181448
1.294529 0.550225 -0.399536
-0.752260 -0.358832 0.438615
-0.918106 0.928565 -0.004625
0.554686 0.243623 0.267902
-0.020601 -0.444978 -0.189877
-1.218256 1.091301 3.582010
-0.070053 0.671026 -0.437988
0.955834 0.336887 0.813644
-0.176848 0.121306 -0.003512
0.587364 0.770326 -0.233584
-0.830361 0.344879 0.565113
0.110923 0.285459 -0.074533
0.604120 -0.620464 -0.023564
0.849403 -0.787223 0.104967
0.645166 0.930284 -0.460302
-0.926059 0.197717 0.815644
-0.254595 -0.168633 0.041634
-0.902603 0.178042 0.785179
0.426445 1.469136 0.338912
0.350611 0.644255 -0.295375
0.426516 -0.566709 -0.132306
0.547441 0.609092 -0.060737
0.730913 0.068757 0.539471
0.478863 -0.446856 0.033906
0.601743 -0.939580 -0.511327
-0.902073 0.631667 0.423443
-0.530930 -0.647080 -0.110061
-0.820340 -0.788679 -2.718435
0.716251 0.511755 0.250234
-0.991000 -0.299914 0.883016
0.029259 -0.221332 -0.050743
0.354575 -0.505865 -0.133494
-0.940785 0.718357 0.374155
-0.197289 -0.405341 -0.132381
0.252808 -0.083385 0.209787
1.398124 -0.339222 0.854115
-0.524683 -0.593701 -0.093513
0.705562 -0.364690 0.363468
-0.303937 -0.834128 -0.611817
0.706689 -0.682940 0.020421
-0.402113 -0.165894 0.127803
1.915197 0.523237 -0.329532
-0.206120 -0.885419 -0.741379
-1.286297 -1.692518 1.107911
0.773115 0.816691 -0.074669
-0.624813 0.780029 -0.218104
-0.830377 0.358902 0.570858
-0.316146 -0.519053 -0.154760
-0.257229 -0.548952 -1.673534
0.614863 -0.577558 0.046739
0.997487 -0.742823 0.441362
0.963529 0.400054 -3.022320
-0.184116 0.151643 0.014805
-0.726357 -0.280135 0.462378
0.149744 0.221649 -0.045592
0.995160 -0.407491 0.821950
0.401762 -0.308299 0.069756
0.190426 0.581347 -0.301965
-0.215262 0.756629 -0.535542
-0.841719 -0.049994 -0.975931
-0.006167 0.143032 -0.012357
-0.731266 -0.443675 0.330333
-0.269243 -0.893331 -0.743097
0.552477 0.840132 -3.311924
1.811022 1.453529 1.773288
-0.685735 1.885863 -0.672362
-0.093440 -0.025909 -0.001086
-1.782432 0.578008 -1.042299
-0.313415 -0.810889 -0.547157
-0.159236 -0.303974 -0.083191
0.918419 0.904572 0.009603
0.503926 0.230271 0.194639
0.329717 -0.739968 0.376064
-1.142056 -0.669465 0.235642
0.793994 0.200547 0.596635
-0.684519 1.776324 3.450265
-0.349315 0.085088 0.117568
0.818130 0.503901 0.421024
0.022369 -1.855316 -2.787394
-0.853644 -1.856187 1.814287
0.181490 -0.905232 -0.799441
0.306878 -0.950444 -0.819450
1.462614 -0.651693 2.326658
-0.517256 0.766691 -0.321746
-0.355015 -0.511874 -0.133657
-0.689117 0.148111 0.438453
0.748629 0.368612 0.425296
-0.433506 -0.878340 -0.592306
0.122979 -0.693799 -0.476926
-1.018017 -1.831810 0.775750
0.567648 0.340186 0.195293
-0.123227 -0.121930 0.006385
-0.047485 0.468390 -0.218815
1.651444 0.471386 2.759423
0.349195 0.516745 -0.149523
0.629277 0.984494 -0.577297
0.805108 0.508722 0.408134
0.575180 0.704358 -0.181520
-0.629641 0.664733 -0.032577
0.124341 0.460532 -0.180083
-0.796212 0.603604 0.277274
0.305844 0.869366 -0.665562
0.910699 -0.049585 0.841183
0.025464 0.276574 -0.079062
-0.134055 0.029879 0.010020
-0.928315 0.702074 0.364977
0.919549 -0.137281 0.821023
-0.793995 0.639454 0.212060
-0.917842 0.598709 0.495081
1.249503 1.419083 0.893502
0.589834 -1.805765 -3.118771
-0.089764 0.419239 -0.182141
0.032176 0.513839 -0.262687
0.162900 -1.570014 0.268828
-0.898079 0.813805 0.132463
-0.776799 0.147052 0.580700
1.130794 -1.311231 1.262970
-0.878943 -0.665418 0.334165
0.396379 0.949925 -0.740150
-0.585959 -0.489965 0.101983
-0.395857 0.449472 -0.048679
-0.211748 0.591590 -0.297230
-0.166781 -0.117569 0.008362
-0.996679 -0.577613 0.668076
-0.775859 -0.622079 0.227334
0.725529 0.712992 0.009621
-0.997534 0.021513 0.987667
0.016335 -0.819726 -0.677141
-0.020996 0.434039 -0.202619
-0.333812 -0.499658 -0.142922
-0.990938 0.829200 -0.363586
0.561162 -0.380856 0.159396
0.859350 0.599922 -1.618019
-0.479303 -0.830283 -0.463973
-0.355019 0.023062 0.146647
-0.515034 -0.098525 0.248735
-0.040273 0.502624 -0.252449
0.366517 -0.070795 0.120221
-0.543494 -0.312368 0.190935
-0.444316 0.835726 -1.574054
0.860769 -0.443707 0.548794
-0.902861 0.855696 0.093232
-0.078461 -0.669843 -0.455689
0.423116 0.976353 -0.767689
-0.699092 -0.346161 0.359188
-0.905252 -0.823220 0.128418
-0.723589 -0.502619 0.273343
0.837646 -0.883171 -0.076055
-0.981480 0.580060 0.627368
-0.623356 0.025106 0.395118
1.337974 -1.687821 0.979861
-0.778741 0.324099 0.516095
0.240299 0.261293 -0.022434
1.012569 -1.873609 -3.342035
0.138424 0.922521 -0.813061
-1.419519 -0.823095 2.249152
1.139167 0.690957 0.836698
-0.990517 0.584850 0.625240
1.345161 0.289469 2.553430
0.265986 0.029887 0.548586
-0.674513 -0.843482 -0.256323
0.545875 0.516042 0.025508
0.710983 0.923666 -0.354516
1.247759 1.549143 -3.085083
-0.495365 -1.162706 1.539453
-0.091085 0.865960 -0.742511
0.206849 -0.547622 -0.236105
0.049020 -1.775722 2.213317
-0.276928 0.855716 -0.647262
0.626319 0.920452 -0.457378
-0.363202 -0.744235 -0.432881
0.598427 -0.301992 0.258180
0.201468 0.396289 -0.130148
-0.567289 -0.556883 0.020802
-0.171948 -0.350459 -0.097104
-0.364729 -0.953418 -0.766454
1.200284 -0.611561 -3.391628
-0.299597 -1.434960 0.389220
-0.307043 0.306180 -0.011167
-0.961932 0.297824 0.839630
-0.669024 0.556721 0.135469
-1.225788 -1.553951 3.302612
0.992020 -0.500576 0.938780
0.477161 -0.968839 -0.704805
-0.365694 -0.586740 -0.194124
-1.090096 -0.901268 2.894932
0.187661 -0.643586 -0.371134
-0.747947 -0.959711 -0.355901
-0.712563 -0.685105 0.057358
0.386191 0.332199 0.042503
-0.654112 0.259171 0.367693
-0.551903 -1.972053 -1.870183
0.983549 0.596337 0.604007
-1.851201 -1.289082 -2.934953
-0.966840 -0.724887 0.421988
0.986169 0.128144 0.946025
0.169278 -0.876810 -0.732682
-0.001678 -1.647176 3.530358
0.794604 -0.219483 0.592401
0.760761 -0.144372 0.552766
0.072401 -0.440348 -0.196572
0.243584 0.371661 -0.075015
-0.453626 0.681889 -0.262120
-0.898961 0.537034 0.507414
0.189135 0.255504 -0.010125
-0.410490 0.076690 0.154706
0.327242 -0.937832 -0.782377
0.672490 0.445868 0.251024
-0.963679 0.089966 0.933112
1.121454 -0.655365 -0.992282
0.562679 -0.647814 3.337061
0.747777 0.871214 -0.208957
-0.492671 0.248724 0.183506
-1.369502 1.018608 -3.448206
0.107082 0.241843 -0.027103
-0.207667 -0.172515 0.014610
0.355242 -0.059635 0.115559
-1.906578 -1.206587 3.052469
0.133876 -0.120293 0.004349
0.516844 0.371184 0.131127
0.966834 -0.920116 0.092542
-0.161455 0.590055 -0.322111
0.029166 -0.434041 -0.201312
-0.975060 0.365120 0.814027
0.592057 0.285451 0.275116
-0.258340 -0.616545 3.951111
-0.184077 0.216258 -0.006155
-0.811856 0.918204 -0.183671
0.779313 0.016688 0.604873
1.003156 0.489154 -3.674194
0.365163 0.410899 -0.052875
-0.701252 -0.527465 0.206782
0.854832 -0.061507 0.098972
-0.984155 -1.425669 2.067036
-0.956404 -1.783668 0.684469
-0.624518 -0.648112 -1.056293
0.825166 -0.218079 0.637919
-0.575705 0.207729 0.296459
-0.060398 -0.560220 -0.297448
0.466990 0.608584 -0.149164
0.756731 -0.124927 0.566297
-1.875944 -1.709795 3.999504
-0.250759 0.451368 -1.388969
0.483433 -0.060069 0.220915
0.462272 -0.943561 -0.679904
0.084369 0.746333 -1.030848
0.139868 -0.312580 -0.090032
-0.790770 0.898506 -0.198512
0.807947 -0.351752 0.524812
0.731145 0.127612 0.515650
0.596195 -0.485225 0.121056
-0.800275 0.240225 0.588289
-0.591205 -0.065915 0.347060
0.487201 -0.258743 0.167847
-0.953720 -0.592621 0.549230
0.958449 -0.776957 0.323733
1.513150 0.755119 1.223561
0.438625 0.998080 -0.808110
-0.652542 0.858620 3.008501
-0.210740 -0.996141 -0.955212
-0.361735 0.905858 -0.695032
0.217482 -0.960040 -0.880003
0.551781 1.611108 -3.558137
-0.181720 0.434955 -0.149606
0.203550 0.829198 -0.642067
1.791777 -1.435591 0.236332
-0.728137 1.939556 -3.443096
-0.606516 0.948884 -0.512956
-0.245588 -0.921361 -0.783001
-0.211786 0.973784 -0.897972
-0.737783 0.698783 0.051151
-0.674257 0.857860 -0.273041
0.369124 -0.490455 -0.110855
-0.321045 -0.715084 -0.422980
0.909797 0.326631 0.736306
-0.512807 0.031719 0.249473
-0.802151 0.046336 0.645688
0.507009 0.849238 -0.472951
0.762072 0.240162 0.534343
-0.443773 -0.377872 0.066777
0.717998 -1.103304 -2.151694
1.260207 0.954951 -0.072555
0.044025 -0.615372 -0.376671
-0.063167 -0.713300 -0.482465
-0.946087 -1.516165 3.120397
1.984087 0.888782 -2.664260
-0.037017 0.060690 -0.001617
-0.753214 1.964872 1.971071
0.305038 0.336989 -0.023017
-0.008987 0.625811 -0.408130
-0.778616 0.762466 0.028756
-0.495127 0.094032 0.222452
1.362688 -0.346684 1.067414
0.529607 0.022612 0.276532
0.753422 -0.050940 0.557490
0.803284 0.730864 0.102488
0.969137 -0.227252 0.856552
0.964733 -0.208175 0.878865
-0.877212 -0.726242 0.847444
-0.856356 0.037403 0.725605
-0.724413 0.089700 0.520601
-0.391067 0.320922 0.063869
0.394594 -0.098496 2.668362
-0.806044 -0.564325 0.341508
-1.853432 -0.921606 3.271480
1.333648 -0.678228 3.292014
1.564935 0.961748 -0.180472
0.533728 -1.366421 3.790200
-1.985725 -1.329902 -2.990820
-0.679376 0.073230 0.448283
0.703866 0.657296 0.068694
0.168456 -0.722297 -0.508152
0.470259 0.819874 -0.461931
-1.882973 -1.317266 0.067254
-0.713900 0.869373 3.291152
-0.190290 0.020333 0.037986
0.520030 -0.927950 -0.580337
0.544706 -0.005819 0.287452
-0.530144 0.377695 -2.366729
0.883078 -0.314624 0.686077
-0.758689 0.298203 0.478698
0.792244 -0.004606 0.621595
-0.799209 -0.813564 -0.041719
-0.470920 -0.853917 -0.504501
0.176616 -0.304437 2.381277
-0.641016 -0.618230 0.018400
-0.172864 0.216602 -0.006817
0.958644 -0.459959 -3.776088
-0.509482 0.763439 -0.340921
-0.801905 -0.053825 -1.604895
0.702669 -0.817737 -0.184515
0.749150 0.751492 -0.006679
-0.321356 -0.409345 -0.060099
-1.999565 0.024610 -3.939934
-0.503187 0.918053 -0.603935
-0.510407 0.888738 -0.534189
-0.677492 0.429834 0.265278
0.880038 -0.862122 0.018533
-1.420401 1.064754 3.700434
0.792455 -0.301240 -1.727812
0.035323 0.893832 -0.815827
-0.018784 -0.787995 -0.620402
0.059491 -0.208065 -0.051806
0.124205 0.400631 0.851128
-0.130874 -0.740544 -0.518582
-0.736490 0.389597 0.395263
-0.748672 -0.452303 0.357707
0.904499 -0.310268 0.716565
-0.035938 -0.819282 -0.669263
0.906411 -0.004065 0.827197
-0.672846 -0.683664 -0.010033
-0.740823 -0.176285 -1.831745
-0.584566 -0.713316 -0.164928
-0.493631 0.907700 -0.593413
-0.939891 -0.710035 0.371902
-0.762093 0.043774 0.585946
0.833697 -0.606040 0.336186
-0.356934 -0.847276 -0.589539
0.216258 -0.595383 -0.292923
-0.069972 -0.890452 -0.782928
-0.199098 -0.721205 -0.482828
0.063772 -0.013032 -0.008300
-0.625522 0.303631 0.313473
0.977208 -0.825320 0.281485
0.636616 -0.117963 0.409348
-1.441161 -0.379602 0.974842
-1.741808 -0.430013 1.709545
-0.434215 -1.327392 -3.451641
0.841332 -0.856330 -0.054094
-0.317226 -0.559738 -0.203491
-0.785768 0.298427 -3.651249
-0.315193 0.980884 -0.861810
0.588914 0.992530 -0.650558
0.245417 0.959243 -0.860808
0.501677 -0.153827 0.229864
0.587271 -0.838639 -0.350602
-0.576091 -0.352853 0.210105
0.847567 -0.524571 0.449832
-0.124021 -0.971747 -0.930152
0.278027 -0.809533 -0.566229
-0.168355 -1.533472 -0.705410
0.986737 -0.320675 0.858948
-0.438207 -0.639293 -0.202777
-0.875874 0.432200 0.592614
-0.083476 -0.285769 -0.070041
0.155413 0.270367 -3.613269
-0.695347 -0.518046 0.231722
0.264566 0.076787 0.047766
-0.214145 -0.631722 -0.340802
-1.620331 1.287967 -1.367872
1.638072 -1.223446 1.586550
0.452360 -0.676843 -0.252283
0.878939 -1.030031 -3.188796
0.319903 -0.472428 -0.125816
-1.518631 -0.582982 -3.741552
-0.054432 0.859537 -0.737942
0.900122 -0.913993 -0.031379
-0.314573 0.130296 0.075697
1.147302 0.813550 3.324857
0.356188 -0.498782 -0.104407
0.692015 -0.094457 0.448554
-0.919493 -0.824524 0.193633
-0.100735 0.442540 -0.183657
0.784975 -0.556606 0.312179
0.499237 -0.613229 -0.131175
0.983615 -0.370243 0.830384
-0.299434 -1.942777 -3.005372
0.319991 0.592933 -0.259666
-0.395039 0.893785 -0.650852
0.895071 0.303925 0.720628
-0.267329 0.325843 -0.050232
0.477021 -0.039938 0.230365
-0.193720 0.810373 -0.622882
-0.947714 0.691557 3.174845
0.439565 -0.289880 0.128906
0.017868 0.280750 -0.088046
0.814173 0.092279 0.643061
-0.161398 -0.751960 -0.541265
0.294144 -0.214549 0.032804
-0.315275 -0.373349 -0.039927
-0.183687 0.693668 -0.445880
-0.119900 -0.242315 -0.041994
-0.748386 0.643110 0.145252
0.358992 -0.515270 2.904546
0.334980 0.507001 -0.138405
1.360764 1.986111 2.290855
0.325819 0.849300 -0.620109
-0.960467 -0.038880 0.935785
-0.346906 -0.480404 -0.111657
-0.604380 -0.517021 0.108885
1.109596 0.118586 0.369924
0.721261 -0.266552 0.462044
-0.506639 0.435039 0.074336
0.188775 -1.311914 -2.582686
-0.741274 0.338075 0.434553
-0.449695 0.094333 0.190886
-0.722691 -0.102804 0.490045
-0.432958 0.656389 -0.236205
0.724638 -0.201589 -1.484357
0.820654 -0.413925 0.510394
-0.594955 0.906841 -0.469558
0.084158 -0.209769 -0.030272
0.577994 0.081983 -1.630433
0.905845 0.933640 -0.062821
0.665418 -1.343318 -1.412445
1.850453 -1.289393 2.630227
0.250956 0.172274 0.025576
-0.359018 -0.762446 -0.461464
0.952257 0.578284 0.575727
-0.200648 -0.437370 -0.155288
0.370855 0.390430 -0.029232
-0.953545 0.820179 0.262001
-0.199877 -0.637980 -0.367438
1.362351 -1.124005 -2.203111
0.220455 0.294238 -0.044674
-0.112114 -0.160683 -0.014981
0.871875 -0.650362 0.335443
-0.729364 -1.547418 3.464221
-0.355569 -0.186804 0.090739
0.089097 0.298418 -0.062563
-0.020351 0.147968 -0.025805
0.264405 -0.687518 -0.398506
-0.331777 -0.098613 0.110572
-0.511590 -0.261058 0.205525
0.825344 -0.451595 0.490373
0.847749 0.458542 0.505697
0.686646 -0.380696 0.326498
-0.444210 -1.723882 -1.595395
0.489983 0.846447 -0.478349
0.529334 0.078552 0.284937
0.470085 -0.068230 1.787644
-0.038785 -0.853508 -0.727837
-0.087096 -0.643732 -0.389813
-0.519547 -0.798098 -0.370870
0.289638 0.529626 -0.203775
-0.421360 0.671842 -0.278509
-0.484383 -0.627089 -0.169839
0.171923 -0.561457 -0.279452
-1.250442 -0.124004 2.054216
-0.562287 0.182155 0.289086
0.632112 0.243592 0.336085
0.721140 0.373508 0.379954
-0.664601 0.810386 -0.236814
-0.984986 -0.409920 0.805925
-0.327740 0.317518 0.007584
0.595022 0.119446 0.328778
0.678348 -0.388326 0.308312
-0.723342 0.814830 -0.143304
0.548672 -0.809033 -0.335851
-0.768592 0.424002 0.400344
-0.219875 0.455747 -0.156047
0.997219 0.830653 0.293554
1.241047 -0.850621 0.663141
-0.692073 -0.356755 0.354459
-0.154399 0.655481 -0.407930
0.239337 0.541621 -0.236131
0.865802 0.000631 0.752939
0.961642 0.535715 0.632829
-0.860719 -0.464249 0.534151
-0.724005 0.179013 0.489083
0.373542 1.320565 -1.097897
-0.458736 -0.364031 0.081533
0.769698 -0.032900 0.593623
0.326907 0.902090 -0.700456
-1.146198 0.059568 -0.165162
0.665059 0.774078 -0.152204
1.175570 -0.255779 0.054906
-0.153009 0.993011 -0.973346
0.104370 -0.694869 -0.486226
0.001532 0.037541 -0.018114
0.372326 -0.041453 0.154535
0.305373 0.596864 -0.285122
0.984084 0.817236 0.312485
0.998844 0.462279 0.775779
0.032919 0.253632 -0.051381
-0.809602 -0.145142 0.612364
0.455687 0.020652 0.204873
1.574854 -1.849659 -0.092589
-1.080832 -1.713659 -3.645273
0.124751 1.264337 -2.044448
-0.150446 0.711942 -0.503657
-0.897162 0.418548 0.616492
0.344529 0.591417 -0.217183
-0.293325 -0.219030 0.034583
0.574928 0.057946 0.326466
0.664240 -0.933033 -0.426500
0.642462 -0.234004 0.344971
-0.166668 -0.051168 0.029233
0.912382 1.982029 0.714520
0.497642 -0.937518 -0.628356
0.322851 1.325328 -0.317273
-0.017485 -0.129825 -0.032280
0.786062 -0.168644 0.585179
-1.357924 -0.874712 3.374478
0.758138 0.075661 0.572989
-0.807810 -0.123946 0.637503
-0.692949 -0.052031 0.486452
0.067680 0.161743 -0.023616
-0.169997 0.599866 0.740153
-0.894386 0.815392 0.130264
-1.070654 1.697341 0.863858
-0.127367 -0.098151 0.009504
0.549248 -0.585254 -0.046419
-0.930323 0.047565 0.848349
0.304515 -0.439540 -0.089416
0.646255 0.720013 -0.108214
1.462863 -1.716388 3.561006
-0.706273 0.277511 0.445334
0.721602 -0.502241 0.276479
0.646249 -0.961188 -0.490132
0.077884 -0.191691 -0.036061
0.638400 0.072973 0.412939
-0.814488 -0.080906 0.657111
-0.211037 0.924029 -0.805632
0.475595 0.413678 0.075269
-0.485096 0.991340 -0.750222
0.504658 -0.409880 0.086871
0.008357 0.578107 -0.343170
0.500532 0.111117 0.247070
-0.667435 1.631135 2.959338
-0.308306 -0.348581 -0.143362
-0.561622 0.307974 0.204071
-0.583241 0.797634 -0.290563
0.502982 0.451500 0.042701
-0.762179 -0.745228 0.032858
-0.828035 0.398847 0.526428
-0.647417 -0.031369 0.412812
1.947878 1.060926 -2.031376
0.646215 0.613669 0.032501
-0.202987 -0.791731 -0.577256
0.980777 -0.732169 0.415366
-0.725577 -0.860778 -0.217147
0.307080 -0.013510 0.097568
-1.149810 1.545943 0.288400
1.136839 0.881404 -0.419213
0.750168 0.104717 0.549362
0.951191 0.671770 0.456226
0.745718 -0.440408 0.341401
-0.615399 0.038282 0.365264
-0.558404 -0.765041 -0.277226
0.512354 1.840764 2.726101
-0.421833 -0.649990 -0.260552
-1.451046 0.805124 -3.919316
0.132841 -0.589899 -0.327736
0.101818 0.612463 -0.363341
1.714359 -1.219341 2.844714
0.421066 0.228855 0.125716
-1.186987 0.745101 3.539441
-0.320741 0.111819 3.353949
0.203117 -0.619878 -0.338547
-0.027616 -0.876752 -0.775892
-0.479631 -0.102387 0.220537
-0.162688 -0.595029 -0.316168
0.515821 0.398542 0.119556
0.653223 -0.286614 0.357828
0.122446 -0.101292 0.007589
-0.229261 -0.773030 -0.544699
-0.458606 0.135101 0.187580
0.043837 -0.628952 -0.411733
0.954985 1.136033 -1.526802
0.128190 -0.857662 -0.720833
0.353305 0.951789 -0.782161
-0.867842 0.369054 0.631070
-0.997865 -0.636541 0.603698
-0.575446 -0.971811 -0.620143
0.789023 -0.331074 0.521130
0.292582 -0.694373 -0.401321
-0.656079 -0.563177 0.120097
0.780528 0.745501 0.061513
-0.060088 0.206409 -0.026573
-0.047816 -0.647085 -0.421359
0.871084 0.113319 0.756089
-0.141826 0.861462 2.195359
-0.569643 0.952402 -0.569613
0.171543 -0.934486 -0.844087
-0.198633 1.020300 3.492992
0.359054 0.545994 -0.189564
-0.910446 0.497063 -2.850609
-0.801686 -0.656261 0.225576
-1.626699 0.827173 2.233605
-0.154532 0.736310 -0.511137
-0.647723 0.074000 0.414415
-0.348885 0.219482 0.227429
0.720564 0.566026 0.200742
-0.359206 0.656246 -0.310948
-0.278483 -0.047431 0.075867
-0.889459 0.017586 0.806841
-0.285261 0.436012 -0.103756
-0.470386 -0.473315 -0.003929
0.220970 0.708979 -0.431267
-0.589219 -0.958426 -0.559809
0.776731 -0.608457 0.241259
0.859333 0.600400 0.381147
-0.800338 -0.319484 0.545774
-0.785194 -0.700334 0.133689
-0.769347 -0.626490 0.177577
0.239139 0.061513 0.057353
-0.756062 0.692363 0.090655
0.704765 -0.858699 -0.245668
0.508543 -0.939038 -0.625131
0.639618 -0.069664 0.388699
0.052121 0.912375 -0.847757
0.993354 -0.441980 0.803871
-0.911650 0.918341 -0.007623
0.605509 1.986381 -3.564585
-0.352127 -0.433730 -0.069892
0.897291 0.633896 0.412112
0.153722 0.371735 -0.117356
0.612382 0.023645 0.386903
-0.659318 -0.154168 0.421430
0.957268 0.631006 0.504628
-0.002721 0.586159 -0.345008
-0.012656 0.513873 -0.268386
0.941769 0.996512 -0.119999
-0.238535 -0.042975 0.040509
-0.204950 0.613846 -0.342863
0.169505 0.724957 -0.503239
-1.831750 -1.151395 1.928988
-0.357829 -0.915867 -0.700329
-0.613583 -0.190503 0.345330
-0.793433 0.713473 0.127995
0.732289 -0.421793 0.355672
0.178662 0.400020 -0.122066
-0.282654 -0.985304 -0.892414
-0.182661 -0.289271 -0.054727
-0.898381 -0.843674 0.571454
0.266298 -0.740486 -0.500709
0.853539 0.793214 0.080607
0.865559 -0.687452 0.280429
-0.217016 0.819587 -0.627277
-0.341475 -0.567221 -0.219505
-0.097907 0.988557 -0.978206
0.135868 0.209497 -0.034673
-0.076364 -0.831310 -0.676322
0.317507 -0.869446 -0.643001
0.108798 -0.850157 -0.694534
-0.358569 0.179785 0.080359
-0.308538 0.619158 -0.301832
-0.242814 -0.194075 0.006938
-0.810720 -0.110328 0.657984
-0.667875 0.178575 0.418340
0.446228 0.066081 0.195554
-0.221807 0.376123 -0.089974
-0.570922 -0.056429 0.322200
0.125345 0.427721 -0.178446
0.511079 0.994621 -0.722938
-0.485155 -0.299404 0.143871
0.653580 -0.975569 -0.536572
1.920046 0.166220 2.215158
0.194789 0.107028 0.022230
0.337895 -0.311484 0.019426
-0.218688 -0.237014 2.300307
-0.171404 -1.004643 -3.449854
-0.215031 0.040710 0.046782
0.847801 0.596079 0.354619
0.485347 0.547013 -0.011135
0.113101 1.826735 0.508863
-0.922916 -0.993878 -0.130906
0.360838 0.239355 0.083272
0.125336 0.869514 -0.746506
-0.946935 0.575720 0.571912
-1.534094 0.802434 -1.748767
0.704291 -0.206091 0.452352
-0.007165 0.648478 -0.423219
-0.068485 0.101663 0.008833
-0.989054 0.237080 0.920457
0.573299 -0.882169 -0.443471
-0.338568 -0.596897 -0.259275
0.757527 0.101929 0.559940
-0.253879 -0.882398 -0.722635
1.342827 -0.840914 -0.709477
0.046733 -1.831433 -1.306705
-0.678823 0.840725 -0.245284
0.549816 -0.796463 -0.330790
-0.006819 0.879440 -0.789264
0.072976 -0.864760 -0.747745
0.930832 -0.051888 0.867803
0.927160 0.680502 0.397400
0.711284 -0.859378 -0.255609
-0.624781 -0.963538 -0.543723
0.188545 -0.950105 -0.856941
0.756295 0.022540 0.577356
-0.251072 0.623194 -0.313153
-0.797788 -0.745147 0.071365
0.621926 -0.750780 -0.164069
-0.036473 0.137094 -0.017908
0.128785 -0.531409 -0.249887
0.722352 -1.379973 -3.492281
0.214423 0.899271 -0.783186
-0.150041 0.532067 -0.252090
-0.260031 0.754351 -0.505864
-0.164761 0.039172 0.021850
-0.763202 0.664639 0.126202
0.589501 -0.634194 -0.038468
0.675434 -0.863304 -0.294294
-0.431206 0.311906 0.104403
-1.081849 -1.151827 -3.539278
0.748668 0.784963 -0.064940
-0.952059 0.383108 0.772840
0.040915 0.904401 -0.817001
-0.072649 -0.372227 -0.133911
-1.380528 1.927854 -0.444107
-0.673217 0.483381 0.214987
0.336661 -0.514442 -0.147023
-0.246532 0.083698 0.040781
0.237430 0.318935 -0.050737
-0.919810 0.957617 -0.075185
-0.076546 0.489407 -0.232995
0.044502 -0.763738 -0.566520
-0.571347 -0.049333 0.321004
1.950224 -0.345227 -3.483004
-0.623051 -0.706754 -0.083844
1.432067 0.541818 -3.683372
-0.806380 -0.431988 0.461728
-0.257037 -1.340378 -1.131130
-0.190012 0.024084 0.032757
0.617939 -0.668734 -0.064579
0.948834 0.181075 0.876706
-0.838529 -0.660606 0.270771
0.303339 0.447190 -0.097193
0.742818 -0.609517 0.190708
0.268469 0.792570 -0.554006
-0.141948 -0.947581 -0.873998
-0.137847 0.043995 0.028154
-0.928202 -0.359790 0.720998
0.069201 -0.549847 -0.272561
0.987086 -0.056794 0.965987
0.917415 0.684039 0.370231
1.053244 1.750212 3.024158
0.411594 -0.393503 0.002744
-0.396470 -0.691513 -0.311261
0.805978 0.440281 0.478456
-0.909770 0.163997 0.795115
0.871748 -0.597968 0.405853
0.674951 0.520592 0.186746
-0.764991 0.037861 0.593781
-0.798828 -0.361280 1.773435
0.669415 -0.281322 0.384185
-0.688485 -0.121805 0.456788
0.069796 -0.639316 -0.398566
-0.629743 -1.874854 2.939958
0.134896 -0.685977 -0.452569
-0.205533 0.556605 -0.278525
-0.109968 0.596016 -0.351130
-0.873766 0.493202 0.531700
-1.605627 -1.502475 3.486424
-1.714772 -1.460505 -3.120508
-0.621273 -0.063325 0.384581
-0.427905 0.191089 0.158561
1.554240 1.416129 1.645919
-0.811428 -0.248788 0.592056
0.734606 0.750047 -0.002745
-0.762407 0.512284 -0.320154
0.660038 -0.257439 0.358084
0.951795 -0.895436 0.105281
0.684309 0.484979 0.243289
0.886765 -0.698694 0.272712
-0.746130 -0.485960 0.322315
0.591577 0.550466 0.043226
0.091351 0.069433 -0.012896
0.086991 -0.972055 -0.936503
0.797843 -0.995530 -0.355890
0.943608 0.021321 0.889700
-0.809965 -0.404128 3.489932
-0.034123 -0.639377 -0.417852
-1.714832 -0.966569 -0.651408
-0.227317 -0.543127 -0.250221
1.369176 -0.511139 -3.028867
-0.216986 -0.241468 -0.008893
-0.820494 -0.626508 0.280006
-0.845128 -0.723791 0.179971
0.559740 -0.526279 0.032600
-0.107854 -0.940336 -0.865227
0.861369 -0.383746 0.599743
0.224442 0.803909 -0.600668
-0.929648 0.662724 0.398928
1.049155 -0.788019 2.203290
-0.588360 0.151667 0.318338
0.951472 0.134721 0.878078
-0.562592 0.657475 -0.119896
-1.520011 0.856759 -3.947617
1.408239 0.683213 2.248964
-1.075971 -1.354146 -1.654017
-0.527279 -0.918260 -0.580262
-0.901765 -0.370624 0.672767
-0.692796 0.755828 -0.110699
-0.873343 0.823975 0.079527
-0.609752 -0.780729 -0.248198
0.137139 -0.083883 0.024583
0.824898 -0.237302 0.628241
0.074438 -0.021282 0.015236
-1.385371 1.279416 -1.731855
-0.596265 -0.959482 -0.575271
0.601167 0.684484 -0.117633
0.235578 0.947328 -0.839279
-1.200513 1.971408 0.499030
0.897686 0.320904 0.706985
-0.304198 0.055960 0.085658
-0.818842 -0.331453 0.558753
-0.548142 -0.702044 -0.192720
-0.124317 0.168127 0.007455
0.891387 -0.910117 -0.021406
1.770774 1.983801 3.294729
0.862164 0.868264 2.770956
0.080953 -0.170492 -0.019520
-0.634382 -0.345658 0.287904
-0.358532 0.938708 -0.756759
0.306384 -0.650166 -0.337286
0.345707 -0.697384 -0.356510
-1.673827 0.540673 1.997612
-0.542709 0.317055 0.203496
0.443814 0.983791 -0.754412
-0.662254 -0.529050 0.163893
0.873339 0.811235 0.108205
-0.624193 -0.442767 0.225577
-0.785375 0.295800 0.531387
-0.004705 -0.919002 -0.855448
-1.627688 -1.390977 3.316749
0.417048 0.749520 -3.082821
-0.126665 0.072640 -0.002174
0.989630 -0.524329 0.696921
0.573822 0.972463 -0.924152
-0.044107 0.940273 -0.884884
-0.156468 -0.081608 0.016720
-0.866349 0.271839 0.687397
0.185913 0.580827 -0.309964
-0.544064 -0.517022 0.014008
0.275218 0.728901 -0.469440
-0.898333 -0.439598 0.619574
0.962774 0.551662 0.625195
-0.061990 -0.775802 -0.604951
1.430747 -0.587822 0.128909
-0.048878 0.067240 -0.004838
-0.879338 0.049844 0.781917
0.644427 0.700862 -0.084280
0.296367 0.992254 -0.903362
0.563514 -0.785578 -0.311490
-0.143660 -0.457224 -0.192089
0.275873 -0.284804 -0.001626
-0.505593 -0.854894 2.693006
0.262131 -0.012181 0.070742
-0.402225 -1.760243 -2.282582
0.325059 0.541119 -0.178517
0.343708 -0.962297 -0.800918
0.921174 -0.089956 0.834693
-0.258175 0.236148 0.033909
-0.149836 -0.079209 0.015933
0.624246 -0.738710 -0.153645
0.011525 -0.205052 -0.036400
-1.883310 1.517006 2.756328
-0.080581 -0.624568 -0.368338
-0.569010 0.512614 0.055100
0.490408 -0.357199 0.120743
0.370338 1.001664 -1.424385
-0.602833 0.031460 0.372245
0.253650 0.754854 -0.507616
0.494540 -0.755970 -0.330426
1.723678 0.730915 1.250919
-0.454827 -0.399361 0.050959
0.471827 1.530479 3.899935
0.912093 -0.402916 0.683029
-0.691154 0.526374 0.207949
-0.604666 -0.509468 0.105321
-1.010775 -1.705235 3.427086
0.058783 -0.172400 -0.022625
0.765651 0.546759 0.293882
0.521092 0.701124 -0.235979
0.416315 0.466690 -0.040724
-0.649639 0.115773 0.415153
-0.284635 0.448383 -0.143555
-0.043190 0.362779 -0.127781
-0.705148 -0.531267 0.221936
-0.453141 0.101518 0.200839
-0.383334 0.541219 -0.137949
-0.745448 -0.365759 0.418637
0.821548 1.909022 -0.406713
0.410056 -0.037039 0.148777
-0.860137 0.006318 0.750718
-0.037754 -0.819890 -0.663763
0.564422 0.332434 0.219745
0.495980 0.731374 -0.296163
0.630146 -0.717137 -0.109164
-1.602073 1.431305 -3.433696
0.641114 -0.902665 -0.412472
-0.518494 -0.940736 -0.614889
1.409818 -0.512454 3.857423
-1.273507 -1.023929 2.603529
-0.065031 -0.288962 -0.081671
-0.215880 -0.450246 -0.164775
-0.518146 0.960025 -0.662345
0.503561 -0.495498 0.001177
1.076656 -1.972787 -0.684958
0.727454 1.421989 -2.205671
-0.738219 -0.859021 -0.181824
1.213230 -0.237536 0.991010
1.984777 0.298578 -0.022820
-0.261454 0.351497 -0.048199
0.308646 0.821931 2.006928
0.526311 0.492208 0.031821
0.860007 0.539500 0.441804
-0.004136 0.448214 -0.205354
1.719585 1.983226 3.460020
-1.453673 -1.427711 0.605985
0.997659 0.980291 0.037213
0.227033 -0.514749 -0.210577
0.779559 -0.451523 0.402047
0.817217 0.627053 0.266373
0.582903 -0.679206 -0.120496
-0.078137 0.321167 -0.102092
-0.837692 0.510053 0.442040
-0.968389 -0.925679 0.091877
0.119132 0.539473 -2.315444
-0.011371 0.151755 -0.001165
-0.185275 -0.393114 -0.120937
0.136335 0.752689 -0.543836
0.104325 -0.674501 -0.451595
0.673226 -0.271611 0.390883
-0.782686 0.697337 0.125061
-0.549645 -0.618715 -0.084640
0.586010 0.642748 -0.075473
0.695674 -0.841862 -0.227454
0.989648 -0.021542 0.983123
0.745824 -0.849339 -0.163395
0.779798 0.355807 0.481088
-1.133152 0.526102 -0.883973
-0.196677 0.699717 -0.458614
-0.463830 0.962524 -0.715924
0.212599 0.344031 -0.068557
-1.027992 -0.074113 3.928707
-0.310718 0.011517 0.104384
0.114004 0.825474 -0.668425
-0.407401 0.287517 0.087145
-0.660400 0.767103 -0.154003
-0.609629 -0.529096 0.074282
-0.884109 -0.006524 0.779447
0.748141 1.216941 -1.375727
-0.194241 -0.594557 -0.326158
0.668242 -0.577320 0.107574
0.362659 0.956086 -0.781227
-0.616158 -0.130779 0.351215
-0.649076 -0.636369 0.009226
0.623976 -0.337072 0.291208
-0.470577 -0.205248 0.163289
0.826570 0.246171 0.620787
-0.719889 0.846029 -0.209188
1.685425 -0.040174 1.644638
0.628948 0.303398 0.301548
-0.529487 0.399845 0.110605
-1.459541 -0.996833 -0.991858
0.728825 0.383685 1.076341
1.465044 0.588039 -2.896182
-0.140086 -0.787239 -0.589875
-0.134969 0.946512 -0.891466
-0.493930 0.728277 -0.288851
1.902133 -0.879564 3.585975
0.543699 0.350341 0.181581
-0.243364 -0.065963 0.072408
0.670252 -0.353744 0.334793
1.268994 -0.815879 -3.067280
-0.991388 -0.727945 0.479283
0.142335 0.098636 0.011493
1.284286 -0.274553 -3.912437
1.625037 -1.891528 3.686939
0.684711 1.279137 1.521186
0.037829 0.877221 -0.767410
0.619881 0.277182 0.290154
-0.821916 0.799201 0.031528
-0.209531 -0.781458 -0.567926
1.665760 -1.690843 3.432787
-0.256914 0.698924 -0.411379
-0.546592 -1.873094 2.747545
-0.609008 -0.609714 0.019901
-0.179902 -0.469957 -0.187011
-0.041166 -0.454133 -0.202141
0.723629 -0.105602 0.496310
-0.352253 1.440596 -0.522348
0.380804 -0.457452 -0.053752
0.965974 0.297025 0.846581
0.616297 -1.745333 3.637493
-0.193291 -0.319272 -0.062302
0.846694 0.379504 0.558435
-0.508249 -0.648301 -0.162943
0.459630 -0.558144 -0.086182
0.509146 -0.598667 -0.088305
-0.804424 -0.998148 -0.350453
-0.063537 -0.052464 0.016921
-0.598875 -0.922082 -0.504176
-0.629249 -0.454120 0.180013
-0.072344 0.989607 -0.955452
-0.421141 0.836792 -0.517082
0.180089 0.390963 -0.018464
0.815210 -0.379995 0.519617
0.605441 -0.072591 0.353223
-0.467938 0.688827 -0.252751
1.336509 -1.992045 3.031167
-0.490543 -0.747517 -0.317950
-0.729924 -0.751102 -0.042963
0.887597 -0.166535 0.762741
-0.195904 0.740191 -0.514799
-0.550621 0.764170 -0.290632
0.693342 -0.785268 -0.123256
-0.201609 0.148595 0.040263
0.124405 1.828454 -1.986951
-0.676117 0.372259 0.325059
-1.476766 -0.551873 2.295061
0.565811 -0.090461 0.311255
-0.578131 -0.833834 -0.356988
0.834791 0.158508 0.667549
0.701994 -0.182967 0.472507
0.696761 0.621798 0.078487
-0.544678 -0.319311 0.191757
-1.564538 0.872812 -1.100221
0.734847 -0.452599 0.326703
-0.388400 -0.684965 -0.320724
0.237833 -0.387039 -0.087299
0.519934 -0.930168 -0.579699
-0.743414 -0.437508 0.348311
0.561677 0.320235 0.199249
0.064649 1.000520 2.104604
0.456750 -0.777270 -0.410904
-0.117555 -0.735229 -0.541407
0.091695 0.803546 -2.009938
0.054915 0.749271 -0.546056
0.489542 0.888230 -0.552422
0.641012 -0.906878 -0.411217
0.498706 0.520144 -0.031397
0.108054 0.624647 2.579147
-0.764312 0.993819 -0.384745
-0.523323 -0.304259 0.172417
0.005750 -0.428982 -0.166745
0.010554 -0.093836 -0.005050
0.165289 0.713150 -0.481094
-0.209796 0.457187 -0.161004
0.318481 0.331304 1.199702
0.826307 -0.510874 0.440363
-0.506550 0.454031 0.055650
0.473046 0.709054 -0.273573
0.355944 -0.200098 0.082442
0.046181 0.337171 -0.103161
-0.622940 -0.199576 0.338655
0.590465 -0.043013 0.347888
0.921253 0.049821 0.875057
0.443673 0.551452 -0.132295
0.835720 0.955012 -0.211288
0.784697 -1.078163 3.313170
-0.264094 -0.264520 -2.804172
0.276447 -0.252818 0.010461
0.757055 -0.763891 3.801214
0.973257 -0.406123 0.779775
-0.812384 -0.827105 -0.021915
-0.175250 -0.144211 0.005040
0.751078 -0.665285 0.141737
-0.431897 -0.307187 0.089652
0.575586 0.587156 -0.007757
-0.234434 -0.508145 -0.209942
-1.270190 1.080204 -3.465449
0.767060 0.802363 -0.048071
-0.397359 0.133858 0.144169
0.540386 -0.612415 -0.093308
-0.326287 -0.310468 0.002549
0.212726 0.180738 0.029448
0.316962 0.013222 0.092655
0.659191 -0.702760 -0.052931
-0.951098 -0.106407 0.883819
-0.559684 0.086133 0.315911
0.423836 -0.465335 -0.043764
0.127046 0.224891 -0.044067
-0.008790 -0.859680 -0.746096
1.926096 1.732267 0.879112
-0.303448 0.608554 -0.274210
0.730200 -0.481430 0.302111
-0.938214 0.210354 0.825046
-0.207128 -0.179941 0.010244
0.890297 -0.367080 0.646445
-0.898239 0.832263 0.120606
0.499411 -0.313477 0.159413
-0.484775 -0.526648 -0.042591
0.733218 0.818603 -0.129786
0.492136 0.491889 0.017765
0.771410 0.363599 0.461293
-0.568150 -0.900930 -0.498323
0.062586 -0.737590 -0.534330
1.749715 -1.460571 0.316764
-0.508601 -0.581134 -0.081148
-0.538507 -0.548724 -0.017098
-0.945636 0.558277 0.575535
0.917031 -0.428150 0.655132
0.420034 -0.856825 -0.548723
0.349710 -0.039780 -3.790077
0.487989 -0.113644 0.234481
0.063226 0.234257 -0.047515
1.409461 1.012909 0.653026
-0.100936 -0.778391 -0.619283
0.280878 -0.606654 -0.285460
-0.596930 0.059601 0.329980
-0.004665 0.201422 2.536378
0.623505 -0.034925 0.385922
1.439050 -1.076118 2.237082
0.157219 0.089783 0.012146
-0.717945 -0.169759 0.501983
0.944692 0.978880 -0.061141
0.805785 -0.869569 -0.109354
0.843795 0.864227 -0.021035
-0.335674 0.003324 0.128317
-0.661731 0.007513 0.442957
-0.576456 0.843929 -0.387667
-0.819997 0.014648 0.666678
-0.759779 -0.123186 0.547622
-0.857391 -0.455023 0.527649
0.979646 0.317634 0.848315
-0.851885 0.139290 0.703015
-0.734916 -0.571309 0.216313
-0.123896 -0.076263 -1.848341
0.160480 0.288174 -0.069928
0.548834 -0.205332 0.253989
0.261824 -0.991198 -0.914447
0.764350 -0.106838 0.567878
0.256974 0.802325 1.853305
0.044250 -0.850003 -0.727609
0.425499 -0.138780 0.147296
1.734638 1.605683 -3.983057
-0.420223 -1.756898 -0.803144
-0.064695 0.310983 -0.095629
-0.660572 -0.382769 0.290961
0.593143 0.995297 -0.634608
-0.478592 0.832604 -0.457362
-0.692937 0.170620 0.444715
-0.507295 0.933894 -0.630568
1.838506 -0.082341 -0.861693
-0.339597 -0.362203 -0.012010
0.372100 0.499193 -0.120282
0.712819 -0.726336 -0.016676
-0.844511 0.369103 0.587641
0.530049 -0.017836 0.297925
-0.384669 -0.966348 -0.783352
-0.566755 -0.451540 0.127920
0.377803 0.910764 -0.698853
0.797049 -0.759131 3.564362
-0.409962 -0.637091 -0.241167
-1.371565 1.131507 -3.565568
-0.420332 -0.041573 0.191062
0.108571 0.685299 -0.455347
-0.054052 -1.979751 3.420226
0.220671 -0.126296 0.020111
0.247093 -0.582546 -0.261847
-0.729840 -0.907870 -0.286423
0.387081 -0.074739 0.148726
0.349501 0.629551 -0.277621
0.376262 1.388207 0.956340
-1.963270 1.810541 1.106862
-0.106322 0.189405 -0.020698
-0.181930 -0.127507 0.005092
-0.826577 0.158032 0.654663
1.979071 0.720650 0.124733
-0.794575 0.474081 -3.703787
-1.982429 -1.200162 1.548611
-0.525876 0.881222 -0.508995
0.659500 -0.143944 0.412116
0.091597 -0.968167 -0.928941
0.520843 -0.527253 0.010961
0.726858 1.878193 3.678511
1.785284 -0.706700 1.457200
0.239439 0.104770 0.051310
0.855941 0.429104 0.557223
-0.016375 -0.450704 -0.198323
0.057315 0.329807 -0.102671
0.203994 0.408065 -0.117791
0.475030 -0.177438 0.169903
-0.856299 -0.195662 0.715856
0.031375 -0.642150 -0.395475
0.440459 1.896762 0.316285
0.843370 0.573633 0.368088
-0.012987 0.817946 -0.656763
-0.063359 0.187226 -0.037978
0.924400 -0.401259 0.698845
-0.098847 0.364579 -0.135976
-1.816682 -0.111612 3.539252
-1.524444 0.452009 0.749236
1.854414 -1.856056 -0.169734
-0.998864 -0.852608 0.249566
-0.136109 -0.978493 -0.939334
0.538485 -0.754058 -0.282891
0.466933 -0.687983 -0.243923
0.314782 1.471671 -1.356611
0.139966 -0.150037 0.008466
-1.793145 -0.640564 0.691056
0.882153 -0.141850 0.755252
-0.665270 -0.210318 0.395731
0.253278 -0.397077 -0.088564
-0.347523 -0.724201 -0.400011
0.283123 0.311831 -0.009858
-0.175483 -0.726791 -0.494763
0.519286 0.550849 -0.027163
-0.538642 -0.596624 -0.074804
0.811584 0.462743 0.448425
0.000419 0.611172 -0.357449
0.512186 -0.749348 -0.315988
-0.685583 -0.283058 -3.497467
-0.214306 1.943420 1.441406
-0.552109 -0.073906 0.313974
-0.426215 0.260471 0.121075
-0.499134 -0.953479 -0.658985
-0.474257 -0.442580 0.033344
0.164889 0.010795 0.019722
0.987045 0.772437 0.373720
0.980556 -0.457121 0.739174
0.053546 0.550383 -0.285184
-0.029623 1.580179 2.612119
0.719941 -0.769458 -0.082912
0.865867 -0.413250 0.581664
-0.592279 -0.524272 0.087527
0.057083 -0.114945 -0.000026
0.665674 0.270668 0.360584
-1.091080 -1.528309 3.479382
-0.120382 -0.510927 -0.242601
0.971242 0.391758 0.780969
-0.866208 -0.742322 0.298144
0.812214 0.038628 0.667702
0.596897 0.108839 0.355576
-0.461739 -0.556199 -0.078707
-0.358300 0.360862 0.010521
0.094566 -0.224999 -0.024186
-1.629402 -1.101609 2.640725
1.772302 1.203796 2.340144
0.273341 0.193675 0.036797
-0.183354 0.205329 -0.021435
0.498348 -0.319399 0.171158
-0.332900 0.719700 -0.406516
-0.338646 0.690916 -0.350396
-0.745548 -0.781891 -0.061015
-0.622576 0.390077 0.245080
0.701042 -0.212330 0.421926
-0.107435 0.999430 -0.991422
-0.544264 -0.549953 -0.007208
0.518682 -0.438952 0.080979
0.107962 -0.115787 0.008969
-0.957688 -0.462570 0.692254
-0.367277 0.383987 -0.005954
0.100973 0.264428 2.713352
0.311746 -0.558242 -0.190990
-0.449938 0.012748 0.209348
-0.870106 0.777576 0.147866
-0.890130 0.584791 0.437633
0.163455 -0.002342 0.045004
-0.208110 -1.381865 1.045206
0.697584 -0.640227 0.076513
-0.689206 0.756766 -0.113888
0.213133 0.420334 -0.140567
-0.110624 0.144327 -0.002279
-0.114297 0.758869 -0.559280
-0.856406 -0.756619 0.141494
0.791835 -0.876336 -3.503880
0.786105 -0.566575 0.281269
-0.977967 -0.758845 0.394113
-0.642792 -0.068783 0.410536
0.807808 -0.225214 0.597199
0.098987 0.882347 -0.758837
-0.699921 -0.352041 0.369491
-0.594419 0.629804 -0.030070
0.319972 0.497654 -0.144472
0.449634 0.335848 0.090765
0.198854 0.840801 -0.670256
0.924568 0.277776 1.541364
1.685477 -1.164499 3.828558
0.723867 -0.654829 -1.369034
-0.045534 -0.448476 -0.192578
-0.280667 0.759553 -0.506951
-0.551168 -0.051236 0.280494
-1.490990 -1.050902 3.272177
-0.295575 -0.567776 -0.231301
0.195863 1.746398 -3.390004
-0.963124 0.433331 0.724873
-0.121643 -0.426616 -0.164161
0.288019 0.515433 -0.180053
0.220808 0.259576 -0.027511
0.553297 0.575125 -0.038166
0.621039 -0.498181 0.134982
0.423412 0.262056 0.117133
-0.794405 -0.692529 0.155648
-0.049955 -0.272406 -0.080518
0.206812 0.448720 -0.157209
-0.508868 0.263337 0.198472
-0.914896 -0.624279 0.435585
-0.552819 0.716685 -0.207397
-0.090211 -0.893298 -0.776447
-0.172139 0.190431 -0.019381
-0.646666 0.967641 -0.506597
-0.583636 -1.254312 2.845778
0.851373 0.601344 0.361000
-0.597303 0.190362 0.317104
0.859146 0.566177 0.427907
-0.964278 0.311188 0.831133
0.849925 0.382264 0.552715
0.903858 -0.544378 0.519624
-0.975896 0.483642 0.723168
0.526039 -0.524180 0.009353
0.940403 0.961281 -0.048509
0.811804 -0.544426 0.359929
0.941420 -0.526632 0.618700
-0.479217 1.595305 2.239806
-0.843688 -0.514028 0.432297
-0.505456 -1.049502 0.295604
0.227657 0.429280 -0.134595
0.229473 -0.682503 -0.402240
-0.165493 -0.681857 -0.451495
0.143684 -0.027283 0.018691
-0.692840 -0.512607 0.222360
0.479540 -0.528684 -0.050420
-0.645259 -1.293028 -1.283795
0.459562 -0.259101 0.120196
0.697957 -0.363499 0.370245
-1.935719 -0.459427 -0.420613
0.019661 0.242466 -0.046735
-0.375571 0.253310 0.086174
0.938917 -0.858399 0.150685
0.466249 -0.365917 0.080280
1.987987 -1.122833 -2.384457
-0.650385 0.164334 0.410321
-0.560841 -0.176051 0.284379
-0.072155 -0.069796 0.019352
0.885137 -0.583440 0.428071
0.468293 0.623763 -0.185851
-0.569512 0.828009 -0.351374
0.719122 0.821328 -0.165630
-1.924240 -1.137997 -2.046546
0.703444 -0.378519 0.364930
-0.516601 -0.678754 -0.177955
0.415983 1.605275 -0.063745
1.326097 1.124777 -0.747774
-0.484212 0.266211 0.146999
0.385853 -0.620707 -0.221442
0.877643 -0.720739 3.768943
-0.698803 -0.793801 -0.125945
-0.823195 -0.986244 -0.288330
0.348390 0.709890 -0.383331
-0.320528 0.407540 -0.058930
-0.857511 -0.289280 0.656295
-0.049389 0.190999 -0.036066
0.507541 -0.552912 -0.033856
-0.429755 -0.663221 -0.241258
-0.329906 -0.057702 0.107065
0.691399 -0.293624 0.385817
0.040144 0.230460 -0.038441
0.685464 -0.563702 0.131876
-0.107221 0.325855 -0.090246
0.905950 0.533723 0.543281
0.301589 -0.666728 -0.361853
-0.768202 -0.912283 -0.232388
-0.798036 -1.829745 -0.955216
-0.021470 0.548048 -0.305353
-0.716722 0.301560 0.432385
0.411341 -0.798432 1.287030
0.375068 -0.194321 0.111607
-0.905255 -0.530109 0.518648
-0.426812 0.063558 0.180986
-0.720425 -0.591269 0.169852
-1.783585 -1.770013 -0.150486
-0.171292 -0.606067 -0.334080
0.043753 -0.417473 -0.173165
-0.440727 0.013090 0.204616
-0.935913 -0.026580 0.880828
0.716332 1.734476 2.900739
-0.252564 -0.125111 0.051054
0.302670 0.838947 -0.616944
-0.782666 0.679868 0.147327
-0.972445 0.758227 0.373224
-0.503412 0.259033 0.184591
-0.086905 0.270016 -0.054241
-1.475897 -1.795961 -1.079236
0.327749 1.242938 1.460015
-0.244325 -0.355788 -0.080917
0.060882 0.184006 -0.020719
-1.811137 -0.442546 1.887672
-0.956337 -0.985087 -0.066242
1.036808 1.912246 2.644732
0.733127 1.030216 2.302355
-0.157440 0.049590 0.032099
-0.799425 0.229976 0.590737
0.565641 -0.603658 -0.045384
-0.755903 -0.258513 -3.736059
-0.955462 -0.619808 0.536537
0.202746 0.769030 -0.538976
0.527688 0.525981 0.001117
-0.430385 -0.518514 -0.062900
0.575111 -0.698512 -0.159139
0.264710 -0.367535 -0.078950
0.858325 -0.204099 0.677851
0.962010 -0.508431 0.650083
-0.915308 0.997783 -0.161921
-0.110124 -0.540695 -0.282544
0.093976 0.661270 -0.421620
-0.706514 -0.681764 0.034072
-0.327428 0.960489 -0.806897
0.975295 -0.548953 0.650300
-0.967539 -0.156623 0.911736
-0.094984 0.117128 -0.010472
0.685309 -0.759429 -0.092857
-0.352197 0.633640 -0.292772
0.414980 0.831159 0.538328
-1.954260 -0.307701 -1.606721
-0.050246 0.099268 0.000488
-0.738157 0.205281 0.502528
-0.896557 -0.889028 0.013530
1.866365 0.708521 3.716390
-0.468381 -0.677616 -0.225849
0.008128 -0.395897 -0.156645
-0.818596 -0.710172 0.185453
-0.152690 0.843843 -0.686034
0.860211 0.025909 0.739509
0.004826 0.247150 -0.062513
0.942270 -0.285024 0.812277
-0.482329 -0.447508 0.026494
0.009090 0.006354 0.001500
1.242809 1.611354 3.978105
-0.103495 -0.312708 -0.083823
-0.441025 -0.094498 0.189074
0.004064 0.587306 1.153091
-0.220221 0.968628 -0.888794
-0.626176 -1.035595 -0.172824
0.953054 -0.024048 0.911960
-0.627033 -0.700977 -0.072137
-1.080743 -1.388832 0.251887
-0.937861 0.434621 0.700276
-0.216325 -0.651076 -0.384364
-0.599633 0.162703 0.347096
0.360070 -0.166598 0.094853
-0.637357 -0.896841 -0.393541
0.349625 0.866150 -0.630623
-0.473049 -0.172794 0.198438
-0.289564 0.567853 -0.240958
-0.302279 -0.167373 0.055466
-0.785781 -0.214239 -2.683960
-0.066981 -0.419059 -0.155708
-0.277402 -0.175539 0.050811
0.705245 0.517729 0.216440
0.143901 -0.312665 -0.066098
-0.572338 -0.271286 0.245060
0.800183 0.989646 -0.331674
-0.314699 0.111229 0.092195
-0.922041 0.378761 0.712863
-0.010800 0.286924 -0.063677
-0.752124 0.655848 0.127267
-0.034387 -0.946370 2.821131
0.494222 0.126512 0.240846
-0.738496 -0.410888 0.370115
-1.997264 0.228790 -3.966685
-0.778484 -0.847127 2.500642
0.213064 0.650938 -0.375076
0.420718 -0.098920 0.153114
0.427173 -0.670588 -0.261697
0.985616 -0.423836 0.777718
-0.316923 0.019978 0.112975
-0.674287 0.673362 0.006384
0.038334 -0.656494 -0.410383
-1.339391 -1.164357 -0.088489
-0.644175 0.506737 0.155131
0.226219 0.872095 -0.717362
-0.971751 -0.766593 0.359024
-0.013360 -1.798937 0.344395
-0.470851 0.202935 0.192380
-0.920880 0.533403 0.554214
-0.783501 -0.892451 -0.162385
-0.519502 0.012296 0.282479
-0.452188 0.245259 0.142286
-0.934380 -0.386332 0.741792
-0.441290 -0.136700 0.168219
-0.614117 0.108596 0.367402
-0.242758 0.105096 0.035122
-0.881743 1.333311 2.679690
-0.321985 -0.121036 0.072550
0.815755 -0.493030 -0.935672
0.230289 0.425225 -3.490046
-0.949590 0.953160 0.006431
-0.595771 -0.400706 0.203927
0.072932 0.015155 -1.776008
0.981620 -0.560992 0.659054
0.857052 -0.044495 0.731405
0.008439 0.749011 -0.556722
-1.072986 1.823189 3.924083
-0.370837 -0.889216 -0.655651
0.547879 -0.920229 -0.554313
0.529513 -0.545218 -0.012175
0.688545 0.685543 0.011528
-1.946938 -0.675578 -1.627580
0.127650 1.081910 -3.844690
0.533751 -0.362061 0.151790
0.612797 0.858851 -0.360829
1.009284 0.900312 -1.948766
0.858485 0.669889 0.291118
-0.811317 0.791807 0.047410
0.988538 -0.033330 0.979793
0.540181 0.788579 -0.333099
1.858757 -1.299177 1.329620
0.312459 0.316867 0.007315
-0.931641 -0.824072 0.196602
0.540374 -0.052132 0.296474
0.598446 -0.565336 0.023552
0.204820 -0.874473 -0.747678
0.713721 -0.992549 -0.463003
-0.804233 -0.350496 0.528333
-0.448152 0.179061 0.168562
-0.171645 -0.089539 0.028388
-0.915084 -0.396461 0.699470
-0.103568 0.982400 -0.940248
-0.469573 0.879050 -0.542608
-0.214530 -0.748693 -0.523386
-0.149795 -0.169785 -0.013956
-1.777652 0.812741 -0.970531
-0.459318 0.466982 -0.000764
0.787486 -0.267256 0.559795
-0.148058 0.492564 -0.208796
-0.344385 -0.751700 -0.439698
0.005024 -0.336375 -0.114663
-0.164513 0.432866 -0.165951
-0.485255 0.251366 0.164034
0.005359 0.674420 -0.456448
-0.696397 -0.906286 -0.346164
-0.296140 -0.651217 -0.318824
0.131580 -0.903011 -0.811139
-0.173184 -0.615772 -0.351153
0.647825 -0.991434 -0.582627
-0.486556 0.008421 0.239632
1.383892 0.558129 2.580385
0.569444 0.315784 0.220979
0.935186 -0.230175 0.812265
0.676273 -0.993585 -0.529840
-0.715792 0.347782 0.385961
0.052920 -0.891418 -0.793194
-0.660043 0.732341 -0.081092
-1.708576 0.487792 -3.108364
0.168324 0.060950 0.029947
1.630536 0.013563 0.279595
0.859198 0.144979 0.709358
-1.221913 -0.063334 1.476224
0.127725 0.363222 -0.090577
0.442081 -0.755182 -0.377739
-0.882303 0.349854 0.659675
0.195712 0.760710 -0.548660
0.631802 0.948442 -0.527920
-0.864945 -0.113896 0.727260
0.024486 -0.310990 -0.072308
-0.482886 0.506619 -0.017531
0.325849 0.085749 0.115234
-0.762645 -0.485391 0.342546
0.874103 -0.655684 0.310566
0.789457 -0.659539 0.177163
-0.628051 -0.081646 0.391752
-0.353468 -0.659751 -0.307956
0.175270 -0.960562 -0.892064
1.155396 0.867007 0.727371
1.716836 1.609204 2.227501
-0.687417 -0.854077 -0.261919
-0.791697 -0.853639 -0.098837
0.999531 -0.097623 0.991485
-0.089296 -0.509799 -0.255607
-0.874856 0.247775 2.909997
-0.035248 0.821972 -0.678668
0.844715 -0.190514 0.695985
-0.257550 -1.120177 2.909379
-0.771962 -0.249773 0.543742
0.859264 -0.924268 -0.123800
0.894986 -0.414306 0.614973
-0.370565 -0.754653 -0.421218
-0.289670 -0.795259 -0.539481
-0.095100 0.121723 -0.004400
-0.167677 -0.802470 -0.619548
-0.619910 -0.794137 -0.261006
0.796751 -0.038973 0.641967
-0.493385 -0.115435 0.241965
1.083028 0.761260 0.207863
-0.865689 -0.991102 -0.240492
-0.922497 -0.614051 0.486353
0.307461 -0.528215 -0.190898
-0.321968 0.600497 -0.239142
0.310919 0.830877 -0.594776
-0.329447 0.744911 -2.867892
0.899703 -0.189947 0.773836
-0.645075 -0.613718 -2.410200
0.752534 0.253844 0.513133
-0.727059 -0.631720 0.138403
-0.359678 -0.784622 -0.475382
-0.263312 -0.124776 0.055609
-1.587511 -0.192372 3.373620
-0.406263 -0.722585 -0.357170
-0.878739 -0.413453 0.596981
-0.262243 -0.388114 -0.067195
0.155195 -1.020322 3.207519
-0.228157 -0.078477 0.044982
-0.606081 0.306127 0.264355
-0.476207 0.018780 0.241829
0.253905 -0.597087 -0.290678
-0.223692 -0.794122 -0.581893
-0.309233 0.643741 -0.303281
0.914527 1.282333 3.529778
0.543721 -0.875722 -0.474445
-0.242264 -0.483757 -0.177637
-0.541764 -1.970640 -1.009351
0.932405 0.503453 0.619072
0.043960 0.751633 -0.570643
1.818254 1.220434 -0.923772
0.587345 -0.154188 0.314156
-0.882563 -0.146730 0.751516
-0.141802 -0.612000 -0.362825
0.396637 0.301598 0.068832
0.973424 0.170138 0.917051
-0.083247 -0.690271 -0.469064
-0.814429 0.771326 0.091889
-1.563451 0.378391 -0.661097
-0.746872 -0.900522 -0.247073
0.503039 -0.344238 0.141736
0.015354 0.739713 -0.547569
0.446863 0.833913 -0.492987
0.738724 -0.019203 0.545551
1.528866 -0.839863 -1.917048
0.224879 0.750484 -0.518520
0.509141 0.650461 -0.168818
0.031340 -1.953814 -0.761666
0.738108 -0.236249 0.469270
-0.927140 0.512938 0.611443
0.112381 0.154678 0.010313
-0.567461 0.439368 0.130672
0.720692 -0.644428 0.110764
0.296795 0.462788 -0.115275
-0.159555 0.915185 -0.825352
-0.623792 -0.394673 0.242632
-0.321953 0.972323 -0.846022
0.407555 -0.243248 0.129839
-0.591281 -0.600553 -0.012933
-0.812834 -0.775428 0.068493
0.458349 -0.561917 -3.157988
0.528421 0.109651 0.289172
-0.600410 -0.385737 0.206575
-1.850315 0.179190 -2.591620
1.623579 -0.657258 0.159078
0.416369 -0.103284 0.166739
-0.101638 -1.734111 -1.597126
-0.384743 0.336333 0.028237
-0.401750 0.524804 -0.139877
-0.920953 0.166987 0.831013
0.456964 0.982796 -0.761961
-0.913650 -0.517180 0.578977
-0.990285 -0.475418 0.758160
0.458990 -0.814882 -0.441358
0.897748 0.108039 0.802297
1.809226 -1.929445 1.470113
-0.056720 0.451923 -0.194868
-0.027910 -0.329108 -0.110970
-0.127727 -0.975486 -0.923609
-0.350713 0.264459 0.058973
0.043428 0.997391 -0.986873
-0.137698 -0.410901 -0.152602
1.393738 0.776926 3.911915
0.796240 -0.436466 0.439167
0.990019 -0.149169 0.939887
1.974595 -0.175388 2.795532
-0.230633 -0.306080 -0.055135
-0.638588 0.276413 0.317012
-0.092534 0.590280 -2.347793
-0.425054 -0.207882 0.142796
-0.650926 -0.919937 -0.422899
0.528152 0.835885 -0.424747
-0.007423 -0.186228 -0.044100
0.838491 -0.343713 0.581757
-0.934815 -0.827032 0.181676
-0.866044 0.268366 0.677383
-0.193453 0.727650 -0.507266
-0.839445 -0.917694 -0.130480
1.417297 -1.609912 3.563486
0.972059 -0.707220 0.448502
-0.582081 0.204550 0.305850
1.596782 -1.958496 1.401226
-0.767985 -1.935408 2.899019
-0.004003 -0.312387 -0.118236
0.160877 0.531681 -0.261732
-0.246529 0.485138 -0.163551
0.653525 -0.506488 0.175657
-0.722839 -0.678347 0.080826
-0.143215 -0.284380 -0.043318
0.379524 0.551207 -0.156795
0.736473 0.390127 0.387674
-0.260857 0.331707 -0.051568
0.135491 0.658857 -0.420493
-0.861720 -0.445739 0.539796
-0.659362 -0.320633 0.326020
-0.861724 -0.915321 -0.104428
0.455762 0.737492 -0.332159
0.787942 0.943631 2.466753
0.447491 -0.403755 0.046562
-0.867203 -0.861167 0.007209
0.725096 0.446819 0.336257
0.671060 0.497475 0.206307
0.306075 1.501092 -2.392293
-0.952487 -0.592438 0.555217
-0.887422 0.826432 0.102529
0.707260 0.506316 0.250372
-0.530593 0.315513 0.183377
-1.194130 -1.266339 -2.733812
1.345130 1.817778 -2.760082
0.591051 0.856614 -0.381388
0.492617 -0.704708 -3.818958
-1.019547 0.672412 0.728485
0.978184 -0.272532 0.871250
0.596911 1.501362 1.714210
0.661408 0.289211 0.364204
-0.896501 -0.845468 0.069023
-0.044702 -0.715628 -0.496729
0.772670 0.800372 -0.045666
0.330428 0.768996 -0.480273
1.697859 0.313553 2.891803
-0.473365 -0.144298 0.219778
-0.162850 0.568122 -0.286213
-0.266838 0.656450 -0.357314
0.042886 -0.368606 -0.147788
-0.075544 -0.709325 -0.517697
-0.477931 0.772029 1.969882
-0.389039 -0.939562 -0.718005
-0.498294 0.194672 0.202254
-0.269906 0.300425 -0.020104
-0.700117 0.363579 0.352402
0.744209 -0.488744 0.309136
0.204239 0.443158 -0.143926
-0.732427 -0.567201 0.216916
0.387719 0.658077 -0.285031
0.695333 -0.561767 0.194481
-0.524929 0.393412 0.106433
-1.262211 -1.592481 2.611490
-0.982765 -0.622109 0.568319
-0.074041 -0.685623 -3.574534
0.524503 0.558207 -0.035006
0.974373 -0.828002 0.272261
-0.910239 -0.618478 0.443409
0.496142 -0.088938 0.234577
-0.856276 0.860364 -0.009809
0.184266 0.123756 0.007839
0.512151 -0.224644 0.218156
-0.281591 0.956740 -0.833245
0.511237 -1.114639 3.526053
0.190379 -0.132530 0.017984
0.982489 -0.176711 0.932129
-0.484765 -0.375640 0.105648
-0.621017 -0.348610 0.274351
-1.708936 1.915429 3.777489
-0.022083 -1.486744 2.005350
0.192890 0.363633 -0.081496
0.584542 -0.597591 -0.019587
0.506147 -0.231584 0.200545
1.272712 0.708130 1.665678
0.611545 0.105502 0.371291
-0.505466 0.458701 0.042185
0.111755 -0.290689 -0.082473
-0.405176 -0.673167 -0.291026
-0.340429 -0.546989 -0.190153
0.863889 0.636226 0.358765
0.363792 -0.464703 -0.076004
0.949181 0.549405 0.591439
-0.166175 -0.337601 -0.096810
0.074875 -0.622535 -0.389727
-0.025769 0.454617 -0.211601
-0.785426 -0.062910 0.611269
-0.526596 -0.937446 -0.590355
0.055273 0.919885 -0.852798
-0.865251 -0.704493 0.275245
0.862924 -0.293186 0.649247
-0.752313 -0.230411 0.498795
-0.604039 -0.021140 0.381299
1.468524 0.514894 2.425436
-0.806131 -0.987819 -0.327764
0.800556 0.864944 -0.103425
0.433491 -1.264576 3.780538
-0.862758 0.901298 -0.066619
0.882981 -1.712937 -2.983073
0.263257 0.855676 -0.687698
0.514699 0.202001 0.215663
0.656396 -0.285382 0.367574
0.436701 -0.114172 0.196227
0.172353 0.316065 -0.072810
-0.355073 -0.146136 0.095142
-1.849314 0.296850 0.124272
1.758107 -1.607845 -0.283952
0.175044 0.659973 -0.398917
0.328690 -0.591623 -0.267251
-0.125744 0.887895 -0.740969
0.512242 -0.688908 -0.200879
0.995335 -0.741672 0.438636
-0.679221 0.623752 0.065090
-0.595189 0.637404 -0.042160
0.078876 0.477519 -0.216849
-0.037249 0.921061 -0.846044
0.143140 -0.458921 -0.185536
-0.901852 0.653297 0.385412
-0.191447 -0.295919 -0.046897
0.165957 0.074797 0.029211
0.170383 -0.108800 0.020626
0.314668 -0.988300 -0.874812
-1.709226 -1.916806 -2.058128
-1.363323 1.716629 3.683580
0.580486 -0.650895 -0.094679
0.249521 0.863312 -0.682781
0.075015 0.060799 -0.005368
0.212393 -0.643508 -0.372952
-0.797613 0.291895 0.563862
-0.453687 -0.616155 -0.175304
0.054800 -0.872933 -0.777302
0.745974 0.370630 0.414877
1.466906 -0.841405 -3.564696
-0.819184 -0.787565 0.051200
0.184550 0.479887 -0.190673
-0.556524 -0.889596 -0.476917
0.468033 0.619538 -0.166161
-1.208061 1.737986 2.354263
-0.243713 -0.222511 -0.810692
0.182725 0.036761 0.025809
1.514908 0.545510 3.134062
-0.107500 0.265142 -0.051833
-1.458026 -0.203728 -0.126007
0.446641 0.888962 -0.582525
-1.473400 -1.158904 -1.228369
-0.263535 0.365789 -0.049267
-0.899240 -0.743417 0.262693
-0.713985 -0.580807 0.173560
-0.613950 -0.098101 0.373344
-0.253233 0.146192 0.035997
0.888287 0.997727 -0.227491
0.010307 -0.948148 -0.904944
-0.530320 -0.999371 -0.710029
-0.788500 -0.299266 0.532974
-0.323389 -0.267687 0.031556
0.631461 0.767674 -0.199059
-0.233314 0.825165 -0.646020
-1.976409 0.484571 2.329424
0.605410 -0.713642 -0.144843
-0.778358 -0.175790 0.570644
0.217320 0.491770 -0.201327
0.918192 -0.374778 0.715164
-0.195724 0.326476 -0.059465
-0.898112 -0.525714 0.520557
0.846605 -0.353161 0.603663
0.767333 0.720859 0.067710
0.044283 -0.498982 -0.253127
-1.085882 1.307264 -3.228207
-0.576518 -0.387481 0.174398
0.638902 -0.952944 -0.513115
-0.002800 -0.490198 -0.232525
-0.932244 -0.657590 0.434448
0.366030 0.013654 0.139964
-1.501136 1.440215 2.987766
0.658301 0.252098 0.375292
-0.445604 0.749798 -0.384094
-0.893350 -0.274962 0.713802
0.880703 -0.663015 0.341743
0.874125 -0.199950 0.711367
0.064831 0.571934 -0.319174
0.284635 0.182975 0.033630
-0.074800 -0.797714 -0.630587
-0.160469 0.074374 0.036319
-0.761103 -0.063829 0.582950
-1.051302 -0.095332 2.096251
-0.534536 -0.779679 -0.313687
1.544350 -0.785720 3.120451
-0.708335 -0.647913 0.109917
-0.546603 -0.614514 -0.074102
0.097228 -0.708835 -0.506637
-1.613186 -0.683517 -3.785958
-0.673587 -0.112661 0.456987
0.126632 -0.500886 -0.236722
-0.263813 -0.141153 0.060104
0.252319 0.347044 -0.065171
-0.167762 -1.984756 -0.362278
1.913799 1.104902 -1.652109
0.826867 -0.387308 0.524199
0.804980 -0.603642 0.283548
0.658175 0.909136 -0.396967
0.262572 0.621121 -0.329854
0.240293 -0.313725 -0.045679
0.278425 0.682864 -0.385486
0.166712 -1.429666 -0.040955
-0.967036 -0.306495 0.841828
0.916185 0.679223 0.385371
0.171208 0.504330 -0.228468
0.562932 -0.404250 0.167066
-0.245436 0.213357 0.004825
-0.975206 -0.261220 0.902070
0.019469 -0.997896 -0.984287
0.014380 0.923631 -0.856448
-0.126021 0.099258 0.003136
-0.320566 0.196865 0.066074
-0.500348 0.199783 0.216421
0.055090 0.101283 0.003722
-0.249444 -0.419904 -0.127503
0.939864 0.943152 -0.001818
-0.654145 0.243337 0.347528
-0.360669 0.341843 0.011453
-0.412079 -0.090414 0.176173
0.086618 -0.424277 -0.186684
-0.001439 -0.871302 -0.775158
0.287481 -0.299540 -0.004871
0.900004 -0.647805 0.404229
1.673612 -0.855399 2.612767
0.385543 0.758008 -0.444978
-0.949920 -0.394490 0.729893
-0.475223 -0.334235 0.115102
-0.072561 0.340729 -0.122624
-0.938010 -0.701457 0.389188
0.235339 0.858875 -0.680322
0.356621 -0.272306 0.048130
0.493463 -0.797601 -0.374514
1.176869 1.408707 -0.747276
0.207889 0.865492 -0.693743
-0.207869 -0.505761 -0.203379
-0.917494 0.324538 0.734970
-0.800096 -0.687670 0.165320
-1.524360 1.129350 -3.951555
0.991111 0.758476 0.413825
-0.968394 -0.703934 0.435760
-0.948860 -1.903078 2.390746
0.833489 0.669821 -3.243802
-0.340173 0.754918 1.652320
0.090410 -0.348018 -0.115233
0.239832 -0.743675 -0.500042
0.393450 0.964462 -0.753660
0.717933 0.353477 0.386090
-0.755421 0.701381 0.075678
0.852364 0.504277 0.465589
-0.947965 0.396485 0.741848
0.672400 -0.230872 0.397806
-0.846519 -0.351320 0.581976
1.169675 0.381911 1.030403
-0.992212 0.433426 0.802723
-0.109487 0.901177 -0.789862
-0.331282 0.137320 0.091131
-0.367267 0.011357 -0.979991
-0.097820 -0.020942 0.005520
-0.195258 0.227428 -0.018622
0.535322 -0.146540 0.255900
0.276885 1.377977 0.080741
0.305135 0.169226 0.057445
-0.751179 -0.981129 -0.389302
-0.409218 0.139680 0.143705
0.826637 0.267208 0.608468
-0.822531 0.830522 -0.016865
-0.186288 -0.172557 0.017375
0.885009 0.148935 0.751776
0.812377 1.249375 0.608467
-0.177594 0.063313 0.026846
0.334794 -0.865392 -0.636137
-0.086509 0.794567 -0.621410
0.506921 0.820825 -0.416213
-0.936837 0.096119 0.876356
-0.711686 0.113111 0.493410
0.228398 -0.884888 -0.713417
-0.534895 0.195901 0.248181
0.721973 -0.098012 1.272574
-0.297554 0.418087 -0.079875
0.773291 -0.905750 -0.218483
-0.812127 1.656005 0.757303
-0.014324 -0.426212 -0.184047
0.545790 0.303411 0.184683
-0.457724 0.254252 0.125399
-0.011480 -0.546317 -0.281855
0.115003 1.996846 1.470569
0.721772 0.671266 0.080013
0.722712 -1.239522 1.110496
0.804299 -0.862523 -0.107518
0.754954 -0.114182 0.563704
-1.999923 -0.900681 3.201860
-0.543328 0.283291 0.220327
0.863649 0.229128 0.693253
0.142426 -0.979204 -0.940632
-0.155010 0.215391 -0.029166
0.120748 0.469699 -0.217977
-0.314795 0.537460 -0.175740
-0.422894 -0.882048 -0.583497
-0.517371 -0.392683 0.103086
-0.835144 -0.157453 0.661633
-0.006870 -0.640457 -0.413615
0.775523 -0.158532 0.579708
-0.098235 0.399244 2.639056
0.041951 -0.773565 -0.591648
0.518085 0.731196 -2.093338
-0.071197 -0.474855 -0.221565
-0.581445 0.422812 0.183440
1.094571 1.758294 1.992618
-0.603234 0.125406 0.364564
0.433246 -0.217103 0.155037
1.725024 -1.243131 -2.088522
0.149738 0.567903 -0.319354
0.725853 -0.248881 0.465231
-0.417899 0.245428 0.109258
0.763234 -0.544902 0.285809
0.458821 0.160814 0.174026
0.597500 -0.837471 -0.336789
0.329159 -0.130791 0.101089
0.692686 -0.634545 0.088867
0.986198 0.766762 0.380840
-0.159674 -0.110198 0.002758
0.316237 0.573541 1.405448
0.489160 -0.279236 0.178865
-0.094260 -0.422518 -0.168943
0.853898 -0.594160 0.380638
-0.211148 0.823743 -0.636319
0.130932 0.598932 -0.346611
-0.788115 -0.733478 0.089719
-0.548450 0.493450 0.056244
0.681392 -0.162938 0.441782
-0.206895 -0.969207 -0.891481
-0.211832 0.056735 0.045129
-0.508038 -0.739907 -0.283781
-0.016779 -0.580131 -0.344801
-1.402618 0.966617 1.383914
-0.186055 -1.182353 3.947877
-0.859771 0.783776 0.124715
0.149641 0.314340 -0.081640
-0.065453 0.664567 -0.434955
0.228564 0.230379 0.008249
-0.105449 0.737699 -0.521206
-0.975290 1.409312 -0.208801
-0.056239 0.098281 -0.019644
0.163998 0.031781 0.014255
0.001966 0.807581 -0.655080
-0.055711 -0.670169 -0.445220
1.138217 1.616727 -3.754266
-0.935670 0.048420 -2.238581
-0.317243 -0.259900 0.030051
-0.331999 -1.135573 -2.884549
0.707301 -0.253970 0.422478
-0.693016 -0.653382 0.076796
0.165365 0.168097 -0.000701
-0.429376 -0.158864 0.169634
0.478345 -0.969620 -0.717149
0.639382 1.113325 -2.761634
0.342807 -0.609446 -0.252906
-0.489751 0.538660 -0.041731
0.022288 0.784079 -0.616270
0.897293 0.091282 0.812318
-0.237385 -0.788869 -0.580883
0.751477 0.068838 0.569473
0.973889 0.711211 0.443826
0.749702 0.498955 0.302913
-0.668268 -0.417804 0.291543
0.639316 -0.752219 -0.138621
-0.935701 0.801363 0.212615
-0.213396 0.708178 -0.454210
0.741467 -0.892569 -0.239850
0.377504 0.647349 -0.272134
0.065481 -0.805575 -0.629508
-0.224272 -0.873433 -0.699511
0.268372 -0.431947 -3.433778
1.575493 -0.247796 -2.735987
-0.063189 -0.170904 -0.015847
0.784969 0.807724 -0.039757
-0.540104 0.678607 -0.174319
0.722117 -0.604376 3.482752
0.285608 0.232174 0.019737
0.943989 0.544535 0.590499
-0.505487 0.100981 0.242924
-0.500659 0.966011 -0.678961
-0.721002 0.372095 0.379455
-1.913499 1.914717 -0.666867
-0.547205 -0.603404 -0.053042
0.006357 0.652491 -0.429748
-0.654075 1.833200 0.981464
-0.975718 -0.803321 0.309741
0.112972 -0.799341 -0.613512
1.493004 -0.935581 -1.067305
0.614895 -0.871291 -0.367903
-0.289437 -0.862880 -0.655084
-1.693330 0.326565 3.747827
-0.664124 0.600900 0.090913
0.481630 0.763126 -0.325534
0.569418 0.301027 0.230922
-0.726673 -0.354927 0.410030
-0.213086 0.812626 -0.615009
0.785810 -0.402553 0.460509
-0.994585 -0.448978 0.788040
-0.402482 0.772801 -0.456807
0.110085 0.361645 -0.120670
-0.331812 0.791344 -0.506131
-0.455910 -0.688197 -0.273414
-1.670641 1.862727 -1.323911
-0.636954 0.225484 0.356703
1.482307 0.233501 -1.316980
0.413392 0.828121 -0.505834
0.150590 -0.238494 -0.027392
0.059555 -1.595065 2.952600
0.688817 0.280681 0.405846
-0.650044 0.575505 0.093382
-1.124658 -1.417676 -2.754924
-0.278870 0.360122 -0.055701
0.565523 -0.864721 -0.445970
-0.587454 -0.633719 -0.049924
-0.626676 0.907956 -0.422700
1.944980 -0.320047 -1.173815
-0.934128 0.934827 0.003585
-0.549405 -0.926401 -0.546694
-1.797058 -1.229802 3.542146
0.674767 0.519345 0.184515
1.553458 0.925546 -3.388709
0.764155 -0.828182 -0.105536
0.595034 0.218978 0.322277
0.739369 -0.714261 0.047430
0.396857 -0.013581 0.163934
0.348306 -0.520629 -0.151553
0.050186 -0.893678 -0.806077
0.305574 -0.839961 -0.610289
0.838219 0.821786 0.038386
1.580060 0.569188 -3.274268
-0.368471 0.863648 -0.625974
-0.855090 -0.060020 0.728623
0.889610 -0.173415 0.742200
-0.109469 -0.283185 -0.060169
-0.671744 -1.390272 -0.440625
0.682240 -0.296881 0.365082
0.982000 0.492546 0.729902
-0.946720 1.351366 2.475178
0.599025 0.751689 -0.203881
0.774846 -0.514398 0.357698
-0.902249 0.054044 0.817483
0.508181 -0.553111 -0.054133
-0.290549 -0.924888 -0.765808
0.297194 0.415651 -0.087302
0.028096 0.097963 0.003860
-0.480516 0.447855 0.033131
-1.806457 1.914510 2.394929
-1.856122 -1.322972 2.764626
-0.793354 0.988697 -0.347497
0.275580 -0.070000 0.070482
-0.297178 0.732117 -0.457923
-0.566733 -0.512863 0.055943
0.383770 0.475132 -0.074114
0.373699 0.758452 -0.435641
0.078337 0.629333 -0.404044
0.869916 0.623548 0.365209
-1.665672 1.427977 1.278896
0.671726 0.639980 0.043577
-0.849721 0.381410 0.577408
0.479662 -0.735097 -0.314408
0.976895 -0.771631 0.354402
0.693196 0.543844 0.185427
0.159329 0.250928 -0.027949
0.253532 0.038752 0.065563
-0.293421 0.814524 -0.563122
-1.966659 0.932480 1.952876
0.540791 -0.207707 0.264279
0.996457 -0.172136 0.976982
-0.015074 0.210489 -0.028449
-0.877392 0.520551 0.487312
0.191716 0.128707 0.026664
-0.761952 0.017522 0.592447
1.036659 -0.452926 -3.887831
-0.342440 0.410529 -0.058976
0.441880 0.296800 -1.474588
-0.632384 -0.874896 -0.364783
-0.668494 0.509904 0.205353
0.611990 -1.957916 1.287475
0.746480 -0.850614 -0.174004
0.387011 0.358020 0.003493
-1.648650 -1.808517 -2.457879
-0.943415 0.047254 0.910438
0.117349 0.587598 -0.331944
-0.434931 -0.399504 0.030572
0.193453 -0.596186 -0.312511
-0.130792 -0.298532 -0.073178
1.426673 0.447520 -0.039196
-0.424382 0.391867 0.030462
0.358291 0.691040 -0.357619
-0.235794 1.490334 -2.705331
0.911721 -0.652025 0.413518
1.881557 0.366529 2.109071
0.478149 -0.683173 -0.225113
-0.069575 0.373448 -0.131269
-0.560013 -0.503656 0.063503
0.625033 0.050774 0.395590
0.472708 0.583660 -0.123153
-0.556092 0.341879 0.185999
-0.097569 -0.403252 -0.154340
-0.074402 -0.334267 -0.118949
0.652821 0.306729 0.336162
0.367689 0.098935 0.135898
0.286335 -0.807213 -0.576706
1.985405 1.872430 3.952549
-0.459060 0.025226 0.203808
-0.256577 -0.053278 0.052828
-0.908675 -0.603121 0.482491
0.573882 -0.246012 0.258796
-0.134004 -0.334350 -0.106626
-0.123523 -0.458529 -0.192843
-0.509287 0.134813 0.243884
-0.760141 1.754159 1.480191
0.175644 0.778395 -0.555036
0.513896 1.275455 -1.649518
-0.871582 -0.561053 0.439091
0.535015 -0.799789 -0.337334
-0.247061 0.570675 -0.255240
-0.239529 0.989723 -0.914176
-0.137363 0.727200 -0.515850
0.630090 -0.952605 -0.499185
-1.700997 -0.700937 -3.913255
0.516072 -0.913315 -0.565919
0.879090 0.641559 0.355352
0.321736 0.162814 0.078073
-0.136638 0.027437 0.034402
0.495579 0.108900 0.222800
-0.084205 -0.495097 -0.246029
-0.171145 0.203277 -0.018309
1.024060 1.621174 -0.165349
0.613885 1.275275 0.920289
-0.791500 0.468868 0.416220
1.035275 1.993362 -3.717810
-0.752286 -0.335765 0.453805
-0.179117 0.652526 -0.390937
0.113867 0.431088 -0.166631
0.419915 -1.831226 3.718216
-0.927555 -0.609712 0.499327
0.242917 0.274217 -0.024450
-0.084530 -0.421168 -0.174672
-0.959478 -0.761134 0.344677
-0.500904 -0.690062 -0.226035
-0.763030 -0.668766 0.139836
-0.566412 -0.044418 0.320268
-0.450860 0.214771 0.154254
-0.197387 -0.647195 -0.364613
0.058079 0.424993 -0.170165
0.548269 0.440024 -0.155554
-0.676261 -0.376884 0.322213
-0.606907 -1.731634 -1.327476
0.099347 0.570412 -0.293753
-0.341850 0.919628 -0.739730
1.929722 1.935532 -2.873991
-0.773699 -1.503850 1.408121
1.934868 -0.728389 2.239658
0.882734 -0.683899 0.306958
-0.783384 0.685525 0.136029
-0.746283 -0.830292 -0.120564
-0.706906 0.932952 -0.382731
0.962553 0.177028 0.905005
0.235320 0.035480 0.060602
0.220580 0.694701 -0.437763
-1.161278 0.475178 -2.718338
-0.823122 0.554305 0.368697
0.949002 -0.766792 0.301625
-0.591974 0.681556 -0.124990
0.246143 0.058352 0.063736
-0.159833 -0.877741 -0.738847
-0.232096 0.666490 -0.387920
0.862487 -0.945372 -0.153760
-0.101305 -0.172763 -0.775704
0.994138 0.595649 0.630257
-0.241750 -0.070258 0.036037
0.297550 0.762777 -0.492681
0.935813 0.270859 0.807607
-0.056131 -1.033326 -0.944282
0.845729 -0.415530 0.560284
0.135623 -0.732639 -0.528412
0.408794 0.922345 -0.690219
-0.701632 -0.790405 -0.131122
0.066775 0.058021 0.003530
0.347027 -0.454863 -0.105484
-0.087505 -0.471719 -0.208834
-0.690030 0.189172 0.442838
0.822540 -0.833638 1.954569
0.708786 0.554359 0.193896
-0.931058 0.737603 0.314725
0.417724 -0.414195 -0.001597
0.998780 -0.068497 0.979489
-0.985034 -0.981331 0.011444
-0.677909 0.493715 0.233423
0.348289 -0.395314 -0.032318
-1.574059 1.433036 -2.519674
0.179580 -0.661399 -0.402344
0.368000 0.638799 -0.274586
-1.643985 1.388524 -0.134567
-0.269631 0.754906 -0.493646
0.394565 -0.908126 -0.660214
0.188589 0.984917 -0.941181
-1.242969 -0.700771 2.029402
0.126271 -0.381133 -0.149434
0.410533 1.314132 -2.090299
0.333667 -0.464935 -0.106386
-0.056417 0.105323 -0.013070
1.516992 -1.679203 -0.084778
-0.828228 -0.212457 0.646502
0.316319 -0.379298 1.998205
-0.977627 0.672052 0.506095
0.973252 0.385483 0.806787
-1.531764 -0.575378 -0.703191
0.629752 -0.704543 -0.110739
-0.662710 0.632231 0.034245
-0.432798 -0.925450 -0.675057
-0.163445 -0.471617 -0.216221
-0.351189 -0.885882 -0.666909
0.596702 0.334858 0.254971
0.915387 -0.263258 0.776637
-0.064006 -0.557783 -3.783161
-1.447353 0.637067 -3.103325
0.989709 -0.741409 -0.695685
-0.704106 -0.084078 0.478095
0.826762 -0.908839 -0.152100
0.035757 -0.139547 -0.006952
-0.327238 0.282129 0.027764
-0.685949 0.092104 0.455331
-0.976382 -0.849432 0.237305
0.399340 0.236950 2.653549
-1.091062 -1.039514 3.299723
0.594524 -0.971130 -0.598289
0.939587 -0.688809 0.411582
-0.798477 -0.004881 0.639600
0.184357 -0.379197 -0.094635
-0.485699 0.388766 0.081864
0.085883 -0.518693 -0.264738
-0.359090 0.545592 -0.154329
-0.433069 -0.427046 0.015037
0.147691 0.241727 -0.035171
-0.633364 0.598433 0.027418
-0.061733 -0.228888 -0.056697
0.301625 -0.906390 -0.741107
-0.743636 0.070891 0.548333
-0.457968 -1.861948 -1.836598
0.011449 0.937984 -0.863653
0.639056 -0.557956 0.081364
0.684733 -1.516123 -2.530860
0.420002 -0.310096 0.082688
0.432262 -0.679455 -0.269594
0.750200 0.331829 0.426818
0.227211 0.001737 0.034268
-0.443566 0.078461 0.187958
-0.800981 0.654785 0.226387
0.212501 -0.326913 -0.042837
-0.867294 0.334190 0.636372
-1.285389 0.345617 -1.912651
-0.878586 -0.914552 -0.072862
0.097775 -0.243970 -0.043629
-0.679324 0.900069 -0.333358
1.681871 1.809889 3.750443
0.581730 -0.783539 -0.275813
1.970618 -0.407722 3.644339
-0.380913 0.926759 -0.713705
0.097909 0.815890 -0.642283
0.126022 0.143922 -0.008837
-0.054226 -0.247439 -0.076440
0.310228 0.161355 0.066606
1.655475 -1.035121 0.898065
0.958486 0.722475 0.378514
-0.803840 0.637688 0.241834
