ply
format ascii 1.0
element vertex 3000
property float x
property float y
property float z
end_header
0.547912 0.658442 -0.143709
-0.122243 0.188192 -0.015646
0.717196 -0.510291 0.247898
0.394736 0.491350 -0.102099
-0.811645 -0.831038 -0.034731
0.951245 0.548836 0.616893
0.522279 0.179970 0.244994
0.572129 -0.778499 -0.258552
-0.743773 -0.840989 -0.152292
-0.099228 0.501673 -0.217351
-0.258404 -0.414128 -0.102954
0.853530 0.778604 0.122515
0.287730 0.524146 -0.204734
0.645523 0.396380 0.270688
-0.113172 -0.442788 -0.188275
-0.545523 0.417889 0.116493
0.109170 0.896295 -0.778615
-0.872365 -0.816880 0.105310
0.655262 -0.347675 0.319812
0.263329 -0.530655 -0.215875
0.516176 -0.213500 0.220345
-0.290948 0.484665 -0.150848
0.941396 -0.051515 0.891398
0.786242 0.141461 0.613701
0.556767 -0.371690 0.175517
-0.610723 -0.717421 -0.121963
-0.066558 -0.466133 -0.203878
-0.912392 0.719361 0.312632
-0.691421 0.204834 0.444393
0.366098 -0.244023 0.091540
0.489524 0.579812 -0.076565
0.935019 -0.871085 0.127341
-0.348349 -0.492218 -0.120674
-0.259081 -0.539794 -0.226421
-0.060888 0.970729 -0.932847
-0.621057 0.412197 0.232545
-0.740157 0.235572 0.496676
-0.048590 -0.990030 -0.973253
-0.546181 -0.631380 -0.099813
0.339628 0.271083 0.038582
-0.125696 -0.240561 -0.043692
0.665356 0.848561 -0.276002
0.400530 0.529448 -0.102710
-0.375267 -0.105232 0.127354
0.664520 0.499030 0.193082
0.609529 0.950809 -0.541166
-0.225043 -0.078038 0.051721
-0.423344 0.285052 0.111632
0.364991 0.837329 -0.551657
-0.720495 -0.502651 0.268489
-0.600184 0.773116 -0.231744
-0.985275 -0.804911 0.321351
0.573849 0.296896 0.246435
0.329702 0.565676 -0.208147
0.410331 0.229212 0.116416
0.561458 -0.008930 0.316533
-0.082168 0.234694 -0.043810
0.137482 -0.696673 -0.469393
-0.720406 -0.568859 0.192960
-0.770940 -0.460201 0.399637
0.336806 0.195559 0.102301
-0.057808 -0.116198 -0.022204
0.130472 -0.511048 -0.256742
0.529998 0.765619 -0.314846
0.269437 -0.252156 0.007980
0.107159 -0.107937 0.008791
0.118414 -0.180598 -0.012681
-0.392100 -0.636114 -0.249179
-0.938364 0.463254 0.671213
-0.126565 -0.103083 -0.001528
-0.570831 -0.967486 -0.612622
-0.182943 0.928027 -0.827968
0.706806 0.631527 0.084906
-0.532121 0.447119 0.071625
-0.883395 0.738184 0.224255
-0.437232 0.813614 -0.463155
-0.412812 -0.325021 0.067229
0.323833 0.221917 0.061731
0.114064 0.217616 -0.052742
0.567796 -0.465401 0.090959
0.328627 -0.556095 -0.194614
-0.187226 -0.772186 -0.589003
0.628041 0.318628 0.305157
-0.666054 0.561838 0.109733
-0.954576 0.521906 0.647263
-0.819904 -0.367449 0.528338
0.444719 -0.589480 -0.139223
-0.076246 -0.092772 0.029288
-0.677456 0.093627 0.427449
0.002090 0.838174 -0.695578
-0.695376 0.749646 -0.096504
0.392641 0.832117 -0.533984
-0.107687 0.700525 -0.481206
-0.237958 0.929162 -0.805421
-0.396976 -0.069000 0.143712
0.260565 -0.905053 -0.743421
-0.276375 -0.832876 -0.631783
-0.824700 -0.219448 0.644389
-0.763988 -0.484626 0.344723
0.923795 -0.660119 0.403614
0.817161 0.906408 -0.137873
0.399414 -0.609161 -0.212219
-0.468260 0.918759 -0.605773
0.938353 0.521678 0.620572
0.557502 0.281891 0.223364
0.433780 0.352038 0.063385
-0.101277 -0.337051 -0.102136
-0.455517 0.292854 0.136995
-0.807218 -0.626616 0.263329
0.805205 0.875411 -0.116226
-0.088447 -0.396413 -0.151319
-0.595273 -0.489627 0.114110
-0.388087 0.422326 -0.014702
0.158439 0.312897 -0.072765
-0.646454 -0.097402 0.404466
0.713229 0.264892 0.432882
0.517039 -0.681014 -0.201988
0.438926 0.346657 0.058464
-0.135814 -0.458779 -0.199536
0.254618 -0.454328 -0.126600
0.168196 -0.675640 -0.430266
0.299693 -0.335246 -0.015530
-0.831111 -0.337498 0.552054
-0.168385 -0.091642 0.025638
-0.916772 -0.619161 0.455496
-0.012018 -0.613985 -0.381647
-0.340278 0.083477 0.110630
-0.710952 -0.742245 -0.050434
-0.793194 0.377794 0.465190
0.175289 0.887894 -0.748407
-0.658814 -0.146409 0.415031
0.850240 0.802211 0.076227
0.162122 -0.803367 -0.628776
-0.306260 -0.914085 -0.756454
0.181831 0.442738 -0.160715
-0.954392 0.522043 0.654470
0.917118 0.686116 0.372382
-0.035393 -0.886365 -0.798217
0.565470 0.553814 0.015298
-0.834540 -0.246923 0.634953
-0.026683 -0.393325 -0.145352
-0.018586 -0.653952 -0.421241
0.875653 0.992032 -0.247217
0.143456 -0.872673 -0.735526
-0.053021 0.654016 -0.434961
-0.466049 0.278989 0.125149
-0.336862 0.470161 -0.109460
0.041345 0.423434 -0.173477
-0.122177 0.716869 -0.515381
-0.956776 -0.632416 0.522516
0.652584 -0.998351 -0.563205
0.792322 0.197057 0.589412
-0.719502 -0.292283 0.423577
0.108072 -0.752425 -0.564258
-0.782849 -0.627723 0.229076
0.344480 -0.336501 -0.009679
-0.437532 -0.859533 -0.536718
0.318845 -0.886174 -0.685293
0.453989 0.832053 -0.487164
0.537295 -0.375795 0.130384
-0.784518 0.964461 -0.316184
0.832024 0.928734 -0.164148
-0.539572 -0.714857 -0.233247
-0.925175 0.429849 0.676165
0.109705 0.201610 -0.027721
-0.258155 0.381294 -0.085179
0.659580 -0.807618 -0.208655
0.616503 -0.622880 -0.029926
-0.365722 -0.846723 -0.579720
0.905799 0.208268 0.793290
-0.418164 0.973182 -0.757823
0.030114 0.343969 -0.113510
-0.488070 0.421523 0.057514
0.872087 0.969170 -0.185113
-0.670784 0.356023 0.320170
-0.910179 -0.919637 -0.011868
-0.129806 0.734011 -0.529995
0.984751 -0.270643 0.904061
0.783355 -0.991273 -0.347646
0.497216 0.014468 0.246396
0.781585 0.874030 -0.166497
0.786893 -0.485339 0.370200
0.037717 -0.016974 0.008900
-0.368142 -0.652446 -0.290755
0.544025 -0.884615 -0.477812
0.323323 -0.838910 -0.604569
-0.252685 0.454022 -0.133980
-0.811067 0.728149 0.126045
0.493579 -0.713402 -0.272647
-0.475079 -0.423363 0.042454
0.873626 -0.609941 0.379224
-0.518059 -0.946288 -0.607183
-0.754484 0.106863 0.556863
0.662225 0.399844 0.285112
-0.693431 0.295755 0.388007
-0.641463 -0.223893 0.350828
0.198766 0.110020 0.025064
0.749124 -0.811801 -0.086823
-0.607131 -0.691393 -0.114623
-0.379353 0.863589 -0.610583
0.554810 0.523015 0.035823
0.943653 0.845478 0.180638
0.001482 0.833361 -0.678059
-0.712205 0.298785 0.421501
-0.972127 0.856477 0.217918
-0.540688 -0.166592 0.271783
-0.736356 -0.992768 -0.454898
0.355317 -0.874858 -0.648759
-0.756335 -0.781025 -0.048797
0.012660 -0.809293 -0.668117
0.388525 -0.296595 0.070937
0.162233 0.402542 -0.132820
-0.600449 0.581298 0.023427
0.608249 0.180427 0.311486
0.430814 -0.707128 -0.293874
0.477968 0.495803 -0.026310
-0.737885 -0.290396 0.480662
-0.752492 -0.974013 -0.396950
0.855125 -0.438823 0.530550
-0.204844 -0.338799 -0.094852
-0.398103 -0.451509 -0.041753
-0.022832 0.623740 -0.399543
0.325728 0.519853 -0.174878
0.911247 0.391104 0.663683
-0.427108 -0.721990 -0.331075
0.849617 0.615668 0.349917
-0.950281 0.354352 0.795589
0.110396 -0.610325 -0.367166
0.267950 0.296188 -0.013742
-0.788205 -0.032977 0.607287
-0.719321 -0.121300 0.499358
-0.161771 -0.775754 -0.580812
0.932464 0.036609 0.872793
0.192085 -0.800136 -0.593151
0.866046 -0.671493 0.309044
0.608722 -0.734907 -0.177975
-0.065237 0.908217 -0.810617
0.569527 -0.430271 0.138787
-0.964326 -0.289591 0.842816
-0.781712 -0.355839 0.477367
0.658857 0.796501 -0.205920
0.593634 0.125932 0.353966
-0.534719 0.838320 -0.413782
0.061539 -0.400150 -0.154587
0.212032 -0.770331 -0.551074
0.735478 0.112437 0.552745
0.206214 -0.308926 -0.039861
-0.174857 0.603814 -0.341227
-0.251632 0.758847 -0.515266
-0.148236 -0.054853 0.016823
0.303862 0.942718 -0.794926
0.734981 0.106026 0.521944
-0.092206 -0.458159 -0.197020
-0.504321 -0.022049 0.268374
-0.526675 -0.925379 -0.592076
0.492029 0.608002 -0.138856
0.633138 -0.797130 -0.239385
-0.789444 -0.382503 0.472545
-0.866882 0.130633 0.754405
0.188867 -0.914050 -0.789799
-0.707654 -0.841366 -0.197680
0.649328 0.392233 0.265137
-0.379331 -0.856446 -0.592471
-0.712256 -0.045834 0.490691
0.841941 -0.322609 0.612606
-0.668937 -0.543841 0.156623
-0.430560 -0.622442 -0.189193
-0.692773 0.526823 0.200284
-0.769020 0.903084 -0.225588
-0.957704 -0.719640 0.401015
-0.889209 0.919362 -0.045615
-0.650717 0.189525 0.372811
-0.893236 0.283321 0.724961
0.182288 0.419853 -0.143253
0.361429 0.408238 -0.046613
-0.212739 0.639622 -0.384705
-0.364018 -0.033063 0.130051
0.009052 0.066717 0.010108
0.750010 -0.352346 0.455114
0.702263 -0.789485 -0.126559
-0.913050 0.329280 0.744855
-0.637003 -0.932780 -0.464735
-0.526510 -0.448730 0.085388
-0.501225 -0.811540 -0.411884
0.142465 -0.618546 -0.367448
-0.167475 0.277462 -0.055712
-0.901492 0.256953 0.726057
-0.252772 -0.157890 0.051835
0.047506 -0.819656 -0.675996
-0.796656 -0.133252 0.608891
0.666917 -0.294510 0.346242
-0.896076 0.440918 0.606500
0.849684 0.158053 0.714617
-0.801774 -0.016868 0.663494
0.687150 -0.026036 0.454888
0.805306 0.932594 -0.224757
0.959141 0.512588 0.646862
0.604052 -0.006041 0.374725
0.558955 -0.041555 0.313570
0.284967 -0.947042 -0.822048
0.557993 0.885019 -0.471176
-0.730896 -0.361652 0.398642
0.072136 -0.488122 -0.216917
0.028446 0.998818 -0.991358
0.715144 0.437379 0.326829
-0.074401 -0.905272 -0.840652
-0.229821 -0.876229 -0.715628
0.279127 -0.948997 -0.801851
-0.467073 0.199238 0.191723
-0.720463 -0.856871 -0.233632
-0.044245 0.866777 -0.752478
-0.166221 0.873813 -0.747935
-0.534860 0.092108 0.294702
-0.264976 0.233278 0.018237
-0.267215 -0.416211 -0.109506
-0.345009 -0.872055 -0.641107
-0.241072 0.474921 -0.193508
0.371487 -0.796428 -0.507145
-0.406247 -0.828885 -0.521649
0.897716 -0.377554 0.671804
0.832696 -0.975069 -0.276789
-0.038179 -0.131929 -0.019759
-0.343278 0.415362 -0.044589
0.070870 0.602698 -0.372737
0.697121 0.208615 0.444749
0.305175 0.693748 -0.387496
0.608784 -0.186996 0.352794
0.065445 0.697544 -0.484586
0.265835 0.012947 0.068785
-0.423689 -0.553928 -0.118774
0.469786 0.888291 -0.581626
-0.595191 -0.450058 0.149491
0.389596 -0.947597 -0.750712
0.721438 -0.514652 0.254217
-0.735794 -0.266625 0.478789
0.228759 -0.297301 -0.030515
-0.809808 0.049335 0.645869
0.451431 0.766254 -0.381988
-0.831014 -0.415324 0.532994
0.871880 0.041541 0.750135
-0.725184 -0.319722 0.425121
0.917760 0.643546 0.426201
0.601768 -0.684797 -0.107452
0.187364 -0.792979 -0.610018
0.565248 0.005991 0.333577
0.590230 0.343775 0.222446
0.892054 0.591050 0.456681
-0.493233 0.179250 0.204935
0.180152 0.547700 -0.273775
-0.809902 -0.214580 0.622027
0.232331 -0.934265 -0.808934
-0.657417 -0.767801 -0.155235
0.129901 -0.922555 -0.826622
0.144861 -0.342113 -0.098942
-0.068030 -0.009017 0.004463
0.045264 -0.287365 -0.087146
0.527847 0.121199 0.272974
0.598489 -0.038782 0.349751
-0.015694 0.355886 -0.111557
0.199187 0.333924 -0.074988
0.862472 -0.363872 0.611661
-0.760533 -0.307571 0.491397
-0.765793 0.170296 0.557677
-0.824582 0.192865 0.639759
0.315727 -0.370600 -0.037961
-0.162783 -0.339364 -0.079731
0.548643 0.388090 0.143767
0.342463 0.294822 0.029099
-0.332724 -0.729898 -0.421943
0.796733 -0.117916 0.629525
0.525064 0.785412 -0.342178
-0.458930 -0.927389 -0.631350
-0.271616 0.710328 -0.432356
-0.371120 -0.673644 -0.318443
-0.684777 0.014497 0.466999
-0.704433 -0.151327 0.460160
0.872255 -0.979741 -0.209432
-0.124192 0.830794 -0.680102
-0.233360 -0.090150 0.057688
0.459371 0.908537 -0.614748
0.105986 -0.426512 -0.175526
0.872280 0.732552 0.236506
0.560603 0.844779 -0.383864
-0.041261 0.113665 0.001337
-0.247281 -0.594644 -0.300985
0.973263 0.370495 0.805022
0.435520 0.097956 0.198220
0.902389 0.889059 0.026291
-0.763043 -0.121456 0.564807
0.701067 -0.462973 0.284335
0.274148 -0.723426 -0.438115
-0.756157 0.397267 0.408237
0.176516 0.948219 -0.865767
0.372193 -0.943312 -0.742045
-0.975395 0.480891 0.708536
-0.091364 0.853861 -0.720607
0.650799 -0.850437 -0.310847
-0.409282 -0.779660 -0.450194
-0.082904 0.383914 -0.146148
-0.115372 0.295927 -0.069491
-0.396145 -0.862345 -0.589928
0.836884 0.668845 0.246536
0.562588 0.046848 0.314826
-0.778823 0.814395 -0.068143
0.994069 0.755982 0.420953
0.758400 0.625016 0.195840
-0.432183 0.031798 0.184979
0.673793 -0.496579 0.205380
-0.787161 0.011951 0.623214
0.998209 -0.798377 0.338731
0.331369 0.317692 0.014246
0.300250 -0.732046 -0.414722
-0.819119 0.022346 0.669229
0.794067 -0.891236 -0.164951
-0.942001 -0.400975 0.734021
-0.518344 -0.535839 -0.001990
-0.713956 0.240063 0.461853
0.553536 0.573573 -0.044141
-0.603592 -0.885394 -0.413966
0.821276 0.700567 0.209420
0.312538 0.721535 -0.416709
-0.927675 -0.315462 0.749518
-0.989140 0.318008 0.880088
-0.896684 -0.194774 0.753299
0.211850 -0.691618 -0.421127
0.602964 0.057325 0.350720
-0.522894 -0.827281 -0.410232
0.698818 0.756944 -0.093196
-0.885536 0.848580 0.058623
0.601928 0.643226 -0.036562
0.855591 0.125056 0.717431
0.544217 0.115197 0.277310
0.396242 0.969215 -0.793822
0.675960 -0.504197 0.183991
-0.919697 -0.848103 0.114051
-0.596436 0.123882 0.341509
-0.750153 -0.342429 0.455274
0.009062 -0.355322 -0.131775
0.490376 -0.985829 -0.715685
0.260024 0.192479 0.023389
0.702262 -0.471933 0.268072
-0.689574 -0.624283 0.074987
0.469242 -0.919136 -0.614715
-0.613917 -0.271277 0.324278
-0.458483 0.757938 -0.381882
0.419809 -0.326658 0.066073
0.960410 0.358148 0.806764
0.223087 0.513094 -0.227967
-0.890999 -0.343798 0.681349
0.232618 0.643281 -0.347485
-0.915299 0.383759 0.691283
0.768291 0.118484 0.581736
0.419157 -0.998015 -0.802733
-0.653744 -0.929818 -0.417697
-0.816558 0.981732 -0.297650
-0.632934 0.564568 0.076544
0.960054 0.875131 0.146651
-0.082879 0.804606 -0.630753
0.568162 -0.959114 -0.610810
0.272817 0.583695 -0.268796
0.144826 -0.097709 0.012455
-0.709740 0.579116 0.163324
0.892049 -0.986568 -0.174768
-0.397315 -0.423601 0.004066
0.156034 0.502648 -0.229524
0.399552 0.586042 -0.188157
0.298466 0.239429 0.041909
0.881189 -0.397488 0.620893
-0.703122 -0.379275 0.364925
0.016705 0.933528 -0.869548
-0.191931 -0.121576 0.019573
-0.051663 -0.105749 -0.026351
-0.761565 0.104666 0.552829
-0.731811 -0.180995 0.484431
-0.443849 0.105343 0.189698
-0.390591 -0.135329 0.120625
-0.144194 0.653430 -0.393623
0.221975 0.818102 -0.619716
0.269258 0.864220 -0.676819
-0.176378 0.128592 0.006135
-0.182434 -0.115703 0.026118
-0.564743 0.410480 0.142396
0.176612 0.676647 -0.436513
-0.365918 0.125964 0.129913
-0.927880 0.399962 0.704538
-0.163200 0.499459 -0.225174
-0.051735 0.352788 -0.115368
-0.548814 0.492267 0.058960
0.144916 -0.582709 -0.314719
0.131544 -0.003251 0.009125
0.404004 0.176537 0.152758
0.295897 -0.995044 -0.908354
0.304866 0.711925 -0.398334
-0.367572 0.220049 0.084799
0.574864 -0.741727 -0.211619
0.098289 0.632714 -0.383324
-0.137164 0.434114 -0.158173
0.252025 0.516599 -0.211764
-0.278685 -0.215915 0.041803
0.025478 0.708405 -0.482724
0.473411 -0.171945 0.191966
0.772806 0.141018 0.577690
0.842114 -0.998715 -0.293510
0.007266 0.289746 -0.087364
0.040550 0.436352 -0.171644
0.599741 0.134219 0.331632
-0.371099 -0.006882 0.128246
0.674765 0.619873 0.087174
-0.011717 0.362745 -0.125201
-0.768287 -0.443852 0.414463
-0.855882 0.918147 -0.114964
0.683986 0.414534 0.297261
-0.888864 0.975878 -0.168865
-0.438777 0.942523 -0.694391
-0.331740 0.837819 -0.609631
-0.654011 0.510743 0.173722
-0.372213 0.218859 0.093878
0.485385 -0.655659 -0.194865
-0.970634 0.086703 0.930710
0.654347 0.530753 0.137523
0.713096 0.041714 0.514043
-0.255477 0.736478 -0.488843
-0.692774 -0.780688 -0.124419
0.201681 -0.238119 0.004719
-0.760655 0.011929 0.593309
-0.270161 -0.135349 0.039616
0.916858 -0.782827 0.222444
0.990929 -0.692943 0.505984
0.544210 0.675235 -0.160480
-0.378077 -0.031231 0.127973
0.375330 -0.902555 -0.669880
0.410813 -0.967017 -0.766456
-0.224317 -0.053049 0.066647
0.281777 -0.671243 -0.373700
-0.978545 0.410252 0.800923
-0.581885 0.590647 -0.022945
0.050177 -0.543407 -0.303053
-0.672497 0.184354 0.425483
-0.668186 -0.691111 -0.020324
0.672609 -0.392835 0.288509
0.978266 0.777591 0.352597
0.111939 0.088196 -0.009064
0.678139 0.771777 -0.137579
0.980643 -0.549504 0.668076
-0.716808 -0.339951 0.393898
-0.103509 -0.058096 0.004849
-0.214855 -0.039840 0.033277
-0.839901 0.995296 -0.291663
0.510660 -0.771109 -0.316255
-0.132442 0.703930 -0.477247
-0.061346 0.727364 -0.535318
-0.698654 0.106397 0.473649
-0.638147 -0.311926 0.293959
0.814207 0.038452 0.651313
-0.910702 -0.415065 0.670703
-0.534295 0.598215 -0.073814
-0.415881 -0.003442 0.191853
-0.019605 0.851684 -0.725935
0.172890 0.245383 -0.030681
-0.013420 0.028639 0.005769
-0.831769 0.422139 0.486913
-0.512665 0.007866 0.264813
0.687177 0.809013 -0.182780
0.275177 -0.631108 -0.307714
0.298298 0.946697 -0.797607
0.340407 0.624381 -0.285312
0.525806 0.721467 -0.231621
-0.883783 -0.034184 0.777281
-0.266783 0.674403 -0.392691
0.079055 -0.386452 -0.141124
-0.323087 0.523896 -0.172110
0.688958 -0.719100 -0.027057
-0.034855 -0.385896 -0.144295
0.537255 -0.108535 0.278920
0.704031 -0.355361 0.378385
0.009583 -0.225966 -0.040040
0.819104 0.640209 0.268900
0.174248 -0.486648 -0.192270
0.700549 0.490562 0.256204
-0.318818 -0.852576 -0.623564
-0.002366 0.531478 -0.270072
0.062822 0.584046 -0.338073
-0.790041 -0.196602 0.585844
-0.202895 0.444956 -0.139603
0.834675 0.830277 0.023543
0.261664 0.601426 -0.293327
-0.644987 -0.219107 0.363465
-0.322289 -0.031573 0.117505
-0.616794 0.558715 0.076276
-0.950354 -0.414811 0.734260
0.854921 0.607765 0.358292
-0.103585 -0.343858 -0.104191
-0.384930 0.611981 -0.226567
0.196954 -0.826399 -0.650788
-0.985371 -0.911205 0.141951
-0.443956 0.995351 -0.790972
0.406067 0.738914 -0.384858
0.267540 0.765695 -0.505673
0.963612 0.902560 0.126822
0.240715 -0.123367 0.052423
-0.044988 -0.426329 -0.182495
0.522865 -0.739950 -0.266580
0.806656 0.002418 0.651467
0.441392 -0.559903 -0.131022
0.926422 0.871102 0.106168
0.564010 -0.991994 -0.664482
0.733603 -0.713607 0.054874
-0.771792 -0.507048 0.353137
0.464827 -0.602087 -0.139333
-0.119823 -0.548443 -0.283941
0.106208 0.312095 -0.084486
0.308205 -0.344976 -0.034055
0.939630 0.230049 0.812593
0.969156 0.780516 0.321333
-0.423544 0.205114 0.136840
0.467507 0.389066 0.046135
0.499967 -0.268993 0.172166
-0.307014 -0.680523 -0.371330
-0.752260 -0.358832 0.434981
-0.918106 0.928565 -0.025932
0.554686 0.243623 0.244910
-0.020601 -0.444978 -0.180342
0.971080 -0.098169 0.939981
-0.070053 0.671026 -0.450972
0.955834 0.336887 0.799442
-0.176848 0.121306 0.016277
0.587364 0.770326 -0.256085
-0.830361 0.344879 0.562867
0.110923 0.285459 -0.059078
0.604120 -0.620464 -0.024213
0.849403 -0.787223 0.090820
0.645166 0.930284 -0.449621
-0.926059 0.197717 0.819673
-0.254595 -0.168633 0.016655
-0.902603 0.178042 0.782586
-0.781435 -0.876376 -0.148714
0.350611 0.644255 -0.287623
0.426516 -0.566709 -0.116945
0.547441 0.609092 -0.058790
0.730913 0.068757 0.543996
0.478863 -0.446856 0.057630
0.601743 -0.939580 -0.513134
-0.902073 0.631667 0.416363
-0.530930 -0.647080 -0.127088
0.243796 -0.896390 -0.749671
0.716251 0.511755 0.252198
-0.991000 -0.299914 0.885655
0.029259 -0.221332 -0.044152
0.354575 -0.505865 -0.136695
-0.940785 0.718357 0.362171
-0.197289 -0.405341 -0.121244
0.791270 -0.579615 0.288777
0.343226 -0.381501 -0.047014
-0.524683 -0.593701 -0.091744
0.705562 -0.364690 0.353347
-0.303937 -0.834128 -0.612221
0.706689 -0.682940 0.037147
-0.402113 -0.165894 0.136363
0.180641 0.758934 -0.532697
-0.206120 -0.885419 -0.733953
-0.450350 -0.574651 -0.116689
0.773115 0.816691 -0.063194
-0.624813 0.780029 -0.215958
-0.830377 0.358902 0.571709
-0.316146 -0.519053 -0.160273
0.435278 -0.160379 0.167507
0.614863 -0.577558 0.057194
0.997487 -0.742823 0.419736
-0.407276 -0.240003 0.105367
-0.184116 0.151643 0.007845
-0.726357 -0.280135 0.460647
0.149744 0.221649 -0.010991
0.995160 -0.407491 0.809793
0.401762 -0.308299 0.080476
0.190426 0.581347 -0.313417
-0.215262 0.756629 -0.537563
0.830598 -0.355932 0.560862
-0.006167 0.143032 -0.023602
-0.731266 -0.443675 0.322318
-0.269243 -0.893331 -0.719049
-0.865667 0.475714 0.529869
-0.596042 -0.657993 -0.067148
-0.964662 -0.148575 0.904165
-0.093440 -0.025909 0.007664
0.269081 -0.631057 -0.326133
-0.313415 -0.810889 -0.542432
-0.159236 -0.303974 -0.095386
0.918419 0.904572 0.015673
0.503926 0.230271 0.200972
0.081713 -0.237180 -0.060433
-0.430918 -0.922178 -0.667306
0.793994 0.200547 0.588946
-0.529806 -0.815485 -0.390898
-0.349315 0.085088 0.115425
0.818130 0.503901 0.421701
0.059084 -0.152829 -0.022229
0.484636 -0.401177 0.069397
0.181490 -0.905232 -0.788163
0.306878 -0.950444 -0.809244
-0.401233 -0.139947 0.124000
-0.517256 0.766691 -0.315645
-0.355015 -0.511874 -0.140490
-0.689117 0.148111 0.465561
0.748629 0.368612 0.430481
-0.433506 -0.878340 -0.571853
0.122979 -0.693799 -0.476344
0.583949 -0.337446 0.223412
0.567648 0.340186 0.194073
-0.123227 -0.121930 -0.006734
-0.047485 0.468390 -0.204613
0.989403 0.735196 0.453281
0.349195 0.516745 -0.156569
0.629277 0.984494 -0.577823
0.805108 0.508722 0.388639
0.575180 0.704358 -0.159433
-0.629641 0.664733 -0.063020
0.124341 0.460532 -0.212658
-0.796212 0.603604 0.274512
0.305844 0.869366 -0.681748
0.910699 -0.049585 0.822446
0.025464 0.276574 -0.074224
-0.134055 0.029879 0.021235
-0.928315 0.702074 0.367443
0.919549 -0.137281 0.823067
-0.793995 0.639454 0.229972
-0.917842 0.598709 0.486833
-0.507867 0.923772 -0.601897
-0.868939 -0.502159 0.503269
-0.089764 0.419239 -0.163872
0.032176 0.513839 -0.245813
-0.374860 0.872557 -0.612972
-0.898079 0.813805 0.156413
-0.776799 0.147052 0.575687
-0.230991 0.158306 0.023054
-0.878943 -0.665418 0.327407
0.396379 0.949925 -0.746677
-0.585959 -0.489965 0.093202
-0.395857 0.449472 -0.032663
-0.211748 0.591590 -0.296308
-0.166781 -0.117569 0.010937
-0.996679 -0.577613 0.666149
-0.775859 -0.622079 0.217204
0.725529 0.712992 0.025233
-0.997534 0.021513 0.981168
0.016335 -0.819726 -0.673141
-0.020996 0.434039 -0.188529
-0.333812 -0.499658 -0.131991
-0.137346 0.752789 -0.554112
0.561162 -0.380856 0.144852
0.682407 -0.599458 0.095513
-0.479303 -0.830283 -0.460249
-0.355019 0.023062 0.126146
-0.515034 -0.098525 0.272391
-0.040273 0.502624 -0.245182
0.366517 -0.070795 0.130138
-0.543494 -0.312368 0.197488
-0.338529 -0.476690 -0.101590
0.860769 -0.443707 0.538147
-0.902861 0.855696 0.081541
-0.078461 -0.669843 -0.453426
0.423116 0.976353 -0.760049
-0.699092 -0.346161 0.372827
-0.905252 -0.823220 0.134715
-0.723589 -0.502619 0.269811
0.837646 -0.883171 -0.073243
-0.981480 0.580060 0.624328
-0.623356 0.025106 0.382598
-0.937433 -0.326027 0.765944
-0.778741 0.324099 0.504787
0.240299 0.261293 -0.014111
-0.516722 0.879744 -0.511486
0.138424 0.922521 -0.845244
0.180391 0.361368 -0.097269
0.698871 0.635632 0.082580
-0.990517 0.584850 0.635858
0.706739 -0.017393 0.501165
0.238238 0.408917 -0.102975
-0.674513 -0.843482 -0.249478
0.545875 0.516042 0.037207
0.710983 0.923666 -0.350069
-0.491473 -0.830050 -0.453108
0.837587 0.672232 0.239218
-0.091085 0.865960 -0.747522
0.206849 -0.547622 -0.256907
0.969299 0.049622 0.929215
-0.276928 0.855716 -0.654601
0.626319 0.920452 -0.464611
-0.363202 -0.744235 -0.438580
0.598427 -0.301992 0.275110
0.201468 0.396289 -0.121200
-0.567289 -0.556883 0.003327
-0.171948 -0.350459 -0.104194
-0.364729 -0.953418 -0.771748
-0.843783 -0.692957 0.245530
-0.940330 0.124659 0.864651
-0.307043 0.306180 -0.001627
-0.961932 0.297824 0.847330
-0.669024 0.556721 0.119551
0.450367 -0.169437 0.193790
0.416182 -0.453019 -0.007577
0.477161 -0.968839 -0.738029
-0.365694 -0.586740 -0.211507
0.780039 -0.375224 0.460478
0.187661 -0.643586 -0.381634
-0.747947 -0.959711 -0.365804
-0.712563 -0.685105 0.046495
0.386191 0.332199 0.037661
-0.654112 0.259171 0.351584
0.014585 0.871367 -0.760790
0.983549 0.596337 0.616899
-0.991985 0.135512 0.953833
-0.966840 -0.724887 0.392856
0.986169 0.128144 0.976036
0.169278 -0.876810 -0.746565
-0.746180 -0.138230 0.536304
0.794604 -0.219483 0.579246
0.760761 -0.144372 0.563394
0.072401 -0.440348 -0.170937
0.243584 0.371661 -0.072999
-0.453626 0.681889 -0.274380
-0.898961 0.537034 0.505883
0.189135 0.255504 -0.033500
-0.410490 0.076690 0.159938
0.327242 -0.937832 -0.789660
0.672490 0.445868 0.261638
-0.963679 0.089966 0.909720
0.191428 -0.458518 -0.158661
-0.537439 -0.344316 0.188493
0.747777 0.871214 -0.202325
-0.492671 0.248724 0.185251
0.221540 -0.048175 0.034440
0.107082 0.241843 -0.040785
-0.207667 -0.172515 0.008382
0.355242 -0.059635 0.111768
0.451539 -0.419381 0.025114
0.133876 -0.120293 -0.001205
0.516844 0.371184 0.126099
0.966834 -0.920116 0.097651
-0.161455 0.590055 -0.329950
0.029166 -0.434041 -0.170191
-0.975060 0.365120 0.804180
0.592057 0.285451 0.285204
0.040460 0.305256 -0.101709
-0.184077 0.216258 -0.012893
-0.811856 0.918204 -0.188890
0.779313 0.016688 0.603613
-0.209986 0.464638 -0.163781
0.365163 0.410899 -0.020495
-0.701252 -0.527465 0.225440
0.923099 -0.433388 0.660238
-0.643116 -0.151966 0.392348
-0.600916 -0.444604 0.155606
0.717966 -0.266514 0.434530
0.825166 -0.218079 0.621877
-0.575705 0.207729 0.283909
-0.060398 -0.560220 -0.307702
0.466990 0.608584 -0.171413
0.756731 -0.124927 0.556572
-0.241895 0.412488 -0.096473
0.034039 -0.837115 -0.688384
0.483433 -0.060069 0.224247
0.462272 -0.943561 -0.690581
0.565920 0.351820 0.201087
0.139868 -0.312580 -0.101317
-0.790770 0.898506 -0.170894
0.807947 -0.351752 0.526913
0.731145 0.127612 0.536601
0.596195 -0.485225 0.102736
-0.800275 0.240225 0.591913
-0.591205 -0.065915 0.344174
0.487201 -0.258743 0.167106
-0.953720 -0.592621 0.544683
0.958449 -0.776957 0.320920
-0.245711 -0.760242 -0.510832
0.438625 0.998080 -0.785921
0.775142 -0.175379 0.580168
-0.210740 -0.996141 -0.953824
-0.361735 0.905858 -0.699764
0.217482 -0.960040 -0.888063
0.161979 -0.162828 0.014456
-0.181720 0.434955 -0.163946
0.203550 0.829198 -0.631335
0.870763 0.425773 0.582196
-0.064719 -0.072748 0.002195
-0.606516 0.948884 -0.535588
-0.245588 -0.921361 -0.781986
-0.211786 0.973784 -0.903557
-0.737783 0.698783 0.052333
-0.674257 0.857860 -0.274341
0.369124 -0.490455 -0.105733
-0.321045 -0.715084 -0.416259
0.909797 0.326631 0.727041
-0.512807 0.031719 0.261325
-0.802151 0.046336 0.646188
0.507009 0.849238 -0.468686
0.762072 0.240162 0.510985
-0.443773 -0.377872 0.071498
-0.595824 -0.199867 0.330525
-0.628468 -0.733008 -0.133492
0.044025 -0.615372 -0.380623
-0.063167 -0.713300 -0.507810
-0.481120 0.620583 -0.139823
-0.909654 0.409747 0.656039
-0.037017 0.060690 -0.008639
0.918665 -0.251264 0.799533
0.305038 0.336989 -0.020990
-0.008987 0.625811 -0.373874
-0.778616 0.762466 0.010904
-0.495127 0.094032 0.241491
-0.410452 0.639770 -0.220124
0.529607 0.022612 0.280270
0.753422 -0.050940 0.562409
0.803284 0.730864 0.099425
0.969137 -0.227252 0.898407
0.964733 -0.208175 0.879673
0.905998 -0.390177 0.667646
-0.856356 0.037403 0.719601
-0.724413 0.089700 0.532297
-0.391067 0.320922 0.061491
0.105797 -0.138995 -0.008443
-0.806044 -0.564325 0.319703
0.691594 0.733684 -0.044631
0.233512 -0.307998 -0.043994
0.084729 0.845887 -0.719398
-0.669377 -0.585293 0.087877
-0.493489 0.120115 0.222644
-0.679376 0.073230 0.441643
0.703866 0.657296 0.057162
0.168456 -0.722297 -0.485892
0.470259 0.819874 -0.454805
-0.407934 0.062856 0.166016
-0.257495 0.172219 0.029411
-0.190290 0.020333 0.036449
0.520030 -0.927950 -0.571451
0.544706 -0.005819 0.293186
-0.586373 -0.472901 0.124042
0.883078 -0.314624 0.665183
-0.758689 0.298203 0.501885
0.792244 -0.004606 0.622858
-0.799209 -0.813564 -0.012646
-0.470920 -0.853917 -0.508641
0.692957 -0.628685 0.091061
-0.641016 -0.618230 0.035403
-0.172864 0.216602 -0.021559
-0.100281 -0.644371 -0.394239
-0.509482 0.763439 -0.330857
0.420490 -0.580479 -0.152364
0.702669 -0.817737 -0.178852
0.749150 0.751492 -0.000019
-0.321356 -0.409345 -0.068914
0.061701 -0.149155 -0.017940
-0.503187 0.918053 -0.600370
-0.510407 0.888738 -0.526865
-0.677492 0.429834 0.274680
0.880038 -0.862122 0.025811
0.775978 0.186680 0.566742
0.554717 0.978156 -0.647737
0.035323 0.893832 -0.803852
-0.018784 -0.787995 -0.621871
0.059491 -0.208065 -0.049808
0.073136 -0.368926 -0.107301
-0.130874 -0.740544 -0.520686
-0.736490 0.389597 0.393363
-0.748672 -0.452303 0.367653
0.904499 -0.310268 0.702060
-0.035938 -0.819282 -0.695509
0.906411 -0.004065 0.817572
-0.672846 -0.683664 -0.028460
0.108833 -0.135819 -0.008968
-0.584566 -0.713316 -0.165046
-0.493631 0.907700 -0.571043
-0.939891 -0.710035 0.367863
-0.762093 0.043774 0.582866
0.833697 -0.606040 0.327909
-0.356934 -0.847276 -0.587000
0.216258 -0.595383 -0.312911
-0.069972 -0.890452 -0.774177
-0.199098 -0.721205 -0.481532
0.063772 -0.013032 0.021639
-0.625522 0.303631 0.291182
0.977208 -0.825320 0.281210
0.636616 -0.117963 0.390768
0.483229 0.162494 0.203829
-0.062481 -0.531549 -0.272317
-0.694246 -0.255843 0.413530
0.841332 -0.856330 -0.052082
-0.317226 -0.559738 -0.243303
-0.899787 -0.066494 0.817919
-0.315193 0.980884 -0.850485
0.588914 0.992530 -0.619423
0.245417 0.959243 -0.860093
0.501677 -0.153827 0.215091
0.587271 -0.838639 -0.362625
-0.576091 -0.352853 0.207490
0.847567 -0.524571 0.433124
-0.124021 -0.971747 -0.912425
0.278027 -0.809533 -0.555649
-0.995382 -0.093616 0.986805
0.986737 -0.320675 0.870709
-0.438207 -0.639293 -0.229619
-0.875874 0.432200 0.595822
-0.083476 -0.285769 -0.073933
-0.741940 0.703736 0.052339
-0.695347 -0.518046 0.219947
0.264566 0.076787 0.058242
-0.214145 -0.631722 -0.351745
0.843705 -0.009399 0.697325
-0.361687 -0.695067 -0.341430
0.452360 -0.676843 -0.254530
-0.077801 0.224447 -0.032735
0.319903 -0.472428 -0.122862
0.199391 -0.655266 -0.390978
-0.054432 0.859537 -0.747963
0.900122 -0.913993 -0.017567
-0.314573 0.130296 0.073220
-0.645529 0.096528 0.402526
0.356188 -0.498782 -0.121903
0.692015 -0.094457 0.471175
-0.919493 -0.824524 0.148565
-0.100735 0.442540 -0.188002
0.784975 -0.556606 0.314329
0.499237 -0.613229 -0.130596
0.983615 -0.370243 0.828172
0.062828 0.804740 -0.642035
0.319991 0.592933 -0.250435
-0.395039 0.893785 -0.653100
0.895071 0.303925 0.708419
-0.267329 0.325843 -0.024768
0.477021 -0.039938 0.215443
-0.193720 0.810373 -0.622921
0.123638 0.021754 0.000997
0.439565 -0.289880 0.118601
0.017868 0.280750 -0.079425
0.814173 0.092279 0.645860
-0.161398 -0.751960 -0.538472
0.294144 -0.214549 0.028453
-0.315275 -0.373349 -0.050326
-0.183687 0.693668 -0.462035
-0.119900 -0.242315 -0.055008
-0.748386 0.643110 0.160064
-0.816553 -0.115221 0.646151
0.334980 0.507001 -0.140176
0.311035 -0.729436 -0.443697
0.325819 0.849300 -0.607558
-0.960467 -0.038880 0.910725
-0.346906 -0.480404 -0.110051
-0.604380 -0.517021 0.098494
0.556303 -0.469845 0.111996
0.721261 -0.266552 0.455472
-0.506639 0.435039 0.061495
0.335698 0.899206 -0.689028
-0.741274 0.338075 0.456575
-0.449695 0.094333 0.177031
-0.722691 -0.102804 0.503289
-0.432958 0.656389 -0.245762
0.349473 0.699314 -0.371080
0.820654 -0.413925 0.498812
-0.594955 0.906841 -0.481430
0.084158 -0.209769 -0.022881
0.402782 0.600156 -0.212180
0.905845 0.933640 -0.053130
0.220121 0.407316 -0.106995
-0.489786 -0.676899 -0.218603
0.250956 0.172274 0.023507
-0.359018 -0.762446 -0.465917
0.952257 0.578284 0.570081
-0.200648 -0.437370 -0.158603
0.370855 0.390430 -0.012849
-0.953545 0.820179 0.222539
-0.199877 -0.637980 -0.358938
0.750215 -0.214284 0.518061
0.220455 0.294238 -0.036077
-0.112114 -0.160683 0.001161
0.871875 -0.650362 0.332817
0.707969 -0.941857 -0.393133
-0.355569 -0.186804 0.086056
0.089097 0.298418 -0.083040
-0.020351 0.147968 -0.022390
0.264405 -0.687518 -0.411077
-0.331777 -0.098613 0.080121
-0.511590 -0.261058 0.187964
0.825344 -0.451595 0.480852
0.847749 0.458542 0.509780
0.686646 -0.380696 0.338549
0.956409 0.080284 0.927827
0.489983 0.846447 -0.468796
0.529334 0.078552 0.287850
0.525180 0.234046 0.228705
-0.038785 -0.853508 -0.709873
-0.087096 -0.643732 -0.388296
-0.519547 -0.798098 -0.357519
0.289638 0.529626 -0.189549
-0.421360 0.671842 -0.275880
-0.484383 -0.627089 -0.159027
0.171923 -0.561457 -0.289054
-0.180035 -0.353585 -0.086397
-0.562287 0.182155 0.275782
0.632112 0.243592 0.338317
0.721140 0.373508 0.356983
-0.664601 0.810386 -0.197799
-0.984986 -0.409920 0.799958
-0.327740 0.317518 0.011152
0.595022 0.119446 0.354361
0.678348 -0.388326 0.312362
-0.723342 0.814830 -0.126282
0.548672 -0.809033 -0.365911
-0.768592 0.424002 0.434929
-0.219875 0.455747 -0.148490
0.997219 0.830653 0.306553
-0.614818 0.037161 0.390871
-0.692073 -0.356755 0.340004
-0.154399 0.655481 -0.408703
0.239337 0.541621 -0.221628
0.865802 0.000631 0.730941
0.961642 0.535715 0.643370
-0.860719 -0.464249 0.530632
-0.724005 0.179013 0.511830
0.581476 0.730367 -0.211151
-0.458736 -0.364031 0.094016
0.769698 -0.032900 0.585758
0.326907 0.902090 -0.711368
-0.776310 0.596424 0.234717
0.665059 0.774078 -0.167772
-0.647287 -0.229506 0.370343
-0.153009 0.993011 -0.973781
0.104370 -0.694869 -0.464547
0.001532 0.037541 -0.008037
0.372326 -0.041453 0.124778
0.305373 0.596864 -0.268272
0.984084 0.817236 0.303914
0.998844 0.462279 0.781214
0.032919 0.253632 -0.062904
-0.809602 -0.145142 0.641351
0.455687 0.020652 0.218048
0.953328 0.018601 0.905388
-0.363347 -0.959263 -0.798607
-0.077582 0.006092 0.006743
-0.150446 0.711942 -0.479520
-0.897162 0.418548 0.615109
0.344529 0.591417 -0.239980
-0.293325 -0.219030 0.030873
0.574928 0.057946 0.325106
0.664240 -0.933033 -0.436946
0.642462 -0.234004 0.365069
-0.166668 -0.051168 0.009109
-0.356909 -0.489582 -0.128104
0.497642 -0.937518 -0.634632
0.602779 0.380816 0.216565
-0.017485 -0.129825 -0.031095
0.786062 -0.168644 0.583385
-0.712183 -0.500026 0.253167
0.758138 0.075661 0.565115
-0.807810 -0.123946 0.638712
-0.692949 -0.052031 0.470855
0.067680 0.161743 -0.006802
-0.864963 -0.987351 -0.221818
-0.894386 0.815392 0.126991
-0.998963 -0.857825 0.263007
-0.127367 -0.098151 0.007829
0.549248 -0.585254 -0.028702
-0.930323 0.047565 0.857235
0.304515 -0.439540 -0.092792
0.646255 0.720013 -0.100355
-0.663998 -0.207280 0.412844
-0.706273 0.277511 0.434717
0.721602 -0.502241 0.270434
0.646249 -0.961188 -0.508867
0.077884 -0.191691 -0.025614
0.638400 0.072973 0.400425
-0.814488 -0.080906 0.673648
-0.211037 0.924029 -0.808508
0.475595 0.413678 0.051005
-0.485096 0.991340 -0.752032
0.504658 -0.409880 0.074548
0.008357 0.578107 -0.328572
0.500532 0.111117 0.229985
-0.070641 0.223521 -0.033990
-0.264191 0.971706 -0.887346
-0.561622 0.307974 0.221843
-0.583241 0.797634 -0.284547
0.502982 0.451500 0.027615
-0.762179 -0.745228 0.045736
-0.828035 0.398847 0.522310
-0.647417 -0.031369 0.419576
-0.649307 0.837596 -0.274253
0.646215 0.613669 0.048266
-0.202987 -0.791731 -0.582895
0.980777 -0.732169 0.435826
-0.725577 -0.860778 -0.209285
0.307080 -0.013510 0.111724
-0.102541 -0.838456 -0.687271
-0.214164 0.447357 -0.134616
0.750168 0.104717 0.560798
0.951191 0.671770 0.435432
0.745718 -0.440408 0.388247
-0.615399 0.038282 0.371507
-0.558404 -0.765041 -0.258517
0.312148 0.769220 -0.493995
-0.421833 -0.649990 -0.233933
0.469450 -0.795276 -0.418964
0.132841 -0.589899 -0.324076
0.101818 0.612463 -0.367276
0.657094 -0.788371 -0.173966
0.421066 0.228855 0.129308
-0.946844 0.492363 0.663453
-0.901082 0.502162 0.538141
0.203117 -0.619878 -0.343848
-0.027616 -0.876752 -0.763826
-0.479631 -0.102387 0.221799
-0.162688 -0.595029 -0.317981
0.515821 0.398542 0.103576
0.653223 -0.286614 0.345040
0.122446 -0.101292 0.016545
-0.229261 -0.773030 -0.567802
-0.458606 0.135101 0.197961
0.043837 -0.628952 -0.396997
-0.370501 0.357971 0.000004
0.128190 -0.857662 -0.715787
0.353305 0.951789 -0.768804
-0.867842 0.369054 0.627340
-0.997865 -0.636541 0.589199
-0.575446 -0.971811 -0.604521
0.789023 -0.331074 0.521628
0.292582 -0.694373 -0.397424
-0.656079 -0.563177 0.106341
0.780528 0.745501 0.047100
-0.060088 0.206409 -0.030616
-0.047816 -0.647085 -0.416854
0.871084 0.113319 0.735484
-0.881027 -0.488439 0.520787
-0.569643 0.952402 -0.574257
0.171543 -0.934486 -0.849304
-0.609027 0.464637 0.158330
0.359054 0.545994 -0.156793
-0.571815 -0.865674 -0.435509
-0.801686 -0.656261 0.211570
-0.586030 -0.231387 0.288184
-0.154532 0.736310 -0.514474
-0.647723 0.074000 0.426461
-0.730616 0.310614 0.424024
0.720564 0.566026 0.204525
-0.359206 0.656246 -0.291314
-0.278483 -0.047431 0.073439
-0.889459 0.017586 0.789454
-0.285261 0.436012 -0.104548
-0.470386 -0.473315 0.000683
0.220970 0.708979 -0.448001
-0.589219 -0.958426 -0.565789
0.776731 -0.608457 0.223272
0.859333 0.600400 0.387876
-0.800338 -0.319484 0.550139
-0.785194 -0.700334 0.127922
-0.769347 -0.626490 0.184463
0.239139 0.061513 0.052256
-0.756062 0.692363 0.094207
0.704765 -0.858699 -0.252116
0.508543 -0.939038 -0.626778
0.639618 -0.069664 0.390164
0.052121 0.912375 -0.823638
0.993354 -0.441980 0.793066
-0.911650 0.918341 -0.028703
-0.197470 0.775362 -0.558678
-0.352127 -0.433730 -0.064693
0.897291 0.633896 0.408471
0.153722 0.371735 -0.118472
0.612382 0.023645 0.366438
-0.659318 -0.154168 0.403224
0.957268 0.631006 0.512813
-0.002721 0.586159 -0.343387
-0.012656 0.513873 -0.262425
0.941769 0.996512 -0.108013
-0.238535 -0.042975 0.050819
-0.204950 0.613846 -0.338316
0.169505 0.724957 -0.471753
-0.743895 -0.576795 0.212980
-0.357829 -0.915867 -0.716351
-0.613583 -0.190503 0.373132
-0.793433 0.713473 0.124702
0.732289 -0.421793 0.344538
0.178662 0.400020 -0.119669
-0.282654 -0.985304 -0.900030
-0.182661 -0.289271 -0.041222
-0.136962 0.231033 -0.036727
0.266298 -0.740486 -0.481802
0.853539 0.793214 0.115432
0.865559 -0.687452 0.282266
-0.217016 0.819587 -0.614897
-0.341475 -0.567221 -0.200786
-0.097907 0.988557 -0.972104
0.135868 0.209497 -0.019315
-0.076364 -0.831310 -0.673153
0.317507 -0.869446 -0.653778
0.108798 -0.850157 -0.692913
-0.358569 0.179785 0.104754
-0.308538 0.619158 -0.286041
-0.242814 -0.194075 0.023809
-0.810720 -0.110328 0.646468
-0.667875 0.178575 0.401655
0.446228 0.066081 0.193852
-0.221807 0.376123 -0.090059
-0.570922 -0.056429 0.318607
0.125345 0.427721 -0.163857
0.511079 0.994621 -0.727857
-0.485155 -0.299404 0.153470
0.653580 -0.975569 -0.517937
0.855010 -0.748750 0.172087
0.194789 0.107028 0.012816
0.337895 -0.311484 0.035058
-0.894848 0.879965 0.024995
0.891040 0.254892 0.728173
-0.215031 0.040710 0.041156
0.847801 0.596079 0.358572
0.157955 -0.482820 -0.192725
-0.990762 0.639477 0.586540
-0.922916 -0.993878 -0.131575
0.360838 0.239355 0.071838
0.125336 0.869514 -0.734155
-0.946935 0.575720 0.565971
0.486920 0.707268 -0.265040
0.704291 -0.206091 0.456933
-0.007165 0.648478 -0.424884
-0.068485 0.101663 -0.003123
-0.989054 0.237080 0.924062
0.573299 -0.882169 -0.443521
-0.338568 -0.596897 -0.247849
0.757527 0.101929 0.570559
-0.253879 -0.882398 -0.723235
0.130156 0.482894 -0.221971
-0.459316 0.680114 -0.256873
-0.678823 0.840725 -0.256737
0.549816 -0.796463 -0.321899
-0.006819 0.879440 -0.783060
0.072976 -0.864760 -0.749474
0.930832 -0.051888 0.876310
0.927160 0.680502 0.390836
0.711284 -0.859378 -0.234486
-0.624781 -0.963538 -0.548174
0.188545 -0.950105 -0.858820
0.756295 0.022540 0.579941
-0.251072 0.623194 -0.317943
-0.797788 -0.745147 0.086597
0.621926 -0.750780 -0.176142
-0.036473 0.137094 -0.022708
0.128785 -0.531409 -0.273959
0.964289 0.460427 0.730758
0.214423 0.899271 -0.755063
-0.150041 0.532067 -0.267516
-0.260031 0.754351 -0.501030
-0.164761 0.039172 0.022611
-0.763202 0.664639 0.129450
0.589501 -0.634194 -0.052913
0.675434 -0.863304 -0.293238
-0.431206 0.311906 0.079128
-0.392407 -0.896095 -0.663795
0.748668 0.784963 -0.071300
-0.952059 0.383108 0.755931
0.040915 0.904401 -0.817119
-0.072649 -0.372227 -0.142028
0.380254 -0.027683 0.150334
-0.673217 0.483381 0.218908
0.336661 -0.514442 -0.145541
-0.246532 0.083698 0.051944
0.237430 0.318935 -0.053218
-0.919810 0.957617 -0.069839
-0.076546 0.489407 -0.246286
0.044502 -0.763738 -0.575921
-0.571347 -0.049333 0.314632
-0.720753 0.177542 0.497146
-0.623051 -0.706754 -0.114692
-0.311718 -0.136068 0.089279
-0.806380 -0.431988 0.452408
0.894640 -0.762345 0.212433
-0.190012 0.024084 0.039334
0.617939 -0.668734 -0.053651
0.948834 0.181075 0.884164
-0.838529 -0.660606 0.267145
0.303339 0.447190 -0.089587
0.742818 -0.609517 0.177372
0.268469 0.792570 -0.545104
-0.141948 -0.947581 -0.887183
-0.137847 0.043995 0.021268
-0.928202 -0.359790 0.708693
0.069201 -0.549847 -0.308759
0.987086 -0.056794 0.975780
0.917415 0.684039 0.360617
-0.919202 0.830554 0.159380
0.411594 -0.393503 0.023630
-0.396470 -0.691513 -0.326014
0.805978 0.440281 0.446064
-0.909770 0.163997 0.796045
0.871748 -0.597968 0.392721
0.674951 0.520592 0.183532
-0.764991 0.037861 0.584799
-0.880351 0.306790 0.677838
0.669415 -0.281322 0.385718
-0.688485 -0.121805 0.451981
0.069796 -0.639316 -0.389939
0.831490 0.513032 0.417761
0.134896 -0.685977 -0.451640
-0.205533 0.556605 -0.255734
-0.109968 0.596016 -0.331828
-0.873766 0.493202 0.516016
0.937505 -0.961154 -0.039352
-0.378692 -0.453734 -0.058255
-0.621273 -0.063325 0.376571
-0.427905 0.191089 0.152748
0.928746 0.838444 0.178206
-0.811428 -0.248788 0.601237
0.734606 0.750047 -0.017260
0.415688 -0.673141 -0.273602
0.660038 -0.257439 0.354766
0.951795 -0.895436 0.108711
0.684309 0.484979 0.222907
0.886765 -0.698694 0.292279
-0.746130 -0.485960 0.342172
0.591577 0.550466 0.044418
0.091351 0.069433 -0.003878
0.086991 -0.972055 -0.925797
0.797843 -0.995530 -0.364002
0.943608 0.021321 0.885467
0.409677 -0.390089 0.028156
-0.034123 -0.639377 -0.407211
-0.087192 0.227188 -0.059628
-0.227317 -0.543127 -0.237874
-0.276802 0.184414 0.038646
-0.216986 -0.241468 0.004175
-0.820494 -0.626508 0.274636
-0.845128 -0.723791 0.200881
0.559740 -0.526279 0.054096
-0.107854 -0.940336 -0.881108
0.861369 -0.383746 0.592763
0.224442 0.803909 -0.592010
-0.929648 0.662724 0.416469
-0.684953 -0.255992 0.406332
-0.588360 0.151667 0.320916
0.951472 0.134721 0.884699
-0.562592 0.657475 -0.115275
0.031511 -0.527420 -0.276466
0.872354 -0.407225 0.596808
0.954385 -0.396429 0.747707
-0.527279 -0.918260 -0.570730
-0.901765 -0.370624 0.674631
-0.692796 0.755828 -0.091756
-0.873343 0.823975 0.079404
-0.609752 -0.780729 -0.234502
0.137139 -0.083883 -0.006377
0.824898 -0.237302 0.616839
0.074438 -0.021282 0.002289
0.251979 0.109439 0.042955
-0.596265 -0.959482 -0.548782
0.601167 0.684484 -0.106928
0.235578 0.947328 -0.840166
0.728274 0.306810 0.431418
0.897686 0.320904 0.702703
-0.304198 0.055960 0.077253
-0.818842 -0.331453 0.558943
-0.548142 -0.702044 -0.201777
-0.124317 0.168127 -0.015586
0.891387 -0.910117 -0.059341
-0.243380 0.649005 -0.373254
0.541546 -0.158177 0.282892
0.080953 -0.170492 -0.014210
-0.634382 -0.345658 0.296152
-0.358532 0.938708 -0.738750
0.306384 -0.650166 -0.322115
0.345707 -0.697384 -0.371360
-0.130481 -0.668937 -0.440824
-0.542709 0.317055 0.205476
0.443814 0.983791 -0.770228
-0.662254 -0.529050 0.183627
0.873339 0.811235 0.100969
-0.624193 -0.442767 0.213303
-0.785375 0.295800 0.527749
-0.004705 -0.919002 -0.831182
0.039099 -0.008692 0.018420
0.016386 0.309140 -0.105529
-0.126665 0.072640 0.005918
0.989630 -0.524329 0.694116
-0.027439 0.656994 -0.443188
-0.044107 0.940273 -0.875497
-0.156468 -0.081608 0.015856
-0.866349 0.271839 0.677187
0.185913 0.580827 -0.297233
-0.544064 -0.517022 0.010121
0.275218 0.728901 -0.442684
-0.898333 -0.439598 0.610265
0.962774 0.551662 0.627928
-0.061990 -0.775802 -0.591818
0.793511 -0.423227 0.464247
-0.048878 0.067240 -0.003181
-0.879338 0.049844 0.749515
0.644427 0.700862 -0.075351
0.296367 0.992254 -0.894728
0.563514 -0.785578 -0.309928
-0.143660 -0.457224 -0.186940
0.275873 -0.284804 -0.008617
0.712458 -0.042163 0.492391
0.262131 -0.012181 0.075279
-0.304653 0.712390 -0.420324
0.325059 0.541119 -0.191210
0.343708 -0.962297 -0.812506
0.921174 -0.089956 0.852824
-0.258175 0.236148 0.010480
-0.149836 -0.079209 0.016968
0.624246 -0.738710 -0.160415
0.011525 -0.205052 -0.037285
0.473146 -0.176689 0.206142
-0.080581 -0.624568 -0.377113
-0.569010 0.512614 0.067867
0.490408 -0.357199 0.118971
-0.737690 0.177975 0.498709
-0.602833 0.031460 0.353656
0.253650 0.754854 -0.507516
0.494540 -0.755970 -0.334180
0.789376 -0.771474 0.017297
-0.454827 -0.399361 0.028657
-0.778551 -0.137570 0.573752
0.912093 -0.402916 0.667008
-0.691154 0.526374 0.199930
-0.604666 -0.509468 0.098133
-0.417341 -0.830451 -0.514685
0.058783 -0.172400 -0.030605
0.765651 0.546759 0.298182
0.521092 0.701124 -0.221654
0.416315 0.466690 -0.037518
-0.649639 0.115773 0.410659
-0.284635 0.448383 -0.134051
-0.043190 0.362779 -0.130650
-0.705148 -0.531267 0.202633
-0.453141 0.101518 0.193949
-0.383334 0.541219 -0.153424
-0.745448 -0.365759 0.425732
0.100479 0.307946 -0.098158
0.410056 -0.037039 0.166921
-0.860137 0.006318 0.745519
-0.037754 -0.819890 -0.661718
0.564422 0.332434 0.200418
0.495980 0.731374 -0.288734
0.630146 -0.717137 -0.115360
-0.103519 -0.267789 -0.045523
0.641114 -0.902665 -0.418590
-0.518494 -0.940736 -0.625260
-0.278379 0.979317 -0.853522
-0.647289 -0.013057 0.416081
-0.065031 -0.288962 -0.098180
-0.215880 -0.450246 -0.161943
-0.518146 0.960025 -0.680862
0.503561 -0.495498 0.010465
-0.372306 0.451417 -0.057067
-0.454391 -0.432484 0.010313
-0.738219 -0.859021 -0.197657
-0.122357 0.366553 -0.110154
-0.394071 -0.996738 -0.855698
-0.261454 0.351497 -0.068408
-0.528005 -0.499247 0.027261
0.526311 0.492208 0.027211
0.860007 0.539500 0.445612
-0.004136 0.448214 -0.213517
0.285997 -0.951033 -0.820527
0.734345 0.407473 0.371735
0.997659 0.980291 0.039845
0.227033 -0.514749 -0.211419
0.779559 -0.451523 0.405906
0.817217 0.627053 0.260184
0.582903 -0.679206 -0.116620
-0.078137 0.321167 -0.100352
-0.837692 0.510053 0.439908
-0.968389 -0.925679 0.091379
-0.045599 0.107524 -0.016677
-0.011371 0.151755 -0.009388
-0.185275 -0.393114 -0.105767
0.136335 0.752689 -0.540426
0.104325 -0.674501 -0.453873
0.673226 -0.271611 0.357598
-0.782686 0.697337 0.137106
-0.549645 -0.618715 -0.079585
0.586010 0.642748 -0.077170
0.695674 -0.841862 -0.213033
0.989648 -0.021542 0.970324
0.745824 -0.849339 -0.169364
0.779798 0.355807 0.486735
-0.371304 0.581203 -0.211066
-0.196677 0.699717 -0.452017
-0.463830 0.962524 -0.700424
0.212599 0.344031 -0.071048
0.877611 0.538124 0.493098
-0.310718 0.011517 0.107749
0.114004 0.825474 -0.668333
-0.407401 0.287517 0.059942
-0.660400 0.767103 -0.163376
-0.609629 -0.529096 0.099338
-0.884109 -0.006524 0.766104
0.898587 0.459638 0.592925
-0.194241 -0.594557 -0.312383
0.668242 -0.577320 0.127944
0.362659 0.956086 -0.788328
-0.616158 -0.130779 0.356112
-0.649076 -0.636369 0.015809
0.623976 -0.337072 0.279238
-0.470577 -0.205248 0.177773
0.826570 0.246171 0.633111
-0.719889 0.846029 -0.205517
0.355417 0.973180 -0.819557
0.628948 0.303398 0.307977
-0.529487 0.399845 0.116479
-0.447585 -0.356342 0.081750
0.929038 0.714317 0.354352
-0.470805 -0.564403 -0.089006
-0.140086 -0.787239 -0.598180
-0.134969 0.946512 -0.873904
-0.493930 0.728277 -0.292744
0.551582 -0.392710 0.143714
0.543699 0.350341 0.185113
-0.243364 -0.065963 0.061230
0.670252 -0.353744 0.313873
-0.573850 -0.426452 0.149252
-0.991388 -0.727945 0.429209
0.142335 0.098636 0.004791
0.988156 -0.106807 0.974654
-0.922711 0.024373 0.849551
-0.584004 -0.569286 0.018153
0.037829 0.877221 -0.798250
0.619881 0.277182 0.303500
-0.821916 0.799201 0.040206
-0.209531 -0.781458 -0.562120
0.494152 0.245702 0.193440
-0.256914 0.698924 -0.424592
-0.622327 -0.338158 0.271283
-0.609008 -0.609714 -0.014181
-0.179902 -0.469957 -0.190540
-0.041166 -0.454133 -0.217157
0.723629 -0.105602 0.494008
0.284505 -0.348073 -0.051063
0.380804 -0.457452 -0.049164
0.965974 0.297025 0.842177
-0.176313 -0.893935 -0.765835
-0.193291 -0.319272 -0.069708
0.846694 0.379504 0.554962
-0.508249 -0.648301 -0.152616
0.459630 -0.558144 -0.121987
0.509146 -0.598667 -0.104720
-0.804424 -0.998148 -0.349747
-0.063537 -0.052464 0.003589
-0.598875 -0.922082 -0.498849
-0.629249 -0.454120 0.171350
-0.072344 0.989607 -0.982099
-0.421141 0.836792 -0.530350
0.592121 -0.569848 0.018149
0.815210 -0.379995 0.529871
0.605441 -0.072591 0.349154
-0.467938 0.688827 -0.252507
-0.451731 0.605292 -0.160734
-0.490543 -0.747517 -0.308545
-0.729924 -0.751102 -0.032697
0.887597 -0.166535 0.768005
-0.195904 0.740191 -0.511226
-0.550621 0.764170 -0.276428
0.693342 -0.785268 -0.150952
-0.201609 0.148595 -0.007817
-0.929766 -0.688650 0.394003
-0.676117 0.372259 0.322869
0.278501 0.832866 -0.611349
0.565811 -0.090461 0.306709
-0.578131 -0.833834 -0.346147
0.834791 0.158508 0.667153
0.701994 -0.182967 0.463528
0.696761 0.621798 0.104791
-0.544678 -0.319311 0.211902
-0.898928 0.749794 0.242710
0.734847 -0.452599 0.328622
-0.388400 -0.684965 -0.333304
0.237833 -0.387039 -0.077711
0.519934 -0.930168 -0.590668
-0.743414 -0.437508 0.365781
0.561677 0.320235 0.244097
0.877023 -0.715434 0.260574
0.456750 -0.777270 -0.408551
-0.117555 -0.735229 -0.528702
0.753356 -0.844897 -0.156053
0.054915 0.749271 -0.562350
0.489542 0.888230 -0.553328
0.641012 -0.906878 -0.417401
0.498706 0.520144 -0.035775
-0.424290 0.474303 -0.029017
-0.764312 0.993819 -0.400514
-0.523323 -0.304259 0.179039
0.005750 -0.428982 -0.176416
0.010554 -0.093836 -0.003983
0.165289 0.713150 -0.478506
-0.209796 0.457187 -0.158156
0.573783 -0.056752 0.327345
0.826307 -0.510874 0.428494
-0.506550 0.454031 0.057979
0.473046 0.709054 -0.277357
0.355944 -0.200098 0.084453
0.046181 0.337171 -0.096248
-0.622940 -0.199576 0.343444
0.590465 -0.043013 0.350711
0.921253 0.049821 0.850363
0.443673 0.551452 -0.113349
0.835720 0.955012 -0.221698
0.968371 -0.111268 0.921822
-0.295899 -0.315370 -0.016824
0.276447 -0.252818 -0.002075
-0.052135 -0.732222 -0.539946
0.973257 -0.406123 0.784957
-0.812384 -0.827105 -0.011475
-0.175250 -0.144211 0.015460
0.751078 -0.665285 0.095518
-0.431897 -0.307187 0.098585
0.575586 0.587156 -0.019034
-0.234434 -0.508145 -0.198721
0.959957 0.223789 0.871295
0.767060 0.802363 -0.057332
-0.397359 0.133858 0.138954
0.540386 -0.612415 -0.083259
-0.326287 -0.310468 0.023517
0.212726 0.180738 0.012389
0.316962 0.013222 0.111145
0.659191 -0.702760 -0.049940
-0.951098 -0.106407 0.899936
-0.559684 0.086133 0.287961
0.423836 -0.465335 -0.025733
0.127046 0.224891 -0.039014
-0.008790 -0.859680 -0.731815
-0.889580 -0.326786 0.674838
-0.303448 0.608554 -0.290107
0.730200 -0.481430 0.321181
-0.938214 0.210354 0.826428
-0.207128 -0.179941 0.021984
0.890297 -0.367080 0.659065
-0.898239 0.832263 0.109969
0.499411 -0.313477 0.150696
-0.484775 -0.526648 -0.055363
0.733218 0.818603 -0.132640
0.492136 0.491889 -0.010584
0.771410 0.363599 0.458915
-0.568150 -0.900930 -0.479627
0.062586 -0.737590 -0.537580
0.558540 0.276680 0.220593
-0.508601 -0.581134 -0.070528
-0.538507 -0.548724 -0.011179
-0.945636 0.558277 0.577132
0.917031 -0.428150 0.665099
0.420034 -0.856825 -0.559393
0.271121 -0.927136 -0.797732
0.487989 -0.113644 0.243697
0.063226 0.234257 -0.051052
-0.047732 0.737770 -0.542841
-0.100936 -0.778391 -0.599756
0.280878 -0.606654 -0.277337
-0.596930 0.059601 0.347524
0.776117 -0.271783 0.513042
0.623505 -0.034925 0.380752
-0.300873 0.848249 -0.615735
0.157219 0.089783 0.024978
-0.717945 -0.169759 0.484077
0.944692 0.978880 -0.052029
0.805785 -0.869569 -0.099380
0.843795 0.864227 -0.037564
-0.335674 0.003324 0.111007
-0.661731 0.007513 0.441124
-0.576456 0.843929 -0.388233
-0.819997 0.014648 0.672226
-0.759779 -0.123186 0.565174
-0.857391 -0.455023 0.511204
0.979646 0.317634 0.856922
-0.851885 0.139290 0.703275
-0.734916 -0.571309 0.223988
0.654509 0.418826 0.234522
0.160480 0.288174 -0.061105
0.548834 -0.205332 0.254240
0.261824 -0.991198 -0.904321
0.764350 -0.106838 0.572381
0.276935 -0.987884 -0.881260
0.044250 -0.850003 -0.713925
0.425499 -0.138780 0.157688
-0.105214 -0.836160 -0.685697
-0.307872 -0.448669 -0.110059
-0.064695 0.310983 -0.083931
-0.660572 -0.382769 0.276521
0.593143 0.995297 -0.647034
-0.478592 0.832604 -0.459622
-0.692937 0.170620 0.463308
-0.507295 0.933894 -0.636829
0.684140 0.736035 -0.059954
-0.339597 -0.362203 -0.017266
0.372100 0.499193 -0.129574
0.712819 -0.726336 -0.049471
-0.844511 0.369103 0.561668
0.530049 -0.017836 0.280437
-0.384669 -0.966348 -0.786517
-0.566755 -0.451540 0.123655
0.377803 0.910764 -0.692252
0.819593 -0.368337 0.524980
-0.409962 -0.637091 -0.241947
0.137668 -0.624937 -0.371258
-0.420332 -0.041573 0.177258
0.108571 0.685299 -0.465738
0.243724 0.516004 -0.197844
0.220671 -0.126296 0.026531
0.247093 -0.582546 -0.287002
-0.729840 -0.907870 -0.296985
0.387081 -0.074739 0.154994
0.349501 0.629551 -0.275511
0.365176 0.459364 -0.084607
-0.851859 -0.182798 0.701509
-0.106322 0.189405 -0.003142
-0.181930 -0.127507 0.018937
-0.826577 0.158032 0.670594
-0.555264 0.035010 0.317453
-0.118075 0.361933 -0.123110
0.485813 0.015418 0.236043
-0.525876 0.881222 -0.512832
0.659500 -0.143944 0.412171
0.091597 -0.968167 -0.935220
0.520843 -0.527253 -0.010747
-0.054888 0.001214 -0.004488
-0.001612 0.081144 -0.009453
0.239439 0.104770 0.051677
0.855941 0.429104 0.547310
-0.016375 -0.450704 -0.221509
0.057315 0.329807 -0.112949
0.203994 0.408065 -0.140097
0.475030 -0.177438 0.196610
-0.856299 -0.195662 0.699998
0.031375 -0.642150 -0.408807
-0.036817 -0.172025 -0.036111
0.843370 0.573633 0.384687
-0.012987 0.817946 -0.673568
-0.063359 0.187226 -0.042422
0.924400 -0.401259 0.700926
-0.098847 0.364579 -0.114967
-0.638231 0.480292 0.186147
-0.566168 -0.335574 0.201852
-0.809625 0.653096 0.240752
-0.998864 -0.852608 0.265852
-0.136109 -0.978493 -0.932387
0.538485 -0.754058 -0.283747
0.466933 -0.687983 -0.257535
-0.935702 0.757858 0.276977
0.139966 -0.150037 -0.005940
-0.691434 -0.450137 0.276369
0.882153 -0.141850 0.753971
-0.665270 -0.210318 0.415912
0.253278 -0.397077 -0.105145
-0.347523 -0.724201 -0.409330
0.283123 0.311831 -0.026129
-0.175483 -0.726791 -0.503069
0.519286 0.550849 -0.023462
-0.538642 -0.596624 -0.051045
0.811584 0.462743 0.437529
0.000419 0.611172 -0.380761
0.512186 -0.749348 -0.310759
0.699460 -0.826508 -0.180809
0.997657 0.899146 0.198067
-0.552109 -0.073906 0.298302
-0.426215 0.260471 0.099853
-0.499134 -0.953479 -0.673054
-0.474257 -0.442580 0.030750
0.164889 0.010795 0.032565
0.987045 0.772437 0.356938
0.980556 -0.457121 0.749318
0.053546 0.550383 -0.283871
0.278054 0.324426 -0.030113
0.719941 -0.769458 -0.058855
0.865867 -0.413250 0.585441
-0.592279 -0.524272 0.065090
0.057083 -0.114945 -0.012881
0.665674 0.270668 0.368574
-0.393596 -0.133160 0.127661
-0.120382 -0.510927 -0.256253
0.971242 0.391758 0.804905
0.970093 0.168942 0.902766
0.812214 0.038628 0.668983
0.596897 0.108839 0.340075
-0.461739 -0.556199 -0.096410
-0.358300 0.360862 0.003776
0.094566 -0.224999 -0.047667
0.121555 -0.273064 -0.054110
0.011006 -0.700532 -0.511088
0.273341 0.193675 0.041602
-0.183354 0.205329 -0.033227
0.498348 -0.319399 0.144067
-0.332900 0.719700 -0.398603
-0.338646 0.690916 -0.356461
-0.745548 -0.781891 -0.068496
-0.622576 0.390077 0.223744
0.701042 -0.212330 0.439489
-0.107435 0.999430 -0.985455
-0.544264 -0.549953 -0.026544
0.518682 -0.438952 0.076220
0.107962 -0.115787 0.001363
-0.957688 -0.462570 0.700365
-0.367277 0.383987 -0.007300
-0.645997 -0.038184 0.418092
0.311746 -0.558242 -0.219866
-0.449938 0.012748 0.182920
-0.870106 0.777576 0.153796
-0.890130 0.584791 0.440820
0.163455 -0.002342 0.020928
-0.956553 -0.423015 0.740844
0.697584 -0.640227 0.090906
-0.689206 0.756766 -0.098070
0.213133 0.420334 -0.125714
-0.110624 0.144327 -0.023037
-0.114297 0.758869 -0.560364
-0.856406 -0.756619 0.160359
0.605505 0.364979 0.245719
0.786105 -0.566575 0.291549
-0.977967 -0.758845 0.378157
-0.642792 -0.068783 0.419038
0.807808 -0.225214 0.600913
0.098987 0.882347 -0.779827
-0.699921 -0.352041 0.391473
-0.594419 0.629804 -0.054106
0.319972 0.497654 -0.145924
0.449634 0.335848 0.092844
0.198854 0.840801 -0.664727
0.906297 -0.184151 0.785565
-0.011873 -0.220658 -0.050396
-0.399456 -0.678105 -0.302611
-0.045534 -0.448476 -0.210217
-0.280667 0.759553 -0.476644
-0.551168 -0.051236 0.298961
-0.908073 -0.317293 0.729892
-0.295575 -0.567776 -0.238351
0.422819 -0.030079 0.174323
-0.963124 0.433331 0.735279
-0.121643 -0.426616 -0.182703
0.288019 0.515433 -0.184323
0.220808 0.259576 -0.022693
0.553297 0.575125 -0.012916
0.621039 -0.498181 0.125539
0.423412 0.262056 0.104832
-0.794405 -0.692529 0.142497
-0.049955 -0.272406 -0.057284
0.206812 0.448720 -0.167273
-0.508868 0.263337 0.195223
-0.914896 -0.624279 0.457013
-0.552819 0.716685 -0.209490
-0.090211 -0.893298 -0.803611
-0.172139 0.190431 -0.020274
-0.646666 0.967641 -0.509555
0.648831 0.063009 0.404406
0.851373 0.601344 0.367143
-0.597303 0.190362 0.321677
0.859146 0.566177 0.421347
-0.964278 0.311188 0.837710
0.849925 0.382264 0.566910
0.903858 -0.544378 0.510856
-0.975896 0.483642 0.725613
0.526039 -0.524180 -0.004342
0.940403 0.961281 -0.067204
0.811804 -0.544426 0.369115
0.941420 -0.526632 0.598568
0.100647 0.717346 -0.499784
-0.843688 -0.514028 0.461512
0.699578 -0.278194 0.412185
0.227657 0.429280 -0.122496
0.229473 -0.682503 -0.411614
-0.165493 -0.681857 -0.421666
0.143684 -0.027283 0.009280
-0.692840 -0.512607 0.217180
0.479540 -0.528684 -0.042817
-0.849965 -0.981522 -0.242849
0.459562 -0.259101 0.155586
0.697957 -0.363499 0.350692
-0.055063 -0.937688 -0.855534
0.019661 0.242466 -0.037181
-0.375571 0.253310 0.079708
0.938917 -0.858399 0.150243
0.466249 -0.365917 0.095410
-0.262023 0.745611 -0.499152
-0.650385 0.164334 0.382875
-0.560841 -0.176051 0.296113
-0.072155 -0.069796 0.003075
0.885137 -0.583440 0.440800
0.468293 0.623763 -0.169671
-0.569512 0.828009 -0.385116
0.719122 0.821328 -0.159349
-0.243599 -0.552131 -0.253039
0.703444 -0.378519 0.360738
-0.516601 -0.678754 -0.183881
0.237321 -0.385598 -0.086597
0.853341 -0.334389 0.620329
-0.484212 0.266211 0.148619
0.385853 -0.620707 -0.230488
0.974625 0.838794 0.252613
-0.698803 -0.793801 -0.129342
-0.823195 -0.986244 -0.273844
0.348390 0.709890 -0.399494
-0.320528 0.407540 -0.067235
-0.857511 -0.289280 0.644219
-0.049389 0.190999 -0.032316
0.507541 -0.552912 -0.047979
-0.429755 -0.663221 -0.257513
-0.329906 -0.057702 0.115785
0.691399 -0.293624 0.380803
0.040144 0.230460 -0.061912
0.685464 -0.563702 0.141859
-0.107221 0.325855 -0.098289
0.905950 0.533723 0.523600
0.301589 -0.666728 -0.354056
-0.768202 -0.912283 -0.243781
0.770186 -0.120825 0.570723
-0.021470 0.548048 -0.291158
-0.716722 0.301560 0.422157
-0.694620 0.403763 0.330098
0.375068 -0.194321 0.100965
-0.905255 -0.530109 0.538229
-0.426812 0.063558 0.172501
-0.720425 -0.591269 0.169343
-0.117845 0.452457 -0.183708
-0.171292 -0.606067 -0.342090
0.043753 -0.417473 -0.167186
-0.440727 0.013090 0.185942
-0.935913 -0.026580 0.882817
0.228772 0.201699 0.005855
-0.252564 -0.125111 0.056653
0.302670 0.838947 -0.611613
-0.782666 0.679868 0.165555
-0.972445 0.758227 0.359201
-0.503412 0.259033 0.171563
-0.086905 0.270016 -0.071518
-0.211856 0.218397 -0.016661
0.620605 -0.130232 0.354363
-0.244325 -0.355788 -0.060675
0.060882 0.184006 -0.030193
0.187031 -0.948936 -0.870296
-0.956337 -0.985087 -0.059685
0.030267 0.703284 -0.499664
-0.310337 -0.907152 -0.710112
-0.157440 0.049590 0.014973
-0.799425 0.229976 0.572971
0.565641 -0.603658 -0.036492
0.884808 0.791462 0.154317
-0.955462 -0.619808 0.549134
0.202746 0.769030 -0.555563
0.527688 0.525981 0.010259
-0.430385 -0.518514 -0.072804
0.575111 -0.698512 -0.162379
0.264710 -0.367535 -0.072439
0.858325 -0.204099 0.702480
0.962010 -0.508431 0.672710
-0.915308 0.997783 -0.171889
-0.110124 -0.540695 -0.291508
0.093976 0.661270 -0.453810
-0.706514 -0.681764 0.040312
-0.327428 0.960489 -0.817949
0.975295 -0.548953 0.648229
-0.967539 -0.156623 0.894687
-0.094984 0.117128 -0.015678
0.685309 -0.759429 -0.111863
-0.352197 0.633640 -0.284180
-0.040403 -0.450629 -0.200256
0.956091 0.098540 0.910236
-0.050246 0.099268 0.015367
-0.738157 0.205281 0.502536
-0.896557 -0.889028 0.024598
0.890833 -0.662762 0.346030
-0.468381 -0.677616 -0.256531
0.008128 -0.395897 -0.160192
-0.818596 -0.710172 0.149779
-0.152690 0.843843 -0.688609
0.860211 0.025909 0.731487
0.004826 0.247150 -0.080603
0.942270 -0.285024 0.823995
-0.482329 -0.447508 0.027002
0.009090 0.006354 -0.016334
0.719062 -0.411354 0.356819
-0.103495 -0.312708 -0.094361
-0.441025 -0.094498 0.196475
0.710951 0.011467 0.497985
-0.220221 0.968628 -0.895152
0.061447 -0.553355 -0.298978
0.953054 -0.024048 0.913666
-0.627033 -0.700977 -0.090512
-0.397199 -0.300002 0.066868
-0.937861 0.434621 0.695973
-0.216325 -0.651076 -0.369647
-0.599633 0.162703 0.335093
0.360070 -0.166598 0.100469
-0.637357 -0.896841 -0.412553
0.349625 0.866150 -0.621987
-0.473049 -0.172794 0.194340
-0.289564 0.567853 -0.242746
-0.302279 -0.167373 0.076136
0.433504 0.874721 -0.591489
-0.066981 -0.419059 -0.154684
-0.277402 -0.175539 0.045915
0.705245 0.517729 0.232504
0.143901 -0.312665 -0.081003
-0.572338 -0.271286 0.237304
0.800183 0.989646 -0.340504
-0.314699 0.111229 0.090011
-0.922041 0.378761 0.713462
-0.010800 0.286924 -0.084189
-0.752124 0.655848 0.113628
-0.523067 0.723650 -0.265487
0.494222 0.126512 0.248770
-0.738496 -0.410888 0.365623
0.613888 -0.954400 -0.519749
0.873815 0.228806 0.701859
0.213064 0.650938 -0.380148
0.420718 -0.098920 0.173471
0.427173 -0.670588 -0.275413
0.985616 -0.423836 0.807724
-0.316923 0.019978 0.100799
-0.674287 0.673362 0.005854
0.038334 -0.656494 -0.432191
0.066500 0.224300 -0.039301
-0.644175 0.506737 0.173967
0.226219 0.872095 -0.710688
-0.971751 -0.766593 0.373932
0.855337 0.852783 -0.001754
-0.470851 0.202935 0.188159
-0.920880 0.533403 0.568391
-0.783501 -0.892451 -0.193280
-0.519502 0.012296 0.271869
-0.452188 0.245259 0.144395
-0.934380 -0.386332 0.715281
-0.441290 -0.136700 0.179630
-0.614117 0.108596 0.366809
-0.242758 0.105096 0.047161
-0.229665 -0.916277 -0.787503
-0.321985 -0.121036 0.088124
-0.344152 -0.572364 -0.212836
-0.820537 0.833390 -0.019859
-0.949590 0.953160 -0.013232
-0.595771 -0.400706 0.220946
0.513299 -0.649629 -0.172636
0.981620 -0.560992 0.643018
0.857052 -0.044495 0.727501
0.008439 0.749011 -0.540542
0.063648 0.000072 -0.009150
-0.370837 -0.889216 -0.648926
0.547879 -0.920229 -0.544166
0.529513 -0.545218 -0.013542
0.688545 0.685543 0.016489
0.791009 0.242961 0.578824
-0.131302 0.125916 -0.003124
0.533751 -0.362061 0.155742
0.612797 0.858851 -0.380745
-0.383081 -0.337644 0.033739
0.858485 0.669889 0.280305
-0.811317 0.791807 0.029413
0.988538 -0.033330 0.959243
0.540181 0.788579 -0.326011
-0.813458 -0.446393 0.445481
0.312459 0.316867 -0.001291
-0.931641 -0.824072 0.176595
0.540374 -0.052132 0.280790
0.598446 -0.565336 0.050080
0.204820 -0.874473 -0.716873
0.713721 -0.992549 -0.464264
-0.804233 -0.350496 0.539541
-0.448152 0.179061 0.161049
-0.171645 -0.089539 0.036434
-0.915084 -0.396461 0.665542
-0.103568 0.982400 -0.946923
-0.469573 0.879050 -0.557164
-0.214530 -0.748693 -0.523822
-0.149795 -0.169785 -0.000244
0.758823 0.297694 0.496641
-0.459318 0.466982 0.002054
0.787486 -0.267256 0.550858
-0.148058 0.492564 -0.219378
-0.344385 -0.751700 -0.441183
0.005024 -0.336375 -0.110085
-0.164513 0.432866 -0.154895
-0.485255 0.251366 0.174328
0.005359 0.674420 -0.446386
-0.696397 -0.906286 -0.352658
-0.296140 -0.651217 -0.337697
0.131580 -0.903011 -0.811954
-0.173184 -0.615772 -0.346415
0.647825 -0.991434 -0.546846
-0.486556 0.008421 0.231925
0.939543 0.056629 0.880807
0.569444 0.315784 0.232112
0.935186 -0.230175 0.800915
0.676273 -0.993585 -0.535086
-0.715792 0.347782 0.395051
0.052920 -0.891418 -0.820795
-0.660043 0.732341 -0.110435
0.636455 -0.954692 -0.495354
0.168324 0.060950 0.034648
-0.473101 0.789836 -0.396272
0.859198 0.144979 0.726024
-0.769628 0.216833 0.547461
0.127725 0.363222 -0.110062
0.442081 -0.755182 -0.378021
-0.882303 0.349854 0.657219
0.195712 0.760710 -0.546700
0.631802 0.948442 -0.487732
-0.864945 -0.113896 0.750374
0.024486 -0.310990 -0.082316
-0.482886 0.506619 -0.027566
0.325849 0.085749 0.089287
-0.762645 -0.485391 0.358793
0.874103 -0.655684 0.339573
0.789457 -0.659539 0.191536
-0.628051 -0.081646 0.381446
-0.353468 -0.659751 -0.306075
0.175270 -0.960562 -0.902813
0.436125 -0.895822 -0.605953
-0.114688 0.859769 -0.712261
-0.687417 -0.854077 -0.240595
-0.791697 -0.853639 -0.094829
0.999531 -0.097623 0.975711
-0.089296 -0.509799 -0.249948
0.745063 0.925388 -0.279826
-0.035248 0.821972 -0.683081
0.844715 -0.190514 0.676657
-0.824481 -0.102537 0.683391
-0.771962 -0.249773 0.539710
0.859264 -0.924268 -0.091134
0.894986 -0.414306 0.622022
-0.370565 -0.754653 -0.442080
-0.289670 -0.795259 -0.536287
-0.095100 0.121723 -0.017731
-0.167677 -0.802470 -0.617811
-0.619910 -0.794137 -0.247023
0.796751 -0.038973 0.643653
-0.493385 -0.115435 0.236246
0.410545 -0.724730 -0.352116
-0.865689 -0.991102 -0.236891
-0.922497 -0.614051 0.486093
0.307461 -0.528215 -0.144221
-0.321968 0.600497 -0.250020
0.310919 0.830877 -0.592689
-0.811958 -0.188111 0.610911
0.899703 -0.189947 0.767011
0.497029 0.424963 0.064307
0.752534 0.253844 0.496525
-0.727059 -0.631720 0.129384
-0.359678 -0.784622 -0.468483
-0.263312 -0.124776 0.066236
0.074345 0.129657 -0.012872
-0.406263 -0.722585 -0.369162
-0.878739 -0.413453 0.614612
-0.262243 -0.388114 -0.082352
-0.490901 -0.477404 -0.004195
-0.228157 -0.078477 0.053021
-0.606081 0.306127 0.283877
-0.476207 0.018780 0.202162
0.253905 -0.597087 -0.300291
-0.223692 -0.794122 -0.581696
-0.309233 0.643741 -0.311432
0.067811 -0.041391 -0.002272
0.543721 -0.875722 -0.479577
-0.242264 -0.483757 -0.168057
0.175039 0.608068 -0.343791
0.932405 0.503453 0.621336
0.043960 0.751633 -0.574135
0.819595 0.204176 0.616525
0.587345 -0.154188 0.328753
-0.882563 -0.146730 0.759912
-0.141802 -0.612000 -0.345211
0.396637 0.301598 0.061034
0.973424 0.170138 0.910656
-0.083247 -0.690271 -0.455937
-0.814429 0.771326 0.053122
0.124018 -0.263064 -0.041307
-0.746872 -0.900522 -0.239917
0.503039 -0.344238 0.143149
0.015354 0.739713 -0.553818
0.446863 0.833913 -0.503890
0.738724 -0.019203 0.543243
0.257896 0.912680 -0.779425
0.224879 0.750484 -0.522272
0.509141 0.650461 -0.157429
0.684910 0.719420 -0.041970
0.738108 -0.236249 0.478493
-0.927140 0.512938 0.603244
0.112381 0.154678 -0.006753
-0.567461 0.439368 0.144067
0.720692 -0.644428 0.109801
0.296795 0.462788 -0.115499
-0.159555 0.915185 -0.807335
-0.623792 -0.394673 0.243148
-0.321953 0.972323 -0.854629
0.407555 -0.243248 0.105714
-0.591281 -0.600553 -0.011441
-0.812834 -0.775428 0.056974
0.776058 0.569924 0.281891
0.528421 0.109651 0.273549
-0.600410 -0.385737 0.215622
-0.415377 0.216901 0.123723
0.944140 -0.335798 0.771284
0.416369 -0.103284 0.173667
0.221044 0.725328 -0.473743
-0.384743 0.336333 0.024721
-0.401750 0.524804 -0.115953
-0.920953 0.166987 0.802836
0.456964 0.982796 -0.756719
-0.913650 -0.517180 0.565297
-0.990285 -0.475418 0.748898
0.458990 -0.814882 -0.437515
0.897748 0.108039 0.782717
0.513006 0.226718 0.218838
-0.056720 0.451923 -0.179150
-0.027910 -0.329108 -0.096761
-0.127727 -0.975486 -0.935575
-0.350713 0.264459 0.041720
0.043428 0.997391 -1.006523
-0.137698 -0.410901 -0.153995
0.196336 -0.632131 -0.367912
0.796240 -0.436466 0.436300
0.990019 -0.149169 0.954623
-0.842513 -0.498174 0.460629
-0.230633 -0.306080 -0.035641
-0.638588 0.276413 0.319012
-0.295759 -0.309944 -0.015414
-0.425054 -0.207882 0.135859
-0.650926 -0.919937 -0.424535
0.528152 0.835885 -0.401395
-0.007423 -0.186228 -0.032303
0.838491 -0.343713 0.568793
-0.934815 -0.827032 0.194080
-0.866044 0.268366 0.683468
-0.193453 0.727650 -0.493302
-0.839445 -0.917694 -0.149627
-0.474541 -0.709455 -0.260557
0.972059 -0.707220 0.434040
-0.582081 0.204550 0.303585
-0.603765 0.842461 -0.343208
0.147281 -0.124463 0.012209
-0.004003 -0.312387 -0.080501
0.160877 0.531681 -0.251187
-0.246529 0.485138 -0.180169
0.653525 -0.506488 0.181625
-0.722839 -0.678347 0.056030
-0.143215 -0.284380 -0.058726
0.379524 0.551207 -0.172722
0.736473 0.390127 0.379861
-0.260857 0.331707 -0.041470
0.135491 0.658857 -0.412054
-0.861720 -0.445739 0.526854
-0.659362 -0.320633 0.336926
-0.861724 -0.915321 -0.103439
0.455762 0.737492 -0.323378
-0.423880 0.164859 0.148976
0.447491 -0.403755 0.025993
-0.867203 -0.861167 0.011191
0.725096 0.446819 0.316954
0.671060 0.497475 0.215530
-0.822143 0.332357 0.565462
-0.952487 -0.592438 0.554732
-0.887422 0.826432 0.110446
0.707260 0.506316 0.233812
-0.530593 0.315513 0.169089
0.096547 0.301888 -0.077732
-0.147512 0.808715 -0.643258
0.591051 0.856614 -0.395447
-0.022203 0.191275 -0.027726
0.001322 -0.166661 -0.022524
0.978184 -0.272532 0.870032
-0.699741 0.638158 0.076201
0.661408 0.289211 0.344780
-0.896501 -0.845468 0.106660
-0.044702 -0.715628 -0.501065
0.772670 0.800372 -0.047785
0.330428 0.768996 -0.476411
0.370429 0.903665 -0.692954
-0.473365 -0.144298 0.196526
-0.162850 0.568122 -0.295193
-0.266838 0.656450 -0.355202
0.042886 -0.368606 -0.135006
-0.075544 -0.709325 -0.494954
-0.346203 0.994053 -0.867501
-0.389039 -0.939562 -0.733061
-0.498294 0.194672 0.207439
-0.269906 0.300425 -0.021669
-0.700117 0.363579 0.360294
0.744209 -0.488744 0.319083
0.204239 0.443158 -0.152692
-0.732427 -0.567201 0.202947
0.387719 0.658077 -0.292728
0.695333 -0.561767 0.171895
-0.524929 0.393412 0.135494
-0.698799 0.566827 0.168551
-0.982765 -0.622109 0.574692
-0.905499 -0.524027 0.547568
0.524503 0.558207 -0.047861
0.974373 -0.828002 0.276904
-0.910239 -0.618478 0.447886
0.496142 -0.088938 0.231552
-0.856276 0.860364 -0.008686
0.184266 0.123756 0.013368
0.512151 -0.224644 0.224950
-0.281591 0.956740 -0.838081
-0.978131 -0.072577 0.953026
0.190379 -0.132530 0.024417
0.982489 -0.176711 0.926651
-0.484765 -0.375640 0.095829
-0.621017 -0.348610 0.266878
-0.752148 0.375674 0.409055
0.110511 -0.918329 -0.828588
0.192890 0.363633 -0.095480
0.584542 -0.597591 -0.014126
0.506147 -0.231584 0.202909
0.785083 -0.706922 0.119208
0.611545 0.105502 0.376231
-0.505466 0.458701 0.033294
0.111755 -0.290689 -0.075432
-0.405176 -0.673167 -0.282320
-0.340429 -0.546989 -0.178495
0.863889 0.636226 0.346114
0.363792 -0.464703 -0.056068
0.949181 0.549405 0.605240
-0.166175 -0.337601 -0.075051
0.074875 -0.622535 -0.385014
-0.025769 0.454617 -0.215942
-0.785426 -0.062910 0.609793
-0.526596 -0.937446 -0.594381
0.055273 0.919885 -0.839065
-0.865251 -0.704493 0.256382
0.862924 -0.293186 0.656536
-0.752313 -0.230411 0.509147
-0.604039 -0.021140 0.362617
0.530642 0.570888 -0.037087
-0.806131 -0.987819 -0.317533
0.800556 0.864944 -0.117300
0.451402 0.291979 0.126135
-0.862758 0.901298 -0.074493
0.383694 0.634779 -0.251034
0.263257 0.855676 -0.664798
0.514699 0.202001 0.239768
0.656396 -0.285382 0.345232
0.436701 -0.114172 0.179459
0.172353 0.316065 -0.064126
-0.355073 -0.146136 0.095982
0.394547 0.463346 -0.059750
0.913943 -0.816304 0.166274
0.175044 0.659973 -0.410063
0.328690 -0.591623 -0.246378
-0.125744 0.887895 -0.761426
0.512242 -0.688908 -0.218189
0.995335 -0.741672 0.446279
-0.679221 0.623752 0.075421
-0.595189 0.637404 -0.066003
0.078876 0.477519 -0.216611
-0.037249 0.921061 -0.861101
0.143140 -0.458921 -0.183838
-0.901852 0.653297 0.381467
-0.191447 -0.295919 -0.050832
0.165957 0.074797 0.009004
0.170383 -0.108800 0.018417
0.314668 -0.988300 -0.868451
0.440432 0.148924 0.163732
0.283094 0.495012 -0.170966
0.580486 -0.650895 -0.082154
0.249521 0.863312 -0.678250
0.075015 0.060799 -0.022411
0.212393 -0.643508 -0.348838
-0.797613 0.291895 0.556270
-0.453687 -0.616155 -0.166845
0.054800 -0.872933 -0.760445
0.745974 0.370630 0.400557
0.358103 -0.778610 -0.471249
-0.819184 -0.787565 0.045151
0.184550 0.479887 -0.190794
-0.556524 -0.889596 -0.483849
0.468033 0.619538 -0.162392
0.654882 0.592297 0.070304
0.186913 -0.717213 -0.470814
0.182725 0.036761 0.020153
-0.322817 -0.806749 -0.524177
-0.107500 0.265142 -0.036365
0.728217 -0.874140 -0.217494
0.446641 0.888962 -0.578010
0.039507 -0.584539 -0.340970
-0.263535 0.365789 -0.052686
-0.899240 -0.743417 0.255003
-0.713985 -0.580807 0.156903
-0.613950 -0.098101 0.382342
-0.253233 0.146192 0.054043
0.888287 0.997727 -0.206717
0.010307 -0.948148 -0.911129
-0.530320 -0.999371 -0.723366
-0.788500 -0.299266 0.513960
-0.323389 -0.267687 0.042375
0.631461 0.767674 -0.206614
-0.233314 0.825165 -0.623594
0.545012 0.761050 -0.290596
0.605410 -0.713642 -0.157031
-0.778358 -0.175790 0.577323
0.217320 0.491770 -0.197948
0.918192 -0.374778 0.711000
-0.195724 0.326476 -0.080955
-0.898112 -0.525714 0.522656
0.846605 -0.353161 0.568141
0.767333 0.720859 0.047318
0.044283 -0.498982 -0.229040
0.104506 0.928648 -0.830630
-0.576518 -0.387481 0.183159
0.638902 -0.952944 -0.508145
-0.002800 -0.490198 -0.243271
-0.932244 -0.657590 0.445391
0.366030 0.013654 0.128648
0.900993 -0.774568 0.214209
0.658301 0.252098 0.369679
-0.445604 0.749798 -0.369323
-0.893350 -0.274962 0.717208
0.880703 -0.663015 0.338982
0.874125 -0.199950 0.714346
0.064831 0.571934 -0.318388
0.284635 0.182975 0.042821
-0.074800 -0.797714 -0.629478
-0.160469 0.074374 0.034058
-0.761103 -0.063829 0.573522
-0.806494 -0.345775 0.540070
-0.534536 -0.779679 -0.340091
0.673281 0.962224 -0.477270
-0.708335 -0.647913 0.082224
-0.546603 -0.614514 -0.059620
0.097228 -0.708835 -0.512593
-0.569738 0.140386 0.303931
-0.673587 -0.112661 0.455593
0.126632 -0.500886 -0.242701
-0.263813 -0.141153 0.047545
0.252319 0.347044 -0.053457
0.824411 -0.436599 0.490879
-0.698014 0.830492 -0.186835
0.826867 -0.387308 0.538187
0.804980 -0.603642 0.296887
0.658175 0.909136 -0.396933
0.262572 0.621121 -0.324253
0.240293 -0.313725 -0.042940
0.278425 0.682864 -0.400373
0.380991 0.037628 0.148573
-0.967036 -0.306495 0.837360
0.916185 0.679223 0.371333
0.171208 0.504330 -0.220050
0.562932 -0.404250 0.142037
-0.245436 0.213357 0.022423
-0.975206 -0.261220 0.878007
0.019469 -0.997896 -0.983827
0.014380 0.923631 -0.856816
-0.126021 0.099258 0.012348
-0.320566 0.196865 0.065802
-0.500348 0.199783 0.217874
0.055090 0.101283 -0.006124
-0.249444 -0.419904 -0.130731
0.939864 0.943152 0.003896
-0.654145 0.243337 0.367817
-0.360669 0.341843 0.021121
-0.412079 -0.090414 0.168537
0.086618 -0.424277 -0.180241
-0.001439 -0.871302 -0.768313
0.287481 -0.299540 -0.000525
0.900004 -0.647805 0.387322
-0.429558 0.324177 0.088794
0.385543 0.758008 -0.427714
-0.949920 -0.394490 0.756959
-0.475223 -0.334235 0.118357
-0.072561 0.340729 -0.107951
-0.938010 -0.701457 0.384081
0.235339 0.858875 -0.679957
0.356621 -0.272306 0.064956
0.493463 -0.797601 -0.393204
0.033149 -0.650632 -0.416911
0.207889 0.865492 -0.705395
-0.207869 -0.505761 -0.211339
-0.917494 0.324538 0.753705
-0.800096 -0.687670 0.179282
0.309992 -0.611797 -0.277406
0.991111 0.758476 0.409158
-0.968394 -0.703934 0.435245
0.115167 -0.962499 -0.914870
0.502017 0.002466 0.255109
0.653550 0.725454 -0.090650
0.090410 -0.348018 -0.105450
0.239832 -0.743675 -0.506626
0.393450 0.964462 -0.765614
0.717933 0.353477 0.389593
-0.755421 0.701381 0.068855
0.852364 0.504277 0.485594
-0.947965 0.396485 0.756071
0.672400 -0.230872 0.401457
-0.846519 -0.351320 0.600257
-0.610744 0.433917 0.192398
-0.992212 0.433426 0.810584
-0.109487 0.901177 -0.792852
-0.331282 0.137320 0.077614
-0.668014 -0.410758 0.297619
-0.097820 -0.020942 0.019787
-0.195258 0.227428 -0.018693
0.535322 -0.146540 0.254799
0.786261 0.582266 0.284220
0.305135 0.169226 0.061687
-0.751179 -0.981129 -0.395043
-0.409218 0.139680 0.155383
0.826637 0.267208 0.606264
-0.822531 0.830522 -0.024371
-0.186288 -0.172557 0.008786
0.885009 0.148935 0.755726
0.901330 -0.050005 0.811356
-0.177594 0.063313 0.014098
0.334794 -0.865392 -0.639338
-0.086509 0.794567 -0.616704
0.506921 0.820825 -0.410725
-0.936837 0.096119 0.860542
-0.711686 0.113111 0.482020
0.228398 -0.884888 -0.730704
-0.534895 0.195901 0.253346
0.332105 -0.141696 0.094267
-0.297554 0.418087 -0.091380
0.773291 -0.905750 -0.219426
0.638519 0.421775 0.244835
-0.014324 -0.426212 -0.179400
0.545790 0.303411 0.189497
-0.457724 0.254252 0.146899
-0.011480 -0.546317 -0.277891
-0.605036 -0.119095 0.339011
0.721772 0.671266 0.070654
0.646135 0.211183 0.370629
0.804299 -0.862523 -0.096090
0.754954 -0.114182 0.558860
0.919193 -0.376457 0.714595
-0.543328 0.283291 0.215799
0.863649 0.229128 0.706162
0.142426 -0.979204 -0.939731
-0.155010 0.215391 -0.025867
0.120748 0.469699 -0.212729
-0.314795 0.537460 -0.207938
-0.422894 -0.882048 -0.596412
-0.517371 -0.392683 0.134013
-0.835144 -0.157453 0.677256
-0.006870 -0.640457 -0.403270
0.775523 -0.158532 0.572174
0.260304 -0.857741 -0.670405
0.041951 -0.773565 -0.586797
-0.142814 0.337390 -0.073349
-0.071197 -0.474855 -0.205539
-0.581445 0.422812 0.167361
0.645872 -0.903783 -0.399322
-0.603234 0.125406 0.350262
0.433246 -0.217103 0.133033
0.519970 0.593943 -0.096881
0.149738 0.567903 -0.311360
0.725853 -0.248881 0.465419
-0.417899 0.245428 0.111485
0.763234 -0.544902 0.270914
0.458821 0.160814 0.184282
0.597500 -0.837471 -0.347535
0.329159 -0.130791 0.079511
0.692686 -0.634545 0.073465
0.986198 0.766762 0.381452
-0.159674 -0.110198 0.007186
0.627831 0.181547 0.370479
0.489160 -0.279236 0.142275
-0.094260 -0.422518 -0.189495
0.853898 -0.594160 0.376148
-0.211148 0.823743 -0.633008
0.130932 0.598932 -0.337534
-0.788115 -0.733478 0.077746
-0.548450 0.493450 0.048125
0.681392 -0.162938 0.437673
-0.206895 -0.969207 -0.900972
-0.211832 0.056735 0.057165
-0.508038 -0.739907 -0.292602
-0.016779 -0.580131 -0.336803
0.611634 0.392082 0.245122
0.790328 -0.485716 0.386751
-0.859771 0.783776 0.130463
0.149641 0.314340 -0.069954
-0.065453 0.664567 -0.430051
0.228564 0.230379 0.002062
-0.105449 0.737699 -0.531142
-0.202710 -0.276631 -0.034430
-0.056239 0.098281 -0.012256
0.163998 0.031781 0.029141
0.001966 0.807581 -0.631897
-0.055711 -0.670169 -0.433916
0.635671 0.156122 0.382742
0.491296 0.508862 -0.009011
-0.317243 -0.259900 0.024403
0.601154 0.735163 -0.181683
0.707301 -0.253970 0.445253
-0.693016 -0.653382 0.068234
0.165365 0.168097 -0.008620
-0.429376 -0.158864 0.154290
0.478345 -0.969620 -0.689535
-0.522429 -0.860323 -0.466260
0.342807 -0.609446 -0.235674
-0.489751 0.538660 -0.048230
0.022288 0.784079 -0.611821
0.897293 0.091282 0.793747
-0.237385 -0.788869 -0.556537
0.751477 0.068838 0.573557
0.973889 0.711211 0.432289
0.749702 0.498955 0.309572
-0.668268 -0.417804 0.281173
0.639316 -0.752219 -0.158403
-0.935701 0.801363 0.228420
-0.213396 0.708178 -0.445882
0.741467 -0.892569 -0.235872
0.377504 0.647349 -0.281048
0.065481 -0.805575 -0.642539
-0.224272 -0.873433 -0.724672
0.624594 0.517202 0.113665
0.419117 0.072621 0.171627
-0.063189 -0.170904 -0.024901
0.784969 0.807724 -0.045912
-0.540104 0.678607 -0.175955
-0.659217 -0.884753 -0.358871
0.285608 0.232174 0.032217
0.943989 0.544535 0.574920
-0.505487 0.100981 0.235204
-0.500659 0.966011 -0.701147
-0.721002 0.372095 0.385580
0.721127 -0.791714 -0.124814
-0.547205 -0.603404 -0.064346
0.006357 0.652491 -0.409309
0.981745 0.993513 -0.006511
-0.975718 -0.803321 0.288642
0.112972 -0.799341 -0.623200
0.024578 0.526774 -0.286777
0.614895 -0.871291 -0.392985
-0.289437 -0.862880 -0.661922
-0.179317 0.777633 -0.560275
-0.664124 0.600900 0.085977
0.481630 0.763126 -0.357545
0.569418 0.301027 0.240670
-0.726673 -0.354927 0.379644
-0.213086 0.812626 -0.622486
0.785810 -0.402553 0.447210
-0.994585 -0.448978 0.788402
-0.402482 0.772801 -0.437258
0.110085 0.361645 -0.120083
-0.331812 0.791344 -0.517873
-0.455910 -0.688197 -0.265538
-0.079925 0.904594 -0.806500
-0.636954 0.225484 0.356360
0.059250 0.336070 -0.112276
0.413392 0.828121 -0.510874
0.150590 -0.238494 -0.025941
-0.813781 0.439150 0.463827
0.688817 0.280681 0.395093
-0.650044 0.575505 0.102970
0.529624 0.793886 -0.360780
-0.278870 0.360122 -0.033872
0.565523 -0.864721 -0.441318
-0.587454 -0.633719 -0.059951
-0.626676 0.907956 -0.441164
-0.005948 0.937301 -0.856618
-0.934128 0.934827 -0.006339
-0.549405 -0.926401 -0.561381
0.448025 -0.235104 0.141745
0.674767 0.519345 0.186547
-0.838429 0.505772 0.443874
0.764155 -0.828182 -0.103281
0.595034 0.218978 0.270823
0.739369 -0.714261 0.037069
0.396857 -0.013581 0.157489
0.348306 -0.520629 -0.139351
0.050186 -0.893678 -0.783050
0.305574 -0.839961 -0.614036
0.838219 0.821786 0.035442
-0.798956 0.489292 0.387908
-0.368471 0.863648 -0.602443
-0.855090 -0.060020 0.721852
0.889610 -0.173415 0.749487
-0.109469 -0.283185 -0.070066
0.350689 0.232614 0.082878
0.682240 -0.296881 0.379123
0.982000 0.492546 0.736688
-0.676435 0.602635 0.086909
0.599025 0.751689 -0.195727
0.774846 -0.514398 0.329259
-0.902249 0.054044 0.813386
0.508181 -0.553111 -0.045517
-0.290549 -0.924888 -0.764385
0.297194 0.415651 -0.081934
0.028096 0.097963 -0.016199
-0.480516 0.447855 0.039125
-0.729557 -0.824754 -0.130649
-0.766106 0.991052 -0.401105
-0.793354 0.988697 -0.366463
0.275580 -0.070000 0.076038
-0.297178 0.732117 -0.450993
-0.566733 -0.512863 0.056847
0.383770 0.475132 -0.072909
0.373699 0.758452 -0.440162
0.078337 0.629333 -0.392611
0.869916 0.623548 0.366940
-0.229172 -0.073947 0.061749
0.671726 0.639980 0.041942
-0.849721 0.381410 0.564196
0.479662 -0.735097 -0.322251
0.976895 -0.771631 0.360301
0.693196 0.543844 0.173460
0.159329 0.250928 -0.053202
0.253532 0.038752 0.069132
-0.293421 0.814524 -0.570508
0.358970 0.319181 0.023302
0.540791 -0.207707 0.252249
0.996457 -0.172136 0.965177
-0.015074 0.210489 -0.038054
-0.877392 0.520551 0.504891
0.191716 0.128707 -0.005868
-0.761952 0.017522 0.577858
-0.510470 0.453801 0.059823
-0.342440 0.410529 -0.055373
0.462060 0.660694 -0.222655
-0.632384 -0.874896 -0.358028
-0.668494 0.509904 0.187691
-0.910071 0.027521 0.842552
0.746480 -0.850614 -0.155042
0.387011 0.358020 0.020413
-0.920107 0.433080 0.657058
-0.943415 0.047254 0.859296
0.117349 0.587598 -0.334766
-0.434931 -0.399504 0.016029
0.193453 -0.596186 -0.315801
-0.130792 -0.298532 -0.070486
0.846625 -0.179899 0.691369
-0.424382 0.391867 0.040507
0.358291 0.691040 -0.349427
-0.891891 0.441836 0.623055
0.911721 -0.652025 0.408423
0.961515 -0.267566 0.839817
0.478149 -0.683173 -0.243719
-0.069575 0.373448 -0.138350
-0.560013 -0.503656 0.065866
0.625033 0.050774 0.378615
0.472708 0.583660 -0.120185
-0.556092 0.341879 0.190747
-0.097569 -0.403252 -0.157574
-0.074402 -0.334267 -0.098084
0.652821 0.306729 0.338506
0.367689 0.098935 0.137073
0.286335 -0.807213 -0.572915
0.299655 0.747983 -0.457661
-0.459060 0.025226 0.196460
-0.256577 -0.053278 0.049110
-0.908675 -0.603121 0.449798
0.573882 -0.246012 0.268911
-0.134004 -0.334350 -0.081809
-0.123523 -0.458529 -0.201012
-0.509287 0.134813 0.236432
-0.581145 -0.075449 0.329877
0.175644 0.778395 -0.569320
-0.534894 0.882688 -0.497803
-0.871582 -0.561053 0.439541
0.535015 -0.799789 -0.366876
-0.247061 0.570675 -0.270348
-0.239529 0.989723 -0.910403
-0.137363 0.727200 -0.509042
0.630090 -0.952605 -0.517842
-0.358326 -0.497473 -0.106720
0.516072 -0.913315 -0.573667
0.879090 0.641559 0.375401
0.321736 0.162814 0.091042
-0.136638 0.027437 0.018477
0.495579 0.108900 0.218754
-0.084205 -0.495097 -0.215136
-0.171145 0.203277 -0.008158
0.050566 -0.938666 -0.881776
-0.364555 0.292023 0.057184
-0.791500 0.468868 0.413658
-0.170296 0.346053 -0.077642
-0.752286 -0.335765 0.446573
-0.179117 0.652526 -0.390522
0.113867 0.431088 -0.184730
0.861422 -0.743405 0.196060
-0.927555 -0.609712 0.488381
0.242917 0.274217 -0.013376
-0.084530 -0.421168 -0.171700
-0.959478 -0.761134 0.338763
-0.500904 -0.690062 -0.233963
-0.763030 -0.668766 0.142871
-0.566412 -0.044418 0.333746
-0.450860 0.214771 0.151581
-0.197387 -0.647195 -0.374365
0.058079 0.424993 -0.172924
-0.998020 -0.437975 0.804303
-0.676261 -0.376884 0.300022
-0.812867 -0.553003 0.341925
0.099347 0.570412 -0.323310
-0.341850 0.919628 -0.750243
0.096795 -0.015000 0.023225
-0.556353 -0.915939 -0.525738
-0.951541 -0.478861 0.675823
0.882734 -0.683899 0.289598
-0.783384 0.685525 0.125507
-0.746283 -0.830292 -0.132471
-0.706906 0.932952 -0.350979
0.962553 0.177028 0.888183
0.235320 0.035480 0.062755
0.220580 0.694701 -0.438753
0.973396 -0.944905 0.055208
-0.823122 0.554305 0.382423
0.949002 -0.766792 0.309175
-0.591974 0.681556 -0.120987
0.246143 0.058352 0.071362
-0.159833 -0.877741 -0.744428
-0.232096 0.666490 -0.379428
0.862487 -0.945372 -0.156697
-0.701545 -0.723259 -0.016872
0.994138 0.595649 0.636249
-0.241750 -0.070258 0.057855
0.297550 0.762777 -0.491977
0.935813 0.270859 0.797328
-0.884798 0.247058 0.721813
0.845729 -0.415530 0.538166
0.135623 -0.732639 -0.508771
0.408794 0.922345 -0.685638
-0.701632 -0.790405 -0.147418
0.066775 0.058021 -0.015702
0.347027 -0.454863 -0.103739
-0.087505 -0.471719 -0.208682
-0.690030 0.189172 0.428840
-0.511762 0.595868 -0.090158
0.708786 0.554359 0.196429
-0.931058 0.737603 0.322163
0.417724 -0.414195 0.007320
0.998780 -0.068497 0.994453
-0.985034 -0.981331 -0.019816
-0.677909 0.493715 0.212569
0.348289 -0.395314 -0.030717
-0.880018 0.122987 0.775709
0.179580 -0.661399 -0.388336
0.368000 0.638799 -0.286272
0.176293 0.634544 -0.375065
-0.269631 0.754906 -0.512843
0.394565 -0.908126 -0.653813
0.188589 0.984917 -0.924368
-0.584726 -0.504441 0.090949
0.126271 -0.381133 -0.127657
0.763814 -0.501329 0.345888
0.333667 -0.464935 -0.092718
-0.056417 0.105323 0.003670
-0.356832 -0.520379 -0.138898
-0.828228 -0.212457 0.637331
-0.510746 0.311213 0.171679
-0.977627 0.672052 0.512260
0.973252 0.385483 0.796716
-0.555035 0.188646 0.268965
0.629752 -0.704543 -0.088460
-0.662710 0.632231 0.056110
-0.432798 -0.925450 -0.676638
-0.163445 -0.471617 -0.198342
-0.351189 -0.885882 -0.657944
0.596702 0.334858 0.248789
0.915387 -0.263258 0.763405
0.750589 0.304097 0.489744
-0.692844 -0.305938 0.390656
0.553377 -0.088519 0.303705
-0.704106 -0.084078 0.506285
0.826762 -0.908839 -0.146943
0.035757 -0.139547 -0.019079
-0.327238 0.282129 0.014955
-0.685949 0.092104 0.460319
-0.976382 -0.849432 0.216897
-0.504106 0.336112 0.148630
0.828040 -0.382274 0.543717
0.594524 -0.971130 -0.592406
0.939587 -0.688809 0.407363
-0.798477 -0.004881 0.645156
0.184357 -0.379197 -0.121160
-0.485699 0.388766 0.086806
0.085883 -0.518693 -0.254671
-0.359090 0.545592 -0.186548
-0.433069 -0.427046 0.012030
0.147691 0.241727 -0.053360
-0.633364 0.598433 0.041852
-0.061733 -0.228888 -0.060213
0.301625 -0.906390 -0.716253
-0.743636 0.070891 0.536398
0.861189 0.990818 -0.256577
0.011449 0.937984 -0.878349
0.639056 -0.557956 0.092941
0.307811 0.511393 -0.181821
0.420002 -0.310096 0.085500
0.432262 -0.679455 -0.294724
0.750200 0.331829 0.442327
0.227211 0.001737 0.045870
-0.443566 0.078461 0.198617
-0.800981 0.654785 0.225781
0.212501 -0.326913 -0.050687
-0.867294 0.334190 0.638984
-0.517413 -0.267617 0.171824
-0.878586 -0.914552 -0.060584
0.097775 -0.243970 -0.035256
-0.679324 0.900069 -0.336305
0.220815 -0.033475 0.052268
0.581730 -0.783539 -0.287418
0.643761 0.375654 0.268060
-0.380913 0.926759 -0.694449
0.097909 0.815890 -0.670258
0.126022 0.143922 -0.016310
-0.054226 -0.247439 -0.048860
0.310228 0.161355 0.065894
-0.579826 0.631862 -0.074869
0.958486 0.722475 0.412006
-0.803840 0.637688 0.244124
