ply
format ascii 1.0
element vertex 3000
property float x
property float y
property float z
end_header
0.547912 0.658442 -0.125342
-0.122243 0.188192 0.024172
0.717196 -0.510291 0.284264
0.394736 0.491350 -0.095706
-0.811645 -0.831038 0.019763
0.951245 0.548836 0.589014
0.522279 0.179970 0.252744
0.572129 -0.778499 -0.294288
-0.743773 -0.840989 -0.130977
-0.099228 0.501673 -0.260654
-0.258404 -0.414128 -0.022352
0.853530 0.778604 0.223158
0.287730 0.524146 -0.148243
0.645523 0.396380 0.336648
-0.113172 -0.442788 -0.260214
-0.545523 0.417889 0.051895
0.109170 0.896295 -0.807505
-0.872365 -0.816880 0.095790
0.655262 -0.347675 0.298581
0.263329 -0.530655 -0.294360
0.516176 -0.213500 0.278435
-0.290948 0.484665 -0.042540
0.941396 -0.051515 0.947622
0.786242 0.141461 0.652442
0.556767 -0.371690 0.183142
-0.610723 -0.717421 -0.183861
-0.066558 -0.466133 -0.209223
-0.912392 0.719361 0.420260
-0.691421 0.204834 0.418507
0.366098 -0.244023 0.051733
0.489524 0.579812 -0.041183
0.935019 -0.871085 0.174156
-0.348349 -0.492218 -0.163326
-0.259081 -0.539794 -0.237329
-0.060888 0.970729 -0.963703
-0.621057 0.412197 0.219290
-0.740157 0.235572 0.547523
-0.048590 -0.990030 -1.018000
-0.546181 -0.631380 -0.045843
0.339628 0.271083 0.046944
-0.125696 -0.240561 0.074239
0.665356 0.848561 -0.261415
0.400530 0.529448 -0.124737
-0.375267 -0.105232 0.158487
0.664520 0.499030 0.175698
0.609529 0.950809 -0.622275
-0.225043 -0.078038 0.032528
-0.423344 0.285052 0.085151
0.364991 0.837329 -0.647518
-0.720495 -0.502651 0.262804
-0.600184 0.773116 -0.340843
-0.985275 -0.804911 0.305502
0.573849 0.296896 0.253335
0.329702 0.565676 -0.206437
0.410331 0.229212 0.095280
0.561458 -0.008930 0.310879
-0.082168 0.234694 -0.087533
0.137482 -0.696673 -0.465910
-0.720406 -0.568859 0.198289
-0.770940 -0.460201 0.337551
0.336806 0.195559 0.088580
-0.057808 -0.116198 0.002912
0.130472 -0.511048 -0.252458
0.529998 0.765619 -0.184222
0.269437 -0.252156 0.001978
0.107159 -0.107937 -0.014129
0.118414 -0.180598 -0.039713
-0.392100 -0.636114 -0.299446
-0.938364 0.463254 0.700218
-0.126565 -0.103083 -0.028920
-0.570831 -0.967486 -0.638579
-0.182943 0.928027 -0.854679
0.706806 0.631527 0.051501
-0.532121 0.447119 -0.004317
-0.883395 0.738184 0.212324
-0.437232 0.813614 -0.427130
-0.412812 -0.325021 0.074625
0.323833 0.221917 0.133649
0.114064 0.217616 0.003202
0.567796 -0.465401 0.131993
0.328627 -0.556095 -0.107114
-0.187226 -0.772186 -0.566074
0.628041 0.318628 0.296065
-0.666054 0.561838 0.127393
-0.954576 0.521906 0.716019
-0.819904 -0.367449 0.537350
0.444719 -0.589480 -0.182126
-0.076246 -0.092772 0.026591
-0.677456 0.093627 0.409368
0.002090 0.838174 -0.675858
-0.695376 0.749646 -0.057730
0.392641 0.832117 -0.547722
-0.107687 0.700525 -0.450848
-0.237958 0.929162 -0.881108
-0.396976 -0.069000 0.160977
0.260565 -0.905053 -0.774365
-0.276375 -0.832876 -0.474186
-0.824700 -0.219448 0.639764
-0.763988 -0.484626 0.318996
0.923795 -0.660119 0.348726
0.817161 0.906408 -0.088552
0.399414 -0.609161 -0.229047
-0.468260 0.918759 -0.664417
0.938353 0.521678 0.625173
0.557502 0.281891 0.263831
0.433780 0.352038 0.095932
-0.101277 -0.337051 -0.102359
-0.455517 0.292854 0.129692
-0.807218 -0.626616 0.270556
0.805205 0.875411 -0.101170
-0.088447 -0.396413 -0.128076
-0.595273 -0.489627 0.169338
-0.388087 0.422326 -0.024927
0.158439 0.312897 -0.113642
-0.646454 -0.097402 0.401202
0.713229 0.264892 0.476216
0.517039 -0.681014 -0.285777
0.438926 0.346657 -0.016552
-0.135814 -0.458779 -0.146119
0.254618 -0.454328 -0.065578
0.168196 -0.675640 -0.491460
0.299693 -0.335246 -0.017551
-0.831111 -0.337498 0.556864
-0.168385 -0.091642 0.006914
-0.916772 -0.619161 0.472386
-0.012018 -0.613985 -0.441477
-0.340278 0.083477 0.053460
-0.710952 -0.742245 -0.060538
-0.793194 0.377794 0.479160
0.175289 0.887894 -0.813928
-0.658814 -0.146409 0.452083
0.850240 0.802211 0.058489
0.162122 -0.803367 -0.640206
-0.306260 -0.914085 -0.727623
0.181831 0.442738 -0.169400
-0.954392 0.522043 0.680209
0.917118 0.686116 0.323679
-0.035393 -0.886365 -0.854259
0.565470 0.553814 -0.002443
-0.834540 -0.246923 0.638498
-0.026683 -0.393325 -0.216030
-0.018586 -0.653952 -0.496696
0.875653 0.992032 -0.208244
0.143456 -0.872673 -0.778867
-0.053021 0.654016 -0.497551
-0.466049 0.278989 0.187634
-0.336862 0.470161 -0.139165
0.041345 0.423434 -0.120097
-0.122177 0.716869 -0.497550
-0.956776 -0.632416 0.530208
0.652584 -0.998351 -0.581414
0.792322 0.197057 0.456184
-0.719502 -0.292283 0.375414
0.108072 -0.752425 -0.560750
-0.782849 -0.627723 0.237053
0.344480 -0.336501 -0.084050
-0.437532 -0.859533 -0.550043
0.318845 -0.886174 -0.739755
0.453989 0.832053 -0.474474
0.537295 -0.375795 0.146494
-0.784518 0.964461 -0.277542
0.832024 0.928734 -0.116942
-0.539572 -0.714857 -0.196934
-0.925175 0.429849 0.714198
0.109705 0.201610 -0.046128
-0.258155 0.381294 0.062415
0.659580 -0.807618 -0.278143
0.616503 -0.622880 -0.034291
-0.365722 -0.846723 -0.538119
0.905799 0.208268 0.814732
-0.418164 0.973182 -0.747853
0.030114 0.343969 -0.083642
-0.488070 0.421523 -0.043647
0.872087 0.969170 -0.099290
-0.670784 0.356023 0.313005
-0.910179 -0.919637 0.044988
-0.129806 0.734011 -0.623599
0.984751 -0.270643 0.909315
0.783355 -0.991273 -0.397152
0.497216 0.014468 0.275620
0.781585 0.874030 -0.137200
0.786893 -0.485339 0.401950
0.037717 -0.016974 -0.051813
-0.368142 -0.652446 -0.293006
0.544025 -0.884615 -0.495588
0.323323 -0.838910 -0.574467
-0.252685 0.454022 -0.092821
-0.811067 0.728149 0.135152
0.493579 -0.713402 -0.329131
-0.475079 -0.423363 0.051843
0.873626 -0.609941 0.521749
-0.518059 -0.946288 -0.544777
-0.754484 0.106863 0.409107
0.662225 0.399844 0.281834
-0.693431 0.295755 0.439982
-0.641463 -0.223893 0.352231
0.198766 0.110020 0.004399
0.749124 -0.811801 -0.111183
-0.607131 -0.691393 -0.081807
-0.379353 0.863589 -0.659301
0.554810 0.523015 0.093703
0.943653 0.845478 0.172848
0.001482 0.833361 -0.741239
-0.712205 0.298785 0.474181
-0.972127 0.856477 0.134222
-0.540688 -0.166592 0.236830
-0.736356 -0.992768 -0.471952
0.355317 -0.874858 -0.531929
-0.756335 -0.781025 -0.072209
0.012660 -0.809293 -0.762543
0.388525 -0.296595 0.033892
0.162233 0.402542 -0.112943
-0.600449 0.581298 0.061836
0.608249 0.180427 0.451240
0.430814 -0.707128 -0.244084
0.477968 0.495803 -0.007971
-0.737885 -0.290396 0.415573
-0.752492 -0.974013 -0.301256
0.855125 -0.438823 0.520245
-0.204844 -0.338799 -0.105732
-0.398103 -0.451509 -0.066228
-0.022832 0.623740 -0.451145
0.325728 0.519853 -0.187399
0.911247 0.391104 0.665752
-0.427108 -0.721990 -0.302316
0.849617 0.615668 0.323398
-0.950281 0.354352 0.714096
0.110396 -0.610325 -0.440497
0.267950 0.296188 -0.005451
-0.788205 -0.032977 0.623811
-0.719321 -0.121300 0.474993
-0.161771 -0.775754 -0.598997
0.932464 0.036609 0.887573
0.192085 -0.800136 -0.533794
0.866046 -0.671493 0.260126
0.608722 -0.734907 -0.165101
-0.065237 0.908217 -0.772688
0.569527 -0.430271 0.100422
-0.964326 -0.289591 0.845281
-0.781712 -0.355839 0.482553
0.658857 0.796501 -0.265886
0.593634 0.125932 0.344968
-0.534719 0.838320 -0.415279
0.061539 -0.400150 -0.128579
0.212032 -0.770331 -0.607796
0.735478 0.112437 0.528784
0.206214 -0.308926 0.016176
-0.174857 0.603814 -0.230141
-0.251632 0.758847 -0.448523
-0.148236 -0.054853 -0.039889
0.303862 0.942718 -0.773833
0.734981 0.106026 0.504799
-0.092206 -0.458159 -0.187213
-0.504321 -0.022049 0.215243
-0.526675 -0.925379 -0.664614
0.492029 0.608002 -0.144801
0.633138 -0.797130 -0.198423
-0.789444 -0.382503 0.491313
-0.866882 0.130633 0.754567
0.188867 -0.914050 -0.788999
-0.707654 -0.841366 -0.186897
0.649328 0.392233 0.294256
-0.379331 -0.856446 -0.603342
-0.712256 -0.045834 0.509353
0.841941 -0.322609 0.691951
-0.668937 -0.543841 0.158814
-0.430560 -0.622442 -0.199924
-0.692773 0.526823 0.207537
-0.769020 0.903084 -0.235065
-0.957704 -0.719640 0.377547
-0.889209 0.919362 -0.044100
-0.650717 0.189525 0.362227
-0.893236 0.283321 0.710324
0.182288 0.419853 -0.182573
0.361429 0.408238 -0.030627
-0.212739 0.639622 -0.334649
-0.364018 -0.033063 0.120820
0.009052 0.066717 -0.104788
0.750010 -0.352346 0.467886
0.702263 -0.789485 -0.124103
-0.913050 0.329280 0.675573
-0.637003 -0.932780 -0.425642
-0.526510 -0.448730 0.005933
-0.501225 -0.811540 -0.355101
0.142465 -0.618546 -0.365171
-0.167475 0.277462 -0.162380
-0.901492 0.256953 0.755579
-0.252772 -0.157890 0.018655
0.047506 -0.819656 -0.697422
-0.796656 -0.133252 0.580019
0.666917 -0.294510 0.351681
-0.896076 0.440918 0.584284
0.849684 0.158053 0.604147
-0.801774 -0.016868 0.706160
0.687150 -0.026036 0.459279
0.805306 0.932594 -0.257810
0.959141 0.512588 0.600784
0.604052 -0.006041 0.403379
0.558955 -0.041555 0.245782
0.284967 -0.947042 -0.808983
0.557993 0.885019 -0.501084
-0.730896 -0.361652 0.377145
0.072136 -0.488122 -0.288237
0.028446 0.998818 -1.027844
0.715144 0.437379 0.320571
-0.074401 -0.905272 -0.802217
-0.229821 -0.876229 -0.754239
0.279127 -0.948997 -0.827230
-0.467073 0.199238 0.222885
-0.720463 -0.856871 -0.298292
-0.044245 0.866777 -0.749658
-0.166221 0.873813 -0.783459
-0.534860 0.092108 0.224957
-0.264976 0.233278 0.028844
-0.267215 -0.416211 -0.129090
-0.345009 -0.872055 -0.702289
-0.241072 0.474921 -0.101220
0.371487 -0.796428 -0.450291
-0.406247 -0.828885 -0.618629
0.897716 -0.377554 0.589625
0.832696 -0.975069 -0.227703
-0.038179 -0.131929 -0.030191
-0.343278 0.415362 0.020343
0.070870 0.602698 -0.327405
0.697121 0.208615 0.457431
0.305175 0.693748 -0.439248
0.608784 -0.186996 0.360222
0.065445 0.697544 -0.546073
0.265835 0.012947 0.135763
-0.423689 -0.553928 -0.106217
0.469786 0.888291 -0.609604
-0.595191 -0.450058 0.191934
0.389596 -0.947597 -0.634079
0.721438 -0.514652 0.244726
-0.735794 -0.266625 0.497825
0.228759 -0.297301 -0.057648
-0.809808 0.049335 0.657623
0.451431 0.766254 -0.458716
-0.831014 -0.415324 0.518063
0.871880 0.041541 0.760627
-0.725184 -0.319722 0.513620
0.917760 0.643546 0.338383
0.601768 -0.684797 -0.120866
0.187364 -0.792979 -0.529305
0.565248 0.005991 0.307381
0.590230 0.343775 0.221623
0.892054 0.591050 0.404757
-0.493233 0.179250 0.164518
0.180152 0.547700 -0.358813
-0.809902 -0.214580 0.578435
0.232331 -0.934265 -0.868340
-0.657417 -0.767801 -0.151419
0.129901 -0.922555 -0.873616
0.144861 -0.342113 -0.120036
-0.068030 -0.009017 -0.018064
0.045264 -0.287365 -0.082938
0.527847 0.121199 0.237507
0.598489 -0.038782 0.303596
-0.015694 0.355886 -0.122120
0.199187 0.333924 -0.018456
0.862472 -0.363872 0.617879
-0.760533 -0.307571 0.453319
-0.765793 0.170296 0.551281
-0.824582 0.192865 0.540207
0.315727 -0.370600 -0.044631
-0.162783 -0.339364 -0.108687
0.548643 0.388090 0.103722
0.342463 0.294822 -0.007244
-0.332724 -0.729898 -0.442558
0.796733 -0.117916 0.670502
0.525064 0.785412 -0.286577
-0.458930 -0.927389 -0.695839
-0.271616 0.710328 -0.456694
-0.371120 -0.673644 -0.340695
-0.684777 0.014497 0.509186
-0.704433 -0.151327 0.480602
0.872255 -0.979741 -0.194425
-0.124192 0.830794 -0.647982
-0.233360 -0.090150 0.016509
0.459371 0.908537 -0.546222
0.105986 -0.426512 -0.170767
0.872280 0.732552 0.181445
0.560603 0.844779 -0.410858
-0.041261 0.113665 0.050379
-0.247281 -0.594644 -0.313711
0.973263 0.370495 0.857453
0.435520 0.097956 0.148815
0.902389 0.889059 -0.014403
-0.763043 -0.121456 0.600463
0.701067 -0.462973 0.233453
0.274148 -0.723426 -0.407061
-0.756157 0.397267 0.431533
0.176516 0.948219 -0.911642
0.372193 -0.943312 -0.754883
-0.975395 0.480891 0.692700
-0.091364 0.853861 -0.703282
0.650799 -0.850437 -0.205314
-0.409282 -0.779660 -0.458893
-0.082904 0.383914 -0.113828
-0.115372 0.295927 -0.073040
-0.396145 -0.862345 -0.585505
0.836884 0.668845 0.244760
0.562588 0.046848 0.271440
-0.778823 0.814395 -0.039916
0.994069 0.755982 0.402228
0.758400 0.625016 0.139286
-0.432183 0.031798 0.236480
0.673793 -0.496579 0.212357
-0.787161 0.011951 0.608075
0.998209 -0.798377 0.426019
0.331369 0.317692 -0.082927
0.300250 -0.732046 -0.382100
-0.819119 0.022346 0.626446
0.794067 -0.891236 -0.153183
-0.942001 -0.400975 0.697182
-0.518344 -0.535839 -0.064593
-0.713956 0.240063 0.517798
0.553536 0.573573 0.070226
-0.603592 -0.885394 -0.430661
0.821276 0.700567 0.200474
0.312538 0.721535 -0.420084
-0.927675 -0.315462 0.847589
-0.989140 0.318008 0.771612
-0.896684 -0.194774 0.784962
0.211850 -0.691618 -0.469812
0.602964 0.057325 0.242481
-0.522894 -0.827281 -0.429001
0.698818 0.756944 0.007784
-0.885536 0.848580 0.031285
0.601928 0.643226 -0.011885
0.855591 0.125056 0.776330
0.544217 0.115197 0.282267
0.396242 0.969215 -0.776347
0.675960 -0.504197 0.116893
-0.919697 -0.848103 0.090756
-0.596436 0.123882 0.385739
-0.750153 -0.342429 0.448505
0.009062 -0.355322 -0.107805
0.490376 -0.985829 -0.724733
0.260024 0.192479 0.140164
0.702262 -0.471933 0.248926
-0.689574 -0.624283 0.166054
0.469242 -0.919136 -0.617948
-0.613917 -0.271277 0.388013
-0.458483 0.757938 -0.425512
0.419809 -0.326658 0.078767
0.960410 0.358148 0.774432
0.223087 0.513094 -0.206524
-0.890999 -0.343798 0.736801
0.232618 0.643281 -0.340759
-0.915299 0.383759 0.751520
0.768291 0.118484 0.542722
0.419157 -0.998015 -0.861484
-0.653744 -0.929818 -0.436375
-0.816558 0.981732 -0.298963
-0.632934 0.564568 0.072575
0.960054 0.875131 0.107919
-0.082879 0.804606 -0.580590
0.568162 -0.959114 -0.615234
0.272817 0.583695 -0.194967
0.144826 -0.097709 0.012065
-0.709740 0.579116 0.200776
0.892049 -0.986568 -0.149681
-0.397315 -0.423601 -0.062793
0.156034 0.502648 -0.209948
0.399552 0.586042 -0.087386
0.298466 0.239429 0.044336
0.881189 -0.397488 0.663561
-0.703122 -0.379275 0.385195
0.016705 0.933528 -0.855843
-0.191931 -0.121576 0.031381
-0.051663 -0.105749 0.018852
-0.761565 0.104666 0.607190
-0.731811 -0.180995 0.435180
-0.443849 0.105343 0.198270
-0.390591 -0.135329 0.125043
-0.144194 0.653430 -0.425755
0.221975 0.818102 -0.555220
0.269258 0.864220 -0.711034
-0.176378 0.128592 -0.055165
-0.182434 -0.115703 0.059681
-0.564743 0.410480 0.079421
0.176612 0.676647 -0.523057
-0.365918 0.125964 0.163442
-0.927880 0.399962 0.708928
-0.163200 0.499459 -0.199189
-0.051735 0.352788 -0.143904
-0.548814 0.492267 -0.010350
0.144916 -0.582709 -0.377839
0.131544 -0.003251 0.003684
0.404004 0.176537 0.068434
0.295897 -0.995044 -0.887205
0.304866 0.711925 -0.437017
-0.367572 0.220049 0.095939
0.574864 -0.741727 -0.211933
0.098289 0.632714 -0.371327
-0.137164 0.434114 -0.144667
0.252025 0.516599 -0.220553
-0.278685 -0.215915 0.040245
0.025478 0.708405 -0.489388
0.473411 -0.171945 0.073109
0.772806 0.141018 0.609669
0.842114 -0.998715 -0.280779
0.007266 0.289746 -0.055698
0.040550 0.436352 -0.253101
0.599741 0.134219 0.325886
-0.371099 -0.006882 0.083090
0.674765 0.619873 0.108295
-0.011717 0.362745 -0.201703
-0.768287 -0.443852 0.346827
-0.855882 0.918147 -0.083744
0.683986 0.414534 0.264530
-0.888864 0.975878 -0.208678
-0.438777 0.942523 -0.650488
-0.331740 0.837819 -0.544504
-0.654011 0.510743 0.202976
-0.372213 0.218859 0.133079
0.485385 -0.655659 -0.205869
-0.970634 0.086703 0.924384
0.654347 0.530753 0.114067
0.713096 0.041714 0.515152
-0.255477 0.736478 -0.503527
-0.692774 -0.780688 -0.151191
0.201681 -0.238119 0.013969
-0.760655 0.011929 0.637681
-0.270161 -0.135349 0.074581
0.916858 -0.782827 0.317527
0.990929 -0.692943 0.466494
0.544210 0.675235 -0.251676
-0.378077 -0.031231 0.177698
0.375330 -0.902555 -0.712325
0.410813 -0.967017 -0.780040
-0.224317 -0.053049 -0.040986
0.281777 -0.671243 -0.416129
-0.978545 0.410252 0.714132
-0.581885 0.590647 -0.031989
0.050177 -0.543407 -0.312501
-0.672497 0.184354 0.422764
-0.668186 -0.691111 0.030825
0.672609 -0.392835 0.331929
0.978266 0.777591 0.271248
0.111939 0.088196 0.035153
0.678139 0.771777 -0.130179
0.980643 -0.549504 0.654815
-0.716808 -0.339951 0.397112
-0.103509 -0.058096 0.017567
-0.214855 -0.039840 0.009981
-0.839901 0.995296 -0.294297
0.510660 -0.771109 -0.274639
-0.132442 0.703930 -0.513172
-0.061346 0.727364 -0.576790
-0.698654 0.106397 0.473712
-0.638147 -0.311926 0.253405
0.814207 0.038452 0.575316
-0.910702 -0.415065 0.639876
-0.534295 0.598215 0.000042
-0.415881 -0.003442 0.171015
-0.019605 0.851684 -0.716053
0.172890 0.245383 -0.136829
-0.013420 0.028639 0.021266
-0.831769 0.422139 0.518307
-0.512665 0.007866 0.229518
0.687177 0.809013 -0.173287
0.275177 -0.631108 -0.314069
0.298298 0.946697 -0.860229
0.340407 0.624381 -0.257382
0.525806 0.721467 -0.184185
-0.883783 -0.034184 0.768507
-0.266783 0.674403 -0.427026
0.079055 -0.386452 -0.151974
-0.323087 0.523896 -0.127352
0.688958 -0.719100 -0.103758
-0.034855 -0.385896 -0.118773
0.537255 -0.108535 0.242963
0.704031 -0.355361 0.381482
0.009583 -0.225966 -0.079185
0.819104 0.640209 0.232713
0.174248 -0.486648 -0.130309
0.700549 0.490562 0.179663
-0.318818 -0.852576 -0.600972
-0.002366 0.531478 -0.195897
0.062822 0.584046 -0.302888
-0.790041 -0.196602 0.518957
-0.202895 0.444956 -0.220898
0.834675 0.830277 -0.030258
0.261664 0.601426 -0.285349
-0.644987 -0.219107 0.379297
-0.322289 -0.031573 0.039288
-0.616794 0.558715 0.024634
-0.950354 -0.414811 0.690530
0.854921 0.607765 0.352474
-0.103585 -0.343858 -0.008273
-0.384930 0.611981 -0.273009
0.196954 -0.826399 -0.692992
-0.985371 -0.911205 0.084004
-0.443956 0.995351 -0.761849
0.406067 0.738914 -0.383171
0.267540 0.765695 -0.559523
0.963612 0.902560 0.095794
0.240715 -0.123367 0.003149
-0.044988 -0.426329 -0.164938
0.522865 -0.739950 -0.139919
0.806656 0.002418 0.678231
0.441392 -0.559903 -0.123314
0.926422 0.871102 0.066192
0.564010 -0.991994 -0.733114
0.733603 -0.713607 0.065623
-0.771792 -0.507048 0.372532
0.464827 -0.602087 -0.169749
-0.119823 -0.548443 -0.225766
0.106208 0.312095 -0.085068
0.308205 -0.344976 0.014720
0.939630 0.230049 0.844792
0.969156 0.780516 0.321202
-0.423544 0.205114 0.089573
0.467507 0.389066 0.059914
0.499967 -0.268993 0.219712
-0.307014 -0.680523 -0.394261
-0.752260 -0.358832 0.459123
-0.918106 0.928565 -0.073452
0.554686 0.243623 0.287328
-0.020601 -0.444978 -0.181934
0.971080 -0.098169 0.873254
-0.070053 0.671026 -0.456569
0.955834 0.336887 0.846698
-0.176848 0.121306 -0.046391
0.587364 0.770326 -0.301952
-0.830361 0.344879 0.567084
0.110923 0.285459 0.037483
0.604120 -0.620464 -0.053644
0.849403 -0.787223 0.126530
0.645166 0.930284 -0.436183
-0.926059 0.197717 0.789017
-0.254595 -0.168633 0.044438
-0.902603 0.178042 0.760602
-0.781435 -0.876376 -0.175284
0.350611 0.644255 -0.375199
0.426516 -0.566709 -0.140465
0.547441 0.609092 -0.026346
0.730913 0.068757 0.532378
0.478863 -0.446856 0.084155
0.601743 -0.939580 -0.491700
-0.902073 0.631667 0.411755
-0.530930 -0.647080 -0.168222
0.243796 -0.896390 -0.768392
0.716251 0.511755 0.177596
-0.991000 -0.299914 0.878778
0.029259 -0.221332 -0.040832
0.354575 -0.505865 -0.044405
-0.940785 0.718357 0.395456
-0.197289 -0.405341 -0.168621
0.791270 -0.579615 0.218186
0.343226 -0.381501 -0.038066
-0.524683 -0.593701 -0.036600
0.705562 -0.364690 0.353789
-0.303937 -0.834128 -0.576292
0.706689 -0.682940 0.023947
-0.402113 -0.165894 0.170024
0.180641 0.758934 -0.623212
-0.206120 -0.885419 -0.661271
-0.450350 -0.574651 -0.183032
0.773115 0.816691 -0.029591
-0.624813 0.780029 -0.231664
-0.830377 0.358902 0.554924
-0.316146 -0.519053 -0.181523
0.435278 -0.160379 0.176526
0.614863 -0.577558 0.067360
0.997487 -0.742823 0.496112
-0.407276 -0.240003 0.178670
-0.184116 0.151643 0.027494
-0.726357 -0.280135 0.534803
0.149744 0.221649 -0.022056
0.995160 -0.407491 0.878167
0.401762 -0.308299 0.087800
0.190426 0.581347 -0.329163
-0.215262 0.756629 -0.517089
0.830598 -0.355932 0.588363
-0.006167 0.143032 -0.022030
-0.731266 -0.443675 0.358545
-0.269243 -0.893331 -0.682280
-0.865667 0.475714 0.521906
-0.596042 -0.657993 -0.224883
-0.964662 -0.148575 0.992413
-0.093440 -0.025909 -0.006820
0.269081 -0.631057 -0.366992
-0.313415 -0.810889 -0.615518
-0.159236 -0.303974 -0.083866
0.918419 0.904572 -0.002895
0.503926 0.230271 0.164066
0.081713 -0.237180 -0.083683
-0.430918 -0.922178 -0.638235
0.793994 0.200547 0.691725
-0.529806 -0.815485 -0.343293
-0.349315 0.085088 0.170911
0.818130 0.503901 0.396549
0.059084 -0.152829 -0.014633
0.484636 -0.401177 0.095253
0.181490 -0.905232 -0.819484
0.306878 -0.950444 -0.830456
-0.401233 -0.139947 0.184131
-0.517256 0.766691 -0.265746
-0.355015 -0.511874 -0.132609
-0.689117 0.148111 0.393187
0.748629 0.368612 0.409791
-0.433506 -0.878340 -0.655621
0.122979 -0.693799 -0.462473
0.583949 -0.337446 0.239896
0.567648 0.340186 0.192962
-0.123227 -0.121930 0.012404
-0.047485 0.468390 -0.196289
0.989403 0.735196 0.451250
0.349195 0.516745 -0.205164
0.629277 0.984494 -0.585903
0.805108 0.508722 0.409893
0.575180 0.704358 -0.086353
-0.629641 0.664733 -0.059018
0.124341 0.460532 -0.169086
-0.796212 0.603604 0.313523
0.305844 0.869366 -0.672089
0.910699 -0.049585 0.884334
0.025464 0.276574 -0.015736
-0.134055 0.029879 0.086097
-0.928315 0.702074 0.391782
0.919549 -0.137281 0.944731
-0.793995 0.639454 0.190762
-0.917842 0.598709 0.590185
-0.507867 0.923772 -0.557011
-0.868939 -0.502159 0.569911
-0.089764 0.419239 -0.183706
0.032176 0.513839 -0.220772
-0.374860 0.872557 -0.549487
-0.898079 0.813805 0.089900
-0.776799 0.147052 0.573627
-0.230991 0.158306 -0.078767
-0.878943 -0.665418 0.320844
0.396379 0.949925 -0.786042
-0.585959 -0.489965 0.092394
-0.395857 0.449472 0.100859
-0.211748 0.591590 -0.219251
-0.166781 -0.117569 -0.057979
-0.996679 -0.577613 0.687519
-0.775859 -0.622079 0.254922
0.725529 0.712992 0.001140
-0.997534 0.021513 1.003526
0.016335 -0.819726 -0.657885
-0.020996 0.434039 -0.255280
-0.333812 -0.499658 -0.189794
-0.137346 0.752789 -0.539213
0.561162 -0.380856 0.174822
0.682407 -0.599458 0.070901
-0.479303 -0.830283 -0.499358
-0.355019 0.023062 0.121018
-0.515034 -0.098525 0.299861
-0.040273 0.502624 -0.254834
0.366517 -0.070795 0.210459
-0.543494 -0.312368 0.163021
-0.338529 -0.476690 -0.102976
0.860769 -0.443707 0.526333
-0.902861 0.855696 0.112341
-0.078461 -0.669843 -0.481613
0.423116 0.976353 -0.677868
-0.699092 -0.346161 0.284371
-0.905252 -0.823220 0.227565
-0.723589 -0.502619 0.275455
0.837646 -0.883171 -0.050719
-0.981480 0.580060 0.693561
-0.623356 0.025106 0.430826
-0.937433 -0.326027 0.735986
-0.778741 0.324099 0.531402
0.240299 0.261293 0.082843
-0.516722 0.879744 -0.551313
0.138424 0.922521 -0.725962
0.180391 0.361368 -0.078761
0.698871 0.635632 0.062731
-0.990517 0.584850 0.594410
0.706739 -0.017393 0.488013
0.238238 0.408917 -0.208219
-0.674513 -0.843482 -0.277256
0.545875 0.516042 0.018533
0.710983 0.923666 -0.401383
-0.491473 -0.830050 -0.410046
0.837587 0.672232 0.238719
-0.091085 0.865960 -0.773380
0.206849 -0.547622 -0.273370
0.969299 0.049622 0.954834
-0.276928 0.855716 -0.651901
0.626319 0.920452 -0.490006
-0.363202 -0.744235 -0.415688
0.598427 -0.301992 0.264382
0.201468 0.396289 -0.173429
-0.567289 -0.556883 -0.002728
-0.171948 -0.350459 -0.064288
-0.364729 -0.953418 -0.747372
-0.843783 -0.692957 0.220283
-0.940330 0.124659 0.902520
-0.307043 0.306180 -0.048469
-0.961932 0.297824 0.789164
-0.669024 0.556721 0.125093
0.450367 -0.169437 0.248999
0.416182 -0.453019 -0.023855
0.477161 -0.968839 -0.724734
-0.365694 -0.586740 -0.133325
0.780039 -0.375224 0.453320
0.187661 -0.643586 -0.267250
-0.747947 -0.959711 -0.387184
-0.712563 -0.685105 -0.012209
0.386191 0.332199 0.030469
-0.654112 0.259171 0.348239
0.014585 0.871367 -0.799454
0.983549 0.596337 0.741850
-0.991985 0.135512 0.981602
-0.966840 -0.724887 0.432531
0.986169 0.128144 0.933015
0.169278 -0.876810 -0.769024
-0.746180 -0.138230 0.588955
0.794604 -0.219483 0.499431
0.760761 -0.144372 0.500770
0.072401 -0.440348 -0.201030
0.243584 0.371661 -0.011246
-0.453626 0.681889 -0.277922
-0.898961 0.537034 0.540532
0.189135 0.255504 -0.028124
-0.410490 0.076690 0.227433
0.327242 -0.937832 -0.851677
0.672490 0.445868 0.290243
-0.963679 0.089966 0.910638
0.191428 -0.458518 -0.127350
-0.537439 -0.344316 0.129323
0.747777 0.871214 -0.198623
-0.492671 0.248724 0.175735
0.221540 -0.048175 -0.003363
0.107082 0.241843 -0.111042
-0.207667 -0.172515 -0.015657
0.355242 -0.059635 0.129137
0.451539 -0.419381 -0.009839
0.133876 -0.120293 -0.013052
0.516844 0.371184 0.035060
0.966834 -0.920116 0.069622
-0.161455 0.590055 -0.270918
0.029166 -0.434041 -0.152282
-0.975060 0.365120 0.813084
0.592057 0.285451 0.281232
0.040460 0.305256 -0.132957
-0.184077 0.216258 0.068339
-0.811856 0.918204 -0.080600
0.779313 0.016688 0.615291
-0.209986 0.464638 -0.042260
0.365163 0.410899 -0.069503
-0.701252 -0.527465 0.150981
0.923099 -0.433388 0.628806
-0.643116 -0.151966 0.379531
-0.600916 -0.444604 0.279031
0.717966 -0.266514 0.430387
0.825166 -0.218079 0.590357
-0.575705 0.207729 0.243362
-0.060398 -0.560220 -0.253197
0.466990 0.608584 -0.102430
0.756731 -0.124927 0.532762
-0.241895 0.412488 -0.205423
0.034039 -0.837115 -0.756033
0.483433 -0.060069 0.316161
0.462272 -0.943561 -0.642172
0.565920 0.351820 0.199762
0.139868 -0.312580 0.015298
-0.790770 0.898506 -0.084079
0.807947 -0.351752 0.527252
0.731145 0.127612 0.517410
0.596195 -0.485225 0.090903
-0.800275 0.240225 0.568502
-0.591205 -0.065915 0.270863
0.487201 -0.258743 0.095897
-0.953720 -0.592621 0.472249
0.958449 -0.776957 0.369179
-0.245711 -0.760242 -0.595664
0.438625 0.998080 -0.706274
0.775142 -0.175379 0.533569
-0.210740 -0.996141 -0.861017
-0.361735 0.905858 -0.707978
0.217482 -0.960040 -0.952688
0.161979 -0.162828 0.063913
-0.181720 0.434955 -0.086071
0.203550 0.829198 -0.691440
0.870763 0.425773 0.560363
-0.064719 -0.072748 -0.046394
-0.606516 0.948884 -0.538546
-0.245588 -0.921361 -0.783202
-0.211786 0.973784 -0.920972
-0.737783 0.698783 -0.034919
-0.674257 0.857860 -0.310345
0.369124 -0.490455 -0.069118
-0.321045 -0.715084 -0.418720
0.909797 0.326631 0.704671
-0.512807 0.031719 0.215426
-0.802151 0.046336 0.610797
0.507009 0.849238 -0.393700
0.762072 0.240162 0.466087
-0.443773 -0.377872 0.090188
-0.595824 -0.199867 0.317412
-0.628468 -0.733008 -0.130089
0.044025 -0.615372 -0.413362
-0.063167 -0.713300 -0.522396
-0.481120 0.620583 -0.153932
-0.909654 0.409747 0.633544
-0.037017 0.060690 0.014259
0.918665 -0.251264 0.803683
0.305038 0.336989 0.088122
-0.008987 0.625811 -0.377649
-0.778616 0.762466 -0.070725
-0.495127 0.094032 0.294460
-0.410452 0.639770 -0.251029
0.529607 0.022612 0.380569
0.753422 -0.050940 0.638595
0.803284 0.730864 0.085840
0.969137 -0.227252 0.923679
0.964733 -0.208175 0.857676
0.905998 -0.390177 0.668729
-0.856356 0.037403 0.765745
-0.724413 0.089700 0.572378
-0.391067 0.320922 0.094703
0.105797 -0.138995 -0.004377
-0.806044 -0.564325 0.455415
0.691594 0.733684 -0.078241
0.233512 -0.307998 -0.120695
0.084729 0.845887 -0.779081
-0.669377 -0.585293 0.179198
-0.493489 0.120115 0.225271
-0.679376 0.073230 0.464142
0.703866 0.657296 0.036264
0.168456 -0.722297 -0.515971
0.470259 0.819874 -0.490405
-0.407934 0.062856 0.186017
-0.257495 0.172219 0.031775
-0.190290 0.020333 0.057547
0.520030 -0.927950 -0.573689
0.544706 -0.005819 0.275377
-0.586373 -0.472901 0.047262
0.883078 -0.314624 0.603548
-0.758689 0.298203 0.638017
0.792244 -0.004606 0.701538
-0.799209 -0.813564 0.043858
-0.470920 -0.853917 -0.541139
0.692957 -0.628685 0.085421
-0.641016 -0.618230 -0.012075
-0.172864 0.216602 -0.082638
-0.100281 -0.644371 -0.434596
-0.509482 0.763439 -0.256958
0.420490 -0.580479 -0.118106
0.702669 -0.817737 -0.223452
0.749150 0.751492 -0.019255
-0.321356 -0.409345 -0.026838
0.061701 -0.149155 -0.046989
-0.503187 0.918053 -0.585644
-0.510407 0.888738 -0.509248
-0.677492 0.429834 0.293785
0.880038 -0.862122 0.043920
0.775978 0.186680 0.534607
0.554717 0.978156 -0.676626
0.035323 0.893832 -0.854371
-0.018784 -0.787995 -0.698650
0.059491 -0.208065 -0.045489
0.073136 -0.368926 -0.089945
-0.130874 -0.740544 -0.600291
-0.736490 0.389597 0.404281
-0.748672 -0.452303 0.395164
0.904499 -0.310268 0.630016
-0.035938 -0.819282 -0.683461
0.906411 -0.004065 0.903875
-0.672846 -0.683664 0.012922
0.108833 -0.135819 -0.100125
-0.584566 -0.713316 -0.134185
-0.493631 0.907700 -0.617634
-0.939891 -0.710035 0.413811
-0.762093 0.043774 0.544366
0.833697 -0.606040 0.325114
-0.356934 -0.847276 -0.617353
0.216258 -0.595383 -0.307555
-0.069972 -0.890452 -0.816372
-0.199098 -0.721205 -0.491674
0.063772 -0.013032 -0.054883
-0.625522 0.303631 0.323619
0.977208 -0.825320 0.282546
0.636616 -0.117963 0.310538
0.483229 0.162494 0.256752
-0.062481 -0.531549 -0.287454
-0.694246 -0.255843 0.424610
0.841332 -0.856330 0.012766
-0.317226 -0.559738 -0.196262
-0.899787 -0.066494 0.863455
-0.315193 0.980884 -0.877452
0.588914 0.992530 -0.586575
0.245417 0.959243 -0.853772
0.501677 -0.153827 0.253399
0.587271 -0.838639 -0.338247
-0.576091 -0.352853 0.269412
0.847567 -0.524571 0.479265
-0.124021 -0.971747 -0.951058
0.278027 -0.809533 -0.610107
-0.995382 -0.093616 0.979535
0.986737 -0.320675 0.832812
-0.438207 -0.639293 -0.269279
-0.875874 0.432200 0.473955
-0.083476 -0.285769 -0.152159
-0.741940 0.703736 0.154501
-0.695347 -0.518046 0.182311
0.264566 0.076787 0.159272
-0.214145 -0.631722 -0.333056
0.843705 -0.009399 0.709262
-0.361687 -0.695067 -0.427331
0.452360 -0.676843 -0.253253
-0.077801 0.224447 0.050286
0.319903 -0.472428 -0.042969
0.199391 -0.655266 -0.375904
-0.054432 0.859537 -0.793274
0.900122 -0.913993 -0.073022
-0.314573 0.130296 0.039349
-0.645529 0.096528 0.471298
0.356188 -0.498782 -0.040328
0.692015 -0.094457 0.479758
-0.919493 -0.824524 0.150472
-0.100735 0.442540 -0.108259
0.784975 -0.556606 0.257448
0.499237 -0.613229 -0.124221
0.983615 -0.370243 0.853568
0.062828 0.804740 -0.686799
0.319991 0.592933 -0.280971
-0.395039 0.893785 -0.678482
0.895071 0.303925 0.779619
-0.267329 0.325843 0.061009
0.477021 -0.039938 0.231694
-0.193720 0.810373 -0.632587
0.123638 0.021754 -0.015179
0.439565 -0.289880 0.109274
0.017868 0.280750 -0.106012
0.814173 0.092279 0.649510
-0.161398 -0.751960 -0.518733
0.294144 -0.214549 0.020223
-0.315275 -0.373349 -0.049471
-0.183687 0.693668 -0.456707
-0.119900 -0.242315 -0.060219
-0.748386 0.643110 0.124418
-0.816553 -0.115221 0.691592
0.334980 0.507001 -0.233375
0.311035 -0.729436 -0.356620
0.325819 0.849300 -0.608376
-0.960467 -0.038880 0.951486
-0.346906 -0.480404 -0.074190
-0.604380 -0.517021 0.062562
0.556303 -0.469845 0.043000
0.721261 -0.266552 0.397554
-0.506639 0.435039 0.055071
0.335698 0.899206 -0.660918
-0.741274 0.338075 0.406005
-0.449695 0.094333 0.223724
-0.722691 -0.102804 0.393317
-0.432958 0.656389 -0.262672
0.349473 0.699314 -0.308552
0.820654 -0.413925 0.493591
-0.594955 0.906841 -0.509845
0.084158 -0.209769 -0.069763
0.402782 0.600156 -0.349355
0.905845 0.933640 -0.101718
0.220121 0.407316 -0.064591
-0.489786 -0.676899 -0.247431
0.250956 0.172274 0.010074
-0.359018 -0.762446 -0.569020
0.952257 0.578284 0.490839
-0.200648 -0.437370 -0.091530
0.370855 0.390430 0.015963
-0.953545 0.820179 0.171682
-0.199877 -0.637980 -0.398597
0.750215 -0.214284 0.515446
0.220455 0.294238 -0.097782
-0.112114 -0.160683 -0.113457
0.871875 -0.650362 0.329235
0.707969 -0.941857 -0.357244
-0.355569 -0.186804 0.121126
0.089097 0.298418 -0.037353
-0.020351 0.147968 -0.099158
0.264405 -0.687518 -0.399875
-0.331777 -0.098613 0.086929
-0.511590 -0.261058 0.189212
0.825344 -0.451595 0.466665
0.847749 0.458542 0.475395
0.686646 -0.380696 0.175664
0.956409 0.080284 0.966364
0.489983 0.846447 -0.459890
0.529334 0.078552 0.199810
0.525180 0.234046 0.244693
-0.038785 -0.853508 -0.749337
-0.087096 -0.643732 -0.427753
-0.519547 -0.798098 -0.405451
0.289638 0.529626 -0.169767
-0.421360 0.671842 -0.313819
-0.484383 -0.627089 -0.213456
0.171923 -0.561457 -0.229089
-0.180035 -0.353585 -0.101554
-0.562287 0.182155 0.275612
0.632112 0.243592 0.374852
0.721140 0.373508 0.347155
-0.664601 0.810386 -0.238438
-0.984986 -0.409920 0.817449
-0.327740 0.317518 -0.070473
0.595022 0.119446 0.350838
0.678348 -0.388326 0.271573
-0.723342 0.814830 -0.097951
0.548672 -0.809033 -0.326161
-0.768592 0.424002 0.431683
-0.219875 0.455747 -0.239709
0.997219 0.830653 0.299292
-0.614818 0.037161 0.317757
-0.692073 -0.356755 0.349847
-0.154399 0.655481 -0.521581
0.239337 0.541621 -0.313112
0.865802 0.000631 0.809064
0.961642 0.535715 0.656218
-0.860719 -0.464249 0.507619
-0.724005 0.179013 0.446700
0.581476 0.730367 -0.249534
-0.458736 -0.364031 0.087928
0.769698 -0.032900 0.574171
0.326907 0.902090 -0.629566
-0.776310 0.596424 0.237698
0.665059 0.774078 -0.153958
-0.647287 -0.229506 0.296883
-0.153009 0.993011 -0.980693
0.104370 -0.694869 -0.463100
0.001532 0.037541 -0.020046
0.372326 -0.041453 0.112627
0.305373 0.596864 -0.246649
0.984084 0.817236 0.376289
0.998844 0.462279 0.791236
0.032919 0.253632 -0.006036
-0.809602 -0.145142 0.665469
0.455687 0.020652 0.261441
0.953328 0.018601 0.878003
-0.363347 -0.959263 -0.798511
-0.077582 0.006092 -0.004157
-0.150446 0.711942 -0.456913
-0.897162 0.418548 0.669337
0.344529 0.591417 -0.224821
-0.293325 -0.219030 0.081901
0.574928 0.057946 0.299018
0.664240 -0.933033 -0.385066
0.642462 -0.234004 0.408789
-0.166668 -0.051168 0.059035
-0.356909 -0.489582 -0.105598
0.497642 -0.937518 -0.595627
0.602779 0.380816 0.173621
-0.017485 -0.129825 -0.006631
0.786062 -0.168644 0.604478
-0.712183 -0.500026 0.190702
0.758138 0.075661 0.592777
-0.807810 -0.123946 0.574753
-0.692949 -0.052031 0.456075
0.067680 0.161743 -0.019592
-0.864963 -0.987351 -0.263237
-0.894386 0.815392 0.139190
-0.998963 -0.857825 0.265390
-0.127367 -0.098151 -0.034420
0.549248 -0.585254 -0.012451
-0.930323 0.047565 0.825031
0.304515 -0.439540 0.013933
0.646255 0.720013 -0.106248
-0.663998 -0.207280 0.339364
-0.706273 0.277511 0.372591
0.721602 -0.502241 0.325843
0.646249 -0.961188 -0.526701
0.077884 -0.191691 -0.098868
0.638400 0.072973 0.444915
-0.814488 -0.080906 0.636066
-0.211037 0.924029 -0.776622
0.475595 0.413678 0.101839
-0.485096 0.991340 -0.733713
0.504658 -0.409880 0.206473
0.008357 0.578107 -0.420374
0.500532 0.111117 0.197288
-0.070641 0.223521 -0.057769
-0.264191 0.971706 -0.761358
-0.561622 0.307974 0.310471
-0.583241 0.797634 -0.231615
0.502982 0.451500 0.009432
-0.762179 -0.745228 -0.008323
-0.828035 0.398847 0.485135
-0.647417 -0.031369 0.378994
-0.649307 0.837596 -0.205332
0.646215 0.613669 0.028816
-0.202987 -0.791731 -0.591209
0.980777 -0.732169 0.464572
-0.725577 -0.860778 -0.297652
0.307080 -0.013510 0.096748
-0.102541 -0.838456 -0.747338
-0.214164 0.447357 -0.168983
0.750168 0.104717 0.522466
0.951191 0.671770 0.421591
0.745718 -0.440408 0.373415
-0.615399 0.038282 0.388311
-0.558404 -0.765041 -0.284463
0.312148 0.769220 -0.475729
-0.421833 -0.649990 -0.287975
0.469450 -0.795276 -0.378000
0.132841 -0.589899 -0.340644
0.101818 0.612463 -0.388927
0.657094 -0.788371 -0.229494
0.421066 0.228855 0.112852
-0.946844 0.492363 0.747625
-0.901082 0.502162 0.556616
0.203117 -0.619878 -0.400213
-0.027616 -0.876752 -0.721990
-0.479631 -0.102387 0.195966
-0.162688 -0.595029 -0.313405
0.515821 0.398542 0.076952
0.653223 -0.286614 0.408591
0.122446 -0.101292 -0.024805
-0.229261 -0.773030 -0.475122
-0.458606 0.135101 0.139605
0.043837 -0.628952 -0.408304
-0.370501 0.357971 0.079127
0.128190 -0.857662 -0.710743
0.353305 0.951789 -0.667505
-0.867842 0.369054 0.603491
-0.997865 -0.636541 0.603403
-0.575446 -0.971811 -0.518021
0.789023 -0.331074 0.437251
0.292582 -0.694373 -0.478438
-0.656079 -0.563177 0.073496
0.780528 0.745501 0.094121
-0.060088 0.206409 -0.119487
-0.047816 -0.647085 -0.386580
0.871084 0.113319 0.772281
-0.881027 -0.488439 0.638355
-0.569643 0.952402 -0.530301
0.171543 -0.934486 -0.825634
-0.609027 0.464637 0.222983
0.359054 0.545994 -0.142245
-0.571815 -0.865674 -0.445423
-0.801686 -0.656261 0.154791
-0.586030 -0.231387 0.261423
-0.154532 0.736310 -0.520275
-0.647723 0.074000 0.422821
-0.730616 0.310614 0.330559
0.720564 0.566026 0.187849
-0.359206 0.656246 -0.300201
-0.278483 -0.047431 0.102680
-0.889459 0.017586 0.872168
-0.285261 0.436012 -0.099450
-0.470386 -0.473315 -0.048243
0.220970 0.708979 -0.544728
-0.589219 -0.958426 -0.537051
0.776731 -0.608457 0.189637
0.859333 0.600400 0.421315
-0.800338 -0.319484 0.608342
-0.785194 -0.700334 0.048858
-0.769347 -0.626490 0.227099
0.239139 0.061513 0.118035
-0.756062 0.692363 0.143215
0.704765 -0.858699 -0.345489
0.508543 -0.939038 -0.665859
0.639618 -0.069664 0.340249
0.052121 0.912375 -0.803538
0.993354 -0.441980 0.812073
-0.911650 0.918341 -0.147140
-0.197470 0.775362 -0.577234
-0.352127 -0.433730 -0.024092
0.897291 0.633896 0.410706
0.153722 0.371735 -0.107243
0.612382 0.023645 0.356203
-0.659318 -0.154168 0.357985
0.957268 0.631006 0.517342
-0.002721 0.586159 -0.340970
-0.012656 0.513873 -0.233142
0.941769 0.996512 -0.071281
-0.238535 -0.042975 0.059345
-0.204950 0.613846 -0.280057
0.169505 0.724957 -0.515576
-0.743895 -0.576795 0.148486
-0.357829 -0.915867 -0.686918
-0.613583 -0.190503 0.346512
-0.793433 0.713473 0.145338
0.732289 -0.421793 0.295115
0.178662 0.400020 -0.038556
-0.282654 -0.985304 -0.855405
-0.182661 -0.289271 -0.064713
-0.136962 0.231033 -0.081391
0.266298 -0.740486 -0.423546
0.853539 0.793214 0.044252
0.865559 -0.687452 0.389671
-0.217016 0.819587 -0.655287
-0.341475 -0.567221 -0.119110
-0.097907 0.988557 -0.976884
0.135868 0.209497 0.053608
-0.076364 -0.831310 -0.721989
0.317507 -0.869446 -0.654183
0.108798 -0.850157 -0.670692
-0.358569 0.179785 0.129353
-0.308538 0.619158 -0.233123
-0.242814 -0.194075 -0.003080
-0.810720 -0.110328 0.649336
-0.667875 0.178575 0.476587
0.446228 0.066081 0.159490
-0.221807 0.376123 -0.063644
-0.570922 -0.056429 0.311810
0.125345 0.427721 -0.156941
0.511079 0.994621 -0.723843
-0.485155 -0.299404 0.106319
0.653580 -0.975569 -0.537603
0.855010 -0.748750 0.177662
0.194789 0.107028 0.021352
0.337895 -0.311484 0.095787
-0.894848 0.879965 0.076912
0.891040 0.254892 0.743481
-0.215031 0.040710 0.006423
0.847801 0.596079 0.322255
0.157955 -0.482820 -0.109475
-0.990762 0.639477 0.522185
-0.922916 -0.993878 -0.130326
0.360838 0.239355 0.090961
0.125336 0.869514 -0.755912
-0.946935 0.575720 0.515123
0.486920 0.707268 -0.302382
0.704291 -0.206091 0.426227
-0.007165 0.648478 -0.455947
-0.068485 0.101663 0.060741
-0.989054 0.237080 0.921564
0.573299 -0.882169 -0.475741
-0.338568 -0.596897 -0.236309
0.757527 0.101929 0.596856
-0.253879 -0.882398 -0.731403
0.130156 0.482894 -0.171147
-0.459316 0.680114 -0.315141
-0.678823 0.840725 -0.187452
0.549816 -0.796463 -0.332504
-0.006819 0.879440 -0.775770
0.072976 -0.864760 -0.777135
0.930832 -0.051888 0.802363
0.927160 0.680502 0.313209
0.711284 -0.859378 -0.270744
-0.624781 -0.963538 -0.508670
0.188545 -0.950105 -0.915213
0.756295 0.022540 0.494051
-0.251072 0.623194 -0.370786
-0.797788 -0.745147 0.061980
0.621926 -0.750780 -0.194153
-0.036473 0.137094 -0.023909
0.128785 -0.531409 -0.214179
0.964289 0.460427 0.780322
0.214423 0.899271 -0.662438
-0.150041 0.532067 -0.341828
-0.260031 0.754351 -0.544223
-0.164761 0.039172 0.060536
-0.763202 0.664639 0.118031
0.589501 -0.634194 -0.011651
0.675434 -0.863304 -0.278728
-0.431206 0.311906 0.167613
-0.392407 -0.896095 -0.596867
0.748668 0.784963 -0.002611
-0.952059 0.383108 0.739051
0.040915 0.904401 -0.821141
-0.072649 -0.372227 -0.148538
0.380254 -0.027683 0.068532
-0.673217 0.483381 0.293152
0.336661 -0.514442 -0.114040
-0.246532 0.083698 0.036521
0.237430 0.318935 0.019883
-0.919810 0.957617 -0.102499
-0.076546 0.489407 -0.325566
0.044502 -0.763738 -0.530947
-0.571347 -0.049333 0.260076
-0.720753 0.177542 0.478175
-0.623051 -0.706754 -0.101002
-0.311718 -0.136068 0.097927
-0.806380 -0.431988 0.506054
0.894640 -0.762345 0.248253
-0.190012 0.024084 0.063019
0.617939 -0.668734 -0.104894
0.948834 0.181075 0.882210
-0.838529 -0.660606 0.191454
0.303339 0.447190 -0.029857
0.742818 -0.609517 0.110140
0.268469 0.792570 -0.573414
-0.141948 -0.947581 -0.943705
-0.137847 0.043995 -0.019442
-0.928202 -0.359790 0.732782
0.069201 -0.549847 -0.323981
0.987086 -0.056794 1.028325
0.917415 0.684039 0.385086
-0.919202 0.830554 0.131965
0.411594 -0.393503 0.007886
-0.396470 -0.691513 -0.260016
0.805978 0.440281 0.501197
-0.909770 0.163997 0.743849
0.871748 -0.597968 0.368347
0.674951 0.520592 0.208283
-0.764991 0.037861 0.601446
-0.880351 0.306790 0.628379
0.669415 -0.281322 0.406431
-0.688485 -0.121805 0.414631
0.069796 -0.639316 -0.338662
0.831490 0.513032 0.454646
0.134896 -0.685977 -0.508964
-0.205533 0.556605 -0.294019
-0.109968 0.596016 -0.370465
-0.873766 0.493202 0.528212
0.937505 -0.961154 -0.055102
-0.378692 -0.453734 -0.119741
-0.621273 -0.063325 0.312257
-0.427905 0.191089 0.174039
0.928746 0.838444 0.173893
-0.811428 -0.248788 0.601797
0.734606 0.750047 -0.009387
0.415688 -0.673141 -0.311269
0.660038 -0.257439 0.378575
0.951795 -0.895436 0.231034
0.684309 0.484979 0.291803
0.886765 -0.698694 0.283757
-0.746130 -0.485960 0.294384
0.591577 0.550466 -0.096072
0.091351 0.069433 0.056959
0.086991 -0.972055 -0.897992
0.797843 -0.995530 -0.381717
0.943608 0.021321 0.818355
0.409677 -0.390089 -0.042098
-0.034123 -0.639377 -0.385419
-0.087192 0.227188 -0.048479
-0.227317 -0.543127 -0.208734
-0.276802 0.184414 0.046933
-0.216986 -0.241468 0.037114
-0.820494 -0.626508 0.299177
-0.845128 -0.723791 0.231808
0.559740 -0.526279 -0.068145
-0.107854 -0.940336 -0.934316
0.861369 -0.383746 0.576478
0.224442 0.803909 -0.541918
-0.929648 0.662724 0.519069
-0.684953 -0.255992 0.395417
-0.588360 0.151667 0.292586
0.951472 0.134721 0.789401
-0.562592 0.657475 -0.072586
0.031511 -0.527420 -0.304688
0.872354 -0.407225 0.743086
0.954385 -0.396429 0.716725
-0.527279 -0.918260 -0.459914
-0.901765 -0.370624 0.713236
-0.692796 0.755828 -0.142722
-0.873343 0.823975 0.095400
-0.609752 -0.780729 -0.199172
0.137139 -0.083883 0.000508
0.824898 -0.237302 0.666043
0.074438 -0.021282 0.045886
0.251979 0.109439 0.081333
-0.596265 -0.959482 -0.565898
0.601167 0.684484 -0.165864
0.235578 0.947328 -0.845773
0.728274 0.306810 0.445054
0.897686 0.320904 0.609058
-0.304198 0.055960 0.097867
-0.818842 -0.331453 0.555801
-0.548142 -0.702044 -0.257238
-0.124317 0.168127 -0.029462
0.891387 -0.910117 -0.049334
-0.243380 0.649005 -0.265469
0.541546 -0.158177 0.279259
0.080953 -0.170492 0.029288
-0.634382 -0.345658 0.277071
-0.358532 0.938708 -0.846323
0.306384 -0.650166 -0.295228
0.345707 -0.697384 -0.399741
-0.130481 -0.668937 -0.447232
-0.542709 0.317055 0.141360
0.443814 0.983791 -0.767235
-0.662254 -0.529050 0.211946
0.873339 0.811235 0.151257
-0.624193 -0.442767 0.272884
-0.785375 0.295800 0.615715
-0.004705 -0.919002 -0.946836
0.039099 -0.008692 -0.058228
0.016386 0.309140 -0.185709
-0.126665 0.072640 0.042364
0.989630 -0.524329 0.669792
-0.027439 0.656994 -0.455347
-0.044107 0.940273 -0.892998
-0.156468 -0.081608 0.036951
-0.866349 0.271839 0.602397
0.185913 0.580827 -0.365739
-0.544064 -0.517022 0.028759
0.275218 0.728901 -0.395614
-0.898333 -0.439598 0.612486
0.962774 0.551662 0.583021
-0.061990 -0.775802 -0.705436
0.793511 -0.423227 0.498172
-0.048878 0.067240 -0.038929
-0.879338 0.049844 0.713380
0.644427 0.700862 -0.161688
0.296367 0.992254 -0.968690
0.563514 -0.785578 -0.347646
-0.143660 -0.457224 -0.200358
0.275873 -0.284804 -0.065444
0.712458 -0.042163 0.515104
0.262131 -0.012181 0.056242
-0.304653 0.712390 -0.303587
0.325059 0.541119 -0.272368
0.343708 -0.962297 -0.799806
0.921174 -0.089956 0.849169
-0.258175 0.236148 -0.040639
-0.149836 -0.079209 0.020940
0.624246 -0.738710 -0.117529
0.011525 -0.205052 -0.037089
0.473146 -0.176689 0.261872
-0.080581 -0.624568 -0.492476
-0.569010 0.512614 0.018887
0.490408 -0.357199 0.186662
-0.737690 0.177975 0.558112
-0.602833 0.031460 0.389443
0.253650 0.754854 -0.443806
0.494540 -0.755970 -0.422749
0.789376 -0.771474 0.067723
-0.454827 -0.399361 0.100597
-0.778551 -0.137570 0.554282
0.912093 -0.402916 0.801035
-0.691154 0.526374 0.210441
-0.604666 -0.509468 -0.003575
-0.417341 -0.830451 -0.496411
0.058783 -0.172400 -0.062259
0.765651 0.546759 0.345526
0.521092 0.701124 -0.192641
0.416315 0.466690 -0.074377
-0.649639 0.115773 0.483750
-0.284635 0.448383 -0.073058
-0.043190 0.362779 -0.171139
-0.705148 -0.531267 0.207387
-0.453141 0.101518 0.220876
-0.383334 0.541219 -0.164186
-0.745448 -0.365759 0.405193
0.100479 0.307946 -0.082899
0.410056 -0.037039 0.113484
-0.860137 0.006318 0.628157
-0.037754 -0.819890 -0.658837
0.564422 0.332434 0.108615
0.495980 0.731374 -0.338564
0.630146 -0.717137 -0.205781
-0.103519 -0.267789 -0.143417
0.641114 -0.902665 -0.382459
-0.518494 -0.940736 -0.627264
-0.278379 0.979317 -0.894487
-0.647289 -0.013057 0.353017
-0.065031 -0.288962 -0.112062
-0.215880 -0.450246 -0.137294
-0.518146 0.960025 -0.655778
0.503561 -0.495498 0.049189
-0.372306 0.451417 -0.016910
-0.454391 -0.432484 0.006818
-0.738219 -0.859021 -0.285562
-0.122357 0.366553 -0.157222
-0.394071 -0.996738 -0.843080
-0.261454 0.351497 -0.094016
-0.528005 -0.499247 -0.023189
0.526311 0.492208 0.038222
0.860007 0.539500 0.570066
-0.004136 0.448214 -0.225289
0.285997 -0.951033 -0.822810
0.734345 0.407473 0.307626
0.997659 0.980291 0.096523
0.227033 -0.514749 -0.169686
0.779559 -0.451523 0.444126
0.817217 0.627053 0.342637
0.582903 -0.679206 -0.142913
-0.078137 0.321167 -0.112164
-0.837692 0.510053 0.527068
-0.968389 -0.925679 0.112532
-0.045599 0.107524 -0.120443
-0.011371 0.151755 -0.000159
-0.185275 -0.393114 -0.149297
0.136335 0.752689 -0.503045
0.104325 -0.674501 -0.423658
0.673226 -0.271611 0.292434
-0.782686 0.697337 0.139759
-0.549645 -0.618715 -0.070167
0.586010 0.642748 -0.051545
0.695674 -0.841862 -0.195993
0.989648 -0.021542 1.053738
0.745824 -0.849339 -0.144428
0.779798 0.355807 0.482631
-0.371304 0.581203 -0.142532
-0.196677 0.699717 -0.338785
-0.463830 0.962524 -0.665562
0.212599 0.344031 -0.062849
0.877611 0.538124 0.502250
-0.310718 0.011517 0.109215
0.114004 0.825474 -0.667484
-0.407401 0.287517 0.191568
-0.660400 0.767103 -0.189771
-0.609629 -0.529096 0.149450
-0.884109 -0.006524 0.775314
0.898587 0.459638 0.522171
-0.194241 -0.594557 -0.325184
0.668242 -0.577320 0.085909
0.362659 0.956086 -0.753699
-0.616158 -0.130779 0.367112
-0.649076 -0.636369 -0.034768
0.623976 -0.337072 0.349279
-0.470577 -0.205248 0.233822
0.826570 0.246171 0.701921
-0.719889 0.846029 -0.185677
0.355417 0.973180 -0.822545
0.628948 0.303398 0.338703
-0.529487 0.399845 0.091607
-0.447585 -0.356342 0.079856
0.929038 0.714317 0.344078
-0.470805 -0.564403 -0.169946
-0.140086 -0.787239 -0.593748
-0.134969 0.946512 -0.899717
-0.493930 0.728277 -0.298548
0.551582 -0.392710 0.168211
0.543699 0.350341 0.236496
-0.243364 -0.065963 0.012436
0.670252 -0.353744 0.307275
-0.573850 -0.426452 0.109189
-0.991388 -0.727945 0.411438
0.142335 0.098636 -0.019198
0.988156 -0.106807 0.955221
-0.922711 0.024373 0.880096
-0.584004 -0.569286 0.032997
0.037829 0.877221 -0.820929
0.619881 0.277182 0.372131
-0.821916 0.799201 0.084044
-0.209531 -0.781458 -0.611832
0.494152 0.245702 0.245022
-0.256914 0.698924 -0.406143
-0.622327 -0.338158 0.265117
-0.609008 -0.609714 0.017044
-0.179902 -0.469957 -0.189784
-0.041166 -0.454133 -0.177288
0.723629 -0.105602 0.521853
0.284505 -0.348073 -0.057083
0.380804 -0.457452 -0.165542
0.965974 0.297025 0.871242
-0.176313 -0.893935 -0.786717
-0.193291 -0.319272 -0.025676
0.846694 0.379504 0.596951
-0.508249 -0.648301 -0.179360
0.459630 -0.558144 -0.049115
0.509146 -0.598667 -0.088930
-0.804424 -0.998148 -0.341019
-0.063537 -0.052464 -0.005621
-0.598875 -0.922082 -0.407407
-0.629249 -0.454120 0.154066
-0.072344 0.989607 -0.990222
-0.421141 0.836792 -0.584729
0.592121 -0.569848 0.062217
0.815210 -0.379995 0.491063
0.605441 -0.072591 0.337788
-0.467938 0.688827 -0.281363
-0.451731 0.605292 -0.159181
-0.490543 -0.747517 -0.380687
-0.729924 -0.751102 -0.143528
0.887597 -0.166535 0.782979
-0.195904 0.740191 -0.615182
-0.550621 0.764170 -0.238065
0.693342 -0.785268 -0.057997
-0.201609 0.148595 0.010355
-0.929766 -0.688650 0.455202
-0.676117 0.372259 0.317345
0.278501 0.832866 -0.536142
0.565811 -0.090461 0.289147
-0.578131 -0.833834 -0.479288
0.834791 0.158508 0.667756
0.701994 -0.182967 0.544717
0.696761 0.621798 0.125593
-0.544678 -0.319311 0.168948
-0.898928 0.749794 0.262325
0.734847 -0.452599 0.383710
-0.388400 -0.684965 -0.322603
0.237833 -0.387039 0.038085
0.519934 -0.930168 -0.620753
-0.743414 -0.437508 0.411376
0.561677 0.320235 0.251027
0.877023 -0.715434 0.222332
0.456750 -0.777270 -0.416750
-0.117555 -0.735229 -0.475838
0.753356 -0.844897 -0.139065
0.054915 0.749271 -0.541488
0.489542 0.888230 -0.631100
0.641012 -0.906878 -0.378731
0.498706 0.520144 -0.007477
-0.424290 0.474303 -0.048137
-0.764312 0.993819 -0.385458
-0.523323 -0.304259 0.160833
0.005750 -0.428982 -0.213588
0.010554 -0.093836 -0.020788
0.165289 0.713150 -0.504473
-0.209796 0.457187 -0.055979
0.573783 -0.056752 0.371599
0.826307 -0.510874 0.373368
-0.506550 0.454031 0.152263
0.473046 0.709054 -0.300627
0.355944 -0.200098 0.088130
0.046181 0.337171 -0.066681
-0.622940 -0.199576 0.249724
0.590465 -0.043013 0.334947
0.921253 0.049821 0.817558
0.443673 0.551452 -0.096999
0.835720 0.955012 -0.195117
0.968371 -0.111268 0.921498
-0.295899 -0.315370 -0.018085
0.276447 -0.252818 0.065763
-0.052135 -0.732222 -0.518357
0.973257 -0.406123 0.784366
-0.812384 -0.827105 -0.016741
-0.175250 -0.144211 0.101710
0.751078 -0.665285 0.130147
-0.431897 -0.307187 0.066449
0.575586 0.587156 -0.108903
-0.234434 -0.508145 -0.274949
0.959957 0.223789 0.848085
0.767060 0.802363 -0.060824
-0.397359 0.133858 0.112195
0.540386 -0.612415 -0.065477
-0.326287 -0.310468 -0.018352
0.212726 0.180738 -0.033139
0.316962 0.013222 0.130922
0.659191 -0.702760 0.009130
-0.951098 -0.106407 0.837907
-0.559684 0.086133 0.318013
0.423836 -0.465335 -0.132150
0.127046 0.224891 -0.108162
-0.008790 -0.859680 -0.768410
-0.889580 -0.326786 0.741309
-0.303448 0.608554 -0.317192
0.730200 -0.481430 0.260612
-0.938214 0.210354 0.837802
-0.207128 -0.179941 0.012377
0.890297 -0.367080 0.618624
-0.898239 0.832263 0.213481
0.499411 -0.313477 0.137876
-0.484775 -0.526648 -0.036672
0.733218 0.818603 -0.152591
0.492136 0.491889 0.022242
0.771410 0.363599 0.524617
-0.568150 -0.900930 -0.405697
0.062586 -0.737590 -0.578235
0.558540 0.276680 0.290455
-0.508601 -0.581134 -0.051559
-0.538507 -0.548724 0.037619
-0.945636 0.558277 0.577960
0.917031 -0.428150 0.648281
0.420034 -0.856825 -0.510936
0.271121 -0.927136 -0.738340
0.487989 -0.113644 0.303505
0.063226 0.234257 -0.040952
-0.047732 0.737770 -0.547373
-0.100936 -0.778391 -0.718698
0.280878 -0.606654 -0.369700
-0.596930 0.059601 0.333061
0.776117 -0.271783 0.473439
0.623505 -0.034925 0.428245
-0.300873 0.848249 -0.694503
0.157219 0.089783 -0.008409
-0.717945 -0.169759 0.463526
0.944692 0.978880 -0.005525
0.805785 -0.869569 -0.137272
0.843795 0.864227 -0.012277
-0.335674 0.003324 0.122451
-0.661731 0.007513 0.482995
-0.576456 0.843929 -0.337404
-0.819997 0.014648 0.670509
-0.759779 -0.123186 0.477274
-0.857391 -0.455023 0.516486
0.979646 0.317634 0.857818
-0.851885 0.139290 0.720606
-0.734916 -0.571309 0.176829
0.654509 0.418826 0.310012
0.160480 0.288174 -0.056609
0.548834 -0.205332 0.213033
0.261824 -0.991198 -0.936833
0.764350 -0.106838 0.669244
0.276935 -0.987884 -0.866002
0.044250 -0.850003 -0.668124
0.425499 -0.138780 0.109710
-0.105214 -0.836160 -0.722535
-0.307872 -0.448669 -0.140590
-0.064695 0.310983 -0.083305
-0.660572 -0.382769 0.281143
0.593143 0.995297 -0.663272
-0.478592 0.832604 -0.482382
-0.692937 0.170620 0.411349
-0.507295 0.933894 -0.623802
0.684140 0.736035 -0.018038
-0.339597 -0.362203 -0.091522
0.372100 0.499193 -0.093411
0.712819 -0.726336 0.049551
-0.844511 0.369103 0.567802
0.530049 -0.017836 0.254190
-0.384669 -0.966348 -0.739647
-0.566755 -0.451540 0.068112
0.377803 0.910764 -0.687891
0.819593 -0.368337 0.484069
-0.409962 -0.637091 -0.331322
0.137668 -0.624937 -0.379193
-0.420332 -0.041573 0.111781
0.108571 0.685299 -0.458430
0.243724 0.516004 -0.151107
0.220671 -0.126296 0.125458
0.247093 -0.582546 -0.273629
-0.729840 -0.907870 -0.240600
0.387081 -0.074739 0.164194
0.349501 0.629551 -0.293339
0.365176 0.459364 -0.173900
-0.851859 -0.182798 0.773573
-0.106322 0.189405 -0.077025
-0.181930 -0.127507 0.085979
-0.826577 0.158032 0.685096
-0.555264 0.035010 0.258292
-0.118075 0.361933 -0.101454
0.485813 0.015418 0.342422
-0.525876 0.881222 -0.423224
0.659500 -0.143944 0.388585
0.091597 -0.968167 -0.964557
0.520843 -0.527253 -0.001707
-0.054888 0.001214 -0.005264
-0.001612 0.081144 0.053405
0.239439 0.104770 0.083334
0.855941 0.429104 0.463893
-0.016375 -0.450704 -0.179932
0.057315 0.329807 -0.114442
0.203994 0.408065 -0.123048
0.475030 -0.177438 0.206616
-0.856299 -0.195662 0.754901
0.031375 -0.642150 -0.362483
-0.036817 -0.172025 -0.065724
0.843370 0.573633 0.379288
-0.012987 0.817946 -0.691293
-0.063359 0.187226 -0.115132
0.924400 -0.401259 0.688038
-0.098847 0.364579 -0.030910
-0.638231 0.480292 0.091056
-0.566168 -0.335574 0.206733
-0.809625 0.653096 0.226152
-0.998864 -0.852608 0.285175
-0.136109 -0.978493 -0.987058
0.538485 -0.754058 -0.349893
0.466933 -0.687983 -0.324225
-0.935702 0.757858 0.367736
0.139966 -0.150037 -0.052055
-0.691434 -0.450137 0.250480
0.882153 -0.141850 0.863303
-0.665270 -0.210318 0.361638
0.253278 -0.397077 -0.076400
-0.347523 -0.724201 -0.350504
0.283123 0.311831 0.033706
-0.175483 -0.726791 -0.564010
0.519286 0.550849 -0.069444
-0.538642 -0.596624 -0.050707
0.811584 0.462743 0.540988
0.000419 0.611172 -0.411607
0.512186 -0.749348 -0.323868
0.699460 -0.826508 -0.172893
0.997657 0.899146 0.217840
-0.552109 -0.073906 0.333375
-0.426215 0.260471 0.071496
-0.499134 -0.953479 -0.686590
-0.474257 -0.442580 0.039818
0.164889 0.010795 0.090188
0.987045 0.772437 0.365675
0.980556 -0.457121 0.751416
0.053546 0.550383 -0.351350
0.278054 0.324426 0.065223
0.719941 -0.769458 -0.066038
0.865867 -0.413250 0.632838
-0.592279 -0.524272 0.077428
0.057083 -0.114945 -0.005690
0.665674 0.270668 0.294845
-0.393596 -0.133160 0.029648
-0.120382 -0.510927 -0.183959
0.971242 0.391758 0.793740
0.970093 0.168942 0.922861
0.812214 0.038628 0.595746
0.596897 0.108839 0.299286
-0.461739 -0.556199 -0.043039
-0.358300 0.360862 0.085165
0.094566 -0.224999 -0.072746
0.121555 -0.273064 -0.026214
0.011006 -0.700532 -0.481122
0.273341 0.193675 0.031179
-0.183354 0.205329 0.084057
0.498348 -0.319399 0.123675
-0.332900 0.719700 -0.345110
-0.338646 0.690916 -0.343612
-0.745548 -0.781891 -0.056357
-0.622576 0.390077 0.304041
0.701042 -0.212330 0.460882
-0.107435 0.999430 -0.992139
-0.544264 -0.549953 0.062748
0.518682 -0.438952 0.138816
0.107962 -0.115787 0.058347
-0.957688 -0.462570 0.508805
-0.367277 0.383987 0.009455
-0.645997 -0.038184 0.426460
0.311746 -0.558242 -0.216192
-0.449938 0.012748 0.232771
-0.870106 0.777576 0.165489
-0.890130 0.584791 0.484241
0.163455 -0.002342 0.013314
-0.956553 -0.423015 0.810961
0.697584 -0.640227 0.115680
-0.689206 0.756766 -0.070563
0.213133 0.420334 -0.106570
-0.110624 0.144327 0.049272
-0.114297 0.758869 -0.511734
-0.856406 -0.756619 0.155319
0.605505 0.364979 0.282942
0.786105 -0.566575 0.305656
-0.977967 -0.758845 0.476419
-0.642792 -0.068783 0.463336
0.807808 -0.225214 0.570553
0.098987 0.882347 -0.652203
-0.699921 -0.352041 0.260854
-0.594419 0.629804 -0.011452
0.319972 0.497654 -0.180089
0.449634 0.335848 0.183486
0.198854 0.840801 -0.654763
0.906297 -0.184151 0.747773
-0.011873 -0.220658 -0.061874
-0.399456 -0.678105 -0.335958
-0.045534 -0.448476 -0.214346
-0.280667 0.759553 -0.514579
-0.551168 -0.051236 0.263604
-0.908073 -0.317293 0.737426
-0.295575 -0.567776 -0.215444
0.422819 -0.030079 0.128056
-0.963124 0.433331 0.656920
-0.121643 -0.426616 -0.151656
0.288019 0.515433 -0.156120
0.220808 0.259576 0.017888
0.553297 0.575125 0.002927
0.621039 -0.498181 0.216142
0.423412 0.262056 0.160457
-0.794405 -0.692529 0.285473
-0.049955 -0.272406 0.083323
0.206812 0.448720 -0.246484
-0.508868 0.263337 0.079743
-0.914896 -0.624279 0.446942
-0.552819 0.716685 -0.182817
-0.090211 -0.893298 -0.793638
-0.172139 0.190431 0.028547
-0.646666 0.967641 -0.531664
0.648831 0.063009 0.382314
0.851373 0.601344 0.336078
-0.597303 0.190362 0.310525
0.859146 0.566177 0.459751
-0.964278 0.311188 0.808657
0.849925 0.382264 0.561798
0.903858 -0.544378 0.549122
-0.975896 0.483642 0.708524
0.526039 -0.524180 0.057787
0.940403 0.961281 -0.085678
0.811804 -0.544426 0.305809
0.941420 -0.526632 0.624162
0.100647 0.717346 -0.484241
-0.843688 -0.514028 0.404336
0.699578 -0.278194 0.479198
0.227657 0.429280 -0.036207
0.229473 -0.682503 -0.444545
-0.165493 -0.681857 -0.363175
0.143684 -0.027283 -0.099206
-0.692840 -0.512607 0.271068
0.479540 -0.528684 -0.092436
-0.849965 -0.981522 -0.192141
0.459562 -0.259101 0.096000
0.697957 -0.363499 0.351588
-0.055063 -0.937688 -0.916733
0.019661 0.242466 -0.069097
-0.375571 0.253310 0.168384
0.938917 -0.858399 0.139320
0.466249 -0.365917 0.189008
-0.262023 0.745611 -0.506571
-0.650385 0.164334 0.470583
-0.560841 -0.176051 0.202264
-0.072155 -0.069796 -0.013991
0.885137 -0.583440 0.416259
0.468293 0.623763 -0.092897
-0.569512 0.828009 -0.351993
0.719122 0.821328 -0.261847
-0.243599 -0.552131 -0.311015
0.703444 -0.378519 0.300924
-0.516601 -0.678754 -0.147129
0.237321 -0.385598 -0.052114
0.853341 -0.334389 0.601355
-0.484212 0.266211 0.136167
0.385853 -0.620707 -0.200575
0.974625 0.838794 0.189843
-0.698803 -0.793801 -0.118910
-0.823195 -0.986244 -0.276401
0.348390 0.709890 -0.396298
-0.320528 0.407540 -0.043466
-0.857511 -0.289280 0.656747
-0.049389 0.190999 -0.009171
0.507541 -0.552912 -0.114818
-0.429755 -0.663221 -0.224447
-0.329906 -0.057702 0.156839
0.691399 -0.293624 0.407865
0.040144 0.230460 -0.021440
0.685464 -0.563702 0.146605
-0.107221 0.325855 -0.050119
0.905950 0.533723 0.539148
0.301589 -0.666728 -0.410967
-0.768202 -0.912283 -0.201116
0.770186 -0.120825 0.496880
-0.021470 0.548048 -0.285757
-0.716722 0.301560 0.403541
-0.694620 0.403763 0.297065
0.375068 -0.194321 0.111515
-0.905255 -0.530109 0.503007
-0.426812 0.063558 0.203740
-0.720425 -0.591269 0.172253
-0.117845 0.452457 -0.221695
-0.171292 -0.606067 -0.271067
0.043753 -0.417473 -0.162131
-0.440727 0.013090 0.225609
-0.935913 -0.026580 0.946056
0.228772 0.201699 0.081663
-0.252564 -0.125111 0.077125
0.302670 0.838947 -0.627355
-0.782666 0.679868 0.078860
-0.972445 0.758227 0.381076
-0.503412 0.259033 0.241054
-0.086905 0.270016 -0.047640
-0.211856 0.218397 -0.175044
0.620605 -0.130232 0.411694
-0.244325 -0.355788 -0.020316
0.060882 0.184006 -0.045213
0.187031 -0.948936 -0.816081
-0.956337 -0.985087 -0.024418
0.030267 0.703284 -0.527967
-0.310337 -0.907152 -0.663050
-0.157440 0.049590 -0.041046
-0.799425 0.229976 0.583330
0.565641 -0.603658 -0.052303
0.884808 0.791462 0.115203
-0.955462 -0.619808 0.543935
0.202746 0.769030 -0.484783
0.527688 0.525981 0.064186
-0.430385 -0.518514 -0.047443
0.575111 -0.698512 -0.241962
0.264710 -0.367535 -0.131808
0.858325 -0.204099 0.703374
0.962010 -0.508431 0.665249
-0.915308 0.997783 -0.182687
-0.110124 -0.540695 -0.184958
0.093976 0.661270 -0.423153
-0.706514 -0.681764 0.061479
-0.327428 0.960489 -0.765936
0.975295 -0.548953 0.652599
-0.967539 -0.156623 1.041154
-0.094984 0.117128 -0.051716
0.685309 -0.759429 -0.137387
-0.352197 0.633640 -0.324598
-0.040403 -0.450629 -0.123301
0.956091 0.098540 0.944505
-0.050246 0.099268 -0.034537
-0.738157 0.205281 0.459542
-0.896557 -0.889028 0.082688
0.890833 -0.662762 0.372414
-0.468381 -0.677616 -0.169261
0.008128 -0.395897 -0.159676
-0.818596 -0.710172 0.191333
-0.152690 0.843843 -0.673745
0.860211 0.025909 0.708086
0.004826 0.247150 -0.068267
0.942270 -0.285024 0.747420
-0.482329 -0.447508 0.057083
0.009090 0.006354 0.038105
0.719062 -0.411354 0.397345
-0.103495 -0.312708 -0.053748
-0.441025 -0.094498 0.179163
0.710951 0.011467 0.582918
-0.220221 0.968628 -0.845128
0.061447 -0.553355 -0.232999
0.953054 -0.024048 0.980298
-0.627033 -0.700977 -0.104477
-0.397199 -0.300002 0.087160
-0.937861 0.434621 0.729415
-0.216325 -0.651076 -0.434560
-0.599633 0.162703 0.276739
0.360070 -0.166598 0.036930
-0.637357 -0.896841 -0.403505
0.349625 0.866150 -0.644644
-0.473049 -0.172794 0.122134
-0.289564 0.567853 -0.231142
-0.302279 -0.167373 0.058578
0.433504 0.874721 -0.518099
-0.066981 -0.419059 -0.070475
-0.277402 -0.175539 0.068961
0.705245 0.517729 0.194497
0.143901 -0.312665 -0.044716
-0.572338 -0.271286 0.254440
0.800183 0.989646 -0.351114
-0.314699 0.111229 0.043584
-0.922041 0.378761 0.683489
-0.010800 0.286924 -0.091099
-0.752124 0.655848 0.175758
-0.523067 0.723650 -0.224519
0.494222 0.126512 0.319529
-0.738496 -0.410888 0.410265
0.613888 -0.954400 -0.512805
0.873815 0.228806 0.695888
0.213064 0.650938 -0.430197
0.420718 -0.098920 0.138724
0.427173 -0.670588 -0.302203
0.985616 -0.423836 0.663757
-0.316923 0.019978 0.049610
-0.674287 0.673362 0.081356
0.038334 -0.656494 -0.411084
0.066500 0.224300 -0.064714
-0.644175 0.506737 0.178103
0.226219 0.872095 -0.807045
-0.971751 -0.766593 0.370740
0.855337 0.852783 0.068236
-0.470851 0.202935 0.174463
-0.920880 0.533403 0.474901
-0.783501 -0.892451 -0.203291
-0.519502 0.012296 0.333694
-0.452188 0.245259 0.157253
-0.934380 -0.386332 0.652898
-0.441290 -0.136700 0.294432
-0.614117 0.108596 0.302656
-0.242758 0.105096 0.035740
-0.229665 -0.916277 -0.838687
-0.321985 -0.121036 0.037224
-0.344152 -0.572364 -0.231767
-0.820537 0.833390 0.010550
-0.949590 0.953160 0.057734
-0.595771 -0.400706 0.175070
0.513299 -0.649629 -0.209050
0.981620 -0.560992 0.672797
0.857052 -0.044495 0.757957
0.008439 0.749011 -0.548928
0.063648 0.000072 0.017838
-0.370837 -0.889216 -0.658813
0.547879 -0.920229 -0.541742
0.529513 -0.545218 -0.025961
0.688545 0.685543 0.057637
0.791009 0.242961 0.678088
-0.131302 0.125916 0.010368
0.533751 -0.362061 0.153474
0.612797 0.858851 -0.349311
-0.383081 -0.337644 -0.000148
0.858485 0.669889 0.326494
-0.811317 0.791807 0.053336
0.988538 -0.033330 0.955074
0.540181 0.788579 -0.284957
-0.813458 -0.446393 0.463397
0.312459 0.316867 -0.051277
-0.931641 -0.824072 0.206440
0.540374 -0.052132 0.301136
0.598446 -0.565336 0.086553
0.204820 -0.874473 -0.681175
0.713721 -0.992549 -0.481217
-0.804233 -0.350496 0.500340
-0.448152 0.179061 0.168865
-0.171645 -0.089539 0.039610
-0.915084 -0.396461 0.704385
-0.103568 0.982400 -0.939313
-0.469573 0.879050 -0.556768
-0.214530 -0.748693 -0.464678
-0.149795 -0.169785 -0.040104
0.758823 0.297694 0.611162
-0.459318 0.466982 0.031055
0.787486 -0.267256 0.492335
-0.148058 0.492564 -0.211436
-0.344385 -0.751700 -0.407818
0.005024 -0.336375 -0.130591
-0.164513 0.432866 -0.235066
-0.485255 0.251366 0.120335
0.005359 0.674420 -0.427710
-0.696397 -0.906286 -0.424117
-0.296140 -0.651217 -0.408851
0.131580 -0.903011 -0.771273
-0.173184 -0.615772 -0.360310
0.647825 -0.991434 -0.598054
-0.486556 0.008421 0.211930
0.939543 0.056629 0.805994
0.569444 0.315784 0.248770
0.935186 -0.230175 0.781265
0.676273 -0.993585 -0.556653
-0.715792 0.347782 0.408745
0.052920 -0.891418 -0.804657
-0.660043 0.732341 -0.135899
0.636455 -0.954692 -0.605834
0.168324 0.060950 0.042989
-0.473101 0.789836 -0.396066
0.859198 0.144979 0.691333
-0.769628 0.216833 0.493440
0.127725 0.363222 -0.114978
0.442081 -0.755182 -0.350841
-0.882303 0.349854 0.660948
0.195712 0.760710 -0.458473
0.631802 0.948442 -0.465129
-0.864945 -0.113896 0.729794
0.024486 -0.310990 -0.059201
-0.482886 0.506619 -0.021051
0.325849 0.085749 0.101084
-0.762645 -0.485391 0.410842
0.874103 -0.655684 0.289231
0.789457 -0.659539 0.189416
-0.628051 -0.081646 0.447268
-0.353468 -0.659751 -0.294882
0.175270 -0.960562 -0.910413
0.436125 -0.895822 -0.697601
-0.114688 0.859769 -0.839567
-0.687417 -0.854077 -0.153096
-0.791697 -0.853639 -0.086489
0.999531 -0.097623 0.960328
-0.089296 -0.509799 -0.234449
0.745063 0.925388 -0.348606
-0.035248 0.821972 -0.690955
0.844715 -0.190514 0.630201
-0.824481 -0.102537 0.598592
-0.771962 -0.249773 0.428289
0.859264 -0.924268 -0.195819
0.894986 -0.414306 0.680415
-0.370565 -0.754653 -0.481527
-0.289670 -0.795259 -0.521784
-0.095100 0.121723 0.042060
-0.167677 -0.802470 -0.615014
-0.619910 -0.794137 -0.261295
0.796751 -0.038973 0.639944
-0.493385 -0.115435 0.209272
0.410545 -0.724730 -0.296492
-0.865689 -0.991102 -0.139040
-0.922497 -0.614051 0.546433
0.307461 -0.528215 -0.292058
-0.321968 0.600497 -0.278784
0.310919 0.830877 -0.593478
-0.811958 -0.188111 0.647042
0.899703 -0.189947 0.687020
0.497029 0.424963 -0.020728
0.752534 0.253844 0.567211
-0.727059 -0.631720 0.101589
-0.359678 -0.784622 -0.560633
-0.263312 -0.124776 -0.001418
0.074345 0.129657 0.008240
-0.406263 -0.722585 -0.398207
-0.878739 -0.413453 0.613319
-0.262243 -0.388114 -0.130797
-0.490901 -0.477404 -0.074140
-0.228157 -0.078477 0.117116
-0.606081 0.306127 0.293530
-0.476207 0.018780 0.209733
0.253905 -0.597087 -0.318113
-0.223692 -0.794122 -0.507346
-0.309233 0.643741 -0.289201
0.067811 -0.041391 0.060226
0.543721 -0.875722 -0.500440
-0.242264 -0.483757 -0.172796
0.175039 0.608068 -0.318998
0.932405 0.503453 0.588412
0.043960 0.751633 -0.567797
0.819595 0.204176 0.600868
0.587345 -0.154188 0.341153
-0.882563 -0.146730 0.691317
-0.141802 -0.612000 -0.325838
0.396637 0.301598 0.081895
0.973424 0.170138 0.908442
-0.083247 -0.690271 -0.447068
-0.814429 0.771326 0.050104
0.124018 -0.263064 -0.087328
-0.746872 -0.900522 -0.225936
0.503039 -0.344238 0.163899
0.015354 0.739713 -0.572304
0.446863 0.833913 -0.525378
0.738724 -0.019203 0.536195
0.257896 0.912680 -0.794074
0.224879 0.750484 -0.436399
0.509141 0.650461 -0.148052
0.684910 0.719420 -0.047734
0.738108 -0.236249 0.442353
-0.927140 0.512938 0.633432
0.112381 0.154678 -0.041876
-0.567461 0.439368 0.096331
0.720692 -0.644428 0.142740
0.296795 0.462788 -0.106719
-0.159555 0.915185 -0.937278
-0.623792 -0.394673 0.225460
-0.321953 0.972323 -0.835482
0.407555 -0.243248 0.089952
-0.591281 -0.600553 -0.003033
-0.812834 -0.775428 -0.031073
0.776058 0.569924 0.135901
0.528421 0.109651 0.218432
-0.600410 -0.385737 0.225811
-0.415377 0.216901 -0.035756
0.944140 -0.335798 0.736464
0.416369 -0.103284 0.066557
0.221044 0.725328 -0.489372
-0.384743 0.336333 0.132802
-0.401750 0.524804 -0.124875
-0.920953 0.166987 0.814894
0.456964 0.982796 -0.715111
-0.913650 -0.517180 0.568346
-0.990285 -0.475418 0.743893
0.458990 -0.814882 -0.407029
0.897748 0.108039 0.817873
0.513006 0.226718 0.226205
-0.056720 0.451923 -0.207956
-0.027910 -0.329108 -0.124836
-0.127727 -0.975486 -0.889401
-0.350713 0.264459 0.036238
0.043428 0.997391 -0.931340
-0.137698 -0.410901 -0.202236
0.196336 -0.632131 -0.289353
0.796240 -0.436466 0.467098
0.990019 -0.149169 0.909459
-0.842513 -0.498174 0.487100
-0.230633 -0.306080 -0.073008
-0.638588 0.276413 0.333061
-0.295759 -0.309944 -0.032923
-0.425054 -0.207882 0.130810
-0.650926 -0.919937 -0.375509
0.528152 0.835885 -0.393834
-0.007423 -0.186228 -0.090894
0.838491 -0.343713 0.531524
-0.934815 -0.827032 0.203437
-0.866044 0.268366 0.695171
-0.193453 0.727650 -0.525773
-0.839445 -0.917694 -0.057927
-0.474541 -0.709455 -0.237463
0.972059 -0.707220 0.413460
-0.582081 0.204550 0.260865
-0.603765 0.842461 -0.356600
0.147281 -0.124463 -0.010392
-0.004003 -0.312387 -0.034762
0.160877 0.531681 -0.207578
-0.246529 0.485138 -0.172829
0.653525 -0.506488 0.204460
-0.722839 -0.678347 0.103490
-0.143215 -0.284380 -0.057448
0.379524 0.551207 -0.139660
0.736473 0.390127 0.419903
-0.260857 0.331707 -0.017603
0.135491 0.658857 -0.454675
-0.861720 -0.445739 0.509992
-0.659362 -0.320633 0.317523
-0.861724 -0.915321 -0.130578
0.455762 0.737492 -0.409830
-0.423880 0.164859 0.186293
0.447491 -0.403755 0.054550
-0.867203 -0.861167 -0.056535
0.725096 0.446819 0.314071
0.671060 0.497475 0.193626
-0.822143 0.332357 0.574554
-0.952487 -0.592438 0.502153
-0.887422 0.826432 0.036829
0.707260 0.506316 0.269847
-0.530593 0.315513 0.105283
0.096547 0.301888 -0.093448
-0.147512 0.808715 -0.648565
0.591051 0.856614 -0.390611
-0.022203 0.191275 -0.023457
0.001322 -0.166661 0.052154
0.978184 -0.272532 0.802595
-0.699741 0.638158 0.126221
0.661408 0.289211 0.228210
-0.896501 -0.845468 0.158583
-0.044702 -0.715628 -0.612269
0.772670 0.800372 0.078243
0.330428 0.768996 -0.501661
0.370429 0.903665 -0.614873
-0.473365 -0.144298 0.257461
-0.162850 0.568122 -0.318067
-0.266838 0.656450 -0.377712
0.042886 -0.368606 -0.175889
-0.075544 -0.709325 -0.458066
-0.346203 0.994053 -0.889458
-0.389039 -0.939562 -0.772374
-0.498294 0.194672 0.237264
-0.269906 0.300425 -0.062265
-0.700117 0.363579 0.341525
0.744209 -0.488744 0.320331
0.204239 0.443158 -0.186797
-0.732427 -0.567201 0.190155
0.387719 0.658077 -0.205990
0.695333 -0.561767 0.157694
-0.524929 0.393412 0.102796
-0.698799 0.566827 0.158271
-0.982765 -0.622109 0.601532
-0.905499 -0.524027 0.493632
0.524503 0.558207 -0.015132
0.974373 -0.828002 0.276606
-0.910239 -0.618478 0.356588
0.496142 -0.088938 0.327960
-0.856276 0.860364 0.066023
0.184266 0.123756 -0.021390
0.512151 -0.224644 0.155712
-0.281591 0.956740 -0.824656
-0.978131 -0.072577 0.880179
0.190379 -0.132530 0.086894
0.982489 -0.176711 0.910636
-0.484765 -0.375640 0.174982
-0.621017 -0.348610 0.222913
-0.752148 0.375674 0.418986
0.110511 -0.918329 -0.767754
0.192890 0.363633 -0.111185
0.584542 -0.597591 -0.001821
0.506147 -0.231584 0.257186
0.785083 -0.706922 0.088814
0.611545 0.105502 0.299770
-0.505466 0.458701 -0.027846
0.111755 -0.290689 -0.042839
-0.405176 -0.673167 -0.269547
-0.340429 -0.546989 -0.130222
0.863889 0.636226 0.327818
0.363792 -0.464703 -0.155141
0.949181 0.549405 0.481461
-0.166175 -0.337601 0.057038
0.074875 -0.622535 -0.355597
-0.025769 0.454617 -0.199173
-0.785426 -0.062910 0.626868
-0.526596 -0.937446 -0.673068
0.055273 0.919885 -0.882877
-0.865251 -0.704493 0.339516
0.862924 -0.293186 0.691597
-0.752313 -0.230411 0.474705
-0.604039 -0.021140 0.303075
0.530642 0.570888 -0.070116
-0.806131 -0.987819 -0.341712
0.800556 0.864944 -0.004781
0.451402 0.291979 0.109099
-0.862758 0.901298 -0.127463
0.383694 0.634779 -0.258653
0.263257 0.855676 -0.649661
0.514699 0.202001 0.160083
0.656396 -0.285382 0.369521
0.436701 -0.114172 0.238118
0.172353 0.316065 -0.063258
-0.355073 -0.146136 0.064868
0.394547 0.463346 -0.085465
0.913943 -0.816304 0.085998
0.175044 0.659973 -0.411616
0.328690 -0.591623 -0.226442
-0.125744 0.887895 -0.817378
0.512242 -0.688908 -0.115218
0.995335 -0.741672 0.480229
-0.679221 0.623752 -0.017364
-0.595189 0.637404 -0.140646
0.078876 0.477519 -0.271004
-0.037249 0.921061 -0.768306
0.143140 -0.458921 -0.145573
-0.901852 0.653297 0.467725
-0.191447 -0.295919 -0.050406
0.165957 0.074797 0.011472
0.170383 -0.108800 -0.045183
0.314668 -0.988300 -0.860237
0.440432 0.148924 0.161994
0.283094 0.495012 -0.176628
0.580486 -0.650895 -0.005798
0.249521 0.863312 -0.689364
0.075015 0.060799 0.068480
0.212393 -0.643508 -0.448396
-0.797613 0.291895 0.685390
-0.453687 -0.616155 -0.192478
0.054800 -0.872933 -0.723650
0.745974 0.370630 0.462425
0.358103 -0.778610 -0.502864
-0.819184 -0.787565 0.091755
0.184550 0.479887 -0.152683
-0.556524 -0.889596 -0.517318
0.468033 0.619538 -0.199838
0.654882 0.592297 0.080319
0.186913 -0.717213 -0.485233
0.182725 0.036761 0.101694
-0.322817 -0.806749 -0.511500
-0.107500 0.265142 -0.062265
0.728217 -0.874140 -0.203517
0.446641 0.888962 -0.693098
0.039507 -0.584539 -0.370890
-0.263535 0.365789 -0.049960
-0.899240 -0.743417 0.311733
-0.713985 -0.580807 0.182426
-0.613950 -0.098101 0.440222
-0.253233 0.146192 0.086152
0.888287 0.997727 -0.230820
0.010307 -0.948148 -0.905879
-0.530320 -0.999371 -0.697083
-0.788500 -0.299266 0.509740
-0.323389 -0.267687 0.109488
0.631461 0.767674 -0.246017
-0.233314 0.825165 -0.610656
0.545012 0.761050 -0.245387
0.605410 -0.713642 -0.158437
-0.778358 -0.175790 0.548000
0.217320 0.491770 -0.198414
0.918192 -0.374778 0.743218
-0.195724 0.326476 -0.093271
-0.898112 -0.525714 0.476783
0.846605 -0.353161 0.649547
0.767333 0.720859 0.089126
0.044283 -0.498982 -0.196629
0.104506 0.928648 -0.813499
-0.576518 -0.387481 0.291226
0.638902 -0.952944 -0.444158
-0.002800 -0.490198 -0.276490
-0.932244 -0.657590 0.460168
0.366030 0.013654 0.105917
0.900993 -0.774568 0.189126
0.658301 0.252098 0.299182
-0.445604 0.749798 -0.377940
-0.893350 -0.274962 0.749721
0.880703 -0.663015 0.332748
0.874125 -0.199950 0.669147
0.064831 0.571934 -0.399056
0.284635 0.182975 0.153129
-0.074800 -0.797714 -0.614494
-0.160469 0.074374 -0.020985
-0.761103 -0.063829 0.598293
-0.806494 -0.345775 0.640332
-0.534536 -0.779679 -0.291148
0.673281 0.962224 -0.611920
-0.708335 -0.647913 0.214562
-0.546603 -0.614514 -0.171316
0.097228 -0.708835 -0.503294
-0.569738 0.140386 0.248222
-0.673587 -0.112661 0.404026
0.126632 -0.500886 -0.220630
-0.263813 -0.141153 -0.053878
0.252319 0.347044 -0.061287
0.824411 -0.436599 0.546401
-0.698014 0.830492 -0.244655
0.826867 -0.387308 0.464188
0.804980 -0.603642 0.276644
0.658175 0.909136 -0.410250
0.262572 0.621121 -0.346609
0.240293 -0.313725 -0.100100
0.278425 0.682864 -0.362823
0.380991 0.037628 0.173501
-0.967036 -0.306495 0.787936
0.916185 0.679223 0.331688
0.171208 0.504330 -0.218212
0.562932 -0.404250 0.105225
-0.245436 0.213357 0.023651
-0.975206 -0.261220 0.956193
0.019469 -0.997896 -0.998409
0.014380 0.923631 -0.913569
-0.126021 0.099258 0.025634
-0.320566 0.196865 0.055124
-0.500348 0.199783 0.202927
0.055090 0.101283 0.016543
-0.249444 -0.419904 -0.079546
0.939864 0.943152 -0.004417
-0.654145 0.243337 0.365659
-0.360669 0.341843 0.116403
-0.412079 -0.090414 0.221662
0.086618 -0.424277 -0.130831
-0.001439 -0.871302 -0.752605
0.287481 -0.299540 -0.057366
0.900004 -0.647805 0.446724
-0.429558 0.324177 0.086644
0.385543 0.758008 -0.454791
-0.949920 -0.394490 0.734568
-0.475223 -0.334235 0.065815
-0.072561 0.340729 -0.057965
-0.938010 -0.701457 0.421973
0.235339 0.858875 -0.673200
0.356621 -0.272306 0.050889
0.493463 -0.797601 -0.426695
0.033149 -0.650632 -0.528727
0.207889 0.865492 -0.776505
-0.207869 -0.505761 -0.249717
-0.917494 0.324538 0.691822
-0.800096 -0.687670 0.181733
0.309992 -0.611797 -0.237625
0.991111 0.758476 0.400592
-0.968394 -0.703934 0.512709
0.115167 -0.962499 -0.952285
0.502017 0.002466 0.245239
0.653550 0.725454 -0.101705
0.090410 -0.348018 -0.058333
0.239832 -0.743675 -0.490239
0.393450 0.964462 -0.768705
0.717933 0.353477 0.307739
-0.755421 0.701381 0.033730
0.852364 0.504277 0.527028
-0.947965 0.396485 0.637671
0.672400 -0.230872 0.465969
-0.846519 -0.351320 0.618152
-0.610744 0.433917 0.147348
-0.992212 0.433426 0.755024
-0.109487 0.901177 -0.705334
-0.331282 0.137320 0.161461
-0.668014 -0.410758 0.271549
-0.097820 -0.020942 0.015860
-0.195258 0.227428 -0.045907
0.535322 -0.146540 0.271835
0.786261 0.582266 0.245477
0.305135 0.169226 0.060542
-0.751179 -0.981129 -0.307827
-0.409218 0.139680 0.143169
0.826637 0.267208 0.559527
-0.822531 0.830522 -0.081529
-0.186288 -0.172557 0.011283
0.885009 0.148935 0.723015
0.901330 -0.050005 0.822225
-0.177594 0.063313 -0.053444
0.334794 -0.865392 -0.602304
-0.086509 0.794567 -0.676862
0.506921 0.820825 -0.414469
-0.936837 0.096119 0.851510
-0.711686 0.113111 0.579622
0.228398 -0.884888 -0.722287
-0.534895 0.195901 0.345010
0.332105 -0.141696 0.118253
-0.297554 0.418087 -0.014988
0.773291 -0.905750 -0.232844
0.638519 0.421775 0.247087
-0.014324 -0.426212 -0.120520
0.545790 0.303411 0.251077
-0.457724 0.254252 0.171417
-0.011480 -0.546317 -0.314727
-0.605036 -0.119095 0.343946
0.721772 0.671266 0.127240
0.646135 0.211183 0.440188
0.804299 -0.862523 -0.126692
0.754954 -0.114182 0.519730
0.919193 -0.376457 0.657988
-0.543328 0.283291 0.256436
0.863649 0.229128 0.646916
0.142426 -0.979204 -0.897675
-0.155010 0.215391 0.004919
0.120748 0.469699 -0.233292
-0.314795 0.537460 -0.111574
-0.422894 -0.882048 -0.672283
-0.517371 -0.392683 0.196450
-0.835144 -0.157453 0.688618
-0.006870 -0.640457 -0.513811
0.775523 -0.158532 0.655898
0.260304 -0.857741 -0.619351
0.041951 -0.773565 -0.618054
-0.142814 0.337390 -0.141672
-0.071197 -0.474855 -0.298872
-0.581445 0.422812 0.280081
0.645872 -0.903783 -0.445842
-0.603234 0.125406 0.284985
0.433246 -0.217103 0.153964
0.519970 0.593943 -0.164294
0.149738 0.567903 -0.349170
0.725853 -0.248881 0.514669
-0.417899 0.245428 0.137615
0.763234 -0.544902 0.266290
0.458821 0.160814 0.185571
0.597500 -0.837471 -0.366475
0.329159 -0.130791 0.088140
0.692686 -0.634545 0.039076
0.986198 0.766762 0.355649
-0.159674 -0.110198 -0.017182
0.627831 0.181547 0.324920
0.489160 -0.279236 0.213500
-0.094260 -0.422518 -0.131131
0.853898 -0.594160 0.329497
-0.211148 0.823743 -0.693689
0.130932 0.598932 -0.349440
-0.788115 -0.733478 0.190901
-0.548450 0.493450 0.005919
0.681392 -0.162938 0.429685
-0.206895 -0.969207 -0.892120
-0.211832 0.056735 0.036222
-0.508038 -0.739907 -0.312270
-0.016779 -0.580131 -0.278517
0.611634 0.392082 0.243091
0.790328 -0.485716 0.430989
-0.859771 0.783776 0.154370
0.149641 0.314340 -0.031719
-0.065453 0.664567 -0.358145
0.228564 0.230379 0.065719
-0.105449 0.737699 -0.416840
-0.202710 -0.276631 0.025434
-0.056239 0.098281 -0.039969
0.163998 0.031781 0.068251
0.001966 0.807581 -0.616662
-0.055711 -0.670169 -0.350008
0.635671 0.156122 0.331345
0.491296 0.508862 0.010328
-0.317243 -0.259900 -0.000959
0.601154 0.735163 -0.153451
0.707301 -0.253970 0.425037
-0.693016 -0.653382 0.077335
0.165365 0.168097 -0.071428
-0.429376 -0.158864 0.198787
0.478345 -0.969620 -0.701046
-0.522429 -0.860323 -0.459613
0.342807 -0.609446 -0.156396
-0.489751 0.538660 -0.069423
0.022288 0.784079 -0.597170
0.897293 0.091282 0.801816
-0.237385 -0.788869 -0.556061
0.751477 0.068838 0.671069
0.973889 0.711211 0.445829
0.749702 0.498955 0.284732
-0.668268 -0.417804 0.365567
0.639316 -0.752219 -0.172492
-0.935701 0.801363 0.153095
-0.213396 0.708178 -0.493020
0.741467 -0.892569 -0.309236
0.377504 0.647349 -0.366549
0.065481 -0.805575 -0.662814
-0.224272 -0.873433 -0.716098
0.624594 0.517202 0.181646
0.419117 0.072621 0.201855
-0.063189 -0.170904 0.003976
0.784969 0.807724 -0.080903
-0.540104 0.678607 -0.124549
-0.659217 -0.884753 -0.278659
0.285608 0.232174 0.047395
0.943989 0.544535 0.615722
-0.505487 0.100981 0.182085
-0.500659 0.966011 -0.629796
-0.721002 0.372095 0.470431
0.721127 -0.791714 -0.090639
-0.547205 -0.603404 -0.094381
0.006357 0.652491 -0.433804
0.981745 0.993513 -0.044267
-0.975718 -0.803321 0.288678
0.112972 -0.799341 -0.593785
0.024578 0.526774 -0.262914
0.614895 -0.871291 -0.330856
-0.289437 -0.862880 -0.642243
-0.179317 0.777633 -0.615763
-0.664124 0.600900 0.054946
0.481630 0.763126 -0.378536
0.569418 0.301027 0.224296
-0.726673 -0.354927 0.491817
-0.213086 0.812626 -0.517211
0.785810 -0.402553 0.497279
-0.994585 -0.448978 0.793557
-0.402482 0.772801 -0.503312
0.110085 0.361645 -0.107668
-0.331812 0.791344 -0.555627
-0.455910 -0.688197 -0.184236
-0.079925 0.904594 -0.892207
-0.636954 0.225484 0.374091
0.059250 0.336070 -0.153144
0.413392 0.828121 -0.515368
0.150590 -0.238494 -0.000899
-0.813781 0.439150 0.520486
0.688817 0.280681 0.392653
-0.650044 0.575505 0.129412
0.529624 0.793886 -0.382876
-0.278870 0.360122 -0.039642
0.565523 -0.864721 -0.377816
-0.587454 -0.633719 -0.039893
-0.626676 0.907956 -0.458129
-0.005948 0.937301 -0.892450
-0.934128 0.934827 0.049477
-0.549405 -0.926401 -0.610965
0.448025 -0.235104 0.098236
0.674767 0.519345 0.215670
-0.838429 0.505772 0.425202
0.764155 -0.828182 -0.174605
0.595034 0.218978 0.373656
0.739369 -0.714261 -0.018483
0.396857 -0.013581 0.147340
0.348306 -0.520629 -0.180713
0.050186 -0.893678 -0.811025
0.305574 -0.839961 -0.656390
0.838219 0.821786 0.062994
-0.798956 0.489292 0.404465
-0.368471 0.863648 -0.560934
-0.855090 -0.060020 0.697118
0.889610 -0.173415 0.867985
-0.109469 -0.283185 -0.163443
0.350689 0.232614 -0.010383
0.682240 -0.296881 0.464967
0.982000 0.492546 0.745425
-0.676435 0.602635 0.111465
0.599025 0.751689 -0.184642
0.774846 -0.514398 0.364341
-0.902249 0.054044 0.826121
0.508181 -0.553111 -0.095979
-0.290549 -0.924888 -0.730090
0.297194 0.415651 -0.051407
0.028096 0.097963 0.062614
-0.480516 0.447855 0.118533
-0.729557 -0.824754 -0.131442
-0.766106 0.991052 -0.456645
-0.793354 0.988697 -0.259485
0.275580 -0.070000 0.020137
-0.297178 0.732117 -0.430783
-0.566733 -0.512863 0.045321
0.383770 0.475132 -0.100002
0.373699 0.758452 -0.397383
0.078337 0.629333 -0.377700
0.869916 0.623548 0.393603
-0.229172 -0.073947 0.006267
0.671726 0.639980 0.032938
-0.849721 0.381410 0.538076
0.479662 -0.735097 -0.320246
0.976895 -0.771631 0.352971
0.693196 0.543844 0.276970
0.159329 0.250928 -0.050549
0.253532 0.038752 -0.043503
-0.293421 0.814524 -0.507598
0.358970 0.319181 0.049446
0.540791 -0.207707 0.242762
0.996457 -0.172136 0.941435
-0.015074 0.210489 -0.091425
-0.877392 0.520551 0.595746
0.191716 0.128707 0.022782
-0.761952 0.017522 0.493376
-0.510470 0.453801 0.071031
-0.342440 0.410529 0.009040
0.462060 0.660694 -0.215195
-0.632384 -0.874896 -0.410614
-0.668494 0.509904 0.137328
-0.910071 0.027521 0.781607
0.746480 -0.850614 -0.090229
0.387011 0.358020 0.018016
-0.920107 0.433080 0.575102
-0.943415 0.047254 0.907006
0.117349 0.587598 -0.324449
-0.434931 -0.399504 0.007117
0.193453 -0.596186 -0.369034
-0.130792 -0.298532 -0.125210
0.846625 -0.179899 0.738742
-0.424382 0.391867 0.038916
0.358291 0.691040 -0.325232
-0.891891 0.441836 0.612489
0.911721 -0.652025 0.422483
0.961515 -0.267566 0.829500
0.478149 -0.683173 -0.248390
-0.069575 0.373448 -0.076377
-0.560013 -0.503656 0.130675
0.625033 0.050774 0.326983
0.472708 0.583660 -0.127619
-0.556092 0.341879 0.234322
-0.097569 -0.403252 -0.058988
-0.074402 -0.334267 -0.017100
0.652821 0.306729 0.292305
0.367689 0.098935 0.189160
0.286335 -0.807213 -0.566673
0.299655 0.747983 -0.417465
-0.459060 0.025226 0.249513
-0.256577 -0.053278 -0.000205
-0.908675 -0.603121 0.489434
0.573882 -0.246012 0.319104
-0.134004 -0.334350 -0.094841
-0.123523 -0.458529 -0.207306
-0.509287 0.134813 0.162616
-0.581145 -0.075449 0.366218
0.175644 0.778395 -0.564611
-0.534894 0.882688 -0.539136
-0.871582 -0.561053 0.428583
0.535015 -0.799789 -0.345697
-0.247061 0.570675 -0.292563
-0.239529 0.989723 -0.922043
-0.137363 0.727200 -0.597448
0.630090 -0.952605 -0.442973
-0.358326 -0.497473 -0.118286
0.516072 -0.913315 -0.622782
0.879090 0.641559 0.238216
0.321736 0.162814 0.128463
-0.136638 0.027437 0.045822
0.495579 0.108900 0.244274
-0.084205 -0.495097 -0.194849
-0.171145 0.203277 0.031014
0.050566 -0.938666 -0.868815
-0.364555 0.292023 0.034912
-0.791500 0.468868 0.385778
-0.170296 0.346053 -0.069705
-0.752286 -0.335765 0.523048
-0.179117 0.652526 -0.398852
0.113867 0.431088 -0.099047
0.861422 -0.743405 0.208055
-0.927555 -0.609712 0.507645
0.242917 0.274217 0.104069
-0.084530 -0.421168 -0.087603
-0.959478 -0.761134 0.425203
-0.500904 -0.690062 -0.265162
-0.763030 -0.668766 0.244576
-0.566412 -0.044418 0.314738
-0.450860 0.214771 0.145773
-0.197387 -0.647195 -0.487863
0.058079 0.424993 -0.160932
-0.998020 -0.437975 0.750054
-0.676261 -0.376884 0.335701
-0.812867 -0.553003 0.296863
0.099347 0.570412 -0.225615
-0.341850 0.919628 -0.701275
0.096795 -0.015000 0.123138
-0.556353 -0.915939 -0.580566
-0.951541 -0.478861 0.753582
0.882734 -0.683899 0.221365
-0.783384 0.685525 0.154150
-0.746283 -0.830292 -0.164028
-0.706906 0.932952 -0.393082
0.962553 0.177028 0.869345
0.235320 0.035480 0.008381
0.220580 0.694701 -0.496939
0.973396 -0.944905 0.032534
-0.823122 0.554305 0.376077
0.949002 -0.766792 0.370819
-0.591974 0.681556 -0.099318
0.246143 0.058352 0.115508
-0.159833 -0.877741 -0.818792
-0.232096 0.666490 -0.411989
0.862487 -0.945372 -0.114294
-0.701545 -0.723259 -0.013779
0.994138 0.595649 0.590454
-0.241750 -0.070258 0.100210
0.297550 0.762777 -0.519857
0.935813 0.270859 0.763514
-0.884798 0.247058 0.746177
0.845729 -0.415530 0.542901
0.135623 -0.732639 -0.544512
0.408794 0.922345 -0.711451
-0.701632 -0.790405 -0.185942
0.066775 0.058021 -0.018695
0.347027 -0.454863 -0.031472
-0.087505 -0.471719 -0.202634
-0.690030 0.189172 0.488284
-0.511762 0.595868 -0.067355
0.708786 0.554359 0.164451
-0.931058 0.737603 0.240353
0.417724 -0.414195 -0.043406
0.998780 -0.068497 0.959308
-0.985034 -0.981331 -0.030147
-0.677909 0.493715 0.264856
0.348289 -0.395314 0.013561
-0.880018 0.122987 0.869900
0.179580 -0.661399 -0.443386
0.368000 0.638799 -0.192768
0.176293 0.634544 -0.292004
-0.269631 0.754906 -0.508795
0.394565 -0.908126 -0.645334
0.188589 0.984917 -0.872460
-0.584726 -0.504441 0.084497
0.126271 -0.381133 -0.136137
0.763814 -0.501329 0.300715
0.333667 -0.464935 -0.222833
-0.056417 0.105323 -0.004386
-0.356832 -0.520379 -0.178959
-0.828228 -0.212457 0.587055
-0.510746 0.311213 0.185117
-0.977627 0.672052 0.431534
0.973252 0.385483 0.838926
-0.555035 0.188646 0.296657
0.629752 -0.704543 -0.119803
-0.662710 0.632231 0.036303
-0.432798 -0.925450 -0.728655
-0.163445 -0.471617 -0.158191
-0.351189 -0.885882 -0.652086
0.596702 0.334858 0.257015
0.915387 -0.263258 0.793723
0.750589 0.304097 0.438788
-0.692844 -0.305938 0.310482
0.553377 -0.088519 0.346257
-0.704106 -0.084078 0.523132
0.826762 -0.908839 -0.169220
0.035757 -0.139547 0.002261
-0.327238 0.282129 0.090387
-0.685949 0.092104 0.518978
-0.976382 -0.849432 0.203558
-0.504106 0.336112 0.066714
0.828040 -0.382274 0.473656
0.594524 -0.971130 -0.605221
0.939587 -0.688809 0.481483
-0.798477 -0.004881 0.601119
0.184357 -0.379197 -0.139619
-0.485699 0.388766 0.053919
0.085883 -0.518693 -0.288253
-0.359090 0.545592 -0.169287
-0.433069 -0.427046 -0.058822
0.147691 0.241727 0.017598
-0.633364 0.598433 0.035787
-0.061733 -0.228888 0.075378
0.301625 -0.906390 -0.789244
-0.743636 0.070891 0.627462
0.861189 0.990818 -0.170508
0.011449 0.937984 -0.900267
0.639056 -0.557956 0.077325
0.307811 0.511393 -0.212840
0.420002 -0.310096 0.034751
0.432262 -0.679455 -0.274839
0.750200 0.331829 0.453724
0.227211 0.001737 -0.028496
-0.443566 0.078461 0.305270
-0.800981 0.654785 0.199850
0.212501 -0.326913 -0.058434
-0.867294 0.334190 0.609205
-0.517413 -0.267617 0.182747
-0.878586 -0.914552 -0.082387
0.097775 -0.243970 -0.050108
-0.679324 0.900069 -0.349373
0.220815 -0.033475 0.087882
0.581730 -0.783539 -0.264162
0.643761 0.375654 0.308527
-0.380913 0.926759 -0.714278
0.097909 0.815890 -0.644529
0.126022 0.143922 -0.016897
-0.054226 -0.247439 -0.008130
0.310228 0.161355 0.086337
-0.579826 0.631862 -0.070956
0.958486 0.722475 0.387331
-0.803840 0.637688 0.234052
