ply
format ascii 1.0
element vertex 3000
property float x
property float y
property float z
end_header
0.547912 0.658442 -0.144793
-0.122243 0.188192 -0.054846
0.717196 -0.510291 0.315396
0.394736 0.491350 -0.086342
-0.811645 -0.831038 0.010063
0.951245 0.548836 0.630455
0.522279 0.179970 0.224759
0.572129 -0.778499 -0.294118
-0.743773 -0.840989 -0.110675
-0.099228 0.501673 -0.197954
-0.258404 -0.414128 -0.161037
0.853530 0.778604 0.138783
0.287730 0.524146 -0.195577
0.645523 0.396380 0.228583
-0.113172 -0.442788 -0.175401
-0.545523 0.417889 0.082476
0.109170 0.896295 -0.805421
-0.872365 -0.816880 0.069774
0.655262 -0.347675 0.293497
0.263329 -0.530655 -0.214398
0.516176 -0.213500 0.190388
-0.290948 0.484665 -0.103054
0.941396 -0.051515 0.898371
0.786242 0.141461 0.652002
0.556767 -0.371690 0.167033
-0.610723 -0.717421 -0.158175
-0.066558 -0.466133 -0.160097
-0.912392 0.719361 0.297639
-0.691421 0.204834 0.430757
0.366098 -0.244023 0.096082
0.489524 0.579812 -0.133680
0.935019 -0.871085 0.136811
-0.348349 -0.492218 -0.103431
-0.259081 -0.539794 -0.186175
-0.060888 0.970729 -0.911906
-0.621057 0.412197 0.254805
-0.740157 0.235572 0.489026
-0.048590 -0.990030 -1.003679
-0.546181 -0.631380 -0.037027
0.339628 0.271083 -0.003939
-0.125696 -0.240561 -0.084866
0.665356 0.848561 -0.260402
0.400530 0.529448 -0.071142
-0.375267 -0.105232 0.135438
0.664520 0.499030 0.222535
0.609529 0.950809 -0.592386
-0.225043 -0.078038 0.029568
-0.423344 0.285052 0.041747
0.364991 0.837329 -0.544490
-0.720495 -0.502651 0.220038
-0.600184 0.773116 -0.275822
-0.985275 -0.804911 0.338307
0.573849 0.296896 0.273010
0.329702 0.565676 -0.216056
0.410331 0.229212 0.132938
0.561458 -0.008930 0.331289
-0.082168 0.234694 -0.054793
0.137482 -0.696673 -0.499292
-0.720406 -0.568859 0.212331
-0.770940 -0.460201 0.400956
0.336806 0.195559 0.102016
-0.057808 -0.116198 -0.000798
0.130472 -0.511048 -0.279202
0.529998 0.765619 -0.284564
0.269437 -0.252156 0.008972
0.107159 -0.107937 -0.014649
0.118414 -0.180598 -0.027433
-0.392100 -0.636114 -0.271607
-0.938364 0.463254 0.692589
-0.126565 -0.103083 -0.037151
-0.570831 -0.967486 -0.639986
-0.182943 0.928027 -0.837630
0.706806 0.631527 0.149161
-0.532121 0.447119 0.114866
-0.883395 0.738184 0.186245
-0.437232 0.813614 -0.430256
-0.412812 -0.325021 0.105258
0.323833 0.221917 0.020400
0.114064 0.217616 -0.109990
0.567796 -0.465401 0.103628
0.328627 -0.556095 -0.167574
-0.187226 -0.772186 -0.513479
0.628041 0.318628 0.266786
-0.666054 0.561838 0.180526
-0.954576 0.521906 0.571991
-0.819904 -0.367449 0.526183
0.444719 -0.589480 -0.162229
-0.076246 -0.092772 0.031777
-0.677456 0.093627 0.489130
0.002090 0.838174 -0.673905
-0.695376 0.749646 -0.118939
0.392641 0.832117 -0.512373
-0.107687 0.700525 -0.463867
-0.237958 0.929162 -0.856856
-0.396976 -0.069000 0.090818
0.260565 -0.905053 -0.720087
-0.276375 -0.832876 -0.622702
-0.824700 -0.219448 0.593418
-0.763988 -0.484626 0.342571
0.923795 -0.660119 0.428562
0.817161 0.906408 -0.156307
0.399414 -0.609161 -0.258105
-0.468260 0.918759 -0.568283
0.938353 0.521678 0.638485
0.557502 0.281891 0.221284
0.433780 0.352038 0.055382
-0.101277 -0.337051 -0.092562
-0.455517 0.292854 0.087843
-0.807218 -0.626616 0.268634
0.805205 0.875411 -0.157911
-0.088447 -0.396413 -0.151437
-0.595273 -0.489627 0.079559
-0.388087 0.422326 -0.061290
0.158439 0.312897 -0.023430
-0.646454 -0.097402 0.410193
0.713229 0.264892 0.444749
0.517039 -0.681014 -0.256792
0.438926 0.346657 0.054575
-0.135814 -0.458779 -0.178196
0.254618 -0.454328 -0.135760
0.168196 -0.675640 -0.492821
0.299693 -0.335246 -0.016360
-0.831111 -0.337498 0.587838
-0.168385 -0.091642 0.058468
-0.916772 -0.619161 0.437453
-0.012018 -0.613985 -0.444095
-0.340278 0.083477 0.078917
-0.710952 -0.742245 -0.078388
-0.793194 0.377794 0.508530
0.175289 0.887894 -0.839132
-0.658814 -0.146409 0.399150
0.850240 0.802211 0.122140
0.162122 -0.803367 -0.618898
-0.306260 -0.914085 -0.714866
0.181831 0.442738 -0.212208
-0.954392 0.522043 0.590276
0.917118 0.686116 0.413468
-0.035393 -0.886365 -0.781353
0.565470 0.553814 0.016145
-0.834540 -0.246923 0.601942
-0.026683 -0.393325 -0.150969
-0.018586 -0.653952 -0.461686
0.875653 0.992032 -0.181752
0.143456 -0.872673 -0.659143
-0.053021 0.654016 -0.410407
-0.466049 0.278989 0.120318
-0.336862 0.470161 -0.183585
0.041345 0.423434 -0.228121
-0.122177 0.716869 -0.452328
-0.956776 -0.632416 0.484594
0.652584 -0.998351 -0.581964
0.792322 0.197057 0.608602
-0.719502 -0.292283 0.476722
0.108072 -0.752425 -0.560452
-0.782849 -0.627723 0.206676
0.344480 -0.336501 0.007582
-0.437532 -0.859533 -0.566192
0.318845 -0.886174 -0.700856
0.453989 0.832053 -0.473849
0.537295 -0.375795 0.153023
-0.784518 0.964461 -0.250769
0.832024 0.928734 -0.157118
-0.539572 -0.714857 -0.185349
-0.925175 0.429849 0.639040
0.109705 0.201610 -0.012857
-0.258155 0.381294 -0.100430
0.659580 -0.807618 -0.205338
0.616503 -0.622880 0.012752
-0.365722 -0.846723 -0.581690
0.905799 0.208268 0.849315
-0.418164 0.973182 -0.729383
0.030114 0.343969 -0.082090
-0.488070 0.421523 0.083459
0.872087 0.969170 -0.125854
-0.670784 0.356023 0.280090
-0.910179 -0.919637 0.023802
-0.129806 0.734011 -0.551660
0.984751 -0.270643 0.879557
0.783355 -0.991273 -0.352136
0.497216 0.014468 0.284011
0.781585 0.874030 -0.187661
0.786893 -0.485339 0.368271
0.037717 -0.016974 0.004060
-0.368142 -0.652446 -0.295749
0.544025 -0.884615 -0.460959
0.323323 -0.838910 -0.496155
-0.252685 0.454022 -0.129707
-0.811067 0.728149 0.105572
0.493579 -0.713402 -0.304218
-0.475079 -0.423363 0.036706
0.873626 -0.609941 0.362987
-0.518059 -0.946288 -0.613050
-0.754484 0.106863 0.571387
0.662225 0.399844 0.264772
-0.693431 0.295755 0.452925
-0.641463 -0.223893 0.339284
0.198766 0.110020 0.023820
0.749124 -0.811801 -0.078660
-0.607131 -0.691393 -0.082654
-0.379353 0.863589 -0.563551
0.554810 0.523015 0.047123
0.943653 0.845478 0.207175
0.001482 0.833361 -0.714441
-0.712205 0.298785 0.445506
-0.972127 0.856477 0.238620
-0.540688 -0.166592 0.309977
-0.736356 -0.992768 -0.493421
0.355317 -0.874858 -0.666341
-0.756335 -0.781025 -0.013264
0.012660 -0.809293 -0.734336
0.388525 -0.296595 0.077743
0.162233 0.402542 -0.103926
-0.600449 0.581298 0.005340
0.608249 0.180427 0.324507
0.430814 -0.707128 -0.346653
0.477968 0.495803 -0.033014
-0.737885 -0.290396 0.445367
-0.752492 -0.974013 -0.402942
0.855125 -0.438823 0.516543
-0.204844 -0.338799 -0.080954
-0.398103 -0.451509 -0.053868
-0.022832 0.623740 -0.332307
0.325728 0.519853 -0.175973
0.911247 0.391104 0.687732
-0.427108 -0.721990 -0.356155
0.849617 0.615668 0.325114
-0.950281 0.354352 0.726338
0.110396 -0.610325 -0.407450
0.267950 0.296188 -0.052140
-0.788205 -0.032977 0.625691
-0.719321 -0.121300 0.534994
-0.161771 -0.775754 -0.629224
0.932464 0.036609 0.851676
0.192085 -0.800136 -0.644328
0.866046 -0.671493 0.291205
0.608722 -0.734907 -0.137273
-0.065237 0.908217 -0.834008
0.569527 -0.430271 0.137803
-0.964326 -0.289591 0.889719
-0.781712 -0.355839 0.498189
0.658857 0.796501 -0.223124
0.593634 0.125932 0.341310
-0.534719 0.838320 -0.441683
0.061539 -0.400150 -0.143719
0.212032 -0.770331 -0.532992
0.735478 0.112437 0.487271
0.206214 -0.308926 -0.047656
-0.174857 0.603814 -0.337543
-0.251632 0.758847 -0.496190
-0.148236 -0.054853 0.043905
0.303862 0.942718 -0.782062
0.734981 0.106026 0.519860
-0.092206 -0.458159 -0.173408
-0.504321 -0.022049 0.227662
-0.526675 -0.925379 -0.618556
0.492029 0.608002 -0.223433
0.633138 -0.797130 -0.236657
-0.789444 -0.382503 0.452267
-0.866882 0.130633 0.746353
0.188867 -0.914050 -0.858953
-0.707654 -0.841366 -0.226539
0.649328 0.392233 0.281889
-0.379331 -0.856446 -0.620503
-0.712256 -0.045834 0.517486
0.841941 -0.322609 0.588077
-0.668937 -0.543841 0.150729
-0.430560 -0.622442 -0.184198
-0.692773 0.526823 0.230977
-0.769020 0.903084 -0.221395
-0.957704 -0.719640 0.374894
-0.889209 0.919362 -0.068275
-0.650717 0.189525 0.406622
-0.893236 0.283321 0.686962
0.182288 0.419853 -0.148390
0.361429 0.408238 -0.047604
-0.212739 0.639622 -0.366960
-0.364018 -0.033063 0.101137
0.009052 0.066717 -0.059928
0.750010 -0.352346 0.453989
0.702263 -0.789485 -0.101189
-0.913050 0.329280 0.671469
-0.637003 -0.932780 -0.453238
-0.526510 -0.448730 0.108350
-0.501225 -0.811540 -0.389494
0.142465 -0.618546 -0.374803
-0.167475 0.277462 -0.077242
-0.901492 0.256953 0.749092
-0.252772 -0.157890 0.046398
0.047506 -0.819656 -0.666705
-0.796656 -0.133252 0.611501
0.666917 -0.294510 0.325563
-0.896076 0.440918 0.621224
0.849684 0.158053 0.711107
-0.801774 -0.016868 0.648581
0.687150 -0.026036 0.474827
0.805306 0.932594 -0.170835
0.959141 0.512588 0.638474
0.604052 -0.006041 0.403285
0.558955 -0.041555 0.288683
0.284967 -0.947042 -0.782414
0.557993 0.885019 -0.434901
-0.730896 -0.361652 0.394625
0.072136 -0.488122 -0.183230
0.028446 0.998818 -0.982757
0.715144 0.437379 0.293812
-0.074401 -0.905272 -0.825207
-0.229821 -0.876229 -0.680977
0.279127 -0.948997 -0.794991
-0.467073 0.199238 0.146721
-0.720463 -0.856871 -0.219338
-0.044245 0.866777 -0.743239
-0.166221 0.873813 -0.751148
-0.534860 0.092108 0.348325
-0.264976 0.233278 0.022804
-0.267215 -0.416211 -0.103682
-0.345009 -0.872055 -0.605723
-0.241072 0.474921 -0.178391
0.371487 -0.796428 -0.466072
-0.406247 -0.828885 -0.572045
0.897716 -0.377554 0.649737
0.832696 -0.975069 -0.225904
-0.038179 -0.131929 0.031158
-0.343278 0.415362 -0.077885
0.070870 0.602698 -0.384917
0.697121 0.208615 0.459481
0.305175 0.693748 -0.406846
0.608784 -0.186996 0.327593
0.065445 0.697544 -0.455993
0.265835 0.012947 0.054178
-0.423689 -0.553928 -0.186287
0.469786 0.888291 -0.607395
-0.595191 -0.450058 0.151998
0.389596 -0.947597 -0.802058
0.721438 -0.514652 0.246692
-0.735794 -0.266625 0.428542
0.228759 -0.297301 0.013141
-0.809808 0.049335 0.718310
0.451431 0.766254 -0.415101
-0.831014 -0.415324 0.525793
0.871880 0.041541 0.729636
-0.725184 -0.319722 0.414390
0.917760 0.643546 0.482237
0.601768 -0.684797 -0.120822
0.187364 -0.792979 -0.602292
0.565248 0.005991 0.291194
0.590230 0.343775 0.264575
0.892054 0.591050 0.348522
-0.493233 0.179250 0.197865
0.180152 0.547700 -0.268897
-0.809902 -0.214580 0.590064
0.232331 -0.934265 -0.792966
-0.657417 -0.767801 -0.121261
0.129901 -0.922555 -0.876594
0.144861 -0.342113 -0.033252
-0.068030 -0.009017 -0.038151
0.045264 -0.287365 -0.041871
0.527847 0.121199 0.268428
0.598489 -0.038782 0.341575
-0.015694 0.355886 -0.138689
0.199187 0.333924 -0.072835
0.862472 -0.363872 0.617709
-0.760533 -0.307571 0.456206
-0.765793 0.170296 0.550420
-0.824582 0.192865 0.619618
0.315727 -0.370600 -0.074113
-0.162783 -0.339364 -0.113189
0.548643 0.388090 0.115896
0.342463 0.294822 0.017756
-0.332724 -0.729898 -0.409072
0.796733 -0.117916 0.624501
0.525064 0.785412 -0.281949
-0.458930 -0.927389 -0.715746
-0.271616 0.710328 -0.416710
-0.371120 -0.673644 -0.315873
-0.684777 0.014497 0.493179
-0.704433 -0.151327 0.494820
0.872255 -0.979741 -0.204014
-0.124192 0.830794 -0.669615
-0.233360 -0.090150 0.024008
0.459371 0.908537 -0.596006
0.105986 -0.426512 -0.227046
0.872280 0.732552 0.247545
0.560603 0.844779 -0.400071
-0.041261 0.113665 -0.025829
-0.247281 -0.594644 -0.299430
0.973263 0.370495 0.805199
0.435520 0.097956 0.219002
0.902389 0.889059 0.120885
-0.763043 -0.121456 0.604079
0.701067 -0.462973 0.260192
0.274148 -0.723426 -0.429295
-0.756157 0.397267 0.434152
0.176516 0.948219 -0.895717
0.372193 -0.943312 -0.789135
-0.975395 0.480891 0.718240
-0.091364 0.853861 -0.696500
0.650799 -0.850437 -0.348058
-0.409282 -0.779660 -0.461985
-0.082904 0.383914 -0.123338
-0.115372 0.295927 -0.073010
-0.396145 -0.862345 -0.544220
0.836884 0.668845 0.210679
0.562588 0.046848 0.384876
-0.778823 0.814395 -0.102813
0.994069 0.755982 0.355790
0.758400 0.625016 0.182759
-0.432183 0.031798 0.151737
0.673793 -0.496579 0.206244
-0.787161 0.011951 0.617268
0.998209 -0.798377 0.353143
0.331369 0.317692 -0.016395
0.300250 -0.732046 -0.432761
-0.819119 0.022346 0.660936
0.794067 -0.891236 -0.130650
-0.942001 -0.400975 0.721174
-0.518344 -0.535839 -0.047383
-0.713956 0.240063 0.401472
0.553536 0.573573 -0.027748
-0.603592 -0.885394 -0.457676
0.821276 0.700567 0.143202
0.312538 0.721535 -0.407110
-0.927675 -0.315462 0.707734
-0.989140 0.318008 0.919635
-0.896684 -0.194774 0.770897
0.211850 -0.691618 -0.434770
0.602964 0.057325 0.329236
-0.522894 -0.827281 -0.388044
0.698818 0.756944 -0.084706
-0.885536 0.848580 0.043504
0.601928 0.643226 -0.045428
0.855591 0.125056 0.665913
0.544217 0.115197 0.233842
0.396242 0.969215 -0.815975
0.675960 -0.504197 0.213194
-0.919697 -0.848103 0.126466
-0.596436 0.123882 0.371858
-0.750153 -0.342429 0.417872
0.009062 -0.355322 -0.108932
0.490376 -0.985829 -0.734807
0.260024 0.192479 0.002273
0.702262 -0.471933 0.282011
-0.689574 -0.624283 0.083803
0.469242 -0.919136 -0.643497
-0.613917 -0.271277 0.304563
-0.458483 0.757938 -0.368149
0.419809 -0.326658 0.064924
0.960410 0.358148 0.781738
0.223087 0.513094 -0.252646
-0.890999 -0.343798 0.677926
0.232618 0.643281 -0.383781
-0.915299 0.383759 0.659891
0.768291 0.118484 0.569012
0.419157 -0.998015 -0.798321
-0.653744 -0.929818 -0.431612
-0.816558 0.981732 -0.312964
-0.632934 0.564568 0.064728
0.960054 0.875131 0.174925
-0.082879 0.804606 -0.712425
0.568162 -0.959114 -0.573171
0.272817 0.583695 -0.322491
0.144826 -0.097709 -0.031035
-0.709740 0.579116 0.152926
0.892049 -0.986568 -0.112462
-0.397315 -0.423601 0.028743
0.156034 0.502648 -0.207113
0.399552 0.586042 -0.173107
0.298466 0.239429 -0.024113
0.881189 -0.397488 0.623200
-0.703122 -0.379275 0.334055
0.016705 0.933528 -0.895695
-0.191931 -0.121576 0.026701
-0.051663 -0.105749 -0.022647
-0.761565 0.104666 0.595105
-0.731811 -0.180995 0.444709
-0.443849 0.105343 0.188155
-0.390591 -0.135329 0.107874
-0.144194 0.653430 -0.418468
0.221975 0.818102 -0.610879
0.269258 0.864220 -0.707896
-0.176378 0.128592 0.019500
-0.182434 -0.115703 0.013525
-0.564743 0.410480 0.130623
0.176612 0.676647 -0.440777
-0.365918 0.125964 0.113393
-0.927880 0.399962 0.677957
-0.163200 0.499459 -0.222612
-0.051735 0.352788 -0.130128
-0.548814 0.492267 0.040532
0.144916 -0.582709 -0.270854
0.131544 -0.003251 0.029750
0.404004 0.176537 0.120573
0.295897 -0.995044 -0.898182
0.304866 0.711925 -0.444698
-0.367572 0.220049 0.073584
0.574864 -0.741727 -0.229293
0.098289 0.632714 -0.428070
-0.137164 0.434114 -0.158020
0.252025 0.516599 -0.218526
-0.278685 -0.215915 0.020382
0.025478 0.708405 -0.518250
0.473411 -0.171945 0.283326
0.772806 0.141018 0.557464
0.842114 -0.998715 -0.350336
0.007266 0.289746 -0.131898
0.040550 0.436352 -0.165979
0.599741 0.134219 0.381768
-0.371099 -0.006882 0.117213
0.674765 0.619873 0.109433
-0.011717 0.362745 -0.109199
-0.768287 -0.443852 0.387575
-0.855882 0.918147 -0.118273
0.683986 0.414534 0.301425
-0.888864 0.975878 -0.135934
-0.438777 0.942523 -0.683905
-0.331740 0.837819 -0.612194
-0.654011 0.510743 0.161646
-0.372213 0.218859 0.150081
0.485385 -0.655659 -0.186753
-0.970634 0.086703 0.960693
0.654347 0.530753 0.162668
0.713096 0.041714 0.514967
-0.255477 0.736478 -0.473871
-0.692774 -0.780688 -0.102616
0.201681 -0.238119 0.005534
-0.760655 0.011929 0.586370
-0.270161 -0.135349 0.033855
0.916858 -0.782827 0.239378
0.990929 -0.692943 0.499759
0.544210 0.675235 -0.169025
-0.378077 -0.031231 0.222330
0.375330 -0.902555 -0.719905
0.410813 -0.967017 -0.737600
-0.224317 -0.053049 0.021624
0.281777 -0.671243 -0.367232
-0.978545 0.410252 0.866301
-0.581885 0.590647 -0.039145
0.050177 -0.543407 -0.314489
-0.672497 0.184354 0.417741
-0.668186 -0.691111 -0.056578
0.672609 -0.392835 0.324605
0.978266 0.777591 0.336321
0.111939 0.088196 0.024372
0.678139 0.771777 -0.175643
0.980643 -0.549504 0.605501
-0.716808 -0.339951 0.391378
-0.103509 -0.058096 -0.039716
-0.214855 -0.039840 0.090123
-0.839901 0.995296 -0.331074
0.510660 -0.771109 -0.364966
-0.132442 0.703930 -0.465568
-0.061346 0.727364 -0.542886
-0.698654 0.106397 0.431245
-0.638147 -0.311926 0.371133
0.814207 0.038452 0.631406
-0.910702 -0.415065 0.651211
-0.534295 0.598215 -0.078665
-0.415881 -0.003442 0.194255
-0.019605 0.851684 -0.711111
0.172890 0.245383 -0.055126
-0.013420 0.028639 -0.010415
-0.831769 0.422139 0.506831
-0.512665 0.007866 0.285232
0.687177 0.809013 -0.217339
0.275177 -0.631108 -0.262031
0.298298 0.946697 -0.830030
0.340407 0.624381 -0.274238
0.525806 0.721467 -0.278842
-0.883783 -0.034184 0.740959
-0.266783 0.674403 -0.409879
0.079055 -0.386452 -0.172211
-0.323087 0.523896 -0.182510
0.688958 -0.719100 -0.071811
-0.034855 -0.385896 -0.126834
0.537255 -0.108535 0.253374
0.704031 -0.355361 0.342564
0.009583 -0.225966 -0.062758
0.819104 0.640209 0.290849
0.174248 -0.486648 -0.200018
0.700549 0.490562 0.247126
-0.318818 -0.852576 -0.668232
-0.002366 0.531478 -0.316745
0.062822 0.584046 -0.375516
-0.790041 -0.196602 0.624717
-0.202895 0.444956 -0.140902
0.834675 0.830277 -0.018525
0.261664 0.601426 -0.310176
-0.644987 -0.219107 0.343241
-0.322289 -0.031573 0.076297
-0.616794 0.558715 0.082081
-0.950354 -0.414811 0.722478
0.854921 0.607765 0.423946
-0.103585 -0.343858 -0.069997
-0.384930 0.611981 -0.187066
0.196954 -0.826399 -0.624004
-0.985371 -0.911205 0.127981
-0.443956 0.995351 -0.775693
0.406067 0.738914 -0.391569
0.267540 0.765695 -0.465803
0.963612 0.902560 0.126062
0.240715 -0.123367 0.050595
-0.044988 -0.426329 -0.175920
0.522865 -0.739950 -0.221930
0.806656 0.002418 0.607675
0.441392 -0.559903 -0.063516
0.926422 0.871102 0.093856
0.564010 -0.991994 -0.708128
0.733603 -0.713607 0.006373
-0.771792 -0.507048 0.289040
0.464827 -0.602087 -0.126834
-0.119823 -0.548443 -0.317581
0.106208 0.312095 -0.081063
0.308205 -0.344976 0.010008
0.939630 0.230049 0.809822
0.969156 0.780516 0.322016
-0.423544 0.205114 0.098217
0.467507 0.389066 0.055540
0.499967 -0.268993 0.254830
-0.307014 -0.680523 -0.345516
-0.752260 -0.358832 0.429194
-0.918106 0.928565 -0.037665
0.554686 0.243623 0.247046
-0.020601 -0.444978 -0.193679
0.971080 -0.098169 0.920788
-0.070053 0.671026 -0.429467
0.955834 0.336887 0.771522
-0.176848 0.121306 -0.012191
0.587364 0.770326 -0.237299
-0.830361 0.344879 0.535499
0.110923 0.285459 -0.047313
0.604120 -0.620464 -0.020443
0.849403 -0.787223 0.046929
0.645166 0.930284 -0.445904
-0.926059 0.197717 0.767938
-0.254595 -0.168633 0.057182
-0.902603 0.178042 0.775532
-0.781435 -0.876376 -0.101861
0.350611 0.644255 -0.259996
0.426516 -0.566709 -0.171064
0.547441 0.609092 -0.131923
0.730913 0.068757 0.506853
0.478863 -0.446856 -0.007008
0.601743 -0.939580 -0.465944
-0.902073 0.631667 0.414423
-0.530930 -0.647080 -0.108823
0.243796 -0.896390 -0.752629
0.716251 0.511755 0.245731
-0.991000 -0.299914 0.891154
0.029259 -0.221332 -0.014936
0.354575 -0.505865 -0.120827
-0.940785 0.718357 0.337320
-0.197289 -0.405341 -0.076703
0.791270 -0.579615 0.281370
0.343226 -0.381501 -0.041404
-0.524683 -0.593701 -0.162073
0.705562 -0.364690 0.383852
-0.303937 -0.834128 -0.600361
0.706689 -0.682940 0.036001
-0.402113 -0.165894 0.122089
0.180641 0.758934 -0.560606
-0.206120 -0.885419 -0.752568
-0.450350 -0.574651 -0.113513
0.773115 0.816691 -0.050104
-0.624813 0.780029 -0.224986
-0.830377 0.358902 0.589183
-0.316146 -0.519053 -0.171837
0.435278 -0.160379 0.148619
0.614863 -0.577558 0.050436
0.997487 -0.742823 0.402412
-0.407276 -0.240003 0.115254
-0.184116 0.151643 -0.035362
-0.726357 -0.280135 0.418288
0.149744 0.221649 -0.087266
0.995160 -0.407491 0.819042
0.401762 -0.308299 0.114653
0.190426 0.581347 -0.305215
-0.215262 0.756629 -0.506843
0.830598 -0.355932 0.633774
-0.006167 0.143032 -0.008298
-0.731266 -0.443675 0.314946
-0.269243 -0.893331 -0.744375
-0.865667 0.475714 0.523094
-0.596042 -0.657993 -0.096676
-0.964662 -0.148575 0.891756
-0.093440 -0.025909 0.037617
0.269081 -0.631057 -0.295044
-0.313415 -0.810889 -0.608719
-0.159236 -0.303974 -0.091589
0.918419 0.904572 0.011322
0.503926 0.230271 0.218890
0.081713 -0.237180 -0.015285
-0.430918 -0.922178 -0.583663
0.793994 0.200547 0.576237
-0.529806 -0.815485 -0.396793
-0.349315 0.085088 0.132438
0.818130 0.503901 0.394953
0.059084 -0.152829 -0.024095
0.484636 -0.401177 0.061478
0.181490 -0.905232 -0.865155
0.306878 -0.950444 -0.805473
-0.401233 -0.139947 0.135932
-0.517256 0.766691 -0.282124
-0.355015 -0.511874 -0.135815
-0.689117 0.148111 0.415303
0.748629 0.368612 0.416827
-0.433506 -0.878340 -0.646287
0.122979 -0.693799 -0.502561
0.583949 -0.337446 0.246191
0.567648 0.340186 0.199078
-0.123227 -0.121930 0.027993
-0.047485 0.468390 -0.276141
0.989403 0.735196 0.431133
0.349195 0.516745 -0.159353
0.629277 0.984494 -0.544564
0.805108 0.508722 0.409583
0.575180 0.704358 -0.146022
-0.629641 0.664733 0.000821
0.124341 0.460532 -0.207671
-0.796212 0.603604 0.309668
0.305844 0.869366 -0.693583
0.910699 -0.049585 0.794487
0.025464 0.276574 -0.053262
-0.134055 0.029879 -0.028064
-0.928315 0.702074 0.386043
0.919549 -0.137281 0.829764
-0.793995 0.639454 0.253682
-0.917842 0.598709 0.482198
-0.507867 0.923772 -0.593745
-0.868939 -0.502159 0.518170
-0.089764 0.419239 -0.187583
0.032176 0.513839 -0.284181
-0.374860 0.872557 -0.606603
-0.898079 0.813805 0.143389
-0.776799 0.147052 0.569573
-0.230991 0.158306 0.025813
-0.878943 -0.665418 0.377597
0.396379 0.949925 -0.758532
-0.585959 -0.489965 0.089121
-0.395857 0.449472 -0.096546
-0.211748 0.591590 -0.306412
-0.166781 -0.117569 0.033700
-0.996679 -0.577613 0.684818
-0.775859 -0.622079 0.218222
0.725529 0.712992 0.046710
-0.997534 0.021513 1.016548
0.016335 -0.819726 -0.638295
-0.020996 0.434039 -0.158420
-0.333812 -0.499658 -0.091128
-0.137346 0.752789 -0.552919
0.561162 -0.380856 0.130040
0.682407 -0.599458 0.126241
-0.479303 -0.830283 -0.436222
-0.355019 0.023062 0.172607
-0.515034 -0.098525 0.293992
-0.040273 0.502624 -0.192645
0.366517 -0.070795 0.147918
-0.543494 -0.312368 0.204677
-0.338529 -0.476690 -0.154181
0.860769 -0.443707 0.553291
-0.902861 0.855696 0.066368
-0.078461 -0.669843 -0.436188
0.423116 0.976353 -0.772602
-0.699092 -0.346161 0.383054
-0.905252 -0.823220 0.138871
-0.723589 -0.502619 0.299006
0.837646 -0.883171 -0.160035
-0.981480 0.580060 0.632535
-0.623356 0.025106 0.424017
-0.937433 -0.326027 0.828589
-0.778741 0.324099 0.523356
0.240299 0.261293 0.040016
-0.516722 0.879744 -0.501880
0.138424 0.922521 -0.831798
0.180391 0.361368 -0.082163
0.698871 0.635632 0.084297
-0.990517 0.584850 0.615604
0.706739 -0.017393 0.483720
0.238238 0.408917 -0.143820
-0.674513 -0.843482 -0.240643
0.545875 0.516042 0.032022
0.710983 0.923666 -0.358471
-0.491473 -0.830050 -0.464439
0.837587 0.672232 0.264809
-0.091085 0.865960 -0.718177
0.206849 -0.547622 -0.291019
0.969299 0.049622 0.898448
-0.276928 0.855716 -0.626926
0.626319 0.920452 -0.496211
-0.363202 -0.744235 -0.405546
0.598427 -0.301992 0.315423
0.201468 0.396289 -0.067879
-0.567289 -0.556883 0.033834
-0.171948 -0.350459 -0.071991
-0.364729 -0.953418 -0.708421
-0.843783 -0.692957 0.161749
-0.940330 0.124659 0.854751
-0.307043 0.306180 0.025984
-0.961932 0.297824 0.826495
-0.669024 0.556721 0.174849
0.450367 -0.169437 0.172941
0.416182 -0.453019 -0.028066
0.477161 -0.968839 -0.719206
-0.365694 -0.586740 -0.226208
0.780039 -0.375224 0.451254
0.187661 -0.643586 -0.370852
-0.747947 -0.959711 -0.384857
-0.712563 -0.685105 0.066973
0.386191 0.332199 0.058384
-0.654112 0.259171 0.393676
0.014585 0.871367 -0.792936
0.983549 0.596337 0.560767
-0.991985 0.135512 0.965545
-0.966840 -0.724887 0.496283
0.986169 0.128144 0.994095
0.169278 -0.876810 -0.756774
-0.746180 -0.138230 0.550412
0.794604 -0.219483 0.605051
0.760761 -0.144372 0.516862
0.072401 -0.440348 -0.147576
0.243584 0.371661 -0.083821
-0.453626 0.681889 -0.261917
-0.898961 0.537034 0.520438
0.189135 0.255504 0.004826
-0.410490 0.076690 0.139965
0.327242 -0.937832 -0.823650
0.672490 0.445868 0.263134
-0.963679 0.089966 0.859273
0.191428 -0.458518 -0.182627
-0.537439 -0.344316 0.205893
0.747777 0.871214 -0.182470
-0.492671 0.248724 0.212132
0.221540 -0.048175 0.065370
0.107082 0.241843 0.025288
-0.207667 -0.172515 -0.004283
0.355242 -0.059635 0.134584
0.451539 -0.419381 0.014863
0.133876 -0.120293 0.032156
0.516844 0.371184 0.127503
0.966834 -0.920116 0.139720
-0.161455 0.590055 -0.338021
0.029166 -0.434041 -0.145327
-0.975060 0.365120 0.835224
0.592057 0.285451 0.268076
0.040460 0.305256 -0.075271
-0.184077 0.216258 -0.005045
-0.811856 0.918204 -0.173309
0.779313 0.016688 0.600844
-0.209986 0.464638 -0.192842
0.365163 0.410899 -0.045546
-0.701252 -0.527465 0.163040
0.923099 -0.433388 0.689545
-0.643116 -0.151966 0.353450
-0.600916 -0.444604 0.156898
0.717966 -0.266514 0.463887
0.825166 -0.218079 0.658522
-0.575705 0.207729 0.235046
-0.060398 -0.560220 -0.312954
0.466990 0.608584 -0.138502
0.756731 -0.124927 0.558596
-0.241895 0.412488 -0.071311
0.034039 -0.837115 -0.724257
0.483433 -0.060069 0.168628
0.462272 -0.943561 -0.652302
0.565920 0.351820 0.180376
0.139868 -0.312580 -0.130899
-0.790770 0.898506 -0.186751
0.807947 -0.351752 0.565965
0.731145 0.127612 0.480391
0.596195 -0.485225 0.190085
-0.800275 0.240225 0.557596
-0.591205 -0.065915 0.347789
0.487201 -0.258743 0.133842
-0.953720 -0.592621 0.559630
0.958449 -0.776957 0.310950
-0.245711 -0.760242 -0.562279
0.438625 0.998080 -0.718997
0.775142 -0.175379 0.555228
-0.210740 -0.996141 -0.962718
-0.361735 0.905858 -0.660655
0.217482 -0.960040 -0.819951
0.161979 -0.162828 0.033517
-0.181720 0.434955 -0.192199
0.203550 0.829198 -0.639720
0.870763 0.425773 0.520504
-0.064719 -0.072748 0.025947
-0.606516 0.948884 -0.581575
-0.245588 -0.921361 -0.812689
-0.211786 0.973784 -0.903499
-0.737783 0.698783 0.069376
-0.674257 0.857860 -0.289129
0.369124 -0.490455 -0.058721
-0.321045 -0.715084 -0.386578
0.909797 0.326631 0.740384
-0.512807 0.031719 0.225082
-0.802151 0.046336 0.692280
0.507009 0.849238 -0.488239
0.762072 0.240162 0.575202
-0.443773 -0.377872 0.114813
-0.595824 -0.199867 0.330439
-0.628468 -0.733008 -0.111369
0.044025 -0.615372 -0.469232
-0.063167 -0.713300 -0.510657
-0.481120 0.620583 -0.120581
-0.909654 0.409747 0.687313
-0.037017 0.060690 -0.038905
0.918665 -0.251264 0.771999
0.305038 0.336989 -0.096604
-0.008987 0.625811 -0.379168
-0.778616 0.762466 -0.031612
-0.495127 0.094032 0.270223
-0.410452 0.639770 -0.205353
0.529607 0.022612 0.265741
0.753422 -0.050940 0.580688
0.803284 0.730864 0.104590
0.969137 -0.227252 0.894841
0.964733 -0.208175 0.852956
0.905998 -0.390177 0.687269
-0.856356 0.037403 0.682711
-0.724413 0.089700 0.461830
-0.391067 0.320922 0.046284
0.105797 -0.138995 -0.014464
-0.806044 -0.564325 0.339413
0.691594 0.733684 -0.079475
0.233512 -0.307998 0.016236
0.084729 0.845887 -0.703527
-0.669377 -0.585293 0.112484
-0.493489 0.120115 0.235021
-0.679376 0.073230 0.486276
0.703866 0.657296 0.080671
0.168456 -0.722297 -0.480075
0.470259 0.819874 -0.428971
-0.407934 0.062856 0.107721
-0.257495 0.172219 -0.016961
-0.190290 0.020333 0.033515
0.520030 -0.927950 -0.596591
0.544706 -0.005819 0.314065
-0.586373 -0.472901 0.120799
0.883078 -0.314624 0.698294
-0.758689 0.298203 0.449316
0.792244 -0.004606 0.627307
-0.799209 -0.813564 -0.063383
-0.470920 -0.853917 -0.495803
0.692957 -0.628685 0.028597
-0.641016 -0.618230 0.039143
-0.172864 0.216602 -0.061104
-0.100281 -0.644371 -0.416664
-0.509482 0.763439 -0.296419
0.420490 -0.580479 -0.153322
0.702669 -0.817737 -0.224320
0.749150 0.751492 -0.023686
-0.321356 -0.409345 -0.109335
0.061701 -0.149155 -0.069283
-0.503187 0.918053 -0.586094
-0.510407 0.888738 -0.512532
-0.677492 0.429834 0.287456
0.880038 -0.862122 0.049291
0.775978 0.186680 0.566934
0.554717 0.978156 -0.657279
0.035323 0.893832 -0.829881
-0.018784 -0.787995 -0.633786
0.059491 -0.208065 -0.079392
0.073136 -0.368926 -0.156113
-0.130874 -0.740544 -0.528609
-0.736490 0.389597 0.387098
-0.748672 -0.452303 0.447874
0.904499 -0.310268 0.681479
-0.035938 -0.819282 -0.673685
0.906411 -0.004065 0.778853
-0.672846 -0.683664 -0.026308
0.108833 -0.135819 -0.017015
-0.584566 -0.713316 -0.141756
-0.493631 0.907700 -0.593738
-0.939891 -0.710035 0.373506
-0.762093 0.043774 0.565961
0.833697 -0.606040 0.285734
-0.356934 -0.847276 -0.610038
0.216258 -0.595383 -0.319171
-0.069972 -0.890452 -0.785794
-0.199098 -0.721205 -0.463729
0.063772 -0.013032 -0.003141
-0.625522 0.303631 0.291521
0.977208 -0.825320 0.222157
0.636616 -0.117963 0.407556
0.483229 0.162494 0.186229
-0.062481 -0.531549 -0.256226
-0.694246 -0.255843 0.456015
0.841332 -0.856330 -0.031100
-0.317226 -0.559738 -0.243374
-0.899787 -0.066494 0.804694
-0.315193 0.980884 -0.852327
0.588914 0.992530 -0.647762
0.245417 0.959243 -0.876839
0.501677 -0.153827 0.244923
0.587271 -0.838639 -0.343501
-0.576091 -0.352853 0.196987
0.847567 -0.524571 0.393572
-0.124021 -0.971747 -0.915219
0.278027 -0.809533 -0.601064
-0.995382 -0.093616 0.988452
0.986737 -0.320675 0.875352
-0.438207 -0.639293 -0.273338
-0.875874 0.432200 0.582791
-0.083476 -0.285769 -0.059260
-0.741940 0.703736 0.074345
-0.695347 -0.518046 0.218657
0.264566 0.076787 0.004783
-0.214145 -0.631722 -0.314902
0.843705 -0.009399 0.724080
-0.361687 -0.695067 -0.388400
0.452360 -0.676843 -0.277119
-0.077801 0.224447 -0.037387
0.319903 -0.472428 -0.100457
0.199391 -0.655266 -0.404255
-0.054432 0.859537 -0.711074
0.900122 -0.913993 -0.078947
-0.314573 0.130296 0.050705
-0.645529 0.096528 0.345459
0.356188 -0.498782 -0.148836
0.692015 -0.094457 0.515205
-0.919493 -0.824524 0.227360
-0.100735 0.442540 -0.178657
0.784975 -0.556606 0.287224
0.499237 -0.613229 -0.133462
0.983615 -0.370243 0.844620
0.062828 0.804740 -0.690548
0.319991 0.592933 -0.266350
-0.395039 0.893785 -0.599748
0.895071 0.303925 0.677411
-0.267329 0.325843 -0.057180
0.477021 -0.039938 0.226350
-0.193720 0.810373 -0.610682
0.123638 0.021754 -0.003937
0.439565 -0.289880 0.111496
0.017868 0.280750 -0.060263
0.814173 0.092279 0.713205
-0.161398 -0.751960 -0.543182
0.294144 -0.214549 0.039250
-0.315275 -0.373349 0.005832
-0.183687 0.693668 -0.463909
-0.119900 -0.242315 -0.084071
-0.748386 0.643110 0.153998
-0.816553 -0.115221 0.685768
0.334980 0.507001 -0.134007
0.311035 -0.729436 -0.438244
0.325819 0.849300 -0.658605
-0.960467 -0.038880 0.919234
-0.346906 -0.480404 -0.073449
-0.604380 -0.517021 0.060942
0.556303 -0.469845 0.081376
0.721261 -0.266552 0.437543
-0.506639 0.435039 0.046493
0.335698 0.899206 -0.688441
-0.741274 0.338075 0.448492
-0.449695 0.094333 0.206312
-0.722691 -0.102804 0.482409
-0.432958 0.656389 -0.292773
0.349473 0.699314 -0.359038
0.820654 -0.413925 0.486962
-0.594955 0.906841 -0.413239
0.084158 -0.209769 0.019615
0.402782 0.600156 -0.138233
0.905845 0.933640 -0.079331
0.220121 0.407316 -0.100372
-0.489786 -0.676899 -0.192173
0.250956 0.172274 0.056051
-0.359018 -0.762446 -0.463062
0.952257 0.578284 0.610755
-0.200648 -0.437370 -0.151018
0.370855 0.390430 -0.011058
-0.953545 0.820179 0.190419
-0.199877 -0.637980 -0.347725
0.750215 -0.214284 0.509093
0.220455 0.294238 -0.024032
-0.112114 -0.160683 -0.006196
0.871875 -0.650362 0.342623
0.707969 -0.941857 -0.387246
-0.355569 -0.186804 0.115131
0.089097 0.298418 -0.087082
-0.020351 0.147968 -0.065136
0.264405 -0.687518 -0.385702
-0.331777 -0.098613 0.076082
-0.511590 -0.261058 0.153845
0.825344 -0.451595 0.446587
0.847749 0.458542 0.516917
0.686646 -0.380696 0.323657
0.956409 0.080284 0.844292
0.489983 0.846447 -0.487899
0.529334 0.078552 0.309101
0.525180 0.234046 0.207498
-0.038785 -0.853508 -0.731936
-0.087096 -0.643732 -0.375515
-0.519547 -0.798098 -0.343166
0.289638 0.529626 -0.165961
-0.421360 0.671842 -0.357004
-0.484383 -0.627089 -0.106608
0.171923 -0.561457 -0.266584
-0.180035 -0.353585 -0.018766
-0.562287 0.182155 0.259516
0.632112 0.243592 0.287325
0.721140 0.373508 0.380751
-0.664601 0.810386 -0.223291
-0.984986 -0.409920 0.821773
-0.327740 0.317518 0.038844
0.595022 0.119446 0.337165
0.678348 -0.388326 0.302138
-0.723342 0.814830 -0.125043
0.548672 -0.809033 -0.361184
-0.768592 0.424002 0.400756
-0.219875 0.455747 -0.128247
0.997219 0.830653 0.342255
-0.614818 0.037161 0.409140
-0.692073 -0.356755 0.346644
-0.154399 0.655481 -0.470010
0.239337 0.541621 -0.240517
0.865802 0.000631 0.726873
0.961642 0.535715 0.633874
-0.860719 -0.464249 0.505177
-0.724005 0.179013 0.491515
0.581476 0.730367 -0.226500
-0.458736 -0.364031 0.039498
0.769698 -0.032900 0.628034
0.326907 0.902090 -0.735988
-0.776310 0.596424 0.246947
0.665059 0.774078 -0.128258
-0.647287 -0.229506 0.393737
-0.153009 0.993011 -0.938813
0.104370 -0.694869 -0.462864
0.001532 0.037541 0.020313
0.372326 -0.041453 0.178101
0.305373 0.596864 -0.250243
0.984084 0.817236 0.245431
0.998844 0.462279 0.768131
0.032919 0.253632 -0.042355
-0.809602 -0.145142 0.615576
0.455687 0.020652 0.255827
0.953328 0.018601 0.906593
-0.363347 -0.959263 -0.785607
-0.077582 0.006092 0.039724
-0.150446 0.711942 -0.489712
-0.897162 0.418548 0.635005
0.344529 0.591417 -0.204101
-0.293325 -0.219030 -0.006103
0.574928 0.057946 0.318625
0.664240 -0.933033 -0.404461
0.642462 -0.234004 0.359967
-0.166668 -0.051168 0.069180
-0.356909 -0.489582 -0.159585
0.497642 -0.937518 -0.681993
0.602779 0.380816 0.241412
-0.017485 -0.129825 0.009426
0.786062 -0.168644 0.583655
-0.712183 -0.500026 0.269189
0.758138 0.075661 0.591404
-0.807810 -0.123946 0.612778
-0.692949 -0.052031 0.456266
0.067680 0.161743 -0.015888
-0.864963 -0.987351 -0.199578
-0.894386 0.815392 0.100083
-0.998963 -0.857825 0.256124
-0.127367 -0.098151 -0.000738
0.549248 -0.585254 -0.028311
-0.930323 0.047565 0.862978
0.304515 -0.439540 -0.116842
0.646255 0.720013 -0.063317
-0.663998 -0.207280 0.381751
-0.706273 0.277511 0.413046
0.721602 -0.502241 0.220719
0.646249 -0.961188 -0.527653
0.077884 -0.191691 -0.015197
0.638400 0.072973 0.411847
-0.814488 -0.080906 0.674830
-0.211037 0.924029 -0.792763
0.475595 0.413678 0.117692
-0.485096 0.991340 -0.769872
0.504658 -0.409880 0.038095
0.008357 0.578107 -0.365654
0.500532 0.111117 0.217076
-0.070641 0.223521 -0.074201
-0.264191 0.971706 -0.871606
-0.561622 0.307974 0.258150
-0.583241 0.797634 -0.249859
0.502982 0.451500 0.064267
-0.762179 -0.745228 0.089791
-0.828035 0.398847 0.515872
-0.647417 -0.031369 0.369190
-0.649307 0.837596 -0.248372
0.646215 0.613669 -0.014153
-0.202987 -0.791731 -0.608284
0.980777 -0.732169 0.441456
-0.725577 -0.860778 -0.217548
0.307080 -0.013510 0.088387
-0.102541 -0.838456 -0.727918
-0.214164 0.447357 -0.154586
0.750168 0.104717 0.581897
0.951191 0.671770 0.454089
0.745718 -0.440408 0.337229
-0.615399 0.038282 0.339824
-0.558404 -0.765041 -0.297760
0.312148 0.769220 -0.482493
-0.421833 -0.649990 -0.234236
0.469450 -0.795276 -0.436095
0.132841 -0.589899 -0.396657
0.101818 0.612463 -0.352144
0.657094 -0.788371 -0.216688
0.421066 0.228855 0.145593
-0.946844 0.492363 0.631410
-0.901082 0.502162 0.530144
0.203117 -0.619878 -0.338397
-0.027616 -0.876752 -0.697200
-0.479631 -0.102387 0.242033
-0.162688 -0.595029 -0.323506
0.515821 0.398542 0.118001
0.653223 -0.286614 0.292019
0.122446 -0.101292 -0.028937
-0.229261 -0.773030 -0.620343
-0.458606 0.135101 0.243964
0.043837 -0.628952 -0.347837
-0.370501 0.357971 0.020912
0.128190 -0.857662 -0.715099
0.353305 0.951789 -0.827626
-0.867842 0.369054 0.610369
-0.997865 -0.636541 0.644322
-0.575446 -0.971811 -0.609336
0.789023 -0.331074 0.496008
0.292582 -0.694373 -0.449293
-0.656079 -0.563177 0.154681
0.780528 0.745501 0.051350
-0.060088 0.206409 -0.091696
-0.047816 -0.647085 -0.444160
0.871084 0.113319 0.707620
-0.881027 -0.488439 0.533683
-0.569643 0.952402 -0.576355
0.171543 -0.934486 -0.858933
-0.609027 0.464637 0.178338
0.359054 0.545994 -0.166826
-0.571815 -0.865674 -0.390550
-0.801686 -0.656261 0.201306
-0.586030 -0.231387 0.381251
-0.154532 0.736310 -0.535206
-0.647723 0.074000 0.386970
-0.730616 0.310614 0.406530
0.720564 0.566026 0.192499
-0.359206 0.656246 -0.353216
-0.278483 -0.047431 0.084140
-0.889459 0.017586 0.733669
-0.285261 0.436012 -0.103882
-0.470386 -0.473315 -0.043302
0.220970 0.708979 -0.465263
-0.589219 -0.958426 -0.553265
0.776731 -0.608457 0.302212
0.859333 0.600400 0.345634
-0.800338 -0.319484 0.533961
-0.785194 -0.700334 0.104349
-0.769347 -0.626490 0.173309
0.239139 0.061513 0.031954
-0.756062 0.692363 0.116985
0.704765 -0.858699 -0.255312
0.508543 -0.939038 -0.555697
0.639618 -0.069664 0.416737
0.052121 0.912375 -0.860012
0.993354 -0.441980 0.780405
-0.911650 0.918341 -0.036300
-0.197470 0.775362 -0.538190
-0.352127 -0.433730 -0.113292
0.897291 0.633896 0.363078
0.153722 0.371735 -0.132303
0.612382 0.023645 0.394941
-0.659318 -0.154168 0.447924
0.957268 0.631006 0.559611
-0.002721 0.586159 -0.327681
-0.012656 0.513873 -0.266392
0.941769 0.996512 -0.082267
-0.238535 -0.042975 0.020717
-0.204950 0.613846 -0.390142
0.169505 0.724957 -0.483731
-0.743895 -0.576795 0.190517
-0.357829 -0.915867 -0.712730
-0.613583 -0.190503 0.343782
-0.793433 0.713473 0.127935
0.732289 -0.421793 0.386472
0.178662 0.400020 -0.103134
-0.282654 -0.985304 -0.885080
-0.182661 -0.289271 -0.063573
-0.136962 0.231033 -0.031385
0.266298 -0.740486 -0.495290
0.853539 0.793214 0.093447
0.865559 -0.687452 0.355148
-0.217016 0.819587 -0.619161
-0.341475 -0.567221 -0.191628
-0.097907 0.988557 -0.988824
0.135868 0.209497 0.005173
-0.076364 -0.831310 -0.662437
0.317507 -0.869446 -0.632104
0.108798 -0.850157 -0.704482
-0.358569 0.179785 0.127275
-0.308538 0.619158 -0.250011
-0.242814 -0.194075 0.029787
-0.810720 -0.110328 0.641657
-0.667875 0.178575 0.441005
0.446228 0.066081 0.167629
-0.221807 0.376123 -0.113810
-0.570922 -0.056429 0.321169
0.125345 0.427721 -0.219475
0.511079 0.994621 -0.703242
-0.485155 -0.299404 0.116845
0.653580 -0.975569 -0.538713
0.855010 -0.748750 0.164017
0.194789 0.107028 0.027666
0.337895 -0.311484 0.006841
-0.894848 0.879965 0.024393
0.891040 0.254892 0.727193
-0.215031 0.040710 0.031170
0.847801 0.596079 0.340260
0.157955 -0.482820 -0.175721
-0.990762 0.639477 0.509547
-0.922916 -0.993878 -0.142191
0.360838 0.239355 0.058846
0.125336 0.869514 -0.727782
-0.946935 0.575720 0.521604
0.486920 0.707268 -0.278131
0.704291 -0.206091 0.450481
-0.007165 0.648478 -0.388370
-0.068485 0.101663 0.004320
-0.989054 0.237080 0.886516
0.573299 -0.882169 -0.464175
-0.338568 -0.596897 -0.215076
0.757527 0.101929 0.527435
-0.253879 -0.882398 -0.716531
0.130156 0.482894 -0.216519
-0.459316 0.680114 -0.263157
-0.678823 0.840725 -0.165144
0.549816 -0.796463 -0.344438
-0.006819 0.879440 -0.759876
0.072976 -0.864760 -0.765473
0.930832 -0.051888 0.879588
0.927160 0.680502 0.422666
0.711284 -0.859378 -0.250244
-0.624781 -0.963538 -0.539694
0.188545 -0.950105 -0.894008
0.756295 0.022540 0.537142
-0.251072 0.623194 -0.294229
-0.797788 -0.745147 0.064602
0.621926 -0.750780 -0.249287
-0.036473 0.137094 0.035496
0.128785 -0.531409 -0.289872
0.964289 0.460427 0.710468
0.214423 0.899271 -0.713484
-0.150041 0.532067 -0.264835
-0.260031 0.754351 -0.506329
-0.164761 0.039172 -0.011233
-0.763202 0.664639 0.091688
0.589501 -0.634194 -0.059682
0.675434 -0.863304 -0.278199
-0.431206 0.311906 0.097819
-0.392407 -0.896095 -0.663441
0.748668 0.784963 -0.055054
-0.952059 0.383108 0.704529
0.040915 0.904401 -0.802463
-0.072649 -0.372227 -0.128433
0.380254 -0.027683 0.203036
-0.673217 0.483381 0.219788
0.336661 -0.514442 -0.179590
-0.246532 0.083698 0.052251
0.237430 0.318935 -0.055180
-0.919810 0.957617 -0.057939
-0.076546 0.489407 -0.232853
0.044502 -0.763738 -0.619114
-0.571347 -0.049333 0.274932
-0.720753 0.177542 0.495851
-0.623051 -0.706754 -0.069814
-0.311718 -0.136068 0.081034
-0.806380 -0.431988 0.488033
0.894640 -0.762345 0.249595
-0.190012 0.024084 0.043528
0.617939 -0.668734 -0.089791
0.948834 0.181075 0.873358
-0.838529 -0.660606 0.302943
0.303339 0.447190 -0.092068
0.742818 -0.609517 0.202716
0.268469 0.792570 -0.569968
-0.141948 -0.947581 -0.883832
-0.137847 0.043995 0.013505
-0.928202 -0.359790 0.730570
0.069201 -0.549847 -0.262504
0.987086 -0.056794 0.900698
0.917415 0.684039 0.374657
-0.919202 0.830554 0.152726
0.411594 -0.393503 -0.026580
-0.396470 -0.691513 -0.300848
0.805978 0.440281 0.434019
-0.909770 0.163997 0.790076
0.871748 -0.597968 0.457843
0.674951 0.520592 0.214843
-0.764991 0.037861 0.601013
-0.880351 0.306790 0.692321
0.669415 -0.281322 0.364034
-0.688485 -0.121805 0.519156
0.069796 -0.639316 -0.379788
0.831490 0.513032 0.405687
0.134896 -0.685977 -0.494371
-0.205533 0.556605 -0.250560
-0.109968 0.596016 -0.344818
-0.873766 0.493202 0.477350
0.937505 -0.961154 -0.032045
-0.378692 -0.453734 -0.070538
-0.621273 -0.063325 0.397890
-0.427905 0.191089 0.159840
0.928746 0.838444 0.141333
-0.811428 -0.248788 0.615505
0.734606 0.750047 -0.037861
0.415688 -0.673141 -0.293309
0.660038 -0.257439 0.353408
0.951795 -0.895436 0.138038
0.684309 0.484979 0.224658
0.886765 -0.698694 0.339351
-0.746130 -0.485960 0.374057
0.591577 0.550466 0.024789
0.091351 0.069433 -0.084106
0.086991 -0.972055 -0.905987
0.797843 -0.995530 -0.364785
0.943608 0.021321 0.863955
0.409677 -0.390089 -0.001996
-0.034123 -0.639377 -0.420083
-0.087192 0.227188 -0.005096
-0.227317 -0.543127 -0.238517
-0.276802 0.184414 0.081119
-0.216986 -0.241468 0.003603
-0.820494 -0.626508 0.271421
-0.845128 -0.723791 0.178658
0.559740 -0.526279 0.053187
-0.107854 -0.940336 -0.847986
0.861369 -0.383746 0.624599
0.224442 0.803909 -0.603742
-0.929648 0.662724 0.430298
-0.684953 -0.255992 0.421150
-0.588360 0.151667 0.311646
0.951472 0.134721 0.853101
-0.562592 0.657475 -0.139952
0.031511 -0.527420 -0.284410
0.872354 -0.407225 0.615035
0.954385 -0.396429 0.791465
-0.527279 -0.918260 -0.605860
-0.901765 -0.370624 0.657897
-0.692796 0.755828 -0.102044
-0.873343 0.823975 0.107634
-0.609752 -0.780729 -0.253585
0.137139 -0.083883 -0.001121
0.824898 -0.237302 0.581784
0.074438 -0.021282 0.019590
0.251979 0.109439 0.046675
-0.596265 -0.959482 -0.584695
0.601167 0.684484 -0.114902
0.235578 0.947328 -0.808124
0.728274 0.306810 0.406104
0.897686 0.320904 0.677611
-0.304198 0.055960 0.126973
-0.818842 -0.331453 0.562914
-0.548142 -0.702044 -0.172314
-0.124317 0.168127 -0.000759
0.891387 -0.910117 -0.034802
-0.243380 0.649005 -0.372423
0.541546 -0.158177 0.293199
0.080953 -0.170492 0.012356
-0.634382 -0.345658 0.315487
-0.358532 0.938708 -0.788191
0.306384 -0.650166 -0.289698
0.345707 -0.697384 -0.377570
-0.130481 -0.668937 -0.453102
-0.542709 0.317055 0.188929
0.443814 0.983791 -0.745940
-0.662254 -0.529050 0.174901
0.873339 0.811235 0.096958
-0.624193 -0.442767 0.218704
-0.785375 0.295800 0.533513
-0.004705 -0.919002 -0.861732
0.039099 -0.008692 -0.019788
0.016386 0.309140 -0.082992
-0.126665 0.072640 0.008292
0.989630 -0.524329 0.663181
-0.027439 0.656994 -0.405473
-0.044107 0.940273 -0.896576
-0.156468 -0.081608 0.065586
-0.866349 0.271839 0.634574
0.185913 0.580827 -0.308217
-0.544064 -0.517022 0.007695
0.275218 0.728901 -0.484814
-0.898333 -0.439598 0.599152
0.962774 0.551662 0.675721
-0.061990 -0.775802 -0.593724
0.793511 -0.423227 0.426787
-0.048878 0.067240 -0.056991
-0.879338 0.049844 0.719111
0.644427 0.700862 -0.092016
0.296367 0.992254 -0.915746
0.563514 -0.785578 -0.306307
-0.143660 -0.457224 -0.256581
0.275873 -0.284804 -0.007757
0.712458 -0.042163 0.536651
0.262131 -0.012181 0.117249
-0.304653 0.712390 -0.471520
0.325059 0.541119 -0.211188
0.343708 -0.962297 -0.833507
0.921174 -0.089956 0.844841
-0.258175 0.236148 -0.025704
-0.149836 -0.079209 0.066645
0.624246 -0.738710 -0.154703
0.011525 -0.205052 -0.045608
0.473146 -0.176689 0.240430
-0.080581 -0.624568 -0.384073
-0.569010 0.512614 0.073008
0.490408 -0.357199 0.090385
-0.737690 0.177975 0.471396
-0.602833 0.031460 0.344107
0.253650 0.754854 -0.439857
0.494540 -0.755970 -0.307931
0.789376 -0.771474 0.036178
-0.454827 -0.399361 0.018087
-0.778551 -0.137570 0.614554
0.912093 -0.402916 0.628843
-0.691154 0.526374 0.153612
-0.604666 -0.509468 0.089296
-0.417341 -0.830451 -0.456840
0.058783 -0.172400 0.030670
0.765651 0.546759 0.273740
0.521092 0.701124 -0.240264
0.416315 0.466690 -0.093692
-0.649639 0.115773 0.410968
-0.284635 0.448383 -0.115170
-0.043190 0.362779 -0.106057
-0.705148 -0.531267 0.242311
-0.453141 0.101518 0.189108
-0.383334 0.541219 -0.129292
-0.745448 -0.365759 0.400894
0.100479 0.307946 -0.068624
0.410056 -0.037039 0.151557
-0.860137 0.006318 0.753579
-0.037754 -0.819890 -0.659439
0.564422 0.332434 0.210124
0.495980 0.731374 -0.265075
0.630146 -0.717137 -0.164314
-0.103519 -0.267789 -0.092942
0.641114 -0.902665 -0.411879
-0.518494 -0.940736 -0.659447
-0.278379 0.979317 -0.893773
-0.647289 -0.013057 0.407573
-0.065031 -0.288962 -0.039979
-0.215880 -0.450246 -0.151841
-0.518146 0.960025 -0.622291
0.503561 -0.495498 0.017106
-0.372306 0.451417 -0.081235
-0.454391 -0.432484 0.023441
-0.738219 -0.859021 -0.171066
-0.122357 0.366553 -0.083588
-0.394071 -0.996738 -0.842165
-0.261454 0.351497 -0.104617
-0.528005 -0.499247 -0.021992
0.526311 0.492208 0.024942
0.860007 0.539500 0.378414
-0.004136 0.448214 -0.147026
0.285997 -0.951033 -0.804762
0.734345 0.407473 0.354157
0.997659 0.980291 0.001064
0.227033 -0.514749 -0.182579
0.779559 -0.451523 0.370430
0.817217 0.627053 0.244100
0.582903 -0.679206 -0.144524
-0.078137 0.321167 -0.093620
-0.837692 0.510053 0.460198
-0.968389 -0.925679 0.116676
-0.045599 0.107524 0.021867
-0.011371 0.151755 -0.022877
-0.185275 -0.393114 -0.089596
0.136335 0.752689 -0.568084
0.104325 -0.674501 -0.498693
0.673226 -0.271611 0.359327
-0.782686 0.697337 0.102130
-0.549645 -0.618715 -0.099658
0.586010 0.642748 -0.098499
0.695674 -0.841862 -0.238602
0.989648 -0.021542 0.997540
0.745824 -0.849339 -0.113665
0.779798 0.355807 0.429726
-0.371304 0.581203 -0.238562
-0.196677 0.699717 -0.474666
-0.463830 0.962524 -0.688343
0.212599 0.344031 -0.079308
0.877611 0.538124 0.458900
-0.310718 0.011517 0.117915
0.114004 0.825474 -0.639718
-0.407401 0.287517 0.082747
-0.660400 0.767103 -0.176805
-0.609629 -0.529096 0.099813
-0.884109 -0.006524 0.774609
0.898587 0.459638 0.588961
-0.194241 -0.594557 -0.331140
0.668242 -0.577320 0.140998
0.362659 0.956086 -0.775082
-0.616158 -0.130779 0.393618
-0.649076 -0.636369 0.056423
0.623976 -0.337072 0.289498
-0.470577 -0.205248 0.164121
0.826570 0.246171 0.653828
-0.719889 0.846029 -0.183555
0.355417 0.973180 -0.742657
0.628948 0.303398 0.312828
-0.529487 0.399845 0.141412
-0.447585 -0.356342 0.082066
0.929038 0.714317 0.349889
-0.470805 -0.564403 -0.104658
-0.140086 -0.787239 -0.591293
-0.134969 0.946512 -0.862033
-0.493930 0.728277 -0.251789
0.551582 -0.392710 0.159287
0.543699 0.350341 0.158982
-0.243364 -0.065963 0.045069
0.670252 -0.353744 0.284415
-0.573850 -0.426452 0.197279
-0.991388 -0.727945 0.436712
0.142335 0.098636 0.039553
0.988156 -0.106807 0.973340
-0.922711 0.024373 0.859914
-0.584004 -0.569286 0.013451
0.037829 0.877221 -0.791720
0.619881 0.277182 0.278367
-0.821916 0.799201 0.088677
-0.209531 -0.781458 -0.563354
0.494152 0.245702 0.217574
-0.256914 0.698924 -0.380942
-0.622327 -0.338158 0.260615
-0.609008 -0.609714 0.011846
-0.179902 -0.469957 -0.187145
-0.041166 -0.454133 -0.239258
0.723629 -0.105602 0.506922
0.284505 -0.348073 -0.022586
0.380804 -0.457452 -0.079221
0.965974 0.297025 0.835138
-0.176313 -0.893935 -0.773235
-0.193291 -0.319272 -0.001228
0.846694 0.379504 0.517846
-0.508249 -0.648301 -0.146927
0.459630 -0.558144 -0.107865
0.509146 -0.598667 -0.118392
-0.804424 -0.998148 -0.357537
-0.063537 -0.052464 0.021306
-0.598875 -0.922082 -0.469849
-0.629249 -0.454120 0.195310
-0.072344 0.989607 -0.941306
-0.421141 0.836792 -0.484797
0.592121 -0.569848 0.050371
0.815210 -0.379995 0.503785
0.605441 -0.072591 0.376123
-0.467938 0.688827 -0.240541
-0.451731 0.605292 -0.186786
-0.490543 -0.747517 -0.365232
-0.729924 -0.751102 -0.092049
0.887597 -0.166535 0.762190
-0.195904 0.740191 -0.500563
-0.550621 0.764170 -0.316226
0.693342 -0.785268 -0.104542
-0.201609 0.148595 0.023133
-0.929766 -0.688650 0.430711
-0.676117 0.372259 0.329674
0.278501 0.832866 -0.648094
0.565811 -0.090461 0.325707
-0.578131 -0.833834 -0.340941
0.834791 0.158508 0.655323
0.701994 -0.182967 0.416056
0.696761 0.621798 0.101853
-0.544678 -0.319311 0.164689
-0.898928 0.749794 0.279507
0.734847 -0.452599 0.322939
-0.388400 -0.684965 -0.266584
0.237833 -0.387039 -0.156960
0.519934 -0.930168 -0.590838
-0.743414 -0.437508 0.404132
0.561677 0.320235 0.186221
0.877023 -0.715434 0.252547
0.456750 -0.777270 -0.407619
-0.117555 -0.735229 -0.547256
0.753356 -0.844897 -0.138966
0.054915 0.749271 -0.597254
0.489542 0.888230 -0.552631
0.641012 -0.906878 -0.396051
0.498706 0.520144 -0.028295
-0.424290 0.474303 -0.074948
-0.764312 0.993819 -0.372597
-0.523323 -0.304259 0.203201
0.005750 -0.428982 -0.215228
0.010554 -0.093836 -0.047517
0.165289 0.713150 -0.509821
-0.209796 0.457187 -0.148648
0.573783 -0.056752 0.334273
0.826307 -0.510874 0.445494
-0.506550 0.454031 0.040664
0.473046 0.709054 -0.306726
0.355944 -0.200098 0.114222
0.046181 0.337171 -0.128155
-0.622940 -0.199576 0.353820
0.590465 -0.043013 0.300300
0.921253 0.049821 0.829130
0.443673 0.551452 -0.076972
0.835720 0.955012 -0.235108
0.968371 -0.111268 0.949796
-0.295899 -0.315370 -0.081833
0.276447 -0.252818 -0.004276
-0.052135 -0.732222 -0.538571
0.973257 -0.406123 0.834571
-0.812384 -0.827105 -0.059207
-0.175250 -0.144211 0.030045
0.751078 -0.665285 0.153222
-0.431897 -0.307187 0.070527
0.575586 0.587156 -0.024658
-0.234434 -0.508145 -0.199003
0.959957 0.223789 0.826991
0.767060 0.802363 -0.069059
-0.397359 0.133858 0.178260
0.540386 -0.612415 -0.067355
-0.326287 -0.310468 0.005370
0.212726 0.180738 0.015978
0.316962 0.013222 0.117717
0.659191 -0.702760 -0.036167
-0.951098 -0.106407 0.876573
-0.559684 0.086133 0.351869
0.423836 -0.465335 0.002591
0.127046 0.224891 -0.014117
-0.008790 -0.859680 -0.764261
-0.889580 -0.326786 0.653957
-0.303448 0.608554 -0.288055
0.730200 -0.481430 0.303240
-0.938214 0.210354 0.782943
-0.207128 -0.179941 0.025364
0.890297 -0.367080 0.696504
-0.898239 0.832263 0.131464
0.499411 -0.313477 0.130863
-0.484775 -0.526648 -0.066184
0.733218 0.818603 -0.123507
0.492136 0.491889 -0.004356
0.771410 0.363599 0.476161
-0.568150 -0.900930 -0.470829
0.062586 -0.737590 -0.507365
0.558540 0.276680 0.201451
-0.508601 -0.581134 -0.072394
-0.538507 -0.548724 -0.022012
-0.945636 0.558277 0.579595
0.917031 -0.428150 0.683565
0.420034 -0.856825 -0.528528
0.271121 -0.927136 -0.744122
0.487989 -0.113644 0.237986
0.063226 0.234257 -0.054179
-0.047732 0.737770 -0.549613
-0.100936 -0.778391 -0.647748
0.280878 -0.606654 -0.248945
-0.596930 0.059601 0.343116
0.776117 -0.271783 0.543669
0.623505 -0.034925 0.407908
-0.300873 0.848249 -0.666362
0.157219 0.089783 -0.011044
-0.717945 -0.169759 0.533038
0.944692 0.978880 -0.057049
0.805785 -0.869569 -0.124277
0.843795 0.864227 -0.038689
-0.335674 0.003324 0.145253
-0.661731 0.007513 0.465860
-0.576456 0.843929 -0.423897
-0.819997 0.014648 0.721209
-0.759779 -0.123186 0.591073
-0.857391 -0.455023 0.523499
0.979646 0.317634 0.823064
-0.851885 0.139290 0.737926
-0.734916 -0.571309 0.228000
0.654509 0.418826 0.209233
0.160480 0.288174 -0.064252
0.548834 -0.205332 0.352843
0.261824 -0.991198 -0.913427
0.764350 -0.106838 0.550558
0.276935 -0.987884 -0.929476
0.044250 -0.850003 -0.667384
0.425499 -0.138780 0.187223
-0.105214 -0.836160 -0.645871
-0.307872 -0.448669 -0.099073
-0.064695 0.310983 -0.054904
-0.660572 -0.382769 0.264393
0.593143 0.995297 -0.633920
-0.478592 0.832604 -0.455567
-0.692937 0.170620 0.492524
-0.507295 0.933894 -0.605245
0.684140 0.736035 -0.092464
-0.339597 -0.362203 -0.013942
0.372100 0.499193 -0.161027
0.712819 -0.726336 -0.089082
-0.844511 0.369103 0.601902
0.530049 -0.017836 0.269391
-0.384669 -0.966348 -0.793701
-0.566755 -0.451540 0.142251
0.377803 0.910764 -0.644846
0.819593 -0.368337 0.552096
-0.409962 -0.637091 -0.179974
0.137668 -0.624937 -0.356513
-0.420332 -0.041573 0.184017
0.108571 0.685299 -0.450635
0.243724 0.516004 -0.245423
0.220671 -0.126296 0.061425
0.247093 -0.582546 -0.351669
-0.729840 -0.907870 -0.309149
0.387081 -0.074739 0.144934
0.349501 0.629551 -0.297876
0.365176 0.459364 -0.091214
-0.851859 -0.182798 0.747430
-0.106322 0.189405 0.008551
-0.181930 -0.127507 -0.003734
-0.826577 0.158032 0.644168
-0.555264 0.035010 0.268782
-0.118075 0.361933 -0.095904
0.485813 0.015418 0.228284
-0.525876 0.881222 -0.559001
0.659500 -0.143944 0.417244
0.091597 -0.968167 -0.915789
0.520843 -0.527253 0.022176
-0.054888 0.001214 0.000811
-0.001612 0.081144 -0.017762
0.239439 0.104770 0.105942
0.855941 0.429104 0.548703
-0.016375 -0.450704 -0.181279
0.057315 0.329807 -0.121674
0.203994 0.408065 -0.104206
0.475030 -0.177438 0.150500
-0.856299 -0.195662 0.681103
0.031375 -0.642150 -0.447621
-0.036817 -0.172025 -0.046386
0.843370 0.573633 0.419733
-0.012987 0.817946 -0.687237
-0.063359 0.187226 -0.009492
0.924400 -0.401259 0.739024
-0.098847 0.364579 -0.123975
-0.638231 0.480292 0.206471
-0.566168 -0.335574 0.223868
-0.809625 0.653096 0.232452
-0.998864 -0.852608 0.293297
-0.136109 -0.978493 -0.883724
0.538485 -0.754058 -0.297756
0.466933 -0.687983 -0.284071
-0.935702 0.757858 0.270652
0.139966 -0.150037 0.026912
-0.691434 -0.450137 0.309339
0.882153 -0.141850 0.741961
-0.665270 -0.210318 0.334270
0.253278 -0.397077 -0.113763
-0.347523 -0.724201 -0.387259
0.283123 0.311831 -0.019082
-0.175483 -0.726791 -0.492021
0.519286 0.550849 -0.049477
-0.538642 -0.596624 -0.035403
0.811584 0.462743 0.454833
0.000419 0.611172 -0.355937
0.512186 -0.749348 -0.294416
0.699460 -0.826508 -0.178140
0.997657 0.899146 0.200614
-0.552109 -0.073906 0.271520
-0.426215 0.260471 0.125006
-0.499134 -0.953479 -0.636243
-0.474257 -0.442580 0.063698
0.164889 0.010795 0.039555
0.987045 0.772437 0.348642
0.980556 -0.457121 0.728191
0.053546 0.550383 -0.313108
0.278054 0.324426 -0.022254
0.719941 -0.769458 -0.077418
0.865867 -0.413250 0.545238
-0.592279 -0.524272 0.042041
0.057083 -0.114945 -0.072909
0.665674 0.270668 0.276276
-0.393596 -0.133160 0.133233
-0.120382 -0.510927 -0.176948
0.971242 0.391758 0.843741
0.970093 0.168942 0.883193
0.812214 0.038628 0.662696
0.596897 0.108839 0.300502
-0.461739 -0.556199 -0.135517
-0.358300 0.360862 -0.037767
0.094566 -0.224999 -0.048447
0.121555 -0.273064 -0.065262
0.011006 -0.700532 -0.483042
0.273341 0.193675 0.057102
-0.183354 0.205329 -0.018648
0.498348 -0.319399 0.147422
-0.332900 0.719700 -0.439960
-0.338646 0.690916 -0.403018
-0.745548 -0.781891 -0.100481
-0.622576 0.390077 0.254918
0.701042 -0.212330 0.436238
-0.107435 0.999430 -1.043451
-0.544264 -0.549953 -0.008117
0.518682 -0.438952 0.038888
0.107962 -0.115787 0.048060
-0.957688 -0.462570 0.685831
-0.367277 0.383987 0.007892
-0.645997 -0.038184 0.448523
0.311746 -0.558242 -0.243097
-0.449938 0.012748 0.204563
-0.870106 0.777576 0.169066
-0.890130 0.584791 0.453817
0.163455 -0.002342 0.037545
-0.956553 -0.423015 0.696163
0.697584 -0.640227 0.093354
-0.689206 0.756766 -0.112275
0.213133 0.420334 -0.120771
-0.110624 0.144327 0.019007
-0.114297 0.758869 -0.542755
-0.856406 -0.756619 0.171419
0.605505 0.364979 0.252690
0.786105 -0.566575 0.317606
-0.977967 -0.758845 0.425438
-0.642792 -0.068783 0.407428
0.807808 -0.225214 0.606752
0.098987 0.882347 -0.740776
-0.699921 -0.352041 0.351245
-0.594419 0.629804 -0.083378
0.319972 0.497654 -0.130480
0.449634 0.335848 0.083196
0.198854 0.840801 -0.703629
0.906297 -0.184151 0.802479
-0.011873 -0.220658 -0.005615
-0.399456 -0.678105 -0.349154
-0.045534 -0.448476 -0.168387
-0.280667 0.759553 -0.574258
-0.551168 -0.051236 0.289153
-0.908073 -0.317293 0.779138
-0.295575 -0.567776 -0.244855
0.422819 -0.030079 0.180569
-0.963124 0.433331 0.762719
-0.121643 -0.426616 -0.218698
0.288019 0.515433 -0.180554
0.220808 0.259576 -0.016697
0.553297 0.575125 0.031238
0.621039 -0.498181 0.100434
0.423412 0.262056 0.099158
-0.794405 -0.692529 0.123631
-0.049955 -0.272406 -0.102742
0.206812 0.448720 -0.124757
-0.508868 0.263337 0.190400
-0.914896 -0.624279 0.430645
-0.552819 0.716685 -0.223564
-0.090211 -0.893298 -0.806740
-0.172139 0.190431 -0.020846
-0.646666 0.967641 -0.556086
0.648831 0.063009 0.409250
0.851373 0.601344 0.352446
-0.597303 0.190362 0.297800
0.859146 0.566177 0.422227
-0.964278 0.311188 0.840191
0.849925 0.382264 0.559547
0.903858 -0.544378 0.516287
-0.975896 0.483642 0.783223
0.526039 -0.524180 0.065565
0.940403 0.961281 -0.071325
0.811804 -0.544426 0.335194
0.941420 -0.526632 0.577149
0.100647 0.717346 -0.472744
-0.843688 -0.514028 0.435628
0.699578 -0.278194 0.419208
0.227657 0.429280 -0.072545
0.229473 -0.682503 -0.413466
-0.165493 -0.681857 -0.416353
0.143684 -0.027283 0.035513
-0.692840 -0.512607 0.199616
0.479540 -0.528684 -0.017773
-0.849965 -0.981522 -0.266436
0.459562 -0.259101 0.184260
0.697957 -0.363499 0.337389
-0.055063 -0.937688 -0.890567
0.019661 0.242466 -0.091058
-0.375571 0.253310 0.049160
0.938917 -0.858399 0.131914
0.466249 -0.365917 0.010552
-0.262023 0.745611 -0.494280
-0.650385 0.164334 0.380756
-0.560841 -0.176051 0.307249
-0.072155 -0.069796 0.013024
0.885137 -0.583440 0.421836
0.468293 0.623763 -0.183539
-0.569512 0.828009 -0.368294
0.719122 0.821328 -0.112864
-0.243599 -0.552131 -0.270178
0.703444 -0.378519 0.329964
-0.516601 -0.678754 -0.227689
0.237321 -0.385598 -0.136825
0.853341 -0.334389 0.625585
-0.484212 0.266211 0.169680
0.385853 -0.620707 -0.197912
0.974625 0.838794 0.277562
-0.698803 -0.793801 -0.069880
-0.823195 -0.986244 -0.297243
0.348390 0.709890 -0.390384
-0.320528 0.407540 -0.102357
-0.857511 -0.289280 0.672539
-0.049389 0.190999 -0.030485
0.507541 -0.552912 -0.028575
-0.429755 -0.663221 -0.289346
-0.329906 -0.057702 0.116057
0.691399 -0.293624 0.397973
0.040144 0.230460 -0.047329
0.685464 -0.563702 0.131603
-0.107221 0.325855 -0.059006
0.905950 0.533723 0.597395
0.301589 -0.666728 -0.386880
-0.768202 -0.912283 -0.220513
0.770186 -0.120825 0.492252
-0.021470 0.548048 -0.279838
-0.716722 0.301560 0.366648
-0.694620 0.403763 0.303723
0.375068 -0.194321 0.063524
-0.905255 -0.530109 0.532003
-0.426812 0.063558 0.203293
-0.720425 -0.591269 0.113694
-0.117845 0.452457 -0.201615
-0.171292 -0.606067 -0.353377
0.043753 -0.417473 -0.124938
-0.440727 0.013090 0.207022
-0.935913 -0.026580 0.839910
0.228772 0.201699 -0.002484
-0.252564 -0.125111 0.094819
0.302670 0.838947 -0.590791
-0.782666 0.679868 0.122798
-0.972445 0.758227 0.362730
-0.503412 0.259033 0.179272
-0.086905 0.270016 -0.081495
-0.211856 0.218397 -0.054121
0.620605 -0.130232 0.347862
-0.244325 -0.355788 -0.025215
0.060882 0.184006 -0.041586
0.187031 -0.948936 -0.868597
-0.956337 -0.985087 -0.051600
0.030267 0.703284 -0.427148
-0.310337 -0.907152 -0.726349
-0.157440 0.049590 0.055146
-0.799425 0.229976 0.568246
0.565641 -0.603658 -0.052235
0.884808 0.791462 0.156851
-0.955462 -0.619808 0.505522
0.202746 0.769030 -0.556413
0.527688 0.525981 0.028441
-0.430385 -0.518514 -0.107637
0.575111 -0.698512 -0.157163
0.264710 -0.367535 -0.043748
0.858325 -0.204099 0.670332
0.962010 -0.508431 0.699823
-0.915308 0.997783 -0.155596
-0.110124 -0.540695 -0.285178
0.093976 0.661270 -0.488691
-0.706514 -0.681764 0.023150
-0.327428 0.960489 -0.804183
0.975295 -0.548953 0.702211
-0.967539 -0.156623 0.928638
-0.094984 0.117128 0.029089
0.685309 -0.759429 -0.143356
-0.352197 0.633640 -0.281261
-0.040403 -0.450629 -0.164812
0.956091 0.098540 0.877769
-0.050246 0.099268 0.021627
-0.738157 0.205281 0.524735
-0.896557 -0.889028 0.021685
0.890833 -0.662762 0.344469
-0.468381 -0.677616 -0.269371
0.008128 -0.395897 -0.103407
-0.818596 -0.710172 0.184712
-0.152690 0.843843 -0.678538
0.860211 0.025909 0.726906
0.004826 0.247150 -0.059924
0.942270 -0.285024 0.811576
-0.482329 -0.447508 0.044374
0.009090 0.006354 0.022072
0.719062 -0.411354 0.324363
-0.103495 -0.312708 -0.131073
-0.441025 -0.094498 0.188102
0.710951 0.011467 0.452903
-0.220221 0.968628 -0.899453
0.061447 -0.553355 -0.317702
0.953054 -0.024048 0.922486
-0.627033 -0.700977 -0.038719
-0.397199 -0.300002 0.009428
-0.937861 0.434621 0.758913
-0.216325 -0.651076 -0.384096
-0.599633 0.162703 0.343522
0.360070 -0.166598 0.059450
-0.637357 -0.896841 -0.368193
0.349625 0.866150 -0.626734
-0.473049 -0.172794 0.192074
-0.289564 0.567853 -0.296731
-0.302279 -0.167373 0.065573
0.433504 0.874721 -0.551836
-0.066981 -0.419059 -0.178213
-0.277402 -0.175539 0.081364
0.705245 0.517729 0.263315
0.143901 -0.312665 -0.096285
-0.572338 -0.271286 0.301829
0.800183 0.989646 -0.337749
-0.314699 0.111229 0.088156
-0.922041 0.378761 0.709670
-0.010800 0.286924 -0.080130
-0.752124 0.655848 0.056649
-0.523067 0.723650 -0.255636
0.494222 0.126512 0.187331
-0.738496 -0.410888 0.425338
0.613888 -0.954400 -0.486437
0.873815 0.228806 0.736758
0.213064 0.650938 -0.385478
0.420718 -0.098920 0.136978
0.427173 -0.670588 -0.286938
0.985616 -0.423836 0.850081
-0.316923 0.019978 0.079275
-0.674287 0.673362 -0.069422
0.038334 -0.656494 -0.398609
0.066500 0.224300 -0.000873
-0.644175 0.506737 0.207955
0.226219 0.872095 -0.678224
-0.971751 -0.766593 0.392680
0.855337 0.852783 0.005950
-0.470851 0.202935 0.118230
-0.920880 0.533403 0.564337
-0.783501 -0.892451 -0.163947
-0.519502 0.012296 0.265673
-0.452188 0.245259 0.138896
-0.934380 -0.386332 0.694890
-0.441290 -0.136700 0.145998
-0.614117 0.108596 0.420490
-0.242758 0.105096 0.104117
-0.229665 -0.916277 -0.786897
-0.321985 -0.121036 0.097470
-0.344152 -0.572364 -0.238585
-0.820537 0.833390 -0.001980
-0.949590 0.953160 0.045997
-0.595771 -0.400706 0.148501
0.513299 -0.649629 -0.144626
0.981620 -0.560992 0.665036
0.857052 -0.044495 0.748387
0.008439 0.749011 -0.511662
0.063648 0.000072 0.065132
-0.370837 -0.889216 -0.660189
0.547879 -0.920229 -0.526455
0.529513 -0.545218 -0.014351
0.688545 0.685543 -0.014838
0.791009 0.242961 0.574790
-0.131302 0.125916 0.021530
0.533751 -0.362061 0.160310
0.612797 0.858851 -0.388539
-0.383081 -0.337644 0.018841
0.858485 0.669889 0.274567
-0.811317 0.791807 0.006004
0.988538 -0.033330 0.985503
0.540181 0.788579 -0.317517
-0.813458 -0.446393 0.491833
0.312459 0.316867 -0.028502
-0.931641 -0.824072 0.171535
0.540374 -0.052132 0.335923
0.598446 -0.565336 0.033597
0.204820 -0.874473 -0.721848
0.713721 -0.992549 -0.481009
-0.804233 -0.350496 0.557935
-0.448152 0.179061 0.203932
-0.171645 -0.089539 0.054841
-0.915084 -0.396461 0.680994
-0.103568 0.982400 -0.980557
-0.469573 0.879050 -0.494474
-0.214530 -0.748693 -0.488829
-0.149795 -0.169785 -0.020088
0.758823 0.297694 0.529906
-0.459318 0.466982 -0.023167
0.787486 -0.267256 0.591030
-0.148058 0.492564 -0.176349
-0.344385 -0.751700 -0.474097
0.005024 -0.336375 -0.095670
-0.164513 0.432866 -0.136843
-0.485255 0.251366 0.250735
0.005359 0.674420 -0.477083
-0.696397 -0.906286 -0.293410
-0.296140 -0.651217 -0.335864
0.131580 -0.903011 -0.835356
-0.173184 -0.615772 -0.352782
0.647825 -0.991434 -0.563191
-0.486556 0.008421 0.204900
0.939543 0.056629 0.888900
0.569444 0.315784 0.253282
0.935186 -0.230175 0.828738
0.676273 -0.993585 -0.546120
-0.715792 0.347782 0.386952
0.052920 -0.891418 -0.791961
-0.660043 0.732341 -0.094147
0.636455 -0.954692 -0.473067
0.168324 0.060950 0.032776
-0.473101 0.789836 -0.442097
0.859198 0.144979 0.700333
-0.769628 0.216833 0.550291
0.127725 0.363222 -0.081893
0.442081 -0.755182 -0.335929
-0.882303 0.349854 0.709301
0.195712 0.760710 -0.536458
0.631802 0.948442 -0.477468
-0.864945 -0.113896 0.691524
0.024486 -0.310990 -0.083219
-0.482886 0.506619 -0.055742
0.325849 0.085749 0.096949
-0.762645 -0.485391 0.436919
0.874103 -0.655684 0.343241
0.789457 -0.659539 0.162336
-0.628051 -0.081646 0.400016
-0.353468 -0.659751 -0.325844
0.175270 -0.960562 -0.920782
0.436125 -0.895822 -0.549199
-0.114688 0.859769 -0.694045
-0.687417 -0.854077 -0.246539
-0.791697 -0.853639 -0.113669
0.999531 -0.097623 0.980208
-0.089296 -0.509799 -0.205647
0.745063 0.925388 -0.292025
-0.035248 0.821972 -0.766879
0.844715 -0.190514 0.749877
-0.824481 -0.102537 0.674747
-0.771962 -0.249773 0.543839
0.859264 -0.924268 -0.083335
0.894986 -0.414306 0.643312
-0.370565 -0.754653 -0.409775
-0.289670 -0.795259 -0.561240
-0.095100 0.121723 -0.042666
-0.167677 -0.802470 -0.607436
-0.619910 -0.794137 -0.203418
0.796751 -0.038973 0.613859
-0.493385 -0.115435 0.208263
0.410545 -0.724730 -0.320057
-0.865689 -0.991102 -0.246584
-0.922497 -0.614051 0.461626
0.307461 -0.528215 -0.195674
-0.321968 0.600497 -0.258882
0.310919 0.830877 -0.640895
-0.811958 -0.188111 0.607709
0.899703 -0.189947 0.780296
0.497029 0.424963 0.073142
0.752534 0.253844 0.536611
-0.727059 -0.631720 0.184727
-0.359678 -0.784622 -0.440888
-0.263312 -0.124776 0.081204
0.074345 0.129657 -0.015746
-0.406263 -0.722585 -0.375771
-0.878739 -0.413453 0.601774
-0.262243 -0.388114 -0.064294
-0.490901 -0.477404 0.037728
-0.228157 -0.078477 0.064590
-0.606081 0.306127 0.269985
-0.476207 0.018780 0.250027
0.253905 -0.597087 -0.254219
-0.223692 -0.794122 -0.554187
-0.309233 0.643741 -0.319738
0.067811 -0.041391 -0.022130
0.543721 -0.875722 -0.496983
-0.242264 -0.483757 -0.195765
0.175039 0.608068 -0.331395
0.932405 0.503453 0.631509
0.043960 0.751633 -0.605456
0.819595 0.204176 0.614929
0.587345 -0.154188 0.328499
-0.882563 -0.146730 0.730397
-0.141802 -0.612000 -0.341419
0.396637 0.301598 0.057137
0.973424 0.170138 0.896905
-0.083247 -0.690271 -0.467948
-0.814429 0.771326 0.080120
0.124018 -0.263064 -0.079278
-0.746872 -0.900522 -0.260401
0.503039 -0.344238 0.148579
0.015354 0.739713 -0.569803
0.446863 0.833913 -0.545458
0.738724 -0.019203 0.499247
0.257896 0.912680 -0.779016
0.224879 0.750484 -0.552208
0.509141 0.650461 -0.174308
0.684910 0.719420 0.001485
0.738108 -0.236249 0.447631
-0.927140 0.512938 0.588004
0.112381 0.154678 0.052673
-0.567461 0.439368 0.141212
0.720692 -0.644428 0.093078
0.296795 0.462788 -0.130792
-0.159555 0.915185 -0.799225
-0.623792 -0.394673 0.284222
-0.321953 0.972323 -0.857683
0.407555 -0.243248 0.084204
-0.591281 -0.600553 -0.052415
-0.812834 -0.775428 0.062504
0.776058 0.569924 0.235281
0.528421 0.109651 0.253292
-0.600410 -0.385737 0.184438
-0.415377 0.216901 0.157716
0.944140 -0.335798 0.763389
0.416369 -0.103284 0.174603
0.221044 0.725328 -0.525363
-0.384743 0.336333 0.038853
-0.401750 0.524804 -0.150111
-0.920953 0.166987 0.807500
0.456964 0.982796 -0.690736
-0.913650 -0.517180 0.595246
-0.990285 -0.475418 0.750791
0.458990 -0.814882 -0.357393
0.897748 0.108039 0.766823
0.513006 0.226718 0.246730
-0.056720 0.451923 -0.246998
-0.027910 -0.329108 -0.114851
-0.127727 -0.975486 -0.975693
-0.350713 0.264459 0.060779
0.043428 0.997391 -0.991224
-0.137698 -0.410901 -0.159109
0.196336 -0.632131 -0.328280
0.796240 -0.436466 0.426483
0.990019 -0.149169 0.967691
-0.842513 -0.498174 0.486268
-0.230633 -0.306080 -0.084990
-0.638588 0.276413 0.308937
-0.295759 -0.309944 -0.006976
-0.425054 -0.207882 0.156361
-0.650926 -0.919937 -0.379944
0.528152 0.835885 -0.426235
-0.007423 -0.186228 -0.044120
0.838491 -0.343713 0.558751
-0.934815 -0.827032 0.199798
-0.866044 0.268366 0.669098
-0.193453 0.727650 -0.500271
-0.839445 -0.917694 -0.140310
-0.474541 -0.709455 -0.261589
0.972059 -0.707220 0.427827
-0.582081 0.204550 0.273813
-0.603765 0.842461 -0.332257
0.147281 -0.124463 -0.084571
-0.004003 -0.312387 -0.115680
0.160877 0.531681 -0.291343
-0.246529 0.485138 -0.138484
0.653525 -0.506488 0.157337
-0.722839 -0.678347 0.045520
-0.143215 -0.284380 -0.061820
0.379524 0.551207 -0.177652
0.736473 0.390127 0.378114
-0.260857 0.331707 -0.039070
0.135491 0.658857 -0.428396
-0.861720 -0.445739 0.531001
-0.659362 -0.320633 0.301648
-0.861724 -0.915321 -0.129859
0.455762 0.737492 -0.334356
-0.423880 0.164859 0.161694
0.447491 -0.403755 -0.005615
-0.867203 -0.861167 0.033232
0.725096 0.446819 0.349038
0.671060 0.497475 0.232081
-0.822143 0.332357 0.574454
-0.952487 -0.592438 0.575361
-0.887422 0.826432 0.170079
0.707260 0.506316 0.234816
-0.530593 0.315513 0.150610
0.096547 0.301888 -0.127837
-0.147512 0.808715 -0.579591
0.591051 0.856614 -0.331383
-0.022203 0.191275 -0.063831
0.001322 -0.166661 -0.049594
0.978184 -0.272532 0.872850
-0.699741 0.638158 0.119120
0.661408 0.289211 0.315199
-0.896501 -0.845468 0.029899
-0.044702 -0.715628 -0.445100
0.772670 0.800372 -0.034205
0.330428 0.768996 -0.468540
0.370429 0.903665 -0.685546
-0.473365 -0.144298 0.217226
-0.162850 0.568122 -0.341668
-0.266838 0.656450 -0.384952
0.042886 -0.368606 -0.130877
-0.075544 -0.709325 -0.565561
-0.346203 0.994053 -0.877360
-0.389039 -0.939562 -0.742350
-0.498294 0.194672 0.201319
-0.269906 0.300425 -0.033938
-0.700117 0.363579 0.328098
0.744209 -0.488744 0.260314
0.204239 0.443158 -0.150334
-0.732427 -0.567201 0.205729
0.387719 0.658077 -0.323997
0.695333 -0.561767 0.169782
-0.524929 0.393412 0.111929
-0.698799 0.566827 0.153196
-0.982765 -0.622109 0.514102
-0.905499 -0.524027 0.565808
0.524503 0.558207 -0.073484
0.974373 -0.828002 0.265713
-0.910239 -0.618478 0.421772
0.496142 -0.088938 0.226585
-0.856276 0.860364 0.027551
0.184266 0.123756 0.034587
0.512151 -0.224644 0.245734
-0.281591 0.956740 -0.826147
-0.978131 -0.072577 0.963356
0.190379 -0.132530 -0.034754
0.982489 -0.176711 0.924532
-0.484765 -0.375640 0.087145
-0.621017 -0.348610 0.300843
-0.752148 0.375674 0.409409
0.110511 -0.918329 -0.823169
0.192890 0.363633 -0.088250
0.584542 -0.597591 0.019304
0.506147 -0.231584 0.198541
0.785083 -0.706922 0.141450
0.611545 0.105502 0.311711
-0.505466 0.458701 -0.003331
0.111755 -0.290689 -0.140511
-0.405176 -0.673167 -0.265406
-0.340429 -0.546989 -0.163095
0.863889 0.636226 0.368425
0.363792 -0.464703 -0.103925
0.949181 0.549405 0.582192
-0.166175 -0.337601 -0.089992
0.074875 -0.622535 -0.338632
-0.025769 0.454617 -0.155198
-0.785426 -0.062910 0.636750
-0.526596 -0.937446 -0.591570
0.055273 0.919885 -0.803072
-0.865251 -0.704493 0.244674
0.862924 -0.293186 0.646951
-0.752313 -0.230411 0.509015
-0.604039 -0.021140 0.335054
0.530642 0.570888 -0.049582
-0.806131 -0.987819 -0.359462
0.800556 0.864944 -0.076488
0.451402 0.291979 0.134823
-0.862758 0.901298 -0.025099
0.383694 0.634779 -0.304602
0.263257 0.855676 -0.605827
0.514699 0.202001 0.176936
0.656396 -0.285382 0.313463
0.436701 -0.114172 0.159048
0.172353 0.316065 -0.030960
-0.355073 -0.146136 0.111488
0.394547 0.463346 -0.066336
0.913943 -0.816304 0.145161
0.175044 0.659973 -0.446203
0.328690 -0.591623 -0.208002
-0.125744 0.887895 -0.748587
0.512242 -0.688908 -0.171630
0.995335 -0.741672 0.452519
-0.679221 0.623752 -0.006988
-0.595189 0.637404 -0.089370
0.078876 0.477519 -0.207857
-0.037249 0.921061 -0.858057
0.143140 -0.458921 -0.206885
-0.901852 0.653297 0.353442
-0.191447 -0.295919 -0.022488
0.165957 0.074797 0.035633
0.170383 -0.108800 0.032229
0.314668 -0.988300 -0.896729
0.440432 0.148924 0.177091
0.283094 0.495012 -0.205027
0.580486 -0.650895 -0.090595
0.249521 0.863312 -0.758884
0.075015 0.060799 -0.045113
0.212393 -0.643508 -0.378661
-0.797613 0.291895 0.622238
-0.453687 -0.616155 -0.227837
0.054800 -0.872933 -0.796317
0.745974 0.370630 0.425614
0.358103 -0.778610 -0.424913
-0.819184 -0.787565 0.056869
0.184550 0.479887 -0.175169
-0.556524 -0.889596 -0.491789
0.468033 0.619538 -0.180091
0.654882 0.592297 0.080519
0.186913 -0.717213 -0.499207
0.182725 0.036761 0.053765
-0.322817 -0.806749 -0.594821
-0.107500 0.265142 -0.032045
0.728217 -0.874140 -0.232642
0.446641 0.888962 -0.597207
0.039507 -0.584539 -0.389414
-0.263535 0.365789 -0.093745
-0.899240 -0.743417 0.291924
-0.713985 -0.580807 0.166180
-0.613950 -0.098101 0.375662
-0.253233 0.146192 0.016369
0.888287 0.997727 -0.207275
0.010307 -0.948148 -0.940042
-0.530320 -0.999371 -0.714507
-0.788500 -0.299266 0.543291
-0.323389 -0.267687 0.042542
0.631461 0.767674 -0.217688
-0.233314 0.825165 -0.636723
0.545012 0.761050 -0.266044
0.605410 -0.713642 -0.149108
-0.778358 -0.175790 0.566320
0.217320 0.491770 -0.137506
0.918192 -0.374778 0.674089
-0.195724 0.326476 -0.035866
-0.898112 -0.525714 0.495589
0.846605 -0.353161 0.611661
0.767333 0.720859 0.090406
0.044283 -0.498982 -0.262333
0.104506 0.928648 -0.887990
-0.576518 -0.387481 0.123118
0.638902 -0.952944 -0.518360
-0.002800 -0.490198 -0.224500
-0.932244 -0.657590 0.404326
0.366030 0.013654 0.136700
0.900993 -0.774568 0.167539
0.658301 0.252098 0.362790
-0.445604 0.749798 -0.398046
-0.893350 -0.274962 0.720130
0.880703 -0.663015 0.321017
0.874125 -0.199950 0.688404
0.064831 0.571934 -0.342671
0.284635 0.182975 0.019512
-0.074800 -0.797714 -0.670170
-0.160469 0.074374 0.052701
-0.761103 -0.063829 0.564399
-0.806494 -0.345775 0.464805
-0.534536 -0.779679 -0.340869
0.673281 0.962224 -0.445125
-0.708335 -0.647913 0.059107
-0.546603 -0.614514 -0.033921
0.097228 -0.708835 -0.518693
-0.569738 0.140386 0.319995
-0.673587 -0.112661 0.472126
0.126632 -0.500886 -0.221345
-0.263813 -0.141153 0.008438
0.252319 0.347044 -0.085049
0.824411 -0.436599 0.524136
-0.698014 0.830492 -0.226631
0.826867 -0.387308 0.562973
0.804980 -0.603642 0.270701
0.658175 0.909136 -0.389090
0.262572 0.621121 -0.358431
0.240293 -0.313725 -0.058930
0.278425 0.682864 -0.415041
0.380991 0.037628 0.150506
-0.967036 -0.306495 0.844015
0.916185 0.679223 0.391931
0.171208 0.504330 -0.239753
0.562932 -0.404250 0.125567
-0.245436 0.213357 0.020200
-0.975206 -0.261220 0.851903
0.019469 -0.997896 -0.963065
0.014380 0.923631 -0.856324
-0.126021 0.099258 -0.003755
-0.320566 0.196865 0.077872
-0.500348 0.199783 0.208144
0.055090 0.101283 -0.056965
-0.249444 -0.419904 -0.145940
0.939864 0.943152 0.025539
-0.654145 0.243337 0.371210
-0.360669 0.341843 -0.037221
-0.412079 -0.090414 0.172198
0.086618 -0.424277 -0.189286
-0.001439 -0.871302 -0.785400
0.287481 -0.299540 -0.041425
0.900004 -0.647805 0.420353
-0.429558 0.324177 0.020465
0.385543 0.758008 -0.451058
-0.949920 -0.394490 0.750328
-0.475223 -0.334235 0.161475
-0.072561 0.340729 -0.094215
-0.938010 -0.701457 0.362441
0.235339 0.858875 -0.636401
0.356621 -0.272306 0.012374
0.493463 -0.797601 -0.384701
0.033149 -0.650632 -0.407590
0.207889 0.865492 -0.732292
-0.207869 -0.505761 -0.191657
-0.917494 0.324538 0.721054
-0.800096 -0.687670 0.188119
0.309992 -0.611797 -0.333388
0.991111 0.758476 0.417063
-0.968394 -0.703934 0.429900
0.115167 -0.962499 -0.878649
0.502017 0.002466 0.250696
0.653550 0.725454 -0.061679
0.090410 -0.348018 -0.097714
0.239832 -0.743675 -0.499359
0.393450 0.964462 -0.751753
0.717933 0.353477 0.414303
-0.755421 0.701381 0.092882
0.852364 0.504277 0.403461
-0.947965 0.396485 0.711961
0.672400 -0.230872 0.440342
-0.846519 -0.351320 0.555491
-0.610744 0.433917 0.211197
-0.992212 0.433426 0.817820
-0.109487 0.901177 -0.821905
-0.331282 0.137320 0.031034
-0.668014 -0.410758 0.260454
-0.097820 -0.020942 0.071471
-0.195258 0.227428 -0.039496
0.535322 -0.146540 0.241268
0.786261 0.582266 0.249244
0.305135 0.169226 0.100913
-0.751179 -0.981129 -0.405630
-0.409218 0.139680 0.129172
0.826637 0.267208 0.654332
-0.822531 0.830522 0.004174
-0.186288 -0.172557 -0.022651
0.885009 0.148935 0.724352
0.901330 -0.050005 0.844640
-0.177594 0.063313 0.028035
0.334794 -0.865392 -0.683288
-0.086509 0.794567 -0.677347
0.506921 0.820825 -0.450265
-0.936837 0.096119 0.831241
-0.711686 0.113111 0.432320
0.228398 -0.884888 -0.763846
-0.534895 0.195901 0.220164
0.332105 -0.141696 0.076335
-0.297554 0.418087 -0.035471
0.773291 -0.905750 -0.230410
0.638519 0.421775 0.224785
-0.014324 -0.426212 -0.166174
0.545790 0.303411 0.198709
-0.457724 0.254252 0.156872
-0.011480 -0.546317 -0.289912
-0.605036 -0.119095 0.355562
0.721772 0.671266 0.153351
0.646135 0.211183 0.400226
0.804299 -0.862523 -0.129501
0.754954 -0.114182 0.568025
0.919193 -0.376457 0.679443
-0.543328 0.283291 0.228338
0.863649 0.229128 0.652134
0.142426 -0.979204 -0.971788
-0.155010 0.215391 -0.012048
0.120748 0.469699 -0.176107
-0.314795 0.537460 -0.174688
-0.422894 -0.882048 -0.573547
-0.517371 -0.392683 0.124688
-0.835144 -0.157453 0.677849
-0.006870 -0.640457 -0.425248
0.775523 -0.158532 0.600694
0.260304 -0.857741 -0.637215
0.041951 -0.773565 -0.598537
-0.142814 0.337390 -0.096944
-0.071197 -0.474855 -0.172676
-0.581445 0.422812 0.158696
0.645872 -0.903783 -0.397403
-0.603234 0.125406 0.362691
0.433246 -0.217103 0.137634
0.519970 0.593943 -0.107009
0.149738 0.567903 -0.288754
0.725853 -0.248881 0.463758
-0.417899 0.245428 0.169672
0.763234 -0.544902 0.309262
0.458821 0.160814 0.166791
0.597500 -0.837471 -0.322479
0.329159 -0.130791 0.100475
0.692686 -0.634545 0.116450
0.986198 0.766762 0.368928
-0.159674 -0.110198 0.019012
0.627831 0.181547 0.358240
0.489160 -0.279236 0.163059
-0.094260 -0.422518 -0.196192
0.853898 -0.594160 0.393393
-0.211148 0.823743 -0.621430
0.130932 0.598932 -0.303019
-0.788115 -0.733478 0.082835
-0.548450 0.493450 0.044949
0.681392 -0.162938 0.461425
-0.206895 -0.969207 -0.920382
-0.211832 0.056735 0.074203
-0.508038 -0.739907 -0.256875
-0.016779 -0.580131 -0.298552
0.611634 0.392082 0.231667
0.790328 -0.485716 0.374104
-0.859771 0.783776 0.128177
0.149641 0.314340 -0.065015
-0.065453 0.664567 -0.454169
0.228564 0.230379 0.039160
-0.105449 0.737699 -0.515678
-0.202710 -0.276631 -0.062200
-0.056239 0.098281 0.049990
0.163998 0.031781 0.028807
0.001966 0.807581 -0.685007
-0.055711 -0.670169 -0.470931
0.635671 0.156122 0.424337
0.491296 0.508862 0.037180
-0.317243 -0.259900 0.063379
0.601154 0.735163 -0.139499
0.707301 -0.253970 0.472273
-0.693016 -0.653382 0.070069
0.165365 0.168097 0.008960
-0.429376 -0.158864 0.175322
0.478345 -0.969620 -0.689268
-0.522429 -0.860323 -0.489471
0.342807 -0.609446 -0.231949
-0.489751 0.538660 -0.006540
0.022288 0.784079 -0.620474
0.897293 0.091282 0.787405
-0.237385 -0.788869 -0.551666
0.751477 0.068838 0.540489
0.973889 0.711211 0.403135
0.749702 0.498955 0.347528
-0.668268 -0.417804 0.258494
0.639316 -0.752219 -0.156554
-0.935701 0.801363 0.215050
-0.213396 0.708178 -0.417675
0.741467 -0.892569 -0.221312
0.377504 0.647349 -0.283773
0.065481 -0.805575 -0.680060
-0.224272 -0.873433 -0.722995
0.624594 0.517202 0.139724
0.419117 0.072621 0.176044
-0.063189 -0.170904 -0.021942
0.784969 0.807724 -0.029892
-0.540104 0.678607 -0.146031
-0.659217 -0.884753 -0.349477
0.285608 0.232174 0.041167
0.943989 0.544535 0.564989
-0.505487 0.100981 0.321935
-0.500659 0.966011 -0.691033
-0.721002 0.372095 0.387497
0.721127 -0.791714 -0.089793
-0.547205 -0.603404 -0.076987
0.006357 0.652491 -0.425470
0.981745 0.993513 -0.023375
-0.975718 -0.803321 0.279279
0.112972 -0.799341 -0.613026
0.024578 0.526774 -0.326364
0.614895 -0.871291 -0.328472
-0.289437 -0.862880 -0.636999
-0.179317 0.777633 -0.553385
-0.664124 0.600900 0.027881
0.481630 0.763126 -0.374170
0.569418 0.301027 0.275300
-0.726673 -0.354927 0.526618
-0.213086 0.812626 -0.579115
0.785810 -0.402553 0.486557
-0.994585 -0.448978 0.803368
-0.402482 0.772801 -0.460654
0.110085 0.361645 -0.088813
-0.331812 0.791344 -0.549162
-0.455910 -0.688197 -0.302080
-0.079925 0.904594 -0.850107
-0.636954 0.225484 0.384139
0.059250 0.336070 -0.111155
0.413392 0.828121 -0.511866
0.150590 -0.238494 -0.034664
-0.813781 0.439150 0.435616
0.688817 0.280681 0.375565
-0.650044 0.575505 0.072738
0.529624 0.793886 -0.391911
-0.278870 0.360122 -0.067046
0.565523 -0.864721 -0.460366
-0.587454 -0.633719 -0.039167
-0.626676 0.907956 -0.411833
-0.005948 0.937301 -0.917307
-0.934128 0.934827 -0.010205
-0.549405 -0.926401 -0.500691
0.448025 -0.235104 0.116029
0.674767 0.519345 0.198390
-0.838429 0.505772 0.450324
0.764155 -0.828182 -0.069166
0.595034 0.218978 0.314979
0.739369 -0.714261 0.023559
0.396857 -0.013581 0.159314
0.348306 -0.520629 -0.147296
0.050186 -0.893678 -0.798892
0.305574 -0.839961 -0.651732
0.838219 0.821786 0.064572
-0.798956 0.489292 0.430917
-0.368471 0.863648 -0.641443
-0.855090 -0.060020 0.718555
0.889610 -0.173415 0.754581
-0.109469 -0.283185 -0.102906
0.350689 0.232614 0.012869
0.682240 -0.296881 0.357195
0.982000 0.492546 0.711031
-0.676435 0.602635 0.051159
0.599025 0.751689 -0.200896
0.774846 -0.514398 0.370666
-0.902249 0.054044 0.836396
0.508181 -0.553111 -0.051484
-0.290549 -0.924888 -0.826212
0.297194 0.415651 -0.062970
0.028096 0.097963 -0.004415
-0.480516 0.447855 0.043052
-0.729557 -0.824754 -0.089883
-0.766106 0.991052 -0.420011
-0.793354 0.988697 -0.434355
0.275580 -0.070000 0.039441
-0.297178 0.732117 -0.433100
-0.566733 -0.512863 0.058966
0.383770 0.475132 -0.114940
0.373699 0.758452 -0.478189
0.078337 0.629333 -0.400561
0.869916 0.623548 0.330558
-0.229172 -0.073947 0.062670
0.671726 0.639980 0.029299
-0.849721 0.381410 0.557739
0.479662 -0.735097 -0.333040
0.976895 -0.771631 0.366802
0.693196 0.543844 0.186033
0.159329 0.250928 -0.031520
0.253532 0.038752 0.068181
-0.293421 0.814524 -0.579519
0.358970 0.319181 -0.004010
0.540791 -0.207707 0.227401
0.996457 -0.172136 0.951455
-0.015074 0.210489 0.017878
-0.877392 0.520551 0.458378
0.191716 0.128707 0.007620
-0.761952 0.017522 0.583211
-0.510470 0.453801 0.045544
-0.342440 0.410529 -0.019050
0.462060 0.660694 -0.232272
-0.632384 -0.874896 -0.372571
-0.668494 0.509904 0.211321
-0.910071 0.027521 0.881794
0.746480 -0.850614 -0.124087
0.387011 0.358020 0.017499
-0.920107 0.433080 0.657553
-0.943415 0.047254 0.889201
0.117349 0.587598 -0.327091
-0.434931 -0.399504 0.004141
0.193453 -0.596186 -0.289915
-0.130792 -0.298532 -0.065817
0.846625 -0.179899 0.683065
-0.424382 0.391867 -0.011594
0.358291 0.691040 -0.347295
-0.891891 0.441836 0.543454
0.911721 -0.652025 0.388649
0.961515 -0.267566 0.836027
0.478149 -0.683173 -0.229488
-0.069575 0.373448 -0.078228
-0.560013 -0.503656 0.077102
0.625033 0.050774 0.431540
0.472708 0.583660 -0.097849
-0.556092 0.341879 0.226109
-0.097569 -0.403252 -0.097379
-0.074402 -0.334267 -0.128154
0.652821 0.306729 0.308180
0.367689 0.098935 0.145472
0.286335 -0.807213 -0.569715
0.299655 0.747983 -0.463075
-0.459060 0.025226 0.202640
-0.256577 -0.053278 0.045106
-0.908675 -0.603121 0.510559
0.573882 -0.246012 0.235823
-0.134004 -0.334350 -0.073241
-0.123523 -0.458529 -0.179264
-0.509287 0.134813 0.193829
-0.581145 -0.075449 0.307114
0.175644 0.778395 -0.594929
-0.534894 0.882688 -0.476089
-0.871582 -0.561053 0.433864
0.535015 -0.799789 -0.355989
-0.247061 0.570675 -0.308360
-0.239529 0.989723 -0.852400
-0.137363 0.727200 -0.507815
0.630090 -0.952605 -0.495474
-0.358326 -0.497473 -0.135300
0.516072 -0.913315 -0.587393
0.879090 0.641559 0.418582
0.321736 0.162814 0.019504
-0.136638 0.027437 0.026277
0.495579 0.108900 0.197395
-0.084205 -0.495097 -0.250181
-0.171145 0.203277 -0.031173
0.050566 -0.938666 -0.908116
-0.364555 0.292023 0.048686
-0.791500 0.468868 0.329594
-0.170296 0.346053 -0.100216
-0.752286 -0.335765 0.450488
-0.179117 0.652526 -0.434485
0.113867 0.431088 -0.127475
0.861422 -0.743405 0.171563
-0.927555 -0.609712 0.481486
0.242917 0.274217 -0.033953
-0.084530 -0.421168 -0.172684
-0.959478 -0.761134 0.380517
-0.500904 -0.690062 -0.151091
-0.763030 -0.668766 0.157336
-0.566412 -0.044418 0.351489
-0.450860 0.214771 0.208641
-0.197387 -0.647195 -0.372434
0.058079 0.424993 -0.130139
-0.998020 -0.437975 0.827994
-0.676261 -0.376884 0.319608
-0.812867 -0.553003 0.365451
0.099347 0.570412 -0.370143
-0.341850 0.919628 -0.720090
0.096795 -0.015000 -0.037168
-0.556353 -0.915939 -0.578173
-0.951541 -0.478861 0.681909
0.882734 -0.683899 0.278078
-0.783384 0.685525 0.143533
-0.746283 -0.830292 -0.128294
-0.706906 0.932952 -0.365192
0.962553 0.177028 0.868046
0.235320 0.035480 0.081077
0.220580 0.694701 -0.436631
0.973396 -0.944905 0.067888
-0.823122 0.554305 0.334383
0.949002 -0.766792 0.307285
-0.591974 0.681556 -0.081167
0.246143 0.058352 0.086287
-0.159833 -0.877741 -0.768802
-0.232096 0.666490 -0.406707
0.862487 -0.945372 -0.179505
-0.701545 -0.723259 -0.050631
0.994138 0.595649 0.591541
-0.241750 -0.070258 0.049362
0.297550 0.762777 -0.474299
0.935813 0.270859 0.778831
-0.884798 0.247058 0.719112
0.845729 -0.415530 0.535977
0.135623 -0.732639 -0.486713
0.408794 0.922345 -0.701955
-0.701632 -0.790405 -0.149709
0.066775 0.058021 -0.024288
0.347027 -0.454863 -0.120597
-0.087505 -0.471719 -0.198986
-0.690030 0.189172 0.436301
-0.511762 0.595868 -0.091514
0.708786 0.554359 0.233302
-0.931058 0.737603 0.362773
0.417724 -0.414195 -0.046451
0.998780 -0.068497 1.012305
-0.985034 -0.981331 0.014051
-0.677909 0.493715 0.201958
0.348289 -0.395314 -0.025138
-0.880018 0.122987 0.707515
0.179580 -0.661399 -0.361321
0.368000 0.638799 -0.257192
0.176293 0.634544 -0.397523
-0.269631 0.754906 -0.514744
0.394565 -0.908126 -0.720106
0.188589 0.984917 -0.943915
-0.584726 -0.504441 0.072961
0.126271 -0.381133 -0.169071
0.763814 -0.501329 0.355383
0.333667 -0.464935 -0.066527
-0.056417 0.105323 -0.008731
-0.356832 -0.520379 -0.152635
-0.828228 -0.212457 0.653872
-0.510746 0.311213 0.163418
-0.977627 0.672052 0.471634
0.973252 0.385483 0.779042
-0.555035 0.188646 0.263584
0.629752 -0.704543 -0.092348
-0.662710 0.632231 0.039749
-0.432798 -0.925450 -0.662833
-0.163445 -0.471617 -0.241453
-0.351189 -0.885882 -0.641497
0.596702 0.334858 0.244025
0.915387 -0.263258 0.845210
0.750589 0.304097 0.459280
-0.692844 -0.305938 0.396139
0.553377 -0.088519 0.383268
-0.704106 -0.084078 0.494519
0.826762 -0.908839 -0.144481
0.035757 -0.139547 -0.047802
-0.327238 0.282129 0.073336
-0.685949 0.092104 0.427270
-0.976382 -0.849432 0.244600
-0.504106 0.336112 0.126945
0.828040 -0.382274 0.533837
0.594524 -0.971130 -0.632353
0.939587 -0.688809 0.448661
-0.798477 -0.004881 0.629208
0.184357 -0.379197 -0.146255
-0.485699 0.388766 0.122345
0.085883 -0.518693 -0.276791
-0.359090 0.545592 -0.158687
-0.433069 -0.427046 0.030423
0.147691 0.241727 -0.022399
-0.633364 0.598433 -0.022871
-0.061733 -0.228888 -0.027718
0.301625 -0.906390 -0.733584
-0.743636 0.070891 0.538098
0.861189 0.990818 -0.243347
0.011449 0.937984 -0.927983
0.639056 -0.557956 0.102843
0.307811 0.511393 -0.207707
0.420002 -0.310096 0.071667
0.432262 -0.679455 -0.270121
0.750200 0.331829 0.484910
0.227211 0.001737 0.027033
-0.443566 0.078461 0.234142
-0.800981 0.654785 0.241232
0.212501 -0.326913 -0.074597
-0.867294 0.334190 0.607254
-0.517413 -0.267617 0.152783
-0.878586 -0.914552 -0.056340
0.097775 -0.243970 -0.072080
-0.679324 0.900069 -0.312663
0.220815 -0.033475 0.027253
0.581730 -0.783539 -0.302544
0.643761 0.375654 0.280322
-0.380913 0.926759 -0.734368
0.097909 0.815890 -0.655835
0.126022 0.143922 0.024748
-0.054226 -0.247439 -0.054769
0.310228 0.161355 0.073835
-0.579826 0.631862 -0.056897
0.958486 0.722475 0.345934
-0.803840 0.637688 0.251269
