ply
format ascii 1.0
element vertex 512
property float x
property float y
property float z
end_header
0.5358290672302246 -1.0339537858963013 2.155587673187256
0.5482392907142639 -1.0400722026824951 1.8714007139205933
0.5606495141983032 -1.046190619468689 1.5872137546539307
0.5730597376823425 -1.0523089170455933 1.303026795387268
0.5854699611663818 -1.058427333831787 1.018839716911316
0.5978801846504211 -1.0645456314086914 0.7346527576446533
0.6102904081344604 -1.0706640481948853 0.45046570897102356
0.6227006316184998 -1.0767823457717896 0.16627870500087738
0.6351108551025391 -1.0829007625579834 -0.1179083064198494
0.6475210785865784 -1.0890191793441772 -0.40209531784057617
0.6599313020706177 -1.0951374769210815 -0.6862823367118835
0.672341525554657 -1.1012558937072754 -0.9704693555831909
0.6847517490386963 -1.1073741912841797 -1.2546563148498535
0.6971619725227356 -1.1134926080703735 -1.5388433933258057
0.7095721960067749 -1.1196109056472778 -1.8230303525924683
0.7219824194908142 -1.1257293224334717 -2.107217311859131
0.16241152584552765 -0.9963045120239258 2.138470411300659
0.17482174932956696 -1.0024229288101196 1.854283332824707
0.18723197281360626 -1.008541226387024 1.5700963735580444
0.19964219629764557 -1.0146596431732178 1.2859092950820923
0.21205241978168488 -1.020777940750122 1.0017223358154297
0.22446264326572418 -1.026896357536316 0.7175353169441223
0.2368728667497635 -1.0330147743225098 0.43334829807281494
0.2492830902338028 -1.039133071899414 0.14916129410266876
0.2616932988166809 -1.045251488685608 -0.1350257247686386
0.2741035223007202 -1.0513697862625122 -0.4192127287387848
0.2865137457847595 -1.057488203048706 -0.7033997178077698
0.29892396926879883 -1.0636065006256104 -0.9875867366790771
0.31133419275283813 -1.0697249174118042 -1.2717738151550293
0.32374441623687744 -1.075843334197998 -1.555960774421692
0.33615463972091675 -1.0819616317749023 -1.8401477336883545
0.34856486320495605 -1.0880800485610962 -2.1243348121643066
-0.19571827352046967 -0.8841961622238159 2.120417594909668
-0.18330805003643036 -0.890314519405365 1.8362305164337158
-0.17089782655239105 -0.8964328765869141 1.5520434379577637
-0.15848760306835175 -0.9025512337684631 1.267856478691101
-0.14607737958431244 -0.9086695909500122 0.9836694598197937
-0.13366715610027313 -0.9147879481315613 0.6994824409484863
-0.12125693261623383 -0.9209063649177551 0.41529542207717896
-0.10884670913219452 -0.9270247220993042 0.13110841810703278
-0.09643648564815521 -0.9331430792808533 -0.1530785858631134
-0.08402625471353531 -0.9392614364624023 -0.4372656047344208
-0.071616031229496 -0.9453797936439514 -0.7214525938034058
-0.059205811470746994 -0.9514981508255005 -1.005639672279358
-0.04679558798670769 -0.9576165080070496 -1.2898266315460205
-0.03438536450266838 -0.9637349247932434 -1.574013590812683
-0.021975139155983925 -0.9698532819747925 -1.8582006692886353
-0.009564916603267193 -0.9759716391563416 -2.142387628555298
-0.5238984227180481 -0.7022184133529663 2.102168321609497
-0.5114881992340088 -0.7083367705345154 1.817981243133545
-0.4990779757499695 -0.7144551277160645 1.5337942838668823
-0.4866677522659302 -0.7205735445022583 1.2496072053909302
-0.47425752878189087 -0.7266919016838074 0.9654202461242676
-0.46184730529785156 -0.7328102588653564 0.6812332272529602
-0.44943708181381226 -0.7389286160469055 0.39704620838165283
-0.43702685832977295 -0.7450469732284546 0.11285918951034546
-0.42461663484573364 -0.7511653304100037 -0.17132782936096191
-0.41220641136169434 -0.7572836875915527 -0.4555148482322693
-0.39979618787765503 -0.7634021043777466 -0.7397018671035767
-0.3873859643936157 -0.7695204615592957 -1.0238888263702393
-0.3749757409095764 -0.7756388187408447 -1.3080759048461914
-0.3625655174255371 -0.7817571759223938 -1.592262864112854
-0.3501552939414978 -0.7878755331039429 -1.8764499425888062
-0.3377450704574585 -0.7939938902854919 -2.1606369018554688
-0.8086932301521301 -0.4578215479850769 2.084469795227051
-0.7962830066680908 -0.463939905166626 1.8002828359603882
-0.7838727831840515 -0.47005826234817505 1.516095757484436
-0.7714625597000122 -0.4761766493320465 1.2319087982177734
-0.7590523362159729 -0.4822950065135956 0.9477217197418213
-0.7466421127319336 -0.48841336369514465 0.6635347604751587
-0.7342318892478943 -0.4945317208766937 0.37934771180152893
-0.721821665763855 -0.5006501078605652 0.09516071528196335
-0.7094114422798157 -0.5067684650421143 -0.18902629613876343
-0.6970012187957764 -0.5128868222236633 -0.4732133150100708
-0.6845909953117371 -0.5190051794052124 -0.7574003338813782
-0.6721807718276978 -0.5251235365867615 -1.0415873527526855
-0.6597705483436584 -0.5312419533729553 -1.3257743120193481
-0.6473603248596191 -0.5373603105545044 -1.6099613904953003
-0.6349501013755798 -0.5434786677360535 -1.894148349761963
-0.6225398778915405 -0.5495970249176025 -2.178335428237915
-1.0384430885314941 -0.16101114451885223 2.0680465698242188
-1.0260329246520996 -0.1671295166015625 1.7838596105575562
-1.0136226415634155 -0.17324787378311157 1.4996726512908936
-1.001212477684021 -0.17936624586582184 1.2154855728149414
-0.9888021945953369 -0.1854846030473709 0.9312986135482788
-0.9763919711112976 -0.19160297513008118 0.6471115946769714
-0.9639817476272583 -0.19772133231163025 0.36292457580566406
-0.951571524143219 -0.20383970439434052 0.07873757928609848
-0.9391613006591797 -0.2099580615758896 -0.2054494321346283
-0.9267510771751404 -0.21607643365859985 -0.48963645100593567
-0.9143408536911011 -0.22219480574131012 -0.7738234400749207
-0.9019306302070618 -0.2283131629228592 -1.058010458946228
-0.8895204067230225 -0.23443153500556946 -1.3421974182128906
-0.8771101832389832 -0.24054989218711853 -1.6263844966888428
-0.8646999597549438 -0.2466682642698288 -1.9105714559555054
-0.8522897362709045 -0.25278663635253906 -2.194758415222168
-1.2037421464920044 0.17606131732463837 2.0535712242126465
-1.1913318634033203 0.1699429452419281 1.7693842649459839
-1.1789216995239258 0.16382458806037903 1.4851971864700317
-1.1665114164352417 0.15770621597766876 1.2010102272033691
-1.1541012525558472 0.1515878587961197 0.916823148727417
-1.141690969467163 0.14546948671340942 0.6326361894607544
-1.1292808055877686 0.13935112953186035 0.34844914078712463
-1.1168705224990845 0.13323275744915009 0.06426214426755905
-1.10446035861969 0.12711438536643982 -0.21992486715316772
-1.0920500755310059 0.12099602818489075 -0.5041118860244751
-1.0796399116516113 0.11487766355276108 -0.7882989048957825
-1.0672296285629272 0.10875929892063141 -1.0724859237670898
-1.0548194646835327 0.10264092683792114 -1.3566728830337524
-1.0424091815948486 0.09652256220579147 -1.6408599615097046
-1.029999017715454 0.0904041975736618 -1.9250469207763672
-1.01758873462677 0.08428583294153214 -2.2092339992523193
-1.2978228330612183 0.5395960807800293 2.0416362285614014
-1.2854126691818237 0.5334776639938354 1.7574491500854492
-1.2730023860931396 0.5273593068122864 1.473262071609497
-1.2605922222137451 0.5212409496307373 1.1890751123428345
-1.248181939125061 0.5151225924491882 0.9048880934715271
-1.2357717752456665 0.5090042352676392 0.6207010746002197
-1.2233614921569824 0.5028858780860901 0.33651405572891235
-1.210951328277588 0.49676749110221863 0.05232704058289528
-1.1985410451889038 0.49064913392066956 -0.2318599671125412
-1.1861308813095093 0.4845307767391205 -0.5160470008850098
-1.1737205982208252 0.478412389755249 -0.8002340197563171
-1.1613104343414307 0.47229403257369995 -1.0844210386276245
-1.1489001512527466 0.4661756753921509 -1.368607997894287
-1.136489987373352 0.4600573182106018 -1.6527950763702393
-1.124079704284668 0.45393893122673035 -1.9369820356369019
-1.1116695404052734 0.4478205740451813 -2.2211689949035645
-1.316833734512329 0.9147099256515503 2.0327298641204834
-1.304423451423645 0.9085915684700012 1.7485429048538208
-1.2920132875442505 0.9024732112884521 1.4643559455871582
-1.2796030044555664 0.8963547945022583 1.1801689863204956
-1.2671928405761719 0.8902364373207092 0.8959819078445435
-1.2547825574874878 0.8841180801391602 0.6117948889732361
-1.2423723936080933 0.8779997229576111 0.3276078999042511
-1.2299621105194092 0.871881365776062 0.04342088848352432
-1.2175519466400146 0.8657630085945129 -0.24076612293720245
-1.2051416635513306 0.8596446514129639 -0.5249531269073486
-1.192731499671936 0.8535262942314148 -0.809140145778656
-1.180321216583252 0.847407877445221 -1.0933271646499634
-1.1679110527038574 0.8412895202636719 -1.377514123916626
-1.1555007696151733 0.8351711630821228 -1.6617012023925781
-1.1430906057357788 0.8290528059005737 -1.9458881616592407
-1.1306803226470947 0.8229344487190247 -2.2300751209259033
-1.2599962949752808 1.2860456705093384 2.027217388153076
-1.2475860118865967 1.279927372932434 1.7430304288864136
-1.2351758480072021 1.2738089561462402 1.4588433504104614
-1.222765564918518 1.267690658569336 1.1746563911437988
-1.2103554010391235 1.261572241783142 0.8904693722724915
-1.1979451179504395 1.2554538249969482 0.6062823534011841
-1.185534954071045 1.249335527420044 0.3220953345298767
-1.1731246709823608 1.24321711063385 0.03790831193327904
-1.1607145071029663 1.2370988130569458 -0.24627870321273804
-1.1483042240142822 1.230980396270752 -0.5304657220840454
-1.1358940601348877 1.2248620986938477 -0.8146527409553528
-1.1234837770462036 1.2187436819076538 -1.0988397598266602
-1.111073613166809 1.21262526512146 -1.3830267190933228
-1.098663330078125 1.2065069675445557 -1.667213797569275
-1.0862531661987305 1.2003885507583618 -1.9514007568359375
-1.0738428831100464 1.1942702531814575 -2.2355878353118896
-1.129637598991394 1.638400912284851 2.0253241062164307
-1.11722731590271 1.6322824954986572 1.7411370277404785
-1.1048171520233154 1.626164197921753 1.456950068473816
-1.0924068689346313 1.620045781135559 1.1727629899978638
-1.0799967050552368 1.6139273643493652 0.8885760307312012
-1.0675864219665527 1.607809066772461 0.6043890118598938
-1.0551762580871582 1.601690649986267 0.3202019929885864
-1.0427659749984741 1.5955723524093628 0.03601498901844025
-1.0303558111190796 1.589453935623169 -0.24817201495170593
-1.0179455280303955 1.5833356380462646 -0.5323590040206909
-1.005535364151001 1.5772172212600708 -0.8165460228919983
-0.9931251406669617 1.571098804473877 -1.1007330417633057
-0.9807149171829224 1.5649805068969727 -1.3849201202392578
-0.9683046936988831 1.5588620901107788 -1.6691070795059204
-0.9558944702148438 1.5527437925338745 -1.953294038772583
-0.9434842467308044 1.5466253757476807 -2.237481117248535
-0.9310944676399231 1.9573500156402588 2.027127504348755
-0.9186842441558838 1.951231598854065 1.7429405450820923
-0.9062740206718445 1.945113182067871 1.4587534666061401
-0.8938637971878052 1.9389948844909668 1.1745665073394775
-0.8814535737037659 1.932876467704773 0.8903794884681702
-0.8690433502197266 1.9267581701278687 0.6061924695968628
-0.8566331267356873 1.9206397533416748 0.3220054507255554
-0.844222903251648 1.9145214557647705 0.03781844303011894
-0.8318126797676086 1.9084030389785767 -0.24636857211589813
-0.8194024562835693 1.9022846221923828 -0.5305556058883667
-0.80699223279953 1.8961663246154785 -0.8147425651550293
-0.7945820093154907 1.8900479078292847 -1.0989296436309814
-0.7821717858314514 1.8839296102523804 -1.383116602897644
-0.7697615623474121 1.8778111934661865 -1.6673036813735962
-0.7573513388633728 1.8716928958892822 -1.9514906406402588
-0.7449411153793335 1.8655744791030884 -2.235677719116211
-0.6724953651428223 2.229835271835327 2.0325539112091064
-0.660085141658783 2.2237167358398438 1.7483669519424438
-0.6476749181747437 2.2175984382629395 1.4641798734664917
-0.6352646946907043 2.211480140686035 1.179992914199829
-0.622854471206665 2.2053616046905518 0.895805835723877
-0.6104442477226257 2.1992433071136475 0.6116188764572144
-0.5980340242385864 2.193125009536743 0.3274318277835846
-0.5856238007545471 2.187006711959839 0.043244827538728714
-0.5732135772705078 2.1808881759643555 -0.24094218015670776
-0.5608033537864685 2.174769878387451 -0.5251291990280151
-0.5483931303024292 2.168651580810547 -0.8093162178993225
-0.5359829068183899 2.1625330448150635 -1.0935032367706299
-0.5235726833343506 2.156414747238159 -1.3776901960372925
-0.5111624598503113 2.150296449661255 -1.6618772745132446
-0.4987522065639496 2.1441781520843506 -1.9460642337799072
-0.4863419830799103 2.138059616088867 -2.2302513122558594
-0.36442726850509644 2.4447009563446045 2.0413811206817627
-0.35201704502105713 2.4385826587677 1.7571940422058105
-0.3396068215370178 2.432464122772217 1.473007082939148
-0.3271965980529785 2.4263458251953125 1.1888200044631958
-0.3147863745689392 2.420227527618408 0.9046330451965332
-0.3023761510848999 2.414108991622925 0.6204460263252258
-0.2899659276008606 2.4079906940460205 0.33625900745391846
-0.2775557041168213 2.401872396469116 0.05207199603319168
-0.265145480632782 2.395754098892212 -0.2321150153875351
-0.2527352571487427 2.3896355628967285 -0.5163020491600037
-0.24032503366470337 2.383517265319824 -0.8004890084266663
-0.22791481018066406 2.37739896774292 -1.0846760272979736
-0.21550458669662476 2.3712804317474365 -1.3688631057739258
-0.20309436321258545 2.3651621341705322 -1.6530500650405884
-0.19068413972854614 2.359043836593628 -1.937237024307251
-0.17827391624450684 2.3529255390167236 -2.221424102783203
-0.019502604380249977 2.5931506156921387 2.0532476902008057
-0.007092379964888096 2.5870323181152344 1.7690606117248535
0.005317843984812498 2.580913782119751 1.484873652458191
0.017728067934513092 2.5747954845428467 1.2006865739822388
0.0301382914185524 2.5686771869659424 0.9164996147155762
0.042548514902591705 2.562558650970459 0.6323125958442688
0.05495873838663101 2.5564403533935547 0.3481255769729614
0.06736896187067032 2.5503220558166504 0.06393855810165405
0.07977918535470963 2.544203758239746 -0.22024844586849213
0.09218940883874893 2.5380852222442627 -0.5044354796409607
0.10459963232278824 2.5319669246673584 -0.7886224985122681
0.11700985580682755 2.525848627090454 -1.0728094577789307
0.12942008674144745 2.5197300910949707 -1.3569965362548828
0.14183031022548676 2.5136117935180664 -1.6411834955215454
0.15424053370952606 2.507493495941162 -1.9253705739974976
0.16665075719356537 2.501375198364258 -2.20955753326416
0.3481574058532715 2.6691064834594727 2.0676677227020264
0.3605676293373108 2.6629881858825684 1.7834807634353638
0.3729778528213501 2.656869888305664 1.4992938041687012
0.3853880763053894 2.6507515907287598 1.215106725692749
0.3977982997894287 2.6446330547332764 0.9309197068214417
0.410208523273468 2.638514757156372 0.646732747554779
0.4226187467575073 2.6323964595794678 0.3625456988811493
0.43502897024154663 2.6262779235839844 0.07835870236158371
0.44743919372558594 2.62015962600708 -0.20582830905914307
0.45984941720962524 2.614041328430176 -0.49001532793045044
0.47225964069366455 2.6079230308532715 -0.7742023468017578
0.48466986417770386 2.601804494857788 -1.0583893060684204
0.49708008766174316 2.595686197280884 -1.3425763845443726
0.5094903111457825 2.5895678997039795 -1.6267633438110352
0.5219005346298218 2.583449363708496 -1.9109504222869873
0.5343107581138611 2.577331066131592 -2.1951375007629395
0.7235007286071777 2.669459342956543 2.0840511322021484
0.735910952091217 2.6633410453796387 1.7998641729354858
0.7483211755752563 2.6572225093841553 1.5156770944595337
0.7607313990592957 2.651104211807251 1.231490135192871
0.773141622543335 2.6449859142303467 0.947303056716919
0.7855518460273743 2.6388673782348633 0.6631160974502563
0.7979620695114136 2.632749080657959 0.378929078578949
0.8103722929954529 2.6266307830810547 0.094742052257061
0.8227825164794922 2.6205124855041504 -0.18944495916366577
0.8351927399635315 2.614393949508667 -0.47363197803497314
0.8476029634475708 2.6082756519317627 -0.7578189969062805
0.8600131869316101 2.6021573543548584 -1.042006015777588
0.8724234104156494 2.596038818359375 -1.3261929750442505
0.8848336338996887 2.5899205207824707 -1.6103800535202026
0.897243857383728 2.5838022232055664 -1.8945670127868652
0.9096540808677673 2.577683925628662 -2.1787540912628174
1.091160774230957 2.5941944122314453 2.10172700881958
1.1035709381103516 2.588075876235962 1.817539930343628
1.1159812211990356 2.5819575786590576 1.5333529710769653
1.1283913850784302 2.5758392810821533 1.2491658926010132
1.1408016681671143 2.56972074508667 0.9649789333343506
1.1532118320465088 2.5636024475097656 0.6807919144630432
1.1656221151351929 2.5574841499328613 0.39660489559173584
1.1780322790145874 2.551365852355957 0.11241788417100906
1.1904425621032715 2.5452473163604736 -0.1717691272497177
1.202852725982666 2.5391290187835693 -0.4559561312198639
1.21526300907135 2.533010721206665 -0.7401431202888489
1.2276731729507446 2.5268921852111816 -1.0243301391601562
1.2400834560394287 2.5207738876342773 -1.3085172176361084
1.2524936199188232 2.514655590057373 -1.592704176902771
1.2649039030075073 2.5085372924804688 -1.8768911361694336
1.2773140668869019 2.5024187564849854 -2.1610782146453857
1.4360854625701904 2.4463930130004883 2.119971513748169
1.448495626449585 2.440274477005005 1.8357845544815063
1.460905909538269 2.4341561794281006 1.5515975952148438
1.4733160734176636 2.4280378818511963 1.2674106359481812
1.4857263565063477 2.421919345855713 0.983223557472229
1.4981365203857422 2.4158010482788086 0.6990365386009216
1.5105468034744263 2.4096827507019043 0.41484954953193665
1.5229569673538208 2.403564453125 0.13066254556179047
1.5353672504425049 2.3974459171295166 -0.1535244733095169
1.5477774143218994 2.3913276195526123 -0.4377114772796631
1.5601876974105835 2.385209321975708 -0.7218984961509705
1.572597861289978 2.3790907859802246 -1.0060855150222778
1.585008144378662 2.3729724884033203 -1.2902724742889404
1.5974183082580566 2.366854190826416 -1.5744595527648926
1.6098285913467407 2.3607358932495117 -1.8586465120315552
1.6222387552261353 2.3546173572540283 -2.1428334712982178
1.7441534996032715 2.2321062088012695 2.138038158416748
1.756563663482666 2.2259879112243652 1.8538511991500854
1.76897394657135 2.219869375228882 1.5696641206741333
1.7813841104507446 2.2137510776519775 1.2854771614074707
1.7937943935394287 2.2076327800750732 1.0012900829315186
1.8062045574188232 2.20151424407959 0.717103123664856
1.8186148405075073 2.1953959465026855 0.4329161047935486
1.8310250043869019 2.1892776489257812 0.1487290859222412
1.843435287475586 2.183159351348877 -0.13545791804790497
1.8558454513549805 2.1770408153533936 -0.41964492201805115
1.8682557344436646 2.1709225177764893 -0.7038319110870361
1.880665898323059 2.164804220199585 -0.9880189299583435
1.8930761814117432 2.1586856842041016 -1.2722059488296509
1.9054863452911377 2.1525673866271973 -1.556393027305603
1.9178966283798218 2.146449089050293 -1.8405799865722656
1.9303067922592163 2.1403307914733887 -2.1247670650482178
2.0027525424957275 1.9601069688796997 2.155186891555786
2.015162944793701 1.9539886713027954 1.8709999322891235
2.0275731086730957 1.9478702545166016 1.586812973022461
2.0399832725524902 1.9417519569396973 1.3026258945465088
2.0523934364318848 1.9356335401535034 1.0184389352798462
2.0648038387298584 1.9295151233673096 0.7342519164085388
2.077214002609253 1.9233968257904053 0.45006489753723145
2.0896241664886475 1.9172784090042114 0.16587787866592407
2.102034330368042 1.9111601114273071 -0.1183091253042221
2.1144447326660156 1.9050416946411133 -0.4024961292743683
2.12685489654541 1.898923397064209 -0.686683177947998
2.1392650604248047 1.8928049802780151 -0.9708701372146606
2.151675224304199 1.8866865634918213 -1.2550572156906128
2.164085626602173 1.880568265914917 -1.5392441749572754
2.1764957904815674 1.8744498491287231 -1.823431134223938
2.188905954360962 1.8683315515518188 -2.1076180934906006
2.2012956142425537 1.6415311098098755 2.170715808868408
2.2137060165405273 1.6354126930236816 1.8865288496017456
2.226116180419922 1.6292942762374878 1.602341890335083
2.2385263442993164 1.6231759786605835 1.3181549310684204
2.250936508178711 1.6170575618743896 1.0339678525924683
2.2633469104766846 1.6109392642974854 0.7497808337211609
2.275757074356079 1.6048208475112915 0.4655938446521759
2.2881672382354736 1.5987025499343872 0.18140684068202972
2.300577402114868 1.5925841331481934 -0.10278017073869705
2.312987804412842 1.5864657163619995 -0.38696718215942383
2.3253979682922363 1.5803474187850952 -0.6711542010307312
2.337808132171631 1.5742290019989014 -0.9553412199020386
2.3502182960510254 1.568110704421997 -1.2395281791687012
2.362628698348999 1.5619922876358032 -1.5237152576446533
2.3750388622283936 1.555873990058899 -1.807902216911316
2.387449026107788 1.549755573272705 -2.0920891761779785
2.3316543102264404 1.2894208431243896 2.1839892864227295
2.344064712524414 1.2833025455474854 1.899802327156067
2.3564748764038086 1.2771841287612915 1.6156152486801147
2.368885040283203 1.2710658311843872 1.3314282894134521
2.3812952041625977 1.2649474143981934 1.0472412109375
2.3937056064605713 1.258829116821289 0.7630542516708374
2.406115770339966 1.2527107000350952 0.47886723279953003
2.4185259342193604 1.2465922832489014 0.19468021392822266
2.430936098098755 1.240473985671997 -0.08950679749250412
2.4433465003967285 1.2343555688858032 -0.3736938238143921
2.455756664276123 1.228237271308899 -0.6578808426856995
2.4681668281555176 1.222118854522705 -0.9420678019523621
2.480576992034912 1.2160005569458008 -1.2262548208236694
2.4929873943328857 1.209882140159607 -1.5104418992996216
2.5053975582122803 1.2037638425827026 -1.7946288585662842
2.517807722091675 1.1976454257965088 -2.0788159370422363
2.3884918689727783 0.9181919693946838 2.1944637298583984
2.400902032852173 0.91207355260849 1.9102766513824463
2.4133121967315674 0.9059551954269409 1.6260896921157837
2.425722599029541 0.8998368382453918 1.3419026136398315
2.4381327629089355 0.8937184810638428 1.057715654373169
2.45054292678833 0.8876001238822937 0.7735285758972168
2.4629530906677246 0.8814817667007446 0.4893415868282318
2.4753634929656982 0.8753634095191956 0.20515458285808563
2.4877736568450928 0.8692449927330017 -0.07903242856264114
2.5001838207244873 0.8631266355514526 -0.3632194399833679
2.512593984603882 0.8570082783699036 -0.6474064588546753
2.5250043869018555 0.8508899211883545 -0.9315934777259827
2.53741455078125 0.8447715640068054 -1.21578049659729
2.5498247146606445 0.8386532068252563 -1.4999674558639526
2.562234878540039 0.8325348496437073 -1.7841545343399048
2.5746452808380127 0.8264164328575134 -2.0683414936065674
2.369481086730957 0.5430423617362976 2.2017102241516113
2.3818912506103516 0.5369240045547485 1.9175231456756592
2.394301414489746 0.5308056473731995 1.6333361864089966
2.4067115783691406 0.5246872305870056 1.3491491079330444
2.4191219806671143 0.5185688734054565 1.0649621486663818
2.431532144546509 0.5124505162239075 0.7807751297950745
2.4439423084259033 0.5063321590423584 0.4965881407260895
2.456352472305298 0.5002138018608093 0.2124011218547821
2.4687628746032715 0.49409541487693787 -0.07178588956594467
2.481173038482666 0.4879770576953888 -0.35597288608551025
2.4935832023620605 0.4818587005138397 -0.6401599049568176
2.505993366241455 0.47574034333229065 -0.924346923828125
2.5184037685394287 0.4696219563484192 -1.2085338830947876
2.5308139324188232 0.4635035991668701 -1.4927209615707397
2.5432240962982178 0.45738524198532104 -1.7769079208374023
2.5556342601776123 0.4512668550014496 -2.0610949993133545
2.275400161743164 0.17933078110218048 2.205432176589966
2.2878105640411377 0.1732124239206314 1.9212452173233032
2.3002207279205322 0.16709405183792114 1.6370582580566406
2.3126308917999268 0.16097569465637207 1.3528711795806885
2.3250410556793213 0.1548573225736618 1.0686842203140259
2.337451457977295 0.14873896539211273 0.7844972014427185
2.3498616218566895 0.14262059330940247 0.5003101825714111
2.362271785736084 0.1365022361278534 0.21612316370010376
2.3746819496154785 0.13038386404514313 -0.06806384027004242
2.387092351913452 0.12426549941301346 -0.3522508442401886
2.3995025157928467 0.11814713478088379 -0.6364378333091736
2.411912679672241 0.11202877014875412 -0.920624852180481
2.4243228435516357 0.10591039806604385 -1.204811930656433
2.4367332458496094 0.09979203343391418 -1.4889988899230957
2.449143409729004 0.09367366880178452 -1.7731858491897583
2.4615535736083984 0.08755530416965485 -2.057372808456421
2.1101012229919434 -0.15805235505104065 2.205477476119995
2.122511386871338 -0.16417071223258972 1.921290397644043
2.1349217891693115 -0.1702890843153 1.6371034383773804
2.147331953048706 -0.17640744149684906 1.3529163599014282
2.1597421169281006 -0.18252581357955933 1.0687294006347656
2.172152280807495 -0.1886441707611084 0.7845423817634583
2.1845626831054688 -0.19476254284381866 0.5003553628921509
2.1969728469848633 -0.20088090002536774 0.2161683291196823
2.209383010864258 -0.206999272108078 -0.06801867485046387
2.2217931747436523 -0.21311764419078827 -0.35220569372177124
2.234203577041626 -0.21923600137233734 -0.6363927125930786
2.2466137409210205 -0.2253543734550476 -0.920579731464386
2.259023904800415 -0.23147273063659668 -1.2047667503356934
2.2714340686798096 -0.23759110271930695 -1.488953709602356
2.283844470977783 -0.24370945990085602 -1.773140788078308
2.2962546348571777 -0.24982783198356628 -2.0573277473449707
1.8803513050079346 -0.45529454946517944 2.201843738555908
1.8927615880966187 -0.4614129066467285 1.9176568984985352
1.9051717519760132 -0.4675312936306 1.633469820022583
1.9175820350646973 -0.47364965081214905 1.3492828607559204
1.9299921989440918 -0.4797680079936981 1.0650957822799683
1.9424024820327759 -0.4858863651752472 0.7809088230133057
1.9548126459121704 -0.49200475215911865 0.4967217743396759
1.9672229290008545 -0.4981231093406677 0.21253477036952972
1.979633092880249 -0.5042414665222168 -0.07165223360061646
1.992043375968933 -0.5103598237037659 -0.35583925247192383
2.004453659057617 -0.5164781808853149 -0.6400262713432312
2.0168638229370117 -0.5225965976715088 -0.9242132902145386
2.0292739868164062 -0.5287149548530579 -1.2084002494812012
2.041684150695801 -0.5348333120346069 -1.4925873279571533
2.0540945529937744 -0.540951669216156 -1.776774287223816
2.066504716873169 -0.5470700263977051 -2.0609612464904785
1.595556616783142 -0.7002267241477966 2.1946802139282227
1.6079667806625366 -0.7063450813293457 1.91049325466156
1.6203770637512207 -0.7124634385108948 1.6263062953948975
1.6327872276306152 -0.7185817956924438 1.3421193361282349
1.6451975107192993 -0.7247001528739929 1.0579322576522827
1.6576076745986938 -0.730818510055542 0.7737452387809753
1.670017957687378 -0.7369368672370911 0.48955824971199036
1.6824281215667725 -0.7430552244186401 0.20537124574184418
1.6948384046554565 -0.749173641204834 -0.0788157656788826
1.707248568534851 -0.7552919983863831 -0.3630027770996094
1.7196588516235352 -0.7614103555679321 -0.6471897959709167
1.7320690155029297 -0.7675287127494812 -0.9313768148422241
1.7444792985916138 -0.7736470699310303 -1.2155637741088867
1.7568894624710083 -0.7797654271125793 -1.4997508525848389
1.7692997455596924 -0.7858837842941284 -1.7839378118515015
1.781709909439087 -0.7920022010803223 -2.068124771118164
1.26737642288208 -0.8828212022781372 2.1842801570892334
1.2797865867614746 -0.888939619064331 1.9000930786132812
1.2921968698501587 -0.8950579762458801 1.6159061193466187
1.3046070337295532 -0.9011763334274292 1.3317190408706665
1.3170173168182373 -0.9072946906089783 1.047532081604004
1.3294274806976318 -0.9134130477905273 0.7633450627326965
1.341837763786316 -0.9195314049720764 0.4791580140590668
1.3542479276657104 -0.9256497621536255 0.1949710100889206
1.3666582107543945 -0.9317681193351746 -0.08921599388122559
1.379068374633789 -0.9378865361213684 -0.37340301275253296
1.3914786577224731 -0.9440048933029175 -0.6575900316238403
1.4038888216018677 -0.9501232504844666 -0.9417770504951477
1.4162991046905518 -0.9562416076660156 -1.225964069366455
1.4287092685699463 -0.9623599648475647 -1.5101510286331177
1.4411195516586304 -0.9684783220291138 -1.7943381071090698
1.453529715538025 -0.9745966792106628 -2.0785250663757324
0.9092466235160828 -0.9956027269363403 2.1710689067840576
0.9216568470001221 -1.0017210245132446 1.886881947517395
0.9340670704841614 -1.0078394412994385 1.6026949882507324
0.9464772939682007 -1.0139577388763428 1.3185079097747803
0.95888751745224 -1.0200761556625366 1.0343209505081177
0.9712977409362793 -1.0261945724487305 0.7501339316368103
0.9837079644203186 -1.0323128700256348 0.46594688296318054
0.9961181879043579 -1.0384312868118286 0.18175987899303436
1.0085283517837524 -1.044549584388733 -0.10242712497711182
1.0209386348724365 -1.0506680011749268 -0.3866141438484192
1.033348798751831 -1.056786298751831 -0.6708011627197266
1.0457590818405151 -1.062904715538025 -0.9549881815910339
1.0581692457199097 -1.0690231323242188 -1.2391752004623413
1.0705795288085938 -1.075141429901123 -1.523362159729004
1.0829896926879883 -1.081259846687317 -1.807549238204956
1.0953999757766724 -1.0873781442642212 -2.091736316680908
0.5358290672302246 -1.0339537858963013 2.155587673187256
0.5482392907142639 -1.0400722026824951 1.8714007139205933
0.5606495141983032 -1.046190619468689 1.5872137546539307
0.5730597376823425 -1.0523089170455933 1.303026795387268
0.5854699611663818 -1.058427333831787 1.018839716911316
0.5978801846504211 -1.0645456314086914 0.7346527576446533
0.6102904081344604 -1.0706640481948853 0.45046570897102356
0.6227006316184998 -1.0767823457717896 0.16627870500087738
0.6351108551025391 -1.0829007625579834 -0.1179083064198494
0.6475210785865784 -1.0890191793441772 -0.40209531784057617
0.6599313020706177 -1.0951374769210815 -0.6862823367118835
0.672341525554657 -1.1012558937072754 -0.9704693555831909
0.6847517490386963 -1.1073741912841797 -1.2546563148498535
0.6971619725227356 -1.1134926080703735 -1.5388433933258057
0.7095721960067749 -1.1196109056472778 -1.8230303525924683
0.7219824194908142 -1.1257293224334717 -2.107217311859131
