ply
format ascii 1.0
element vertex 512
property float x
property float y
property float z
end_header
-0.025200963020324707 1.0543086528778076 -1.353499174118042
-0.025200968608260155 1.0543086528778076 -1.1736445426940918
-0.025200974196195602 1.0543086528778076 -0.9937898516654968
-0.0252009779214859 1.0543086528778076 -0.8139352202415466
-0.02520098350942135 1.0543086528778076 -0.6340805888175964
-0.025200989097356796 1.0543086528778076 -0.45422598719596863
-0.025200994685292244 1.0543086528778076 -0.27437135577201843
-0.025200998410582542 1.0543086528778076 -0.09451671689748764
-0.02520100399851799 1.0543086528778076 0.08533791452646255
-0.025201009586453438 1.0543086528778076 0.26519253849983215
-0.025201015174388885 1.054308533668518 0.44504716992378235
-0.025201018899679184 1.054308533668518 0.6249018311500549
-0.02520102448761463 1.054308533668518 0.8047564625740051
-0.02520103007555008 1.054308533668518 0.9846110939979553
-0.025201035663485527 1.054308533668518 1.1644656658172607
-0.025201039388775826 1.054308533668518 1.344320297241211
-0.24032358825206757 1.0324327945709229 -1.353499174118042
-0.24032360315322876 1.0324327945709229 -1.1736445426940918
-0.24032360315322876 1.0324327945709229 -0.9937899112701416
-0.24032361805438995 1.0324327945709229 -0.8139352798461914
-0.24032361805438995 1.0324327945709229 -0.6340806484222412
-0.24032361805438995 1.0324327945709229 -0.45422598719596863
-0.24032363295555115 1.0324327945709229 -0.27437135577201843
-0.24032363295555115 1.0324327945709229 -0.09451672434806824
-0.24032363295555115 1.0324327945709229 0.08533790707588196
-0.24032364785671234 1.0324327945709229 0.26519253849983215
-0.24032364785671234 1.0324327945709229 0.44504716992378235
-0.24032364785671234 1.0324327945709229 0.6249017715454102
-0.24032366275787354 1.0324327945709229 0.8047564029693604
-0.24032366275787354 1.0324327945709229 0.9846110343933105
-0.24032366275787354 1.0324327945709229 1.1644656658172607
-0.24032367765903473 1.0324326753616333 1.344320297241211
-0.4466390907764435 0.9677008986473083 -1.353499174118042
-0.4466390907764435 0.9677008986473083 -1.1736445426940918
-0.4466390907764435 0.9677008986473083 -0.9937899112701416
-0.4466390907764435 0.9677008986473083 -0.8139352798461914
-0.4466390907764435 0.9677008986473083 -0.6340806484222412
-0.44663912057876587 0.9677008986473083 -0.45422598719596863
-0.44663912057876587 0.9677008986473083 -0.27437135577201843
-0.44663912057876587 0.9677008986473083 -0.09451673179864883
-0.44663912057876587 0.9677008986473083 0.08533789962530136
-0.44663912057876587 0.9677008390426636 0.26519253849983215
-0.44663912057876587 0.9677008390426636 0.44504716992378235
-0.44663915038108826 0.9677008390426636 0.6249017715454102
-0.44663915038108826 0.9677008390426636 0.8047564029693604
-0.44663915038108826 0.9677008390426636 0.9846110343933105
-0.44663915038108826 0.9677008390426636 1.1644656658172607
-0.44663915038108826 0.9677008390426636 1.344320297241211
-0.6357008218765259 0.8627631068229675 -1.353499174118042
-0.6357008218765259 0.8627630472183228 -1.1736445426940918
-0.6357008814811707 0.8627630472183228 -0.9937899112701416
-0.6357008814811707 0.8627630472183228 -0.8139352798461914
-0.6357008814811707 0.8627630472183228 -0.6340806484222412
-0.6357008814811707 0.8627630472183228 -0.454226016998291
-0.6357008814811707 0.8627630472183228 -0.2743713855743408
-0.6357008814811707 0.8627630472183228 -0.09451673924922943
-0.6357008814811707 0.8627630472183228 0.08533789217472076
-0.6357008814811707 0.8627630472183228 0.26519250869750977
-0.6357008814811707 0.8627630472183228 0.44504714012145996
-0.6357008814811707 0.862762987613678 0.6249017715454102
-0.6357008814811707 0.862762987613678 0.8047564029693604
-0.6357008814811707 0.862762987613678 0.9846110343933105
-0.6357009410858154 0.862762987613678 1.1644656658172607
-0.6357009410858154 0.862762987613678 1.344320297241211
-0.7997686862945557 0.7219154834747314 -1.353499174118042
-0.7997686862945557 0.7219154834747314 -1.1736445426940918
-0.7997686862945557 0.7219154834747314 -0.9937899112701416
-0.7997686862945557 0.7219154834747314 -0.8139352798461914
-0.7997686862945557 0.7219154238700867 -0.6340806484222412
-0.7997686862945557 0.7219154238700867 -0.454226016998291
-0.7997686862945557 0.7219154238700867 -0.2743713855743408
-0.7997686862945557 0.7219154238700867 -0.09451675415039062
-0.7997686862945557 0.7219154238700867 0.08533787727355957
-0.7997686862945557 0.7219154238700867 0.26519250869750977
-0.7997687458992004 0.7219154238700867 0.44504714012145996
-0.7997687458992004 0.7219154238700867 0.6249017715454102
-0.7997687458992004 0.7219154238700867 0.8047564029693604
-0.7997687458992004 0.7219154238700867 0.9846110343933105
-0.7997687458992004 0.7219153642654419 1.1644656658172607
-0.7997687458992004 0.7219153642654419 1.344320297241211
-0.9321255683898926 0.5509244203567505 -1.353499174118042
-0.9321256279945374 0.5509244203567505 -1.1736445426940918
-0.9321256279945374 0.5509244203567505 -0.9937899112701416
-0.9321256279945374 0.5509244203567505 -0.8139352798461914
-0.9321256279945374 0.5509244203567505 -0.6340806484222412
-0.9321256279945374 0.5509243607521057 -0.454226016998291
-0.9321256279945374 0.5509243607521057 -0.2743713855743408
-0.9321256279945374 0.5509243607521057 -0.09451676160097122
-0.9321256279945374 0.5509243607521057 0.08533786982297897
-0.9321256279945374 0.5509243607521057 0.26519250869750977
-0.9321256279945374 0.5509243607521057 0.44504714012145996
-0.9321256279945374 0.5509243607521057 0.6249017715454102
-0.9321256875991821 0.5509243607521057 0.8047564029693604
-0.9321256875991821 0.5509243607521057 0.9846110343933105
-0.9321256875991821 0.5509243607521057 1.1644656658172607
-0.9321256875991821 0.5509243011474609 1.344320297241211
-1.0273529291152954 0.35679030418395996 -1.353499174118042
-1.0273529291152954 0.35679030418395996 -1.1736445426940918
-1.0273529291152954 0.3567902743816376 -0.9937899112701416
-1.0273529291152954 0.3567902743816376 -0.8139352798461914
-1.0273529291152954 0.3567902743816376 -0.6340806484222412
-1.0273529291152954 0.3567902743816376 -0.4542260468006134
-1.0273529291152954 0.3567902743816376 -0.2743714153766632
-1.0273529291152954 0.3567902445793152 -0.09451676905155182
-1.0273529291152954 0.3567902445793152 0.08533786237239838
-1.0273529291152954 0.3567902445793152 0.2651924788951874
-1.0273529291152954 0.3567902445793152 0.4450471103191376
-1.0273529291152954 0.3567902445793152 0.6249017715454102
-1.0273529291152954 0.3567902147769928 0.8047564029693604
-1.027353048324585 0.3567902147769928 0.9846110343933105
-1.027353048324585 0.3567902147769928 1.1644656658172607
-1.027353048324585 0.3567902147769928 1.344320297241211
-1.0815520286560059 0.14746099710464478 -1.353499174118042
-1.0815520286560059 0.14746099710464478 -1.1736445426940918
-1.0815520286560059 0.14746098220348358 -0.9937899112701416
-1.0815520286560059 0.14746098220348358 -0.8139352798461914
-1.0815520286560059 0.14746098220348358 -0.6340806484222412
-1.0815520286560059 0.1474609673023224 -0.4542260468006134
-1.0815520286560059 0.1474609673023224 -0.2743714153766632
-1.0815520286560059 0.1474609524011612 -0.09451677650213242
-1.0815520286560059 0.1474609524011612 0.08533785492181778
-1.0815520286560059 0.1474609524011612 0.2651924788951874
-1.0815520286560059 0.1474609375 0.4450471103191376
-1.0815521478652954 0.1474609375 0.6249017715454102
-1.0815521478652954 0.1474609225988388 0.8047564029693604
-1.0815521478652954 0.1474609225988388 0.9846110343933105
-1.0815521478652954 0.1474609225988388 1.1644656658172607
-1.0815521478652954 0.1474609076976776 1.344320297241211
-1.0925040245056152 -0.06849351525306702 -1.353499174118042
-1.0925040245056152 -0.06849352270364761 -1.1736445426940918
-1.0925040245056152 -0.06849353015422821 -0.9937899708747864
-1.0925040245056152 -0.06849353015422821 -0.8139353394508362
-1.0925040245056152 -0.06849353760480881 -0.634080708026886
-1.0925040245056152 -0.0684935450553894 -0.4542260468006134
-1.0925040245056152 -0.06849355250597 -0.2743714153766632
-1.0925040245056152 -0.0684935599565506 -0.09451678395271301
-1.0925040245056152 -0.0684935599565506 0.08533784747123718
-1.0925040245056152 -0.0684935674071312 0.2651924788951874
-1.0925040245056152 -0.06849357485771179 0.4450471103191376
-1.0925040245056152 -0.06849358230829239 0.6249017119407654
-1.0925040245056152 -0.06849358975887299 0.8047563433647156
-1.0925040245056152 -0.06849358975887299 0.9846109747886658
-1.0925040245056152 -0.06849359720945358 1.1644656658172607
-1.0925041437149048 -0.06849360466003418 1.344320297241211
-1.0597604513168335 -0.28223204612731934 -1.353499174118042
-1.0597604513168335 -0.28223204612731934 -1.1736445426940918
-1.0597604513168335 -0.28223204612731934 -0.9937899708747864
-1.0597604513168335 -0.2822320759296417 -0.8139353394508362
-1.0597604513168335 -0.2822320759296417 -0.634080708026886
-1.0597604513168335 -0.2822320759296417 -0.4542260468006134
-1.0597604513168335 -0.2822320759296417 -0.2743714153766632
-1.0597604513168335 -0.2822320759296417 -0.09451679140329361
-1.059760570526123 -0.2822321057319641 0.08533784002065659
-1.059760570526123 -0.2822321057319641 0.2651924788951874
-1.059760570526123 -0.2822321057319641 0.4450471103191376
-1.059760570526123 -0.2822321057319641 0.6249017119407654
-1.059760570526123 -0.2822321057319641 0.8047563433647156
-1.059760570526123 -0.2822321355342865 0.9846109747886658
-1.059760570526123 -0.2822321355342865 1.1644656658172607
-1.059760570526123 -0.2822321355342865 1.344320297241211
-0.9846619367599487 -0.48500409722328186 -1.353499174118042
-0.9846619367599487 -0.48500412702560425 -1.1736445426940918
-0.9846619367599487 -0.48500412702560425 -0.9937899708747864
-0.9846619367599487 -0.48500412702560425 -0.8139353394508362
-0.9846619367599487 -0.48500412702560425 -0.634080708026886
-0.9846619963645935 -0.48500412702560425 -0.4542260468006134
-0.9846619963645935 -0.48500415682792664 -0.2743714153766632
-0.9846619963645935 -0.48500415682792664 -0.0945167988538742
-0.9846619963645935 -0.48500415682792664 0.08533783257007599
-0.9846619963645935 -0.48500415682792664 0.2651924788951874
-0.9846619963645935 -0.48500415682792664 0.4450471103191376
-0.9846619963645935 -0.485004186630249 0.6249017119407654
-0.9846619963645935 -0.485004186630249 0.8047563433647156
-0.9846619963645935 -0.485004186630249 0.9846109747886658
-0.9846619963645935 -0.485004186630249 1.1644656658172607
-0.9846619963645935 -0.485004186630249 1.344320297241211
-0.8702829480171204 -0.6685081720352173 -1.353499174118042
-0.8702830076217651 -0.6685082316398621 -1.1736445426940918
-0.8702830076217651 -0.6685082316398621 -0.9937899708747864
-0.8702830076217651 -0.6685082316398621 -0.8139353394508362
-0.8702830076217651 -0.6685082316398621 -0.634080708026886
-0.8702830076217651 -0.6685082316398621 -0.4542260766029358
-0.8702830076217651 -0.6685082316398621 -0.2743714451789856
-0.8702830076217651 -0.6685082316398621 -0.0945167988538742
-0.8702830076217651 -0.6685082316398621 0.08533783257007599
-0.8702830076217651 -0.6685082316398621 0.265192449092865
-0.8702830076217651 -0.6685082316398621 0.4450470805168152
-0.8702830076217651 -0.6685082912445068 0.6249017119407654
-0.8702830076217651 -0.6685082912445068 0.8047563433647156
-0.8702830672264099 -0.6685082912445068 0.9846109747886658
-0.8702830672264099 -0.6685082912445068 1.1644656658172607
-0.8702830672264099 -0.6685082912445068 1.344320297241211
-0.7213062644004822 -0.8252316117286682 -1.353499174118042
-0.7213062644004822 -0.8252316117286682 -1.1736445426940918
-0.7213062644004822 -0.8252316117286682 -0.9937899708747864
-0.7213062644004822 -0.825231671333313 -0.8139353394508362
-0.7213062644004822 -0.825231671333313 -0.634080708026886
-0.7213062644004822 -0.825231671333313 -0.4542260766029358
-0.7213062644004822 -0.825231671333313 -0.2743714451789856
-0.7213062644004822 -0.825231671333313 -0.0945167988538742
-0.7213062644004822 -0.825231671333313 0.08533783257007599
-0.7213062644004822 -0.825231671333313 0.265192449092865
-0.721306324005127 -0.825231671333313 0.4450470805168152
-0.721306324005127 -0.825231671333313 0.6249017119407654
-0.721306324005127 -0.825231671333313 0.8047563433647156
-0.721306324005127 -0.8252317309379578 0.9846109747886658
-0.721306324005127 -0.8252317309379578 1.1644656658172607
-0.721306324005127 -0.8252317309379578 1.344320297241211
-0.5438308715820312 -0.9487581253051758 -1.353499174118042
-0.5438308715820312 -0.9487581253051758 -1.1736445426940918
-0.5438308715820312 -0.9487581253051758 -0.9937899708747864
-0.5438308715820312 -0.9487581253051758 -0.8139353394508362
-0.543830931186676 -0.9487581253051758 -0.634080708026886
-0.543830931186676 -0.9487581253051758 -0.4542260766029358
-0.543830931186676 -0.9487581849098206 -0.2743714451789856
-0.543830931186676 -0.9487581849098206 -0.0945167988538742
-0.543830931186676 -0.9487581849098206 0.08533783257007599
-0.543830931186676 -0.9487581849098206 0.265192449092865
-0.543830931186676 -0.9487581849098206 0.4450470805168152
-0.543830931186676 -0.9487581849098206 0.6249017119407654
-0.543830931186676 -0.9487581849098206 0.8047563433647156
-0.543830931186676 -0.9487581849098206 0.9846109747886658
-0.543830931186676 -0.9487581849098206 1.1644656658172607
-0.5438309907913208 -0.9487581849098206 1.344320297241211
-0.345122754573822 -1.034030556678772 -1.353499174118042
-0.345122754573822 -1.034030556678772 -1.1736445426940918
-0.345122754573822 -1.034030556678772 -0.9937899708747864
-0.345122754573822 -1.034030556678772 -0.8139353394508362
-0.3451227843761444 -1.034030556678772 -0.634080708026886
-0.3451227843761444 -1.034030556678772 -0.4542260468006134
-0.3451227843761444 -1.034030556678772 -0.2743714153766632
-0.3451227843761444 -1.034030556678772 -0.0945167988538742
-0.3451227843761444 -1.034030556678772 0.08533783257007599
-0.3451228141784668 -1.034030556678772 0.2651924788951874
-0.3451228141784668 -1.034030556678772 0.4450471103191376
-0.3451228141784668 -1.034030556678772 0.6249017119407654
-0.3451228141784668 -1.034030556678772 0.8047563433647156
-0.3451228141784668 -1.034030556678772 0.9846109747886658
-0.3451228141784668 -1.034030556678772 1.1644656658172607
-0.3451228439807892 -1.034030556678772 1.344320297241211
-0.1333169937133789 -1.0775576829910278 -1.353499174118042
-0.1333169937133789 -1.0775576829910278 -1.1736445426940918
-0.1333169937133789 -1.0775576829910278 -0.9937899708747864
-0.1333170086145401 -1.0775576829910278 -0.8139353394508362
-0.1333170086145401 -1.0775576829910278 -0.634080708026886
-0.1333170086145401 -1.0775576829910278 -0.4542260468006134
-0.1333170235157013 -1.0775576829910278 -0.2743714153766632
-0.1333170235157013 -1.0775576829910278 -0.09451679140329361
-0.1333170235157013 -1.0775576829910278 0.08533784002065659
-0.1333170384168625 -1.0775578022003174 0.2651924788951874
-0.1333170384168625 -1.0775578022003174 0.4450471103191376
-0.1333170384168625 -1.0775578022003174 0.6249017119407654
-0.13331705331802368 -1.0775578022003174 0.8047563433647156
-0.13331705331802368 -1.0775578022003174 0.9846109747886658
-0.13331705331802368 -1.0775578022003174 1.1644656658172607
-0.13331706821918488 -1.0775578022003174 1.344320297241211
0.0829150602221489 -1.0775576829910278 -1.353499174118042
0.0829150527715683 -1.0775576829910278 -1.1736445426940918
0.0829150527715683 -1.0775576829910278 -0.9937899708747864
0.0829150453209877 -1.0775576829910278 -0.8139353394508362
0.0829150378704071 -1.0775576829910278 -0.634080708026886
0.0829150378704071 -1.0775576829910278 -0.4542260468006134
0.08291503041982651 -1.0775576829910278 -0.2743714153766632
0.08291502296924591 -1.0775576829910278 -0.09451678395271301
0.08291502296924591 -1.0775576829910278 0.08533784747123718
0.08291501551866531 -1.0775578022003174 0.2651924788951874
0.08291500806808472 -1.0775578022003174 0.4450471103191376
0.08291500806808472 -1.0775578022003174 0.6249017119407654
0.08291500061750412 -1.0775578022003174 0.8047563433647156
0.08291499316692352 -1.0775578022003174 0.9846109747886658
0.08291499316692352 -1.0775578022003174 1.1644656658172607
0.08291498571634293 -1.0775578022003174 1.344320297241211
0.2947208285331726 -1.034030556678772 -1.353499174118042
0.2947208285331726 -1.034030556678772 -1.1736445426940918
0.2947208285331726 -1.034030556678772 -0.9937899112701416
0.2947207987308502 -1.034030556678772 -0.8139352798461914
0.2947207987308502 -1.034030556678772 -0.6340806484222412
0.2947207987308502 -1.034030556678772 -0.4542260468006134
0.2947207987308502 -1.034030556678772 -0.2743714153766632
0.2947207987308502 -1.034030556678772 -0.09451677650213242
0.2947207987308502 -1.034030556678772 0.08533785492181778
0.29472076892852783 -1.034030556678772 0.2651924788951874
0.29472076892852783 -1.034030556678772 0.4450471103191376
0.29472076892852783 -1.034030556678772 0.6249017715454102
0.29472076892852783 -1.034030556678772 0.8047564029693604
0.29472076892852783 -1.034030556678772 0.9846110343933105
0.29472076892852783 -1.034030556678772 1.1644656658172607
0.29472073912620544 -1.034030556678772 1.344320297241211
0.49342894554138184 -0.9487581253051758 -1.353499174118042
0.49342894554138184 -0.9487581253051758 -1.1736445426940918
0.49342894554138184 -0.9487581253051758 -0.9937899112701416
0.49342894554138184 -0.9487581253051758 -0.8139352798461914
0.49342894554138184 -0.9487581253051758 -0.6340806484222412
0.49342894554138184 -0.9487581253051758 -0.4542260468006134
0.49342891573905945 -0.9487581849098206 -0.2743714153766632
0.49342891573905945 -0.9487581849098206 -0.09451676905155182
0.49342891573905945 -0.9487581849098206 0.08533786237239838
0.49342891573905945 -0.9487581849098206 0.2651924788951874
0.49342891573905945 -0.9487581849098206 0.4450471103191376
0.49342891573905945 -0.9487581849098206 0.6249017715454102
0.49342888593673706 -0.9487581849098206 0.8047564029693604
0.49342888593673706 -0.9487581849098206 0.9846110343933105
0.49342888593673706 -0.9487581849098206 1.1644656658172607
0.49342888593673706 -0.9487581849098206 1.344320297241211
0.6709043383598328 -0.8252316117286682 -1.353499174118042
0.6709043383598328 -0.8252316117286682 -1.1736445426940918
0.6709043383598328 -0.8252316117286682 -0.9937899112701416
0.670904278755188 -0.825231671333313 -0.8139352798461914
0.670904278755188 -0.825231671333313 -0.6340806484222412
0.670904278755188 -0.825231671333313 -0.454226016998291
0.670904278755188 -0.825231671333313 -0.2743713855743408
0.670904278755188 -0.825231671333313 -0.09451676160097122
0.670904278755188 -0.825231671333313 0.08533786982297897
0.670904278755188 -0.825231671333313 0.26519250869750977
0.670904278755188 -0.825231671333313 0.44504714012145996
0.670904278755188 -0.825231671333313 0.6249017715454102
0.670904278755188 -0.825231671333313 0.8047564029693604
0.670904278755188 -0.8252317309379578 0.9846110343933105
0.6709042191505432 -0.8252317309379578 1.1644656658172607
0.6709042191505432 -0.8252317309379578 1.344320297241211
0.819881021976471 -0.6685081720352173 -1.353499174118042
0.819881021976471 -0.6685082316398621 -1.1736445426940918
0.819881021976471 -0.6685082316398621 -0.9937899112701416
0.819881021976471 -0.6685082316398621 -0.8139352798461914
0.819881021976471 -0.6685082316398621 -0.6340806484222412
0.819881021976471 -0.6685082316398621 -0.454226016998291
0.819881021976471 -0.6685082316398621 -0.2743713855743408
0.819881021976471 -0.6685082316398621 -0.09451675415039062
0.819881021976471 -0.6685082316398621 0.08533787727355957
0.819881021976471 -0.6685082316398621 0.26519250869750977
0.819881021976471 -0.6685082316398621 0.44504714012145996
0.8198809623718262 -0.6685082912445068 0.6249017715454102
0.8198809623718262 -0.6685082912445068 0.8047564029693604
0.8198809623718262 -0.6685082912445068 0.9846110343933105
0.8198809623718262 -0.6685082912445068 1.1644656658172607
0.8198809623718262 -0.6685082912445068 1.344320297241211
0.9342600107192993 -0.48500409722328186 -1.353499174118042
0.9342600107192993 -0.48500412702560425 -1.1736445426940918
0.9342600107192993 -0.48500412702560425 -0.9937899112701416
0.9342600107192993 -0.48500412702560425 -0.8139352798461914
0.9342600107192993 -0.48500412702560425 -0.6340806484222412
0.9342600107192993 -0.48500412702560425 -0.454226016998291
0.9342600107192993 -0.48500415682792664 -0.2743713855743408
0.9342600107192993 -0.48500415682792664 -0.09451673924922943
0.9342599511146545 -0.48500415682792664 0.08533789217472076
0.9342599511146545 -0.48500415682792664 0.26519250869750977
0.9342599511146545 -0.48500415682792664 0.44504714012145996
0.9342599511146545 -0.485004186630249 0.6249017715454102
0.9342599511146545 -0.485004186630249 0.8047564029693604
0.9342599511146545 -0.485004186630249 0.9846110343933105
0.9342599511146545 -0.485004186630249 1.1644656658172607
0.9342599511146545 -0.485004186630249 1.344320297241211
1.009358525276184 -0.28223204612731934 -1.353499174118042
1.009358525276184 -0.28223204612731934 -1.1736445426940918
1.009358525276184 -0.28223204612731934 -0.9937899112701416
1.009358525276184 -0.2822320759296417 -0.8139352798461914
1.009358525276184 -0.2822320759296417 -0.6340806484222412
1.009358525276184 -0.2822320759296417 -0.45422598719596863
1.009358525276184 -0.2822320759296417 -0.27437135577201843
1.009358525276184 -0.2822320759296417 -0.09451673179864883
1.009358525276184 -0.2822321057319641 0.08533789962530136
1.009358525276184 -0.2822321057319641 0.26519253849983215
1.009358525276184 -0.2822321057319641 0.44504716992378235
1.009358525276184 -0.2822321057319641 0.6249017715454102
1.009358525276184 -0.2822321057319641 0.8047564029693604
1.009358525276184 -0.2822321355342865 0.9846110343933105
1.009358525276184 -0.2822321355342865 1.1644656658172607
1.009358525276184 -0.2822321355342865 1.344320297241211
1.0421020984649658 -0.06849351525306702 -1.353499174118042
1.0421020984649658 -0.06849352270364761 -1.1736445426940918
1.0421020984649658 -0.06849353015422821 -0.9937899112701416
1.0421020984649658 -0.06849353015422821 -0.8139352798461914
1.0421020984649658 -0.06849353760480881 -0.6340806484222412
1.0421020984649658 -0.0684935450553894 -0.45422598719596863
1.0421020984649658 -0.06849355250597 -0.27437135577201843
1.0421020984649658 -0.0684935599565506 -0.09451672434806824
1.0421020984649658 -0.0684935599565506 0.08533790707588196
1.0421019792556763 -0.0684935674071312 0.26519253849983215
1.0421019792556763 -0.06849357485771179 0.44504716992378235
1.0421019792556763 -0.06849358230829239 0.6249017715454102
1.0421019792556763 -0.06849358975887299 0.8047564029693604
1.0421019792556763 -0.06849358975887299 0.9846110343933105
1.0421019792556763 -0.06849359720945358 1.1644656658172607
1.0421019792556763 -0.06849360466003418 1.344320297241211
1.0311501026153564 0.14746099710464478 -1.353499174118042
1.0311501026153564 0.14746099710464478 -1.1736445426940918
1.0311501026153564 0.14746098220348358 -0.9937898516654968
1.0311501026153564 0.14746098220348358 -0.8139352202415466
1.0311501026153564 0.14746098220348358 -0.6340805888175964
1.0311501026153564 0.1474609673023224 -0.45422598719596863
1.0311501026153564 0.1474609673023224 -0.27437135577201843
1.0311501026153564 0.1474609524011612 -0.09451671689748764
1.0311501026153564 0.1474609524011612 0.08533791452646255
1.0311501026153564 0.1474609524011612 0.26519253849983215
1.0311501026153564 0.1474609375 0.44504716992378235
1.0311501026153564 0.1474609375 0.6249018311500549
1.0311501026153564 0.1474609225988388 0.8047564625740051
1.0311501026153564 0.1474609225988388 0.9846110939979553
1.031149983406067 0.1474609225988388 1.1644656658172607
1.031149983406067 0.1474609076976776 1.344320297241211
0.976951003074646 0.35679030418395996 -1.353499174118042
0.976951003074646 0.35679030418395996 -1.1736445426940918
0.976951003074646 0.3567902743816376 -0.9937898516654968
0.976951003074646 0.3567902743816376 -0.8139352202415466
0.976951003074646 0.3567902743816376 -0.6340805888175964
0.976951003074646 0.3567902743816376 -0.45422598719596863
0.9769509434700012 0.3567902743816376 -0.27437135577201843
0.9769509434700012 0.3567902445793152 -0.09451671689748764
0.9769509434700012 0.3567902445793152 0.08533791452646255
0.9769509434700012 0.3567902445793152 0.26519253849983215
0.9769509434700012 0.3567902445793152 0.44504716992378235
0.9769509434700012 0.3567902445793152 0.6249018311500549
0.9769509434700012 0.3567902147769928 0.8047564625740051
0.9769509434700012 0.3567902147769928 0.9846110939979553
0.9769509434700012 0.3567902147769928 1.1644656658172607
0.9769509434700012 0.3567902147769928 1.344320297241211
0.8817236423492432 0.5509244203567505 -1.353499174118042
0.8817236423492432 0.5509244203567505 -1.1736445426940918
0.8817236423492432 0.5509244203567505 -0.9937898516654968
0.8817236423492432 0.5509244203567505 -0.8139352202415466
0.8817236423492432 0.5509244203567505 -0.6340805888175964
0.8817236423492432 0.5509243607521057 -0.45422598719596863
0.8817236423492432 0.5509243607521057 -0.27437135577201843
0.8817236423492432 0.5509243607521057 -0.09451670944690704
0.8817236423492432 0.5509243607521057 0.08533792197704315
0.8817236423492432 0.5509243607521057 0.26519253849983215
0.8817236423492432 0.5509243607521057 0.44504716992378235
0.8817236423492432 0.5509243607521057 0.6249018311500549
0.8817235827445984 0.5509243607521057 0.8047564625740051
0.8817235827445984 0.5509243607521057 0.9846110939979553
0.8817235827445984 0.5509243607521057 1.1644656658172607
0.8817235827445984 0.5509243011474609 1.344320297241211
0.7493667602539062 0.7219154834747314 -1.353499174118042
0.7493667602539062 0.7219154834747314 -1.1736445426940918
0.7493667006492615 0.7219154834747314 -0.9937898516654968
0.7493667006492615 0.7219154834747314 -0.8139352202415466
0.7493667006492615 0.7219154238700867 -0.6340805888175964
0.7493667006492615 0.7219154238700867 -0.45422595739364624
0.7493667006492615 0.7219154238700867 -0.27437132596969604
0.7493667006492615 0.7219154238700867 -0.09451670944690704
0.7493667006492615 0.7219154238700867 0.08533792197704315
0.7493667006492615 0.7219154238700867 0.26519256830215454
0.7493667006492615 0.7219154238700867 0.44504719972610474
0.7493667006492615 0.7219154238700867 0.6249018311500549
0.7493667006492615 0.7219154238700867 0.8047564625740051
0.7493667006492615 0.7219154238700867 0.9846110939979553
0.7493666410446167 0.7219153642654419 1.1644656658172607
0.7493666410446167 0.7219153642654419 1.344320297241211
0.5852988958358765 0.8627631068229675 -1.353499174118042
0.5852988958358765 0.8627630472183228 -1.1736445426940918
0.5852988958358765 0.8627630472183228 -0.9937898516654968
0.5852988958358765 0.8627630472183228 -0.8139352202415466
0.5852988958358765 0.8627630472183228 -0.6340805888175964
0.5852988958358765 0.8627630472183228 -0.45422595739364624
0.5852988958358765 0.8627630472183228 -0.27437132596969604
0.5852988958358765 0.8627630472183228 -0.09451670944690704
0.5852988958358765 0.8627630472183228 0.08533792197704315
0.5852988958358765 0.8627630472183228 0.26519256830215454
0.5852988362312317 0.8627630472183228 0.44504719972610474
0.5852988362312317 0.862762987613678 0.6249018311500549
0.5852988362312317 0.862762987613678 0.8047564625740051
0.5852988362312317 0.862762987613678 0.9846110939979553
0.5852988362312317 0.862762987613678 1.1644656658172607
0.5852988362312317 0.862762987613678 1.344320297241211
0.39623716473579407 0.9677008986473083 -1.353499174118042
0.39623716473579407 0.9677008986473083 -1.1736445426940918
0.3962371349334717 0.9677008986473083 -0.9937898516654968
0.3962371349334717 0.9677008986473083 -0.8139352202415466
0.3962371349334717 0.9677008986473083 -0.6340805888175964
0.3962371349334717 0.9677008986473083 -0.45422598719596863
0.3962371349334717 0.9677008986473083 -0.27437135577201843
0.3962371051311493 0.9677008986473083 -0.09451670944690704
0.3962371051311493 0.9677008986473083 0.08533792197704315
0.3962371051311493 0.9677008390426636 0.26519253849983215
0.3962371051311493 0.9677008390426636 0.44504716992378235
0.3962371051311493 0.9677008390426636 0.6249018311500549
0.3962371051311493 0.9677008390426636 0.8047564625740051
0.3962370753288269 0.9677008390426636 0.9846110939979553
0.3962370753288269 0.9677008390426636 1.1644656658172607
0.3962370753288269 0.9677008390426636 1.344320297241211
0.18992166221141815 1.0324327945709229 -1.353499174118042
0.18992166221141815 1.0324327945709229 -1.1736445426940918
0.18992166221141815 1.0324327945709229 -0.9937898516654968
0.18992164731025696 1.0324327945709229 -0.8139352202415466
0.18992164731025696 1.0324327945709229 -0.6340805888175964
0.18992164731025696 1.0324327945709229 -0.45422598719596863
0.18992163240909576 1.0324327945709229 -0.27437135577201843
0.18992163240909576 1.0324327945709229 -0.09451671689748764
0.18992163240909576 1.0324327945709229 0.08533791452646255
0.18992161750793457 1.0324327945709229 0.26519253849983215
0.18992161750793457 1.0324327945709229 0.44504716992378235
0.18992161750793457 1.0324327945709229 0.6249018311500549
0.18992160260677338 1.0324327945709229 0.8047564625740051
0.18992160260677338 1.0324327945709229 0.9846110939979553
0.18992160260677338 1.0324327945709229 1.1644656658172607
0.18992158770561218 1.0324326753616333 1.344320297241211
-0.025200963020324707 1.0543086528778076 -1.353499174118042
-0.025200968608260155 1.0543086528778076 -1.1736445426940918
-0.025200974196195602 1.0543086528778076 -0.9937898516654968
-0.0252009779214859 1.0543086528778076 -0.8139352202415466
-0.02520098350942135 1.0543086528778076 -0.6340805888175964
-0.025200989097356796 1.0543086528778076 -0.45422598719596863
-0.025200994685292244 1.0543086528778076 -0.27437135577201843
-0.025200998410582542 1.0543086528778076 -0.09451671689748764
-0.02520100399851799 1.0543086528778076 0.08533791452646255
-0.025201009586453438 1.0543086528778076 0.26519253849983215
-0.025201015174388885 1.054308533668518 0.44504716992378235
-0.025201018899679184 1.054308533668518 0.6249018311500549
-0.02520102448761463 1.054308533668518 0.8047564625740051
-0.02520103007555008 1.054308533668518 0.9846110939979553
-0.025201035663485527 1.054308533668518 1.1644656658172607
-0.025201039388775826 1.054308533668518 1.344320297241211
