ply
format ascii 1.0
element vertex 874
property float x
property float y
property float z
end_header
27.25 42.25 0.0
27.25 42.75 0.0
27.25 43.25 0.0
27.25 43.75 0.0
27.25 44.25 0.0
27.75 41.75 0.0
27.75 42.25 0.0
27.75 42.75 0.0
27.75 43.25 0.0
27.75 43.75 0.0
27.75 44.25 0.0
28.25 40.75 0.0
28.25 41.25 0.0
28.25 41.75 0.0
28.25 42.25 0.0
28.25 42.75 0.0
28.25 43.25 0.0
28.25 43.75 0.0
28.25 44.25 0.0
28.25 44.75 0.0
28.75 40.75 0.0
28.75 41.25 0.0
28.75 41.75 0.0
28.75 42.25 0.0
28.75 42.75 0.0
28.75 43.25 0.0
28.75 43.75 0.0
28.75 44.25 0.0
28.75 44.75 0.0
29.25 40.25 0.0
29.25 40.75 0.0
29.25 41.25 0.0
29.25 41.75 0.0
29.25 42.25 0.0
29.25 42.75 0.0
29.25 43.25 0.0
29.25 43.75 0.0
29.25 44.25 0.0
29.75 39.75 0.0
29.75 40.25 0.0
29.75 40.75 0.0
29.75 41.25 0.0
29.75 41.75 0.0
29.75 42.25 0.0
29.75 42.75 0.0
29.75 43.25 0.0
29.75 43.75 0.0
29.75 44.25 0.0
30.25 38.75 0.0
30.25 39.25 0.0
30.25 39.75 0.0
30.25 40.25 0.0
30.25 40.75 0.0
30.25 41.25 0.0
30.25 41.75 0.0
30.25 42.25 0.0
30.25 42.75 0.0
30.25 43.25 0.0
30.25 43.75 0.0
30.75 38.25 0.0
30.75 38.75 0.0
30.75 39.25 0.0
30.75 39.75 0.0
30.75 40.25 0.0
30.75 40.75 0.0
30.75 41.25 0.0
30.75 41.75 0.0
30.75 42.25 0.0
30.75 42.75 0.0
30.75 43.25 0.0
31.25 37.25 0.0
31.25 37.75 0.0
31.25 38.25 0.0
31.25 38.75 0.0
31.25 39.25 0.0
31.25 39.75 0.0
31.25 40.25 0.0
31.25 40.75 0.0
31.25 41.25 0.0
31.25 41.75 0.0
31.25 42.25 0.0
31.75 37.25 0.0
31.75 37.75 0.0
31.75 38.25 0.0
31.75 38.75 0.0
31.75 39.25 0.0
31.75 39.75 0.0
31.75 40.25 0.0
31.75 40.75 0.0
31.75 41.25 0.0
31.75 41.75 0.0
31.75 42.25 0.0
32.25 35.75 0.0
32.25 36.25 0.0
32.25 36.75 0.0
32.25 37.25 0.0
32.25 37.75 0.0
32.25 38.25 0.0
32.25 38.75 0.0
32.25 39.25 0.0
32.25 39.75 0.0
32.25 40.25 0.0
32.25 40.75 0.0
32.25 41.25 0.0
32.25 41.75 0.0
32.25 42.25 0.0
32.75 25.25 0.0
32.75 25.75 0.0
32.75 26.25 0.0
32.75 26.75 0.0
32.75 27.25 0.0
32.75 34.25 0.0
32.75 34.75 0.0
32.75 35.25 0.0
32.75 35.75 0.0
32.75 36.25 0.0
32.75 36.75 0.0
32.75 37.25 0.0
32.75 37.75 0.0
32.75 38.25 0.0
32.75 38.75 0.0
32.75 39.25 0.0
32.75 39.75 0.0
32.75 40.25 0.0
32.75 40.75 0.0
32.75 41.25 0.0
32.75 41.75 0.0
33.25 24.25 0.0
33.25 24.75 0.0
33.25 25.25 0.0
33.25 25.75 0.0
33.25 26.25 0.0
33.25 26.75 0.0
33.25 27.25 0.0
33.25 34.25 0.0
33.25 34.75 0.0
33.25 35.25 0.0
33.25 35.75 0.0
33.25 36.25 0.0
33.25 36.75 0.0
33.25 37.25 0.0
33.25 37.75 0.0
33.25 38.25 0.0
33.25 38.75 0.0
33.25 39.25 0.0
33.25 39.75 0.0
33.25 40.25 0.0
33.25 40.75 0.0
33.25 41.25 0.0
33.25 41.75 0.0
33.25 42.25 0.0
33.75 24.25 0.0
33.75 24.75 0.0
33.75 25.25 0.0
33.75 25.75 0.0
33.75 26.25 0.0
33.75 26.75 0.0
33.75 27.25 0.0
33.75 32.75 0.0
33.75 33.25 0.0
33.75 33.75 0.0
33.75 34.25 0.0
33.75 34.75 0.0
33.75 35.25 0.0
33.75 35.75 0.0
33.75 36.25 0.0
33.75 36.75 0.0
33.75 37.25 0.0
33.75 37.75 0.0
33.75 38.25 0.0
33.75 38.75 0.0
33.75 39.25 0.0
33.75 39.75 0.0
33.75 40.25 0.0
33.75 40.75 0.0
33.75 41.25 0.0
33.75 41.75 0.0
33.75 42.25 0.0
34.25 22.75 0.0
34.25 23.25 0.0
34.25 23.75 0.0
34.25 24.25 0.0
34.25 24.75 0.0
34.25 25.25 0.0
34.25 25.75 0.0
34.25 26.25 0.0
34.25 26.75 0.0
34.25 27.25 0.0
34.25 27.75 0.0
34.25 31.75 0.0
34.25 32.25 0.0
34.25 32.75 0.0
34.25 33.25 0.0
34.25 33.75 0.0
34.25 34.25 0.0
34.25 34.75 0.0
34.25 35.25 0.0
34.25 35.75 0.0
34.25 36.25 0.0
34.25 36.75 0.0
34.25 37.25 0.0
34.25 37.75 0.0
34.25 38.25 0.0
34.25 38.75 0.0
34.25 39.25 0.0
34.25 39.75 0.0
34.25 40.25 0.0
34.25 40.75 0.0
34.25 41.25 0.0
34.25 41.75 0.0
34.25 42.25 0.0
34.25 42.75 0.0
34.75 22.75 0.0
34.75 23.25 0.0
34.75 23.75 0.0
34.75 24.25 0.0
34.75 24.75 0.0
34.75 25.25 0.0
34.75 25.75 0.0
34.75 26.25 0.0
34.75 26.75 0.0
34.75 27.25 0.0
34.75 30.25 0.0
34.75 30.75 0.0
34.75 31.25 0.0
34.75 31.75 0.0
34.75 32.25 0.0
34.75 32.75 0.0
34.75 33.25 0.0
34.75 33.75 0.0
34.75 34.25 0.0
34.75 34.75 0.0
34.75 35.25 0.0
34.75 35.75 0.0
34.75 36.25 0.0
34.75 36.75 0.0
34.75 37.25 0.0
34.75 37.75 0.0
34.75 38.75 0.0
34.75 39.25 0.0
34.75 39.75 0.0
34.75 40.25 0.0
34.75 40.75 0.0
34.75 41.25 0.0
34.75 41.75 0.0
34.75 42.25 0.0
34.75 42.75 0.0
34.75 43.25 0.0
35.25 21.75 0.0
35.25 22.25 0.0
35.25 22.75 0.0
35.25 23.25 0.0
35.25 23.75 0.0
35.25 24.25 0.0
35.25 24.75 0.0
35.25 25.25 0.0
35.25 25.75 0.0
35.25 26.25 0.0
35.25 26.75 0.0
35.25 28.75 0.0
35.25 29.25 0.0
35.25 29.75 0.0
35.25 30.25 0.0
35.25 30.75 0.0
35.25 31.25 0.0
35.25 31.75 0.0
35.25 32.25 0.0
35.25 32.75 0.0
35.25 33.25 0.0
35.25 33.75 0.0
35.25 34.25 0.0
35.25 34.75 0.0
35.25 35.25 0.0
35.25 35.75 0.0
35.25 36.25 0.0
35.25 36.75 0.0
35.25 37.25 0.0
35.25 39.75 0.0
35.25 40.25 0.0
35.25 40.75 0.0
35.25 41.25 0.0
35.25 41.75 0.0
35.25 42.25 0.0
35.25 42.75 0.0
35.25 43.25 0.0
35.25 43.75 0.0
35.75 21.75 0.0
35.75 22.25 0.0
35.75 22.75 0.0
35.75 23.25 0.0
35.75 23.75 0.0
35.75 24.25 0.0
35.75 24.75 0.0
35.75 25.25 0.0
35.75 25.75 0.0
35.75 26.25 0.0
35.75 26.75 0.0
35.75 27.25 0.0
35.75 27.75 0.0
35.75 28.25 0.0
35.75 28.75 0.0
35.75 29.25 0.0
35.75 29.75 0.0
35.75 30.25 0.0
35.75 30.75 0.0
35.75 31.25 0.0
35.75 31.75 0.0
35.75 32.25 0.0
35.75 32.75 0.0
35.75 33.25 0.0
35.75 33.75 0.0
35.75 34.25 0.0
35.75 34.75 0.0
35.75 35.25 0.0
35.75 35.75 0.0
35.75 40.25 0.0
35.75 40.75 0.0
35.75 41.25 0.0
35.75 41.75 0.0
35.75 42.25 0.0
35.75 42.75 0.0
35.75 43.25 0.0
35.75 43.75 0.0
35.75 44.25 0.0
35.75 45.25 0.0
35.75 49.25 0.0
35.75 50.75 0.0
35.75 51.25 0.0
35.75 52.25 0.0
36.25 20.75 0.0
36.25 21.25 0.0
36.25 21.75 0.0
36.25 22.25 0.0
36.25 22.75 0.0
36.25 23.25 0.0
36.25 23.75 0.0
36.25 24.25 0.0
36.25 24.75 0.0
36.25 25.25 0.0
36.25 25.75 0.0
36.25 26.25 0.0
36.25 26.75 0.0
36.25 27.25 0.0
36.25 27.75 0.0
36.25 28.25 0.0
36.25 28.75 0.0
36.25 29.25 0.0
36.25 29.75 0.0
36.25 30.25 0.0
36.25 30.75 0.0
36.25 31.25 0.0
36.25 31.75 0.0
36.25 32.25 0.0
36.25 32.75 0.0
36.25 33.25 0.0
36.25 33.75 0.0
36.25 34.25 0.0
36.25 34.75 0.0
36.25 35.25 0.0
36.25 35.75 0.0
36.25 40.25 0.0
36.25 40.75 0.0
36.25 41.25 0.0
36.25 41.75 0.0
36.25 42.25 0.0
36.25 42.75 0.0
36.25 43.25 0.0
36.25 43.75 0.0
36.25 44.25 0.0
36.25 44.75 0.0
36.25 45.25 0.0
36.25 45.75 0.0
36.25 46.25 0.0
36.25 46.75 0.0
36.25 47.25 0.0
36.25 47.75 0.0
36.25 48.25 0.0
36.25 48.75 0.0
36.25 49.25 0.0
36.25 49.75 0.0
36.25 50.25 0.0
36.25 50.75 0.0
36.25 51.25 0.0
36.25 51.75 0.0
36.25 52.25 0.0
36.75 20.25 0.0
36.75 20.75 0.0
36.75 21.25 0.0
36.75 21.75 0.0
36.75 22.25 0.0
36.75 22.75 0.0
36.75 23.25 0.0
36.75 23.75 0.0
36.75 24.25 0.0
36.75 24.75 0.0
36.75 25.25 0.0
36.75 25.75 0.0
36.75 26.25 0.0
36.75 26.75 0.0
36.75 27.25 0.0
36.75 27.75 0.0
36.75 28.25 0.0
36.75 28.75 0.0
36.75 29.25 0.0
36.75 29.75 0.0
36.75 30.25 0.0
36.75 30.75 0.0
36.75 31.25 0.0
36.75 31.75 0.0
36.75 32.25 0.0
36.75 32.75 0.0
36.75 33.25 0.0
36.75 33.75 0.0
36.75 34.25 0.0
36.75 41.25 0.0
36.75 41.75 0.0
36.75 42.25 0.0
36.75 42.75 0.0
36.75 43.25 0.0
36.75 43.75 0.0
36.75 44.25 0.0
36.75 44.75 0.0
36.75 45.25 0.0
36.75 45.75 0.0
36.75 46.25 0.0
36.75 46.75 0.0
36.75 47.25 0.0
36.75 47.75 0.0
36.75 48.25 0.0
36.75 48.75 0.0
36.75 49.25 0.0
36.75 49.75 0.0
36.75 50.25 0.0
36.75 50.75 0.0
36.75 51.25 0.0
36.75 51.75 0.0
36.75 52.25 0.0
37.25 20.25 0.0
37.25 20.75 0.0
37.25 21.25 0.0
37.25 21.75 0.0
37.25 22.25 0.0
37.25 22.75 0.0
37.25 23.25 0.0
37.25 23.75 0.0
37.25 24.25 0.0
37.25 24.75 0.0
37.25 25.25 0.0
37.25 25.75 0.0
37.25 26.25 0.0
37.25 26.75 0.0
37.25 27.25 0.0
37.25 27.75 0.0
37.25 28.25 0.0
37.25 28.75 0.0
37.25 29.25 0.0
37.25 29.75 0.0
37.25 30.25 0.0
37.25 30.75 0.0
37.25 31.25 0.0
37.25 31.75 0.0
37.25 32.25 0.0
37.25 32.75 0.0
37.25 33.25 0.0
37.25 41.25 0.0
37.25 41.75 0.0
37.25 42.25 0.0
37.25 42.75 0.0
37.25 43.25 0.0
37.25 43.75 0.0
37.25 44.25 0.0
37.25 44.75 0.0
37.25 45.25 0.0
37.25 45.75 0.0
37.25 46.25 0.0
37.25 46.75 0.0
37.25 47.25 0.0
37.25 47.75 0.0
37.25 48.25 0.0
37.25 48.75 0.0
37.25 49.25 0.0
37.25 49.75 0.0
37.25 50.25 0.0
37.25 50.75 0.0
37.25 51.25 0.0
37.25 51.75 0.0
37.25 52.25 0.0
37.75 13.25 0.0
37.75 18.75 0.0
37.75 19.25 0.0
37.75 19.75 0.0
37.75 20.25 0.0
37.75 20.75 0.0
37.75 21.25 0.0
37.75 21.75 0.0
37.75 22.25 0.0
37.75 22.75 0.0
37.75 23.25 0.0
37.75 23.75 0.0
37.75 24.25 0.0
37.75 24.75 0.0
37.75 25.25 0.0
37.75 25.75 0.0
37.75 26.25 0.0
37.75 26.75 0.0
37.75 27.25 0.0
37.75 27.75 0.0
37.75 28.25 0.0
37.75 28.75 0.0
37.75 29.25 0.0
37.75 29.75 0.0
37.75 30.25 0.0
37.75 30.75 0.0
37.75 31.25 0.0
37.75 31.75 0.0
37.75 41.75 0.0
37.75 42.25 0.0
37.75 42.75 0.0
37.75 43.25 0.0
37.75 43.75 0.0
37.75 44.25 0.0
37.75 44.75 0.0
37.75 45.25 0.0
37.75 45.75 0.0
37.75 46.25 0.0
37.75 46.75 0.0
37.75 47.25 0.0
37.75 47.75 0.0
37.75 48.25 0.0
37.75 48.75 0.0
37.75 49.25 0.0
37.75 49.75 0.0
37.75 50.25 0.0
37.75 50.75 0.0
37.75 51.25 0.0
37.75 51.75 0.0
37.75 52.25 0.0
38.25 11.75 0.0
38.25 12.25 0.0
38.25 12.75 0.0
38.25 13.25 0.0
38.25 13.75 0.0
38.25 14.25 0.0
38.25 14.75 0.0
38.25 15.25 0.0
38.25 16.25 0.0
38.25 16.75 0.0
38.25 17.75 0.0
38.25 18.25 0.0
38.25 18.75 0.0
38.25 19.25 0.0
38.25 19.75 0.0
38.25 20.25 0.0
38.25 20.75 0.0
38.25 21.25 0.0
38.25 21.75 0.0
38.25 22.25 0.0
38.25 22.75 0.0
38.25 23.25 0.0
38.25 23.75 0.0
38.25 24.25 0.0
38.25 24.75 0.0
38.25 25.25 0.0
38.25 25.75 0.0
38.25 26.25 0.0
38.25 26.75 0.0
38.25 27.25 0.0
38.25 27.75 0.0
38.25 28.25 0.0
38.25 28.75 0.0
38.25 29.25 0.0
38.25 29.75 0.0
38.25 30.25 0.0
38.25 42.25 0.0
38.25 42.75 0.0
38.25 43.25 0.0
38.25 43.75 0.0
38.25 44.25 0.0
38.25 44.75 0.0
38.25 45.25 0.0
38.25 45.75 0.0
38.25 46.25 0.0
38.25 46.75 0.0
38.25 47.25 0.0
38.25 47.75 0.0
38.25 48.25 0.0
38.25 48.75 0.0
38.25 49.25 0.0
38.25 49.75 0.0
38.25 50.25 0.0
38.25 50.75 0.0
38.25 51.25 0.0
38.25 51.75 0.0
38.25 52.25 0.0
38.75 11.75 0.0
38.75 12.25 0.0
38.75 12.75 0.0
38.75 13.25 0.0
38.75 13.75 0.0
38.75 14.25 0.0
38.75 14.75 0.0
38.75 15.25 0.0
38.75 15.75 0.0
38.75 16.25 0.0
38.75 16.75 0.0
38.75 17.25 0.0
38.75 17.75 0.0
38.75 18.25 0.0
38.75 18.75 0.0
38.75 19.25 0.0
38.75 19.75 0.0
38.75 20.25 0.0
38.75 20.75 0.0
38.75 21.25 0.0
38.75 21.75 0.0
38.75 22.25 0.0
38.75 22.75 0.0
38.75 23.25 0.0
38.75 23.75 0.0
38.75 24.25 0.0
38.75 24.75 0.0
38.75 25.25 0.0
38.75 25.75 0.0
38.75 26.25 0.0
38.75 26.75 0.0
38.75 27.25 0.0
38.75 27.75 0.0
38.75 28.25 0.0
38.75 28.75 0.0
38.75 29.25 0.0
38.75 42.25 0.0
38.75 42.75 0.0
38.75 43.25 0.0
38.75 43.75 0.0
38.75 44.25 0.0
38.75 44.75 0.0
38.75 45.25 0.0
38.75 45.75 0.0
38.75 46.25 0.0
38.75 46.75 0.0
38.75 47.25 0.0
38.75 47.75 0.0
38.75 48.25 0.0
38.75 48.75 0.0
38.75 49.25 0.0
38.75 49.75 0.0
38.75 50.25 0.0
38.75 50.75 0.0
38.75 51.25 0.0
38.75 51.75 0.0
38.75 52.25 0.0
39.25 11.25 0.0
39.25 11.75 0.0
39.25 12.25 0.0
39.25 12.75 0.0
39.25 13.25 0.0
39.25 13.75 0.0
39.25 14.25 0.0
39.25 14.75 0.0
39.25 15.25 0.0
39.25 15.75 0.0
39.25 16.25 0.0
39.25 16.75 0.0
39.25 17.25 0.0
39.25 17.75 0.0
39.25 18.25 0.0
39.25 18.75 0.0
39.25 19.25 0.0
39.25 19.75 0.0
39.25 20.25 0.0
39.25 20.75 0.0
39.25 21.25 0.0
39.25 21.75 0.0
39.25 22.25 0.0
39.25 22.75 0.0
39.25 23.25 0.0
39.25 23.75 0.0
39.25 24.25 0.0
39.25 24.75 0.0
39.25 25.25 0.0
39.25 25.75 0.0
39.25 26.25 0.0
39.25 26.75 0.0
39.25 27.25 0.0
39.25 27.75 0.0
39.25 28.25 0.0
39.25 28.75 0.0
39.25 29.25 0.0
39.25 43.75 0.0
39.25 44.75 0.0
39.25 45.25 0.0
39.25 45.75 0.0
39.25 46.25 0.0
39.25 46.75 0.0
39.25 47.25 0.0
39.25 47.75 0.0
39.25 48.25 0.0
39.25 49.25 0.0
39.25 49.75 0.0
39.25 51.25 0.0
39.75 11.25 0.0
39.75 11.75 0.0
39.75 12.25 0.0
39.75 12.75 0.0
39.75 13.25 0.0
39.75 13.75 0.0
39.75 14.25 0.0
39.75 14.75 0.0
39.75 15.25 0.0
39.75 15.75 0.0
39.75 16.25 0.0
39.75 16.75 0.0
39.75 17.25 0.0
39.75 17.75 0.0
39.75 18.25 0.0
39.75 18.75 0.0
39.75 19.25 0.0
39.75 19.75 0.0
39.75 20.25 0.0
39.75 20.75 0.0
39.75 21.25 0.0
39.75 21.75 0.0
39.75 22.25 0.0
39.75 22.75 0.0
39.75 23.25 0.0
39.75 23.75 0.0
39.75 24.25 0.0
39.75 24.75 0.0
39.75 25.25 0.0
39.75 25.75 0.0
39.75 26.25 0.0
39.75 26.75 0.0
39.75 27.25 0.0
39.75 27.75 0.0
39.75 28.25 0.0
39.75 28.75 0.0
39.75 29.25 0.0
40.25 11.75 0.0
40.25 12.25 0.0
40.25 12.75 0.0
40.25 13.25 0.0
40.25 13.75 0.0
40.25 14.25 0.0
40.25 14.75 0.0
40.25 15.25 0.0
40.25 15.75 0.0
40.25 16.25 0.0
40.25 16.75 0.0
40.25 17.25 0.0
40.25 17.75 0.0
40.25 18.25 0.0
40.25 18.75 0.0
40.25 19.25 0.0
40.25 19.75 0.0
40.25 20.25 0.0
40.25 20.75 0.0
40.25 21.25 0.0
40.25 21.75 0.0
40.25 22.25 0.0
40.25 22.75 0.0
40.25 23.25 0.0
40.25 23.75 0.0
40.25 24.25 0.0
40.25 24.75 0.0
40.25 25.25 0.0
40.25 25.75 0.0
40.25 26.25 0.0
40.25 26.75 0.0
40.25 27.25 0.0
40.25 27.75 0.0
40.25 28.25 0.0
40.75 11.75 0.0
40.75 12.25 0.0
40.75 12.75 0.0
40.75 13.25 0.0
40.75 13.75 0.0
40.75 14.25 0.0
40.75 14.75 0.0
40.75 15.25 0.0
40.75 15.75 0.0
40.75 16.25 0.0
40.75 16.75 0.0
40.75 17.25 0.0
40.75 17.75 0.0
40.75 18.25 0.0
40.75 18.75 0.0
40.75 19.25 0.0
40.75 19.75 0.0
40.75 20.25 0.0
40.75 20.75 0.0
40.75 21.25 0.0
40.75 21.75 0.0
40.75 22.25 0.0
40.75 22.75 0.0
40.75 23.25 0.0
40.75 23.75 0.0
40.75 24.25 0.0
40.75 24.75 0.0
40.75 25.25 0.0
40.75 25.75 0.0
40.75 26.25 0.0
40.75 26.75 0.0
40.75 27.25 0.0
40.75 27.75 0.0
41.25 13.25 0.0
41.25 13.75 0.0
41.25 14.25 0.0
41.25 14.75 0.0
41.25 15.25 0.0
41.25 15.75 0.0
41.25 16.25 0.0
41.25 16.75 0.0
41.25 17.25 0.0
41.25 17.75 0.0
41.25 18.25 0.0
41.25 18.75 0.0
41.25 19.25 0.0
41.25 22.25 0.0
41.25 22.75 0.0
41.25 23.25 0.0
41.25 23.75 0.0
41.25 24.25 0.0
41.25 24.75 0.0
41.25 25.25 0.0
41.25 25.75 0.0
41.25 26.25 0.0
41.25 26.75 0.0
41.25 27.25 0.0
41.25 27.75 0.0
41.75 14.75 0.0
41.75 16.25 0.0
41.75 22.25 0.0
41.75 22.75 0.0
41.75 23.25 0.0
41.75 23.75 0.0
41.75 24.25 0.0
41.75 24.75 0.0
41.75 25.25 0.0
41.75 25.75 0.0
41.75 26.25 0.0
41.75 26.75 0.0
41.75 27.25 0.0
42.25 22.25 0.0
42.25 22.75 0.0
42.25 23.25 0.0
42.25 23.75 0.0
42.25 24.25 0.0
42.25 24.75 0.0
42.25 25.25 0.0
42.25 25.75 0.0
42.25 26.25 0.0
42.25 26.75 0.0
42.75 22.75 0.0
42.75 23.25 0.0
42.75 23.75 0.0
42.75 24.25 0.0
42.75 24.75 0.0
42.75 25.25 0.0
42.75 25.75 0.0
42.75 26.25 0.0
43.25 22.75 0.0
43.25 23.25 0.0
43.25 23.75 0.0
43.25 24.25 0.0
43.25 24.75 0.0
43.25 25.25 0.0
43.75 22.75 0.0
43.75 23.25 0.0
43.75 23.75 0.0
43.75 24.25 0.0
43.75 24.75 0.0
43.75 25.25 0.0
44.25 23.75 0.0
44.25 24.25 0.0
