ply
format ascii 1.0
element vertex 512
property float x
property float y
property float z
end_header
0.20485472679138184 -1.329810619354248 2.0544252395629883
0.21973349153995514 -1.329810619354248 1.7702908515930176
0.23461225628852844 -1.329810619354248 1.4861565828323364
0.24949102103710175 -1.329810619354248 1.2020221948623657
0.26436978578567505 -1.329810619354248 0.9178878664970398
0.27924853563308716 -1.329810619354248 0.6337534785270691
0.29412731528282166 -1.329810619354248 0.34961915016174316
0.30900606513023376 -1.329810619354248 0.06548480689525604
0.32388484477996826 -1.329810619354248 -0.21864953637123108
0.33876359462738037 -1.329810619354248 -0.5027838945388794
0.35364237427711487 -1.329810619354248 -0.7869182229042053
0.368521124124527 -1.329810619354248 -1.0710525512695312
0.3833999037742615 -1.329810619354248 -1.355186939239502
0.3982786536216736 -1.329810619354248 -1.6393213272094727
0.4131574332714081 -1.329810619354248 -1.9234555959701538
0.4280361831188202 -1.329810619354248 -2.207589864730835
-0.1684080809354782 -1.2918014526367188 2.034879207611084
-0.1535293161869049 -1.2918014526367188 1.7507449388504028
-0.1386505514383316 -1.2918014526367188 1.4666105508804321
-0.1237717941403389 -1.2918014526367188 1.1824761629104614
-0.1088930293917656 -1.2918014526367188 0.8983418345451355
-0.09401426464319229 -1.2918014526367188 0.6142075061798096
-0.07913549989461899 -1.2918014526367188 0.33007314801216125
-0.06425674259662628 -1.2918014526367188 0.04593880847096443
-0.04937797412276268 -1.2918014526367188 -0.238195538520813
-0.034499213099479675 -1.2918014526367188 -0.5223298668861389
-0.019620448350906372 -1.2918014526367188 -0.8064642548561096
-0.004741684067994356 -1.2918014526367188 -1.0905985832214355
0.01013708021491766 -1.2918014526367188 -1.3747329711914062
0.02501584403216839 -1.2918014526367188 -1.6588672399520874
0.03989460691809654 -1.2918014526367188 -1.943001627922058
0.054773371666669846 -1.2918014526367188 -2.2271358966827393
-0.526389479637146 -1.1793302297592163 2.0161335468292236
-0.5115107297897339 -1.1793302297592163 1.731999158859253
-0.4966319501399994 -1.1793302297592163 1.4478647708892822
-0.4817531704902649 -1.1793302297592163 1.1637303829193115
-0.4668744206428528 -1.1793302297592163 0.8795960545539856
-0.4519956707954407 -1.1793302297592163 0.5954617261886597
-0.4371168911457062 -1.1793302297592163 0.31132736802101135
-0.42223814129829407 -1.1793302297592163 0.02719302661716938
-0.40735936164855957 -1.1793302297592163 -0.2569413185119629
-0.39248061180114746 -1.1793302297592163 -0.5410756468772888
-0.37760183215141296 -1.1793302297592163 -0.8252100348472595
-0.36272308230400085 -1.1793302297592163 -1.1093443632125854
-0.34784430265426636 -1.1793302297592163 -1.3934787511825562
-0.33296555280685425 -1.1793302297592163 -1.6776130199432373
-0.31808677315711975 -1.1793302297592163 -1.961747407913208
-0.30320802330970764 -1.1793302297592163 -2.2458817958831787
-0.8544336557388306 -0.9970014095306396 1.9989553689956665
-0.8395549058914185 -0.9970014095306396 1.7148209810256958
-0.8246760964393616 -0.9970014095306396 1.4306867122650146
-0.8097973465919495 -0.9970014095306396 1.146552324295044
-0.7949185967445374 -0.9970014095306396 0.8624179363250732
-0.7800398468971252 -0.9970014095306396 0.5782836079597473
-0.7651610374450684 -0.9970014095306396 0.294149249792099
-0.7502822875976562 -0.9970014095306396 0.010014913976192474
-0.7354035377502441 -0.9970014095306396 -0.27411943674087524
-0.720524787902832 -0.9970014095306396 -0.5582537651062012
-0.7056459784507751 -0.9970014095306396 -0.8423881530761719
-0.690767228603363 -0.9970014095306396 -1.126522421836853
-0.6758884787559509 -0.9970014095306396 -1.4106568098068237
-0.6610097289085388 -0.9970014095306396 -1.6947911977767944
-0.6461309194564819 -0.9970014095306396 -1.9789254665374756
-0.6312521696090698 -0.9970014095306396 -2.2630598545074463
-1.1391104459762573 -0.7522795796394348 1.9840481281280518
-1.1242316961288452 -0.7522795796394348 1.6999138593673706
-1.109352946281433 -0.7522795796394348 1.4157794713974
-1.0944740772247314 -0.7522795796394348 1.1316450834274292
-1.0795953273773193 -0.7522795796394348 0.847510814666748
-1.0647165775299072 -0.7522795796394348 0.5633764266967773
-1.0498378276824951 -0.7522795796394348 0.2792420983314514
-1.034959077835083 -0.7522795796394348 -0.004892253782600164
-1.020080327987671 -0.7522795796394348 -0.2890265882015228
-1.0052015781402588 -0.7522795796394348 -0.5731609463691711
-0.9903227686882019 -0.7522795796394348 -0.8572952747344971
-0.9754440188407898 -0.7522795796394348 -1.1414296627044678
-0.9605652689933777 -0.7522795796394348 -1.4255640506744385
-0.9456864595413208 -0.7522795796394348 -1.7096983194351196
-0.9308077096939087 -0.7522795796394348 -1.9938327074050903
-0.9159289598464966 -0.7522795796394348 -2.2779669761657715
-1.368765115737915 -0.45518365502357483 1.972022294998169
-1.353886365890503 -0.45518365502357483 1.6878879070281982
-1.3390076160430908 -0.45518365502357483 1.4037535190582275
-1.3241288661956787 -0.45518365502357483 1.1196192502975464
-1.309249997138977 -0.45518365502357483 0.8354848623275757
-1.294371247291565 -0.45518365502357483 0.5513505339622498
-1.2794924974441528 -0.45518365502357483 0.26721617579460144
-1.2646137475967407 -0.45518365502357483 -0.016918176785111427
-1.2497349977493286 -0.45518365502357483 -0.3010525107383728
-1.2348562479019165 -0.45518365502357483 -0.5851868987083435
-1.2199774980545044 -0.45518365502357483 -0.8693212270736694
-1.2050987482070923 -0.45518365502357483 -1.1534556150436401
-1.1902198791503906 -0.45518365502357483 -1.4375898838043213
-1.1753411293029785 -0.45518365502357483 -1.721724271774292
-1.1604623794555664 -0.45518365502357483 -2.0058586597442627
-1.1455836296081543 -0.45518365502357483 -2.2899930477142334
-1.5339956283569336 -0.11787684261798859 1.9633699655532837
-1.5191168785095215 -0.11787684261798859 1.679235577583313
-1.5042381286621094 -0.11787684261798859 1.3951011896133423
-1.4893592596054077 -0.11787684261798859 1.1109669208526611
-1.4744805097579956 -0.11787684261798859 0.8268325328826904
-1.4596017599105835 -0.11787684261798859 0.5426982045173645
-1.4447230100631714 -0.11787684261798859 0.2585638463497162
-1.4298442602157593 -0.11787684261798859 -0.02557051181793213
-1.4149655103683472 -0.11787684261798859 -0.30970486998558044
-1.400086760520935 -0.11787684261798859 -0.5938392281532288
-1.385208010673523 -0.11787684261798859 -0.8779735565185547
-1.3703292608261108 -0.11787684261798859 -1.1621079444885254
-1.3554503917694092 -0.11787684261798859 -1.4462422132492065
-1.340571641921997 -0.11787684261798859 -1.7303766012191772
-1.325692892074585 -0.11787684261798859 -2.0145108699798584
-1.3108141422271729 -0.11787684261798859 -2.298645257949829
-1.6280373334884644 0.24583150446414948 1.958445429801941
-1.6131585836410522 0.24583150446414948 1.6743110418319702
-1.5982798337936401 0.24583150446414948 1.3901766538619995
-1.583401083946228 0.24583150446414948 1.1060423851013184
-1.568522334098816 0.24583150446414948 0.8219079971313477
-1.5536435842514038 0.24583150446414948 0.5377736687660217
-1.5387648344039917 0.24583150446414948 0.2536393105983734
-1.52388596534729 0.24583150446414948 -0.03049503266811371
-1.509007215499878 0.24583150446414948 -0.31462937593460083
-1.4941284656524658 0.24583150446414948 -0.5987637042999268
-1.4792497158050537 0.24583150446414948 -0.8828980922698975
-1.4643709659576416 0.24583150446414948 -1.1670324802398682
-1.4494922161102295 0.24583150446414948 -1.4511667490005493
-1.4346134662628174 0.24583150446414948 -1.73530113697052
-1.4197347164154053 0.24583150446414948 -2.019435405731201
-1.4048559665679932 0.24583150446414948 -2.303569793701172
-1.6470403671264648 0.6210511326789856 1.957450270652771
-1.6321614980697632 0.6210511326789856 1.6733160018920898
-1.617282748222351 0.6210511326789856 1.3891816139221191
-1.602403998374939 0.6210511326789856 1.1050472259521484
-1.5875252485275269 0.6210511326789856 0.8209128975868225
-1.5726464986801147 0.6210511326789856 0.5367785692214966
-1.5577677488327026 0.6210511326789856 0.25264421105384827
-1.5428889989852905 0.6210511326789856 -0.03149012476205826
-1.5280102491378784 0.6210511326789856 -0.315624475479126
-1.5131314992904663 0.6210511326789856 -0.5997588038444519
-1.4982526302337646 0.6210511326789856 -0.8838931918144226
-1.4833738803863525 0.6210511326789856 -1.1680275201797485
-1.4684951305389404 0.6210511326789856 -1.4521619081497192
-1.4536163806915283 0.6210511326789856 -1.7362961769104004
-1.4387376308441162 0.6210511326789856 -2.020430564880371
-1.423858880996704 0.6210511326789856 -2.304564952850342
-1.590226411819458 0.992420494556427 1.9604253768920898
-1.575347661972046 0.992420494556427 1.6762909889221191
-1.5604689121246338 0.992420494556427 1.392156720161438
-1.5455901622772217 0.992420494556427 1.1080223321914673
-1.5307114124298096 0.992420494556427 0.8238880038261414
-1.5158326625823975 0.992420494556427 0.5397536158561707
-1.5009539127349854 0.992420494556427 0.2556192874908447
-1.4860751628875732 0.992420494556427 -0.028515055775642395
-1.4711964130401611 0.992420494556427 -0.3126493990421295
-1.4563175439834595 0.992420494556427 -0.5967837572097778
-1.4414387941360474 0.992420494556427 -0.8809180855751038
-1.4265600442886353 0.992420494556427 -1.1650524139404297
-1.4116812944412231 0.992420494556427 -1.4491868019104004
-1.396802544593811 0.992420494556427 -1.733321189880371
-1.381923794746399 0.992420494556427 -2.017455577850342
-1.3670450448989868 0.992420494556427 -2.3015897274017334
-1.4599218368530273 1.3447356224060059 1.967248797416687
-1.4450429677963257 1.3447356224060059 1.6831144094467163
-1.4301642179489136 1.3447356224060059 1.3989801406860352
-1.4152854681015015 1.3447356224060059 1.1148457527160645
-1.4004067182540894 1.3447356224060059 0.8307114243507385
-1.3855279684066772 1.3447356224060059 0.5465770959854126
-1.3706492185592651 1.3447356224060059 0.2624427378177643
-1.355770468711853 1.3447356224060059 -0.021691618487238884
-1.340891718864441 1.3447356224060059 -0.30582597851753235
-1.3260128498077393 1.3447356224060059 -0.5899603366851807
-1.3111340999603271 1.3447356224060059 -0.8740946650505066
-1.296255350112915 1.3447356224060059 -1.1582289934158325
-1.281376600265503 1.3447356224060059 -1.4423633813858032
-1.2664978504180908 1.3447356224060059 -1.7264976501464844
-1.2516191005706787 1.3447356224060059 -2.010632038116455
-1.2367403507232666 1.3447356224060059 -2.294766426086426
-1.2614609003067017 1.663572907447815 1.977641224861145
-1.2465821504592896 1.663572907447815 1.6935069561004639
-1.2317034006118774 1.663572907447815 1.4093725681304932
-1.2168246507644653 1.663572907447815 1.1252381801605225
-1.2019459009170532 1.663572907447815 0.8411038517951965
-1.1870671510696411 1.663572907447815 0.5569695234298706
-1.172188401222229 1.663572907447815 0.2728351652622223
-1.157309651374817 1.663572907447815 -0.011299168691039085
-1.1424307823181152 1.663572907447815 -0.29543352127075195
-1.1275520324707031 1.663572907447815 -0.5795678496360779
-1.112673282623291 1.663572907447815 -0.8637022376060486
-1.097794532775879 1.663572907447815 -1.1478365659713745
-1.0829157829284668 1.663572907447815 -1.4319709539413452
-1.0680370330810547 1.663572907447815 -1.7161052227020264
-1.0531582832336426 1.663572907447815 -2.000239610671997
-1.0382795333862305 1.663572907447815 -2.2843739986419678
-1.0029690265655518 1.935878872871399 1.9911772012710571
-0.9880902171134949 1.935878872871399 1.707042932510376
-0.9732114672660828 1.935878872871399 1.4229085445404053
-0.9583327174186707 1.935878872871399 1.1387741565704346
-0.9434539079666138 1.935878872871399 0.8546398878097534
-0.9285751581192017 1.935878872871399 0.5705054998397827
-0.9136964082717896 1.935878872871399 0.2863711714744568
-0.8988176584243774 1.935878872871399 0.002236825181171298
-0.8839388489723206 1.935878872871399 -0.28189751505851746
-0.8690600991249084 1.935878872871399 -0.5660318732261658
-0.8541813492774963 1.935878872871399 -0.8501662015914917
-0.8393025994300842 1.935878872871399 -1.1343005895614624
-0.8244237899780273 1.935878872871399 -1.4184348583221436
-0.8095450401306152 1.935878872871399 -1.7025692462921143
-0.7946662902832031 1.935878872871399 -1.986703634262085
-0.779787540435791 1.935878872871399 -2.2708380222320557
-0.69502854347229 2.150505304336548 2.0073025226593018
-0.6801497936248779 2.150505304336548 1.7231682538986206
-0.6652710437774658 2.150505304336548 1.4390339851379395
-0.6503922939300537 2.150505304336548 1.1548995971679688
-0.6355134844779968 2.150505304336548 0.8707652688026428
-0.6206347346305847 2.150505304336548 0.5866308808326721
-0.6057559847831726 2.150505304336548 0.3024965524673462
-0.5908772349357605 2.150505304336548 0.018362199887633324
-0.5759984850883484 2.150505304336548 -0.26577213406562805
-0.5611196756362915 2.150505304336548 -0.5499064922332764
-0.5462409257888794 2.150505304336548 -0.8340408205986023
-0.5313621759414673 2.150505304336548 -1.1181751489639282
-0.5164834260940552 2.150505304336548 -1.402309536933899
-0.5016046166419983 2.150505304336548 -1.6864439249038696
-0.4867258667945862 2.150505304336548 -1.9705781936645508
-0.4718471169471741 2.150505304336548 -2.2547125816345215
-0.3502468168735504 2.2986655235290527 2.025357246398926
-0.3353680670261383 2.2986655235290527 1.741222858428955
-0.3204892873764038 2.2986655235290527 1.4570884704589844
-0.3056105375289917 2.2986655235290527 1.1729542016983032
-0.2907317578792572 2.2986655235290527 0.8888198137283325
-0.2758530080318451 2.2986655235290527 0.6046854853630066
-0.260974258184433 2.2986655235290527 0.3205511271953583
-0.2460954785346985 2.2986655235290527 0.036416780203580856
-0.23121671378612518 2.2986655235290527 -0.24771757423877716
-0.21633794903755188 2.2986655235290527 -0.5318518877029419
-0.20145918428897858 2.2986655235290527 -0.8159862756729126
-0.18658041954040527 2.2986655235290527 -1.1001206636428833
-0.17170165479183197 2.2986655235290527 -1.3842549324035645
-0.15682290494441986 2.2986655235290527 -1.6683893203735352
-0.14194414019584656 2.2986655235290527 -1.9525237083435059
-0.12706537544727325 2.2986655235290527 -2.2366580963134766
0.01726083643734455 2.374293804168701 2.0446019172668457
0.032139599323272705 2.374293804168701 1.760467529296875
0.04701836407184601 2.374293804168701 1.4763331413269043
0.06189712882041931 2.374293804168701 1.1921987533569336
0.07677589356899261 2.374293804168701 0.9080644249916077
0.09165465831756592 2.374293804168701 0.6239300966262817
0.10653342306613922 2.374293804168701 0.3397957682609558
0.12141218036413193 2.374293804168701 0.0556614063680172
0.13629095256328583 2.374293804168701 -0.22847294807434082
0.15116971731185913 2.374293804168701 -0.5126072764396667
0.16604848206043243 2.374293804168701 -0.7967416644096375
0.18092723190784454 2.374293804168701 -1.0808759927749634
0.19580599665641785 2.374293804168701 -1.365010380744934
0.21068476140499115 2.374293804168701 -1.6491446495056152
0.22556352615356445 2.374293804168701 -1.933279037475586
0.24044229090213776 2.374293804168701 -2.2174134254455566
0.3924486041069031 2.374293804168701 2.064248561859131
0.4073273837566376 2.374293804168701 1.7801142930984497
0.4222061336040497 2.374293804168701 1.495979905128479
0.4370849132537842 2.374293804168701 1.2118456363677979
0.4519636631011963 2.374293804168701 0.9277112483978271
0.4668424427509308 2.374293804168701 0.6435769200325012
0.4817211925983429 2.374293804168701 0.3594425618648529
0.4965999722480774 2.374293804168701 0.07530820369720459
0.5114787220954895 2.374293804168701 -0.20882613956928253
0.5263574719429016 2.374293804168701 -0.49296048283576965
0.5412362813949585 2.374293804168701 -0.777094841003418
0.5561150312423706 2.374293804168701 -1.0612292289733887
0.5709937810897827 2.374293804168701 -1.3453634977340698
0.5858725309371948 2.374293804168701 -1.6294978857040405
0.6007512807846069 2.374293804168701 -1.9136322736740112
0.6156300902366638 2.374293804168701 -2.1977665424346924
0.7599563002586365 2.2986655235290527 2.083493232727051
0.7748350501060486 2.2986655235290527 1.7993589639663696
0.7897137999534607 2.2986655235290527 1.515224575996399
0.8045925498008728 2.2986655235290527 1.2310901880264282
0.8194713592529297 2.2986655235290527 0.9469558596611023
0.8343501091003418 2.2986655235290527 0.6628215312957764
0.8492288589477539 2.2986655235290527 0.37868717312812805
0.864107608795166 2.2986655235290527 0.09455282986164093
0.8789864182472229 2.2986655235290527 -0.1895815134048462
0.893865168094635 2.2986655235290527 -0.4737158715724945
0.9087439179420471 2.2986655235290527 -0.7578502297401428
0.9236226677894592 2.2986655235290527 -1.0419845581054688
0.9385014176368713 2.2986655235290527 -1.3261189460754395
0.9533802270889282 2.2986655235290527 -1.6102532148361206
0.9682589769363403 2.2986655235290527 -1.8943876028060913
0.9831377267837524 2.2986655235290527 -2.1785218715667725
1.1047379970550537 2.150505304336548 2.101547956466675
1.1196167469024658 2.150505304336548 1.8174134492874146
1.134495496749878 2.150505304336548 1.5332791805267334
1.1493743658065796 2.150505304336548 1.2491447925567627
1.1642531156539917 2.150505304336548 0.9650104641914368
1.1791318655014038 2.150505304336548 0.6808761358261108
1.194010615348816 2.150505304336548 0.39674174785614014
1.208889365196228 2.150505304336548 0.11260741204023361
1.2237681150436401 2.150505304336548 -0.1715269386768341
1.2386468648910522 2.150505304336548 -0.4556612968444824
1.2535256147384644 2.150505304336548 -0.7397956252098083
1.2684043645858765 2.150505304336548 -1.0239299535751343
1.2832832336425781 2.150505304336548 -1.308064341545105
1.2981619834899902 2.150505304336548 -1.5921987295150757
1.3130407333374023 2.150505304336548 -1.8763329982757568
1.3279194831848145 2.150505304336548 -2.1604673862457275
1.4126784801483154 1.935878872871399 2.11767315864563
1.4275572299957275 1.935878872871399 1.8335388898849487
1.4424359798431396 1.935878872871399 1.549404501914978
1.4573147296905518 1.935878872871399 1.2652702331542969
1.4721934795379639 1.935878872871399 0.9811358451843262
1.487072229385376 1.935878872871399 0.6970014572143555
1.501950979232788 1.935878872871399 0.41286712884902954
1.5168297290802002 1.935878872871399 0.12873278558254242
1.5317085981369019 1.935878872871399 -0.1554015576839447
1.546587347984314 1.935878872871399 -0.439535915851593
1.561466097831726 1.935878872871399 -0.723670244216919
1.5763448476791382 1.935878872871399 -1.0078046321868896
1.5912235975265503 1.935878872871399 -1.2919389009475708
1.6061023473739624 1.935878872871399 -1.5760732889175415
1.6209810972213745 1.935878872871399 -1.8602076768875122
1.6358598470687866 1.935878872871399 -2.1443419456481934
1.6711703538894653 1.663572907447815 2.131209135055542
1.686049222946167 1.663572907447815 1.8470748662948608
1.700927972793579 1.663572907447815 1.5629404783248901
1.7158067226409912 1.663572907447815 1.278806209564209
1.7306854724884033 1.663572907447815 0.9946718215942383
1.7455642223358154 1.663572907447815 0.7105374932289124
1.7604429721832275 1.663572907447815 0.42640313506126404
1.7753217220306396 1.663572907447815 0.14226877689361572
1.7902004718780518 1.663572907447815 -0.1418655663728714
1.8050792217254639 1.663572907447815 -0.4259999096393585
1.8199580907821655 1.663572907447815 -0.7101342678070068
1.8348368406295776 1.663572907447815 -0.9942685961723328
1.8497155904769897 1.663572907447815 -1.2784029245376587
1.8645943403244019 1.663572907447815 -1.5625373125076294
1.879473090171814 1.663572907447815 -1.8466717004776
1.894351840019226 1.663572907447815 -2.1308059692382812
1.869631290435791 1.3447356224060059 2.1416015625
1.8845100402832031 1.3447356224060059 1.8574672937393188
1.8993887901306152 1.3447356224060059 1.5733330249786377
1.9142675399780273 1.3447356224060059 1.289198637008667
1.9291462898254395 1.3447356224060059 1.0050642490386963
1.9440250396728516 1.3447356224060059 0.7209299206733704
1.9589037895202637 1.3447356224060059 0.43679559230804443
1.9737825393676758 1.3447356224060059 0.15266123414039612
1.988661289215088 1.3447356224060059 -0.1314731240272522
2.0035400390625 1.3447356224060059 -0.4156074523925781
2.018418788909912 1.3447356224060059 -0.6997418403625488
2.033297538757324 1.3447356224060059 -0.9838761687278748
2.0481762886047363 1.3447356224060059 -1.2680104970932007
2.0630552768707275 1.3447356224060059 -1.5521448850631714
2.0779340267181396 1.3447356224060059 -1.8362791538238525
2.0928127765655518 1.3447356224060059 -2.1204135417938232
1.9999358654022217 0.992420494556427 2.1484251022338867
2.014814615249634 0.992420494556427 1.864290714263916
2.029693365097046 0.992420494556427 1.5801564455032349
2.044572114944458 0.992420494556427 1.2960220575332642
2.05945086479187 0.992420494556427 1.0118876695632935
2.0743298530578613 0.992420494556427 0.7277533411979675
2.0892086029052734 0.992420494556427 0.4436190128326416
2.1040873527526855 0.992420494556427 0.15948466956615448
2.1189661026000977 0.992420494556427 -0.12464968115091324
2.1338448524475098 0.992420494556427 -0.40878403186798096
2.148723602294922 0.992420494556427 -0.6929183602333069
2.163602352142334 0.992420494556427 -0.9770527482032776
2.178481101989746 0.992420494556427 -1.2611870765686035
2.193359851837158 0.992420494556427 -1.5453214645385742
2.2082386016845703 0.992420494556427 -1.8294557332992554
2.2231173515319824 0.992420494556427 -2.1135900020599365
2.0567498207092285 0.6210511326789856 2.151400089263916
2.0716285705566406 0.6210511326789856 1.8672658205032349
2.0865073204040527 0.6210511326789856 1.5831314325332642
2.101386070251465 0.6210511326789856 1.298997163772583
2.116264820098877 0.6210511326789856 1.0148627758026123
2.131143569946289 0.6210511326789856 0.7307284474372864
2.146022319793701 0.6210511326789856 0.44659408926963806
2.1609010696411133 0.6210511326789856 0.16245973110198975
2.1757798194885254 0.6210511326789856 -0.12167461216449738
2.1906585693359375 0.6210511326789856 -0.4058089554309845
2.2055373191833496 0.6210511326789856 -0.6899433135986328
2.2204160690307617 0.6210511326789856 -0.9740776419639587
2.235295057296753 0.6210511326789856 -1.2582119703292847
2.250173807144165 0.6210511326789856 -1.5423463582992554
2.265052556991577 0.6210511326789856 -1.826480746269226
2.2799313068389893 0.6210511326789856 -2.1106150150299072
2.0377469062805176 0.24583150446414948 2.150405168533325
2.0526256561279297 0.24583150446414948 1.8662707805633545
2.067504405975342 0.24583150446414948 1.5821363925933838
2.082383155822754 0.24583150446414948 1.298002004623413
2.097261905670166 0.24583150446414948 1.013867735862732
2.112140655517578 0.24583150446414948 0.7297333478927612
2.1270194053649902 0.24583150446414948 0.4455989897251129
2.1418981552124023 0.24583150446414948 0.1614646464586258
2.1567769050598145 0.24583150446414948 -0.12266970425844193
2.1716556549072266 0.24583150446414948 -0.40680405497550964
2.1865344047546387 0.24583150446414948 -0.690938413143158
2.201413154602051 0.24583150446414948 -0.9750727415084839
2.216291904449463 0.24583150446414948 -1.2592071294784546
2.231170654296875 0.24583150446414948 -1.5433413982391357
2.246049404144287 0.24583150446414948 -1.8274757862091064
2.2609283924102783 0.24583150446414948 -2.111610174179077
1.9437050819396973 -0.11787684261798859 2.1454806327819824
1.9585838317871094 -0.11787684261798859 1.8613462448120117
1.9734625816345215 -0.11787684261798859 1.577211856842041
1.9883413314819336 -0.11787684261798859 1.2930774688720703
2.0032200813293457 -0.11787684261798859 1.0089432001113892
2.018098831176758 -0.11787684261798859 0.7248088121414185
2.03297758102417 -0.11787684261798859 0.44067448377609253
2.047856330871582 -0.11787684261798859 0.1565401256084442
2.062735080718994 -0.11787684261798859 -0.1275942176580429
2.0776138305664062 -0.11787684261798859 -0.41172856092453003
2.0924925804138184 -0.11787684261798859 -0.6958629488945007
2.1073715686798096 -0.11787684261798859 -0.9799972772598267
2.1222503185272217 -0.11787684261798859 -1.2641316652297974
2.137129068374634 -0.11787684261798859 -1.5482659339904785
2.152007818222046 -0.11787684261798859 -1.8324003219604492
2.166886568069458 -0.11787684261798859 -2.11653470993042
1.7784745693206787 -0.45518365502357483 2.1368281841278076
1.7933533191680908 -0.45518365502357483 1.8526939153671265
1.808232069015503 -0.45518365502357483 1.5685595273971558
1.823110818862915 -0.45518365502357483 1.284425139427185
1.8379895687103271 -0.45518365502357483 1.000290870666504
1.8528683185577393 -0.45518365502357483 0.7161564826965332
1.867747187614441 -0.45518365502357483 0.4320221245288849
1.882625937461853 -0.45518365502357483 0.14788778126239777
1.8975046873092651 -0.45518365502357483 -0.13624656200408936
1.9123834371566772 -0.45518365502357483 -0.42038092017173767
1.9272621870040894 -0.45518365502357483 -0.704515278339386
1.9421409368515015 -0.45518365502357483 -0.9886496067047119
1.9570196866989136 -0.45518365502357483 -1.2727839946746826
1.9718984365463257 -0.45518365502357483 -1.5569182634353638
1.9867773056030273 -0.45518365502357483 -1.8410526514053345
2.0016560554504395 -0.45518365502357483 -2.1251869201660156
1.548819899559021 -0.7522795796394348 2.124802350997925
1.563698649406433 -0.7522795796394348 1.840667963027954
1.5785773992538452 -0.7522795796394348 1.5565335750579834
1.5934561491012573 -0.7522795796394348 1.2723993062973022
1.6083348989486694 -0.7522795796394348 0.9882649183273315
1.6232136487960815 -0.7522795796394348 0.7041305899620056
1.6380923986434937 -0.7522795796394348 0.4199962019920349
1.6529712677001953 -0.7522795796394348 0.1358618587255478
1.6678500175476074 -0.7522795796394348 -0.14827248454093933
1.6827287673950195 -0.7522795796394348 -0.43240684270858765
1.6976075172424316 -0.7522795796394348 -0.7165411710739136
1.7124862670898438 -0.7522795796394348 -1.0006755590438843
1.7273650169372559 -0.7522795796394348 -1.2848098278045654
1.742243766784668 -0.7522795796394348 -1.5689442157745361
1.75712251663208 -0.7522795796394348 -1.8530786037445068
1.7720013856887817 -0.7522795796394348 -2.1372129917144775
1.2641431093215942 -0.9970014095306396 2.1098952293395996
1.2790218591690063 -0.9970014095306396 1.825760841369629
1.2939006090164185 -0.9970014095306396 1.5416264533996582
1.3087793588638306 -0.9970014095306396 1.2574920654296875
1.3236581087112427 -0.9970014095306396 0.9733577370643616
1.3385368585586548 -0.9970014095306396 0.6892234086990356
1.3534157276153564 -0.9970014095306396 0.40508905053138733
1.3682944774627686 -0.9970014095306396 0.12095469981431961
1.3831732273101807 -0.9970014095306396 -0.1631796509027481
1.3980519771575928 -0.9970014095306396 -0.44731399416923523
1.4129307270050049 -0.9970014095306396 -0.7314483523368835
1.427809476852417 -0.9970014095306396 -1.0155826807022095
1.442688226699829 -0.9970014095306396 -1.2997170686721802
1.4575669765472412 -0.9970014095306396 -1.5838513374328613
1.4724458456039429 -0.9970014095306396 -1.867985725402832
1.487324595451355 -0.9970014095306396 -2.1521201133728027
0.9360989332199097 -1.1793302297592163 2.092716932296753
0.9509776830673218 -1.1793302297592163 1.8085826635360718
0.9658564329147339 -1.1793302297592163 1.524448275566101
0.9807352423667908 -1.1793302297592163 1.24031400680542
0.9956139922142029 -1.1793302297592163 0.9561796188354492
1.0104928016662598 -1.1793302297592163 0.6720452904701233
1.0253715515136719 -1.1793302297592163 0.387910932302475
1.040250301361084 -1.1793302297592163 0.10377658158540726
1.055129051208496 -1.1793302297592163 -0.18035776913166046
1.0700078010559082 -1.1793302297592163 -0.4644921123981476
1.0848865509033203 -1.1793302297592163 -0.7486264705657959
1.0997653007507324 -1.1793302297592163 -1.0327608585357666
1.1146440505981445 -1.1793302297592163 -1.3168951272964478
1.1295228004455566 -1.1793302297592163 -1.6010295152664185
1.1444016695022583 -1.1793302297592163 -1.8851639032363892
1.1592804193496704 -1.1793302297592163 -2.1692981719970703
0.5781175494194031 -1.2918014526367188 2.0739712715148926
0.5929962992668152 -1.2918014526367188 1.7898368835449219
0.6078750491142273 -1.2918014526367188 1.5057024955749512
0.6227538585662842 -1.2918014526367188 1.22156822681427
0.6376326084136963 -1.2918014526367188 0.9374338388442993
0.6525113582611084 -1.2918014526367188 0.6532995104789734
0.6673901081085205 -1.2918014526367188 0.3691651523113251
0.6822688579559326 -1.2918014526367188 0.08503080159425735
0.6971476674079895 -1.2918014526367188 -0.19910354912281036
0.7120264172554016 -1.2918014526367188 -0.4832378923892975
0.7269051671028137 -1.2918014526367188 -0.7673722505569458
0.7417839169502258 -1.2918014526367188 -1.0515066385269165
0.7566627264022827 -1.2918014526367188 -1.3356409072875977
0.7715414762496948 -1.2918014526367188 -1.6197752952575684
0.7864202260971069 -1.2918014526367188 -1.903909683227539
0.801298975944519 -1.2918014526367188 -2.1880440711975098
0.20485472679138184 -1.329810619354248 2.0544252395629883
0.21973349153995514 -1.329810619354248 1.7702908515930176
0.23461225628852844 -1.329810619354248 1.4861565828323364
0.24949102103710175 -1.329810619354248 1.2020221948623657
0.26436978578567505 -1.329810619354248 0.9178878664970398
0.27924853563308716 -1.329810619354248 0.6337534785270691
0.29412731528282166 -1.329810619354248 0.34961915016174316
0.30900606513023376 -1.329810619354248 0.06548480689525604
0.32388484477996826 -1.329810619354248 -0.21864953637123108
0.33876359462738037 -1.329810619354248 -0.5027838945388794
0.35364237427711487 -1.329810619354248 -0.7869182229042053
0.368521124124527 -1.329810619354248 -1.0710525512695312
0.3833999037742615 -1.329810619354248 -1.355186939239502
0.3982786536216736 -1.329810619354248 -1.6393213272094727
0.4131574332714081 -1.329810619354248 -1.9234555959701538
0.4280361831188202 -1.329810619354248 -2.207589864730835
