ply
format ascii 1.0
element vertex 512
property float x
property float y
property float z
end_header
0.893517017364502 1.7982430458068848 -1.4141719341278076
0.8959535956382751 1.7982430458068848 -1.1296586990356445
0.8983901143074036 1.7982430458068848 -0.845145583152771
0.9008266925811768 1.7982430458068848 -0.5606324076652527
0.9032632112503052 1.7982430458068848 -0.276119202375412
0.9056997895240784 1.7982430458068848 0.008393969386816025
0.9081363081932068 1.7982430458068848 0.29290714859962463
0.91057288646698 1.7982430458068848 0.5774203538894653
0.9130094051361084 1.7982430458068848 0.8619335293769836
0.9154459834098816 1.7982430458068848 1.146446704864502
0.91788250207901 1.7982430458068848 1.4309598207473755
0.9203190803527832 1.7982430458068848 1.7154730558395386
0.9227555990219116 1.7982430458068848 1.9999862909317017
0.9251921772956848 1.7982430458068848 2.284499406814575
0.9276286959648132 1.7982430458068848 2.5690126419067383
0.9300652742385864 1.7982430458068848 2.8535258769989014
0.519756555557251 1.7602338790893555 -1.4109710454940796
0.5221930742263794 1.7602338790893555 -1.126457929611206
0.5246296525001526 1.7602338790893555 -0.841944694519043
0.527066171169281 1.7602338790893555 -0.5574315190315247
0.5295027494430542 1.7602338790893555 -0.27291834354400635
0.5319392681121826 1.7602338790893555 0.01159482542425394
0.5343758463859558 1.7602338790893555 0.2961080074310303
0.5368123650550842 1.7602338790893555 0.5806211829185486
0.5392489433288574 1.7602338790893555 0.8651343584060669
0.5416854619979858 1.7602338790893555 1.14964759349823
0.544122040271759 1.7602338790893555 1.4341607093811035
0.5465585589408875 1.7602338790893555 1.7186739444732666
0.5489951372146606 1.7602338790893555 2.0031871795654297
0.5514316558837891 1.7602338790893555 2.2877001762390137
0.5538682341575623 1.7602338790893555 2.5722134113311768
0.5563047528266907 1.7602338790893555 2.85672664642334
0.16129787266254425 1.647762656211853 -1.4079012870788574
0.16373442113399506 1.647762656211853 -1.1233880519866943
0.16617096960544586 1.647762656211853 -0.838874876499176
0.16860751807689667 1.647762656211853 -0.5543617010116577
0.17104406654834747 1.647762656211853 -0.2698485553264618
0.17348061501979828 1.647762656211853 0.014664637856185436
0.17591716349124908 1.647762656211853 0.2991778254508972
0.1783537119626999 1.647762656211853 0.5836910009384155
0.1807902604341507 1.647762656211853 0.8682041764259338
0.1832268089056015 1.647762656211853 1.1527173519134521
0.1856633573770523 1.647762656211853 1.4372305870056152
0.1880999058485031 1.647762656211853 1.7217437028884888
0.19053645431995392 1.647762656211853 2.0062568187713623
0.19297300279140472 1.647762656211853 2.2907700538635254
0.19540955126285553 1.647762656211853 2.5752832889556885
0.19784609973430634 1.647762656211853 2.8597965240478516
-0.16718366742134094 1.4654338359832764 -1.405088186264038
-0.16474711894989014 1.4654338359832764 -1.120574951171875
-0.16231057047843933 1.4654338359832764 -0.8360618352890015
-0.15987402200698853 1.4654338359832764 -0.5515486598014832
-0.15743747353553772 1.4654338359832764 -0.26703545451164246
-0.15500092506408691 1.4654338359832764 0.01747772842645645
-0.1525643765926361 1.4654338359832764 0.30199089646339417
-0.1501278281211853 1.4654338359832764 0.5865041017532349
-0.1476912796497345 1.4654338359832764 0.8710172772407532
-0.1452547311782837 1.4654338359832764 1.1555304527282715
-0.14281818270683289 1.4654338359832764 1.4400436878204346
-0.14038163423538208 1.4654338359832764 1.724556803703308
-0.13794508576393127 1.4654338359832764 2.0090699195861816
-0.13550853729248047 1.4654338359832764 2.2935831546783447
-0.13307198882102966 1.4654338359832764 2.578096389770508
-0.13063544034957886 1.4654338359832764 2.862609624862671
-0.452239990234375 1.2207120656967163 -1.4026470184326172
-0.4498034417629242 1.2207120656967163 -1.118133783340454
-0.4473668932914734 1.2207120656967163 -0.8336206078529358
-0.4449303448200226 1.2207120656967163 -0.5491074323654175
-0.4424937963485718 1.2207120656967163 -0.26459425687789917
-0.44005724787712097 1.2207120656967163 0.019918929785490036
-0.43762069940567017 1.2207120656967163 0.30443212389945984
-0.43518415093421936 1.2207120656967163 0.5889452695846558
-0.43274760246276855 1.2207120656967163 0.8734584450721741
-0.43031105399131775 1.2207120656967163 1.1579716205596924
-0.42787450551986694 1.2207120656967163 1.4424848556518555
-0.42543795704841614 1.2207120656967163 1.726997971534729
-0.42300140857696533 1.2207120656967163 2.0115110874176025
-0.4205648601055145 1.2207120656967163 2.2960243225097656
-0.4181283116340637 1.2207120656967163 2.5805375576019287
-0.4156917631626129 1.2207120656967163 2.865050792694092
-0.6822008490562439 0.9236161708831787 -1.4006775617599487
-0.6797643303871155 0.9236161708831787 -1.1161644458770752
-0.6773277521133423 0.9236161708831787 -0.8316512703895569
-0.6748912334442139 0.9236161708831787 -0.5471380949020386
-0.6724546551704407 0.9236161708831787 -0.2626248896121979
-0.6700181365013123 0.9236161708831787 0.02188829705119133
-0.6675815582275391 0.9236161708831787 0.30640149116516113
-0.6651450395584106 0.9236161708831787 0.5909146666526794
-0.6627084612846375 0.9236161708831787 0.8754278421401978
-0.660271942615509 0.9236161708831787 1.1599410772323608
-0.6578353643417358 0.9236161708831787 1.4444541931152344
-0.6553988456726074 0.9236161708831787 1.7289674282073975
-0.6529622673988342 0.9236161708831787 2.0134806632995605
-0.6505257487297058 0.9236162304878235 2.2979936599731445
-0.6480891704559326 0.9236162304878235 2.5825068950653076
-0.6456526517868042 0.9236162304878235 2.8670201301574707
-0.8476516604423523 0.5863094329833984 -1.3992607593536377
-0.8452151417732239 0.5863094329833984 -1.1147475242614746
-0.8427785634994507 0.5863094329833984 -0.8302343487739563
-0.8403420448303223 0.5863094329833984 -0.545721173286438
-0.8379054665565491 0.5863094329833984 -0.2612079679965973
-0.8354689478874207 0.5863094329833984 0.02330520562827587
-0.8330323696136475 0.5863094329833984 0.30781838297843933
-0.830595850944519 0.5863094329833984 0.59233158826828
-0.8281592726707458 0.5863094329833984 0.8768447637557983
-0.8257227540016174 0.5863094329833984 1.1613578796386719
-0.8232861757278442 0.5863094329833984 1.445871114730835
-0.8208496570587158 0.5863094329833984 1.730384349822998
-0.8184130787849426 0.5863094329833984 2.014897584915161
-0.8159765601158142 0.5863094329833984 2.299410581588745
-0.813539981842041 0.5863094329833984 2.583923816680908
-0.8111034631729126 0.5863094329833984 2.8684370517730713
-0.9418188333511353 0.22260113060474396 -1.3984543085098267
-0.9393822550773621 0.22260113060474396 -1.1139410734176636
-0.9369457364082336 0.22260113060474396 -0.8294278979301453
-0.9345091581344604 0.22260113060474396 -0.544914722442627
-0.932072639465332 0.22260113060474396 -0.26040154695510864
-0.9296360611915588 0.22260113060474396 0.02411164529621601
-0.9271995425224304 0.22260113060474396 0.30862483382225037
-0.9247629642486572 0.22260113060474396 0.5931379795074463
-0.9223264455795288 0.22260113060474396 0.8776512145996094
-0.9198898673057556 0.22260113060474396 1.162164330482483
-0.9174533486366272 0.22260113060474396 1.446677565574646
-0.915016770362854 0.22260113060474396 1.7311906814575195
-0.9125802516937256 0.22260113060474396 2.0157039165496826
-0.9101436734199524 0.22260113060474396 2.3002171516418457
-0.907707154750824 0.22260113060474396 2.584730386734009
-0.9052705764770508 0.22260113060474396 2.8692433834075928
-0.9608471393585205 -0.15261845290660858 -1.3982913494110107
-0.9584105610847473 -0.1526184380054474 -1.1137781143188477
-0.9559740424156189 -0.1526184380054474 -0.8292649388313293
-0.9535374641418457 -0.1526184380054474 -0.544751763343811
-0.9511009454727173 -0.1526184380054474 -0.2602385878562927
-0.9486643671989441 -0.1526184380054474 0.02427460253238678
-0.9462278485298157 -0.1526184380054474 0.3087877929210663
-0.9437912702560425 -0.1526184380054474 0.5933009386062622
-0.9413546919822693 -0.1526184380054474 0.8778141736984253
-0.9389181733131409 -0.1526184380054474 1.1623272895812988
-0.9364815950393677 -0.1526184380054474 1.446840524673462
-0.9340450763702393 -0.1526184380054474 1.7313536405563354
-0.9316084980964661 -0.1526184380054474 2.015866756439209
-0.9291719794273376 -0.1526184380054474 2.300379991531372
-0.9267354011535645 -0.1526184380054474 2.584893226623535
-0.924298882484436 -0.1526184380054474 2.8694064617156982
-0.9039574861526489 -0.5239877700805664 -1.3987785577774048
-0.9015209674835205 -0.5239877700805664 -1.1142653226852417
-0.8990843892097473 -0.5239877700805664 -0.8297521471977234
-0.8966478705406189 -0.5239877700805664 -0.5452389717102051
-0.8942112922668457 -0.5239877700805664 -0.2607257664203644
-0.8917747735977173 -0.5239877700805664 0.023787405341863632
-0.8893381953239441 -0.5239877700805664 0.30830058455467224
-0.8869016766548157 -0.5239877700805664 0.5928137898445129
-0.8844650983810425 -0.5239877700805664 0.8773269653320312
-0.8820285797119141 -0.5239877700805664 1.1618400812149048
-0.8795920014381409 -0.5239877700805664 1.4463533163070679
-0.8771554827690125 -0.5239877700805664 1.730866551399231
-0.8747189044952393 -0.5239877700805664 2.0153796672821045
-0.8722823858261108 -0.5239877700805664 2.2998929023742676
-0.8698458075523376 -0.5239877700805664 2.5844061374664307
-0.8674092888832092 -0.5239877700805664 2.8689191341400146
-0.7734791040420532 -0.8763028979301453 -1.3998959064483643
-0.77104252576828 -0.8763028979301453 -1.1153826713562012
-0.7686060070991516 -0.8763028979301453 -0.8308695554733276
-0.7661694288253784 -0.8763028979301453 -0.5463563799858093
-0.76373291015625 -0.8763028979301453 -0.26184317469596863
-0.7612963318824768 -0.8763028979301453 0.022669998928904533
-0.7588598132133484 -0.8763028979301453 0.307183176279068
-0.7564232349395752 -0.8763028979301453 0.5916963815689087
-0.7539867162704468 -0.8763028979301453 0.876209557056427
-0.7515501379966736 -0.8763028979301453 1.1607227325439453
-0.7491136193275452 -0.8763028979301453 1.4452358484268188
-0.746677041053772 -0.8763028979301453 1.729749083518982
-0.7442405223846436 -0.8763028979301453 2.0142621994018555
-0.7418039441108704 -0.8763028979301453 2.2987754344940186
-0.7393674254417419 -0.8763028979301453 2.5832886695861816
-0.7369308471679688 -0.8763028979301453 2.8678019046783447
-0.5747536420822144 -1.1951401233673096 -1.4015977382659912
-0.5723171234130859 -1.1951401233673096 -1.1170846223831177
-0.5698805451393127 -1.1951401233673096 -0.8325713872909546
-0.5674440264701843 -1.1951401233673096 -0.5480582118034363
-0.5650074481964111 -1.1951401233673096 -0.26354503631591797
-0.5625709295272827 -1.1951401233673096 0.020968129858374596
-0.5601343512535095 -1.1951401233673096 0.30548131465911865
-0.5576978325843811 -1.1951401233673096 0.589994490146637
-0.5552612543106079 -1.1951401233673096 0.8745076656341553
-0.5528247356414795 -1.1951401233673096 1.1590209007263184
-0.5503881573677063 -1.1951401233673096 1.443534016609192
-0.5479516386985779 -1.1951401233673096 1.728047251701355
-0.5455150604248047 -1.1951401233673096 2.0125603675842285
-0.5430785417556763 -1.19514000415802 2.2970736026763916
-0.5406419634819031 -1.19514000415802 2.5815868377685547
-0.5382054448127747 -1.19514000415802 2.8660998344421387
-0.315917044878006 -1.467445969581604 -1.403814435005188
-0.3134804964065552 -1.467445969581604 -1.119301199913025
-0.31104394793510437 -1.467445969581604 -0.8347880840301514
-0.30860739946365356 -1.467445969581604 -0.5502749085426331
-0.30617085099220276 -1.467445969581604 -0.26576170325279236
-0.30373430252075195 -1.467445969581604 0.0187514740973711
-0.30129775404930115 -1.467445969581604 0.30326464772224426
-0.29886120557785034 -1.467445969581604 0.587777853012085
-0.29642465710639954 -1.467445969581604 0.8722910284996033
-0.29398810863494873 -1.467445969581604 1.1568042039871216
-0.2915515601634979 -1.467445969581604 1.4413174390792847
-0.2891150116920471 -1.467445969581604 1.7258305549621582
-0.2866784632205963 -1.467445969581604 2.0103437900543213
-0.2842419147491455 -1.467445969581604 2.2948570251464844
-0.2818053662776947 -1.467445969581604 2.5793700218200684
-0.2793688178062439 -1.467445969581604 2.8638832569122314
-0.007566067855805159 -1.6820725202560425 -1.406455159187317
-0.005129518918693066 -1.6820725202560425 -1.1219419240951538
-0.0026929702144116163 -1.6820725202560425 -0.8374287486076355
-0.0002564212481956929 -1.6820725202560425 -0.5529155731201172
0.0021801276598125696 -1.6820725202560425 -0.2684023976325989
0.004616676364094019 -1.6820725202560425 0.016110779717564583
0.007053225301206112 -1.6820725202560425 0.30062395334243774
0.009489773772656918 -1.6820725202560425 0.585137128829956
0.011926323175430298 -1.6820725202560425 0.8696503043174744
0.014362871646881104 -1.6820725202560425 1.1541634798049927
0.01679942011833191 -1.6820725202560425 1.4386767148971558
0.019235970452427864 -1.6820725202560425 1.7231898307800293
0.02167251892387867 -1.6820725202560425 2.0077030658721924
0.024109067395329475 -1.6820725202560425 2.2922163009643555
0.02654561586678028 -1.6820725202560425 2.5767292976379395
0.028982164338231087 -1.6820725202560425 2.8612425327301025
0.3376753628253937 -1.8302327394485474 -1.4094117879867554
0.3401119112968445 -1.8302327394485474 -1.1248985528945923
0.3425484597682953 -1.8302327394485474 -0.840385377407074
0.3449850082397461 -1.8302327394485474 -0.5558722019195557
0.3474215567111969 -1.8302327394485474 -0.27135902643203735
0.3498581051826477 -1.8302327394485474 0.013154159300029278
0.3522946536540985 -1.8302327394485474 0.29766735434532166
0.3547312021255493 -1.8302327394485474 0.5821805000305176
0.3571677505970001 -1.8302327394485474 0.8666936755180359
0.3596042990684509 -1.8302327394485474 1.1512068510055542
0.36204084753990173 -1.8302327394485474 1.4357200860977173
0.36447739601135254 -1.8302327394485474 1.7202332019805908
0.36691394448280334 -1.8302327394485474 2.004746437072754
0.36935049295425415 -1.8302327394485474 2.289259672164917
0.37178704142570496 -1.8302327394485474 2.57377290725708
0.37422358989715576 -1.8302327394485474 2.858285903930664
0.7056730389595032 -1.9058609008789062 -1.4125632047653198
0.7081095576286316 -1.9058609008789062 -1.1280500888824463
0.7105461359024048 -1.9058609008789062 -0.843536913394928
0.7129826545715332 -1.9058609008789062 -0.5590236783027649
0.7154192328453064 -1.9058609008789062 -0.27451053261756897
0.7178557515144348 -1.9058609008789062 0.010002655908465385
0.720292329788208 -1.9058609008789062 0.29451584815979004
0.7227288484573364 -1.9058609008789062 0.5790290236473083
0.7251654267311096 -1.9058609008789062 0.8635421991348267
0.727601945400238 -1.9058609008789062 1.1480554342269897
0.7300385236740112 -1.9058609008789062 1.4325685501098633
0.7324750423431396 -1.9058609008789062 1.7170817852020264
0.7349116206169128 -1.9058609008789062 2.0015950202941895
0.7373481392860413 -1.9058609008789062 2.2861080169677734
0.7397847175598145 -1.9058609008789062 2.5706212520599365
0.7422212362289429 -1.9058609008789062 2.8551344871520996
1.0813610553741455 -1.9058609008789062 -1.4157806634902954
1.083797574043274 -1.9058609008789062 -1.1312674283981323
1.0862340927124023 -1.9058609008789062 -0.846754252910614
1.0886706113815308 -1.9058609008789062 -0.5622410774230957
1.0911072492599487 -1.9058609008789062 -0.2777279019355774
1.0935437679290771 -1.9058609008789062 0.006785293109714985
1.0959802865982056 -1.9058609008789062 0.2912984788417816
1.098416805267334 -1.9058609008789062 0.5758116841316223
1.100853443145752 -1.9058609008789062 0.8603248596191406
1.1032899618148804 -1.9058609008789062 1.1448379755020142
1.1057264804840088 -1.9058609008789062 1.4293512105941772
1.1081629991531372 -1.9058609008789062 1.7138643264770508
1.1105996370315552 -1.9058609008789062 1.9983775615692139
1.1130361557006836 -1.9058609008789062 2.282890796661377
1.115472674369812 -1.9058609008789062 2.56740403175354
1.11790931224823 -1.9058609008789062 2.851917028427124
1.4493587017059326 -1.8302327394485474 -1.4189320802688599
1.451795220375061 -1.8302327394485474 -1.1344189643859863
1.4542317390441895 -1.8302327394485474 -0.8499057292938232
1.4566683769226074 -1.8302327394485474 -0.5653925538063049
1.4591048955917358 -1.8302327394485474 -0.2808793783187866
1.4615414142608643 -1.8302327394485474 0.0036337897181510925
1.4639779329299927 -1.8302327394485474 0.28814697265625
1.4664145708084106 -1.8302327394485474 0.5726601481437683
1.468851089477539 -1.8302327394485474 0.8571733236312866
1.4712876081466675 -1.8302327394485474 1.1416865587234497
1.473724126815796 -1.8302327394485474 1.4261996746063232
1.4761607646942139 -1.8302327394485474 1.7107129096984863
1.4785972833633423 -1.8302327394485474 1.9952260255813599
1.4810338020324707 -1.8302327394485474 2.2797391414642334
1.4834703207015991 -1.8302327394485474 2.5642523765563965
1.485906958580017 -1.8302327394485474 2.8487656116485596
1.7946001291275024 -1.6820725202560425 -1.4218887090682983
1.7970366477966309 -1.6820725202560425 -1.1373755931854248
1.7994731664657593 -1.6820725202560425 -0.8528623580932617
1.8019098043441772 -1.6820725202560425 -0.5683491826057434
1.8043463230133057 -1.6820725202560425 -0.2838360071182251
1.806782841682434 -1.6820725202560425 0.0006771686603315175
1.8092193603515625 -1.6820725202560425 0.2851903438568115
1.8116559982299805 -1.6820725202560425 0.5697035193443298
1.8140925168991089 -1.6820725202560425 0.8542166948318481
1.8165290355682373 -1.6820725202560425 1.1387299299240112
1.8189655542373657 -1.6820725202560425 1.4232430458068848
1.8214021921157837 -1.6820725202560425 1.7077562808990479
1.823838710784912 -1.6820725202560425 1.9922693967819214
1.8262752294540405 -1.6820725202560425 2.276782512664795
1.828711748123169 -1.6820725202560425 2.561295747756958
1.831148386001587 -1.6820725202560425 2.845808982849121
2.1029510498046875 -1.467445969581604 -1.4245294332504272
2.1053876876831055 -1.467445969581604 -1.1400161981582642
2.1078240871429443 -1.467445969581604 -0.8555030822753906
2.1102607250213623 -1.467445969581604 -0.5709899067878723
2.1126973628997803 -1.467445969581604 -0.2864767014980316
2.115133762359619 -1.467445969581604 -0.0019635255448520184
2.117570400238037 -1.467445969581604 0.282549649477005
2.120007038116455 -1.467445969581604 0.5670628547668457
2.122443437576294 -1.467445969581604 0.851576030254364
2.124880075454712 -1.467445969581604 1.1360892057418823
2.127316474914551 -1.467445969581604 1.4206023216247559
2.1297531127929688 -1.467445969581604 1.705115556716919
2.1321897506713867 -1.467445969581604 1.989628791809082
2.1346261501312256 -1.467445969581604 2.274142026901245
2.1370627880096436 -1.467445969581604 2.558655023574829
2.1394994258880615 -1.467445969581604 2.843168258666992
2.361787796020508 -1.1951401233673096 -1.426746129989624
2.3642241954803467 -1.1951401233673096 -1.142232894897461
2.3666608333587646 -1.1951401233673096 -0.8577197194099426
2.3690972328186035 -1.1951401233673096 -0.5732065439224243
2.3715338706970215 -1.1951401233673096 -0.288693368434906
2.3739705085754395 -1.1951401233673096 -0.0041801827028393745
2.3764069080352783 -1.1951401233673096 0.280333012342453
2.3788435459136963 -1.1951401233673096 0.5648461580276489
2.3812801837921143 -1.1951401233673096 0.8493593335151672
2.383716583251953 -1.1951401233673096 1.1338725090026855
2.386153221130371 -1.1951401233673096 1.4183857440948486
2.38858962059021 -1.1951401233673096 1.7028988599777222
2.391026258468628 -1.1951401233673096 1.9874120950698853
2.393462896347046 -1.1951401233673096 2.271925210952759
2.3958992958068848 -1.19514000415802 2.556438446044922
2.3983359336853027 -1.19514000415802 2.840951681137085
2.5605130195617676 -0.8763028979301453 -1.428447961807251
2.5629496574401855 -0.8763028979301453 -1.143934726715088
2.5653862953186035 -0.8763028979301453 -0.8594216108322144
2.5678226947784424 -0.8763028979301453 -0.574908435344696
2.5702593326568604 -0.8763028979301453 -0.29039523005485535
2.5726959705352783 -0.8763028979301453 -0.0058820522390306
2.575132369995117 -0.8763028979301453 0.2786311209201813
2.577569007873535 -0.8763028979301453 0.563144326210022
2.580005407333374 -0.8763028979301453 0.8476575016975403
2.582442045211792 -0.8763028979301453 1.1321706771850586
2.58487868309021 -0.8763028979301453 1.4166839122772217
2.587315082550049 -0.8763028979301453 1.7011970281600952
2.589751720428467 -0.8763028979301453 1.9857102632522583
2.5921883583068848 -0.8763028979301453 2.270223379135132
2.5946247577667236 -0.8763028979301453 2.554736614227295
2.5970613956451416 -0.8763028979301453 2.839249849319458
2.6909916400909424 -0.5239877700805664 -1.4295653104782104
2.6934280395507812 -0.5239877700805664 -1.145052194595337
2.695864677429199 -0.5239877700805664 -0.8605390191078186
2.698301076889038 -0.5239877700805664 -0.5760258436203003
2.700737714767456 -0.5239877700805664 -0.2915126383304596
2.703174352645874 -0.5239877700805664 -0.00699946004897356
2.705610752105713 -0.5239877700805664 0.277513712644577
2.708047389984131 -0.5239877700805664 0.5620269179344177
2.710484027862549 -0.5239877700805664 0.846540093421936
2.7129204273223877 -0.5239877700805664 1.1310532093048096
2.7153570652008057 -0.5239877700805664 1.4155664443969727
2.7177937030792236 -0.5239877700805664 1.7000796794891357
2.7202301025390625 -0.5239877700805664 1.9845927953720093
2.7226667404174805 -0.5239877700805664 2.269105911254883
2.7251031398773193 -0.5239877700805664 2.553619146347046
2.7275397777557373 -0.5239877700805664 2.838132381439209
2.7478811740875244 -0.15261845290660858 -1.4300525188446045
2.7503178119659424 -0.15261845290660858 -1.145539402961731
2.7527542114257812 -0.1526184380054474 -0.8610262274742126
2.755190849304199 -0.1526184380054474 -0.5765129923820496
2.757627248764038 -0.1526184380054474 -0.29199984669685364
2.760063886642456 -0.1526184380054474 -0.00748665863648057
2.762500524520874 -0.1526184380054474 0.27702653408050537
2.764936923980713 -0.1526184380054474 0.5615397095680237
2.767373561859131 -0.1526184380054474 0.846052885055542
2.769810199737549 -0.1526184380054474 1.130566120147705
2.7722465991973877 -0.1526184380054474 1.4150792360305786
2.7746832370758057 -0.1526184380054474 1.6995924711227417
2.7771196365356445 -0.1526184380054474 1.9841055870056152
2.7795562744140625 -0.1526184380054474 2.2686188220977783
2.7819929122924805 -0.1526184380054474 2.5531320571899414
2.7844293117523193 -0.1526184380054474 2.8376450538635254
2.7288527488708496 0.22260113060474396 -1.4298895597457886
2.7312893867492676 0.22260113060474396 -1.145376443862915
2.7337260246276855 0.22260113060474396 -0.8608632683753967
2.7361624240875244 0.22260113060474396 -0.5763500928878784
2.7385990619659424 0.22260113060474396 -0.2918368875980377
2.7410356998443604 0.22260113060474396 -0.007323702331632376
2.743472099304199 0.22260113060474396 0.2771894931793213
2.745908737182617 0.22260113060474396 0.5617026686668396
2.748345136642456 0.22260113060474396 0.8462158441543579
2.750781774520874 0.22260113060474396 1.130729079246521
2.753218412399292 0.22260113060474396 1.4152421951293945
2.755654811859131 0.22260113060474396 1.6997554302215576
2.758091449737549 0.22260113060474396 1.9842685461044312
2.760528087615967 0.22260113060474396 2.2687816619873047
2.7629644870758057 0.22260113060474396 2.5532948970794678
2.7654011249542236 0.22260113060474396 2.837808132171631
2.634685754776001 0.5863094329833984 -1.429083228111267
2.63712215423584 0.5863094329833984 -1.144569993019104
2.639558792114258 0.5863094329833984 -0.8600568175315857
2.641995429992676 0.5863094329833984 -0.5755436420440674
2.6444318294525146 0.5863094329833984 -0.2910304367542267
2.6468684673309326 0.5863094329833984 -0.006517262663692236
2.6493051052093506 0.5863094329833984 0.27799591422080994
2.6517415046691895 0.5863094329833984 0.5625091195106506
2.6541781425476074 0.5863094329833984 0.847022294998169
2.6566145420074463 0.5863094329833984 1.1315354108810425
2.6590511798858643 0.5863094329833984 1.4160486459732056
2.6614878177642822 0.5863094329833984 1.7005618810653687
2.663924217224121 0.5863094329833984 1.9850749969482422
2.666360855102539 0.5863094329833984 2.2695882320404053
2.668797492980957 0.5863094329833984 2.5541014671325684
2.671233892440796 0.5863094329833984 2.8386144638061523
2.4692349433898926 0.9236161708831787 -1.4276663064956665
2.4716713428497314 0.9236161708831787 -1.1431530714035034
2.4741079807281494 0.9236161708831787 -0.8586398959159851
2.4765446186065674 0.9236161708831787 -0.5741267204284668
2.4789810180664062 0.9236161708831787 -0.2896135449409485
2.481417655944824 0.9236161708831787 -0.0051003554835915565
2.483854293823242 0.9236161708831787 0.2794128358364105
2.486290693283081 0.9236161708831787 0.5639259815216064
2.488727331161499 0.9236161708831787 0.8484392166137695
2.491163969039917 0.9236161708831787 1.132952332496643
2.493600368499756 0.9236161708831787 1.4174655675888062
2.496037006378174 0.9236161708831787 1.7019786834716797
2.4984734058380127 0.9236161708831787 1.9864919185638428
2.5009100437164307 0.9236162304878235 2.271005153656006
2.5033466815948486 0.9236162304878235 2.555518388748169
2.5057830810546875 0.9236162304878235 2.840031385421753
2.239274024963379 1.2207120656967163 -1.425696849822998
2.241710662841797 1.2207120656967163 -1.1411837339401245
2.2441470623016357 1.2207120656967163 -0.8566705584526062
2.2465837001800537 1.2207120656967163 -0.5721573233604431
2.2490203380584717 1.2207120656967163 -0.2876441776752472
2.2514567375183105 1.2207120656967163 -0.00313098868355155
2.2538933753967285 1.2207120656967163 0.2813822031021118
2.2563297748565674 1.2207120656967163 0.5658953785896301
2.2587664127349854 1.2207120656967163 0.8504085540771484
2.2612030506134033 1.2207120656967163 1.1349217891693115
2.263639450073242 1.2207120656967163 1.419434905052185
2.26607608795166 1.2207120656967163 1.7039481401443481
2.268512725830078 1.2207120656967163 1.9884612560272217
2.270949125289917 1.2207120656967163 2.2729744911193848
2.273385763168335 1.2207120656967163 2.557487726211548
2.275822162628174 1.2207120656967163 2.842000722885132
1.9542176723480225 1.4654338359832764 -1.4232556819915771
1.9566543102264404 1.4654338359832764 -1.1387425661087036
1.9590908288955688 1.4654338359832764 -0.8542293310165405
1.9615273475646973 1.4654338359832764 -0.5697161555290222
1.9639638662338257 1.4654338359832764 -0.2852029800415039
1.9664005041122437 1.4654338359832764 -0.0006897888379171491
1.968837022781372 1.4654338359832764 0.2838234007358551
1.9712735414505005 1.4654338359832764 0.568336546421051
1.973710060119629 1.4654338359832764 0.8528497815132141
1.9761466979980469 1.4654338359832764 1.1373629570007324
1.9785832166671753 1.4654338359832764 1.421876072883606
1.9810197353363037 1.4654338359832764 1.706389307975769
1.9834562540054321 1.4654338359832764 1.9909024238586426
1.98589289188385 1.4654338359832764 2.2754156589508057
1.9883294105529785 1.4654338359832764 2.5599288940429688
1.990765929222107 1.4654338359832764 2.844442129135132
1.625736117362976 1.647762656211853 -1.4204425811767578
1.628172755241394 1.647762656211853 -1.1359294652938843
1.6306092739105225 1.647762656211853 -0.8514162302017212
1.6330457925796509 1.647762656211853 -0.5669030547142029
1.6354823112487793 1.647762656211853 -0.28238987922668457
1.6379189491271973 1.647762656211853 0.0021233013831079006
1.6403554677963257 1.647762656211853 0.28663647174835205
1.642791986465454 1.647762656211853 0.5711496472358704
1.6452285051345825 1.647762656211853 0.8556628227233887
1.6476651430130005 1.647762656211853 1.1401760578155518
1.650101661682129 1.647762656211853 1.4246891736984253
1.6525381803512573 1.647762656211853 1.7092024087905884
1.6549746990203857 1.647762656211853 1.993715524673462
1.6574113368988037 1.647762656211853 2.278228759765625
1.6598478555679321 1.647762656211853 2.562741994857788
1.6622843742370605 1.647762656211853 2.847255229949951
1.267277479171753 1.7602338790893555 -1.4173728227615356
1.2697139978408813 1.7602338790893555 -1.1328595876693726
1.2721506357192993 1.7602338790893555 -0.8483464121818542
1.2745871543884277 1.7602338790893555 -0.5638332366943359
1.2770236730575562 1.7602338790893555 -0.2793200612068176
1.2794601917266846 1.7602338790893555 0.005193113349378109
1.2818968296051025 1.7602338790893555 0.289706289768219
1.284333348274231 1.7602338790893555 0.5742194652557373
1.2867698669433594 1.7602338790893555 0.8587326407432556
1.2892063856124878 1.7602338790893555 1.143245816230774
1.2916430234909058 1.7602338790893555 1.427759051322937
1.2940795421600342 1.7602338790893555 1.7122721672058105
1.2965160608291626 1.7602338790893555 1.9967854022979736
1.298952579498291 1.7602338790893555 2.2812986373901367
1.301389217376709 1.7602338790893555 2.5658116340637207
1.3038257360458374 1.7602338790893555 2.850324869155884
0.893517017364502 1.7982430458068848 -1.4141719341278076
0.8959535956382751 1.7982430458068848 -1.1296586990356445
0.8983901143074036 1.7982430458068848 -0.845145583152771
0.9008266925811768 1.7982430458068848 -0.5606324076652527
0.9032632112503052 1.7982430458068848 -0.276119202375412
0.9056997895240784 1.7982430458068848 0.008393969386816025
0.9081363081932068 1.7982430458068848 0.29290714859962463
0.91057288646698 1.7982430458068848 0.5774203538894653
0.9130094051361084 1.7982430458068848 0.8619335293769836
0.9154459834098816 1.7982430458068848 1.146446704864502
0.91788250207901 1.7982430458068848 1.4309598207473755
0.9203190803527832 1.7982430458068848 1.7154730558395386
0.9227555990219116 1.7982430458068848 1.9999862909317017
0.9251921772956848 1.7982430458068848 2.284499406814575
0.9276286959648132 1.7982430458068848 2.5690126419067383
0.9300652742385864 1.7982430458068848 2.8535258769989014
