ply
format ascii 1.0
element vertex 512
property float x
property float y
property float z
end_header
0.5267791748046875 -1.092655897140503 1.2957760095596313
0.538932204246521 -1.08026123046875 1.0117824077606201
0.5510852336883545 -1.0678666830062866 0.7277888655662537
0.563238263130188 -1.0554720163345337 0.44379523396492004
0.5753912925720215 -1.0430773496627808 0.15980164706707
0.587544322013855 -1.0306826829910278 -0.12419194728136063
0.5996972918510437 -1.018288016319275 -0.40818554162979126
0.6118503212928772 -1.005893349647522 -0.6921791434288025
0.6240033507347107 -0.993498682975769 -0.9761727452278137
0.6361563801765442 -0.9811040759086609 -1.2601662874221802
0.6483094096183777 -0.968709409236908 -1.5441598892211914
0.6604624390602112 -0.956314742565155 -1.8281534910202026
0.6726154685020447 -0.9439200758934021 -2.112147092819214
0.6847684979438782 -0.9315254092216492 -2.3961408138275146
0.6969215273857117 -0.9191307425498962 -2.6801342964172363
0.7090745568275452 -0.9067361354827881 -2.964128017425537
0.15334612131118774 -1.05398690700531 1.2814832925796509
0.16549913585186005 -1.0415922403335571 0.9974896907806396
0.17765216529369354 -1.0291975736618042 0.7134960889816284
0.18980519473552704 -1.0168029069900513 0.4295024871826172
0.20195820927619934 -1.0044082403182983 0.14550890028476715
0.21411123871803284 -0.9920135736465454 -0.13848470151424408
0.22626426815986633 -0.9796189069747925 -0.4224782884120941
0.23841728270053864 -0.9672242403030396 -0.7064719200134277
0.25057029724121094 -0.9548296332359314 -0.990465521812439
0.26272332668304443 -0.9424349665641785 -1.2744591236114502
0.27487635612487793 -0.9300402998924255 -1.5584527254104614
0.2870293855667114 -0.9176456332206726 -1.8424463272094727
0.2991824150085449 -0.9052509665489197 -2.1264398097991943
0.3113354444503784 -0.8928563594818115 -2.410433530807495
0.3234884440898895 -0.8804616928100586 -2.694427013397217
0.335641473531723 -0.8680670261383057 -2.9784207344055176
-0.20479854941368103 -0.9409549236297607 1.2710902690887451
-0.19264551997184753 -0.9285602569580078 0.9870966672897339
-0.18049250543117523 -0.9161655902862549 0.7031030654907227
-0.16833947598934174 -0.9037709832191467 0.4191094934940338
-0.15618644654750824 -0.8913763165473938 0.1351158767938614
-0.14403343200683594 -0.8789816498756409 -0.14887771010398865
-0.13188040256500244 -0.8665869832038879 -0.4328713119029999
-0.11972738057374954 -0.854192316532135 -0.7168648838996887
-0.10757435113191605 -0.8417977094650269 -1.0008585453033447
-0.09542132914066315 -0.8294030427932739 -1.284852147102356
-0.08326830714941025 -0.817008376121521 -1.5688457489013672
-0.07111527770757675 -0.8046137094497681 -1.8528393507003784
-0.05896225571632385 -0.7922190427780151 -2.1368329524993896
-0.046809229999780655 -0.779824435710907 -2.4208264350891113
-0.034656208008527756 -0.767429769039154 -2.704820156097412
-0.022503182291984558 -0.7550351023674011 -2.988813638687134
-0.5329923629760742 -0.7581877112388611 1.2650225162506104
-0.5208393335342407 -0.7457930445671082 0.9810289144515991
-0.5086863040924072 -0.7333984375 0.6970353126525879
-0.49653327465057373 -0.7210037708282471 0.41304171085357666
-0.48438024520874023 -0.7086091041564941 0.12904810905456543
-0.47222721576690674 -0.6962144374847412 -0.1549454927444458
-0.46007418632507324 -0.6838197708129883 -0.43893909454345703
-0.44792115688323975 -0.6714251637458801 -0.7229326963424683
-0.43576812744140625 -0.6590304970741272 -1.0069262981414795
-0.42361512780189514 -0.6466358304023743 -1.2909198999404907
-0.41146209836006165 -0.6342411637306213 -1.574913501739502
-0.39930906891822815 -0.6218464970588684 -1.8589071035385132
-0.38715603947639465 -0.6094518899917603 -2.1429007053375244
-0.37500301003456116 -0.5970572233200073 -2.426894187927246
-0.36284998059272766 -0.5846625566482544 -2.710887908935547
-0.35069698095321655 -0.5722678899765015 -2.9948813915252686
-0.8177989721298218 -0.5131677389144897 1.2635283470153809
-0.8056459426879883 -0.5007730722427368 0.9795347452163696
-0.7934929132461548 -0.4883784353733063 0.6955411434173584
-0.7813398838043213 -0.47598376870155334 0.41154757142066956
-0.7691868543624878 -0.4635891318321228 0.12755396962165833
-0.7570338249206543 -0.4511944651603699 -0.1564396321773529
-0.7448807954788208 -0.43879982829093933 -0.44043323397636414
-0.7327277660369873 -0.4264051616191864 -0.724426805973053
-0.7205747365951538 -0.41401049494743347 -1.008420467376709
-0.7084217071533203 -0.40161585807800293 -1.2924140691757202
-0.6962687373161316 -0.38922119140625 -1.5764076709747314
-0.6841157078742981 -0.37682652473449707 -1.8604011535644531
-0.6719626784324646 -0.36443188786506653 -2.144394874572754
-0.6598096489906311 -0.3520372211933136 -2.4283883571624756
-0.6476566195487976 -0.33964258432388306 -2.7123820781707764
-0.6355035901069641 -0.3272479176521301 -2.996375560760498
-1.0475584268569946 -0.2159261405467987 1.2666690349578857
-1.0354053974151611 -0.20353148877620697 0.9826754331588745
-1.0232523679733276 -0.19113683700561523 0.6986818313598633
-1.0110993385314941 -0.1787421703338623 0.41468825936317444
-0.9989463090896606 -0.16634751856327057 0.1306946575641632
-0.9867932796478271 -0.15395286679267883 -0.15329894423484802
-0.9746402502059937 -0.1415582150220871 -0.43729254603385925
-0.9624872207641602 -0.12916354835033417 -0.7212861180305481
-0.9503341913223267 -0.11676890403032303 -1.005279779434204
-0.9381811618804932 -0.1043742448091507 -1.2892733812332153
-0.9260281324386597 -0.09197959303855896 -1.5732669830322266
-0.9138751029968262 -0.07958493381738663 -1.8572604656219482
-0.9017220735549927 -0.06719028204679489 -2.141254186630249
-0.8895690441131592 -0.05479562282562256 -2.4252476692199707
-0.8774160146713257 -0.042400967329740524 -2.7092413902282715
-0.865263044834137 -0.03000631369650364 -2.993234872817993
-1.2128642797470093 0.12136798352003098 1.2743159532546997
-1.2007112503051758 0.1337626427412033 0.9903223514556885
-1.1885582208633423 0.14615729451179504 0.706328809261322
-1.1764051914215088 0.15855194628238678 0.4223351776599884
-1.1642521619796753 0.17094659805297852 0.13834159076213837
-1.1520991325378418 0.18334126472473145 -0.14565201103687286
-1.1399461030960083 0.19573591649532318 -0.4296455979347229
-1.1277930736541748 0.20813056826591492 -0.7136391997337341
-1.1156400442123413 0.22052522003650665 -0.9976328015327454
-1.1034870147705078 0.2329198718070984 -1.2816263437271118
-1.0913339853286743 0.24531453847885132 -1.565619945526123
-1.0791809558868408 0.25770917534828186 -1.8496135473251343
-1.0670279264450073 0.2701038420200348 -2.1336071491241455
-1.0548748970031738 0.2824985086917877 -2.4176008701324463
-1.0427218675613403 0.29489314556121826 -2.701594352722168
-1.0305688381195068 0.3072878122329712 -2.9855880737304688
-1.3069489002227783 0.48490574955940247 1.2861560583114624
-1.2947958707809448 0.4973004162311554 1.0021624565124512
-1.2826428413391113 0.5096950531005859 0.7181688547134399
-1.2704898118972778 0.5220897197723389 0.4341752827167511
-1.2583367824554443 0.5344843864440918 0.15018168091773987
-1.2461837530136108 0.5468790531158447 -0.13381190598011017
-1.2340307235717773 0.5592737197875977 -0.4178055226802826
-1.2218776941299438 0.5716683268547058 -0.7017990946769714
-1.2097246646881104 0.5840629935264587 -0.9857926964759827
-1.1975716352462769 0.5964576601982117 -1.2697863578796387
-1.1854186058044434 0.6088523268699646 -1.55377995967865
-1.1732656955718994 0.6212469935417175 -1.8377734422683716
-1.161112666130066 0.6336416006088257 -2.121767044067383
-1.1489596366882324 0.6460362672805786 -2.4057607650756836
-1.136806607246399 0.6584309339523315 -2.6897542476654053
-1.1246535778045654 0.6708256006240845 -2.973747968673706
-1.3259605169296265 0.8598039150238037 1.3017046451568604
-1.313807487487793 0.8721985816955566 1.0177110433578491
-1.3016544580459595 0.8845932483673096 0.7337174415588379
-1.289501428604126 0.8969879150390625 0.4497238099575043
-1.2773483991622925 0.9093825221061707 0.16573022305965424
-1.265195369720459 0.9217771887779236 -0.118263378739357
-1.2530423402786255 0.9341718554496765 -0.40225696563720703
-1.240889310836792 0.9465665221214294 -0.6862505674362183
-1.2287362813949585 0.9589611887931824 -0.9702441692352295
-1.216583251953125 0.9713557958602905 -1.2542377710342407
-1.2044302225112915 0.9837504625320435 -1.538231372833252
-1.1922773122787476 0.9961451292037964 -1.8222249746322632
-1.180124282836914 1.0085397958755493 -2.1062185764312744
-1.1679712533950806 1.0209344625473022 -2.390212059020996
-1.155818223953247 1.0333291292190552 -2.674205780029297
-1.1436651945114136 1.045723795890808 -2.9581992626190186
-1.2691208124160767 1.2307140827178955 1.3203250169754028
-1.2569677829742432 1.2431087493896484 1.0363314151763916
-1.2448147535324097 1.2555034160614014 0.7523378133773804
-1.2326617240905762 1.2678980827331543 0.46834424138069153
-1.2205086946487427 1.2802927494049072 0.1843506395816803
-1.2083556652069092 1.2926874160766602 -0.09964296221733093
-1.1962026357650757 1.305082082748413 -0.38363656401634216
-1.1840496063232422 1.3174766302108765 -0.667630136013031
-1.1718965768814087 1.3298712968826294 -0.9516237378120422
-1.1597435474395752 1.3422659635543823 -1.2356173992156982
-1.1475905179977417 1.3546606302261353 -1.5196110010147095
-1.1354374885559082 1.3670552968978882 -1.8036046028137207
-1.1232844591140747 1.3794499635696411 -2.0875980854034424
-1.1111314296722412 1.391844630241394 -2.371591806411743
-1.0989784002304077 1.404239296913147 -2.655585289001465
-1.0868253707885742 1.4166339635849 -2.9395790100097656
-1.1387566328048706 1.5824511051177979 1.3412549495697021
-1.126603603363037 1.5948457717895508 1.057261347770691
-1.1144505739212036 1.6072404384613037 0.7732678055763245
-1.1022975444793701 1.6196351051330566 0.48927420377731323
-1.0901445150375366 1.6320297718048096 0.2052806168794632
-1.0779914855957031 1.6444244384765625 -0.07871298491954803
-1.0658384561538696 1.6568191051483154 -0.36270657181739807
-1.0536854267120361 1.6692137718200684 -0.6467002034187317
-1.0415323972702026 1.6816084384918213 -0.9306938052177429
-1.0293793678283691 1.6940031051635742 -1.2146873474121094
-1.0172263383865356 1.7063976526260376 -1.4986809492111206
-1.0050734281539917 1.7187923192977905 -1.7826745510101318
-0.9929203391075134 1.7311869859695435 -2.0666682720184326
-0.9807673096656799 1.7435816526412964 -2.3506617546081543
-0.9686142802238464 1.7559763193130493 -2.634655475616455
-0.9564612507820129 1.7683709859848022 -2.9186489582061768
-0.9402052760124207 1.9006149768829346 1.3636376857757568
-0.9280522465705872 1.9130096435546875 1.0796440839767456
-0.9158992171287537 1.9254043102264404 0.7956504821777344
-0.9037461876869202 1.9377989768981934 0.5116568803787231
-0.8915932178497314 1.9501936435699463 0.22766326367855072
-0.879440188407898 1.9625881910324097 -0.05633033439517021
-0.8672871589660645 1.9749828577041626 -0.34032392501831055
-0.855134129524231 1.9873775243759155 -0.6243175268173218
-0.8429811000823975 1.9997721910476685 -0.908311128616333
-0.830828070640564 2.012166976928711 -1.1923047304153442
-0.8186750411987305 2.0245614051818848 -1.4762983322143555
-0.806522011756897 2.0369560718536377 -1.7602919340133667
-0.7943689823150635 2.0493507385253906 -2.044285535812378
-0.78221595287323 2.0617454051971436 -2.3282790184020996
-0.7700629234313965 2.0741400718688965 -2.6122727394104004
-0.7579099535942078 2.0865347385406494 -2.896266222000122
-0.6815954446792603 2.172179937362671 1.386556625366211
-0.6694424152374268 2.184574604034424 1.1025630235671997
-0.6572893857955933 2.1969692707061768 0.8185694217681885
-0.6451363563537598 2.2093636989593506 0.5345758199691772
-0.6329833269119263 2.2217583656311035 0.2505822479724884
-0.6208302974700928 2.2341530323028564 -0.03341135010123253
-0.6086772680282593 2.2465476989746094 -0.31740495562553406
-0.5965242385864258 2.2589423656463623 -0.6013985276222229
-0.5843712091445923 2.2713370323181152 -0.8853921294212341
-0.5722181797027588 2.283731698989868 -1.1693857908248901
-0.5600651502609253 2.296126365661621 -1.4533793926239014
-0.5479121804237366 2.308521032333374 -1.7373729944229126
-0.5357591509819031 2.320915699005127 -2.021366596221924
-0.5236061215400696 2.33331036567688 -2.3053600788116455
-0.5114530920982361 2.345705032348633 -2.5893537998199463
-0.4993000626564026 2.3580996990203857 -2.873347282409668
-0.3735145628452301 2.3860278129577637 1.4090737104415894
-0.3613615334033966 2.3984224796295166 1.1250801086425781
-0.3492085039615631 2.4108171463012695 0.8410864472389221
-0.3370554745197296 2.4232118129730225 0.5570928454399109
-0.3249024450778961 2.4356064796447754 0.27309927344322205
-0.312749445438385 2.4480011463165283 -0.01089433766901493
-0.3005964159965515 2.4603958129882812 -0.2948879301548004
-0.288443386554718 2.472790479660034 -0.578881561756134
-0.2762903571128845 2.485185146331787 -0.8628751039505005
-0.264137327671051 2.49757981300354 -1.1468687057495117
-0.2519843280315399 2.509974479675293 -1.430862307548523
-0.23983128368854523 2.522369146347046 -1.7148559093475342
-0.22767826914787292 2.534763813018799 -1.9988495111465454
-0.21552523970603943 2.5471584796905518 -2.2828431129455566
-0.20337221026420593 2.5595531463623047 -2.5668368339538574
-0.19121919572353363 2.5719478130340576 -2.850830316543579
-0.028575560078024864 2.5334041118621826 1.4302668571472168
-0.016422536224126816 2.5457987785339355 1.1462732553482056
-0.004269512370228767 2.5581934452056885 0.8622796535491943
0.007883512414991856 2.5705881118774414 0.5782860517501831
0.02003653720021248 2.5829827785491943 0.2942924499511719
0.03218955919146538 2.5953774452209473 0.010298851877450943
0.044342584908008575 2.6077721118927 -0.2736947536468506
0.05649561062455177 2.620166778564453 -0.5576883554458618
0.06864863634109497 2.632561445236206 -0.841681957244873
0.08080165833234787 2.644956111907959 -1.1256755590438843
0.09295468032360077 2.657350778579712 -1.4096691608428955
0.10510770976543427 2.669745445251465 -1.6936627626419067
0.11726073175668716 2.6821401119232178 -1.977656364440918
0.12941375374794006 2.6945347785949707 -2.2616498470306396
0.14156678318977356 2.7069294452667236 -2.5456435680389404
0.15371979773044586 2.7193241119384766 -2.829637050628662
0.3390997350215912 2.6082751750946045 1.4492685794830322
0.3512527346611023 2.6206698417663574 1.165274977684021
0.3634057641029358 2.6330645084381104 0.8812813758850098
0.3755587935447693 2.6454591751098633 0.5972877740859985
0.3877118229866028 2.657853603363037 0.3132941722869873
0.3998648524284363 2.67024827003479 0.029300566762685776
0.4120178818702698 2.682642936706543 -0.25469303131103516
0.4241708815097809 2.695037603378296 -0.5386866331100464
0.4363239109516144 2.707432270050049 -0.8226802349090576
0.4484769403934479 2.7198269367218018 -1.1066738367080688
0.46062996983528137 2.7322216033935547 -1.39066743850708
0.47278299927711487 2.7446162700653076 -1.6746610403060913
0.48493602871894836 2.7570109367370605 -1.9586546421051025
0.4970890283584595 2.7694056034088135 -2.242648124694824
0.509242057800293 2.7818002700805664 -2.526641845703125
0.5213950872421265 2.7941949367523193 -2.8106353282928467
0.7144586443901062 2.6075754165649414 1.4653009176254272
0.7266116738319397 2.6199700832366943 1.181307315826416
0.7387647032737732 2.6323647499084473 0.89731365442276
0.7509176731109619 2.6447594165802 0.6133200526237488
0.7630707025527954 2.657154083251953 0.32932648062705994
0.7752237319946289 2.669548749923706 0.04533287510275841
0.7873767614364624 2.681943416595459 -0.23866072297096252
0.7995297908782959 2.694338083267212 -0.5226542949676514
0.8116828203201294 2.7067325115203857 -0.8066478967666626
0.8238358497619629 2.7191271781921387 -1.0906414985656738
0.8359888792037964 2.7315218448638916 -1.374635100364685
0.8481419086456299 2.7439165115356445 -1.6586287021636963
0.8602949380874634 2.7563111782073975 -1.9426223039627075
0.8724479675292969 2.7687058448791504 -2.2266159057617188
0.8846009373664856 2.7811005115509033 -2.5106093883514404
0.8967539668083191 2.7934951782226562 -2.794603109359741
1.0821338891983032 2.5313336849212646 1.4777073860168457
1.0942869186401367 2.5437283515930176 1.1937137842178345
1.1064399480819702 2.5561230182647705 0.9097201824188232
1.1185929775238037 2.5685176849365234 0.625726580619812
1.1307460069656372 2.5809123516082764 0.34173300862312317
1.1428990364074707 2.5933070182800293 0.057739414274692535
1.1550520658493042 2.6057016849517822 -0.2262541800737381
1.1672050952911377 2.618096351623535 -0.5102477669715881
1.1793581247329712 2.630491018295288 -0.7942413687705994
1.1915111541748047 2.642885684967041 -1.0782350301742554
1.2036641836166382 2.655280351638794 -1.3622286319732666
1.2158172130584717 2.667675018310547 -1.6462221145629883
1.2279702425003052 2.6800694465637207 -1.9302157163619995
1.2401232719421387 2.6924641132354736 -2.2142093181610107
1.2522763013839722 2.7048587799072266 -2.4982030391693115
1.2644293308258057 2.7172534465789795 -2.782196521759033
1.4270728826522827 2.382671356201172 1.4859802722930908
1.4392259120941162 2.395066022872925 1.2019866704940796
1.4513789415359497 2.4074606895446777 0.9179930686950684
1.4635319709777832 2.4198553562164307 0.6339994668960571
1.4756850004196167 2.4322500228881836 0.3500058650970459
1.4878380298614502 2.4446446895599365 0.06601225584745407
1.4999910593032837 2.4570393562316895 -0.21798133850097656
1.5121440887451172 2.4694340229034424 -0.5019749402999878
1.5242971181869507 2.4818286895751953 -0.785968542098999
1.5364501476287842 2.4942233562469482 -1.0699621438980103
1.5486031770706177 2.506618022918701 -1.3539557456970215
1.5607562065124512 2.519012689590454 -1.6379493474960327
1.5729092359542847 2.531407356262207 -1.921942949295044
1.5850622653961182 2.54380202293396 -2.2059364318847656
1.5972152948379517 2.556196451187134 -2.4899301528930664
1.6093683242797852 2.5685911178588867 -2.773923635482788
1.7351537942886353 2.1676747798919678 1.4897806644439697
1.7473068237304688 2.1800694465637207 1.2057870626449585
1.7594598531723022 2.1924641132354736 0.921793520450592
1.7716128826141357 2.2048587799072266 0.6377999186515808
1.7837659120559692 2.2172534465789795 0.3538063168525696
1.7959189414978027 2.2296481132507324 0.06981270760297775
1.8080719709396362 2.2420425415039062 -0.21418088674545288
1.8202250003814697 2.254437208175659 -0.4981744885444641
1.8323779106140137 2.266831874847412 -0.7821680903434753
1.8445309400558472 2.279226541519165 -1.0661616325378418
1.8566839694976807 2.291621208190918 -1.350155234336853
1.8688369989395142 2.304015874862671 -1.6341488361358643
1.8809900283813477 2.316410541534424 -1.9181424379348755
1.8931430578231812 2.3288052082061768 -2.2021360397338867
1.9052960872650146 2.3411998748779297 -2.4861297607421875
1.9174491167068481 2.3535945415496826 -2.770123243331909
1.9937636852264404 1.8951456546783447 1.4889532327651978
2.0059165954589844 1.9075403213500977 1.2049596309661865
2.0180697441101074 1.9199349880218506 0.9209659695625305
2.0302226543426514 1.9323296546936035 0.6369723677635193
2.0423758029937744 1.9447243213653564 0.35297879576683044
2.0545287132263184 1.9571189880371094 0.06898518651723862
2.0666818618774414 1.9695136547088623 -0.21500840783119202
2.0788347721099854 1.9819083213806152 -0.49900200963020325
2.0909879207611084 1.9943028688430786 -0.7829955816268921
2.1031408309936523 2.006697654724121 -1.0669891834259033
2.1152939796447754 2.019092321395874 -1.3509827852249146
2.1274468898773193 2.031486988067627 -1.6349763870239258
2.1396000385284424 2.04388165473938 -1.918969988822937
2.1517529487609863 2.0562760829925537 -2.2029635906219482
2.1639058589935303 2.0686707496643066 -2.486957311630249
2.1760590076446533 2.0810654163360596 -2.7709507942199707
2.192315101623535 1.5762416124343872 1.4835315942764282
2.204468011856079 1.5886362791061401 1.199537992477417
2.216620922088623 1.601030945777893 0.915544331073761
2.228774070739746 1.613425612449646 0.6315507292747498
2.24092698097229 1.625820279121399 0.3475571572780609
2.253080129623413 1.6382149457931519 0.06356356292963028
2.265233039855957 1.6506094932556152 -0.22043003141880035
2.27738618850708 1.6630041599273682 -0.5044236183166504
2.289539098739624 1.675398826599121 -0.7884172201156616
2.301692247390747 1.687793493270874 -1.0724108219146729
2.313845157623291 1.700188159942627 -1.356404423713684
2.325998306274414 1.7125828266143799 -1.6403980255126953
2.338151216506958 1.7249774932861328 -1.9243916273117065
2.350304365158081 1.7373721599578857 -2.2083852291107178
2.362457275390625 1.7497668266296387 -2.4923787117004395
2.374610424041748 1.7621614933013916 -2.7763724327087402
2.322679042816162 1.2240185737609863 1.4737378358840942
2.334832191467285 1.2364131212234497 1.189744234085083
2.346985101699829 1.2488077878952026 0.905750572681427
2.359138250350952 1.2612024545669556 0.6217569708824158
2.371291160583496 1.2735971212387085 0.33776339888572693
2.383444309234619 1.2859917879104614 0.053769800812006
2.395597219467163 1.2983864545822144 -0.23022380471229553
2.407750368118286 1.3107811212539673 -0.5142173767089844
2.41990327835083 1.3231757879257202 -0.7982109785079956
2.432056427001953 1.3355704545974731 -1.0822045803070068
2.444209337234497 1.347965121269226 -1.366198182106018
2.45636248588562 1.360359787940979 -1.6501917839050293
2.468515396118164 1.3727543354034424 -1.9341853857040405
2.480668306350708 1.3851490020751953 -2.2181789875030518
2.492821455001831 1.3975436687469482 -2.5021724700927734
2.504974365234375 1.4099383354187012 -2.786166191101074
2.379518985748291 0.8528964519500732 1.459972858428955
2.391671895980835 0.8652911186218262 1.1759792566299438
2.403824806213379 0.8776857852935791 0.8919856548309326
2.415977954864502 0.8900803923606873 0.6079920530319214
2.428130865097046 0.9024750590324402 0.32399845123291016
2.440284013748169 0.9148697257041931 0.04000486060976982
2.452436923980713 0.927264392375946 -0.2439887374639511
2.464590072631836 0.939659059047699 -0.5279823541641235
2.47674298286438 0.9520536661148071 -0.8119759559631348
2.488896131515503 0.9644483327865601 -1.095969557762146
2.501049041748047 0.976842999458313 -1.3799631595611572
2.51320219039917 0.9892376661300659 -1.6639567613601685
2.525355100631714 1.0016323328018188 -1.9479503631591797
2.537508249282837 1.0140269994735718 -2.2319438457489014
2.549661159515381 1.0264216661453247 -2.515937566757202
2.561814308166504 1.0388163328170776 -2.799931049346924
2.3605072498321533 0.47806915640830994 1.4428002834320068
2.3726603984832764 0.49046382308006287 1.1588066816329956
2.3848133087158203 0.5028584599494934 0.8748130798339844
2.3969662189483643 0.5152531266212463 0.5908194780349731
2.4091193675994873 0.5276477932929993 0.3068258762359619
2.4212722778320312 0.5400424599647522 0.022832276299595833
2.4334254264831543 0.5524370670318604 -0.26116132736206055
2.4455783367156982 0.5648317337036133 -0.5451549291610718
2.4577314853668213 0.5772264003753662 -0.829148530960083
2.4698843955993652 0.5896210670471191 -1.1131421327590942
2.4820375442504883 0.6020157337188721 -1.3971357345581055
2.4941904544830322 0.614410400390625 -1.6811293363571167
2.5063436031341553 0.6268050074577332 -1.965122938156128
2.518496513366699 0.6391996741294861 -2.2491164207458496
2.5306496620178223 0.651594340801239 -2.5331101417541504
2.542802572250366 0.6639890074729919 -2.817103624343872
2.2664225101470947 0.11488214880228043 1.4229230880737305
2.2785756587982178 0.12727680802345276 1.1389294862747192
2.2907285690307617 0.1396714597940445 0.854935884475708
2.3028817176818848 0.15206611156463623 0.5709422826766968
2.3150346279144287 0.16446077823638916 0.28694871068000793
2.3271877765655518 0.1768554300069809 0.002955099567770958
2.3393406867980957 0.18925008177757263 -0.2810384929180145
2.3514938354492188 0.20164473354816437 -0.5650321245193481
2.3636467456817627 0.2140394002199173 -0.8490256667137146
2.3757998943328857 0.22643405199050903 -1.1330193281173706
2.3879528045654297 0.23882870376110077 -1.4170129299163818
2.4001059532165527 0.2512233555316925 -1.701006531715393
2.4122588634490967 0.26361802220344543 -1.9850001335144043
2.4244120121002197 0.276012659072876 -2.268993616104126
2.4365649223327637 0.2884073257446289 -2.5529873371124268
2.4487180709838867 0.30080199241638184 -2.8369808197021484
2.10111665725708 -0.22179566323757172 1.4011551141738892
2.113269805908203 -0.20940101146697998 1.117161512374878
2.125422716140747 -0.19700635969638824 0.8331679105758667
2.13757586479187 -0.1846117079257965 0.5491743087768555
2.149728775024414 -0.17221704125404358 0.26518070697784424
2.161881923675537 -0.15982238948345184 -0.01881289668381214
2.174034833908081 -0.1474277377128601 -0.3028064966201782
2.186187982559204 -0.13503308594226837 -0.5868000984191895
2.198340892791748 -0.12263842672109604 -0.8707937002182007
2.210494041442871 -0.1102437749505043 -1.154787302017212
2.222646951675415 -0.09784911572933197 -1.4387809038162231
2.234800100326538 -0.08545446395874023 -1.7227745056152344
2.246953010559082 -0.0730598047375679 -2.006767988204956
2.259106159210205 -0.060665152966976166 -2.290761709213257
2.271259069442749 -0.04827049747109413 -2.5747551918029785
2.283411979675293 -0.0358758419752121 -2.8587489128112793
1.8713573217391968 -0.5181806683540344 1.378387451171875
1.8835103511810303 -0.5057860016822815 1.0943938493728638
1.8956633806228638 -0.49339136481285095 0.8104002475738525
1.9078164100646973 -0.480996698141098 0.5264066457748413
1.9199694395065308 -0.4686020612716675 0.24241307377815247
1.9321224689483643 -0.45620739459991455 -0.041580528020858765
1.9442754983901978 -0.4438127279281616 -0.32557412981987
1.9564285278320312 -0.4314180910587311 -0.6095677018165588
1.9685814380645752 -0.41902342438697815 -0.8935613036155701
1.9807344675064087 -0.4066287875175476 -1.177554965019226
1.9928874969482422 -0.3942341208457947 -1.4615485668182373
2.0050406455993652 -0.38183945417404175 -1.7455421686172485
2.017193555831909 -0.3694448173046112 -2.0295357704162598
2.0293467044830322 -0.3570501506328583 -2.3135292530059814
2.041499614715576 -0.34465548396110535 -2.5975229740142822
2.053652763366699 -0.3322608470916748 -2.881516456604004
1.5865507125854492 -0.762138843536377 1.355552315711975
1.5987037420272827 -0.749744176864624 1.0715587139129639
1.6108567714691162 -0.7373495101928711 0.7875651121139526
1.6230098009109497 -0.7249548435211182 0.5035715103149414
1.6351628303527832 -0.7125601768493652 0.21957790851593018
1.6473158597946167 -0.7001655697822571 -0.06441568583250046
1.6594687700271606 -0.6877709031105042 -0.3484092950820923
1.6716217994689941 -0.6753762364387512 -0.6324028968811035
1.6837748289108276 -0.6629815697669983 -0.9163964986801147
1.6959278583526611 -0.6505869030952454 -1.200390100479126
1.7080808877944946 -0.6381922364234924 -1.4843837022781372
1.7202339172363281 -0.6257976293563843 -1.7683773040771484
1.7323869466781616 -0.6134029626846313 -2.05237078666687
1.7445399761199951 -0.6010082960128784 -2.336364507675171
1.7566930055618286 -0.5886136293411255 -2.6203579902648926
1.768846035003662 -0.5762189626693726 -2.9043517112731934
1.2583569288253784 -0.9436824321746826 1.3335845470428467
1.270509958267212 -0.9312877655029297 1.0495909452438354
1.2826629877090454 -0.9188930988311768 0.7655972838401794
1.294816017150879 -0.9064984917640686 0.4816036820411682
1.3069690465927124 -0.8941038250923157 0.19761009514331818
1.319122076034546 -0.8817091584205627 -0.08638349920511246
1.3312749862670898 -0.8693144917488098 -0.3703770935535431
1.3434280157089233 -0.8569198250770569 -0.6543706655502319
1.3555810451507568 -0.8445252180099487 -0.9383642673492432
1.3677340745925903 -0.8321305513381958 -1.2223578691482544
1.3798871040344238 -0.8197358846664429 -1.5063514709472656
1.3920401334762573 -0.8073412179946899 -1.7903450727462769
1.4041931629180908 -0.794946551322937 -2.074338674545288
1.4163461923599243 -0.7825519442558289 -2.358332395553589
1.4284992218017578 -0.7701572775840759 -2.6423258781433105
1.4406522512435913 -0.757762610912323 -2.9263193607330322
0.9002122282981873 -1.0553791522979736 1.3133833408355713
0.9123652577400208 -1.0429844856262207 1.02938973903656
0.9245182871818542 -1.0305898189544678 0.7453961968421936
0.9366713166236877 -1.0181951522827148 0.4614025950431824
0.9488243460655212 -1.005800485610962 0.17740900814533234
0.9609773755073547 -0.993405818939209 -0.1065845936536789
0.9731304049491882 -0.981011152267456 -0.39057818055152893
0.985283374786377 -0.9686164855957031 -0.6745718121528625
0.9974364042282104 -0.956221878528595 -0.9585654139518738
1.009589433670044 -0.943827211856842 -1.2425589561462402
1.0217424631118774 -0.9314325451850891 -1.5265525579452515
1.033895492553711 -0.9190378785133362 -1.8105461597442627
1.0460485219955444 -0.9066432118415833 -2.0945398807525635
1.058201551437378 -0.8942486047744751 -2.378533363342285
1.0703545808792114 -0.8818539381027222 -2.662527084350586
1.082507610321045 -0.8694592714309692 -2.9465205669403076
0.5267791748046875 -1.092655897140503 1.2957760095596313
0.538932204246521 -1.08026123046875 1.0117824077606201
0.5510852336883545 -1.0678666830062866 0.7277888655662537
0.563238263130188 -1.0554720163345337 0.44379523396492004
0.5753912925720215 -1.0430773496627808 0.15980164706707
0.587544322013855 -1.0306826829910278 -0.12419194728136063
0.5996972918510437 -1.018288016319275 -0.40818554162979126
0.6118503212928772 -1.005893349647522 -0.6921791434288025
0.6240033507347107 -0.993498682975769 -0.9761727452278137
0.6361563801765442 -0.9811040759086609 -1.2601662874221802
0.6483094096183777 -0.968709409236908 -1.5441598892211914
0.6604624390602112 -0.956314742565155 -1.8281534910202026
0.6726154685020447 -0.9439200758934021 -2.112147092819214
0.6847684979438782 -0.9315254092216492 -2.3961408138275146
0.6969215273857117 -0.9191307425498962 -2.6801342964172363
0.7090745568275452 -0.9067361354827881 -2.964128017425537
