ply
format ascii 1.0
element vertex 512
property float x
property float y
property float z
end_header
-0.5638117790222168 -1.6401175260543823 0.004358172416687012
-0.4099127948284149 -1.5470434427261353 0.0043013128452003
-0.25601381063461304 -1.4539692401885986 0.004244452808052301
-0.10211483389139175 -1.3608951568603516 0.00418759323656559
0.05178414657711983 -1.2678210735321045 0.004130733199417591
0.2056831270456314 -1.1747469902038574 0.00407387362793088
0.3595820963382721 -1.0816729068756104 0.004017013590782881
0.513481080532074 -0.9885987639427185 0.003960154019296169
0.6673800349235535 -0.8955246210098267 0.003903294214978814
0.8212790489196777 -0.8024505376815796 0.003846434410661459
0.9751780033111572 -0.7093764543533325 0.003789574606344104
1.1290769577026367 -0.6163023114204407 0.0037327148020267487
1.2829760313034058 -0.5232282280921936 0.0036758549977093935
1.4368749856948853 -0.43015411496162415 0.0036189951933920383
1.5907739400863647 -0.3370800018310547 0.003562135389074683
1.7446728944778442 -0.24400590360164642 0.003505275584757328
-0.5759367942810059 -1.6202086210250854 -0.22487106919288635
-0.422037810087204 -1.5271345376968384 -0.22492793202400208
-0.2681388258934021 -1.4340604543685913 -0.2249847948551178
-0.11423985660076141 -1.3409863710403442 -0.22504165768623352
0.03965912014245987 -1.2479122877120972 -0.22509850561618805
0.19355809688568115 -1.15483820438385 -0.22515536844730377
0.34745708107948303 -1.0617640018463135 -0.2252122312784195
0.5013560652732849 -0.9686899185180664 -0.22526909410953522
0.6552550196647644 -0.8756158351898193 -0.22532595694065094
0.8091540336608887 -0.7825416922569275 -0.22538280487060547
0.9630529880523682 -0.6894676089286804 -0.2254396677017212
1.1169519424438477 -0.5963935256004333 -0.22549653053283691
1.2708510160446167 -0.5033193826675415 -0.22555339336395264
1.4247499704360962 -0.41024529933929443 -0.22561025619506836
1.5786489248275757 -0.317171186208725 -0.2256671041250229
1.7325478792190552 -0.2240970879793167 -0.2257239669561386
-0.6116914749145508 -1.5612223148345947 -0.4447156488895416
-0.4577924609184265 -1.4681482315063477 -0.44477251172065735
-0.303893506526947 -1.3750741481781006 -0.44482937455177307
-0.14999450743198395 -1.281999945640564 -0.4448862373828888
0.0039044676814228296 -1.188925862312317 -0.4449431002140045
0.15780344605445862 -1.0958517789840698 -0.44499993324279785
0.3117024302482605 -1.0027776956558228 -0.4450567960739136
0.4656014144420624 -0.9097035527229309 -0.4451136589050293
0.6195003986358643 -0.8166294693946838 -0.445170521736145
0.7733993530273438 -0.723555326461792 -0.44522738456726074
0.927298367023468 -0.6304812431335449 -0.44528424739837646
1.0811973810195923 -0.5374071598052979 -0.4453411102294922
1.2350963354110718 -0.444333016872406 -0.4453979730606079
1.3889952898025513 -0.35125893354415894 -0.44545483589172363
1.5428942441940308 -0.2581848204135895 -0.44551166892051697
1.6967931985855103 -0.16511070728302002 -0.4455685317516327
-0.669611930847168 -1.4655733108520508 -0.6461750864982605
-0.5157129764556885 -1.3724991083145142 -0.6462319493293762
-0.3618139624595642 -1.279425024986267 -0.6462888121604919
-0.20791499316692352 -1.18635094165802 -0.6463456749916077
-0.05401601269841194 -1.093276858329773 -0.6464025378227234
0.09988296777009964 -1.0002027750015259 -0.6464594006538391
0.2537819445133209 -0.907128632068634 -0.6465162634849548
0.4076809287071228 -0.814054548740387 -0.6465731263160706
0.5615798830986023 -0.7209804058074951 -0.6466299891471863
0.7154788970947266 -0.627906322479248 -0.646686851978302
0.869377851486206 -0.534832239151001 -0.646743655204773
1.0232768058776855 -0.44175809621810913 -0.6468005180358887
1.1771758794784546 -0.34868401288986206 -0.6468573808670044
1.331074833869934 -0.2556098997592926 -0.6469142436981201
1.4849737882614136 -0.16253578662872314 -0.6469711065292358
1.638872742652893 -0.06946168094873428 -0.6470279693603516
-0.7473269701004028 -1.3371775150299072 -0.8210015892982483
-0.5934280157089233 -1.2441033124923706 -0.821058452129364
-0.4395290017127991 -1.1510292291641235 -0.8211153149604797
-0.2856300175189972 -1.0579551458358765 -0.8211721777915955
-0.1317310482263565 -0.9648810625076294 -0.8212290406227112
0.022167930379509926 -0.8718069195747375 -0.8212859034538269
0.17606690526008606 -0.7787328362464905 -0.8213427662849426
0.32996588945388794 -0.6856587529182434 -0.8213996291160583
0.4838648736476898 -0.5925846099853516 -0.8214564919471741
0.6377638578414917 -0.4995105266571045 -0.8215133547782898
0.7916628122329712 -0.40643641352653503 -0.8215702176094055
0.9455618262290955 -0.3133623003959656 -0.8216270804405212
1.0994608402252197 -0.2202882021665573 -0.821683943271637
1.2533597946166992 -0.12721408903598785 -0.8217408061027527
1.4072587490081787 -0.03413998708128929 -0.8217976689338684
1.5611577033996582 0.05893411859869957 -0.8218545317649841
-0.841654896736145 -1.1812914609909058 -0.9620378017425537
-0.6877559423446655 -1.0882173776626587 -0.9620946645736694
-0.5338569283485413 -0.9951432347297668 -0.9621515274047852
-0.37995797395706177 -0.9020691514015198 -0.9622083902359009
-0.2260589748620987 -0.8089950084686279 -0.9622652530670166
-0.07215999811887741 -0.7159209251403809 -0.9623221158981323
0.08173897862434387 -0.622846782207489 -0.962378978729248
0.23563796281814575 -0.5297726988792419 -0.9624358415603638
0.38953694701194763 -0.4366985857486725 -0.9624927043914795
0.5434359312057495 -0.343624472618103 -0.9625495672225952
0.697334885597229 -0.25055038928985596 -0.9626064300537109
0.8512338995933533 -0.1574762761592865 -0.9626632928848267
1.0051329135894775 -0.06440217047929764 -0.9627201557159424
1.159031867980957 0.02867193892598152 -0.9627770185470581
1.3129308223724365 0.12174604833126068 -0.9628338813781738
1.466829776763916 0.21482014656066895 -0.9628907442092896
-0.948733925819397 -1.004297137260437 -1.0635097026824951
-0.7948349714279175 -0.9112230539321899 -1.0635665655136108
-0.6409359574317932 -0.8181489706039429 -1.0636234283447266
-0.4870370030403137 -0.725074827671051 -1.0636802911758423
-0.33313801884651184 -0.632000744342804 -1.063737154006958
-0.17923903465270996 -0.5389266610145569 -1.0637938976287842
-0.025340048596262932 -0.4458525478839874 -1.0638507604599
0.1285589337348938 -0.35277843475341797 -1.0639076232910156
0.2824579179286957 -0.2597043216228485 -1.0639644861221313
0.43635690212249756 -0.16663020849227905 -1.064021348953247
0.590255856513977 -0.07355611026287079 -1.0640782117843628
0.7441548705101013 0.019517997279763222 -1.0641350746154785
0.8980538249015808 0.11259210109710693 -1.0641919374465942
1.051952838897705 0.2056662142276764 -1.06424880027771
1.2058517932891846 0.29874032735824585 -1.0643056631088257
1.359750747680664 0.3918144106864929 -1.0643625259399414
-1.0641802549362183 -0.8134407997131348 -1.1212629079818726
-0.910281240940094 -0.7203667163848877 -1.1213197708129883
-0.7563822865486145 -0.6272926330566406 -1.121376633644104
-0.6024832725524902 -0.5342184901237488 -1.1214334964752197
-0.44858431816101074 -0.4411444067955017 -1.1214903593063354
-0.29468533396720886 -0.34807029366493225 -1.1215471029281616
-0.14078634977340698 -0.2549961805343628 -1.1216039657592773
0.013112632557749748 -0.16192208230495453 -1.121660828590393
0.16701161861419678 -0.06884797662496567 -1.1217176914215088
0.32091060280799866 0.024226129055023193 -1.1217745542526245
0.47480958700180054 0.11730023473501205 -1.1218314170837402
0.62870854139328 0.21037434041500092 -1.121888279914856
0.7826075553894043 0.3034484386444092 -1.1219451427459717
0.9365065097808838 0.39652255177497864 -1.1220020055770874
1.0904054641723633 0.4895966649055481 -1.1220588684082031
1.2443044185638428 0.5826707482337952 -1.1221157312393188
-1.18326735496521 -0.6165360808372498 -1.1329330205917358
-1.0293684005737305 -0.5234619975090027 -1.1329898834228516
-0.875469446182251 -0.4303878843784332 -1.1330467462539673
-0.7215704917907715 -0.33731377124786377 -1.133103609085083
-0.5676714777946472 -0.2442396730184555 -1.1331604719161987
-0.4137725234031677 -0.15116555988788605 -1.1332173347473145
-0.25987353920936584 -0.058091454207897186 -1.1332741975784302
-0.10597454756498337 0.034982651472091675 -1.133331060409546
0.047924429178237915 0.12805676460266113 -1.1333879232406616
0.2018234133720398 0.2211308628320694 -1.1334447860717773
0.3557223975658417 0.31420496106147766 -1.133501648902893
0.5096213817596436 0.4072790741920471 -1.1335585117340088
0.663520336151123 0.5003531575202942 -1.1336153745651245
0.8174193501472473 0.593427300453186 -1.1336722373962402
0.9713183045387268 0.6865013837814331 -1.133729100227356
1.125217318534851 0.779575526714325 -1.1337859630584717
-1.3011200428009033 -0.42164427042007446 -1.098042368888855
-1.1472210884094238 -0.328570157289505 -1.0980992317199707
-0.9933220744132996 -0.23549605906009674 -1.0981560945510864
-0.8394231200218201 -0.14242194592952728 -1.0982129573822021
-0.6855241060256958 -0.04934784397482872 -1.0982697010040283
-0.5316251516342163 0.04372626543045044 -1.098326563835144
-0.37772613763809204 0.1368003636598587 -1.0983834266662598
-0.22382716834545135 0.22987447679042816 -1.0984402894973755
-0.06992819160223007 0.3229485750198364 -1.0984971523284912
0.08397078514099121 0.4160226881504059 -1.098554015159607
0.2378697693347931 0.5090968012809753 -1.0986108779907227
0.39176875352859497 0.6021708846092224 -1.0986677408218384
0.5456677079200745 0.6952450275421143 -1.098724603652954
0.6995667219161987 0.7883191108703613 -1.0987814664840698
0.8534656763076782 0.8813931941986084 -1.0988383293151855
1.0073646306991577 0.9744673371315002 -1.0988951921463013
-1.412913203239441 -0.2367442548274994 -1.018019199371338
-1.2590142488479614 -0.14367014169692993 -1.0180760622024536
-1.105115294456482 -0.05059603601694107 -1.0181329250335693
-0.9512162804603577 0.04247806966304779 -1.018189787864685
-0.7973172664642334 0.13555218279361725 -1.0182466506958008
-0.6434183120727539 0.2286262810230255 -1.0183035135269165
-0.489519327878952 0.32170039415359497 -1.0183603763580322
-0.33562034368515015 0.41477450728416443 -1.018417239189148
-0.18172135949134827 0.5078486204147339 -1.0184741020202637
-0.027822377160191536 0.600922703742981 -1.0185309648513794
0.1260766088962555 0.693996787071228 -1.0185878276824951
0.2799755930900574 0.7870709300041199 -1.0186446905136108
0.43387454748153687 0.8801450133323669 -1.0187015533447266
0.5877735614776611 0.9732191562652588 -1.0187584161758423
0.7416725158691406 1.0662932395935059 -1.018815279006958
0.8955715298652649 1.159367322921753 -1.0188721418380737
-1.5140700340270996 -0.06940586119890213 -0.8961398601531982
-1.3601710796356201 0.02366824261844158 -0.896196722984314
-1.2062721252441406 0.11674235016107559 -0.8962535858154297
-1.0523731708526611 0.20981645584106445 -0.8963104486465454
-0.8984741568565369 0.3028905689716339 -0.8963673114776611
-0.7445752024650574 0.39596468210220337 -0.8964241743087769
-0.5906761884689331 0.48903876543045044 -0.8964810371398926
-0.4367772042751312 0.5821129083633423 -0.8965378999710083
-0.28287824988365173 0.6751869916915894 -0.896594762802124
-0.12897925078868866 0.7682610750198364 -0.8966516256332397
0.024919722229242325 0.8613352179527283 -0.8967084884643555
0.1788187026977539 0.9544093012809753 -0.8967653512954712
0.3327176868915558 1.0474834442138672 -0.8968222141265869
0.48661667108535767 1.1405575275421143 -0.8968790769577026
0.6405156254768372 1.2336316108703613 -0.8969359397888184
0.7944146394729614 1.3267056941986084 -0.8969928026199341
-1.6004493236541748 0.07352003455162048 -0.7373940348625183
-1.4465503692626953 0.16659414768218994 -0.737450897693634
-1.2926512956619263 0.2596682608127594 -0.7375077605247498
-1.1387523412704468 0.35274234414100647 -0.7375646233558655
-0.9848533868789673 0.4458164572715759 -0.7376214861869812
-0.830954372882843 0.538890540599823 -0.7376783490180969
-0.6770554184913635 0.6319646835327148 -0.7377352118492126
-0.523156464099884 0.7250387668609619 -0.7377920746803284
-0.36925745010375977 0.8181129097938538 -0.7378489375114441
-0.21535848081111908 0.9111869931221008 -0.7379058003425598
-0.0614594966173172 1.0042611360549927 -0.7379626631736755
0.09243948012590408 1.0973352193832397 -0.7380195260047913
0.24633845686912537 1.1904093027114868 -0.7380763292312622
0.40023744106292725 1.2834833860397339 -0.7381331920623779
0.5541363954544067 1.376557469367981 -0.7381900548934937
0.708035409450531 1.4696316719055176 -0.7382469177246094
-1.6685144901275635 0.18618203699588776 -0.5482807755470276
-1.514615535736084 0.279256135225296 -0.5483376383781433
-1.3607165813446045 0.3723302483558655 -0.548394501209259
-1.2068175077438354 0.46540436148643494 -0.5484513640403748
-1.052918553352356 0.5584784746170044 -0.5485082268714905
-0.8990195989608765 0.6515525579452515 -0.5485650897026062
-0.7451205849647522 0.7446267008781433 -0.5486219525337219
-0.5912216305732727 0.8377007842063904 -0.5486788153648376
-0.4373226463794708 0.9307748675346375 -0.5487356781959534
-0.28342366218566895 1.0238490104675293 -0.5487925410270691
-0.12952467799186707 1.1169230937957764 -0.5488494038581848
0.02437429502606392 1.2099971771240234 -0.5489062070846558
0.1782732754945755 1.3030712604522705 -0.5489630699157715
0.3321722447872162 1.3961454629898071 -0.5490199327468872
0.48607122898101807 1.4892195463180542 -0.5490767955780029
0.6399702429771423 1.5822936296463013 -0.5491336584091187
-1.7154790163040161 0.26396775245666504 -0.33654239773750305
-1.5615800619125366 0.3570418655872345 -0.3365992605686188
-1.4076811075210571 0.45011597871780396 -0.3366561233997345
-1.2537821531295776 0.543190062046051 -0.3367129862308502
-1.0998830795288086 0.6362642049789429 -0.33676984906196594
-0.9459841251373291 0.7293382883071899 -0.33682671189308167
-0.7920851707458496 0.8224124312400818 -0.3368835747241974
-0.6381861567497253 0.9154865145683289 -0.3369404375553131
-0.48428720235824585 1.0085606575012207 -0.33699730038642883
-0.33038821816444397 1.1016347408294678 -0.33705416321754456
-0.1764892339706421 1.1947088241577148 -0.3371109962463379
-0.022590260952711105 1.287782907485962 -0.3371678590774536
0.13130871951580048 1.380856990814209 -0.33722472190856934
0.28520768880844116 1.4739311933517456 -0.33728158473968506
0.43910667300224304 1.5670052766799927 -0.3373384475708008
0.5930056571960449 1.6600793600082397 -0.3373953104019165
-1.7394201755523682 0.30369263887405396 -0.11084753274917603
-1.5855212211608887 0.3967667520046234 -0.11090439558029175
-1.4316222667694092 0.48984086513519287 -0.11096125096082687
-1.2777233123779297 0.5829149484634399 -0.1110181137919426
-1.1238243579864502 0.6759890913963318 -0.11107496917247772
-0.9699253439903259 0.7690631747245789 -0.11113183200359344
-0.8160263299942017 0.8621372580528259 -0.11118869483470917
-0.6621273756027222 0.9552114009857178 -0.1112455502152443
-0.5082283616065979 1.0482854843139648 -0.11130241304636002
-0.3543294072151184 1.141359567642212 -0.11135926842689514
-0.20043042302131653 1.234433650970459 -0.11141613125801086
-0.046531450003385544 1.3275078535079956 -0.11147299408912659
0.10736753046512604 1.4205819368362427 -0.11152984946966171
0.2612664997577667 1.5136560201644897 -0.11158671230077744
0.4151654839515686 1.6067301034927368 -0.11164356768131256
0.5690644979476929 1.6998041868209839 -0.11170043051242828
-1.7393579483032227 0.3037303388118744 0.11956387758255005
-1.5854588747024536 0.39680445194244385 0.11950702220201492
-1.4315599203109741 0.4898785650730133 0.1194501593708992
-1.2776609659194946 0.5829526782035828 0.11939329653978348
-1.1237620115280151 0.6760267615318298 0.11933644115924835
-0.9698629975318909 0.7691008448600769 0.11927957832813263
-0.8159640431404114 0.8621749877929688 0.1192227229475975
-0.6620650291442871 0.9552490711212158 0.11916586011648178
-0.5081660747528076 1.048323154449463 0.11910899728536606
-0.35426709055900574 1.14139723777771 0.11905214190483093
-0.20036810636520386 1.2344714403152466 0.11899527907371521
-0.04646911844611168 1.3275455236434937 0.11893842369318008
0.1074298620223999 1.4206196069717407 0.11888156086206436
0.2613288462162018 1.5136936902999878 0.11882469803094864
0.41522783041000366 1.6067677736282349 0.11876784265041351
0.5691267848014832 1.6998419761657715 0.11871097981929779
-1.715294599533081 0.2640793025493622 0.3452587425708771
-1.5613956451416016 0.35715341567993164 0.34520190954208374
-1.407496690750122 0.4502275288105011 0.345145046710968
-1.253597617149353 0.5433016419410706 0.3450881838798523
-1.0996986627578735 0.6363757252693176 0.3450313210487366
-0.945799708366394 0.7294498682022095 0.34497445821762085
-0.7919006943702698 0.8225239515304565 0.3449175953865051
-0.6380017399787903 0.9155980348587036 0.3448607325553894
-0.4841027557849884 1.0086721181869507 0.3448038697242737
-0.3302037715911865 1.1017463207244873 0.34474700689315796
-0.17630480229854584 1.1948204040527344 0.34469014406204224
-0.022405819967389107 1.2878944873809814 0.3446333110332489
0.13149316608905792 1.3809685707092285 0.3445764482021332
0.2853921353816986 1.4740426540374756 0.34451958537101746
0.4392911195755005 1.5671167373657227 0.34446272253990173
0.59319007396698 1.6601909399032593 0.344405859708786
-1.6682155132293701 0.1863628625869751 0.5569971203804016
-1.5143165588378906 0.27943697571754456 0.5569402575492859
-1.3604174852371216 0.372511088848114 0.5568833947181702
-1.206518530845642 0.46558520197868347 0.5568265318870544
-1.0526195764541626 0.5586593151092529 0.5567696690559387
-0.8987205624580383 0.6517333984375 0.556712806224823
-0.7448216080665588 0.7448074817657471 0.5566559433937073
-0.5909226536750793 0.8378816246986389 0.5565990805625916
-0.4370236396789551 0.930955708026886 0.5565422177314758
-0.2831246554851532 1.0240298509597778 0.5564853549003601
-0.1292256861925125 1.117103934288025 0.5564285516738892
0.02467329427599907 1.210178017616272 0.5563716888427734
0.17857226729393005 1.303252100944519 0.5563148260116577
0.33247125148773193 1.3963263034820557 0.556257963180542
0.4863702356815338 1.4894003868103027 0.5562011003494263
0.6402692198753357 1.5824744701385498 0.5561442375183105
-1.6000479459762573 0.07376273721456528 0.7461103796958923
-1.4461489915847778 0.16683684289455414 0.7460535168647766
-1.2922500371932983 0.2599109411239624 0.7459966540336609
-1.1383510828018188 0.35298505425453186 0.7459397912025452
-0.9844520688056946 0.4460591673851013 0.7458829283714294
-0.8305530548095703 0.5391332507133484 0.7458260655403137
-0.6766541004180908 0.6322073936462402 0.745769202709198
-0.5227551460266113 0.7252814769744873 0.7457123398780823
-0.36885613203048706 0.8183555603027344 0.7456555366516113
-0.21495716273784637 0.9114297032356262 0.7455986738204956
-0.06105818226933479 1.004503846168518 0.7455418109893799
0.09284079819917679 1.0975779294967651 0.7454849481582642
0.24673977494239807 1.1906520128250122 0.7454280853271484
0.40063875913619995 1.2837260961532593 0.7453712224960327
0.5545377135276794 1.3768001794815063 0.745314359664917
0.7084367275238037 1.469874382019043 0.7452574968338013
-1.5135828256607056 -0.06911121308803558 0.9048562049865723
-1.359683871269226 0.02396289072930813 0.9047993421554565
-1.2057849168777466 0.11703699827194214 0.9047424793243408
-1.051885962486267 0.2101110965013504 0.9046856760978699
-0.8979869484901428 0.30318519473075867 0.9046288132667542
-0.7440879940986633 0.3962593078613281 0.9045719504356384
-0.5901889801025391 0.4893334209918976 0.9045150876045227
-0.43629002571105957 0.582407534122467 0.904458224773407
-0.2823910415172577 0.6754816174507141 0.9044013619422913
-0.1284920573234558 0.768555760383606 0.9043444991111755
0.02540692687034607 0.861629843711853 0.9042876362800598
0.17930591106414795 0.9547039270401001 0.9042307734489441
0.33320489525794983 1.0477780103683472 0.9041739106178284
0.4871038794517517 1.1408522129058838 0.9041170477867126
0.6410028338432312 1.2339262962341309 0.9040601849555969
0.7949018478393555 1.327000379562378 0.9040033221244812
-1.4123600721359253 -0.2364097237586975 1.026735544204712
-1.2584611177444458 -0.14333561062812805 1.0266786813735962
-1.1045620441436768 -0.05026150867342949 1.0266218185424805
-0.9506630897521973 0.04281259700655937 1.0265649557113647
-0.7967641353607178 0.13588669896125793 1.026508092880249
-0.6428651213645935 0.2289608120918274 1.0264512300491333
-0.488966166973114 0.32203492522239685 1.0263943672180176
-0.33506718277931213 0.4151090085506439 1.0263375043869019
-0.18116821348667145 0.5081831216812134 1.0262806415557861
-0.027269231155514717 0.6012572646141052 1.0262237787246704
0.1266297549009323 0.6943313479423523 1.0261669158935547
0.280528724193573 0.7874054312705994 1.0261101722717285
0.4344277083873749 0.8804795742034912 1.0260533094406128
0.5883266925811768 0.9735536575317383 1.025996446609497
0.7422256469726562 1.0666277408599854 1.0259395837783813
0.8961246609687805 1.1597018241882324 1.0258827209472656
-1.3005236387252808 -0.4212835431098938 1.106758713722229
-1.1466245651245117 -0.32820945978164673 1.1067018508911133
-0.9927256107330322 -0.23513534665107727 1.1066449880599976
-0.8388266563415527 -0.1420612335205078 1.1065881252288818
-0.6849276423454285 -0.04898713156580925 1.1065312623977661
-0.531028687953949 0.04408697411417961 1.1064743995666504
-0.3771297037601471 0.13716107606887817 1.1064175367355347
-0.2232307344675064 0.23023518919944763 1.106360673904419
-0.06933175027370453 0.3233093023300171 1.1063038110733032
0.08456722646951675 0.41638338565826416 1.1062469482421875
0.23846620321273804 0.509457528591156 1.1061900854110718
0.3923651874065399 0.6025316119194031 1.106133222579956
0.5462641716003418 0.6956056952476501 1.1060763597488403
0.7001631259918213 0.788679838180542 1.1060194969177246
0.8540621399879456 0.8817539215087891 1.1059626340866089
1.0079611539840698 0.9748280644416809 1.1059057712554932
-1.1826521158218384 -0.616163969039917 1.1416493654251099
-1.0287531614303589 -0.5230898857116699 1.1415925025939941
-0.8748541474342346 -0.4300157427787781 1.1415356397628784
-0.7209551334381104 -0.336941659450531 1.1414787769317627
-0.5670561790466309 -0.24386753141880035 1.141421914100647
-0.413157194852829 -0.1507934331893921 1.1413650512695312
-0.2592582106590271 -0.05771932750940323 1.1413081884384155
-0.10535923391580582 0.03535477817058563 1.1412513256072998
0.048539746552705765 0.1284288913011551 1.141194462776184
0.20243872702121735 0.22150298953056335 1.1411375999450684
0.35633769631385803 0.3145771026611328 1.1410807371139526
0.5102366805076599 0.40765121579170227 1.141023874282837
0.6641356945037842 0.5007253289222717 1.1409670114517212
0.8180346488952637 0.5937994122505188 1.1409101486206055
0.9719336032867432 0.6868734955787659 1.1408532857894897
1.1258325576782227 0.7799476385116577 1.140796422958374
-1.0635712146759033 -0.8130725026130676 1.1299792528152466
-0.9096722602844238 -0.7199984192848206 1.1299223899841309
-0.7557732462882996 -0.6269242763519287 1.1298655271530151
-0.6018742918968201 -0.5338501930236816 1.1298086643218994
-0.4479753077030182 -0.4407760798931122 1.1297518014907837
-0.2940763235092163 -0.3477019965648651 1.129694938659668
-0.14017733931541443 -0.25462788343429565 1.1296380758285522
0.01372163649648428 -0.1615537703037262 1.1295812129974365
0.16762061417102814 -0.06847966462373734 1.1295243501663208
0.3215195834636688 0.024594439193606377 1.129467487335205
0.4754185676574707 0.11766854673624039 1.1294106245040894
0.629317581653595 0.21074265241622925 1.1293537616729736
0.7832165360450745 0.3038167655467987 1.129296898841858
0.937115490436554 0.3968908488750458 1.1292400360107422
1.0910145044326782 0.48996496200561523 1.1291831731796265
1.2449134588241577 0.5830391049385071 1.1291263103485107
-0.9481561779975891 -1.0039477348327637 1.0722260475158691
-0.7942571640014648 -0.9108736515045166 1.0721691846847534
-0.6403582096099854 -0.8177995681762695 1.0721123218536377
-0.48645922541618347 -0.7247254252433777 1.072055459022522
-0.3325602412223816 -0.6316513419151306 1.0719985961914062
-0.1786612719297409 -0.5385771989822388 1.0719417333602905
-0.024762291461229324 -0.4455031156539917 1.0718848705291748
0.12913668155670166 -0.35242900252342224 1.071828007698059
0.28303566575050354 -0.25935491919517517 1.0717711448669434
0.4369346499443054 -0.1662808060646057 1.0717142820358276
0.5908336043357849 -0.07320669293403625 1.071657419204712
0.7447326183319092 0.019867409020662308 1.0716005563735962
0.8986315727233887 0.11294151842594147 1.0715436935424805
1.0525305271148682 0.20601561665534973 1.0714868307113647
1.2064296007156372 0.2990897297859192 1.071429967880249
1.3603285551071167 0.39216384291648865 1.0713731050491333
-0.8411320447921753 -1.1809751987457275 0.9707541465759277
-0.6872330904006958 -1.0879011154174805 0.970697283744812
-0.5333340764045715 -0.9948270320892334 0.9706404209136963
-0.37943509221076965 -0.9017528891563416 0.9705835580825806
-0.22553612291812897 -0.8086788058280945 0.9705266952514648
-0.07163714617490768 -0.7156047224998474 0.9704698920249939
0.0822618380188942 -0.6225305795669556 0.9704130291938782
0.23616081476211548 -0.5294564962387085 0.9703561663627625
0.39005979895591736 -0.43638238310813904 0.9702993035316467
0.5439587831497192 -0.3433082699775696 0.970242440700531
0.6978577375411987 -0.2502341568470001 0.9701855778694153
0.851756751537323 -0.15716005861759186 0.9701287150382996
1.0056557655334473 -0.064085952937603 0.9700718522071838
1.1595547199249268 0.028988149017095566 0.9700149893760681
1.3134536743164062 0.12206225842237473 0.9699581265449524
1.4673526287078857 0.2151363641023636 0.9699012637138367
-0.7468804121017456 -1.3369073867797852 0.8297179341316223
-0.5929814577102661 -1.243833303451538 0.8296610713005066
-0.43908244371414185 -1.150759220123291 0.8296042680740356
-0.28518348932266235 -1.057685136795044 0.8295474052429199
-0.13128450512886047 -0.9646109938621521 0.8294905424118042
0.022614480927586555 -0.8715368509292603 0.8294336795806885
0.1765134632587433 -0.7784627676010132 0.8293768167495728
0.33041244745254517 -0.6853886842727661 0.829319953918457
0.48431143164634705 -0.5923145413398743 0.8292630910873413
0.6382104158401489 -0.4992404580116272 0.8292062282562256
0.7921093702316284 -0.40616634488105774 0.8291493654251099
0.9460083842277527 -0.3130922317504883 0.8290925025939941
1.099907398223877 -0.22001813352108002 0.8290356397628784
1.2538063526153564 -0.12694403529167175 0.8289787769317627
1.407705307006836 -0.033869922161102295 0.828921914100647
1.5616042613983154 0.059204183518886566 0.8288650512695312
-0.6692599654197693 -1.465360403060913 0.6548914313316345
-0.5153610110282898 -1.372286319732666 0.6548345685005188
-0.3614619970321655 -1.279212236404419 0.6547777056694031
-0.20756302773952484 -1.1861381530761719 0.6547208428382874
-0.05366405099630356 -1.0930639505386353 0.6546639800071716
0.10023493319749832 -0.9999898672103882 0.6546071171760559
0.2541339099407196 -0.9069157838821411 0.6545502543449402
0.4080328941345215 -0.813841700553894 0.6544933915138245
0.561931848526001 -0.7207675576210022 0.6544365286827087
0.7158308625221252 -0.6276934742927551 0.654379665851593
0.8697298169136047 -0.5346193313598633 0.6543228030204773
1.023628830909729 -0.4415452480316162 0.6542659997940063
1.1775277853012085 -0.34847113490104675 0.6542091369628906
1.331426739692688 -0.2553970217704773 0.6541522741317749
1.4853256940841675 -0.16232292354106903 0.6540954113006592
1.6392247676849365 -0.06924881786108017 0.6540385484695435
-0.6114484667778015 -1.5610753297805786 0.45343199372291565
-0.457549512386322 -1.4680012464523315 0.4533751308917999
-0.30365052819252014 -1.3749271631240845 0.4533182680606842
-0.14975154399871826 -1.2818530797958374 0.4532614052295685
0.004147433675825596 -1.1887789964675903 0.45320454239845276
0.1580464094877243 -1.0957047939300537 0.45314767956733704
0.311945378780365 -1.0026307106018066 0.4530908465385437
0.46584436297416687 -0.9095566272735596 0.453033983707428
0.6197433471679688 -0.8164824843406677 0.45297712087631226
0.773642361164093 -0.7234084010124207 0.45292025804519653
0.9275413155555725 -0.6303343176841736 0.4528633952140808
1.0814403295516968 -0.5372601747512817 0.4528065323829651
1.2353392839431763 -0.44418609142303467 0.45274966955184937
1.3892382383346558 -0.3511119782924652 0.45269280672073364
1.5431371927261353 -0.25803786516189575 0.4526359438896179
1.6970362663269043 -0.1649637669324875 0.4525790810585022
-0.5758127570152283 -1.620133638381958 0.23358741402626038
-0.4219138026237488 -1.527059555053711 0.23353055119514465
-0.2680148184299469 -1.4339854717254639 0.23347370326519012
-0.11411583423614502 -1.3409113883972168 0.2334168404340744
0.03978314250707626 -1.2478373050689697 0.23335997760295868
0.19368211925029755 -1.154763102531433 0.23330311477184296
0.34758108854293823 -1.061689019203186 0.23324625194072723
0.5014801025390625 -0.968614935874939 0.2331894040107727
0.655379056930542 -0.8755407929420471 0.23313254117965698
0.8092780113220215 -0.7824667096138 0.23307567834854126
0.9631770253181458 -0.689392626285553 0.23301881551742554
1.11707603931427 -0.5963184833526611 0.232961967587471
1.2709749937057495 -0.5032444000244141 0.23290510475635529
1.424873948097229 -0.4101702868938446 0.23284824192523956
1.5787729024887085 -0.31709617376327515 0.23279137909412384
1.7326719760894775 -0.22402207553386688 0.23273451626300812
-0.5638117790222168 -1.6401175260543823 0.004358172416687012
-0.4099127948284149 -1.5470434427261353 0.0043013128452003
-0.25601381063461304 -1.4539692401885986 0.004244452808052301
-0.10211483389139175 -1.3608951568603516 0.00418759323656559
0.05178414657711983 -1.2678210735321045 0.004130733199417591
0.2056831270456314 -1.1747469902038574 0.00407387362793088
0.3595820963382721 -1.0816729068756104 0.004017013590782881
0.513481080532074 -0.9885987639427185 0.003960154019296169
0.6673800349235535 -0.8955246210098267 0.003903294214978814
0.8212790489196777 -0.8024505376815796 0.003846434410661459
0.9751780033111572 -0.7093764543533325 0.003789574606344104
1.1290769577026367 -0.6163023114204407 0.0037327148020267487
1.2829760313034058 -0.5232282280921936 0.0036758549977093935
1.4368749856948853 -0.43015411496162415 0.0036189951933920383
1.5907739400863647 -0.3370800018310547 0.003562135389074683
1.7446728944778442 -0.24400590360164642 0.003505275584757328
