ply
format ascii 1.0
element vertex 1600
property float x
property float y
property float z
end_header
0.5789786577224731 0.7420678734779358 -0.37980034947395325
0.6319588422775269 0.6917620301246643 -0.3687613308429718
0.6793186664581299 0.6443722248077393 -0.3587009310722351
0.7214508652687073 0.5996160507202148 -0.34955644607543945
0.7587229013442993 0.5572344064712524 -0.341270387172699
0.7914857268333435 0.5169886946678162 -0.3337898552417755
0.8200799822807312 0.4786575734615326 -0.32706522941589355
0.8448439240455627 0.4420345425605774 -0.32104891538619995
0.8661177158355713 0.40692630410194397 -0.31569427251815796
0.8842499852180481 0.37315139174461365 -0.31095513701438904
0.89960116147995 0.3405391275882721 -0.306784451007843
0.9125469326972961 0.30892929434776306 -0.30313384532928467
0.9234803318977356 0.27817216515541077 -0.2999529242515564
0.9328123927116394 0.2481289654970169 -0.29718905687332153
0.9408977031707764 0.21869266033172607 -0.2947956323623657
0.947812020778656 0.18983860313892365 -0.29275819659233093
0.9535719156265259 0.16154362261295319 -0.291066974401474
0.9582058191299438 0.13376355171203613 -0.28970861434936523
0.9617522954940796 0.10643425583839417 -0.2886667847633362
0.9642583131790161 0.07947257161140442 -0.28792259097099304
0.9657768607139587 0.05277785658836365 -0.28745535016059875
0.9663657546043396 0.026232590898871422 -0.28724315762519836
0.9660856127738953 -0.000296212499961257 -0.2872631847858429
0.9649984240531921 -0.026956705376505852 -0.2874923050403595
0.9631657004356384 -0.053911518305540085 -0.2879074811935425
0.960648238658905 -0.0813383162021637 -0.28848597407341003
0.957504391670227 -0.10943014919757843 -0.28920552134513855
0.9536932706832886 -0.13840381801128387 -0.2900991439819336
0.9487892985343933 -0.16850754618644714 -0.2914182245731354
0.9422740936279297 -0.1999727338552475 -0.29346758127212524
0.933635950088501 -0.23300018906593323 -0.29654958844184875
0.9223756194114685 -0.2677568197250366 -0.30096185207366943
0.9080132842063904 -0.3043707013130188 -0.3069930374622345
0.8900983929634094 -0.3429265320301056 -0.3149174749851227
0.8682218194007874 -0.38346073031425476 -0.32498905062675476
0.8420276045799255 -0.4259571135044098 -0.3374335467815399
0.8112276792526245 -0.47034361958503723 -0.3524412214756012
0.77561354637146 -0.5164904594421387 -0.37015894055366516
0.7350685000419617 -0.5642103552818298 -0.3906831741333008
0.6895771026611328 -0.6132609844207764 -0.41405388712882996
0.5235787034034729 0.7771553993225098 -0.37014904618263245
0.5819939374923706 0.7387840747833252 -0.34344860911369324
0.6347166299819946 0.7009104490280151 -0.31869107484817505
0.6821311712265015 0.6634363532066345 -0.2957729995250702
0.7245982885360718 0.6262807250022888 -0.2746037244796753
0.7624608278274536 0.5893789529800415 -0.2551029920578003
0.7960497736930847 0.5526831746101379 -0.2371993362903595
0.8256902098655701 0.5161629915237427 -0.22082820534706116
0.8517051935195923 0.47980591654777527 -0.20593030750751495
0.8744204044342041 0.44361764192581177 -0.19244994223117828
0.8941681981086731 0.4076229929924011 -0.18033358454704285
0.9112890958786011 0.3718658685684204 -0.16952821612358093
0.9261348843574524 0.33640962839126587 -0.15997998416423798
0.9390690326690674 0.3013370931148529 -0.1516328901052475
0.9504016637802124 0.26672884821891785 -0.1444389373064041
0.9601960182189941 0.2325887829065323 -0.13838981091976166
0.9684637784957886 0.19888503849506378 -0.1334795206785202
0.9752286672592163 0.16556794941425323 -0.1296933889389038
0.9805253148078918 0.1325709968805313 -0.12700951099395752
0.9843969941139221 0.09981120377779007 -0.12539996206760406
0.9868937730789185 0.06719045341014862 -0.12483222782611847
0.9880712032318115 0.03459540754556656 -0.12527048587799072
0.9879876971244812 0.0018986822105944157 -0.12667687237262726
0.9867038130760193 -0.031041117385029793 -0.12901273369789124
0.9842804670333862 -0.06437896192073822 -0.1322396993637085
0.9807775616645813 -0.09828406572341919 -0.13632076978683472
0.9762526154518127 -0.13294009864330292 -0.1412210911512375
0.9706628918647766 -0.1685195416212082 -0.14697404205799103
0.9635747075080872 -0.20509089529514313 -0.1538742482662201
0.9544607996940613 -0.24267326295375824 -0.16227759420871735
0.942801296710968 -0.28125783801078796 -0.17253322899341583
0.928088903427124 -0.3208061754703522 -0.18498001992702484
0.9098356366157532 -0.36124852299690247 -0.19994178414344788
0.8875806927680969 -0.4024827182292938 -0.21772123873233795
0.8609015941619873 -0.44437357783317566 -0.23859325051307678
0.8294239044189453 -0.4867531657218933 -0.26279738545417786
0.7928336262702942 -0.5294221043586731 -0.2905300557613373
0.7508878707885742 -0.5721518993377686 -0.32193681597709656
0.7034264802932739 -0.6146891713142395 -0.35710567235946655
0.6503804326057434 -0.6567598581314087 -0.39606091380119324
0.4724874198436737 0.8081237077713013 -0.3609185218811035
0.5346863269805908 0.7801412343978882 -0.3196546733379364
0.5911481380462646 0.7504483461380005 -0.281324565410614
0.6422541737556458 0.7191304564476013 -0.24578137695789337
0.6883618235588074 0.6862837076187134 -0.21289534866809845
0.7298101782798767 0.65201735496521 -0.182551309466362
0.7669246792793274 0.6164555549621582 -0.1546463817358017
0.8000220060348511 0.5797395706176758 -0.1290874481201172
0.8294137716293335 0.542029619216919 -0.10578924417495728
0.8554097414016724 0.5035057067871094 -0.08467219769954681
0.8783217072486877 0.46436986327171326 -0.06566052883863449
0.8984645009040833 0.4248458445072174 -0.04868033155798912
0.9161596894264221 0.38518014550209045 -0.03365778177976608
0.931734561920166 0.3456405997276306 -0.020517505705356598
0.9454671144485474 0.3064614534378052 -0.009196192026138306
0.957414984703064 0.26766595244407654 0.00031496156589128077
0.9675900340080261 0.2292112112045288 0.00801999494433403
0.9760144352912903 0.1910400092601776 0.013932740315794945
0.9827197194099426 0.15308153629302979 0.018075397238135338
0.9877448678016663 0.11525173485279083 0.02047700807452202
0.9911348819732666 0.07745406776666641 0.02117195539176464
0.9929391741752625 0.03957928344607353 0.020198438316583633
0.9932106733322144 0.001506403903476894 0.017597023397684097
0.9920035600662231 -0.036897603422403336 0.013409184291958809
0.9893727898597717 -0.07577744871377945 0.0076760463416576385
0.9853726029396057 -0.11529022455215454 0.0004370069655124098
0.9800552129745483 -0.15560561418533325 -0.008271423168480396
0.973373532295227 -0.19685252010822296 -0.01848619058728218
0.9648934602737427 -0.23894549906253815 -0.03052370995283127
0.9540867805480957 -0.28172460198402405 -0.044765036553144455
0.9404324293136597 -0.3250053822994232 -0.06158287450671196
0.9234198927879333 -0.36857840418815613 -0.0813378244638443
0.9025545716285706 -0.41220903396606445 -0.10437338799238205
0.8773661851882935 -0.4556382894515991 -0.1310102343559265
0.8474158644676208 -0.4985848069190979 -0.16153976321220398
0.8123059868812561 -0.5407469272613525 -0.19621692597866058
0.7716895341873169 -0.5818067789077759 -0.23525293171405792
0.7252804040908813 -0.6214349269866943 -0.27880799770355225
0.6728628873825073 -0.6592954397201538 -0.3269844651222229
0.614300549030304 -0.6950531601905823 -0.379820853471756
0.42503276467323303 0.8354035019874573 -0.35205769538879395
0.4895319640636444 0.8164134621620178 -0.2972305119037628
0.5482854247093201 0.7936984896659851 -0.24636110663414001
0.6016762852668762 0.7675299048423767 -0.19924935698509216
0.6500632762908936 0.7381829619407654 -0.15571634471416473
0.6937848329544067 0.7059397101402283 -0.11560124903917313
0.7331641316413879 0.6710931062698364 -0.07875840365886688
0.7685129642486572 0.6339492201805115 -0.04505474120378494
0.8001344203948975 0.5948299169540405 -0.014367341995239258
0.8283267021179199 0.5540751218795776 0.013418941758573055
0.853385329246521 0.5120441317558289 0.03841361403465271
0.8756052255630493 0.469116747379303 0.060722559690475464
0.8952826857566833 0.4256933629512787 0.08045001327991486
0.9127163887023926 0.3821949362754822 0.09770024567842484
0.9281582236289978 0.3389790952205658 0.11255999654531479
0.94166499376297 0.29608267545700073 0.12504379451274872
0.9532518982887268 0.2534514367580414 0.13515605032444
0.9629416465759277 0.21102041006088257 0.1429096907377243
0.9707640409469604 0.1687145084142685 0.14832498133182526
0.9767539501190186 0.12644821405410767 0.15142793953418732
0.9809508323669434 0.08412665128707886 0.15224909782409668
0.9833974838256836 0.04164488986134529 0.1508222222328186
0.984138548374176 -0.0011112476931884885 0.14718270301818848
0.9832205176353455 -0.04426559433341026 0.14136655628681183
0.9806894063949585 -0.08795134723186493 0.13340894877910614
0.9765908718109131 -0.1323118656873703 0.1233430802822113
0.9709689021110535 -0.17750076949596405 0.11119894683361053
0.9637709856033325 -0.22360634803771973 0.09693244099617004
0.9545661807060242 -0.2704126834869385 0.08021831512451172
0.9428318738937378 -0.3176095187664032 0.060666028410196304
0.9280492663383484 -0.3648649752140045 0.037893082946538925
0.90970778465271 -0.41182559728622437 0.011528689414262772
0.8873091340065002 -0.4581170380115509 -0.018781626597046852
0.860373854637146 -0.5033460855484009 -0.05337080731987953
0.828447163105011 -0.5471028089523315 -0.09254429489374161
0.7911072969436646 -0.5889646410942078 -0.13657356798648834
0.7479732632637024 -0.628500759601593 -0.1856895089149475
0.6987137198448181 -0.6652778387069702 -0.24007552862167358
0.6430555582046509 -0.698866605758667 -0.2998610734939575
0.5807920694351196 -0.7288490533828735 -0.3651154935359955
0.38064202666282654 0.8593494892120361 -0.3435327112674713
0.4461013972759247 0.8480873703956604 -0.2760699391365051
0.5058532357215881 0.8312675356864929 -0.21362225711345673
0.5602866411209106 0.8093517422676086 -0.15592235326766968
0.6097639203071594 0.7827950119972229 -0.10272885113954544
0.6546252965927124 0.7520506978034973 -0.053822923451662064
0.6951931715011597 0.7175747752189636 -0.009004796855151653
0.7317753434181213 0.6798286437988281 0.0319092832505703
0.7646681070327759 0.6392840147018433 0.06908965855836868
0.7941592335700989 0.5964235663414001 0.1026960015296936
0.820529580116272 0.5517443418502808 0.13287949562072754
0.844056248664856 0.5057582855224609 0.15978498756885529
0.8650134801864624 0.4589940309524536 0.18355315923690796
0.8836739659309387 0.4119959771633148 0.20432204008102417
0.9002671241760254 0.3652200698852539 0.22220586240291595
0.9148510694503784 0.31871235370635986 0.23722884058952332
0.927446186542511 0.27240872383117676 0.249398335814476
0.9380770325660706 0.22623765468597412 0.2587275505065918
0.9467723965644836 0.1801203340291977 0.2652342617511749
0.9535639882087708 0.13397067785263062 0.26893994212150574
0.958486020565033 0.0876958966255188 0.2698686122894287
0.9615746736526489 0.041195712983608246 0.2680457830429077
0.9628664255142212 -0.005636891815811396 0.2634972631931305
0.9623984694480896 -0.05291622504591942 0.256248414516449
0.9602076411247253 -0.10076364874839783 0.2463228702545166
0.956329345703125 -0.14930836856365204 0.2337416261434555
0.9507977366447449 -0.19868765771389008 0.2185221165418625
0.9435538649559021 -0.2489529699087143 0.20060962438583374
0.9341745376586914 -0.2997792363166809 0.1796770989894867
0.9221455454826355 -0.35073044896125793 0.15533317625522614
0.9069544076919556 -0.4013504385948181 0.12719300389289856
0.8880937099456787 -0.4511638283729553 0.09488151967525482
0.8650638461112976 -0.4996761083602905 0.05803768336772919
0.8373783826828003 -0.5463762879371643 0.016319040209054947
0.8045691847801208 -0.5907394289970398 -0.0305929034948349
0.7661927938461304 -0.6322304606437683 -0.08298690617084503
0.7218369245529175 -0.6703096032142639 -0.14111584424972534
0.6711285710334778 -0.7044377326965332 -0.20519056916236877
0.6137406826019287 -0.7340832948684692 -0.2753733992576599
0.549400806427002 -0.7587303519248962 -0.3517722487449646
0.33882346749305725 0.8802590370178223 -0.3353255093097687
0.40402930974960327 0.8755784034729004 -0.256104439496994
0.4636251628398895 0.8636817336082458 -0.1829836070537567
0.5180069804191589 0.8452242016792297 -0.11561208218336105
0.5675415992736816 0.8208408355712891 -0.05367186293005943
0.6125706434249878 0.7911518812179565 0.0031262757256627083
0.6534150242805481 0.7567684650421143 0.055046942085027695
0.6903777718544006 0.7182969450950623 0.102333664894104
0.7237474322319031 0.6763437390327454 0.14521190524101257
0.7538001537322998 0.631517767906189 0.18389210104942322
0.7808027267456055 0.5844337940216064 0.21857216954231262
0.8050138354301453 0.5357147455215454 0.24943986535072327
0.8266859650611877 0.48599255084991455 0.2766748368740082
0.8460673689842224 0.4359101951122284 0.30045071244239807
0.8633660674095154 0.3859999179840088 0.3209104537963867
0.8786422610282898 0.3363145887851715 0.3380908966064453
0.8919215202331543 0.28678256273269653 0.3520049452781677
0.9032308459281921 0.23732727766036987 0.362667441368103
0.9125989675521851 0.18786799907684326 0.3700947165489197
0.9200549125671387 0.1383189707994461 0.37430354952812195
0.9256284236907959 0.0885903537273407 0.3753105700016022
0.9293490052223206 0.03858697786927223 0.37313154339790344
0.9312458038330078 -0.011790672317147255 0.3677806258201599
0.9313469529151917 -0.06264743208885193 0.3592696189880371
0.9296796321868896 -0.11409294605255127 0.34760725498199463
0.9262691736221313 -0.16624273359775543 0.33279862999916077
0.921139121055603 -0.2192181497812271 0.31484416127204895
0.9142242670059204 -0.27303841710090637 0.29367566108703613
0.9051116108894348 -0.3272877037525177 0.26896724104881287
0.89329993724823 -0.3814251124858856 0.2403308004140854
0.8782867789268494 -0.43489015102386475 0.20738232135772705
0.8595713376998901 -0.487102746963501 0.16974501311779022
0.8366563320159912 -0.5374640226364136 0.12705276906490326
0.8090522885322571 -0.5853581428527832 0.07895448058843613
0.7762815356254578 -0.630155086517334 0.025118721649050713
0.7378836870193481 -0.6712139844894409 -0.034760985523462296
0.6934210062026978 -0.7078883647918701 -0.10096056014299393
0.6424850225448608 -0.7395321130752563 -0.17371951043605804
0.5847027897834778 -0.7655054926872253 -0.25323486328125
0.5197446942329407 -0.7851833701133728 -0.3396551311016083
0.29915228486061096 0.8983857035636902 -0.3274335265159607
0.3630070090293884 0.8992486000061035 -0.2372996211051941
0.4214206039905548 0.8914062976837158 -0.15436811745166779
0.4747941195964813 0.8757091164588928 -0.07818771153688431
0.5234960913658142 0.8529686331748962 -0.008350217714905739
0.5678670406341553 0.8239655494689941 0.055515140295028687
0.6082229614257812 0.7894561886787415 0.113746777176857
0.6448595523834229 0.7501792907714844 0.16665500402450562
0.6780545711517334 0.7068609595298767 0.21452577412128448
0.7080706357955933 0.6602191925048828 0.25762414932250977
0.7351579070091248 0.6109678745269775 0.2961973547935486
0.7595556378364563 0.5598201751708984 0.33047738671302795
0.7814942598342896 0.507490873336792 0.36068347096443176
0.8011966943740845 0.454698771238327 0.38702407479286194
0.8188496828079224 0.40203428268432617 0.4096706211566925
0.8345147371292114 0.3495559096336365 0.42867451906204224
0.8482226133346558 0.2971869111061096 0.4440564811229706
0.8600025177001953 0.24484817683696747 0.45583489537239075
0.8698828220367432 0.19245855510234833 0.46402573585510254
0.877890408039093 0.13993412256240845 0.4686419665813446
0.8840509057044983 0.08718883246183395 0.4696931838989258
0.8883878588676453 0.03413330763578415 0.4671854078769684
0.890923798084259 -0.019324377179145813 0.46112048625946045
0.8916782140731812 -0.07327961176633835 0.4514954686164856
0.8906694054603577 -0.1278308480978012 0.43830275535583496
0.8879126310348511 -0.18308065831661224 0.421529084444046
0.883421003818512 -0.23913562297821045 0.4011552929878235
0.8771233558654785 -0.29598698019981384 0.37709707021713257
0.8686211109161377 -0.3531442880630493 0.3490307331085205
0.8574299216270447 -0.40997958183288574 0.3165724277496338
0.8430617451667786 -0.4658440351486206 0.2793397605419159
0.8250267505645752 -0.5200679302215576 0.23695442080497742
0.8028344511985779 -0.5719602108001709 0.18904517590999603
0.775997519493103 -0.6208109259605408 0.13525201380252838
0.7440348863601685 -0.6658926606178284 0.0752302035689354
0.7064751982688904 -0.7064641714096069 0.008655144833028316
0.6628629565238953 -0.7417749166488647 -0.06477221846580505
0.6127631068229675 -0.7710705399513245 -0.14531992375850677
0.5557669401168823 -0.7935991287231445 -0.23321901261806488
0.4914989471435547 -0.8086194396018982 -0.3286575675010681
0.2612607777118683 0.9139513969421387 -0.3198687732219696
0.3227776288986206 0.9194211959838867 -0.21965232491493225
0.3791044354438782 0.9148625731468201 -0.1277408003807068
0.4306415021419525 0.9013186097145081 -0.04356834664940834
0.47775349020957947 0.8797714710235596 0.03337480500340462
0.5207737684249878 0.8511525392532349 0.10354965180158615
0.560008704662323 0.8163520097732544 0.16737477481365204
0.5957416296005249 0.7762265801429749 0.2252318561077118
0.6282356381416321 0.7316072583198547 0.27747029066085815
0.65773606300354 0.6833040714263916 0.3244113028049469
0.6844736933708191 0.6321130394935608 0.36635205149650574
0.7086661458015442 0.5788193345069885 0.403568297624588
0.7305198907852173 0.5242017507553101 0.4363176226615906
0.7502321600914001 0.4690365195274353 0.46484166383743286
0.7679676413536072 0.4139566421508789 0.48933878540992737
0.7837880849838257 0.35902583599090576 0.5098763108253479
0.7977275848388672 0.3041651248931885 0.5264843106269836
0.8098168969154358 0.2492951899766922 0.539186418056488
0.820083737373352 0.19433628022670746 0.5479998588562012
0.828552782535553 0.13920772075653076 0.5529348850250244
0.8352459073066711 0.08382830023765564 0.5539953112602234
0.8401813507080078 0.0281149260699749 0.551177978515625
0.8433749079704285 -0.028016502037644386 0.5444728136062622
0.8448390960693359 -0.08465216308832169 0.533862292766571
0.8445830345153809 -0.14187981188297272 0.519321858882904
0.8426131010055542 -0.19979004561901093 0.5008191466331482
0.83893221616745 -0.2584759593009949 0.4783138036727905
0.8334649801254272 -0.3179049789905548 0.4517040252685547
0.8258302807807922 -0.37752535939216614 0.42066729068756104
0.8155658841133118 -0.43663713335990906 0.3848240375518799
0.8022032380104065 -0.49451684951782227 0.34379279613494873
0.7852685451507568 -0.5504170060157776 0.29719287157058716
0.7642843723297119 -0.6035656332969666 0.24464721977710724
0.7387715578079224 -0.6531667113304138 0.1857859045267105
0.7082520127296448 -0.6984025835990906 0.12025022506713867
0.6722522377967834 -0.738436222076416 0.047697294503450394
0.6303073763847351 -0.7724153995513916 -0.032194964587688446
0.5819658637046814 -0.7994779348373413 -0.11972224712371826
0.5267947912216187 -0.8187576532363892 -0.2151479870080948
0.4643858075141907 -0.8293924331665039 -0.318697065114975
0.2248317301273346 0.9271567463874817 -0.31265774369239807
0.283134400844574 0.9363939166069031 -0.20318764448165894
0.3365882337093353 0.934442400932312 -0.10310409218072891
0.38558319211006165 0.9225313067436218 -0.011716648004949093
0.43047118186950684 0.9018033146858215 0.07159332185983658
0.4715704917907715 0.873328685760498 0.14738203585147858
0.5091710686683655 0.8381180167198181 0.21615150570869446
0.5435376763343811 0.7971318364143372 0.2783564031124115
0.5749133825302124 0.7512904405593872 0.3344101011753082
0.6035221815109253 0.7014809250831604 0.3846897482872009
0.6295720338821411 0.6485649943351746 0.4295409917831421
0.6532562375068665 0.5933843851089478 0.4692818522453308
0.6747558116912842 0.5367661118507385 0.5042060017585754
0.6942408680915833 0.47952792048454285 0.5345860123634338
0.7118536829948425 0.4223332107067108 0.5606449246406555
0.7276539206504822 0.36525076627731323 0.5824664831161499
0.7416774034500122 0.30820220708847046 0.6000916957855225
0.753955066204071 0.25111010670661926 0.6135508418083191
0.7645134329795837 0.19389811158180237 0.622863233089447
0.7733742594718933 0.13649003207683563 0.6280381679534912
0.7805556058883667 0.07881046086549759 0.6290749311447144
0.7860708236694336 0.020783178508281708 0.6259621381759644
0.7899293303489685 -0.037668030709028244 0.6186788082122803
0.7921368479728699 -0.09662025421857834 0.6071938276290894
0.7926948070526123 -0.15615125000476837 0.5914661288261414
0.7916008830070496 -0.21634036302566528 0.5714442133903503
0.7888487577438354 -0.2772686183452606 0.5470660328865051
0.7843595743179321 -0.3388831317424774 0.5182111859321594
0.7777748107910156 -0.40058210492134094 0.4845580756664276
0.7686590552330017 -0.46160587668418884 0.44572991132736206
0.7565692067146301 -0.5211681127548218 0.40134546160697937
0.7410536408424377 -0.5784536004066467 0.3510203957557678
0.7216541171073914 -0.632618248462677 0.29437071084976196
0.6979069113731384 -0.6827880144119263 0.23101574182510376
0.6693455576896667 -0.7280615568161011 0.1605822592973709
0.6355023980140686 -0.7675103545188904 0.08270863443613052
0.5959135293960571 -0.8001837730407715 -0.002949888352304697
0.5501218438148499 -0.8251129388809204 -0.0967157706618309
0.4976823031902313 -0.8413171768188477 -0.1988830864429474
0.43816718459129333 -0.8478114008903503 -0.3097109794616699
0.18959464132785797 0.9381906390190125 -0.30584052205085754
0.2439199984073639 0.9504497647285461 -0.18795615434646606
0.29383188486099243 0.9505204558372498 -0.08049304783344269
0.33969685435295105 0.9398045539855957 0.017367318272590637
0.3818425238132477 0.9195919632911682 0.10635409504175186
0.4205629527568817 0.8910779356956482 0.18711912631988525
0.45612284541130066 0.8553785085678101 0.2602471709251404
0.4887618124485016 0.8135438561439514 0.32626473903656006
0.5186971426010132 0.7665688991546631 0.38564708828926086
0.5461269617080688 0.7154037952423096 0.43882516026496887
0.5712326765060425 0.6609622836112976 0.4861907958984375
0.5941808819770813 0.6041288375854492 0.52810138463974
0.6151251792907715 0.5457659363746643 0.5648841857910156
0.6342080235481262 0.48672008514404297 0.5968400239944458
0.6515480279922485 0.4276750087738037 0.6242146492004395
0.6672009229660034 0.36870503425598145 0.647108256816864
0.6812020540237427 0.3097347021102905 0.6655733585357666
0.6935809254646301 0.25069063901901245 0.6796473264694214
0.7043615579605103 0.1915014535188675 0.6893534064292908
0.7135623693466187 0.13209667801856995 0.6947006583213806
0.7211968898773193 0.07240744680166245 0.6956848502159119
0.7272734642028809 0.01236489973962307 0.6922881007194519
0.7317959070205688 -0.04809898883104324 0.6844798922538757
0.7347632050514221 -0.10905258357524872 0.6722164750099182
0.7361696362495422 -0.1705639660358429 0.6554412841796875
0.7360048890113831 -0.2327023148536682 0.6340842247009277
0.734254002571106 -0.29553747177124023 0.6080623865127563
0.7308362126350403 -0.35899919271469116 0.577236533164978
0.7254199981689453 -0.4224449396133423 0.5412852168083191
0.7176026701927185 -0.4850652515888214 0.4998338520526886
0.7069720029830933 -0.5460202097892761 0.45250046253204346
0.6931054592132568 -0.6044362187385559 0.39889636635780334
0.6755710244178772 -0.6594049334526062 0.338629812002182
0.6539284586906433 -0.7099818587303162 0.2713088095188141
0.6277308464050293 -0.7551873326301575 0.19654491543769836
0.5965266227722168 -0.7940070033073425 0.11395768076181412
0.5598627328872681 -0.8253958225250244 0.02317977510392666
0.5172882676124573 -0.84828120470047 -0.07613750547170639
0.4683581590652466 -0.8615689277648926 -0.18431782722473145
0.41263872385025024 -0.8641508221626282 -0.30165308713912964
0.15532386302947998 0.9472382068634033 -0.29947003722190857
0.20502766966819763 0.9618676900863647 -0.1740308552980423
0.25084614753723145 0.9634643793106079 -0.05997055023908615
0.29310715198516846 0.953585147857666 0.0436520054936409
0.33210140466690063 0.9336498975753784 0.13767121732234955
0.3680877089500427 0.9049624800682068 0.2228294461965561
0.40129703283309937 0.8687299489974976 0.2997893989086151
0.43193650245666504 0.826077401638031 0.36914488673210144
0.4601919651031494 0.7780617475509644 0.43142908811569214
0.4862312078475952 0.7256837487220764 0.4871227443218231
0.5102056860923767 0.6698969602584839 0.5366603136062622
0.5322529673576355 0.6116185188293457 0.5804357528686523
0.552497923374176 0.551735520362854 0.6188071370124817
0.5710543394088745 0.4911130666732788 0.6521008610725403
0.5880170464515686 0.43044787645339966 0.6805837750434875
0.6034351587295532 0.3698199987411499 0.7043715715408325
0.6173415184020996 0.3091592490673065 0.7235285639762878
0.6297624111175537 0.24839790165424347 0.7380998134613037
0.640717625617981 0.1874707192182541 0.7481124401092529
0.6502215266227722 0.12631408870220184 0.753576397895813
0.6582826375961304 0.06486643850803375 0.7544852495193481
0.664903998374939 0.0030666321981698275 0.7508158087730408
0.6700835227966309 -0.059145212173461914 0.742529034614563
0.6738136410713196 -0.12182868272066116 0.7295699119567871
0.6760820150375366 -0.18504279851913452 0.7118678689002991
0.6768707036972046 -0.24884697794914246 0.6893357038497925
0.6761572360992432 -0.31330105662345886 0.6618704199790955
0.6738599538803101 -0.3783196806907654 0.6293147206306458
0.6696785688400269 -0.4432262182235718 0.5913471579551697
0.6632488369941711 -0.5071699619293213 0.5475956797599792
0.6541951894760132 -0.5692650675773621 0.49767693877220154
0.6421307921409607 -0.6285872459411621 0.4411979913711548
0.6266573667526245 -0.6841713786125183 0.3777592182159424
0.607366144657135 -0.7350093722343445 0.3069571554660797
0.583838701248169 -0.7800499796867371 0.22838808596134186
0.555648922920227 -0.818199098110199 0.14165262877941132
0.5223655700683594 -0.8483221530914307 0.04636061564087868
0.48355475068092346 -0.8692469000816345 -0.05786299705505371
0.43878406286239624 -0.8797693252563477 -0.17137175798416138
0.38762667775154114 -0.8786600232124329 -0.29449042677879333
0.12183859199285507 0.9544888734817505 -0.29361045360565186
0.1664029359817505 0.9709305763244629 -0.16150295734405518
0.2076953947544098 0.9736441969871521 -0.041621848940849304
0.24598923325538635 0.9643184542655945 0.067080557346344
0.28152528405189514 0.9444826245307922 0.16553059220314026
0.3145165741443634 0.9155324101448059 0.25454992055892944
0.3451516926288605 0.8787504434585571 0.3348701298236847
0.37359845638275146 0.8353237509727478 0.4071444869041443
0.40000608563423157 0.7863596081733704 0.471957802772522
0.4245077073574066 0.7328985333442688 0.5298354029655457
0.44722241163253784 0.6759260296821594 0.5812506079673767
0.4682563245296478 0.6163821816444397 0.6266301274299622
0.4877045750617981 0.5551712512969971 0.6663603186607361
0.5056523084640503 0.4931696355342865 0.7007914185523987
0.5221700668334961 0.43108129501342773 0.7302095890045166
0.537298321723938 0.3689926266670227 0.7547456622123718
0.5510649085044861 0.30684003233909607 0.7744745016098022
0.5634906888008118 0.24456287920475006 0.7894482612609863
0.5745906233787537 0.1821032464504242 0.7996987700462341
0.5843733549118042 0.11940494179725647 0.8052371740341187
0.5928415656089783 0.056414179503917694 0.8060548901557922
0.5999927520751953 -0.0069221570156514645 0.8021249175071716
0.6058183908462524 -0.07065565139055252 0.7934008240699768
0.6103049516677856 -0.13483737409114838 0.7798178195953369
0.6134329438209534 -0.1995173990726471 0.7612924575805664
0.6151778101921082 -0.2647460103034973 0.7377225160598755
0.6155090928077698 -0.33057349920272827 0.7089858055114746
0.6143466234207153 -0.39690113067626953 0.674909234046936
0.611424446105957 -0.4630233943462372 0.6351718306541443
0.606421947479248 -0.5280542373657227 0.589404821395874
0.5990061163902283 -0.591068685054779 0.5372246503829956
0.5888320803642273 -0.6510984301567078 0.4782349765300751
0.575542151927948 -0.7071285843849182 0.41202908754348755
0.5587664842605591 -0.7580946087837219 0.33819249272346497
0.5381242632865906 -0.8028809428215027 0.2563066780567169
0.5132242441177368 -0.8403205275535583 0.16595333814620972
0.4836668074131012 -0.8691957592964172 0.06671907752752304
0.44904667139053345 -0.8882413506507874 -0.04179864376783371
0.40895533561706543 -0.8961478471755981 -0.15998515486717224
0.36298537254333496 -0.8915687203407288 -0.28820106387138367
0.08900374174118042 0.9601421356201172 -0.28833475708961487
0.1280452460050583 0.9779320955276489 -0.15047687292099
0.16449959576129913 0.9814391136169434 -0.02554825134575367
0.19857089221477509 0.9724547863006592 0.08757755905389786
0.23043841123580933 0.952596127986908 0.1898966282606125
0.26025983691215515 0.923332154750824 0.2822926640510559
0.2881741225719452 0.8860065937042236 0.36555206775665283
0.31430384516716003 0.8418568968772888 0.44037699699401855
0.33875712752342224 0.7920311093330383 0.5073956251144409
0.3616292178630829 0.737601637840271 0.5671716928482056
0.38300418853759766 0.6795783638954163 0.6202119588851929
0.4029558300971985 0.6189189553260803 0.6669732928276062
0.4215488135814667 0.5565393567085266 0.7078680992126465
0.43883949518203735 0.4933224618434906 0.7432690858840942
0.4548742175102234 0.4299755096435547 0.7734812498092651
0.46968284249305725 0.36659154295921326 0.7986484169960022
0.48328596353530884 0.30311471223831177 0.8188546299934387
0.4956977367401123 0.2394922971725464 0.8341591358184814
0.5069261789321899 0.1756742000579834 0.8445969820022583
0.5169732570648193 0.11161217093467712 0.8501802682876587
0.5258352756500244 0.04726047441363335 0.8508996367454529
0.5335031747817993 -0.01742583140730858 0.846723735332489
0.5399619340896606 -0.08249003440141678 0.8376002311706543
0.5451914072036743 -0.1479746699333191 0.8234557509422302
0.5491655468940735 -0.2139211893081665 0.804195761680603
0.5518529415130615 -0.28037089109420776 0.7797040343284607
0.5532159209251404 -0.3473648130893707 0.7498421669006348
0.5531760454177856 -0.4147917330265045 0.714422345161438
0.5515058040618896 -0.4819208085536957 0.6731269955635071
0.5479317307472229 -0.5478350520133972 0.6255921721458435
0.5421686172485352 -0.611575722694397 0.5714365839958191
0.533918559551239 -0.6721367835998535 0.5102624297142029
0.5228708386421204 -0.7284599542617798 0.44165754318237305
0.5087018609046936 -0.7794317603111267 0.36519816517829895
0.49107596278190613 -0.8238804936408997 0.28045201301574707
0.46964535117149353 -0.8605743050575256 0.18698184192180634
0.44405192136764526 -0.8882211446762085 0.08435036242008209
0.4139288067817688 -0.9054699540138245 -0.02787478268146515
0.3789025843143463 -0.9109134674072266 -0.150114506483078
0.3385962247848511 -0.9030933380126953 -0.2827712893486023
0.056731414049863815 0.9644120931625366 -0.28372135758399963
0.09000925719738007 0.9831810593605042 -0.14106380939483643
0.1214352399110794 0.9872409701347351 -0.011859799735248089
0.1511334776878357 0.9784541726112366 0.10505622625350952
0.179212749004364 0.9585009813308716 0.2107192426919937
0.2057684063911438 0.9289056658744812 0.3060510456562042
0.23088400065898895 0.8910598754882812 0.39187490940093994
0.2546326220035553 0.8462412357330322 0.46892794966697693
0.2770778238773346 0.7956309914588928 0.5378714799880981
0.2982748746871948 0.7403281331062317 0.5993003249168396
0.31827130913734436 0.6813624501228333 0.6537504196166992
0.33710771799087524 0.6197060346603394 0.7017051577568054
0.35481810569763184 0.5562833547592163 0.7436012029647827
0.37143051624298096 0.4919812083244324 0.7798337340354919
0.3869675397872925 0.427508145570755 0.810726523399353
0.4014465808868408 0.3629637062549591 0.8364341855049133
0.41487938165664673 0.29830047488212585 0.8570483922958374
0.42727136611938477 0.23347364366054535 0.8726326823234558
0.43862244486808777 0.16844122111797333 0.8832247853279114
0.44892701506614685 0.10316313803195953 0.888837456703186
0.4581740200519562 0.03760172054171562 0.8894593715667725
0.4663471579551697 -0.028279859572649002 0.8850560188293457
0.4734245836734772 -0.09451650083065033 0.8755692839622498
0.479379266500473 -0.16114236414432526 0.8609182238578796
0.48417845368385315 -0.22819013893604279 0.8409987092018127
0.4877837300300598 -0.2956922948360443 0.8156822919845581
0.49015089869499207 -0.36368072032928467 0.7848169207572937
0.491203635931015 -0.43203192949295044 0.7482027411460876
0.49075502157211304 -0.49999117851257324 0.7055284380912781
0.488582044839859 -0.5666142702102661 0.6564390063285828
0.4844503402709961 -0.6309125423431396 0.6005584001541138
0.4781135022640228 -0.6918473243713379 0.5374904870986938
0.4693126380443573 -0.748324453830719 0.46682119369506836
0.4577762484550476 -0.7991893291473389 0.3881198465824127
0.44322001934051514 -0.8432226181030273 0.30094167590141296
0.42534735798835754 -0.8791378736495972 0.2048313468694687
0.40384966135025024 -0.9055783748626709 0.09932608902454376
0.3784075379371643 -0.9211175441741943 -0.016039449721574783
0.3486921191215515 -0.9242592453956604 -0.1417279988527298
0.31436702609062195 -0.913440465927124 -0.2781933844089508
0.025007003918290138 0.967481255531311 -0.2798402011394501
0.05240502208471298 0.9869397878646851 -0.13335654139518738
0.07871255278587341 0.991379976272583 -0.0006459233700297773
0.10396834462881088 0.9827004075050354 0.11944747716188431
0.12820613384246826 0.9626197218894958 0.22795993089675903
0.15145517885684967 0.932699978351593 0.3258225619792938
0.1737404614686966 0.8943682909011841 0.41387370228767395
0.19508306682109833 0.8489344716072083 0.4928695857524872
0.21550029516220093 0.7976071834564209 0.563493013381958
0.2350059449672699 0.7415085434913635 0.6263619661331177
0.2536103427410126 0.681686282157898 0.6820360422134399
0.27132055163383484 0.6191250681877136 0.7310226559638977
0.28814011812210083 0.5547573566436768 0.773781955242157
0.304069459438324 0.4894728660583496 0.8107318878173828
0.31910768151283264 0.4239806830883026 0.8422152400016785
0.3332586884498596 0.35838669538497925 0.8683955073356628
0.3465234339237213 0.29265159368515015 0.8893685340881348
0.3588975965976715 0.22673842310905457 0.9052003026008606
0.37037187814712524 0.16061308979988098 0.9159294962882996
0.3809320330619812 0.09424342215061188 0.921567976474762
0.39055877923965454 0.027599725872278214 0.9221022129058838
0.39922812581062317 -0.03934672847390175 0.9174938797950745
0.4069109559059143 -0.10662263631820679 0.9076794385910034
0.4135730266571045 -0.1742537021636963 0.8925714492797852
0.4191744923591614 -0.2422637939453125 0.8720569014549255
0.4236704409122467 -0.3106764554977417 0.8459981083869934
0.42700958251953125 -0.3795139789581299 0.8142305612564087
0.4291185736656189 -0.448640376329422 0.77654629945755
0.42985183000564575 -0.5172778964042664 0.7326444983482361
0.429038405418396 -0.5844565629959106 0.6821834444999695
0.42649680376052856 -0.6491615772247314 0.6247969269752502
0.42203477025032043 -0.7103273272514343 0.5600954294204712
0.4154485762119293 -0.7668300271034241 0.4876665472984314
0.4065224826335907 -0.8174824118614197 0.4070759415626526
0.3950287699699402 -0.8610277771949768 0.3178690969944
0.38072729110717773 -0.8961353898048401 0.219572976231575
0.3633657693862915 -0.9213964939117432 0.11169841885566711
0.34267961978912354 -0.9353203177452087 -0.0062570227310061455
0.3183930218219757 -0.9363330602645874 -0.13480527698993683
0.29021933674812317 -0.9227761030197144 -0.27446335554122925
-0.006067186128348112 0.9693576693534851 -0.27671515941619873
0.015367219224572182 0.9892317652702332 -0.1273624151945114
0.03647855669260025 0.9938909411430359 0.008102275431156158
0.05722149461507797 0.985236406326294 0.1307767629623413
0.07755517214536667 0.9650007486343384 0.24166114628314972
0.09744248539209366 0.9347671270370483 0.3416670560836792
0.11684934794902802 0.8959858417510986 0.43162593245506287
0.13574421405792236 0.8499912023544312 0.5122968554496765
0.15409740805625916 0.7980144619941711 0.5843724012374878
0.17188072204589844 0.7411975264549255 0.6484857201576233
0.1890668421983719 0.6806038618087769 0.7052146792411804
0.20562902092933655 0.6172298789024353 0.7550877928733826
0.22154057025909424 0.5520153045654297 0.7985876202583313
0.2367742657661438 0.48585179448127747 0.8361546397209167
0.2513061761856079 0.419448584318161 0.8681519627571106
0.26512545347213745 0.3529173731803894 0.8947489261627197
0.2782209515571594 0.2862262725830078 0.916042685508728
0.29057741165161133 0.2193460315465927 0.932099461555481
0.3021753132343292 0.15224997699260712 0.9429567456245422
0.3129909038543701 0.08491364866495132 0.9486244320869446
0.3229961097240448 0.017315005883574486 0.9490856528282166
0.3321584463119507 -0.0505666546523571 0.944297730922699
0.3404409885406494 -0.11874984949827194 0.934192419052124
0.3478018045425415 -0.18725168704986572 0.9186756014823914
0.35419410467147827 -0.2560873329639435 0.897627592086792
0.3595655560493469 -0.3252706825733185 0.8709017634391785
0.36385849118232727 -0.39481446146965027 0.8383247256278992
0.36700206995010376 -0.46456971764564514 0.7996832728385925
0.3688923120498657 -0.5337361097335815 0.7546913027763367
0.36941054463386536 -0.601320207118988 0.7030246257781982
0.368429034948349 -0.6662846803665161 0.6443320512771606
0.36581093072891235 -0.7275417447090149 0.5782347917556763
0.36140912771224976 -0.7839450240135193 0.504326581954956
0.3550666868686676 -0.834283173084259 0.4221738874912262
0.3466154634952545 -0.8772719502449036 0.3313152492046356
0.3358761668205261 -0.9115481376647949 0.23126216232776642
0.3226579427719116 -0.9356626272201538 0.12149953842163086
0.30675792694091797 -0.9480739831924438 0.0014862546231597662
0.28796112537384033 -0.947143018245697 -0.12934337556362152
0.2660403847694397 -0.9311273097991943 -0.271577924489975
-0.03640523925423622 0.9700213670730591 -0.2743455171585083
-0.021003790199756622 0.9900360703468323 -0.12304513156414032
-0.005169030744582415 0.9947474002838135 0.014442598447203636
0.010976927354931831 0.9860289096832275 0.1391151249408722
0.027323458343744278 0.965604841709137 0.2519024908542633
0.04377017915248871 0.9350627064704895 0.35367029905319214
0.060225799679756165 0.8958656191825867 0.44522276520729065
0.07660707086324692 0.8493640422821045 0.5273061990737915
0.09283771365880966 0.7968068718910217 0.6006120443344116
0.1088474914431572 0.7393519878387451 0.6657801270484924
0.12457134574651718 0.678076982498169 0.7234020233154297
0.13994845747947693 0.6139885783195496 0.7740237712860107
0.1549215465784073 0.5480318665504456 0.8181488513946533
0.16943594813346863 0.4811006188392639 0.8562408685684204
0.18344426155090332 0.41390275955200195 0.8886827826499939
0.19691979885101318 0.3465549647808075 0.9156473875045776
0.20983849465847015 0.27903223037719727 0.9372302889823914
0.22217302024364471 0.21131229400634766 0.9534956812858582
0.23389273881912231 0.1433754712343216 0.964478075504303
0.2449636608362198 0.07520455867052078 0.9701834917068481
0.2553480863571167 0.006785016506910324 0.9705912470817566
0.26500454545021057 -0.061896078288555145 0.9656537771224976
0.2738876938819885 -0.13084907829761505 0.955297589302063
0.2819475531578064 -0.20008257031440735 0.9394226670265198
0.28912970423698425 -0.2696024775505066 0.9179032444953918
0.2953745722770691 -0.33941325545310974 0.8905861377716064
0.3006173372268677 -0.40951716899871826 0.8572907447814941
0.30478981137275696 -0.47975197434425354 0.8178014159202576
0.3078289031982422 -0.5492962002754211 0.7718507051467896
0.30966758728027344 -0.6171348094940186 0.7191360592842102
0.3102317750453949 -0.6822120547294617 0.6593254208564758
0.30943986773490906 -0.74342280626297 0.592055082321167
0.3072025775909424 -0.799605131149292 0.5169298052787781
0.30342230200767517 -0.8495314717292786 0.4335203468799591
0.2979927062988281 -0.8919001817703247 0.34136292338371277
0.29079827666282654 -0.9253266453742981 0.23995693027973175
0.2817138135433197 -0.9483341574668884 0.12876386940479279
0.2706036865711212 -0.9593442678451538 0.007205398753285408
0.2573213577270508 -0.9566665887832642 -0.12533840537071228
0.24170882999897003 -0.9384890198707581 -0.269530713558197
-0.06597088277339935 0.9694709181785583 -0.2727166712284088
-0.056651003658771515 0.9893491268157959 -0.12034536153078079
-0.046167515218257904 0.9939376711845398 0.018458081409335136
-0.03470724821090698 0.985055685043335 0.14455623924732208
-0.022442013025283813 0.964399516582489 0.2587808072566986
-0.009529542177915573 0.9335463047027588 0.361928254365921
0.0038855390157550573 0.8939613103866577 0.45475757122039795
0.017670685425400734 0.8470037579536438 0.537988543510437
0.03170430287718773 0.7939344048500061 0.6123006343841553
0.045874737203121185 0.7359243631362915 0.6783333420753479
0.060079175978899 0.674062192440033 0.7366863489151001
0.0742226094007492 0.6093631386756897 0.787920355796814
0.08821672946214676 0.5427769422531128 0.8325582146644592
0.10197895020246506 0.4751972258090973 0.8710860013961792
0.11543790996074677 0.4073299467563629 0.9039064049720764
0.1285504251718521 0.3392956852912903 0.931193470954895
0.14127841591835022 0.27107515931129456 0.9530383348464966
0.15358182787895203 0.20265211164951324 0.9695003628730774
0.16541823744773865 0.13401344418525696 0.9806095957756042
0.17674267292022705 0.06514844298362732 0.986366868019104
0.18750718235969543 -0.003950174897909164 0.9867459535598755
0.1976608783006668 -0.07328785210847855 0.9816941022872925
0.20714923739433289 -0.14286687970161438 0.9711322784423828
0.21591395139694214 -0.21268722414970398 0.9549552202224731
0.2238924205303192 -0.2827455997467041 0.9330313801765442
0.23101744055747986 -0.35303640365600586 0.905202329158783
0.23721671104431152 -0.4235510230064392 0.8712819814682007
0.24242432415485382 -0.4941139817237854 0.8310558795928955
0.246616929769516 -0.5638836622238159 0.7842776775360107
0.2497778832912445 -0.6318264007568359 0.7306699156761169
0.2518855929374695 -0.6968715190887451 0.6699228882789612
0.2529131770133972 -0.7579021453857422 0.6016927361488342
0.2528284192085266 -0.8137468695640564 0.5255987644195557
0.25159329175949097 -0.8631697297096252 0.4412209987640381
0.24916401505470276 -0.9048612713813782 0.34809747338294983
0.2454904317855835 -0.9374266862869263 0.24572035670280457
0.2405158281326294 -0.9593744277954102 0.13353237509727478
0.23417609930038452 -0.9691027998924255 0.01092209480702877
0.22639967501163483 -0.9648867249488831 -0.1227809265255928
0.2171064168214798 -0.9448604583740234 -0.2683117985725403
-0.09477530419826508 0.9677190184593201 -0.2718030512332916
-0.0915597677230835 0.9871812462806702 -0.11918589472770691
-0.08648886531591415 0.991461455821991 0.020251458510756493
-0.07979867607355118 0.9823033213615417 0.14721189439296722
-0.07171079516410828 0.9613581299781799 0.2624067962169647
-0.06243214011192322 0.9301803708076477 0.3665452301502228
-0.05215509980916977 0.8902270197868347 0.46032586693763733
-0.04105786234140396 0.8428590893745422 0.5444298982620239
-0.029305147007107735 0.7893444895744324 0.6195157170295715
-0.017048969864845276 0.730863094329834 0.6862156391143799
-0.00442953547462821 0.668511688709259 0.7451327443122864
0.008423695340752602 0.6033117175102234 0.7968391180038452
0.02139093726873398 0.5362156629562378 0.8418750762939453
0.03436095267534256 0.468115895986557 0.8807486891746521
0.04723772779107094 0.3997143507003784 0.9138818979263306
0.05996091291308403 0.33113378286361694 0.9414467811584473
0.07247801125049591 0.2623596489429474 0.963528037071228
0.08473560959100723 0.19338054955005646 0.98017817735672
0.09667901694774628 0.12418883293867111 0.9914199709892273
0.10825178772211075 0.05477987602353096 0.9972477555274963
0.11939534544944763 -0.01484716311097145 0.9976292252540588
0.1300487071275711 -0.08469055593013763 0.9925048351287842
0.1401478499174118 -0.1547446995973587 0.9817897081375122
0.14962553977966309 -0.22500091791152954 0.9653730392456055
0.15841065347194672 -0.29544663429260254 0.9431186318397522
0.16642791032791138 -0.3660658597946167 0.914863646030426
0.1735972911119461 -0.436838835477829 0.8804189562797546
0.17985443770885468 -0.5075763463973999 0.8395726084709167
0.185214102268219 -0.5774185657501221 0.7921019792556763
0.18970850110054016 -0.6453164219856262 0.7377573847770691
0.19336679577827454 -0.7101878523826599 0.6762546300888062
0.19621530175209045 -0.7709092497825623 0.6072726845741272
0.1982775330543518 -0.8263056874275208 0.5304493308067322
0.1995743364095688 -0.8751410245895386 0.44537848234176636
0.2001238912343979 -0.9161064028739929 0.35160496830940247
0.19994179904460907 -0.9478076696395874 0.2486191689968109
0.19904117286205292 -0.9687508344650269 0.13585138320922852
0.19743244349956512 -0.9773263931274414 0.012664204463362694
0.19512346386909485 -0.9717904925346375 -0.1216556653380394
0.19211934506893158 -0.9502442479133606 -0.2679072618484497
-0.12287376075983047 0.9647881984710693 -0.27157121896743774
-0.12575580179691315 0.9835527539253235 -0.11947685480117798
-0.12613867223262787 0.9873276352882385 0.019939985126256943
-0.12429032474756241 0.9777654409408569 0.147207573056221
-0.12046892195940018 0.9564593434333801 0.2629024386405945
-0.11492083966732025 0.9249300360679626 0.3676329553127289
-0.10787931829690933 0.8846181631088257 0.46202585101127625
-0.09956356137990952 0.836879312992096 0.5467141270637512
-0.09017854183912277 0.7829832434654236 0.6223276257514954
-0.07991504669189453 0.7241142988204956 0.6894853115081787
-0.06895016133785248 0.6613749265670776 0.7487893104553223
-0.057447873055934906 0.5957894921302795 0.8008201718330383
-0.04556006193161011 0.5283112525939941 0.8461337089538574
-0.03342752158641815 0.45982876420021057 0.8852587342262268
-0.021171744912862778 0.3910382091999054 0.9186356067657471
-0.008870579302310944 0.3220627009868622 0.9464325308799744
0.0034088611137121916 0.2528904378414154 0.9687246680259705
0.015599679201841354 0.1835135817527771 0.9855552315711975
0.02763459086418152 0.11392881721258163 0.9969384074211121
0.039445485919713974 0.044136423617601395 1.0028603076934814
0.05096273496747017 -0.02585858665406704 1.0032799243927002
0.062115009874105453 -0.09604784846305847 0.9981313943862915
0.07282847911119461 -0.16641822457313538 0.987322986125946
0.08302654325962067 -0.23695263266563416 0.9707381725311279
0.09262920916080475 -0.30762895941734314 0.9482362866401672
0.10155266523361206 -0.3784206807613373 0.9196509718894958
0.10970881581306458 -0.4492965340614319 0.8847914338111877
0.11703421920537949 -0.5200534462928772 0.8434503674507141
0.12357993423938751 -0.5898155570030212 0.7954303026199341
0.1294248253107071 -0.6575214266777039 0.7405107021331787
0.13464687764644623 -0.7220817804336548 0.678435206413269
0.13932350277900696 -0.7823711037635803 0.6089082360267639
0.14353208243846893 -0.8372166752815247 0.5315898060798645
0.14735043048858643 -0.8853889107704163 0.4460916221141815
0.15085746347904205 -0.9255886077880859 0.35197073221206665
0.1541336178779602 -0.9564319252967834 0.24872221052646637
0.15726180374622345 -0.9764355421066284 0.13577169179916382
0.1603279411792755 -0.9839965105056763 0.01246529072523117
0.16342203319072723 -0.9773709177970886 -0.12194181978702545
0.16663910448551178 -0.954647421836853 -0.2682989537715912
-0.15036095678806305 0.960706353187561 -0.271982342004776
-0.1593019962310791 0.9784896969795227 -0.1211204081773758
-0.1651541292667389 0.981550395488739 0.017650285735726357
-0.16819925606250763 0.9714403748512268 0.14467814564704895
-0.168718159198761 0.9496849179267883 0.2603975832462311
-0.16698607802391052 0.9177627563476562 0.36530840396881104
-0.16326937079429626 0.8770906329154968 0.45995762944221497
-0.15782296657562256 0.8290126919746399 0.5449232459068298
-0.15088866651058197 0.7747952342033386 0.6208006143569946
-0.1426941454410553 0.7156230807304382 0.6881906390190125
-0.13345251977443695 0.6525996923446655 0.7476904392242432
-0.12336240708827972 0.5867502689361572 0.7998864650726318
-0.11260837316513062 0.5190252065658569 0.8453477025032043
-0.10136175900697708 0.4503069818019867 0.88462233543396
-0.08977054804563522 0.38128361105918884 0.9181678295135498
-0.07793004810810089 0.3120761215686798 0.9461466073989868
-0.06592172384262085 0.24267344176769257 0.968621551990509
-0.053825829178094864 0.17306946218013763 0.9856250882148743
-0.041722092777490616 0.10326351225376129 0.9971598982810974
-0.029690321534872055 0.033259693533182144 1.0032023191452026
-0.01781119965016842 -0.03693213686347008 1.0037022829055786
-0.006166559178382158 -0.10729768872261047 0.9985849857330322
0.005159781314432621 -0.17781686782836914 0.9877516031265259
0.016081633046269417 -0.24846433103084564 0.9710796475410461
0.026509800925850868 -0.3192085325717926 0.9484236240386963
0.036351677030324936 -0.39001238346099854 0.9196147322654724
0.045510683208703995 -0.460832417011261 0.8844614624977112
0.05392364785075188 -0.5314522981643677 0.84276282787323
0.06167596951127052 -0.6009822487831116 0.794346809387207
0.06889095902442932 -0.6683520674705505 0.7390225529670715
0.07569301128387451 -0.7324694395065308 0.6765631437301636
0.0822082906961441 -0.7922108769416809 0.6067002415657043
0.08856562525033951 -0.846412181854248 0.5291192531585693
0.09489744901657104 -0.8938563466072083 0.44345375895500183
0.10134104639291763 -0.9332615733146667 0.3492780327796936
0.10803978145122528 -0.9632647037506104 0.2460993081331253
0.1151447594165802 -0.9824045896530151 0.13334757089614868
0.1228165403008461 -0.9890999794006348 0.010364004410803318
0.13122743368148804 -0.9816256165504456 -0.1236128881573677
0.14056406915187836 -0.958081841468811 -0.26946449279785156
-0.17736726999282837 0.9555033445358276 -0.2729954123497009
-0.192296102643013 0.9720202684402466 -0.12401553988456726
-0.2036028653383255 0.9741462469100952 0.013513495214283466
-0.21156641840934753 0.9633284211158752 0.13976383209228516
-0.21647638082504272 0.9410187005996704 0.2550273835659027
-0.2186262607574463 0.908647358417511 0.35969287157058716
-0.21830755472183228 0.8676013946533203 0.45422402024269104
-0.21580523252487183 0.8192081451416016 0.5391398668289185
-0.211394265294075 0.7647253274917603 0.6149970293045044
-0.2053370177745819 0.705333411693573 0.682374894618988
-0.19788174331188202 0.6421335935592651 0.7418630719184875
-0.18926160037517548 0.5761470198631287 0.7940502166748047
-0.1796945184469223 0.5083188414573669 0.8395171761512756
-0.1693834513425827 0.43952202796936035 0.8788294792175293
-0.15850389003753662 0.3704334795475006 0.9124606251716614
-0.1471681147813797 0.30116933584213257 0.9405644536018372
-0.13547131419181824 0.23171670734882355 0.9631901383399963
-0.12350643426179886 0.16206905245780945 0.9803563356399536
-0.11136519908905029 0.09222660213708878 0.9920533299446106
-0.09913875162601471 0.022195646539330482 0.9982452988624573
-0.08691852539777756 -0.04801033437252045 0.9988716244697571
-0.07479669153690338 -0.11837217211723328 0.993847668170929
-0.06286703795194626 -0.18886342644691467 0.9830660223960876
-0.05122536048293114 -0.2594509720802307 0.9663978219032288
-0.039970170706510544 -0.33009400963783264 0.9436926245689392
-0.029203111305832863 -0.40074482560157776 0.9147794246673584
-0.01902950555086136 -0.4713476300239563 0.8794667720794678
-0.009512921795248985 -0.5416725873947144 0.8375610113143921
-0.0005354606546461582 -0.6108195781707764 0.7889151573181152
0.008068316616117954 -0.6777132153511047 0.7333680987358093
0.0164667759090662 -0.7412615418434143 0.6707219481468201
0.024832244962453842 -0.8003482222557068 0.6007373929023743
0.03334224224090576 -0.853821873664856 0.523127555847168
0.042180970311164856 -0.9004847407341003 0.4375516176223755
0.051541078835725784 -0.9390793442726135 0.3436068892478943
0.06162579357624054 -0.9682725667953491 0.2408200353384018
0.07265137135982513 -0.9866366982460022 0.12863565981388092
0.08485017716884613 -0.9926276803016663 0.006403601262718439
0.09847427159547806 -0.984557569026947 -0.1266370415687561
0.11379985511302948 -0.9605636596679688 -0.2713770866394043
-0.20405404269695282 0.9492063522338867 -0.2745690941810608
-0.2248668074607849 0.9641706943511963 -0.12806156277656555
-0.24158000946044922 0.9651311635971069 0.0076613943092525005
-0.25445452332496643 0.9534304141998291 0.1326065957546234
-0.2637762427330017 0.93044513463974 0.24692964553833008
-0.2698468267917633 0.8975536823272705 0.35091057419776917
-0.27297529578208923 0.8561086654663086 0.44493022561073303
-0.2734712064266205 0.8074158430099487 0.529447615146637
-0.2716388404369354 0.7527194023132324 0.6049787998199463
-0.26777324080467224 0.6931912302970886 0.6720795631408691
-0.26215660572052 0.6299250721931458 0.7313292026519775
-0.2550567090511322 0.5639346837997437 0.7833174467086792
-0.24672536551952362 0.49615535140037537 0.8286337852478027
-0.23739837110042572 0.42744725942611694 0.8678596615791321
-0.22727957367897034 0.3584728240966797 0.9014822840690613
-0.21649743616580963 0.28934022784233093 0.9296456575393677
-0.20515960454940796 0.22003154456615448 0.9523830413818359
-0.19337069988250732 0.1505374014377594 0.9696977734565735
-0.1812334507703781 0.0808565765619278 0.9815657138824463
-0.16884951293468475 0.010995786637067795 0.987937331199646
-0.15632039308547974 -0.05902952328324318 0.9887393712997437
-0.14374816417694092 -0.1291964203119278 0.9838762283325195
-0.13123615086078644 -0.19947309792041779 0.973231315612793
-0.11888948827981949 -0.2698192894458771 0.956667423248291
-0.10681602358818054 -0.3401854634284973 0.9340296983718872
-0.09512636065483093 -0.41051313281059265 0.9051443934440613
-0.0839347317814827 -0.48073408007621765 0.8698208928108215
-0.073305644094944 -0.5506057143211365 0.8278735280036926
-0.06309038400650024 -0.6192205548286438 0.7791787385940552
-0.05308356136083603 -0.685501754283905 0.7236032485961914
-0.043075185269117355 -0.7483624219894409 0.6609784364700317
-0.03284938260912895 -0.8066968321800232 0.5910942554473877
-0.022182844579219818 -0.8593713045120239 0.5136931538581848
-0.010842891409993172 -0.9052127003669739 0.42846396565437317
0.0014149132184684277 -0.9429948925971985 0.3350323736667633
0.014849572442471981 -0.9714228510856628 0.2329523265361786
0.029738105833530426 -0.9891138672828674 0.12169422209262848
0.04637971147894859 -0.9945749640464783 0.000631214352324605
0.06510080397129059 -0.986175537109375 -0.13097725808620453
0.08626118302345276 -0.9621148109436035 -0.2740057408809662
-0.2306106984615326 0.9418367147445679 -0.2766639292240143
-0.257171630859375 0.9549627304077148 -0.13316166400909424
-0.2792070806026459 0.9545176029205322 0.00022243254352360964
-0.2969476580619812 0.9417450428009033 0.12334685772657394
-0.3106650710105896 0.9179481267929077 0.23624224960803986
-0.32066047191619873 0.8844517469406128 0.33908724784851074
-0.32725369930267334 0.842571496963501 0.4321838319301605
-0.33077389001846313 0.7935875654220581 0.5159327983856201
-0.3315512537956238 0.7387256622314453 0.5908103585243225
-0.329911470413208 0.6791446805000305 0.6573479175567627
-0.3261699080467224 0.6159257888793945 0.7161127924919128
-0.32062873244285583 0.5500709414482117 0.7676936388015747
-0.31357428431510925 0.48250100016593933 0.8126871585845947
-0.3052762448787689 0.41405948996543884 0.8516881465911865
-0.29596784710884094 0.3453907072544098 0.8851957321166992
-0.28579241037368774 0.2765907645225525 0.9133421182632446
-0.2748681902885437 0.20763377845287323 0.9361434578895569
-0.2633098363876343 0.1385042667388916 0.9535861015319824
-0.2512296438217163 0.06919722259044647 0.9656296968460083
-0.23873846232891083 -0.0002825653355102986 0.9722098112106323
-0.22594685852527618 -0.06991951912641525 0.9732389450073242
-0.21296566724777222 -0.13968856632709503 0.9686086177825928
-0.1999070793390274 -0.20955361425876617 0.9581916928291321
-0.1868850737810135 -0.27946823835372925 0.9418425559997559
-0.17401617765426636 -0.34937453269958496 0.9193999171257019
-0.16141994297504425 -0.4192036986351013 0.8906877636909485
-0.14921937882900238 -0.48887529969215393 0.8555168509483337
-0.13748019933700562 -0.558134138584137 0.8137089610099792
-0.12602432072162628 -0.6260694265365601 0.7651616334915161
-0.11460815370082855 -0.6916072368621826 0.7097669243812561
-0.10298226773738861 -0.753669023513794 0.6473837494850159
-0.09088970720767975 -0.8111642599105835 0.5778313279151917
-0.07806433737277985 -0.8629810214042664 0.5008835196495056
-0.06422847509384155 -0.9079756140708923 0.41626104712486267
-0.049090057611465454 -0.944959282875061 0.32362401485443115
-0.03233921527862549 -0.9726830720901489 0.222561776638031
-0.013644049875438213 -0.9898196458816528 0.11258216202259064
0.007354498375207186 -0.9949410557746887 -0.006902511231601238
0.031048811972141266 -0.9864926934242249 -0.1365913599729538
0.057872261852025986 -0.9627615213394165 -0.2773149907588959
-0.2572523057460785 0.9334072470664978 -0.27924394607543945
-0.289394736289978 0.9444093704223633 -0.1392252892255783
-0.31662991642951965 0.9423114061355591 -0.008681001141667366
-0.33914971351623535 0.9282668828964233 0.112120620906353
-0.35720396041870117 0.9035095572471619 0.22310113906860352
-0.37108662724494934 0.8693119287490845 0.3243490159511566
-0.3811231255531311 0.8269507884979248 0.41609495878219604
-0.38765808939933777 0.777677595615387 0.49868619441986084
-0.39104539155960083 0.7226961851119995 0.572561502456665
-0.39163923263549805 0.6631459593772888 0.6382282972335815
-0.3897876441478729 0.6000920534133911 0.6962422728538513
-0.3858271539211273 0.5345184206962585 0.7471891045570374
-0.3800794780254364 0.4673272669315338 0.7916707396507263
-0.37284916639328003 0.39934083819389343 0.8302927613258362
-0.3643994927406311 0.33118104934692383 0.8635636568069458
-0.35488685965538025 0.26292821764945984 0.8916036486625671
-0.34443792700767517 0.19454458355903625 0.9144099354743958
-0.33317503333091736 0.12600532174110413 0.9319511651992798
-0.3212180435657501 0.057298511266708374 0.9441692233085632
-0.3086851239204407 -0.011575452983379364 0.9509831666946411
-0.29569414258003235 -0.08060307800769806 0.9522897601127625
-0.2823633849620819 -0.1497589349746704 0.9479667544364929
-0.26881250739097595 -0.2190043330192566 0.9378743767738342
-0.2551633417606354 -0.2882876992225647 0.9218577742576599
-0.24154038727283478 -0.3575436770915985 0.899748682975769
-0.22807146608829498 -0.4266936480998993 0.871367871761322
-0.21488796174526215 -0.49564483761787415 0.8365270495414734
-0.202056884765625 -0.5641309022903442 0.7950558662414551
-0.1893714815378189 -0.6312412619590759 0.7468684911727905
-0.17655149102210999 -0.6959095597267151 0.6918790340423584
-0.16330957412719727 -0.757070004940033 0.6299718618392944
-0.14934998750686646 -0.8136506676673889 0.560994565486908
-0.13436657190322876 -0.8645652532577515 0.48475268483161926
-0.1180402860045433 -0.9087039232254028 0.40100276470184326
-0.10003603249788284 -0.9449208378791809 0.3094441592693329
-0.07999881356954575 -0.972020149230957 0.20971032977104187
-0.05754907801747322 -0.9887393116950989 0.10135825723409653
-0.03227698430418968 -0.9937286376953125 -0.01614408753812313
-0.003735471051186323 -0.9855275750160217 -0.14343269169330597
0.02856818586587906 -0.9625353217124939 -0.2812654674053192
-0.2842191457748413 0.9239190220832825 -0.28227800130844116
-0.32174596190452576 0.932513415813446 -0.14617061614990234
-0.35401830077171326 0.9285099506378174 -0.018935399129986763
-0.38118454813957214 0.9129844307899475 0.09905704110860825
-0.40346798300743103 0.8871077299118042 0.20763826370239258
-0.42115187644958496 0.8521031737327576 0.3068212866783142
-0.43456369638442993 0.8092084527015686 0.3967759609222412
-0.4440614879131317 0.7596439123153687 0.4778033494949341
-0.45002061128616333 0.7045868039131165 0.5503089427947998
-0.4528232514858246 0.6451534032821655 0.6147786378860474
-0.4528495669364929 0.5823861956596375 0.6717564463615417
-0.4504709243774414 0.5172465443611145 0.7218246459960938
-0.44604477286338806 0.45061248540878296 0.7655880451202393
-0.43991175293922424 0.3832801580429077 0.8036606907844543
-0.4323658049106598 0.31584492325782776 0.836557924747467
-0.42357417941093445 0.24836677312850952 0.8643866181373596
-0.41366881132125854 0.18079198896884918 0.8871253132820129
-0.40277716517448425 0.11308283358812332 0.9047240018844604
-0.3910238444805145 0.04521721974015236 0.9171062111854553
-0.37853196263313293 -0.02281184494495392 0.9241729378700256
-0.3654243052005768 -0.09099549055099487 0.9258043169975281
-0.35182449221611023 -0.15931019186973572 0.9218624234199524
-0.33785802125930786 -0.2277163416147232 0.9121942520141602
-0.3236527442932129 -0.2961588501930237 0.8966338634490967
-0.3093399703502655 -0.3645659387111664 0.8750051856040955
-0.2950546443462372 -0.4328499138355255 0.8471249341964722
-0.2809358835220337 -0.5009061694145203 0.812805712223053
-0.26705145835876465 -0.5684581398963928 0.7718836069107056
-0.25316622853279114 -0.6346004009246826 0.7242850065231323
-0.23896360397338867 -0.6982790231704712 0.6699416637420654
-0.22411945462226868 -0.7584444284439087 0.6087595224380493
-0.2083011120557785 -0.8140472769737244 0.5406134128570557
-0.1911650002002716 -0.8640305399894714 0.46534132957458496
-0.1723543405532837 -0.907322108745575 0.3827379047870636
-0.15149591863155365 -0.9428236484527588 0.29254719614982605
-0.12819623947143555 -0.9693990349769592 0.19445526599884033
-0.10203664749860764 -0.9858588576316833 0.0880802571773529
-0.07256761193275452 -0.9909438490867615 -0.027037858963012695
-0.03930163383483887 -0.9833038449287415 -0.15145018696784973
-0.0017047935398295522 -0.9614726901054382 -0.28581398725509644
-0.31177669763565063 0.9133586287498474 -0.28574079275131226
-0.3544605076313019 0.9192631840705872 -0.15392592549324036
-0.39156481623649597 0.9130985736846924 -0.030438009649515152
-0.42319434881210327 0.8958770632743835 0.08427620679140091
-0.44954541325569153 0.8687157034873962 0.1899799257516861
-0.4708893597126007 0.8327928781509399 0.28662776947021484
-0.48755547404289246 0.7893080115318298 0.3743419945240021
-0.49991410970687866 0.739447832107544 0.4533863961696625
-0.5083621740341187 0.684360146522522 0.5241395831108093
-0.5133098363876343 0.6251325011253357 0.5870694518089294
-0.5151695609092712 0.562779426574707 0.6427091956138611
-0.5143479108810425 0.49823373556137085 0.6916372179985046
-0.5112391710281372 0.4323440194129944 0.7344594597816467
-0.5062207579612732 0.3658753037452698 0.7717953324317932
-0.4996180236339569 0.2993917465209961 0.804164469242096
-0.49160605669021606 0.23292852938175201 0.8316604495048523
-0.48231878876686096 0.16641174256801605 0.8542433977127075
-0.4718851149082184 0.0997866690158844 0.8718441128730774
-0.46043136715888977 0.033017560839653015 0.8843678832054138
-0.44808223843574524 -0.033913206309080124 0.8916966319084167
-0.43496280908584595 -0.10100429505109787 0.8936930298805237
-0.4211990237236023 -0.16823668777942657 0.8902027010917664
-0.4069197177886963 -0.23557205498218536 0.881057858467102
-0.39225661754608154 -0.3029535412788391 0.8660802841186523
-0.37734586000442505 -0.37030449509620667 0.8450849652290344
-0.3623279631137848 -0.43752914667129517 0.8178838491439819
-0.3473484218120575 -0.504511833190918 0.7842897176742554
-0.3324747085571289 -0.570966899394989 0.7441433668136597
-0.31744247674942017 -0.6359997987747192 0.6973782777786255
-0.3018983006477356 -0.6985737681388855 0.6439375281333923
-0.28548169136047363 -0.757659912109375 0.5837451815605164
-0.2678240239620209 -0.8122350573539734 0.5167009830474854
-0.24854658544063568 -0.8612746000289917 0.4426751434803009
-0.22725839912891388 -0.9037472605705261 0.36150291562080383
-0.20355349779129028 -0.9386069178581238 0.2729785144329071
-0.177007257938385 -0.9647820591926575 0.17684847116470337
-0.14717188477516174 -0.9811645150184631 0.07280425727367401
-0.11357125639915466 -0.9865955710411072 -0.03952633962035179
-0.07569453120231628 -0.9798495769500732 -0.16058893501758575
-0.03298846259713173 -0.959614634513855 -0.29091396927833557
-0.34018775820732117 0.9016250967979431 -0.2896348536014557
-0.3877542018890381 0.9045547246932983 -0.1624724119901657
-0.4294273555278778 0.8959727883338928 -0.043156325817108154
-0.46527236700057983 0.8768421411514282 0.06781762093305588
-0.4954618215560913 0.8482354283332825 0.1701674461364746
-0.520257830619812 0.8112900257110596 0.26380789279937744
-0.5399929285049438 0.7671678066253662 0.3488278388977051
-0.5550516843795776 0.7170200943946838 0.42546460032463074
-0.5658534169197083 0.6619598865509033 0.4940764307975769
-0.5728368759155273 0.6030410528182983 0.5551167726516724
-0.5764477252960205 0.5412439107894897 0.60910964012146
-0.5771282315254211 0.4774666428565979 0.6566283702850342
-0.5753100514411926 0.41252240538597107 0.698277473449707
-0.5714084506034851 0.3471399247646332 0.7346782684326172
-0.5657799243927002 0.28184783458709717 0.7663514614105225
-0.5586046576499939 0.21665212512016296 0.7933773994445801
-0.550014317035675 0.15145473182201385 0.8156989216804504
-0.5401356816291809 0.08618035167455673 0.8332289457321167
-0.5290926694869995 0.02077600359916687 0.8458541631698608
-0.5170078873634338 -0.04478978365659714 0.8534380793571472
-0.5040047764778137 -0.1105262041091919 0.8558253645896912
-0.49020877480506897 -0.1764214038848877 0.8528449535369873
-0.47574830055236816 -0.24244087934494019 0.844313383102417
-0.46075645089149475 -0.30852818489074707 0.8300397396087646
-0.44537103176116943 -0.3746034801006317 0.8098291158676147
-0.42973610758781433 -0.44056448340415955 0.7834880352020264
-0.41400134563446045 -0.5062854886054993 0.7508285641670227
-0.39823243021965027 -0.5714740753173828 0.7116951942443848
-0.3821336328983307 -0.6352519392967224 0.6660215854644775
-0.36531367897987366 -0.6966055631637573 0.6137563586235046
-0.34737512469291687 -0.7545318603515625 0.5548368692398071
-0.32791414856910706 -0.8080369234085083 0.4891851544380188
-0.30651870369911194 -0.8561319708824158 0.41670313477516174
-0.2827675938606262 -0.8978304266929626 0.33726879954338074
-0.2562277913093567 -0.9321410059928894 0.2507306635379791
-0.22645194828510284 -0.9580619931221008 0.15690365433692932
-0.19297468662261963 -0.9745723605155945 0.05556286871433258
-0.15530845522880554 -0.980622410774231 -0.053562212735414505
-0.11293863505125046 -0.9751216769218445 -0.1707943081855774
-0.06531757861375809 -0.956926703453064 -0.296516090631485
-0.3696068525314331 0.8883249163627625 -0.29405152797698975
-0.42167115211486816 0.8879731297492981 -0.17196393013000488
-0.4675382673740387 0.8767186403274536 -0.057295285165309906
-0.5072426795959473 0.8554858565330505 0.049437493085861206
-0.5409399271011353 0.8253075480461121 0.14793044328689575
-0.5688876509666443 0.7872806191444397 0.2380768209695816
-0.5914251208305359 0.7425258755683899 0.3199455738067627
-0.6089529395103455 0.6921529173851013 0.39375609159469604
-0.6219139695167542 0.6372328996658325 0.4598512649536133
-0.6307758688926697 0.5787774920463562 0.5186712741851807
-0.6360169053077698 0.5177244544029236 0.5707292556762695
-0.6381149888038635 0.4549298882484436 0.6165897250175476
-0.6375382542610168 0.39116474986076355 0.6568505764007568
-0.6347396969795227 0.32711607217788696 0.6921283602714539
-0.6301060318946838 0.26327279210090637 0.7229387760162354
-0.6238189935684204 0.19960983097553253 0.7493500709533691
-0.6160041093826294 0.13600294291973114 0.7712898850440979
-0.6067819595336914 0.07235436141490936 0.7886548042297363
-0.5962698459625244 0.008591894991695881 0.8013148307800293
-0.5845845341682434 -0.055331867188215256 0.809117317199707
-0.5718439817428589 -0.11943880468606949 0.8118898272514343
-0.5581686496734619 -0.18372642993927002 0.8094456791877747
-0.5436834692955017 -0.2481663078069687 0.8015874624252319
-0.5285186171531677 -0.312704473733902 0.7881119251251221
-0.5128108859062195 -0.37726011872291565 0.768815279006958
-0.4967041015625 -0.4417264461517334 0.7434988617897034
-0.48034974932670593 -0.5059697031974792 0.7119751572608948
-0.4638088643550873 -0.5696935057640076 0.6740910410881042
-0.4467531442642212 -0.6320434212684631 0.6297755241394043
-0.4287523925304413 -0.6920362114906311 0.5789770483970642
-0.40937256813049316 -0.7487005591392517 0.5216423273086548
-0.3881758749485016 -0.8010768890380859 0.45771241188049316
-0.3647202253341675 -0.8482169508934021 0.38712021708488464
-0.3385589122772217 -0.8891818523406982 0.30978676676750183
-0.3092392385005951 -0.9230400323867798 0.22561781108379364
-0.2763007581233978 -0.9488625526428223 0.13450048863887787
-0.2392735481262207 -0.9657200574874878 0.036299560219049454
-0.19767522811889648 -0.9726757407188416 -0.06914634257555008
-0.1510082185268402 -0.9687802791595459 -0.18202880024909973
-0.09875565022230148 -0.9530627727508545 -0.3025738596916199
-0.4001469314098358 0.8729996085166931 -0.2991022765636444
-0.45619258284568787 0.8690364360809326 -0.18259170651435852
-0.5057506561279297 0.8548577427864075 -0.0731101855635643
-0.5488380789756775 0.8313551545143127 0.028832729905843735
-0.5856031775474548 0.7995213866233826 0.12293407320976257
-0.6163061857223511 0.7604079842567444 0.2090829610824585
-0.6412972807884216 0.7150861620903015 0.2873401939868927
-0.6609949469566345 0.6646135449409485 0.3579138219356537
-0.6758657097816467 0.6100083589553833 0.4211333096027374
-0.6864050030708313 0.5522286891937256 0.47742390632629395
-0.6931222081184387 0.49215981364250183 0.527283251285553
-0.696527898311615 0.43060624599456787 0.5712600946426392
-0.6971246600151062 0.36828944087028503 0.6099369525909424
-0.6954005360603333 0.30584895610809326 0.6439160108566284
-0.6917707920074463 0.2437307983636856 0.673700213432312
-0.686414897441864 0.18187882006168365 0.6993458867073059
-0.6794487237930298 0.12014342099428177 0.7207682132720947
-0.6709823608398438 0.058404430747032166 0.7378510236740112
-0.6611232757568359 -0.003429846605286002 0.7504512071609497
-0.6499778628349304 -0.06542344391345978 0.7584019899368286
-0.6376550197601318 -0.12761209905147552 0.7615184187889099
-0.6242665648460388 -0.1900041401386261 0.7596011161804199
-0.609929621219635 -0.25257912278175354 0.7524412274360657
-0.594767689704895 -0.31528761982917786 0.7398262023925781
-0.5789124369621277 -0.37805047631263733 0.7215458154678345
-0.5625042915344238 -0.4407588839530945 0.6973987221717834
-0.5456925630569458 -0.5032742023468018 0.667199432849884
-0.5285311937332153 -0.5653002858161926 0.6307978630065918
-0.5106580257415771 -0.6260152459144592 0.5881146788597107
-0.4916045367717743 -0.6844754219055176 0.5390937924385071
-0.4709011912345886 -0.739748477935791 0.48368728160858154
-0.44807878136634827 -0.7909161448478699 0.42185279726982117
-0.4226694703102112 -0.8370760679244995 0.35355210304260254
-0.39420703053474426 -0.877342164516449 0.27874815464019775
-0.362227201461792 -0.9108456969261169 0.1974036693572998
-0.32626765966415405 -0.9367346167564392 0.10947853326797485
-0.2858673334121704 -0.9541722536087036 0.014927699230611324
-0.2405659407377243 -0.9623364210128784 -0.08630102127790451
-0.18990246951580048 -0.9604164361953735 -0.1942691206932068
-0.13341426849365234 -0.9476108551025391 -0.30904969573020935
-0.43190592527389526 0.8551969528198242 -0.30489665269851685
-0.4912782311439514 0.8472738862037659 -0.19454070925712585
-0.5438922047615051 0.829927384853363 -0.09084518998861313
-0.5897645950317383 0.8040158748626709 0.0057158274576067924
-0.6290496587753296 0.7704862356185913 0.09486254304647446
-0.6620184183120728 0.7303346395492554 0.17649580538272858
-0.6890367865562439 0.6845697164535522 0.25067803263664246
-0.7105425000190735 0.6341831088066101 0.31761035323143005
-0.727024257183075 0.5801253914833069 0.37760815024375916
-0.7390026450157166 0.5232878923416138 0.4310777187347412
-0.747013509273529 0.46449097990989685 0.47849348187446594
-0.7515959739685059 0.40447768568992615 0.5203788876533508
-0.7532822489738464 0.34391188621520996 0.557290256023407
-0.7525909543037415 0.2833797335624695 0.5898032188415527
-0.7499613761901855 0.22328151762485504 0.6183972358703613
-0.7455679774284363 0.16353252530097961 0.6431176066398621
-0.7395131587982178 0.10396058857440948 0.6638708710670471
-0.7318937182426453 0.04442513734102249 0.6805320978164673
-0.7228034734725952 -0.015183701179921627 0.6929491758346558
-0.7123358845710754 -0.0749460831284523 0.7009468674659729
-0.7005866169929504 -0.13491171598434448 0.7043315768241882
-0.6876553297042847 -0.19510076940059662 0.702896237373352
-0.6736477017402649 -0.25550204515457153 0.6964257955551147
-0.6586770415306091 -0.31607314944267273 0.6847029328346252
-0.642865777015686 -0.37673917412757874 0.6675153970718384
-0.6263467073440552 -0.437392920255661 0.6446627378463745
-0.6092636585235596 -0.4978945255279541 0.6159647703170776
-0.5916599631309509 -0.5579541325569153 0.5812762379646301
-0.5731401443481445 -0.6167925000190735 0.5405072569847107
-0.5531983971595764 -0.6735159754753113 0.4935941696166992
-0.5313324332237244 -0.7272409796714783 0.44049134850502014
-0.5070453882217407 -0.777099072933197 0.38117003440856934
-0.4798486530780792 -0.8222402930259705 0.31561774015426636
-0.4492635130882263 -0.8618374466896057 0.2438368946313858
-0.41482314467430115 -0.8950885534286499 0.16584384441375732
-0.37607404589653015 -0.921220064163208 0.08166767656803131
-0.33257752656936646 -0.9394886493682861 -0.00865113828331232
-0.28391045331954956 -0.9491828680038452 -0.10506214201450348
-0.229666069149971 -0.9496244788169861 -0.2075061798095703
-0.16945457458496094 -0.9401692152023315 -0.31591686606407166
-0.4649660885334015 0.8344719409942627 -0.3115425407886505
-0.5268656611442566 0.8222295641899109 -0.2079886943101883
-0.581765353679657 0.801485538482666 -0.11073093861341476
-0.6297032237052917 0.7730581760406494 -0.020181238651275635
-0.6708545684814453 0.7378372550010681 0.06342398375272751
-0.7055107951164246 0.6967477202415466 0.14001116156578064
-0.7340577244758606 0.650719165802002 0.2096518576145172
-0.7569522857666016 0.6006596088409424 0.27254220843315125
-0.7747029066085815 0.5474352240562439 0.32898104190826416
-0.787849485874176 0.4918549954891205 0.3793489336967468
-0.7969483137130737 0.43466129899024963 0.4240879714488983
-0.8025591969490051 0.37652480602264404 0.46368497610092163
-0.8052366375923157 0.31804347038269043 0.4986565113067627
-0.8055228590965271 0.25974413752555847 0.5295377969741821
-0.8038758039474487 0.20197927951812744 0.5567739009857178
-0.8004607558250427 0.14463981986045837 0.5803987383842468
-0.7953647971153259 0.08753573894500732 0.6003146171569824
-0.7886686325073242 0.03050975501537323 0.6163926720619202
-0.7804500460624695 -0.02656354196369648 0.6284772157669067
-0.7707870006561279 -0.0837787613272667 0.6363902688026428
-0.7597591876983643 -0.14119897782802582 0.6399359703063965
-0.7474511861801147 -0.19885630905628204 0.6389060616493225
-0.7339540719985962 -0.2567502558231354 0.6330852508544922
-0.7193673849105835 -0.31484755873680115 0.622258186340332
-0.7038010954856873 -0.3730807304382324 0.6062161922454834
-0.6873764991760254 -0.4313483238220215 0.5847653746604919
-0.6702280044555664 -0.48951414227485657 0.5577349662780762
-0.6523855924606323 -0.5473015308380127 0.5249872803688049
-0.6334216594696045 -0.6039860248565674 0.48642170429229736
-0.612796425819397 -0.6587362885475159 0.4419654607772827
-0.5899782776832581 -0.7107290029525757 0.39157265424728394
-0.564447820186615 -0.7591553926467896 0.33522510528564453
-0.5357014536857605 -0.8032265305519104 0.27293214201927185
-0.5032553672790527 -0.8421802520751953 0.2047307789325714
-0.4666489064693451 -0.8752855658531189 0.13068518042564392
-0.4254479706287384 -0.9018487930297852 0.05088617652654648
-0.37924763560295105 -0.9212175011634827 -0.03454989194869995
-0.3276747465133667 -0.932785153388977 -0.12548233568668365
-0.2703901529312134 -0.9359942078590393 -0.22174759209156036
-0.2070903182029724 -0.9303396940231323 -0.3231610357761383
-0.49939268827438354 0.8103870749473572 -0.3191452622413635
-0.562869131565094 0.7934651970863342 -0.22310416400432587
-0.6191476583480835 0.7691153883934021 -0.13298092782497406
-0.6683117747306824 0.7381026744842529 -0.049102067947387695
-0.7105741500854492 0.7012407779693604 0.028356552124023438
-0.7462557554244995 0.6593644022941589 0.09935759007930756
-0.7757653594017029 0.6133031249046326 0.16398677229881287
-0.7995782494544983 0.5638613700866699 0.22243507206439972
-0.8182165026664734 0.511802613735199 0.2749802768230438
-0.8322320580482483 0.45783731341362 0.32196924090385437
-0.8421919345855713 0.40261590480804443 0.3638012707233429
-0.8486672639846802 0.34672582149505615 0.4009138345718384
-0.8522241115570068 0.2906903922557831 0.43377023935317993
-0.8534189462661743 0.23497164249420166 0.4628501236438751
-0.8527199029922485 0.17987224459648132 0.48855146765708923
-0.8502805233001709 0.12526454031467438 0.5108975768089294
-0.8461704254150391 0.07094690948724747 0.5297906994819641
-0.8404530882835388 0.016750425100326538 0.5451033115386963
-0.8331888318061829 -0.037462182343006134 0.5566821098327637
-0.8244380950927734 -0.09179739654064178 0.5643531084060669
-0.8142634034156799 -0.14633013308048248 0.5679253935813904
-0.802731990814209 -0.20110443234443665 0.5671968460083008
-0.7899182438850403 -0.2561313807964325 0.5619601011276245
-0.7759053707122803 -0.31138908863067627 0.5520089268684387
-0.7607879042625427 -0.36682090163230896 0.5371454358100891
-0.7446727156639099 -0.42233574390411377 0.5171887278556824
-0.7276808023452759 -0.4778072237968445 0.49198323488235474
-0.7098269462585449 -0.5329799056053162 0.4614025354385376
-0.6906540989875793 -0.587197482585907 0.425336629152298
-0.6695934534072876 -0.6397051811218262 0.38370347023010254
-0.6460893154144287 -0.6897531747817993 0.33645567297935486
-0.6196056008338928 -0.736603856086731 0.2835822105407715
-0.5896304249763489 -0.7795395851135254 0.22510966658592224
-0.5556823015213013 -0.8178699016571045 0.16110296547412872
-0.5173149704933167 -0.8509396314620972 0.09166555851697922
-0.47412222623825073 -0.878135085105896 0.01693888008594513
-0.42574214935302734 -0.8988913893699646 -0.06289873272180557
-0.3718605041503906 -0.9126974940299988 -0.14763379096984863
-0.3122139573097229 -0.9191020727157593 -0.23701991140842438
-0.24659188091754913 -0.9177168607711792 -0.33078068494796753
-0.5352327823638916 0.7825158834457397 -0.32780683040618896
-0.5991793274879456 0.7605656385421753 -0.2400437891483307
-0.6557935476303101 0.7324334979057312 -0.15778732299804688
-0.7052289843559265 0.6988077759742737 -0.08126014471054077
-0.7477511763572693 0.660402774810791 -0.010565316304564476
-0.7837186455726624 0.6179381608963013 0.05430295690894127
-0.8135644197463989 0.5721206665039062 0.113446444272995
-0.8377779126167297 0.5236302614212036 0.16704876720905304
-0.8568874597549438 0.47310832142829895 0.2153608798980713
-0.8714465498924255 0.42115044593811035 0.25868743658065796
-0.8820212483406067 0.36830195784568787 0.2973741292953491
-0.8891808986663818 0.3150559067726135 0.3317966163158417
-0.8934909701347351 0.2618529498577118 0.36235105991363525
-0.8955093026161194 0.2090843915939331 0.3894469738006592
-0.8957040905952454 0.1570015400648117 0.413422554731369
-0.8942145705223083 0.10546492785215378 0.43429112434387207
-0.8910924196243286 0.05426869913935661 0.45195886492729187
-0.8863828182220459 0.0032381245400756598 0.4663049876689911
-0.880128800868988 -0.04777127876877785 0.4771852493286133
-0.8723727464675903 -0.09887458384037018 0.4844362735748291
-0.8631592392921448 -0.15015672147274017 0.4878799617290497
-0.8525376319885254 -0.20167285203933716 0.4873288869857788
-0.8405643701553345 -0.2534465491771698 0.4825915992259979
-0.8273051977157593 -0.30546942353248596 0.4734795391559601
-0.8128368854522705 -0.35769936442375183 0.45981377363204956
-0.7972498536109924 -0.41006070375442505 0.4414336383342743
-0.7806491851806641 -0.4624435305595398 0.41820454597473145
-0.7630324959754944 -0.514622688293457 0.39001592993736267
-0.7439188361167908 -0.5660247802734375 0.356751948595047
-0.7227169275283813 -0.6159873604774475 0.318323016166687
-0.6988543272018433 -0.663848876953125 0.27467966079711914
-0.6717851758003235 -0.7089565396308899 0.2258152812719345
-0.640996515750885 -0.7506746649742126 0.17176835238933563
-0.6060163378715515 -0.788393497467041 0.11262375861406326
-0.566419243812561 -0.8215375542640686 0.048513222485780716
-0.5218337178230286 -0.8495737910270691 -0.02038520760834217
-0.4719461500644684 -0.8720194697380066 -0.09384866058826447
-0.4165059030056 -0.8884491324424744 -0.17161205410957336
-0.3553275465965271 -0.898499608039856 -0.2533715069293976
-0.28829315304756165 -0.9018753170967102 -0.33878853917121887
-0.5725127458572388 0.7504468560218811 -0.337624728679657
-0.6356629729270935 0.7231461405754089 -0.25894978642463684
-0.6914366483688354 0.69109708070755 -0.18531636893749237
-0.7400793433189392 0.6548788547515869 -0.11683296412229538
-0.7819221019744873 0.6150757670402527 -0.05352400243282318
-0.8173657655715942 0.5722652673721313 0.004661322105675936
-0.8468660116195679 0.5270070433616638 0.05783945694565773
-0.8709194660186768 0.47983482480049133 0.10618255287408829
-0.8900508880615234 0.4312502443790436 0.14990836381912231
-0.9048023819923401 0.38171887397766113 0.1892712116241455
-0.9157246351242065 0.3316679894924164 0.224553182721138
-0.9233704209327698 0.2814861536026001 0.2560569643974304
-0.9282896518707275 0.23152397572994232 0.2840993404388428
-0.9310265779495239 0.1820959597826004 0.3090062141418457
-0.9320377111434937 0.13340045511722565 0.3310447931289673
-0.931445300579071 0.08529321104288101 0.35021811723709106
-0.9292829632759094 0.037572041153907776 0.3664408028125763
-0.9255788326263428 -0.009937084279954433 0.3796038031578064
-0.9203588366508484 -0.05738084018230438 0.3895780146121979
-0.9136480689048767 -0.10487928986549377 0.3962179720401764
-0.9054743647575378 -0.15252499282360077 0.399366170167923
-0.8958693742752075 -0.20038345456123352 0.3988579213619232
-0.8848719596862793 -0.24849125742912292 0.39452654123306274
-0.8725301027297974 -0.2968555688858032 0.3862095773220062
-0.8589027523994446 -0.3454526662826538 0.3737556040287018
-0.8440624475479126 -0.3942277431488037 0.35703107714653015
-0.8280963897705078 -0.4430938959121704 0.33592838048934937
-0.8109850883483887 -0.4918661415576935 0.3103577792644501
-0.7922310829162598 -0.5400697588920593 0.2802029252052307
-0.7712303996086121 -0.5871515274047852 0.24537047743797302
-0.747403085231781 -0.6325544714927673 0.20580977201461792
-0.7202013731002808 -0.6757254004478455 0.1615164875984192
-0.6891191601753235 -0.7161232233047485 0.11253560334444046
-0.6536999940872192 -0.7532278895378113 0.05896313115954399
-0.613545298576355 -0.7865492701530457 0.0009466505725868046
-0.5683211088180542 -0.8156353831291199 -0.06131525710225105
-0.517764151096344 -0.8400806784629822 -0.1275751143693924
-0.46168598532676697 -0.8595329523086548 -0.19753983616828918
-0.3999756872653961 -0.8737002015113831 -0.27087539434432983
-0.332600474357605 -0.8823536038398743 -0.3472123146057129
-0.6112373471260071 0.713788628578186 -0.3486904203891754
-0.6721638441085815 0.6808597445487976 -0.27994632720947266
-0.7257930040359497 0.6448133587837219 -0.2157033085823059
-0.7724788188934326 0.6060762405395508 -0.15595568716526031
-0.8126245737075806 0.5650670528411865 -0.10065191984176636
-0.8466731309890747 0.5221914052963257 -0.0497002974152565
-0.8750970363616943 0.47783777117729187 -0.002974656643345952
-0.8983901143074036 0.4323740601539612 0.03968004137277603
-0.9170607328414917 0.38614606857299805 0.07844218611717224
-0.9316251873970032 0.33947646617889404 0.11350873857736588
-0.9426029920578003 0.29266372323036194 0.14509066939353943
-0.9505136609077454 0.2459833323955536 0.17340905964374542
-0.955875039100647 0.19968825578689575 0.19869181513786316
-0.9592006206512451 0.15401077270507812 0.22117066383361816
-0.9609218239784241 0.10909377038478851 0.24103277921676636
-0.9611414670944214 0.06479524821043015 0.25827115774154663
-0.9598767161369324 0.02092445082962513 0.2728123366832733
-0.9571400284767151 -0.02268558368086815 0.2845637798309326
-0.9529416561126709 -0.06617870181798935 0.2934170663356781
-0.9472917318344116 -0.10967618227005005 0.29925110936164856
-0.9402025938034058 -0.15327589213848114 0.3019362688064575
-0.9316906929016113 -0.19705268740653992 0.30133843421936035
-0.921778678894043 -0.24105656147003174 0.29732364416122437
-0.9104980826377869 -0.2853124439716339 0.28976354002952576
-0.8978909254074097 -0.32981839776039124 0.27854111790657043
-0.8840118646621704 -0.37454548478126526 0.2635568380355835
-0.8689301013946533 -0.4194369912147522 0.24473531544208527
-0.8526096940040588 -0.46435773372650146 0.2220117151737213
-0.8345478773117065 -0.5089473724365234 0.1952768713235855
-0.8141404986381531 -0.5527796745300293 0.16443932056427002
-0.7908110618591309 -0.595419704914093 0.1294500082731247
-0.7640206217765808 -0.6364298462867737 0.09030616283416748
-0.7332776784896851 -0.675377368927002 0.047054581344127655
-0.6981474161148071 -0.7118425965309143 -0.0002062932908302173
-0.6582611799240112 -0.7454269528388977 -0.05132574960589409
-0.6133236289024353 -0.7757610082626343 -0.10610157251358032
-0.5631188750267029 -0.8025124073028564 -0.16428245604038239
-0.5075145363807678 -0.8253920674324036 -0.22557182610034943
-0.44646430015563965 -0.8441612720489502 -0.28963321447372437
-0.3800065815448761 -0.8586346507072449 -0.3560965955257416
-0.6513866186141968 0.6721767783164978 -0.36108726263046265
-0.7085020542144775 0.6334062814712524 -0.3031357526779175
-0.7585651278495789 0.5933486819267273 -0.24904696643352509
-0.8020426034927368 0.5522246360778809 -0.1987149864435196
-0.8394075632095337 0.5102463960647583 -0.15202507376670837
-0.8711373209953308 0.46761780977249146 -0.10885564982891083
-0.8977099657058716 0.42453354597091675 -0.06907963007688522
-0.9196040034294128 0.3811798393726349 -0.03256595507264137
-0.9372962117195129 0.33773449063301086 0.0008189858635887504
-0.9512612223625183 0.2943671643733978 0.031210381537675858
-0.9619707465171814 0.2512400150299072 0.05874381586909294
-0.9698942303657532 0.20850832760334015 0.08355443179607391
-0.9754989147186279 0.16632124781608582 0.1057761088013649
-0.9792510271072388 0.12482278794050217 0.12554073333740234
-0.9815406799316406 0.08409710973501205 0.14295010268688202
-0.9824506640434265 0.04401027038693428 0.15798775851726532
-0.9819828271865845 0.004390003625303507 0.17059491574764252
-0.9801363348960876 -0.034917883574962616 0.18069936335086823
-0.9769085645675659 -0.07404989004135132 0.18821795284748077
-0.9722973704338074 -0.11312516778707504 0.19305959343910217
-0.966302752494812 -0.15224479138851166 0.19512826204299927
-0.9589285254478455 -0.19149208068847656 0.19432665407657623
-0.9501843452453613 -0.23093095421791077 0.19055987894535065
-0.9400877952575684 -0.2706056833267212 0.18373972177505493
-0.9286661148071289 -0.3105393648147583 0.17378924787044525
-0.9159575700759888 -0.3507337272167206 0.1606474071741104
-0.9020138382911682 -0.3911680579185486 0.1442740261554718
-0.8867858052253723 -0.43176570534706116 0.12463290244340897
-0.8697794079780579 -0.47229650616645813 0.101630799472332
-0.8504064083099365 -0.5124789476394653 0.0751866027712822
-0.8281082510948181 -0.5520174503326416 0.04525773972272873
-0.8023667931556702 -0.5906068086624146 0.011844190768897533
-0.7727141976356506 -0.6279375553131104 -0.025008175522089005
-0.7387436032295227 -0.6637027263641357 -0.06520561873912811
-0.7001180052757263 -0.6976034641265869 -0.10860587656497955
-0.6565784811973572 -0.7293567657470703 -0.15501892566680908
-0.6079501509666443 -0.7587012052536011 -0.2042093575000763
-0.5541462898254395 -0.7854037284851074 -0.255900502204895
-0.49516910314559937 -0.8092644214630127 -0.3097796142101288
-0.4311090111732483 -0.830121636390686 -0.36550483107566833
-0.6929149627685547 0.6252816915512085 -0.3748890161514282
-0.7444776296615601 0.5805422067642212 -0.32859504222869873
-0.7894481420516968 0.5365384817123413 -0.28540509939193726
-0.8283936381340027 0.4932214617729187 -0.24514353275299072
-0.8618413805961609 0.45055314898490906 -0.20765742659568787
-0.8902855515480042 0.40850648283958435 -0.1728138029575348
-0.9141935706138611 0.36706456542015076 -0.14049752056598663
-0.9340115785598755 0.32622048258781433 -0.11060933768749237
-0.9501684904098511 0.285976767539978 -0.0830642357468605
-0.9630808234214783 0.24634559452533722 -0.05778999999165535
-0.9731565713882446 0.20734836161136627 -0.034725796431303024
-0.9807978868484497 0.1690157949924469 -0.01382110733538866
-0.986405074596405 0.13138802349567413 0.004965359345078468
-0.9903782606124878 0.09451454877853394 0.02166658081114292
-0.9930522441864014 0.058416083455085754 0.03629974648356438
-0.9944875240325928 0.022970611229538918 0.04884006828069687
-0.9946737885475159 -0.011970351450145245 0.05924548581242561
-0.9935992956161499 -0.0465439036488533 0.06746670603752136
-0.9912519454956055 -0.08087579905986786 0.07344909012317657
-0.9876207709312439 -0.11508066952228546 0.07713489234447479
-0.9826970100402832 -0.14926137030124664 0.07846551388502121
-0.976475715637207 -0.18350905179977417 0.07738406956195831
-0.9689571261405945 -0.2179020196199417 0.07383810728788376
-0.9601485133171082 -0.252505362033844 0.06778252869844437
-0.9500650763511658 -0.28736960887908936 0.059182606637477875
-0.9387317895889282 -0.32253050804138184 0.04801702871918678
-0.926184356212616 -0.35800787806510925 0.034280966967344284
-0.9123647809028625 -0.39379069209098816 0.017968202009797096
-0.8968061208724976 -0.42979294061660767 -0.0009881270816549659
-0.8789559602737427 -0.4658943712711334 -0.022648166865110397
-0.8582916855812073 -0.5019558668136597 -0.047040220350027084
-0.8343306183815002 -0.5378215312957764 -0.07415727525949478
-0.8066399693489075 -0.5733210444450378 -0.10395411401987076
-0.7748469114303589 -0.6082737445831299 -0.13634559512138367
-0.738648533821106 -0.6424919366836548 -0.17120610177516937
-0.6978187561035156 -0.6757859587669373 -0.20837022364139557
-0.6522147059440613 -0.7079682350158691 -0.24763494729995728
-0.6017805337905884 -0.7388585805892944 -0.28876322507858276
-0.5465484261512756 -0.7682888507843018 -0.3314889669418335
-0.4866364598274231 -0.7961070537567139 -0.375522643327713
-0.7357488870620728 0.5728165507316589 -0.3901571035385132
-0.7798715829849243 0.5220892429351807 -0.35637184977531433
-0.8181357383728027 0.4742956757545471 -0.3247895836830139
-0.8511718511581421 0.4290440082550049 -0.2952154278755188
-0.8795282244682312 0.3860013782978058 -0.2674962878227234
-0.9036878943443298 0.3448847532272339 -0.24151478707790375
-0.9240837097167969 0.30545324087142944 -0.21718467772006989
-0.9411086440086365 0.26750198006629944 -0.19444702565670013
-0.9551271200180054 0.23085816204547882 -0.1732674539089203
-0.9664821028709412 0.19537724554538727 -0.15363359451293945
-0.9755026698112488 0.1609404981136322 -0.13555285334587097
-0.9825096726417542 0.12745295464992523 -0.11905062943696976
-0.987820565700531 0.09484187513589859 -0.10416818410158157
-0.9917539954185486 0.06305591762065887 -0.09096089005470276
-0.994575023651123 0.03204545006155968 -0.07948700338602066
-0.9963212609291077 0.001701311324723065 -0.06977692246437073
-0.996972918510437 -0.028098639100790024 -0.06185487285256386
-0.9965108036994934 -0.05747232586145401 -0.055746160447597504
-0.9949167966842651 -0.08653337508440018 -0.05147596076130867
-0.9921742677688599 -0.11539099365472794 -0.04906800761818886
-0.9882697463035583 -0.14414934813976288 -0.048543255776166916
-0.9831936955451965 -0.17290766537189484 -0.049918435513973236
-0.9769407510757446 -0.20175905525684357 -0.05320461839437485
-0.9695113301277161 -0.23079022765159607 -0.05840570107102394
-0.9609126448631287 -0.2600804567337036 -0.06551694869995117
-0.9511587023735046 -0.2897009551525116 -0.07452356070280075
-0.9402720332145691 -0.3197140097618103 -0.08539945632219315
-0.9281919002532959 -0.3501783013343811 -0.09812252223491669
-0.9144999384880066 -0.38116317987442017 -0.11272181570529938
-0.8987045884132385 -0.41272392868995667 -0.12922334671020508
-0.8803412914276123 -0.44489336013793945 -0.14763012528419495
-0.8589811325073242 -0.4776807427406311 -0.16791988909244537
-0.8342409133911133 -0.5110715627670288 -0.19004306197166443
-0.8057913184165955 -0.5450270175933838 -0.2139216959476471
-0.7733665108680725 -0.5794852375984192 -0.23944926261901855
-0.7367706298828125 -0.6143617630004883 -0.2664910852909088
-0.6958842277526855 -0.6495527625083923 -0.29488658905029297
-0.6506674885749817 -0.6849367618560791 -0.32445183396339417
-0.6011610627174377 -0.7203785181045532 -0.35498329997062683
-0.5474849343299866 -0.7557327151298523 -0.3862624168395996
-0.7797859311103821 0.5145464539527893 -0.4069386422634125
-0.8144494891166687 0.45794379711151123 -0.3864811062812805
-0.844326913356781 0.4066178798675537 -0.3671627938747406
-0.8700434565544128 0.3597549498081207 -0.34884247183799744
-0.8921137452125549 0.3166845738887787 -0.33141934871673584
-0.9109681844711304 0.27684837579727173 -0.314827024936676
-0.9269727468490601 0.2397765815258026 -0.29902908205986023
-0.9404450058937073 0.20507030189037323 -0.2840164005756378
-0.9516668319702148 0.17238882184028625 -0.26980528235435486
-0.9608941078186035 0.1414390653371811 -0.2564355432987213
-0.9683652520179749 0.11196831613779068 -0.24396929144859314
-0.9743087887763977 0.08375872671604156 -0.2324899286031723
-0.9789485931396484 0.05662322789430618 -0.22210024297237396
-0.9825088977813721 0.030402857810258865 -0.21292050182819366
-0.985174298286438 0.004968306981027126 -0.20506329834461212
-0.9869599938392639 -0.019780036062002182 -0.19855928421020508
-0.9878399968147278 -0.04393927380442619 -0.19341452419757843
-0.9877905249595642 -0.06760958582162857 -0.18963119387626648
-0.9867902398109436 -0.09089383482933044 -0.18720710277557373
-0.9848207235336304 -0.11389718949794769 -0.186135396361351
-0.9818667769432068 -0.13672639429569244 -0.18640409409999847
-0.9779171943664551 -0.1594896763563156 -0.18799589574337006
-0.972964346408844 -0.18229548633098602 -0.19088797271251678
-0.9670049548149109 -0.2052522450685501 -0.19505155086517334
-0.9600409269332886 -0.22846725583076477 -0.20045198500156403
-0.9520779848098755 -0.2520461082458496 -0.20704856514930725
-0.9431278705596924 -0.2760918140411377 -0.21479463577270508
-0.9331331253051758 -0.30073216557502747 -0.2236454039812088
-0.9217509627342224 -0.3261992335319519 -0.2335803061723709
-0.9085800647735596 -0.3527340888977051 -0.2445753663778305
-0.893240749835968 -0.3805537521839142 -0.2565937638282776
-0.8753819465637207 -0.4098469913005829 -0.26958468556404114
-0.8546886444091797 -0.44077062606811523 -0.28348299860954285
-0.8308898210525513 -0.4734458029270172 -0.2982088625431061
-0.8037649393081665 -0.5079545974731445 -0.31366854906082153
-0.773150622844696 -0.5443377494812012 -0.32975491881370544
-0.7389459013938904 -0.5825932621955872 -0.3463493585586548
-0.7011152505874634 -0.6226761341094971 -0.36332398653030396
-0.6596900224685669 -0.6644992232322693 -0.3805437684059143
-0.6147682070732117 -0.7079366445541382 -0.3978700339794159
