ply
format ascii 1.0
element vertex 512
property float x
property float y
property float z
end_header
-0.01120448112487793 -1.1044921875 1.3448586463928223
-0.011204488575458527 -1.1044921875 1.1653531789779663
-0.011204496957361698 -1.1044921875 0.9858475923538208
-0.011204504407942295 -1.1044921875 0.8063420653343201
-0.011204512789845467 -1.1044921875 0.6268365383148193
-0.011204520240426064 -1.1044921875 0.447331041097641
-0.011204528622329235 -1.1044921875 0.26782551407814026
-0.011204536072909832 -1.1044921875 0.08831998705863953
-0.011204543523490429 -1.1044921875 -0.0911855399608612
-0.0112045519053936 -1.1044921875 -0.27069106698036194
-0.011204559355974197 -1.1044921875 -0.45019659399986267
-0.011204567737877369 -1.1044921875 -0.629702091217041
-0.011204575188457966 -1.1044921875 -0.8092076182365417
-0.011204583570361137 -1.1044921875 -0.9887131452560425
-0.011204591020941734 -1.1044921875 -1.168218731880188
-0.011204598471522331 -1.1044921875 -1.347724199295044
-0.23337522149085999 -1.081899642944336 1.3448586463928223
-0.23337522149085999 -1.081899642944336 1.1653531789779663
-0.23337523639202118 -1.081899642944336 0.9858475923538208
-0.23337523639202118 -1.081899642944336 0.8063420653343201
-0.23337525129318237 -1.081899642944336 0.6268365383148193
-0.23337525129318237 -1.081899642944336 0.447331041097641
-0.23337526619434357 -1.081899642944336 0.26782551407814026
-0.23337526619434357 -1.081899642944336 0.08831999450922012
-0.23337528109550476 -1.081899642944336 -0.09118552505970001
-0.23337529599666595 -1.081899642944336 -0.27069103717803955
-0.23337529599666595 -1.081899642944336 -0.4501965641975403
-0.23337531089782715 -1.081899642944336 -0.629702091217041
-0.23337531089782715 -1.081899642944336 -0.8092076182365417
-0.23337532579898834 -1.081899642944336 -0.9887131452560425
-0.23337532579898834 -1.081899642944336 -1.1682186126708984
-0.23337534070014954 -1.081899642944336 -1.347724199295044
-0.44645026326179504 -1.0150469541549683 1.3448586463928223
-0.44645026326179504 -1.0150469541549683 1.1653531789779663
-0.44645026326179504 -1.0150469541549683 0.9858475923538208
-0.44645029306411743 -1.0150469541549683 0.8063421249389648
-0.44645029306411743 -1.0150469541549683 0.6268365979194641
-0.44645029306411743 -1.0150469541549683 0.447331041097641
-0.44645029306411743 -1.0150469541549683 0.26782551407814026
-0.4464503228664398 -1.0150469541549683 0.08832000195980072
-0.4464503228664398 -1.0150469541549683 -0.09118551760911942
-0.4464503228664398 -1.0150469541549683 -0.27069103717803955
-0.4464503526687622 -1.0150469541549683 -0.4501965641975403
-0.4464503526687622 -1.0150469541549683 -0.629702091217041
-0.4464503526687622 -1.0150469541549683 -0.8092076182365417
-0.4464503526687622 -1.0150469541549683 -0.9887131452560425
-0.4464503824710846 -1.0150469541549683 -1.1682186126708984
-0.4464503824710846 -1.0150469541549683 -1.347724199295044
-0.6417062878608704 -0.9066709876060486 1.3448586463928223
-0.6417062878608704 -0.9066709876060486 1.1653531789779663
-0.6417062878608704 -0.9066709876060486 0.9858476519584656
-0.6417062878608704 -0.9066709876060486 0.8063421249389648
-0.6417063474655151 -0.9066709876060486 0.6268365979194641
-0.6417063474655151 -0.9066709876060486 0.4473310708999634
-0.6417063474655151 -0.9066709876060486 0.26782554388046265
-0.6417063474655151 -0.9066709876060486 0.08832000941038132
-0.6417063474655151 -0.9066709876060486 -0.09118551015853882
-0.6417063474655151 -0.9066709876060486 -0.27069103717803955
-0.6417063474655151 -0.9066709876060486 -0.4501965641975403
-0.6417063474655151 -0.9066709876060486 -0.629702091217041
-0.6417064070701599 -0.9066709876060486 -0.8092076182365417
-0.6417064070701599 -0.9066709876060486 -0.9887131452560425
-0.6417064070701599 -0.9066709876060486 -1.1682186126708984
-0.6417064070701599 -0.9066709876060486 -1.347724199295044
-0.8111494779586792 -0.7612087726593018 1.3448586463928223
-0.8111494779586792 -0.7612087726593018 1.1653531789779663
-0.811149537563324 -0.7612087726593018 0.9858476519584656
-0.811149537563324 -0.7612087726593018 0.8063421249389648
-0.811149537563324 -0.7612087726593018 0.6268365979194641
-0.811149537563324 -0.7612087726593018 0.4473310708999634
-0.811149537563324 -0.7612087726593018 0.26782554388046265
-0.811149537563324 -0.7612087726593018 0.08832001686096191
-0.811149537563324 -0.7612087726593018 -0.09118550270795822
-0.8111495971679688 -0.7612087726593018 -0.27069103717803955
-0.8111495971679688 -0.7612087726593018 -0.4501965343952179
-0.8111495971679688 -0.7612087726593018 -0.629702091217041
-0.8111495971679688 -0.7612087726593018 -0.8092076182365417
-0.8111495971679688 -0.7612087726593018 -0.9887131452560425
-0.8111495971679688 -0.7612087726593018 -1.1682186126708984
-0.8111495971679688 -0.7612087726593018 -1.347724199295044
-0.9478428363800049 -0.5846154689788818 1.3448586463928223
-0.9478428959846497 -0.5846154689788818 1.1653531789779663
-0.9478428959846497 -0.5846154689788818 0.9858476519584656
-0.9478428959846497 -0.5846154689788818 0.8063421249389648
-0.9478428959846497 -0.5846154689788818 0.6268365979194641
-0.9478428959846497 -0.5846154689788818 0.4473310708999634
-0.9478428959846497 -0.5846154689788818 0.26782554388046265
-0.9478428959846497 -0.5846154689788818 0.08832002431154251
-0.9478429555892944 -0.5846154689788818 -0.09118549525737762
-0.9478429555892944 -0.5846154689788818 -0.27069100737571716
-0.9478429555892944 -0.5846154689788818 -0.4501965343952179
-0.9478429555892944 -0.5846154689788818 -0.629702091217041
-0.9478429555892944 -0.5846154689788818 -0.8092076182365417
-0.9478429555892944 -0.5846154689788818 -0.9887130856513977
-0.9478429555892944 -0.5846154689788818 -1.1682186126708984
-0.9478429555892944 -0.5846154689788818 -1.347724199295044
-1.0461901426315308 -0.384120911359787 1.3448586463928223
-1.0461901426315308 -0.384120911359787 1.1653531789779663
-1.0461901426315308 -0.384120911359787 0.9858476519584656
-1.0461901426315308 -0.384120911359787 0.8063421249389648
-1.0461901426315308 -0.384120911359787 0.6268365979194641
-1.0461901426315308 -0.384120911359787 0.4473310708999634
-1.0461901426315308 -0.384120911359787 0.26782554388046265
-1.0461901426315308 -0.384120911359787 0.08832003176212311
-1.0461902618408203 -0.384120911359787 -0.09118549525737762
-1.0461902618408203 -0.384120911359787 -0.27069100737571716
-1.0461902618408203 -0.384120911359787 -0.4501965343952179
-1.0461902618408203 -0.384120911359787 -0.629702091217041
-1.0461902618408203 -0.384120911359787 -0.809207558631897
-1.0461902618408203 -0.384120911359787 -0.9887130856513977
-1.0461902618408203 -0.384120911359787 -1.1682186126708984
-1.0461902618408203 -0.384120911359787 -1.347724199295044
-1.1021649837493896 -0.16793331503868103 1.3448586463928223
-1.1021649837493896 -0.16793331503868103 1.1653531789779663
-1.1021649837493896 -0.16793331503868103 0.9858476519584656
-1.1021649837493896 -0.16793331503868103 0.8063421249389648
-1.1021649837493896 -0.16793331503868103 0.6268365979194641
-1.1021649837493896 -0.16793331503868103 0.4473310708999634
-1.1021649837493896 -0.16793331503868103 0.26782554388046265
-1.1021651029586792 -0.16793331503868103 0.08832003176212311
-1.1021651029586792 -0.16793331503868103 -0.09118548780679703
-1.1021651029586792 -0.16793331503868103 -0.27069100737571716
-1.1021651029586792 -0.16793331503868103 -0.4501965343952179
-1.1021651029586792 -0.16793331503868103 -0.6297020316123962
-1.1021651029586792 -0.16793331503868103 -0.809207558631897
-1.1021651029586792 -0.16793331503868103 -0.9887130856513977
-1.1021651029586792 -0.16793331503868103 -1.1682186126708984
-1.1021651029586792 -0.16793331503868103 -1.347724199295044
-1.1134757995605469 0.055096570402383804 1.3448586463928223
-1.1134757995605469 0.055096570402383804 1.1653531789779663
-1.1134757995605469 0.055096570402383804 0.9858476519584656
-1.1134757995605469 0.055096570402383804 0.8063421249389648
-1.1134757995605469 0.055096570402383804 0.6268365979194641
-1.1134757995605469 0.055096570402383804 0.4473310708999634
-1.1134757995605469 0.055096570402383804 0.26782554388046265
-1.1134757995605469 0.055096570402383804 0.08832003176212311
-1.1134757995605469 0.055096570402383804 -0.09118548780679703
-1.1134757995605469 0.055096570402383804 -0.27069100737571716
-1.1134759187698364 0.055096570402383804 -0.4501965343952179
-1.1134759187698364 0.055096570402383804 -0.6297020316123962
-1.1134759187698364 0.055096570402383804 -0.809207558631897
-1.1134759187698364 0.055096570402383804 -0.9887130856513977
-1.1134759187698364 0.055096570402383804 -1.1682186126708984
-1.1134759187698364 0.055096570402383804 -1.347724199295044
-1.0796594619750977 0.27583786845207214 1.3448586463928223
-1.0796594619750977 0.27583786845207214 1.1653531789779663
-1.0796594619750977 0.27583786845207214 0.9858476519584656
-1.0796594619750977 0.27583786845207214 0.8063421249389648
-1.0796594619750977 0.27583786845207214 0.6268365979194641
-1.0796594619750977 0.27583786845207214 0.4473310708999634
-1.0796594619750977 0.27583786845207214 0.26782554388046265
-1.0796594619750977 0.27583786845207214 0.08832003176212311
-1.0796595811843872 0.27583786845207214 -0.09118548780679703
-1.0796595811843872 0.27583786845207214 -0.27069100737571716
-1.0796595811843872 0.27583786845207214 -0.4501965343952179
-1.0796595811843872 0.27583786845207214 -0.6297020316123962
-1.0796595811843872 0.27583786845207214 -0.809207558631897
-1.0796595811843872 0.27583786845207214 -0.9887130856513977
-1.0796595811843872 0.27583786845207214 -1.1682186126708984
-1.0796595811843872 0.27583786845207214 -1.347724199295044
-1.0021004676818848 0.48525339365005493 1.3448586463928223
-1.0021004676818848 0.48525339365005493 1.1653531789779663
-1.0021004676818848 0.48525339365005493 0.9858476519584656
-1.0021004676818848 0.48525339365005493 0.8063421249389648
-1.0021004676818848 0.48525339365005493 0.6268365979194641
-1.0021004676818848 0.48525339365005493 0.4473310708999634
-1.0021004676818848 0.48525339365005493 0.26782554388046265
-1.0021004676818848 0.48525339365005493 0.08832003176212311
-1.0021005868911743 0.48525339365005493 -0.09118549525737762
-1.0021005868911743 0.48525339365005493 -0.27069100737571716
-1.0021005868911743 0.48525339365005493 -0.4501965343952179
-1.0021005868911743 0.48525339365005493 -0.629702091217041
-1.0021005868911743 0.48525339365005493 -0.809207558631897
-1.0021005868911743 0.48525339365005493 -0.9887130856513977
-1.0021005868911743 0.48525339365005493 -1.1682186126708984
-1.0021005868911743 0.48525339365005493 -1.347724199295044
-0.8839740753173828 0.6747696399688721 1.3448586463928223
-0.8839740753173828 0.6747696399688721 1.1653531789779663
-0.8839740753173828 0.6747696399688721 0.9858476519584656
-0.8839740753173828 0.6747696399688721 0.8063421249389648
-0.8839741349220276 0.6747696399688721 0.6268365979194641
-0.8839741349220276 0.6747696399688721 0.4473310708999634
-0.8839741349220276 0.6747696399688721 0.26782554388046265
-0.8839741349220276 0.6747696399688721 0.08832002431154251
-0.8839741349220276 0.6747696399688721 -0.09118550270795822
-0.8839741349220276 0.6747696399688721 -0.27069103717803955
-0.8839741349220276 0.6747696399688721 -0.4501965343952179
-0.8839741945266724 0.6747696399688721 -0.629702091217041
-0.8839741945266724 0.6747696399688721 -0.8092076182365417
-0.8839741945266724 0.6747696399688721 -0.9887130856513977
-0.8839741945266724 0.6747696399688721 -1.1682186126708984
-0.8839741945266724 0.6747696399688721 -1.347724199295044
-0.7301164269447327 0.8366278409957886 1.3448586463928223
-0.7301164269447327 0.8366278409957886 1.1653531789779663
-0.7301164269447327 0.8366278409957886 0.9858476519584656
-0.7301164269447327 0.8366278409957886 0.8063421249389648
-0.7301164269447327 0.8366278409957886 0.6268365979194641
-0.7301164269447327 0.8366278409957886 0.4473310708999634
-0.7301164269447327 0.8366278409957886 0.26782554388046265
-0.7301164269447327 0.8366278409957886 0.08832001686096191
-0.7301164865493774 0.8366278409957886 -0.09118551015853882
-0.7301164865493774 0.8366278409957886 -0.27069103717803955
-0.7301164865493774 0.8366278409957886 -0.4501965641975403
-0.7301164865493774 0.8366278409957886 -0.629702091217041
-0.7301164865493774 0.8366278409957886 -0.8092076182365417
-0.7301164865493774 0.8366278409957886 -0.9887131452560425
-0.7301164865493774 0.8366278409957886 -1.1682186126708984
-0.7301164865493774 0.8366278409957886 -1.347724199295044
-0.5468263626098633 0.9642014503479004 1.3448586463928223
-0.5468263626098633 0.9642014503479004 1.1653531789779663
-0.5468263626098633 0.9642014503479004 0.9858476519584656
-0.5468264222145081 0.9642014503479004 0.8063421249389648
-0.5468264222145081 0.9642014503479004 0.6268365979194641
-0.5468264222145081 0.9642014503479004 0.447331041097641
-0.5468264222145081 0.9642014503479004 0.26782554388046265
-0.5468264222145081 0.9642014503479004 0.08832000941038132
-0.5468264222145081 0.9642014503479004 -0.09118551760911942
-0.5468264222145081 0.9642014503479004 -0.27069103717803955
-0.5468264818191528 0.9642014503479004 -0.4501965641975403
-0.5468264818191528 0.9642014503479004 -0.629702091217041
-0.5468264818191528 0.9642014503479004 -0.8092076182365417
-0.5468264818191528 0.9642014503479004 -0.9887131452560425
-0.5468264818191528 0.9642014503479004 -1.1682186126708984
-0.5468264818191528 0.9642014503479004 -1.347724199295044
-0.341607928276062 1.0522676706314087 1.3448586463928223
-0.341607928276062 1.0522676706314087 1.1653531789779663
-0.3416079580783844 1.0522676706314087 0.9858475923538208
-0.3416079580783844 1.0522676706314087 0.8063420653343201
-0.3416079580783844 1.0522676706314087 0.6268365979194641
-0.3416079580783844 1.0522676706314087 0.447331041097641
-0.3416079878807068 1.0522676706314087 0.26782551407814026
-0.3416079878807068 1.0522676706314087 0.08832000195980072
-0.3416079878807068 1.0522676706314087 -0.09118552505970001
-0.3416080176830292 1.0522676706314087 -0.27069103717803955
-0.3416080176830292 1.0522676706314087 -0.4501965641975403
-0.3416080176830292 1.0522676706314087 -0.629702091217041
-0.3416080176830292 1.0522676706314087 -0.8092076182365417
-0.34160804748535156 1.0522676706314087 -0.9887131452560425
-0.34160804748535156 1.0522676706314087 -1.1682186126708984
-0.34160804748535156 1.0522676706314087 -1.347724199295044
-0.12286273390054703 1.0972208976745605 1.3448586463928223
-0.12286274135112762 1.0972208976745605 1.1653531789779663
-0.12286274880170822 1.0972208976745605 0.9858475923538208
-0.12286275625228882 1.0972208976745605 0.8063420653343201
-0.12286276370286942 1.0972208976745605 0.6268365383148193
-0.12286277115345001 1.0972208976745605 0.447331041097641
-0.12286277860403061 1.0972208976745605 0.26782551407814026
-0.1228627860546112 1.0972208976745605 0.08831998705863953
-0.1228627935051918 1.0972208976745605 -0.09118553251028061
-0.1228628009557724 1.0972208976745605 -0.27069106698036194
-0.122862808406353 1.0972208976745605 -0.45019659399986267
-0.1228628158569336 1.0972208976745605 -0.629702091217041
-0.12286282330751419 1.0972208976745605 -0.8092076182365417
-0.12286283075809479 1.0972208976745605 -0.9887131452560425
-0.12286284565925598 1.0972208976745605 -1.1682186126708984
-0.12286285310983658 1.0972208976745605 -1.347724199295044
0.10045377165079117 1.0972208976745605 1.3448586463928223
0.10045376420021057 1.0972208976745605 1.1653530597686768
0.10045375674962997 1.0972208976745605 0.9858475923538208
0.10045374929904938 1.0972208976745605 0.8063420653343201
0.10045374184846878 1.0972208976745605 0.6268365383148193
0.10045373439788818 1.0972208976745605 0.447331041097641
0.10045371949672699 1.0972208976745605 0.26782551407814026
0.10045371204614639 1.0972208976745605 0.08831997960805893
0.1004537045955658 1.0972208976745605 -0.0911855399608612
0.1004536971449852 1.0972208976745605 -0.27069106698036194
0.1004536896944046 1.0972208976745605 -0.45019659399986267
0.100453682243824 1.0972208976745605 -0.629702091217041
0.10045367479324341 1.0972208976745605 -0.8092076182365417
0.10045366734266281 1.0972208976745605 -0.9887131452560425
0.10045365989208221 1.0972208976745605 -1.168218731880188
0.10045365244150162 1.0972208976745605 -1.347724199295044
0.31919896602630615 1.0522676706314087 1.3448586463928223
0.31919896602630615 1.0522676706314087 1.1653530597686768
0.31919896602630615 1.0522676706314087 0.9858475923538208
0.31919893622398376 1.0522676706314087 0.8063420653343201
0.31919893622398376 1.0522676706314087 0.6268365383148193
0.31919893622398376 1.0522676706314087 0.4473310112953186
0.31919893622398376 1.0522676706314087 0.26782548427581787
0.3191989064216614 1.0522676706314087 0.08831997215747833
0.3191989064216614 1.0522676706314087 -0.0911855548620224
0.3191989064216614 1.0522676706314087 -0.27069106698036194
0.3191989064216614 1.0522676706314087 -0.45019659399986267
0.319198876619339 1.0522676706314087 -0.6297021508216858
0.319198876619339 1.0522676706314087 -0.8092076182365417
0.319198876619339 1.0522676706314087 -0.9887131452560425
0.3191988468170166 1.0522676706314087 -1.168218731880188
0.3191988468170166 1.0522676706314087 -1.347724199295044
0.5244174003601074 0.9642014503479004 1.3448586463928223
0.5244174003601074 0.9642014503479004 1.1653530597686768
0.5244174003601074 0.9642014503479004 0.9858475923538208
0.5244174003601074 0.9642014503479004 0.8063420653343201
0.5244174003601074 0.9642014503479004 0.6268365383148193
0.5244174003601074 0.9642014503479004 0.4473310112953186
0.5244173407554626 0.9642014503479004 0.26782548427581787
0.5244173407554626 0.9642014503479004 0.08831996470689774
0.5244173407554626 0.9642014503479004 -0.091185562312603
0.5244173407554626 0.9642014503479004 -0.2706910967826843
0.5244173407554626 0.9642014503479004 -0.45019659399986267
0.5244173407554626 0.9642014503479004 -0.6297021508216858
0.5244173407554626 0.9642014503479004 -0.8092076778411865
0.5244173407554626 0.9642014503479004 -0.9887132048606873
0.5244172811508179 0.9642014503479004 -1.168218731880188
0.5244172811508179 0.9642014503479004 -1.347724199295044
0.7077074646949768 0.8366278409957886 1.3448586463928223
0.707707405090332 0.8366278409957886 1.1653530597686768
0.707707405090332 0.8366278409957886 0.9858475923538208
0.707707405090332 0.8366278409957886 0.8063420653343201
0.707707405090332 0.8366278409957886 0.6268365383148193
0.707707405090332 0.8366278409957886 0.4473310112953186
0.707707405090332 0.8366278409957886 0.26782548427581787
0.707707405090332 0.8366278409957886 0.08831995725631714
0.7077073454856873 0.8366278409957886 -0.0911855697631836
0.7077073454856873 0.8366278409957886 -0.2706910967826843
0.7077073454856873 0.8366278409957886 -0.45019662380218506
0.7077073454856873 0.8366278409957886 -0.6297021508216858
0.7077073454856873 0.8366278409957886 -0.8092076778411865
0.7077073454856873 0.8366278409957886 -0.9887132048606873
0.7077073454856873 0.8366278409957886 -1.168218731880188
0.7077073454856873 0.8366278409957886 -1.347724199295044
0.861565113067627 0.6747696399688721 1.3448586463928223
0.861565113067627 0.6747696399688721 1.1653530597686768
0.861565113067627 0.6747696399688721 0.985847532749176
0.861565113067627 0.6747696399688721 0.8063420653343201
0.861565113067627 0.6747696399688721 0.6268365383148193
0.8615650534629822 0.6747696399688721 0.4473309814929962
0.8615650534629822 0.6747696399688721 0.26782548427581787
0.8615650534629822 0.6747696399688721 0.08831994980573654
0.8615650534629822 0.6747696399688721 -0.09118557721376419
0.8615650534629822 0.6747696399688721 -0.2706910967826843
0.8615650534629822 0.6747696399688721 -0.45019662380218506
0.8615650534629822 0.6747696399688721 -0.6297021508216858
0.8615649938583374 0.6747696399688721 -0.8092076778411865
0.8615649938583374 0.6747696399688721 -0.9887132048606873
0.8615649938583374 0.6747696399688721 -1.168218731880188
0.8615649938583374 0.6747696399688721 -1.347724199295044
0.9796915054321289 0.48525339365005493 1.3448586463928223
0.9796915054321289 0.48525339365005493 1.1653530597686768
0.9796915054321289 0.48525339365005493 0.985847532749176
0.9796915054321289 0.48525339365005493 0.8063420057296753
0.9796915054321289 0.48525339365005493 0.6268365383148193
0.9796914458274841 0.48525339365005493 0.4473309814929962
0.9796914458274841 0.48525339365005493 0.2678254544734955
0.9796914458274841 0.48525339365005493 0.08831994235515594
0.9796914458274841 0.48525339365005493 -0.09118558466434479
0.9796914458274841 0.48525339365005493 -0.2706910967826843
0.9796914458274841 0.48525339365005493 -0.45019662380218506
0.9796914458274841 0.48525339365005493 -0.6297021508216858
0.9796913862228394 0.48525339365005493 -0.8092076778411865
0.9796913862228394 0.48525339365005493 -0.9887132048606873
0.9796913862228394 0.48525339365005493 -1.168218731880188
0.9796913862228394 0.48525339365005493 -1.347724199295044
1.0572504997253418 0.27583786845207214 1.3448586463928223
1.0572504997253418 0.27583786845207214 1.1653530597686768
1.0572504997253418 0.27583786845207214 0.985847532749176
1.0572504997253418 0.27583786845207214 0.8063420057296753
1.0572504997253418 0.27583786845207214 0.6268364787101746
1.0572504997253418 0.27583786845207214 0.4473309814929962
1.0572504997253418 0.27583786845207214 0.2678254544734955
1.0572504997253418 0.27583786845207214 0.08831993490457535
1.0572504997253418 0.27583786845207214 -0.09118558466434479
1.0572503805160522 0.27583786845207214 -0.2706910967826843
1.0572503805160522 0.27583786845207214 -0.45019662380218506
1.0572503805160522 0.27583786845207214 -0.6297021508216858
1.0572503805160522 0.27583786845207214 -0.8092076778411865
1.0572503805160522 0.27583786845207214 -0.9887132048606873
1.0572503805160522 0.27583786845207214 -1.168218731880188
1.0572503805160522 0.27583786845207214 -1.347724199295044
1.091066837310791 0.055096570402383804 1.3448586463928223
1.091066837310791 0.055096570402383804 1.1653530597686768
1.091066837310791 0.055096570402383804 0.985847532749176
1.091066837310791 0.055096570402383804 0.8063420057296753
1.091066837310791 0.055096570402383804 0.6268364787101746
1.091066837310791 0.055096570402383804 0.4473309814929962
1.091066837310791 0.055096570402383804 0.2678254544734955
1.0910667181015015 0.055096570402383804 0.08831993490457535
1.0910667181015015 0.055096570402383804 -0.09118558466434479
1.0910667181015015 0.055096570402383804 -0.2706910967826843
1.0910667181015015 0.055096570402383804 -0.45019662380218506
1.0910667181015015 0.055096570402383804 -0.6297021508216858
1.0910667181015015 0.055096570402383804 -0.8092076778411865
1.0910667181015015 0.055096570402383804 -0.9887132048606873
1.0910667181015015 0.055096570402383804 -1.168218731880188
1.0910667181015015 0.055096570402383804 -1.347724199295044
1.0797560214996338 -0.16793331503868103 1.3448586463928223
1.0797560214996338 -0.16793331503868103 1.1653530597686768
1.0797560214996338 -0.16793331503868103 0.985847532749176
1.0797560214996338 -0.16793331503868103 0.8063420057296753
1.0797560214996338 -0.16793331503868103 0.6268364787101746
1.0797560214996338 -0.16793331503868103 0.4473309814929962
1.0797560214996338 -0.16793331503868103 0.2678254544734955
1.0797560214996338 -0.16793331503868103 0.08831993490457535
1.0797560214996338 -0.16793331503868103 -0.09118558466434479
1.0797559022903442 -0.16793331503868103 -0.2706910967826843
1.0797559022903442 -0.16793331503868103 -0.45019662380218506
1.0797559022903442 -0.16793331503868103 -0.6297021508216858
1.0797559022903442 -0.16793331503868103 -0.8092076778411865
1.0797559022903442 -0.16793331503868103 -0.9887132048606873
1.0797559022903442 -0.16793331503868103 -1.168218731880188
1.0797559022903442 -0.16793331503868103 -1.347724199295044
1.023781180381775 -0.384120911359787 1.3448586463928223
1.023781180381775 -0.384120911359787 1.1653530597686768
1.023781180381775 -0.384120911359787 0.985847532749176
1.023781180381775 -0.384120911359787 0.8063420057296753
1.023781180381775 -0.384120911359787 0.6268365383148193
1.023781180381775 -0.384120911359787 0.4473309814929962
1.023781180381775 -0.384120911359787 0.2678254544734955
1.023781180381775 -0.384120911359787 0.08831994235515594
1.023781180381775 -0.384120911359787 -0.09118558466434479
1.0237810611724854 -0.384120911359787 -0.2706910967826843
1.0237810611724854 -0.384120911359787 -0.45019662380218506
1.0237810611724854 -0.384120911359787 -0.6297021508216858
1.0237810611724854 -0.384120911359787 -0.8092076778411865
1.0237810611724854 -0.384120911359787 -0.9887132048606873
1.0237810611724854 -0.384120911359787 -1.168218731880188
1.0237810611724854 -0.384120911359787 -1.347724199295044
0.925433874130249 -0.5846154689788818 1.3448586463928223
0.925433874130249 -0.5846154689788818 1.1653530597686768
0.925433874130249 -0.5846154689788818 0.985847532749176
0.925433874130249 -0.5846154689788818 0.8063420653343201
0.925433874130249 -0.5846154689788818 0.6268365383148193
0.925433874130249 -0.5846154689788818 0.4473309814929962
0.925433874130249 -0.5846154689788818 0.2678254544734955
0.925433874130249 -0.5846154689788818 0.08831994235515594
0.9254338145256042 -0.5846154689788818 -0.09118557721376419
0.9254338145256042 -0.5846154689788818 -0.2706910967826843
0.9254338145256042 -0.5846154689788818 -0.45019662380218506
0.9254338145256042 -0.5846154689788818 -0.6297021508216858
0.9254338145256042 -0.5846154689788818 -0.8092076778411865
0.9254338145256042 -0.5846154689788818 -0.9887132048606873
0.9254338145256042 -0.5846154689788818 -1.168218731880188
0.9254337549209595 -0.5846154689788818 -1.347724199295044
0.7887405157089233 -0.7612087726593018 1.3448586463928223
0.7887405157089233 -0.7612087726593018 1.1653530597686768
0.7887405157089233 -0.7612087726593018 0.9858475923538208
0.7887405157089233 -0.7612087726593018 0.8063420653343201
0.7887405157089233 -0.7612087726593018 0.6268365383148193
0.7887405157089233 -0.7612087726593018 0.4473309814929962
0.7887405157089233 -0.7612087726593018 0.26782548427581787
0.7887404561042786 -0.7612087726593018 0.08831994980573654
0.7887404561042786 -0.7612087726593018 -0.0911855697631836
0.7887404561042786 -0.7612087726593018 -0.2706910967826843
0.7887404561042786 -0.7612087726593018 -0.45019662380218506
0.7887404561042786 -0.7612087726593018 -0.6297021508216858
0.7887404561042786 -0.7612087726593018 -0.8092076778411865
0.7887404561042786 -0.7612087726593018 -0.9887132048606873
0.7887403964996338 -0.7612087726593018 -1.168218731880188
0.7887403964996338 -0.7612087726593018 -1.347724199295044
0.6192973256111145 -0.9066709876060486 1.3448586463928223
0.6192973256111145 -0.9066709876060486 1.1653530597686768
0.6192973256111145 -0.9066709876060486 0.9858475923538208
0.6192973256111145 -0.9066709876060486 0.8063420653343201
0.6192972660064697 -0.9066709876060486 0.6268365383148193
0.6192972660064697 -0.9066709876060486 0.4473310112953186
0.6192972660064697 -0.9066709876060486 0.26782548427581787
0.6192972660064697 -0.9066709876060486 0.08831995725631714
0.6192972660064697 -0.9066709876060486 -0.091185562312603
0.6192972660064697 -0.9066709876060486 -0.2706910967826843
0.6192972660064697 -0.9066709876060486 -0.45019662380218506
0.6192972660064697 -0.9066709876060486 -0.6297021508216858
0.619297206401825 -0.9066709876060486 -0.8092076778411865
0.619297206401825 -0.9066709876060486 -0.9887132048606873
0.619297206401825 -0.9066709876060486 -1.168218731880188
0.619297206401825 -0.9066709876060486 -1.347724199295044
0.4240413010120392 -1.0150469541549683 1.3448586463928223
0.4240413010120392 -1.0150469541549683 1.1653530597686768
0.4240412712097168 -1.0150469541549683 0.9858475923538208
0.4240412712097168 -1.0150469541549683 0.8063420653343201
0.4240412712097168 -1.0150469541549683 0.6268365383148193
0.4240412712097168 -1.0150469541549683 0.4473310112953186
0.4240412414073944 -1.0150469541549683 0.26782548427581787
0.4240412414073944 -1.0150469541549683 0.08831996470689774
0.4240412414073944 -1.0150469541549683 -0.0911855548620224
0.4240412414073944 -1.0150469541549683 -0.27069106698036194
0.424041211605072 -1.0150469541549683 -0.45019659399986267
0.424041211605072 -1.0150469541549683 -0.6297021508216858
0.424041211605072 -1.0150469541549683 -0.8092076778411865
0.42404118180274963 -1.0150469541549683 -0.9887131452560425
0.42404118180274963 -1.0150469541549683 -1.168218731880188
0.42404118180274963 -1.0150469541549683 -1.347724199295044
0.21096625924110413 -1.081899642944336 1.3448586463928223
0.21096624433994293 -1.081899642944336 1.1653530597686768
0.21096624433994293 -1.081899642944336 0.9858475923538208
0.21096622943878174 -1.081899642944336 0.8063420653343201
0.21096622943878174 -1.081899642944336 0.6268365383148193
0.21096621453762054 -1.081899642944336 0.4473310112953186
0.21096621453762054 -1.081899642944336 0.26782548427581787
0.21096619963645935 -1.081899642944336 0.08831997215747833
0.21096619963645935 -1.081899642944336 -0.0911855474114418
0.21096618473529816 -1.081899642944336 -0.27069106698036194
0.21096618473529816 -1.081899642944336 -0.45019659399986267
0.21096616983413696 -1.081899642944336 -0.629702091217041
0.21096615493297577 -1.081899642944336 -0.8092076182365417
0.21096615493297577 -1.081899642944336 -0.9887131452560425
0.21096614003181458 -1.081899642944336 -1.168218731880188
0.21096614003181458 -1.081899642944336 -1.347724199295044
-0.01120448112487793 -1.1044921875 1.3448586463928223
-0.011204488575458527 -1.1044921875 1.1653531789779663
-0.011204496957361698 -1.1044921875 0.9858475923538208
-0.011204504407942295 -1.1044921875 0.8063420653343201
-0.011204512789845467 -1.1044921875 0.6268365383148193
-0.011204520240426064 -1.1044921875 0.447331041097641
-0.011204528622329235 -1.1044921875 0.26782551407814026
-0.011204536072909832 -1.1044921875 0.08831998705863953
-0.011204543523490429 -1.1044921875 -0.0911855399608612
-0.0112045519053936 -1.1044921875 -0.27069106698036194
-0.011204559355974197 -1.1044921875 -0.45019659399986267
-0.011204567737877369 -1.1044921875 -0.629702091217041
-0.011204575188457966 -1.1044921875 -0.8092076182365417
-0.011204583570361137 -1.1044921875 -0.9887131452560425
-0.011204591020941734 -1.1044921875 -1.168218731880188
-0.011204598471522331 -1.1044921875 -1.347724199295044
