ply
format ascii 1.0
element vertex 512
property float x
property float y
property float z
end_header
1.0494897365570068 1.6791348457336426 -1.6205490827560425
1.0452492237091064 1.6972650289535522 -1.3366353511810303
1.041008710861206 1.715395212173462 -1.052721619606018
1.0367681980133057 1.733525276184082 -0.7688078284263611
1.0325276851654053 1.7516554594039917 -0.4848940670490265
1.0282871723175049 1.7697856426239014 -0.2009803205728531
1.0240466594696045 1.7879157066345215 0.0829334408044815
1.019806146621704 1.8060458898544312 0.3668471872806549
1.0155655145645142 1.8241759538650513 0.6507609486579895
1.0113250017166138 1.842306137084961 0.9346747398376465
1.0070844888687134 1.8604363203048706 1.2185884714126587
1.002843976020813 1.8785663843154907 1.502502202987671
0.9986034631729126 1.8966965675354004 1.786415934562683
0.9943629503250122 1.9148266315460205 2.0703296661376953
0.9901224374771118 1.9329568147659302 2.354243516921997
0.9858819246292114 1.9510869979858398 2.638157367706299
0.6757570505142212 1.6408480405807495 -1.6236861944198608
0.671516478061676 1.6589781045913696 -1.3397724628448486
0.6672759652137756 1.6771082878112793 -1.0558587312698364
0.6630354523658752 1.695238471031189 -0.7719449400901794
0.6587949395179749 1.713368535041809 -0.48803120851516724
0.6545544266700745 1.7314987182617188 -0.20411744713783264
0.6503139138221741 1.7496289014816284 0.07979630678892136
0.6460734009742737 1.7677589654922485 0.36371007561683655
0.6418328881263733 1.7858891487121582 0.6476238369941711
0.6375923156738281 1.8040192127227783 0.9315375685691833
0.6333518028259277 1.822149395942688 1.2154513597488403
0.6291112899780273 1.8402795791625977 1.4993650913238525
0.624870777130127 1.8584096431732178 1.7832788228988647
0.6206302642822266 1.8765398263931274 2.067192554473877
0.6163897514343262 1.894670009613037 2.3511064052581787
0.6121492385864258 1.9128000736236572 2.6350200176239014
0.3173249661922455 1.5282648801803589 -1.6218503713607788
0.3130844533443451 1.5463950634002686 -1.3379366397857666
0.3088439404964447 1.5645251274108887 -1.0540229082107544
0.3046033978462219 1.5826553106307983 -0.7701091766357422
0.30036288499832153 1.600785493850708 -0.4861954152584076
0.29612237215042114 1.6189155578613281 -0.202281653881073
0.29188185930252075 1.6370457410812378 0.0816321074962616
0.287641316652298 1.655175805091858 0.3655458688735962
0.2834008038043976 1.6733059883117676 0.6494596004486084
0.2791602909564972 1.6914361715316772 0.9333733916282654
0.2749197781085968 1.7095662355422974 1.2172871828079224
0.270679235458374 1.727696418762207 1.5012009143829346
0.26643872261047363 1.7458266019821167 1.7851146459579468
0.26219820976257324 1.7639566659927368 2.069028377532959
0.25795769691467285 1.7820868492126465 2.3529422283172607
0.2537171542644501 1.8002169132232666 2.6368558406829834
-0.011132167652249336 1.3459947109222412 -1.615116834640503
-0.015372687950730324 1.3641247749328613 -1.3312031030654907
-0.01961320824921131 1.382254958152771 -1.0472893714904785
-0.0238537285476923 1.4003851413726807 -0.7633755803108215
-0.028094250708818436 1.4185152053833008 -0.47946181893348694
-0.03233477100729942 1.4366453886032104 -0.19554807245731354
-0.03657529130578041 1.4547754526138306 0.08836568892002106
-0.0408158116042614 1.4729056358337402 0.37227943539619446
-0.045056331902742386 1.49103581905365 0.656193196773529
-0.04929685220122337 1.50916588306427 0.9401069283485413
-0.05353737249970436 1.5272960662841797 1.2240207195281982
-0.05777789279818535 1.5454261302947998 1.5079344511032104
-0.062018416821956635 1.5635563135147095 1.7918481826782227
-0.06625893712043762 1.5816864967346191 2.0757620334625244
-0.07049945741891861 1.5998165607452393 2.359675645828247
-0.0747399777173996 1.617946743965149 2.643589496612549
-0.2961673140525818 1.1014995574951172 -1.6037611961364746
-0.30040785670280457 1.1196296215057373 -1.3198474645614624
-0.30464836955070496 1.137759804725647 -1.0359336137771606
-0.30888888239860535 1.1558899879455566 -0.7520198822021484
-0.31312939524650574 1.1740200519561768 -0.46810615062713623
-0.3173699378967285 1.1921502351760864 -0.18419238924980164
-0.3216104507446289 1.2102802991867065 0.09972136467695236
-0.3258509635925293 1.2284104824066162 0.38363513350486755
-0.3300914764404297 1.2465406656265259 0.6675488948822021
-0.33433201909065247 1.264670729637146 0.9514626264572144
-0.33857253193855286 1.2828009128570557 1.2353763580322266
-0.34281304478645325 1.3009310960769653 1.5192900896072388
-0.34705355763435364 1.3190611600875854 1.8032039403915405
-0.3512941002845764 1.3371913433074951 2.0871176719665527
-0.3555346131324768 1.3553214073181152 2.3710315227508545
-0.3597751259803772 1.373451590538025 2.654945135116577
-0.5261111259460449 0.804789125919342 -1.5882482528686523
-0.5303516387939453 0.8229192495346069 -1.3043345212936401
-0.5345921516418457 0.8410493731498718 -1.020420789718628
-0.5388326644897461 0.8591795563697815 -0.7365070581436157
-0.5430731773376465 0.8773096799850464 -0.45259326696395874
-0.5473137497901917 0.8954398036003113 -0.16867952048778534
-0.551554262638092 0.9135699272155762 0.11523424088954926
-0.5557947754859924 0.9317001104354858 0.39914798736572266
-0.5600352883338928 0.9498302340507507 0.6830617785453796
-0.5642758011817932 0.9679603576660156 0.9669755101203918
-0.5685163140296936 0.9860904812812805 1.2508893013000488
-0.572756826877594 1.0042206048965454 1.534803032875061
-0.5769973397254944 1.022350788116455 1.8187167644500732
-0.5812379121780396 1.0404808521270752 2.102630615234375
-0.5854784250259399 1.0586110353469849 2.3865442276000977
-0.5897189378738403 1.0767412185668945 2.6704580783843994
-0.6915496587753296 0.468010812997818 -1.5692132711410522
-0.69579017162323 0.4861409366130829 -1.28529953956604
-0.7000306844711304 0.5042710900306702 -1.0013858079910278
-0.7042711973190308 0.5224012136459351 -0.7174720764160156
-0.7085117101669312 0.5405313372612 -0.43355828523635864
-0.7127522230148315 0.5586615204811096 -0.14964453876018524
-0.7169927358627319 0.5767916440963745 0.13426922261714935
-0.7212332487106323 0.5949217677116394 0.41818296909332275
-0.7254738211631775 0.6130518913269043 0.7020967602729797
-0.7297143340110779 0.6311820149421692 0.9860104918479919
-0.7339548468589783 0.6493121981620789 1.269924283027649
-0.7381953597068787 0.6674423217773438 1.5538380146026611
-0.742435872554779 0.6855724453926086 1.8377517461776733
-0.7466763854026794 0.7037025690078735 2.1216654777526855
-0.7509168982505798 0.7218327522277832 2.4055793285369873
-0.7551574110984802 0.7399628758430481 2.68949294090271
-0.785709798336029 0.10495232045650482 -1.5474355220794678
-0.7899503111839294 0.12308245897293091 -1.2635217905044556
-0.7941908240318298 0.141212597489357 -0.9796079993247986
-0.7984313368797302 0.15934273600578308 -0.6956942677497864
-0.8026718497276306 0.17747287452220917 -0.4117805063724518
-0.806912362575531 0.19560301303863525 -0.12786675989627838
-0.8111529350280762 0.21373315155506134 0.1560470014810562
-0.8153934478759766 0.23186329007148743 0.4399607479572296
-0.819633960723877 0.2499934285879135 0.7238745093345642
-0.8238744735717773 0.2681235671043396 1.0077883005142212
-0.8281149864196777 0.2862536907196045 1.2917020320892334
-0.8323554992675781 0.3043838441371918 1.5756157636642456
-0.8365960121154785 0.32251396775245667 1.8595294952392578
-0.8408365845680237 0.34064412117004395 2.1434433460235596
-0.8450770974159241 0.35877424478530884 2.4273569583892822
-0.8493176102638245 0.3769043982028961 2.711270809173584
-0.8047366738319397 -0.26952266693115234 -1.5238065719604492
-0.8089771866798401 -0.25139251351356506 -1.2398927211761475
-0.8132176995277405 -0.23326238989830017 -0.95597904920578
-0.8174582123756409 -0.21513225138187408 -0.672065258026123
-0.8216987252235413 -0.197002112865448 -0.38815149664878845
-0.8259392380714417 -0.1788719743490219 -0.10423775017261505
-0.8301798105239868 -0.16074183583259583 0.17967599630355835
-0.8344203233718872 -0.14261169731616974 0.46358975768089294
-0.8386608362197876 -0.12448155879974365 0.7475035190582275
-0.842901349067688 -0.10635142773389816 1.0314172506332397
-0.8471418619155884 -0.08822128921747208 1.315330982208252
-0.8513823747634888 -0.07009115070104599 1.5992448329925537
-0.8556228876113892 -0.051961012184619904 1.883158564567566
-0.8598634004592896 -0.03383087366819382 2.167072296142578
-0.8641039729118347 -0.01570073701441288 2.45098614692688
-0.8683444857597351 0.0024294008035212755 2.7348997592926025
-0.7478513121604919 -0.6400831341743469 -1.4992936849594116
-0.7520918250083923 -0.6219529509544373 -1.2153799533843994
-0.7563323378562927 -0.6038228273391724 -0.9314661622047424
-0.7605728507041931 -0.5856927037239075 -0.6475524306297302
-0.7648133635520935 -0.5675625801086426 -0.36363866925239563
-0.7690538763999939 -0.5494323968887329 -0.07972490042448044
-0.7732943892478943 -0.531302273273468 0.20418885350227356
-0.7775349020957947 -0.5131721496582031 0.48810261487960815
-0.7817754745483398 -0.49504199624061584 0.7720163464546204
-0.7860159873962402 -0.47691187262535095 1.0559301376342773
-0.7902565002441406 -0.45878171920776367 1.3398438692092896
-0.794497013092041 -0.4406515955924988 1.6237576007843018
-0.7987375259399414 -0.4225214421749115 1.9076714515686035
-0.8029780387878418 -0.4043913185596466 2.191585063934326
-0.8072185516357422 -0.3862611651420593 2.475498914718628
-0.8114590644836426 -0.36813104152679443 2.7594127655029297
-0.6173825860023499 -0.9915581941604614 -1.4749006032943726
-0.6216230988502502 -0.9734280705451965 -1.1909867525100708
-0.6258636116981506 -0.9552979469299316 -0.9070730209350586
-0.630104124546051 -0.9371678233146667 -0.6231592893600464
-0.6343446373939514 -0.9190376400947571 -0.3392455279827118
-0.6385851502418518 -0.9009075164794922 -0.0553317666053772
-0.6428256630897522 -0.8827773928642273 0.2285819947719574
-0.6470661759376526 -0.8646472692489624 0.512495756149292
-0.6513067483901978 -0.8465170860290527 0.7964094877243042
-0.6555472612380981 -0.8283869624137878 1.0803232192993164
-0.6597877740859985 -0.810256838798523 1.3642370700836182
-0.6640282869338989 -0.7921267151832581 1.6481508016586304
-0.6682687997817993 -0.7739965915679932 1.9320645332336426
-0.6725093126296997 -0.7558664083480835 2.2159783840179443
-0.6767498254776001 -0.7377362847328186 2.499891996383667
-0.6809903383255005 -0.7196061611175537 2.7838058471679688
-0.4186718761920929 -1.3095585107803345 -1.4516258239746094
-0.4229123890399933 -1.2914284467697144 -1.1677119731903076
-0.42715293169021606 -1.2732982635498047 -0.8837982416152954
-0.43139344453811646 -1.2551681995391846 -0.5998845100402832
-0.43563395738601685 -1.237038016319275 -0.3159707486629486
-0.4398745000362396 -1.2189078330993652 -0.03205699846148491
-0.44411501288414 -1.2007777690887451 0.2518567740917206
-0.4483555257320404 -1.1826475858688354 0.5357705354690552
-0.4525960385799408 -1.1645174026489258 0.8196842670440674
-0.4568365812301636 -1.1463873386383057 1.1035979986190796
-0.46107709407806396 -1.128257155418396 1.3875117301940918
-0.46531760692596436 -1.1101270914077759 1.6714255809783936
-0.46955811977386475 -1.0919969081878662 1.9553393125534058
-0.4737986624240875 -1.0738667249679565 2.239253044128418
-0.4780391752719879 -1.0557366609573364 2.5231668949127197
-0.4822796881198883 -1.0376064777374268 2.8070805072784424
-0.15985450148582458 -1.5810651779174805 -1.430422306060791
-0.16409501433372498 -1.5629349946975708 -1.1465084552764893
-0.16833554208278656 -1.5448049306869507 -0.862594723701477
-0.17257605493068695 -1.526674747467041 -0.5786809921264648
-0.17681658267974854 -1.5085445642471313 -0.29476723074913025
-0.18105709552764893 -1.4904145002365112 -0.010853471234440804
-0.1852976232767105 -1.4722843170166016 0.27306029200553894
-0.1895381361246109 -1.4541542530059814 0.5569740533828735
-0.19377866387367249 -1.4360240697860718 0.8408877849578857
-0.19801919162273407 -1.417893886566162 1.124801516532898
-0.20225970447063446 -1.399763822555542 1.4087153673171997
-0.20650023221969604 -1.3816336393356323 1.692629098892212
-0.21074074506759644 -1.3635035753250122 1.9765428304672241
-0.21498127281665802 -1.3453733921051025 2.2604565620422363
-0.2192217856645584 -1.3272432088851929 2.544370412826538
-0.22346231341362 -1.3091131448745728 2.8282840251922607
0.1484735757112503 -1.7949625253677368 -1.4121580123901367
0.14423306286334991 -1.7768323421478271 -1.1282442808151245
0.13999253511428833 -1.758702278137207 -0.8443305492401123
0.13575202226638794 -1.7405720949172974 -0.5604167580604553
0.13151149451732635 -1.7224420309066772 -0.2765030264854431
0.12727098166942596 -1.7043118476867676 0.007410737220197916
0.12303045392036438 -1.686181664466858 0.2913244962692261
0.11878993362188339 -1.6680516004562378 0.5752382278442383
0.1145494133234024 -1.6499214172363281 0.8591520190238953
0.11030889302492142 -1.6317912340164185 1.1430658102035522
0.10606837272644043 -1.6136611700057983 1.4269795417785645
0.10182785242795944 -1.5955309867858887 1.7108932733535767
0.09758733212947845 -1.5774009227752686 1.9948070049285889
0.09334681183099747 -1.5592707395553589 2.2787208557128906
0.08910629153251648 -1.5411405563354492 2.5626344680786133
0.08486577123403549 -1.523010492324829 2.846548318862915
0.4936893582344055 -1.9424936771392822 -1.397580862045288
0.4894488453865051 -1.9243634939193726 -1.1136671304702759
0.48520833253860474 -1.9062334299087524 -0.8297533988952637
0.48096778988838196 -1.8881032466888428 -0.5458396077156067
0.47672727704048157 -1.869973063468933 -0.2619258761405945
0.4724867641925812 -1.851842999458313 0.02198789082467556
0.4682462513446808 -1.8337128162384033 0.3059016466140747
0.464005708694458 -1.8155827522277832 0.5898153781890869
0.4597651958465576 -1.7974525690078735 0.8737291693687439
0.4555246829986572 -1.7793223857879639 1.1576429605484009
0.45128417015075684 -1.7611923217773438 1.441556692123413
0.44704362750053406 -1.743062138557434 1.7254704236984253
0.44280311465263367 -1.7249319553375244 2.0093841552734375
0.4385626018047333 -1.7068018913269043 2.2932980060577393
0.4343220889568329 -1.6886717081069946 2.577211618423462
0.4300815463066101 -1.6705416440963745 2.8611254692077637
0.8616597056388855 -2.0176186561584473 -1.3872876167297363
0.8574191927909851 -1.9994884729385376 -1.1033738851547241
0.8531786203384399 -1.981358289718628 -0.8194600939750671
0.8489381074905396 -1.9632282257080078 -0.5355463027954102
0.8446975946426392 -1.9450980424880981 -0.25163257122039795
0.8404570817947388 -1.926967978477478 0.03228119760751724
0.8362165689468384 -1.9088377952575684 0.31619495153427124
0.831976056098938 -1.8907076120376587 0.6001086831092834
0.8277355432510376 -1.8725775480270386 0.8840224742889404
0.8234949707984924 -1.854447364807129 1.1679362058639526
0.819254457950592 -1.8363171815872192 1.4518499374389648
0.8150139451026917 -1.8181871175765991 1.7357637882232666
0.8107734322547913 -1.8000569343566895 2.0196774005889893
0.8065329194068909 -1.7819268703460693 2.303591251373291
0.8022924065589905 -1.7637966871261597 2.5875051021575928
0.7980518937110901 -1.74566650390625 2.8714187145233154
1.237319827079773 -2.0172617435455322 -1.381699562072754
1.2330793142318726 -1.999131679534912 -1.0977858304977417
1.2288388013839722 -1.9810014963150024 -0.8138720393180847
1.2245981693267822 -1.9628713130950928 -0.5299582481384277
1.2203576564788818 -1.9447412490844727 -0.24604450166225433
1.2161171436309814 -1.926611065864563 0.037869248539209366
1.211876630783081 -1.9084810018539429 0.32178300619125366
1.2076361179351807 -1.8903508186340332 0.6056967377662659
1.2033956050872803 -1.8722206354141235 0.8896105289459229
1.1991550922393799 -1.8540905714035034 1.173524260520935
1.1949145793914795 -1.8359603881835938 1.4574379920959473
1.190674066543579 -1.817830204963684 1.741351842880249
1.1864335536956787 -1.799700140953064 2.0252654552459717
1.1821930408477783 -1.7815699577331543 2.3091793060302734
1.177952527999878 -1.7634398937225342 2.593093156814575
1.1737120151519775 -1.7453097105026245 2.877006769180298
1.6052900552749634 -1.9414377212524414 -1.3810454607009888
1.601049542427063 -1.9233076572418213 -1.0971317291259766
1.5968090295791626 -1.9051774740219116 -0.8132179975509644
1.5925685167312622 -1.887047290802002 -0.5293042659759521
1.5883280038833618 -1.8689172267913818 -0.24539048969745636
1.5840874910354614 -1.8507870435714722 0.038523271679878235
1.579846978187561 -1.832656979560852 0.32243701815605164
1.5756064653396606 -1.8145267963409424 0.6063507795333862
1.5713659524917603 -1.7963966131210327 0.8902645707130432
1.5671254396438599 -1.7782665491104126 1.1741782426834106
1.5628849267959595 -1.760136365890503 1.4580920934677124
1.558644413948059 -1.7420061826705933 1.7420058250427246
1.5544039011001587 -1.7238761186599731 2.0259196758270264
1.5501633882522583 -1.7057459354400635 2.309833288192749
1.545922875404358 -1.6876158714294434 2.593747138977051
1.541682243347168 -1.6694856882095337 2.8776607513427734
1.9505058526992798 -1.7932507991790771 -1.3853522539138794
1.9462653398513794 -1.7751206159591675 -1.1014385223388672
1.942024827003479 -1.7569905519485474 -0.817524790763855
1.9377843141555786 -1.7388603687286377 -0.533610999584198
1.9335438013076782 -1.720730185508728 -0.2496972680091858
1.9293032884597778 -1.702600121498108 0.03421648591756821
1.9250627756118774 -1.6844699382781982 0.3181302547454834
1.920822262763977 -1.6663397550582886 0.6020439863204956
1.9165817499160767 -1.6482096910476685 0.8859577775001526
1.9123412370681763 -1.6300795078277588 1.1698715686798096
1.9081007242202759 -1.6119494438171387 1.4537853002548218
1.9038602113723755 -1.593819260597229 1.737699031829834
1.899619698524475 -1.5756890773773193 2.0216128826141357
1.8953790664672852 -1.5575590133666992 2.3055264949798584
1.8911385536193848 -1.5394288301467896 2.58944034576416
1.8868980407714844 -1.5212987661361694 2.873353958129883
2.258833885192871 -1.5787676572799683 -1.3944435119628906
2.2545933723449707 -1.5606374740600586 -1.1105297803878784
2.2503528594970703 -1.5425074100494385 -0.8266160488128662
2.24611234664917 -1.5243772268295288 -0.542702317237854
2.2418718338012695 -1.5062470436096191 -0.2587885558605194
2.237631320953369 -1.488116979598999 0.02512521483004093
2.2333908081054688 -1.4699867963790894 0.3090389668941498
2.2291502952575684 -1.4518567323684692 0.5929527282714844
2.224909782409668 -1.4337265491485596 0.8768664598464966
2.2206692695617676 -1.41559636592865 1.1607801914215088
2.216428756713867 -1.3974663019180298 1.4446940422058105
2.212188243865967 -1.3793361186981201 1.7286077737808228
2.2079477310180664 -1.3612059354782104 2.012521505355835
2.203707218170166 -1.3430758714675903 2.2964353561401367
2.1994667053222656 -1.3249456882476807 2.5803489685058594
2.1952261924743652 -1.3068156242370605 2.864262819290161
2.517651319503784 -1.3067693710327148 -1.4079471826553345
2.513410806655884 -1.2886391878128052 -1.1240333318710327
2.5091702938079834 -1.2705090045928955 -0.8401196002960205
2.504929780960083 -1.2523789405822754 -0.5562058687210083
2.5006892681121826 -1.2342487573623657 -0.2722921073436737
2.4964487552642822 -1.2161186933517456 0.011621654964983463
2.492208242416382 -1.197988510131836 0.2955354154109955
2.4879677295684814 -1.1798583269119263 0.5794491767883301
2.483727216720581 -1.1617282629013062 0.8633629083633423
2.4794867038726807 -1.1435980796813965 1.1472766399383545
2.4752461910247803 -1.1254680156707764 1.4311904907226562
2.47100567817688 -1.1073378324508667 1.7151042222976685
2.4667651653289795 -1.089207649230957 1.9990179538726807
2.462524652481079 -1.071077585220337 2.2829318046569824
2.4582841396331787 -1.0529474020004272 2.566845417022705
2.4540436267852783 -1.0348172187805176 2.850759267807007
2.7163619995117188 -0.9883914589881897 -1.4253101348876953
2.7121214866638184 -0.9702613353729248 -1.141396403312683
2.707880973815918 -0.9521312117576599 -0.8574826121330261
2.7036404609680176 -0.934001088142395 -0.5735688805580139
2.699399948120117 -0.9158709049224854 -0.2896551191806793
2.695159435272217 -0.8977407813072205 -0.005741355940699577
2.6909189224243164 -0.8796106576919556 0.27817240357398987
2.686678409576416 -0.8614805340766907 0.5620861649513245
2.6824378967285156 -0.843350350856781 0.8459998965263367
2.6781973838806152 -0.8252202272415161 1.1299136877059937
2.673956871032715 -0.8070901036262512 1.4138274192810059
2.6697163581848145 -0.7889599800109863 1.697741150856018
2.665475845336914 -0.7708297967910767 1.9816548824310303
2.6612353324890137 -0.7526996731758118 2.265568733215332
2.6569948196411133 -0.7345695495605469 2.5494823455810547
2.652754306793213 -0.716439425945282 2.8333961963653564
2.8468308448791504 -0.6366685032844543 -1.445821762084961
2.84259033203125 -0.6185383796691895 -1.1619080305099487
2.8383498191833496 -0.6004081964492798 -0.8779942393302917
2.834109306335449 -0.5822780728340149 -0.5940805077552795
2.829868793487549 -0.56414794921875 -0.31016671657562256
2.8256280422210693 -0.5460178256034851 -0.026252973824739456
2.821387529373169 -0.5278877019882202 0.25766077637672424
2.8171470165252686 -0.5097575187683105 0.5415745377540588
2.812906503677368 -0.49162739515304565 0.825488269329071
2.8086659908294678 -0.47349727153778076 1.109402060508728
2.8044254779815674 -0.4553671181201935 1.3933157920837402
2.800184965133667 -0.4372369945049286 1.6772295236587524
2.7959444522857666 -0.4191068410873413 1.9611433744430542
2.791703939437866 -0.4009767174720764 2.2450571060180664
2.787463426589966 -0.38284656405448914 2.528970718383789
2.7832229137420654 -0.36471644043922424 2.812884569168091
2.9037160873413086 -0.265999972820282 -1.468642234802246
2.899475574493408 -0.2478698492050171 -1.1847285032272339
2.895235061645508 -0.229739710688591 -0.9008147120475769
2.8909945487976074 -0.21160957217216492 -0.6169009804725647
2.886754035949707 -0.19347943365573883 -0.3329872190952301
2.8825135231018066 -0.17534929513931274 -0.04907345026731491
2.8782730102539062 -0.15721915662288666 0.2348403036594391
2.874032497406006 -0.13908901810646057 0.5187540650367737
2.8697919845581055 -0.12095888704061508 0.8026677966117859
2.865551471710205 -0.102828748524189 1.0865815877914429
2.8613109588623047 -0.08469861000776291 1.370495319366455
2.8570704460144043 -0.06656847149133682 1.6544090509414673
2.852829933166504 -0.048438336700201035 1.938322901725769
2.8485894203186035 -0.030308198183774948 2.2222366333007812
2.844348907470703 -0.012178059667348862 2.506150245666504
2.8401083946228027 0.005952077452093363 2.7900640964508057
2.8846893310546875 0.10843884944915771 -1.4928373098373413
2.880448818206787 0.1265689879655838 -1.208923578262329
2.8762083053588867 0.1446991264820099 -0.9250097870826721
2.8719677925109863 0.16282926499843597 -0.6410960555076599
2.867727279663086 0.18095940351486206 -0.35718226432800293
2.8634867668151855 0.19908954203128815 -0.07326851785182953
2.859246253967285 0.21721968054771423 0.21064524352550507
2.8550055027008057 0.23534981906414032 0.49455899000167847
2.8507649898529053 0.2534799575805664 0.7784727811813354
2.846524477005005 0.2716100811958313 1.0623865127563477
2.8422839641571045 0.2897402346134186 1.3463002443313599
2.838043451309204 0.30787035822868347 1.630213975906372
2.8338029384613037 0.32600051164627075 1.9141278266906738
2.8295624256134033 0.34413063526153564 2.1980414390563965
2.825321912765503 0.3622607886791229 2.4819552898406982
2.8210813999176025 0.3803909122943878 2.765869140625
2.7905290126800537 0.47131845355033875 -1.5174163579940796
2.7862884998321533 0.48944857716560364 -1.2335026264190674
2.782047986984253 0.5075787305831909 -0.9495888948440552
2.7778074741363525 0.5257088541984558 -0.6656751036643982
2.773566961288452 0.5438389778137207 -0.381761372089386
2.7693264484405518 0.5619691610336304 -0.09784761816263199
2.7650859355926514 0.5800992846488953 0.186066135764122
2.760845422744751 0.5982294082641602 0.4699798822402954
2.7566049098968506 0.616359531879425 0.7538936734199524
2.75236439704895 0.6344896554946899 1.0378074645996094
2.74812388420105 0.6526198387145996 1.3217211961746216
2.7438833713531494 0.6707499623298645 1.6056349277496338
2.739642858505249 0.6888800859451294 1.889548659324646
2.7354023456573486 0.7070102095603943 2.173462390899658
2.7311618328094482 0.725140392780304 2.45737624168396
2.726921319961548 0.7432705163955688 2.7412898540496826
2.6250905990600586 0.8077824711799622 -1.5413732528686523
2.620850086212158 0.825912594795227 -1.2574595212936401
2.616609573364258 0.8440427184104919 -0.9735457301139832
2.6123690605163574 0.8621729016304016 -0.689631998538971
2.608128547668457 0.8803030252456665 -0.40571823716163635
2.6038880348205566 0.8984331488609314 -0.12180448323488235
2.5996475219726562 0.9165632724761963 0.16210927069187164
2.595407009124756 0.9346933960914612 0.44602301716804504
2.5911664962768555 0.9528235793113708 0.7299367785453796
2.586925983428955 0.9709537029266357 1.0138505697250366
2.5826854705810547 0.9890838265419006 1.2977643013000488
2.5784449577331543 1.0072139501571655 1.581678032875061
2.574204444885254 1.0253441333770752 1.8655917644500732
2.5699639320373535 1.0434741973876953 2.149505615234375
2.565723419189453 1.061604380607605 2.4334192276000977
2.5614826679229736 1.0797345638275146 2.7173330783843994
2.3951468467712402 1.1040560007095337 -1.5637271404266357
2.39090633392334 1.1221861839294434 -1.279813289642334
2.3866658210754395 1.1403162479400635 -0.9958996176719666
2.382425308227539 1.1584464311599731 -0.7119858264923096
2.3781847953796387 1.1765766143798828 -0.428072065114975
2.3739442825317383 1.194706678390503 -0.14415831863880157
2.369703769683838 1.2128368616104126 0.13975542783737183
2.3654632568359375 1.2309670448303223 0.4236691892147064
2.361222743988037 1.2490971088409424 0.707582950592041
2.3569819927215576 1.267227292060852 0.9914966821670532
2.3527414798736572 1.2853573560714722 1.2754104137420654
2.348500967025757 1.3034875392913818 1.5593242645263672
2.3442604541778564 1.3216177225112915 1.8432379961013794
2.340019941329956 1.3397477865219116 2.1271517276763916
2.3357794284820557 1.3578779697418213 2.4110655784606934
2.3315389156341553 1.3760080337524414 2.694979190826416
2.110111713409424 1.348009705543518 -1.5835627317428589
2.1058712005615234 1.3661397695541382 -1.2996490001678467
2.101630687713623 1.3842699527740479 -1.0157352685928345
2.0973901748657227 1.402400016784668 -0.7318214774131775
2.0931496620178223 1.4205302000045776 -0.4479077160358429
2.088909149169922 1.4386603832244873 -0.1639939546585083
2.0846683979034424 1.4567904472351074 0.1199197992682457
2.080427885055542 1.474920630455017 0.4038335680961609
2.0761873722076416 1.4930508136749268 0.6877472996711731
2.071946859359741 1.5111808776855469 0.9716610908508301
2.067706346511841 1.5293110609054565 1.2555748224258423
2.0634658336639404 1.5474411249160767 1.5394885540008545
2.05922532081604 1.5655713081359863 1.8234022855758667
2.0549848079681396 1.583701491355896 2.107316017150879
2.0507442951202393 1.6018315553665161 2.3912298679351807
2.046503782272339 1.6199617385864258 2.6751437187194824
1.7816544771194458 1.5296558141708374 -1.6000680923461914
1.7774139642715454 1.547785997390747 -1.3161543607711792
1.773173451423645 1.5659161806106567 -1.032240629196167
1.7689329385757446 1.5840462446212769 -0.74832683801651
1.7646924257278442 1.6021764278411865 -0.4644130766391754
1.7604519128799438 1.6203066110610962 -0.18049933016300201
1.7562114000320435 1.6384366750717163 0.10341443121433258
1.751970887184143 1.656566858291626 0.387328177690506
1.7477303743362427 1.674696922302246 0.6712419390678406
1.7434898614883423 1.6928271055221558 0.9551557302474976
1.739249348640442 1.7109572887420654 1.2390694618225098
1.735008716583252 1.7290873527526855 1.522983193397522
1.7307682037353516 1.7472175359725952 1.8068969249725342
1.7265276908874512 1.7653475999832153 2.090810775756836
1.7222871780395508 1.783477783203125 2.3747243881225586
1.7180466651916504 1.8016079664230347 2.6586382389068604
1.4232224225997925 1.641558051109314 -1.61256742477417
1.418981909751892 1.6596882343292236 -1.3286536931991577
1.4147413969039917 1.6778182983398438 -1.0447399616241455
1.4105008840560913 1.6959484815597534 -0.7608261704444885
1.406260371208191 1.7140785455703735 -0.4769124388694763
1.4020198583602905 1.7322087287902832 -0.19299867749214172
1.3977793455123901 1.7503389120101929 0.09091506898403168
1.3935388326644897 1.768468976020813 0.3748288154602051
1.3892983198165894 1.7865991592407227 0.6587426066398621
1.385057806968689 1.8047293424606323 0.9426563382148743
1.3808172941207886 1.8228594064712524 1.2265701293945312
1.3765767812728882 1.840989589691162 1.5104838609695435
1.3723361492156982 1.8591196537017822 1.7943975925445557
1.3680956363677979 1.877249836921692 2.0783114433288574
1.3638551235198975 1.8953800201416016 2.36222505569458
1.359614610671997 1.9135100841522217 2.646138906478882
1.0494897365570068 1.6791348457336426 -1.6205490827560425
1.0452492237091064 1.6972650289535522 -1.3366353511810303
1.041008710861206 1.715395212173462 -1.052721619606018
1.0367681980133057 1.733525276184082 -0.7688078284263611
1.0325276851654053 1.7516554594039917 -0.4848940670490265
1.0282871723175049 1.7697856426239014 -0.2009803205728531
1.0240466594696045 1.7879157066345215 0.0829334408044815
1.019806146621704 1.8060458898544312 0.3668471872806549
1.0155655145645142 1.8241759538650513 0.6507609486579895
1.0113250017166138 1.842306137084961 0.9346747398376465
1.0070844888687134 1.8604363203048706 1.2185884714126587
1.002843976020813 1.8785663843154907 1.502502202987671
0.9986034631729126 1.8966965675354004 1.786415934562683
0.9943629503250122 1.9148266315460205 2.0703296661376953
0.9901224374771118 1.9329568147659302 2.354243516921997
0.9858819246292114 1.9510869979858398 2.638157367706299
