ply
format ascii 1.0
element vertex 512
property float x
property float y
property float z
end_header
0.06751513481140137 -0.9654549956321716 0.9046640396118164
0.0694572851061821 -0.9654549956321716 0.7685791254043579
0.07139942795038223 -0.9654549956321716 0.6324941515922546
0.07334157824516296 -0.9654549956321716 0.49640920758247375
0.0752837285399437 -0.9654549956321716 0.36032429337501526
0.07722587883472443 -0.9654549956321716 0.22423933446407318
0.07916802167892456 -0.9654549956321716 0.0881543979048729
0.08111017197370529 -0.9654549956321716 -0.04793054237961769
0.08305232226848602 -0.9654549956321716 -0.18401548266410828
0.08499447256326675 -0.9654549956321716 -0.32010042667388916
0.08693661540746689 -0.9654549956321716 -0.45618537068367004
0.08887876570224762 -0.9654549956321716 -0.5922703146934509
0.09082091599702835 -0.9654549956321716 -0.7283552289009094
0.09276305884122849 -0.9654549956321716 -0.8644402027130127
0.09470520913600922 -0.9654549956321716 -1.0005251169204712
0.09664735943078995 -0.9654549956321716 -1.1366100311279297
-0.12817181646823883 -0.9455535411834717 0.9018712639808655
-0.1262296736240387 -0.9455535411834717 0.765786349773407
-0.12428752332925797 -0.9455535411834717 0.6297013759613037
-0.12234537303447723 -0.9455535411834717 0.4936164617538452
-0.1204032227396965 -0.9455535411834717 0.35753151774406433
-0.11846107989549637 -0.9455535411834717 0.22144657373428345
-0.11651892960071564 -0.9455535411834717 0.08536163717508316
-0.1145767793059349 -0.9455535411834717 -0.050723303109407425
-0.11263462901115417 -0.9455535411834717 -0.186808243393898
-0.11069248616695404 -0.9455535411834717 -0.3228931725025177
-0.10875033587217331 -0.9455535411834717 -0.4589781165122986
-0.10680818557739258 -0.9455535411834717 -0.5950630903244019
-0.10486603528261185 -0.9455535411834717 -0.7311480045318604
-0.10292389243841171 -0.9455535411834717 -0.8672329187393188
-0.10098174214363098 -0.9455535411834717 -1.0033178329467773
-0.09903959184885025 -0.9455535411834717 -1.1394028663635254
-0.31584733724594116 -0.8866639733314514 0.8991928696632385
-0.31390517950057983 -0.8866639733314514 0.7631078958511353
-0.3119630217552185 -0.8866639733314514 0.6270229816436768
-0.3100208640098572 -0.8866639733314514 0.4909380376338959
-0.30807873606681824 -0.8866639733314514 0.354853093624115
-0.3061365783214569 -0.8866639733314514 0.2187681496143341
-0.3041944205760956 -0.8866639733314514 0.08268320560455322
-0.30225229263305664 -0.8866639733314514 -0.053401730954647064
-0.3003101348876953 -0.8866639733314514 -0.18948666751384735
-0.298367977142334 -0.8866639733314514 -0.32557162642478943
-0.29642584919929504 -0.8866639733314514 -0.4616565406322479
-0.2944836914539337 -0.8866639733314514 -0.5977414846420288
-0.2925415337085724 -0.8866639733314514 -0.7338264584541321
-0.29059940576553345 -0.8866639733314514 -0.8699113726615906
-0.2886572480201721 -0.8866639733314514 -1.0059963464736938
-0.2867150902748108 -0.8866639733314514 -1.1420812606811523
-0.48782792687416077 -0.7911972403526306 0.8967384099960327
-0.48588576912879944 -0.7911972403526306 0.7606534957885742
-0.4839436411857605 -0.7911972403526306 0.624568521976471
-0.48200148344039917 -0.7911972403526306 0.48848357796669006
-0.48005932569503784 -0.7911972403526306 0.35239866375923157
-0.4781171977519989 -0.7911972403526306 0.2163137048482895
-0.4761750400066376 -0.7911972403526306 0.0802287682890892
-0.47423288226127625 -0.7911972403526306 -0.055856168270111084
-0.4722907245159149 -0.7911972403526306 -0.19194111227989197
-0.470348596572876 -0.7911972403526306 -0.32802605628967285
-0.46840643882751465 -0.7911972403526306 -0.46411100029945374
-0.4664642810821533 -0.7911972403526306 -0.6001959443092346
-0.4645221531391144 -0.7911972403526306 -0.7362808585166931
-0.46257999539375305 -0.7911972403526306 -0.8723658323287964
-0.4606378376483917 -0.7911972403526306 -1.0084507465362549
-0.4586957097053528 -0.7911972403526306 -1.1445356607437134
-0.637072741985321 -0.6630617380142212 0.8946084380149841
-0.6351305842399597 -0.6630617380142212 0.7585235238075256
-0.6331884264945984 -0.6630617380142212 0.6224385499954224
-0.6312462687492371 -0.6630617380142212 0.48635363578796387
-0.6293041110038757 -0.6630617380142212 0.350268691778183
-0.6273619532585144 -0.6630617380142212 0.2141837477684021
-0.6254198551177979 -0.6630617380142212 0.07809881120920181
-0.6234776973724365 -0.6630617380142212 -0.05798612907528877
-0.6215355396270752 -0.6630617380142212 -0.19407106935977936
-0.6195933818817139 -0.6630617380142212 -0.33015599846839905
-0.6176512241363525 -0.6630617380142212 -0.46624094247817993
-0.6157090663909912 -0.6630617380142212 -0.6023259162902832
-0.6137669086456299 -0.6630617380142212 -0.7384108304977417
-0.6118248105049133 -0.6630617380142212 -0.8744957447052002
-0.609882652759552 -0.6630617380142212 -1.0105806589126587
-0.6079404950141907 -0.6630617380142212 -1.1466656923294067
-0.7574716210365295 -0.5075033903121948 0.8928901553153992
-0.7555294632911682 -0.5075033903121948 0.7568052411079407
-0.7535873055458069 -0.5075033903121948 0.6207202672958374
-0.7516451478004456 -0.5075033903121948 0.4846353530883789
-0.7497029900550842 -0.5075033903121948 0.348550409078598
-0.7477608323097229 -0.5075033903121948 0.21246546506881714
-0.7458187341690063 -0.5075033903121948 0.07638052850961685
-0.743876576423645 -0.5075033903121948 -0.059704411774873734
-0.7419344186782837 -0.5075033903121948 -0.19578935205936432
-0.7399922609329224 -0.5075033903121948 -0.331874281167984
-0.738050103187561 -0.5075033903121948 -0.4679592251777649
-0.7361079454421997 -0.5075033903121948 -0.6040441989898682
-0.7341658473014832 -0.5075033903121948 -0.7401291131973267
-0.7322236895561218 -0.5075033903121948 -0.8762140274047852
-0.7302815318107605 -0.5075033903121948 -1.0122989416122437
-0.7283393740653992 -0.5075033903121948 -1.1483839750289917
-0.8440954089164734 -0.3308907151222229 0.8916538953781128
-0.8421532511711121 -0.3308907151222229 0.7555689811706543
-0.8402111530303955 -0.3308907151222229 0.619484007358551
-0.8382689952850342 -0.3308907151222229 0.48339909315109253
-0.8363268375396729 -0.3308907151222229 0.34731414914131165
-0.8343846797943115 -0.3308907151222229 0.21122920513153076
-0.8324425220489502 -0.3308907151222229 0.07514426857233047
-0.8305003643035889 -0.3308907151222229 -0.06094067171216011
-0.8285582661628723 -0.3308907151222229 -0.1970256119966507
-0.826616108417511 -0.3308907151222229 -0.3331105411052704
-0.8246739506721497 -0.3308907151222229 -0.46919548511505127
-0.8227317929267883 -0.3308907151222229 -0.6052804589271545
-0.820789635181427 -0.3308907151222229 -0.741365373134613
-0.8188474774360657 -0.3308907151222229 -0.8774502873420715
-0.8169053792953491 -0.3308907151222229 -1.0135352611541748
-0.8149632215499878 -0.3308907151222229 -1.1496201753616333
-0.8933978080749512 -0.14045429229736328 0.8909502625465393
-0.8914556503295898 -0.14045429229736328 0.7548653483390808
-0.8895134925842285 -0.14045429229736328 0.6187804341316223
-0.887571394443512 -0.14045429229736328 0.48269546031951904
-0.8856292366981506 -0.14045429229736328 0.34661051630973816
-0.8836870789527893 -0.14045429229736328 0.21052558720111847
-0.881744921207428 -0.14045429229736328 0.07444064319133759
-0.8798027634620667 -0.14045429229736328 -0.0616442933678627
-0.8778606057167053 -0.14045429229736328 -0.197729229927063
-0.875918447971344 -0.14045429229736328 -0.33381417393684387
-0.8739763498306274 -0.14045429229736328 -0.46989911794662476
-0.8720341920852661 -0.14045429229736328 -0.6059840321540833
-0.8700920343399048 -0.14045429229736328 -0.7420690059661865
-0.8681498765945435 -0.14045429229736328 -0.878153920173645
-0.8662077188491821 -0.14045429229736328 -1.0142388343811035
-0.8642655611038208 -0.14045429229736328 -1.1503238677978516
-0.9033603072166443 0.05600939691066742 0.89080810546875
-0.901418149471283 0.05600939691066742 0.7547231912612915
-0.8994759917259216 0.05600939691066742 0.6186382174491882
-0.8975338339805603 0.05600939691066742 0.48255327343940735
-0.8955917358398438 0.05600939691066742 0.34646835923194885
-0.8936495780944824 0.05600939691066742 0.21038340032100677
-0.8917074203491211 0.05600939691066742 0.07429846376180649
-0.8897652626037598 0.05600939691066742 -0.0617864765226841
-0.8878231048583984 0.05600939691066742 -0.19787141680717468
-0.8858809471130371 0.05600939691066742 -0.33395636081695557
-0.8839388489723206 0.05600939691066742 -0.47004130482673645
-0.8819966912269592 0.05600939691066742 -0.6061262488365173
-0.8800545334815979 0.05600939691066742 -0.7422111630439758
-0.8781123757362366 0.05600939691066742 -0.8782961368560791
-0.8761702179908752 0.05600939691066742 -1.0143810510635376
-0.8742280602455139 0.05600939691066742 -1.150465965270996
-0.8735750317573547 0.25045710802078247 0.8912332057952881
-0.8716328740119934 0.25045710802078247 0.7551482319831848
-0.8696907758712769 0.25045710802078247 0.6190633177757263
-0.8677486181259155 0.25045710802078247 0.48297837376594543
-0.8658064603805542 0.25045710802078247 0.34689342975616455
-0.8638643026351929 0.25045710802078247 0.21080848574638367
-0.8619221448898315 0.25045710802078247 0.07472354918718338
-0.8599799871444702 0.25045710802078247 -0.061361391097307205
-0.8580378890037537 0.25045710802078247 -0.1974463313817978
-0.8560957312583923 0.25045710802078247 -0.3335312604904175
-0.854153573513031 0.25045710802078247 -0.46961620450019836
-0.8522114157676697 0.25045710802078247 -0.6057011485099792
-0.8502692580223083 0.25045710802078247 -0.7417861223220825
-0.848327100276947 0.25045710802078247 -0.877871036529541
-0.8463849425315857 0.25045710802078247 -1.0139559507369995
-0.8444428443908691 0.25045710802078247 -1.150040864944458
-0.8052614331245422 0.4349280893802643 0.8922081589698792
-0.8033192753791809 0.4349280893802643 0.7561231851577759
-0.8013771772384644 0.4349280893802643 0.6200382709503174
-0.799435019493103 0.4349280893802643 0.4839532971382141
-0.7974928617477417 0.4349280893802643 0.3478683829307556
-0.7955507040023804 0.4349280893802643 0.21178342401981354
-0.793608546257019 0.4349280893802643 0.07569849491119385
-0.7916663885116577 0.4349280893802643 -0.060386449098587036
-0.7897242307662964 0.4349280893802643 -0.19647139310836792
-0.7877821326255798 0.4349280893802643 -0.3325563371181488
-0.7858399748802185 0.4349280893802643 -0.4686412811279297
-0.7838978171348572 0.4349280893802643 -0.6047261953353882
-0.7819556593894958 0.4349280893802643 -0.7408111691474915
-0.7800135016441345 0.4349280893802643 -0.87689608335495
-0.7780713438987732 0.4349280893802643 -1.0129810571670532
-0.7761292457580566 0.4349280893802643 -1.1490659713745117
-0.7012162804603577 0.6018701195716858 0.8936930298805237
-0.6992741227149963 0.6018701195716858 0.7576080560684204
-0.697331964969635 0.6018701195716858 0.6215231418609619
-0.6953898072242737 0.6018701195716858 0.48543819785118103
-0.6934476494789124 0.6018701195716858 0.34935325384140015
-0.6915055513381958 0.6018701195716858 0.21326832473278046
-0.6895633935928345 0.6018701195716858 0.07718338072299957
-0.6876212358474731 0.6018701195716858 -0.05890155956149101
-0.6856790781021118 0.6018701195716858 -0.194986492395401
-0.6837369203567505 0.6018701195716858 -0.3310714364051819
-0.6817947626113892 0.6018701195716858 -0.46715638041496277
-0.6798526644706726 0.6018701195716858 -0.6032413244247437
-0.6779105067253113 0.6018701195716858 -0.7393262386322021
-0.67596834897995 0.6018701195716858 -0.8754112124443054
-0.6740261912345886 0.6018701195716858 -1.0114961862564087
-0.6720840334892273 0.6018701195716858 -1.1475811004638672
-0.5656991600990295 0.7444486021995544 0.8956270813941956
-0.5637570023536682 0.7444486021995544 0.7595421075820923
-0.5618148446083069 0.7444486021995544 0.6234571933746338
-0.5598726868629456 0.7444486021995544 0.4873722493648529
-0.5579305291175842 0.7444486021995544 0.351287305355072
-0.5559883713722229 0.7444486021995544 0.21520236134529114
-0.5540462732315063 0.7444486021995544 0.07911742478609085
-0.552104115486145 0.7444486021995544 -0.056967515498399734
-0.5501619577407837 0.7444486021995544 -0.19305245578289032
-0.5482197999954224 0.7444486021995544 -0.32913738489151
-0.546277642250061 0.7444486021995544 -0.4652223289012909
-0.5443354845046997 0.7444486021995544 -0.6013072729110718
-0.5423933863639832 0.7444486021995544 -0.7373921871185303
-0.5404512286186218 0.7444486021995544 -0.8734771609306335
-0.5385090708732605 0.7444486021995544 -1.0095621347427368
-0.5365669131278992 0.7444486021995544 -1.1456470489501953
-0.404258131980896 0.8568263053894043 0.8979310989379883
-0.40231600403785706 0.8568263053894043 0.761846125125885
-0.4003738462924957 0.8568263053894043 0.6257612109184265
-0.3984316885471344 0.8568263053894043 0.48967626690864563
-0.39648956060409546 0.8568263053894043 0.35359132289886475
-0.39454740285873413 0.8568263053894043 0.21750637888908386
-0.3926052451133728 0.8568263053894043 0.08142144232988358
-0.3906630873680115 0.8568263053894043 -0.05466349422931671
-0.38872095942497253 0.8568263053894043 -0.1907484382390976
-0.3867788016796112 0.8568263053894043 -0.3268333673477173
-0.3848366439342499 0.8568263053894043 -0.46291831135749817
-0.38289451599121094 0.8568263053894043 -0.599003255367279
-0.3809523582458496 0.8568263053894043 -0.7350881695747375
-0.3790102005004883 0.8568263053894043 -0.8711731433868408
-0.37706807255744934 0.8568263053894043 -1.0072580575942993
-0.375125914812088 0.8568263053894043 -1.1433429718017578
-0.22350269556045532 0.9344024658203125 0.9005107283592224
-0.221560537815094 0.9344024658203125 0.7644258141517639
-0.21961839497089386 0.9344024658203125 0.6283408999443054
-0.21767623722553253 0.9344024658203125 0.49225592613220215
-0.2157340943813324 0.9344024658203125 0.35617098212242126
-0.21379195153713226 0.9344024658203125 0.22008605301380157
-0.21184979379177094 0.9344024658203125 0.08400110900402069
-0.2099076509475708 0.9344024658203125 -0.052083827555179596
-0.20796550810337067 0.9344024658203125 -0.18816876411437988
-0.20602335035800934 0.9344024658203125 -0.32425370812416077
-0.2040812075138092 0.9344024658203125 -0.46033865213394165
-0.20213906466960907 0.9344024658203125 -0.5964235663414001
-0.20019690692424774 0.9344024658203125 -0.7325085401535034
-0.1982547640800476 0.9344024658203125 -0.8685934543609619
-0.19631260633468628 0.9344024658203125 -1.0046783685684204
-0.19437046349048615 0.9344024658203125 -1.1407634019851685
-0.030832933261990547 0.9740011692047119 0.9032604694366455
-0.028890784829854965 0.9740011692047119 0.7671754956245422
-0.026948636397719383 0.9740011692047119 0.6310905814170837
-0.0250064879655838 0.9740011692047119 0.49500563740730286
-0.02306434139609337 0.9740011692047119 0.358920693397522
-0.021122192963957787 0.9740011692047119 0.2228357493877411
-0.019180044531822205 0.9740011692047119 0.0867508128285408
-0.017237896099686623 0.9740011692047119 -0.049334123730659485
-0.01529574766755104 0.9740011692047119 -0.18541906774044037
-0.013353599235415459 0.9740011692047119 -0.32150399684906006
-0.011411450803279877 0.9740011692047119 -0.45758894085884094
-0.009469302371144295 0.9740011692047119 -0.5936738848686218
-0.00752715440467 0.9740011692047119 -0.7297587990760803
-0.005585006438195705 0.9740011692047119 -0.8658437728881836
-0.0036428580060601234 0.9740011692047119 -1.001928687095642
-0.0017007098067551851 0.9740011692047119 -1.1380136013031006
0.16586320102214813 0.9740011692047119 0.9060676097869873
0.16780535876750946 0.9740011692047119 0.7699826955795288
0.1697475016117096 0.9740011692047119 0.6338977217674255
0.17168964445590973 0.9740011692047119 0.49781280755996704
0.17363180220127106 0.9740011692047119 0.36172786355018616
0.1755739450454712 0.9740011692047119 0.22564291954040527
0.17751608788967133 0.9740011692047119 0.08955798298120499
0.17945824563503265 0.9740011692047119 -0.0465269573032856
0.1814003884792328 0.9740011692047119 -0.18261189758777618
0.18334253132343292 0.9740011692047119 -0.3186968266963959
0.18528468906879425 0.9740011692047119 -0.45478177070617676
0.18722683191299438 0.9740011692047119 -0.59086674451828
0.18916897475719452 0.9740011692047119 -0.7269516587257385
0.19111113250255585 0.9740011692047119 -0.863036572933197
0.19305327534675598 0.9740011692047119 -0.9991215467453003
0.1949954330921173 0.9740011692047119 -1.1352064609527588
0.35853296518325806 0.9344024658203125 0.9088173508644104
0.360475093126297 0.9344024658203125 0.7727323770523071
0.3624172508716583 0.9344024658203125 0.6366474628448486
0.36435940861701965 0.9344024658203125 0.5005624890327454
0.3663015365600586 0.9344024658203125 0.36447757482528687
0.3682436943054199 0.9344024658203125 0.22839263081550598
0.37018585205078125 0.9344024658203125 0.0923076868057251
0.3721280097961426 0.9344024658203125 -0.04377725347876549
0.3740701377391815 0.9344024658203125 -0.17986220121383667
0.37601229548454285 0.9344024658203125 -0.31594714522361755
0.3779544532299042 0.9344024658203125 -0.45203205943107605
0.3798965811729431 0.9344024658203125 -0.5881170034408569
0.38183873891830444 0.9344024658203125 -0.7242019772529602
0.38378089666366577 0.9344024658203125 -0.8602868914604187
0.3857230246067047 0.9344024658203125 -0.9963718056678772
0.38766518235206604 0.9344024658203125 -1.1324567794799805
0.5392884016036987 0.8568263053894043 0.9113969802856445
0.5412305593490601 0.8568263053894043 0.775312066078186
0.5431727170944214 0.8568263053894043 0.6392270922660828
0.5451148748397827 0.8568263053894043 0.5031421780586243
0.5470569729804993 0.8568263053894043 0.3670572340488434
0.5489991307258606 0.8568263053894043 0.2309722900390625
0.5509412884712219 0.8568263053894043 0.09488735347986221
0.5528834462165833 0.8568263053894043 -0.04119758680462837
0.5548256039619446 0.8568263053894043 -0.17728252708911896
0.5567677617073059 0.8568263053894043 -0.31336745619773865
0.5587099194526672 0.8568263053894043 -0.44945240020751953
0.5606520175933838 0.8568263053894043 -0.5855373740196228
0.5625941753387451 0.8568263053894043 -0.7216222882270813
0.5645363330841064 0.8568263053894043 -0.8577072024345398
0.5664784908294678 0.8568263053894043 -0.9937921762466431
0.5684206485748291 0.8568263053894043 -1.1298770904541016
0.7007294297218323 0.7444486021995544 0.9137009978294373
0.7026715278625488 0.7444486021995544 0.7776160836219788
0.7046136856079102 0.7444486021995544 0.6415311098098755
0.7065558433532715 0.7444486021995544 0.505446195602417
0.7084980010986328 0.7444486021995544 0.3693612515926361
0.7104401588439941 0.7444486021995544 0.23327630758285522
0.7123823165893555 0.7444486021995544 0.09719137102365494
0.7143244743347168 0.7444486021995544 -0.03889356553554535
0.7162665724754333 0.7444486021995544 -0.17497850954532623
0.7182087302207947 0.7444486021995544 -0.3110634386539459
0.720150887966156 0.7444486021995544 -0.4471483826637268
0.7220930457115173 0.7444486021995544 -0.5832333564758301
0.7240352034568787 0.7444486021995544 -0.7193182706832886
0.72597736120224 0.7444486021995544 -0.8554031848907471
0.7279194593429565 0.7444486021995544 -0.9914881587028503
0.7298616170883179 0.7444486021995544 -1.1275731325149536
0.8362465500831604 0.6018701195716858 0.9156350493431091
0.8381887078285217 0.6018701195716858 0.7795501351356506
0.8401308059692383 0.6018701195716858 0.6434651613235474
0.8420729637145996 0.6018701195716858 0.5073802471160889
0.8440151214599609 0.6018701195716858 0.371295303106308
0.8459572792053223 0.6018701195716858 0.2352103590965271
0.8478994369506836 0.6018701195716858 0.09912541508674622
0.8498415946960449 0.6018701195716858 -0.03695952147245407
0.8517837524414062 0.6018701195716858 -0.17304445803165436
0.8537258505821228 0.6018701195716858 -0.30912941694259644
0.8556680083274841 0.6018701195716858 -0.44521433115005493
0.8576101660728455 0.6018701195716858 -0.5812993049621582
0.8595523238182068 0.6018701195716858 -0.7173842191696167
0.8614944815635681 0.6018701195716858 -0.8534691333770752
0.8634366393089294 0.6018701195716858 -0.9895541071891785
0.865378737449646 0.6018701195716858 -1.1256390810012817
0.940291702747345 0.4349280893802643 0.9171199202537537
0.9422338604927063 0.4349280893802643 0.7810350060462952
0.9441760182380676 0.4349280893802643 0.6449500918388367
0.946118175983429 0.4349280893802643 0.5088651180267334
0.9480603337287903 0.4349280893802643 0.3727801740169525
0.9500024318695068 0.4349280893802643 0.23669524490833282
0.9519445896148682 0.4349280893802643 0.10061030834913254
0.9538867473602295 0.4349280893802643 -0.03547463193535805
0.9558289051055908 0.4349280893802643 -0.17155957221984863
0.9577710628509521 0.4349280893802643 -0.3076445162296295
0.9597132205963135 0.4349280893802643 -0.4437294602394104
0.96165531873703 0.4349280893802643 -0.5798143744468689
0.9635974764823914 0.4349280893802643 -0.7158993482589722
0.9655396342277527 0.4349280893802643 -0.8519842624664307
0.967481791973114 0.4349280893802643 -0.9880692362785339
0.9694239497184753 0.4349280893802643 -1.1241542100906372
1.0086053609848022 0.25045710802078247 0.9180948734283447
1.0105475187301636 0.25045710802078247 0.7820099592208862
1.0124895572662354 0.25045710802078247 0.645924985408783
1.0144317150115967 0.25045710802078247 0.5098400712013245
1.016373872756958 0.25045710802078247 0.3737551271915436
1.0183160305023193 0.25045710802078247 0.2376701980829239
1.0202581882476807 0.25045710802078247 0.101585254073143
1.022200345993042 0.25045710802078247 -0.03449968993663788
1.0241425037384033 0.25045710802078247 -0.17058463394641876
1.0260846614837646 0.25045710802078247 -0.30666956305503845
1.028026819229126 0.25045710802078247 -0.44275450706481934
1.0299689769744873 0.25045710802078247 -0.5788394212722778
1.0319111347198486 0.25045710802078247 -0.7149243950843811
1.03385329246521 0.25045710802078247 -0.8510093092918396
1.0357954502105713 0.25045710802078247 -0.9870942831039429
1.037737488746643 0.25045710802078247 -1.1231791973114014
1.0383905172348022 0.05600939691066742 0.9185199737548828
1.0403326749801636 0.05600939691066742 0.7824350595474243
1.042274832725525 0.05600939691066742 0.646350085735321
1.0442169904708862 0.05600939691066742 0.5102651715278625
1.0461591482162476 0.05600939691066742 0.37418022751808167
1.0481013059616089 0.05600939691066742 0.2380952686071396
1.0500434637069702 0.05600939691066742 0.1020103320479393
1.0519856214523315 0.05600939691066742 -0.034074604511260986
1.0539277791976929 0.05600939691066742 -0.17015954852104187
1.0558699369430542 0.05600939691066742 -0.30624449253082275
1.0578120946884155 0.05600939691066742 -0.44232943654060364
1.0597542524337769 0.05600939691066742 -0.5784143805503845
1.0616964101791382 0.05600939691066742 -0.714499294757843
1.06363844871521 0.05600939691066742 -0.8505842685699463
1.0655806064605713 0.05600939691066742 -0.9866691827774048
1.0675227642059326 0.05600939691066742 -1.1227540969848633
1.028428077697754 -0.14045429229736328 0.9183778166770935
1.0303702354431152 -0.14045429229736328 0.7822928428649902
1.0323123931884766 -0.14045429229736328 0.6462079286575317
1.034254550933838 -0.14045429229736328 0.5101229548454285
1.0361967086791992 -0.14045429229736328 0.37403804063796997
1.0381388664245605 -0.14045429229736328 0.2379530966281891
1.0400810241699219 -0.14045429229736328 0.1018681526184082
1.0420230627059937 -0.14045429229736328 -0.03421678766608238
1.043965220451355 -0.14045429229736328 -0.17030172049999237
1.0459073781967163 -0.14045429229736328 -0.30638667941093445
1.0478495359420776 -0.14045429229736328 -0.44247159361839294
1.049791693687439 -0.14045429229736328 -0.5785565376281738
1.0517338514328003 -0.14045429229736328 -0.7146415114402771
1.0536760091781616 -0.14045429229736328 -0.8507264256477356
1.055618166923523 -0.14045429229736328 -0.9868113398551941
1.0575603246688843 -0.14045429229736328 -1.1228963136672974
0.9791256785392761 -0.3308907151222229 0.91767418384552
0.9810678362846375 -0.3308907151222229 0.7815892100334167
0.9830099940299988 -0.3308907151222229 0.6455042958259583
0.9849521517753601 -0.3308907151222229 0.509419322013855
0.9868943095207214 -0.3308907151222229 0.3733344078063965
0.988836407661438 -0.3308907151222229 0.2372494637966156
0.9907785654067993 -0.3308907151222229 0.10116452723741531
0.9927207231521606 -0.3308907151222229 -0.03492040932178497
0.994662880897522 -0.3308907151222229 -0.17100535333156586
0.9966050386428833 -0.3308907151222229 -0.30709028244018555
0.9985471963882446 -0.3308907151222229 -0.44317522644996643
1.000489354133606 -0.3308907151222229 -0.5792601704597473
1.0024315118789673 -0.3308907151222229 -0.7153450846672058
1.0043736696243286 -0.3308907151222229 -0.8514300584793091
1.00631582736969 -0.3308907151222229 -0.9875149726867676
1.0082578659057617 -0.3308907151222229 -1.123599886894226
0.8925018906593323 -0.5075033903121948 0.9164379239082336
0.8944439888000488 -0.5075033903121948 0.7803529500961304
0.8963861465454102 -0.5075033903121948 0.6442680358886719
0.8983283042907715 -0.5075033903121948 0.5081830620765686
0.9002704620361328 -0.5075033903121948 0.3720981478691101
0.9022126197814941 -0.5075033903121948 0.23601320385932922
0.9041547775268555 -0.5075033903121948 0.09992826730012894
0.906096875667572 -0.5075033903121948 -0.03615666925907135
0.9080390334129333 -0.5075033903121948 -0.17224161326885223
0.9099811911582947 -0.5075033903121948 -0.3083265423774719
0.911923348903656 -0.5075033903121948 -0.4444114863872528
0.9138655066490173 -0.5075033903121948 -0.5804964303970337
0.9158076643943787 -0.5075033903121948 -0.7165813446044922
0.91774982213974 -0.5075033903121948 -0.8526663184165955
0.9196919202804565 -0.5075033903121948 -0.988751232624054
0.9216340780258179 -0.5075033903121948 -1.1248362064361572
0.7721030116081238 -0.6630617380142212 0.9147196412086487
0.7740451097488403 -0.6630617380142212 0.7786346673965454
0.7759872674942017 -0.6630617380142212 0.6425497531890869
0.777929425239563 -0.6630617380142212 0.5064647793769836
0.7798715829849243 -0.6630617380142212 0.37037986516952515
0.7818137407302856 -0.6630617380142212 0.23429492115974426
0.783755898475647 -0.6630617380142212 0.09820998460054398
0.7856979966163635 -0.6630617380142212 -0.03787495195865631
0.7876401543617249 -0.6630617380142212 -0.1739598959684372
0.7895823121070862 -0.6630617380142212 -0.3100448250770569
0.7915244698524475 -0.6630617380142212 -0.44612976908683777
0.7934666275978088 -0.6630617380142212 -0.5822147130966187
0.7954087853431702 -0.6630617380142212 -0.7182996273040771
0.7973508834838867 -0.6630617380142212 -0.8543846011161804
0.799293041229248 -0.6630617380142212 -0.9904695153236389
0.8012351989746094 -0.6630617380142212 -1.1265544891357422
0.6228581666946411 -0.7911972403526306 0.9125896692276001
0.6248003244400024 -0.7911972403526306 0.7765047550201416
0.6267424821853638 -0.7911972403526306 0.6404197812080383
0.6286846399307251 -0.7911972403526306 0.5043348670005798
0.6306267976760864 -0.7911972403526306 0.36824989318847656
0.6325689554214478 -0.7911972403526306 0.23216496407985687
0.6345111131668091 -0.7911972403526306 0.09608002752065659
0.6364532113075256 -0.7911972403526306 -0.040004912763834
0.638395369052887 -0.7911972403526306 -0.17608985304832458
0.6403375267982483 -0.7911972403526306 -0.31217479705810547
0.6422796845436096 -0.7911972403526306 -0.44825974106788635
0.644221842288971 -0.7911972403526306 -0.5843446850776672
0.6461640000343323 -0.7911972403526306 -0.7204295992851257
0.6481060981750488 -0.7911972403526306 -0.856514573097229
0.6500482559204102 -0.7911972403526306 -0.9925994873046875
0.6519904136657715 -0.7911972403526306 -1.128684401512146
0.4508776068687439 -0.8866639733314514 0.9101352095603943
0.45281973481178284 -0.8866639733314514 0.7740502953529358
0.45476189255714417 -0.8866639733314514 0.6379653215408325
0.4567040503025055 -0.8866639733314514 0.501880407333374
0.45864617824554443 -0.8866639733314514 0.36579546332359314
0.46058833599090576 -0.8866639733314514 0.22971053421497345
0.4625304937362671 -0.8866639733314514 0.09362559020519257
0.46447262167930603 -0.8866639733314514 -0.04245935007929802
0.46641477942466736 -0.8866639733314514 -0.178544282913208
0.4683569371700287 -0.8866639733314514 -0.3146292269229889
0.4702990651130676 -0.8866639733314514 -0.4507141709327698
0.47224122285842896 -0.8866639733314514 -0.5867990851402283
0.4741833806037903 -0.8866639733314514 -0.7228840589523315
0.4761255085468292 -0.8866639733314514 -0.85896897315979
0.47806766629219055 -0.8866639733314514 -0.9950539469718933
0.4800098240375519 -0.8866639733314514 -1.1311389207839966
0.26320210099220276 -0.9455535411834717 0.9074568152427673
0.2651442289352417 -0.9455535411834717 0.7713718414306641
0.267086386680603 -0.9455535411834717 0.6352869272232056
0.26902854442596436 -0.9455535411834717 0.4992019832134247
0.2709706723690033 -0.9455535411834717 0.3631170392036438
0.2729128301143646 -0.9455535411834717 0.2270321100950241
0.27485498785972595 -0.9455535411834717 0.09094716608524323
0.2767971158027649 -0.9455535411834717 -0.04513777792453766
0.2787392735481262 -0.9455535411834717 -0.18122272193431854
0.28068143129348755 -0.9455535411834717 -0.31730765104293823
0.2826235592365265 -0.9455535411834717 -0.4533925950527191
0.2845657169818878 -0.9455535411834717 -0.5894775390625
0.28650787472724915 -0.9455535411834717 -0.7255624532699585
0.2884500026702881 -0.9455535411834717 -0.8616474270820618
0.2903921604156494 -0.9455535411834717 -0.9977323412895203
0.29233431816101074 -0.9455535411834717 -1.1338173151016235
0.06751513481140137 -0.9654549956321716 0.9046640396118164
0.0694572851061821 -0.9654549956321716 0.7685791254043579
0.07139942795038223 -0.9654549956321716 0.6324941515922546
0.07334157824516296 -0.9654549956321716 0.49640920758247375
0.0752837285399437 -0.9654549956321716 0.36032429337501526
0.07722587883472443 -0.9654549956321716 0.22423933446407318
0.07916802167892456 -0.9654549956321716 0.0881543979048729
0.08111017197370529 -0.9654549956321716 -0.04793054237961769
0.08305232226848602 -0.9654549956321716 -0.18401548266410828
0.08499447256326675 -0.9654549956321716 -0.32010042667388916
0.08693661540746689 -0.9654549956321716 -0.45618537068367004
0.08887876570224762 -0.9654549956321716 -0.5922703146934509
0.09082091599702835 -0.9654549956321716 -0.7283552289009094
0.09276305884122849 -0.9654549956321716 -0.8644402027130127
0.09470520913600922 -0.9654549956321716 -1.0005251169204712
0.09664735943078995 -0.9654549956321716 -1.1366100311279297
