ply
format ascii 1.0
element vertex 1600
property float x
property float y
property float z
end_header
0.4445837736129761 -0.3523566424846649 0.8442259430885315
0.2912513315677643 -0.27604979276657104 0.8929468393325806
0.13859064877033234 -0.20941415429115295 0.929287850856781
-0.008766577579081059 -0.1544557362794876 0.9517979621887207
-0.14668026566505432 -0.11233434826135635 0.9599364995956421
-0.271940141916275 -0.08326538652181625 0.9540888667106628
-0.3825303614139557 -0.06657236814498901 0.9354361295700073
-0.47768867015838623 -0.06086025387048721 0.9057244658470154
-0.5577865839004517 -0.06425292044878006 0.8669964075088501
-0.6240978837013245 -0.07463522255420685 0.8213409185409546
-0.678525984287262 -0.08985507488250732 0.7706999182701111
-0.7233537435531616 -0.10786324739456177 0.716743528842926
-0.76104736328125 -0.12678761780261993 0.6608075499534607
-0.7941330075263977 -0.14495079219341278 0.6038782000541687
-0.8247203230857849 -0.16110968589782715 0.5464984774589539
-0.8532081842422485 -0.17515595257282257 0.488587349653244
-0.8795241713523865 -0.18721239268779755 0.429970383644104
-0.9035462141036987 -0.1973608285188675 0.37051162123680115
-0.9251046776771545 -0.20564864575862885 0.31011059880256653
-0.9439855217933655 -0.21209397912025452 0.24870197474956512
-0.9599295854568481 -0.21668945252895355 0.18625593185424805
-0.9726341962814331 -0.21940572559833527 0.1227792501449585
-0.981753945350647 -0.220194011926651 0.05831868574023247
-0.9869014024734497 -0.21898889541625977 -0.007036356255412102
-0.9876492619514465 -0.21571095287799835 -0.07314886897802353
-0.9835329055786133 -0.21026945114135742 -0.1398308426141739
-0.9740543961524963 -0.20256544649600983 -0.20683807134628296
-0.9587761163711548 -0.19266799092292786 -0.2739013135433197
-0.9376094341278076 -0.18135541677474976 -0.34079810976982117
-0.9106040596961975 -0.16963596642017365 -0.407183438539505
-0.8779016733169556 -0.15858112275600433 -0.4725431799888611
-0.83977210521698 -0.14931418001651764 -0.5361984372138977
-0.7966461777687073 -0.1429838389158249 -0.5973213911056519
-0.7491397857666016 -0.14072242379188538 -0.6549655199050903
-0.6980647444725037 -0.14359056949615479 -0.7081114053726196
-0.6444212198257446 -0.1525125354528427 -0.7557275891304016
-0.5893690586090088 -0.16820938885211945 -0.7968437075614929
-0.5341768264770508 -0.1911391019821167 -0.8306255340576172
-0.48015540838241577 -0.22145353257656097 -0.8564471006393433
-0.4285784959793091 -0.258979856967926 -0.873945415019989
0.4005454182624817 -0.42259758710861206 0.8298801183700562
0.2560364305973053 -0.3876692056655884 0.872005820274353
0.11415110528469086 -0.35758331418037415 0.9001344442367554
-0.021819664165377617 -0.33294054865837097 0.9135963916778564
-0.14899535477161407 -0.3140237033367157 0.9125019311904907
-0.26514339447021484 -0.3007802963256836 0.8977059721946716
-0.368825763463974 -0.2928454875946045 0.8706861138343811
-0.45943936705589294 -0.28959712386131287 0.833362340927124
-0.537161111831665 -0.29022935032844543 0.7878950834274292
-0.6028271317481995 -0.2938295304775238 0.7364975810050964
-0.6577774882316589 -0.2994453012943268 0.6812843680381775
-0.7037003636360168 -0.3061356246471405 0.6241693496704102
-0.742498517036438 -0.3130013048648834 0.5668113231658936
-0.7761895060539246 -0.3191958963871002 0.5106000900268555
-0.8065270781517029 -0.3240368366241455 0.4564267098903656
-0.8339884281158447 -0.3273271322250366 0.40406277775764465
-0.8586931228637695 -0.3289758265018463 0.35306161642074585
-0.8807233572006226 -0.32887837290763855 0.3030188977718353
-0.9001295566558838 -0.32691794633865356 0.25356557965278625
-0.9169337749481201 -0.32296550273895264 0.2043617218732834
-0.9311331510543823 -0.3168812394142151 0.1550927460193634
-0.9427037239074707 -0.3085155487060547 0.1054653525352478
-0.9516017436981201 -0.29771003127098083 0.055206298828125
-0.9577677845954895 -0.28429916501045227 0.0040605273097753525
-0.9611280560493469 -0.2681123912334442 -0.04820869490504265
-0.9615981578826904 -0.2489759474992752 -0.10182026028633118
-0.9590855836868286 -0.22671575844287872 -0.156973734498024
-0.9533854722976685 -0.20139840245246887 -0.21380111575126648
-0.9438621997833252 -0.17406406998634338 -0.27220550179481506
-0.9297767281532288 -0.1460476964712143 -0.33196425437927246
-0.9104108810424805 -0.11874540895223618 -0.3927654027938843
-0.885089635848999 -0.09360483288764954 -0.45420458912849426
-0.8532087206840515 -0.07210513204336166 -0.5157854557037354
-0.814264714717865 -0.05572569742798805 -0.5769245624542236
-0.7678874731063843 -0.045905109494924545 -0.6369630694389343
-0.7138709425926208 -0.0439915806055069 -0.6951833367347717
-0.6521989107131958 -0.05118807032704353 -0.7508327960968018
-0.5830654501914978 -0.06849667429924011 -0.8031531572341919
-0.5068822503089905 -0.09666689485311508 -0.8514124751091003
-0.424275279045105 -0.13615378737449646 -0.894939661026001
0.36168113350868225 -0.48688822984695435 0.8094554543495178
0.22432713210582733 -0.4859094023704529 0.8397807478904724
0.09102415293455124 -0.484853059053421 0.8558199405670166
-0.03596850484609604 -0.48368510603904724 0.8575840592384338
-0.15470586717128754 -0.4823683500289917 0.8456823825836182
-0.26367947459220886 -0.48086419701576233 0.8212753534317017
-0.36189454793930054 -0.47913315892219543 0.7859809994697571
-0.44889703392982483 -0.4771358370780945 0.7417498826980591
-0.5247525572776794 -0.47483253479003906 0.6907299160957336
-0.589989960193634 -0.4721832573413849 0.635136604309082
-0.6455199122428894 -0.4691464900970459 0.5771454572677612
-0.6925475597381592 -0.4656778573989868 0.5188131332397461
-0.7324876189231873 -0.46172764897346497 0.46203112602233887
-0.7668947577476501 -0.4572391211986542 0.4085107445716858
-0.79718017578125 -0.45211121439933777 0.3594300448894501
-0.8238652944564819 -0.4461017847061157 0.31442567706108093
-0.847226619720459 -0.43893468379974365 0.2727859616279602
-0.8675233125686646 -0.4303334355354309 0.2338225245475769
-0.885001540184021 -0.42002052068710327 0.1968657374382019
-0.8998952507972717 -0.4077169895172119 0.16126014292240143
-0.9124301671981812 -0.3931424617767334 0.12636171281337738
-0.922824501991272 -0.3760151267051697 0.09153445810079575
-0.9312909841537476 -0.35605207085609436 0.05614904686808586
-0.9380391240119934 -0.33297041058540344 0.019581280648708344
-0.9432752728462219 -0.30648791790008545 -0.018788281828165054
-0.9472047686576843 -0.27632439136505127 -0.05957477167248726
-0.950032114982605 -0.24220332503318787 -0.10338816791772842
-0.9516979455947876 -0.20416489243507385 -0.15070489048957825
-0.9510872960090637 -0.1635086089372635 -0.20147830247879028
-0.9468201994895935 -0.12187261134386063 -0.2555048167705536
-0.9375228881835938 -0.08092248439788818 -0.31254521012306213
-0.9218394756317139 -0.04234471172094345 -0.37232130765914917
-0.8984465599060059 -0.007835759781301022 -0.4345134496688843
-0.8660717010498047 0.020913811400532722 -0.4987594485282898
-0.8235143423080444 0.042239587754011154 -0.5646545886993408
-0.7696700096130371 0.05452737957239151 -0.6317534446716309
-0.7035542130470276 0.056240860372781754 -0.6995733380317688
-0.624327540397644 0.04595112055540085 -0.7676001787185669
-0.5313193202018738 0.02236752398312092 -0.8352944254875183
-0.4240491986274719 -0.01563205197453499 -0.9021009802818298
0.3277214467525482 -0.5455694794654846 0.7836695909500122
0.19612938165664673 -0.5719035863876343 0.7979089021682739
0.06960605084896088 -0.5932735800743103 0.7987629175186157
-0.05038443207740784 -0.6095246076583862 0.786751925945282
-0.16259531676769257 -0.6206603646278381 0.7628148794174194
-0.26605483889579773 -0.6268443465232849 0.7282727956771851
-0.3601054549217224 -0.6283891797065735 0.6847680807113647
-0.44442129135131836 -0.6257392764091492 0.6341901421546936
-0.5190051198005676 -0.619446337223053 0.578594446182251
-0.584166407585144 -0.6101418733596802 0.5201219320297241
-0.6404872536659241 -0.5985100269317627 0.46092846989631653
-0.688778281211853 -0.5852615833282471 0.40312880277633667
-0.7300340533256531 -0.5711137056350708 0.348757803440094
-0.7653882503509521 -0.5567742586135864 0.2997514009475708
-0.7959251999855042 -0.5427447557449341 0.2574911117553711
-0.8221785426139832 -0.528761625289917 0.22147619724273682
-0.8445448279380798 -0.5143705010414124 0.19073040783405304
-0.8634296655654907 -0.49911585450172424 0.1642649918794632
-0.8792452216148376 -0.4825427830219269 0.1410820037126541
-0.8924094438552856 -0.4641977548599243 0.12017743289470673
-0.9033445119857788 -0.4436300992965698 0.10054429620504379
-0.9124754071235657 -0.42039233446121216 0.08117496222257614
-0.9202283620834351 -0.39404118061065674 0.06106407195329666
-0.9270305037498474 -0.3641384243965149 0.039210546761751175
-0.933307945728302 -0.33025139570236206 0.014619739726185799
-0.9394852519035339 -0.291952908039093 -0.013695036061108112
-0.9459848403930664 -0.24882236123085022 -0.04671092703938484
-0.9528416991233826 -0.20083683729171753 -0.08519060909748077
-0.9585587382316589 -0.14953872561454773 -0.12907467782497406
-0.961270809173584 -0.09684664011001587 -0.17809931933879852
-0.9591327905654907 -0.04465951770544052 -0.2320021539926529
-0.9503201246261597 0.005145760253071785 -0.2905232608318329
-0.9330304861068726 0.05071568489074707 -0.35340616106987
-0.9054833054542542 0.09022104740142822 -0.4203988313674927
-0.8659193515777588 0.121857188642025 -0.4912544786930084
-0.8126002550125122 0.14384347200393677 -0.5657321810722351
-0.7438058853149414 0.15442241728305817 -0.643597424030304
-0.6578333973884583 0.1518581062555313 -0.7246230840682983
-0.5529935359954834 0.13443414866924286 -0.8085891604423523
-0.42760810256004333 0.10045100003480911 -0.8952836990356445
0.29839998483657837 -0.5989809632301331 0.7532281279563904
0.17146582901477814 -0.6467018723487854 0.7479480504989624
0.050291508436203 -0.6847052574157715 0.7312260270118713
-0.06427200138568878 -0.7130424380302429 0.7038911581039429
-0.1715000718832016 -0.731978714466095 0.6670443415641785
-0.2708192467689514 -0.7419943809509277 0.622039794921875
-0.36182621121406555 -0.7437761425971985 0.5704558491706848
-0.4443000555038452 -0.7382014989852905 0.5140587687492371
-0.5182066559791565 -0.7263172268867493 0.4547620415687561
-0.5836966633796692 -0.7093125581741333 0.3945827782154083
-0.641096293926239 -0.6884898543357849 0.3355995714664459
-0.6908930540084839 -0.6652346253395081 0.2799135744571686
-0.7337179183959961 -0.6409880518913269 0.22961610555648804
-0.7703242301940918 -0.6172211766242981 0.18676331639289856
-0.8014842867851257 -0.5950659513473511 0.15284182131290436
-0.8277141451835632 -0.5742526650428772 0.12720079720020294
-0.849493145942688 -0.55414217710495 0.10859860479831696
-0.867338240146637 -0.5340796709060669 0.0957345962524414
-0.8817955851554871 -0.5134007930755615 0.08726458251476288
-0.8934345245361328 -0.49143722653388977 0.08181587606668472
-0.9028403162956238 -0.46752119064331055 0.0780005007982254
-0.9106087684631348 -0.44098958373069763 0.07442709058523178
-0.9173403382301331 -0.41118669509887695 0.06971085071563721
-0.9236358404159546 -0.37746661901474 0.062481630593538284
-0.9300926923751831 -0.3391938805580139 0.05138994753360748
-0.9373022317886353 -0.2957437038421631 0.03511093184351921
-0.9458474516868591 -0.2465013563632965 0.01234658807516098
-0.9558321833610535 -0.191336989402771 -0.01789877936244011
-0.9654905200004578 -0.1320105940103531 -0.055507007986307144
-0.9726255536079407 -0.0707002803683281 -0.10010020434856415
-0.9750819802284241 -0.009517201222479343 -0.15132731199264526
-0.9707391858100891 0.04949313402175903 -0.2088720053434372
-0.9574999213218689 0.10434389114379883 -0.2724592685699463
-0.9332732558250427 0.15309593081474304 -0.34186118841171265
-0.8959529399871826 0.19384227693080902 -0.4169026017189026
-0.8433924317359924 0.2246885597705841 -0.49746638536453247
-0.77337247133255 0.24372904002666473 -0.5834986567497253
-0.6835640072822571 0.24901819229125977 -0.6750146150588989
-0.5714854001998901 0.2385375052690506 -0.7721052169799805
-0.434449166059494 0.21015605330467224 -0.8749448657035828
0.27345457673072815 -0.6474603414535522 0.7188247442245483
0.15037555992603302 -0.7112820148468018 0.6913895606994629
0.03347703441977501 -0.7608469724655151 0.6553454399108887
-0.07685992121696472 -0.7966058254241943 0.6116287112236023
-0.1803002506494522 -0.8192081451416016 0.5613476037979126
-0.27656474709510803 -0.8295121788978577 0.5057808756828308
-0.3654397130012512 -0.8285889625549316 0.44637295603752136
-0.44678565859794617 -0.8177211880683899 0.3847225606441498
-0.5205453634262085 -0.7983995079994202 0.3225688636302948
-0.5867499113082886 -0.7723100185394287 0.26177147030830383
-0.6455238461494446 -0.7413179278373718 0.20428676903247833
-0.6970873475074768 -0.7074458599090576 0.15214015543460846
-0.7417563796043396 -0.672845721244812 0.10739535093307495
-0.7799407839775085 -0.6397679448127747 0.07212179899215698
-0.8121170997619629 -0.6100097894668579 0.047805506736040115
-0.838756263256073 -0.5833065509796143 0.033628229051828384
-0.8603841662406921 -0.5588247179985046 0.02808520756661892
-0.8775927424430847 -0.5356842875480652 0.029561709612607956
-0.8910273909568787 -0.5129733085632324 0.036363281309604645
-0.9013737440109253 -0.48976030945777893 0.04674513638019562
-0.9093455672264099 -0.4651060402393341 0.058938220143318176
-0.9156737923622131 -0.43807321786880493 0.07117283344268799
-0.9210968613624573 -0.40773382782936096 0.08169730007648468
-0.9263522028923035 -0.37317442893981934 0.08879309892654419
-0.9321699142456055 -0.3334992229938507 0.09078499674797058
-0.9392678141593933 -0.28783032298088074 0.08604715764522552
-0.9483494758605957 -0.23530659079551697 0.0730048269033432
-0.9595788717269897 -0.17564445734024048 0.05047342926263809
-0.9710375070571899 -0.1107897236943245 0.01865655556321144
-0.9803410768508911 -0.04315930977463722 -0.021924154832959175
-0.9851650595664978 0.02493547648191452 -0.07079049199819565
-0.9832333326339722 0.091285340487957 -0.12752218544483185
-0.9722970128059387 0.15377061069011688 -0.19176873564720154
-0.9501075148582458 0.21034248173236847 -0.26326048374176025
-0.9143807888031006 0.2589972913265228 -0.3418186902999878
-0.8627527356147766 0.29774409532546997 -0.4273657500743866
-0.7927278876304626 0.32456597685813904 -0.5199366807937622
-0.70161372423172 0.3373733460903168 -0.619691789150238
-0.5864441394805908 0.33394819498062134 -0.7269328832626343
-0.44388261437416077 0.31187668442726135 -0.842123806476593
0.2526276409626007 -0.6913420557975769 0.6811421513557434
0.132913738489151 -0.7665582299232483 0.6296727061271667
0.019564680755138397 -0.8232606053352356 0.5731582641601562
-0.08739282190799713 -0.8623972535133362 0.512458860874176
-0.18791042268276215 -0.8850587606430054 0.4485563039779663
-0.28192293643951416 -0.892504870891571 0.3825646936893463
-0.369354248046875 -0.8861894011497498 0.31573808193206787
-0.45012444257736206 -0.8677826523780823 0.24947422742843628
-0.5241575837135315 -0.8391897678375244 0.18531376123428345
-0.5913915634155273 -0.8025627732276917 0.12493245303630829
-0.6517881155014038 -0.7603035569190979 0.07012645900249481
-0.7053437232971191 -0.7150560617446899 0.02278861775994301
-0.7521015405654907 -0.669685423374176 -0.015124861150979996
-0.7921615242958069 -0.6272425651550293 -0.04163676127791405
-0.8257215619087219 -0.5902218222618103 -0.05536682531237602
-0.8531852960586548 -0.5583755970001221 -0.05731787160038948
-0.8750917315483093 -0.5306673645973206 -0.049249399453401566
-0.8920727968215942 -0.5059692859649658 -0.033080194145441055
-0.9048368334770203 -0.4830855131149292 -0.010843050666153431
-0.9141501188278198 -0.4607760012149811 0.015359659679234028
-0.9208199381828308 -0.43777790665626526 0.04339585453271866
-0.9256779551506042 -0.4128229022026062 0.07113930583000183
-0.9295669198036194 -0.38465237617492676 0.0964977964758873
-0.9333277940750122 -0.35202744603157043 0.11743472516536713
-0.9377915859222412 -0.313735693693161 0.1319831758737564
-0.9437723755836487 -0.2685927748680115 0.13825321197509766
-0.952064573764801 -0.21544116735458374 0.1344321072101593
-0.9628925323486328 -0.15379692614078522 0.11917928606271744
-0.9742967486381531 -0.08575444668531418 0.09279174357652664
-0.9838358759880066 -0.01394649688154459 0.05594247579574585
-0.9891377687454224 0.05912451818585396 0.009252521209418774
-0.9878858327865601 0.1310824155807495 -0.04672830551862717
-0.9777956008911133 0.19966313242912292 -0.11153752356767654
-0.9565820097923279 0.26269224286079407 -0.18481415510177612
-0.9219183921813965 0.31805458664894104 -0.26631200313568115
-0.8713855147361755 0.36365577578544617 -0.35591286420822144
-0.8024101853370667 0.3973767161369324 -0.4536410868167877
-0.7121890187263489 0.4170176684856415 -0.5596807599067688
-0.5975968837738037 0.42023205757141113 -0.6743974089622498
-0.4550709128379822 0.4044448435306549 -0.7983660697937012
0.23566651344299316 -0.7309578657150269 0.6408525705337524
0.11915163695812225 -0.81339031457901 0.5641951560974121
0.008965281769633293 -0.8733916878700256 0.486625075340271
-0.09512359648942947 -0.9124413728713989 0.408770889043808
-0.1932704746723175 -0.9320837259292603 0.33137986063957214
-0.28555959463119507 -0.9339783787727356 0.2553299069404602
-0.3720092475414276 -0.919952392578125 0.18164131045341492
-0.4525774121284485 -0.8920468688011169 0.11148354411125183
-0.5271684527397156 -0.8525637984275818 0.04617822542786598
-0.5956422686576843 -0.8041021227836609 -0.012806185521185398
-0.6578256487846375 -0.749584972858429 -0.0638686940073967
-0.7135255336761475 -0.6922690272331238 -0.10530174523591995
-0.7625470757484436 -0.6357333064079285 -0.13533124327659607
-0.8047124743461609 -0.5838409066200256 -0.15217068791389465
-0.8399590253829956 -0.5398024320602417 -0.15464314818382263
-0.868607223033905 -0.5033970475196838 -0.14394891262054443
-0.8911806344985962 -0.47338271141052246 -0.12208592891693115
-0.9083197712898254 -0.44836825132369995 -0.0912545844912529
-0.9207618236541748 -0.42684921622276306 -0.05379856750369072
-0.9293196201324463 -0.40724313259124756 -0.012146621942520142
-0.9348592758178711 -0.38792261481285095 0.031240031123161316
-0.938280463218689 -0.36724376678466797 0.07391438633203506
-0.9404979944229126 -0.3435700833797455 0.11348021030426025
-0.9424275755882263 -0.31528928875923157 0.14761948585510254
-0.9449734687805176 -0.2808249592781067 0.1741093099117279
-0.9490213394165039 -0.23864059150218964 0.19082966446876526
-0.9554332494735718 -0.18723848462104797 0.19576191902160645
-0.9644972681999207 -0.12589125335216522 0.18743090331554413
-0.9743126034736633 -0.05679951608181 0.1662188172340393
-0.982494056224823 0.017216123640537262 0.13293901085853577
-0.9867253303527832 0.09347333014011383 0.08835269510746002
-0.9847464561462402 0.16942577064037323 0.03314674645662308
-0.9743311405181885 0.24265003204345703 -0.03208385035395622
-0.9532570242881775 0.3108237385749817 -0.10685183107852936
-0.9192659854888916 0.37169569730758667 -0.1907915472984314
-0.8700169920921326 0.4230475127696991 -0.2836723327636719
-0.8030275702476501 0.462647944688797 -0.3854130506515503
-0.7156034111976624 0.4881972670555115 -0.49609872698783875
-0.6047524213790894 0.4972613751888275 -0.6160009503364563
-0.46707722544670105 0.487190842628479 -0.7456045150756836
0.22232435643672943 -0.7666359543800354 0.5986201167106628
0.10917705297470093 -0.852590799331665 0.49632641673088074
0.0021019873674958944 -0.9125880599021912 0.3976520299911499
-0.09930604696273804 -0.9486289620399475 0.3028755486011505
-0.19533616304397583 -0.962696373462677 0.21242755651474
-0.2861676514148712 -0.9568333625793457 0.1268969029188156
-0.3718751072883606 -0.9332227110862732 0.04703667387366295
-0.45243266224861145 -0.894260048866272 -0.026233673095703125
-0.5277189016342163 -0.8426271677017212 -0.09182993322610855
-0.5975229740142822 -0.7813538312911987 -0.1485133320093155
-0.6615546941757202 -0.7138680219650269 -0.19491052627563477
-0.7194571495056152 -0.6440241932868958 -0.22954720258712769
-0.7708262801170349 -0.5761018991470337 -0.2508978843688965
-0.815234899520874 -0.5147666335105896 -0.25745266675949097
-0.8523786664009094 -0.46394050121307373 -0.2483207881450653
-0.8824864625930786 -0.4234362840652466 -0.2249060869216919
-0.9060448408126831 -0.3918091058731079 -0.18942075967788696
-0.9236769080162048 -0.3674018979072571 -0.14431321620941162
-0.9361199736595154 -0.3483917713165283 -0.09219798445701599
-0.9442015290260315 -0.3328380882740021 -0.03578601032495499
-0.9488155245780945 -0.3187280297279358 0.0221780426800251
-0.9508980512619019 -0.304016649723053 0.07897191494703293
-0.9514079689979553 -0.28666067123413086 0.13193845748901367
-0.951308012008667 -0.2646436095237732 0.17851771414279938
-0.9515519142150879 -0.23599259555339813 0.2162659913301468
-0.9530742764472961 -0.1987857073545456 0.24286335706710815
-0.9567860960960388 -0.15115173161029816 0.2561098337173462
-0.9630420207977295 -0.09208299219608307 0.2544079124927521
-0.9700819253921509 -0.02384003810584545 0.23820391297340393
-0.9756706953048706 0.050603386014699936 0.20842677354812622
-0.9776346683502197 0.12840278446674347 0.16596068441867828
-0.973850667476654 0.20684370398521423 0.11162341386079788
-0.962229311466217 0.2833321690559387 0.046149253845214844
-0.9406920075416565 0.35537755489349365 -0.029825717210769653
-0.9071400165557861 0.42056694626808167 -0.11577638238668442
-0.859417200088501 0.47653284668922424 -0.21129992604255676
-0.7952655553817749 0.5209134817123413 -0.3161272406578064
-0.7122710347175598 0.5513057112693787 -0.43013516068458557
-0.6077990531921387 0.5652084350585938 -0.5533608794212341
-0.478915810585022 0.5599551200866699 -0.6860194206237793
0.21235975623130798 -0.798701286315918 0.555101752281189
0.1030944287776947 -0.8849319219589233 0.42741644382476807
-0.0005867741419933736 -0.9421153664588928 0.30810976028442383
-0.09918782114982605 -0.9727373719215393 0.19702789187431335
-0.19306975603103638 -0.9791870713233948 0.09423017501831055
-0.28245845437049866 -0.963864266872406 -1.9031378542422317e-05
-0.36744922399520874 -0.9292842149734497 -0.08525710552930832
-0.4480099678039551 -0.8781780004501343 -0.1608312577009201
-0.5239822268486023 -0.8135871887207031 -0.22591055929660797
-0.5950852632522583 -0.7389517426490784 -0.27950602769851685
-0.6609212160110474 -0.6581792831420898 -0.3205007016658783
-0.7209867835044861 -0.5756924152374268 -0.3476940989494324
-0.7746905088424683 -0.4964366555213928 -0.35986366868019104
-0.8213794231414795 -0.4258400499820709 -0.3558436930179596
-0.860526442527771 -0.3685034513473511 -0.3350915312767029
-0.892266035079956 -0.3242731988430023 -0.2992120385169983
-0.9170355796813965 -0.2915118634700775 -0.250601202249527
-0.9354220032691956 -0.26830583810806274 -0.19191431999206543
-0.9481396675109863 -0.25252199172973633 -0.1259884089231491
-0.956005871295929 -0.2418672740459442 -0.0557645708322525
-0.9599147439002991 -0.23394545912742615 0.01578168384730816
-0.9608131051063538 -0.2263089418411255 0.08570291846990585
-0.9596768617630005 -0.21650221943855286 0.15112659335136414
-0.9574922323226929 -0.20209486782550812 0.20929086208343506
-0.9552399516105652 -0.18070441484451294 0.25756385922431946
-0.9538847208023071 -0.15000717341899872 0.2934514880180359
-0.9543686509132385 -0.10773910582065582 0.31459107995033264
-0.9571136236190796 -0.052584413439035416 0.3192676901817322
-0.9605610966682434 0.013184654526412487 0.30796316266059875
-0.9626999497413635 0.08648283779621124 0.28168803453445435
-0.9615667462348938 0.16433006525039673 0.24142251908779144
-0.9552406668663025 0.2438553124666214 0.1880984902381897
-0.9418340921401978 0.3222924470901489 0.1225859522819519
-0.9194780588150024 0.3969697058200836 0.04568086564540863
-0.8863040208816528 0.4652935564517975 -0.04190431162714958
-0.8404217958450317 0.524726152420044 -0.1395486742258072
-0.7798925042152405 0.5727583765983582 -0.24673008918762207
-0.7026963829994202 0.6068766117095947 -0.36303162574768066
-0.6066970229148865 0.6245243549346924 -0.4881485402584076
-0.48959675431251526 0.623056948184967 -0.621894896030426
0.20553721487522125 -0.827475368976593 0.5109496712684631
0.1010255366563797 -0.9111518859863281 0.3588077425956726
0.0013561546802520752 -0.963171660900116 0.2198513299226761
-0.09400376677513123 -0.9864503741264343 0.0934498980641365
-0.1854303777217865 -0.9837399125099182 -0.020737482234835625
-0.2731509506702423 -0.9577628374099731 -0.12278971076011658
-0.3572472929954529 -0.9113392233848572 -0.2125469446182251
-0.43765610456466675 -0.8475098609924316 -0.2896334230899811
-0.5141673684120178 -0.7696511149406433 -0.3534829318523407
-0.5864237546920776 -0.6815823316574097 -0.40337151288986206
-0.6539223790168762 -0.5876533389091492 -0.4384602904319763
-0.7160215973854065 -0.4928062856197357 -0.45785194635391235
-0.7719568610191345 -0.4025926887989044 -0.4606640040874481
-0.8208668828010559 -0.32313328981399536 -0.44611915946006775
-0.8620175123214722 -0.2596440017223358 -0.41405948996543884
-0.8954523205757141 -0.21199946105480194 -0.3662795126438141
-0.92155522108078 -0.1783858984708786 -0.30532440543174744
-0.9408668875694275 -0.15665504336357117 -0.23401181399822235
-0.9540641903877258 -0.14438886940479279 -0.15534989535808563
-0.9619359374046326 -0.13896824419498444 -0.07245603948831558
-0.9653567671775818 -0.13763928413391113 0.011517047882080078
-0.9652621746063232 -0.13757465779781342 0.09344680607318878
-0.9626245498657227 -0.13592512905597687 0.17028984427452087
-0.958433210849762 -0.12986044585704803 0.23911960422992706
-0.9536776542663574 -0.1165967658162117 0.29714566469192505
-0.9493353366851807 -0.09341169893741608 0.34172117710113525
-0.9463644623756409 -0.05764615163207054 0.37033504247665405
-0.9452506899833679 -0.0076613095588982105 0.3811550736427307
-0.9446770548820496 0.05430665239691734 0.3746672570705414
-0.9429055452346802 0.12510861456394196 0.35192644596099854
-0.9382327198982239 0.20166487991809845 0.3139766454696655
-0.9289895296096802 0.2809711694717407 0.2618403136730194
-0.9135384559631348 0.3601001799106598 0.19651097059249878
-0.890270471572876 0.4362000524997711 0.11894607543945312
-0.8575988411903381 0.5064899325370789 0.03006146103143692
-0.8139514923095703 0.56825190782547 -0.06927303969860077
-0.7577627897262573 0.6188210248947144 -0.17823709547519684
-0.6874629855155945 0.6555727124214172 -0.29606232047080994
-0.6014667749404907 0.6759069561958313 -0.4220340847969055
-0.4981590509414673 0.6772311329841614 -0.5554928779602051
0.20162706077098846 -0.8532770872116089 0.4668140113353729
0.10311022400856018 -0.931961178779602 0.29184409976005554
0.008410148322582245 -0.9769002795219421 0.13472920656204224
-0.08296864479780197 -0.9913747310638428 -0.0056483326479792595
-0.1713634431362152 -0.9784482717514038 -0.1300344616174698
-0.25695934891700745 -0.9411252737045288 -0.2388530820608139
-0.33978980779647827 -0.8824969530105591 -0.33224809169769287
-0.41973385214805603 -0.8058804869651794 -0.4101223647594452
-0.4965105354785919 -0.7149525284767151 -0.4721781611442566
-0.5696735382080078 -0.6138691902160645 -0.5179633498191833
-0.6386088728904724 -0.5073694586753845 -0.5469271540641785
-0.7025371193885803 -0.4008472263813019 -0.5584888458251953
-0.7605260610580444 -0.3003768026828766 -0.5521222352981567
-0.8115147352218628 -0.21267229318618774 -0.5274542570114136
-0.8545722365379333 -0.1434752196073532 -0.4847199022769928
-0.8896597027778625 -0.09267958998680115 -0.4258837103843689
-0.9171107411384583 -0.05831735208630562 -0.3536052405834198
-0.9374187588691711 -0.03803837671875954 -0.270820677280426
-0.9512171745300293 -0.029179975390434265 -0.18066076934337616
-0.959256649017334 -0.028841814026236534 -0.08636823296546936
-0.9623804092407227 -0.03395846486091614 0.008776274509727955
-0.9614992737770081 -0.041367724537849426 0.10152047127485275
-0.957567572593689 -0.047868307679891586 0.18869008123874664
-0.9515633583068848 -0.050266217440366745 0.26722636818885803
-0.9444708228111267 -0.04540672153234482 0.3342055380344391
-0.9372673034667969 -0.030192429199814796 0.3868459165096283
-0.930915355682373 -0.0015868055634200573 0.42249834537506104
-0.9259588122367859 0.042371075600385666 0.439212441444397
-0.9213389754295349 0.09952542930841446 0.43744921684265137
-0.9156161546707153 0.1667146235704422 0.41827207803726196
-0.9073742032051086 0.2408037632703781 0.3827558755874634
-0.8952255249023438 0.31869107484817505 0.3319876492023468
-0.8778144717216492 0.3973143696784973 0.26706716418266296
-0.853821873664856 0.47365933656692505 0.18910656869411469
-0.8219704627990723 0.5447686314582825 0.09922967851161957
-0.781029224395752 0.6077514886856079 -0.0014292498817667365
-0.7298197746276855 0.6597946286201477 -0.11172744631767273
-0.6672208905220032 0.6981732249259949 -0.23051607608795166
-0.5921741724014282 0.7202620506286621 -0.3566429913043976
-0.5036895275115967 0.7235481142997742 -0.4889563024044037
0.2004053145647049 -0.8764228820800781 0.42334574460983276
0.10950721800327301 -0.9480470418930054 0.22788147628307343
0.021080100908875465 -0.9844009280204773 0.05461163818836212
-0.06527035683393478 -0.9890562891960144 -0.09804791212081909
-0.1497902274131775 -0.9653311967849731 -0.23123031854629517
-0.23257899284362793 -0.9164633750915527 -0.34568941593170166
-0.3135862350463867 -0.845772385597229 -0.4418604075908661
-0.3926038444042206 -0.7568098902702332 -0.5199149250984192
-0.4692561626434326 -0.653505265712738 -0.5798158645629883
-0.5429900288581848 -0.5402960181236267 -0.6213764548301697
-0.6130667924880981 -0.4222407937049866 -0.6443279385566711
-0.6785608530044556 -0.30510005354881287 -0.6483994126319885
-0.73836749792099 -0.1953665167093277 -0.6334108710289001
-0.7912251949310303 -0.10022671520709991 -0.5993786454200745
-0.8360089063644409 -0.025838011875748634 -0.5469091534614563
-0.8726090788841248 0.027895474806427956 -0.47811159491539
-0.901319146156311 0.06306695938110352 -0.3957267701625824
-0.9225917458534241 0.08218657970428467 -0.3027714192867279
-0.9370198845863342 0.08810944110155106 -0.2024567872285843
-0.9453166127204895 0.0839584693312645 -0.09810864180326462
-0.9482909440994263 0.07304807007312775 0.006905137095600367
-0.9468240737915039 0.05881281569600105 0.10923982411623001
-0.9418467283248901 0.04474540427327156 0.20562221109867096
-0.9343188405036926 0.03434733301401138 0.2928878962993622
-0.9252124428749084 0.031093480065464973 0.3679995834827423
-0.9154982566833496 0.03841155394911766 0.4280543923377991
-0.9061365723609924 0.05967717990279198 0.4702740013599396
-0.8977236151695251 0.09715379774570465 0.4925888478755951
-0.8894529342651367 0.14880423247814178 0.49541252851486206
-0.8801811337471008 0.21150672435760498 0.4797879755496979
-0.8687834143638611 0.28212225437164307 0.44679322838783264
-0.8541594743728638 0.3574988543987274 0.39755475521087646
-0.8352425694465637 0.4344818592071533 0.3332590162754059
-0.8110098242759705 0.5099314451217651 0.25516000390052795
-0.780493438243866 0.5807455778121948 0.16458383202552795
-0.7427942156791687 0.6438891291618347 0.06292922794818878
-0.6970946788787842 0.6964268088340759 -0.04833570495247841
-0.6426728367805481 0.7355598211288452 -0.16768062114715576
-0.5789147019386292 0.7586643099784851 -0.29352378845214844
-0.5053263306617737 0.7633311152458191 -0.42424651980400085
0.20165355503559113 -0.8972276449203491 0.38120037317276
0.12039549648761749 -0.9600796699523926 0.1682979166507721
0.039900436997413635 -0.9867408871650696 -0.018601054325699806
-0.04006224498152733 -0.9809951782226562 -0.18150019645690918
-0.1195954754948616 -0.9463489651679993 -0.32188063859939575
-0.19866962730884552 -0.8862173557281494 -0.4407936632633209
-0.27711281180381775 -0.8040933012962341 -0.5389378070831299
-0.35459792613983154 -0.7037087082862854 -0.6167288422584534
-0.43062683939933777 -0.5891846418380737 -0.6743662357330322
-0.5045151710510254 -0.46516963839530945 -0.7119042873382568
-0.5753793716430664 -0.33695828914642334 -0.7293296456336975
-0.6421299576759338 -0.21057599782943726 -0.7266494035720825
-0.7034749984741211 -0.092814601957798 -0.7039906978607178
-0.7579395771026611 0.008803830482065678 -0.6617118716239929
-0.8041984438896179 0.08782681077718735 -0.600739598274231
-0.8420841097831726 0.1443462073802948 -0.5232977867126465
-0.8718662858009338 0.180543914437294 -0.4321818947792053
-0.8939706683158875 0.1990397721529007 -0.3304591178894043
-0.9089622497558594 0.20282059907913208 -0.22139030694961548
-0.9175254106521606 0.19516293704509735 -0.10835354775190353
-0.9204426407814026 0.17955677211284637 0.005224793218076229
-0.9185711145401001 0.15963321924209595 0.11593355238437653
-0.9128220677375793 0.13910186290740967 0.2204228937625885
-0.9041399955749512 0.12169891595840454 0.31544026732444763
-0.893487274646759 0.11115080863237381 0.3978491425514221
-0.8818294405937195 0.111151322722435 0.46463528275489807
-0.8701269626617432 0.12535548210144043 0.5128976702690125
-0.8590236306190491 0.15629002451896667 0.540448784828186
-0.8479375839233398 0.20206621289253235 0.5476422905921936
-0.8359923362731934 0.25965359807014465 0.5354835391044617
-0.8223285675048828 0.32596415281295776 0.5050349235534668
-0.8061109781265259 0.3978534936904907 0.4574434161186218
-0.7865399718284607 0.47213250398635864 0.3939640522003174
-0.762863039970398 0.545592725276947 0.315976083278656
-0.7343904376029968 0.6150426268577576 0.22499267756938934
-0.7005101442337036 0.6773539781570435 0.12266182154417038
-0.6607040166854858 0.7295171618461609 0.010758946649730206
-0.6145620346069336 0.7687014937400818 -0.10882940143346786
-0.561795711517334 0.7923182249069214 -0.23413032293319702
-0.5022475123405457 0.7980819344520569 -0.3631167709827423
0.20517976582050323 -0.9159137606620789 0.3410337567329407
0.13585831224918365 -0.9686291217803955 0.11431241035461426
0.06520337611436844 -0.9848591089248657 -0.08329480141401291
-0.006791055202484131 -0.9685161113739014 -0.2541421353816986
-0.08003384619951248 -0.9232233166694641 -0.4000019133090973
-0.1543225646018982 -0.8525072932243347 -0.522174596786499
-0.22932609915733337 -0.7599721550941467 -0.621579647064209
-0.30456453561782837 -0.64946448802948 -0.6988368034362793
-0.3793870508670807 -0.5252262949943542 -0.7543433904647827
-0.4529503881931305 -0.3920362591743469 -0.788352906703949
-0.5242004990577698 -0.25533080101013184 -0.80106121301651
-0.5918600559234619 -0.12129133939743042 -0.792699933052063
-0.654427707195282 0.0031168265268206596 -0.7636412382125854
-0.7101939916610718 0.11017795652151108 -0.7145110964775085
-0.7576201558113098 0.19326801598072052 -0.6464836001396179
-0.7964938282966614 0.25247544050216675 -0.5618664026260376
-0.8270814418792725 0.29002878069877625 -0.4634898006916046
-0.8498011231422424 0.3086031973361969 -0.354450523853302
-0.8652079105377197 0.311252236366272 -0.23803964257240295
-0.8739747405052185 0.30133336782455444 -0.11766878515481949
-0.8768728375434875 0.282434344291687 0.0031946657691150904
-0.8747499585151672 0.25830182433128357 0.12108790129423141
-0.8685104250907898 0.23277956247329712 0.23259687423706055
-0.8590956330299377 0.20975705981254578 0.334391713142395
-0.8474688529968262 0.19313175976276398 0.42324429750442505
-0.8346014022827148 0.18678545951843262 0.4960358142852783
-0.8214631676673889 0.19457615911960602 0.5497475862503052
-0.8087450861930847 0.21923764050006866 0.5820782780647278
-0.7960452437400818 0.25905075669288635 0.5933205485343933
-0.7827010750770569 0.31112340092658997 0.5844383835792542
-0.7680673599243164 0.3724740445613861 0.5564717650413513
-0.7515243291854858 0.44002875685691833 0.510578453540802
-0.7324870824813843 0.5106330513954163 0.4480683505535126
-0.7104192972183228 0.5810825228691101 0.3704289197921753
-0.6848465800285339 0.6481693983078003 0.27933821082115173
-0.6553714871406555 0.7087435126304626 0.17666567862033844
-0.6216873526573181 0.7597850561141968 0.06445834040641785
-0.5835910439491272 0.7984851598739624 -0.05508746951818466
-0.5409914255142212 0.8223264217376709 -0.17966768145561218
-0.49391481280326843 0.8291604518890381 -0.3069235682487488
0.210881307721138 -0.9323289394378662 0.3034951984882355
0.1555265188217163 -0.973903477191925 0.06642483174800873
0.096406489610672 -0.9792580008506775 -0.1391255110502243
0.0337926410138607 -0.9523537755012512 -0.3157806396484375
-0.03198499605059624 -0.8968639373779297 -0.4655395448207855
-0.1005127876996994 -0.8163658380508423 -0.589897871017456
-0.17126671969890594 -0.7145174741744995 -0.6899500489234924
-0.24358412623405457 -0.5952203273773193 -0.7664783596992493
-0.31663450598716736 -0.46277332305908203 -0.820037305355072
-0.3893917500972748 -0.32201287150382996 -0.8510396480560303
-0.4606090486049652 -0.17843236029148102 -0.8598452210426331
-0.5288015007972717 -0.0382712259888649 -0.8468596339225769
-0.5922407507896423 0.09144600480794907 -0.8126412034034729
-0.6489671468734741 0.20293845236301422 -0.7580136060714722
-0.6972189545631409 0.289523720741272 -0.6843296885490417
-0.7367528676986694 0.3512890636920929 -0.5939539670944214
-0.7678505778312683 0.390472948551178 -0.48973459005355835
-0.7909404635429382 0.4097580909729004 -0.3747814893722534
-0.806584894657135 0.4122084081172943 -0.25239911675453186
-0.8154618144035339 0.4011984169483185 -0.126017227768898
-0.8183467984199524 0.38034364581108093 0.0008695815340615809
-0.8160924315452576 0.3534330725669861 0.12475962936878204
-0.8096096515655518 0.3243691325187683 0.24218593537807465
-0.7998494505882263 0.2971179187297821 0.3497503101825714
-0.7877880334854126 0.2756712734699249 0.444141685962677
-0.7744134068489075 0.26402226090431213 0.5221437215805054
-0.7607174515724182 0.2661557197570801 0.5806269645690918
-0.7474378347396851 0.2849528193473816 0.6171833872795105
-0.734311580657959 0.31887561082839966 0.6320503950119019
-0.7208374738693237 0.36520618200302124 0.626154899597168
-0.7065324187278748 0.42111536860466003 0.6005162000656128
-0.6909376978874207 0.48365452885627747 0.5563000440597534
-0.6736279726028442 0.5497674942016602 0.49486345052719116
-0.6542218923568726 0.6163238286972046 0.41778692603111267
-0.6323940753936768 0.6801716685295105 0.32689133286476135
-0.6078875064849854 0.7382093071937561 0.2242365926504135
-0.5805240273475647 0.7874709367752075 0.1121004968881607
-0.5502134561538696 0.8252192735671997 -0.00706237880513072
-0.5169586539268494 0.849040150642395 -0.13067972660064697
-0.4808558523654938 0.8569273352622986 -0.256134957075119
0.21867777407169342 -0.9462098479270935 0.26926755905151367
0.17891336977481842 -0.9760103821754456 0.02499823272228241
0.13269618153572083 -0.9703248143196106 -0.18601389229297638
0.08061577379703522 -0.9330929517745972 -0.36657705903053284
0.02327597327530384 -0.8679786920547485 -0.5188480615615845
-0.03866766020655632 -0.7785596251487732 -0.6444626450538635
-0.10447096824645996 -0.6684984564781189 -0.7446435689926147
-0.17326438426971436 -0.5417029857635498 -0.820296049118042
-0.24401627480983734 -0.40247565507888794 -0.8720954656600952
-0.31549835205078125 -0.25564903020858765 -0.9005767703056335
-0.386255145072937 -0.10670311748981476 -0.906226396560669
-0.4545808434486389 0.03814895451068878 -0.8895812630653381
-0.518509566783905 0.1719209849834442 -0.8513357639312744
-0.5758242607116699 0.28687986731529236 -0.7924537062644958
-0.6245389580726624 0.37638482451438904 -0.7144081592559814
-0.664392352104187 0.4405260980129242 -0.6195968389511108
-0.6956964135169983 0.48152264952659607 -0.5108715891838074
-0.7189056873321533 0.5020269155502319 -0.3913409113883972
-0.7346040606498718 0.5050663352012634 -0.26430773735046387
-0.743488609790802 0.4939795434474945 -0.1332060694694519
-0.7463520169258118 0.4723511040210724 -0.0015439173439517617
-0.7440639138221741 0.443949431180954 0.1271504908800125
-0.7375534176826477 0.41267022490501404 0.24936847388744354
-0.727791965007782 0.38248810172080994 0.3616541624069214
-0.7157789468765259 0.35742029547691345 0.46062278747558594
-0.702530026435852 0.3415014445781708 0.5429694056510925
-0.6890676617622375 0.33877184987068176 0.6054636836051941
-0.6761788129806519 0.35220247507095337 0.6456001996994019
-0.6637030839920044 0.3804389536380768 0.6635719537734985
-0.6512556672096252 0.42096224427223206 0.6602790951728821
-0.6384684443473816 0.47112858295440674 0.6367286443710327
-0.6249939203262329 0.5281584858894348 0.5940976738929749
-0.6105126142501831 0.5891469120979309 0.533787190914154
-0.5947408676147461 0.6510972380638123 0.45745959877967834
-0.5774401426315308 0.7109779119491577 0.36705732345581055
-0.5584266781806946 0.7657989263534546 0.26479917764663696
-0.5375791788101196 0.8127043843269348 0.1531512588262558
-0.5148448944091797 0.8490732312202454 0.03477364778518677
-0.49024248123168945 0.8726184368133545 -0.0875549167394638
-0.4638610780239105 0.8814758658409119 -0.21102845668792725
0.2284863293170929 -0.9572737216949463 0.23907576501369476
0.20552197098731995 -0.9750479459762573 -0.009554910473525524
0.17324936389923096 -0.9584431648254395 -0.22382059693336487
0.13260099291801453 -0.9113183617591858 -0.4066219627857208
0.08447738736867905 -0.8372799754142761 -0.5602026581764221
0.02979726530611515 -0.7398638129234314 -0.6862821578979492
-0.030455531552433968 -0.6226988434791565 -0.7861665487289429
-0.0951867625117302 -0.4896595776081085 -0.8608454465866089
-0.16314786672592163 -0.3450087904930115 -0.9110815525054932
-0.23289532959461212 -0.19352640211582184 -0.9375009536743164
-0.3027544319629669 -0.040619779378175735 -0.940683901309967
-0.3707915246486664 0.10759377479553223 -0.9212630987167358
-0.4348004162311554 0.24424956738948822 -0.8800281286239624
-0.4923070967197418 0.36175796389579773 -0.8180345296859741
-0.5411074757575989 0.45360660552978516 -0.7368269562721252
-0.5809339880943298 0.5198944211006165 -0.6388172507286072
-0.6121422648429871 0.5627986192703247 -0.5268482565879822
-0.6352249383926392 0.5849107503890991 -0.4040142297744751
-0.6507995128631592 0.5891854763031006 -0.27360397577285767
-0.6595927476882935 0.5788817405700684 -0.13904230296611786
-0.6624251008033752 0.5575057864189148 -0.0038383870851248503
-0.660193145275116 0.528752863407135 0.12846523523330688
-0.6538532376289368 0.4964558184146881 0.2543298602104187
-0.6444058418273926 0.4645395874977112 0.3702528178691864
-0.6328821182250977 0.43698635697364807 0.4727863371372223
-0.6203328967094421 0.4178093671798706 0.558547854423523
-0.6078198552131653 0.411040335893631 0.62421715259552
-0.5961782336235046 0.41968533396720886 0.6672043204307556
-0.5853214263916016 0.44256913661956787 0.6876725554466248
-0.5749416947364807 0.47738468647003174 0.686511218547821
-0.5647433996200562 0.5216954350471497 0.6647287011146545
-0.5544450283050537 0.5729222297668457 0.6235227584838867
-0.5437840819358826 0.6283518671989441 0.5643395185470581
-0.5325220823287964 0.6851701736450195 0.4889148473739624
-0.5204516649246216 0.7405185103416443 0.39929330348968506
-0.5074040293693542 0.7915719151496887 0.29782068729400635
-0.4932548701763153 0.8356319665908813 0.18710781633853912
-0.4779300093650818 0.8702294826507568 0.0699666365981102
-0.46140778064727783 0.8932235836982727 -0.050678551197052
-0.44371944665908813 0.9028897285461426 -0.17189627885818481
0.24021773040294647 -0.9652220606803894 0.2136831432580948
0.23483797907829285 -0.9711102247238159 -0.03677940368652344
0.2172223925590515 -0.944000244140625 -0.25235629081726074
0.18865251541137695 -0.8876237869262695 -0.4359479546546936
0.15033434331417084 -0.8054930567741394 -0.5898129940032959
0.10345987975597382 -0.7010707855224609 -0.715699315071106
0.04926338419318199 -0.5779231786727905 -0.8149521350860596
-0.01092582382261753 -0.43986228108406067 -0.8886098265647888
-0.07563304156064987 -0.2910784184932709 -0.9374920129776001
-0.14319220185279846 -0.13625986874103546 -0.9622877240180969
-0.21170513331890106 0.019304698333144188 -0.963643491268158
-0.2790101170539856 0.16965073347091675 -0.9422594904899597
-0.34266433119773865 0.3081025183200836 -0.8989871740341187
-0.3999461233615875 0.4272938370704651 -0.8349343538284302
-0.44844570755958557 0.52091383934021 -0.7516780495643616
-0.48790064454078674 0.589076578617096 -0.6516276597976685
-0.518720269203186 0.6339009404182434 -0.5376073122024536
-0.5414448976516724 0.6578954458236694 -0.4126860201358795
-0.5567339658737183 0.6639131903648376 -0.28012681007385254
-0.5653526186943054 0.6551007032394409 -0.14333400130271912
-0.5681561827659607 0.6348472237586975 -0.005805825348943472
-0.566075325012207 0.6067329049110413 0.12891240417957306
-0.5601000785827637 0.5744819641113281 0.2572633624076843
-0.5512661933898926 0.5419210195541382 0.3757096230983734
-0.5406422019004822 0.5129451155662537 0.4807521104812622
-0.529319167137146 0.49149245023727417 0.5689427852630615
-0.5184024572372437 0.4815290868282318 0.6368846893310547
-0.5087749361991882 0.4860469102859497 0.681919515132904
-0.5003976821899414 0.5040388703346252 0.70419842004776
-0.49300622940063477 0.5334131717681885 0.7046199440956116
-0.48634058237075806 0.5719505548477173 0.684212327003479
-0.4801456034183502 0.6172909140586853 0.6442072987556458
-0.4741722643375397 0.6669400334358215 0.5861014723777771
-0.4681817591190338 0.7183008790016174 0.5116987824440002
-0.46195051074028015 0.7687277793884277 0.4231269955635071
-0.4552765488624573 0.8156008124351501 0.3228275179862976
-0.44798609614372253 0.8564162850379944 0.2135121077299118
-0.4399397075176239 0.8888840675354004 0.09809067100286484
-0.43103745579719543 0.9110235571861267 -0.02042619325220585
-0.42122170329093933 0.9212458729743958 -0.13904158771038055
0.25377342104911804 -0.9697452187538147 0.1938854157924652
0.26632386445999146 -0.9642912149429321 -0.05618593469262123
0.2637423872947693 -0.9273906946182251 -0.27139145135879517
0.24764490127563477 -0.8626161217689514 -0.4545399248600006
0.21953533589839935 -0.7733609080314636 -0.6078352928161621
0.18087665736675262 -0.6629944443702698 -0.732999324798584
0.1331542730331421 -0.5350016951560974 -0.8313741087913513
0.07793479412794113 -0.3931122124195099 -0.9040133357048035
0.01692115142941475 -0.2414211928844452 -0.9517661929130554
-0.04799749329686165 -0.08449758589267731 -0.9753601551055908
-0.1147017851471901 0.07252342998981476 -0.9754866361618042
-0.18080808222293854 0.22387337684631348 -0.9528886079788208
-0.24364842474460602 0.3631187975406647 -0.9084542393684387
-0.3002703785896301 0.4831802248954773 -0.8433123826980591
-0.348077654838562 0.5780075788497925 -0.7590412497520447
-0.3868233859539032 0.6477365493774414 -0.6580348610877991
-0.4169778823852539 0.6944171786308289 -0.5430904030799866
-0.43913534283638 0.720458984375 -0.41724249720573425
-0.45400309562683105 0.7285937666893005 -0.283718466758728
-0.46238914132118225 0.7218313813209534 -0.1458917260169983
-0.4651889503002167 0.70341557264328 -0.007238909136503935
-0.46337059140205383 0.6767788529396057 0.12870338559150696
-0.4579618275165558 0.6455014944076538 0.25837087631225586
-0.4500362277030945 0.6132723689079285 0.3782033324241638
-0.44070228934288025 0.583857536315918 0.4846630394458771
-0.4310930371284485 0.5610750317573547 0.5742508769035339
-0.4223588705062866 0.5487777590751648 0.6435086131095886
-0.41542571783065796 0.549899697303772 0.6897265911102295
-0.41028034687042236 0.5635857582092285 0.7130652666091919
-0.40667271614074707 0.5879529714584351 0.7144556641578674
-0.4043472707271576 0.6209984421730042 0.6949670314788818
-0.40304097533226013 0.6605867147445679 0.6558818221092224
-0.4024828374385834 0.7044554352760315 0.5987550616264343
-0.40239644050598145 0.7502447366714478 0.5254546999931335
-0.4025048315525055 0.7955461740493774 0.4381749927997589
-0.4025367796421051 0.837971568107605 0.3394217789173126
-0.4022354781627655 0.8752357363700867 0.2319643795490265
-0.4013671875 0.9052466154098511 0.11875838786363602
-0.3997301161289215 0.9261923432350159 0.0028436128050088882
-0.3971618115901947 0.9366162419319153 -0.1127735897898674
0.2690417468547821 -0.9705278873443604 0.18050169944763184
0.29941368103027344 -0.9546898603439331 -0.06726066768169403
0.3118998408317566 -0.9090225100517273 -0.28066718578338623
0.3084127902984619 -0.8369216918945312 -0.46234777569770813
0.2907297909259796 -0.7416509985923767 -0.6143845915794373
0.2605685591697693 -0.6264773011207581 -0.738421618938446
0.21965527534484863 -0.49479547142982483 -0.83575838804245
0.16978700459003448 -0.35024338960647583 -0.9074327349662781
0.11288897693157196 -0.19680815935134888 -0.9542983770370483
0.05106684938073158 -0.03892235457897186 -0.9771016240119934
-0.013348206877708435 0.11845570802688599 -0.9765597581863403
-0.07776403427124023 0.26978370547294617 -0.9534410834312439
-0.13930626213550568 0.40890902280807495 -0.9086501598358154
-0.1948164701461792 0.5290858745574951 -0.843314528465271
-0.24153763055801392 0.6245700120925903 -0.7589892745018005
-0.2792479991912842 0.6955257654190063 -0.6580437421798706
-0.308482825756073 0.7439279556274414 -0.5432412028312683
-0.3298932909965515 0.7720786929130554 -0.4175742566585541
-0.34423699975013733 0.7825761437416077 -0.28422626852989197
-0.352367103099823 0.7782772779464722 -0.14653055369853973
-0.3552198112010956 0.7622614502906799 -0.007932031527161598
-0.3538019061088562 0.7377915382385254 0.1280519962310791
-0.34917840361595154 0.7082772850990295 0.257862389087677
-0.34246063232421875 0.6772409677505493 0.3779282569885254
-0.33479535579681396 0.6482874751091003 0.48468783497810364
-0.3273557126522064 0.6250796318054199 0.5746055245399475
-0.3213334083557129 0.6113191246986389 0.6441798806190491
-0.3176902234554291 0.6098453998565674 0.6906696557998657
-0.31641924381256104 0.6199343204498291 0.7142676711082458
-0.3172605037689209 0.6398957967758179 0.7159615159034729
-0.31993725895881653 0.6679314970970154 0.6968854069709778
-0.32415148615837097 0.7021230459213257 0.6583904027938843
-0.3295830190181732 0.7404389381408691 0.6020989418029785
-0.33589109778404236 0.7807600498199463 0.5299403071403503
-0.3427193760871887 0.8209230303764343 0.44415906071662903
-0.3497045636177063 0.8587825894355774 0.3472958505153656
-0.3564867079257965 0.8922832608222961 0.24213609099388123
-0.3627222776412964 0.919539213180542 0.13163113594055176
-0.36809685826301575 0.9389106035232544 0.018796507269144058
-0.3723377287387848 0.9490702748298645 -0.09340321272611618
0.2858954071998596 -0.9672556519508362 0.17436227202415466
0.33351051807403564 -0.9424135088920593 -0.06947720050811768
0.36074408888816833 -0.8893187046051025 -0.2799071669578552
0.36974480748176575 -0.8111887574195862 -0.4592980146408081
0.3625200390815735 -0.711157500743866 -0.6095473766326904
0.34101149439811707 -0.5923920273780823 -0.7321736216545105
0.3071640431880951 -0.45819878578186035 -0.828396201133728
0.2629878520965576 -0.3121238350868225 -0.899209201335907
0.2106161117553711 -0.15804430842399597 -0.9454493522644043
0.15235596895217896 -0.0002495286171324551 -0.9678646326065063
0.09073375910520554 0.1564904749393463 -0.9671838879585266
0.02852911502122879 0.3068767189979553 -0.944187343120575
-0.031203826889395714 0.44506126642227173 -0.8997827172279358
-0.08513326197862625 0.5646623969078064 -0.8350793123245239
-0.13037380576133728 0.6602720618247986 -0.751593291759491
-0.16673696041107178 0.7320905327796936 -0.6516618132591248
-0.19482354819774628 0.7820163369178772 -0.5380091071128845
-0.2153416872024536 0.8122411370277405 -0.4135795831680298
-0.22909848392009735 0.8252238035202026 -0.2815057039260864
-0.23699021339416504 0.8236618041992188 -0.14507226645946503
-0.2399919331073761 0.810460090637207 -0.0076833972707390785
-0.23914603888988495 0.7886982560157776 0.12717346847057343
-0.2355513870716095 0.7615998387336731 0.2559557855129242
-0.23035229742527008 0.7325011491775513 0.3750957250595093
-0.22472864389419556 0.7048243880271912 0.4810219705104828
-0.21988661587238312 0.6820515394210815 0.57017982006073
-0.21705128252506256 0.6677056550979614 0.6390435099601746
-0.2172091007232666 0.6645028591156006 0.6848629713058472
-0.22034186124801636 0.6718230843544006 0.7078863382339478
-0.22616060078144073 0.6881452202796936 0.7091834545135498
-0.23434744775295258 0.7118521928787231 0.6899767518043518
-0.24455057084560394 0.7412232756614685 0.651703417301178
-0.256382554769516 0.774441123008728 0.5960623621940613
-0.2694225609302521 0.8096151351928711 0.5250415802001953
-0.2832222580909729 0.8448193669319153 0.44092050194740295
-0.2973163425922394 0.8781455159187317 0.3462463915348053
-0.31123602390289307 0.9077649712562561 0.24378225207328796
-0.3245249390602112 0.9319955706596375 0.13642928004264832
-0.3367566168308258 0.9493669271469116 0.02713051438331604
-0.34755057096481323 0.9586766362190247 -0.08123712986707687
0.3041890263557434 -0.9596235156059265 0.17629387974739075
0.36798492074012756 -0.9275826215744019 -0.0623098649084568
0.4092801511287689 -0.8687214851379395 -0.26882997155189514
0.4303775131702423 -0.7860899567604065 -0.44530531764030457
0.4334530234336853 -0.682704746723175 -0.593392550945282
0.4206264913082123 -0.5616450309753418 -0.7144399285316467
0.39402636885643005 -0.4261412024497986 -0.8095537424087524
0.35584795475006104 -0.27965790033340454 -0.8796584010124207
0.30840784311294556 -0.12596948444843292 -0.9255551695823669
0.25419148802757263 0.030773276463150978 -0.9479798078536987
0.1958947777748108 0.18598809838294983 -0.9476619362831116
0.13645556569099426 0.334623783826828 -0.9253854155540466
0.07907334715127945 0.471145361661911 -0.8820517659187317
0.027212178334593773 0.5895494818687439 -0.8187434673309326
-0.016152700409293175 0.6847800016403198 -0.7369270920753479
-0.05087265372276306 0.7570796012878418 -0.6389032006263733
-0.07761135697364807 0.808274507522583 -0.5273529887199402
-0.09713011234998703 0.8404488563537598 -0.4051677882671356
-0.1102808266878128 0.855924665927887 -0.27542299032211304
-0.11799795180559158 0.8572397828102112 -0.1413479894399643
-0.12128916382789612 0.8471230864524841 -0.00629712687805295
-0.12122579663991928 0.8284676671028137 0.12628190219402313
-0.1189328283071518 0.8043041229248047 0.2528754472732544
-0.11557888984680176 0.7777741551399231 0.3699323832988739
-0.11236678063869476 0.7521044611930847 0.47388792037963867
-0.11052435636520386 0.7305825352668762 0.5611865520477295
-0.1112964004278183 0.716535210609436 0.6283000111579895
-0.11567884683609009 0.7125337719917297 0.6724927425384521
-0.12362728267908096 0.7180313467979431 0.6940924525260925
-0.1348091959953308 0.7316414713859558 0.6942748427391052
-0.1488526165485382 0.7518948912620544 0.6743725538253784
-0.16534113883972168 0.7772365212440491 0.6359246373176575
-0.18381267786026 0.8060330152511597 0.5807134509086609
-0.20376256108283997 0.8365947008132935 0.5107820630073547
-0.22465084493160248 0.8672084808349609 0.42842942476272583
-0.24591468274593353 0.8961825966835022 0.33618399500846863
-0.26698359847068787 0.9218968152999878 0.23675088584423065
-0.28729841113090515 0.9428586363792419 0.1329411268234253
-0.30633094906806946 0.9577564597129822 0.027583224698901176
-0.3236031234264374 0.9655052423477173 -0.07657273858785629
0.32375672459602356 -0.9473445415496826 0.18710105121135712
0.402174711227417 -0.9103344082832336 -0.045249130576848984
0.4564686417579651 -0.8476929664611816 -0.24716246128082275
0.4889940321445465 -0.7623237371444702 -0.42028531432151794
0.5020169019699097 -0.6571471691131592 -0.5659830570220947
0.4977743327617645 -0.5351768136024475 -0.6853947639465332
0.4785299003124237 -0.39958861470222473 -0.7794829607009888
0.4466245174407959 -0.2537853717803955 -0.8490803837776184
0.4045228660106659 -0.10145702958106995 -0.8949363827705383
0.3548552989959717 0.053368475288152695 -0.9177638292312622
0.3004525899887085 0.20628437399864197 -0.9182860851287842
0.24437284469604492 0.3524772822856903 -0.8972857594490051
0.1899174600839615 0.4867192506790161 -0.8556549549102783
0.14063338935375214 0.6033815741539001 -0.7944453954696655
0.09954097867012024 0.6977617144584656 -0.7150705456733704
0.06674409657716751 0.7701512575149536 -0.619791567325592
0.04152299463748932 0.8223127126693726 -0.5112436413764954
0.023070715367794037 0.8562312722206116 -0.39226117730140686
0.010498768649995327 0.8741009831428528 -0.26585739850997925
0.0028438507579267025 0.8783083558082581 -0.13519959151744843
-0.0009244835819117725 0.8714129328727722 -0.0035844887606799603
-0.0018955172272399068 0.856126070022583 0.12559032440185547
-0.0012083170004189014 0.8352892994880676 0.24885207414627075
-4.250848724041134e-05 0.8118495345115662 0.36268097162246704
0.0003910606319550425 0.7888364791870117 0.4635359048843384
-0.0011403504759073257 0.7693386673927307 0.5478807091712952
-0.005882448982447386 0.7564802765846252 0.6122074127197266
-0.014821335673332214 0.752673864364624 0.6538205742835999
-0.027874015271663666 0.7574083805084229 0.6731503009796143
-0.0446556992828846 0.7693883180618286 0.6715001463890076
-0.06473448872566223 0.7872490286827087 0.650330662727356
-0.08762776851654053 0.8095566630363464 0.6112953424453735
-0.11280210316181183 0.8348193764686584 0.5562636256217957
-0.13967745006084442 0.8615067005157471 0.48732784390449524
-0.16763603687286377 0.8880794644355774 0.40679168701171875
-0.19603502750396729 0.9130253791809082 0.3171401917934418
-0.2242232859134674 0.9349018335342407 0.22099117934703827
-0.2515605390071869 0.952379047870636 0.12103114277124405
-0.27743765711784363 0.9642820954322815 0.019939584657549858
-0.3012969493865967 0.9696288108825684 -0.0796918198466301
0.34441134333610535 -0.930160641670227 0.2075451910495758
0.4353880286216736 -0.8908258080482483 -0.017819253727793694
0.5012282729148865 -0.826715886592865 -0.2146555483341217
0.5442240834236145 -0.7406126856803894 -0.3841680586338043
0.5666386485099792 -0.635369062423706 -0.5273889899253845
0.5707511305809021 -0.5139619708061218 -0.6452133059501648
0.5588985085487366 -0.37954214215278625 -0.7384330630302429
0.5335147976875305 -0.23548084497451782 -0.8077695965766907
0.49716633558273315 -0.08541219681501389 -0.853907585144043
0.4525836408138275 0.06673192977905273 -0.8775286674499512
0.4026872515678406 0.2166944146156311 -0.8793458342552185
0.35060757398605347 0.3598763644695282 -0.8601396083831787
0.29969552159309387 0.4913344979286194 -0.8207939863204956
0.25352275371551514 0.6057952046394348 -0.7623319029808044
0.21510380506515503 0.6988949775695801 -0.6861153244972229
0.1844952553510666 0.770982027053833 -0.5943653583526611
0.16093195974826813 0.8237680792808533 -0.4896683394908905
0.1435730904340744 0.8591541051864624 -0.3747991919517517
0.1315060406923294 0.8792216777801514 -0.2527044713497162
0.12375188618898392 0.886221170425415 -0.12648336589336395
0.1192716509103775 0.8825576901435852 0.0006329712341539562
0.11697348952293396 0.870775043964386 0.12530720233917236
0.11572082340717316 0.8535372614860535 0.2441198080778122
0.11434119939804077 0.8336069583892822 0.35359784960746765
0.11163562536239624 0.8138250708580017 0.45024189352989197
0.1063883975148201 0.7970864772796631 0.530556857585907
0.09737706184387207 0.7863160967826843 0.5910797715187073
0.08364830911159515 0.7837603688240051 0.6291815638542175
0.06533268839120865 0.7889003157615662 0.6454157829284668
0.04286963865160942 0.8004785180091858 0.6412318348884583
0.016748683527112007 0.8171800374984741 0.6182323098182678
-0.012489238753914833 0.8376385569572449 0.5781913995742798
-0.04425346851348877 0.8604491949081421 0.5230652093887329
-0.07790923118591309 0.884187638759613 0.4549868404865265
-0.11278682202100754 0.9074360728263855 0.37624847888946533
-0.1481942981481552 0.9288132190704346 0.2892707288265228
-0.18343313038349152 0.9470075368881226 0.19655835628509521
-0.21781574189662933 0.9608111381530762 0.10064630955457687
-0.2506842613220215 0.9691526889801025 0.004038859624415636
-0.28142860531806946 0.9711248278617859 -0.09085435420274734
0.36594387888908386 -0.9078531265258789 0.238320991396904
0.46690860390663147 -0.8692373037338257 0.020403217524290085
0.5424416065216064 -0.8062913417816162 -0.1710989624261856
0.5946488976478577 -0.7217012643814087 -0.3369113802909851
0.6256868243217468 -0.6182813048362732 -0.47769835591316223
0.6377889513969421 -0.49900516867637634 -0.5940817594528198
0.6332910656929016 -0.3670356273651123 -0.6866589784622192
0.614654541015625 -0.22575080394744873 -0.7560238242149353
0.5844879150390625 -0.07876833528280258 -0.8027849793434143
0.5455653071403503 0.07003653049468994 -0.8275875449180603
0.5008400678634644 0.21651770174503326 -0.8311336040496826
0.4534560441970825 0.35625213384628296 -0.8142040371894836
0.4067511260509491 0.4845435917377472 -0.7776796817779541
0.36425480246543884 0.5964351892471313 -0.7225618958473206
0.32891845703125 0.6878745555877686 -0.6501682996749878
0.30075156688690186 0.7592737674713135 -0.5626798868179321
0.2789592146873474 0.8123127818107605 -0.46263357996940613
0.26268258690834045 0.8488285541534424 -0.35274115204811096
0.25100183486938477 0.870811939239502 -0.2358788102865219
0.24294018745422363 0.8803995251655579 -0.1150720939040184
0.2374688684940338 0.8798651695251465 0.006521320436149836
0.23351335525512695 0.8716068863868713 0.12563447654247284
0.2299610823392868 0.8581319451332092 0.23891447484493256
0.2256697565317154 0.8420385718345642 0.3429509401321411
0.21947725117206573 0.8259954452514648 0.4343057870864868
0.210211843252182 0.8127186298370361 0.5095474720001221
0.19670358300209045 0.804947018623352 0.5652841329574585
0.17805789411067963 0.8047593832015991 0.5989799499511719
0.15445733070373535 0.8115770816802979 0.6113308668136597
0.1263909637928009 0.8241164684295654 0.6039453148841858
0.09439487755298615 0.8410491347312927 0.5785745978355408
0.05905064567923546 0.8610125780105591 0.5371152758598328
0.02098136767745018 0.8826256394386292 0.48160362243652344
-0.019154909998178482 0.9045072197914124 0.4142013192176819
-0.06067420914769173 0.9252989292144775 0.3371724784374237
-0.1028776615858078 0.9436895251274109 0.2528533935546875
-0.14506451785564423 0.9584403038024902 0.16361498832702637
-0.18654601275920868 0.9684106707572937 0.07182061672210693
-0.2266598492860794 0.9725817441940308 -0.02021913230419159
-0.26478439569473267 0.9700762629508972 -0.11029215902090073
0.3881240487098694 -0.8802533149719238 0.2800312936306
0.49600255489349365 -0.8457733392715454 0.06976931542158127
0.5789645910263062 -0.7869374752044678 -0.11633840948343277
0.6388089060783386 -0.7063513398170471 -0.2785150706768036
0.6774762868881226 -0.606816291809082 -0.4170307219028473
0.6970579624176025 -0.49133771657943726 -0.5322088003158569
0.6998013257980347 -0.36313140392303467 -0.6244329214096069
0.6881166100502014 -0.22562925517559052 -0.6941536068916321
0.6645808219909668 -0.08248243480920792 -0.7418954372406006
0.6319407224655151 0.06243825703859329 -0.7682640552520752
0.5931132435798645 0.2050444632768631 -0.7739523649215698
0.5511845946311951 0.3410353362560272 -0.7597475647926331
0.5094062089920044 0.46590685844421387 -0.7265365719795227
0.47118887305259705 0.5749636292457581 -0.6753110885620117
0.439357727766037 0.6644209623336792 -0.6073553562164307
0.41387856006622314 0.7347639203071594 -0.5248124599456787
0.39394688606262207 0.7876642942428589 -0.4301678240299225
0.37870705127716064 0.8249218463897705 -0.3260684609413147
0.3672536313533783 0.848464846611023 -0.21531614661216736
0.35863420367240906 0.8603458404541016 -0.10085713863372803
0.35185372829437256 0.8627373576164246 0.01423223502933979
0.3458797037601471 0.8579216599464417 0.12676607072353363
0.3396497964859009 0.8482785224914551 0.23347139358520508
0.33208009600639343 0.8362690806388855 0.33101779222488403
0.3220749497413635 0.8244155049324036 0.41604867577552795
0.3085385859012604 0.8152788281440735 0.4852196276187897
0.29038694500923157 0.8114323616027832 0.5352369546890259
0.2668123245239258 0.8147901892662048 0.5636850595474243
0.23804797232151031 0.8246537446975708 0.5714173316955566
0.20461894571781158 0.8396384119987488 0.5602084398269653
0.16708755493164062 0.8583294749259949 0.5319597721099854
0.1260485053062439 0.8792971968650818 0.48868370056152344
0.082122802734375 0.9011138677597046 0.43248480558395386
0.0359504409134388 0.9223724603652954 0.3655370771884918
-0.01181755866855383 0.9417046308517456 0.2900583744049072
-0.0605277493596077 0.9577999711036682 0.20828239619731903
-0.1095331609249115 0.969423234462738 0.12242957204580307
-0.15820232033729553 0.9754311442375183 0.03467734158039093
-0.20592789351940155 0.9747872948646545 -0.052868738770484924
-0.25213488936424255 0.9665738940238953 -0.1382024884223938
0.41057148575782776 -0.8472357988357544 0.3325474262237549
0.5219858884811401 -0.8204394578933716 0.13000692427158356
0.6098348498344421 -0.7687926292419434 -0.05073549598455429
0.6755078434944153 -0.6948176622390747 -0.20939283072948456
0.7206296920776367 -0.6013157367706299 -0.34582483768463135
0.7470518946647644 -0.491350919008255 -0.4600386917591095
0.7568418979644775 -0.36823195219039917 -0.5521876215934753
0.7522707581520081 -0.23549270629882812 -0.6225676536560059
0.7358001470565796 -0.09687326103448868 -0.6716122627258301
0.7100679874420166 0.043700605630874634 -0.69988614320755
0.6778742074966431 0.18213625252246857 -0.7080764174461365
0.6421678066253662 0.3141913115978241 -0.6969835758209229
0.6060332655906677 0.4354883134365082 -0.6675111651420593
0.5726807713508606 0.5415267944335938 -0.6206551194190979
0.5447444319725037 0.6287369728088379 -0.5576794147491455
0.522153913974762 0.6976860761642456 -0.480692058801651
0.5041208863258362 0.7500651478767395 -0.3921263813972473
0.48981887102127075 0.7876662015914917 -0.29456236958503723
0.47838294506073 0.8123858571052551 -0.19072437286376953
0.4689122140407562 0.8262261152267456 -0.08347360044717789
0.46047312021255493 0.8312912583351135 0.02420254983007908
0.45210450887680054 0.8297814726829529 0.129209965467453
0.44282495975494385 0.823981761932373 0.2283696085214615
0.4316408932209015 0.8162473440170288 0.31844791769981384
0.4175572097301483 0.8089836835861206 0.3961905241012573
0.399588942527771 0.8046232461929321 0.4583636224269867
0.3767743408679962 0.8055979609489441 0.5017982721328735
0.3484201431274414 0.8136614561080933 0.5242237448692322
0.3148001432418823 0.8279299139976501 0.5266618728637695
0.2764502465724945 0.8468392491340637 0.5110546350479126
0.2339276224374771 0.8688134551048279 0.4794466495513916
0.18780215084552765 0.8922849893569946 0.43395325541496277
0.13864858448505402 0.9157116413116455 0.3767302334308624
0.08703894168138504 0.9375927448272705 0.3099452257156372
0.03353605419397354 0.9564826488494873 0.23575161397457123
-0.021312441676855087 0.971001386642456 0.15626539289951324
-0.07697892934083939 0.9798429608345032 0.07354521751403809
-0.13295988738536835 0.9817817211151123 -0.010424305684864521
-0.18877896666526794 0.9756754636764526 -0.0937458947300911
-0.24398930370807648 0.9604681730270386 -0.17461970448493958
0.43240484595298767 -0.8086084127426147 0.3932593762874603
0.5444369912147522 -0.7923312783241272 0.19870086014270782
0.6349034309387207 -0.7504130601882935 0.023551270365715027
0.7047338485717773 -0.6852663159370422 -0.1314144730567932
0.7551729679107666 -0.5996814966201782 -0.2656523585319519
0.7877603769302368 -0.49678605794906616 -0.37885111570358276
0.8043082356452942 -0.38000059127807617 -0.47092825174331665
0.8068718314170837 -0.2529909610748291 -0.5420190691947937
0.7977209687232971 -0.11962331086397171 -0.5924615263938904
0.7793095111846924 0.01607905514538288 -0.6227767467498779
0.7542468309402466 0.1499732881784439 -0.6336452960968018
0.7252723574638367 0.2778269946575165 -0.6258824467658997
0.6952338218688965 0.39533957839012146 -0.6004120707511902
0.6670726537704468 0.4981527030467987 -0.5582393407821655
0.6431812644004822 0.5828695297241211 -0.5006155371665955
0.6234676241874695 0.6501449942588806 -0.4296169579029083
0.6071902513504028 0.7017077207565308 -0.3476269841194153
0.5935815572738647 0.7393619418144226 -0.2571587860584259
0.581847071647644 0.7649943232536316 -0.16085778176784515
0.5711675882339478 0.7805770635604858 -0.06149676442146301
0.5607020854949951 0.7881685495376587 0.03803210332989693
0.5495924353599548 0.7899081110954285 0.13473571836948395
0.5369707345962524 0.7880066633224487 0.22554118931293488
0.521967351436615 0.7847318053245544 0.3073267340660095
0.5037216544151306 0.7823894619941711 0.3769577741622925
0.481393963098526 0.7832986116409302 0.4313310384750366
0.45417824387550354 0.7897624373435974 0.4674223065376282
0.4215165972709656 0.8033727407455444 0.48312437534332275
0.38369548320770264 0.8230106830596924 0.4796324074268341
0.3412174582481384 0.846876323223114 0.4590498208999634
0.29458585381507874 0.8731827735900879 0.42355242371559143
0.2442934811115265 0.9001789093017578 0.3753417134284973
0.19081343710422516 0.9261653423309326 0.31660738587379456
0.13459163904190063 0.9495059847831726 0.24949528276920319
0.07604110240936279 0.968632698059082 0.17608392238616943
0.015538043342530727 0.9820459485054016 0.09836754947900772
-0.04658094048500061 0.9883106350898743 0.018245676532387733
-0.11002016067504883 0.9860482215881348 -0.062481146305799484
-0.1745254248380661 0.9739255309104919 -0.14211080968379974
-0.2398836463689804 0.9506402015686035 -0.2190343737602234
0.4527030885219574 -0.7640490531921387 0.4591522514820099
0.5630658864974976 -0.7602496147155762 0.2730659246444702
0.6542829871177673 -0.7299128770828247 0.10402961075305939
0.7268227338790894 -0.6752997040748596 -0.04674392566084862
0.7815244793891907 -0.5991610884666443 -0.17833690345287323
0.8195750117301941 -0.5046725869178772 -0.2901357114315033
0.8424776792526245 -0.39536285400390625 -0.38182902336120605
0.8520128130912781 -0.27503615617752075 -0.4533933997154236
0.8501960039138794 -0.1476989984512329 -0.5050696730613708
0.8392340540885925 -0.017491186037659645 -0.5373318195343018
0.8214840888977051 0.11137150228023529 -0.5508490800857544
0.7994177937507629 0.23464109003543854 -0.5464460253715515
0.7755917906761169 0.348065584897995 -0.5250608921051025
0.7526280879974365 0.44739750027656555 -0.48770374059677124
0.7326445579528809 0.5293858647346497 -0.4356120526790619
0.7155491709709167 0.5947717428207397 -0.37083524465560913
0.7006819844245911 0.6453286409378052 -0.2957109808921814
0.6873677372932434 0.6828792691230774 -0.21268931031227112
0.674915611743927 0.7093076109886169 -0.12433766573667526
0.6626209020614624 0.7265636920928955 -0.0333394929766655
0.6497682332992554 0.7366662621498108 0.05751226097345352
0.6356353163719177 0.7416992783546448 0.14533193409442902
0.619500994682312 0.7438039779663086 0.2271614968776703
0.6006527543067932 0.7451642155647278 0.30000272393226624
0.578396737575531 0.7479878664016724 0.36085349321365356
0.5520690083503723 0.75448077917099 0.4067547023296356
0.5210480093955994 0.7668178081512451 0.4348403513431549
0.484921932220459 0.7864225506782532 0.4431765675544739
0.4439403712749481 0.8119136691093445 0.4331319332122803
0.3985068202018738 0.8412290215492249 0.4069633483886719
0.34900400042533875 0.8723496198654175 0.36696314811706543
0.2957817018032074 0.9033242464065552 0.31540367007255554
0.23914659023284912 0.9322812557220459 0.2544945180416107
0.17935429513454437 0.9574317932128906 0.18635132908821106
0.11660341918468475 0.9770646691322327 0.11297659575939178
0.051030948758125305 0.9895329475402832 0.03624996915459633
-0.01729184202849865 0.9932334423065186 -0.042072638869285583
-0.08836283534765244 0.9865821599960327 -0.12035245448350906
-0.16225303709506989 0.967981219291687 -0.19705535471439362
-0.23911136388778687 0.9357818365097046 -0.27073392271995544
0.4706341624259949 -0.713057279586792 0.5275071859359741
0.5776376128196716 -0.7228931188583374 0.3505483865737915
0.6681278944015503 -0.7053417563438416 0.18837185204029083
0.7421467900276184 -0.6624704003334045 0.04255687817931175
0.8001347780227661 -0.5969535112380981 -0.08565468341112137
0.8429102897644043 -0.5119858980178833 -0.19538024067878723
0.8716375231742859 -0.4111832082271576 -0.28609994053840637
0.8877810835838318 -0.2984740734100342 -0.3576420843601227
0.8930556178092957 -0.17799650132656097 -0.4101533591747284
0.889372706413269 -0.054002370685338974 -0.44405683875083923
0.8787900805473328 0.0692208930850029 -0.4600021541118622
0.86346834897995 0.18740752339363098 -0.4588114023208618
0.8456350564956665 0.2963474988937378 -0.4414232075214386
0.8275607824325562 0.39189448952674866 -0.40883898735046387
0.8110710978507996 0.470929890871048 -0.3622736632823944
0.7961035370826721 0.5342736840248108 -0.3037548065185547
0.7821177840232849 0.5837363004684448 -0.23558227717876434
0.7685675024986267 0.6211531758308411 -0.1601485013961792
0.7549008727073669 0.6483979225158691 -0.0799471065402031
0.7405625581741333 0.6673908829689026 0.0024261497892439365
0.7249963879585266 0.6801030039787292 0.08427809923887253
0.7076497077941895 0.6885538697242737 0.16283327341079712
0.6879803538322449 0.6948049068450928 0.23525401949882507
0.6654637455940247 0.7009451985359192 0.2986714839935303
0.6396017074584961 0.709073007106781 0.35022369027137756
0.6099320650100708 0.7212702035903931 0.3871021270751953
0.5760395526885986 0.7395723462104797 0.4066036343574524
0.5376582145690918 0.7652269601821899 0.4069697856903076
0.49492979049682617 0.7965880632400513 0.3897417187690735
0.44807159900665283 0.831333339214325 0.357321172952652
0.3972633481025696 0.8672189712524414 0.31210580468177795
0.3426341414451599 0.902100682258606 0.2564275860786438
0.28425222635269165 0.9339410662651062 0.1925092339515686
0.22211530804634094 0.9608020186424255 0.12243634462356567
0.15614183247089386 0.9808267951011658 0.04814363270998001
0.08616184443235397 0.9922104477882385 -0.028586525470018387
0.011906910687685013 0.9931628108024597 -0.10611631721258163
-0.06700263172388077 0.9818600416183472 -0.18293629586696625
-0.1510736644268036 0.9563878178596497 -0.257642924785614
-0.24096153676509857 0.9146721959114075 -0.3289099335670471
0.4854271709918976 -0.6548896431922913 0.5959113836288452
0.587939977645874 -0.678812563419342 0.4288420081138611
0.676604151725769 -0.6746567487716675 0.2744329571723938
0.7510903477668762 -0.6442652344703674 0.13454493880271912
0.8114684820175171 -0.5902018547058105 0.010678233578801155
0.858195960521698 -0.515646755695343 -0.09606408327817917
0.8920871019363403 -0.42426905035972595 -0.18498672544956207
0.914268970489502 -0.32009029388427734 -0.25578925013542175
0.9261267781257629 -0.20734953880310059 -0.3085314631462097
0.9292453527450562 -0.09038259088993073 -0.34358325600624084
0.9253534078598022 0.026476645842194557 -0.36156362295150757
0.9162743091583252 0.1389656513929367 -0.36327478289604187
0.9038853645324707 0.24293263256549835 -0.3496350049972534
0.8900911808013916 0.33434224128723145 -0.3216151297092438
0.8764237761497498 0.41021016240119934 -0.28039199113845825
0.8628851771354675 0.47141751646995544 -0.22797752916812897
0.8490949273109436 0.5197912454605103 -0.16664323210716248
0.8346745371818542 0.5571579933166504 -0.098732590675354
0.8192479014396667 0.5853601694107056 -0.026672109961509705
0.8024438619613647 0.6062666177749634 0.047025326639413834
0.7838990092277527 0.6217779517173767 0.1197633221745491
0.7632624506950378 0.633826732635498 0.1888752281665802
0.7402011752128601 0.6443710923194885 0.25164347887039185
0.7144057750701904 0.6553820967674255 0.30532968044281006
0.6855982542037964 0.6688259840011597 0.34721189737319946
0.653538703918457 0.6866399645805359 0.37463122606277466
0.6180325746536255 0.7107024192810059 0.3850436806678772
0.5789496302604675 0.7420774102210999 0.37686046957969666
0.5362324118614197 0.778876781463623 0.3517933189868927
0.4898070693016052 0.8185505867004395 0.31238463521003723
0.4395535886287689 0.8586601614952087 0.26113161444664
0.38529372215270996 0.8968969583511353 0.20042291283607483
0.3267795145511627 0.9310807585716248 0.13249710202217102
0.2636803388595581 0.9591420292854309 0.059419818222522736
0.1955679953098297 0.9790896773338318 -0.016923166811466217
0.12189897149801254 0.9889664649963379 -0.09481974691152573
0.04199196398258209 0.9867916107177734 -0.17271532118320465
-0.04500141739845276 0.9704909324645996 -0.24918843805789948
-0.14013515412807465 0.9378104209899902 -0.3229195773601532
-0.2447204738855362 0.8862091302871704 -0.3926529884338379
0.49632924795150757 -0.5884764194488525 0.6622227430343628
0.5937480330467224 -0.6263393759727478 0.5058698058128357
0.6798592805862427 -0.6356667280197144 0.3602447509765625
0.7540259957313538 -0.6180673241615295 0.22739781439304352
0.8159894347190857 -0.5759720802307129 0.10901028662919998
0.8658686876296997 -0.5125136971473694 0.006345266941934824
0.9041374921798706 -0.4313749670982361 -0.07977068424224854
0.9315827488899231 -0.33662301301956177 -0.14893566071987152
0.9492508172988892 -0.23254814743995667 -0.20113465189933777
0.9583886861801147 -0.12351886928081512 -0.23668257892131805
0.9603852033615112 -0.01386682502925396 -0.25615471601486206
0.956719160079956 0.0921931266784668 -0.26031172275543213
0.948915421962738 0.19060476124286652 -0.25002509355545044
0.9385145306587219 0.2774738371372223 -0.22620634734630585
0.92676842212677 0.3499640226364136 -0.18997375667095184
0.9137823581695557 0.40899091958999634 -0.14332960546016693
0.8993780016899109 0.45636188983917236 -0.08852910250425339
0.8833830952644348 0.49385952949523926 -0.02787713333964348
0.8656331896781921 0.5232597589492798 0.03625749051570892
0.8459750413894653 0.5463448762893677 0.10143676400184631
0.8242698311805725 0.5649100542068481 0.16515399515628815
0.8003969788551331 0.5807656645774841 0.22484546899795532
0.7742588520050049 0.5957321524620056 0.277908056974411
0.7457850575447083 0.6116292476654053 0.32172781229019165
0.7149364352226257 0.6302599906921387 0.3537156879901886
0.6817097663879395 0.6533883810043335 0.3713529109954834
0.6461407542228699 0.6827122569084167 0.37224143743515015
0.6082155108451843 0.7191071510314941 0.35494863986968994
0.5675710439682007 0.7604915499687195 0.32135602831840515
0.5237225890159607 0.8041456341743469 0.27414700388908386
0.4761427044868469 0.8474885821342468 0.21592076122760773
0.4242508113384247 0.8880919218063354 0.14912962913513184
0.36739933490753174 0.9236690402030945 0.07604219764471054
0.304855078458786 0.9520474076271057 -0.0012737056240439415
0.23577508330345154 0.9711247086524963 -0.08095087110996246
0.15917561948299408 0.9788085222244263 -0.16130925714969635
0.07389170676469803 0.9729427099227905 -0.2408323585987091
-0.0214757788926363 0.9512162208557129 -0.31813523173332214
-0.12863069772720337 0.9110481142997742 -0.39192506670951843
-0.24967697262763977 0.8494427800178528 -0.46095433831214905
0.5025482177734375 -0.5123094320297241 0.7244995832443237
0.5947844982147217 -0.5634849071502686 0.5797385573387146
0.6779953837394714 -0.5859503746032715 0.44399112462997437
0.7512962818145752 -0.5810971856117249 0.3194026052951813
0.8141483068466187 -0.5512179136276245 0.2077517956495285
0.8663686513900757 -0.49937158823013306 0.11039286106824875
0.908115804195404 -0.42920923233032227 0.02823203057050705
0.9398545622825623 -0.34478503465652466 -0.038260482251644135
0.9623056650161743 -0.25037139654159546 -0.08900973200798035
0.9763882160186768 -0.15029683709144592 -0.12427398562431335
0.9831624627113342 -0.048819344490766525 -0.14456957578659058
0.9837748408317566 0.04995959252119064 -0.1505906581878662
0.9794142246246338 0.14213652908802032 -0.14313079416751862
0.9712765216827393 0.22400620579719543 -0.12300940603017807
0.9603592753410339 0.2929052710533142 -0.09126178175210953
0.9469116926193237 0.34974563121795654 -0.04988690838217735
0.9309983253479004 0.3962637782096863 -0.001136553124524653
0.9126900434494019 0.4341488182544708 0.05271051824092865
0.8920673727989197 0.4650622308254242 0.10933180898427963
0.8692252039909363 0.49065253138542175 0.16635292768478394
0.8442764282226562 0.5125635862350464 0.22134645283222198
0.8173558115959167 0.5324383974075317 0.2718406915664673
0.7886224389076233 0.5519160628318787 0.31533554196357727
0.758262574672699 0.5726238489151001 0.34932854771614075
0.7264910936355591 0.5961632132530212 0.37134864926338196
0.6935513019561768 0.6240915060043335 0.3789987862110138
0.65971440076828 0.6578985452651978 0.37000423669815063
0.6250595450401306 0.6982678174972534 0.34306707978248596
0.5888015031814575 0.7429959774017334 0.3002369999885559
0.549915611743927 0.7892754077911377 0.24434448778629303
0.5073508024215698 0.8344534039497375 0.17810124158859253
0.46002107858657837 0.8760395050048828 0.10404182225465775
0.4067884683609009 0.9116877913475037 0.02449173294007778
0.34643664956092834 0.9391610026359558 -0.05844312161207199
0.2776349186897278 0.9562773108482361 -0.14287012815475464
0.19889037311077118 0.9608400464057922 -0.22708962857723236
0.10848596692085266 0.9505513906478882 -0.3095647096633911
0.004398874472826719 0.9229042530059814 -0.388882040977478
-0.11580773442983627 0.8750472664833069 -0.46370479464530945
-0.25513172149658203 0.8036087155342102 -0.5327159762382507
0.5031749606132507 -0.42427486181259155 0.7808950543403625
0.5906716585159302 -0.48779013752937317 0.6486666202545166
0.6710372567176819 -0.5227343440055847 0.5239629149436951
0.7431926131248474 -0.5303249359130859 0.40893223881721497
0.8063693642616272 -0.5127283930778503 0.30536529421806335
0.8601306080818176 -0.47291022539138794 0.21463480591773987
0.9043634533882141 -0.414441853761673 0.1376720815896988
0.939250648021698 -0.3412929177284241 0.07498093694448471
0.9652236700057983 -0.25763198733329773 0.026681404560804367
0.9829089045524597 -0.16765516996383667 -0.007424958050251007
0.9930708408355713 -0.07545516639947891 -0.027777837589383125
0.9965577721595764 0.015063797123730183 -0.03497711196541786
0.9942559003829956 0.10022497922182083 -0.029704704880714417
0.9870516657829285 0.17657451331615448 -0.012652521021664143
0.9757252931594849 0.2416551262140274 0.015253220684826374
0.9607101082801819 0.29632481932640076 0.052010513842105865
0.9423511028289795 0.3421829640865326 0.09535744786262512
0.9209936261177063 0.38076251745224 0.14302822947502136
0.896991491317749 0.41355112195014954 0.1927335411310196
0.8707124590873718 0.4420066177845001 0.24214941263198853
0.8425431847572327 0.46756666898727417 0.28891342878341675
0.8128917217254639 0.49165430665016174 0.3306307792663574
0.7821910977363586 0.5156773328781128 0.36488741636276245
0.7508971095085144 0.5410229563713074 0.38927266001701355
0.719489336013794 0.5690481662750244 0.40141046047210693
0.6884653568267822 0.6010653972625732 0.3989982306957245
0.658336877822876 0.6383237242698669 0.37985217571258545
0.6292538046836853 0.6813135147094727 0.3427782952785492
0.5998901128768921 0.7277990579605103 0.28999099135398865
0.5685473084449768 0.7749853134155273 0.22447672486305237
0.5335279107093811 0.8202331066131592 0.14907823503017426
0.49312880635261536 0.8610594272613525 0.06644168496131897
0.44562041759490967 0.8951160907745361 -0.02100958116352558
0.3892117440700531 0.9201485514640808 -0.11108042299747467
0.3220013976097107 0.9339388608932495 -0.20179195702075958
0.24191297590732574 0.9342319369316101 -0.29135608673095703
0.146610289812088 0.9186424612998962 -0.37813952565193176
0.03338755667209625 0.8845418691635132 -0.46061810851097107
-0.10097551345825195 0.8289123773574829 -0.537321925163269
-0.26040950417518616 0.7481590509414673 -0.6067690253257751
0.4970764219760895 -0.321399062871933 0.8295156955718994
0.5808714628219604 -0.39610910415649414 0.710885763168335
0.6589015126228333 -0.4427225887775421 0.5984963178634644
0.7299385070800781 -0.46234944462776184 0.4944104850292206
0.7930412888526917 -0.4570562541484833 0.4003489315509796
0.8475812077522278 -0.42969873547554016 0.31763339042663574
0.8932396173477173 -0.3837144374847412 0.24716903269290924
0.9299818873405457 -0.32290470600128174 0.18946237862110138
0.9580134153366089 -0.2512325048446655 0.14466828107833862
0.9777277708053589 -0.17265254259109497 0.11265544593334198
0.9896503686904907 -0.09098568558692932 0.09308189153671265
0.9943849444389343 -0.009841282851994038 0.08547214418649673
0.992565929889679 0.06741566210985184 0.08929052203893661
0.9848191738128662 0.13765516877174377 0.10400805622339249
0.971752941608429 0.19866368174552917 0.12883347272872925
0.9540224671363831 0.25118234753608704 0.16175585985183716
0.9322824478149414 0.2965928018093109 0.2004898637533188
0.9071781039237976 0.33619794249534607 0.2427694946527481
0.8793572187423706 0.37124285101890564 0.2863248586654663
0.8494774699211121 0.4029300808906555 0.3288673758506775
0.818213701248169 0.4324305057525635 0.36808326840400696
0.7862605452537537 0.46088969707489014 0.40163567662239075
0.7543341517448425 0.4894295632839203 0.42717456817626953
0.7231706976890564 0.5191469192504883 0.44235554337501526
0.6935225129127502 0.5511066913604736 0.44486695528030396
0.6661506295204163 0.5863336324691772 0.4324644207954407
0.6418155431747437 0.6257989406585693 0.4030129015445709
0.6207221746444702 0.6697946786880493 0.35538095235824585
0.6008919477462769 0.7161551117897034 0.29193785786628723
0.5798202157020569 0.762211799621582 0.215834841132164
0.5550357103347778 0.805435061454773 0.1300693154335022
0.5240955948829651 0.8434303998947144 0.03743860870599747
0.48456206917762756 0.8739144206047058 -0.05948100984096527
0.43396034836769104 0.8946750164031982 -0.15833601355552673
0.36971989274024963 0.9035167694091797 -0.25698021054267883
0.28909510374069214 0.8981903195381165 -0.3534461557865143
0.1890641301870346 0.876305103302002 -0.4459051191806793
0.06619750708341599 0.8352207541465759 -0.5326167345046997
-0.08351153880357742 0.771911084651947 -0.6118682622909546
-0.26487359404563904 0.6827860474586487 -0.6818990707397461
0.48273736238479614 -0.19944067299365997 0.8682209253311157
0.5646008253097534 -0.2842796742916107 0.7645055055618286
0.6413530707359314 -0.34184807538986206 0.6658862829208374
0.7116683721542358 -0.37322986125946045 0.5742623805999756
0.7745062708854675 -0.38042205572128296 0.49121272563934326
0.8291338086128235 -0.3661496341228485 0.4179501235485077
0.875120997428894 -0.3336513340473175 0.35531455278396606
0.9123112559318542 -0.28646400570869446 0.3037966191768646
0.9407762885093689 -0.22823067009449005 0.2635858654975891
0.9607625603675842 -0.16254502534866333 0.23463323712348938
0.9726355671882629 -0.09284180402755737 0.21672017872333527
0.9768258929252625 -0.022332193329930305 0.2095276266336441
0.9737816452980042 0.04601958021521568 0.2127002328634262
0.9639283418655396 0.10948339849710464 0.22590526938438416
0.9477550387382507 0.16612710058689117 0.2485099583864212
0.9261696338653564 0.21649913489818573 0.2784891128540039
0.9001567959785461 0.2616700232028961 0.313522070646286
0.8706768751144409 0.3026292324066162 0.351330429315567
0.8386828899383545 0.3403039574623108 0.3896501362323761
0.8051308393478394 0.37557274103164673 0.4262128472328186
0.7709904909133911 0.40927568078041077 0.45873546600341797
0.7372480034828186 0.4422212839126587 0.4849177598953247
0.7049093842506409 0.47518977522850037 0.5024483799934387
0.6749972701072693 0.5089337825775146 0.5090180039405823
0.6485463976860046 0.5441761016845703 0.5023425221443176
0.6265935897827148 0.5816060304641724 0.48019111156463623
0.610165536403656 0.6218718886375427 0.4404248893260956
0.5995202660560608 0.6650564074516296 0.381921648979187
0.5919298529624939 0.7091689109802246 0.3071845471858978
0.5839594602584839 0.751788318157196 0.21953265368938446
0.5722334384918213 0.790599524974823 0.12214270979166031
0.5534332394599915 0.8233866095542908 0.018010687083005905
0.5242746472358704 0.8480119705200195 -0.09006474167108536
0.48146486282348633 0.8623827695846558 -0.199482262134552
0.4216405153274536 0.86440509557724 -0.3078223764896393
0.34128469228744507 0.8519268035888672 -0.4128188490867615
0.23662148416042328 0.8226664662361145 -0.5123193860054016
0.10348182916641235 0.7741253972053528 -0.6042345762252808
-0.0628669261932373 0.7034789323806763 -0.6864758729934692
-0.2679411470890045 0.6074380278587341 -0.7568784952163696
0.458010196685791 -0.05221126601099968 0.8943253755569458
0.54070645570755 -0.14660918712615967 0.8073199391365051
0.6179493069648743 -0.2149094194173813 0.724268913269043
0.6884046196937561 -0.2582525610923767 0.6468481421470642
0.7510504722595215 -0.2785874009132385 0.5764456987380981
0.8051841259002686 -0.27847373485565186 0.514134407043457
0.8504024147987366 -0.2608729898929596 0.46067580580711365
0.8865611553192139 -0.22895106673240662 0.41654855012893677
0.9137223958969116 -0.18591167032718658 0.3819946348667145
0.9320973753929138 -0.13486836850643158 0.3570743203163147
0.9419897198677063 -0.0787590965628624 0.34172484278678894
0.9437439441680908 -0.02029927261173725 0.3358171582221985
0.937698483467102 0.03803124651312828 0.3392086327075958
0.9241476058959961 0.09397377073764801 0.351791650056839
0.9035189151763916 0.14590974152088165 0.37311166524887085
0.8769943118095398 0.19410650432109833 0.40112486481666565
0.8458968997001648 0.23921950161457062 0.4334656894207001
0.8115057349205017 0.28183498978614807 0.4678328037261963
0.7750792503356934 0.3224831819534302 0.501956045627594
0.7378710508346558 0.3616483211517334 0.5335730910301208
0.7011431455612183 0.3997757136821747 0.5604133009910583
0.6661731004714966 0.43727773427963257 0.580191433429718
0.6342577338218689 0.47453680634498596 0.5906065106391907
0.6067125201225281 0.5119076371192932 0.5893505811691284
0.5848664045333862 0.5497176647186279 0.5741239786148071
0.5700519680976868 0.5882667899131775 0.5426583290100098
0.5635920166969299 0.6278259754180908 0.49274763464927673
0.5658160448074341 0.6682440638542175 0.4232121706008911
0.5731760263442993 0.7078052163124084 0.3366502821445465
0.5811969637870789 0.7444558143615723 0.2365397810935974
0.5854671597480774 0.7762042880058289 0.12625639140605927
0.581640362739563 0.801115095615387 0.009046786464750767
0.5654193758964539 0.8172943592071533 -0.11198491603136063
0.5325229167938232 0.8228678107261658 -0.23387709259986877
0.4786362946033478 0.8159533739089966 -0.3538000285625458
0.39934393763542175 0.7946239113807678 -0.4690338969230652
0.2900444567203522 0.7568637132644653 -0.5769373774528503
0.1458449512720108 0.7005159258842468 -0.6749069094657898
-0.03856954723596573 0.6232177019119263 -0.7603256702423096
-0.26909759640693665 0.5223227143287659 -0.8305008411407471
0.4196914732456207 0.12961190938949585 0.9041172862052917
0.507464587688446 0.024962086230516434 0.8365172743797302
0.5879561901092529 -0.05501878634095192 0.7714555859565735
0.6600263714790344 -0.11160033196210861 0.7103732228279114
0.7228937745094299 -0.1466873288154602 0.6544735431671143
0.7761073708534241 -0.16262465715408325 0.6047102212905884
0.8194980025291443 -0.16201098263263702 0.561800479888916
0.8531187176704407 -0.1475379914045334 0.5262528657913208
0.8771820664405823 -0.12186334282159805 0.4984074831008911
0.8919998407363892 -0.08751999586820602 0.4784785211086273
0.8979288339614868 -0.04685959964990616 0.46659982204437256
0.8953239917755127 -0.0020248140208423138 0.46286773681640625
0.8844989538192749 0.04505501687526703 0.4673818349838257
0.8656924366950989 0.0926506370306015 0.48028311133384705
0.8393296599388123 0.13947813212871552 0.501309335231781
0.8068782091140747 0.1854235827922821 0.5283954739570618
0.7699928879737854 0.23061570525169373 0.5591241717338562
0.7302630543708801 0.2751440107822418 0.5911638140678406
0.689241349697113 0.319062203168869 0.6222288012504578
0.6484676599502563 0.36239123344421387 0.6500502228736877
0.6094866991043091 0.405120313167572 0.6723542213439941
0.5738603472709656 0.4472096860408783 0.6868486404418945
0.5431751012802124 0.4885900020599365 0.6912153959274292
0.5190451145172119 0.5291644334793091 0.6831115484237671
0.5031103491783142 0.5688087344169617 0.660176694393158
0.49702945351600647 0.6073732376098633 0.6200471520423889
0.5024675726890564 0.6446834802627563 0.5603780746459961
0.519870936870575 0.6803120970726013 0.4798491597175598
0.5448351502418518 0.7129008173942566 0.38109245896339417
0.571757972240448 0.7408742308616638 0.26771411299705505
0.5950624346733093 0.7626736760139465 0.1432967185974121
0.609203040599823 0.7767560482025146 0.011387770995497704
0.6086663603782654 0.7815911769866943 -0.12450723350048065
0.5879647135734558 0.7756575345993042 -0.26092836260795593
0.5416248440742493 0.75743567943573 -0.3944607675075531
0.46417027711868286 0.7254011631011963 -0.5217306017875671
0.35009801387786865 0.6780149936676025 -0.6393972635269165
0.193849116563797 0.6137127876281738 -0.7441427111625671
-0.010225923731923103 0.5308924913406372 -0.8326565027236938
-0.26790931820869446 0.42789918184280396 -0.9016178250312805
0.36274975538253784 0.3606845736503601 0.8920037746429443
0.4622437059879303 0.24229028820991516 0.8482065796852112
0.5502190589904785 0.14726687967777252 0.8046823740005493
0.6262273788452148 0.07412704080343246 0.7627649307250977
0.6901776194572449 0.02099444344639778 0.723602831363678
0.7422550916671753 -0.014229106716811657 0.6881580948829651
0.7828410267829895 -0.03372431918978691 0.6572214961051941
0.8124396800994873 -0.03964659199118614 0.631434977054596
0.8316136598587036 -0.03404921665787697 0.6113223433494568
0.8409333229064941 -0.018833722919225693 0.5973203182220459
0.8409343361854553 0.004277689848095179 0.5898114442825317
0.8320850729942322 0.03375273570418358 0.589155375957489
0.814761757850647 0.06824734807014465 0.5957199335098267
0.7892268300056458 0.10659608244895935 0.6099115610122681
0.7559648752212524 0.1478540003299713 0.6316689252853394
0.7167257070541382 0.19141533970832825 0.6589043736457825
0.6734771132469177 0.2367659956216812 0.6891462206840515
0.6280956268310547 0.2834045886993408 0.7200286388397217
0.5824065208435059 0.33083125948905945 0.7492448091506958
0.5382151007652283 0.37853875756263733 0.7745103240013123
0.49733173847198486 0.4260043203830719 0.7935347557067871
0.4615905284881592 0.4726840555667877 0.804000198841095
0.4328644573688507 0.5180075764656067 0.8035458326339722
0.4130738377571106 0.5613736510276794 0.7897587418556213
0.40419235825538635 0.6021484732627869 0.7601712346076965
0.4082461893558502 0.6396636366844177 0.7122632265090942
0.4273093640804291 0.6732168197631836 0.6434714794158936
0.46202120184898376 0.7020369172096252 0.552236795425415
0.50713050365448 0.7251786589622498 0.4411329925060272
0.555851399898529 0.7416356205940247 0.3138345181941986
0.6013187170028687 0.7503858208656311 0.1741161048412323
0.6365967988967896 0.7504016757011414 0.025867847725749016
0.6547068953514099 0.7406654953956604 -0.12689873576164246
0.6486738324165344 0.7201853394508362 -0.28005826473236084
0.6115940809249878 0.6880157589912415 -0.4293898642063141
0.5367207527160645 0.6432793140411377 -0.5706082582473755
0.41756677627563477 0.5851908326148987 -0.6994081735610962
0.24802157282829285 0.5130816102027893 -0.8115190863609314
0.022478433325886726 0.4264247715473175 -0.9027721881866455
-0.26403379440307617 0.32485783100128174 -0.9691745042800903
