ply
format ascii 1.0
element vertex 512
property float x
property float y
property float z
end_header
-0.13514935970306396 -1.0366146564483643 1.0306226015090942
-0.12486796081066132 -1.0334277153015137 0.8738663792610168
-0.11458656191825867 -1.0302406549453735 0.7171100974082947
-0.10430516302585602 -1.027053713798523 0.5603538751602173
-0.09402376413345337 -1.0238666534423828 0.4035975933074951
-0.08374236524105072 -1.0206797122955322 0.24684134125709534
-0.07346096634864807 -1.0174927711486816 0.09008508175611496
-0.06317956745624542 -1.0143057107925415 -0.06667117774486542
-0.05289816856384277 -1.011118769645691 -0.2234274446964264
-0.042616769671440125 -1.0079317092895508 -0.38018369674682617
-0.03233536705374718 -1.0047447681427002 -0.5369399785995483
-0.022053970023989677 -1.00155770778656 -0.6936962008476257
-0.011772571131587029 -0.9983707666397095 -0.8504524827003479
-0.0014911716571077704 -0.9951837658882141 -1.0072087049484253
0.008790227584540844 -0.9919967651367188 -1.1639649868011475
0.019071627408266068 -0.9888098239898682 -1.3207212686538696
-0.34991270303726196 -1.01444673538208 1.0169873237609863
-0.3396312892436981 -1.01125967502594 0.8602311015129089
-0.32934990525245667 -1.0080727338790894 0.7034748196601868
-0.3190684914588928 -1.0048857927322388 0.5467185378074646
-0.30878710746765137 -1.0016987323760986 0.3899623155593872
-0.2985056936740875 -0.9985117316246033 0.23320604860782623
-0.28822430968284607 -0.9953247904777527 0.07644978165626526
-0.2779428958892822 -0.9921377897262573 -0.08030647784471512
-0.26766151189804077 -0.988950788974762 -0.2370627373456955
-0.25738009810447693 -0.9857637882232666 -0.39381900429725647
-0.24709871411323547 -0.9825767874717712 -0.5505752563476562
-0.23681731522083282 -0.9793898463249207 -0.7073315382003784
-0.22653591632843018 -0.9762028455734253 -0.8640877604484558
-0.21625451743602753 -0.9730158448219299 -1.0208441019058228
-0.20597311854362488 -0.9698288440704346 -1.1776002645492554
-0.19569171965122223 -0.9666418433189392 -1.3343565464019775
-0.5558835864067078 -0.9494229555130005 1.0048000812530518
-0.5456022024154663 -0.9462359547615051 0.8480437397956848
-0.5353208184242249 -0.9430490136146545 0.6912875175476074
-0.5250394344329834 -0.9398620128631592 0.5345312356948853
-0.5147579908370972 -0.9366750121116638 0.3777749836444855
-0.5044766068458557 -0.9334880113601685 0.2210187166929245
-0.49419522285461426 -0.9303010106086731 0.06426245719194412
-0.4839138090610504 -0.9271140098571777 -0.09249380230903625
-0.47363242506980896 -0.9239270687103271 -0.24925006926059723
-0.4633510112762451 -0.9207400679588318 -0.4060063362121582
-0.45306962728500366 -0.9175530672073364 -0.5627625584602356
-0.4427882134914398 -0.9143660664558411 -0.7195188403129578
-0.43250682950019836 -0.9111790657043457 -0.8762751221656799
-0.4222254157066345 -0.9079921245574951 -1.0330313444137573
-0.41194403171539307 -0.9048051238059998 -1.1897876262664795
-0.4016626179218292 -0.9016181230545044 -1.3465439081192017
-0.7446296215057373 -0.8442054986953735 0.994559645652771
-0.7343481779098511 -0.8410184979438782 0.8378033638000488
-0.7240667939186096 -0.8378314971923828 0.6810470819473267
-0.7137854099273682 -0.8346445560455322 0.5242908596992493
-0.7035040259361267 -0.8314575552940369 0.3675345778465271
-0.6932225823402405 -0.8282705545425415 0.21077832579612732
-0.682941198348999 -0.8250835537910461 0.05402206629514694
-0.6726598143577576 -0.8218965530395508 -0.10273419320583344
-0.6623784303665161 -0.8187095522880554 -0.2594904601573944
-0.6520969867706299 -0.8155226111412048 -0.4162467122077942
-0.6418156027793884 -0.8123356103897095 -0.5730029940605164
-0.631534218788147 -0.8091486096382141 -0.7297592163085938
-0.6212528347969055 -0.8059616088867188 -0.8865154981613159
-0.6109713912010193 -0.8027746081352234 -1.043271780014038
-0.6006900072097778 -0.7995876669883728 -1.2000280618667603
-0.5904086232185364 -0.7964006662368774 -1.3567842245101929
-0.9084234237670898 -0.7031019330024719 0.9866853952407837
-0.8981419801712036 -0.6999149322509766 0.8299291729927063
-0.8878605961799622 -0.6967279314994812 0.6731728911399841
-0.8775792121887207 -0.6935409307479858 0.516416609287262
-0.8672978281974792 -0.6903539896011353 0.3596603572368622
-0.857016384601593 -0.6871669888496399 0.2029041051864624
-0.8467350006103516 -0.6839799880981445 0.04614784196019173
-0.8364536166191101 -0.6807929873466492 -0.11060842126607895
-0.8261722326278687 -0.6776059865951538 -0.2673646807670593
-0.8158907890319824 -0.6744189858436584 -0.4241209328174591
-0.805609405040741 -0.6712320446968079 -0.5808771848678589
-0.7953280210494995 -0.6680450439453125 -0.737633466720581
-0.7850466370582581 -0.6648580431938171 -0.8943897485733032
-0.7747651934623718 -0.6616710424423218 -1.0511460304260254
-0.7644838094711304 -0.6584840416908264 -1.207902193069458
-0.7542024254798889 -0.6552971005439758 -1.3646584749221802
-1.0405592918395996 -0.531889021396637 0.9814997315406799
-1.0302778482437134 -0.5287020206451416 0.8247434496879578
-1.0199965238571167 -0.525515079498291 0.6679872274398804
-1.0097150802612305 -0.5223280787467957 0.5112309455871582
-0.999433696269989 -0.5191410779953003 0.3544746935367584
-0.9891522526741028 -0.5159540772438049 0.19771842658519745
-0.9788708686828613 -0.5127670764923096 0.040962159633636475
-0.9685894846916199 -0.509580135345459 -0.1157940998673439
-0.9583081007003784 -0.5063931345939636 -0.2725503742694855
-0.9480266571044922 -0.5032061338424683 -0.42930662631988525
-0.9377452731132507 -0.5000191330909729 -0.5860629081726074
-0.9274638891220093 -0.4968321621417999 -0.7428191304206848
-0.9171825051307678 -0.49364516139030457 -0.899575412273407
-0.9069010615348816 -0.4904581606388092 -1.0563316345214844
-0.8966196775436401 -0.48727118968963623 -1.2130879163742065
-0.8863382935523987 -0.48408418893814087 -1.3698441982269287
-1.1356275081634521 -0.33757632970809937 0.9792149066925049
-1.1253461837768555 -0.334389328956604 0.8224586248397827
-1.1150647401809692 -0.33120232820510864 0.6657023429870605
-1.1047834157943726 -0.32801535725593567 0.5089461207389832
-1.0945019721984863 -0.3248283565044403 0.352189838886261
-1.0842205286026 -0.32164138555526733 0.1954335868358612
-1.0739392042160034 -0.318454384803772 0.03867732360959053
-1.0636577606201172 -0.3152673840522766 -0.11807893216609955
-1.053376317024231 -0.31208041310310364 -0.2748351991176605
-1.0430949926376343 -0.3088934123516083 -0.4315914511680603
-1.032813549041748 -0.3057064116001129 -0.5883477330207825
-1.0225322246551514 -0.30251944065093994 -0.7451039552688599
-1.0122507810592651 -0.2993324398994446 -0.901860237121582
-1.001969337463379 -0.2961454391479492 -1.0586165189743042
-0.9916879534721375 -0.29295846819877625 -1.2153728008270264
-0.981406569480896 -0.2897714674472809 -1.372128963470459
-1.1897361278533936 -0.12811894714832306 0.9799244403839111
-1.1794548034667969 -0.12493196129798889 0.823168158531189
-1.1691733598709106 -0.12174497544765472 0.6664119362831116
-1.1588919162750244 -0.11855798214673996 0.5096556544303894
-1.1486105918884277 -0.11537099629640579 0.3528994023799896
-1.1383291482925415 -0.11218400299549103 0.19614313542842865
-1.1280477046966553 -0.10899701714515686 0.03938687592744827
-1.1177663803100586 -0.1058100238442421 -0.1173693835735321
-1.1074849367141724 -0.10262303799390793 -0.2741256356239319
-1.0972036123275757 -0.09943604469299316 -0.43088191747665405
-1.0869221687316895 -0.0962490513920784 -0.5876381397247314
-1.0766407251358032 -0.09306206554174423 -0.7443944215774536
-1.0663594007492065 -0.08987507224082947 -0.9011507034301758
-1.0560779571533203 -0.0866880863904953 -1.057906985282898
-1.045796513557434 -0.08350109308958054 -1.2146632671356201
-1.0355151891708374 -0.08031410723924637 -1.3714194297790527
-1.2006698846817017 0.08790785819292068 0.9835993051528931
-1.1903884410858154 0.09109484404325485 0.8268430829048157
-1.1801069974899292 0.09428183734416962 0.6700868010520935
-1.1698256731033325 0.09746882319450378 0.5133305191993713
-1.1595442295074463 0.10065581649541855 0.35657429695129395
-1.14926278591156 0.10384280234575272 0.19981802999973297
-1.1389814615249634 0.10702979564666748 0.043061763048172
-1.1287000179290771 0.11021678149700165 -0.11369449645280838
-1.1184186935424805 0.11340377479791641 -0.27045077085494995
-1.1081372499465942 0.11659076064825058 -0.42720702290534973
-1.097855806350708 0.11977775394916534 -0.5839632749557495
-1.0875744819641113 0.12296473979949951 -0.7407195568084717
-1.077293038368225 0.12615172564983368 -0.8974757790565491
-1.0670115947723389 0.12933872640132904 -1.0542320013046265
-1.0567302703857422 0.1325257122516632 -1.2109882831573486
-1.046448826789856 0.13571269810199738 -1.3677445650100708
-1.1679810285568237 0.3016599416732788 0.9900891184806824
-1.1576995849609375 0.30484694242477417 0.8333328366279602
-1.1474181413650513 0.30803391337394714 0.676576554775238
-1.1371368169784546 0.3112209141254425 0.5198203325271606
-1.1268553733825684 0.3144078850746155 0.3630640506744385
-1.1165739297866821 0.31759488582611084 0.2063077986240387
-1.1062926054000854 0.3207818865776062 0.04955153912305832
-1.0960111618041992 0.3239688575267792 -0.10720472037792206
-1.0857298374176025 0.32715585827827454 -0.26396098732948303
-1.0754483938217163 0.3303428590297699 -0.4207172393798828
-1.06516695022583 0.33352982997894287 -0.577473521232605
-1.0548856258392334 0.33671683073043823 -0.7342297434806824
-1.0446041822433472 0.3399038016796112 -0.8909860253334045
-1.034322738647461 0.34309080243110657 -1.047742247581482
-1.0240414142608643 0.34627780318260193 -1.204498529434204
-1.013759970664978 0.3494647741317749 -1.3612548112869263
-1.0930079221725464 0.5043862462043762 0.9991280436515808
-1.0827264785766602 0.5075732469558716 0.8423718214035034
-1.072445034980774 0.5107602477073669 0.6856155395507812
-1.0621637105941772 0.5139472484588623 0.5288593173027039
-1.051882266998291 0.5171342492103577 0.3721030354499817
-1.0416009426116943 0.5203211903572083 0.21534676849842072
-1.031319499015808 0.5235081911087036 0.05859050899744034
-1.0210380554199219 0.526695191860199 -0.09816575050354004
-1.0107567310333252 0.5298821926116943 -0.2549220025539398
-1.000475287437439 0.5330691933631897 -0.411678284406662
-0.9901939034461975 0.5362561345100403 -0.5684345364570618
-0.979912519454956 0.5394431352615356 -0.7251908183097839
-0.9696310758590698 0.542630136013031 -0.8819470405578613
-0.9593496918678284 0.5458171367645264 -1.0387033224105835
-0.9490683078765869 0.5490041375160217 -1.1954596042633057
-0.9387868642807007 0.5521911382675171 -1.3522158861160278
-0.9788199663162231 0.6877871751785278 1.0103461742401123
-0.9685385227203369 0.6909741759300232 0.8535898923873901
-0.9582571387290955 0.6941611766815186 0.6968336701393127
-0.947975754737854 0.6973481774330139 0.5400773882865906
-0.9376943707466125 0.7005351781845093 0.3833211362361908
-0.9274129271507263 0.7037221193313599 0.22656486928462982
-0.9171315431594849 0.7069091200828552 0.06980861723423004
-0.9068501591682434 0.7100961208343506 -0.08694764226675034
-0.896568775177002 0.713283121585846 -0.2437039017677307
-0.8862873315811157 0.7164701223373413 -0.4004601538181305
-0.8760059475898743 0.7196570634841919 -0.5572164058685303
-0.8657245635986328 0.7228440642356873 -0.7139726877212524
-0.8554431796073914 0.7260310649871826 -0.8707289695739746
-0.8451617360115051 0.729218065738678 -1.0274852514266968
-0.8348803520202637 0.7324050664901733 -1.1842414140701294
-0.8245989680290222 0.7355920672416687 -1.3409976959228516
-0.8300920128822327 0.8443542718887329 1.0232841968536377
-0.8198106288909912 0.8475412726402283 0.8665279150009155
-0.8095292448997498 0.8507282733917236 0.7097716331481934
-0.7992478013038635 0.8539152145385742 0.5530153512954712
-0.7889664173126221 0.8571022152900696 0.3962590992450714
-0.7786850333213806 0.8602892160415649 0.23950284719467163
-0.7684036493301392 0.8634762167930603 0.08274658769369125
-0.7581222057342529 0.8666632175445557 -0.07400967180728912
-0.7478408217430115 0.8698501586914062 -0.2307659238576889
-0.73755943775177 0.8730371594429016 -0.3875221908092499
-0.7272780537605286 0.876224160194397 -0.5442784428596497
-0.7169966101646423 0.8794111609458923 -0.7010347247123718
-0.7067152261734009 0.8825981616973877 -0.8577909469604492
-0.6964338421821594 0.8857851624488831 -1.0145472288131714
-0.686152458190918 0.8889721035957336 -1.1713035106658936
-0.6758710145950317 0.892159104347229 -1.3280597925186157
-0.6529130935668945 0.9676775932312012 1.0374122858047485
-0.6426317095756531 0.9708645939826965 0.8806560635566711
-0.6323502659797668 0.9740515947341919 0.723899781703949
-0.6220688819885254 0.9772385954856873 0.5671435594558716
-0.6117874979972839 0.9804255962371826 0.4103872776031494
-0.6015061140060425 0.9836125373840332 0.25363102555274963
-0.5912246704101562 0.9867995381355286 0.09687475115060806
-0.5809432864189148 0.9899865388870239 -0.059881508350372314
-0.5706619024276733 0.9931735396385193 -0.2166377753019333
-0.5603805184364319 0.9963605403900146 -0.37339404225349426
-0.5500990748405457 0.9995474815368652 -0.530150294303894
-0.5398176908493042 1.0027345418930054 -0.6869065761566162
-0.5295363068580627 1.005921483039856 -0.8436627984046936
-0.5192549228668213 1.0091084241867065 -1.000419020652771
-0.5089734792709351 1.0122954845428467 -1.1571753025054932
-0.4986920952796936 1.0154824256896973 -1.3139315843582153
-0.4545368254184723 1.052708387374878 1.0521522760391235
-0.44425544142723083 1.0558953285217285 0.8953959941864014
-0.433974027633667 1.0590823888778687 0.7386397123336792
-0.42369264364242554 1.0622693300247192 0.5818834900856018
-0.4134112298488617 1.0654562711715698 0.42512720823287964
-0.40312984585762024 1.06864333152771 0.26837095618247986
-0.3928484320640564 1.0718302726745605 0.11161468923091888
-0.38256704807281494 1.0750173330307007 -0.04514157027006149
-0.3722856342792511 1.0782042741775513 -0.20189782977104187
-0.36200422048568726 1.0813912153244019 -0.35865408182144165
-0.3517228364944458 1.084578275680542 -0.5154103636741638
-0.34144142270088196 1.0877652168273926 -0.6721665859222412
-0.3311600387096405 1.0909522771835327 -0.8289228677749634
-0.32087862491607666 1.0941392183303833 -0.9856791496276855
-0.3105972409248352 1.0973261594772339 -1.1424354314804077
-0.30031582713127136 1.100513219833374 -1.2991917133331299
-0.24308481812477112 1.0959653854370117 1.0669004917144775
-0.23280341923236847 1.0991523265838623 0.9101442694664001
-0.22252202033996582 1.102339267730713 0.753387987613678
-0.21224062144756317 1.105526328086853 0.5966317057609558
-0.20195922255516052 1.1087132692337036 0.4398754835128784
-0.19167782366275787 1.1119003295898438 0.28311920166015625
-0.18139642477035522 1.1150872707366943 0.12636294960975647
-0.17111502587795258 1.118274211883545 -0.030393309891223907
-0.16083361208438873 1.121461272239685 -0.18714956939220428
-0.15055221319198608 1.1246482133865356 -0.34390583634376526
-0.14027081429958344 1.1278352737426758 -0.500662088394165
-0.1299894154071808 1.1310222148895264 -0.6574183702468872
-0.11970802396535873 1.134209156036377 -0.8141745924949646
-0.10942662507295609 1.137396216392517 -0.9709308743476868
-0.09914522618055344 1.1405831575393677 -1.1276870965957642
-0.08886382728815079 1.1437702178955078 -1.2844433784484863
-0.02721390686929226 1.0956776142120361 1.0810532569885254
-0.01693250797688961 1.0988645553588867 0.924297034740448
-0.006651109084486961 1.1020516157150269 0.7675407528877258
0.003630290040746331 1.1052385568618774 0.6107845306396484
0.013911688700318336 1.108425498008728 0.45402824878692627
0.024193087592720985 1.1116125583648682 0.2972719967365265
0.034474488347768784 1.1147994995117188 0.14051572978496552
0.04475588724017143 1.1179865598678589 -0.016240524128079414
0.05503728613257408 1.1211735010147095 -0.17299678921699524
0.06531868129968643 1.1243605613708496 -0.329753041267395
0.07560008019208908 1.1275475025177002 -0.4865092933177948
0.08588147908449173 1.1307344436645508 -0.6432655453681946
0.09616287797689438 1.133921504020691 -0.8000218272209167
0.10644428431987762 1.1371084451675415 -0.9567781090736389
0.11672568321228027 1.1402955055236816 -1.1135343313217163
0.12700708210468292 1.1434824466705322 -1.2702906131744385
0.18423810601234436 1.0518568754196167 1.0940312147140503
0.194519504904747 1.0550439357757568 0.9372749328613281
0.20480090379714966 1.0582308769226074 0.780518651008606
0.2150823026895523 1.0614179372787476 0.6237624287605286
0.22536370158195496 1.0646048784255981 0.4670061469078064
0.2356451004743576 1.0677918195724487 0.3102498948574066
0.24592649936676025 1.0709788799285889 0.15349362790584564
0.2562079131603241 1.0741658210754395 -0.003262627637013793
0.26648929715156555 1.0773528814315796 -0.1600188910961151
0.2767707109451294 1.0805398225784302 -0.3167751431465149
0.28705209493637085 1.0837267637252808 -0.4735313951969147
0.2973335087299347 1.086913824081421 -0.6302876472473145
0.30761489272117615 1.0901007652282715 -0.7870439291000366
0.31789630651474 1.0932878255844116 -0.9438002109527588
0.32817769050598145 1.0964747667312622 -1.100556492805481
0.3384591042995453 1.0996618270874023 -1.2573126554489136
0.3826143741607666 0.9662973284721375 1.1053029298782349
0.39289575815200806 0.9694843292236328 0.9485466480255127
0.4031771719455719 0.9726713299751282 0.7917903661727905
0.41345855593681335 0.9758583307266235 0.6350340843200684
0.4237399697303772 0.9790452718734741 0.4782778322696686
0.43402135372161865 0.9822322726249695 0.3215215802192688
0.4443027675151825 0.9854192733764648 0.16476532816886902
0.45458415150642395 0.9886062741279602 0.008009062148630619
0.4648655652999878 0.9917932748794556 -0.14874720573425293
0.47514694929122925 0.9949802756309509 -0.3055034577846527
0.4854283630847931 0.9981672167778015 -0.4622597098350525
0.49570974707603455 1.0013542175292969 -0.6190159916877747
0.5059911608695984 1.0045411586761475 -0.775772213935852
0.5162725448608398 1.0077282190322876 -0.9325284957885742
0.5265539288520813 1.0109151601791382 -1.0892847776412964
0.5368353724479675 1.0141022205352783 -1.2460410594940186
0.5597932934761047 0.8425016403198242 1.114406943321228
0.570074737071991 0.8456886410713196 0.9576506614685059
0.5803561210632324 0.8488756418228149 0.8008943796157837
0.5906375050544739 0.8520626425743103 0.6441380977630615
0.6009188890457153 0.8552496433258057 0.48738187551498413
0.6112003326416016 0.8584365844726562 0.33062559366226196
0.621481716632843 0.8616235852241516 0.17386934161186218
0.6317631006240845 0.864810585975647 0.017113080248236656
0.6420444846153259 0.8679975867271423 -0.13964317739009857
0.6523259282112122 0.8711845874786377 -0.29639944434165955
0.6626073122024536 0.8743715882301331 -0.4531556963920593
0.6728886961936951 0.8775585293769836 -0.6099119782447815
0.6831700801849365 0.880745530128479 -0.7666682004928589
0.6934515237808228 0.8839325308799744 -0.923424482345581
0.7037329077720642 0.8871195316314697 -1.0801807641983032
0.7140142917633057 0.8903065323829651 -1.2369370460510254
0.7085212469100952 0.685538113117218 1.1209704875946045
0.7188026309013367 0.6887251138687134 0.9642142653465271
0.7290840148925781 0.691912055015564 0.8074579834938049
0.7393653988838196 0.6950990557670593 0.6507017612457275
0.7496468424797058 0.6982860565185547 0.49394547939300537
0.7599282264709473 0.70147305727005 0.3371892273426056
0.7702096104621887 0.7046600580215454 0.1804329752922058
0.7804909944534302 0.7078470587730408 0.023676708340644836
0.7907724380493164 0.7110339999198914 -0.13307955861091614
0.8010538220405579 0.7142210006713867 -0.2898358106613159
0.8113352060317993 0.7174080014228821 -0.4465920627117157
0.8216165900230408 0.7205950021743774 -0.6033483147621155
0.831898033618927 0.7237820029258728 -0.7601045966148376
0.8421794176101685 0.7269689440727234 -0.9168608784675598
0.8524608016014099 0.7301559448242188 -1.0736171007156372
0.8627421855926514 0.7333429455757141 -1.2303733825683594
0.8227091431617737 0.5018327832221985 1.124725103378296
0.8329905867576599 0.5050197839736938 0.9679688215255737
0.8432719707489014 0.5082067251205444 0.8112125396728516
0.8535533547401428 0.5113937258720398 0.6544562578201294
0.8638347387313843 0.5145807266235352 0.4977000057697296
0.8741161823272705 0.5177677273750305 0.34094375371932983
0.884397566318512 0.5209547281265259 0.18418748676776886
0.8946789503097534 0.5241416692733765 0.02743123099207878
0.9049603343009949 0.5273286700248718 -0.1293250322341919
0.9152417778968811 0.5305156707763672 -0.2860812842845917
0.9255231618881226 0.5337026715278625 -0.44283756613731384
0.935804545879364 0.5368896722793579 -0.5995938181877136
0.9460859298706055 0.5400766730308533 -0.7563501000404358
0.9563673734664917 0.5432636141777039 -0.9131063222885132
0.9666487574577332 0.5464506149291992 -1.0698626041412354
0.9769301414489746 0.5496376156806946 -1.2266188859939575
0.897682249546051 0.2989065647125244 1.1255167722702026
0.9079636335372925 0.3020935654640198 0.9687604904174805
0.9182450771331787 0.30528056621551514 0.8120042085647583
0.9285264611244202 0.3084675371646881 0.6552479863166809
0.9388078451156616 0.31165453791618347 0.49849170446395874
0.9490892291069031 0.31484153866767883 0.34173545241355896
0.9593706727027893 0.3180285096168518 0.18497920036315918
0.9696520566940308 0.32121551036834717 0.028222935274243355
0.9799334406852722 0.32440251111984253 -0.12853331863880157
0.9902148246765137 0.3275894820690155 -0.28528958559036255
1.0004962682724 0.33077648282051086 -0.44204583764076233
1.0107775926589966 0.33396345376968384 -0.5988020896911621
1.0210590362548828 0.3371504545211792 -0.7555583715438843
1.031340479850769 0.34033745527267456 -0.9123146533966064
1.0416218042373657 0.34352442622184753 -1.0690709352493286
1.051903247833252 0.3467114269733429 -1.2258270978927612
0.930371105670929 0.08506735414266586 1.1233131885528564
0.9406524896621704 0.08825433999300003 0.966556966304779
0.9509339332580566 0.0914413332939148 0.8098006844520569
0.9612153172492981 0.09462831914424896 0.6530444622039795
0.9714967012405396 0.09781531244516373 0.4962881803512573
0.981778085231781 0.1010022982954979 0.33953192830085754
0.9920595288276672 0.10418929159641266 0.18277567625045776
1.0023409128189087 0.10737627744674683 0.02601940929889679
1.012622356414795 0.11056327074766159 -0.13073685765266418
1.0229036808013916 0.11375025659799576 -0.28749310970306396
1.0331851243972778 0.11693724989891052 -0.44424936175346375
1.0434664487838745 0.12012423574924469 -0.6010056138038635
1.0537478923797607 0.12331122905015945 -0.7577618956565857
1.064029335975647 0.12649822235107422 -0.9145181775093079
1.0743106603622437 0.1296852082014084 -1.0712743997573853
1.0845921039581299 0.13287219405174255 -1.2280306816101074
0.9194374084472656 -0.13093030452728271 1.1182047128677368
0.9297188520431519 -0.12774331867694855 0.9614484310150146
0.9400002360343933 -0.12455633282661438 0.8046921491622925
0.9502816200256348 -0.12136933952569962 0.6479359269142151
0.9605630040168762 -0.11818234622478485 0.4911796450614929
0.9708444476127625 -0.11499536037445068 0.33442339301109314
0.9811258316040039 -0.11180836707353592 0.17766712605953217
0.9914072155952454 -0.10862138122320175 0.020910868421196938
1.0016885995864868 -0.10543438792228699 -0.1358453929424286
1.011970043182373 -0.10224740207195282 -0.29260164499282837
1.0222513675689697 -0.09906040877103806 -0.44935792684555054
1.032532811164856 -0.09587342292070389 -0.6061141490936279
1.0428142547607422 -0.09268642961978912 -0.7628704309463501
1.0530955791473389 -0.08949944376945496 -0.9196267127990723
1.063377022743225 -0.08631245046854019 -1.0763829946517944
1.0736584663391113 -0.08312546461820602 -1.233139157295227
0.865328848361969 -0.3402434289455414 1.1104003190994263
0.8756102323532104 -0.337056428194046 0.9536440372467041
0.8858916163444519 -0.33386945724487305 0.7968877553939819
0.8961730599403381 -0.3306824564933777 0.6401314735412598
0.9064544439315796 -0.3274954855442047 0.48337522149086
0.916735827922821 -0.32430848479270935 0.3266189694404602
0.9270172119140625 -0.321121484041214 0.16986271739006042
0.9372986555099487 -0.317934513092041 0.01310645416378975
0.9475800395011902 -0.31474751234054565 -0.14364980161190033
0.9578614234924316 -0.3115605115890503 -0.3004060685634613
0.9681428074836731 -0.3083735406398773 -0.4571623206138611
0.9784242510795593 -0.30518653988838196 -0.6139186024665833
0.9887056350708008 -0.301999568939209 -0.7706748247146606
0.9989870190620422 -0.2988125681877136 -0.9274311065673828
1.0092684030532837 -0.29562556743621826 -1.084187388420105
1.01954984664917 -0.2924385964870453 -1.2409436702728271
0.7702605724334717 -0.5343027114868164 1.100219488143921
0.7805419564247131 -0.531115710735321 0.9434632658958435
0.7908233404159546 -0.5279287099838257 0.7867069840431213
0.801104724407196 -0.5247417688369751 0.6299507021903992
0.8113861680030823 -0.5215547680854797 0.4731944501399994
0.8216675519943237 -0.5183677673339844 0.3164381980895996
0.8319489359855652 -0.515180766582489 0.15968194603919983
0.8422303199768066 -0.5119937658309937 0.002925681648775935
0.8525117635726929 -0.5088068246841431 -0.15383057296276093
0.8627931475639343 -0.5056198239326477 -0.3105868399143219
0.8730745315551758 -0.5024328231811523 -0.4673430919647217
0.883355975151062 -0.499245822429657 -0.6240993738174438
0.8936373591423035 -0.496058851480484 -0.7808555960655212
0.9039187431335449 -0.49287185072898865 -0.9376118779182434
0.9142001271247864 -0.4896848499774933 -1.0943681001663208
0.9244815707206726 -0.4864978790283203 -1.251124382019043
0.6381247043609619 -0.7051633596420288 1.0880792140960693
0.6484060883522034 -0.7019763588905334 0.9313229322433472
0.6586874723434448 -0.6987893581390381 0.774566650390625
0.6689688563346863 -0.6956023573875427 0.6178103685379028
0.6792502999305725 -0.6924153566360474 0.46105414628982544
0.689531683921814 -0.6892284154891968 0.30429786443710327
0.6998130679130554 -0.6860414147377014 0.1475416123867035
0.7100944519042969 -0.682854413986206 -0.00921464804559946
0.7203758955001831 -0.6796674132347107 -0.16597090661525726
0.7306572794914246 -0.6764804124832153 -0.32272717356681824
0.740938663482666 -0.6732934713363647 -0.479483425617218
0.7512200474739075 -0.6701064705848694 -0.6362397074699402
0.7615014910697937 -0.666919469833374 -0.7929959297180176
0.7717828750610352 -0.6637324690818787 -0.9497522115707397
0.7820642590522766 -0.6605454683303833 -1.106508493423462
0.7923456430435181 -0.6573585271835327 -1.263264775276184
0.474330872297287 -0.8458302617073059 1.0744763612747192
0.48461228609085083 -0.8426432609558105 0.9177200794219971
0.4948936700820923 -0.83945631980896 0.7609637975692749
0.5051750540733337 -0.8362693190574646 0.6042075157165527
0.51545649766922 -0.8330823183059692 0.44745126366615295
0.5257378816604614 -0.8298953175544739 0.2906950116157532
0.5360192656517029 -0.8267083168029785 0.1339387446641922
0.5463006496429443 -0.8235213160514832 -0.02281750924885273
0.5565820932388306 -0.8203343749046326 -0.17957377433776855
0.566863477230072 -0.8171473741531372 -0.33633002638816833
0.5771448612213135 -0.8139603734016418 -0.4930862784385681
0.5874262452125549 -0.8107733726501465 -0.6498425602912903
0.5977076888084412 -0.8075863718986511 -0.8065987825393677
0.6079890727996826 -0.8043994307518005 -0.9633550643920898
0.6182704567909241 -0.8012124300003052 -1.120111346244812
0.6285518407821655 -0.7980254292488098 -1.2768676280975342
0.2855848968029022 -0.9505445957183838 1.0599678754806519
0.2958662807941437 -0.9473575949668884 0.9032115936279297
0.3061476945877075 -0.9441705942153931 0.7464553117752075
0.316429078578949 -0.9409835934638977 0.5896990299224854
0.3267104923725128 -0.9377965927124023 0.43294277787208557
0.3369918763637543 -0.9346096515655518 0.2761865258216858
0.3472732901573181 -0.9314226508140564 0.11943026632070541
0.35755467414855957 -0.928235650062561 -0.03732599690556526
0.3678360879421234 -0.9250486493110657 -0.19408226013183594
0.37811747193336487 -0.9218616485595703 -0.3508385121822357
0.3883988857269287 -0.918674647808075 -0.5075947642326355
0.39868026971817017 -0.9154877066612244 -0.6643510460853577
0.408961683511734 -0.912300705909729 -0.8211073279380798
0.41924306750297546 -0.9091137051582336 -0.9778635501861572
0.4295244812965393 -0.9059267044067383 -1.1346198320388794
0.43980586528778076 -0.9027397036552429 -1.2913761138916016
0.07961398363113403 -1.015019178390503 1.0451476573944092
0.08989538252353668 -1.0118322372436523 0.8883914351463318
0.10017678141593933 -1.0086452960968018 0.7316351532936096
0.11045818030834198 -1.0054582357406616 0.5748789310455322
0.12073957920074463 -1.002271294593811 0.41812264919281006
0.13102097809314728 -0.9990842938423157 0.2613663971424103
0.14130237698554993 -0.9958972930908203 0.1046101301908493
0.15158377587795258 -0.992710292339325 -0.05214613303542137
0.16186517477035522 -0.9895232915878296 -0.20890238881111145
0.17214657366275787 -0.986336350440979 -0.36565864086151123
0.18242797255516052 -0.9831493496894836 -0.5224149227142334
0.19270937144756317 -0.9799623489379883 -0.6791712045669556
0.20299077033996582 -0.9767753481864929 -0.835927426815033
0.21327216923236847 -0.9735883474349976 -0.9926837086677551
0.22355356812477112 -0.9704013466835022 -1.1494399309158325
0.23383496701717377 -0.9672144055366516 -1.3061962127685547
-0.13514935970306396 -1.0366146564483643 1.0306226015090942
-0.12486796081066132 -1.0334277153015137 0.8738663792610168
-0.11458656191825867 -1.0302406549453735 0.7171100974082947
-0.10430516302585602 -1.027053713798523 0.5603538751602173
-0.09402376413345337 -1.0238666534423828 0.4035975933074951
-0.08374236524105072 -1.0206797122955322 0.24684134125709534
-0.07346096634864807 -1.0174927711486816 0.09008508175611496
-0.06317956745624542 -1.0143057107925415 -0.06667117774486542
-0.05289816856384277 -1.011118769645691 -0.2234274446964264
-0.042616769671440125 -1.0079317092895508 -0.38018369674682617
-0.03233536705374718 -1.0047447681427002 -0.5369399785995483
-0.022053970023989677 -1.00155770778656 -0.6936962008476257
-0.011772571131587029 -0.9983707666397095 -0.8504524827003479
-0.0014911716571077704 -0.9951837658882141 -1.0072087049484253
0.008790227584540844 -0.9919967651367188 -1.1639649868011475
0.019071627408266068 -0.9888098239898682 -1.3207212686538696
