ply
format ascii 1.0
element vertex 512
property float x
property float y
property float z
end_header
-1.4811657667160034 -1.7533738613128662 0.010818958282470703
-1.3013116121292114 -1.7533738613128662 0.010400529019534588
-1.1214574575424194 -1.7533738613128662 0.009982099756598473
-0.9416033029556274 -1.7533738613128662 0.009563670493662357
-0.7617491483688354 -1.7533738613128662 0.009145240299403667
-0.5818949341773987 -1.7533738613128662 0.008726811036467552
-0.4020408093929291 -1.7533738613128662 0.008308381773531437
-0.2221866399049759 -1.7533738613128662 0.007889952510595322
-0.0423324815928936 -1.7533738613128662 0.007471523247659206
0.1375216841697693 -1.7533738613128662 0.007053093984723091
0.3173758387565613 -1.7533738613128662 0.0066346642561256886
0.49722999334335327 -1.7533738613128662 0.006216234993189573
0.6770841479301453 -1.7533738613128662 0.005797805730253458
0.8569383025169373 -1.7533738613128662 0.0053793760016560555
1.036792516708374 -1.7533738613128662 0.00496094673871994
1.216646671295166 -1.7533738613128662 0.004542517475783825
-1.4817205667495728 -1.7291252613067627 -0.22763541340827942
-1.3018664121627808 -1.7291252613067627 -0.22805383801460266
-1.1220122575759888 -1.7291252613067627 -0.2284722626209259
-0.942158043384552 -1.7291252613067627 -0.22889070212841034
-0.76230388879776 -1.7291252613067627 -0.22930912673473358
-0.582449734210968 -1.7291252613067627 -0.22972755134105682
-0.402595579624176 -1.7291252613067627 -0.23014597594738007
-0.22274141013622284 -1.7291252613067627 -0.2305644154548645
-0.04288724437355995 -1.7291252613067627 -0.23098284006118774
0.13696691393852234 -1.7291252613067627 -0.231401264667511
0.31682106852531433 -1.7291252613067627 -0.23181970417499542
0.4966752231121063 -1.7291252613067627 -0.23223812878131866
0.6765294075012207 -1.7291252613067627 -0.2326565533876419
0.8563835620880127 -1.7291252613067627 -0.23307499289512634
1.0362377166748047 -1.7291252613067627 -0.23349341750144958
1.2160918712615967 -1.7291252613067627 -0.23391184210777283
-1.482252597808838 -1.6573724746704102 -0.4563274085521698
-1.302398443222046 -1.6573724746704102 -0.45674586296081543
-1.122544288635254 -1.6573724746704102 -0.45716428756713867
-0.9426900744438171 -1.6573724746704102 -0.4575827121734619
-0.7628359198570251 -1.6573724746704102 -0.45800113677978516
-0.5829817652702332 -1.6573724746704102 -0.4584195613861084
-0.40312761068344116 -1.6573724746704102 -0.45883798599243164
-0.22327345609664917 -1.6573724746704102 -0.45925644040107727
-0.04341929405927658 -1.6573724746704102 -0.4596748650074005
0.136434867978096 -1.6573724746704102 -0.46009328961372375
0.3162890374660492 -1.6573724746704102 -0.460511714220047
0.4961431920528412 -1.6573724746704102 -0.46093013882637024
0.6759973764419556 -1.6573724746704102 -0.4613485634326935
0.8558515310287476 -1.6573724746704102 -0.4617670178413391
1.0357056856155396 -1.6573724746704102 -0.46218544244766235
1.2155598402023315 -1.6573724746704102 -0.4626038670539856
-1.4827401638031006 -1.541053056716919 -0.6658943891525269
-1.3028860092163086 -1.541053056716919 -0.6663128137588501
-1.1230318546295166 -1.541053056716919 -0.6667312979698181
-0.9431776404380798 -1.541053056716919 -0.6671497225761414
-0.7633234858512878 -1.541053056716919 -0.6675681471824646
-0.5834693312644958 -1.541053056716919 -0.6679865717887878
-0.40361517667770386 -1.541053056716919 -0.6684049963951111
-0.22376100718975067 -1.541053056716919 -0.6688234210014343
-0.04390685260295868 -1.541053056716919 -0.6692418456077576
0.1359473168849945 -1.541053056716919 -0.6696602702140808
0.3158014714717865 -1.541053056716919 -0.670078694820404
0.4956556260585785 -1.541053056716919 -0.6704971194267273
0.6755098104476929 -1.541053056716919 -0.6709155440330505
0.8553639650344849 -1.541053056716919 -0.6713339686393738
1.0352181196212769 -1.541053056716919 -0.671752393245697
1.2150722742080688 -1.541053056716919 -0.672170877456665
-1.4831632375717163 -1.3849289417266846 -0.8477566838264465
-1.3033090829849243 -1.3849289417266846 -0.8481751084327698
-1.1234549283981323 -1.3849289417266846 -0.848593533039093
-0.9436007738113403 -1.3849289417266846 -0.8490119576454163
-0.7637466192245483 -1.3849289417266846 -0.8494303822517395
-0.5838924050331116 -1.3849289417266846 -0.8498488068580627
-0.40403828024864197 -1.3849289417266846 -0.850267231464386
-0.22418411076068878 -1.3849289417266846 -0.8506856560707092
-0.04432995244860649 -1.3849289417266846 -0.8511040806770325
0.1355242133140564 -1.3849289417266846 -0.8515225648880005
0.3153783679008484 -1.3849289417266846 -0.8519409894943237
0.4952325224876404 -1.3849289417266846 -0.852359414100647
0.6750866770744324 -1.3849289417266846 -0.8527778387069702
0.8549408316612244 -1.3849289417266846 -0.8531962633132935
1.0347950458526611 -1.3849289417266846 -0.8536146879196167
1.2146492004394531 -1.3849289417266846 -0.8540331125259399
-1.4835045337677002 -1.19539213180542 -0.9944687485694885
-1.3036503791809082 -1.19539213180542 -0.9948871731758118
-1.1237962245941162 -1.19539213180542 -0.995305597782135
-0.9439420700073242 -1.19539213180542 -0.9957240223884583
-0.7640879154205322 -1.19539213180542 -0.9961424469947815
-0.5842337608337402 -1.19539213180542 -0.9965608716011047
-0.40437960624694824 -1.19539213180542 -0.996979296207428
-0.22452543675899506 -1.19539213180542 -0.997397780418396
-0.04467127472162247 -1.19539213180542 -0.9978162050247192
0.13518288731575012 -1.19539213180542 -0.9982346296310425
0.3150370419025421 -1.19539213180542 -0.9986530542373657
0.4948911964893341 -1.19539213180542 -0.999071478843689
0.6747453808784485 -1.19539213180542 -0.9994899034500122
0.8545995354652405 -1.19539213180542 -0.9999083280563354
1.0344536304473877 -1.19539213180542 -1.0003267526626587
1.2143079042434692 -1.19539213180542 -1.000745177268982
-1.4837501049041748 -0.9802020192146301 -1.1000242233276367
-1.3038959503173828 -0.9802020192146301 -1.10044264793396
-1.1240417957305908 -0.9802020192146301 -1.1008610725402832
-0.9441876411437988 -0.9802020192146301 -1.1012794971466064
-0.7643334865570068 -0.9802020192146301 -1.1016979217529297
-0.5844793319702148 -0.9802020192146301 -1.102116346359253
-0.40462517738342285 -0.9802020192146301 -1.1025347709655762
-0.22477100789546967 -0.9802020192146301 -1.1029531955718994
-0.044916849583387375 -0.9802020192146301 -1.1033716201782227
0.1349373161792755 -0.9802020192146301 -1.103790044784546
0.3147914707660675 -0.9802020192146301 -1.1042084693908691
0.4946456253528595 -0.9802020192146301 -1.1046268939971924
0.6744998097419739 -0.9802020192146301 -1.1050454378128052
0.8543539643287659 -0.9802020192146301 -1.1054638624191284
1.034208059310913 -0.9802020192146301 -1.1058822870254517
1.214062213897705 -0.9802020192146301 -1.106300711631775
-1.4838899374008179 -0.7481687068939209 -1.1601016521453857
-1.3040357828140259 -0.7481687068939209 -1.160520076751709
-1.1241816282272339 -0.7481687068939209 -1.1609385013580322
-0.9443274140357971 -0.7481687068939209 -1.1613569259643555
-0.7644732594490051 -0.7481687068939209 -1.1617753505706787
-0.5846191048622131 -0.7481687068939209 -1.162193775177002
-0.40476495027542114 -0.7481687068939209 -1.1626121997833252
-0.22491078078746796 -0.7481687068939209 -1.1630306243896484
-0.04505661875009537 -0.7481687068939209 -1.1634490489959717
0.13479754328727722 -0.7481687068939209 -1.163867473602295
0.3146516978740692 -0.7481687068939209 -1.1642858982086182
0.4945058524608612 -0.7481687068939209 -1.1647043228149414
0.6743600368499756 -0.7481687068939209 -1.1651228666305542
0.8542141914367676 -0.7481687068939209 -1.1655412912368774
1.0340683460235596 -0.7481687068939209 -1.1659597158432007
1.2139225006103516 -0.7481687068939209 -1.166378140449524
-1.4839181900024414 -0.5087915658950806 -1.172241449356079
-1.3040640354156494 -0.5087915658950806 -1.1726598739624023
-1.1242098808288574 -0.5087915658950806 -1.1730782985687256
-0.9443556666374207 -0.5087915658950806 -1.1734967231750488
-0.7645015120506287 -0.5087915658950806 -1.173915147781372
-0.5846473574638367 -0.5087915658950806 -1.1743335723876953
-0.4047931730747223 -0.5087915658950806 -1.1747519969940186
-0.2249390184879303 -0.5087915658950806 -1.1751704216003418
-0.045084863901138306 -0.5087915658950806 -1.175588846206665
0.1347692906856537 -0.5087915658950806 -1.1760072708129883
0.3146234452724457 -0.5087915658950806 -1.1764256954193115
0.49447762966156006 -0.5087915658950806 -1.1768442392349243
0.674331784248352 -0.5087915658950806 -1.1772626638412476
0.854185938835144 -0.5087915658950806 -1.1776810884475708
1.034040093421936 -0.5087915658950806 -1.178099513053894
1.213894248008728 -0.5087915658950806 -1.1785179376602173
-1.48383367061615 -0.27187079191207886 -1.1359466314315796
-1.303979516029358 -0.27187079191207886 -1.1363650560379028
-1.124125361442566 -0.27187079191207886 -1.136783480644226
-0.9442712068557739 -0.27187079191207886 -1.1372019052505493
-0.7644170522689819 -0.27187079191207886 -1.1376203298568726
-0.5845628976821899 -0.27187079191207886 -1.1380387544631958
-0.40470874309539795 -0.27187079191207886 -1.138457179069519
-0.22485458850860596 -0.27187079191207886 -1.1388756036758423
-0.04500042274594307 -0.27187079191207886 -1.1392940282821655
0.13485373556613922 -0.27187079191207886 -1.1397124528884888
0.3147079050540924 -0.27187079191207886 -1.140130877494812
0.4945620596408844 -0.27187079191207886 -1.1405493021011353
0.6744162440299988 -0.27187079191207886 -1.1409677267074585
0.8542703986167908 -0.27187079191207886 -1.1413861513137817
1.034124493598938 -0.27187079191207886 -1.1418046951293945
1.21397864818573 -0.27187079191207886 -1.1422231197357178
-1.4836400747299194 -0.047105904668569565 -1.0527030229568481
-1.3037859201431274 -0.047105904668569565 -1.0531214475631714
-1.1239317655563354 -0.047105904668569565 -1.0535399913787842
-0.9440775513648987 -0.047105904668569565 -1.0539584159851074
-0.7642233967781067 -0.047105904668569565 -1.0543768405914307
-0.5843692421913147 -0.047105904668569565 -1.054795265197754
-0.4045150876045227 -0.047105904668569565 -1.0552136898040771
-0.22466091811656952 -0.047105904668569565 -1.0556321144104004
-0.04480675980448723 -0.047105904668569565 -1.0560505390167236
0.13504740595817566 -0.047105904668569565 -1.0564689636230469
0.31490156054496765 -0.047105904668569565 -1.0568873882293701
0.49475571513175964 -0.047105904668569565 -1.0573058128356934
0.674609899520874 -0.047105904668569565 -1.0577242374420166
0.854464054107666 -0.047105904668569565 -1.0581426620483398
1.034318208694458 -0.047105904668569565 -1.058561086654663
1.21417236328125 -0.047105904668569565 -1.0589795112609863
-1.4833450317382812 0.15630118548870087 -0.9259188175201416
-1.3034908771514893 0.15630118548870087 -0.9263372421264648
-1.1236367225646973 0.15630118548870087 -0.9267556667327881
-0.94378262758255 0.15630118548870087 -0.9271740913391113
-0.7639284133911133 0.15630118548870087 -0.9275925159454346
-0.5840742588043213 0.15630118548870087 -0.9280109405517578
-0.4042201042175293 0.15630118548870087 -0.928429365158081
-0.2243659496307373 0.15630118548870087 -0.9288477897644043
-0.04451179504394531 0.15630118548870087 -0.9292662739753723
0.13534235954284668 0.15630118548870087 -0.9296846985816956
0.31519651412963867 0.15630118548870087 -0.9301031231880188
0.49505069851875305 0.15630118548870087 -0.930521547794342
0.6749048233032227 0.15630118548870087 -0.9309399724006653
0.8547589778900146 0.15630118548870087 -0.9313583970069885
1.0346131324768066 0.15630118548870087 -0.9317768216133118
1.2144672870635986 0.15630118548870087 -0.932195246219635
-1.4829609394073486 0.3300229609012604 -0.760784387588501
-1.3031067848205566 0.3300229609012604 -0.7612028121948242
-1.1232526302337646 0.3300229609012604 -0.7616212368011475
-0.9433984160423279 0.3300229609012604 -0.7620396614074707
-0.7635442614555359 0.3300229609012604 -0.762458086013794
-0.5836901068687439 0.3300229609012604 -0.7628765106201172
-0.4038359224796295 0.3300229609012604 -0.7632949352264404
-0.22398176789283752 0.3300229609012604 -0.7637134194374084
-0.04412761330604553 0.3300229609012604 -0.7641318440437317
0.13572655618190765 0.3300229609012604 -0.7645502686500549
0.31558069586753845 0.3300229609012604 -0.7649686932563782
0.49543488025665283 0.3300229609012604 -0.7653871178627014
0.6752890348434448 0.3300229609012604 -0.7658055424690247
0.8551431894302368 0.3300229609012604 -0.7662239670753479
1.0349973440170288 0.3300229609012604 -0.7666423916816711
1.2148514986038208 0.3300229609012604 -0.7670608162879944
-1.4825031757354736 0.4669472575187683 -0.5640604496002197
-1.3026490211486816 0.4669472575187683 -0.564478874206543
-1.1227948665618896 0.4669472575187683 -0.5648972988128662
-0.9429407119750977 0.4669472575187683 -0.5653157234191895
-0.7630865573883057 0.4669472575187683 -0.5657341480255127
-0.5832324028015137 0.4669472575187683 -0.5661525726318359
-0.4033782482147217 0.4669472575187683 -0.5665709972381592
-0.2235240936279297 0.4669472575187683 -0.5669894218444824
-0.0436699353158474 0.4669472575187683 -0.5674078464508057
0.1361842304468155 0.4669472575187683 -0.5678263306617737
0.3160383999347687 0.4669472575187683 -0.5682447552680969
0.49589255452156067 0.4669472575187683 -0.5686631798744202
0.6757466793060303 0.4669472575187683 -0.5690816044807434
0.855600893497467 0.4669472575187683 -0.5695000290870667
1.0354549884796143 0.4669472575187683 -0.5699184536933899
1.2153091430664062 0.4669472575187683 -0.5703368782997131
-1.4819908142089844 0.5614683628082275 -0.3438008427619934
-1.3021366596221924 0.5614683628082275 -0.34421929717063904
-1.1222825050354004 0.5614683628082275 -0.3446377217769623
-0.9424282908439636 0.5614683628082275 -0.3450561463832855
-0.7625741362571716 0.5614683628082275 -0.34547457098960876
-0.5827199816703796 0.5614683628082275 -0.345892995595932
-0.40286582708358765 0.5614683628082275 -0.34631142020225525
-0.22301165759563446 0.5614683628082275 -0.3467298746109009
-0.04315750300884247 0.5614683628082275 -0.3471482992172241
0.13669665157794952 0.5614683628082275 -0.34756672382354736
0.3165508210659027 0.5614683628082275 -0.3479851484298706
0.4964049756526947 0.5614683628082275 -0.34840357303619385
0.6762591600418091 0.5614683628082275 -0.3488219976425171
0.8561133146286011 0.5614683628082275 -0.34924042224884033
1.035967469215393 0.5614683628082275 -0.34965887665748596
1.215821623802185 0.5614683628082275 -0.3500773012638092
-1.4814445972442627 0.609716534614563 -0.1090230941772461
-1.3015904426574707 0.609716534614563 -0.10944152623414993
-1.1217362880706787 0.609716534614563 -0.10985995084047318
-0.9418820738792419 0.609716534614563 -0.11027838289737701
-0.76202791929245 0.609716534614563 -0.11069681495428085
-0.582173764705658 0.609716534614563 -0.1111152395606041
-0.40231961011886597 0.609716534614563 -0.11153367161750793
-0.22246545553207397 0.609716534614563 -0.11195210367441177
-0.042611293494701385 0.609716534614563 -0.11237052828073502
0.1372428685426712 0.609716534614563 -0.11278896033763885
0.3170970380306244 0.609716534614563 -0.1132073923945427
0.4969511926174164 0.609716534614563 -0.11362581700086594
0.6768053770065308 0.609716534614563 -0.11404424905776978
0.8566595315933228 0.609716534614563 -0.11446267366409302
1.0365136861801147 0.609716534614563 -0.11488110572099686
1.2163678407669067 0.609716534614563 -0.1152995377779007
-1.4808869361877441 0.609716534614563 0.1306610107421875
-1.3010327816009521 0.609716534614563 0.13024258613586426
-1.1211786270141602 0.609716534614563 0.12982414662837982
-0.9413244724273682 0.609716534614563 0.12940572202205658
-0.7614703178405762 0.609716534614563 0.12898729741573334
-0.5816161632537842 0.609716534614563 0.1285688579082489
-0.4017619788646698 0.609716534614563 0.12815043330192566
-0.2219078242778778 0.609716534614563 0.12773200869560242
-0.042053669691085815 0.609716534614563 0.12731356918811798
0.13780048489570618 0.609716534614563 0.12689514458179474
0.31765463948249817 0.609716534614563 0.1264767199754715
0.49750882387161255 0.609716534614563 0.12605829536914825
0.6773629784584045 0.609716534614563 0.12563985586166382
0.8572171330451965 0.609716534614563 0.12522143125534058
1.0370713472366333 0.609716534614563 0.12480299919843674
1.2169255018234253 0.609716534614563 0.1243845671415329
-1.4803407192230225 0.5614683628082275 0.3654387593269348
-1.3004865646362305 0.5614683628082275 0.3650203347206116
-1.1206324100494385 0.5614683628082275 0.36460191011428833
-0.9407782554626465 0.5614683628082275 0.3641834855079651
-0.7609241008758545 0.5614683628082275 0.36376506090164185
-0.5810699462890625 0.5614683628082275 0.3633466362953186
-0.4012157917022705 0.5614683628082275 0.362928181886673
-0.22136162221431732 0.5614683628082275 0.36250975728034973
-0.04150746017694473 0.5614683628082275 0.3620913326740265
0.13834670186042786 0.5614683628082275 0.36167290806770325
0.31820085644721985 0.5614683628082275 0.36125448346138
0.49805501103401184 0.5614683628082275 0.36083605885505676
0.6779091954231262 0.5614683628082275 0.36041760444641113
0.8577633500099182 0.5614683628082275 0.3599991798400879
1.0376174449920654 0.5614683628082275 0.35958075523376465
1.217471718788147 0.5614683628082275 0.3591623306274414
-1.4798283576965332 0.4669472575187683 0.5856983661651611
-1.2999742031097412 0.4669472575187683 0.5852799415588379
-1.1201200485229492 0.4669472575187683 0.5848615169525146
-0.9402658343315125 0.4669472575187683 0.5844430923461914
-0.7604116797447205 0.4669472575187683 0.5840246081352234
-0.5805575251579285 0.4669472575187683 0.5836061835289001
-0.4007033407688141 0.4669472575187683 0.5831877589225769
-0.2208491861820221 0.4669472575187683 0.5827693343162537
-0.040995027869939804 0.4669472575187683 0.5823509097099304
0.13885913789272308 0.4669472575187683 0.5819324851036072
0.3187132775783539 0.4669472575187683 0.5815140604972839
0.49856746196746826 0.4669472575187683 0.5810956358909607
0.6784216165542603 0.4669472575187683 0.5806772112846375
0.8582757711410522 0.4669472575187683 0.5802587866783142
1.0381299257278442 0.4669472575187683 0.579840362071991
1.2179840803146362 0.4669472575187683 0.5794219374656677
-1.4793705940246582 0.3300229609012604 0.7824223041534424
-1.2995164394378662 0.3300229609012604 0.7820038795471191
-1.1196622848510742 0.3300229609012604 0.7815854549407959
-0.9398081302642822 0.3300229609012604 0.7811670303344727
-0.7599539756774902 0.3300229609012604 0.7807486057281494
-0.5800998210906982 0.3300229609012604 0.7803301811218262
-0.40024566650390625 0.3300229609012604 0.7799117565155029
-0.22039151191711426 0.3300229609012604 0.7794932723045349
-0.04053735360503197 0.3300229609012604 0.7790748476982117
0.13931681215763092 0.3300229609012604 0.7786564230918884
0.3191709816455841 0.3300229609012604 0.7782379984855652
0.4990251362323761 0.3300229609012604 0.7778195738792419
0.6788792610168457 0.3300229609012604 0.7774011492729187
0.8587334752082825 0.3300229609012604 0.7769827246665955
1.0385875701904297 0.3300229609012604 0.7765643000602722
1.2184417247772217 0.3300229609012604 0.776145875453949
-1.4789865016937256 0.15630118548870087 0.947556734085083
-1.2991323471069336 0.15630118548870087 0.9471383094787598
-1.119278073310852 0.15630118548870087 0.9467198848724365
-0.9394239783287048 0.15630118548870087 0.9463014602661133
-0.7595698237419128 0.15630118548870087 0.94588303565979
-0.5797156691551208 0.15630118548870087 0.945464551448822
-0.39986148476600647 0.15630118548870087 0.9450461268424988
-0.22000733017921448 0.15630118548870087 0.9446277022361755
-0.04015316814184189 0.15630118548870087 0.9442092776298523
0.1397009938955307 0.15630118548870087 0.943790853023529
0.3195551633834839 0.15630118548870087 0.9433724284172058
0.4994093179702759 0.15630118548870087 0.9429540038108826
0.6792634725570679 0.15630118548870087 0.9425355792045593
0.8591176271438599 0.15630118548870087 0.9421171545982361
1.0389717817306519 0.15630118548870087 0.9416987299919128
1.2188259363174438 0.15630118548870087 0.9412803053855896
-1.4786914587020874 -0.047105904668569565 1.0743409395217896
-1.2988373041152954 -0.047105904668569565 1.0739225149154663
-1.1189831495285034 -0.047105904668569565 1.073504090309143
-0.9391289949417114 -0.047105904668569565 1.0730856657028198
-0.7592748403549194 -0.047105904668569565 1.0726672410964966
-0.5794206857681274 -0.047105904668569565 1.0722488164901733
-0.39956653118133545 -0.047105904668569565 1.07183039188385
-0.21971236169338226 -0.047105904668569565 1.0714119672775269
-0.03985820710659027 -0.047105904668569565 1.0709935426712036
0.13999594748020172 -0.047105904668569565 1.0705751180648804
0.3198501169681549 -0.047105904668569565 1.0701566934585571
0.4997042715549469 -0.047105904668569565 1.0697382688522339
0.6795584559440613 -0.047105904668569565 1.0693198442459106
0.8594126105308533 -0.047105904668569565 1.0689014196395874
1.0392667055130005 -0.047105904668569565 1.0684829950332642
1.2191208600997925 -0.047105904668569565 1.068064570426941
-1.478497862815857 -0.27187079191207886 1.157584547996521
-1.298643708229065 -0.27187079191207886 1.1571661233901978
-1.118789553642273 -0.27187079191207886 1.1567476987838745
-0.9389353394508362 -0.27187079191207886 1.1563292741775513
-0.7590811848640442 -0.27187079191207886 1.155910849571228
-0.5792270302772522 -0.27187079191207886 1.1554924249649048
-0.3993728756904602 -0.27187079191207886 1.1550740003585815
-0.21951870620250702 -0.27187079191207886 1.1546555757522583
-0.03966454043984413 -0.27187079191207886 1.154237151145935
0.14018961787223816 -0.27187079191207886 1.1538187265396118
0.32004377245903015 -0.27187079191207886 1.1534003019332886
0.49989792704582214 -0.27187079191207886 1.1529818773269653
0.6797521114349365 -0.27187079191207886 1.1525633335113525
0.8596062660217285 -0.27187079191207886 1.1521449089050293
1.0394604206085205 -0.27187079191207886 1.151726484298706
1.2193145751953125 -0.27187079191207886 1.1513080596923828
-1.4784133434295654 -0.5087915658950806 1.1938793659210205
-1.2985591888427734 -0.5087915658950806 1.1934609413146973
-1.1187050342559814 -0.5087915658950806 1.193042516708374
-0.9388508796691895 -0.5087915658950806 1.1926240921020508
-0.7589967250823975 -0.5087915658950806 1.1922056674957275
-0.5791425704956055 -0.5087915658950806 1.1917872428894043
-0.3992884159088135 -0.5087915658950806 1.191368818283081
-0.21943426132202148 -0.5087915658950806 1.1909503936767578
-0.039580099284648895 -0.5087915658950806 1.1905319690704346
0.1402740627527237 -0.5087915658950806 1.1901135444641113
0.3201282322406769 -0.5087915658950806 1.189695119857788
0.49998238682746887 -0.5087915658950806 1.1892766952514648
0.6798365712165833 -0.5087915658950806 1.1888582706451416
0.8596907258033752 -0.5087915658950806 1.1884398460388184
1.0395448207855225 -0.5087915658950806 1.1880213022232056
1.2193989753723145 -0.5087915658950806 1.1876028776168823
-1.478441596031189 -0.7481687068939209 1.1817395687103271
-1.298587441444397 -0.7481687068939209 1.181321144104004
-1.118733286857605 -0.7481687068939209 1.1809027194976807
-0.938879132270813 -0.7481687068939209 1.1804842948913574
-0.759024977684021 -0.7481687068939209 1.1800658702850342
-0.579170823097229 -0.7481687068939209 1.179647445678711
-0.399316668510437 -0.7481687068939209 1.1792290210723877
-0.21946249902248383 -0.7481687068939209 1.1788105964660645
-0.039608344435691833 -0.7481687068939209 1.1783921718597412
0.14024581015110016 -0.7481687068939209 1.177973747253418
0.32009997963905334 -0.7481687068939209 1.1775553226470947
0.49995413422584534 -0.7481687068939209 1.1771368980407715
0.6798083186149597 -0.7481687068939209 1.1767184734344482
0.8596624732017517 -0.7481687068939209 1.176300048828125
1.039516568183899 -0.7481687068939209 1.1758815050125122
1.219370722770691 -0.7481687068939209 1.175463080406189
-1.478581428527832 -0.9802020192146301 1.1216621398925781
-1.29872727394104 -0.9802020192146301 1.1212437152862549
-1.118873119354248 -0.9802020192146301 1.1208252906799316
-0.9390189051628113 -0.9802020192146301 1.1204068660736084
-0.7591647505760193 -0.9802020192146301 1.1199884414672852
-0.5793105959892273 -0.9802020192146301 1.119570016860962
-0.3994564414024353 -0.9802020192146301 1.1191515922546387
-0.21960227191448212 -0.9802020192146301 1.1187331676483154
-0.039748113602399826 -0.9802020192146301 1.1183147430419922
0.14010605216026306 -0.9802020192146301 1.117896318435669
0.31996020674705505 -0.9802020192146301 1.1174778938293457
0.49981436133384705 -0.9802020192146301 1.1170594692230225
0.6796685457229614 -0.9802020192146301 1.1166410446166992
0.8595227003097534 -0.9802020192146301 1.116222620010376
1.0393768548965454 -0.9802020192146301 1.1158040761947632
1.2192310094833374 -0.9802020192146301 1.11538565158844
-1.4788269996643066 -1.19539213180542 1.0161066055297852
-1.2989728450775146 -1.19539213180542 1.015688180923462
-1.1191186904907227 -1.19539213180542 1.0152697563171387
-0.9392644762992859 -1.19539213180542 1.0148513317108154
-0.7594103217124939 -1.19539213180542 1.0144329071044922
-0.5795561671257019 -1.19539213180542 1.014014482498169
-0.3997020125389099 -1.19539213180542 1.0135960578918457
-0.21984784305095673 -1.19539213180542 1.0131776332855225
-0.039993688464164734 -1.19539213180542 1.0127592086791992
0.13986046612262726 -1.19539213180542 1.012340784072876
0.31971463561058044 -1.19539213180542 1.0119223594665527
0.49956879019737244 -1.19539213180542 1.0115039348602295
0.6794229745864868 -1.19539213180542 1.0110855102539062
0.8592771291732788 -1.19539213180542 1.010667085647583
1.0391312837600708 -1.19539213180542 1.0102486610412598
1.2189854383468628 -1.19539213180542 1.0098302364349365
-1.4791682958602905 -1.3849289417266846 0.8693946003913879
-1.2993141412734985 -1.3849289417266846 0.8689761757850647
-1.1194599866867065 -1.3849289417266846 0.8685577511787415
-0.9396058320999146 -1.3849289417266846 0.8681393265724182
-0.7597516775131226 -1.3849289417266846 0.8677208423614502
-0.5798975229263306 -1.3849289417266846 0.867302417755127
-0.4000433385372162 -1.3849289417266846 0.8668839931488037
-0.220189169049263 -1.3849289417266846 0.8664655685424805
-0.04033501073718071 -1.3849289417266846 0.8660471439361572
0.13951915502548218 -1.3849289417266846 0.865628719329834
0.31937330961227417 -1.3849289417266846 0.8652102947235107
0.49922746419906616 -1.3849289417266846 0.8647918701171875
0.6790816187858582 -1.3849289417266846 0.8643734455108643
0.8589357733726501 -1.3849289417266846 0.863955020904541
1.038789987564087 -1.3849289417266846 0.8635365962982178
1.218644142150879 -1.3849289417266846 0.8631181716918945
-1.4795913696289062 -1.541053056716919 0.6875323057174683
-1.2997372150421143 -1.541053056716919 0.687113881111145
-1.1198830604553223 -1.541053056716919 0.6866954565048218
-0.9400289058685303 -1.541053056716919 0.6862770318984985
-0.7601747512817383 -1.541053056716919 0.6858586072921753
-0.5803205966949463 -1.541053056716919 0.685440182685852
-0.4004664421081543 -1.541053056716919 0.6850217580795288
-0.2206122726202011 -1.541053056716919 0.6846033334732056
-0.04075811430811882 -1.541053056716919 0.6841849088668823
0.13909605145454407 -1.541053056716919 0.6837664842605591
0.31895020604133606 -1.541053056716919 0.6833480596542358
0.49880436062812805 -1.541053056716919 0.6829295754432678
0.6786585450172424 -1.541053056716919 0.6825111508369446
0.8585126996040344 -1.541053056716919 0.6820927262306213
1.0383667945861816 -1.541053056716919 0.6816743016242981
1.2182210683822632 -1.541053056716919 0.6812558770179749
-1.480078935623169 -1.6573724746704102 0.4779653251171112
-1.300224781036377 -1.6573724746704102 0.47754690051078796
-1.120370626449585 -1.6573724746704102 0.4771284759044647
-0.940516471862793 -1.6573724746704102 0.4767100512981415
-0.760662317276001 -1.6573724746704102 0.47629162669181824
-0.580808162689209 -1.6573724746704102 0.475873202085495
-0.4009539783000946 -1.6573724746704102 0.47545474767684937
-0.2210998237133026 -1.6573724746704102 0.4750363230705261
-0.04124566912651062 -1.6573724746704102 0.4746178984642029
0.13860848546028137 -1.6573724746704102 0.47419947385787964
0.31846264004707336 -1.6573724746704102 0.4737810492515564
0.49831682443618774 -1.6573724746704102 0.47336262464523315
0.6781709790229797 -1.6573724746704102 0.4729442000389099
0.8580251336097717 -1.6573724746704102 0.4725257456302643
1.0378793478012085 -1.6573724746704102 0.47210732102394104
1.2177335023880005 -1.6573724746704102 0.4716888964176178
-1.480610966682434 -1.7291252613067627 0.24927332997322083
-1.300756812095642 -1.7291252613067627 0.2488548904657364
-1.12090265750885 -1.7291252613067627 0.24843646585941315
-0.9410485029220581 -1.7291252613067627 0.2480180412530899
-0.7611943483352661 -1.7291252613067627 0.24759960174560547
-0.5813401937484741 -1.7291252613067627 0.24718117713928223
-0.40148603916168213 -1.7291252613067627 0.24676275253295898
-0.22163188457489014 -1.7291252613067627 0.24634431302547455
-0.04177771881222725 -1.7291252613067627 0.2459258884191513
0.13807643949985504 -1.7291252613067627 0.24550746381282806
0.3179306089878082 -1.7291252613067627 0.24508902430534363
0.4977847635746002 -1.7291252613067627 0.24467059969902039
0.6776389479637146 -1.7291252613067627 0.24425217509269714
0.8574931025505066 -1.7291252613067627 0.2438337355852127
1.0373471975326538 -1.7291252613067627 0.24341531097888947
1.2172013521194458 -1.7291252613067627 0.24299688637256622
-1.4811657667160034 -1.7533738613128662 0.010818958282470703
-1.3013116121292114 -1.7533738613128662 0.010400529019534588
-1.1214574575424194 -1.7533738613128662 0.009982099756598473
-0.9416033029556274 -1.7533738613128662 0.009563670493662357
-0.7617491483688354 -1.7533738613128662 0.009145240299403667
-0.5818949341773987 -1.7533738613128662 0.008726811036467552
-0.4020408093929291 -1.7533738613128662 0.008308381773531437
-0.2221866399049759 -1.7533738613128662 0.007889952510595322
-0.0423324815928936 -1.7533738613128662 0.007471523247659206
0.1375216841697693 -1.7533738613128662 0.007053093984723091
0.3173758387565613 -1.7533738613128662 0.0066346642561256886
0.49722999334335327 -1.7533738613128662 0.006216234993189573
0.6770841479301453 -1.7533738613128662 0.005797805730253458
0.8569383025169373 -1.7533738613128662 0.0053793760016560555
1.036792516708374 -1.7533738613128662 0.00496094673871994
1.216646671295166 -1.7533738613128662 0.004542517475783825
