ply
format ascii 1.0
element vertex 512
property float x
property float y
property float z
end_header
-0.11511111259460449 -0.9963415861129761 1.3224256038665771
-0.09961768239736557 -0.9963415861129761 1.157489538192749
-0.08412425220012665 -0.9963415861129761 0.9925535321235657
-0.06863082200288773 -0.9963415861129761 0.8276174664497375
-0.053137391805648804 -0.9963415861129761 0.6626814007759094
-0.03764395788311958 -0.9963415861129761 0.4977453649044037
-0.02215052954852581 -0.9963415861129761 0.33280929923057556
-0.006657097954303026 -0.9963415861129761 0.16787326335906982
0.008836332708597183 -0.9963415861129761 0.0029372158460319042
0.024329762905836105 -0.9963415861129761 -0.16199883818626404
0.03982319310307503 -0.9963415861129761 -0.3269348740577698
0.05531662330031395 -0.9963415861129761 -0.4918709397315979
0.07081005722284317 -0.9963415861129761 -0.656807005405426
0.08630348742008209 -0.9963415861129761 -0.8217430114746094
0.10179691761732101 -0.9963415861129761 -0.9866790771484375
0.11729034781455994 -0.9963415861129761 -1.1516151428222656
-0.3162803649902344 -0.9757946133613586 1.3035285472869873
-0.30078691244125366 -0.9757946133613586 1.1385924816131592
-0.28529348969459534 -0.9757946133613586 0.9736564755439758
-0.269800066947937 -0.9757946133613586 0.8087204098701477
-0.2543066442012787 -0.9757946133613586 0.6437844038009644
-0.23881320655345917 -0.9757946133613586 0.47884833812713623
-0.22331976890563965 -0.9757946133613586 0.3139122724533081
-0.20782633125782013 -0.9757946133613586 0.14897623658180237
-0.1923329085111618 -0.9757946133613586 -0.015959816053509712
-0.17683947086334229 -0.9757946133613586 -0.1808958649635315
-0.16134604811668396 -0.9757946133613586 -0.34583190083503723
-0.14585261046886444 -0.9757946133613586 -0.510767936706543
-0.13035918772220612 -0.9757946133613586 -0.6757040023803711
-0.1148657575249672 -0.9757946133613586 -0.8406400680541992
-0.09937232732772827 -0.9757946133613586 -1.0055761337280273
-0.08387888967990875 -0.9757946133613586 -1.1705121994018555
-0.5092136859893799 -0.9149948954582214 1.285405158996582
-0.49372026324272156 -0.9149948954582214 1.120469093322754
-0.47822684049606323 -0.9149948954582214 0.9555330872535706
-0.4627334177494049 -0.9149948954582214 0.7905970215797424
-0.4472399652004242 -0.9149948954582214 0.6256610155105591
-0.43174654245376587 -0.9149948954582214 0.46072494983673096
-0.41625311970710754 -0.9149948954582214 0.29578888416290283
-0.4007596969604492 -0.9149948954582214 0.1308528482913971
-0.3852662444114685 -0.9149948954582214 -0.03408319875597954
-0.3697728216648102 -0.9149948954582214 -0.19901925325393677
-0.35427939891815186 -0.9149948954582214 -0.3639552891254425
-0.33878597617149353 -0.9149948954582214 -0.5288913249969482
-0.3232925236225128 -0.9149948954582214 -0.6938273906707764
-0.3077991008758545 -0.9149948954582214 -0.8587634563446045
-0.29230567812919617 -0.9149948954582214 -1.0236995220184326
-0.27681225538253784 -0.9149948954582214 -1.1886355876922607
-0.6860124468803406 -0.8164315819740295 1.2687973976135254
-0.6705189943313599 -0.8164315819740295 1.1038613319396973
-0.6550256013870239 -0.8164315819740295 0.9389253258705139
-0.6395321488380432 -0.8164315819740295 0.7739892601966858
-0.6240386962890625 -0.8164315819740295 0.6090532541275024
-0.6085453033447266 -0.8164315819740295 0.4441171884536743
-0.5930518507957458 -0.8164315819740295 0.2791811227798462
-0.5775584578514099 -0.8164315819740295 0.11424508690834045
-0.5620650053024292 -0.8164315819740295 -0.05069096386432648
-0.5465715527534485 -0.8164315819740295 -0.2156270146369934
-0.5310781598091125 -0.8164315819740295 -0.38056305050849915
-0.5155847072601318 -0.8164315819740295 -0.5454990863800049
-0.5000912547111511 -0.8164315819740295 -0.710435152053833
-0.4845978319644928 -0.8164315819740295 -0.8753712177276611
-0.4691044092178345 -0.8164315819740295 -1.0403072834014893
-0.45361098647117615 -0.8164315819740295 -1.2052433490753174
-0.8394384384155273 -0.6841399073600769 1.254385232925415
-0.8239449858665466 -0.6841399073600769 1.089449167251587
-0.8084515333175659 -0.6841399073600769 0.9245131015777588
-0.79295814037323 -0.6841399073600769 0.7595770359039307
-0.7774646878242493 -0.6841399073600769 0.5946410298347473
-0.7619712352752686 -0.6841399073600769 0.4297049641609192
-0.7464778423309326 -0.6841399073600769 0.26476889848709106
-0.7309843897819519 -0.6841399073600769 0.09983286261558533
-0.715490996837616 -0.6841399073600769 -0.0651031881570816
-0.6999975442886353 -0.6841399073600769 -0.23003923892974854
-0.6845040917396545 -0.6841399073600769 -0.3949752748012543
-0.6690106987953186 -0.6841399073600769 -0.55991131067276
-0.6535172462463379 -0.6841399073600769 -0.7248473763465881
-0.6380237936973572 -0.6841399073600769 -0.8897834420204163
-0.6225304007530212 -0.6841399073600769 -1.0547194480895996
-0.6070369482040405 -0.6841399073600769 -1.2196555137634277
-0.9632103443145752 -0.5235357880592346 1.2427585124969482
-0.9477168917655945 -0.5235357880592346 1.0778225660324097
-0.9322234988212585 -0.5235357880592346 0.9128864407539368
-0.9167300462722778 -0.5235357880592346 0.7479504346847534
-0.9012365937232971 -0.5235357880592346 0.5830143690109253
-0.8857432007789612 -0.5235357880592346 0.41807833313941956
-0.8702497482299805 -0.5235357880592346 0.25314226746559143
-0.8547563552856445 -0.5235357880592346 0.0882062241435051
-0.8392629027366638 -0.5235357880592346 -0.07672982662916183
-0.8237694501876831 -0.5235357880592346 -0.24166586995124817
-0.8082760572433472 -0.5235357880592346 -0.4066019058227539
-0.7927826046943665 -0.5235357880592346 -0.571537971496582
-0.7772891521453857 -0.5235357880592346 -0.7364740371704102
-0.7617957592010498 -0.5235357880592346 -0.9014100432395935
-0.7463023066520691 -0.5235357880592346 -1.0663461685180664
-0.7308089137077332 -0.5235357880592346 -1.231282114982605
-1.0522609949111938 -0.3411945104598999 1.2343934774398804
-1.036767601966858 -0.3411945104598999 1.0694574117660522
-1.0212740898132324 -0.3411945104598999 0.9045214056968689
-1.0057806968688965 -0.3411945104598999 0.7395853400230408
-0.9902872443199158 -0.3411945104598999 0.5746493339538574
-0.9747938513755798 -0.3411945104598999 0.4097132682800293
-0.9593003988265991 -0.3411945104598999 0.24477721750736237
-0.9438070058822632 -0.3411945104598999 0.07984116673469543
-0.9283135533332825 -0.3411945104598999 -0.0850948840379715
-0.9128201007843018 -0.3411945104598999 -0.2500309348106384
-0.8973267078399658 -0.3411945104598999 -0.41496697068214417
-0.8818332552909851 -0.3411945104598999 -0.5799030065536499
-0.8663398027420044 -0.3411945104598999 -0.744839072227478
-0.8508464097976685 -0.3411945104598999 -0.9097751379013062
-0.8353529572486877 -0.3411945104598999 -1.0747112035751343
-0.819859504699707 -0.3411945104598999 -1.2396472692489624
-1.1029446125030518 -0.14458107948303223 1.2296324968338013
-1.0874512195587158 -0.14458107948303223 1.0646964311599731
-1.0719577074050903 -0.14458107948303223 0.899760365486145
-1.0564643144607544 -0.14458107948303223 0.7348243594169617
-1.0409709215164185 -0.14458107948303223 0.5698882937431335
-1.025477409362793 -0.14458107948303223 0.4049522578716278
-1.009984016418457 -0.14458107948303223 0.24001619219779968
-0.9944906234741211 -0.14458107948303223 0.07508014887571335
-0.9789971709251404 -0.14458107948303223 -0.08985590189695358
-0.9635037183761597 -0.14458107948303223 -0.2547919452190399
-0.9480103254318237 -0.14458107948303223 -0.41972801089286804
-0.932516872882843 -0.14458107948303223 -0.5846640467643738
-0.9170234203338623 -0.14458107948303223 -0.7496001124382019
-0.9015300273895264 -0.14458107948303223 -0.9145361185073853
-0.8860365748405457 -0.14458107948303223 -1.0794721841812134
-0.8705431818962097 -0.14458107948303223 -1.2444082498550415
-1.113186240196228 0.05825512111186981 1.2286704778671265
-1.0976927280426025 0.05825512111186981 1.0637344121932983
-1.0821993350982666 0.05825512111186981 0.8987983465194702
-1.0667059421539307 0.05825512111186981 0.7338622808456421
-1.0512125492095947 0.05825512111186981 0.568926215171814
-1.0357190370559692 0.05825512111186981 0.4039901793003082
-1.0202256441116333 0.05825512111186981 0.2390541434288025
-1.0047322511672974 0.05825512111186981 0.07411809265613556
-0.9892387986183167 0.05825512111186981 -0.09081795811653137
-0.9737453460693359 0.05825512111186981 -0.2557539939880371
-0.9582518935203552 0.05825512111186981 -0.42069005966186523
-0.9427585005760193 0.05825512111186981 -0.5856261253356934
-0.9272650480270386 0.05825512111186981 -0.7505621314048767
-0.9117715954780579 0.05825512111186981 -0.9154981970787048
-0.8962782025337219 0.05825512111186981 -1.0804342031478882
-0.8807847499847412 0.05825512111186981 -1.2453702688217163
-1.082566499710083 0.2590099573135376 1.2315467596054077
-1.067073106765747 0.2590099573135376 1.0666106939315796
-1.0515795946121216 0.2590099573135376 0.9016746282577515
-1.0360862016677856 0.2590099573135376 0.7367385625839233
-1.0205928087234497 0.2590099573135376 0.57180255651474
-1.0050992965698242 0.2590099573135376 0.40686649084091187
-0.9896059036254883 0.2590099573135376 0.24193044006824493
-0.9741125106811523 0.2590099573135376 0.076994389295578
-0.9586190581321716 0.2590099573135376 -0.08794166147708893
-0.9431256055831909 0.2590099573135376 -0.25287771224975586
-0.927632212638855 0.2590099573135376 -0.4178137481212616
-0.9121387600898743 0.2590099573135376 -0.5827497839927673
-0.8966453075408936 0.2590099573135376 -0.7476858496665955
-0.8811519145965576 0.2590099573135376 -0.9126219153404236
-0.8656584620475769 0.2590099573135376 -1.077557921409607
-0.850165069103241 0.2590099573135376 -1.242493987083435
-1.0123391151428223 0.44946447014808655 1.2381435632705688
-0.9968456029891968 0.44946447014808655 1.0732076168060303
-0.9813522100448608 0.44946447014808655 0.9082714915275574
-0.9658587574958801 0.44946447014808655 0.743335485458374
-0.9503653049468994 0.44946447014808655 0.5783994197845459
-0.9348719120025635 0.44946447014808655 0.4134633541107178
-0.9193784594535828 0.44946447014808655 0.24852731823921204
-0.9038850665092468 0.44946447014808655 0.0835912674665451
-0.8883916139602661 0.44946447014808655 -0.08134477585554123
-0.8728981614112854 0.44946447014808655 -0.24628081917762756
-0.8574047684669495 0.44946447014808655 -0.4112168848514557
-0.8419113159179688 0.44946447014808655 -0.5761529207229614
-0.826417863368988 0.44946447014808655 -0.7410889863967896
-0.8109244704246521 0.44946447014808655 -0.9060249924659729
-0.7954310178756714 0.44946447014808655 -1.0709611177444458
-0.7799376249313354 0.44946447014808655 -1.2358970642089844
-0.9053789973258972 0.6218214631080627 1.248190999031067
-0.8898855447769165 0.6218214631080627 1.0832549333572388
-0.8743921518325806 0.6218214631080627 0.9183189272880554
-0.8588986992835999 0.6218214631080627 0.7533828616142273
-0.8434052467346191 0.6218214631080627 0.5884467959403992
-0.8279118537902832 0.6218214631080627 0.42351076006889343
-0.8124184012413025 0.6218214631080627 0.2585747241973877
-0.7969249486923218 0.6218214631080627 0.09363867342472076
-0.7814315557479858 0.6218214631080627 -0.07129737734794617
-0.7659381031990051 0.6218214631080627 -0.2362334281206131
-0.7504447102546692 0.6218214631080627 -0.40116947889328003
-0.7349512577056885 0.6218214631080627 -0.5661055445671082
-0.7194578051567078 0.6218214631080627 -0.7310415506362915
-0.7039644122123718 0.6218214631080627 -0.8959776163101196
-0.6884709596633911 0.6218214631080627 -1.0609136819839478
-0.6729775071144104 0.6218214631080627 -1.2258497476577759
-0.766065239906311 0.7690246105194092 1.2612775564193726
-0.7505718469619751 0.7690246105194092 1.0963414907455444
-0.7350783944129944 0.7690246105194092 0.9314054846763611
-0.7195850014686584 0.7690246105194092 0.766469419002533
-0.7040915489196777 0.7690246105194092 0.6015334129333496
-0.688598096370697 0.7690246105194092 0.4365973472595215
-0.6731047034263611 0.7690246105194092 0.27166128158569336
-0.6576112508773804 0.7690246105194092 0.10672524571418762
-0.6421177983283997 0.7690246105194092 -0.05821080505847931
-0.6266244053840637 0.7690246105194092 -0.22314685583114624
-0.611130952835083 0.7690246105194092 -0.388082891702652
-0.5956375002861023 0.7690246105194092 -0.5530189275741577
-0.5801441073417664 0.7690246105194092 -0.7179549932479858
-0.5646506547927856 0.7690246105194092 -0.882891058921814
-0.5491572618484497 0.7690246105194092 -1.047827124595642
-0.533663809299469 0.7690246105194092 -1.2127631902694702
-0.6001014113426208 0.8850473761558533 1.2768675088882446
-0.5846079587936401 0.8850473761558533 1.111931562423706
-0.5691145658493042 0.8850473761558533 0.9469954371452332
-0.5536211133003235 0.8850473761558533 0.7820594310760498
-0.5381276607513428 0.8850473761558533 0.6171233654022217
-0.5226342678070068 0.8850473761558533 0.45218732953071594
-0.5071408152580261 0.8850473761558533 0.2872512638568878
-0.4916473925113678 0.8850473761558533 0.12231522053480148
-0.4761539697647095 0.8850473761558533 -0.04262082651257515
-0.46066051721572876 0.8850473761558533 -0.20755687355995178
-0.44516709446907043 0.8850473761558533 -0.3724929094314575
-0.4296736717224121 0.8850473761558533 -0.5374289751052856
-0.4141802191734314 0.8850473761558533 -0.7023650407791138
-0.39868679642677307 0.8850473761558533 -0.8673010468482971
-0.38319337368011475 0.8850473761558533 -1.03223717212677
-0.3676999509334564 0.8850473761558533 -1.1971731185913086
-0.414281964302063 0.9651398658752441 1.2943227291107178
-0.39878854155540466 0.9651398658752441 1.1293866634368896
-0.38329511880874634 0.9651398658752441 0.9644505977630615
-0.367801696062088 0.9651398658752441 0.7995145320892334
-0.3523082435131073 0.9651398658752441 0.63457852602005
-0.336814820766449 0.9651398658752441 0.4696424603462219
-0.32132139801979065 0.9651398658752441 0.3047063946723938
-0.3058279752731323 0.9651398658752441 0.13977035880088806
-0.2903345227241516 0.9651398658752441 -0.02516569383442402
-0.2748410999774933 0.9651398658752441 -0.1901017427444458
-0.25934767723083496 0.9651398658752441 -0.35503777861595154
-0.24385423958301544 0.9651398658752441 -0.5199738144874573
-0.22836080193519592 0.9651398658752441 -0.6849098801612854
-0.2128673791885376 0.9651398658752441 -0.8498459458351135
-0.19737394154071808 0.9651398658752441 -1.0147819519042969
-0.18188051879405975 0.9651398658752441 -1.179718017578125
-0.21621446311473846 1.0060229301452637 1.312928318977356
-0.20072102546691895 1.0060229301452637 1.1479922533035278
-0.18522760272026062 1.0060229301452637 0.9830562472343445
-0.1697341650724411 1.0060229301452637 0.8181202411651611
-0.15424074232578278 1.0060229301452637 0.653184175491333
-0.13874730467796326 1.0060229301452637 0.4882481098175049
-0.12325387448072433 1.0060229301452637 0.32331207394599915
-0.10776044428348541 1.0060229301452637 0.15837602317333221
-0.09226701408624649 1.0060229301452637 -0.0065600271336734295
-0.07677358388900757 1.0060229301452637 -0.17149607837200165
-0.061280153691768646 1.0060229301452637 -0.3364321291446686
-0.045786723494529724 1.0060229301452637 -0.5013681650161743
-0.030293293297290802 1.0060229301452637 -0.6663042306900024
-0.01479986310005188 1.0060229301452637 -0.8312402963638306
0.0006935676792636514 1.0060229301452637 -0.9961763024330139
0.016186999157071114 1.0060229301452637 -1.1611123085021973
-0.01400776393711567 1.0060229301452637 1.3319228887557983
0.001485666842199862 1.0060229301452637 1.1669868230819702
0.016979098320007324 1.0060229301452637 1.002050757408142
0.032472528517246246 1.0060229301452637 0.837114691734314
0.04796595871448517 1.0060229301452637 0.6721786260604858
0.06345938891172409 1.0060229301452637 0.5072426199913025
0.07895281910896301 1.0060229301452637 0.34230655431747437
0.09444624930620193 1.0060229301452637 0.17737050354480743
0.10993967950344086 1.0060229301452637 0.01243445836007595
0.12543311715126038 1.0060229301452637 -0.15250158309936523
0.1409265398979187 1.0060229301452637 -0.31743764877319336
0.15641997754573822 1.0060229301452637 -0.4823736846446991
0.17191340029239655 1.0060229301452637 -0.6473097205162048
0.18740683794021606 1.0060229301452637 -0.812245786190033
0.2029002606868744 1.0060229301452637 -0.9771818518638611
0.2183936983346939 1.0060229301452637 -1.1421178579330444
0.1840597540140152 0.9651398658752441 1.3505284786224365
0.19955317676067352 0.9651398658752441 1.1855924129486084
0.21504661440849304 0.9651398658752441 1.0206564664840698
0.23054003715515137 0.9651398658752441 0.8557203412055969
0.2460334748029709 0.9651398658752441 0.6907843351364136
0.2615269124507904 0.9651398658752441 0.5258482694625854
0.27702033519744873 0.9651398658752441 0.3609122335910797
0.29251375794410706 0.9651398658752441 0.1959761679172516
0.30800721049308777 0.9651398658752441 0.031040126457810402
0.3235006332397461 0.9651398658752441 -0.13389591872692108
0.3389940559864044 0.9651398658752441 -0.298831969499588
0.35448747873306274 0.9651398658752441 -0.46376800537109375
0.36998093128204346 0.9651398658752441 -0.6287040710449219
0.3854743540287018 0.9651398658752441 -0.79364013671875
0.4009677767753601 0.9651398658752441 -0.9585761427879333
0.41646119952201843 0.9651398658752441 -1.1235122680664062
0.36987918615341187 0.8850473761558533 1.3679836988449097
0.3853726089000702 0.8850473761558533 1.2030476331710815
0.4008660316467285 0.8850473761558533 1.0381115674972534
0.41635945439338684 0.8850473761558533 0.8731755018234253
0.43185290694236755 0.8850473761558533 0.7082394361495972
0.4473463296890259 0.8850473761558533 0.5433034300804138
0.4628397524356842 0.8850473761558533 0.3783673644065857
0.47833317518234253 0.8850473761558533 0.21343129873275757
0.49382662773132324 0.8850473761558533 0.04849525913596153
0.509320080280304 0.8850473761558533 -0.1164407879114151
0.5248134732246399 0.8850473761558533 -0.28137683868408203
0.5403069257736206 0.8850473761558533 -0.44631287455558777
0.5558003187179565 0.8850473761558533 -0.6112489104270935
0.5712937712669373 0.8850473761558533 -0.7761849761009216
0.586787223815918 0.8850473761558533 -0.9411210417747498
0.6022806167602539 0.8850473761558533 -1.106057047843933
0.535843014717102 0.7690246105194092 1.3835736513137817
0.5513364672660828 0.7690246105194092 1.2186375856399536
0.5668299198150635 0.7690246105194092 1.0537015199661255
0.5823233127593994 0.7690246105194092 0.8887654542922974
0.5978167653083801 0.7690246105194092 0.723829448223114
0.6133102178573608 0.7690246105194092 0.5588933825492859
0.6288036108016968 0.7690246105194092 0.39395734667778015
0.6442970633506775 0.7690246105194092 0.22902128100395203
0.6597904562950134 0.7690246105194092 0.06408523768186569
0.6752839088439941 0.7690246105194092 -0.10085081309080124
0.6907773613929749 0.7690246105194092 -0.2657868564128876
0.7062707543373108 0.7690246105194092 -0.4307229220867157
0.7217642068862915 0.7690246105194092 -0.5956589579582214
0.7372576594352722 0.7690246105194092 -0.7605950236320496
0.7527510523796082 0.7690246105194092 -0.9255310297012329
0.7682445049285889 0.7690246105194092 -1.090467095375061
0.6751567721366882 0.6218214631080627 1.3966602087020874
0.690650224685669 0.6218214631080627 1.2317241430282593
0.7061436176300049 0.6218214631080627 1.0667880773544312
0.7216370701789856 0.6218214631080627 0.9018520712852478
0.7371304631233215 0.6218214631080627 0.7369160056114197
0.7526239156723022 0.6218214631080627 0.5719799399375916
0.768117368221283 0.6218214631080627 0.4070439040660858
0.7836107611656189 0.6218214631080627 0.24210785329341888
0.7991042137145996 0.6218214631080627 0.07717180997133255
0.8145976662635803 0.6218214631080627 -0.08776424080133438
0.8300910592079163 0.6218214631080627 -0.2527002990245819
0.845584511756897 0.6218214631080627 -0.41763633489608765
0.8610779047012329 0.6218214631080627 -0.5825724005699158
0.8765713572502136 0.6218214631080627 -0.7475084066390991
0.8920648097991943 0.6218214631080627 -0.9124444723129272
0.9075582027435303 0.6218214631080627 -1.0773805379867554
0.7821168303489685 0.44946447014808655 1.4067076444625854
0.7976102828979492 0.44946447014808655 1.2417715787887573
0.8131036758422852 0.44946447014808655 1.0768355131149292
0.8285971283912659 0.44946447014808655 0.9118994474411011
0.8440905809402466 0.44946447014808655 0.746963381767273
0.8595839738845825 0.44946447014808655 0.5820273756980896
0.8750774264335632 0.44946447014808655 0.4170913100242615
0.8905708193778992 0.44946447014808655 0.25215524435043335
0.9060642719268799 0.44946447014808655 0.08721920847892761
0.9215577244758606 0.44946447014808655 -0.07771684229373932
0.9370511174201965 0.44946447014808655 -0.24265289306640625
0.9525445699691772 0.44946447014808655 -0.407588928937912
0.968038022518158 0.44946447014808655 -0.5725249648094177
0.9835314154624939 0.44946447014808655 -0.7374610304832458
0.9990248680114746 0.44946447014808655 -0.902397096157074
1.0145182609558105 0.44946447014808655 -1.0673331022262573
0.852344274520874 0.2590099573135376 1.4133044481277466
0.8678377270698547 0.2590099573135376 1.2483683824539185
0.8833311200141907 0.2590099573135376 1.0834324359893799
0.8988245725631714 0.2590099573135376 0.918496310710907
0.9143180251121521 0.2590099573135376 0.7535603046417236
0.929811418056488 0.2590099573135376 0.5886242389678955
0.9453048706054688 0.2590099573135376 0.42368820309638977
0.9607983231544495 0.2590099573135376 0.25875213742256165
0.9762917160987854 0.2590099573135376 0.09381609410047531
0.9917851686477661 0.2590099573135376 -0.07111995667219162
1.007278561592102 0.2590099573135376 -0.23605599999427795
1.0227720737457275 0.2590099573135376 -0.4009920656681061
1.0382654666900635 0.2590099573135376 -0.5659281015396118
1.0537588596343994 0.2590099573135376 -0.7308641672134399
1.0692522525787354 0.2590099573135376 -0.8958001732826233
1.0847457647323608 0.2590099573135376 -1.0607362985610962
0.882964015007019 0.05825512111186981 1.4161807298660278
0.898457407951355 0.05825512111186981 1.2512447834014893
0.9139508605003357 0.05825512111186981 1.0863087177276611
0.9294442534446716 0.05825512111186981 0.921372652053833
0.9449377059936523 0.05825512111186981 0.7564365863800049
0.9604311585426331 0.05825512111186981 0.5915005207061768
0.975924551486969 0.05825512111186981 0.426564484834671
0.9914180040359497 0.05825512111186981 0.2616284489631653
1.0069113969802856 0.05825512111186981 0.09669238328933716
1.0224049091339111 0.05825512111186981 -0.06824366003274918
1.037898302078247 0.05825512111186981 -0.2331797033548355
1.053391695022583 0.05825512111186981 -0.39811575412750244
1.0688852071762085 0.05825512111186981 -0.5630518198013306
1.0843786001205444 0.05825512111186981 -0.7279878854751587
1.0998719930648804 0.05825512111186981 -0.892923891544342
1.1153655052185059 0.05825512111186981 -1.0578598976135254
0.8727223873138428 -0.14458107948303223 1.415218710899353
0.8882158398628235 -0.14458107948303223 1.250282645225525
0.9037092328071594 -0.14458107948303223 1.0853465795516968
0.9192026853561401 -0.14458107948303223 0.9204105734825134
0.9346961379051208 -0.14458107948303223 0.7554745078086853
0.9501895308494568 -0.14458107948303223 0.590538501739502
0.9656829833984375 -0.14458107948303223 0.42560243606567383
0.9811763763427734 -0.14458107948303223 0.2606663703918457
0.9966698288917542 -0.14458107948303223 0.09573033452033997
1.0121632814407349 -0.14458107948303223 -0.06920571625232697
1.0276566743850708 -0.14458107948303223 -0.2341417670249939
1.0431500673294067 -0.14458107948303223 -0.39907780289649963
1.0586435794830322 -0.14458107948303223 -0.5640138387680054
1.0741369724273682 -0.14458107948303223 -0.7289499044418335
1.089630365371704 -0.14458107948303223 -0.8938859701156616
1.1051238775253296 -0.14458107948303223 -1.0588220357894897
0.8220387697219849 -0.3411945104598999 1.410457730293274
0.8375322222709656 -0.3411945104598999 1.2455216646194458
0.8530256152153015 -0.3411945104598999 1.0805855989456177
0.8685190677642822 -0.3411945104598999 0.9156495332717896
0.8840124607086182 -0.3411945104598999 0.7507135272026062
0.8995059132575989 -0.3411945104598999 0.5857774615287781
0.9149993658065796 -0.3411945104598999 0.42084142565727234
0.9304927587509155 -0.3411945104598999 0.2559053599834442
0.9459862112998962 -0.3411945104598999 0.09096931666135788
0.961479663848877 -0.3411945104598999 -0.07396673411130905
0.9769730567932129 -0.3411945104598999 -0.23890277743339539
0.9924665093421936 -0.3411945104598999 -0.4038388431072235
1.0079599618911743 -0.3411945104598999 -0.5687748789787292
1.0234533548355103 -0.3411945104598999 -0.7337109446525574
1.0389467477798462 -0.3411945104598999 -0.8986469507217407
1.0544402599334717 -0.3411945104598999 -1.0635830163955688
0.7329881191253662 -0.5235357880592346 1.402092695236206
0.7484815716743469 -0.5235357880592346 1.237156629562378
0.7639749646186829 -0.5235357880592346 1.0722205638885498
0.7794684171676636 -0.5235357880592346 0.9072844982147217
0.7949618697166443 -0.5235357880592346 0.7423484325408936
0.8104552626609802 -0.5235357880592346 0.5774124264717102
0.8259487152099609 -0.5235357880592346 0.4124763607978821
0.8414421081542969 -0.5235357880592346 0.24754031002521515
0.8569355607032776 -0.5235357880592346 0.08260425180196762
0.8724290132522583 -0.5235357880592346 -0.08233179152011871
0.8879224061965942 -0.5235357880592346 -0.24726784229278564
0.903415858745575 -0.5235357880592346 -0.4122038781642914
0.9189093112945557 -0.5235357880592346 -0.5771399140357971
0.9344027042388916 -0.5235357880592346 -0.7420759797096252
0.9498961567878723 -0.5235357880592346 -0.9070120453834534
0.965389609336853 -0.5235357880592346 -1.0719480514526367
0.6092162132263184 -0.6841399073600769 1.3904659748077393
0.6247096061706543 -0.6841399073600769 1.2255299091339111
0.640203058719635 -0.6841399073600769 1.0605939626693726
0.6556965112686157 -0.6841399073600769 0.8956578373908997
0.6711899042129517 -0.6841399073600769 0.7307218313217163
0.6866833567619324 -0.6841399073600769 0.5657857656478882
0.7021767497062683 -0.6841399073600769 0.40084969997406006
0.717670202255249 -0.6841399073600769 0.23591366410255432
0.7331636548042297 -0.6841399073600769 0.07097761332988739
0.7486570477485657 -0.6841399073600769 -0.09395842999219894
0.7641505002975464 -0.6841399073600769 -0.2588944733142853
0.7796439528465271 -0.6841399073600769 -0.4238305389881134
0.795137345790863 -0.6841399073600769 -0.5887665748596191
0.8106307983398438 -0.6841399073600769 -0.7537026405334473
0.8261241912841797 -0.6841399073600769 -0.9186386466026306
0.8416176438331604 -0.6841399073600769 -1.0835747718811035
0.4557902216911316 -0.8164315819740295 1.376053810119629
0.4712836444377899 -0.8164315819740295 1.2111177444458008
0.48677706718444824 -0.8164315819740295 1.0461816787719727
0.502270519733429 -0.8164315819740295 0.8812456130981445
0.5177639126777649 -0.8164315819740295 0.7163096070289612
0.5332573652267456 -0.8164315819740295 0.5513735413551331
0.5487508177757263 -0.8164315819740295 0.3864375054836273
0.5642442107200623 -0.8164315819740295 0.2215014398097992
0.579737663269043 -0.8164315819740295 0.05656539648771286
0.5952311158180237 -0.8164315819740295 -0.10837065428495407
0.6107245087623596 -0.8164315819740295 -0.2733066976070404
0.6262179613113403 -0.8164315819740295 -0.43824276328086853
0.641711413860321 -0.8164315819740295 -0.6031787991523743
0.657204806804657 -0.8164315819740295 -0.7681148648262024
0.6726982593536377 -0.8164315819740295 -0.9330508708953857
0.6881916522979736 -0.8164315819740295 -1.0979869365692139
0.2789914608001709 -0.9149948954582214 1.3594460487365723
0.2944849133491516 -0.9149948954582214 1.1945099830627441
0.30997833609580994 -0.9149948954582214 1.029573917388916
0.32547175884246826 -0.9149948954582214 0.8646378517150879
0.340965211391449 -0.9149948954582214 0.6997018456459045
0.3564586341381073 -0.9149948954582214 0.5347657799720764
0.3719520568847656 -0.9149948954582214 0.3698297142982483
0.38744547963142395 -0.9149948954582214 0.20489367842674255
0.40293893218040466 -0.9149948954582214 0.03995763137936592
0.418432354927063 -0.9149948954582214 -0.12497841566801071
0.4339257776737213 -0.9149948954582214 -0.28991445899009705
0.44941920042037964 -0.9149948954582214 -0.45485052466392517
0.46491265296936035 -0.9149948954582214 -0.6197865605354309
0.4804060757160187 -0.9149948954582214 -0.784722626209259
0.495899498462677 -0.9149948954582214 -0.9496586322784424
0.5113929510116577 -0.9149948954582214 -1.1145946979522705
0.0860581248998642 -0.9757946133613586 1.341322660446167
0.10155155509710312 -0.9757946133613586 1.1763865947723389
0.11704498529434204 -0.9757946133613586 1.0114505290985107
0.13253842294216156 -0.9757946133613586 0.8465144634246826
0.14803184568881989 -0.9757946133613586 0.6815784573554993
0.1635252833366394 -0.9757946133613586 0.5166423916816711
0.17901870608329773 -0.9757946133613586 0.3517063558101654
0.19451214373111725 -0.9757946133613586 0.18677029013633728
0.21000556647777557 -0.9757946133613586 0.021834246814250946
0.2254990041255951 -0.9757946133613586 -0.1431017965078354
0.24099242687225342 -0.9757946133613586 -0.3080378472805023
0.25648587942123413 -0.9757946133613586 -0.47297391295433044
0.27197930216789246 -0.9757946133613586 -0.6379099488258362
0.2874727249145508 -0.9757946133613586 -0.8028460144996643
0.3029661476612091 -0.9757946133613586 -0.9677820205688477
0.3184596002101898 -0.9757946133613586 -1.1327180862426758
-0.11511111259460449 -0.9963415861129761 1.3224256038665771
-0.09961768239736557 -0.9963415861129761 1.157489538192749
-0.08412425220012665 -0.9963415861129761 0.9925535321235657
-0.06863082200288773 -0.9963415861129761 0.8276174664497375
-0.053137391805648804 -0.9963415861129761 0.6626814007759094
-0.03764395788311958 -0.9963415861129761 0.4977453649044037
-0.02215052954852581 -0.9963415861129761 0.33280929923057556
-0.006657097954303026 -0.9963415861129761 0.16787326335906982
0.008836332708597183 -0.9963415861129761 0.0029372158460319042
0.024329762905836105 -0.9963415861129761 -0.16199883818626404
0.03982319310307503 -0.9963415861129761 -0.3269348740577698
0.05531662330031395 -0.9963415861129761 -0.4918709397315979
0.07081005722284317 -0.9963415861129761 -0.656807005405426
0.08630348742008209 -0.9963415861129761 -0.8217430114746094
0.10179691761732101 -0.9963415861129761 -0.9866790771484375
0.11729034781455994 -0.9963415861129761 -1.1516151428222656
