ply
format ascii 1.0
element vertex 512
property float x
property float y
property float z
end_header
0.8767096996307373 1.7793314456939697 -1.7125394344329834
0.8794320225715637 1.7808616161346436 -1.4280328750610352
0.8821542859077454 1.7823917865753174 -1.1435264348983765
0.8848766088485718 1.7839219570159912 -0.8590198755264282
0.8875989317893982 1.785452127456665 -0.5745133757591248
0.8903211951255798 1.7869822978973389 -0.2900068461894989
0.8930435180664062 1.7885124683380127 -0.005500347353518009
0.8957658410072327 1.7900426387786865 0.27900615334510803
0.8984881043434143 1.7915728092193604 0.5635126829147339
0.9012104272842407 1.7931029796600342 0.8480191826820374
0.9039327502250671 1.794633150100708 1.1325256824493408
0.9066550135612488 1.7961633205413818 1.417032241821289
0.9093773365020752 1.7976934909820557 1.7015386819839478
0.9120996594429016 1.7992236614227295 1.986045241355896
0.9148219227790833 1.8007538318634033 2.2705516815185547
0.9175442457199097 1.8022840023040771 2.555058240890503
0.5029828548431396 1.7413451671600342 -1.708759069442749
0.5057051181793213 1.742875337600708 -1.4242526292800903
0.5084274411201477 1.7444055080413818 -1.139746069908142
0.5111497640609741 1.7459356784820557 -0.8552395701408386
0.5138720273971558 1.7474658489227295 -0.5707330703735352
0.5165943503379822 1.7489960193634033 -0.2862265408039093
0.5193166732788086 1.7505261898040771 -0.0017200352158397436
0.5220389366149902 1.752056360244751 0.28278645873069763
0.5247612595558167 1.7535865306854248 0.5672929883003235
0.5274835824966431 1.7551167011260986 0.851799488067627
0.5302058458328247 1.7566468715667725 1.1363060474395752
0.5329281687736511 1.7581770420074463 1.4208124876022339
0.5356504917144775 1.7597072124481201 1.7053190469741821
0.5383727550506592 1.761237382888794 1.9898254871368408
0.5410950779914856 1.7627675533294678 2.274332046508789
0.543817400932312 1.7642977237701416 2.5588386058807373
0.14455640316009521 1.6289030313491821 -1.704724669456482
0.14727871119976044 1.630433201789856 -1.4202182292938232
0.15000100433826447 1.6319633722305298 -1.135711669921875
0.1527233123779297 1.6334935426712036 -0.8512051701545715
0.1554456204175949 1.6350237131118774 -0.5666986703872681
0.15816791355609894 1.6365538835525513 -0.2821921706199646
0.16089022159576416 1.638084053993225 0.002314323792234063
0.1636125147342682 1.639614224433899 0.28682082891464233
0.1663348227739334 1.6411443948745728 0.5713273286819458
0.16905713081359863 1.6426745653152466 0.8558338284492493
0.17177942395210266 1.64420485496521 1.1403403282165527
0.17450173199176788 1.6457350254058838 1.424846887588501
0.1772240400314331 1.6472651958465576 1.7093533277511597
0.17994633316993713 1.6487953662872314 1.993859887123108
0.18266864120960236 1.6503255367279053 2.2783663272857666
0.18539094924926758 1.651855707168579 2.562872886657715
-0.18389560282230377 1.446608543395996 -1.7006014585494995
-0.18117329478263855 1.44813871383667 -1.4160950183868408
-0.17845098674297333 1.4496688842773438 -1.1315884590148926
-0.1757286936044693 1.4511990547180176 -0.8470819592475891
-0.17300638556480408 1.4527292251586914 -0.5625754594802856
-0.17028407752513885 1.4542593955993652 -0.2780689597129822
-0.16756178438663483 1.455789566040039 0.00643756240606308
-0.1648394763469696 1.457319736480713 0.29094406962394714
-0.16211716830730438 1.4588499069213867 0.575450599193573
-0.15939487516880035 1.4603800773620605 0.8599570989608765
-0.15667256712913513 1.4619102478027344 1.1444635391235352
-0.1539502590894699 1.4634404182434082 1.4289700984954834
-0.15122796595096588 1.464970588684082 1.7134766578674316
-0.14850565791130066 1.4665007591247559 1.9979830980300903
-0.14578334987163544 1.4680309295654297 2.282489538192749
-0.1430610567331314 1.4695611000061035 2.5669960975646973
-0.4689262807369232 1.2019246816635132 -1.6965581178665161
-0.4662039875984192 1.203454852104187 -1.4120516777038574
-0.46348169445991516 1.2049850225448608 -1.1275451183319092
-0.46075937151908875 1.2065151929855347 -0.8430386185646057
-0.4580370783805847 1.2080453634262085 -0.5585321187973022
-0.4553147852420807 1.2095755338668823 -0.2740256190299988
-0.4525924623012543 1.2111057043075562 0.01048087514936924
-0.44987016916275024 1.21263587474823 0.29498738050460815
-0.4471478760242462 1.2141660451889038 0.5794938802719116
-0.4444255530834198 1.2156962156295776 0.8640003800392151
-0.44170325994491577 1.2172263860702515 1.1485068798065186
-0.43898096680641174 1.2187566757202148 1.4330134391784668
-0.4362586438655853 1.2202868461608887 1.7175198793411255
-0.4335363507270813 1.2218170166015625 2.002026319503784
-0.43081405758857727 1.2233471870422363 2.2865328788757324
-0.42809173464775085 1.2248773574829102 2.5710394382476807
-0.6988664865493774 0.9048689603805542 -1.6927603483200073
-0.696144163608551 0.9063991904258728 -1.408253788948059
-0.6934219002723694 0.9079293608665466 -1.1237473487854004
-0.690699577331543 0.9094595313072205 -0.8392407894134521
-0.6879772543907166 0.9109897017478943 -0.5547342896461487
-0.6852549910545349 0.9125198721885681 -0.2702277898788452
-0.6825326681137085 0.9140500426292419 0.014278728514909744
-0.6798103451728821 0.9155802130699158 0.2987852394580841
-0.6770880818367004 0.9171103835105896 0.58329176902771
-0.674365758895874 0.9186405539512634 0.8677982687950134
-0.6716434359550476 0.9201707243919373 1.152304768562317
-0.668921172618866 0.9217008948326111 1.4368112087249756
-0.6661988496780396 0.9232310652732849 1.7213177680969238
-0.6634765267372131 0.9247612357139587 2.005824327468872
-0.6607542634010315 0.9262914061546326 2.2903308868408203
-0.6580319404602051 0.9278215765953064 2.5748372077941895
-0.864302396774292 0.5676028728485107 -1.6893633604049683
-0.8615800738334656 0.5691330432891846 -1.4048569202423096
-0.8588578104972839 0.5706632137298584 -1.1203503608703613
-0.8561354875564575 0.5721933841705322 -0.8358438611030579
-0.8534131646156311 0.573723554611206 -0.5513373613357544
-0.8506909012794495 0.5752537250518799 -0.2668308615684509
-0.847968578338623 0.5767838954925537 0.01767563819885254
-0.8452462553977966 0.5783141255378723 0.302182137966156
-0.842523992061615 0.5798442959785461 0.5866886377334595
-0.8398016691207886 0.58137446641922 0.8711951375007629
-0.8370793461799622 0.5829046368598938 1.1557016372680664
-0.8343570828437805 0.5844348073005676 1.4402081966400146
-0.8316347599029541 0.5859649777412415 1.7247146368026733
-0.8289124369621277 0.5874951481819153 2.009221076965332
-0.826190173625946 0.5890253186225891 2.2937276363372803
-0.8234678506851196 0.5905554890632629 2.5782341957092285
-0.9584611058235168 0.20393408834934235 -1.6865065097808838
-0.9557387828826904 0.20546425879001617 -1.4019999504089355
-0.953016459941864 0.20699442923069 -1.1174935102462769
-0.9502941966056824 0.20852459967136383 -0.8329870104789734
-0.947571873664856 0.21005478501319885 -0.5484805107116699
-0.9448495507240295 0.21158495545387268 -0.26397398114204407
-0.9421272873878479 0.2131151258945465 0.020532531663775444
-0.9394049644470215 0.21464529633522034 0.30503904819488525
-0.9366826415061951 0.21617548167705536 0.5895455479621887
-0.9339603781700134 0.2177056521177292 0.8740520477294922
-0.931238055229187 0.21923582255840302 1.1585586071014404
-0.9285157322883606 0.22076599299907684 1.4430650472640991
-0.925793468952179 0.22229617834091187 1.7275716066360474
-0.9230711460113525 0.2238263487815857 2.012078046798706
-0.9203488230705261 0.22535651922225952 2.2965846061706543
-0.9176265597343445 0.22688668966293335 2.5810911655426025
-0.9774876832962036 -0.17124876379966736 -1.6843066215515137
-0.9747653603553772 -0.16971857845783234 -1.3998000621795654
-0.9720430374145508 -0.1681884080171585 -1.1152936220169067
-0.9693207740783691 -0.16665823757648468 -0.8307870626449585
-0.9665984511375427 -0.16512806713581085 -0.546280562877655
-0.9638761281967163 -0.16359788179397583 -0.26177406311035156
-0.9611538648605347 -0.162067711353302 0.022732451558113098
-0.9584315419197083 -0.16053754091262817 0.30723896622657776
-0.9557092189788818 -0.15900737047195435 0.5917454361915588
-0.9529869556427002 -0.15747718513011932 0.8762519955635071
-0.9502646327018738 -0.1559470146894455 1.1607584953308105
-0.9475423097610474 -0.15441684424877167 1.4452649354934692
-0.9448200464248657 -0.15288667380809784 1.7297714948654175
-0.9420977234840393 -0.15135648846626282 2.014277935028076
-0.9393754005432129 -0.149826318025589 2.2987844944000244
-0.9366531372070312 -0.14829614758491516 2.5832910537719727
-0.9206031560897827 -0.5425856113433838 -1.6828536987304688
-0.9178808927536011 -0.54105544090271 -1.39834725856781
-0.9151585698127747 -0.5395252704620361 -1.1138406991958618
-0.9124362468719482 -0.5379951000213623 -0.8293341994285583
-0.9097139835357666 -0.5364649295806885 -0.5448276996612549
-0.9069916605949402 -0.5349347591400146 -0.26032117009162903
-0.9042693376541138 -0.5334045886993408 0.02418532967567444
-0.9015470743179321 -0.531874418258667 0.3086918294429779
-0.8988247513771057 -0.5303441882133484 0.5931983590126038
-0.8961024284362793 -0.5288140177726746 0.8777048587799072
-0.8933801651000977 -0.5272838473320007 1.1622114181518555
-0.8906578421592712 -0.5257536768913269 1.4467178583145142
-0.8879355192184448 -0.5242235064506531 1.7312244176864624
-0.8852132558822632 -0.5226933360099792 2.015730857849121
-0.8824909329414368 -0.5211631655693054 2.3002374172210693
-0.8797686100006104 -0.5196329951286316 2.5847439765930176
-0.7901365160942078 -0.8948739171028137 -1.6822073459625244
-0.7874141931533813 -0.8933437466621399 -1.3977009057998657
-0.7846918702125549 -0.8918135762214661 -1.1131943464279175
-0.7819696068763733 -0.8902834057807922 -0.828687846660614
-0.7792472839355469 -0.8887531757354736 -0.5441813468933105
-0.7765249609947205 -0.8872230052947998 -0.2596748173236847
-0.7738026976585388 -0.885692834854126 0.024831686168909073
-0.7710803747177124 -0.8841626644134521 0.30933818221092224
-0.768358051776886 -0.8826324939727783 0.5938447117805481
-0.7656357884407043 -0.8811023235321045 0.8783512115478516
-0.7629134654998779 -0.8795721530914307 1.1628577709197998
-0.7601911425590515 -0.8780419826507568 1.4473642110824585
-0.7574688792228699 -0.876511812210083 1.7318707704544067
-0.7547465562820435 -0.8749816417694092 2.0163772106170654
-0.752024233341217 -0.8734514713287354 2.3008837699890137
-0.7493019700050354 -0.8719213008880615 2.585390329360962
-0.5914289355278015 -1.2136908769607544 -1.682394027709961
-0.5887066125869751 -1.2121607065200806 -1.3978874683380127
-0.5859843492507935 -1.2106305360794067 -1.113381028175354
-0.583262026309967 -1.209100365638733 -0.8288744688034058
-0.5805397033691406 -1.207570195198059 -0.5443679690361023
-0.577817440032959 -1.2060400247573853 -0.25986143946647644
-0.5750951170921326 -1.2045098543167114 0.024645058438181877
-0.5723727941513062 -1.2029796838760376 0.3091515600681305
-0.5696505308151245 -1.2014495134353638 0.5936580896377563
-0.5669282078742981 -1.19991934299469 0.8781645894050598
-0.5642058849334717 -1.1983891725540161 1.1626710891723633
-0.56148362159729 -1.1968590021133423 1.4471776485443115
-0.5587612986564636 -1.1953288316726685 1.7316840887069702
-0.5560389757156372 -1.1937986612319946 2.016190528869629
-0.5533167123794556 -1.1922684907913208 2.300697088241577
-0.5505943894386292 -1.190738320350647 2.5852036476135254
-0.33261558413505554 -1.485984206199646 -1.6834059953689575
-0.3298932909965515 -1.4844540357589722 -1.3988994359970093
-0.3271709978580475 -1.4829238653182983 -1.1143929958343506
-0.32444867491722107 -1.4813936948776245 -0.8298864364624023
-0.32172638177871704 -1.4798635244369507 -0.5453799366950989
-0.319004088640213 -1.4783333539962769 -0.260873407125473
-0.3162817656993866 -1.476803183555603 0.023633088916540146
-0.31355947256088257 -1.4752730131149292 0.3081395924091339
-0.31083717942237854 -1.4737428426742554 0.5926461219787598
-0.3081148564815521 -1.4722126722335815 0.8771526217460632
-0.3053925633430481 -1.4706825017929077 1.1616591215133667
-0.30267027020454407 -1.4691523313522339 1.446165680885315
-0.29994794726371765 -1.46762216091156 1.7306721210479736
-0.2972256541252136 -1.4660919904708862 2.015178680419922
-0.2945033609867096 -1.4645618200302124 2.29968523979187
-0.2917810380458832 -1.4630316495895386 2.5841915607452393
-0.024292347952723503 -1.700606107711792 -1.68520188331604
-0.02157004550099373 -1.6990759372711182 -1.4006953239440918
-0.018847741186618805 -1.6975457668304443 -1.116188883781433
-0.01612543873488903 -1.6960155963897705 -0.8316823244094849
-0.013403135351836681 -1.6944854259490967 -0.5471758246421814
-0.010680831968784332 -1.6929552555084229 -0.26266929507255554
-0.007958529517054558 -1.691425085067749 0.021837204694747925
-0.005236226134002209 -1.6898949146270752 0.3063437044620514
-0.002513923216611147 -1.6883647441864014 0.5908502340316772
0.0002083798317471519 -1.6868345737457275 0.8753567337989807
0.0029306828510016203 -1.6853044033050537 1.1598632335662842
0.005652986001223326 -1.6837742328643799 1.4443697929382324
0.008375288918614388 -1.682244062423706 1.7288762331008911
0.011097592301666737 -1.6807138919830322 2.01338267326355
0.013819894753396511 -1.6791837215423584 2.297889232635498
0.01654219813644886 -1.6776535511016846 2.5823957920074463
0.3209180235862732 -1.848770022392273 -1.6877081394195557
0.3236403465270996 -1.8472398519515991 -1.4032015800476074
0.32636263966560364 -1.8457095623016357 -1.1186951398849487
0.32908493280410767 -1.844179391860962 -0.8341885805130005
0.3318072557449341 -1.842649221420288 -0.549682080745697
0.3345295488834381 -1.8411190509796143 -0.26517558097839355
0.33725184202194214 -1.8395888805389404 0.019330933690071106
0.33997416496276855 -1.8380587100982666 0.30383744835853577
0.3426964581012726 -1.8365285396575928 0.5883439779281616
0.3454187512397766 -1.834998369216919 0.8728504776954651
0.348141074180603 -1.8334681987762451 1.1573569774627686
0.35086336731910706 -1.8319380283355713 1.4418634176254272
0.3535856604576111 -1.8304078578948975 1.7263699769973755
0.3563079833984375 -1.8288776874542236 2.010876417160034
0.35903027653694153 -1.8273475170135498 2.2953829765319824
0.36175256967544556 -1.825817346572876 2.5798895359039307
0.68888258934021 -1.9244098663330078 -1.6908221244812012
0.6916049122810364 -1.922879695892334 -1.4063156843185425
0.694327175617218 -1.9213495254516602 -1.1218091249465942
0.6970494985580444 -1.9198193550109863 -0.8373026251792908
0.6997718214988708 -1.9182891845703125 -0.5527961254119873
0.7024940848350525 -1.9167590141296387 -0.26828962564468384
0.7052164077758789 -1.9152288436889648 0.016216879710555077
0.7079387307167053 -1.913698673248291 0.3007233738899231
0.710660994052887 -1.9121685028076172 0.5852298736572266
0.7133833169937134 -1.9106383323669434 0.86973637342453
0.7161056399345398 -1.9091081619262695 1.1542428731918335
0.7188279032707214 -1.9075779914855957 1.4387494325637817
0.7215502262115479 -1.9060478210449219 1.7232558727264404
0.7242725491523743 -1.904517650604248 2.0077624320983887
0.7269948124885559 -1.9029874801635742 2.292268991470337
0.7297171354293823 -1.9014573097229004 2.576775550842285
1.0645368099212646 -1.9244292974472046 -1.6944165229797363
1.0672590732574463 -1.9228990077972412 -1.409909963607788
1.0699814558029175 -1.9213688373565674 -1.1254035234451294
1.0727037191390991 -1.9198386669158936 -0.8408969640731812
1.0754259824752808 -1.9183084964752197 -0.5563904643058777
1.078148365020752 -1.916778326034546 -0.2718839645385742
1.0808706283569336 -1.915248155593872 0.012622532434761524
1.0835928916931152 -1.9137179851531982 0.2971290349960327
1.0863152742385864 -1.9121878147125244 0.5816355347633362
1.089037537574768 -1.9106576442718506 0.8661420345306396
1.0917598009109497 -1.9091274738311768 1.150648593902588
1.094482183456421 -1.907597303390503 1.4351550340652466
1.0972044467926025 -1.906067132949829 1.7196615934371948
1.0999267101287842 -1.9045369625091553 2.0041680335998535
1.1026490926742554 -1.9030067920684814 2.2886745929718018
1.105371356010437 -1.9014766216278076 2.57318115234375
1.4325013160705566 -1.8488271236419678 -1.6983439922332764
1.4352236986160278 -1.847296953201294 -1.4138374328613281
1.4379459619522095 -1.8457667827606201 -1.1293309926986694
1.4406682252883911 -1.8442366123199463 -0.844824492931366
1.4433906078338623 -1.8427064418792725 -0.5603179931640625
1.446112871170044 -1.8411762714385986 -0.27581146359443665
1.4488351345062256 -1.8396461009979248 0.008695046417415142
1.4515575170516968 -1.838115930557251 0.2932015657424927
1.4542797803878784 -1.8365857601165771 0.5777080655097961
1.45700204372406 -1.8350555896759033 0.8622145652770996
1.4597244262695312 -1.8335254192352295 1.1467211246490479
1.462446689605713 -1.8319952487945557 1.4312275648117065
1.4651689529418945 -1.8304650783538818 1.7157341241836548
1.4678913354873657 -1.828934907913208 2.0002405643463135
1.4706135988235474 -1.8274047374725342 2.2847471237182617
1.473335862159729 -1.8258745670318604 2.56925368309021
1.7777117490768433 -1.7006988525390625 -1.7024438381195068
1.780434012413025 -1.6991686820983887 -1.4179372787475586
1.783156394958496 -1.6976385116577148 -1.1334308385849
1.7858786582946777 -1.696108341217041 -0.8489243388175964
1.7886009216308594 -1.6945781707763672 -0.5644177794456482
1.7913233041763306 -1.6930480003356934 -0.2799113094806671
1.7940455675125122 -1.6915178298950195 0.004595212172716856
1.7967678308486938 -1.6899876594543457 0.2891017198562622
1.799490213394165 -1.6884574890136719 0.5736082196235657
1.8022124767303467 -1.686927318572998 0.8581147193908691
1.8049347400665283 -1.6853971481323242 1.1426212787628174
1.8076571226119995 -1.6838669776916504 1.427127718925476
1.8103793859481812 -1.6823368072509766 1.7116342782974243
1.8131016492843628 -1.6808066368103027 1.996140718460083
1.815824031829834 -1.679276466369629 2.2806472778320312
1.8185462951660156 -1.677746295928955 2.5651538372039795
2.0860350131988525 -1.486108660697937 -1.7065482139587402
2.088757276535034 -1.4845784902572632 -1.422041654586792
2.091479539871216 -1.4830483198165894 -1.1375350952148438
2.0942018032073975 -1.4815181493759155 -0.8530286550521851
2.096924304962158 -1.4799879789352417 -0.5685221552848816
2.09964656829834 -1.4784578084945679 -0.28401562571525574
2.1023688316345215 -1.476927638053894 0.0004908782429993153
2.105091094970703 -1.4753974676132202 0.2849973738193512
2.1078133583068848 -1.4738672971725464 0.569503903388977
2.1105356216430664 -1.4723371267318726 0.8540104031562805
2.113258123397827 -1.4708069562911987 1.138516902923584
2.115980386734009 -1.469276785850525 1.4230234622955322
2.1187026500701904 -1.467746615409851 1.707529902458191
2.121424913406372 -1.4662164449691772 1.9920364618301392
2.1241471767425537 -1.4646862745285034 2.276542901992798
2.1268694400787354 -1.4631561040878296 2.561049461364746
2.344848394393921 -1.2138420343399048 -1.7104889154434204
2.3475706577301025 -1.212311863899231 -1.4259824752807617
2.350292921066284 -1.2107816934585571 -1.1414759159088135
2.353015184402466 -1.2092515230178833 -0.8569694757461548
2.3557374477386475 -1.2077213525772095 -0.5724629163742065
2.358459949493408 -1.2061911821365356 -0.2879564166069031
2.36118221282959 -1.2046610116958618 -0.003449923824518919
2.3639044761657715 -1.203130841255188 0.28105658292770386
2.366626739501953 -1.2016006708145142 0.5655630826950073
2.3693490028381348 -1.2000705003738403 0.8500695824623108
2.3720712661743164 -1.198540210723877 1.1345760822296143
2.374793767929077 -1.1970100402832031 1.4190826416015625
2.377516031265259 -1.1954798698425293 1.7035890817642212
2.3802382946014404 -1.1939496994018555 1.9880956411361694
2.382960557937622 -1.1924195289611816 2.272602081298828
2.3856828212738037 -1.1908893585205078 2.5571086406707764
2.543555974960327 -0.8950454592704773 -1.7141048908233643
2.546278238296509 -0.8935152888298035 -1.4295984506607056
2.5490005016326904 -0.8919851183891296 -1.1450918912887573
2.551722764968872 -0.8904549479484558 -0.8605853915214539
2.5544450283050537 -0.888924777507782 -0.5760788917541504
2.5571672916412354 -0.8873946070671082 -0.29157236218452454
2.559889793395996 -0.8858644366264343 -0.007065856829285622
2.5626120567321777 -0.8843342661857605 0.2774406373500824
2.5653343200683594 -0.8828040361404419 0.5619471669197083
2.568056583404541 -0.8812738656997681 0.8464536666870117
2.5707788467407227 -0.8797436952590942 1.13096022605896
2.5735011100769043 -0.8782135248184204 1.4154666662216187
2.576223611831665 -0.8766833543777466 1.699973225593567
2.5789458751678467 -0.8751531839370728 1.9844796657562256
2.5816681385040283 -0.8736230134963989 2.268986225128174
2.58439040184021 -0.8720928430557251 2.553492784500122
2.674022674560547 -0.5427706241607666 -1.7172479629516602
2.6767449378967285 -0.541240394115448 -1.432741403579712
2.67946720123291 -0.5397102236747742 -1.1482349634170532
2.682189464569092 -0.5381800532341003 -0.863728404045105
2.6849117279052734 -0.5366498827934265 -0.5792219042778015
2.687633991241455 -0.5351197123527527 -0.29471540451049805
2.690356492996216 -0.5335895419120789 -0.010208884254097939
2.6930787563323975 -0.532059371471405 0.2742976248264313
2.695801019668579 -0.5305292010307312 0.5588041543960571
2.6985232830047607 -0.5289990305900574 0.8433106541633606
2.7012455463409424 -0.5274688601493835 1.127817153930664
2.703967809677124 -0.5259386897087097 1.4123235940933228
2.7066903114318848 -0.5244085192680359 1.696830153465271
2.7094125747680664 -0.5228783488273621 1.9813367128372192
2.712134838104248 -0.5213481783866882 2.265843152999878
2.7148571014404297 -0.5198180079460144 2.550349712371826
2.7309069633483887 -0.17143960297107697 -1.7197893857955933
2.7336294651031494 -0.16990941762924194 -1.435282826423645
2.736351728439331 -0.16837924718856812 -1.1507763862609863
2.7390739917755127 -0.1668490767478943 -0.8662698268890381
2.7417962551116943 -0.16531890630722046 -0.5817633271217346
2.744518518447876 -0.16378872096538544 -0.29725682735443115
2.7472407817840576 -0.1622585505247116 -0.01275033038109541
2.7499632835388184 -0.16072838008403778 0.2717561721801758
2.752685546875 -0.15919820964336395 0.5562626719474792
2.7554078102111816 -0.15766802430152893 0.8407691717147827
2.7581300735473633 -0.1561378538608551 1.125275731086731
2.760852336883545 -0.15460768342018127 1.4097821712493896
2.7635746002197266 -0.15307749807834625 1.694288730621338
2.7662971019744873 -0.15154732763767242 1.9787951707839966
2.769019365310669 -0.1500171571969986 2.2633016109466553
2.7717416286468506 -0.14848698675632477 2.5478081703186035
2.7118804454803467 0.20374520123004913 -1.7216252088546753
2.7146027088165283 0.20527537167072296 -1.437118649482727
2.717325210571289 0.2068055421113968 -1.1526122093200684
2.7200474739074707 0.2083357274532318 -0.8681056499481201
2.7227697372436523 0.20986589789390564 -0.5835991501808167
2.725492000579834 0.21139606833457947 -0.2990926504135132
2.7282142639160156 0.2129262536764145 -0.014586147852241993
2.7309365272521973 0.21445642411708832 0.26992034912109375
2.733658790588379 0.21598659455776215 0.5544268488883972
2.7363812923431396 0.21751676499843597 0.8389333486557007
2.7391035556793213 0.219046950340271 1.123439908027649
2.741825819015503 0.22057712078094482 1.4079463481903076
2.7445480823516846 0.22210729122161865 1.6924529075622559
2.747270345687866 0.22363746166229248 1.9769593477249146
2.749992609024048 0.2251676470041275 2.2614660263061523
2.7527151107788086 0.22669781744480133 2.5459723472595215
2.6177217960357666 0.5674237012863159 -1.7226802110671997
2.6204440593719482 0.5689538717269897 -1.438173770904541
2.62316632270813 0.5704840421676636 -1.1536672115325928
2.6258888244628906 0.5720142126083374 -0.8691607117652893
2.6286110877990723 0.5735443830490112 -0.5846542119979858
2.631333351135254 0.5750745534896851 -0.30014768242836
2.6340556144714355 0.5766047239303589 -0.01564117893576622
2.636777877807617 0.5781348943710327 0.26886531710624695
2.639500141143799 0.5796650648117065 0.5533718466758728
2.6422226428985596 0.5811952352523804 0.8378783464431763
2.644944906234741 0.5827254056930542 1.1223849058151245
2.647667169570923 0.5842556357383728 1.4068913459777832
2.6503894329071045 0.5857858061790466 1.6913979053497314
2.653111696243286 0.5873159766197205 1.9759043455123901
2.6558339595794678 0.5888461470603943 2.260410785675049
2.6585564613342285 0.5903763175010681 2.544917345046997
2.4522857666015625 0.9047068357467651 -1.7229112386703491
2.4550082683563232 0.906237006187439 -1.4384047985076904
2.457730531692505 0.9077671766281128 -1.1538982391357422
2.4604527950286865 0.9092973470687866 -0.8693917393684387
2.463175058364868 0.9108275175094604 -0.5848852396011353
2.46589732170105 0.9123576879501343 -0.3003787398338318
2.4686195850372314 0.9138878583908081 -0.015872228890657425
2.471342086791992 0.9154180288314819 0.26863428950309753
2.474064350128174 0.9169481992721558 0.5531407594680786
2.4767866134643555 0.9184783697128296 0.8376473188400269
2.479508876800537 0.9200085997581482 1.1221537590026855
2.4822311401367188 0.921538770198822 1.4066603183746338
2.4849534034729004 0.9230689406394958 1.6911667585372925
2.487675905227661 0.9245991110801697 1.9756733179092407
2.4903981685638428 0.9261292815208435 2.2601797580718994
2.4931204319000244 0.9276594519615173 2.5446863174438477
2.2223455905914307 1.2017861604690552 -1.722308874130249
2.2250680923461914 1.203316330909729 -1.4378024339675903
2.227790355682373 1.2048465013504028 -1.153295874595642
2.2305126190185547 1.2063766717910767 -0.8687893748283386
2.2332348823547363 1.20790696144104 -0.5842828750610352
2.235957145690918 1.2094371318817139 -0.2997763454914093
2.2386794090270996 1.2109673023223877 -0.015269839204847813
2.2414019107818604 1.2124974727630615 0.26923665404319763
2.244124174118042 1.2140276432037354 0.5537431836128235
2.2468464374542236 1.2155578136444092 0.838249683380127
2.2495687007904053 1.217087984085083 1.1227562427520752
2.252290964126587 1.2186181545257568 1.4072626829147339
2.2550132274627686 1.2201483249664307 1.6917692422866821
2.2577357292175293 1.2216784954071045 1.9762756824493408
2.260457992553711 1.2232086658477783 2.260782241821289
2.2631802558898926 1.2247388362884521 2.5452888011932373
1.9373149871826172 1.4464993476867676 -1.7208976745605469
1.9400372505187988 1.4480295181274414 -1.4363912343978882
1.94275963306427 1.4495596885681152 -1.15188467502594
1.9454818964004517 1.451089859008789 -0.8673781752586365
1.9482041597366333 1.452620029449463 -0.582871675491333
1.9509265422821045 1.4541501998901367 -0.29836517572402954
1.9536488056182861 1.4556803703308105 -0.013858672231435776
1.9563710689544678 1.4572105407714844 0.2706478238105774
1.959093451499939 1.4587407112121582 0.5551543235778809
1.9618157148361206 1.460270881652832 0.8396608233451843
1.9645379781723022 1.4618010520935059 1.1241673231124878
1.9672603607177734 1.4633312225341797 1.408673882484436
1.969982624053955 1.4648613929748535 1.6931803226470947
1.9727048873901367 1.466391682624817 1.977686882019043
1.975427269935608 1.4679218530654907 2.262193441390991
1.9781495332717896 1.4694520235061646 2.5467000007629395
1.6088629961013794 1.628827691078186 -1.7187355756759644
1.611585259437561 1.6303578615188599 -1.4342290163040161
1.6143076419830322 1.6318880319595337 -1.1497225761413574
1.6170299053192139 1.6334182024002075 -0.8652160167694092
1.6197521686553955 1.6349483728408813 -0.5807095170021057
1.6224745512008667 1.6364785432815552 -0.29620301723480225
1.6251968145370483 1.638008713722229 -0.01169650163501501
1.62791907787323 1.6395388841629028 0.2728100121021271
1.6306414604187012 1.6410690546035767 0.5573165416717529
1.6333637237548828 1.6425992250442505 0.8418230414390564
1.6360859870910645 1.6441293954849243 1.1263295412063599
1.6388083696365356 1.6456595659255981 1.4108359813690186
1.6415306329727173 1.647189736366272 1.6953425407409668
1.644252896308899 1.6487199068069458 1.979849100112915
1.6469752788543701 1.6502501964569092 2.2643556594848633
1.6496975421905518 1.651780366897583 2.5488619804382324
1.250436544418335 1.7413066625595093 -1.7159109115600586
1.2531588077545166 1.742836833000183 -1.4314043521881104
1.2558811902999878 1.744367003440857 -1.1468979120254517
1.2586034536361694 1.7458971738815308 -0.8623913526535034
1.261325716972351 1.7474273443222046 -0.5778848528862
1.2640480995178223 1.7489575147628784 -0.2933783531188965
1.266770362854004 1.7504876852035522 -0.00887184590101242
1.2694926261901855 1.752017855644226 0.27563467621803284
1.2722150087356567 1.7535480260849 0.5601411461830139
1.2749372720718384 1.7550781965255737 0.8446477055549622
1.27765953540802 1.756608486175537 1.1291542053222656
1.2803819179534912 1.758138656616211 1.4136606454849243
1.2831041812896729 1.7596688270568848 1.6981672048568726
1.2858264446258545 1.7611989974975586 1.9826737642288208
1.2885488271713257 1.7627291679382324 2.2671802043914795
1.2912710905075073 1.7642593383789062 2.5516867637634277
0.8767096996307373 1.7793314456939697 -1.7125394344329834
0.8794320225715637 1.7808616161346436 -1.4280328750610352
0.8821542859077454 1.7823917865753174 -1.1435264348983765
0.8848766088485718 1.7839219570159912 -0.8590198755264282
0.8875989317893982 1.785452127456665 -0.5745133757591248
0.8903211951255798 1.7869822978973389 -0.2900068461894989
0.8930435180664062 1.7885124683380127 -0.005500347353518009
0.8957658410072327 1.7900426387786865 0.27900615334510803
0.8984881043434143 1.7915728092193604 0.5635126829147339
0.9012104272842407 1.7931029796600342 0.8480191826820374
0.9039327502250671 1.794633150100708 1.1325256824493408
0.9066550135612488 1.7961633205413818 1.417032241821289
0.9093773365020752 1.7976934909820557 1.7015386819839478
0.9120996594429016 1.7992236614227295 1.986045241355896
0.9148219227790833 1.8007538318634033 2.2705516815185547
0.9175442457199097 1.8022840023040771 2.555058240890503
