ply
format ascii 1.0
element vertex 512
property float x
property float y
property float z
end_header
-0.0023648738861083984 1.0042502880096436 -0.9610651731491089
-0.0023885772097855806 1.0042122602462769 -0.8334363698959351
-0.0024122807662934065 1.0041742324829102 -0.7058075070381165
-0.0024359840899705887 1.0041362047195435 -0.5781787037849426
-0.002459687413647771 1.0040982961654663 -0.4505499005317688
-0.0024833909701555967 1.0040602684020996 -0.3229210674762726
-0.002507094293832779 1.004022240638733 -0.19529226422309875
-0.002530797617509961 1.0039842128753662 -0.06766343861818314
-0.002554501174017787 1.003946304321289 0.059965379536151886
-0.002578204497694969 1.0039082765579224 0.1875942051410675
-0.0026019078213721514 1.0038702487945557 0.31522300839424133
-0.0026256113778799772 1.003832221031189 0.44285184144973755
-0.0026493147015571594 1.0037943124771118 0.5704806447029114
-0.0026730182580649853 1.0037562847137451 0.6981094479560852
-0.0026967215817421675 1.0037182569503784 0.8257383108139038
-0.0027204249054193497 1.0036802291870117 0.9533671140670776
-0.20402149856090546 0.9837437868118286 -0.9611087441444397
-0.20404519140720367 0.9837057590484619 -0.8334799408912659
-0.20406889915466309 0.98366779088974 -0.7058510780334473
-0.2040926069021225 0.9836297631263733 -0.5782222747802734
-0.20411629974842072 0.9835917949676514 -0.4505934417247772
-0.20414000749588013 0.9835537672042847 -0.3229646384716034
-0.20416371524333954 0.9835157990455627 -0.19533582031726837
-0.20418742299079895 0.983477771282196 -0.06770699471235275
-0.20421111583709717 0.9834398031234741 0.05992182344198227
-0.20423482358455658 0.9834017753601074 0.1875506490468979
-0.204258531332016 0.9833638072013855 0.3151794672012329
-0.2042822241783142 0.9833257794380188 0.44280827045440674
-0.20430593192577362 0.9832878112792969 0.5704370737075806
-0.20432963967323303 0.9832497835159302 0.6980659365653992
-0.20435334742069244 0.9832118153572083 0.825694739818573
-0.20437704026699066 0.9831737875938416 0.9533235430717468
-0.39742225408554077 0.9230639338493347 -0.9611626863479614
-0.3974459767341614 0.923025906085968 -0.8335338830947876
-0.3974696695804596 0.9229879379272461 -0.7059050798416138
-0.3974933624267578 0.9229499101638794 -0.5782762765884399
-0.3975170850753784 0.9229119420051575 -0.4506474435329437
-0.39754077792167664 0.9228739142417908 -0.3230186104774475
-0.39756450057029724 0.9228358864784241 -0.19538980722427368
-0.39758819341659546 0.9227979183197021 -0.06776098161935806
-0.3976118862628937 0.9227598905563354 0.05986783653497696
-0.3976356089115143 0.9227219223976135 0.18749666213989258
-0.3976593017578125 0.9226838946342468 0.3151254653930664
-0.3976829946041107 0.9226459264755249 0.4427542984485626
-0.3977067172527313 0.9226078987121582 0.5703831315040588
-0.39773041009902954 0.9225699305534363 0.6980119347572327
-0.39775410294532776 0.9225319027900696 0.8256407380104065
-0.39777782559394836 0.9224939346313477 0.9532696008682251
-0.5746493339538574 0.8246948719024658 -0.9612249135971069
-0.574673056602478 0.8246568441390991 -0.8335961103439331
-0.5746967196464539 0.8246188759803772 -0.7059673070907593
-0.5747204422950745 0.8245808482170105 -0.5783384442329407
-0.5747441649436951 0.8245428800582886 -0.45070964097976685
-0.5747678875923157 0.8245048522949219 -0.32308080792427063
-0.5747915506362915 0.8244668841362 -0.1954520046710968
-0.5748152732849121 0.8244288563728333 -0.06782318651676178
-0.5748389959335327 0.8243908882141113 0.05980563536286354
-0.5748626589775085 0.8243528604507446 0.18743444979190826
-0.5748863816261292 0.8243148922920227 0.3150632679462433
-0.5749101042747498 0.824276864528656 0.4426921010017395
-0.5749337673187256 0.8242388963699341 0.5703209042549133
-0.5749574899673462 0.8242008686065674 0.6979497075080872
-0.5749812126159668 0.8241629004478455 0.8255785703659058
-0.5750048756599426 0.8241248726844788 0.9532073736190796
-0.7284470200538635 0.6926639080047607 -0.9612928032875061
-0.7284707427024841 0.692625880241394 -0.8336640000343323
-0.72849440574646 0.6925879120826721 -0.7060351371765137
-0.7285181283950806 0.6925498843193054 -0.5784063339233398
-0.7285418510437012 0.6925119161605835 -0.45077750086784363
-0.728565514087677 0.6924738883972168 -0.3231486976146698
-0.7285892367362976 0.6924359202384949 -0.19551987946033478
-0.7286129593849182 0.6923978924751282 -0.06789105385541916
-0.7286366820335388 0.6923599243164062 0.05973776429891586
-0.7286603450775146 0.6923218965530396 0.1873665750026703
-0.7286840677261353 0.6922839283943176 0.3149954080581665
-0.7287077903747559 0.6922459006309509 0.44262421131134033
-0.7287314534187317 0.692207932472229 0.5702530145645142
-0.7287551760673523 0.6921699047088623 0.6978818774223328
-0.7287788987159729 0.6921319365501404 0.8255106806755066
-0.7288025617599487 0.6920939087867737 0.9531394839286804
-0.8525187969207764 0.5323763489723206 -0.9613635540008545
-0.852542519569397 0.5323383808135986 -0.8337347507476807
-0.8525662422180176 0.5323003530502319 -0.7061059474945068
-0.8525899052619934 0.53226238489151 -0.5784770846366882
-0.852613627910614 0.5322243571281433 -0.4508482813835144
-0.8526373505592346 0.5321863889694214 -0.3232194483280182
-0.8526610136032104 0.5321483612060547 -0.19559064507484436
-0.852684736251831 0.5321103930473328 -0.06796181946992874
-0.8527084589004517 0.5320723652839661 0.05966699868440628
-0.8527321815490723 0.5320343971252441 0.1872958093881607
-0.8527558445930481 0.5319963693618774 0.3149246275424957
-0.8527795672416687 0.5319584012031555 0.44255346059799194
-0.8528032898902893 0.5319203734397888 0.5701822638511658
-0.8528269529342651 0.5318824052810669 0.6978110671043396
-0.8528506755828857 0.5318443775177002 0.8254399299621582
-0.8528743982315063 0.5318064093589783 0.953068733215332
-0.9417852163314819 0.35039445757865906 -0.9614343047142029
-0.9418089389801025 0.35035645961761475 -0.833805501461029
-0.9418326020240784 0.35031846165657043 -0.7061766982078552
-0.941856324672699 0.3502804636955261 -0.5785478353500366
-0.9418800473213196 0.3502424657344818 -0.4509190320968628
-0.9419037103652954 0.3502044677734375 -0.32329022884368896
-0.941927433013916 0.3501664698123932 -0.19566139578819275
-0.9419511556625366 0.3501284718513489 -0.06803258508443832
-0.9419748187065125 0.35009047389030457 0.059596236795186996
-0.9419985413551331 0.35005247592926025 0.18722505867481232
-0.9420222640037537 0.35001447796821594 0.31485387682914734
-0.9420459270477295 0.34997648000717163 0.44248268008232117
-0.9420696496963501 0.3499384820461273 0.5701115131378174
-0.9420933723449707 0.349900484085083 0.6977403163909912
-0.9421170353889465 0.3498624563217163 0.8253691792488098
-0.9421407580375671 0.349824458360672 0.9529979825019836
-0.9925916194915771 0.1541685312986374 -0.961502194404602
-0.9926153421401978 0.15413053333759308 -0.8338733315467834
-0.9926390051841736 0.15409253537654877 -0.7062445282936096
-0.9926627278327942 0.15405453741550446 -0.5786157250404358
-0.9926864504814148 0.15401653945446014 -0.4509868919849396
-0.9927101731300354 0.15397854149341583 -0.32335808873176575
-0.9927338361740112 0.15394054353237152 -0.19572925567626953
-0.9927575588226318 0.1539025455713272 -0.0681004449725151
-0.9927812814712524 0.1538645476102829 0.059528376907110214
-0.9928049445152283 0.1538265496492386 0.18715719878673553
-0.9928286671638489 0.15378855168819427 0.31478601694107056
-0.9928523898124695 0.15375055372714996 0.4424148499965668
-0.9928760528564453 0.15371254086494446 0.570043683052063
-0.9928997755050659 0.15367454290390015 0.6976724863052368
-0.9929234981536865 0.15363654494285583 0.8253012895584106
-0.9929471611976624 0.15359854698181152 0.9529300928115845
-1.00285804271698 -0.04826788604259491 -0.9615643620491028
-1.0028817653656006 -0.04830588400363922 -0.833935558795929
-1.0029054880142212 -0.04834388568997383 -0.7063066959381104
-1.0029290914535522 -0.04838188365101814 -0.5786778926849365
-1.0029528141021729 -0.048419881612062454 -0.4510490894317627
-1.0029765367507935 -0.048457883298397064 -0.3234202563762665
-1.003000259399414 -0.048495881259441376 -0.19579143822193146
-1.0030239820480347 -0.04853387922048569 -0.06816262006759644
-1.0030477046966553 -0.0485718809068203 0.059466198086738586
-1.0030714273452759 -0.04860987886786461 0.1870950162410736
-1.003095030784607 -0.04864787682890892 0.3147238492965698
-1.0031187534332275 -0.04868587851524353 0.44235265254974365
-1.0031424760818481 -0.04872387647628784 0.5699814558029175
-1.0031661987304688 -0.04876187443733215 0.6976103186607361
-1.0031899213790894 -0.04879987612366676 0.8252391219139099
-1.00321364402771 -0.048837874084711075 0.9528679251670837
-0.9721641540527344 -0.24862703680992126 -0.9616183042526245
-0.972187876701355 -0.24866503477096558 -0.8339895009994507
-0.9722115397453308 -0.2487030327320099 -0.7063606977462769
-0.9722352623939514 -0.2487410306930542 -0.5787318348884583
-0.972258985042572 -0.2487790435552597 -0.4511030316352844
-0.9722826480865479 -0.24881704151630402 -0.3234741985797882
-0.9723063707351685 -0.24885503947734833 -0.19584539532661438
-0.9723300933837891 -0.24889303743839264 -0.06821656972169876
-0.9723537564277649 -0.24893103539943695 0.05941224843263626
-0.9723774790763855 -0.24896903336048126 0.18704105913639069
-0.9724012017250061 -0.24900703132152557 0.3146698772907257
-0.9724248647689819 -0.24904502928256989 0.4422987103462219
-0.9724485874176025 -0.2490830272436142 0.5699275135993958
-0.9724723100662231 -0.2491210252046585 0.6975563168525696
-0.972495973110199 -0.24915902316570282 0.8251851797103882
-0.9725196957588196 -0.24919702112674713 0.952813982963562
-0.9017665386199951 -0.4387061893939972 -0.9616618156433105
-0.9017902612686157 -0.4387441873550415 -0.8340330123901367
-0.9018139839172363 -0.4387821853160858 -0.7064042091369629
-0.9018376469612122 -0.4388201832771301 -0.5787753462791443
-0.9018613696098328 -0.43885818123817444 -0.45114654302597046
-0.9018850922584534 -0.43889617919921875 -0.32351773977279663
-0.9019087553024292 -0.43893420696258545 -0.19588890671730042
-0.9019324779510498 -0.43897220492362976 -0.0682600885629654
-0.9019562005996704 -0.4390102028846741 0.05936872959136963
-0.9019798636436462 -0.4390482008457184 0.18699754774570465
-0.9020035862922668 -0.4390861988067627 0.3146263659000397
-0.9020273089408875 -0.439124196767807 0.4422551989555359
-0.9020509719848633 -0.4391621947288513 0.5698840022087097
-0.9020746946334839 -0.43920019268989563 0.6975128054618835
-0.9020984172821045 -0.43923819065093994 0.8251416683197021
-0.9021220803260803 -0.43927618861198425 0.952770471572876
-0.7945473790168762 -0.6107234954833984 -0.9616931080818176
-0.794571042060852 -0.6107615232467651 -0.8340643048286438
-0.7945947647094727 -0.6107994914054871 -0.70643550157547
-0.7946184873580933 -0.6108375191688538 -0.5788066983222961
-0.7946421504020691 -0.6108754873275757 -0.4511778652667999
-0.7946658730506897 -0.6109135150909424 -0.3235490322113037
-0.7946895956993103 -0.6109514832496643 -0.1959202140569687
-0.7947132587432861 -0.610989511013031 -0.06829139590263367
-0.7947369813919067 -0.6110274791717529 0.05933742597699165
-0.7947607040405273 -0.6110655069351196 0.18696624040603638
-0.7947843670845032 -0.6111034750938416 0.3145950734615326
-0.7948080897331238 -0.6111415028572083 0.4422238767147064
-0.7948318123817444 -0.6111794710159302 0.5698527097702026
-0.7948554754257202 -0.6112174987792969 0.6974815130233765
-0.7948791980743408 -0.6112554669380188 0.8251103162765503
-0.7949029207229614 -0.6112934947013855 0.9527391791343689
-0.6548961400985718 -0.757636547088623 -0.9617109298706055
-0.6549198031425476 -0.757674515247345 -0.8340821266174316
-0.6549435257911682 -0.7577125430107117 -0.7064533233642578
-0.6549672484397888 -0.7577505111694336 -0.5788244605064392
-0.6549909114837646 -0.7577885389328003 -0.4511956572532654
-0.6550146341323853 -0.7578265070915222 -0.32356682419776917
-0.6550383567810059 -0.7578645348548889 -0.19593802094459534
-0.6550620198249817 -0.7579025030136108 -0.06830919533967972
-0.6550857424736023 -0.7579405307769775 0.059319622814655304
-0.6551094651222229 -0.7579784989356995 0.18694843351840973
-0.6551331281661987 -0.7580165266990662 0.31457725167274475
-0.6551568508148193 -0.7580544948577881 0.44220608472824097
-0.6551805734634399 -0.7580925226211548 0.5698348879814148
-0.6552042365074158 -0.7581304907798767 0.6974636912345886
-0.6552279591560364 -0.7581685185432434 0.8250925540924072
-0.655251681804657 -0.7582064867019653 0.952721357345581
-0.48853015899658203 -0.8734306693077087 -0.961714506149292
-0.48855385184288025 -0.8734686374664307 -0.8340857028961182
-0.48857757449150085 -0.8735066652297974 -0.7064568996429443
-0.4886012673377991 -0.8735446333885193 -0.5788280367851257
-0.4886249601840973 -0.873582661151886 -0.4511992335319519
-0.4886486828327179 -0.8736206293106079 -0.3235704004764557
-0.4886723756790161 -0.8736586570739746 -0.19594159722328186
-0.4886960983276367 -0.8736966252326965 -0.06831277906894684
-0.48871979117393494 -0.8737346529960632 0.05931604281067848
-0.48874348402023315 -0.8737726211547852 0.1869448572397232
-0.48876720666885376 -0.8738106489181519 0.3145736753940582
-0.488790899515152 -0.8738486170768738 0.44220250844955444
-0.4888145923614502 -0.8738866448402405 0.5698313117027283
-0.4888383150100708 -0.8739246129989624 0.6974601149559021
-0.488862007856369 -0.8739626407623291 0.8250889778137207
-0.48888570070266724 -0.874000608921051 0.9527177810668945
-0.30226054787635803 -0.9533652663230896 -0.9617037177085876
-0.30228424072265625 -0.9534032344818115 -0.8340749144554138
-0.30230796337127686 -0.9534412622451782 -0.7064460515975952
-0.3023316562175751 -0.9534792304039001 -0.5788172483444214
-0.3023553490638733 -0.9535172581672668 -0.45118844509124756
-0.3023790717124939 -0.9535552263259888 -0.32355961203575134
-0.3024027645587921 -0.9535932540893555 -0.19593079388141632
-0.30242645740509033 -0.9536312222480774 -0.0683019831776619
-0.30245018005371094 -0.9536692500114441 0.059326838701963425
-0.30247387290000916 -0.953707218170166 0.18695566058158875
-0.30249759554862976 -0.9537452459335327 0.3145844638347626
-0.302521288394928 -0.9537832140922546 0.4422132968902588
-0.3025449812412262 -0.9538212418556213 0.5698421001434326
-0.3025687038898468 -0.9538592100143433 0.6974709630012512
-0.302592396736145 -0.95389723777771 0.825099766254425
-0.30261608958244324 -0.9539352059364319 0.9527285695075989
-0.10371316969394684 -0.9941678047180176 -0.9616789817810059
-0.10373686999082565 -0.9942057728767395 -0.834050178527832
-0.10376057773828506 -0.9942438006401062 -0.7064213752746582
-0.10378427803516388 -0.9942817687988281 -0.5787925124168396
-0.10380798578262329 -0.9943197965621948 -0.45116370916366577
-0.1038316860795021 -0.9943577647209167 -0.32353490591049194
-0.10385538637638092 -0.9943957924842834 -0.19590607285499573
-0.10387909412384033 -0.9944337606430054 -0.0682772547006607
-0.10390279442071915 -0.9944717884063721 0.059351563453674316
-0.10392650216817856 -0.994509756565094 0.18698038160800934
-0.10395020246505737 -0.9945477843284607 0.31460919976234436
-0.10397390276193619 -0.9945857524871826 0.4422380328178406
-0.1039976105093956 -0.9946237802505493 0.5698668360710144
-0.10402131080627441 -0.9946617484092712 0.6974956393241882
-0.10404501855373383 -0.9946997761726379 0.8251245021820068
-0.10406871885061264 -0.9947377443313599 0.9527533054351807
0.09898342192173004 -0.9941678047180176 -0.9616413712501526
0.09895971417427063 -0.9942057728767395 -0.834012508392334
0.09893601387739182 -0.9942438006401062 -0.7063837051391602
0.098912313580513 -0.9942817687988281 -0.5787549018859863
0.09888860583305359 -0.9943197965621948 -0.4511260688304901
0.09886490553617477 -0.9943577647209167 -0.3234972357749939
0.09884119778871536 -0.9943957924842834 -0.19586843252182007
0.09881749749183655 -0.9944337606430054 -0.06823960691690445
0.09879379719495773 -0.9944717884063721 0.05938921123743057
0.09877008944749832 -0.994509756565094 0.1870180368423462
0.0987463891506195 -0.9945477843284607 0.31464684009552
0.0987226814031601 -0.9945857524871826 0.44227567315101624
0.09869898110628128 -0.9946237802505493 0.5699045062065125
0.09867527335882187 -0.994661808013916 0.6975333094596863
0.09865157306194305 -0.9946997761726379 0.8251621127128601
0.09862787276506424 -0.9947378039360046 0.9527909159660339
0.29753080010414124 -0.9533652663230896 -0.9615923166275024
0.297507107257843 -0.9534032940864563 -0.8339635133743286
0.2974833846092224 -0.9534412622451782 -0.7063347101211548
0.2974596917629242 -0.9534792900085449 -0.5787058472633362
0.297435998916626 -0.9535172581672668 -0.45107704401016235
0.29741227626800537 -0.9535552859306335 -0.32344821095466614
0.29738858342170715 -0.9535932540893555 -0.1958194077014923
0.29736486077308655 -0.9536312818527222 -0.06819058954715729
0.29734116792678833 -0.9536692500114441 0.05943823233246803
0.2973174750804901 -0.9537072777748108 0.18706704676151276
0.2972937524318695 -0.9537452459335327 0.3146958649158478
0.2972700595855713 -0.9537832736968994 0.442324697971344
0.29724636673927307 -0.9538212418556213 0.5699535012245178
0.29722264409065247 -0.953859269618988 0.6975823044776917
0.29719895124435425 -0.95389723777771 0.8252111673355103
0.29717525839805603 -0.9539352655410767 0.9528399705886841
0.48380041122436523 -0.8734307289123535 -0.9615339040756226
0.483776718378067 -0.8734686970710754 -0.8339051008224487
0.4837529957294464 -0.8735067248344421 -0.7062762975692749
0.4837293028831482 -0.8735446929931641 -0.5786474943161011
0.48370561003685 -0.8735827207565308 -0.45101866126060486
0.48368188738822937 -0.8736206889152527 -0.32338982820510864
0.48365819454193115 -0.8736587166786194 -0.19576101005077362
0.48363450169563293 -0.8736966848373413 -0.0681321918964386
0.48361077904701233 -0.873734712600708 0.05949662625789642
0.4835870862007141 -0.8737726807594299 0.18712544441223145
0.4835633933544159 -0.8738107085227966 0.31475427746772766
0.4835396707057953 -0.8738486766815186 0.4423830807209015
0.48351597785949707 -0.8738867044448853 0.5700119137763977
0.48349225521087646 -0.8739246726036072 0.6976407170295715
0.48346856236457825 -0.8739627003669739 0.8252695202827454
0.48344486951828003 -0.8740006685256958 0.952898383140564
0.650166392326355 -0.7576366066932678 -0.9614685773849487
0.6501426696777344 -0.7576745748519897 -0.8338397145271301
0.6501189470291138 -0.7577126026153564 -0.7062109112739563
0.6500952243804932 -0.7577505707740784 -0.5785821080207825
0.6500715613365173 -0.7577885985374451 -0.45095327496528625
0.6500478386878967 -0.757826566696167 -0.3233244717121124
0.6500241160392761 -0.7578645944595337 -0.1956956386566162
0.6500004529953003 -0.7579025626182556 -0.06806682050228119
0.6499767303466797 -0.7579405903816223 0.05956200137734413
0.6499530076980591 -0.757978618144989 0.18719081580638885
0.6499293446540833 -0.7580165863037109 0.3148196339607239
0.6499056220054626 -0.7580546140670776 0.4424484670162201
0.649881899356842 -0.7580925822257996 0.5700773000717163
0.6498582363128662 -0.7581306099891663 0.6977061033248901
0.6498345136642456 -0.7581685781478882 0.825334906578064
0.649810791015625 -0.7582066059112549 0.9529637098312378
0.7898176312446594 -0.6107235550880432 -0.9613988995552063
0.7897939085960388 -0.6107615828514099 -0.8337700366973877
0.7897701859474182 -0.6107996106147766 -0.7061412334442139
0.7897465229034424 -0.6108375787734985 -0.57851243019104
0.7897228002548218 -0.6108756065368652 -0.4508835971355438
0.7896990776062012 -0.6109135746955872 -0.32325479388237
0.7896754145622253 -0.6109516024589539 -0.19562596082687378
0.7896516919136047 -0.6109895706176758 -0.06799714267253876
0.7896279692649841 -0.6110275983810425 0.059631675481796265
0.7896043062210083 -0.6110655665397644 0.1872604936361313
0.7895805835723877 -0.6111035943031311 0.3148893117904663
0.7895568609237671 -0.611141562461853 0.4425181448459625
0.7895331382751465 -0.6111795902252197 0.5701469779014587
0.7895094752311707 -0.6112175583839417 0.6977757811546326
0.78948575258255 -0.6112555861473083 0.8254045844078064
0.7894620299339294 -0.6112935543060303 0.9530333876609802
0.8970367908477783 -0.43870630860328674 -0.9613277316093445
0.8970131278038025 -0.43874430656433105 -0.8336989283561707
0.8969894051551819 -0.43878230452537537 -0.7060701251029968
0.8969656825065613 -0.4388203024864197 -0.5784412622451782
0.8969420194625854 -0.438858300447464 -0.4508124589920044
0.8969182968139648 -0.4388962984085083 -0.32318365573883057
0.8968945741653442 -0.4389342963695526 -0.19555483758449554
0.8968709111213684 -0.4389722943305969 -0.06792601197957993
0.8968471884727478 -0.43901029229164124 0.059702806174755096
0.8968234658241272 -0.43904829025268555 0.18733161687850952
0.8967998027801514 -0.43908628821372986 0.31496044993400574
0.8967760801315308 -0.43912428617477417 0.44258925318717957
0.8967523574829102 -0.4391622841358185 0.5702180862426758
0.8967286348342896 -0.4392002820968628 0.6978468894958496
0.8967049717903137 -0.4392382800579071 0.8254756927490234
0.8966812491416931 -0.4392762780189514 0.953104555606842
0.9674344062805176 -0.24862714111804962 -0.961258053779602
0.967410683631897 -0.24866515398025513 -0.8336292505264282
0.9673870205879211 -0.24870315194129944 -0.7060004472732544
0.9673632979393005 -0.24874114990234375 -0.5783716440200806
0.9673395752906799 -0.24877914786338806 -0.45074281096458435
0.9673158526420593 -0.24881714582443237 -0.32311397790908813
0.9672921895980835 -0.24885514378547668 -0.1954851597547531
0.9672684669494629 -0.248893141746521 -0.06785634905099869
0.9672447443008423 -0.2489311397075653 0.05977247282862663
0.9672210812568665 -0.24896913766860962 0.18740129470825195
0.9671973586082458 -0.24900713562965393 0.3150300979614258
0.9671736359596252 -0.24904513359069824 0.442658931016922
0.9671499729156494 -0.24908313155174255 0.5702877640724182
0.9671262502670288 -0.24912114441394806 0.697916567325592
0.9671025276184082 -0.24915914237499237 0.8255453705787659
0.9670788645744324 -0.24919714033603668 0.9531742334365845
0.9981282949447632 -0.048267997801303864 -0.9611927270889282
0.9981045722961426 -0.048305995762348175 -0.8335639238357544
0.9980809092521667 -0.04834399372339249 -0.7059350609779358
0.9980571866035461 -0.0483819954097271 -0.578306257724762
0.9980334639549255 -0.04841999337077141 -0.45067745447158813
0.9980098009109497 -0.04845799133181572 -0.3230486214160919
0.9979860782623291 -0.04849599301815033 -0.1954198181629181
0.9979623556137085 -0.04853399097919464 -0.06779099255800247
0.9979386925697327 -0.04857198894023895 0.05983782559633255
0.9979149699211121 -0.04860999062657356 0.18746665120124817
0.9978912472724915 -0.048647988587617874 0.315095454454422
0.9978675842285156 -0.048685986548662186 0.4427242875099182
0.997843861579895 -0.048723988234996796 0.570353090763092
0.9978201389312744 -0.04876198619604111 0.6979818940162659
0.9977964162826538 -0.04879998415708542 0.8256107568740845
0.997772753238678 -0.04883798584342003 0.9532395601272583
0.9878618717193604 0.15416842699050903 -0.9611343741416931
0.9878381490707397 0.15413042902946472 -0.8335055708885193
0.9878144860267639 0.1540924310684204 -0.7058767080307007
0.9877907633781433 0.1540544331073761 -0.5782479047775269
0.9877670407295227 0.1540164351463318 -0.45061907172203064
0.9877433776855469 0.15397843718528748 -0.3229902684688568
0.9877196550369263 0.15394043922424316 -0.1953614503145218
0.9876959323883057 0.15390242636203766 -0.06773263216018677
0.9876722693443298 0.15386442840099335 0.05989618971943855
0.9876485466957092 0.15382643043994904 0.18752500414848328
0.9876248240470886 0.15378843247890472 0.3151538372039795
0.9876011610031128 0.1537504345178604 0.4427826404571533
0.9875774383544922 0.1537124365568161 0.5704114437103271
0.9875537157058716 0.1536744385957718 0.6980403065681458
0.9875300526618958 0.15363644063472748 0.8256691098213196
0.9875063300132751 0.15359844267368317 0.9532979130744934
0.9370554685592651 0.3503943681716919 -0.9610853791236877
0.9370317459106445 0.3503563702106476 -0.8334565758705139
0.9370080828666687 0.3503183424472809 -0.7058277130126953
0.9369843602180481 0.3502803444862366 -0.5781989097595215
0.9369606375694275 0.35024234652519226 -0.45057010650634766
0.9369369745254517 0.35020434856414795 -0.32294127345085144
0.936913251876831 0.35016635060310364 -0.19531245529651642
0.9368895292282104 0.3501283526420593 -0.067683644592762
0.9368658661842346 0.350090354681015 0.05994517728686333
0.936842143535614 0.3500523567199707 0.18757399916648865
0.9368184208869934 0.3500143587589264 0.3152028024196625
0.9367947578430176 0.3499763607978821 0.4428316354751587
0.936771035194397 0.34993836283683777 0.5704604387283325
0.9367473125457764 0.34990036487579346 0.6980893015861511
0.9367235898971558 0.34986236691474915 0.825718104839325
0.9366999268531799 0.34982436895370483 0.9533469080924988
0.8477890491485596 0.5323762893676758 -0.9610477685928345
0.8477653861045837 0.5323382616043091 -0.8334189653396606
0.8477416634559631 0.5323002934455872 -0.7057901620864868
0.8477179408073425 0.5322622656822205 -0.5781612992286682
0.8476942777633667 0.5322242975234985 -0.4505324959754944
0.8476705551147461 0.5321862697601318 -0.32290366291999817
0.8476468324661255 0.5321483016014099 -0.19527485966682434
0.8476231694221497 0.5321102738380432 -0.06764604151248932
0.847599446773529 0.5320723056793213 0.059982780367136
0.8475757241249084 0.5320342779159546 0.18761159479618073
0.8475520610809326 0.5319963097572327 0.31524041295051575
0.847528338432312 0.531958281993866 0.44286924600601196
0.8475046157836914 0.5319202542304993 0.5704980492591858
0.8474809527397156 0.5318822860717773 0.6981268525123596
0.847457230091095 0.5318442583084106 0.8257557153701782
0.8474335074424744 0.5318062901496887 0.953384518623352
0.7237172722816467 0.692663848400116 -0.9610230922698975
0.7236935496330261 0.6926258206367493 -0.8333942890167236
0.7236698865890503 0.6925877928733826 -0.705765426158905
0.7236461639404297 0.6925498247146606 -0.5781366229057312
0.7236224412918091 0.692511796951294 -0.4505078196525574
0.7235987782478333 0.692473828792572 -0.32287898659706116
0.7235750555992126 0.6924358010292053 -0.19525018334388733
0.723551332950592 0.6923978328704834 -0.06762135773897171
0.7235276699066162 0.6923598051071167 0.06000746041536331
0.7235039472579956 0.6923218369483948 0.18763628602027893
0.723480224609375 0.6922838091850281 0.31526508927345276
0.7234565615653992 0.6922458410263062 0.442893922328949
0.7234328389167786 0.6922078132629395 0.5705227255821228
0.723409116268158 0.6921698451042175 0.6981515288352966
0.7233854532241821 0.6921318173408508 0.8257803916931152
0.7233617305755615 0.6920938491821289 0.9534091949462891
0.5699195861816406 0.824694812297821 -0.9610123634338379
0.56989586353302 0.8246567845344543 -0.8333835005760193
0.5698722004890442 0.8246188163757324 -0.7057546973228455
0.5698484778404236 0.8245807886123657 -0.5781258940696716
0.569824755191803 0.8245428204536438 -0.4504970610141754
0.5698010921478271 0.8245047926902771 -0.3228682577610016
0.5697773694992065 0.8244668245315552 -0.19523942470550537
0.5697536468505859 0.8244287967681885 -0.06761061400175095
0.5697299838066101 0.8243908286094666 0.060018207877874374
0.5697062611579895 0.8243528008460999 0.1876470297574997
0.5696825385093689 0.8243148326873779 0.3152758479118347
0.5696588754653931 0.8242768049240112 0.44290465116500854
0.5696351528167725 0.8242388367652893 0.5705334544181824
0.5696114301681519 0.8242008090019226 0.698162317276001
0.569587767124176 0.8241628408432007 0.8257911205291748
0.5695640444755554 0.824124813079834 0.9534199237823486
0.392692506313324 0.9230638742446899 -0.9610159993171692
0.39266881346702576 0.9230258464813232 -0.8333871364593506
0.39264512062072754 0.9229878783226013 -0.7057583332061768
0.39262139797210693 0.9229498505592346 -0.5781295299530029
0.3925977051258087 0.9229118824005127 -0.4505006968975067
0.3925740122795105 0.922873854637146 -0.3228718638420105
0.3925502896308899 0.9228358864784241 -0.19524306058883667
0.3925265967845917 0.9227978587150574 -0.06761424243450165
0.39250290393829346 0.9227598905563354 0.06001457944512367
0.39247918128967285 0.9227218627929688 0.1876433938741684
0.39245548844337463 0.9226838946342468 0.3152722120285034
0.39243176579475403 0.9226458668708801 0.44290104508399963
0.3924080729484558 0.9226078987121582 0.5705298781394958
0.3923843801021576 0.9225698709487915 0.6981586813926697
0.392360657453537 0.9225319027900696 0.8257874846458435
0.39233696460723877 0.9224938750267029 0.9534162878990173
0.19929175078868866 0.9837437868118286 -0.961033821105957
0.19926804304122925 0.9837057590484619 -0.8334050178527832
0.19924433529376984 0.9836677312850952 -0.7057762145996094
0.19922062754631042 0.9836297631263733 -0.5781473517417908
0.1991969347000122 0.9835917353630066 -0.45051854848861694
0.1991732269525528 0.9835537672042847 -0.3228897452354431
0.19914951920509338 0.983515739440918 -0.1952609121799469
0.19912582635879517 0.983477771282196 -0.06763209402561188
0.19910211861133575 0.9834397435188293 0.05999672785401344
0.19907841086387634 0.9834017753601074 0.18762554228305817
0.19905471801757812 0.9833637475967407 0.3152543604373932
0.1990310102701187 0.9833257794380188 0.4428831934928894
0.1990073025226593 0.9832877516746521 0.5705119967460632
0.1989835947751999 0.9832497835159302 0.6981407999992371
0.19895990192890167 0.9832117557525635 0.8257696628570557
0.19893619418144226 0.9831737875938416 0.9533984661102295
-0.0023648738861083984 1.0042502880096436 -0.9610651731491089
-0.0023885772097855806 1.0042122602462769 -0.8334363698959351
-0.0024122807662934065 1.0041742324829102 -0.7058075070381165
-0.0024359840899705887 1.0041362047195435 -0.5781787037849426
-0.002459687413647771 1.0040982961654663 -0.4505499005317688
-0.0024833909701555967 1.0040602684020996 -0.3229210674762726
-0.002507094293832779 1.004022240638733 -0.19529226422309875
-0.002530797617509961 1.0039842128753662 -0.06766343861818314
-0.002554501174017787 1.003946304321289 0.059965379536151886
-0.002578204497694969 1.0039082765579224 0.1875942051410675
-0.0026019078213721514 1.0038702487945557 0.31522300839424133
-0.0026256113778799772 1.003832221031189 0.44285184144973755
-0.0026493147015571594 1.0037943124771118 0.5704806447029114
-0.0026730182580649853 1.0037562847137451 0.6981094479560852
-0.0026967215817421675 1.0037182569503784 0.8257383108139038
-0.0027204249054193497 1.0036802291870117 0.9533671140670776
