ply
format ascii 1.0
element vertex 512
property float x
property float y
property float z
end_header
-0.17715978622436523 -1.0659081935882568 1.0594313144683838
-0.15722718834877014 -1.060948371887207 0.9071433544158936
-0.13729459047317505 -1.0559885501861572 0.7548553347587585
-0.11736198514699936 -1.0510286092758179 0.6025673151016235
-0.09742938727140427 -1.046068787574768 0.4502792954444885
-0.07749678194522858 -1.0411089658737183 0.2979912757873535
-0.057564184069633484 -1.0361491441726685 0.1457032561302185
-0.03763158246874809 -1.031189203262329 -0.0065847644582390785
-0.01769898273050785 -1.0262293815612793 -0.1588727831840515
0.0022336174733936787 -1.0212695598602295 -0.3111608028411865
0.022166218608617783 -1.0163097381591797 -0.46344882249832153
0.042098816484212875 -1.0113499164581299 -0.6157368421554565
0.06203141808509827 -1.0063899755477905 -0.7680248618125916
0.08196401596069336 -1.0014301538467407 -0.9203128814697266
0.10189662128686905 -0.9964703321456909 -1.0726008415222168
0.12182921916246414 -0.9915104508399963 -1.2248889207839966
-0.39270931482315063 -1.042896032333374 1.031968116760254
-0.37277671694755554 -1.0379362106323242 0.8796800971031189
-0.35284411907196045 -1.0329763889312744 0.7273920774459839
-0.33291152119636536 -1.028016448020935 0.5751040577888489
-0.31297892332077026 -1.0230566263198853 0.4228160083293915
-0.2930462956428528 -1.0180968046188354 0.27052801847457886
-0.2731136977672577 -1.0131369829177856 0.11823999136686325
-0.2531810998916626 -1.0081770420074463 -0.03404802456498146
-0.2332485020160675 -1.0032172203063965 -0.18633604049682617
-0.2133159041404724 -0.9982573986053467 -0.3386240601539612
-0.19338330626487732 -0.9932975172996521 -0.4909120798110962
-0.17345070838928223 -0.9883376955986023 -0.6432000994682312
-0.15351811051368713 -0.9833778142929077 -0.7954881191253662
-0.13358551263809204 -0.9784179925918579 -0.9477761387825012
-0.11365290731191635 -0.9734581112861633 -1.1000641584396362
-0.09372030198574066 -0.9684982895851135 -1.2523521184921265
-0.5994341969490051 -0.9766374230384827 1.007068395614624
-0.5795016288757324 -0.9716775417327881 0.8547803163528442
-0.5595690011978149 -0.9667177200317383 0.7024922966957092
-0.5396364331245422 -0.9617578387260437 0.5502042770385742
-0.5197038054466248 -0.9567980170249939 0.3979162871837616
-0.49977120757102966 -0.9518381357192993 0.2456282675266266
-0.47983860969543457 -0.9468783140182495 0.09334024786949158
-0.4599060118198395 -0.9419184327125549 -0.058947764337062836
-0.4399734139442444 -0.9369586110115051 -0.21123577654361725
-0.4200408160686493 -0.9319987297058105 -0.36352381110191345
-0.4001082181930542 -0.9270389080047607 -0.5158118009567261
-0.3801756203174591 -0.9220790266990662 -0.6680998206138611
-0.360243022441864 -0.9171192049980164 -0.8203878402709961
-0.34031039476394653 -0.9121593236923218 -0.9726758599281311
-0.32037779688835144 -0.907199501991272 -1.1249638795852661
-0.30044519901275635 -0.9022396206855774 -1.2772518396377563
-0.788871169090271 -0.8698449730873108 0.9857515096664429
-0.7689385414123535 -0.8648850917816162 0.8334634900093079
-0.7490059733390808 -0.8599252700805664 0.6811754703521729
-0.7290733456611633 -0.8549653887748718 0.5288874506950378
-0.7091407775878906 -0.850005567073822 0.3765994608402252
-0.6892081499099731 -0.8450456857681274 0.2243114411830902
-0.6692755222320557 -0.8400858640670776 0.0720234289765358
-0.649342954158783 -0.8351259827613831 -0.08026458323001862
-0.6294103264808655 -0.8301661610603333 -0.23255260288715363
-0.6094777584075928 -0.8252062797546387 -0.38484060764312744
-0.5895451307296753 -0.8202464580535889 -0.5371286273002625
-0.5696125626564026 -0.8152865767478943 -0.6894166469573975
-0.5496799349784851 -0.8103267550468445 -0.8417046666145325
-0.5297473669052124 -0.8053668737411499 -0.9939926862716675
-0.5098147392272949 -0.8004070520401001 -1.1462806463241577
-0.48988214135169983 -0.7954471707344055 -1.2985687255859375
-0.9532645344734192 -0.7268908023834229 0.968890368938446
-0.9333319664001465 -0.7219309210777283 0.816602349281311
-0.913399338722229 -0.7169710993766785 0.664314329624176
-0.8934667706489563 -0.7120112180709839 0.512026309967041
-0.8735341429710388 -0.7070513963699341 0.359738290309906
-0.8536015748977661 -0.7020915150642395 0.2074502557516098
-0.8336689472198486 -0.6971316933631897 0.05516224354505539
-0.8137363791465759 -0.6921718120574951 -0.09712576866149902
-0.7938037514686584 -0.6872119903564453 -0.24941378831863403
-0.773871123790741 -0.6822521090507507 -0.40170180797576904
-0.7539385557174683 -0.6772922873497009 -0.553989827632904
-0.7340059280395508 -0.6723324060440063 -0.7062778472900391
-0.7140733599662781 -0.6673725843429565 -0.8585658669471741
-0.6941407322883606 -0.662412703037262 -1.010853886604309
-0.6742081642150879 -0.6574528813362122 -1.1631418466567993
-0.6542755365371704 -0.6524930000305176 -1.315429925918579
-1.0858840942382812 -0.5536274313926697 0.957175076007843
-1.0659515857696533 -0.5486675500869751 0.804887056350708
-1.0460189580917358 -0.5437077283859253 0.652599036693573
-1.0260863304138184 -0.5387478470802307 0.500311017036438
-1.0061537027359009 -0.5337880253791809 0.34802302718162537
-0.9862211346626282 -0.5288281440734863 0.19573500752449036
-0.9662885069847107 -0.5238683223724365 0.043446991592645645
-0.946355938911438 -0.5189084410667419 -0.10884102433919907
-0.9264233112335205 -0.5139486193656921 -0.2611290514469147
-0.9064907431602478 -0.5089887380599976 -0.4134170413017273
-0.8865581154823303 -0.5040289163589478 -0.5657050609588623
-0.8666255474090576 -0.49906906485557556 -0.7179930806159973
-0.8466929197311401 -0.49410921335220337 -0.8702811002731323
-0.8267603516578674 -0.4891493618488312 -1.0225690603256226
-0.80682772397995 -0.484189510345459 -1.1748571395874023
-0.7868951559066772 -0.4792296588420868 -1.3271450996398926
-1.181300401687622 -0.35714831948280334 0.9510853886604309
-1.1613678932189941 -0.35218846797943115 0.7987973690032959
-1.1414352655410767 -0.34722861647605896 0.6465093493461609
-1.1215026378631592 -0.34226879477500916 0.4942213296890259
-1.1015700101852417 -0.33730894327163696 0.34193333983421326
-1.0816373825073242 -0.33234909176826477 0.18964530527591705
-1.0617048740386963 -0.3273892402648926 0.03735729306936264
-1.0417722463607788 -0.3224293887615204 -0.11493071913719177
-1.0218396186828613 -0.3174695372581482 -0.2672187387943268
-1.0019069910049438 -0.312509685754776 -0.4195067584514618
-0.9819744229316711 -0.3075498342514038 -0.5717947483062744
-0.9620418548583984 -0.3025899827480316 -0.7240827679634094
-0.942109227180481 -0.2976301312446594 -0.8763707876205444
-0.9221766591072083 -0.29267027974128723 -1.0286588668823242
-0.9022440314292908 -0.28771042823791504 -1.1809468269348145
-0.8823114037513733 -0.28275057673454285 -1.3332349061965942
-1.2356071472167969 -0.1454973667860031 0.9508705735206604
-1.2156745195388794 -0.14053751528263092 0.7985825538635254
-1.195741891860962 -0.13557767868041992 0.6462945342063904
-1.1758092641830444 -0.13061782717704773 0.49400651454925537
-1.1558767557144165 -0.12565797567367554 0.34171849489212036
-1.135944128036499 -0.12069811671972275 0.18943047523498535
-1.1160115003585815 -0.11573826521635056 0.03714246675372124
-1.096078872680664 -0.11077841371297836 -0.11514554917812347
-1.0761462450027466 -0.10581856220960617 -0.2674335539340973
-1.0562137365341187 -0.10085871070623398 -0.4197215735912323
-1.0362811088562012 -0.09589885920286179 -0.5720096230506897
-1.0163484811782837 -0.0909390076994896 -0.7242975831031799
-0.996415913105011 -0.085979163646698 -0.8765856027603149
-0.9764832854270935 -0.0810193121433258 -1.0288736820220947
-0.9565507173538208 -0.07605946063995361 -1.181161642074585
-0.9366180896759033 -0.07109960913658142 -1.3334497213363647
-1.2465808391571045 0.07266043871641159 0.9565393924713135
-1.226648211479187 0.07762029021978378 0.8042513728141785
-1.2067155838012695 0.08258014172315598 0.6519633531570435
-1.186782956123352 0.08753999322652817 0.49967536330223083
-1.1668504476547241 0.09249984472990036 0.3473873436450958
-1.1469178199768066 0.09745969623327255 0.19509932398796082
-1.1269851922988892 0.10241954773664474 0.04281130060553551
-1.1070525646209717 0.10737939924001694 -0.1094767153263092
-1.0871200561523438 0.11233924329280853 -0.2617647349834442
-1.0671874284744263 0.11729909479618073 -0.4140527546405792
-1.0472548007965088 0.12225894629955292 -0.5663407444953918
-1.0273221731185913 0.1272187978029251 -0.7186287641525269
-1.0073895454406738 0.1321786493062973 -0.8709167838096619
-0.9874569773674011 0.1371385008096695 -1.0232048034667969
-0.9675244092941284 0.1420983523130417 -1.1754928827285767
-0.9475917816162109 0.14705820381641388 -1.327780842781067
-1.2137722969055176 0.28839370608329773 0.9678598046302795
-1.1938396692276 0.2933535575866699 0.8155717849731445
-1.1739070415496826 0.2983134090900421 0.6632837653160095
-1.1539745330810547 0.3032732605934143 0.5109957456588745
-1.1340419054031372 0.3082331120967865 0.3587077558040619
-1.1141092777252197 0.3131929636001587 0.20641973614692688
-1.0941766500473022 0.3181528151035309 0.05413172021508217
-1.0742441415786743 0.3231126666069031 -0.09815629571676254
-1.0543115139007568 0.32807251811027527 -0.25044432282447815
-1.0343788862228394 0.33303236961364746 -0.40273234248161316
-1.0144462585449219 0.33799219131469727 -0.5550203323364258
-0.9945136904716492 0.34295204281806946 -0.7073083519935608
-0.9745810627937317 0.34791189432144165 -0.8595963716506958
-0.954648494720459 0.35287174582481384 -1.011884331703186
-0.9347158670425415 0.35783159732818604 -1.1641724109649658
-0.9147832989692688 0.3627914488315582 -1.316460371017456
-1.1385247707366943 0.4928702414035797 0.9843683242797852
-1.1185921430587769 0.4978300929069519 0.8320803642272949
-1.0986595153808594 0.5027899742126465 0.6797923445701599
-1.078726887702942 0.5077497959136963 0.5275043249130249
-1.058794379234314 0.5127096772193909 0.3752162754535675
-1.0388617515563965 0.5176694989204407 0.2229282706975937
-1.018929123878479 0.5226293802261353 0.07064025849103928
-0.9989965558052063 0.5275892019271851 -0.08164776116609573
-0.9790639281272888 0.5325490832328796 -0.23393577337265015
-0.9591313600540161 0.5375089049339294 -0.38622379302978516
-0.9391987323760986 0.542468786239624 -0.5385118126869202
-0.9192661046981812 0.5474286079406738 -0.6907998323440552
-0.8993335366249084 0.5523884892463684 -0.8430878520011902
-0.879400908946991 0.5573483109474182 -0.9953758716583252
-0.8594683408737183 0.5623081922531128 -1.1476638317108154
-0.8395357131958008 0.5672680139541626 -1.2999519109725952
-1.0239187479019165 0.6777188181877136 1.0053890943527222
-1.0039862394332886 0.6826786398887634 0.8531011343002319
-0.9840536117553711 0.687638521194458 0.7008131146430969
-0.9641209840774536 0.6925983428955078 0.5485250949859619
-0.9441884160041809 0.6975582242012024 0.3962370753288269
-0.9242557883262634 0.7025180459022522 0.2439490705728531
-0.904323160648346 0.7074779272079468 0.09166105836629868
-0.8843905925750732 0.7124377489089966 -0.060626957565546036
-0.8644579648971558 0.7173976302146912 -0.21291497349739075
-0.8445253968238831 0.722357451915741 -0.36520299315452576
-0.8245927691459656 0.7273173332214355 -0.5174909830093384
-0.8046602010726929 0.7322771549224854 -0.6697790026664734
-0.7847275733947754 0.7372370362281799 -0.8220670223236084
-0.7647950053215027 0.7421968579292297 -0.9743550419807434
-0.7448623776435852 0.7471567392349243 -1.1266430616378784
-0.7249298095703125 0.7521165609359741 -1.2789311408996582
-0.8746464252471924 0.8353716731071472 1.0300616025924683
-0.8547138571739197 0.840331494808197 0.8777735829353333
-0.8347812294960022 0.8452913761138916 0.7254855632781982
-0.8148486018180847 0.8502511978149414 0.5731975436210632
-0.794916033744812 0.855211079120636 0.4209095537662506
-0.7749834060668945 0.8601709008216858 0.2686215341091156
-0.7550508379936218 0.8651307821273804 0.11633352190256119
-0.7351182103157043 0.8700906038284302 -0.035954490303993225
-0.7151856422424316 0.8750504851341248 -0.18824250996112823
-0.6952530145645142 0.8800103068351746 -0.34053051471710205
-0.6753204464912415 0.8849701881408691 -0.49281853437423706
-0.655387818813324 0.889930009841919 -0.6451065540313721
-0.6354552507400513 0.8948898911476135 -0.7973945736885071
-0.6155226230621338 0.8998497128486633 -0.9496825933456421
-0.5955900549888611 0.9048095941543579 -1.1019705533981323
-0.5756574273109436 0.9097694158554077 -1.254258632659912
-0.6968188881874084 0.9593744874000549 1.0573756694793701
-0.676886260509491 0.9643343091011047 0.9050876498222351
-0.6569536924362183 0.9692941904067993 0.7527996301651001
-0.6370210647583008 0.9742540121078491 0.6005116105079651
-0.6170884966850281 0.9792138934135437 0.4482235908508301
-0.5971558690071106 0.9841737151145935 0.29593557119369507
-0.5772233009338379 0.9891335964202881 0.14364756643772125
-0.5572906732559204 0.9940934181213379 -0.008640451356768608
-0.5373581051826477 0.9990532994270325 -0.16092847287654877
-0.5174254775047302 1.004013180732727 -0.3132164776325226
-0.49749287962913513 1.0089730024337769 -0.4655044972896576
-0.47756028175354004 1.0139328241348267 -0.6177924871444702
-0.45762768387794495 1.0188926458358765 -0.7700805068016052
-0.43769508600234985 1.0238525867462158 -0.9223685264587402
-0.41776248812675476 1.0288124084472656 -1.07465660572052
-0.39782989025115967 1.0337722301483154 -1.2269445657730103
-0.49771642684936523 1.0446505546569824 1.0862129926681519
-0.47778382897377014 1.0496103763580322 0.9339250326156616
-0.45785123109817505 1.054570198059082 0.7816370129585266
-0.43791863322257996 1.0595301389694214 0.6293489933013916
-0.41798603534698486 1.0644899606704712 0.4770609736442566
-0.39805343747138977 1.069449782371521 0.3247729539871216
-0.3781208395957947 1.0744096040725708 0.17248493432998657
-0.3581882417201996 1.0793695449829102 0.02019692026078701
-0.3382556438446045 1.08432936668396 -0.13209109008312225
-0.3183230459690094 1.0892891883850098 -0.28437912464141846
-0.2983904182910919 1.0942490100860596 -0.4366671144962311
-0.2784578204154968 1.099208950996399 -0.5889551639556885
-0.25852522253990173 1.1041687726974487 -0.7412431836128235
-0.23859262466430664 1.1091285943984985 -0.8935311436653137
-0.21866002678871155 1.1140884160995483 -1.0458191633224487
-0.19872742891311646 1.1190483570098877 -1.1981072425842285
-0.28549036383628845 1.0877087116241455 1.1153931617736816
-0.26555776596069336 1.0926685333251953 0.9631051421165466
-0.24562515318393707 1.0976283550262451 0.8108171224594116
-0.22569255530834198 1.102588176727295 0.6585291028022766
-0.2057599574327469 1.1075481176376343 0.5062410831451416
-0.1858273595571518 1.112507939338684 0.3539530634880066
-0.1658947616815567 1.1174677610397339 0.2016650289297104
-0.14596214890480042 1.1224275827407837 0.049377020448446274
-0.12602955102920532 1.127387523651123 -0.10291099548339844
-0.10609695315361023 1.1323473453521729 -0.25519901514053345
-0.08616435527801514 1.1373071670532227 -0.40748703479766846
-0.06623174995183945 1.1422669887542725 -0.5597750544548035
-0.046299152076244354 1.1472269296646118 -0.7120630741119385
-0.026366552338004112 1.1521867513656616 -0.8643510937690735
-0.006433952134102583 1.1571465730667114 -1.0166391134262085
0.013498648069798946 1.1621063947677612 -1.1689270734786987
-0.06882921606302261 1.0867860317230225 1.143721342086792
-0.04889661446213722 1.0917458534240723 0.991433322429657
-0.02896401286125183 1.0967057943344116 0.839145302772522
-0.009031413123011589 1.1016656160354614 0.686857283115387
0.010901187546551228 1.1066254377365112 0.534569263458252
0.030833788216114044 1.111585259437561 0.38228124380111694
0.050766389816999435 1.1165452003479004 0.22999322414398193
0.07069899141788483 1.1215050220489502 0.07770521193742752
0.09063158929347992 1.12646484375 -0.07458280771970749
0.11056418716907501 1.1314246654510498 -0.2268708199262619
0.1304967850446701 1.1363846063613892 -0.3791588246822357
0.1504293829202652 1.141344428062439 -0.5314468741416931
0.17036199569702148 1.1463042497634888 -0.6837348937988281
0.19029459357261658 1.1512640714645386 -0.8360228538513184
0.21022719144821167 1.156224012374878 -0.9883108735084534
0.23015978932380676 1.1611838340759277 -1.1405988931655884
0.14339686930179596 1.0419204235076904 1.170037865638733
0.16332946717739105 1.0468803644180298 1.0177497863769531
0.18326206505298615 1.0518401861190796 0.8654618263244629
0.20319466292858124 1.0568000078201294 0.7131738066673279
0.22312726080417633 1.0617598295211792 0.5608857870101929
0.24305985867977142 1.0667197704315186 0.40859776735305786
0.2629924714565277 1.0716795921325684 0.25630974769592285
0.2829250693321228 1.0766394138336182 0.10402173548936844
0.3028576672077179 1.081599235534668 -0.04826628416776657
0.322790265083313 1.0865591764450073 -0.20055429637432098
0.3427228629589081 1.0915189981460571 -0.3528423011302948
0.3626554608345032 1.096478819847107 -0.5051303505897522
0.38258805871009827 1.1014386415481567 -0.6574183702468872
0.40252065658569336 1.106398582458496 -0.8097063899040222
0.42245325446128845 1.111358404159546 -0.9619943499565125
0.44238588213920593 1.1163182258605957 -1.1142823696136475
0.342499315738678 0.9549487233161926 1.1932653188705444
0.36243191361427307 0.9599085450172424 1.0409772396087646
0.38236451148986816 0.964868426322937 0.8886892795562744
0.40229710936546326 0.9698282480239868 0.7364012598991394
0.42222970724105835 0.9747881293296814 0.5841132402420044
0.44216230511665344 0.9797479510307312 0.4318252205848694
0.46209490299224854 0.9847078323364258 0.2795372009277344
0.482027530670166 0.9896676540374756 0.12724918127059937
0.5019600987434387 0.9946274757385254 -0.025038830935955048
0.5218927264213562 0.99958735704422 -0.17732684314250946
0.5418252944946289 1.0045472383499146 -0.3296148478984833
0.5617579221725464 1.0095070600509644 -0.4819028675556183
0.5816904902458191 1.0144668817520142 -0.6341909170150757
0.6016231179237366 1.019426703453064 -0.7864789366722107
0.621555745601654 1.0243866443634033 -0.9387668967247009
0.6414883136749268 1.0293464660644531 -1.091054916381836
0.5203268527984619 0.829431414604187 1.21245276927948
0.5402594804763794 0.8343912363052368 1.0601646900177002
0.5601920485496521 0.8393511176109314 0.90787672996521
0.5801246762275696 0.8443109393119812 0.755588710308075
0.6000572443008423 0.8492708206176758 0.6033006906509399
0.6199898719787598 0.8542306423187256 0.45101267099380493
0.6399224400520325 0.8591905236244202 0.2987246513366699
0.65985506772995 0.86415034532547 0.1464366316795349
0.6797876358032227 0.8691102266311646 -0.005851383320987225
0.6997202634811401 0.8740700483322144 -0.1581393927335739
0.7196528911590576 0.8790298700332642 -0.3104274272918701
0.7395854592323303 0.8839897513389587 -0.46271541714668274
0.7595180869102478 0.8889495730400085 -0.6150034666061401
0.7794506549835205 0.8939094543457031 -0.7672914862632751
0.799383282661438 0.8988692760467529 -0.9195795059204102
0.8193158507347107 0.9038291573524475 -1.0718674659729004
0.6695992350578308 0.6705072522163391 1.2268146276474
0.6895318031311035 0.6754670739173889 1.0745266675949097
0.709464430809021 0.6804269552230835 0.9222385883331299
0.7293969988822937 0.6853867769241333 0.7699506282806396
0.7493296265602112 0.6903466582298279 0.6176626086235046
0.7692621946334839 0.6953064799308777 0.46537455916404724
0.7891948223114014 0.7002663612365723 0.31308653950691223
0.8091274499893188 0.7052261829376221 0.16079853475093842
0.8290600180625916 0.7101860642433167 0.008510522544384003
0.848992645740509 0.7151458859443665 -0.1437774896621704
0.8689252138137817 0.720105767250061 -0.2960655093193054
0.8888578414916992 0.7250655889511108 -0.44835352897644043
0.9087904095649719 0.7300254702568054 -0.6006415486335754
0.9287230372428894 0.7349852919578552 -0.7529295682907104
0.9486556053161621 0.7399451732635498 -0.9052175879478455
0.9685882329940796 0.7449049949645996 -1.0575056076049805
0.7842051386833191 0.4846826195716858 1.2357630729675293
0.8041377663612366 0.489642471075058 1.0834749937057495
0.824070394039154 0.4946023225784302 0.9311869740486145
0.8440029621124268 0.49956217408180237 0.7788990139961243
0.8639355897903442 0.5045220255851746 0.6266109943389893
0.8838681578636169 0.5094818472862244 0.47432294487953186
0.9038007855415344 0.514441728591919 0.32203495502471924
0.9237333536148071 0.5194015502929688 0.16974692046642303
0.9436659812927246 0.5243614315986633 0.01745891012251377
0.9635985493659973 0.5293212532997131 -0.1348291039466858
0.9835311770439148 0.5342811346054077 -0.2871171236038208
1.0034637451171875 0.5392409563064575 -0.4394051432609558
1.023396372795105 0.5442008376121521 -0.5916931629180908
1.0433290004730225 0.5491606593132019 -0.7439811825752258
1.06326162815094 0.5541205406188965 -0.8962692022323608
1.0831941366195679 0.5590803623199463 -1.048557162284851
0.8594527244567871 0.2795651853084564 1.2389315366744995
0.8793852925300598 0.2845250368118286 1.0866435766220093
0.8993179202079773 0.2894848883152008 0.9343554973602295
0.9192505478858948 0.294444739818573 0.7820674777030945
0.9391831159591675 0.2994045913219452 0.6297795176506042
0.959115743637085 0.3043644428253174 0.47749146819114685
0.9790483117103577 0.3093242943286896 0.32520344853401184
0.9989809393882751 0.31428414583206177 0.17291544377803802
1.0189135074615479 0.31924399733543396 0.020627429708838463
1.0388461351394653 0.32420384883880615 -0.1316605806350708
1.0587787628173828 0.32916370034217834 -0.2839486002922058
1.0787112712860107 0.33412355184555054 -0.4362366199493408
1.0986438989639282 0.33908340334892273 -0.5885246396064758
1.1185765266418457 0.3440432548522949 -0.7408126592636108
1.1385091543197632 0.3490031063556671 -0.8931006789207458
1.1584417819976807 0.3539629578590393 -1.0453886985778809
0.8922612071037292 0.06355251371860504 1.2361904382705688
0.9121938347816467 0.06851236522197723 1.0839024782180786
0.9321264624595642 0.07347221672534943 0.9316144585609436
0.9520590305328369 0.07843206822872162 0.7793264389038086
0.9719916582107544 0.08339191973209381 0.6270384192466736
0.9919242262840271 0.088351771235466 0.4747503995895386
1.0118567943572998 0.0933116227388382 0.32246237993240356
1.0317894220352173 0.09827147424221039 0.17017437517642975
1.0517220497131348 0.10323132574558258 0.017886361107230186
1.0716546773910522 0.10819116979837418 -0.13440164923667908
1.0915871858596802 0.11315102130174637 -0.2866896688938141
1.1115198135375977 0.11811087280511856 -0.4389776885509491
1.1314524412155151 0.12307072430849075 -0.5912656784057617
1.1513850688934326 0.12803058326244354 -0.7435536980628967
1.17131769657135 0.13299043476581573 -0.8958417177200317
1.191250205039978 0.13795028626918793 -1.0481297969818115
0.8812875151634216 -0.15451183915138245 1.2276520729064941
0.9012201428413391 -0.14955198764801025 1.0753639936447144
0.9211527109146118 -0.14459213614463806 0.9230760335922241
0.9410853385925293 -0.13963228464126587 0.7707880139350891
0.961017906665802 -0.13467243313789368 0.6184999942779541
0.9809505343437195 -0.12971258163452148 0.4662119746208191
1.0008831024169922 -0.12475273013114929 0.3139239549636841
1.0208157300949097 -0.1197928786277771 0.16163595020771027
1.0407483577728271 -0.11483302712440491 0.009347927756607533
1.0606809854507446 -0.10987317562103271 -0.14294008910655975
1.0806134939193726 -0.10491332411766052 -0.29522809386253357
1.10054612159729 -0.09995348006486893 -0.4475161135196686
1.1204787492752075 -0.09499362856149673 -0.599804162979126
1.140411376953125 -0.09003377705812454 -0.7520921230316162
1.160343885421753 -0.08507392555475235 -0.9043801426887512
1.1802765130996704 -0.08011407405138016 -1.0566681623458862
0.8269808888435364 -0.36570027470588684 1.2136658430099487
0.8469134569168091 -0.36074042320251465 1.061377763748169
0.8668460845947266 -0.35578057169914246 0.9090898036956787
0.8867786526679993 -0.35082072019577026 0.7568017840385437
0.9067112803459167 -0.34586086869239807 0.6045137643814087
0.9266438484191895 -0.3409010171890259 0.4522257447242737
0.9465764760971069 -0.3359411656856537 0.29993772506713867
0.9665090441703796 -0.3309813141822815 0.14764970541000366
0.9864416718482971 -0.3260214626789093 -0.004638309590518475
1.0063742399215698 -0.3210616111755371 -0.15692631900310516
1.0263068675994873 -0.3161017596721649 -0.30921435356140137
1.0462394952774048 -0.3111419379711151 -0.461502343416214
1.0661721229553223 -0.3061820864677429 -0.6137903928756714
1.0861046314239502 -0.3012222349643707 -0.7660784125328064
1.1060372591018677 -0.29626238346099854 -0.9183664321899414
1.1259698867797852 -0.29130253195762634 -1.0706543922424316
0.7315645813941956 -0.5613667368888855 1.1948044300079346
0.7514971494674683 -0.5564069151878357 1.0425163507461548
0.7714297771453857 -0.5514470338821411 0.8902283310890198
0.7913623452186584 -0.5464872121810913 0.7379403114318848
0.8112949728965759 -0.5415273308753967 0.5856522917747498
0.8312275409698486 -0.5365675091743469 0.43336430191993713
0.8511601686477661 -0.5316076278686523 0.2810762822628021
0.8710927963256836 -0.5266478061676025 0.12878826260566711
0.8910253643989563 -0.521687924861908 -0.023499751463532448
0.9109579920768738 -0.5167281031608582 -0.1757877618074417
0.9308905601501465 -0.5117682218551636 -0.3280757963657379
0.950823187828064 -0.5068084001541138 -0.48036378622055054
0.9707557559013367 -0.5018485188484192 -0.6326518058776855
0.9906883835792542 -0.4968886971473694 -0.7849398255348206
1.0106209516525269 -0.4919288456439972 -0.9372278451919556
1.0305535793304443 -0.486968994140625 -1.0895158052444458
0.5989449620246887 -0.733500599861145 1.171839952468872
0.6188775897026062 -0.7285407781600952 1.0195518732070923
0.6388101577758789 -0.7235808968544006 0.867263913154602
0.6587427854537964 -0.7186210751533508 0.714975893497467
0.6786753535270691 -0.7136611938476562 0.562687873840332
0.6986079812049866 -0.7087013721466064 0.410399854183197
0.718540608882904 -0.7037414908409119 0.258111834526062
0.7384731769561768 -0.6987816691398621 0.1058238074183464
0.7584058046340942 -0.6938217878341675 -0.046464208513498306
0.7783383727073669 -0.6888619661331177 -0.19875222444534302
0.7982710003852844 -0.6839020848274231 -0.351040244102478
0.8182035684585571 -0.6789422631263733 -0.503328263759613
0.8381361961364746 -0.6739823818206787 -0.655616283416748
0.8580687642097473 -0.6690225601196289 -0.8079043030738831
0.8780013918876648 -0.6640626788139343 -0.9601923227310181
0.8979339599609375 -0.6591028571128845 -1.1124802827835083
0.43455156683921814 -0.8750547170639038 1.1457126140594482
0.45448416471481323 -0.8700948357582092 0.9934245944023132
0.4744167923927307 -0.8651350140571594 0.8411365747451782
0.4943493902683258 -0.8601751327514648 0.6888485550880432
0.5142819881439209 -0.855215311050415 0.5365605354309082
0.5342145562171936 -0.8502554297447205 0.3842725455760956
0.5541471838951111 -0.8452956080436707 0.23198452591896057
0.5740798115730286 -0.8403357267379761 0.07969650626182556
0.5940123796463013 -0.8353759050369263 -0.07259151339530945
0.6139450073242188 -0.8304160237312317 -0.22487953305244446
0.6338775753974915 -0.8254562020301819 -0.37716755270957947
0.6538102030754089 -0.8204963207244873 -0.5294555425643921
0.6737427711486816 -0.8155364990234375 -0.6817435622215271
0.6936753988265991 -0.8105766773223877 -0.8340315818786621
0.7136079668998718 -0.8056167960166931 -0.9863196015357971
0.7335405945777893 -0.8006569743156433 -1.1386076211929321
0.24511463940143585 -0.9802337884902954 1.1174920797348022
0.26504725217819214 -0.9752739667892456 0.965204119682312
0.28497985005378723 -0.970314085483551 0.812916100025177
0.3049124479293823 -0.9653542637825012 0.660628080368042
0.3248450458049774 -0.9603943824768066 0.508340060710907
0.3447776436805725 -0.9554345607757568 0.356052041053772
0.3647102415561676 -0.9504746794700623 0.20376402139663696
0.3846428394317627 -0.9455148577690125 0.05147600919008255
0.4045754373073578 -0.9405549764633179 -0.10081201046705246
0.4245080351829529 -0.9355951547622681 -0.25310003757476807
0.444440633058548 -0.9306352734565735 -0.4053880274295807
0.46437326073646545 -0.9256754517555237 -0.5576760768890381
0.48430585861206055 -0.9207155704498291 -0.7099640965461731
0.5042384266853333 -0.9157557487487793 -0.8622520565986633
0.5241710543632507 -0.9107958674430847 -1.0145400762557983
0.5441036224365234 -0.9058360457420349 -1.1668281555175781
0.03838973864912987 -1.044731855392456 1.0883337259292603
0.05832234025001526 -1.0397719144821167 0.93604576587677
0.07825493812561035 -1.034812092781067 0.783757746219635
0.09818754345178604 -1.029852271080017 0.6314697265625
0.11812014132738113 -1.0248924493789673 0.479181706905365
0.13805274665355682 -1.019932508468628 0.32689368724823
0.15798534452915192 -1.0149726867675781 0.17460568249225616
0.177917942404747 -1.0100128650665283 0.02231767028570175
0.1978505402803421 -1.0050530433654785 -0.12997034192085266
0.2177831381559372 -1.0000931024551392 -0.28225836157798767
0.2377157360315323 -0.9951332807540894 -0.4345463812351227
0.2576483488082886 -0.9901734590530396 -0.5868343710899353
0.27758094668388367 -0.985213577747345 -0.7391223907470703
0.29751354455947876 -0.9802537560462952 -0.8914104104042053
0.31744614243507385 -0.9752938747406006 -1.0436984300613403
0.33737874031066895 -0.9703340530395508 -1.1959865093231201
-0.17715978622436523 -1.0659081935882568 1.0594313144683838
-0.15722718834877014 -1.060948371887207 0.9071433544158936
-0.13729459047317505 -1.0559885501861572 0.7548553347587585
-0.11736198514699936 -1.0510286092758179 0.6025673151016235
-0.09742938727140427 -1.046068787574768 0.4502792954444885
-0.07749678194522858 -1.0411089658737183 0.2979912757873535
-0.057564184069633484 -1.0361491441726685 0.1457032561302185
-0.03763158246874809 -1.031189203262329 -0.0065847644582390785
-0.01769898273050785 -1.0262293815612793 -0.1588727831840515
0.0022336174733936787 -1.0212695598602295 -0.3111608028411865
0.022166218608617783 -1.0163097381591797 -0.46344882249832153
0.042098816484212875 -1.0113499164581299 -0.6157368421554565
0.06203141808509827 -1.0063899755477905 -0.7680248618125916
0.08196401596069336 -1.0014301538467407 -0.9203128814697266
0.10189662128686905 -0.9964703321456909 -1.0726008415222168
0.12182921916246414 -0.9915104508399963 -1.2248889207839966
