ply
format ascii 1.0
element vertex 512
property float x
property float y
property float z
end_header
-0.011204719543457031 -1.006715178489685 0.9873988032341003
-0.011204722337424755 -1.006715178489685 0.8560395836830139
-0.011204724200069904 -1.006715178489685 0.7246803045272827
-0.011204726994037628 -1.006715178489685 0.5933210849761963
-0.011204728856682777 -1.006715178489685 0.4619618058204651
-0.011204731650650501 -1.006715178489685 0.3306025564670563
-0.011204734444618225 -1.006715178489685 0.19924332201480865
-0.011204736307263374 -1.006715178489685 0.06788406521081924
-0.011204739101231098 -1.006715178489685 -0.06347518414258957
-0.011204740963876247 -1.006715178489685 -0.19483444094657898
-0.011204743757843971 -1.006715178489685 -0.3261936902999878
-0.011204746551811695 -1.006715178489685 -0.4575529396533966
-0.011204748414456844 -1.0067150592803955 -0.5889121890068054
-0.011204751208424568 -1.0067150592803955 -0.7202714681625366
-0.011204753071069717 -1.0067150592803955 -0.851630687713623
-0.011204755865037441 -1.0067150592803955 -0.9829899668693542
-0.2114209681749344 -0.986355185508728 0.9873988032341003
-0.2114209681749344 -0.986355185508728 0.8560395836830139
-0.2114209681749344 -0.986355185508728 0.7246803045272827
-0.2114209681749344 -0.986355185508728 0.5933210849761963
-0.21142098307609558 -0.9863551259040833 0.4619618356227875
-0.21142098307609558 -0.9863551259040833 0.3306025564670563
-0.21142098307609558 -0.9863551259040833 0.19924332201480865
-0.21142098307609558 -0.9863551259040833 0.06788406521081924
-0.21142098307609558 -0.9863551259040833 -0.06347518414258957
-0.21142098307609558 -0.9863551259040833 -0.19483444094657898
-0.21142099797725677 -0.9863551259040833 -0.3261936902999878
-0.21142099797725677 -0.9863551259040833 -0.4575529396533966
-0.21142099797725677 -0.9863551259040833 -0.5889121890068054
-0.21142099797725677 -0.9863551259040833 -0.7202714681625366
-0.21142099797725677 -0.9863551259040833 -0.851630687713623
-0.21142099797725677 -0.9863551259040833 -0.9829899668693542
-0.40344032645225525 -0.926108717918396 0.9873988628387451
-0.40344032645225525 -0.926108717918396 0.8560395836830139
-0.40344035625457764 -0.926108717918396 0.7246803045272827
-0.40344035625457764 -0.926108717918396 0.5933210849761963
-0.40344035625457764 -0.926108717918396 0.4619618356227875
-0.40344035625457764 -0.9261086583137512 0.33060258626937866
-0.40344035625457764 -0.9261086583137512 0.19924332201480865
-0.40344035625457764 -0.9261086583137512 0.06788407266139984
-0.40344035625457764 -0.9261086583137512 -0.06347517669200897
-0.40344035625457764 -0.9261086583137512 -0.19483442604541779
-0.40344035625457764 -0.9261086583137512 -0.3261936902999878
-0.40344035625457764 -0.9261086583137512 -0.4575529396533966
-0.40344035625457764 -0.9261086583137512 -0.5889121890068054
-0.40344035625457764 -0.9261086583137512 -0.7202714085578918
-0.40344035625457764 -0.9261086583137512 -0.851630687713623
-0.4034403860569 -0.9261086583137512 -0.9829899072647095
-0.5794015526771545 -0.8284422755241394 0.9873988628387451
-0.5794015526771545 -0.8284422755241394 0.8560395836830139
-0.5794015526771545 -0.8284422755241394 0.7246803641319275
-0.5794015526771545 -0.8284422755241394 0.5933210849761963
-0.5794015526771545 -0.8284422755241394 0.4619618356227875
-0.5794015526771545 -0.8284422755241394 0.33060258626937866
-0.5794015526771545 -0.8284422755241394 0.19924333691596985
-0.5794015526771545 -0.8284422159194946 0.06788408011198044
-0.5794015526771545 -0.8284422159194946 -0.06347516924142838
-0.5794015526771545 -0.8284422159194946 -0.19483442604541779
-0.5794015526771545 -0.8284422159194946 -0.3261936604976654
-0.5794015526771545 -0.8284422159194946 -0.4575529098510742
-0.5794015526771545 -0.8284422159194946 -0.5889121890068054
-0.5794015526771545 -0.8284422159194946 -0.7202714085578918
-0.5794015526771545 -0.8284422159194946 -0.851630687713623
-0.5794015526771545 -0.8284422159194946 -0.9829899072647095
-0.7321006655693054 -0.6973543763160706 0.9873988628387451
-0.7321006655693054 -0.6973543763160706 0.8560395836830139
-0.7321006655693054 -0.6973543167114258 0.7246803641319275
-0.7321007251739502 -0.6973543167114258 0.5933210849761963
-0.7321007251739502 -0.6973543167114258 0.4619618356227875
-0.7321007251739502 -0.6973543167114258 0.33060258626937866
-0.7321007251739502 -0.6973543167114258 0.19924333691596985
-0.7321007251739502 -0.6973543167114258 0.06788408756256104
-0.7321007251739502 -0.6973543167114258 -0.06347516179084778
-0.7321007251739502 -0.6973543167114258 -0.1948344111442566
-0.7321007251739502 -0.6973543167114258 -0.3261936604976654
-0.7321007251739502 -0.6973543167114258 -0.4575529098510742
-0.7321007251739502 -0.6973543167114258 -0.5889121890068054
-0.7321007251739502 -0.697354257106781 -0.7202714085578918
-0.7321007251739502 -0.697354257106781 -0.851630687713623
-0.7321007251739502 -0.697354257106781 -0.9829899072647095
-0.8552863001823425 -0.5382117033004761 0.9873988628387451
-0.8552863001823425 -0.5382117033004761 0.8560395836830139
-0.8552863001823425 -0.5382117033004761 0.7246803641319275
-0.8552863001823425 -0.5382117033004761 0.5933210849761963
-0.8552863001823425 -0.5382116436958313 0.46196186542510986
-0.8552863001823425 -0.5382116436958313 0.33060258626937866
-0.8552863001823425 -0.5382116436958313 0.19924335181713104
-0.8552863001823425 -0.5382116436958313 0.06788409501314163
-0.8552863001823425 -0.5382116436958313 -0.06347515434026718
-0.8552863001823425 -0.5382116436958313 -0.1948344111442566
-0.8552863001823425 -0.5382116436958313 -0.3261936604976654
-0.8552863001823425 -0.5382116436958313 -0.4575529098510742
-0.8552863001823425 -0.5382116436958313 -0.5889121294021606
-0.8552863001823425 -0.5382116436958313 -0.7202714085578918
-0.8552863001823425 -0.5382116436958313 -0.851630687713623
-0.8552863001823425 -0.5382116436958313 -0.9829899072647095
-0.943915069103241 -0.3575296103954315 0.9873988628387451
-0.943915069103241 -0.3575296103954315 0.8560396432876587
-0.943915069103241 -0.3575296103954315 0.7246803641319275
-0.943915069103241 -0.3575296103954315 0.5933210849761963
-0.943915069103241 -0.3575296103954315 0.46196186542510986
-0.943915069103241 -0.35752958059310913 0.33060261607170105
-0.943915069103241 -0.35752958059310913 0.19924335181713104
-0.943915069103241 -0.35752958059310913 0.06788410991430283
-0.943915069103241 -0.35752958059310913 -0.06347514688968658
-0.943915069103241 -0.35752958059310913 -0.1948343962430954
-0.943915069103241 -0.35752955079078674 -0.3261936604976654
-0.943915069103241 -0.35752955079078674 -0.4575529098510742
-0.943915069103241 -0.35752955079078674 -0.5889121294021606
-0.943915069103241 -0.35752955079078674 -0.7202714085578918
-0.9439151287078857 -0.35752955079078674 -0.8516306281089783
-0.9439151287078857 -0.35752955079078674 -0.9829899072647095
-0.9943585991859436 -0.16270527243614197 0.9873988628387451
-0.9943585991859436 -0.16270525753498077 0.8560396432876587
-0.9943585991859436 -0.16270525753498077 0.7246803641319275
-0.9943585991859436 -0.16270525753498077 0.5933211445808411
-0.9943585991859436 -0.16270524263381958 0.46196186542510986
-0.9943585991859436 -0.16270524263381958 0.33060261607170105
-0.9943585991859436 -0.16270524263381958 0.19924336671829224
-0.9943585991859436 -0.1627052277326584 0.06788411736488342
-0.9943585991859436 -0.1627052277326584 -0.06347513198852539
-0.9943585991859436 -0.1627052277326584 -0.1948343813419342
-0.9943585991859436 -0.1627052128314972 -0.326193630695343
-0.9943585991859436 -0.1627052128314972 -0.45755288004875183
-0.9943585991859436 -0.1627052128314972 -0.5889121294021606
-0.9943585991859436 -0.162705197930336 -0.7202714085578918
-0.9943585991859436 -0.162705197930336 -0.8516306281089783
-0.9943585991859436 -0.162705197930336 -0.9829899072647095
-1.004551649093628 0.03828521817922592 0.9873988628387451
-1.004551649093628 0.03828522562980652 0.8560396432876587
-1.004551649093628 0.03828522935509682 0.7246803641319275
-1.004551649093628 0.038285233080387115 0.5933211445808411
-1.004551649093628 0.03828524053096771 0.46196186542510986
-1.004551649093628 0.03828524425625801 0.33060261607170105
-1.004551649093628 0.03828525170683861 0.19924338161945343
-1.004551649093628 0.038285255432128906 0.06788412481546402
-1.004551649093628 0.038285259157419205 -0.0634751245379448
-1.004551649093628 0.0382852666079998 -0.1948343813419342
-1.004551649093628 0.0382852703332901 -0.326193630695343
-1.004551649093628 0.0382852777838707 -0.45755288004875183
-1.004551649093628 0.038285281509160995 -0.5889121294021606
-1.004551649093628 0.038285285234451294 -0.7202714085578918
-1.004551649093628 0.03828529268503189 -0.8516306281089783
-1.004551649093628 0.03828529641032219 -0.9829899072647095
-0.9740769863128662 0.23721326887607574 0.9873988628387451
-0.9740769863128662 0.23721328377723694 0.8560396432876587
-0.974077045917511 0.23721328377723694 0.7246803641319275
-0.974077045917511 0.23721328377723694 0.5933211445808411
-0.974077045917511 0.23721329867839813 0.46196189522743225
-0.974077045917511 0.23721329867839813 0.33060264587402344
-0.974077045917511 0.23721329867839813 0.19924338161945343
-0.974077045917511 0.23721331357955933 0.06788413226604462
-0.974077045917511 0.23721331357955933 -0.0634751170873642
-0.974077045917511 0.23721331357955933 -0.194834366440773
-0.974077045917511 0.23721332848072052 -0.326193630695343
-0.974077045917511 0.23721332848072052 -0.45755288004875183
-0.974077045917511 0.23721332848072052 -0.5889121294021606
-0.974077045917511 0.2372133433818817 -0.7202713489532471
-0.974077045917511 0.2372133433818817 -0.8516306281089783
-0.974077045917511 0.2372133433818817 -0.9829899072647095
-0.9041822552680969 0.425934761762619 0.9873989224433899
-0.9041822552680969 0.425934761762619 0.8560396432876587
-0.9041822552680969 0.425934761762619 0.7246804237365723
-0.9041822552680969 0.425934761762619 0.5933211445808411
-0.9041822552680969 0.425934761762619 0.46196189522743225
-0.9041822552680969 0.4259347915649414 0.33060264587402344
-0.9041822552680969 0.4259347915649414 0.19924338161945343
-0.9041822552680969 0.4259347915649414 0.06788413971662521
-0.9041822552680969 0.4259347915649414 -0.0634751170873642
-0.9041822552680969 0.4259347915649414 -0.194834366440773
-0.9041822552680969 0.4259347915649414 -0.326193630695343
-0.9041822552680969 0.4259348213672638 -0.45755288004875183
-0.9041822552680969 0.4259348213672638 -0.5889121294021606
-0.9041822552680969 0.4259348213672638 -0.7202713489532471
-0.9041822552680969 0.4259348213672638 -0.8516306281089783
-0.9041823148727417 0.4259348213672638 -0.9829898476600647
-0.7977288961410522 0.5967233777046204 0.9873989224433899
-0.7977288961410522 0.5967233777046204 0.8560396432876587
-0.7977288961410522 0.5967233777046204 0.7246804237365723
-0.7977288961410522 0.5967233777046204 0.5933211445808411
-0.7977288961410522 0.5967233777046204 0.46196189522743225
-0.7977288961410522 0.5967234373092651 0.33060264587402344
-0.7977288961410522 0.5967234373092651 0.19924339652061462
-0.7977288961410522 0.5967234373092651 0.06788413971662521
-0.7977288961410522 0.5967234373092651 -0.0634751096367836
-0.7977288961410522 0.5967234373092651 -0.194834366440773
-0.7977288961410522 0.5967234373092651 -0.32619360089302063
-0.7977288961410522 0.5967234373092651 -0.45755285024642944
-0.7977288961410522 0.5967234373092651 -0.5889121294021606
-0.7977288961410522 0.5967234373092651 -0.7202713489532471
-0.7977288961410522 0.5967234373092651 -0.8516306281089783
-0.7977288961410522 0.5967234373092651 -0.9829898476600647
-0.659075140953064 0.7425870299339294 0.9873989224433899
-0.659075140953064 0.7425870895385742 0.8560396432876587
-0.659075140953064 0.7425870895385742 0.7246804237365723
-0.659075140953064 0.7425870895385742 0.5933211445808411
-0.659075140953064 0.7425870895385742 0.46196189522743225
-0.659075140953064 0.7425870895385742 0.33060264587402344
-0.659075140953064 0.7425870895385742 0.19924339652061462
-0.659075140953064 0.7425870895385742 0.06788414716720581
-0.659075140953064 0.7425870895385742 -0.0634751096367836
-0.659075140953064 0.7425870895385742 -0.19483435153961182
-0.659075140953064 0.7425870895385742 -0.32619360089302063
-0.659075140953064 0.7425870895385742 -0.45755285024642944
-0.659075140953064 0.7425870895385742 -0.5889121294021606
-0.659075140953064 0.742587149143219 -0.7202713489532471
-0.659075140953064 0.742587149143219 -0.8516306281089783
-0.659075140953064 0.742587149143219 -0.9829898476600647
-0.4938974678516388 0.8575540781021118 0.9873989224433899
-0.4938974678516388 0.8575540781021118 0.8560396432876587
-0.4938974678516388 0.8575540781021118 0.7246804237365723
-0.4938974976539612 0.8575540781021118 0.5933211445808411
-0.4938974976539612 0.8575541377067566 0.46196189522743225
-0.4938974976539612 0.8575541377067566 0.33060264587402344
-0.4938974976539612 0.8575541377067566 0.19924339652061462
-0.4938974976539612 0.8575541377067566 0.06788414716720581
-0.4938974976539612 0.8575541377067566 -0.063475102186203
-0.4938974976539612 0.8575541377067566 -0.19483435153961182
-0.4938974976539612 0.8575541377067566 -0.32619360089302063
-0.4938974976539612 0.8575541377067566 -0.45755285024642944
-0.4938974976539612 0.8575541377067566 -0.5889121294021606
-0.4938974976539612 0.8575541377067566 -0.7202713489532471
-0.4938974976539612 0.8575541377067566 -0.8516306281089783
-0.49389752745628357 0.8575541973114014 -0.9829898476600647
-0.3089583218097687 0.9369177222251892 0.9873989224433899
-0.3089583218097687 0.9369177222251892 0.8560396432876587
-0.3089583218097687 0.9369177222251892 0.7246804237365723
-0.3089583218097687 0.9369177222251892 0.5933211445808411
-0.30895835161209106 0.9369177222251892 0.46196189522743225
-0.30895835161209106 0.936917781829834 0.33060264587402344
-0.30895835161209106 0.936917781829834 0.19924339652061462
-0.30895835161209106 0.936917781829834 0.06788414716720581
-0.30895835161209106 0.936917781829834 -0.063475102186203
-0.30895835161209106 0.936917781829834 -0.19483435153961182
-0.30895835161209106 0.936917781829834 -0.32619360089302063
-0.30895835161209106 0.936917781829834 -0.45755285024642944
-0.30895835161209106 0.936917781829834 -0.5889121294021606
-0.30895835161209106 0.936917781829834 -0.7202713489532471
-0.30895835161209106 0.936917781829834 -0.8516306281089783
-0.30895835161209106 0.936917781829834 -0.9829898476600647
-0.11182911694049835 0.9774287939071655 0.9873989224433899
-0.11182911694049835 0.9774287939071655 0.8560396432876587
-0.11182911694049835 0.9774288535118103 0.7246804237365723
-0.11182912439107895 0.9774288535118103 0.5933211445808411
-0.11182912439107895 0.9774288535118103 0.46196189522743225
-0.11182912439107895 0.9774288535118103 0.33060264587402344
-0.11182913184165955 0.9774288535118103 0.19924339652061462
-0.11182913184165955 0.9774288535118103 0.06788414716720581
-0.11182913184165955 0.9774288535118103 -0.0634751096367836
-0.11182913929224014 0.9774288535118103 -0.19483435153961182
-0.11182913929224014 0.9774288535118103 -0.32619360089302063
-0.11182913929224014 0.9774288535118103 -0.45755285024642944
-0.11182914674282074 0.9774288535118103 -0.5889121294021606
-0.11182914674282074 0.9774288535118103 -0.7202713489532471
-0.11182914674282074 0.9774289131164551 -0.8516306281089783
-0.11182915419340134 0.9774289131164551 -0.9829898476600647
0.08941967785358429 0.9774287939071655 0.9873989224433899
0.08941967040300369 0.9774287939071655 0.8560396432876587
0.08941967040300369 0.9774288535118103 0.7246804237365723
0.08941967040300369 0.9774288535118103 0.5933211445808411
0.0894196629524231 0.9774288535118103 0.46196189522743225
0.0894196629524231 0.9774288535118103 0.33060264587402344
0.0894196629524231 0.9774288535118103 0.19924339652061462
0.0894196555018425 0.9774288535118103 0.06788413971662521
0.0894196555018425 0.9774288535118103 -0.0634751096367836
0.0894196555018425 0.9774288535118103 -0.194834366440773
0.0894196480512619 0.9774288535118103 -0.32619360089302063
0.0894196480512619 0.9774288535118103 -0.45755285024642944
0.0894196480512619 0.9774288535118103 -0.5889121294021606
0.0894196406006813 0.9774288535118103 -0.7202713489532471
0.0894196406006813 0.9774289131164551 -0.8516306281089783
0.0894196406006813 0.9774289131164551 -0.9829898476600647
0.2865488827228546 0.9369177222251892 0.9873989224433899
0.2865488827228546 0.9369177222251892 0.8560396432876587
0.2865488827228546 0.9369177222251892 0.7246803641319275
0.2865488827228546 0.9369177222251892 0.5933211445808411
0.2865488827228546 0.9369177222251892 0.46196189522743225
0.2865488827228546 0.936917781829834 0.33060264587402344
0.2865488827228546 0.936917781829834 0.19924338161945343
0.2865488827228546 0.936917781829834 0.06788413226604462
0.2865488827228546 0.936917781829834 -0.0634751170873642
0.2865488827228546 0.936917781829834 -0.194834366440773
0.2865488529205322 0.936917781829834 -0.326193630695343
0.2865488529205322 0.936917781829834 -0.45755288004875183
0.2865488529205322 0.936917781829834 -0.5889121294021606
0.2865488529205322 0.936917781829834 -0.7202713489532471
0.2865488529205322 0.936917781829834 -0.8516306281089783
0.2865488529205322 0.936917781829834 -0.9829898476600647
0.47148802876472473 0.8575540781021118 0.9873988628387451
0.47148802876472473 0.8575540781021118 0.8560396432876587
0.47148802876472473 0.8575540781021118 0.7246803641319275
0.47148802876472473 0.8575540781021118 0.5933211445808411
0.47148802876472473 0.8575541377067566 0.46196189522743225
0.47148802876472473 0.8575541377067566 0.33060264587402344
0.47148802876472473 0.8575541377067566 0.19924338161945343
0.47148802876472473 0.8575541377067566 0.06788413226604462
0.47148802876472473 0.8575541377067566 -0.0634751245379448
0.47148802876472473 0.8575541377067566 -0.194834366440773
0.47148799896240234 0.8575541377067566 -0.326193630695343
0.47148799896240234 0.8575541377067566 -0.45755288004875183
0.47148799896240234 0.8575541377067566 -0.5889121294021606
0.47148799896240234 0.8575541377067566 -0.7202714085578918
0.47148799896240234 0.8575541377067566 -0.8516306281089783
0.47148799896240234 0.8575541973114014 -0.9829899072647095
0.6366657018661499 0.7425870299339294 0.9873988628387451
0.6366657018661499 0.7425870895385742 0.8560396432876587
0.6366657018661499 0.7425870895385742 0.7246803641319275
0.6366657018661499 0.7425870895385742 0.5933211445808411
0.6366657018661499 0.7425870895385742 0.46196186542510986
0.6366657018661499 0.7425870895385742 0.33060261607170105
0.6366656422615051 0.7425870895385742 0.19924336671829224
0.6366656422615051 0.7425870895385742 0.06788412481546402
0.6366656422615051 0.7425870895385742 -0.06347513198852539
0.6366656422615051 0.7425870895385742 -0.1948343813419342
0.6366656422615051 0.7425870895385742 -0.326193630695343
0.6366656422615051 0.7425870895385742 -0.45755288004875183
0.6366656422615051 0.7425870895385742 -0.5889121294021606
0.6366656422615051 0.742587149143219 -0.7202714085578918
0.6366656422615051 0.742587149143219 -0.8516306281089783
0.6366656422615051 0.742587149143219 -0.9829899072647095
0.7753194570541382 0.5967233777046204 0.9873988628387451
0.7753194570541382 0.5967233777046204 0.8560396432876587
0.7753194570541382 0.5967233777046204 0.7246803641319275
0.7753194570541382 0.5967233777046204 0.5933211445808411
0.7753194570541382 0.5967233777046204 0.46196186542510986
0.7753194570541382 0.5967234373092651 0.33060261607170105
0.7753194570541382 0.5967234373092651 0.19924336671829224
0.7753194570541382 0.5967234373092651 0.06788410991430283
0.7753193974494934 0.5967234373092651 -0.06347513943910599
0.7753193974494934 0.5967234373092651 -0.1948343962430954
0.7753193974494934 0.5967234373092651 -0.326193630695343
0.7753193974494934 0.5967234373092651 -0.45755288004875183
0.7753193974494934 0.5967234373092651 -0.5889121294021606
0.7753193974494934 0.5967234373092651 -0.7202714085578918
0.7753193974494934 0.5967234373092651 -0.8516306281089783
0.7753193974494934 0.5967234373092651 -0.9829899072647095
0.8817728161811829 0.425934761762619 0.9873988628387451
0.8817728161811829 0.425934761762619 0.8560395836830139
0.8817728161811829 0.425934761762619 0.7246803641319275
0.8817728161811829 0.425934761762619 0.5933210849761963
0.8817728161811829 0.425934761762619 0.46196186542510986
0.8817728161811829 0.4259347915649414 0.33060261607170105
0.8817728161811829 0.4259347915649414 0.19924335181713104
0.8817728161811829 0.4259347915649414 0.06788410246372223
0.8817728161811829 0.4259347915649414 -0.06347514688968658
0.8817728161811829 0.4259347915649414 -0.1948343962430954
0.8817728161811829 0.4259347915649414 -0.3261936604976654
0.8817727565765381 0.4259348213672638 -0.4575529098510742
0.8817727565765381 0.4259348213672638 -0.5889121294021606
0.8817727565765381 0.4259348213672638 -0.7202714085578918
0.8817727565765381 0.4259348213672638 -0.8516306281089783
0.8817727565765381 0.4259348213672638 -0.9829899072647095
0.9516675472259521 0.23721326887607574 0.9873988628387451
0.9516675472259521 0.23721328377723694 0.8560395836830139
0.9516675472259521 0.23721328377723694 0.7246803641319275
0.9516675472259521 0.23721328377723694 0.5933210849761963
0.9516675472259521 0.23721329867839813 0.4619618356227875
0.9516675472259521 0.23721329867839813 0.33060258626937866
0.9516675472259521 0.23721329867839813 0.19924335181713104
0.9516675472259521 0.23721331357955933 0.06788409501314163
0.9516675472259521 0.23721331357955933 -0.06347515434026718
0.9516675472259521 0.23721331357955933 -0.1948344111442566
0.9516675472259521 0.23721332848072052 -0.3261936604976654
0.9516675472259521 0.23721332848072052 -0.4575529098510742
0.9516675472259521 0.23721332848072052 -0.5889121890068054
0.9516675472259521 0.2372133433818817 -0.7202714085578918
0.9516675472259521 0.2372133433818817 -0.851630687713623
0.9516675472259521 0.2372133433818817 -0.9829899072647095
0.9821422100067139 0.03828521817922592 0.9873988628387451
0.9821422100067139 0.03828522562980652 0.8560395836830139
0.9821422100067139 0.03828522935509682 0.7246803641319275
0.9821422100067139 0.038285233080387115 0.5933210849761963
0.9821422100067139 0.03828524053096771 0.4619618356227875
0.9821422100067139 0.03828524425625801 0.33060258626937866
0.9821422100067139 0.03828525170683861 0.19924333691596985
0.9821422100067139 0.038285255432128906 0.06788408756256104
0.9821422100067139 0.038285259157419205 -0.06347516179084778
0.9821422100067139 0.0382852666079998 -0.1948344111442566
0.9821422100067139 0.0382852703332901 -0.3261936604976654
0.9821422100067139 0.0382852777838707 -0.4575529098510742
0.9821422100067139 0.038285281509160995 -0.5889121890068054
0.9821422100067139 0.038285285234451294 -0.7202714085578918
0.9821422100067139 0.03828529268503189 -0.851630687713623
0.9821422100067139 0.03828529641032219 -0.9829899072647095
0.9719491600990295 -0.16270527243614197 0.9873988628387451
0.9719491600990295 -0.16270525753498077 0.8560395836830139
0.9719491600990295 -0.16270525753498077 0.7246803641319275
0.9719491600990295 -0.16270525753498077 0.5933210849761963
0.9719491600990295 -0.16270524263381958 0.4619618356227875
0.9719491600990295 -0.16270524263381958 0.33060258626937866
0.9719491600990295 -0.16270524263381958 0.19924333691596985
0.9719491004943848 -0.1627052277326584 0.06788408011198044
0.9719491004943848 -0.1627052277326584 -0.06347516924142838
0.9719491004943848 -0.1627052277326584 -0.19483442604541779
0.9719491004943848 -0.1627052128314972 -0.3261936604976654
0.9719491004943848 -0.1627052128314972 -0.4575529396533966
0.9719491004943848 -0.1627052128314972 -0.5889121890068054
0.9719491004943848 -0.162705197930336 -0.7202714085578918
0.9719491004943848 -0.162705197930336 -0.851630687713623
0.9719491004943848 -0.162705197930336 -0.9829899072647095
0.9215056300163269 -0.3575296103954315 0.9873988032341003
0.9215056300163269 -0.3575296103954315 0.8560395836830139
0.9215056300163269 -0.3575296103954315 0.7246803045272827
0.9215056300163269 -0.3575296103954315 0.5933210849761963
0.9215056300163269 -0.3575296103954315 0.4619618356227875
0.9215056300163269 -0.35752958059310913 0.33060258626937866
0.9215056300163269 -0.35752958059310913 0.19924332201480865
0.9215056300163269 -0.35752958059310913 0.06788407266139984
0.9215056300163269 -0.35752958059310913 -0.06347517669200897
0.9215056300163269 -0.35752958059310913 -0.19483442604541779
0.9215056300163269 -0.35752955079078674 -0.3261936902999878
0.9215056300163269 -0.35752955079078674 -0.4575529396533966
0.9215055704116821 -0.35752955079078674 -0.5889121890068054
0.9215055704116821 -0.35752955079078674 -0.7202714085578918
0.9215055704116821 -0.35752955079078674 -0.851630687713623
0.9215055704116821 -0.35752955079078674 -0.9829899668693542
0.8328768610954285 -0.5382117033004761 0.9873988032341003
0.8328768610954285 -0.5382117033004761 0.8560395836830139
0.8328768610954285 -0.5382117033004761 0.7246803045272827
0.8328768014907837 -0.5382117033004761 0.5933210849761963
0.8328768014907837 -0.5382116436958313 0.4619618356227875
0.8328768014907837 -0.5382116436958313 0.3306025564670563
0.8328768014907837 -0.5382116436958313 0.19924332201480865
0.8328768014907837 -0.5382116436958313 0.06788406521081924
0.8328768014907837 -0.5382116436958313 -0.06347518414258957
0.8328768014907837 -0.5382116436958313 -0.19483444094657898
0.8328768014907837 -0.5382116436958313 -0.3261936902999878
0.8328768014907837 -0.5382116436958313 -0.4575529396533966
0.8328768014907837 -0.5382116436958313 -0.5889121890068054
0.8328768014907837 -0.5382116436958313 -0.7202714681625366
0.8328768014907837 -0.5382116436958313 -0.851630687713623
0.8328768014907837 -0.5382116436958313 -0.9829899668693542
0.7096912264823914 -0.6973543763160706 0.9873988032341003
0.7096912264823914 -0.6973543763160706 0.8560395836830139
0.7096912264823914 -0.6973543167114258 0.7246803045272827
0.7096912264823914 -0.6973543167114258 0.5933210849761963
0.7096912264823914 -0.6973543167114258 0.4619618058204651
0.7096912264823914 -0.6973543167114258 0.3306025564670563
0.7096912264823914 -0.6973543167114258 0.19924330711364746
0.7096912264823914 -0.6973543167114258 0.06788406521081924
0.7096912264823914 -0.6973543167114258 -0.06347519159317017
0.7096912264823914 -0.6973543167114258 -0.19483444094657898
0.7096912264823914 -0.6973543167114258 -0.3261936902999878
0.7096912264823914 -0.6973543167114258 -0.4575529396533966
0.7096912264823914 -0.6973543167114258 -0.5889121890068054
0.7096912264823914 -0.697354257106781 -0.7202714681625366
0.7096912264823914 -0.697354257106781 -0.851630687713623
0.7096912264823914 -0.697354257106781 -0.9829899668693542
0.5569921135902405 -0.8284422755241394 0.9873988032341003
0.5569921135902405 -0.8284422755241394 0.8560395836830139
0.5569921135902405 -0.8284422755241394 0.7246803045272827
0.5569921135902405 -0.8284422755241394 0.5933210849761963
0.5569921135902405 -0.8284422755241394 0.4619618058204651
0.5569920539855957 -0.8284422755241394 0.3306025564670563
0.5569920539855957 -0.8284422755241394 0.19924330711364746
0.5569920539855957 -0.8284422159194946 0.06788405776023865
0.5569920539855957 -0.8284422159194946 -0.06347519159317017
0.5569920539855957 -0.8284422159194946 -0.19483444094657898
0.5569920539855957 -0.8284422159194946 -0.3261936902999878
0.5569920539855957 -0.8284422159194946 -0.4575529396533966
0.5569920539855957 -0.8284422159194946 -0.5889121890068054
0.5569920539855957 -0.8284422159194946 -0.7202714681625366
0.5569920539855957 -0.8284422159194946 -0.851630687713623
0.5569920539855957 -0.8284422159194946 -0.9829899668693542
0.3810308873653412 -0.926108717918396 0.9873988032341003
0.3810308873653412 -0.926108717918396 0.8560395836830139
0.3810308873653412 -0.926108717918396 0.7246803045272827
0.3810308873653412 -0.926108717918396 0.5933210849761963
0.3810308873653412 -0.926108717918396 0.4619618058204651
0.3810308873653412 -0.9261086583137512 0.3306025564670563
0.3810308873653412 -0.9261086583137512 0.19924330711364746
0.3810308873653412 -0.9261086583137512 0.06788405776023865
0.3810308873653412 -0.9261086583137512 -0.06347519159317017
0.3810308873653412 -0.9261086583137512 -0.19483444094657898
0.3810308873653412 -0.9261086583137512 -0.3261936902999878
0.3810308575630188 -0.9261086583137512 -0.4575529396533966
0.3810308575630188 -0.9261086583137512 -0.5889121890068054
0.3810308575630188 -0.9261086583137512 -0.7202714681625366
0.3810308575630188 -0.9261086583137512 -0.851630687713623
0.3810308575630188 -0.9261086583137512 -0.9829899668693542
0.18901152908802032 -0.986355185508728 0.9873988032341003
0.18901152908802032 -0.986355185508728 0.8560395836830139
0.18901152908802032 -0.986355185508728 0.7246803045272827
0.18901151418685913 -0.986355185508728 0.5933210849761963
0.18901151418685913 -0.9863551259040833 0.4619618058204651
0.18901151418685913 -0.9863551259040833 0.3306025564670563
0.18901151418685913 -0.9863551259040833 0.19924330711364746
0.18901151418685913 -0.9863551259040833 0.06788405776023865
0.18901151418685913 -0.9863551259040833 -0.06347519159317017
0.18901149928569794 -0.9863551259040833 -0.19483444094657898
0.18901149928569794 -0.9863551259040833 -0.3261936902999878
0.18901149928569794 -0.9863551259040833 -0.4575529396533966
0.18901149928569794 -0.9863551259040833 -0.5889121890068054
0.18901149928569794 -0.9863551259040833 -0.7202714681625366
0.18901149928569794 -0.9863551259040833 -0.851630687713623
0.18901148438453674 -0.9863551259040833 -0.9829899668693542
-0.011204719543457031 -1.006715178489685 0.9873988032341003
-0.011204722337424755 -1.006715178489685 0.8560395836830139
-0.011204724200069904 -1.006715178489685 0.7246803045272827
-0.011204726994037628 -1.006715178489685 0.5933210849761963
-0.011204728856682777 -1.006715178489685 0.4619618058204651
-0.011204731650650501 -1.006715178489685 0.3306025564670563
-0.011204734444618225 -1.006715178489685 0.19924332201480865
-0.011204736307263374 -1.006715178489685 0.06788406521081924
-0.011204739101231098 -1.006715178489685 -0.06347518414258957
-0.011204740963876247 -1.006715178489685 -0.19483444094657898
-0.011204743757843971 -1.006715178489685 -0.3261936902999878
-0.011204746551811695 -1.006715178489685 -0.4575529396533966
-0.011204748414456844 -1.0067150592803955 -0.5889121890068054
-0.011204751208424568 -1.0067150592803955 -0.7202714681625366
-0.011204753071069717 -1.0067150592803955 -0.851630687713623
-0.011204755865037441 -1.0067150592803955 -0.9829899668693542
