ply
format ascii 1.0
element vertex 512
property float x
property float y
property float z
end_header
-0.007968783378601074 -1.0036953687667847 0.9600454568862915
-0.006864944472908974 -1.0034250020980835 0.8304226398468018
-0.005761105567216873 -1.0031546354293823 0.700799822807312
-0.004657266195863485 -1.0028843879699707 0.5711769461631775
-0.0035534275230020285 -1.0026140213012695 0.44155415892601013
-0.0024495883844792843 -1.0023436546325684 0.311931312084198
-0.0013457494787871838 -1.0020734071731567 0.18230849504470825
-0.00024191047123167664 -1.0018030405044556 0.05268566682934761
0.00086192850722 -1.0015326738357544 -0.07693716138601303
0.0019657674711197615 -1.0012624263763428 -0.20655998587608337
0.003069606376811862 -1.0009920597076416 -0.3361828029155731
0.004173445515334606 -1.0007216930389404 -0.46580564975738525
0.005277284421026707 -1.0004513263702393 -0.595428466796875
0.006381123326718807 -1.0001810789108276 -0.7250512838363647
0.007484962232410908 -0.9999107122421265 -0.8546741008758545
0.008588801138103008 -0.9996404051780701 -0.9842969179153442
-0.2094045728445053 -0.9832070469856262 0.9583727717399597
-0.20830073952674866 -0.9829367399215698 0.82874995470047
-0.207196906208992 -0.9826663732528687 0.6991271376609802
-0.20609305799007416 -0.9823960661888123 0.5695043206214905
-0.2049892246723175 -0.9821256995201111 0.43988150358200073
-0.20388539135456085 -0.9818553924560547 0.3102586567401886
-0.202781543135643 -0.9815850853919983 0.18063583970069885
-0.20167770981788635 -0.9813147187232971 0.05101301521062851
-0.2005738615989685 -0.9810444116592407 -0.07860980927944183
-0.19947002828121185 -0.9807741045951843 -0.20823264122009277
-0.1983661949634552 -0.9805037379264832 -0.3378554582595825
-0.19726234674453735 -0.9802334308624268 -0.46747827529907227
-0.1961585134267807 -0.9799630641937256 -0.597101092338562
-0.19505468010902405 -0.9796927571296692 -0.7267239689826965
-0.1939508318901062 -0.9794224500656128 -0.8563467860221863
-0.19284699857234955 -0.9791520833969116 -0.985969603061676
-0.40259358286857605 -0.9225881099700928 0.9568540453910828
-0.4014897346496582 -0.9223178029060364 0.827231228351593
-0.40038588643074036 -0.9220474362373352 0.6976084113121033
-0.3992820680141449 -0.9217771291732788 0.5679855942726135
-0.39817821979522705 -0.9215067625045776 0.4383627474308014
-0.3970743715763092 -0.9212364554405212 0.30873993039131165
-0.39597052335739136 -0.9209661483764648 0.1791171133518219
-0.3948667049407959 -0.9206957817077637 0.04949428141117096
-0.39376285672187805 -0.9204254746437073 -0.08012854307889938
-0.3926590085029602 -0.9201551675796509 -0.20975136756896973
-0.39155519008636475 -0.9198848009109497 -0.3393741846084595
-0.3904513418674469 -0.9196144938468933 -0.4689970314502716
-0.38934749364852905 -0.9193441271781921 -0.5986198782920837
-0.3882436752319336 -0.9190738201141357 -0.7282426953315735
-0.38713982701301575 -0.9188035130500793 -0.8578655123710632
-0.3860359787940979 -0.9185331463813782 -0.987488329410553
-0.5796265602111816 -0.8243202567100525 0.9555514454841614
-0.5785227417945862 -0.8240499496459961 0.8259286284446716
-0.5774189233779907 -0.8237796425819397 0.6963057518005371
-0.5763150453567505 -0.8235092759132385 0.5666829347610474
-0.575211226940155 -0.8232389688491821 0.4370601177215576
-0.5741074085235596 -0.8229686617851257 0.30743730068206787
-0.5730035305023193 -0.8226982951164246 0.17781446874141693
-0.5718997120857239 -0.8224279880523682 0.04819164797663689
-0.5707958936691284 -0.822157621383667 -0.08143118023872375
-0.5696920156478882 -0.8218873143196106 -0.2110540121793747
-0.5685881972312927 -0.8216170072555542 -0.34067684412002563
-0.5674843192100525 -0.821346640586853 -0.4702996611595154
-0.566380500793457 -0.8210763335227966 -0.5999224781990051
-0.5652766823768616 -0.8208060264587402 -0.7295452952384949
-0.5641728043556213 -0.8205356597900391 -0.8591681122779846
-0.5630689859390259 -0.8202653527259827 -0.9887909889221191
-0.7332558631896973 -0.6924266815185547 0.95451819896698
-0.732151985168457 -0.6921563148498535 0.8248953819274902
-0.7310481667518616 -0.6918860077857971 0.6952725648880005
-0.7299443483352661 -0.691615641117096 0.5656497478485107
-0.7288404703140259 -0.6913453340530396 0.436026930809021
-0.7277366518974304 -0.6910750269889832 0.30640408396720886
-0.726632833480835 -0.690804660320282 0.17678126692771912
-0.7255289554595947 -0.6905343532562256 0.047158438712358475
-0.7244251370429993 -0.6902640461921692 -0.08246438950300217
-0.7233213186264038 -0.689993679523468 -0.2120872139930725
-0.7222174406051636 -0.6897233724594116 -0.34171003103256226
-0.7211136221885681 -0.6894530057907104 -0.4713328778743744
-0.7200098037719727 -0.689182698726654 -0.6009556651115417
-0.7189059257507324 -0.6889123916625977 -0.7305785417556763
-0.717802107334137 -0.6886420249938965 -0.860201358795166
-0.7166982889175415 -0.6883717179298401 -0.9898241758346558
-0.857191801071167 -0.532306969165802 0.9537967443466187
-0.8560879230499268 -0.5320366621017456 0.8241739273071289
-0.8549841046333313 -0.5317662954330444 0.6945511102676392
-0.8538802862167358 -0.531495988368988 0.5649282932281494
-0.8527764081954956 -0.5312256813049316 0.4353054463863373
-0.8516725897789001 -0.5309553146362305 0.30568259954452515
-0.8505687713623047 -0.5306850075721741 0.1760597825050354
-0.8494648933410645 -0.5304146409034729 0.046436961740255356
-0.848361074924469 -0.5301443338394165 -0.08318586647510529
-0.8472571969032288 -0.5298740267753601 -0.21280869841575623
-0.8461533784866333 -0.5296036601066589 -0.34243151545524597
-0.8450495600700378 -0.5293333530426025 -0.4720543324947357
-0.8439456820487976 -0.5290630459785461 -0.6016771793365479
-0.8428418636322021 -0.528792679309845 -0.7312999963760376
-0.8417380452156067 -0.5285223722457886 -0.8609228134155273
-0.8406341671943665 -0.5282520055770874 -0.9905456304550171
-0.9463604092597961 -0.35051655769348145 0.9534165263175964
-0.9452565908432007 -0.35024622082710266 0.8237937092781067
-0.9441527128219604 -0.3499758839607239 0.6941708922386169
-0.943048894405365 -0.3497055768966675 0.5645480751991272
-0.9419450759887695 -0.3494352400302887 0.43492522835731506
-0.9408411979675293 -0.3491649031639099 0.3053024113178253
-0.9397373795509338 -0.34889456629753113 0.17567956447601318
-0.9386335611343384 -0.34862425923347473 0.04605674371123314
-0.9375296831130981 -0.34835392236709595 -0.0835660770535469
-0.9364258646965027 -0.34808358550071716 -0.21318890154361725
-0.9353220462799072 -0.3478132486343384 -0.3428117334842682
-0.934218168258667 -0.347542941570282 -0.47243455052375793
-0.9331143498420715 -0.3472726047039032 -0.6020573973655701
-0.9320105314254761 -0.3470022678375244 -0.7316802144050598
-0.9309066534042358 -0.34673193097114563 -0.8613030314445496
-0.9298028349876404 -0.34646162390708923 -0.9909258484840393
-0.9971112012863159 -0.1544979214668274 0.9533931612968445
-0.9960073828697205 -0.1542275846004486 0.8237703442573547
-0.9949035048484802 -0.15395726263523102 0.6941474676132202
-0.9937996864318848 -0.15368692576885223 0.5645246505737305
-0.9926958680152893 -0.15341660380363464 0.4349018335342407
-0.9915919899940491 -0.15314626693725586 0.305279016494751
-0.9904881715774536 -0.15287594497203827 0.17565618455410004
-0.9893843531608582 -0.15260560810565948 0.04603336378931999
-0.9882804751396179 -0.1523352861404419 -0.08358946442604065
-0.9871766567230225 -0.1520649492740631 -0.2132122963666916
-0.9860727787017822 -0.15179462730884552 -0.34283512830734253
-0.9849689602851868 -0.15152429044246674 -0.4724579453468323
-0.9838651418685913 -0.15125396847724915 -0.602080762386322
-0.9827612638473511 -0.15098363161087036 -0.7317035794258118
-0.9816574454307556 -0.15071330964565277 -0.8613263964653015
-0.9805536270141602 -0.150442972779274 -0.990949273109436
-1.007366418838501 0.047723907977342606 0.9537275433540344
-1.0062625408172607 0.04799423739314079 0.8241047263145447
-1.0051586627960205 0.04826456680893898 0.6944819092750549
-1.0040549039840698 0.04853489622473717 0.5648590922355652
-1.0029510259628296 0.048805225640535355 0.43523624539375305
-1.0018471479415894 0.04907555505633354 0.3056134283542633
-1.0007433891296387 0.04934588447213173 0.17599059641361237
-0.9996395111083984 0.049616213887929916 0.046367768198251724
-0.9985356330871582 0.049886543303728104 -0.08325506001710892
-0.9974318146705627 0.05015687271952629 -0.21287788450717926
-0.9963279962539673 0.05042720213532448 -0.3425007164478302
-0.995224118232727 0.050697531551122665 -0.47212353348731995
-0.9941202998161316 0.05096786469221115 -0.6017463803291321
-0.9930164813995361 0.05123819410800934 -0.7313691973686218
-0.9919126033782959 0.051508523523807526 -0.8609920144081116
-0.9908087849617004 0.05177885293960571 -0.9906148314476013
-0.9767060875892639 0.24786993861198425 0.9544060230255127
-0.9756022691726685 0.24814027547836304 0.824783205986023
-0.9744983911514282 0.24841059744358063 0.6951603889465332
-0.9733945727348328 0.2486809343099594 0.5655375719070435
-0.9722907543182373 0.248951256275177 0.4359147548675537
-0.9711868762969971 0.2492215931415558 0.3062919080257416
-0.9700830578804016 0.24949191510677338 0.17666909098625183
-0.9689792394638062 0.24976225197315216 0.047046270221471786
-0.9678753614425659 0.25003257393836975 -0.08257655799388885
-0.9667715430259705 0.25030291080474854 -0.2121993899345398
-0.965667724609375 0.2505732476711273 -0.34182220697402954
-0.9645638465881348 0.2508435547351837 -0.4714450240135193
-0.9634600281715393 0.2511138916015625 -0.601067841053009
-0.9623561501502991 0.2513842284679413 -0.7306906580924988
-0.9612523317337036 0.25165456533432007 -0.8603135347366333
-0.9601485133171082 0.25192487239837646 -0.989936351776123
-0.906385600566864 0.43774616718292236 0.9554008841514587
-0.9052817225456238 0.43801650404930115 0.825778067111969
-0.9041779041290283 0.43828684091567993 0.6961552500724792
-0.9030740857124329 0.4385571777820587 0.5665323734283447
-0.9019702076911926 0.4388274848461151 0.436909556388855
-0.9008663892745972 0.4390978217124939 0.30728673934936523
-0.8997625708580017 0.4393681585788727 0.1776639223098755
-0.8986586928367615 0.43963849544525146 0.04804109036922455
-0.897554874420166 0.43990880250930786 -0.0815817341208458
-0.8964510560035706 0.44017913937568665 -0.21120455861091614
-0.8953471779823303 0.44044947624206543 -0.3408273756504059
-0.8942433595657349 0.4407198131084442 -0.470450222492218
-0.8931395411491394 0.4409901201725006 -0.6000730395317078
-0.8920356631278992 0.4412604570388794 -0.7296958565711975
-0.8909318447113037 0.4415307939052582 -0.8593186736106873
-0.8898280262947083 0.44180113077163696 -0.988941490650177
-0.7992838025093079 0.6095790863037109 0.9566712975502014
-0.7981799244880676 0.6098493933677673 0.8270484805107117
-0.7970761060714722 0.6101197004318237 0.6974256634712219
-0.7959722876548767 0.6103900671005249 0.5678027868270874
-0.7948684096336365 0.6106603741645813 0.43817996978759766
-0.793764591217041 0.6109306812286377 0.3085571527481079
-0.7926607728004456 0.6112010478973389 0.17893433570861816
-0.7915568947792053 0.6114713549613953 0.04931150749325752
-0.7904530763626099 0.6117417216300964 -0.08031132072210312
-0.7893492579460144 0.6120120286941528 -0.20993414521217346
-0.7882453799247742 0.6122823357582092 -0.3395569622516632
-0.7871415615081787 0.6125527024269104 -0.46917980909347534
-0.7860377430915833 0.6128230094909668 -0.5988026261329651
-0.784933865070343 0.613093376159668 -0.7284254431724548
-0.7838300466537476 0.6133636832237244 -0.8580482602119446
-0.7827262282371521 0.6136339902877808 -0.9876710772514343
-0.6597854495048523 0.7563337087631226 0.9581652879714966
-0.6586816310882568 0.7566040754318237 0.8285424709320068
-0.6575778126716614 0.7568743824958801 0.6989196538925171
-0.6564739346504211 0.7571447491645813 0.5692967772483826
-0.6553701162338257 0.7574150562286377 0.4396739900112152
-0.6542662978172302 0.7576853632926941 0.3100511431694031
-0.65316241979599 0.7579557299613953 0.18042832612991333
-0.6520586013793945 0.7582260370254517 0.05080550163984299
-0.6509547829627991 0.7584963440895081 -0.07881732285022736
-0.6498509049415588 0.7587667107582092 -0.2084401547908783
-0.6487470865249634 0.7590370178222656 -0.33806297183036804
-0.6476432681083679 0.7593073844909668 -0.4676858186721802
-0.6465393900871277 0.7595776915550232 -0.5973086357116699
-0.6454355716705322 0.7598479986190796 -0.7269314527511597
-0.6443317532539368 0.7601183652877808 -0.8565542697906494
-0.6432278752326965 0.7603886723518372 -0.9861770868301392
-0.4936017096042633 0.8720020651817322 0.9598217010498047
-0.49249786138534546 0.8722723722457886 0.8301988840103149
-0.4913940131664276 0.872542679309845 0.7005760669708252
-0.49029019474983215 0.8728130459785461 0.5709531903266907
-0.4891863465309143 0.8730833530426025 0.4413304030895233
-0.48808249831199646 0.8733537197113037 0.3117075562477112
-0.486978679895401 0.8736240267753601 0.18208473920822144
-0.48587483167648315 0.8738943338394165 0.052461910992860794
-0.4847709834575653 0.8741647005081177 -0.07716091722249985
-0.48366713523864746 0.8744350075721741 -0.2067837417125702
-0.482563316822052 0.8747053146362305 -0.33640655875205994
-0.48145946860313416 0.8749756813049316 -0.46602940559387207
-0.4803556203842163 0.875245988368988 -0.5956522226333618
-0.47925180196762085 0.8755163550376892 -0.7252750396728516
-0.478147953748703 0.8757866621017456 -0.8548978567123413
-0.47704410552978516 0.876056969165802 -0.984520673751831
-0.3075360655784607 0.9518485069274902 0.9615727066993713
-0.30643221735954285 0.9521188735961914 0.8319498896598816
-0.305328369140625 0.9523891806602478 0.7023270726203918
-0.30422455072402954 0.9526594877243042 0.5727042555809021
-0.3031207025051117 0.9529298543930054 0.44308140873908997
-0.30201685428619385 0.9532001614570618 0.3134585916996002
-0.3009130358695984 0.9534704685211182 0.18383574485778809
-0.29980918765068054 0.9537408351898193 0.05421292409300804
-0.2987053394317627 0.9540111422538757 -0.075409896671772
-0.29760152101516724 0.9542815089225769 -0.20503272116184235
-0.2964976727962494 0.9545518159866333 -0.3346555531024933
-0.29539382457733154 0.9548221230506897 -0.46427837014198303
-0.2942899763584137 0.9550924897193909 -0.5939012169837952
-0.29318615794181824 0.9553627967834473 -0.7235240340232849
-0.2920823097229004 0.9556331634521484 -0.8531468510627747
-0.29097846150398254 0.9559034705162048 -0.9827696681022644
-0.10920609533786774 0.9926042556762695 0.9633466601371765
-0.10810226202011108 0.9928745627403259 0.833723783493042
-0.10699842125177383 0.9931448698043823 0.7041009664535522
-0.10589458048343658 0.9934152364730835 0.5744781494140625
-0.10479073971509933 0.9936855435371399 0.44485533237457275
-0.10368689894676208 0.9939558506011963 0.315232515335083
-0.10258306562900543 0.9942262172698975 0.18560968339443207
-0.10147922486066818 0.9944965243339539 0.055986855179071426
-0.10037538409233093 0.994766891002655 -0.07363597303628922
-0.09927154332399368 0.9950371980667114 -0.20325879752635956
-0.09816771000623703 0.9953075051307678 -0.3328816294670105
-0.09706386923789978 0.995577871799469 -0.46250444650650024
-0.09596002846956253 0.9958481788635254 -0.59212726354599
-0.09485618770122528 0.9961184859275818 -0.7217500805854797
-0.09375235438346863 0.996388852596283 -0.8513728976249695
-0.09264851361513138 0.9966591596603394 -0.980995774269104
0.09326852858066559 0.9926006197929382 0.9650708436965942
0.09437236934900284 0.9928709864616394 0.8354480266571045
0.09547621011734009 0.9931412935256958 0.7058252096176147
0.09658005088567734 0.9934116005897522 0.576202392578125
0.09768388420343399 0.9936819672584534 0.44657954573631287
0.09878772497177124 0.9939522743225098 0.3169567286968231
0.09989156574010849 0.9942225813865662 0.18733389675617218
0.10099540650844574 0.9944929480552673 0.057711075991392136
0.10209923982620239 0.9947632551193237 -0.0719117522239685
0.10320308059453964 0.9950336217880249 -0.20153456926345825
0.10430692136287689 0.9953039288520813 -0.3311574161052704
0.10541076213121414 0.9955742359161377 -0.46078023314476013
0.1065145954489708 0.9958446025848389 -0.5904030799865723
0.10761843621730804 0.9961149096488953 -0.720025897026062
0.1087222769856453 0.9963852763175964 -0.8496487140655518
0.10982611775398254 0.9966555833816528 -0.9792715311050415
0.29159849882125854 0.9518378973007202 0.9666748046875
0.292702317237854 0.9521082043647766 0.8370519280433655
0.29380616545677185 0.952378511428833 0.7074291110038757
0.2949100136756897 0.9526488780975342 0.577806293964386
0.29601386189460754 0.9529191851615906 0.44818347692489624
0.297117680311203 0.9531895518302917 0.3185606598854065
0.29822152853012085 0.9534598588943481 0.18893782794475555
0.2993253767490387 0.9537301659584045 0.05931499972939491
0.30042919516563416 0.9540005326271057 -0.07030782848596573
0.301533043384552 0.9542708396911621 -0.19993065297603607
0.30263689160346985 0.9545411467552185 -0.329553484916687
0.3037407100200653 0.9548115134239197 -0.45917630195617676
0.30484455823898315 0.9550818204879761 -0.5887991189956665
0.305948406457901 0.9553521871566772 -0.7184219360351562
0.30705222487449646 0.9556224942207336 -0.8480448126792908
0.3081560730934143 0.95589280128479 -0.9776676297187805
0.47766414284706116 0.8719847798347473 0.9680927395820618
0.4787679612636566 0.8722551465034485 0.838469922542572
0.47987180948257446 0.8725254535675049 0.7088471055030823
0.4809756577014923 0.8727957606315613 0.5792242884635925
0.48207947611808777 0.8730661273002625 0.4496014416217804
0.4831833243370056 0.8733364343643188 0.31997862458229065
0.48428717255592346 0.87360680103302 0.19035577774047852
0.4853909909725189 0.8738771080970764 0.06073295697569847
0.48649483919143677 0.8741474151611328 -0.06888987123966217
0.4875986874103546 0.874417781829834 -0.19851268827915192
0.48870253562927246 0.8746880888938904 -0.32813552021980286
0.4898063540458679 0.8749583959579468 -0.4577583372592926
0.49091020226478577 0.875228762626648 -0.5873811841011047
0.4920140504837036 0.8754990696907043 -0.7170040011405945
0.4931178689002991 0.8757694363594055 -0.8466268181800842
0.4942217171192169 0.8760397434234619 -0.976249635219574
0.6438478827476501 0.7563105821609497 0.9692667126655579
0.6449517607688904 0.7565808892250061 0.8396438360214233
0.6460555791854858 0.7568512558937073 0.7100210189819336
0.6471593976020813 0.7571215629577637 0.5803982019424438
0.6482632756233215 0.7573919296264648 0.4507753849029541
0.649367094039917 0.7576622366905212 0.32115256786346436
0.6504709124565125 0.7579325437545776 0.19152973592281342
0.6515747904777527 0.7582029104232788 0.061906903982162476
0.6526786088943481 0.7584732174873352 -0.06771592050790787
0.6537824273109436 0.7587435245513916 -0.1973387449979782
0.6548863053321838 0.7590138912200928 -0.32696157693862915
0.6559901237487793 0.7592841982841492 -0.4565843939781189
0.6570940017700195 0.7595545649528503 -0.5862072110176086
0.658197820186615 0.7598248720169067 -0.7158300280570984
0.6593016386032104 0.7600951790809631 -0.8454529047012329
0.6604055166244507 0.7603655457496643 -0.9750757217407227
0.7833462357521057 0.609550952911377 0.9701485633850098
0.7844500541687012 0.6098212599754333 0.84052574634552
0.7855539321899414 0.6100916266441345 0.7109029293060303
0.7866577506065369 0.6103619337081909 0.5812800526618958
0.7877615690231323 0.6106323003768921 0.451657235622406
0.7888654470443726 0.6109026074409485 0.32203441858291626
0.789969265460968 0.6111729145050049 0.1924116015434265
0.7910730838775635 0.611443281173706 0.06278876960277557
0.7921769618988037 0.6117135882377625 -0.06683405488729477
0.7932807803153992 0.6119838953018188 -0.1964568793773651
0.7943845987319946 0.61225426197052 -0.32607969641685486
0.7954884767532349 0.6125245690345764 -0.455702543258667
0.7965922951698303 0.6127949357032776 -0.5853253602981567
0.7976961135864258 0.613065242767334 -0.7149481773376465
0.798799991607666 0.6133355498313904 -0.8445709943771362
0.7999038100242615 0.6136059165000916 -0.974193811416626
0.8904480338096619 0.43771427869796753 0.9707022309303284
0.8915518522262573 0.4379845857620239 0.8410794138908386
0.8926556706428528 0.4382549226284027 0.7114565968513489
0.893759548664093 0.4385252594947815 0.5818337798118591
0.8948633670806885 0.4387955963611603 0.452210932970047
0.8959671854972839 0.4390659034252167 0.32258811593055725
0.8970710635185242 0.43933624029159546 0.1929652839899063
0.8981748819351196 0.43960657715797424 0.06334245949983597
0.8992787003517151 0.439876914024353 -0.06628036499023438
0.9003825783729553 0.4401472210884094 -0.19590319693088531
0.9014863967895508 0.4404175579547882 -0.32552602887153625
0.902590274810791 0.440687894821167 -0.455148845911026
0.9036940932273865 0.4409582316875458 -0.5847716927528381
0.9047979116439819 0.4412285387516022 -0.7143945097923279
0.9059017896652222 0.44149887561798096 -0.8440173268318176
0.9070056080818176 0.44176921248435974 -0.9736401438713074
0.9607685208320618 0.24783553183078766 0.970905065536499
0.9618723392486572 0.24810585379600525 0.8412822484970093
0.9629762172698975 0.24837619066238403 0.7116594314575195
0.9640800356864929 0.24864652752876282 0.5820366144180298
0.9651838541030884 0.2489168494939804 0.45241376757621765
0.9662877321243286 0.2491871863603592 0.3227909505367279
0.9673915505409241 0.24945750832557678 0.19316811859607697
0.9684953689575195 0.24972784519195557 0.06354530155658722
0.9695992469787598 0.24999816715717316 -0.06607753038406372
0.9707030653953552 0.25026848912239075 -0.19570034742355347
0.9718068838119507 0.25053882598876953 -0.3253231942653656
0.9729107618331909 0.2508091628551483 -0.45494601130485535
0.9740145802497864 0.2510794997215271 -0.5845688581466675
0.9751183986663818 0.2513498067855835 -0.7141916751861572
0.9762222766876221 0.2516201436519623 -0.843814492225647
0.9773260951042175 0.25189048051834106 -0.9734373092651367
0.991428792476654 0.04768840968608856 0.970748782157898
0.9925326108932495 0.04795873910188675 0.8411259651184082
0.9936364889144897 0.048229068517684937 0.7115030884742737
0.9947403073310852 0.048499397933483124 0.5818802714347839
0.9958441853523254 0.04876972734928131 0.4522574543952942
0.9969480037689209 0.0490400567650795 0.32263463735580444
0.9980518221855164 0.049310386180877686 0.1930118054151535
0.9991557002067566 0.04958071559667587 0.06338898837566376
1.000259518623352 0.04985104501247406 -0.06623384356498718
1.0013633966445923 0.05012137442827225 -0.19585666060447693
1.002467155456543 0.050391703844070435 -0.32547950744628906
1.0035710334777832 0.05066203698515892 -0.4551023244857788
1.0046749114990234 0.05093236640095711 -0.5847251415252686
1.0057786703109741 0.051202695816755295 -0.7143479585647583
1.0068825483322144 0.05147302523255348 -0.843970775604248
1.0079864263534546 0.05174335464835167 -0.9735936522483826
0.9811736345291138 -0.15453305840492249 0.9702396988868713
0.9822774529457092 -0.1542627215385437 0.8406168818473816
0.9833813309669495 -0.1539923995733261 0.7109940648078918
0.9844851493835449 -0.15372206270694733 0.5813712477684021
0.9855889678001404 -0.15345174074172974 0.45174840092658997
0.9866928458213806 -0.15318140387535095 0.3221255838871002
0.9877966642379761 -0.15291108191013336 0.19250275194644928
0.9889004826545715 -0.15264074504375458 0.06287992000579834
0.9900043606758118 -0.152370423078537 -0.066742904484272
0.9911081790924072 -0.1521000862121582 -0.19636572897434235
0.9922119975090027 -0.1518297642469406 -0.3259885609149933
0.9933158755302429 -0.15155942738056183 -0.45561137795448303
0.9944196939468384 -0.15128910541534424 -0.5852342247962952
0.9955235123634338 -0.15101876854896545 -0.7148570418357849
0.9966273903846741 -0.15074844658374786 -0.8444798588752747
0.9977312088012695 -0.15047810971736908 -0.9741026759147644
0.930422842502594 -0.3505498766899109 0.9693987369537354
0.9315266609191895 -0.3502795696258545 0.8397759199142456
0.9326305389404297 -0.3500092327594757 0.7101530432701111
0.9337343573570251 -0.3497388958930969 0.5805302262306213
0.9348382353782654 -0.34946855902671814 0.4509074091911316
0.9359420537948608 -0.34919825196266174 0.32128459215164185
0.9370458722114563 -0.34892791509628296 0.1916617751121521
0.9381497502326965 -0.3486575782299042 0.06203894317150116
0.939253568649292 -0.3483872413635254 -0.06758388131856918
0.9403573870658875 -0.348116934299469 -0.19720670580863953
0.9414612650871277 -0.3478465974330902 -0.3268295228481293
0.9425650835037231 -0.3475762605667114 -0.4564523696899414
0.9436689019203186 -0.34730592370033264 -0.5860751867294312
0.9447727799415588 -0.34703561663627625 -0.7156980037689209
0.9458765983581543 -0.34676527976989746 -0.8453208208084106
0.9469804167747498 -0.3464949429035187 -0.9749436378479004
0.8412542343139648 -0.5323371291160583 0.9682602882385254
0.8423580527305603 -0.532066822052002 0.8386374115943909
0.8434618711471558 -0.5317964553833008 0.7090145945549011
0.844565749168396 -0.5315261483192444 0.5793917775154114
0.8456695675849915 -0.531255841255188 0.44976896047592163
0.8467733860015869 -0.5309854745864868 0.3201461434364319
0.8478772640228271 -0.5307151675224304 0.19052331149578094
0.8489810824394226 -0.530444860458374 0.0609004832804203
0.8500849008560181 -0.5301744937896729 -0.06872234493494034
0.8511887788772583 -0.5299041867256165 -0.19834516942501068
0.8522925972938538 -0.5296338200569153 -0.3279680013656616
0.8533964157104492 -0.5293635129928589 -0.45759081840515137
0.8545002937316895 -0.5290932059288025 -0.5872136354446411
0.8556041121482849 -0.5288228392601013 -0.7168364524841309
0.8567079305648804 -0.5285525321960449 -0.8464593291282654
0.8578118085861206 -0.5282822251319885 -0.9760821461677551
0.7173182964324951 -0.6924524307250977 0.966870903968811
0.7184221148490906 -0.6921820640563965 0.8372480869293213
0.719525933265686 -0.6919117569923401 0.7076252698898315
0.7206298112869263 -0.6916414499282837 0.5780024528503418
0.7217336297035217 -0.6913710832595825 0.44837963581085205
0.7228374481201172 -0.6911007761955261 0.3187567889690399
0.7239413261413574 -0.6908304691314697 0.18913397192955017
0.7250451445579529 -0.6905601024627686 0.059511151164770126
0.7261489629745483 -0.6902897953987122 -0.07011167705059052
0.7272528409957886 -0.690019428730011 -0.19973450899124146
0.728356659412384 -0.6897491216659546 -0.3293573260307312
0.7294604778289795 -0.6894788146018982 -0.45898014307022095
0.7305643558502197 -0.689208447933197 -0.5886029601097107
0.7316681742668152 -0.6889381408691406 -0.7182257771492004
0.7327720522880554 -0.6886678338050842 -0.847848653793335
0.7338758707046509 -0.6883974671363831 -0.9774714708328247
0.5636889934539795 -0.8243405818939209 0.9652876257896423
0.5647928714752197 -0.8240702748298645 0.8356648087501526
0.5658966898918152 -0.8237999081611633 0.7060419321060181
0.5670005083084106 -0.8235296010971069 0.5764191150665283
0.5681043863296509 -0.8232592940330505 0.4467962980270386
0.5692082047462463 -0.8229889273643494 0.31717348098754883
0.5703120231628418 -0.822718620300293 0.1875506490468979
0.571415901184082 -0.8224482536315918 0.057927824556827545
0.5725197196006775 -0.8221779465675354 -0.0716949999332428
0.573623538017273 -0.821907639503479 -0.20131783187389374
0.5747274160385132 -0.8216372728347778 -0.3309406638145447
0.5758312344551086 -0.8213669657707214 -0.4605634808540344
0.5769350528717041 -0.821096658706665 -0.5901862978935242
0.5780389308929443 -0.8208262920379639 -0.7198091149330139
0.5791427493095398 -0.8205559849739075 -0.8494319319725037
0.5802465677261353 -0.8202856183052063 -0.9790548086166382
0.3866560161113739 -0.922602117061615 0.9635751247406006
0.38775983452796936 -0.9223318099975586 0.8339523077011108
0.3888636827468872 -0.9220614433288574 0.7043294310569763
0.38996753096580505 -0.921791136264801 0.5747066140174866
0.3910713493824005 -0.9215208292007446 0.4450837969779968
0.39217519760131836 -0.9212504625320435 0.3154609799385071
0.3932790458202362 -0.9209801554679871 0.18583814799785614
0.39438286423683167 -0.9207098484039307 0.0562153235077858
0.3954867124557495 -0.9204394817352295 -0.07340750098228455
0.39659056067466736 -0.9201691746711731 -0.20303033292293549
0.3976943790912628 -0.9198988080024719 -0.3326531648635864
0.39879822731018066 -0.9196285009384155 -0.46227598190307617
0.3999020755290985 -0.9193581938743591 -0.5918987989425659
0.40100592374801636 -0.919087827205658 -0.7215216159820557
0.4021097421646118 -0.9188175201416016 -0.8511444330215454
0.40321359038352966 -0.9185471534729004 -0.9807673096656799
0.19346700608730316 -0.9832141995429993 0.9618035554885864
0.194570854306221 -0.9829438924789429 0.8321807384490967
0.19567468762397766 -0.9826735258102417 0.7025579214096069
0.1967785358428955 -0.9824032187461853 0.5729350447654724
0.19788236916065216 -0.9821328520774841 0.44331222772598267
0.1989862024784088 -0.9818625450134277 0.3136894106864929
0.20009005069732666 -0.9815922379493713 0.18406659364700317
0.2011938840150833 -0.9813218712806702 0.05444376543164253
0.20229771733283997 -0.9810515642166138 -0.07517906278371811
0.2034015655517578 -0.9807812571525574 -0.20480188727378845
0.20450539886951447 -0.9805108904838562 -0.3344247043132782
0.2056092470884323 -0.9802405834197998 -0.46404755115509033
0.20671308040618896 -0.9799702167510986 -0.5936703681945801
0.20781691372394562 -0.9796999096870422 -0.7232931852340698
0.20892076194286346 -0.9794296026229858 -0.8529160022735596
0.21002459526062012 -0.9791592359542847 -0.9825388193130493
-0.007968783378601074 -1.0036953687667847 0.9600454568862915
-0.006864944472908974 -1.0034250020980835 0.8304226398468018
-0.005761105567216873 -1.0031546354293823 0.700799822807312
-0.004657266195863485 -1.0028843879699707 0.5711769461631775
-0.0035534275230020285 -1.0026140213012695 0.44155415892601013
-0.0024495883844792843 -1.0023436546325684 0.311931312084198
-0.0013457494787871838 -1.0020734071731567 0.18230849504470825
-0.00024191047123167664 -1.0018030405044556 0.05268566682934761
0.00086192850722 -1.0015326738357544 -0.07693716138601303
0.0019657674711197615 -1.0012624263763428 -0.20655998587608337
0.003069606376811862 -1.0009920597076416 -0.3361828029155731
0.004173445515334606 -1.0007216930389404 -0.46580564975738525
0.005277284421026707 -1.0004513263702393 -0.595428466796875
0.006381123326718807 -1.0001810789108276 -0.7250512838363647
0.007484962232410908 -0.9999107122421265 -0.8546741008758545
0.008588801138103008 -0.9996404051780701 -0.9842969179153442
