ply
format ascii 1.0
element vertex 512
property float x
property float y
property float z
end_header
0.013885974884033203 1.0153582096099854 -1.353499174118042
0.013885967433452606 1.0153582096099854 -1.1736445426940918
0.013885959051549435 1.0153582096099854 -0.9937899112701416
0.013885951600968838 1.0153582096099854 -0.8139352798461914
0.013885943219065666 1.0153582096099854 -0.6340806484222412
0.01388593576848507 1.0153582096099854 -0.454226016998291
0.013885927386581898 1.0153582096099854 -0.2743713855743408
0.0138859199360013 1.0153582096099854 -0.09451675415039062
0.01388591155409813 1.0153582096099854 0.08533787727355957
0.013885904103517532 1.0153582096099854 0.26519250869750977
0.013885896652936935 1.0153582096099854 0.44504714012145996
0.013885888271033764 1.0153582096099854 0.6249017715454102
0.013885880820453167 1.0153582096099854 0.8047564029693604
0.013885872438549995 1.0153582096099854 0.9846110343933105
0.013885864987969398 1.0153582096099854 1.1644656658172607
0.013885856606066227 1.0153582096099854 1.344320297241211
-0.20755258202552795 0.9928401112556458 -1.353499174118042
-0.20755258202552795 0.9928401112556458 -1.1736445426940918
-0.20755259692668915 0.9928401112556458 -0.9937899112701416
-0.20755259692668915 0.9928401112556458 -0.8139352798461914
-0.20755261182785034 0.9928401112556458 -0.6340806484222412
-0.20755261182785034 0.9928401112556458 -0.454226016998291
-0.20755262672901154 0.9928401112556458 -0.2743713855743408
-0.20755262672901154 0.9928401112556458 -0.09451676160097122
-0.20755264163017273 0.9928401112556458 0.08533786982297897
-0.20755264163017273 0.9928401112556458 0.26519250869750977
-0.20755265653133392 0.9928401112556458 0.44504714012145996
-0.20755265653133392 0.9928401112556458 0.6249017715454102
-0.20755267143249512 0.9928401112556458 0.8047564029693604
-0.20755267143249512 0.9928401112556458 0.9846110343933105
-0.2075526863336563 0.9928401112556458 1.1644656658172607
-0.2075527012348175 0.9928401112556458 1.344320297241211
-0.41992542147636414 0.9262077212333679 -1.353499174118042
-0.41992542147636414 0.9262077212333679 -1.1736445426940918
-0.41992542147636414 0.9262077212333679 -0.9937899112701416
-0.41992542147636414 0.9262077212333679 -0.8139352798461914
-0.4199254512786865 0.9262077212333679 -0.6340806484222412
-0.4199254512786865 0.9262077212333679 -0.4542260468006134
-0.4199254512786865 0.9262077212333679 -0.2743714153766632
-0.4199254512786865 0.9262077212333679 -0.09451677650213242
-0.4199254810810089 0.9262077212333679 0.08533785492181778
-0.4199254810810089 0.9262077212333679 0.2651924788951874
-0.4199254810810089 0.9262077212333679 0.4450471103191376
-0.4199254810810089 0.9262077212333679 0.6249017715454102
-0.4199255108833313 0.9262077212333679 0.8047564029693604
-0.4199255108833313 0.9262077212333679 0.9846110343933105
-0.4199255108833313 0.9262077212333679 1.1644656658172607
-0.4199255108833313 0.9262077212333679 1.344320297241211
-0.6145379543304443 0.8181889057159424 -1.353499174118042
-0.6145379543304443 0.8181889057159424 -1.1736445426940918
-0.6145379543304443 0.8181889057159424 -0.9937899112701416
-0.6145379543304443 0.8181889057159424 -0.8139352798461914
-0.6145379543304443 0.8181889057159424 -0.6340806484222412
-0.6145380139350891 0.8181889057159424 -0.4542260468006134
-0.6145380139350891 0.8181889057159424 -0.2743714153766632
-0.6145380139350891 0.8181889057159424 -0.09451678395271301
-0.6145380139350891 0.8181889057159424 0.08533784747123718
-0.6145380139350891 0.8181889057159424 0.2651924788951874
-0.6145380139350891 0.8181889057159424 0.4450471103191376
-0.6145380139350891 0.8181889057159424 0.6249017715454102
-0.6145380735397339 0.8181889057159424 0.8047564029693604
-0.6145380735397339 0.8181889057159424 0.9846110343933105
-0.6145380735397339 0.8181889057159424 1.1644656658172607
-0.6145380735397339 0.8181889057159424 1.344320297241211
-0.7834227681159973 0.673206090927124 -1.353499174118042
-0.7834227681159973 0.673206090927124 -1.1736445426940918
-0.7834227681159973 0.673206090927124 -0.9937899708747864
-0.7834227681159973 0.673206090927124 -0.8139353394508362
-0.7834227681159973 0.673206090927124 -0.634080708026886
-0.7834227681159973 0.673206090927124 -0.4542260468006134
-0.7834227681159973 0.673206090927124 -0.2743714153766632
-0.7834227681159973 0.673206090927124 -0.09451679140329361
-0.7834228277206421 0.673206090927124 0.08533784002065659
-0.7834228277206421 0.673206090927124 0.2651924788951874
-0.7834228277206421 0.673206090927124 0.4450471103191376
-0.7834228277206421 0.673206090927124 0.6249017119407654
-0.7834228277206421 0.673206090927124 0.8047563433647156
-0.7834228277206421 0.673206090927124 0.9846109747886658
-0.7834228277206421 0.673206090927124 1.1644656658172607
-0.7834228873252869 0.673206090927124 1.344320297241211
-0.9196656346321106 0.4971947968006134 -1.353499174118042
-0.9196656346321106 0.4971947968006134 -1.1736445426940918
-0.9196656346321106 0.4971947968006134 -0.9937899708747864
-0.9196656346321106 0.4971947968006134 -0.8139353394508362
-0.9196656346321106 0.4971947968006134 -0.634080708026886
-0.9196656346321106 0.4971947968006134 -0.4542260468006134
-0.9196656942367554 0.4971947968006134 -0.2743714153766632
-0.9196656942367554 0.4971947968006134 -0.09451679140329361
-0.9196656942367554 0.4971947968006134 0.08533784002065659
-0.9196656942367554 0.4971947968006134 0.2651924788951874
-0.9196656942367554 0.4971947968006134 0.4450471103191376
-0.9196656942367554 0.4971947968006134 0.6249017119407654
-0.9196656942367554 0.4971947968006134 0.8047563433647156
-0.9196657538414001 0.4971947968006134 0.9846109747886658
-0.9196657538414001 0.4971947968006134 1.1644656658172607
-0.9196657538414001 0.4971947968006134 1.344320297241211
-1.0176887512207031 0.29736098647117615 -1.353499174118042
-1.0176887512207031 0.29736098647117615 -1.1736445426940918
-1.0176887512207031 0.29736098647117615 -0.9937899708747864
-1.0176888704299927 0.29736098647117615 -0.8139353394508362
-1.0176888704299927 0.29736098647117615 -0.634080708026886
-1.0176888704299927 0.29736098647117615 -0.4542260766029358
-1.0176888704299927 0.29736098647117615 -0.2743714451789856
-1.0176888704299927 0.29736098647117615 -0.0945167988538742
-1.0176888704299927 0.29736098647117615 0.08533783257007599
-1.0176888704299927 0.29736098647117615 0.265192449092865
-1.0176888704299927 0.29736098647117615 0.4450470805168152
-1.0176888704299927 0.29736098647117615 0.6249017119407654
-1.0176888704299927 0.29736098647117615 0.8047563433647156
-1.0176888704299927 0.29736098647117615 0.9846109747886658
-1.0176888704299927 0.29736098647117615 1.1644656658172607
-1.0176888704299927 0.29736098647117615 1.344320297241211
-1.073479175567627 0.08188585191965103 -1.353499174118042
-1.073479175567627 0.08188585191965103 -1.1736445426940918
-1.073479175567627 0.08188585191965103 -0.9937899708747864
-1.073479175567627 0.08188585191965103 -0.8139353394508362
-1.073479175567627 0.08188585191965103 -0.634080708026886
-1.073479175567627 0.08188585191965103 -0.4542260766029358
-1.073479175567627 0.08188585191965103 -0.2743714451789856
-1.073479175567627 0.08188585191965103 -0.0945167988538742
-1.073479175567627 0.08188585191965103 0.08533783257007599
-1.0734792947769165 0.08188585191965103 0.265192449092865
-1.0734792947769165 0.08188585191965103 0.4450470805168152
-1.0734792947769165 0.08188585191965103 0.6249017119407654
-1.0734792947769165 0.08188585191965103 0.8047563433647156
-1.0734792947769165 0.08188585191965103 0.9846109747886658
-1.0734792947769165 0.08188585191965103 1.1644656658172607
-1.0734792947769165 0.08188585191965103 1.344320297241211
-1.0847526788711548 -0.14040900766849518 -1.353499174118042
-1.0847526788711548 -0.14040900766849518 -1.1736445426940918
-1.0847526788711548 -0.14040900766849518 -0.9937899708747864
-1.0847526788711548 -0.14040900766849518 -0.8139353394508362
-1.0847526788711548 -0.14040900766849518 -0.634080708026886
-1.0847526788711548 -0.14040900766849518 -0.4542260766029358
-1.0847526788711548 -0.14040900766849518 -0.2743714451789856
-1.0847527980804443 -0.14040900766849518 -0.0945167988538742
-1.0847527980804443 -0.14040900766849518 0.08533783257007599
-1.0847527980804443 -0.14040900766849518 0.265192449092865
-1.0847527980804443 -0.14040900766849518 0.4450470805168152
-1.0847527980804443 -0.14040900766849518 0.6249017119407654
-1.0847527980804443 -0.14040900766849518 0.8047563433647156
-1.0847527980804443 -0.14040900766849518 0.9846109747886658
-1.0847527980804443 -0.14040900766849518 1.1644656658172607
-1.0847527980804443 -0.14040900766849518 1.344320297241211
-1.0510478019714355 -0.360422819852829 -1.353499174118042
-1.0510478019714355 -0.360422819852829 -1.1736445426940918
-1.0510478019714355 -0.360422819852829 -0.9937899708747864
-1.0510478019714355 -0.360422819852829 -0.8139353394508362
-1.0510478019714355 -0.360422819852829 -0.634080708026886
-1.0510478019714355 -0.360422819852829 -0.4542260766029358
-1.0510478019714355 -0.360422819852829 -0.2743714451789856
-1.051047921180725 -0.360422819852829 -0.0945167988538742
-1.051047921180725 -0.360422819852829 0.08533783257007599
-1.051047921180725 -0.360422819852829 0.265192449092865
-1.051047921180725 -0.360422819852829 0.4450470805168152
-1.051047921180725 -0.360422819852829 0.6249017119407654
-1.051047921180725 -0.360422819852829 0.8047563433647156
-1.051047921180725 -0.360422819852829 0.9846109747886658
-1.051047921180725 -0.360422819852829 1.1644656658172607
-1.051047921180725 -0.360422819852829 1.344320297241211
-0.9737443923950195 -0.5691481828689575 -1.353499174118042
-0.9737444519996643 -0.5691481828689575 -1.1736445426940918
-0.9737444519996643 -0.5691481828689575 -0.9937899708747864
-0.9737444519996643 -0.5691481828689575 -0.8139353394508362
-0.9737444519996643 -0.5691481828689575 -0.634080708026886
-0.9737444519996643 -0.5691481828689575 -0.4542260468006134
-0.9737444519996643 -0.5691481828689575 -0.2743714153766632
-0.9737444519996643 -0.5691481828689575 -0.0945167988538742
-0.9737445116043091 -0.5691481828689575 0.08533783257007599
-0.9737445116043091 -0.5691481828689575 0.2651924788951874
-0.9737445116043091 -0.5691481828689575 0.4450471103191376
-0.9737445116043091 -0.5691481828689575 0.6249017119407654
-0.9737445116043091 -0.5691481828689575 0.8047563433647156
-0.9737445116043091 -0.5691481828689575 0.9846109747886658
-0.9737445116043091 -0.5691481828689575 1.1644656658172607
-0.9737445116043091 -0.5691481828689575 1.344320297241211
-0.8560073375701904 -0.7580398917198181 -1.353499174118042
-0.8560073375701904 -0.7580398917198181 -1.1736445426940918
-0.8560073375701904 -0.7580398917198181 -0.9937899708747864
-0.8560073375701904 -0.7580398917198181 -0.8139353394508362
-0.8560073375701904 -0.7580398917198181 -0.634080708026886
-0.8560073375701904 -0.7580398917198181 -0.4542260468006134
-0.8560073971748352 -0.7580398917198181 -0.2743714153766632
-0.8560073971748352 -0.7580398917198181 -0.09451679140329361
-0.8560073971748352 -0.7580398917198181 0.08533784002065659
-0.8560073971748352 -0.7580398917198181 0.2651924788951874
-0.8560073971748352 -0.7580398917198181 0.4450471103191376
-0.8560073971748352 -0.7580398917198181 0.6249017119407654
-0.8560073971748352 -0.7580398917198181 0.8047563433647156
-0.8560073971748352 -0.7580398917198181 0.9846109747886658
-0.85600745677948 -0.7580398917198181 1.1644656658172607
-0.85600745677948 -0.7580398917198181 1.344320297241211
-0.7026566863059998 -0.9193646907806396 -1.353499174118042
-0.7026566863059998 -0.9193646907806396 -1.1736445426940918
-0.7026566863059998 -0.9193646907806396 -0.9937899708747864
-0.7026567459106445 -0.9193646907806396 -0.8139353394508362
-0.7026567459106445 -0.9193646907806396 -0.634080708026886
-0.7026567459106445 -0.9193646907806396 -0.4542260468006134
-0.7026567459106445 -0.9193646907806396 -0.2743714153766632
-0.7026567459106445 -0.9193646907806396 -0.09451678395271301
-0.7026567459106445 -0.9193646907806396 0.08533784747123718
-0.7026567459106445 -0.9193646907806396 0.2651924788951874
-0.7026567459106445 -0.9193646907806396 0.4450471103191376
-0.7026568055152893 -0.9193646907806396 0.6249017119407654
-0.7026568055152893 -0.9193646907806396 0.8047563433647156
-0.7026568055152893 -0.9193646907806396 0.9846109747886658
-0.7026568055152893 -0.9193646907806396 1.1644656658172607
-0.7026568055152893 -0.9193646907806396 1.344320297241211
-0.519970715045929 -1.0465178489685059 -1.353499174118042
-0.519970715045929 -1.0465178489685059 -1.1736445426940918
-0.519970715045929 -1.0465178489685059 -0.9937899112701416
-0.5199707746505737 -1.0465178489685059 -0.8139352798461914
-0.5199707746505737 -1.0465178489685059 -0.6340806484222412
-0.5199707746505737 -1.0465178489685059 -0.4542260468006134
-0.5199707746505737 -1.0465178489685059 -0.2743714153766632
-0.5199707746505737 -1.0465178489685059 -0.09451677650213242
-0.5199707746505737 -1.0465178489685059 0.08533785492181778
-0.5199707746505737 -1.0465178489685059 0.2651924788951874
-0.5199707746505737 -1.0465178489685059 0.4450471103191376
-0.5199708342552185 -1.0465178489685059 0.6249017715454102
-0.5199708342552185 -1.0465178489685059 0.8047564029693604
-0.5199708342552185 -1.0465178489685059 0.9846110343933105
-0.5199708342552185 -1.0465178489685059 1.1644656658172607
-0.5199708342552185 -1.0465178489685059 1.344320297241211
-0.31542858481407166 -1.134293794631958 -1.353499174118042
-0.31542861461639404 -1.134293794631958 -1.1736445426940918
-0.31542861461639404 -1.134293794631958 -0.9937899112701416
-0.31542861461639404 -1.134293794631958 -0.8139352798461914
-0.31542864441871643 -1.134293794631958 -0.6340806484222412
-0.31542864441871643 -1.134293794631958 -0.454226016998291
-0.31542864441871643 -1.134293794631958 -0.2743713855743408
-0.31542864441871643 -1.134293794631958 -0.09451676905155182
-0.3154286742210388 -1.134293794631958 0.08533786237239838
-0.3154286742210388 -1.134293794631958 0.26519250869750977
-0.3154286742210388 -1.134293794631958 0.44504714012145996
-0.3154286742210388 -1.134293794631958 0.6249017715454102
-0.3154287040233612 -1.134293794631958 0.8047564029693604
-0.3154287040233612 -1.134293794631958 0.9846110343933105
-0.3154287040233612 -1.134293794631958 1.1644656658172607
-0.3154287040233612 -1.134293794631958 1.344320297241211
-0.09740429371595383 -1.1790989637374878 -1.353499174118042
-0.09740430116653442 -1.1790989637374878 -1.1736445426940918
-0.09740430861711502 -1.1790989637374878 -0.9937899112701416
-0.09740431606769562 -1.1790989637374878 -0.8139352798461914
-0.09740432351827621 -1.1790989637374878 -0.6340806484222412
-0.09740433096885681 -1.1790989637374878 -0.454226016998291
-0.097404345870018 -1.1790989637374878 -0.2743713855743408
-0.0974043533205986 -1.1790989637374878 -0.09451676160097122
-0.0974043607711792 -1.1790989637374878 0.08533786982297897
-0.0974043682217598 -1.1790989637374878 0.26519250869750977
-0.0974043756723404 -1.1790989637374878 0.44504714012145996
-0.09740438312292099 -1.1790989637374878 0.6249017715454102
-0.09740439057350159 -1.1790989637374878 0.8047564029693604
-0.09740439802408218 -1.1790989637374878 0.9846110343933105
-0.09740440547466278 -1.1790989637374878 1.1644656658172607
-0.09740441292524338 -1.1790989637374878 1.344320297241211
0.12517625093460083 -1.1790989637374878 -1.353499174118042
0.12517623603343964 -1.1790989637374878 -1.1736445426940918
0.12517623603343964 -1.1790989637374878 -0.9937899112701416
0.12517622113227844 -1.1790989637374878 -0.8139352798461914
0.12517620623111725 -1.1790989637374878 -0.6340806484222412
0.12517620623111725 -1.1790989637374878 -0.454226016998291
0.12517619132995605 -1.1790989637374878 -0.2743713855743408
0.12517619132995605 -1.1790989637374878 -0.09451674669981003
0.12517617642879486 -1.1790989637374878 0.08533788472414017
0.12517617642879486 -1.1790989637374878 0.26519250869750977
0.12517616152763367 -1.1790989637374878 0.44504714012145996
0.12517616152763367 -1.1790989637374878 0.6249017715454102
0.12517614662647247 -1.1790989637374878 0.8047564029693604
0.12517614662647247 -1.1790989637374878 0.9846110343933105
0.12517613172531128 -1.1790989637374878 1.1644656658172607
0.12517613172531128 -1.1790989637374878 1.344320297241211
0.34320053458213806 -1.134293794631958 -1.353499174118042
0.34320053458213806 -1.134293794631958 -1.1736445426940918
0.34320053458213806 -1.134293794631958 -0.9937899112701416
0.34320053458213806 -1.134293794631958 -0.8139352798461914
0.3432005047798157 -1.134293794631958 -0.6340806484222412
0.3432005047798157 -1.134293794631958 -0.454226016998291
0.3432005047798157 -1.134293794631958 -0.2743713855743408
0.3432005047798157 -1.134293794631958 -0.09451673924922943
0.3432004749774933 -1.134293794631958 0.08533789217472076
0.3432004749774933 -1.134293794631958 0.26519250869750977
0.3432004749774933 -1.134293794631958 0.44504714012145996
0.3432004749774933 -1.134293794631958 0.6249017715454102
0.3432004451751709 -1.134293794631958 0.8047564029693604
0.3432004451751709 -1.134293794631958 0.9846110343933105
0.3432004451751709 -1.134293794631958 1.1644656658172607
0.3432004451751709 -1.134293794631958 1.344320297241211
0.5477426648139954 -1.0465178489685059 -1.353499174118042
0.5477426648139954 -1.0465178489685059 -1.1736445426940918
0.5477426648139954 -1.0465178489685059 -0.9937899112701416
0.5477426648139954 -1.0465178489685059 -0.8139352798461914
0.5477426648139954 -1.0465178489685059 -0.6340806484222412
0.5477426648139954 -1.0465178489685059 -0.45422598719596863
0.5477426052093506 -1.0465178489685059 -0.27437135577201843
0.5477426052093506 -1.0465178489685059 -0.09451673179864883
0.5477426052093506 -1.0465178489685059 0.08533789962530136
0.5477426052093506 -1.0465178489685059 0.26519253849983215
0.5477426052093506 -1.0465178489685059 0.44504716992378235
0.5477426052093506 -1.0465178489685059 0.6249017715454102
0.5477426052093506 -1.0465178489685059 0.8047564029693604
0.5477425456047058 -1.0465178489685059 0.9846110343933105
0.5477425456047058 -1.0465178489685059 1.1644656658172607
0.5477425456047058 -1.0465178489685059 1.344320297241211
0.7304286360740662 -0.9193646907806396 -1.353499174118042
0.7304286360740662 -0.9193646907806396 -1.1736445426940918
0.7304286360740662 -0.9193646907806396 -0.9937898516654968
0.7304286360740662 -0.9193646907806396 -0.8139352202415466
0.7304286360740662 -0.9193646907806396 -0.6340805888175964
0.7304285764694214 -0.9193646907806396 -0.45422598719596863
0.7304285764694214 -0.9193646907806396 -0.27437135577201843
0.7304285764694214 -0.9193646907806396 -0.09451672434806824
0.7304285764694214 -0.9193646907806396 0.08533790707588196
0.7304285764694214 -0.9193646907806396 0.26519253849983215
0.7304285764694214 -0.9193646907806396 0.44504716992378235
0.7304285764694214 -0.9193646907806396 0.6249018311500549
0.7304285764694214 -0.9193646907806396 0.8047564625740051
0.7304285168647766 -0.9193646907806396 0.9846110939979553
0.7304285168647766 -0.9193646907806396 1.1644656658172607
0.7304285168647766 -0.9193646907806396 1.344320297241211
0.8837792873382568 -0.7580398917198181 -1.353499174118042
0.8837792873382568 -0.7580398917198181 -1.1736445426940918
0.8837792873382568 -0.7580398917198181 -0.9937898516654968
0.8837792277336121 -0.7580398917198181 -0.8139352202415466
0.8837792277336121 -0.7580398917198181 -0.6340805888175964
0.8837792277336121 -0.7580398917198181 -0.45422598719596863
0.8837792277336121 -0.7580398917198181 -0.27437135577201843
0.8837792277336121 -0.7580398917198181 -0.09451671689748764
0.8837792277336121 -0.7580398917198181 0.08533791452646255
0.8837792277336121 -0.7580398917198181 0.26519253849983215
0.8837791681289673 -0.7580398917198181 0.44504716992378235
0.8837791681289673 -0.7580398917198181 0.6249018311500549
0.8837791681289673 -0.7580398917198181 0.8047564625740051
0.8837791681289673 -0.7580398917198181 0.9846110939979553
0.8837791681289673 -0.7580398917198181 1.1644656658172607
0.8837791681289673 -0.7580398917198181 1.344320297241211
1.001516342163086 -0.5691481828689575 -1.353499174118042
1.001516342163086 -0.5691481828689575 -1.1736445426940918
1.001516342163086 -0.5691481828689575 -0.9937898516654968
1.001516342163086 -0.5691481828689575 -0.8139352202415466
1.001516342163086 -0.5691481828689575 -0.6340805888175964
1.001516342163086 -0.5691481828689575 -0.45422598719596863
1.001516342163086 -0.5691481828689575 -0.27437135577201843
1.001516342163086 -0.5691481828689575 -0.09451670944690704
1.001516342163086 -0.5691481828689575 0.08533792197704315
1.001516342163086 -0.5691481828689575 0.26519253849983215
1.001516342163086 -0.5691481828689575 0.44504716992378235
1.001516342163086 -0.5691481828689575 0.6249018311500549
1.0015162229537964 -0.5691481828689575 0.8047564625740051
1.0015162229537964 -0.5691481828689575 0.9846110939979553
1.0015162229537964 -0.5691481828689575 1.1644656658172607
1.0015162229537964 -0.5691481828689575 1.344320297241211
1.078819751739502 -0.360422819852829 -1.353499174118042
1.078819751739502 -0.360422819852829 -1.1736445426940918
1.078819751739502 -0.360422819852829 -0.9937898516654968
1.078819751739502 -0.360422819852829 -0.8139352202415466
1.078819751739502 -0.360422819852829 -0.6340805888175964
1.078819751739502 -0.360422819852829 -0.45422595739364624
1.078819751739502 -0.360422819852829 -0.27437132596969604
1.078819751739502 -0.360422819852829 -0.09451670944690704
1.078819751739502 -0.360422819852829 0.08533792197704315
1.0788196325302124 -0.360422819852829 0.26519256830215454
1.0788196325302124 -0.360422819852829 0.44504719972610474
1.0788196325302124 -0.360422819852829 0.6249018311500549
1.0788196325302124 -0.360422819852829 0.8047564625740051
1.0788196325302124 -0.360422819852829 0.9846110939979553
1.0788196325302124 -0.360422819852829 1.1644656658172607
1.0788196325302124 -0.360422819852829 1.344320297241211
1.1125246286392212 -0.14040900766849518 -1.353499174118042
1.1125246286392212 -0.14040900766849518 -1.1736445426940918
1.1125246286392212 -0.14040900766849518 -0.9937898516654968
1.1125246286392212 -0.14040900766849518 -0.8139352202415466
1.1125246286392212 -0.14040900766849518 -0.6340805888175964
1.1125246286392212 -0.14040900766849518 -0.45422595739364624
1.1125246286392212 -0.14040900766849518 -0.27437132596969604
1.1125246286392212 -0.14040900766849518 -0.09451670944690704
1.1125246286392212 -0.14040900766849518 0.08533792197704315
1.1125245094299316 -0.14040900766849518 0.26519256830215454
1.1125245094299316 -0.14040900766849518 0.44504719972610474
1.1125245094299316 -0.14040900766849518 0.6249018311500549
1.1125245094299316 -0.14040900766849518 0.8047564625740051
1.1125245094299316 -0.14040900766849518 0.9846110939979553
1.1125245094299316 -0.14040900766849518 1.1644656658172607
1.1125245094299316 -0.14040900766849518 1.344320297241211
1.1012511253356934 0.08188585191965103 -1.353499174118042
1.1012511253356934 0.08188585191965103 -1.1736445426940918
1.1012511253356934 0.08188585191965103 -0.9937898516654968
1.1012511253356934 0.08188585191965103 -0.8139352202415466
1.1012511253356934 0.08188585191965103 -0.6340805888175964
1.1012511253356934 0.08188585191965103 -0.45422595739364624
1.1012511253356934 0.08188585191965103 -0.27437132596969604
1.1012510061264038 0.08188585191965103 -0.09451670944690704
1.1012510061264038 0.08188585191965103 0.08533792197704315
1.1012510061264038 0.08188585191965103 0.26519256830215454
1.1012510061264038 0.08188585191965103 0.44504719972610474
1.1012510061264038 0.08188585191965103 0.6249018311500549
1.1012510061264038 0.08188585191965103 0.8047564625740051
1.1012510061264038 0.08188585191965103 0.9846110939979553
1.1012510061264038 0.08188585191965103 1.1644656658172607
1.1012510061264038 0.08188585191965103 1.344320297241211
1.0454607009887695 0.29736098647117615 -1.353499174118042
1.0454607009887695 0.29736098647117615 -1.1736445426940918
1.0454607009887695 0.29736098647117615 -0.9937898516654968
1.0454607009887695 0.29736098647117615 -0.8139352202415466
1.0454607009887695 0.29736098647117615 -0.6340805888175964
1.0454607009887695 0.29736098647117615 -0.45422595739364624
1.0454607009887695 0.29736098647117615 -0.27437132596969604
1.0454607009887695 0.29736098647117615 -0.09451670944690704
1.0454607009887695 0.29736098647117615 0.08533792197704315
1.0454607009887695 0.29736098647117615 0.26519256830215454
1.0454607009887695 0.29736098647117615 0.44504719972610474
1.0454607009887695 0.29736098647117615 0.6249018311500549
1.0454607009887695 0.29736098647117615 0.8047564625740051
1.04546058177948 0.29736098647117615 0.9846110939979553
1.04546058177948 0.29736098647117615 1.1644656658172607
1.04546058177948 0.29736098647117615 1.344320297241211
0.947437584400177 0.4971947968006134 -1.353499174118042
0.947437584400177 0.4971947968006134 -1.1736445426940918
0.947437584400177 0.4971947968006134 -0.9937898516654968
0.9474375247955322 0.4971947968006134 -0.8139352202415466
0.9474375247955322 0.4971947968006134 -0.6340805888175964
0.9474375247955322 0.4971947968006134 -0.45422598719596863
0.9474375247955322 0.4971947968006134 -0.27437135577201843
0.9474375247955322 0.4971947968006134 -0.09451671689748764
0.9474375247955322 0.4971947968006134 0.08533791452646255
0.9474375247955322 0.4971947968006134 0.26519253849983215
0.9474374651908875 0.4971947968006134 0.44504716992378235
0.9474374651908875 0.4971947968006134 0.6249018311500549
0.9474374651908875 0.4971947968006134 0.8047564625740051
0.9474374651908875 0.4971947968006134 0.9846110939979553
0.9474374651908875 0.4971947968006134 1.1644656658172607
0.9474374651908875 0.4971947968006134 1.344320297241211
0.8111947178840637 0.673206090927124 -1.353499174118042
0.811194658279419 0.673206090927124 -1.1736445426940918
0.811194658279419 0.673206090927124 -0.9937898516654968
0.811194658279419 0.673206090927124 -0.8139352202415466
0.811194658279419 0.673206090927124 -0.6340805888175964
0.811194658279419 0.673206090927124 -0.45422598719596863
0.811194658279419 0.673206090927124 -0.27437135577201843
0.811194658279419 0.673206090927124 -0.09451671689748764
0.811194658279419 0.673206090927124 0.08533791452646255
0.8111945986747742 0.673206090927124 0.26519253849983215
0.8111945986747742 0.673206090927124 0.44504716992378235
0.8111945986747742 0.673206090927124 0.6249018311500549
0.8111945986747742 0.673206090927124 0.8047564625740051
0.8111945986747742 0.673206090927124 0.9846110939979553
0.8111945986747742 0.673206090927124 1.1644656658172607
0.8111945986747742 0.673206090927124 1.344320297241211
0.6423099040985107 0.8181889057159424 -1.353499174118042
0.6423099040985107 0.8181889057159424 -1.1736445426940918
0.6423099040985107 0.8181889057159424 -0.9937899112701416
0.6423099040985107 0.8181889057159424 -0.8139352798461914
0.642309844493866 0.8181889057159424 -0.6340806484222412
0.642309844493866 0.8181889057159424 -0.45422598719596863
0.642309844493866 0.8181889057159424 -0.27437135577201843
0.642309844493866 0.8181889057159424 -0.09451672434806824
0.642309844493866 0.8181889057159424 0.08533790707588196
0.642309844493866 0.8181889057159424 0.26519253849983215
0.642309844493866 0.8181889057159424 0.44504716992378235
0.6423097848892212 0.8181889057159424 0.6249017715454102
0.6423097848892212 0.8181889057159424 0.8047564029693604
0.6423097848892212 0.8181889057159424 0.9846110343933105
0.6423097848892212 0.8181889057159424 1.1644656658172607
0.6423097848892212 0.8181889057159424 1.344320297241211
0.44769737124443054 0.9262077212333679 -1.353499174118042
0.44769734144210815 0.9262077212333679 -1.1736445426940918
0.44769734144210815 0.9262077212333679 -0.9937899112701416
0.44769734144210815 0.9262077212333679 -0.8139352798461914
0.44769731163978577 0.9262077212333679 -0.6340806484222412
0.44769731163978577 0.9262077212333679 -0.45422598719596863
0.44769731163978577 0.9262077212333679 -0.27437135577201843
0.44769731163978577 0.9262077212333679 -0.09451673179864883
0.4476972818374634 0.9262077212333679 0.08533789962530136
0.4476972818374634 0.9262077212333679 0.26519253849983215
0.4476972818374634 0.9262077212333679 0.44504716992378235
0.4476972818374634 0.9262077212333679 0.6249017715454102
0.447697252035141 0.9262077212333679 0.8047564029693604
0.447697252035141 0.9262077212333679 0.9846110343933105
0.447697252035141 0.9262077212333679 1.1644656658172607
0.447697252035141 0.9262077212333679 1.344320297241211
0.23532453179359436 0.9928401112556458 -1.353499174118042
0.23532451689243317 0.9928401112556458 -1.1736445426940918
0.23532451689243317 0.9928401112556458 -0.9937899112701416
0.23532450199127197 0.9928401112556458 -0.8139352798461914
0.23532450199127197 0.9928401112556458 -0.6340806484222412
0.23532448709011078 0.9928401112556458 -0.454226016998291
0.23532447218894958 0.9928401112556458 -0.2743713855743408
0.23532447218894958 0.9928401112556458 -0.09451674669981003
0.2353244572877884 0.9928401112556458 0.08533788472414017
0.2353244572877884 0.9928401112556458 0.26519250869750977
0.2353244423866272 0.9928401112556458 0.44504714012145996
0.2353244423866272 0.9928401112556458 0.6249017715454102
0.235324427485466 0.9928401112556458 0.8047564029693604
0.235324427485466 0.9928401112556458 0.9846110343933105
0.2353244125843048 0.9928401112556458 1.1644656658172607
0.2353244125843048 0.9928401112556458 1.344320297241211
0.013885974884033203 1.0153582096099854 -1.353499174118042
0.013885967433452606 1.0153582096099854 -1.1736445426940918
0.013885959051549435 1.0153582096099854 -0.9937899112701416
0.013885951600968838 1.0153582096099854 -0.8139352798461914
0.013885943219065666 1.0153582096099854 -0.6340806484222412
0.01388593576848507 1.0153582096099854 -0.454226016998291
0.013885927386581898 1.0153582096099854 -0.2743713855743408
0.0138859199360013 1.0153582096099854 -0.09451675415039062
0.01388591155409813 1.0153582096099854 0.08533787727355957
0.013885904103517532 1.0153582096099854 0.26519250869750977
0.013885896652936935 1.0153582096099854 0.44504714012145996
0.013885888271033764 1.0153582096099854 0.6249017715454102
0.013885880820453167 1.0153582096099854 0.8047564029693604
0.013885872438549995 1.0153582096099854 0.9846110343933105
0.013885864987969398 1.0153582096099854 1.1644656658172607
0.013885856606066227 1.0153582096099854 1.344320297241211
