ply
format ascii 1.0
element vertex 512
property float x
property float y
property float z
end_header
0.0035839080810546875 -1.0024977922439575 0.982690691947937
0.003155170241370797 -1.002207636833191 0.8495579361915588
0.002726432401686907 -1.0019173622131348 0.7164251804351807
0.0022976945620030165 -1.0016270875930786 0.5832924842834473
0.001868956838734448 -1.001336932182312 0.4501597583293915
0.0014402189990505576 -1.0010466575622559 0.3170270025730133
0.0010114811593666673 -1.0007565021514893 0.1838942915201187
0.0005827433778904378 -1.000466227531433 0.05076155439019203
0.0001540055382065475 -1.0001760721206665 -0.08237117528915405
-0.0002747322723735124 -0.9998857975006104 -0.21550390124320984
-0.0007034700829535723 -0.999595582485199 -0.3486366271972656
-0.0011322079226374626 -0.9993053674697876 -0.4817693531513214
-0.001560945762321353 -0.9990151524543762 -0.6149020791053772
-0.0019896836020052433 -0.9987249374389648 -0.7480348348617554
-0.0024184214416891336 -0.9984347224235535 -0.8811675310134888
-0.002847159281373024 -0.9981445074081421 -1.0143003463745117
-0.1978088766336441 -0.9820194840431213 0.9833838939666748
-0.1982376128435135 -0.98172926902771 0.8502511382102966
-0.19866636395454407 -0.9814390540122986 0.7171183824539185
-0.19909510016441345 -0.9811488389968872 0.5839856863021851
-0.19952383637428284 -0.9808586239814758 0.4508529603481293
-0.19995257258415222 -0.9805684089660645 0.3177202045917511
-0.2003813087940216 -0.9802781939506531 0.1845874935388565
-0.200810045003891 -0.9799879789352417 0.051454756408929825
-0.20123878121376038 -0.9796977639198303 -0.08167797327041626
-0.20166751742362976 -0.979407548904419 -0.21481069922447205
-0.20209625363349915 -0.9791173338890076 -0.34794342517852783
-0.20252500474452972 -0.9788271188735962 -0.4810761511325836
-0.2029537409543991 -0.97853684425354 -0.6142088770866394
-0.2033824771642685 -0.9782466292381287 -0.7473416328430176
-0.20381121337413788 -0.9779564142227173 -0.880474328994751
-0.20423994958400726 -0.9776661992073059 -1.013607144355774
-0.3909566402435303 -0.9214202165603638 0.984138011932373
-0.39138537645339966 -0.9211300015449524 0.8510052561759949
-0.39181411266326904 -0.920839786529541 0.7178725004196167
-0.3922428488731384 -0.9205495119094849 0.5847398042678833
-0.3926715850830078 -0.9202592968940735 0.4516070485115051
-0.3931003212928772 -0.9199690818786621 0.31847432255744934
-0.3935290575027466 -0.9196788668632507 0.18534159660339355
-0.39395779371261597 -0.9193886518478394 0.05220887064933777
-0.39438652992248535 -0.919098436832428 -0.08092386275529861
-0.39481526613235474 -0.9188082218170166 -0.214056596159935
-0.3952440023422241 -0.9185180068016052 -0.347189337015152
-0.3956727385520935 -0.9182277917861938 -0.48032206296920776
-0.3961014747619629 -0.9179375767707825 -0.6134547591209412
-0.3965302109718323 -0.9176473617553711 -0.7465875148773193
-0.39695894718170166 -0.9173571467399597 -0.8797202706336975
-0.39738768339157104 -0.9170668721199036 -1.0128530263900757
-0.5679518580436707 -0.8231807947158813 0.9849221110343933
-0.56838059425354 -0.82289057970047 0.8517894148826599
-0.5688093304634094 -0.8226003646850586 0.7186566591262817
-0.5692380666732788 -0.8223101496696472 0.5855239629745483
-0.5696668028831482 -0.8220199346542358 0.45239120721817017
-0.5700955390930176 -0.8217297196388245 0.3192584812641144
-0.570524275302887 -0.8214395046234131 0.1861257404088974
-0.5709530115127563 -0.8211492896080017 0.052993014454841614
-0.5713817477226257 -0.8208590745925903 -0.08013971149921417
-0.5718104839324951 -0.820568859577179 -0.21327245235443115
-0.5722392201423645 -0.8202785849571228 -0.34640517830848694
-0.5726679563522339 -0.8199883699417114 -0.4795379042625427
-0.5730966925621033 -0.8196981549263 -0.6126706600189209
-0.5735254287719727 -0.8194079399108887 -0.7458033561706543
-0.573954164981842 -0.8191177248954773 -0.8789361119270325
-0.5743829011917114 -0.8188275098800659 -1.0120688676834106
-0.721548318862915 -0.6913232803344727 0.9857041835784912
-0.7219770550727844 -0.6910330653190613 0.8525714874267578
-0.7224057912826538 -0.6907428503036499 0.7194387316703796
-0.7228345274925232 -0.6904526352882385 0.5863060355186462
-0.7232632637023926 -0.6901624202728271 0.45317327976226807
-0.723691999912262 -0.689872145652771 0.3200405538082123
-0.7241207361221313 -0.6895819306373596 0.1869078278541565
-0.7245494723320007 -0.6892917156219482 0.05377509444952011
-0.7249782085418701 -0.6890015006065369 -0.07935763895511627
-0.7254069447517395 -0.6887112855911255 -0.21249036490917206
-0.7258356809616089 -0.6884210705757141 -0.34562310576438904
-0.7262644171714783 -0.6881308555603027 -0.4787558317184448
-0.7266931533813477 -0.6878406405448914 -0.611888587474823
-0.727121889591217 -0.68755042552948 -0.7450212836265564
-0.7275506258010864 -0.6872602105140686 -0.8781540393829346
-0.7279793620109558 -0.6869699954986572 -1.011286735534668
-0.8454577922821045 -0.5312458276748657 0.9864522218704224
-0.8458865284919739 -0.5309556126594543 0.8533194661140442
-0.8463152647018433 -0.530665397644043 0.720186710357666
-0.8467440009117126 -0.5303751826286316 0.5870540142059326
-0.847172737121582 -0.5300849676132202 0.45392128825187683
-0.8476014733314514 -0.5297947525978088 0.32078856229782104
-0.8480302095413208 -0.5295045375823975 0.18765582144260406
-0.8484589457511902 -0.5292143225669861 0.05452308803796768
-0.8488876819610596 -0.5289241075515747 -0.0786096453666687
-0.849316418170929 -0.5286338925361633 -0.2117423713207245
-0.8497451543807983 -0.528343677520752 -0.3448750972747803
-0.8501738905906677 -0.5280534625053406 -0.47800782322883606
-0.8506026268005371 -0.5277631878852844 -0.6111405491828918
-0.8510313630104065 -0.527472972869873 -0.74427330493927
-0.8514600992202759 -0.5271827578544617 -0.8774060010910034
-0.8518888354301453 -0.5268925428390503 -1.0105388164520264
-0.9346073865890503 -0.3495021462440491 0.9871354699134827
-0.9350361227989197 -0.3492119312286377 0.8540027737617493
-0.9354648590087891 -0.34892168641090393 0.7208700180053711
-0.9358935952186584 -0.34863147139549255 0.5877373218536377
-0.9363223314285278 -0.3483412563800812 0.4546045660972595
-0.9367510676383972 -0.3480510413646698 0.32147184014320374
-0.9371798038482666 -0.3477608263492584 0.18833909928798676
-0.937608540058136 -0.34747061133384705 0.05520636960864067
-0.9380372762680054 -0.3471803665161133 -0.07792636007070541
-0.9384660124778748 -0.3468901515007019 -0.2110590934753418
-0.9388947486877441 -0.3465999364852905 -0.3441918194293976
-0.9393234848976135 -0.34630972146987915 -0.47732454538345337
-0.9397522211074829 -0.3460195064544678 -0.6104573011398315
-0.9401809573173523 -0.3457292914390564 -0.7435899972915649
-0.9406096935272217 -0.34543904662132263 -0.8767227530479431
-0.9410384297370911 -0.34514883160591125 -1.0098555088043213
-0.985347330570221 -0.1535327434539795 0.987726092338562
-0.9857760667800903 -0.15324251353740692 0.8545933365821838
-0.9862048029899597 -0.15295229852199554 0.7214606404304504
-0.9866335391998291 -0.15266208350658417 0.5883278846740723
-0.9870622754096985 -0.1523718535900116 0.4551951587200165
-0.9874910116195679 -0.15208163857460022 0.3220624327659607
-0.9879197478294373 -0.15179142355918884 0.1889297068119049
-0.9883484840393066 -0.15150119364261627 0.055796973407268524
-0.988777220249176 -0.1512109786272049 -0.07733575999736786
-0.9892059564590454 -0.15092076361179352 -0.21046848595142365
-0.9896346926689148 -0.15063053369522095 -0.3436012268066406
-0.9900634288787842 -0.15034031867980957 -0.4767339527606964
-0.9904921650886536 -0.1500501036643982 -0.6098666787147522
-0.990920901298523 -0.14975987374782562 -0.7429994344711304
-0.9913496375083923 -0.14946965873241425 -0.8761321306228638
-0.9917783737182617 -0.14917944371700287 -1.0092648267745972
-0.9956002831459045 0.048639338463544846 0.9881998300552368
-0.9960290193557739 0.04892956092953682 0.8550670742988586
-0.9964577555656433 0.049219779670238495 0.7219343781471252
-0.9968865513801575 0.04950999841094017 0.5888016223907471
-0.9973152875900269 0.049800217151641846 0.4556688964366913
-0.9977440237998962 0.05009043961763382 0.3225361704826355
-0.9981727600097656 0.050380658358335495 0.1894034445285797
-0.998601496219635 0.05067087709903717 0.05627071112394333
-0.9990302324295044 0.050961099565029144 -0.07686202228069305
-0.9994589686393738 0.05125131830573082 -0.20999474823474884
-0.9998877048492432 0.051541537046432495 -0.3431274890899658
-1.0003163814544678 0.05183175951242447 -0.4762602150440216
-1.000745177268982 0.052121978253126144 -0.6093929409980774
-1.0011738538742065 0.05241219699382782 -0.7425256967544556
-1.0016026496887207 0.052702419459819794 -0.875658392906189
-1.0020313262939453 0.05299263820052147 -1.0087910890579224
-0.9649465680122375 0.2487371414899826 0.9885373115539551
-0.9653753042221069 0.24902735650539398 0.8554045557975769
-0.9658040404319763 0.24931758642196655 0.7222718596458435
-0.9662327766418457 0.24960780143737793 0.5891391038894653
-0.9666615128517151 0.2498980164527893 0.45600637793540955
-0.9670902490615845 0.2501882314682007 0.32287365198135376
-0.9675189852714539 0.25047847628593445 0.18974092602729797
-0.9679477214813232 0.2507686913013458 0.05660819262266159
-0.9683764576911926 0.2510589063167572 -0.0765245333313942
-0.968805193901062 0.2513491213321686 -0.20965726673603058
-0.9692339301109314 0.25163933634757996 -0.34279000759124756
-0.9696626663208008 0.25192955136299133 -0.47592273354530334
-0.9700914025306702 0.2522197961807251 -0.6090554594993591
-0.9705201387405396 0.2525100111961365 -0.7421882152557373
-0.9709488749504089 0.25280022621154785 -0.8753209114074707
-0.9713776111602783 0.25309044122695923 -1.008453607559204
-0.894641101360321 0.438568651676178 0.9887247085571289
-0.8950698375701904 0.43885886669158936 0.8555920124053955
-0.8954985737800598 0.43914908170700073 0.7224592566490173
-0.8959273099899292 0.4394392967224121 0.5893265008926392
-0.8963560461997986 0.4397295415401459 0.45619380474090576
-0.896784782409668 0.44001975655555725 0.32306107878685
-0.8972135186195374 0.44030997157096863 0.189928337931633
-0.8976422548294067 0.44060018658638 0.05679560452699661
-0.8980709910392761 0.4408904016017914 -0.07633712887763977
-0.8984997272491455 0.44118061661720276 -0.20946985483169556
-0.8989284634590149 0.4414708614349365 -0.34260258078575134
-0.8993571996688843 0.4417610764503479 -0.47573530673980713
-0.8997859358787537 0.4420512914657593 -0.6088680624961853
-0.900214672088623 0.44234150648117065 -0.7420007586479187
-0.9006434082984924 0.44263172149658203 -0.8751335144042969
-0.9010721445083618 0.4429219365119934 -1.0082662105560303
-0.7875621318817139 0.6103621125221252 0.988754391670227
-0.7879908680915833 0.6106523275375366 0.8556216359138489
-0.7884196043014526 0.610942542552948 0.7224889397621155
-0.7888484001159668 0.6112328171730042 0.5893561840057373
-0.7892771363258362 0.6115230321884155 0.4562234580516815
-0.7897058725357056 0.6118132472038269 0.32309073209762573
-0.790134608745575 0.6121034622192383 0.18995799124240875
-0.7905633449554443 0.6123936772346497 0.056825265288352966
-0.7909920811653137 0.612683892250061 -0.07630746066570282
-0.7914208173751831 0.6129741072654724 -0.2094402015209198
-0.7918495535850525 0.6132643222808838 -0.3425729274749756
-0.7922782897949219 0.6135545372962952 -0.47570565342903137
-0.7927070260047913 0.6138447523117065 -0.6088383793830872
-0.7931357622146606 0.6141349673271179 -0.7419711351394653
-0.79356449842453 0.6144251823425293 -0.8751038312911987
-0.7939932346343994 0.6147154569625854 -1.0082365274429321
-0.6480936408042908 0.757084310054779 0.9886251091957092
-0.6485223770141602 0.7573745846748352 0.855492353439331
-0.6489511132240295 0.7576647996902466 0.7223595976829529
-0.6493798494338989 0.757955014705658 0.5892269015312195
-0.6498085856437683 0.7582452297210693 0.4560941457748413
-0.6502373218536377 0.7585354447364807 0.3229614198207855
-0.6506660580635071 0.7588256597518921 0.18982869386672974
-0.6510947942733765 0.7591158747673035 0.05669596791267395
-0.6515235304832458 0.7594060897827148 -0.07643676549196243
-0.6519522666931152 0.7596963047981262 -0.20956949889659882
-0.6523810029029846 0.7599865198135376 -0.3427022099494934
-0.652809739112854 0.760276734828949 -0.4758349657058716
-0.6532384753227234 0.7605669498443604 -0.608967661857605
-0.6536672115325928 0.7608572244644165 -0.7421004176139832
-0.6540959477424622 0.7611474394798279 -0.8752331733703613
-0.6545246839523315 0.7614376544952393 -1.0083658695220947
-0.48194533586502075 0.8727284669876099 0.9883421063423157
-0.48237407207489014 0.8730186820030212 0.8552094101905823
-0.4828028082847595 0.8733088970184326 0.7220766544342041
-0.4832315444946289 0.873599112033844 0.5889438986778259
-0.4836602807044983 0.8738893270492554 0.45581120252609253
-0.4840890169143677 0.8741795420646667 0.32267847657203674
-0.48451775312423706 0.8744697570800781 0.18954573571681976
-0.48494648933410645 0.8747599720954895 0.05641300603747368
-0.48537522554397583 0.8750501871109009 -0.0767197236418724
-0.4858039617538452 0.875340461730957 -0.2098524570465088
-0.4862326979637146 0.8756306767463684 -0.3429851830005646
-0.486661434173584 0.8759208917617798 -0.47611790895462036
-0.48709017038345337 0.8762111067771912 -0.6092506647109985
-0.48751890659332275 0.8765013217926025 -0.7423833608627319
-0.48794764280319214 0.8767915368080139 -0.8755161166191101
-0.4883764088153839 0.8770817518234253 -1.0086488723754883
-0.29591941833496094 0.9525600075721741 0.9879170656204224
-0.2963481545448303 0.9528502225875854 0.854784369468689
-0.2967768907546997 0.9531404376029968 0.7216516137123108
-0.2972056269645691 0.9534306526184082 0.5885188579559326
-0.2976343631744385 0.9537208676338196 0.4553861618041992
-0.29806309938430786 0.954011082649231 0.32225340604782104
-0.29849183559417725 0.9543012976646423 0.18912069499492645
-0.29892057180404663 0.9545915126800537 0.05598795786499977
-0.299349308013916 0.9548817276954651 -0.07714477181434631
-0.2997780442237854 0.9551719427108765 -0.2102774977684021
-0.3002067804336548 0.9554622173309326 -0.3434102237224579
-0.30063551664352417 0.955752432346344 -0.47654297947883606
-0.30106425285339355 0.9560426473617554 -0.6096757054328918
-0.30149298906326294 0.9563328623771667 -0.7428084015846252
-0.3019217252731323 0.9566230773925781 -0.8759411573410034
-0.3023504912853241 0.9569132924079895 -1.0090738534927368
-0.0976317897439003 0.9933106303215027 0.9873673319816589
-0.09806053340435028 0.9936008453369141 0.8542346358299255
-0.09848926961421967 0.9938910603523254 0.7211018800735474
-0.09891800582408905 0.9941812753677368 0.5879691243171692
-0.09934674203395844 0.994471549987793 0.4548364281654358
-0.09977547824382782 0.9947617650032043 0.32170370221138
-0.1002042219042778 0.9950519800186157 0.18857096135616302
-0.10063295811414719 0.9953421950340271 0.05543823167681694
-0.10106169432401657 0.9956324100494385 -0.07769449800252914
-0.10149043053388596 0.9959226250648499 -0.21082723140716553
-0.10191916674375534 0.9962128400802612 -0.3439599573612213
-0.10234791040420532 0.9965030550956726 -0.4770926833152771
-0.10277664661407471 0.996793270111084 -0.6102254390716553
-0.10320538282394409 0.9970834851264954 -0.7433581352233887
-0.10363411903381348 0.9973737001419067 -0.8764908909797668
-0.10406286269426346 0.9976639151573181 -1.009623646736145
0.10479960590600967 0.9933120608329773 0.9867154359817505
0.10437086969614029 0.9936022758483887 0.8535827398300171
0.1039421334862709 0.9938924908638 0.7204499840736389
0.10351339727640152 0.9941827058792114 0.5873172283172607
0.10308465361595154 0.9944729208946228 0.45418453216552734
0.10265591740608215 0.9947631359100342 0.32105177640914917
0.10222718119621277 0.9950534105300903 0.18791905045509338
0.10179844498634338 0.9953436255455017 0.054786328226327896
0.101369708776474 0.9956338405609131 -0.07834640145301819
0.10094096511602402 0.9959240555763245 -0.21147912740707397
0.10051222890615463 0.9962142705917358 -0.34461185336112976
0.10008349269628525 0.9965044856071472 -0.47774460911750793
0.09965475648641586 0.9967947006225586 -0.6108773350715637
0.09922602027654648 0.99708491563797 -0.7440100312232971
0.0987972766160965 0.9973751306533813 -0.8771427869796753
0.09836854040622711 0.9976653456687927 -1.0102754831314087
0.3030872344970703 0.9525641798973083 0.9859880805015564
0.3026584982872009 0.9528543949127197 0.8528553247451782
0.30222976207733154 0.9531446099281311 0.7197225689888
0.30180102586746216 0.9534348845481873 0.5865898728370667
0.3013722896575928 0.9537250995635986 0.4534571170806885
0.300943523645401 0.95401531457901 0.3203243911266327
0.3005147874355316 0.9543055295944214 0.1871916651725769
0.30008605122566223 0.9545957446098328 0.05405893921852112
0.29965731501579285 0.9548859596252441 -0.07907379418611526
0.29922857880592346 0.9551761746406555 -0.21220652759075165
0.2987998425960541 0.9554663896560669 -0.34533923864364624
0.2983711063861847 0.9557566046714783 -0.4784719944000244
0.2979423701763153 0.9560468196868896 -0.6116046905517578
0.2975136339664459 0.956337034702301 -0.744737446308136
0.29708489775657654 0.9566272497177124 -0.8778702020645142
0.29665616154670715 0.9569175243377686 -1.0110028982162476
0.4891131520271301 0.8727352619171143 0.9852149486541748
0.48868441581726074 0.8730254769325256 0.8520822525024414
0.48825567960739136 0.873315691947937 0.7189494967460632
0.487826943397522 0.8736059069633484 0.5858167409896851
0.4873981773853302 0.8738961219787598 0.45268404483795166
0.4869694411754608 0.8741863965988159 0.3195513188838959
0.48654070496559143 0.8744766116142273 0.1864185780286789
0.48611196875572205 0.8747668266296387 0.05328584462404251
0.48568323254585266 0.87505704164505 -0.07984688878059387
0.4852544963359833 0.8753472566604614 -0.21297961473464966
0.4848257601261139 0.8756374716758728 -0.34611234068870544
0.4843970239162445 0.8759276866912842 -0.47924506664276123
0.4839682877063751 0.8762179017066956 -0.6123778223991394
0.48353955149650574 0.8765081167221069 -0.7455105185508728
0.48311081528663635 0.8767983317375183 -0.878643274307251
0.48268207907676697 0.8770885467529297 -1.0117759704589844
0.6552614569664001 0.7570934891700745 0.984427809715271
0.6548327207565308 0.7573837041854858 0.8512950539588928
0.6544039845466614 0.7576739192008972 0.7181623578071594
0.653975248336792 0.7579641342163086 0.5850296020507812
0.6535465121269226 0.75825434923172 0.45189687609672546
0.6531177759170532 0.7585445642471313 0.3187641501426697
0.6526889801025391 0.7588347792625427 0.1856314241886139
0.6522602438926697 0.7591250538825989 0.05249869078397751
0.6518315076828003 0.7594152688980103 -0.08063403517007828
0.6514027714729309 0.7597054839134216 -0.21376676857471466
0.6509740352630615 0.759995698928833 -0.34689950942993164
0.6505452990531921 0.7602859139442444 -0.4800322353839874
0.6501165628433228 0.7605761289596558 -0.6131649613380432
0.6496878266334534 0.7608663439750671 -0.7462977170944214
0.649259090423584 0.7611565589904785 -0.8794304132461548
0.6488303542137146 0.7614467740058899 -1.0125631093978882
0.7947299480438232 0.6103732585906982 0.9836588501930237
0.7943012118339539 0.6106634736061096 0.8505260944366455
0.7938724756240845 0.610953688621521 0.7173933386802673
0.7934437394142151 0.6112439036369324 0.5842606425285339
0.7930150032043457 0.6115341186523438 0.45112791657447815
0.7925862669944763 0.6118243336677551 0.3179951608181
0.7921575307846069 0.6121145486831665 0.1848624348640442
0.7917287945747375 0.6124047636985779 0.0517297089099884
0.7913000583648682 0.6126949787139893 -0.08140301704406738
0.7908713221549988 0.6129851937294006 -0.21453575789928436
0.7904425859451294 0.613275408744812 -0.34766846895217896
0.79001384973526 0.6135656833648682 -0.48080122470855713
0.7895851135253906 0.6138558983802795 -0.6139339208602905
0.7891563773155212 0.6141461133956909 -0.7470666766166687
0.7887276411056519 0.6144363284111023 -0.8801994323730469
0.7882989048957825 0.6147265434265137 -1.0133321285247803
0.9018089175224304 0.438581258058548 0.9829394817352295
0.901380181312561 0.43887147307395935 0.8498067855834961
0.9009514451026917 0.4391616880893707 0.7166740298271179
0.9005227088928223 0.4394519329071045 0.5835412740707397
0.9000939726829529 0.43974214792251587 0.45040857791900635
0.8996652364730835 0.44003236293792725 0.31727585196495056
0.8992365002632141 0.4403225779533386 0.18414311110973358
0.8988077640533447 0.44061279296875 0.0510103814303875
0.8983789682388306 0.4409030079841614 -0.08212234824895859
0.8979502320289612 0.44119325280189514 -0.21525508165359497
0.8975214958190918 0.4414834678173065 -0.34838780760765076
0.8970927596092224 0.4417736828327179 -0.48152053356170654
0.896664023399353 0.4420638978481293 -0.6146532893180847
0.8962352871894836 0.44235411286354065 -0.7477859854698181
0.8958065509796143 0.442644327878952 -0.8809187412261963
0.8953778147697449 0.4429345726966858 -1.0140514373779297
0.9721143841743469 0.2487507462501526 0.982299268245697
0.9716856479644775 0.24904096126556396 0.8491665124893188
0.9712569117546082 0.24933117628097534 0.7160338163375854
0.9708281755447388 0.2496214061975479 0.5829010605812073
0.9703994393348694 0.2499116212129593 0.4497683346271515
0.969970703125 0.25020185112953186 0.3166356086730957
0.9695419669151306 0.25049206614494324 0.18350288271903992
0.9691132307052612 0.2507822811603546 0.05037015303969383
0.9686844944953918 0.251072496175766 -0.08276257663965225
0.9682557582855225 0.25136271119117737 -0.21589531004428864
0.9678270220756531 0.25165295600891113 -0.3490280508995056
0.9673982858657837 0.2519431710243225 -0.4821607768535614
0.9669695496559143 0.2522333860397339 -0.6152935028076172
0.9665408134460449 0.25252360105514526 -0.7484262585639954
0.9661120772361755 0.25281381607055664 -0.8815589547157288
0.9656833410263062 0.253104031085968 -1.014691710472107
1.0027681589126587 0.04865336790680885 0.9817643761634827
1.0023393630981445 0.04894358664751053 0.8486316204071045
1.00191068649292 0.0492338091135025 0.7154988646507263
1.0014818906784058 0.04952402785420418 0.5823661684989929
1.0010532140731812 0.04981424659490585 0.44923344254493713
1.000624418258667 0.05010446906089783 0.31610068678855896
1.0001957416534424 0.0503946878015995 0.18296797573566437
0.9997669458389282 0.05068490654230118 0.049835238605737686
0.9993382096290588 0.05097512900829315 -0.0832974910736084
0.9989094734191895 0.05126534774899483 -0.21643021702766418
0.9984807372093201 0.0515555664896965 -0.34956294298171997
0.9980520009994507 0.05184578895568848 -0.48269566893577576
0.9976232647895813 0.05213600769639015 -0.6158283948898315
0.9971945285797119 0.05242622643709183 -0.7489611506462097
0.9967657923698425 0.0527164489030838 -0.8820938467979431
0.9963370561599731 0.05300666764378548 -1.0152266025543213
0.9925151467323303 -0.15351885557174683 0.9813566207885742
0.9920864105224609 -0.15322864055633545 0.8482239246368408
0.9916576743125916 -0.15293841063976288 0.7150911688804626
0.9912289381027222 -0.1526481956243515 0.5819584727287292
0.9908002018928528 -0.15235798060894012 0.4488257169723511
0.9903714656829834 -0.15206775069236755 0.3156929910182953
0.989942729473114 -0.15177753567695618 0.1825602650642395
0.9895139932632446 -0.1514873206615448 0.04942753538489342
0.9890852570533752 -0.15119709074497223 -0.08370519429445267
0.9886565208435059 -0.15090687572956085 -0.21683792769908905
0.9882277846336365 -0.15061666071414948 -0.34997066855430603
0.9877990484237671 -0.1503264307975769 -0.4831033945083618
0.9873703122138977 -0.15003621578216553 -0.6162360906600952
0.9869415760040283 -0.14974600076675415 -0.7493688464164734
0.9865128397941589 -0.14945577085018158 -0.8825016021728516
0.9860841035842896 -0.1491655558347702 -1.015634298324585
0.9417752027511597 -0.3494889736175537 0.9810928702354431
0.9413464665412903 -0.34919875860214233 0.8479601144790649
0.9409177303314209 -0.34890851378440857 0.7148274183273315
0.9404889941215515 -0.3486182987689972 0.5816946625709534
0.9400602579116821 -0.3483280837535858 0.4485619366168976
0.9396315217018127 -0.34803786873817444 0.3154292106628418
0.9392027854919434 -0.34774765372276306 0.18229646980762482
0.938774049282074 -0.3474574387073517 0.049163736402988434
0.9383453130722046 -0.3471671938896179 -0.08396898955106735
0.9379165768623352 -0.34687697887420654 -0.21710172295570374
0.9374878406524658 -0.34658676385879517 -0.3502344489097595
0.9370591044425964 -0.3462965488433838 -0.4833671748638153
0.936630368232727 -0.3460063338279724 -0.6164999008178711
0.9362016320228577 -0.34571611881256104 -0.7496326565742493
0.9357728958129883 -0.34542587399482727 -0.8827653527259827
0.9353441596031189 -0.3451356589794159 -1.0158981084823608
0.8526256084442139 -0.5312339067459106 0.9809837341308594
0.8521968722343445 -0.5309436917304993 0.847851037979126
0.8517681360244751 -0.5306534767150879 0.7147182822227478
0.8513393998146057 -0.5303632616996765 0.5815855860710144
0.8509106636047363 -0.5300730466842651 0.44845283031463623
0.8504819273948669 -0.5297828316688538 0.31532010436058044
0.8500531911849976 -0.5294926166534424 0.18218737840652466
0.8496244549751282 -0.529202401638031 0.04905464127659798
0.8491957187652588 -0.5289121866226196 -0.08407808840274811
0.8487669825553894 -0.5286219716072083 -0.2172108143568039
0.84833824634552 -0.5283317565917969 -0.3503435552120209
0.8479094505310059 -0.5280415415763855 -0.48347628116607666
0.8474807143211365 -0.5277512669563293 -0.6166090369224548
0.8470519781112671 -0.527461051940918 -0.7497417330741882
0.8466232419013977 -0.5271708369255066 -0.8828744888305664
0.8461945056915283 -0.5268806219100952 -1.0160071849822998
0.7287161350250244 -0.6913130879402161 0.9810338020324707
0.728287398815155 -0.6910228729248047 0.8479011058807373
0.7278586626052856 -0.6907326579093933 0.7147683501243591
0.7274299263954163 -0.6904424428939819 0.5816356539726257
0.7270011901855469 -0.6901522278785706 0.44850289821624756
0.7265724539756775 -0.6898620128631592 0.3153701722621918
0.7261437177658081 -0.6895717978477478 0.182237446308136
0.7257149815559387 -0.6892815828323364 0.0491047166287899
0.7252862453460693 -0.6889913082122803 -0.08402801305055618
0.7248575091362 -0.6887010931968689 -0.21716074645519257
0.7244287729263306 -0.6884108781814575 -0.35029348731040955
0.7240000367164612 -0.6881206631660461 -0.48342621326446533
0.723571240901947 -0.6878304481506348 -0.6165589094161987
0.7231425046920776 -0.6875402331352234 -0.7496916651725769
0.7227137684822083 -0.687250018119812 -0.8828244209289551
0.7222850322723389 -0.6869598031044006 -1.0159571170806885
0.57511967420578 -0.8231728076934814 0.9812410473823547
0.5746909379959106 -0.8228825926780701 0.8481082916259766
0.5742622017860413 -0.8225923180580139 0.7149755358695984
0.5738334655761719 -0.8223021030426025 0.581842839717865
0.5734047293663025 -0.8220118880271912 0.4487101137638092
0.5729759931564331 -0.8217216730117798 0.31557735800743103
0.5725472569465637 -0.8214314579963684 0.18244464695453644
0.5721184611320496 -0.821141242980957 0.049311909824609756
0.5716897249221802 -0.8208510279655457 -0.08382081985473633
0.5712609887123108 -0.8205608129501343 -0.21695354580879211
0.5708322525024414 -0.8202705979347229 -0.3500862717628479
0.570403516292572 -0.8199803829193115 -0.4832189977169037
0.5699747800827026 -0.8196901679039001 -0.6163517236709595
0.5695460438728333 -0.8193999528884888 -0.7494844794273376
0.5691173076629639 -0.8191096782684326 -0.882617175579071
0.5686885714530945 -0.8188194632530212 -1.0157499313354492
0.39812445640563965 -0.9214146733283997 0.981596827507019
0.39769572019577026 -0.9211244583129883 0.8484641313552856
0.3972669541835785 -0.9208342432975769 0.7153313755989075
0.3968382179737091 -0.9205440282821655 0.5821986794471741
0.3964094817638397 -0.9202537536621094 0.4490659236907959
0.39598074555397034 -0.919963538646698 0.3159331977367401
0.39555200934410095 -0.9196733236312866 0.18280047178268433
0.39512327313423157 -0.9193831086158752 0.04966774210333824
0.3946945369243622 -0.9190928936004639 -0.08346498757600784
0.3942658007144928 -0.9188026785850525 -0.21659772098064423
0.3938370645046234 -0.9185124635696411 -0.3497304618358612
0.39340832829475403 -0.9182222485542297 -0.482863187789917
0.39297959208488464 -0.9179320335388184 -0.6159958839416504
0.39255085587501526 -0.917641818523407 -0.7491286396980286
0.3921221196651459 -0.9173516035079956 -0.8822613954544067
0.3916933834552765 -0.9170613884925842 -1.0153940916061401
0.20497669279575348 -0.9820166826248169 0.9820867776870728
0.2045479565858841 -0.9817264676094055 0.8489540219306946
0.2041192203760147 -0.9814362525939941 0.7158212661743164
0.20369048416614532 -0.9811460375785828 0.582688570022583
0.20326174795627594 -0.9808558225631714 0.4495558440685272
0.20283301174640656 -0.98056560754776 0.31642308831214905
0.20240427553653717 -0.9802753925323486 0.18329037725925446
0.20197553932666779 -0.9799851179122925 0.050157640129327774
0.2015468031167984 -0.9796949028968811 -0.08297508955001831
0.20111805200576782 -0.9794046878814697 -0.2161078155040741
0.20068931579589844 -0.9791144728660583 -0.3492405414581299
0.20026057958602905 -0.978824257850647 -0.48237326741218567
0.19983184337615967 -0.9785340428352356 -0.6155059933662415
0.19940310716629028 -0.9782438278198242 -0.7486387491226196
0.1989743709564209 -0.9779536128044128 -0.881771445274353
0.1985456347465515 -0.9776633977890015 -1.014904260635376
0.0035839080810546875 -1.0024977922439575 0.982690691947937
0.003155170241370797 -1.002207636833191 0.8495579361915588
0.002726432401686907 -1.0019173622131348 0.7164251804351807
0.0022976945620030165 -1.0016270875930786 0.5832924842834473
0.001868956838734448 -1.001336932182312 0.4501597583293915
0.0014402189990505576 -1.0010466575622559 0.3170270025730133
0.0010114811593666673 -1.0007565021514893 0.1838942915201187
0.0005827433778904378 -1.000466227531433 0.05076155439019203
0.0001540055382065475 -1.0001760721206665 -0.08237117528915405
-0.0002747322723735124 -0.9998857975006104 -0.21550390124320984
-0.0007034700829535723 -0.999595582485199 -0.3486366271972656
-0.0011322079226374626 -0.9993053674697876 -0.4817693531513214
-0.001560945762321353 -0.9990151524543762 -0.6149020791053772
-0.0019896836020052433 -0.9987249374389648 -0.7480348348617554
-0.0024184214416891336 -0.9984347224235535 -0.8811675310134888
-0.002847159281373024 -0.9981445074081421 -1.0143003463745117
