ply
format ascii 1.0
element vertex 512
property float x
property float y
property float z
end_header
0.007037639617919922 -1.0027916431427002 0.9582538604736328
0.007037634029984474 -1.0027917623519897 0.8299151659011841
0.0070376284420490265 -1.0027917623519897 0.7015764117240906
0.007037622854113579 -1.0027917623519897 0.5732377171516418
0.007037617266178131 -1.0027917623519897 0.4448990225791931
0.007037611678242683 -1.0027917623519897 0.316560298204422
0.007037606090307236 -1.0027917623519897 0.18822160363197327
0.007037600502371788 -1.0027917623519897 0.059882886707782745
0.00703759491443634 -1.0027917623519897 -0.06845582276582718
0.007037589326500893 -1.0027917623519897 -0.1967945396900177
0.007037583738565445 -1.0027917623519897 -0.32513323426246643
0.007037578150629997 -1.0027917623519897 -0.45347195863723755
0.007037572097033262 -1.0027917623519897 -0.5818106532096863
0.0070375665090978146 -1.0027917623519897 -0.710149347782135
0.007037560921162367 -1.0027917623519897 -0.8384881019592285
0.007037555333226919 -1.0027917623519897 -0.9668267965316772
-0.19293810427188873 -0.9824561476707458 0.9582538604736328
-0.19293810427188873 -0.9824561476707458 0.8299151659011841
-0.19293811917304993 -0.9824561476707458 0.7015764713287354
-0.19293811917304993 -0.9824561476707458 0.5732377171516418
-0.19293811917304993 -0.9824561476707458 0.4448990225791931
-0.19293813407421112 -0.9824561476707458 0.3165603280067444
-0.19293813407421112 -0.9824561476707458 0.18822160363197327
-0.19293813407421112 -0.9824561476707458 0.05988289788365364
-0.19293814897537231 -0.9824561476707458 -0.06845581531524658
-0.19293814897537231 -0.9824561476707458 -0.1967945247888565
-0.1929381638765335 -0.9824561476707458 -0.32513323426246643
-0.1929381638765335 -0.9824561476707458 -0.45347195863723755
-0.1929381638765335 -0.9824561476707458 -0.5818106532096863
-0.1929381787776947 -0.9824561476707458 -0.710149347782135
-0.1929381787776947 -0.9824561476707458 -0.8384881019592285
-0.1929381787776947 -0.9824561476707458 -0.9668267965316772
-0.3847268223762512 -0.9222820401191711 0.9582538604736328
-0.3847268223762512 -0.9222820401191711 0.8299151659011841
-0.3847268223762512 -0.9222820401191711 0.7015764713287354
-0.3847268223762512 -0.9222820401191711 0.5732377767562866
-0.3847268223762512 -0.9222820401191711 0.4448990225791931
-0.3847268521785736 -0.9222820401191711 0.3165603280067444
-0.3847268521785736 -0.9222820401191711 0.18822161853313446
-0.3847268521785736 -0.9222820401191711 0.05988290533423424
-0.3847268521785736 -0.9222820401191711 -0.06845580786466599
-0.3847268521785736 -0.9222820401191711 -0.1967945098876953
-0.384726881980896 -0.9222820401191711 -0.32513323426246643
-0.384726881980896 -0.9222820401191711 -0.45347192883491516
-0.384726881980896 -0.9222820401191711 -0.5818106532096863
-0.384726881980896 -0.9222820401191711 -0.710149347782135
-0.384726881980896 -0.9222820401191711 -0.8384880423545837
-0.384726881980896 -0.9222820401191711 -0.9668267965316772
-0.5604766607284546 -0.8247329592704773 0.9582538604736328
-0.5604766607284546 -0.8247329592704773 0.8299151659011841
-0.5604766607284546 -0.8247329592704773 0.7015764713287354
-0.5604766607284546 -0.8247329592704773 0.5732377767562866
-0.5604766607284546 -0.8247329592704773 0.4448990523815155
-0.5604766607284546 -0.8247329592704773 0.3165603280067444
-0.5604766607284546 -0.8247329592704773 0.18822161853313446
-0.5604766607284546 -0.8247329592704773 0.059882912784814835
-0.5604766607284546 -0.8247329592704773 -0.06845580041408539
-0.5604766607284546 -0.8247329592704773 -0.1967945098876953
-0.5604767203330994 -0.8247329592704773 -0.32513320446014404
-0.5604767203330994 -0.8247329592704773 -0.45347192883491516
-0.5604767203330994 -0.8247329592704773 -0.5818106532096863
-0.5604767203330994 -0.8247329592704773 -0.710149347782135
-0.5604767203330994 -0.8247329592704773 -0.8384880423545837
-0.5604767203330994 -0.8247329592704773 -0.9668267965316772
-0.7129923701286316 -0.6938024759292603 0.9582539200782776
-0.7129923701286316 -0.6938024759292603 0.8299151659011841
-0.7129923701286316 -0.6938024759292603 0.7015764713287354
-0.7129923701286316 -0.6938024759292603 0.5732377767562866
-0.7129923701286316 -0.6938024759292603 0.4448990523815155
-0.7129923701286316 -0.6938024759292603 0.3165603280067444
-0.7129923701286316 -0.6938024759292603 0.18822163343429565
-0.7129924297332764 -0.6938024759292603 0.05988292023539543
-0.7129924297332764 -0.6938024759292603 -0.06845579296350479
-0.7129924297332764 -0.6938024759292603 -0.19679449498653412
-0.7129924297332764 -0.6938024759292603 -0.32513320446014404
-0.7129924297332764 -0.6938024759292603 -0.45347192883491516
-0.7129924297332764 -0.6938024759292603 -0.5818106532096863
-0.7129924297332764 -0.6938024759292603 -0.710149347782135
-0.7129924297332764 -0.6938024759292603 -0.8384880423545837
-0.7129924297332764 -0.6938024759292603 -0.9668267369270325
-0.8360300064086914 -0.5348510146141052 0.9582539200782776
-0.8360300064086914 -0.5348510146141052 0.8299151659011841
-0.8360300064086914 -0.5348510146141052 0.7015764713287354
-0.8360300064086914 -0.5348510146141052 0.5732377767562866
-0.8360300064086914 -0.5348510146141052 0.4448990523815155
-0.8360300064086914 -0.5348510146141052 0.3165603578090668
-0.8360300064086914 -0.5348510146141052 0.18822163343429565
-0.8360300064086914 -0.5348510146141052 0.05988292396068573
-0.8360300064086914 -0.5348510146141052 -0.0684557855129242
-0.8360300064086914 -0.5348510146141052 -0.19679449498653412
-0.8360300064086914 -0.5348510146141052 -0.32513320446014404
-0.8360300660133362 -0.5348510146141052 -0.45347192883491516
-0.8360300660133362 -0.5348510146141052 -0.5818106532096863
-0.8360300660133362 -0.5348510146141052 -0.710149347782135
-0.8360300660133362 -0.5348510146141052 -0.8384880423545837
-0.8360300660133362 -0.5348510146141052 -0.9668267369270325
-0.924552321434021 -0.35438597202301025 0.9582539200782776
-0.924552321434021 -0.35438597202301025 0.8299151659011841
-0.924552321434021 -0.35438597202301025 0.7015764713287354
-0.924552321434021 -0.35438597202301025 0.5732377767562866
-0.924552321434021 -0.35438597202301025 0.4448990523815155
-0.924552321434021 -0.35438597202301025 0.3165603578090668
-0.924552321434021 -0.35438597202301025 0.18822163343429565
-0.924552321434021 -0.35438597202301025 0.05988292768597603
-0.924552321434021 -0.35438597202301025 -0.0684557855129242
-0.9245523810386658 -0.35438597202301025 -0.19679449498653412
-0.9245523810386658 -0.35438597202301025 -0.32513320446014404
-0.9245523810386658 -0.35438597202301025 -0.4534718990325928
-0.9245523810386658 -0.35438597202301025 -0.5818106532096863
-0.9245523810386658 -0.35438597202301025 -0.710149347782135
-0.9245523810386658 -0.35438597202301025 -0.8384880423545837
-0.9245523810386658 -0.35438597202301025 -0.9668267369270325
-0.9749352335929871 -0.1597956418991089 0.9582539200782776
-0.9749352335929871 -0.1597956418991089 0.8299151659011841
-0.9749352335929871 -0.1597956418991089 0.7015764713287354
-0.9749352335929871 -0.1597956418991089 0.5732377767562866
-0.9749352335929871 -0.1597956418991089 0.4448990523815155
-0.9749352335929871 -0.1597956418991089 0.3165603578090668
-0.9749352335929871 -0.1597956418991089 0.18822163343429565
-0.9749352931976318 -0.1597956418991089 0.05988293141126633
-0.9749352931976318 -0.1597956418991089 -0.0684557780623436
-0.9749352931976318 -0.1597956418991089 -0.19679449498653412
-0.9749352931976318 -0.1597956418991089 -0.32513320446014404
-0.9749352931976318 -0.1597956418991089 -0.4534718990325928
-0.9749352931976318 -0.1597956418991089 -0.5818105936050415
-0.9749352931976318 -0.1597956418991089 -0.710149347782135
-0.9749352931976318 -0.1597956418991089 -0.8384880423545837
-0.9749352931976318 -0.1597956418991089 -0.9668267369270325
-0.9851160645484924 0.04095340520143509 0.9582539200782776
-0.9851160645484924 0.04095340520143509 0.8299151659011841
-0.9851160645484924 0.04095340520143509 0.7015764713287354
-0.9851160645484924 0.04095340520143509 0.5732377767562866
-0.9851160645484924 0.04095340520143509 0.4448990523815155
-0.9851161241531372 0.04095340520143509 0.3165603578090668
-0.9851161241531372 0.04095340520143509 0.18822164833545685
-0.9851161241531372 0.04095340520143509 0.05988293141126633
-0.9851161241531372 0.04095340520143509 -0.0684557780623436
-0.9851161241531372 0.04095340520143509 -0.19679449498653412
-0.9851161241531372 0.04095340520143509 -0.32513320446014404
-0.9851161241531372 0.04095340520143509 -0.4534718990325928
-0.9851161241531372 0.04095340520143509 -0.5818105936050415
-0.9851161241531372 0.04095340520143509 -0.710149347782135
-0.9851161241531372 0.04095340520143509 -0.8384880423545837
-0.9851161241531372 0.04095340520143509 -0.9668267369270325
-0.9546779990196228 0.23964250087738037 0.9582539200782776
-0.9546779990196228 0.23964250087738037 0.8299151659011841
-0.9546780586242676 0.23964250087738037 0.7015764713287354
-0.9546780586242676 0.23964250087738037 0.5732377767562866
-0.9546780586242676 0.23964250087738037 0.4448990523815155
-0.9546780586242676 0.23964250087738037 0.3165603578090668
-0.9546780586242676 0.23964250087738037 0.18822163343429565
-0.9546780586242676 0.23964250087738037 0.05988292768597603
-0.9546780586242676 0.23964250087738037 -0.0684557780623436
-0.9546780586242676 0.23964250087738037 -0.19679449498653412
-0.9546780586242676 0.23964250087738037 -0.32513320446014404
-0.9546780586242676 0.23964250087738037 -0.4534718990325928
-0.9546780586242676 0.23964250087738037 -0.5818105936050415
-0.9546781182289124 0.23964250087738037 -0.710149347782135
-0.9546781182289124 0.23964250087738037 -0.8384880423545837
-0.9546781182289124 0.23964250087738037 -0.9668267369270325
-0.8848671913146973 0.42813727259635925 0.9582539200782776
-0.884867250919342 0.42813727259635925 0.8299151659011841
-0.884867250919342 0.42813727259635925 0.7015764713287354
-0.884867250919342 0.42813727259635925 0.5732377767562866
-0.884867250919342 0.42813727259635925 0.4448990523815155
-0.884867250919342 0.42813727259635925 0.3165603578090668
-0.884867250919342 0.42813727259635925 0.18822163343429565
-0.884867250919342 0.42813727259635925 0.05988292396068573
-0.884867250919342 0.42813727259635925 -0.0684557855129242
-0.884867250919342 0.42813727259635925 -0.19679449498653412
-0.884867250919342 0.42813727259635925 -0.32513320446014404
-0.884867250919342 0.42813727259635925 -0.45347192883491516
-0.8848673105239868 0.42813727259635925 -0.5818106532096863
-0.8848673105239868 0.42813727259635925 -0.710149347782135
-0.8848673105239868 0.42813727259635925 -0.8384880423545837
-0.8848673105239868 0.42813727259635925 -0.9668267369270325
-0.7785417437553406 0.5987207293510437 0.9582539200782776
-0.7785417437553406 0.5987207293510437 0.8299151659011841
-0.7785417437553406 0.5987207293510437 0.7015764713287354
-0.7785417437553406 0.5987207293510437 0.5732377767562866
-0.7785417437553406 0.5987207293510437 0.4448990523815155
-0.7785417437553406 0.5987207293510437 0.3165603280067444
-0.7785417437553406 0.5987207293510437 0.18822163343429565
-0.7785417437553406 0.5987207293510437 0.05988292023539543
-0.7785417437553406 0.5987207293510437 -0.06845579296350479
-0.7785418033599854 0.5987207293510437 -0.19679449498653412
-0.7785418033599854 0.5987207293510437 -0.32513320446014404
-0.7785418033599854 0.5987207293510437 -0.45347192883491516
-0.7785418033599854 0.5987207293510437 -0.5818106532096863
-0.7785418033599854 0.5987207293510437 -0.710149347782135
-0.7785418033599854 0.5987207293510437 -0.8384880423545837
-0.7785418033599854 0.5987207293510437 -0.9668267369270325
-0.6400545239448547 0.7444092035293579 0.9582538604736328
-0.6400545239448547 0.7444092035293579 0.8299151659011841
-0.6400545239448547 0.7444092035293579 0.7015764713287354
-0.6400545239448547 0.7444092035293579 0.5732377767562866
-0.6400545239448547 0.7444092035293579 0.4448990523815155
-0.6400545239448547 0.7444092035293579 0.3165603280067444
-0.6400545835494995 0.7444092035293579 0.18822161853313446
-0.6400545835494995 0.7444092035293579 0.05988291651010513
-0.6400545835494995 0.7444092035293579 -0.06845579296350479
-0.6400545835494995 0.7444092035293579 -0.1967945098876953
-0.6400545835494995 0.7444092035293579 -0.32513320446014404
-0.6400545835494995 0.7444092035293579 -0.45347192883491516
-0.6400545835494995 0.7444092035293579 -0.5818106532096863
-0.6400545835494995 0.7444092035293579 -0.710149347782135
-0.6400545835494995 0.7444092035293579 -0.8384880423545837
-0.6400545835494995 0.7444092035293579 -0.9668267965316772
-0.47507530450820923 0.8592381477355957 0.9582538604736328
-0.47507530450820923 0.8592381477355957 0.8299151659011841
-0.47507530450820923 0.8592381477355957 0.7015764713287354
-0.47507530450820923 0.8592381477355957 0.5732377767562866
-0.47507530450820923 0.8592381477355957 0.4448990523815155
-0.47507530450820923 0.8592381477355957 0.3165603280067444
-0.4750753343105316 0.8592381477355957 0.18822161853313446
-0.4750753343105316 0.8592381477355957 0.059882909059524536
-0.4750753343105316 0.8592381477355957 -0.06845580041408539
-0.4750753343105316 0.8592381477355957 -0.1967945098876953
-0.4750753343105316 0.8592381477355957 -0.32513323426246643
-0.475075364112854 0.8592381477355957 -0.45347192883491516
-0.475075364112854 0.8592381477355957 -0.5818106532096863
-0.475075364112854 0.8592381477355957 -0.710149347782135
-0.475075364112854 0.8592381477355957 -0.8384880423545837
-0.475075364112854 0.8592381477355957 -0.9668267965316772
-0.290358304977417 0.9385064244270325 0.9582538604736328
-0.290358304977417 0.9385064244270325 0.8299151659011841
-0.290358304977417 0.9385064244270325 0.7015764713287354
-0.290358304977417 0.9385064244270325 0.5732377171516418
-0.2903583347797394 0.9385064244270325 0.4448990225791931
-0.2903583347797394 0.9385064244270325 0.3165603280067444
-0.2903583347797394 0.9385064244270325 0.18822160363197327
-0.2903583347797394 0.9385064244270325 0.05988289788365364
-0.2903583347797394 0.9385064244270325 -0.06845580786466599
-0.2903583347797394 0.9385064244270325 -0.1967945247888565
-0.29035836458206177 0.9385064244270325 -0.32513323426246643
-0.29035836458206177 0.9385064244270325 -0.45347192883491516
-0.29035836458206177 0.9385064244270325 -0.5818106532096863
-0.29035836458206177 0.9385064244270325 -0.710149347782135
-0.29035836458206177 0.9385064244270325 -0.8384881019592285
-0.29035839438438416 0.9385064244270325 -0.9668267965316772
-0.0934658795595169 0.9789688587188721 0.9582538604736328
-0.0934658870100975 0.9789688587188721 0.8299151659011841
-0.0934658944606781 0.9789688587188721 0.7015764713287354
-0.0934659019112587 0.9789688587188721 0.5732377171516418
-0.0934659019112587 0.9789688587188721 0.4448990225791931
-0.0934659093618393 0.9789688587188721 0.316560298204422
-0.09346591681241989 0.9789688587188721 0.18822160363197327
-0.09346592426300049 0.9789688587188721 0.059882890433073044
-0.09346592426300049 0.9789688587188721 -0.06845582276582718
-0.09346593171358109 0.9789688587188721 -0.1967945247888565
-0.09346593916416168 0.9789688587188721 -0.32513323426246643
-0.09346594661474228 0.9789688587188721 -0.45347195863723755
-0.09346594661474228 0.9789688587188721 -0.5818106532096863
-0.09346595406532288 0.9789688587188721 -0.710149347782135
-0.09346596151590347 0.9789688587188721 -0.8384881019592285
-0.09346596896648407 0.9789688587188721 -0.9668267965316772
0.10754115879535675 0.9789688587188721 0.9582538604736328
0.10754115879535675 0.9789688587188721 0.8299151659011841
0.10754115134477615 0.9789688587188721 0.7015764117240906
0.10754114389419556 0.9789688587188721 0.5732377171516418
0.10754113644361496 0.9789688587188721 0.4448990225791931
0.10754113644361496 0.9789688587188721 0.316560298204422
0.10754112899303436 0.9789688587188721 0.18822158873081207
0.10754112154245377 0.9789688587188721 0.05988288298249245
0.10754111409187317 0.9789688587188721 -0.06845583021640778
0.10754111409187317 0.9789688587188721 -0.1967945396900177
0.10754110664129257 0.9789688587188721 -0.3251332640647888
0.10754109919071198 0.9789688587188721 -0.45347195863723755
0.10754109174013138 0.9789688587188721 -0.5818106532096863
0.10754109174013138 0.9789688587188721 -0.7101494073867798
0.10754108428955078 0.9789688587188721 -0.8384881019592285
0.10754107683897018 0.9789688587188721 -0.9668267965316772
0.30443358421325684 0.9385064244270325 0.9582538604736328
0.30443358421325684 0.9385064244270325 0.8299151062965393
0.30443355441093445 0.9385064244270325 0.7015764117240906
0.30443355441093445 0.9385064244270325 0.5732377171516418
0.30443355441093445 0.9385064244270325 0.4448989927768707
0.30443355441093445 0.9385064244270325 0.316560298204422
0.30443355441093445 0.9385064244270325 0.18822158873081207
0.30443352460861206 0.9385064244270325 0.05988287180662155
0.30443352460861206 0.9385064244270325 -0.06845583766698837
0.30443352460861206 0.9385064244270325 -0.1967945545911789
0.30443352460861206 0.9385064244270325 -0.3251332640647888
0.30443352460861206 0.9385064244270325 -0.45347195863723755
0.30443352460861206 0.9385064244270325 -0.5818106532096863
0.3044334948062897 0.9385064244270325 -0.7101494073867798
0.3044334948062897 0.9385064244270325 -0.8384881019592285
0.3044334948062897 0.9385064244270325 -0.9668267965316772
0.4891505837440491 0.8592381477355957 0.9582538604736328
0.4891505539417267 0.8592381477355957 0.8299151062965393
0.4891505539417267 0.8592381477355957 0.7015764117240906
0.4891505539417267 0.8592381477355957 0.5732377171516418
0.4891505539417267 0.8592381477355957 0.4448989927768707
0.4891505539417267 0.8592381477355957 0.316560298204422
0.4891505241394043 0.8592381477355957 0.18822157382965088
0.4891505241394043 0.8592381477355957 0.059882864356040955
0.4891505241394043 0.8592381477355957 -0.06845584511756897
0.4891505241394043 0.8592381477355957 -0.1967945545911789
0.4891505241394043 0.8592381477355957 -0.3251332640647888
0.4891504943370819 0.8592381477355957 -0.45347198843955994
0.4891504943370819 0.8592381477355957 -0.581810712814331
0.4891504943370819 0.8592381477355957 -0.7101494073867798
0.4891504943370819 0.8592381477355957 -0.8384881019592285
0.4891504943370819 0.8592381477355957 -0.9668267965316772
0.6541298031806946 0.7444092035293579 0.9582538604736328
0.6541298031806946 0.7444092035293579 0.8299151062965393
0.6541298031806946 0.7444092035293579 0.7015764117240906
0.6541298031806946 0.7444092035293579 0.5732377171516418
0.6541298031806946 0.7444092035293579 0.4448989927768707
0.6541298031806946 0.7444092035293579 0.3165602684020996
0.6541297435760498 0.7444092035293579 0.18822157382965088
0.6541297435760498 0.7444092035293579 0.05988285690546036
0.6541297435760498 0.7444092035293579 -0.06845585256814957
0.6541297435760498 0.7444092035293579 -0.1967945694923401
0.6541297435760498 0.7444092035293579 -0.3251332640647888
0.6541297435760498 0.7444092035293579 -0.45347198843955994
0.6541297435760498 0.7444092035293579 -0.581810712814331
0.6541297435760498 0.7444092035293579 -0.7101494073867798
0.6541297435760498 0.7444092035293579 -0.8384881019592285
0.6541297435760498 0.7444092035293579 -0.9668267965316772
0.7926170229911804 0.5987207293510437 0.958253800868988
0.7926170229911804 0.5987207293510437 0.8299151062965393
0.7926170229911804 0.5987207293510437 0.7015764117240906
0.7926169633865356 0.5987207293510437 0.5732377171516418
0.7926169633865356 0.5987207293510437 0.4448989927768707
0.7926169633865356 0.5987207293510437 0.3165602684020996
0.7926169633865356 0.5987207293510437 0.18822155892848969
0.7926169633865356 0.5987207293510437 0.05988285318017006
0.7926169633865356 0.5987207293510437 -0.06845586001873016
0.7926169633865356 0.5987207293510437 -0.1967945694923401
0.7926169633865356 0.5987207293510437 -0.3251332938671112
0.7926169633865356 0.5987207293510437 -0.45347198843955994
0.7926169633865356 0.5987207293510437 -0.581810712814331
0.7926169037818909 0.5987207293510437 -0.7101494073867798
0.7926169037818909 0.5987207293510437 -0.8384881019592285
0.7926169037818909 0.5987207293510437 -0.966826856136322
0.8989424705505371 0.42813727259635925 0.958253800868988
0.8989424705505371 0.42813727259635925 0.8299151062965393
0.8989424705505371 0.42813727259635925 0.7015764117240906
0.8989424705505371 0.42813727259635925 0.5732377171516418
0.8989424705505371 0.42813727259635925 0.4448989927768707
0.8989424705505371 0.42813727259635925 0.3165602684020996
0.8989424705505371 0.42813727259635925 0.18822155892848969
0.8989424705505371 0.42813727259635925 0.05988284945487976
0.8989424705505371 0.42813727259635925 -0.06845586001873016
0.8989424705505371 0.42813727259635925 -0.1967945694923401
0.8989424109458923 0.42813727259635925 -0.3251332938671112
0.8989424109458923 0.42813727259635925 -0.45347198843955994
0.8989424109458923 0.42813727259635925 -0.581810712814331
0.8989424109458923 0.42813727259635925 -0.7101494073867798
0.8989424109458923 0.42813727259635925 -0.8384881019592285
0.8989424109458923 0.42813727259635925 -0.966826856136322
0.9687532782554626 0.23964250087738037 0.958253800868988
0.9687532782554626 0.23964250087738037 0.8299151062965393
0.9687532782554626 0.23964250087738037 0.7015764117240906
0.9687532782554626 0.23964250087738037 0.5732376575469971
0.9687532782554626 0.23964250087738037 0.44489896297454834
0.9687532782554626 0.23964250087738037 0.3165602684020996
0.9687532782554626 0.23964250087738037 0.18822155892848969
0.9687532782554626 0.23964250087738037 0.05988284572958946
0.9687532782554626 0.23964250087738037 -0.06845586746931076
0.9687532186508179 0.23964250087738037 -0.1967945694923401
0.9687532186508179 0.23964250087738037 -0.3251332938671112
0.9687532186508179 0.23964250087738037 -0.45347198843955994
0.9687532186508179 0.23964250087738037 -0.581810712814331
0.9687532186508179 0.23964250087738037 -0.7101494073867798
0.9687532186508179 0.23964250087738037 -0.8384881019592285
0.9687532186508179 0.23964250087738037 -0.966826856136322
0.9991913437843323 0.04095340520143509 0.958253800868988
0.9991913437843323 0.04095340520143509 0.8299151062965393
0.9991913437843323 0.04095340520143509 0.7015764117240906
0.9991913437843323 0.04095340520143509 0.5732376575469971
0.9991913437843323 0.04095340520143509 0.44489896297454834
0.9991913437843323 0.04095340520143509 0.3165602684020996
0.9991913437843323 0.04095340520143509 0.18822155892848969
0.9991912841796875 0.04095340520143509 0.059882842004299164
0.9991912841796875 0.04095340520143509 -0.06845586746931076
0.9991912841796875 0.04095340520143509 -0.19679458439350128
0.9991912841796875 0.04095340520143509 -0.3251332938671112
0.9991912841796875 0.04095340520143509 -0.45347198843955994
0.9991912841796875 0.04095340520143509 -0.581810712814331
0.9991912841796875 0.04095340520143509 -0.7101494073867798
0.9991912841796875 0.04095340520143509 -0.8384881019592285
0.9991912841796875 0.04095340520143509 -0.966826856136322
0.9890105128288269 -0.1597956418991089 0.958253800868988
0.9890105128288269 -0.1597956418991089 0.8299151062965393
0.9890105128288269 -0.1597956418991089 0.7015764117240906
0.9890105128288269 -0.1597956418991089 0.5732376575469971
0.9890105128288269 -0.1597956418991089 0.44489896297454834
0.9890104532241821 -0.1597956418991089 0.3165602684020996
0.9890104532241821 -0.1597956418991089 0.18822155892848969
0.9890104532241821 -0.1597956418991089 0.05988284572958946
0.9890104532241821 -0.1597956418991089 -0.06845586746931076
0.9890104532241821 -0.1597956418991089 -0.1967945694923401
0.9890104532241821 -0.1597956418991089 -0.3251332938671112
0.9890104532241821 -0.1597956418991089 -0.45347198843955994
0.9890104532241821 -0.1597956418991089 -0.581810712814331
0.9890104532241821 -0.1597956418991089 -0.7101494073867798
0.9890104532241821 -0.1597956418991089 -0.8384881019592285
0.9890104532241821 -0.1597956418991089 -0.966826856136322
0.9386276006698608 -0.35438597202301025 0.958253800868988
0.9386276006698608 -0.35438597202301025 0.8299151062965393
0.9386276006698608 -0.35438597202301025 0.7015764117240906
0.9386275410652161 -0.35438597202301025 0.5732377171516418
0.9386275410652161 -0.35438597202301025 0.4448989927768707
0.9386275410652161 -0.35438597202301025 0.3165602684020996
0.9386275410652161 -0.35438597202301025 0.18822155892848969
0.9386275410652161 -0.35438597202301025 0.05988284572958946
0.9386275410652161 -0.35438597202301025 -0.06845586001873016
0.9386275410652161 -0.35438597202301025 -0.1967945694923401
0.9386275410652161 -0.35438597202301025 -0.3251332938671112
0.9386275410652161 -0.35438597202301025 -0.45347198843955994
0.9386275410652161 -0.35438597202301025 -0.581810712814331
0.9386274814605713 -0.35438597202301025 -0.7101494073867798
0.9386274814605713 -0.35438597202301025 -0.8384881019592285
0.9386274814605713 -0.35438597202301025 -0.966826856136322
0.8501052856445312 -0.5348510146141052 0.958253800868988
0.8501052260398865 -0.5348510146141052 0.8299151062965393
0.8501052260398865 -0.5348510146141052 0.7015764117240906
0.8501052260398865 -0.5348510146141052 0.5732377171516418
0.8501052260398865 -0.5348510146141052 0.4448989927768707
0.8501052260398865 -0.5348510146141052 0.3165602684020996
0.8501052260398865 -0.5348510146141052 0.18822155892848969
0.8501052260398865 -0.5348510146141052 0.05988284945487976
0.8501052260398865 -0.5348510146141052 -0.06845586001873016
0.8501052260398865 -0.5348510146141052 -0.1967945694923401
0.8501052260398865 -0.5348510146141052 -0.3251332938671112
0.8501051664352417 -0.5348510146141052 -0.45347198843955994
0.8501051664352417 -0.5348510146141052 -0.581810712814331
0.8501051664352417 -0.5348510146141052 -0.7101494073867798
0.8501051664352417 -0.5348510146141052 -0.8384881019592285
0.8501051664352417 -0.5348510146141052 -0.966826856136322
0.7270676493644714 -0.6938024759292603 0.958253800868988
0.7270676493644714 -0.6938024759292603 0.8299151062965393
0.7270676493644714 -0.6938024759292603 0.7015764117240906
0.7270676493644714 -0.6938024759292603 0.5732377171516418
0.7270676493644714 -0.6938024759292603 0.4448989927768707
0.7270675897598267 -0.6938024759292603 0.3165602684020996
0.7270675897598267 -0.6938024759292603 0.18822157382965088
0.7270675897598267 -0.6938024759292603 0.05988285690546036
0.7270675897598267 -0.6938024759292603 -0.06845585256814957
0.7270675897598267 -0.6938024759292603 -0.1967945694923401
0.7270675897598267 -0.6938024759292603 -0.3251332640647888
0.7270675897598267 -0.6938024759292603 -0.45347198843955994
0.7270675897598267 -0.6938024759292603 -0.581810712814331
0.7270675897598267 -0.6938024759292603 -0.7101494073867798
0.7270675897598267 -0.6938024759292603 -0.8384881019592285
0.7270675897598267 -0.6938024759292603 -0.966826856136322
0.5745519399642944 -0.8247329592704773 0.9582538604736328
0.5745519399642944 -0.8247329592704773 0.8299151062965393
0.5745518803596497 -0.8247329592704773 0.7015764117240906
0.5745518803596497 -0.8247329592704773 0.5732377171516418
0.5745518803596497 -0.8247329592704773 0.4448989927768707
0.5745518803596497 -0.8247329592704773 0.316560298204422
0.5745518803596497 -0.8247329592704773 0.18822157382965088
0.5745518803596497 -0.8247329592704773 0.059882864356040955
0.5745518803596497 -0.8247329592704773 -0.06845584511756897
0.5745518803596497 -0.8247329592704773 -0.1967945545911789
0.5745518803596497 -0.8247329592704773 -0.3251332640647888
0.5745518803596497 -0.8247329592704773 -0.45347198843955994
0.5745518803596497 -0.8247329592704773 -0.581810712814331
0.5745518207550049 -0.8247329592704773 -0.7101494073867798
0.5745518207550049 -0.8247329592704773 -0.8384881019592285
0.5745518207550049 -0.8247329592704773 -0.9668267965316772
0.39880210161209106 -0.9222820401191711 0.9582538604736328
0.3988020718097687 -0.9222820401191711 0.8299151062965393
0.3988020718097687 -0.9222820401191711 0.7015764117240906
0.3988020718097687 -0.9222820401191711 0.5732377171516418
0.3988020718097687 -0.9222820401191711 0.4448989927768707
0.3988020718097687 -0.9222820401191711 0.316560298204422
0.3988020420074463 -0.9222820401191711 0.18822158873081207
0.3988020420074463 -0.9222820401191711 0.05988287180662155
0.3988020420074463 -0.9222820401191711 -0.06845583766698837
0.3988020420074463 -0.9222820401191711 -0.1967945545911789
0.3988020420074463 -0.9222820401191711 -0.3251332640647888
0.3988020420074463 -0.9222820401191711 -0.45347195863723755
0.3988020122051239 -0.9222820401191711 -0.5818106532096863
0.3988020122051239 -0.9222820401191711 -0.7101494073867798
0.3988020122051239 -0.9222820401191711 -0.8384881019592285
0.3988020122051239 -0.9222820401191711 -0.9668267965316772
0.20701338350772858 -0.9824561476707458 0.9582538604736328
0.20701336860656738 -0.9824561476707458 0.8299151659011841
0.20701336860656738 -0.9824561476707458 0.7015764117240906
0.20701336860656738 -0.9824561476707458 0.5732377171516418
0.2070133537054062 -0.9824561476707458 0.4448990225791931
0.2070133537054062 -0.9824561476707458 0.316560298204422
0.2070133537054062 -0.9824561476707458 0.18822158873081207
0.207013338804245 -0.9824561476707458 0.05988287925720215
0.207013338804245 -0.9824561476707458 -0.06845583021640778
0.2070133239030838 -0.9824561476707458 -0.1967945396900177
0.2070133239030838 -0.9824561476707458 -0.3251332640647888
0.2070133239030838 -0.9824561476707458 -0.45347195863723755
0.2070133090019226 -0.9824561476707458 -0.5818106532096863
0.2070133090019226 -0.9824561476707458 -0.7101494073867798
0.2070133090019226 -0.9824561476707458 -0.8384881019592285
0.2070132941007614 -0.9824561476707458 -0.9668267965316772
0.007037639617919922 -1.0027916431427002 0.9582538604736328
0.007037634029984474 -1.0027917623519897 0.8299151659011841
0.0070376284420490265 -1.0027917623519897 0.7015764117240906
0.007037622854113579 -1.0027917623519897 0.5732377171516418
0.007037617266178131 -1.0027917623519897 0.4448990225791931
0.007037611678242683 -1.0027917623519897 0.316560298204422
0.007037606090307236 -1.0027917623519897 0.18822160363197327
0.007037600502371788 -1.0027917623519897 0.059882886707782745
0.00703759491443634 -1.0027917623519897 -0.06845582276582718
0.007037589326500893 -1.0027917623519897 -0.1967945396900177
0.007037583738565445 -1.0027917623519897 -0.32513323426246643
0.007037578150629997 -1.0027917623519897 -0.45347195863723755
0.007037572097033262 -1.0027917623519897 -0.5818106532096863
0.0070375665090978146 -1.0027917623519897 -0.710149347782135
0.007037560921162367 -1.0027917623519897 -0.8384881019592285
0.007037555333226919 -1.0027917623519897 -0.9668267965316772
