ply
format ascii 1.0
element vertex 512
property float x
property float y
property float z
end_header
0.5896792411804199 -0.9958627223968506 1.2585214376449585
0.5896841883659363 -0.9958555102348328 0.9739977717399597
0.5896890759468079 -0.9958482980728149 0.6894741058349609
0.5896940231323242 -0.9958410859107971 0.40495046973228455
0.5896989107131958 -0.9958338141441345 0.12042681872844696
0.5897038578987122 -0.9958266019821167 -0.16409683227539062
0.5897087454795837 -0.9958193898200989 -0.448620468378067
0.5897136926651001 -0.995812177658081 -0.7331441044807434
0.5897185802459717 -0.9958049654960632 -1.0176677703857422
0.589723527431488 -0.9957977533340454 -1.3021913766860962
0.5897284746170044 -0.9957904815673828 -1.5867151021957397
0.589733362197876 -0.995783269405365 -1.8712387084960938
0.5897383093833923 -0.9957760572433472 -2.1557624340057373
0.5897431969642639 -0.9957688450813293 -2.4402859210968018
0.5897481441497803 -0.9957616329193115 -2.7248096466064453
0.5897530317306519 -0.9957544207572937 -3.009333372116089
0.21590501070022583 -0.9578536152839661 1.2585159540176392
0.2159099280834198 -0.9578464031219482 0.9739922285079956
0.21591486036777496 -0.9578391313552856 0.6894686222076416
0.21591977775096893 -0.9578319191932678 0.4049449563026428
0.2159246951341629 -0.95782470703125 0.12042132019996643
0.21592961251735687 -0.9578174948692322 -0.16410233080387115
0.21593454480171204 -0.9578102827072144 -0.44862598180770874
0.215939462184906 -0.9578030705451965 -0.7331496477127075
0.21594437956809998 -0.9577958583831787 -1.0176732540130615
0.21594929695129395 -0.9577885866165161 -1.3021968603134155
0.2159542292356491 -0.9577813744544983 -1.586720585823059
0.21595914661884308 -0.9577741622924805 -1.871244192123413
0.21596406400203705 -0.9577669501304626 -2.1557679176330566
0.21596898138523102 -0.9577597379684448 -2.440291404724121
0.215973898768425 -0.957752525806427 -2.7248151302337646
0.21597883105278015 -0.9577452540397644 -3.009338855743408
-0.14256685972213745 -0.8453823328018188 1.2585124969482422
-0.1425619274377823 -0.845375120639801 0.9739888906478882
-0.14255701005458832 -0.8453679084777832 0.6894652843475342
-0.14255209267139435 -0.8453606367111206 0.4049416184425354
-0.14254717528820038 -0.8453534245491028 0.12041797488927841
-0.14254224300384521 -0.845346212387085 -0.16410566866397858
-0.14253732562065125 -0.8453390002250671 -0.44862931966781616
-0.14253240823745728 -0.8453317880630493 -0.7331529855728149
-0.1425274908542633 -0.8453245759010315 -1.017676591873169
-0.14252255856990814 -0.8453173637390137 -1.3022003173828125
-0.14251764118671417 -0.8453100919723511 -1.5867239236831665
-0.1425127238035202 -0.8453028798103333 -1.8712475299835205
-0.14250780642032623 -0.8452956676483154 -2.155771255493164
-0.14250288903713226 -0.8452884554862976 -2.4402947425842285
-0.1424979567527771 -0.8452812433242798 -2.724818468093872
-0.14249303936958313 -0.845274031162262 -3.0093421936035156
-0.47106048464775085 -0.6630535125732422 1.2585115432739258
-0.4710555672645569 -0.6630462408065796 0.973987877368927
-0.4710506498813629 -0.6630390286445618 0.6894642114639282
-0.47104570269584656 -0.663031816482544 0.40494057536125183
-0.4710407853126526 -0.6630246043205261 0.12041691690683365
-0.4710358679294586 -0.6630173921585083 -0.16410672664642334
-0.47103095054626465 -0.6630101799964905 -0.44863036274909973
-0.4710260331630707 -0.6630029678344727 -0.7331539988517761
-0.4710211157798767 -0.6629956960678101 -1.017677664756775
-0.47101619839668274 -0.6629884839057922 -1.302201271057129
-0.47101128101348877 -0.6629812717437744 -1.5867249965667725
-0.4710063636302948 -0.6629740595817566 -1.8712486028671265
-0.47100141644477844 -0.6629668474197388 -2.1557722091674805
-0.4709964990615845 -0.662959635257721 -2.440295934677124
-0.4709915816783905 -0.6629523634910583 -2.7248196601867676
-0.47098666429519653 -0.6629451513290405 -3.009343147277832
-0.7561272978782654 -0.41833165287971497 1.2585127353668213
-0.756122350692749 -0.41832444071769714 0.9739891290664673
-0.7561174631118774 -0.41831719875335693 0.6894654631614685
-0.7561125159263611 -0.4183099865913391 0.4049418568611145
-0.7561076283454895 -0.4183027744293213 0.12041819840669632
-0.7561026811599731 -0.4182955324649811 -0.16410544514656067
-0.7560977935791016 -0.41828832030296326 -0.44862908124923706
-0.7560928463935852 -0.41828110814094543 -0.7331527471542358
-0.7560878992080688 -0.4182738959789276 -1.0176763534545898
-0.7560830116271973 -0.4182666540145874 -1.3022000789642334
-0.7560780644416809 -0.4182594418525696 -1.5867236852645874
-0.7560731768608093 -0.41825222969055176 -1.8712472915649414
-0.756068229675293 -0.41824498772621155 -2.155771017074585
-0.7560633420944214 -0.4182377755641937 -2.4402945041656494
-0.756058394908905 -0.4182305634021759 -2.724818229675293
-0.7560535073280334 -0.4182233214378357 -3.0093419551849365
-0.9860966205596924 -0.12123575806617737 1.2585163116455078
-0.9860917329788208 -0.12122853845357895 0.9739927053451538
-0.9860867857933044 -0.12122131884098053 0.689469039440155
-0.9860818982124329 -0.12121409177780151 0.40494540333747864
-0.9860769510269165 -0.1212068721652031 0.12042175978422165
-0.9860720038414001 -0.12119965255260468 -0.16410188376903534
-0.9860671162605286 -0.12119243294000626 -0.4486255347728729
-0.9860621690750122 -0.12118521332740784 -0.7331491708755493
-0.9860572814941406 -0.12117799371480942 -1.0176727771759033
-0.9860523343086243 -0.1211707666516304 -1.3021965026855469
-0.9860474467277527 -0.12116354703903198 -1.5867201089859009
-0.9860424995422363 -0.12115632742643356 -1.8712437152862549
-0.9860376119613647 -0.12114910781383514 -2.1557674407958984
-0.9860326647758484 -0.12114188820123672 -2.440291166305542
-0.986027717590332 -0.12113466113805771 -2.7248146533966064
-0.9860228300094604 -0.12112744152545929 -3.00933837890625
-1.1515535116195679 0.21607105433940887 1.2585220336914062
-1.1515486240386963 0.2160782665014267 0.9739984273910522
-1.1515437364578247 0.2160854935646057 0.6894747614860535
-1.1515387296676636 0.21609272062778473 0.4049510955810547
-1.151533842086792 0.21609993278980255 0.1204274594783783
-1.1515289545059204 0.21610715985298157 -0.1640961915254593
-1.1515239477157593 0.2161143720149994 -0.4486198425292969
-1.1515190601348877 0.2161215990781784 -0.7331434488296509
-1.1515141725540161 0.21612882614135742 -1.0176671743392944
-1.1515092849731445 0.21613603830337524 -1.3021907806396484
-1.1515042781829834 0.21614326536655426 -1.5867143869400024
-1.1514993906021118 0.21615047752857208 -1.871238112449646
-1.1514945030212402 0.2161577045917511 -2.15576171875
-1.151489496231079 0.21616493165493011 -2.4402854442596436
-1.1514846086502075 0.21617214381694794 -2.724808931350708
-1.151479721069336 0.21617937088012695 -3.0093326568603516
-1.245724081993103 0.5797793865203857 1.2585296630859375
-1.2457191944122314 0.5797865986824036 0.9740059971809387
-1.2457143068313599 0.5797938704490662 0.6894823312759399
-1.2457094192504883 0.579801082611084 0.40495869517326355
-1.2457044124603271 0.5798082947731018 0.12043505907058716
-1.2456995248794556 0.5798155069351196 -0.16408857703208923
-1.245694637298584 0.5798227190971375 -0.448612242937088
-1.2456897497177124 0.5798299312591553 -0.7331358790397644
-1.2456847429275513 0.5798371434211731 -1.0176595449447632
-1.2456798553466797 0.5798444151878357 -1.3021831512451172
-1.245674967765808 0.5798516273498535 -1.5867067575454712
-1.245669960975647 0.5798588395118713 -1.8712304830551147
-1.2456650733947754 0.5798660516738892 -2.1557540893554688
-1.2456601858139038 0.579873263835907 -2.4402778148651123
-1.2456552982330322 0.5798804759979248 -2.7248013019561768
-1.245650291442871 0.5798876881599426 -3.0093250274658203
-1.2647531032562256 0.9549990296363831 1.258538842201233
-1.264748215675354 0.9550062417984009 0.9740151762962341
-1.2647433280944824 0.9550134539604187 0.6894915699958801
-1.2647383213043213 0.9550206661224365 0.40496790409088135
-1.2647334337234497 0.9550278782844543 0.12044425308704376
-1.2647285461425781 0.9550351500511169 -0.16407938301563263
-1.2647236585617065 0.9550423622131348 -0.4486030340194702
-1.2647186517715454 0.9550495743751526 -0.733126699924469
-1.2647137641906738 0.9550567865371704 -1.0176503658294678
-1.2647088766098022 0.9550639986991882 -1.3021739721298218
-1.2647038698196411 0.955071210861206 -1.5866975784301758
-1.2646989822387695 0.9550784230232239 -1.8712213039398193
-1.264694094657898 0.9550856947898865 -2.155745029449463
-1.2646892070770264 0.9550929069519043 -2.4402685165405273
-1.2646842002868652 0.9551001191139221 -2.724792242050171
-1.2646793127059937 0.9551073312759399 -3.0093159675598145
-1.2078614234924316 1.3263683319091797 1.2585492134094238
-1.20785653591156 1.3263756036758423 0.9740256071090698
-1.2078516483306885 1.3263828754425049 0.689501941204071
-1.2078466415405273 1.326390027999878 0.40497830510139465
-1.2078417539596558 1.3263972997665405 0.12045466154813766
-1.2078368663787842 1.3264044523239136 -0.16406898200511932
-1.207831859588623 1.3264117240905762 -0.4485926330089569
-1.2078269720077515 1.3264188766479492 -0.7331162691116333
-1.2078220844268799 1.3264261484146118 -1.0176398754119873
-1.2078171968460083 1.3264334201812744 -1.3021636009216309
-1.2078121900558472 1.3264405727386475 -1.5866872072219849
-1.2078073024749756 1.32644784450531 -1.8712108135223389
-1.207802414894104 1.326454997062683 -2.1557345390319824
-1.2077974081039429 1.3264622688293457 -2.440258264541626
-1.2077925205230713 1.3264694213867188 -2.7247817516326904
-1.2077876329421997 1.3264766931533813 -3.009305477142334
-1.0773781538009644 1.6786835193634033 1.2585604190826416
-1.0773732662200928 1.678690791130066 0.9740368127822876
-1.0773683786392212 1.6786980628967285 0.6895131468772888
-1.0773634910583496 1.6787052154541016 0.4049895107746124
-1.0773584842681885 1.6787124872207642 0.12046585977077484
-1.077353596687317 1.6787196397781372 -0.16405777633190155
-1.0773487091064453 1.6787269115447998 -0.44858142733573914
-1.0773438215255737 1.6787340641021729 -0.7331050634384155
-1.0773388147354126 1.6787413358688354 -1.0176286697387695
-1.077333927154541 1.678748607635498 -1.302152395248413
-1.0773290395736694 1.678755760192871 -1.586676001548767
-1.0773240327835083 1.6787630319595337 -1.871199607849121
-1.0773191452026367 1.6787701845169067 -2.1557233333587646
-1.0773142576217651 1.6787774562835693 -2.440247058868408
-1.0773093700408936 1.678784728050232 -2.7247705459594727
-1.0773043632507324 1.678791880607605 -3.009294271469116
-0.8786454796791077 1.9975208044052124 1.258571982383728
-0.8786405324935913 1.9975279569625854 0.9740483164787292
-0.8786356449127197 1.997535228729248 0.6895247101783752
-0.8786306977272034 1.997542381286621 0.40500104427337646
-0.8786258101463318 1.9975496530532837 0.12047739326953888
-0.8786208629608154 1.9975569248199463 -0.1640462577342987
-0.8786159157752991 1.9975640773773193 -0.4485698938369751
-0.8786110281944275 1.997571349143982 -0.7330935597419739
-0.8786060810089111 1.997578501701355 -1.0176172256469727
-0.8786011934280396 1.9975857734680176 -1.3021408319473267
-0.8785962462425232 1.9975930452346802 -1.5866644382476807
-0.8785913586616516 1.9976001977920532 -1.8711881637573242
-0.8785864114761353 1.9976074695587158 -2.1557118892669678
-0.8785814642906189 1.9976146221160889 -2.4402353763580322
-0.8785765767097473 1.9976218938827515 -2.724759101867676
-0.878571629524231 1.9976290464401245 -3.0092828273773193
-0.6197993159294128 2.269826650619507 1.2585833072662354
-0.6197944283485413 2.269834041595459 0.9740597009658813
-0.6197894811630249 2.269841194152832 0.6895360946655273
-0.6197845935821533 2.269848346710205 0.40501242876052856
-0.619779646396637 2.2698557376861572 0.12048877775669098
-0.6197746992111206 2.2698628902435303 -0.1640348732471466
-0.619769811630249 2.2698700428009033 -0.448558509349823
-0.6197648644447327 2.2698771953582764 -0.7330821752548218
-0.6197599768638611 2.2698845863342285 -1.0176057815551758
-0.6197550296783447 2.2698917388916016 -1.3021295070648193
-0.6197501420974731 2.2698988914489746 -1.5866531133651733
-0.6197451949119568 2.2699062824249268 -1.8711767196655273
-0.6197403073310852 2.2699134349823 -2.155700445175171
-0.6197353601455688 2.269920587539673 -2.4402239322662354
-0.6197304129600525 2.269927740097046 -2.724747657775879
-0.6197255253791809 2.269935131072998 -3.0092713832855225
-0.3114370107650757 2.4844532012939453 1.2585941553115845
-0.3114320933818817 2.4844605922698975 0.9740704894065857
-0.31142714619636536 2.4844677448272705 0.6895468235015869
-0.3114222288131714 2.4844748973846436 0.4050232172012329
-0.3114173114299774 2.4844820499420166 0.12049955874681473
-0.31141239404678345 2.4844894409179688 -0.16402408480644226
-0.3114074766635895 2.484496593475342 -0.44854772090911865
-0.3114025592803955 2.484503746032715 -0.7330713868141174
-0.31139764189720154 2.484511137008667 -1.0175950527191162
-0.31139272451400757 2.48451828956604 -1.3021186590194702
-0.3113878071308136 2.484525442123413 -1.5866422653198242
-0.31138285994529724 2.484532594680786 -1.8711659908294678
-0.31137794256210327 2.4845399856567383 -2.1556897163391113
-0.3113730251789093 2.4845471382141113 -2.440213203430176
-0.31136810779571533 2.4845542907714844 -2.7247369289398193
-0.31136319041252136 2.4845616817474365 -3.009260654449463
0.03381713107228279 2.63261342048645 1.2586039304733276
0.03382205218076706 2.6326208114624023 0.9740802049636841
0.03382697328925133 2.6326279640197754 0.6895565986633301
0.033831894397735596 2.6326351165771484 0.4050329327583313
0.033836815506219864 2.6326422691345215 0.12050928920507431
0.03384173661470413 2.6326496601104736 -0.16401435434818268
0.0338466577231884 2.6326568126678467 -0.44853800535202026
0.03385157883167267 2.6326639652252197 -0.733061671257019
0.03385649994015694 2.632671356201172 -1.017585277557373
0.033861421048641205 2.632678508758545 -1.302108883857727
0.03386634215712547 2.632685661315918 -1.5866326093673706
0.03387125954031944 2.632692813873291 -1.8711562156677246
0.03387618064880371 2.632700204849243 -2.155679941177368
0.03388110175728798 2.632707357406616 -2.4402034282684326
0.03388602286577225 2.6327145099639893 -2.724727153778076
0.033890943974256516 2.6327219009399414 -3.0092508792877197
0.4018283188343048 2.7082417011260986 1.2586121559143066
0.4018332362174988 2.7082488536834717 0.9740884900093079
0.40183815360069275 2.708256244659424 0.6895648837089539
0.4018431007862091 2.708263397216797 0.4050412178039551
0.4018480181694031 2.70827054977417 0.12051757425069809
0.40185293555259705 2.708277702331543 -0.1640060693025589
0.401857852935791 2.708285093307495 -0.4485297203063965
0.401862770318985 2.708292245864868 -0.7330533862113953
0.40186768770217896 2.708299398422241 -1.017577052116394
0.4018726050853729 2.7083067893981934 -1.302100658416748
0.4018775224685669 2.7083139419555664 -1.586624264717102
0.40188246965408325 2.7083210945129395 -1.8711479902267456
0.4018873870372772 2.7083282470703125 -2.1556715965270996
0.4018923044204712 2.7083356380462646 -2.440195322036743
0.40189722180366516 2.7083427906036377 -2.7247188091278076
0.40190213918685913 2.7083499431610107 -3.009242534637451
0.7775301337242126 2.7082417011260986 1.258618712425232
0.777535080909729 2.7082488536834717 0.9740949869155884
0.7775400280952454 2.708256244659424 0.6895713806152344
0.7775449156761169 2.708263397216797 0.4050477147102356
0.7775498628616333 2.70827054977417 0.12052407115697861
0.7775547504425049 2.708277702331543 -0.16399957239627838
0.7775596976280212 2.708285093307495 -0.44852322340011597
0.7775645852088928 2.708292245864868 -0.7330468893051147
0.7775695323944092 2.708299398422241 -1.0175704956054688
0.7775744199752808 2.7083067893981934 -1.3020941019058228
0.7775793671607971 2.7083139419555664 -1.5866178274154663
0.7775843143463135 2.7083210945129395 -1.8711414337158203
0.7775892019271851 2.7083282470703125 -2.155665159225464
0.7775941491127014 2.7083356380462646 -2.4401886463165283
0.777599036693573 2.7083427906036377 -2.724712371826172
0.7776039838790894 2.7083499431610107 -3.0092360973358154
1.1455413103103638 2.63261342048645 1.2586231231689453
1.145546317100525 2.6326208114624023 0.9740994572639465
1.1455512046813965 2.6326279640197754 0.6895757913589478
1.145556092262268 2.6326351165771484 0.40505215525627136
1.1455609798431396 2.6326422691345215 0.12052851915359497
1.1455659866333008 2.6326496601104736 -0.16399513185024261
1.1455708742141724 2.6326568126678467 -0.4485187828540802
1.145575761795044 2.6326639652252197 -0.7330424189567566
1.145580768585205 2.632671356201172 -1.0175660848617554
1.1455856561660767 2.632678508758545 -1.3020896911621094
1.1455905437469482 2.632685661315918 -1.5866132974624634
1.1455954313278198 2.632692813873291 -1.871137022972107
1.145600438117981 2.632700204849243 -2.155660629272461
1.1456053256988525 2.632707357406616 -2.4401843547821045
1.1456102132797241 2.6327145099639893 -2.724707841873169
1.1456152200698853 2.6327219009399414 -3.0092315673828125
1.4907954931259155 2.4844532012939453 1.2586252689361572
1.490800380706787 2.4844605922698975 0.9741016626358032
1.4908052682876587 2.4844677448272705 0.6895779967308044
1.4908102750778198 2.4844748973846436 0.40505439043045044
1.4908151626586914 2.4844820499420166 0.12053073197603226
1.490820050239563 2.4844894409179688 -0.16399291157722473
1.4908250570297241 2.484496593475342 -0.4485165476799011
1.4908299446105957 2.484503746032715 -0.7330402135848999
1.4908348321914673 2.484511137008667 -1.017563819885254
1.4908397197723389 2.48451828956604 -1.3020875453948975
1.4908447265625 2.484525442123413 -1.5866111516952515
1.4908496141433716 2.484532594680786 -1.8711347579956055
1.4908545017242432 2.4845399856567383 -2.155658483505249
1.4908595085144043 2.4845471382141113 -2.4401819705963135
1.4908643960952759 2.4845542907714844 -2.724705696105957
1.4908692836761475 2.4845616817474365 -3.0092294216156006
1.7991578578948975 2.269826650619507 1.2586251497268677
1.799162745475769 2.269834041595459 0.9741015434265137
1.7991676330566406 2.269841194152832 0.6895779371261597
1.7991725206375122 2.269848346710205 0.4050542712211609
1.7991775274276733 2.2698557376861572 0.1205306127667427
1.799182415008545 2.2698628902435303 -0.16399303078651428
1.7991873025894165 2.2698700428009033 -0.4485166668891907
1.7991923093795776 2.2698771953582764 -0.7330403327941895
1.7991971969604492 2.2698845863342285 -1.0175639390945435
1.7992020845413208 2.2698917388916016 -1.302087664604187
1.7992069721221924 2.2698988914489746 -1.586611270904541
1.7992119789123535 2.2699062824249268 -1.871134877204895
1.799216866493225 2.2699134349823 -2.155658483505249
1.7992217540740967 2.269920587539673 -2.4401822090148926
1.7992267608642578 2.269927740097046 -2.724705934524536
1.7992316484451294 2.269935131072998 -3.0092294216156006
2.0580039024353027 1.9975208044052124 1.2586227655410767
2.058008909225464 1.9975279569625854 0.9740990996360779
2.058013677597046 1.997535228729248 0.6895754933357239
2.058018684387207 1.997542381286621 0.4050518274307251
2.058023691177368 1.9975496530532837 0.12052818387746811
2.05802845954895 1.9975569248199463 -0.16399545967578888
2.0580334663391113 1.9975640773773193 -0.44851911067962646
2.0580384731292725 1.997571349143982 -0.7330427765846252
2.0580432415008545 1.997578501701355 -1.017566442489624
2.0580482482910156 1.9975857734680176 -1.302090048789978
2.0580532550811768 1.9975930452346802 -1.586613655090332
2.058058023452759 1.9976001977920532 -1.8711373805999756
2.05806303024292 1.9976074695587158 -2.15566086769104
2.058068037033081 1.9976146221160889 -2.4401845932006836
2.058072805404663 1.9976218938827515 -2.724708318710327
2.058077812194824 1.9976290464401245 -3.0092318058013916
2.2567367553710938 1.6786835193634033 1.2586181163787842
2.256741523742676 1.678690791130066 0.9740944504737854
2.256746530532837 1.6786980628967285 0.6895708441734314
2.256751537322998 1.6787052154541016 0.4050471782684326
2.25675630569458 1.6787124872207642 0.12052352726459503
2.256761312484741 1.6787196397781372 -0.16400012373924255
2.2567663192749023 1.6787269115447998 -0.44852375984191895
2.2567710876464844 1.6787340641021729 -0.7330474257469177
2.2567760944366455 1.6787413358688354 -1.0175710916519165
2.2567811012268066 1.678748607635498 -1.3020946979522705
2.2567858695983887 1.678755760192871 -1.5866183042526245
2.25679087638855 1.6787630319595337 -1.871142029762268
2.256795644760132 1.6787701845169067 -2.155665636062622
2.256800651550293 1.6787774562835693 -2.4401893615722656
2.256805658340454 1.678784728050232 -2.72471284866333
2.256810426712036 1.678791880607605 -3.0092365741729736
2.3872199058532715 1.3263683319091797 1.2586114406585693
2.3872249126434326 1.3263756036758423 0.9740877747535706
2.3872296810150146 1.3263828754425049 0.6895641088485718
2.387234687805176 1.326390027999878 0.4050405025482178
2.387239694595337 1.3263972997665405 0.12051684409379959
2.387244462966919 1.3264044523239136 -0.1640067994594574
2.38724946975708 1.3264117240905762 -0.4485304355621338
2.387254476547241 1.3264188766479492 -0.7330541014671326
2.3872592449188232 1.3264261484146118 -1.0175777673721313
2.3872642517089844 1.3264334201812744 -1.3021013736724854
2.3872690200805664 1.3264405727386475 -1.5866249799728394
2.3872740268707275 1.32644784450531 -1.871148705482483
2.3872790336608887 1.326454997062683 -2.155672311782837
2.3872838020324707 1.3264622688293457 -2.4401960372924805
2.387288808822632 1.3264694213867188 -2.724719524383545
2.387293815612793 1.3264766931533813 -3.0092432498931885
2.4441115856170654 0.9549990296363831 1.2586029767990112
2.4441165924072266 0.9550062417984009 0.9740793108940125
2.4441213607788086 0.9550134539604187 0.6895557045936584
2.4441263675689697 0.9550206661224365 0.40503203868865967
2.444131374359131 0.9550278782844543 0.12050840258598328
2.444136142730713 0.9550351500511169 -0.1640152484178543
2.444141149520874 0.9550423622131348 -0.4485388994216919
2.444146156311035 0.9550495743751526 -0.7330625653266907
2.444150924682617 0.9550567865371704 -1.0175862312316895
2.4441559314727783 0.9550639986991882 -1.3021098375320435
2.4441606998443604 0.955071210861206 -1.5866334438323975
2.4441657066345215 0.9550784230232239 -1.871157169342041
2.4441707134246826 0.9550856947898865 -2.1556806564331055
2.4441754817962646 0.9550929069519043 -2.440204381942749
2.444180488586426 0.9551001191139221 -2.7247281074523926
2.444185495376587 0.9551073312759399 -3.009251594543457
2.4250826835632324 0.5797793865203857 1.2585930824279785
2.4250874519348145 0.5797865986824036 0.9740694761276245
2.4250924587249756 0.5797938108444214 0.6895458698272705
2.4250974655151367 0.579801082611084 0.40502220392227173
2.4251022338867188 0.5798082947731018 0.12049855291843414
2.42510724067688 0.5798155069351196 -0.16402509808540344
2.425112247467041 0.5798227190971375 -0.44854873418807983
2.425117015838623 0.5798299312591553 -0.7330724000930786
2.425122022628784 0.5798371434211731 -1.0175960063934326
2.4251270294189453 0.5798444151878357 -1.3021197319030762
2.4251317977905273 0.5798516273498535 -1.5866433382034302
2.4251368045806885 0.5798588395118713 -1.8711669445037842
2.4251415729522705 0.5798660516738892 -2.1556906700134277
2.4251465797424316 0.579873263835907 -2.440214157104492
2.4251515865325928 0.5798804759979248 -2.7247378826141357
2.425156354904175 0.5798876881599426 -3.0092616081237793
2.3309121131896973 0.21607105433940887 1.2585822343826294
2.3309168815612793 0.2160782665014267 0.9740586280822754
2.3309218883514404 0.2160854935646057 0.6895349621772766
2.3309266567230225 0.21609272062778473 0.4050113260746002
2.3309316635131836 0.21609993278980255 0.12048768997192383
2.3309366703033447 0.21610715985298157 -0.16403596103191376
2.3309414386749268 0.2161143720149994 -0.44855961203575134
2.330946445465088 0.2161215990781784 -0.7330832481384277
2.330951452255249 0.21612882614135742 -1.0176068544387817
2.330956220626831 0.21613603830337524 -1.3021305799484253
2.330961227416992 0.21614326536655426 -1.5866541862487793
2.3309662342071533 0.21615047752857208 -1.8711777925491333
2.3309710025787354 0.2161577045917511 -2.1557013988494873
2.3309760093688965 0.21616493165493011 -2.440225124359131
2.3309810161590576 0.21617214381694794 -2.7247488498687744
2.3309857845306396 0.21617937088012695 -3.009272336959839
2.1654551029205322 -0.12123575806617737 1.258570909500122
2.1654601097106934 -0.12122853845357895 0.9740471839904785
2.1654648780822754 -0.12122131884098053 0.6895235776901245
2.1654698848724365 -0.12121409922838211 0.40499991178512573
2.1654748916625977 -0.1212068721652031 0.12047626823186874
2.1654796600341797 -0.12119965255260468 -0.16404737532138824
2.165484666824341 -0.12119243294000626 -0.44857102632522583
2.165489673614502 -0.12118521332740784 -0.7330946922302246
2.165494441986084 -0.12117799371480942 -1.0176182985305786
2.165499448776245 -0.1211707666516304 -1.3021419048309326
2.165504217147827 -0.12116354703903198 -1.5866656303405762
2.1655092239379883 -0.12115632742643356 -1.8711892366409302
2.1655142307281494 -0.12114910781383514 -2.155712842941284
2.1655189990997314 -0.12114188820123672 -2.4402365684509277
2.1655240058898926 -0.1211346685886383 -2.7247602939605713
2.1655290126800537 -0.12112744152545929 -3.0092837810516357
1.9354857206344604 -0.41833165287971497 1.2585593461990356
1.9354907274246216 -0.41832444071769714 0.9740356802940369
1.9354956150054932 -0.41831719875335693 0.6895120143890381
1.9355005025863647 -0.4183099865913391 0.4049884080886841
1.9355055093765259 -0.4183027744293213 0.1204647496342659
1.9355103969573975 -0.41829556226730347 -0.1640588939189911
1.935515284538269 -0.41828832030296326 -0.4485825300216675
1.9355201721191406 -0.41828110814094543 -0.7331061959266663
1.9355251789093018 -0.4182738959789276 -1.017629861831665
1.9355300664901733 -0.4182666540145874 -1.302153468132019
1.935534954071045 -0.4182594418525696 -1.586677074432373
1.935539960861206 -0.41825222969055176 -1.8712007999420166
1.9355448484420776 -0.41824498772621155 -2.15572452545166
1.9355497360229492 -0.4182377755641937 -2.4402480125427246
1.9355546236038208 -0.4182305634021759 -2.724771738052368
1.935559630393982 -0.4182233512401581 -3.0092954635620117
1.650418996810913 -0.6630535125732422 1.2585481405258179
1.6504238843917847 -0.6630462408065796 0.9740245342254639
1.6504287719726562 -0.6630390286445618 0.6895009279251099
1.6504337787628174 -0.663031816482544 0.4049772620201111
1.650438666343689 -0.6630246043205261 0.1204536110162735
1.6504435539245605 -0.6630173921585083 -0.1640700399875641
1.6504484415054321 -0.6630101799964905 -0.4485936760902405
1.6504534482955933 -0.6630029678344727 -0.7331173419952393
1.6504583358764648 -0.6629956960678101 -1.0176409482955933
1.6504632234573364 -0.6629884839057922 -1.3021646738052368
1.650468111038208 -0.6629812717437744 -1.5866882801055908
1.6504731178283691 -0.6629740595817566 -1.8712118864059448
1.6504780054092407 -0.6629668474197388 -2.155735492706299
1.6504828929901123 -0.662959635257721 -2.4402592182159424
1.6504878997802734 -0.6629523634910583 -2.724782943725586
1.650492787361145 -0.6629451513290405 -3.0093064308166504
1.3219252824783325 -0.8453823328018188 1.2585378885269165
1.3219302892684937 -0.845375120639801 0.9740142226219177
1.3219351768493652 -0.8453679084777832 0.6894906163215637
1.3219400644302368 -0.8453606367111206 0.40496695041656494
1.321945071220398 -0.8453534245491028 0.12044329941272736
1.3219499588012695 -0.845346212387085 -0.16408035159111023
1.3219548463821411 -0.8453390002250671 -0.4486039876937866
1.3219597339630127 -0.8453317880630493 -0.7331276535987854
1.3219647407531738 -0.8453245759010315 -1.0176513195037842
1.3219696283340454 -0.8453173637390137 -1.3021749258041382
1.321974515914917 -0.8453100919723511 -1.5866985321044922
1.3219795227050781 -0.8453028798103333 -1.8712222576141357
1.3219844102859497 -0.8452956676483154 -2.1557459831237793
1.3219892978668213 -0.8452884554862976 -2.4402694702148438
1.3219941854476929 -0.8452812433242798 -2.7247931957244873
1.321999192237854 -0.845274031162262 -3.009316921234131
0.963453471660614 -0.9578536152839661 1.2585288286209106
0.9634584188461304 -0.9578464031219482 0.9740051627159119
0.963463306427002 -0.9578391313552856 0.6894815564155579
0.9634682536125183 -0.9578319191932678 0.4049578905105591
0.9634731411933899 -0.95782470703125 0.1204342469573021
0.9634780883789062 -0.9578174948692322 -0.1640893965959549
0.9634829759597778 -0.9578102827072144 -0.4486130475997925
0.9634879231452942 -0.9578030705451965 -0.7331367135047913
0.9634928107261658 -0.9577958583831787 -1.01766037940979
0.9634977579116821 -0.9577885866165161 -1.302183985710144
0.9635027050971985 -0.9577813744544983 -1.586707592010498
0.9635075926780701 -0.9577741622924805 -1.8712313175201416
0.9635125398635864 -0.9577669501304626 -2.155754804611206
0.963517427444458 -0.9577597379684448 -2.4402785301208496
0.9635223746299744 -0.957752525806427 -2.724802255630493
0.963527262210846 -0.9577452540397644 -3.0093257427215576
0.5896792411804199 -0.9958627223968506 1.2585214376449585
0.5896841883659363 -0.9958555102348328 0.9739977717399597
0.5896890759468079 -0.9958482980728149 0.6894741058349609
0.5896940231323242 -0.9958410859107971 0.40495046973228455
0.5896989107131958 -0.9958338141441345 0.12042681872844696
0.5897038578987122 -0.9958266019821167 -0.16409683227539062
0.5897087454795837 -0.9958193898200989 -0.448620468378067
0.5897136926651001 -0.995812177658081 -0.7331441044807434
0.5897185802459717 -0.9958049654960632 -1.0176677703857422
0.589723527431488 -0.9957977533340454 -1.3021913766860962
0.5897284746170044 -0.9957904815673828 -1.5867151021957397
0.589733362197876 -0.995783269405365 -1.8712387084960938
0.5897383093833923 -0.9957760572433472 -2.1557624340057373
0.5897431969642639 -0.9957688450813293 -2.4402859210968018
0.5897481441497803 -0.9957616329193115 -2.7248096466064453
0.5897530317306519 -0.9957544207572937 -3.009333372116089
