ply
format ascii 1.0
element vertex 512
property float x
property float y
property float z
end_header
0.014446258544921875 -1.0153441429138184 0.9682879447937012
0.014446252956986427 -1.0153441429138184 0.8346027731895447
0.01444624736905098 -1.0153441429138184 0.7009175419807434
0.014446241781115532 -1.0153441429138184 0.5672323107719421
0.014446236193180084 -1.0153441429138184 0.43354713916778564
0.014446230605244637 -1.0153441429138184 0.2998619079589844
0.014446225017309189 -1.0153441429138184 0.1661767065525055
0.014446219429373741 -1.0153441429138184 0.03249150514602661
0.014446213841438293 -1.0153441429138184 -0.10119370371103287
0.014446207322180271 -1.0153441429138184 -0.23487891256809235
0.014446201734244823 -1.0153441429138184 -0.3685641288757324
0.014446196146309376 -1.0153441429138184 -0.5022493004798889
0.014446190558373928 -1.0153441429138184 -0.6359345316886902
0.01444618497043848 -1.0153441429138184 -0.7696197628974915
0.014446179382503033 -1.0153441429138184 -0.903304934501648
0.014446173794567585 -1.0153441429138184 -1.0369901657104492
-0.18629799783229828 -0.9949303865432739 0.9682879447937012
-0.18629799783229828 -0.9949303865432739 0.8346027731895447
-0.18629801273345947 -0.9949303865432739 0.7009175419807434
-0.18629801273345947 -0.9949303865432739 0.5672323703765869
-0.18629802763462067 -0.9949303865432739 0.43354713916778564
-0.18629802763462067 -0.9949303865432739 0.29986193776130676
-0.18629802763462067 -0.9949303865432739 0.1661767214536667
-0.18629804253578186 -0.9949303865432739 0.03249151259660721
-0.18629804253578186 -0.9949303865432739 -0.10119369626045227
-0.18629804253578186 -0.9949303865432739 -0.23487889766693115
-0.18629805743694305 -0.9949303865432739 -0.36856409907341003
-0.18629805743694305 -0.9949303865432739 -0.5022493004798889
-0.18629807233810425 -0.9949303865432739 -0.6359345316886902
-0.18629807233810425 -0.9949303865432739 -0.7696197032928467
-0.18629807233810425 -0.9949303865432739 -0.903304934501648
-0.18629808723926544 -0.9949303865432739 -1.0369901657104492
-0.37882375717163086 -0.9345250129699707 0.9682879447937012
-0.37882375717163086 -0.9345250129699707 0.8346027731895447
-0.37882378697395325 -0.9345250129699707 0.7009175419807434
-0.37882378697395325 -0.9345250725746155 0.5672323703765869
-0.37882378697395325 -0.9345250725746155 0.43354713916778564
-0.37882378697395325 -0.9345250725746155 0.29986193776130676
-0.37882378697395325 -0.9345250725746155 0.1661767214536667
-0.37882381677627563 -0.9345250725746155 0.032491520047187805
-0.37882381677627563 -0.9345250725746155 -0.10119368880987167
-0.37882381677627563 -0.9345250725746155 -0.23487889766693115
-0.37882381677627563 -0.9345250725746155 -0.36856409907341003
-0.37882381677627563 -0.9345250725746155 -0.5022493004798889
-0.37882381677627563 -0.9345250725746155 -0.6359345316886902
-0.378823846578598 -0.9345250725746155 -0.7696197032928467
-0.378823846578598 -0.9345250725746155 -0.903304934501648
-0.378823846578598 -0.9345250725746155 -1.0369901657104492
-0.555249035358429 -0.8366010189056396 0.968288004398346
-0.555249035358429 -0.8366010189056396 0.8346027731895447
-0.555249035358429 -0.8366010189056396 0.7009175419807434
-0.555249035358429 -0.8366010189056396 0.5672323703765869
-0.555249035358429 -0.8366010189056396 0.43354713916778564
-0.555249035358429 -0.8366010189056396 0.29986193776130676
-0.555249035358429 -0.8366010785102844 0.16617673635482788
-0.555249035358429 -0.8366010785102844 0.0324915274977684
-0.555249035358429 -0.8366010785102844 -0.10119368135929108
-0.555249035358429 -0.8366010785102844 -0.23487888276576996
-0.555249035358429 -0.8366010785102844 -0.36856409907341003
-0.5552490949630737 -0.8366010785102844 -0.5022493004798889
-0.5552490949630737 -0.8366010785102844 -0.6359345316886902
-0.5552490949630737 -0.8366010785102844 -0.7696197032928467
-0.5552490949630737 -0.8366010785102844 -0.903304934501648
-0.5552490949630737 -0.8366010785102844 -1.0369901657104492
-0.7083508372306824 -0.7051674127578735 0.968288004398346
-0.7083508372306824 -0.7051674127578735 0.8346027731895447
-0.7083508968353271 -0.7051674127578735 0.7009175419807434
-0.7083508968353271 -0.7051674127578735 0.5672323703765869
-0.7083508968353271 -0.7051674127578735 0.43354713916778564
-0.7083508968353271 -0.7051674127578735 0.29986193776130676
-0.7083508968353271 -0.7051674127578735 0.16617673635482788
-0.7083508968353271 -0.7051674127578735 0.0324915312230587
-0.7083508968353271 -0.7051674127578735 -0.10119367390871048
-0.7083508968353271 -0.7051674127578735 -0.23487888276576996
-0.7083508968353271 -0.7051674127578735 -0.36856409907341003
-0.7083508968353271 -0.7051674127578735 -0.5022493004798889
-0.7083508968353271 -0.7051674127578735 -0.6359345316886902
-0.7083509564399719 -0.7051674127578735 -0.7696197032928467
-0.7083509564399719 -0.7051674127578735 -0.903304934501648
-0.7083509564399719 -0.7051674127578735 -1.0369901657104492
-0.8318613171577454 -0.5456050634384155 0.968288004398346
-0.8318613171577454 -0.5456050634384155 0.8346027731895447
-0.8318613171577454 -0.5456050634384155 0.7009176015853882
-0.8318613171577454 -0.5456050634384155 0.5672323703765869
-0.8318613171577454 -0.5456050634384155 0.43354716897010803
-0.8318613171577454 -0.5456050634384155 0.29986193776130676
-0.8318613171577454 -0.5456050634384155 0.16617673635482788
-0.8318613767623901 -0.5456050634384155 0.032491534948349
-0.8318613767623901 -0.5456050634384155 -0.10119367390871048
-0.8318613767623901 -0.5456050634384155 -0.23487888276576996
-0.8318613767623901 -0.5456050634384155 -0.36856409907341003
-0.8318613767623901 -0.5456050634384155 -0.5022493004798889
-0.8318613767623901 -0.5456050634384155 -0.6359344720840454
-0.8318613767623901 -0.5456050634384155 -0.7696197032928467
-0.8318613767623901 -0.5456050634384155 -0.903304934501648
-0.8318613767623901 -0.5456050634384155 -1.0369901657104492
-0.9207238554954529 -0.3644464910030365 0.968288004398346
-0.9207238554954529 -0.3644464910030365 0.8346027731895447
-0.9207238554954529 -0.3644464910030365 0.7009176015853882
-0.9207238554954529 -0.3644464910030365 0.5672323703765869
-0.9207238554954529 -0.3644464910030365 0.43354716897010803
-0.9207238554954529 -0.3644464910030365 0.29986193776130676
-0.9207238554954529 -0.3644464910030365 0.16617675125598907
-0.9207238554954529 -0.3644464910030365 0.032491534948349
-0.9207238554954529 -0.3644464910030365 -0.10119367390871048
-0.9207238554954529 -0.3644464910030365 -0.23487888276576996
-0.9207239151000977 -0.3644464910030365 -0.36856409907341003
-0.9207239151000977 -0.3644465208053589 -0.5022493004798889
-0.9207239151000977 -0.3644465208053589 -0.6359344720840454
-0.9207239151000977 -0.3644465208053589 -0.7696197032928467
-0.9207239151000977 -0.3644465208053589 -0.903304934501648
-0.9207239151000977 -0.3644465208053589 -1.0369901657104492
-0.9713003635406494 -0.1691083461046219 0.968288004398346
-0.9713003635406494 -0.1691083461046219 0.8346027731895447
-0.9713003635406494 -0.16910836100578308 0.7009176015853882
-0.9713004231452942 -0.16910836100578308 0.5672323703765869
-0.9713004231452942 -0.16910836100578308 0.43354716897010803
-0.9713004231452942 -0.16910836100578308 0.29986193776130676
-0.9713004231452942 -0.16910836100578308 0.16617675125598907
-0.9713004231452942 -0.16910836100578308 0.032491534948349
-0.9713004231452942 -0.16910836100578308 -0.10119367390871048
-0.9713004231452942 -0.16910836100578308 -0.23487888276576996
-0.9713004231452942 -0.16910836100578308 -0.36856409907341003
-0.9713004231452942 -0.16910836100578308 -0.5022493004798889
-0.9713004231452942 -0.16910837590694427 -0.6359344720840454
-0.971300482749939 -0.16910837590694427 -0.7696197032928467
-0.971300482749939 -0.16910837590694427 -0.903304934501648
-0.971300482749939 -0.16910837590694427 -1.0369901657104492
-0.9815203547477722 0.03241218999028206 0.968288004398346
-0.9815203547477722 0.03241218999028206 0.8346027731895447
-0.9815203547477722 0.03241218626499176 0.7009175419807434
-0.9815203547477722 0.03241218626499176 0.5672323703765869
-0.9815203547477722 0.03241218253970146 0.43354716897010803
-0.9815203547477722 0.03241218253970146 0.29986193776130676
-0.9815203547477722 0.03241217881441116 0.16617673635482788
-0.981520414352417 0.03241217881441116 0.032491534948349
-0.981520414352417 0.03241217881441116 -0.10119367390871048
-0.981520414352417 0.032412175089120865 -0.23487888276576996
-0.981520414352417 0.032412175089120865 -0.36856409907341003
-0.981520414352417 0.032412171363830566 -0.5022493004798889
-0.981520414352417 0.032412171363830566 -0.6359345316886902
-0.981520414352417 0.032412171363830566 -0.7696197032928467
-0.981520414352417 0.03241216763854027 -0.903304934501648
-0.981520414352417 0.03241216763854027 -1.0369901657104492
-0.9509653449058533 0.23186485469341278 0.968288004398346
-0.9509653449058533 0.23186485469341278 0.8346027731895447
-0.9509653449058533 0.23186485469341278 0.7009175419807434
-0.9509653449058533 0.23186485469341278 0.5672323703765869
-0.9509653449058533 0.23186485469341278 0.43354713916778564
-0.9509653449058533 0.23186485469341278 0.29986193776130676
-0.9509653449058533 0.23186485469341278 0.16617673635482788
-0.9509653449058533 0.2318648397922516 0.0324915312230587
-0.9509653449058533 0.2318648397922516 -0.10119367390871048
-0.9509653449058533 0.2318648397922516 -0.23487888276576996
-0.950965404510498 0.2318648397922516 -0.36856409907341003
-0.950965404510498 0.2318648397922516 -0.5022493004798889
-0.950965404510498 0.2318648397922516 -0.6359345316886902
-0.950965404510498 0.2318648397922516 -0.7696197032928467
-0.950965404510498 0.2318648397922516 -0.903304934501648
-0.950965404510498 0.2318648397922516 -1.0369901657104492
-0.8808862566947937 0.42108404636383057 0.968288004398346
-0.8808862566947937 0.42108404636383057 0.8346027731895447
-0.8808862566947937 0.4210840165615082 0.7009175419807434
-0.8808862566947937 0.4210840165615082 0.5672323703765869
-0.8808862566947937 0.4210840165615082 0.43354713916778564
-0.8808862566947937 0.4210840165615082 0.29986193776130676
-0.8808862566947937 0.4210840165615082 0.16617673635482788
-0.8808862566947937 0.4210840165615082 0.0324915274977684
-0.8808862566947937 0.4210840165615082 -0.10119368135929108
-0.8808862566947937 0.4210840165615082 -0.23487888276576996
-0.8808863162994385 0.4210840165615082 -0.36856409907341003
-0.8808863162994385 0.4210840165615082 -0.5022493004798889
-0.8808863162994385 0.4210840165615082 -0.6359345316886902
-0.8808863162994385 0.4210840165615082 -0.7696197032928467
-0.8808863162994385 0.4210840165615082 -0.903304934501648
-0.8808863162994385 0.4210840165615082 -1.0369901657104492
-0.7741521000862122 0.5923230648040771 0.9682879447937012
-0.7741521596908569 0.5923230648040771 0.8346027731895447
-0.7741521596908569 0.5923230648040771 0.7009175419807434
-0.7741521596908569 0.5923230648040771 0.5672323703765869
-0.7741521596908569 0.5923230648040771 0.43354713916778564
-0.7741521596908569 0.5923230648040771 0.29986193776130676
-0.7741521596908569 0.5923230648040771 0.1661767214536667
-0.7741521596908569 0.5923230648040771 0.032491520047187805
-0.7741521596908569 0.5923230648040771 -0.10119368880987167
-0.7741521596908569 0.5923230648040771 -0.23487889766693115
-0.7741521596908569 0.5923230648040771 -0.36856409907341003
-0.7741522192955017 0.5923230648040771 -0.5022493004798889
-0.7741522192955017 0.5923230648040771 -0.6359345316886902
-0.7741522192955017 0.5923230648040771 -0.7696197032928467
-0.7741522192955017 0.5923230648040771 -0.903304934501648
-0.7741522192955017 0.5923230648040771 -1.0369901657104492
-0.6351327300071716 0.7385714054107666 0.9682879447937012
-0.6351327300071716 0.7385714054107666 0.8346027731895447
-0.6351327300071716 0.7385714054107666 0.7009175419807434
-0.6351327300071716 0.7385714054107666 0.5672323703765869
-0.6351327300071716 0.7385714054107666 0.43354713916778564
-0.6351327300071716 0.7385714054107666 0.29986193776130676
-0.6351327300071716 0.7385714054107666 0.1661767214536667
-0.6351327300071716 0.7385714054107666 0.03249151259660721
-0.6351327300071716 0.7385714054107666 -0.10119369626045227
-0.6351327896118164 0.7385714054107666 -0.23487889766693115
-0.6351327896118164 0.7385714054107666 -0.36856409907341003
-0.6351327896118164 0.7385714054107666 -0.5022493004798889
-0.6351327896118164 0.7385714054107666 -0.6359345316886902
-0.6351327896118164 0.7385714054107666 -0.7696197032928467
-0.6351327896118164 0.7385714054107666 -0.903304934501648
-0.6351327896118164 0.7385714054107666 -1.0369901657104492
-0.4695194661617279 0.8538416624069214 0.9682879447937012
-0.4695194661617279 0.8538416624069214 0.8346027731895447
-0.4695194661617279 0.8538416624069214 0.7009175419807434
-0.4695194661617279 0.8538416624069214 0.5672323107719421
-0.4695194661617279 0.8538416028022766 0.43354713916778564
-0.4695194959640503 0.8538416028022766 0.2998619079589844
-0.4695194959640503 0.8538416028022766 0.1661767065525055
-0.4695194959640503 0.8538416028022766 0.03249150514602661
-0.4695194959640503 0.8538416028022766 -0.10119370371103287
-0.4695194959640503 0.8538416028022766 -0.23487891256809235
-0.4695195257663727 0.8538416028022766 -0.3685641288757324
-0.4695195257663727 0.8538416028022766 -0.5022493004798889
-0.4695195257663727 0.8538416028022766 -0.6359345316886902
-0.4695195257663727 0.8538416028022766 -0.7696197628974915
-0.4695195257663727 0.8538416028022766 -0.903304934501648
-0.4695195257663727 0.8538416028022766 -1.0369901657104492
-0.28409257531166077 0.9334145784378052 0.9682879447937012
-0.28409260511398315 0.9334145784378052 0.8346027135848999
-0.28409260511398315 0.9334145784378052 0.7009175419807434
-0.28409260511398315 0.9334145784378052 0.5672323107719421
-0.28409260511398315 0.9334145784378052 0.43354710936546326
-0.28409260511398315 0.9334145784378052 0.2998619079589844
-0.28409263491630554 0.9334145784378052 0.1661767065525055
-0.28409263491630554 0.9334145784378052 0.032491493970155716
-0.28409263491630554 0.9334145784378052 -0.10119371116161346
-0.28409263491630554 0.9334145784378052 -0.23487891256809235
-0.28409263491630554 0.9334145784378052 -0.3685641288757324
-0.28409263491630554 0.9334145784378052 -0.5022493600845337
-0.28409266471862793 0.9334145784378052 -0.6359345316886902
-0.28409266471862793 0.9334145784378052 -0.7696197628974915
-0.28409266471862793 0.9334145784378052 -0.903304934501648
-0.28409266471862793 0.9334145784378052 -1.0369901657104492
-0.08644350618124008 0.9740325212478638 0.9682879447937012
-0.08644350618124008 0.9740325212478638 0.8346027135848999
-0.08644351363182068 0.974032461643219 0.7009175419807434
-0.08644352108240128 0.974032461643219 0.5672323107719421
-0.08644352853298187 0.974032461643219 0.43354710936546326
-0.08644352853298187 0.974032461643219 0.2998619079589844
-0.08644353598356247 0.974032461643219 0.1661766916513443
-0.08644354343414307 0.974032461643219 0.03249148651957512
-0.08644355088472366 0.974032461643219 -0.10119371861219406
-0.08644355088472366 0.974032461643219 -0.23487892746925354
-0.08644355833530426 0.974032461643219 -0.3685641288757324
-0.08644356578588486 0.974032461643219 -0.5022493600845337
-0.08644357323646545 0.974032461643219 -0.6359345316886902
-0.08644357323646545 0.974032461643219 -0.7696197628974915
-0.08644358068704605 0.974032461643219 -0.9033049941062927
-0.08644358813762665 0.974032461643219 -1.0369901657104492
0.11533602327108383 0.9740325212478638 0.9682879447937012
0.11533601582050323 0.9740325212478638 0.8346027135848999
0.11533600836992264 0.974032461643219 0.7009175419807434
0.11533600091934204 0.974032461643219 0.5672323107719421
0.11533600091934204 0.974032461643219 0.43354710936546326
0.11533599346876144 0.974032461643219 0.299861878156662
0.11533598601818085 0.974032461643219 0.1661766916513443
0.11533597856760025 0.974032461643219 0.03249147906899452
0.11533597856760025 0.974032461643219 -0.10119372606277466
0.11533597111701965 0.974032461643219 -0.23487894237041473
0.11533596366643906 0.974032461643219 -0.3685641586780548
0.11533595621585846 0.974032461643219 -0.5022493600845337
0.11533594876527786 0.974032461643219 -0.6359345316886902
0.11533594876527786 0.974032461643219 -0.7696197628974915
0.11533594131469727 0.974032461643219 -0.9033049941062927
0.11533593386411667 0.974032461643219 -1.0369901657104492
0.3129850924015045 0.9334145784378052 0.9682879447937012
0.3129850924015045 0.9334145784378052 0.8346027135848999
0.3129850924015045 0.9334145784378052 0.7009174823760986
0.3129850924015045 0.9334145784378052 0.5672323107719421
0.3129850924015045 0.9334145784378052 0.43354707956314087
0.31298506259918213 0.9334145784378052 0.299861878156662
0.31298506259918213 0.9334145784378052 0.1661766767501831
0.31298506259918213 0.9334145784378052 0.032491471618413925
0.31298506259918213 0.9334145784378052 -0.10119374096393585
0.31298506259918213 0.9334145784378052 -0.23487894237041473
0.31298506259918213 0.9334145784378052 -0.3685641586780548
0.31298503279685974 0.9334145784378052 -0.5022493600845337
0.31298503279685974 0.9334145784378052 -0.635934591293335
0.31298503279685974 0.9334145784378052 -0.7696197628974915
0.31298503279685974 0.9334145784378052 -0.9033049941062927
0.31298503279685974 0.9334145784378052 -1.0369901657104492
0.49841198325157166 0.8538416624069214 0.9682878851890564
0.49841195344924927 0.8538416624069214 0.8346027135848999
0.49841195344924927 0.8538416624069214 0.7009174823760986
0.49841195344924927 0.8538416624069214 0.5672323107719421
0.49841195344924927 0.8538416028022766 0.43354707956314087
0.49841195344924927 0.8538416028022766 0.299861878156662
0.49841195344924927 0.8538416028022766 0.1661766767501831
0.4984119236469269 0.8538416028022766 0.03249146416783333
0.4984119236469269 0.8538416028022766 -0.10119374096393585
0.4984119236469269 0.8538416028022766 -0.23487895727157593
0.4984119236469269 0.8538416028022766 -0.3685641586780548
0.4984119236469269 0.8538416028022766 -0.5022493600845337
0.4984118938446045 0.8538416028022766 -0.635934591293335
0.4984118938446045 0.8538416028022766 -0.7696197628974915
0.4984118938446045 0.8538416028022766 -0.9033049941062927
0.4984118938446045 0.8538416028022766 -1.0369901657104492
0.6640252470970154 0.7385714054107666 0.9682878851890564
0.6640252470970154 0.7385714054107666 0.8346027135848999
0.6640251874923706 0.7385714054107666 0.7009174823760986
0.6640251874923706 0.7385714054107666 0.5672323107719421
0.6640251874923706 0.7385714054107666 0.43354707956314087
0.6640251874923706 0.7385714054107666 0.299861878156662
0.6640251874923706 0.7385714054107666 0.1661766618490219
0.6640251874923706 0.7385714054107666 0.03249145671725273
0.6640251874923706 0.7385714054107666 -0.10119374841451645
0.6640251874923706 0.7385714054107666 -0.23487895727157593
0.6640251874923706 0.7385714054107666 -0.3685641586780548
0.6640251874923706 0.7385714054107666 -0.5022493600845337
0.6640251874923706 0.7385714054107666 -0.635934591293335
0.6640251278877258 0.7385714054107666 -0.7696197628974915
0.6640251278877258 0.7385714054107666 -0.9033049941062927
0.6640251278877258 0.7385714054107666 -1.0369901657104492
0.8030446171760559 0.5923230648040771 0.9682878851890564
0.8030446171760559 0.5923230648040771 0.8346027135848999
0.8030446171760559 0.5923230648040771 0.7009174823760986
0.8030446171760559 0.5923230648040771 0.5672323107719421
0.8030446171760559 0.5923230648040771 0.43354707956314087
0.8030446171760559 0.5923230648040771 0.299861878156662
0.8030446171760559 0.5923230648040771 0.1661766618490219
0.8030446171760559 0.5923230648040771 0.03249145299196243
0.8030446171760559 0.5923230648040771 -0.10119375586509705
0.8030446171760559 0.5923230648040771 -0.23487895727157593
0.8030446171760559 0.5923230648040771 -0.3685641586780548
0.8030445575714111 0.5923230648040771 -0.5022493600845337
0.8030445575714111 0.5923230648040771 -0.635934591293335
0.8030445575714111 0.5923230648040771 -0.7696197628974915
0.8030445575714111 0.5923230648040771 -0.9033049941062927
0.8030445575714111 0.5923230648040771 -1.0369901657104492
0.9097787737846375 0.42108404636383057 0.9682878851890564
0.9097787737846375 0.42108404636383057 0.8346027135848999
0.9097787141799927 0.4210840165615082 0.7009174823760986
0.9097787141799927 0.4210840165615082 0.5672322511672974
0.9097787141799927 0.4210840165615082 0.43354707956314087
0.9097787141799927 0.4210840165615082 0.299861878156662
0.9097787141799927 0.4210840165615082 0.1661766618490219
0.9097787141799927 0.4210840165615082 0.032491449266672134
0.9097787141799927 0.4210840165615082 -0.10119375586509705
0.9097787141799927 0.4210840165615082 -0.23487895727157593
0.9097787141799927 0.4210840165615082 -0.3685641586780548
0.9097787141799927 0.4210840165615082 -0.5022493600845337
0.9097786545753479 0.4210840165615082 -0.635934591293335
0.9097786545753479 0.4210840165615082 -0.7696198225021362
0.9097786545753479 0.4210840165615082 -0.9033049941062927
0.9097786545753479 0.4210840165615082 -1.0369901657104492
0.979857861995697 0.23186485469341278 0.9682878851890564
0.979857861995697 0.23186485469341278 0.8346027135848999
0.9798578023910522 0.23186485469341278 0.7009174823760986
0.9798578023910522 0.23186485469341278 0.5672322511672974
0.9798578023910522 0.23186485469341278 0.43354707956314087
0.9798578023910522 0.23186485469341278 0.299861878156662
0.9798578023910522 0.23186485469341278 0.1661766618490219
0.9798578023910522 0.2318648397922516 0.032491449266672134
0.9798578023910522 0.2318648397922516 -0.10119375586509705
0.9798578023910522 0.2318648397922516 -0.23487897217273712
0.9798578023910522 0.2318648397922516 -0.3685641586780548
0.9798578023910522 0.2318648397922516 -0.5022493600845337
0.9798577427864075 0.2318648397922516 -0.635934591293335
0.9798577427864075 0.2318648397922516 -0.7696198225021362
0.9798577427864075 0.2318648397922516 -0.9033049941062927
0.9798577427864075 0.2318648397922516 -1.0369901657104492
1.0104128122329712 0.03241218999028206 0.9682878851890564
1.0104128122329712 0.03241218999028206 0.8346027135848999
1.0104128122329712 0.03241218626499176 0.7009174823760986
1.0104128122329712 0.03241218626499176 0.5672322511672974
1.0104128122329712 0.03241218253970146 0.43354707956314087
1.0104128122329712 0.03241218253970146 0.299861878156662
1.0104128122329712 0.03241217881441116 0.1661766618490219
1.0104128122329712 0.03241217881441116 0.032491449266672134
1.0104128122329712 0.03241217881441116 -0.10119375586509705
1.0104128122329712 0.032412175089120865 -0.23487895727157593
1.0104128122329712 0.032412175089120865 -0.3685641586780548
1.0104128122329712 0.032412171363830566 -0.5022493600845337
1.0104128122329712 0.032412171363830566 -0.635934591293335
1.0104128122329712 0.032412171363830566 -0.7696198225021362
1.0104128122329712 0.03241216763854027 -0.9033049941062927
1.0104128122329712 0.03241216763854027 -1.0369901657104492
1.0001928806304932 -0.1691083461046219 0.9682878851890564
1.0001928806304932 -0.1691083461046219 0.8346027135848999
1.0001928806304932 -0.16910836100578308 0.7009174823760986
1.0001928806304932 -0.16910836100578308 0.5672323107719421
1.0001928806304932 -0.16910836100578308 0.43354707956314087
1.0001928806304932 -0.16910836100578308 0.299861878156662
1.0001928806304932 -0.16910836100578308 0.1661766618490219
1.0001928806304932 -0.16910836100578308 0.03249145299196243
1.0001928806304932 -0.16910836100578308 -0.10119375586509705
1.0001928806304932 -0.16910836100578308 -0.23487895727157593
1.0001928806304932 -0.16910836100578308 -0.3685641586780548
1.0001928806304932 -0.16910836100578308 -0.5022493600845337
1.0001928806304932 -0.16910837590694427 -0.635934591293335
1.0001928806304932 -0.16910837590694427 -0.7696197628974915
1.0001927614212036 -0.16910837590694427 -0.9033049941062927
1.0001927614212036 -0.16910837590694427 -1.0369901657104492
0.9496163725852966 -0.3644464910030365 0.9682878851890564
0.9496163725852966 -0.3644464910030365 0.8346027135848999
0.9496163129806519 -0.3644464910030365 0.7009174823760986
0.9496163129806519 -0.3644464910030365 0.5672323107719421
0.9496163129806519 -0.3644464910030365 0.43354707956314087
0.9496163129806519 -0.3644464910030365 0.299861878156662
0.9496163129806519 -0.3644464910030365 0.1661766618490219
0.9496163129806519 -0.3644464910030365 0.03249145671725273
0.9496163129806519 -0.3644464910030365 -0.10119374841451645
0.9496163129806519 -0.3644464910030365 -0.23487895727157593
0.9496163129806519 -0.3644464910030365 -0.3685641586780548
0.9496163129806519 -0.3644465208053589 -0.5022493600845337
0.9496162533760071 -0.3644465208053589 -0.635934591293335
0.9496162533760071 -0.3644465208053589 -0.7696197628974915
0.9496162533760071 -0.3644465208053589 -0.9033049941062927
0.9496162533760071 -0.3644465208053589 -1.0369901657104492
0.8607538342475891 -0.5456050634384155 0.9682879447937012
0.8607538342475891 -0.5456050634384155 0.8346027135848999
0.8607538342475891 -0.5456050634384155 0.7009174823760986
0.8607538342475891 -0.5456050634384155 0.5672323107719421
0.8607538342475891 -0.5456050634384155 0.43354707956314087
0.8607537746429443 -0.5456050634384155 0.299861878156662
0.8607537746429443 -0.5456050634384155 0.1661766767501831
0.8607537746429443 -0.5456050634384155 0.03249146416783333
0.8607537746429443 -0.5456050634384155 -0.10119374096393585
0.8607537746429443 -0.5456050634384155 -0.23487895727157593
0.8607537746429443 -0.5456050634384155 -0.3685641586780548
0.8607537746429443 -0.5456050634384155 -0.5022493600845337
0.8607537746429443 -0.5456050634384155 -0.635934591293335
0.8607537746429443 -0.5456050634384155 -0.7696197628974915
0.8607537746429443 -0.5456050634384155 -0.9033049941062927
0.8607537150382996 -0.5456050634384155 -1.0369901657104492
0.7372433543205261 -0.7051674127578735 0.9682879447937012
0.7372433543205261 -0.7051674127578735 0.8346027135848999
0.7372433543205261 -0.7051674127578735 0.7009174823760986
0.7372433543205261 -0.7051674127578735 0.5672323107719421
0.7372433543205261 -0.7051674127578735 0.43354707956314087
0.7372433543205261 -0.7051674127578735 0.299861878156662
0.7372433543205261 -0.7051674127578735 0.1661766767501831
0.7372433543205261 -0.7051674127578735 0.032491471618413925
0.7372433543205261 -0.7051674127578735 -0.10119373351335526
0.7372432947158813 -0.7051674127578735 -0.23487894237041473
0.7372432947158813 -0.7051674127578735 -0.3685641586780548
0.7372432947158813 -0.7051674127578735 -0.5022493600845337
0.7372432947158813 -0.7051674127578735 -0.635934591293335
0.7372432947158813 -0.7051674127578735 -0.7696197628974915
0.7372432947158813 -0.7051674127578735 -0.9033049941062927
0.7372432947158813 -0.7051674127578735 -1.0369901657104492
0.5841415524482727 -0.8366010189056396 0.9682879447937012
0.5841414928436279 -0.8366010189056396 0.8346027135848999
0.5841414928436279 -0.8366010189056396 0.7009175419807434
0.5841414928436279 -0.8366010189056396 0.5672323107719421
0.5841414928436279 -0.8366010189056396 0.43354710936546326
0.5841414928436279 -0.8366010189056396 0.2998619079589844
0.5841414928436279 -0.8366010785102844 0.1661766916513443
0.5841414928436279 -0.8366010785102844 0.03249147906899452
0.5841414928436279 -0.8366010785102844 -0.10119372606277466
0.5841414928436279 -0.8366010785102844 -0.23487894237041473
0.5841414928436279 -0.8366010785102844 -0.3685641288757324
0.5841414332389832 -0.8366010785102844 -0.5022493600845337
0.5841414332389832 -0.8366010785102844 -0.6359345316886902
0.5841414332389832 -0.8366010785102844 -0.7696197628974915
0.5841414332389832 -0.8366010785102844 -0.9033049941062927
0.5841414332389832 -0.8366010785102844 -1.0369901657104492
0.4077162742614746 -0.9345250129699707 0.9682879447937012
0.4077162742614746 -0.9345250129699707 0.8346027135848999
0.4077162742614746 -0.9345250129699707 0.7009175419807434
0.4077162742614746 -0.9345250725746155 0.5672323107719421
0.4077162444591522 -0.9345250725746155 0.43354710936546326
0.4077162444591522 -0.9345250725746155 0.2998619079589844
0.4077162444591522 -0.9345250725746155 0.1661766916513443
0.4077162444591522 -0.9345250725746155 0.03249148651957512
0.4077162444591522 -0.9345250725746155 -0.10119371861219406
0.40771621465682983 -0.9345250725746155 -0.23487892746925354
0.40771621465682983 -0.9345250725746155 -0.3685641288757324
0.40771621465682983 -0.9345250725746155 -0.5022493600845337
0.40771621465682983 -0.9345250725746155 -0.6359345316886902
0.40771621465682983 -0.9345250725746155 -0.7696197628974915
0.40771621465682983 -0.9345250725746155 -0.9033049941062927
0.40771618485450745 -0.9345250725746155 -1.0369901657104492
0.21519051492214203 -0.9949303865432739 0.9682879447937012
0.21519051492214203 -0.9949303865432739 0.8346027135848999
0.21519050002098083 -0.9949303865432739 0.7009175419807434
0.21519050002098083 -0.9949303865432739 0.5672323107719421
0.21519050002098083 -0.9949303865432739 0.43354710936546326
0.21519048511981964 -0.9949303865432739 0.2998619079589844
0.21519048511981964 -0.9949303865432739 0.1661767065525055
0.21519047021865845 -0.9949303865432739 0.032491497695446014
0.21519047021865845 -0.9949303865432739 -0.10119371116161346
0.21519047021865845 -0.9949303865432739 -0.23487891256809235
0.21519045531749725 -0.9949303865432739 -0.3685641288757324
0.21519045531749725 -0.9949303865432739 -0.5022493600845337
0.21519045531749725 -0.9949303865432739 -0.6359345316886902
0.21519044041633606 -0.9949303865432739 -0.7696197628974915
0.21519044041633606 -0.9949303865432739 -0.903304934501648
0.21519042551517487 -0.9949303865432739 -1.0369901657104492
0.014446258544921875 -1.0153441429138184 0.9682879447937012
0.014446252956986427 -1.0153441429138184 0.8346027731895447
0.01444624736905098 -1.0153441429138184 0.7009175419807434
0.014446241781115532 -1.0153441429138184 0.5672323107719421
0.014446236193180084 -1.0153441429138184 0.43354713916778564
0.014446230605244637 -1.0153441429138184 0.2998619079589844
0.014446225017309189 -1.0153441429138184 0.1661767065525055
0.014446219429373741 -1.0153441429138184 0.03249150514602661
0.014446213841438293 -1.0153441429138184 -0.10119370371103287
0.014446207322180271 -1.0153441429138184 -0.23487891256809235
0.014446201734244823 -1.0153441429138184 -0.3685641288757324
0.014446196146309376 -1.0153441429138184 -0.5022493004798889
0.014446190558373928 -1.0153441429138184 -0.6359345316886902
0.01444618497043848 -1.0153441429138184 -0.7696197628974915
0.014446179382503033 -1.0153441429138184 -0.903304934501648
0.014446173794567585 -1.0153441429138184 -1.0369901657104492
