ply
format ascii 1.0
element vertex 512
property float x
property float y
property float z
end_header
0.6741235256195068 -1.0026671886444092 1.4777544736862183
0.6733713150024414 -0.9981773495674133 1.1932719945907593
0.6726191639900208 -0.9936873912811279 0.9087894558906555
0.6718669533729553 -0.9891974925994873 0.624306857585907
0.6711147427558899 -0.9847075939178467 0.3398243188858032
0.6703625917434692 -0.980217695236206 0.05534178018569946
0.6696103811264038 -0.9757277965545654 -0.2291407734155655
0.6688581705093384 -0.9712378978729248 -0.5136232972145081
0.668105959892273 -0.9667479991912842 -0.7981058955192566
0.6673538088798523 -0.9622580409049988 -1.0825884342193604
0.6666015982627869 -0.9577681422233582 -1.3670709133148193
0.6658493876457214 -0.9532782435417175 -1.6515535116195679
0.6650972366333008 -0.9487883448600769 -1.9360361099243164
0.6643450260162354 -0.9442984461784363 -2.2205185890197754
0.6635928153991699 -0.9398085474967957 -2.5050010681152344
0.6628406643867493 -0.9353185892105103 -2.7894837856292725
0.3003506064414978 -0.9646784663200378 1.4793423414230347
0.29959842562675476 -0.9601885080337524 1.1948598623275757
0.29884621500968933 -0.9556986093521118 0.9103772640228271
0.2980940341949463 -0.9512087106704712 0.6258947253227234
0.29734182357788086 -0.9467188119888306 0.34141218662261963
0.2965896427631378 -0.9422289133071899 0.05692962929606438
0.2958374619483948 -0.9377390146255493 -0.22755292057991028
0.29508525133132935 -0.9332490563392639 -0.5120354890823364
0.2943330705165863 -0.9287591576576233 -0.7965180277824402
0.2935808598995209 -0.9242692589759827 -1.081000566482544
0.29282867908477783 -0.919779360294342 -1.3654831647872925
0.2920764982700348 -0.9152894616127014 -1.6499656438827515
0.29132428765296936 -0.9107995629310608 -1.9344482421875
0.2905721068382263 -0.9063096642494202 -2.218930721282959
0.2898199260234833 -0.9018197059631348 -2.503413200378418
0.28906771540641785 -0.8973298072814941 -2.787895917892456
-0.0581200085580349 -0.8522361516952515 1.4820648431777954
-0.058872200548648834 -0.8477461934089661 1.1975822448730469
-0.05962439626455307 -0.8432562947273254 0.9130997657775879
-0.06037658825516701 -0.8387663960456848 0.6286171674728394
-0.061128780245780945 -0.8342764973640442 0.344134658575058
-0.06188097223639488 -0.8297865986824036 0.05965209752321243
-0.06263316422700882 -0.8252967000007629 -0.22483044862747192
-0.06338535249233246 -0.8208067417144775 -0.5093129873275757
-0.0641375482082367 -0.8163168430328369 -0.7937955260276794
-0.06488974392414093 -0.8118269443511963 -1.0782780647277832
-0.06564193218946457 -0.8073370456695557 -1.3627606630325317
-0.0663941279053688 -0.802847146987915 -1.6472431421279907
-0.06714631617069244 -0.7983572483062744 -1.9317257404327393
-0.06789851188659668 -0.7938673496246338 -2.2162082195281982
-0.06865070015192032 -0.7893773913383484 -2.5006909370422363
-0.06940289586782455 -0.7848874926567078 -2.7851734161376953
-0.3866124749183655 -0.6699436902999878 1.4858105182647705
-0.3873646855354309 -0.6654537916183472 1.201327919960022
-0.38811686635017395 -0.6609638929367065 0.9168453812599182
-0.3888690769672394 -0.6564739942550659 0.6323628425598145
-0.3896212577819824 -0.6519840955734253 0.3478802740573883
-0.39037343859672546 -0.6474941372871399 0.06339772045612335
-0.3911256492137909 -0.6430042386054993 -0.2210848331451416
-0.39187783002853394 -0.6385143399238586 -0.5055673718452454
-0.39263004064559937 -0.634024441242218 -0.7900499105453491
-0.3933822214603424 -0.6295345425605774 -1.0745325088500977
-0.39413440227508545 -0.6250446438789368 -1.3590149879455566
-0.3948866128921509 -0.6205546855926514 -1.6434975862503052
-0.3956387937068939 -0.6160647869110107 -1.9279800653457642
-0.39639097452163696 -0.6115748882293701 -2.2124626636505127
-0.3971431851387024 -0.6070849895477295 -2.4969451427459717
-0.39789536595344543 -0.6025950908660889 -2.7814278602600098
-0.6716783046722412 -0.42526423931121826 1.490425944328308
-0.6724305152893066 -0.42077431082725525 1.2059433460235596
-0.6731826663017273 -0.4162844121456146 0.9214608073234558
-0.6739348769187927 -0.411794513463974 0.636978268623352
-0.6746870875358582 -0.407304584980011 0.3524957001209259
-0.6754392981529236 -0.40281468629837036 0.06801316887140274
-0.6761914491653442 -0.39832478761672974 -0.21646937727928162
-0.6769436597824097 -0.3938348889350891 -0.5009519457817078
-0.6776958703994751 -0.3893449604511261 -0.7854344844818115
-0.6784480214118958 -0.3848550617694855 -1.06991708278656
-0.6792002320289612 -0.38036516308784485 -1.354399561882019
-0.6799524426460266 -0.37587523460388184 -1.6388821601867676
-0.6807045936584473 -0.3713853359222412 -1.9233646392822266
-0.6814568042755127 -0.3668954372406006 -2.2078471183776855
-0.6822090148925781 -0.3624055087566376 -2.4923298358917236
-0.6829611659049988 -0.35791561007499695 -2.7768123149871826
-0.9016468524932861 -0.12821492552757263 1.4957221746444702
-0.9023990631103516 -0.12372501939535141 1.2112396955490112
-0.9031512141227722 -0.11923511326313019 0.9267570972442627
-0.9039034247398376 -0.11474520713090897 0.6422745585441589
-0.9046556353569031 -0.11025529354810715 0.3577920198440552
-0.9054077863693237 -0.10576538741588593 0.07330946624279022
-0.9061599969863892 -0.1012754812836647 -0.21117308735847473
-0.9069122076034546 -0.09678557515144348 -0.4956556260585785
-0.9076643586158752 -0.09229566156864166 -0.7801381945610046
-0.9084165692329407 -0.08780575543642044 -1.0646207332611084
-0.9091687798500061 -0.08331584930419922 -1.349103331565857
-0.9099209308624268 -0.078825943171978 -1.633585810661316
-0.9106731414794922 -0.07433602958917618 -1.9180684089660645
-0.9114253520965576 -0.06984612345695496 -2.2025508880615234
-0.912177562713623 -0.06535621732473373 -2.4870333671569824
-0.9129297137260437 -0.060866307467222214 -2.7715160846710205
-1.0671031475067139 0.2090429812669754 1.5014824867248535
-1.0678553581237793 0.21353287994861603 1.2170000076293945
-1.0686075687408447 0.21802279353141785 0.932517409324646
-1.0693597793579102 0.22251270711421967 0.6480348706245422
-1.070111870765686 0.2270026057958603 0.3635523319244385
-1.0708640813827515 0.2314925193786621 0.07906978577375412
-1.071616291999817 0.23598241806030273 -0.20541276037693024
-1.0723685026168823 0.24047233164310455 -0.4898953139781952
-1.0731207132339478 0.24496224522590637 -0.7743778824806213
-1.0738729238510132 0.249452143907547 -1.058860421180725
-1.0746251344680786 0.2539420425891876 -1.343342900276184
-1.0753772258758545 0.25843197107315063 -1.6278254985809326
-1.07612943649292 0.26292186975479126 -1.9123080968856812
-1.0768816471099854 0.2674117684364319 -2.1967906951904297
-1.0776338577270508 0.2719016969203949 -2.4812731742858887
-1.0783860683441162 0.2763915956020355 -2.7657556533813477
-1.16127347946167 0.5727021098136902 1.5074710845947266
-1.1620256900787354 0.5771920084953308 1.222988486289978
-1.1627777814865112 0.5816819071769714 0.9385059475898743
-1.1635299921035767 0.5861718058586121 0.6540234088897705
-1.164282202720642 0.5906617641448975 0.36954087018966675
-1.1650344133377075 0.5951516628265381 0.0850583091378212
-1.165786623954773 0.5996415615081787 -0.19942423701286316
-1.1665388345718384 0.6041314601898193 -0.4839067757129669
-1.1672909259796143 0.60862135887146 -0.7683893442153931
-1.1680431365966797 0.6131112575531006 -1.0528719425201416
-1.1687953472137451 0.6176011562347412 -1.3373544216156006
-1.1695475578308105 0.6220911145210266 -1.6218370199203491
-1.170299768447876 0.6265810132026672 -1.906319499015808
-1.1710519790649414 0.6310709118843079 -2.1908020973205566
-1.1718041896820068 0.6355608105659485 -2.4752845764160156
-1.1725562810897827 0.6400507092475891 -2.7597672939300537
-1.180302381515503 0.9478741884231567 1.5134426355361938
-1.1810545921325684 0.9523641467094421 1.2289600372314453
-1.1818068027496338 0.9568540453910828 0.9444774985313416
-1.1825588941574097 0.9613439440727234 0.6599949598312378
-1.183311104774475 0.965833842754364 0.37551242113113403
-1.1840633153915405 0.9703237414360046 0.09102986007928848
-1.184815526008606 0.9748136401176453 -0.19345268607139587
-1.1855677366256714 0.9793035387992859 -0.47793522477149963
-1.1863199472427368 0.9837934970855713 -0.7624177932739258
-1.1870720386505127 0.9882833957672119 -1.0469003915786743
-1.1878242492675781 0.9927732944488525 -1.3313828706741333
-1.1885764598846436 0.9972631931304932 -1.6158654689788818
-1.189328670501709 1.0017530918121338 -1.9003479480743408
-1.1900808811187744 1.0062429904937744 -2.1848304271698
-1.1908330917358398 1.010732889175415 -2.469313144683838
-1.1915853023529053 1.0152227878570557 -2.753795623779297
-1.1234108209609985 1.3191996812820435 1.5191527605056763
-1.124163031578064 1.323689579963684 1.2346701622009277
-1.1249152421951294 1.3281794786453247 0.950187623500824
-1.1256674528121948 1.3326693773269653 0.6657050848007202
-1.1264196634292603 1.337159276008606 0.38122251629829407
-1.1271718740463257 1.3416492938995361 0.09673996269702911
-1.1279239654541016 1.3461391925811768 -0.18774259090423584
-1.128676176071167 1.3506290912628174 -0.4722251296043396
-1.1294283866882324 1.355118989944458 -0.7567076683044434
-1.1301805973052979 1.3596088886260986 -1.041190266609192
-1.1309328079223633 1.3640987873077393 -1.3256727457046509
-1.1316850185394287 1.3685886859893799 -1.6101553440093994
-1.1324372291564941 1.3730785846710205 -1.894637942314148
-1.13318932056427 1.3775684833526611 -2.1791205406188965
-1.1339415311813354 1.3820583820343018 -2.4636030197143555
-1.1346937417984009 1.3865482807159424 -2.7480854988098145
-0.9929280877113342 1.6714764833450317 1.5243675708770752
-0.9936802983283997 1.6759663820266724 1.2398850917816162
-0.9944325089454651 1.680456280708313 0.9554024934768677
-0.9951846599578857 1.6849461793899536 0.6709199547767639
-0.9959368705749512 1.6894360780715942 0.38643738627433777
-0.9966890811920166 1.6939259767532349 0.10195484012365341
-0.9974412322044373 1.6984158754348755 -0.18252770602703094
-0.9981934428215027 1.7029057741165161 -0.4670102596282959
-0.9989456534385681 1.7073956727981567 -0.7514927983283997
-0.9996978044509888 1.711885690689087 -1.0359753370285034
-1.0004500150680542 1.7163755893707275 -1.320457935333252
-1.0012022256851196 1.7208654880523682 -1.604940414428711
-1.001954436302185 1.7253553867340088 -1.8894230127334595
-1.0027066469192505 1.7298452854156494 -2.173905611038208
-1.0034587383270264 1.73433518409729 -2.458388090133667
-1.0042109489440918 1.7388250827789307 -2.742870569229126
-0.7941960692405701 1.9902822971343994 1.5288738012313843
-0.7949482202529907 1.99477219581604 1.2443912029266357
-0.7957004308700562 1.9992620944976807 0.959908664226532
-0.7964526414871216 2.0037519931793213 0.6754261255264282
-0.7972047924995422 2.008241891860962 0.3909435570240021
-0.7979570031166077 2.0127317905426025 0.10646100342273712
-0.7987092137336731 2.017221689224243 -0.17802155017852783
-0.7994614243507385 2.021711587905884 -0.4625040888786316
-0.8002135753631592 2.0262014865875244 -0.7469866275787354
-0.8009657859802246 2.030691385269165 -1.0314692258834839
-0.80171799659729 2.0351812839508057 -1.3159517049789429
-0.8024701476097107 2.0396711826324463 -1.6004343032836914
-0.8032223582267761 2.044161081314087 -1.88491690158844
-0.8039745688438416 2.0486509799957275 -2.1693994998931885
-0.8047267198562622 2.053140878677368 -2.4538819789886475
-0.8054789304733276 2.057630777359009 -2.7383644580841064
-0.5353507995605469 2.2625651359558105 1.5324866771697998
-0.5361030101776123 2.267055034637451 1.2480041980743408
-0.5368552207946777 2.271544933319092 0.9635215997695923
-0.5376073718070984 2.2760348320007324 0.6790390610694885
-0.5383595824241638 2.280524730682373 0.39455652236938477
-0.5391117930412292 2.2850146293640137 0.11007396131753922
-0.5398639440536499 2.2895045280456543 -0.17440858483314514
-0.5406161546707153 2.293994426727295 -0.4588911533355713
-0.5413683652877808 2.2984843254089355 -0.743373692035675
-0.5421205759048462 2.302974224090576 -1.0278562307357788
-0.5428727269172668 2.307464122772217 -1.3123388290405273
-0.5436249375343323 2.3119540214538574 -1.5968213081359863
-0.5443771481513977 2.316443920135498 -1.8813039064407349
-0.5451292991638184 2.3209338188171387 -2.1657865047454834
-0.5458815097808838 2.3254237174987793 -2.4502689838409424
-0.5466337203979492 2.329913854598999 -2.7347514629364014
-0.22698956727981567 2.477177858352661 1.5350584983825684
-0.2277417629957199 2.4816677570343018 1.2505760192871094
-0.22849395871162415 2.4861576557159424 0.9660934209823608
-0.2292461395263672 2.490647554397583 0.6816108822822571
-0.22999833524227142 2.4951374530792236 0.3971283435821533
-0.23075053095817566 2.4996273517608643 0.11264579743146896
-0.2315027266740799 2.504117250442505 -0.1718367487192154
-0.23225490748882294 2.5086071491241455 -0.45631930232048035
-0.23300710320472717 2.513097047805786 -0.7408018708229065
-0.2337592989206314 2.5175869464874268 -1.0252844095230103
-0.23451149463653564 2.5220768451690674 -1.3097668886184692
-0.23526369035243988 2.526566743850708 -1.5942494869232178
-0.23601587116718292 2.5310566425323486 -1.8787320852279663
-0.23676806688308716 2.5355465412139893 -2.163214683532715
-0.2375202625989914 2.54003643989563 -2.447697162628174
-0.23827245831489563 2.5445263385772705 -2.732179641723633
0.1182633563876152 2.6253340244293213 1.5364840030670166
0.11751116812229156 2.629823923110962 1.252001404762268
0.11675897240638733 2.6343138217926025 0.9675188660621643
0.11600678414106369 2.638803720474243 0.6830363273620605
0.11525458842515945 2.643293619155884 0.3985537886619568
0.11450240015983582 2.6477835178375244 0.11407123506069183
0.11375020444393158 2.652273416519165 -0.17041131854057312
0.11299800872802734 2.6567633152008057 -0.4548938572406769
0.1122458204627037 2.6612532138824463 -0.739376425743103
0.11149362474679947 2.665743112564087 -1.023858904838562
0.11074143648147583 2.6702330112457275 -1.3083415031433105
0.1099892407655716 2.674722909927368 -1.592824101448059
0.10923705250024796 2.679212808609009 -1.877306580543518
0.10848485678434372 2.6837027072906494 -2.1617891788482666
0.10773266851902008 2.68819260597229 -2.4462716579437256
0.10698047280311584 2.6926825046539307 -2.7307543754577637
0.48627325892448425 2.700968027114868 1.536704659461975
0.4855210781097412 2.705457925796509 1.2522220611572266
0.4847688674926758 2.7099478244781494 0.9677395224571228
0.48401668667793274 2.71443772315979 0.683256983757019
0.4832645058631897 2.7189278602600098 0.3987744450569153
0.48251229524612427 2.7234177589416504 0.11429189890623093
0.4817601144313812 2.727907657623291 -0.17019064724445343
0.4810079336166382 2.7323975563049316 -0.4546732008457184
0.48025572299957275 2.7368874549865723 -0.7391557693481445
0.4795035421848297 2.741377353668213 -1.0236382484436035
0.4787513315677643 2.7458672523498535 -1.308120846748352
0.47799915075302124 2.750357151031494 -1.5926034450531006
0.4772469699382782 2.7548470497131348 -1.8770859241485596
0.47649475932121277 2.7593369483947754 -2.1615684032440186
0.4757425785064697 2.763826847076416 -2.4460511207580566
0.4749903678894043 2.7683167457580566 -2.7305335998535156
0.861973762512207 2.700983762741089 1.5357115268707275
0.8612216114997864 2.7054736614227295 1.251228928565979
0.860469400882721 2.70996356010437 0.9667463898658752
0.8597171902656555 2.7144534587860107 0.6822638511657715
0.8589650392532349 2.7189433574676514 0.3977813124656677
0.8582128286361694 2.723433256149292 0.11329877376556396
0.857460618019104 2.7279231548309326 -0.171183779835701
0.8567084670066833 2.7324130535125732 -0.45566633343696594
0.8559562563896179 2.736902952194214 -0.7401489019393921
0.8552040457725525 2.7413928508758545 -1.024631381034851
0.8544518351554871 2.745882749557495 -1.3091139793395996
0.8536996841430664 2.750372886657715 -1.5935965776443481
0.852947473526001 2.7548627853393555 -1.8780790567398071
0.8521952629089355 2.759352684020996 -2.1625616550445557
0.8514431118965149 2.7638425827026367 -2.4470441341400146
0.8506909012794495 2.7683324813842773 -2.7315266132354736
1.2299836874008179 2.625380277633667 1.5335452556610107
1.2292314767837524 2.6298701763153076 1.2490626573562622
1.228479266166687 2.6343600749969482 0.9645801186561584
1.2277271747589111 2.638849973678589 0.6800975799560547
1.2269749641418457 2.6433398723602295 0.3956150412559509
1.2262227535247803 2.64782977104187 0.11113249510526657
1.2254705429077148 2.6523196697235107 -0.17335005104541779
1.2247183322906494 2.6568098068237305 -0.45783260464668274
1.223966121673584 2.661299705505371 -0.7423151731491089
1.2232139110565186 2.6657896041870117 -1.0267976522445679
1.2224618196487427 2.6702795028686523 -1.3112802505493164
1.2217096090316772 2.674769401550293 -1.595762848854065
1.2209573984146118 2.6792593002319336 -1.880245327949524
1.2202051877975464 2.683749198913574 -2.1647279262542725
1.219452977180481 2.688239097595215 -2.4492104053497314
1.2187007665634155 2.6927289962768555 -2.7336928844451904
1.5752366781234741 2.477252960205078 1.5302945375442505
1.5744844675064087 2.4817428588867188 1.245811939239502
1.5737322568893433 2.4862327575683594 0.9613294005393982
1.5729800462722778 2.49072265625 0.6768468618392944
1.5722278356552124 2.4952125549316406 0.3923643231391907
1.571475625038147 2.4997024536132812 0.10788176953792572
1.5707234144210815 2.504192352294922 -0.17660078406333923
1.5699713230133057 2.5086822509765625 -0.461083322763443
1.5692191123962402 2.513172149658203 -0.7455658912658691
1.5684669017791748 2.5176620483398438 -1.0300483703613281
1.5677146911621094 2.5221519470214844 -1.3145309686660767
1.566962480545044 2.526641845703125 -1.5990135669708252
1.5662102699279785 2.5311317443847656 -1.8834960460662842
1.5654581785202026 2.5356218814849854 -2.167978525161743
1.5647059679031372 2.540111780166626 -2.4524612426757812
1.5639537572860718 2.5446016788482666 -2.7369437217712402
1.8835978507995605 2.2626659870147705 1.5260924100875854
1.8828456401824951 2.267155885696411 1.2416099309921265
1.8820934295654297 2.2716457843780518 0.9571273326873779
1.8813413381576538 2.2761356830596924 0.6726447939872742
1.8805891275405884 2.280625581741333 0.388162225484848
1.879836916923523 2.2851154804229736 0.10367967933416367
1.8790847063064575 2.2896053791046143 -0.1808028668165207
1.878332495689392 2.294095516204834 -0.46528542041778564
1.8775802850723267 2.2985854148864746 -0.7497679591178894
1.8768281936645508 2.3030753135681152 -1.0342504978179932
1.8760759830474854 2.307565212249756 -1.3187330961227417
1.87532377243042 2.3120551109313965 -1.6032155752182007
1.8745715618133545 2.316545009613037 -1.8876981735229492
1.873819351196289 2.3210349082946777 -2.172180652618408
1.8730671405792236 2.3255248069763184 -2.4566633701324463
1.8723149299621582 2.330014705657959 -2.7411458492279053
2.1424431800842285 1.990404725074768 1.521111011505127
2.141690969467163 1.9948946237564087 1.2366284132003784
2.1409387588500977 1.9993846416473389 0.9521458745002747
2.1401865482330322 2.0038745403289795 0.6676633358001709
2.139434337615967 2.00836443901062 0.38318079710006714
2.1386821269989014 2.0128543376922607 0.09869825094938278
2.137929916381836 2.0173442363739014 -0.18578429520130157
2.1371777057647705 2.021834135055542 -0.47026684880256653
2.136425495147705 2.0263240337371826 -0.7547494173049927
2.1356732845306396 2.0308139324188232 -1.0392318964004517
2.134921073913574 2.035303831100464 -1.3237144947052002
2.134169101715088 2.0397937297821045 -1.6081970930099487
2.1334168910980225 2.044283628463745 -1.8926795721054077
2.132664680480957 2.0487735271453857 -2.1771621704101562
2.1319124698638916 2.0532634258270264 -2.4616446495056152
2.131160259246826 2.057753324508667 -2.746127128601074
2.341175079345703 1.6716156005859375 1.5155541896820068
2.3404228687286377 1.6761054992675781 1.2310715913772583
2.3396706581115723 1.6805953979492188 0.9465890526771545
2.338918685913086 1.6850852966308594 0.6621065139770508
2.3381664752960205 1.6895751953125 0.377623975276947
2.337414264678955 1.6940650939941406 0.09314142912626266
2.3366620540618896 1.6985549926757812 -0.1913411170244217
2.335909843444824 1.7030448913574219 -0.47582367062568665
2.335157632827759 1.7075347900390625 -0.7603062391281128
2.3344054222106934 1.7120246887207031 -1.0447887182235718
2.333653211593628 1.7165145874023438 -1.3292713165283203
2.3329010009765625 1.721004605293274 -1.6137539148330688
2.332148790359497 1.7254945039749146 -1.8982363939285278
2.3313965797424316 1.7299844026565552 -2.1827189922332764
2.330644369125366 1.7344743013381958 -2.4672014713287354
2.329892158508301 1.7389642000198364 -2.7516839504241943
2.4716579914093018 1.3193496465682983 1.5096495151519775
2.4709057807922363 1.323839545249939 1.225166916847229
2.470153570175171 1.3283294439315796 0.9406843781471252
2.4694013595581055 1.3328194618225098 0.6562017798423767
2.46864914894104 1.3373093605041504 0.37171927094459534
2.4678969383239746 1.341799259185791 0.08723670989274979
2.467144727706909 1.3462891578674316 -0.19724583625793457
2.4663925170898438 1.3507790565490723 -0.4817284047603607
2.4656403064727783 1.355268955230713 -0.7662109136581421
2.464888095855713 1.3597588539123535 -1.0506935119628906
2.4641358852386475 1.3642487525939941 -1.3351759910583496
2.463383913040161 1.3687386512756348 -1.6196585893630981
2.4626317024230957 1.3732285499572754 -1.9041411876678467
2.4618794918060303 1.377718448638916 -2.1886236667633057
2.461127281188965 1.3822083473205566 -2.4731061458587646
2.4603750705718994 1.3866982460021973 -2.7575888633728027
2.5285494327545166 0.9480289220809937 1.5036386251449585
2.527797222137451 0.952518880367279 1.21915602684021
2.5270450115203857 0.9570087790489197 0.9346734881401062
2.5262928009033203 0.9614986777305603 0.6501909494400024
2.525540590286255 0.9659885764122009 0.3657083809375763
2.5247883796691895 0.9704784750938416 0.08122583478689194
2.524036169052124 0.9749683737754822 -0.20325671136379242
2.5232839584350586 0.9794582724571228 -0.4877392649650574
2.5225319862365723 0.9839482307434082 -0.7722218036651611
2.521779775619507 0.9884381294250488 -1.0567044019699097
2.5210275650024414 0.9929280281066895 -1.3411868810653687
2.520275354385376 0.9974179267883301 -1.6256694793701172
2.5195231437683105 1.0019078254699707 -1.9101519584655762
2.518770933151245 1.0063977241516113 -2.1946346759796143
2.5180187225341797 1.010887622833252 -2.4791171550750732
2.5172665119171143 1.0153775215148926 -2.7635996341705322
2.5095205307006836 0.5728552341461182 1.497767686843872
2.508768320083618 0.5773451328277588 1.2132850885391235
2.5080161094665527 0.5818350911140442 0.9288025498390198
2.5072638988494873 0.5863249897956848 0.644320011138916
2.506511688232422 0.5908148884773254 0.35983744263648987
2.5057594776153564 0.5953047871589661 0.07535488903522491
2.505007266998291 0.5997946858406067 -0.20912766456604004
2.5042550563812256 0.6042845845222473 -0.4936102032661438
2.50350284576416 0.6087745428085327 -0.7780927419662476
2.502750873565674 0.6132644414901733 -1.062575340270996
2.5019986629486084 0.617754340171814 -1.347057819366455
2.501246452331543 0.6222442388534546 -1.6315404176712036
2.5004942417144775 0.6267341375350952 -1.9160230159759521
2.499742031097412 0.6312240362167358 -2.200505495071411
2.4989898204803467 0.6357139348983765 -2.48498797416687
2.4982376098632812 0.6402038931846619 -2.769470691680908
2.4153501987457275 0.20918826758861542 1.4922770261764526
2.414597988128662 0.21367818117141724 1.207794427871704
2.4138457775115967 0.21816807985305786 0.9233118891716003
2.4130935668945312 0.22265799343585968 0.6388293504714966
2.412341356277466 0.2271478921175003 0.35434678196907043
2.4115891456604004 0.23163780570030212 0.06986422836780548
2.410836935043335 0.23612771928310394 -0.21461832523345947
2.4100849628448486 0.24061761796474457 -0.49910086393356323
2.409332752227783 0.2451075315475464 -0.783583402633667
2.4085805416107178 0.249597430229187 -1.0680660009384155
2.4078283309936523 0.25408735871315 -1.3525484800338745
2.407076120376587 0.25857725739479065 -1.637031078338623
2.4063239097595215 0.2630671560764313 -1.9215136766433716
2.405571699142456 0.2675570547580719 -2.20599627494812
2.4048194885253906 0.2720469832420349 -2.490478754043579
2.404067277908325 0.27653688192367554 -2.774961233139038
2.2498939037323 -0.12808343768119812 1.4873913526535034
2.2491416931152344 -0.1235935389995575 1.2029088735580444
2.248389482498169 -0.11910362541675568 0.9184262752532959
2.2476372718811035 -0.11461371928453445 0.6339437365531921
2.246885061264038 -0.11012381315231323 0.3494611978530884
2.2461328506469727 -0.10563390702009201 0.06497863680124283
2.2453806400299072 -0.10114399343729019 -0.21950390934944153
2.244628667831421 -0.09665408730506897 -0.5039864778518677
2.2438764572143555 -0.09216418117284775 -0.7884690165519714
2.24312424659729 -0.08767427504062653 -1.0729515552520752
2.2423720359802246 -0.08318436145782471 -1.3574341535568237
2.241619825363159 -0.07869445532560349 -1.6419166326522827
2.2408676147460938 -0.07420454919338226 -1.9263992309570312
2.2401154041290283 -0.06971464306116104 -2.2108817100524902
2.239363193511963 -0.06522473692893982 -2.495364189147949
2.2386109828948975 -0.0607348270714283 -2.7798469066619873
2.019925355911255 -0.4251519441604614 1.4833109378814697
2.0191731452941895 -0.4206620156764984 1.1988283395767212
2.018420934677124 -0.4161721169948578 0.9143458008766174
2.0176687240600586 -0.41168221831321716 0.6298632621765137
2.016916513442993 -0.40719231963157654 0.3453806936740875
2.0161643028259277 -0.4027023911476135 0.06089814379811287
2.0154120922088623 -0.3982124924659729 -0.2235843986272812
2.014660120010376 -0.3937225937843323 -0.5080669522285461
2.0139079093933105 -0.38923266530036926 -0.7925494909286499
2.013155698776245 -0.38474276661872864 -1.0770320892333984
2.0124034881591797 -0.380252867937088 -1.3615145683288574
2.0116512775421143 -0.375762939453125 -1.645997166633606
2.010899066925049 -0.3712730407714844 -1.930479645729065
2.0101468563079834 -0.36678314208984375 -2.2149622440338135
2.009394645690918 -0.36229321360588074 -2.4994447231292725
2.0086424350738525 -0.3578033149242401 -2.7839274406433105
1.734859585762024 -0.6698551774024963 1.480202555656433
1.7341073751449585 -0.6653652787208557 1.1957199573516846
1.733355164527893 -0.6608753800392151 0.9112374186515808
1.7326029539108276 -0.6563854813575745 0.626754879951477
1.7318507432937622 -0.6518955826759338 0.3422723412513733
1.7310985326766968 -0.6474056243896484 0.057789795100688934
1.730346441268921 -0.6429157257080078 -0.22669275104999542
1.7295942306518555 -0.6384258270263672 -0.511175274848938
1.72884202003479 -0.6339359283447266 -0.7956578731536865
1.7280898094177246 -0.6294460296630859 -1.0801403522491455
1.7273375988006592 -0.6249561309814453 -1.364622950553894
1.7265853881835938 -0.6204662322998047 -1.6491055488586426
1.7258331775665283 -0.6159762740135193 -1.9335880279541016
1.7250810861587524 -0.6114863753318787 -2.2180705070495605
1.724328875541687 -0.606996476650238 -2.5025532245635986
1.7235766649246216 -0.6025065779685974 -2.7870357036590576
1.4063670635223389 -0.8521750569343567 1.4781936407089233
1.4056148529052734 -0.8476850986480713 1.1937110424041748
1.404862642288208 -0.8431951999664307 0.909228503704071
1.4041104316711426 -0.83870530128479 0.6247459650039673
1.4033583402633667 -0.8342154026031494 0.34026339650154114
1.4026061296463013 -0.8297255039215088 0.05578085035085678
1.4018539190292358 -0.8252356052398682 -0.22870169579982758
1.4011017084121704 -0.8207456469535828 -0.5131842494010925
1.400349497795105 -0.8162557482719421 -0.7976667881011963
1.3995972871780396 -0.8117658495903015 -1.0821493864059448
1.3988451957702637 -0.8072759509086609 -1.3666318655014038
1.3980929851531982 -0.8027860522270203 -1.6511144638061523
1.3973407745361328 -0.7982961535453796 -1.9355969429016113
1.3965885639190674 -0.7938061952590942 -2.2200796604156494
1.395836353302002 -0.7893162965774536 -2.5045621395111084
1.3950841426849365 -0.784826397895813 -2.7890446186065674
1.0478965044021606 -0.9646472334861755 1.477366328239441
1.0471442937850952 -0.9601573348045349 1.1928837299346924
1.0463920831680298 -0.9556674361228943 0.9084011912345886
1.0456398725509644 -0.9511775374412537 0.6239186525344849
1.044887661933899 -0.946687638759613 0.3394361138343811
1.0441354513168335 -0.9421977400779724 0.05495355650782585
1.043383240699768 -0.937707781791687 -0.2295289933681488
1.0426311492919922 -0.9332178831100464 -0.514011561870575
1.0418789386749268 -0.9287279844284058 -0.7984941005706787
1.0411267280578613 -0.9242380857467651 -1.0829766988754272
1.040374517440796 -0.9197481870651245 -1.3674591779708862
1.0396223068237305 -0.9152582883834839 -1.6519417762756348
1.038870096206665 -0.9107683300971985 -1.9364242553710938
1.0381180047988892 -0.9062784314155579 -2.2209067344665527
1.0373657941818237 -0.9017885327339172 -2.505389451980591
1.0366135835647583 -0.8972986340522766 -2.78987193107605
0.6741235256195068 -1.0026671886444092 1.4777544736862183
0.6733713150024414 -0.9981773495674133 1.1932719945907593
0.6726191639900208 -0.9936873912811279 0.9087894558906555
0.6718669533729553 -0.9891974925994873 0.624306857585907
0.6711147427558899 -0.9847075939178467 0.3398243188858032
0.6703625917434692 -0.980217695236206 0.05534178018569946
0.6696103811264038 -0.9757277965545654 -0.2291407734155655
0.6688581705093384 -0.9712378978729248 -0.5136232972145081
0.668105959892273 -0.9667479991912842 -0.7981058955192566
0.6673538088798523 -0.9622580409049988 -1.0825884342193604
0.6666015982627869 -0.9577681422233582 -1.3670709133148193
0.6658493876457214 -0.9532782435417175 -1.6515535116195679
0.6650972366333008 -0.9487883448600769 -1.9360361099243164
0.6643450260162354 -0.9442984461784363 -2.2205185890197754
0.6635928153991699 -0.9398085474967957 -2.5050010681152344
0.6628406643867493 -0.9353185892105103 -2.7894837856292725
