ply
format ascii 1.0
element vertex 512
property float x
property float y
property float z
end_header
0.8929300308227539 1.8617570400238037 -1.694875717163086
0.8929300308227539 1.8617570400238037 -1.4103519916534424
0.8929300308227539 1.8617570400238037 -1.1258283853530884
0.8929299712181091 1.8617570400238037 -0.8413047194480896
0.8929299712181091 1.8617570400238037 -0.5567811131477356
0.8929299712181091 1.8617570400238037 -0.2722574472427368
0.8929299712181091 1.8617570400238037 0.012266191653907299
0.8929299712181091 1.8617570400238037 0.29678982496261597
0.8929299116134644 1.8617570400238037 0.5813134908676147
0.8929299116134644 1.8617570400238037 0.8658371567726135
0.8929299116134644 1.8617570400238037 1.1503608226776123
0.8929299116134644 1.8617570400238037 1.4348844289779663
0.8929299116134644 1.8617569208145142 1.7194080352783203
0.8929299116134644 1.8617569208145142 2.003931760787964
0.8929298520088196 1.8617569208145142 2.2884552478790283
0.8929298520088196 1.8617569208145142 2.572978973388672
0.5191558003425598 1.8237478733062744 -1.694875717163086
0.5191558003425598 1.8237478733062744 -1.410352110862732
0.5191558003425598 1.8237478733062744 -1.1258283853530884
0.519155740737915 1.8237478733062744 -0.8413047790527344
0.519155740737915 1.8237478733062744 -0.5567811131477356
0.519155740737915 1.8237478733062744 -0.2722574770450592
0.519155740737915 1.8237478733062744 0.01226617582142353
0.519155740737915 1.8237478733062744 0.29678982496261597
0.519155740737915 1.8237478733062744 0.5813134908676147
0.5191556811332703 1.8237478733062744 0.8658370971679688
0.5191556811332703 1.8237478733062744 1.1503607034683228
0.5191556811332703 1.8237478733062744 1.4348844289779663
0.5191556811332703 1.8237478733062744 1.7194080352783203
0.5191556811332703 1.8237478733062744 2.003931760787964
0.5191556215286255 1.8237478733062744 2.2884552478790283
0.5191556215286255 1.8237478733062744 2.572978973388672
0.16068392992019653 1.711276650428772 -1.694875717163086
0.16068392992019653 1.711276650428772 -1.410352110862732
0.16068391501903534 1.711276650428772 -1.1258283853530884
0.16068390011787415 1.711276650428772 -0.8413047790527344
0.16068388521671295 1.711276650428772 -0.5567811131477356
0.16068388521671295 1.711276650428772 -0.2722574770450592
0.16068387031555176 1.711276650428772 0.012266159057617188
0.16068385541439056 1.711276650428772 0.2967897951602936
0.16068384051322937 1.711276650428772 0.58131343126297
0.16068384051322937 1.711276650428772 0.8658370971679688
0.16068382561206818 1.711276650428772 1.1503607034683228
0.16068381071090698 1.7112765312194824 1.4348844289779663
0.1606837958097458 1.7112765312194824 1.7194080352783203
0.1606837809085846 1.7112765312194824 2.003931760787964
0.1606837809085846 1.7112765312194824 2.2884552478790283
0.1606837660074234 1.7112765312194824 2.572978973388672
-0.16780969500541687 1.5289478302001953 -1.694875717163086
-0.16780969500541687 1.5289478302001953 -1.410352110862732
-0.16780970990657806 1.5289478302001953 -1.1258283853530884
-0.16780972480773926 1.5289478302001953 -0.8413047790527344
-0.16780973970890045 1.5289478302001953 -0.5567811727523804
-0.16780973970890045 1.5289478302001953 -0.2722575068473816
-0.16780975461006165 1.5289478302001953 0.012266143225133419
-0.16780976951122284 1.5289478302001953 0.2967897951602936
-0.16780978441238403 1.5289477109909058 0.58131343126297
-0.16780979931354523 1.5289477109909058 0.8658370971679688
-0.16780979931354523 1.5289477109909058 1.1503607034683228
-0.16780981421470642 1.5289477109909058 1.4348844289779663
-0.16780982911586761 1.5289477109909058 1.7194080352783203
-0.1678098440170288 1.5289477109909058 2.003931760787964
-0.1678098440170288 1.5289477109909058 2.2884552478790283
-0.16780985891819 1.5289477109909058 2.572978973388672
-0.4528765082359314 1.2842259407043457 -1.694875717163086
-0.4528765082359314 1.2842259407043457 -1.410352110862732
-0.4528765380382538 1.2842259407043457 -1.125828504562378
-0.4528765380382538 1.2842259407043457 -0.8413048386573792
-0.4528765380382538 1.2842259407043457 -0.5567811727523804
-0.45287656784057617 1.2842259407043457 -0.2722575068473816
-0.45287656784057617 1.2842259407043457 0.01226612739264965
-0.45287659764289856 1.2842259407043457 0.2967897653579712
-0.45287659764289856 1.2842259407043457 0.58131343126297
-0.45287659764289856 1.2842259407043457 0.865837037563324
-0.45287662744522095 1.2842259407043457 1.1503607034683228
-0.45287662744522095 1.2842259407043457 1.4348843097686768
-0.45287665724754333 1.2842259407043457 1.7194080352783203
-0.45287665724754333 1.2842259407043457 2.003931760787964
-0.45287665724754333 1.2842259407043457 2.2884552478790283
-0.4528766870498657 1.2842259407043457 2.572978973388672
-0.6828458309173584 0.9871301054954529 -1.694875717163086
-0.6828458309173584 0.9871300458908081 -1.410352110862732
-0.6828458905220032 0.9871300458908081 -1.125828504562378
-0.6828458905220032 0.9871300458908081 -0.8413048386573792
-0.6828458905220032 0.9871300458908081 -0.5567811727523804
-0.6828458905220032 0.9871300458908081 -0.272257536649704
-0.6828458905220032 0.9871300458908081 0.012266113422811031
-0.682845950126648 0.9871300458908081 0.2967897653579712
-0.682845950126648 0.9871300458908081 0.58131343126297
-0.682845950126648 0.9871300458908081 0.865837037563324
-0.682845950126648 0.9871300458908081 1.1503607034683228
-0.682845950126648 0.9871300458908081 1.4348843097686768
-0.6828460097312927 0.9871300458908081 1.7194080352783203
-0.6828460097312927 0.9871299862861633 2.0039315223693848
-0.6828460097312927 0.9871299862861633 2.2884552478790283
-0.6828460097312927 0.9871299862861633 2.572978973388672
-0.8483027219772339 0.6498232483863831 -1.694875717163086
-0.8483027219772339 0.6498232483863831 -1.410352110862732
-0.8483027815818787 0.6498232483863831 -1.125828504562378
-0.8483027815818787 0.6498232483863831 -0.8413048386573792
-0.8483027815818787 0.6498232483863831 -0.5567811727523804
-0.8483027815818787 0.6498232483863831 -0.272257536649704
-0.8483027815818787 0.6498232483863831 0.012266100384294987
-0.8483028411865234 0.6498232483863831 0.2967897355556488
-0.8483028411865234 0.6498232483863831 0.5813133716583252
-0.8483028411865234 0.6498232483863831 0.865837037563324
-0.8483028411865234 0.6498231887817383 1.1503607034683228
-0.8483028411865234 0.6498231887817383 1.4348843097686768
-0.8483029007911682 0.6498231887817383 1.7194080352783203
-0.8483029007911682 0.6498231887817383 2.0039315223693848
-0.8483029007911682 0.6498231887817383 2.2884552478790283
-0.8483029007911682 0.6498231887817383 2.572978973388672
-0.9424733519554138 0.2861149311065674 -1.6948758363723755
-0.9424733519554138 0.286114901304245 -1.410352110862732
-0.9424733519554138 0.286114901304245 -1.125828504562378
-0.9424734115600586 0.286114901304245 -0.8413048386573792
-0.9424734115600586 0.286114901304245 -0.5567811727523804
-0.9424734115600586 0.286114901304245 -0.27225756645202637
-0.9424734115600586 0.286114901304245 0.012266090139746666
-0.9424734115600586 0.2861148715019226 0.2967897355556488
-0.9424734711647034 0.2861148715019226 0.5813133716583252
-0.9424734711647034 0.2861148715019226 0.865837037563324
-0.9424734711647034 0.2861148715019226 1.1503607034683228
-0.9424734711647034 0.2861148715019226 1.4348843097686768
-0.9424734711647034 0.2861148715019226 1.7194079160690308
-0.9424734711647034 0.2861148416996002 2.0039315223693848
-0.9424735307693481 0.2861148416996002 2.2884552478790283
-0.9424735307693481 0.2861148416996002 2.572978973388672
-0.9615023136138916 -0.08910470455884933 -1.6948758363723755
-0.9615023732185364 -0.08910470455884933 -1.410352110862732
-0.9615023732185364 -0.08910471200942993 -1.125828504562378
-0.9615023732185364 -0.08910471946001053 -0.8413048386573792
-0.9615023732185364 -0.08910471946001053 -0.5567812323570251
-0.9615023732185364 -0.08910472691059113 -0.27225756645202637
-0.9615024328231812 -0.08910473436117172 0.012266082689166069
-0.9615024328231812 -0.08910473436117172 0.2967897355556488
-0.9615024328231812 -0.08910474181175232 0.5813133716583252
-0.9615024328231812 -0.08910474926233292 0.865837037563324
-0.9615024328231812 -0.08910474926233292 1.1503607034683228
-0.9615024328231812 -0.08910475671291351 1.4348843097686768
-0.9615024924278259 -0.08910476416349411 1.7194079160690308
-0.9615024924278259 -0.08910476416349411 2.0039315223693848
-0.9615024924278259 -0.08910477161407471 2.2884552478790283
-0.9615024924278259 -0.0891047790646553 2.572978973388672
-0.9046106338500977 -0.46047407388687134 -1.6948758363723755
-0.9046106338500977 -0.46047407388687134 -1.410352110862732
-0.9046106934547424 -0.46047407388687134 -1.125828504562378
-0.9046106934547424 -0.46047407388687134 -0.8413048386573792
-0.9046106934547424 -0.46047407388687134 -0.5567812323570251
-0.9046106934547424 -0.46047407388687134 -0.27225756645202637
-0.9046106934547424 -0.4604741036891937 0.01226607896387577
-0.9046106934547424 -0.4604741036891937 0.2967897355556488
-0.9046107530593872 -0.4604741036891937 0.5813133716583252
-0.9046107530593872 -0.4604741036891937 0.865837037563324
-0.9046107530593872 -0.4604741036891937 1.1503607034683228
-0.9046107530593872 -0.4604741036891937 1.4348843097686768
-0.9046107530593872 -0.4604741334915161 1.7194079160690308
-0.904610812664032 -0.4604741334915161 2.0039315223693848
-0.904610812664032 -0.4604741334915161 2.2884552478790283
-0.904610812664032 -0.4604741334915161 2.572978973388672
-0.7741274237632751 -0.812789261341095 -1.6948758363723755
-0.7741274237632751 -0.812789261341095 -1.410352110862732
-0.7741274237632751 -0.812789261341095 -1.125828504562378
-0.7741274833679199 -0.812789261341095 -0.8413048386573792
-0.7741274833679199 -0.812789261341095 -0.5567812323570251
-0.7741274833679199 -0.812789261341095 -0.27225756645202637
-0.7741274833679199 -0.812789261341095 0.012266078032553196
-0.7741274833679199 -0.8127893209457397 0.2967897355556488
-0.7741275429725647 -0.8127893209457397 0.5813133716583252
-0.7741275429725647 -0.8127893209457397 0.865837037563324
-0.7741275429725647 -0.8127893209457397 1.1503607034683228
-0.7741275429725647 -0.8127893209457397 1.4348843097686768
-0.7741275429725647 -0.8127893209457397 1.7194079160690308
-0.7741275429725647 -0.8127893209457397 2.0039315223693848
-0.7741276025772095 -0.8127893209457397 2.2884552478790283
-0.7741276025772095 -0.8127893209457397 2.572978973388672
-0.5753946900367737 -1.1316264867782593 -1.6948758363723755
-0.5753946900367737 -1.1316264867782593 -1.410352110862732
-0.5753946900367737 -1.1316264867782593 -1.125828504562378
-0.5753946900367737 -1.1316264867782593 -0.8413048386573792
-0.5753947496414185 -1.1316264867782593 -0.5567812323570251
-0.5753947496414185 -1.1316264867782593 -0.27225756645202637
-0.5753947496414185 -1.1316264867782593 0.01226608082652092
-0.5753947496414185 -1.1316264867782593 0.2967897355556488
-0.5753947496414185 -1.1316264867782593 0.5813133716583252
-0.5753947496414185 -1.1316264867782593 0.865837037563324
-0.5753948092460632 -1.1316264867782593 1.1503607034683228
-0.5753948092460632 -1.1316264867782593 1.4348843097686768
-0.5753948092460632 -1.1316264867782593 1.7194079160690308
-0.5753948092460632 -1.1316264867782593 2.0039315223693848
-0.5753948092460632 -1.1316264867782593 2.2884552478790283
-0.575394868850708 -1.1316264867782593 2.572978973388672
-0.31654855608940125 -1.4039324522018433 -1.6948758363723755
-0.31654855608940125 -1.4039324522018433 -1.410352110862732
-0.31654855608940125 -1.4039324522018433 -1.125828504562378
-0.31654858589172363 -1.4039324522018433 -0.8413048386573792
-0.31654858589172363 -1.4039324522018433 -0.5567812323570251
-0.31654858589172363 -1.4039324522018433 -0.27225756645202637
-0.316548615694046 -1.4039324522018433 0.012266086414456367
-0.316548615694046 -1.4039324522018433 0.2967897355556488
-0.3165486454963684 -1.4039324522018433 0.5813133716583252
-0.3165486454963684 -1.4039324522018433 0.865837037563324
-0.3165486454963684 -1.4039324522018433 1.1503607034683228
-0.3165486752986908 -1.4039324522018433 1.4348843097686768
-0.3165486752986908 -1.4039324522018433 1.7194079160690308
-0.3165486752986908 -1.4039324522018433 2.0039315223693848
-0.3165487051010132 -1.4039324522018433 2.2884552478790283
-0.3165487051010132 -1.4039325714111328 2.572978973388672
-0.008186212740838528 -1.6185590028762817 -1.6948758363723755
-0.008186223916709423 -1.6185590028762817 -1.410352110862732
-0.008186235092580318 -1.6185590028762817 -1.125828504562378
-0.008186247199773788 -1.6185590028762817 -0.8413048386573792
-0.008186258375644684 -1.6185590028762817 -0.5567811727523804
-0.00818626955151558 -1.6185590028762817 -0.272257536649704
-0.008186280727386475 -1.6185590028762817 0.012266094796359539
-0.00818629190325737 -1.6185590028762817 0.2967897355556488
-0.00818630401045084 -1.6185590028762817 0.5813133716583252
-0.008186315186321735 -1.6185590028762817 0.865837037563324
-0.00818632636219263 -1.6185590028762817 1.1503607034683228
-0.008186337538063526 -1.6185590028762817 1.4348843097686768
-0.008186349645256996 -1.6185590028762817 1.7194079160690308
-0.008186360821127892 -1.6185590028762817 2.0039315223693848
-0.008186371996998787 -1.6185590028762817 2.2884552478790283
-0.008186383172869682 -1.6185590028762817 2.572978973388672
0.33706793189048767 -1.7667192220687866 -1.694875717163086
0.3370679020881653 -1.7667192220687866 -1.410352110862732
0.3370679020881653 -1.7667192220687866 -1.125828504562378
0.3370678722858429 -1.7667192220687866 -0.8413048386573792
0.3370678722858429 -1.7667192220687866 -0.5567811727523804
0.3370678722858429 -1.7667192220687866 -0.272257536649704
0.3370678424835205 -1.7667192220687866 0.012266105972230434
0.3370678424835205 -1.7667192220687866 0.2967897653579712
0.3370678424835205 -1.7667192220687866 0.5813133716583252
0.3370678126811981 -1.7667192220687866 0.865837037563324
0.3370678126811981 -1.7667192220687866 1.1503607034683228
0.33706778287887573 -1.7667192220687866 1.4348843097686768
0.33706778287887573 -1.7667192220687866 1.7194080352783203
0.33706778287887573 -1.7667192220687866 2.0039315223693848
0.33706775307655334 -1.7667192220687866 2.2884552478790283
0.33706775307655334 -1.7667192220687866 2.572978973388672
0.7050791382789612 -1.8423473834991455 -1.694875717163086
0.7050790786743164 -1.8423473834991455 -1.410352110862732
0.7050790786743164 -1.8423473834991455 -1.125828504562378
0.7050790786743164 -1.8423473834991455 -0.8413048386573792
0.7050790786743164 -1.8423473834991455 -0.5567811727523804
0.7050790786743164 -1.8423473834991455 -0.272257536649704
0.7050790190696716 -1.8423473834991455 0.012266119010746479
0.7050790190696716 -1.8423473834991455 0.2967897653579712
0.7050790190696716 -1.8423473834991455 0.58131343126297
0.7050790190696716 -1.8423473834991455 0.865837037563324
0.7050790190696716 -1.8423473834991455 1.1503607034683228
0.7050790190696716 -1.842347502708435 1.4348843097686768
0.7050789594650269 -1.842347502708435 1.7194080352783203
0.7050789594650269 -1.842347502708435 2.0039315223693848
0.7050789594650269 -1.842347502708435 2.2884552478790283
0.7050789594650269 -1.842347502708435 2.572978973388672
1.0807809829711914 -1.8423473834991455 -1.694875717163086
1.0807809829711914 -1.8423473834991455 -1.410352110862732
1.0807809829711914 -1.8423473834991455 -1.125828504562378
1.0807808637619019 -1.8423473834991455 -0.8413047790527344
1.0807808637619019 -1.8423473834991455 -0.5567811727523804
1.0807808637619019 -1.8423473834991455 -0.2722575068473816
1.0807808637619019 -1.8423473834991455 0.012266133911907673
1.0807808637619019 -1.8423473834991455 0.2967897951602936
1.0807808637619019 -1.8423473834991455 0.58131343126297
1.0807808637619019 -1.8423473834991455 0.8658370971679688
1.0807808637619019 -1.8423473834991455 1.1503607034683228
1.0807808637619019 -1.842347502708435 1.4348843097686768
1.0807808637619019 -1.842347502708435 1.7194080352783203
1.0807807445526123 -1.842347502708435 2.003931760787964
1.0807807445526123 -1.842347502708435 2.2884552478790283
1.0807807445526123 -1.842347502708435 2.572978973388672
1.4487920999526978 -1.7667192220687866 -1.694875717163086
1.4487920999526978 -1.7667192220687866 -1.410352110862732
1.4487920999526978 -1.7667192220687866 -1.1258283853530884
1.4487920999526978 -1.7667192220687866 -0.8413047790527344
1.4487920999526978 -1.7667192220687866 -0.5567811131477356
1.4487920999526978 -1.7667192220687866 -0.2722575068473816
1.4487920999526978 -1.7667192220687866 0.012266150675714016
1.4487920999526978 -1.7667192220687866 0.2967897951602936
1.4487920999526978 -1.7667192220687866 0.58131343126297
1.4487919807434082 -1.7667192220687866 0.8658370971679688
1.4487919807434082 -1.7667192220687866 1.1503607034683228
1.4487919807434082 -1.7667192220687866 1.4348844289779663
1.4487919807434082 -1.7667192220687866 1.7194080352783203
1.4487919807434082 -1.7667192220687866 2.003931760787964
1.4487919807434082 -1.7667192220687866 2.2884552478790283
1.4487919807434082 -1.7667192220687866 2.572978973388672
1.7940462827682495 -1.6185590028762817 -1.694875717163086
1.7940462827682495 -1.6185590028762817 -1.410352110862732
1.7940462827682495 -1.6185590028762817 -1.1258283853530884
1.7940462827682495 -1.6185590028762817 -0.8413047790527344
1.7940462827682495 -1.6185590028762817 -0.5567811131477356
1.79404616355896 -1.6185590028762817 -0.2722574770450592
1.79404616355896 -1.6185590028762817 0.012266166508197784
1.79404616355896 -1.6185590028762817 0.29678982496261597
1.79404616355896 -1.6185590028762817 0.58131343126297
1.79404616355896 -1.6185590028762817 0.8658370971679688
1.79404616355896 -1.6185590028762817 1.1503607034683228
1.79404616355896 -1.6185590028762817 1.4348844289779663
1.79404616355896 -1.6185590028762817 1.7194080352783203
1.79404616355896 -1.6185590028762817 2.003931760787964
1.79404616355896 -1.6185590028762817 2.2884552478790283
1.7940460443496704 -1.6185590028762817 2.572978973388672
2.1024086475372314 -1.4039324522018433 -1.694875717163086
2.1024086475372314 -1.4039324522018433 -1.4103519916534424
2.1024086475372314 -1.4039324522018433 -1.1258283853530884
2.1024086475372314 -1.4039324522018433 -0.8413047790527344
2.1024086475372314 -1.4039324522018433 -0.5567811131477356
2.1024086475372314 -1.4039324522018433 -0.2722574770450592
2.1024086475372314 -1.4039324522018433 0.012266183272004128
2.1024084091186523 -1.4039324522018433 0.29678982496261597
2.1024084091186523 -1.4039324522018433 0.5813134908676147
2.1024084091186523 -1.4039324522018433 0.8658370971679688
2.1024084091186523 -1.4039324522018433 1.1503608226776123
2.1024084091186523 -1.4039324522018433 1.4348844289779663
2.1024084091186523 -1.4039324522018433 1.7194080352783203
2.1024084091186523 -1.4039324522018433 2.003931760787964
2.1024084091186523 -1.4039324522018433 2.2884552478790283
2.1024084091186523 -1.4039325714111328 2.572978973388672
2.3612546920776367 -1.1316264867782593 -1.694875717163086
2.3612546920776367 -1.1316264867782593 -1.4103519916534424
2.3612546920776367 -1.1316264867782593 -1.1258283853530884
2.3612546920776367 -1.1316264867782593 -0.8413047194480896
2.3612546920776367 -1.1316264867782593 -0.5567811131477356
2.3612546920776367 -1.1316264867782593 -0.2722574472427368
2.3612546920776367 -1.1316264867782593 0.012266198173165321
2.3612546920776367 -1.1316264867782593 0.29678985476493835
2.3612546920776367 -1.1316264867782593 0.5813134908676147
2.3612546920776367 -1.1316264867782593 0.8658371567726135
2.3612546920776367 -1.1316264867782593 1.1503608226776123
2.3612546920776367 -1.1316264867782593 1.4348844289779663
2.3612546920776367 -1.1316264867782593 1.7194080352783203
2.3612546920776367 -1.1316264867782593 2.003931760787964
2.3612546920776367 -1.1316264867782593 2.2884552478790283
2.3612544536590576 -1.1316264867782593 2.572978973388672
2.5599875450134277 -0.812789261341095 -1.694875717163086
2.5599875450134277 -0.812789261341095 -1.4103519916534424
2.5599875450134277 -0.812789261341095 -1.1258283853530884
2.5599875450134277 -0.812789261341095 -0.8413047194480896
2.5599875450134277 -0.812789261341095 -0.5567810535430908
2.5599875450134277 -0.812789261341095 -0.2722574472427368
2.5599873065948486 -0.812789261341095 0.012266211211681366
2.5599873065948486 -0.8127893209457397 0.29678985476493835
2.5599873065948486 -0.8127893209457397 0.5813134908676147
2.5599873065948486 -0.8127893209457397 0.8658371567726135
2.5599873065948486 -0.8127893209457397 1.1503608226776123
2.5599873065948486 -0.8127893209457397 1.4348844289779663
2.5599873065948486 -0.8127893209457397 1.7194080352783203
2.5599873065948486 -0.8127893209457397 2.003931760787964
2.5599873065948486 -0.8127893209457397 2.2884554862976074
2.5599873065948486 -0.8127893209457397 2.572978973388672
2.6904706954956055 -0.46047407388687134 -1.6948755979537964
2.6904706954956055 -0.46047407388687134 -1.4103519916534424
2.6904706954956055 -0.46047407388687134 -1.1258283853530884
2.6904706954956055 -0.46047407388687134 -0.8413047194480896
2.6904706954956055 -0.46047407388687134 -0.5567810535430908
2.6904706954956055 -0.46047407388687134 -0.27225741744041443
2.6904706954956055 -0.4604741036891937 0.012266223318874836
2.6904706954956055 -0.4604741036891937 0.29678985476493835
2.6904706954956055 -0.4604741036891937 0.5813134908676147
2.6904706954956055 -0.4604741036891937 0.8658371567726135
2.6904706954956055 -0.4604741036891937 1.1503608226776123
2.6904706954956055 -0.4604741036891937 1.4348844289779663
2.6904704570770264 -0.4604741334915161 1.7194081544876099
2.6904704570770264 -0.4604741334915161 2.003931760787964
2.6904704570770264 -0.4604741334915161 2.2884554862976074
2.6904704570770264 -0.4604741334915161 2.572978973388672
2.7473623752593994 -0.08910470455884933 -1.6948755979537964
2.7473623752593994 -0.08910470455884933 -1.4103519916534424
2.7473623752593994 -0.08910471200942993 -1.1258283853530884
2.7473623752593994 -0.08910471946001053 -0.8413047194480896
2.7473623752593994 -0.08910471946001053 -0.5567810535430908
2.7473623752593994 -0.08910472691059113 -0.27225741744041443
2.7473623752593994 -0.08910473436117172 0.012266231700778008
2.7473623752593994 -0.08910473436117172 0.29678988456726074
2.7473623752593994 -0.08910474181175232 0.5813135504722595
2.7473623752593994 -0.08910474926233292 0.8658371567726135
2.7473623752593994 -0.08910474926233292 1.1503608226776123
2.7473623752593994 -0.08910475671291351 1.4348844289779663
2.7473623752593994 -0.08910476416349411 1.7194081544876099
2.7473621368408203 -0.08910476416349411 2.003931760787964
2.7473621368408203 -0.08910477161407471 2.2884554862976074
2.7473621368408203 -0.0891047790646553 2.572978973388672
2.7283334732055664 0.2861149311065674 -1.6948755979537964
2.7283334732055664 0.286114901304245 -1.4103519916534424
2.7283334732055664 0.286114901304245 -1.1258283853530884
2.7283334732055664 0.286114901304245 -0.8413047194480896
2.7283334732055664 0.286114901304245 -0.5567810535430908
2.7283334732055664 0.286114901304245 -0.27225741744041443
2.7283332347869873 0.286114901304245 0.012266237288713455
2.7283332347869873 0.2861148715019226 0.29678988456726074
2.7283332347869873 0.2861148715019226 0.5813135504722595
2.7283332347869873 0.2861148715019226 0.8658371567726135
2.7283332347869873 0.2861148715019226 1.1503608226776123
2.7283332347869873 0.2861148715019226 1.4348844289779663
2.7283332347869873 0.2861148715019226 1.7194081544876099
2.7283332347869873 0.2861148416996002 2.003931760787964
2.7283332347869873 0.2861148416996002 2.2884554862976074
2.7283332347869873 0.2861148416996002 2.572978973388672
2.6341629028320312 0.6498232483863831 -1.6948755979537964
2.6341629028320312 0.6498232483863831 -1.4103519916534424
2.634162664413452 0.6498232483863831 -1.1258283853530884
2.634162664413452 0.6498232483863831 -0.8413047194480896
2.634162664413452 0.6498232483863831 -0.5567810535430908
2.634162664413452 0.6498232483863831 -0.27225741744041443
2.634162664413452 0.6498232483863831 0.012266240082681179
2.634162664413452 0.6498232483863831 0.29678988456726074
2.634162664413452 0.6498232483863831 0.5813135504722595
2.634162664413452 0.6498232483863831 0.8658371567726135
2.634162664413452 0.6498231887817383 1.1503608226776123
2.634162664413452 0.6498231887817383 1.4348844289779663
2.634162664413452 0.6498231887817383 1.7194081544876099
2.634162664413452 0.6498231887817383 2.003931760787964
2.634162664413452 0.6498231887817383 2.2884554862976074
2.634162664413452 0.6498231887817383 2.572978973388672
2.468705892562866 0.9871301054954529 -1.6948755979537964
2.468705892562866 0.9871300458908081 -1.4103519916534424
2.468705892562866 0.9871300458908081 -1.1258283853530884
2.468705892562866 0.9871300458908081 -0.8413047194480896
2.468705892562866 0.9871300458908081 -0.5567810535430908
2.468705892562866 0.9871300458908081 -0.27225741744041443
2.468705892562866 0.9871300458908081 0.012266239151358604
2.468705892562866 0.9871300458908081 0.29678988456726074
2.468705892562866 0.9871300458908081 0.5813135504722595
2.468705892562866 0.9871300458908081 0.8658371567726135
2.468705892562866 0.9871300458908081 1.1503608226776123
2.468705892562866 0.9871300458908081 1.4348844289779663
2.468705654144287 0.9871300458908081 1.7194081544876099
2.468705654144287 0.9871299862861633 2.003931760787964
2.468705654144287 0.9871299862861633 2.2884554862976074
2.468705654144287 0.9871299862861633 2.572978973388672
2.238736629486084 1.2842259407043457 -1.6948755979537964
2.238736629486084 1.2842259407043457 -1.4103519916534424
2.238736629486084 1.2842259407043457 -1.1258283853530884
2.238736629486084 1.2842259407043457 -0.8413047194480896
2.238736629486084 1.2842259407043457 -0.5567810535430908
2.238736629486084 1.2842259407043457 -0.27225741744041443
2.238736391067505 1.2842259407043457 0.012266235426068306
2.238736391067505 1.2842259407043457 0.29678988456726074
2.238736391067505 1.2842259407043457 0.5813135504722595
2.238736391067505 1.2842259407043457 0.8658371567726135
2.238736391067505 1.2842259407043457 1.1503608226776123
2.238736391067505 1.2842259407043457 1.4348844289779663
2.238736391067505 1.2842259407043457 1.7194081544876099
2.238736391067505 1.2842259407043457 2.003931760787964
2.238736391067505 1.2842259407043457 2.2884554862976074
2.238736391067505 1.2842259407043457 2.572978973388672
1.953669786453247 1.5289478302001953 -1.6948755979537964
1.953669786453247 1.5289478302001953 -1.4103519916534424
1.953669786453247 1.5289478302001953 -1.1258283853530884
1.9536696672439575 1.5289478302001953 -0.8413047194480896
1.9536696672439575 1.5289478302001953 -0.5567810535430908
1.9536696672439575 1.5289478302001953 -0.27225741744041443
1.9536696672439575 1.5289478302001953 0.012266227975487709
1.9536696672439575 1.5289478302001953 0.29678988456726074
1.9536696672439575 1.5289477109909058 0.5813134908676147
1.9536696672439575 1.5289477109909058 0.8658371567726135
1.9536696672439575 1.5289477109909058 1.1503608226776123
1.9536696672439575 1.5289477109909058 1.4348844289779663
1.9536696672439575 1.5289477109909058 1.7194081544876099
1.953669548034668 1.5289477109909058 2.003931760787964
1.953669548034668 1.5289477109909058 2.2884554862976074
1.953669548034668 1.5289477109909058 2.572978973388672
1.6251760721206665 1.711276650428772 -1.694875717163086
1.6251760721206665 1.711276650428772 -1.4103519916534424
1.6251760721206665 1.711276650428772 -1.1258283853530884
1.6251760721206665 1.711276650428772 -0.8413047194480896
1.6251760721206665 1.711276650428772 -0.5567810535430908
1.6251760721206665 1.711276650428772 -0.27225741744041443
1.6251760721206665 1.711276650428772 0.012266218662261963
1.6251760721206665 1.711276650428772 0.29678985476493835
1.6251760721206665 1.711276650428772 0.5813134908676147
1.6251760721206665 1.711276650428772 0.8658371567726135
1.625175952911377 1.711276650428772 1.1503608226776123
1.625175952911377 1.7112765312194824 1.4348844289779663
1.625175952911377 1.7112765312194824 1.7194080352783203
1.625175952911377 1.7112765312194824 2.003931760787964
1.625175952911377 1.7112765312194824 2.2884554862976074
1.625175952911377 1.7112765312194824 2.572978973388672
1.2667042016983032 1.8237478733062744 -1.694875717163086
1.2667042016983032 1.8237478733062744 -1.4103519916534424
1.2667042016983032 1.8237478733062744 -1.1258283853530884
1.2667042016983032 1.8237478733062744 -0.8413047194480896
1.2667042016983032 1.8237478733062744 -0.5567811131477356
1.2667042016983032 1.8237478733062744 -0.2722574472427368
1.2667042016983032 1.8237478733062744 0.012266205623745918
1.2667042016983032 1.8237478733062744 0.29678985476493835
1.2667042016983032 1.8237478733062744 0.5813134908676147
1.2667042016983032 1.8237478733062744 0.8658371567726135
1.2667042016983032 1.8237478733062744 1.1503608226776123
1.2667040824890137 1.8237478733062744 1.4348844289779663
1.2667040824890137 1.8237478733062744 1.7194080352783203
1.2667040824890137 1.8237478733062744 2.003931760787964
1.2667040824890137 1.8237478733062744 2.2884554862976074
1.2667040824890137 1.8237478733062744 2.572978973388672
0.8929300308227539 1.8617570400238037 -1.694875717163086
0.8929300308227539 1.8617570400238037 -1.4103519916534424
0.8929300308227539 1.8617570400238037 -1.1258283853530884
0.8929299712181091 1.8617570400238037 -0.8413047194480896
0.8929299712181091 1.8617570400238037 -0.5567811131477356
0.8929299712181091 1.8617570400238037 -0.2722574472427368
0.8929299712181091 1.8617570400238037 0.012266191653907299
0.8929299712181091 1.8617570400238037 0.29678982496261597
0.8929299116134644 1.8617570400238037 0.5813134908676147
0.8929299116134644 1.8617570400238037 0.8658371567726135
0.8929299116134644 1.8617570400238037 1.1503608226776123
0.8929299116134644 1.8617570400238037 1.4348844289779663
0.8929299116134644 1.8617569208145142 1.7194080352783203
0.8929299116134644 1.8617569208145142 2.003931760787964
0.8929298520088196 1.8617569208145142 2.2884552478790283
0.8929298520088196 1.8617569208145142 2.572978973388672
