ply
format ascii 1.0
element vertex 512
property float x
property float y
property float z
end_header
-0.024077296257019043 -0.9789071083068848 0.9153568744659424
-0.02167079970240593 -0.9789071083068848 0.7857630848884583
-0.019264305010437965 -0.9789071083068848 0.6561692953109741
-0.016857808455824852 -0.9789071083068848 0.5265755653381348
-0.014451312832534313 -0.9789071083068848 0.39698177576065063
-0.0120448162779212 -0.9789071083068848 0.2673879861831665
-0.009638320654630661 -0.9789071083068848 0.13779421150684357
-0.007231825031340122 -0.9789071083068848 0.008200441487133503
-0.004825328942388296 -0.9789071083068848 -0.12139333039522171
-0.0024188330862671137 -0.9789071083068848 -0.25098711252212524
-1.2337100997683592e-05 -0.9789071083068848 -0.380580872297287
0.002394158858805895 -0.9789071083068848 -0.5101746320724487
0.004800654947757721 -0.9789071083068848 -0.6397684216499329
0.00720715057104826 -0.9789071083068848 -0.769362211227417
0.009613646194338799 -0.9789071083068848 -0.8989560008049011
0.012020142748951912 -0.9789071083068848 -1.0285497903823853
-0.22146157920360565 -0.9588316082954407 0.9116915464401245
-0.21905508637428284 -0.9588316082954407 0.7820977568626404
-0.21664857864379883 -0.9588316082954407 0.6525039672851562
-0.214242085814476 -0.9588316082954407 0.5229102373123169
-0.2118355929851532 -0.9588316082954407 0.39331644773483276
-0.20942910015583038 -0.9588316082954407 0.26372265815734863
-0.20702260732650757 -0.9588316082954407 0.1341288834810257
-0.20461609959602356 -0.9588316082954407 0.004535107873380184
-0.20220960676670074 -0.9588316082954407 -0.12505866587162018
-0.19980311393737793 -0.9588316082954407 -0.2546524405479431
-0.19739662110805511 -0.9588316082954407 -0.38424623012542725
-0.1949901282787323 -0.9588316082954407 -0.5138400197029114
-0.1925836205482483 -0.9588316082954407 -0.6434337496757507
-0.19017712771892548 -0.9588316082954407 -0.7730275392532349
-0.18777063488960266 -0.9588316082954407 -0.902621328830719
-0.18536414206027985 -0.9588316082954407 -1.0322151184082031
-0.4107649326324463 -0.899427056312561 0.9081762433052063
-0.4083584249019623 -0.899427056312561 0.7785825133323669
-0.40595191717147827 -0.899427056312561 0.6489887237548828
-0.40354543924331665 -0.899427056312561 0.5193949341773987
-0.40113893151283264 -0.899427056312561 0.38980117440223694
-0.398732453584671 -0.899427056312561 0.2602073848247528
-0.396325945854187 -0.899427056312561 0.13061361014842987
-0.393919438123703 -0.899427056312561 0.0010198332602158189
-0.3915129601955414 -0.899427056312561 -0.128573939204216
-0.3891064524650574 -0.899427056312561 -0.25816771388053894
-0.38669997453689575 -0.899427056312561 -0.38776150345802307
-0.38429346680641174 -0.899427056312561 -0.5173552632331848
-0.38188695907592773 -0.899427056312561 -0.646949052810669
-0.3794804811477661 -0.899427056312561 -0.7765428423881531
-0.3770739734172821 -0.899427056312561 -0.9061365723609924
-0.3746674954891205 -0.899427056312561 -1.0357303619384766
-0.5842372179031372 -0.8031255006790161 0.9049549698829651
-0.5818307399749756 -0.8031255006790161 0.775361180305481
-0.579424262046814 -0.8031255006790161 0.6457673907279968
-0.5770177245140076 -0.8031255006790161 0.5161736607551575
-0.574611246585846 -0.8031255006790161 0.38657987117767334
-0.5722047686576843 -0.8031255006790161 0.2569860816001892
-0.5697982311248779 -0.8031255006790161 0.12739230692386627
-0.5673917531967163 -0.8031255006790161 -0.0022014661226421595
-0.5649852752685547 -0.8031255006790161 -0.1317952424287796
-0.5625787377357483 -0.8031255006790161 -0.26138901710510254
-0.5601722598075867 -0.8031255006790161 -0.39098280668258667
-0.557765781879425 -0.8031255006790161 -0.5205765962600708
-0.5553593039512634 -0.8031255006790161 -0.6501703262329102
-0.552952766418457 -0.8031255006790161 -0.7797641158103943
-0.5505462884902954 -0.8031255006790161 -0.9093579053878784
-0.5481398105621338 -0.8031255006790161 -1.0389516353607178
-0.734776496887207 -0.6738694906234741 0.9021595120429993
-0.7323700189590454 -0.6738694906234741 0.7725657224655151
-0.7299635410308838 -0.6738694906234741 0.6429719924926758
-0.7275570631027222 -0.6738694906234741 0.5133782029151917
-0.7251505255699158 -0.6738694906234741 0.3837844133377075
-0.7227440476417542 -0.6738694906234741 0.2541906535625458
-0.7203375697135925 -0.6738694906234741 0.12459686398506165
-0.7179310321807861 -0.6738694906234741 -0.004996910225600004
-0.7155245542526245 -0.6738694906234741 -0.13459068536758423
-0.7131180763244629 -0.6738694906234741 -0.26418447494506836
-0.7107115387916565 -0.6738694906234741 -0.3937782347202301
-0.7083050608634949 -0.6738694906234741 -0.5233719944953918
-0.7058985829353333 -0.6738694906234741 -0.652965784072876
-0.7034921050071716 -0.6738694906234741 -0.7825595736503601
-0.7010855674743652 -0.6738694906234741 -0.9121533632278442
-0.6986790895462036 -0.6738694906234741 -1.0417470932006836
-0.8562197089195251 -0.516950786113739 0.8999043703079224
-0.8538132309913635 -0.516950786113739 0.7703105807304382
-0.8514066934585571 -0.516950786113739 0.6407168507575989
-0.8490002155303955 -0.516950786113739 0.5111230611801147
-0.8465937376022339 -0.516950786113739 0.3815292716026306
-0.8441872000694275 -0.516950786113739 0.25193551182746887
-0.8417807221412659 -0.516950786113739 0.12234172224998474
-0.8393742442131042 -0.516950786113739 -0.007252052891999483
-0.8369677662849426 -0.516950786113739 -0.13684582710266113
-0.8345612287521362 -0.516950786113739 -0.26643961668014526
-0.8321547508239746 -0.516950786113739 -0.396033376455307
-0.829748272895813 -0.516950786113739 -0.5256271362304688
-0.8273417353630066 -0.516950786113739 -0.6552209258079529
-0.824935257434845 -0.516950786113739 -0.784814715385437
-0.8225287795066833 -0.516950786113739 -0.9144085049629211
-0.820122241973877 -0.516950786113739 -1.0440022945404053
-0.9435948729515076 -0.33879363536834717 0.8982818722724915
-0.941188395023346 -0.33879363536834717 0.7686880826950073
-0.9387819170951843 -0.33879363536834717 0.6390942931175232
-0.9363753795623779 -0.33879363536834717 0.5095005631446838
-0.9339689016342163 -0.33879363536834717 0.3799067437648773
-0.9315624237060547 -0.33879363536834717 0.2503129839897156
-0.9291558861732483 -0.33879363536834717 0.12071920931339264
-0.9267494082450867 -0.33879363536834717 -0.008874568156898022
-0.924342930316925 -0.33879363536834717 -0.13846834003925323
-0.9219363927841187 -0.33879363536834717 -0.26806211471557617
-0.919529914855957 -0.33879363536834717 -0.3976559042930603
-0.9171234369277954 -0.33879363536834717 -0.5272496938705444
-0.9147169589996338 -0.33879363536834717 -0.6568434238433838
-0.9123104214668274 -0.33879363536834717 -0.7864372134208679
-0.9099039435386658 -0.33879363536834717 -0.916031002998352
-0.9074974656105042 -0.33879363536834717 -1.0456247329711914
-0.993324875831604 -0.14669188857078552 0.8973584175109863
-0.9909183979034424 -0.14669188857078552 0.7677646279335022
-0.9885119199752808 -0.14669188857078552 0.6381708383560181
-0.9861054420471191 -0.14669187366962433 0.5085770487785339
-0.9836989045143127 -0.14669187366962433 0.3789832890033722
-0.9812924265861511 -0.14669187366962433 0.24938951432704926
-0.9788859486579895 -0.14669187366962433 0.11979574710130692
-0.9764794111251831 -0.14669187366962433 -0.00979803130030632
-0.9740729331970215 -0.14669187366962433 -0.13939180970191956
-0.9716664552688599 -0.14669187366962433 -0.2689855694770813
-0.9692599177360535 -0.14669187366962433 -0.39857935905456543
-0.9668534398078918 -0.14669187366962433 -0.5281731486320496
-0.9644469618797302 -0.14669187366962433 -0.6577669382095337
-0.9620404839515686 -0.14669187366962433 -0.787360668182373
-0.9596339464187622 -0.14669187366962433 -0.9169544577598572
-0.9572274684906006 -0.14669187366962433 -1.0465482473373413
-1.0033738613128662 0.051489848643541336 0.8971717953681946
-1.000967264175415 0.051489848643541336 0.7675780057907104
-0.9985608458518982 0.051489848643541336 0.6379842162132263
-0.9961543083190918 0.051489848643541336 0.508390486240387
-0.9937478303909302 0.051489848643541336 0.37879669666290283
-0.9913413524627686 0.051489848643541336 0.2492029219865799
-0.9889348149299622 0.051489852368831635 0.11960913985967636
-0.9865283370018005 0.051489852368831635 -0.009984633885324001
-0.9841218590736389 0.051489852368831635 -0.1395784169435501
-0.9817153215408325 0.051489852368831635 -0.26917219161987305
-0.9793088436126709 0.051489852368831635 -0.3987659513950348
-0.9769023656845093 0.051489852368831635 -0.5283597111701965
-0.9744958877563477 0.051489852368831635 -0.6579535007476807
-0.9720893502235413 0.051489852368831635 -0.7875472903251648
-0.9696828722953796 0.05148985609412193 -0.9171410799026489
-0.967276394367218 0.05148985609412193 -1.0467348098754883
-0.9733301997184753 0.24763797223567963 0.8977296948432922
-0.9709237217903137 0.24763797223567963 0.7681359052658081
-0.9685171842575073 0.24763797223567963 0.638542115688324
-0.9661107063293457 0.24763797223567963 0.5089483857154846
-0.9637042284011841 0.24763797223567963 0.3793545961380005
-0.9612977504730225 0.24763797223567963 0.24976080656051636
-0.9588912129402161 0.24763797223567963 0.12016703933477402
-0.9564847350120544 0.24763797223567963 -0.009426737204194069
-0.9540782570838928 0.24763797223567963 -0.13902051746845245
-0.9516717195510864 0.24763797223567963 -0.2686142921447754
-0.9492652416229248 0.24763797223567963 -0.39820805191993713
-0.9468587636947632 0.24763797223567963 -0.5278018116950989
-0.9444522261619568 0.24763797223567963 -0.657395601272583
-0.9420457482337952 0.24763797223567963 -0.7869893908500671
-0.9396392703056335 0.24763797223567963 -0.9165831804275513
-0.9372327923774719 0.24763797223567963 -1.0461769104003906
-0.9044240713119507 0.4337221384048462 0.8990092277526855
-0.9020175933837891 0.4337221384048462 0.7694154977798462
-0.8996110558509827 0.4337221384048462 0.6398217082023621
-0.897204577922821 0.4337221384048462 0.5102279186248779
-0.8947980999946594 0.4337221384048462 0.3806341588497162
-0.892391562461853 0.4337221384048462 0.25104036927223206
-0.8899850845336914 0.4337221384048462 0.12144659459590912
-0.8875786066055298 0.4337221384048462 -0.008147181943058968
-0.8851721286773682 0.4337221384048462 -0.13774095475673676
-0.8827655911445618 0.4337221384048462 -0.2673347294330597
-0.8803591132164001 0.4337221384048462 -0.3969285190105438
-0.8779526352882385 0.4337221384048462 -0.5265222787857056
-0.8755460977554321 0.4337221384048462 -0.6561160683631897
-0.8731396198272705 0.4337221384048462 -0.7857098579406738
-0.8707331418991089 0.4337221384048462 -0.9153035879135132
-0.8683266043663025 0.4337221384048462 -1.044897437095642
-0.7994764447212219 0.6021240949630737 0.9009580612182617
-0.7970699667930603 0.6021240949630737 0.7713642716407776
-0.7946634292602539 0.6021240949630737 0.6417705416679382
-0.7922569513320923 0.6021240949630737 0.5121767520904541
-0.7898504734039307 0.6021240949630737 0.38258296251296997
-0.7874439358711243 0.6021240949630737 0.2529892027378082
-0.7850374579429626 0.6021240949630737 0.1233954206109047
-0.782630980014801 0.6021240949630737 -0.006198353134095669
-0.7802244424819946 0.6021240949630737 -0.13579213619232178
-0.777817964553833 0.6021240949630737 -0.2653858959674835
-0.7754114866256714 0.6021240949630737 -0.39497968554496765
-0.7730050086975098 0.6021240949630737 -0.5245734453201294
-0.7705984711647034 0.6021240949630737 -0.6541672348976135
-0.7681919932365417 0.6021240949630737 -0.7837610244750977
-0.7657855153083801 0.6021240949630737 -0.913354754447937
-0.7633789777755737 0.6021240949630737 -1.042948603630066
-0.6627838611602783 0.745949387550354 0.9034963846206665
-0.6603773832321167 0.745949387550354 0.7739025950431824
-0.6579709053039551 0.745949387550354 0.644308865070343
-0.6555643677711487 0.745949387550354 0.5147150754928589
-0.6531578898429871 0.745949387550354 0.38512128591537476
-0.6507514119148254 0.745949387550354 0.255527526140213
-0.648344874382019 0.745949387550354 0.12593373656272888
-0.6459383964538574 0.745949387550354 -0.003660035552456975
-0.6435319185256958 0.745949387550354 -0.133253812789917
-0.6411253809928894 0.745949387550354 -0.26284757256507874
-0.6387189030647278 0.745949387550354 -0.39244136214256287
-0.6363124251365662 0.745949387550354 -0.5220351219177246
-0.6339059472084045 0.745949387550354 -0.6516289114952087
-0.6314994096755981 0.745949387550354 -0.7812227010726929
-0.6290929317474365 0.745949387550354 -0.910816490650177
-0.6266864538192749 0.745949387550354 -1.0404102802276611
-0.4999426007270813 0.8593097925186157 0.9065203070640564
-0.4975360929965973 0.8593097925186157 0.7769265174865723
-0.4951295852661133 0.8593097925186157 0.6473327279090881
-0.49272310733795166 0.8593097925186157 0.517738938331604
-0.49031659960746765 0.8593097925186157 0.38814517855644226
-0.48791009187698364 0.8593097925186157 0.25855138897895813
-0.485503613948822 0.8593097925186157 0.1289576292037964
-0.483097106218338 0.8593097925186157 -0.0006361486157402396
-0.4806906282901764 0.8593097925186157 -0.1302299201488495
-0.4782841205596924 0.8593097925186157 -0.2598237097263336
-0.4758776128292084 0.8593097925186157 -0.38941746950149536
-0.47347113490104675 0.8593097925186157 -0.5190112590789795
-0.47106462717056274 0.8593097925186157 -0.6486050486564636
-0.4686581492424011 0.8593097925186157 -0.778198778629303
-0.4662516415119171 0.8593097925186157 -0.9077925682067871
-0.4638451337814331 0.8593097925186157 -1.0373862981796265
-0.31761932373046875 0.9375643730163574 0.9099059104919434
-0.31521281599998474 0.9375643730163574 0.780312180519104
-0.3128063380718231 0.9375643730163574 0.6507183909416199
-0.3103998303413391 0.9375643730163574 0.5211246013641357
-0.3079933226108551 0.9375643730163574 0.391530841588974
-0.3055868446826935 0.9375643730163574 0.26193705201148987
-0.3031803369522095 0.9375643730163574 0.13234329223632812
-0.30077385902404785 0.9375643730163574 0.0027495096437633038
-0.29836735129356384 0.9375643730163574 -0.12684427201747894
-0.29596084356307983 0.9375643730163574 -0.2564380466938019
-0.2935543656349182 0.9375643730163574 -0.3860318064689636
-0.2911478579044342 0.9375643730163574 -0.5156255960464478
-0.2887413799762726 0.9375643730163574 -0.6452193856239319
-0.2863348722457886 0.9375643730163574 -0.7748131155967712
-0.28392836451530457 0.9375643730163574 -0.9044069051742554
-0.28152188658714294 0.9375643730163574 -1.0340007543563843
-0.12327840179204941 0.9775093197822571 0.9135147333145142
-0.12087190896272659 0.9775093197822571 0.7839210033416748
-0.11846541613340378 0.9775093197822571 0.6543272137641907
-0.11605891585350037 0.9775093197822571 0.5247334241867065
-0.11365242302417755 0.9775093197822571 0.3951396644115448
-0.11124592274427414 0.9775093197822571 0.26554587483406067
-0.10883942991495132 0.9775093197822571 0.13595210015773773
-0.10643293708562851 0.9775093197822571 0.006358329672366381
-0.1040264368057251 0.9775093197822571 -0.12323544919490814
-0.10161994397640228 0.9775093197822571 -0.2528292238712311
-0.09921344369649887 0.9775093197822571 -0.3824229836463928
-0.09680695086717606 0.9775093197822571 -0.512016773223877
-0.09440045058727264 0.9775093197822571 -0.6416105628013611
-0.09199395775794983 0.9775093197822571 -0.7712043523788452
-0.08958746492862701 0.9775093197822571 -0.9007980823516846
-0.0871809646487236 0.9775093197822571 -1.0303919315338135
0.07512380927801132 0.9775093197822571 0.9171990156173706
0.07753030955791473 0.9775093197822571 0.7876052260398865
0.07993680238723755 0.9775093197822571 0.6580114364624023
0.08234330266714096 0.9775093197822571 0.5284176468849182
0.08474979549646378 0.9775093197822571 0.39882388710975647
0.08715629577636719 0.9775093197822571 0.2692301273345947
0.08956278860569 0.9775093197822571 0.1396363377571106
0.09196928143501282 0.9775093197822571 0.010042566806077957
0.09437578171491623 0.9775093197822571 -0.11955121159553528
0.09678227454423904 0.9775093197822571 -0.24914498627185822
0.09918877482414246 0.9775093197822571 -0.37873876094818115
0.10159526765346527 0.9775093197822571 -0.5083325505256653
0.10400176048278809 0.9775093197822571 -0.6379263401031494
0.1064082607626915 0.9775093197822571 -0.7675200700759888
0.10881475359201431 0.9775093197822571 -0.8971138596534729
0.11122125387191772 0.9775093197822571 -1.026707649230957
0.26946473121643066 0.9375643730163574 0.9208078384399414
0.2718712091445923 0.9375643730163574 0.7912140488624573
0.2742777168750763 0.9375643730163574 0.6616202592849731
0.2766842246055603 0.9375643730163574 0.532026469707489
0.2790907025337219 0.9375643730163574 0.40243270993232727
0.28149721026420593 0.9375643730163574 0.2728389501571655
0.28390368819236755 0.9375643730163574 0.1432451605796814
0.28631019592285156 0.9375643730163574 0.01365138590335846
0.28871670365333557 0.9375643730163574 -0.11594238877296448
0.2911231815814972 0.9375643730163574 -0.24553616344928741
0.2935296893119812 0.9375643730163574 -0.37512993812561035
0.2959361672401428 0.9375643730163574 -0.5047237277030945
0.29834267497062683 0.9375643730163574 -0.6343175172805786
0.30074918270111084 0.9375643730163574 -0.763911247253418
0.30315566062927246 0.9375643730163574 -0.8935050368309021
0.30556216835975647 0.9375643730163574 -1.0230988264083862
0.4517880082130432 0.8593097925186157 0.9241935014724731
0.45419448614120483 0.8593097925186157 0.794599711894989
0.45660099387168884 0.8593097925186157 0.6650059223175049
0.45900747179985046 0.8593097925186157 0.5354121327400208
0.4614139795303345 0.8593097925186157 0.405818372964859
0.4638204872608185 0.8593097925186157 0.2762245833873749
0.4662269651889801 0.8593097925186157 0.14663082361221313
0.4686334729194641 0.8593097925186157 0.01703704334795475
0.47103995084762573 0.8593097925186157 -0.11255673319101334
0.47344645857810974 0.8593097925186157 -0.24215050041675568
0.47585296630859375 0.8593097925186157 -0.3717442750930786
0.47825944423675537 0.8593097925186157 -0.5013380646705627
0.4806659519672394 0.8593097925186157 -0.6309318542480469
0.483072429895401 0.8593097925186157 -0.7605255842208862
0.485478937625885 0.8593097925186157 -0.8901193737983704
0.487885445356369 0.8593097925186157 -1.0197131633758545
0.6146292686462402 0.745949387550354 0.9272173643112183
0.6170358061790466 0.745949387550354 0.7976235747337341
0.6194422841072083 0.745949387550354 0.66802978515625
0.6218487620353699 0.745949387550354 0.5384360551834106
0.6242552399635315 0.745949387550354 0.4088422656059265
0.6266617774963379 0.745949387550354 0.2792484760284424
0.6290682554244995 0.745949387550354 0.14965470135211945
0.6314747333526611 0.745949387550354 0.020060930401086807
0.6338812708854675 0.745949387550354 -0.10953284800052643
0.6362877488136292 0.745949387550354 -0.23912662267684937
0.6386942267417908 0.745949387550354 -0.3687203824520111
0.6411007642745972 0.745949387550354 -0.49831417202949524
0.6435072422027588 0.745949387550354 -0.627907931804657
0.6459137201309204 0.745949387550354 -0.7575017213821411
0.648320198059082 0.745949387550354 -0.8870955109596252
0.6507267355918884 0.745949387550354 -1.0166893005371094
0.7513218522071838 0.6021240949630737 0.929755687713623
0.7537283301353455 0.6021240949630737 0.8001618981361389
0.7561348080635071 0.6021240949630737 0.6705681085586548
0.7585413455963135 0.6021240949630737 0.5409743785858154
0.7609478235244751 0.6021240949630737 0.4113805592060089
0.7633543014526367 0.6021240949630737 0.28178679943084717
0.7657608389854431 0.6021240949630737 0.15219302475452423
0.7681673169136047 0.6021240949630737 0.022599246352910995
0.7705737948417664 0.6021240949630737 -0.10699453204870224
0.7729803323745728 0.6021240949630737 -0.23658829927444458
0.7753868103027344 0.6021240949630737 -0.3661820888519287
0.777793288230896 0.6021240949630737 -0.49577584862709045
0.7801998257637024 0.6021240949630737 -0.6253696084022522
0.782606303691864 0.6021240949630737 -0.7549633979797363
0.7850127816200256 0.6021240949630737 -0.8845571875572205
0.7874192595481873 0.6021240949630737 -1.0141509771347046
0.8562694787979126 0.4337221384048462 0.9317045211791992
0.8586759567260742 0.4337221384048462 0.8021107316017151
0.8610824942588806 0.4337221384048462 0.672516942024231
0.8634889721870422 0.4337221384048462 0.5429231524467468
0.8658954501152039 0.4337221384048462 0.4133293926715851
0.8683019876480103 0.4337221384048462 0.28373563289642334
0.8707084655761719 0.4337221384048462 0.1541418433189392
0.8731149435043335 0.4337221384048462 0.02454807423055172
0.8755214214324951 0.4337221384048462 -0.10504569858312607
0.8779279589653015 0.4337221384048462 -0.2346394807100296
0.8803344368934631 0.4337221384048462 -0.36423325538635254
0.8827409148216248 0.4337221384048462 -0.4938270151615143
0.8851474523544312 0.4337221384048462 -0.623420774936676
0.8875539302825928 0.4337221384048462 -0.7530145645141602
0.8899604082107544 0.4337221384048462 -0.8826083540916443
0.8923669457435608 0.4337221384048462 -1.0122021436691284
0.9251756072044373 0.24763797223567963 0.9329840540885925
0.9275820851325989 0.24763797223567963 0.8033902645111084
0.9299886226654053 0.24763797223567963 0.673796534538269
0.9323951005935669 0.24763797223567963 0.5442027449607849
0.9348015785217285 0.24763797223567963 0.4146089553833008
0.9372081160545349 0.24763797223567963 0.28501516580581665
0.9396145939826965 0.24763797223567963 0.1554214060306549
0.9420210719108582 0.24763797223567963 0.02582762949168682
0.9444275498390198 0.24763797223567963 -0.10376614332199097
0.9468340873718262 0.24763797223567963 -0.2333599179983139
0.9492405652999878 0.24763797223567963 -0.36295369267463684
0.9516470432281494 0.24763797223567963 -0.49254748225212097
0.9540535807609558 0.24763797223567963 -0.6221412420272827
0.9564600586891174 0.24763797223567963 -0.7517350316047668
0.958866536617279 0.24763797223567963 -0.881328821182251
0.9612730741500854 0.24763797223567963 -1.0109225511550903
0.9552192091941833 0.051489848643541336 0.9335419535636902
0.957625687122345 0.051489848643541336 0.803948163986206
0.9600322246551514 0.051489848643541336 0.6743543744087219
0.962438702583313 0.051489848643541336 0.5447606444358826
0.9648451805114746 0.051489848643541336 0.41516685485839844
0.967251718044281 0.051489848643541336 0.2855730652809143
0.9696581959724426 0.051489852368831635 0.15597930550575256
0.9720646739006042 0.051489852368831635 0.02638552337884903
0.9744712114334106 0.051489852368831635 -0.10320825129747391
0.9768776893615723 0.051489852368831635 -0.23280203342437744
0.9792841672897339 0.051489852368831635 -0.3623957931995392
0.9816906452178955 0.051489852368831635 -0.4919895827770233
0.9840971827507019 0.051489852368831635 -0.6215833425521851
0.9865036606788635 0.051489852368831635 -0.7511771321296692
0.9889101386070251 0.051489852368831635 -0.8807709217071533
0.9913166761398315 0.05148985609412193 -1.0103646516799927
0.9451702833175659 -0.14669188857078552 0.9333553314208984
0.9475768208503723 -0.14669188857078552 0.8037616014480591
0.9499832987785339 -0.14669188857078552 0.674167811870575
0.9523897767066956 -0.14669187366962433 0.5445740222930908
0.954796314239502 -0.14669187366962433 0.4149802327156067
0.9572027921676636 -0.14669187366962433 0.28538647294044495
0.9596092700958252 -0.14669187366962433 0.155792698264122
0.9620158076286316 -0.14669187366962433 0.026198919862508774
0.9644222855567932 -0.14669187366962433 -0.10339485853910446
0.9668287634849548 -0.14669187366962433 -0.2329886257648468
0.9692352414131165 -0.14669187366962433 -0.36258241534233093
0.9716417789459229 -0.14669187366962433 -0.4921761751174927
0.9740482568740845 -0.14669187366962433 -0.6217699646949768
0.9764547348022461 -0.14669187366962433 -0.7513637542724609
0.9788612723350525 -0.14669187366962433 -0.8809574842453003
0.9812677502632141 -0.14669187366962433 -1.0105513334274292
0.8954402804374695 -0.33879363536834717 0.9324318766593933
0.8978468179702759 -0.33879363536834717 0.8028380870819092
0.9002532958984375 -0.33879363536834717 0.6732443571090698
0.9026597738265991 -0.33879363536834717 0.5436505675315857
0.9050662517547607 -0.33879363536834717 0.41405677795410156
0.9074727892875671 -0.33879363536834717 0.2844630181789398
0.9098792672157288 -0.33879363536834717 0.1548692286014557
0.9122857451438904 -0.33879363536834717 0.0252754557877779
0.9146922826766968 -0.33879363536834717 -0.10431832075119019
0.9170987606048584 -0.33879363536834717 -0.23391209542751312
0.91950523853302 -0.33879363536834717 -0.36350587010383606
0.9219117760658264 -0.33879363536834717 -0.4930996596813202
0.924318253993988 -0.33879363536834717 -0.6226934194564819
0.9267247319221497 -0.33879363536834717 -0.7522872090339661
0.9291312098503113 -0.33879363536834717 -0.8818809986114502
0.9315377473831177 -0.33879363536834717 -1.0114747285842896
0.8080651164054871 -0.516950786113739 0.9308093786239624
0.8104715943336487 -0.516950786113739 0.8012155890464783
0.8128781318664551 -0.516950786113739 0.6716217994689941
0.8152846097946167 -0.516950786113739 0.5420280694961548
0.8176910877227783 -0.516950786113739 0.41243427991867065
0.8200975656509399 -0.516950786113739 0.2828404903411865
0.8225041031837463 -0.516950786113739 0.1532467156648636
0.824910581111908 -0.516950786113739 0.0236529391258955
0.8273170590400696 -0.516950786113739 -0.10594083368778229
0.829723596572876 -0.516950786113739 -0.23553460836410522
0.8321300745010376 -0.516950786113739 -0.36512839794158936
0.8345365524291992 -0.516950786113739 -0.4947221577167511
0.8369430899620056 -0.516950786113739 -0.6243159174919128
0.8393495678901672 -0.516950786113739 -0.753909707069397
0.8417560458183289 -0.516950786113739 -0.8835034966468811
0.8441625833511353 -0.516950786113739 -1.0130972862243652
0.686621904373169 -0.6738694906234741 0.9285542368888855
0.6890284419059753 -0.6738694906234741 0.7989604473114014
0.691434919834137 -0.6738694906234741 0.6693666577339172
0.6938413977622986 -0.6738694906234741 0.5397729277610779
0.696247935295105 -0.6738694906234741 0.41017910838127136
0.6986544132232666 -0.6738694906234741 0.2805853486061096
0.7010608911514282 -0.6738694906234741 0.15099157392978668
0.7034674286842346 -0.6738694906234741 0.021397795528173447
0.7058739066123962 -0.6738694906234741 -0.10819598287343979
0.7082803845405579 -0.6738694906234741 -0.23778975009918213
0.7106868624687195 -0.6738694906234741 -0.36738353967666626
0.7130934000015259 -0.6738694906234741 -0.496977299451828
0.7154998779296875 -0.6738694906234741 -0.6265710592269897
0.7179063558578491 -0.6738694906234741 -0.7561648488044739
0.7203128933906555 -0.6738694906234741 -0.885758638381958
0.7227193713188171 -0.6738694906234741 -1.0153523683547974
0.5360826253890991 -0.8031255006790161 0.9257587790489197
0.5384891033172607 -0.8031255006790161 0.7961649894714355
0.5408956408500671 -0.8031255006790161 0.6665711998939514
0.5433021187782288 -0.8031255006790161 0.5369774699211121
0.5457085967063904 -0.8031255006790161 0.40738368034362793
0.5481151342391968 -0.8031255006790161 0.2777898907661438
0.5505216121673584 -0.8031255006790161 0.14819613099098206
0.55292809009552 -0.8031255006790161 0.01860235072672367
0.5553346276283264 -0.8031255006790161 -0.11099142581224442
0.557741105556488 -0.8031255006790161 -0.24058520793914795
0.5601475834846497 -0.8031255006790161 -0.3701789677143097
0.562554121017456 -0.8031255006790161 -0.4997727572917938
0.5649605989456177 -0.8031255006790161 -0.6293665170669556
0.5673670768737793 -0.8031255006790161 -0.7589603066444397
0.5697735548019409 -0.8031255006790161 -0.8885540962219238
0.5721800923347473 -0.8031255006790161 -1.0181478261947632
0.3626103401184082 -0.899427056312561 0.9225375056266785
0.3650168180465698 -0.899427056312561 0.7929437160491943
0.36742332577705383 -0.899427056312561 0.6633499264717102
0.36982980370521545 -0.899427056312561 0.5337561368942261
0.37223631143569946 -0.899427056312561 0.40416237711906433
0.37464281916618347 -0.899427056312561 0.2745685875415802
0.3770492970943451 -0.899427056312561 0.14497482776641846
0.3794558048248291 -0.899427056312561 0.015381050296127796
0.3818622827529907 -0.899427056312561 -0.11421272158622742
0.38426879048347473 -0.899427056312561 -0.24380649626255035
0.38667529821395874 -0.899427056312561 -0.3734002709388733
0.38908177614212036 -0.899427056312561 -0.5029940605163574
0.39148828387260437 -0.899427056312561 -0.6325878500938416
0.393894761800766 -0.899427056312561 -0.7621815800666809
0.39630126953125 -0.899427056312561 -0.891775369644165
0.398707777261734 -0.899427056312561 -1.0213690996170044
0.17330698668956757 -0.9588316082954407 0.9190222024917603
0.17571347951889038 -0.9588316082954407 0.7894284129142761
0.1781199723482132 -0.9588316082954407 0.6598346829414368
0.180526465177536 -0.9588316082954407 0.5302408933639526
0.18293297290802002 -0.9588316082954407 0.4006471037864685
0.18533946573734283 -0.9588316082954407 0.2710533142089844
0.18774595856666565 -0.9588316082954407 0.14145955443382263
0.19015245139598846 -0.9588316082954407 0.011865776032209396
0.19255894422531128 -0.9588316082954407 -0.11772800236940384
0.1949654519557953 -0.9588316082954407 -0.24732176959514618
0.1973719447851181 -0.9588316082954407 -0.3769155442714691
0.19977843761444092 -0.9588316082954407 -0.5065093040466309
0.20218493044376373 -0.9588316082954407 -0.636103093624115
0.20459143817424774 -0.9588316082954407 -0.7656968832015991
0.20699793100357056 -0.9588316082954407 -0.8952906727790833
0.20940442383289337 -0.9588316082954407 -1.0248844623565674
-0.024077296257019043 -0.9789071083068848 0.9153568744659424
-0.02167079970240593 -0.9789071083068848 0.7857630848884583
-0.019264305010437965 -0.9789071083068848 0.6561692953109741
-0.016857808455824852 -0.9789071083068848 0.5265755653381348
-0.014451312832534313 -0.9789071083068848 0.39698177576065063
-0.0120448162779212 -0.9789071083068848 0.2673879861831665
-0.009638320654630661 -0.9789071083068848 0.13779421150684357
-0.007231825031340122 -0.9789071083068848 0.008200441487133503
-0.004825328942388296 -0.9789071083068848 -0.12139333039522171
-0.0024188330862671137 -0.9789071083068848 -0.25098711252212524
-1.2337100997683592e-05 -0.9789071083068848 -0.380580872297287
0.002394158858805895 -0.9789071083068848 -0.5101746320724487
0.004800654947757721 -0.9789071083068848 -0.6397684216499329
0.00720715057104826 -0.9789071083068848 -0.769362211227417
0.009613646194338799 -0.9789071083068848 -0.8989560008049011
0.012020142748951912 -0.9789071083068848 -1.0285497903823853
