ply
format ascii 1.0
element vertex 512
property float x
property float y
property float z
end_header
-0.0012782812118530273 1.0014766454696655 -0.9909141659736633
-0.0014125173911452293 1.0016212463378906 -0.8611902594566345
-0.0015467536868527532 1.0017659664154053 -0.7314663529396057
-0.0016809898661449552 1.0019105672836304 -0.6017424464225769
-0.001815226161852479 1.002055287361145 -0.4720185399055481
-0.001949462341144681 1.0021998882293701 -0.3422946333885193
-0.002083698520436883 1.0023446083068848 -0.21257071197032928
-0.002217934699729085 1.0024892091751099 -0.08284680545330048
-0.0023521711118519306 1.0026339292526245 0.04687710106372833
-0.0024864072911441326 1.0027786493301392 0.17660100758075714
-0.0026206434704363346 1.0029232501983643 0.30632492899894714
-0.0027548796497285366 1.003067970275879 0.43604883551597595
-0.0028891158290207386 1.003212571144104 0.5657727122306824
-0.0030233522411435843 1.0033572912216187 0.6954966187477112
-0.0031575884204357862 1.0035018920898438 0.82522052526474
-0.0032918245997279882 1.0036466121673584 0.9549444317817688
-0.20272181928157806 0.9809916019439697 -0.9910997748374939
-0.20285606384277344 0.9811362624168396 -0.8613758683204651
-0.20299029350280762 0.9812809228897095 -0.7316519618034363
-0.203124538064003 0.9814255833625793 -0.6019280552864075
-0.20325876772403717 0.9815702438354492 -0.47220414876937866
-0.20339301228523254 0.9817149043083191 -0.34248021245002747
-0.20352724194526672 0.981859564781189 -0.21275632083415985
-0.2036614716053009 0.9820042252540588 -0.08303241431713104
-0.20379571616649628 0.9821488857269287 0.046691495925188065
-0.20392994582653046 0.9822935461997986 0.17641539871692657
-0.20406419038772583 0.9824382066726685 0.3061393201351166
-0.20419842004776 0.9825828671455383 0.4358632266521454
-0.20433266460895538 0.9827275276184082 0.5655871033668518
-0.20446689426898956 0.9828721880912781 0.6953110098838806
-0.20460113883018494 0.983016848564148 0.8250349164009094
-0.20473536849021912 0.9831615090370178 0.9547588229179382
-0.39591825008392334 0.9203755855560303 -0.9912320971488953
-0.3960524797439575 0.9205202460289001 -0.8615081906318665
-0.3961867094039917 0.92066490650177 -0.7317842841148376
-0.39632096886634827 0.9208095669746399 -0.6020603775978088
-0.39645519852638245 0.9209542274475098 -0.47233644127845764
-0.3965894281864166 0.9210988879203796 -0.34261253476142883
-0.3967236578464508 0.9212436079978943 -0.21288864314556122
-0.396857887506485 0.9213882684707642 -0.08316472917795181
-0.39699214696884155 0.921532928943634 0.046559177339076996
-0.39712637662887573 0.9216775894165039 0.1762830764055252
-0.3972606062889099 0.9218222498893738 0.3060069978237152
-0.3973948359489441 0.9219669103622437 0.435730904340744
-0.39752909541130066 0.9221115708351135 0.5654547810554504
-0.39766332507133484 0.9222562313079834 0.6951786875724792
-0.397797554731369 0.9224008917808533 0.8249025940895081
-0.3979317843914032 0.9225455522537231 0.9546265006065369
-0.5729580521583557 0.8221102952957153 -0.9913057088851929
-0.5730922818183899 0.8222549557685852 -0.8615818023681641
-0.5732265114784241 0.8223996162414551 -0.7318578958511353
-0.5733607411384583 0.822544276714325 -0.6021339893341064
-0.5734950304031372 0.8226889371871948 -0.47241008281707764
-0.5736292600631714 0.8228335976600647 -0.34268617630004883
-0.5737634897232056 0.8229782581329346 -0.21296225488185883
-0.5738977193832397 0.8231229186058044 -0.08323834836483002
-0.5740319490432739 0.8232675790786743 0.04648555815219879
-0.5741661787033081 0.8234122395515442 0.1762094646692276
-0.5743004083633423 0.8235569000244141 0.3059333860874176
-0.5744346380233765 0.8237015604972839 0.4356572926044464
-0.5745688676834106 0.8238462805747986 0.5653811693191528
-0.5747031569480896 0.8239909410476685 0.6951050758361816
-0.5748373866081238 0.8241356015205383 0.8248289823532104
-0.574971616268158 0.8242802619934082 0.9545528888702393
-0.7265932559967041 0.6902186274528503 -0.9913175702095032
-0.7267274856567383 0.6903632879257202 -0.8615936636924744
-0.7268617153167725 0.6905079483985901 -0.7318697571754456
-0.7269959449768066 0.69065260887146 -0.6021458506584167
-0.7271301746368408 0.6907973289489746 -0.4724219739437103
-0.727264404296875 0.6909419894218445 -0.3426980674266815
-0.7273986339569092 0.6910866498947144 -0.21297414600849152
-0.7275328636169434 0.6912313103675842 -0.0832502469420433
-0.7276671528816223 0.6913759708404541 0.0464736633002758
-0.7278013825416565 0.691520631313324 0.1761975735425949
-0.7279356122016907 0.6916652917861938 0.3059214651584625
-0.7280698418617249 0.6918099522590637 0.43564537167549133
-0.728204071521759 0.6919546127319336 0.5653693079948425
-0.7283383011817932 0.6920992732048035 0.6950932145118713
-0.7284725308418274 0.6922439336776733 0.8248171210289001
-0.7286067605018616 0.6923885941505432 0.954541027545929
-0.8505339622497559 0.5301003456115723 -0.9912672638893127
-0.85066819190979 0.5302450060844421 -0.8615433573722839
-0.8508024215698242 0.530389666557312 -0.7318194508552551
-0.8509366512298584 0.5305343270301819 -0.6020955443382263
-0.8510708808898926 0.5306789875030518 -0.4723716676235199
-0.8512051105499268 0.5308236479759216 -0.3426477611064911
-0.8513393402099609 0.5309683084487915 -0.2129238396883011
-0.8514735698699951 0.5311129689216614 -0.08319994062185287
-0.8516077995300293 0.5312576293945312 0.04652396962046623
-0.8517420887947083 0.5314022898674011 0.17624787986278534
-0.8518763184547424 0.531546950340271 0.30597177147865295
-0.8520105481147766 0.5316916108131409 0.43569567799568176
-0.8521447777748108 0.5318362712860107 0.565419614315033
-0.852279007434845 0.5319809913635254 0.6951435208320618
-0.8524132370948792 0.5321256518363953 0.8248674273490906
-0.8525474667549133 0.5322703123092651 0.9545913338661194
-0.939706027507782 0.3483106195926666 -0.991156816482544
-0.9398402571678162 0.3484552800655365 -0.8614329099655151
-0.9399744868278503 0.34859994053840637 -0.7317090034484863
-0.9401087164878845 0.34874460101127625 -0.6019850969314575
-0.9402429461479187 0.3488892614841461 -0.4722612202167511
-0.9403771758079529 0.349033921957016 -0.3425373136997223
-0.9405114054679871 0.34917861223220825 -0.2128133922815323
-0.9406456351280212 0.3493232727050781 -0.08308948576450348
-0.9407799243927002 0.349467933177948 0.04663442075252533
-0.9409141540527344 0.34961259365081787 0.17635832726955414
-0.9410483837127686 0.34975725412368774 0.30608224868774414
-0.9411826133728027 0.3499019145965576 0.43580615520477295
-0.9413168430328369 0.3500465750694275 0.5655300617218018
-0.9414510726928711 0.35019123554229736 0.6952539682388306
-0.9415853023529053 0.35033589601516724 0.8249778747558594
-0.9417195320129395 0.3504805862903595 0.9547017812728882
-0.9904587268829346 0.15229198336601257 -0.9909907579421997
-0.9905929565429688 0.15243664383888245 -0.8612668514251709
-0.9907271862030029 0.15258130431175232 -0.7315429449081421
-0.9908614754676819 0.1527259796857834 -0.6018190383911133
-0.9909957051277161 0.15287064015865326 -0.4720951318740845
-0.9911299347877502 0.15301530063152313 -0.34237122535705566
-0.9912641644477844 0.153159961104393 -0.21264731884002686
-0.9913983941078186 0.15330462157726288 -0.08292341232299805
-0.9915326237678528 0.15344929695129395 0.04680049419403076
-0.991666853427887 0.15359395742416382 0.17652440071105957
-0.9918010830879211 0.1537386178970337 0.3062483072280884
-0.9919353127479553 0.15388327836990356 0.4359722137451172
-0.9920696020126343 0.15402793884277344 0.565696120262146
-0.9922038316726685 0.1541726142168045 0.6954200267791748
-0.9923380613327026 0.15431727468967438 0.8251439332962036
-0.9924722909927368 0.15446193516254425 0.9548678398132324
-1.0007143020629883 -0.04993054270744324 -0.9907758831977844
-1.0008485317230225 -0.049785878509283066 -0.8610519766807556
-1.0009827613830566 -0.04964121803641319 -0.7313280701637268
-1.0011169910430908 -0.04949655383825302 -0.601604163646698
-1.001251220703125 -0.04935188964009285 -0.4718802273273468
-1.0013854503631592 -0.04920722544193268 -0.342156320810318
-1.0015196800231934 -0.04906256124377251 -0.21243241429328918
-1.0016539096832275 -0.048917897045612335 -0.08270851522684097
-1.0017881393432617 -0.048773232847452164 0.047015395015478134
-1.0019224882125854 -0.04862857237458229 0.17673930525779724
-1.0020567178726196 -0.04848390817642212 0.30646321177482605
-1.0021909475326538 -0.04833924397826195 0.43618711829185486
-1.002325177192688 -0.048194579780101776 0.5659109950065613
-1.0024594068527222 -0.048049915581941605 0.6956349611282349
-1.0025936365127563 -0.04790525138378143 0.8253588676452637
-1.0027278661727905 -0.04776058718562126 0.9550827741622925
-0.9700528383255005 -0.2500779330730438 -0.9905209541320801
-0.9701870679855347 -0.24993328750133514 -0.8607970476150513
-0.9703212976455688 -0.24978861212730408 -0.7310731410980225
-0.970455527305603 -0.2496439516544342 -0.6013492345809937
-0.970589816570282 -0.24949929118156433 -0.47162529826164246
-0.9707240462303162 -0.24935463070869446 -0.34190139174461365
-0.9708582758903503 -0.24920997023582458 -0.21217750012874603
-0.9709925055503845 -0.24906529486179352 -0.08245358616113663
-0.9711267352104187 -0.24892063438892365 0.04727032035589218
-0.9712609648704529 -0.24877597391605377 0.1769942343235016
-0.9713951945304871 -0.2486313134431839 0.3067181408405304
-0.9715294241905212 -0.24848663806915283 0.4364420473575592
-0.9716636538505554 -0.24834197759628296 0.5661659240722656
-0.9717979431152344 -0.24819731712341309 0.6958898305892944
-0.9719321727752686 -0.2480526566505432 0.8256137371063232
-0.9720664024353027 -0.24790799617767334 0.955337643623352
-0.8997296094894409 -0.4399561583995819 -0.9902364015579224
-0.8998638987541199 -0.43981149792671204 -0.8605124950408936
-0.899998128414154 -0.43966683745384216 -0.7307885885238647
-0.9001323580741882 -0.4395221769809723 -0.6010646820068359
-0.9002665877342224 -0.4393775165081024 -0.4713408052921295
-0.9004008173942566 -0.43923285603523254 -0.3416168987751007
-0.9005350470542908 -0.43908819556236267 -0.2118929773569107
-0.900669276714325 -0.4389435052871704 -0.0821690708398819
-0.9008035063743591 -0.43879884481430054 0.04755483567714691
-0.9009377360343933 -0.43865418434143066 0.17727874219417572
-0.9010720252990723 -0.4385095238685608 0.3070026636123657
-0.9012062549591064 -0.4383648633956909 0.43672657012939453
-0.9013404846191406 -0.43822020292282104 0.5664504766464233
-0.9014747142791748 -0.43807554244995117 0.6961743831634521
-0.901608943939209 -0.4379308819770813 0.825898289680481
-0.9017431735992432 -0.4377862215042114 0.9556221961975098
-0.7926236987113953 -0.6117915511131287 -0.989933967590332
-0.7927579879760742 -0.6116468906402588 -0.8602100610733032
-0.7928922176361084 -0.6115022301673889 -0.7304861545562744
-0.7930264472961426 -0.611357569694519 -0.6007622480392456
-0.7931606769561768 -0.6112129092216492 -0.4710383415222168
-0.7932949066162109 -0.6110682487487793 -0.341314435005188
-0.7934291362762451 -0.6109235882759094 -0.21159052848815918
-0.7935633659362793 -0.6107789278030396 -0.08186661452054977
-0.7936975955963135 -0.6106342673301697 0.047857291996479034
-0.7938318252563477 -0.6104896068572998 0.17758120596408844
-0.7939661145210266 -0.6103449463844299 0.30730509757995605
-0.7941003441810608 -0.6102002859115601 0.43702900409698486
-0.794234573841095 -0.6100556254386902 0.5667529106140137
-0.7943688035011292 -0.6099109649658203 0.6964768171310425
-0.7945030331611633 -0.6097662448883057 0.8262007236480713
-0.7946372628211975 -0.6096215844154358 0.9559246301651001
-0.6531200408935547 -0.7585492134094238 -0.9896259307861328
-0.6532542705535889 -0.7584044933319092 -0.859902024269104
-0.653388500213623 -0.7582598328590393 -0.7301781177520752
-0.6535227298736572 -0.7581151723861694 -0.6004542112350464
-0.6536569595336914 -0.7579705119132996 -0.47073033452033997
-0.6537912487983704 -0.7578258514404297 -0.34100642800331116
-0.6539254784584045 -0.7576811909675598 -0.21128250658512115
-0.6540597081184387 -0.7575365304946899 -0.08155860006809235
-0.6541939377784729 -0.7573918700218201 0.04816530644893646
-0.6543281674385071 -0.7572472095489502 0.17788921296596527
-0.6544623970985413 -0.7571025490760803 0.3076131343841553
-0.6545966267585754 -0.7569578886032104 0.4373370409011841
-0.6547308564186096 -0.7568132281303406 0.5670609474182129
-0.6548650860786438 -0.7566685676574707 0.6967848539352417
-0.6549993753433228 -0.7565239071846008 0.8265087604522705
-0.6551336050033569 -0.756379246711731 0.9562326669692993
-0.48692986369132996 -0.8742207288742065 -0.9893249869346619
-0.4870641231536865 -0.8740760684013367 -0.8596010804176331
-0.4871983528137207 -0.8739314079284668 -0.7298771739006042
-0.4873325824737549 -0.8737867474555969 -0.6001532673835754
-0.48746681213378906 -0.873642086982727 -0.47042936086654663
-0.48760107159614563 -0.8734974265098572 -0.3407054543495178
-0.4877353012561798 -0.8733527660369873 -0.210981547832489
-0.487869530916214 -0.8732081055641174 -0.08125763386487961
-0.48800376057624817 -0.8730634450912476 0.0484662726521492
-0.48813799023628235 -0.8729187846183777 0.1781901717185974
-0.4882722496986389 -0.8727741241455078 0.3079140782356262
-0.4884064793586731 -0.8726294636726379 0.43763798475265503
-0.4885407090187073 -0.8724848031997681 0.5673618912696838
-0.48867493867874146 -0.8723401427268982 0.6970857977867126
-0.48880916833877563 -0.8721954822540283 0.8268097043037415
-0.4889434278011322 -0.8720508217811584 0.9565336108207703
-0.3008570671081543 -0.9540706872940063 -0.9890434145927429
-0.30099132657051086 -0.9539259672164917 -0.8593195080757141
-0.30112555623054504 -0.9537813067436218 -0.7295956015586853
-0.3012597858905792 -0.953636646270752 -0.5998716950416565
-0.3013940155506134 -0.9534919857978821 -0.4701477587223053
-0.3015282452106476 -0.9533473253250122 -0.3404238522052765
-0.30166250467300415 -0.9532026648521423 -0.21069994568824768
-0.30179673433303833 -0.9530580043792725 -0.08097604662179947
-0.3019309639930725 -0.9529133439064026 0.04874786362051964
-0.3020651936531067 -0.9527686834335327 0.17847177386283875
-0.30219945311546326 -0.9526240229606628 0.30819568037986755
-0.30233368277549744 -0.952479362487793 0.43791958689689636
-0.3024679124355316 -0.9523347020149231 0.5676434636116028
-0.3026021420955658 -0.9521900415420532 0.6973673701286316
-0.3027363717556 -0.9520453810691833 0.8270913362503052
-0.30287063121795654 -0.9519007205963135 0.956815242767334
-0.10251948982477188 -0.9948298335075378 -0.9887927174568176
-0.10265372693538666 -0.994685173034668 -0.8590688109397888
-0.10278796404600143 -0.9945405125617981 -0.72934490442276
-0.10292220115661621 -0.9943958520889282 -0.5996209979057312
-0.10305643081665039 -0.9942511916160583 -0.4698970913887024
-0.10319066792726517 -0.9941065311431885 -0.3401731848716736
-0.10332490503787994 -0.9939618706703186 -0.21044926345348358
-0.10345914214849472 -0.9938172101974487 -0.08072535693645477
-0.1035933792591095 -0.9936725497245789 0.048998553305864334
-0.10372761636972427 -0.993527889251709 0.17872245609760284
-0.10386185348033905 -0.9933832287788391 0.30844637751579285
-0.10399609059095383 -0.9932385087013245 0.43817028403282166
-0.104130320250988 -0.9930938482284546 0.5678941607475281
-0.10426455736160278 -0.9929491877555847 0.6976180672645569
-0.10439879447221756 -0.9928045272827148 0.8273419737815857
-0.10453303158283234 -0.992659866809845 0.9570658802986145
0.09996292740106583 -0.9948295950889587 -0.9885832071304321
0.09982869029045105 -0.9946849346160889 -0.8588593006134033
0.09969445317983627 -0.994540274143219 -0.7291353940963745
0.0995602160692215 -0.9943956136703491 -0.5994114875793457
0.09942597895860672 -0.9942509531974792 -0.4696875512599945
0.09929174184799194 -0.9941062927246094 -0.3399636447429657
0.09915751218795776 -0.9939616322517395 -0.2102397382259369
0.09902327507734299 -0.9938169717788696 -0.08051583170890808
0.09888903796672821 -0.9936723113059998 0.049208078533411026
0.09875480085611343 -0.9935276508331299 0.17893198132514954
0.09862056374549866 -0.99338299036026 0.30865588784217834
0.09848632663488388 -0.9932383298873901 0.43837979435920715
0.0983520895242691 -0.9930936098098755 0.5681037306785583
0.09821785241365433 -0.9929489493370056 0.6978276371955872
0.09808362275362015 -0.9928042888641357 0.827551543712616
0.09794938564300537 -0.9926596283912659 0.9572754502296448
0.29830050468444824 -0.954069972038269 -0.9884234070777893
0.29816627502441406 -0.9539253115653992 -0.8586995005607605
0.2980320453643799 -0.9537806510925293 -0.7289755940437317
0.2978978157043457 -0.9536359906196594 -0.5992516875267029
0.29776355624198914 -0.9534913301467896 -0.4695277810096741
0.29762932658195496 -0.9533466696739197 -0.33980387449264526
0.2974950969219208 -0.9532020092010498 -0.21007995307445526
0.2973608672618866 -0.9530573487281799 -0.08035604655742645
0.2972266376018524 -0.9529126286506653 0.049367859959602356
0.29709237813949585 -0.9527679681777954 0.17909176647663116
0.29695814847946167 -0.9526233077049255 0.30881568789482117
0.2968239188194275 -0.9524786472320557 0.43853959441185
0.2966896891593933 -0.9523339867591858 0.5682634711265564
0.29655542969703674 -0.9521893262863159 0.6979873776435852
0.29642120003700256 -0.952044665813446 0.827711284160614
0.2962869703769684 -0.9519000053405762 0.9574351906776428
0.4843733012676239 -0.8742196559906006 -0.9883198738098145
0.4842390716075897 -0.8740749955177307 -0.8585959672927856
0.48410484194755554 -0.8739302754402161 -0.7288720607757568
0.48397061228752136 -0.8737856149673462 -0.599148154258728
0.4838363826274872 -0.8736409544944763 -0.4694242775440216
0.4837021231651306 -0.8734962940216064 -0.3397003710269928
0.48356789350509644 -0.8733516335487366 -0.2099764496088028
0.48343366384506226 -0.8732069730758667 -0.08025255054235458
0.4832994341850281 -0.8730623126029968 0.04947135969996452
0.4831651747226715 -0.872917652130127 0.17919526994228363
0.48303094506263733 -0.8727729916572571 0.30891916155815125
0.48289671540260315 -0.8726283311843872 0.43864306807518005
0.48276248574256897 -0.8724836707115173 0.5683670043945312
0.4826282560825348 -0.8723390102386475 0.6980909109115601
0.4824939966201782 -0.8721943497657776 0.8278148174285889
0.48235976696014404 -0.8720496892929077 0.9575387239456177
0.6505634784698486 -0.7585476636886597 -0.9882768988609314
0.6504292488098145 -0.7584030032157898 -0.8585529923439026
0.6502950191497803 -0.7582583427429199 -0.7288290858268738
0.6501607894897461 -0.75811368227005 -0.599105179309845
0.6500265598297119 -0.7579690217971802 -0.46938130259513855
0.649892270565033 -0.7578243613243103 -0.33965739607810974
0.6497580409049988 -0.7576797008514404 -0.20993347465991974
0.6496238112449646 -0.7575350403785706 -0.08020956814289093
0.6494895815849304 -0.7573903799057007 0.04951433464884758
0.6493553519248962 -0.7572457194328308 0.1792382448911667
0.6492211222648621 -0.7571010589599609 0.3089621365070343
0.6490868926048279 -0.7569563984870911 0.4386860728263855
0.6489526629447937 -0.7568117380142212 0.5684099793434143
0.6488184332847595 -0.7566670775413513 0.6981338858604431
0.6486841440200806 -0.7565224170684814 0.8278577923774719
0.6485499143600464 -0.7563777565956116 0.9575816988945007
0.7900671362876892 -0.6117897629737854 -0.9882962107658386
0.789932906627655 -0.6116451025009155 -0.8585723042488098
0.7897986769676208 -0.6115003824234009 -0.728848397731781
0.7896644473075867 -0.611355721950531 -0.5991244912147522
0.7895302176475525 -0.6112110614776611 -0.4694005846977234
0.7893959879875183 -0.6110664010047913 -0.3396766781806946
0.7892617583274841 -0.6109217405319214 -0.20995278656482697
0.78912752866745 -0.6107770800590515 -0.08022887259721756
0.7889932990074158 -0.6106324195861816 0.04949503391981125
0.7888590097427368 -0.6104877591133118 0.17921894788742065
0.7887247800827026 -0.6103430986404419 0.30894285440444946
0.7885905504226685 -0.610198438167572 0.43866676092147827
0.7884563207626343 -0.6100537776947021 0.5683906674385071
0.7883220911026001 -0.6099091172218323 0.6981145739555359
0.7881878614425659 -0.6097644567489624 0.8278384804725647
0.7880536317825317 -0.6096197962760925 0.9575623869895935
0.8971730470657349 -0.43995410203933716 -0.988377034664154
0.8970388174057007 -0.4398094415664673 -0.8586531281471252
0.8969045877456665 -0.439664751291275 -0.7289292216300964
0.8967703580856323 -0.43952009081840515 -0.5992053151130676
0.8966361284255981 -0.4393754303455353 -0.46948137879371643
0.896501898765564 -0.4392307698726654 -0.3397574722766876
0.8963676691055298 -0.43908610939979553 -0.21003358066082
0.8962334394454956 -0.43894144892692566 -0.0803096666932106
0.8960992097854614 -0.4387967884540558 0.04941423982381821
0.8959649205207825 -0.4386521279811859 0.1791381537914276
0.8958306908607483 -0.43850746750831604 0.3088620603084564
0.8956964612007141 -0.4383627772331238 0.43858596682548523
0.8955622315406799 -0.4382181167602539 0.5683098435401917
0.8954280018806458 -0.43807345628738403 0.6980337500572205
0.8952937722206116 -0.43792879581451416 0.8277576565742493
0.8951595425605774 -0.4377841353416443 0.9574815630912781
0.9674962759017944 -0.25007569789886475 -0.9885159730911255
0.9673620462417603 -0.24993105232715607 -0.8587920665740967
0.9672278165817261 -0.249786376953125 -0.7290681600570679
0.9670935869216919 -0.24964171648025513 -0.5993442535400391
0.9669593572616577 -0.24949705600738525 -0.46962037682533264
0.9668251276016235 -0.24935239553451538 -0.33989647030830383
0.9666908383369446 -0.24920772016048431 -0.21017254889011383
0.9665566086769104 -0.24906305968761444 -0.08044864237308502
0.9664223790168762 -0.24891839921474457 0.04927526414394379
0.966288149356842 -0.2487737387418747 0.1789991706609726
0.9661539196968079 -0.24862907826900482 0.3087230920791626
0.9660196900367737 -0.24848440289497375 0.4384469985961914
0.9658854603767395 -0.24833974242210388 0.5681709051132202
0.9657512307167053 -0.248195081949234 0.697894811630249
0.9656170010566711 -0.24805042147636414 0.8276187181472778
0.9654827117919922 -0.24790576100349426 0.9573426246643066
0.9981577396392822 -0.04992823675274849 -0.9887074828147888
0.998023509979248 -0.04978357255458832 -0.85898357629776
0.9978892803192139 -0.049638908356428146 -0.7292596697807312
0.9977550506591797 -0.04949424788355827 -0.5995357632637024
0.9976208209991455 -0.0493495836853981 -0.4698118269443512
0.9974865913391113 -0.04920491948723793 -0.3400879204273224
0.9973523020744324 -0.04906025528907776 -0.21036402881145477
0.9972180724143982 -0.04891559109091759 -0.08064011484384537
0.997083842754364 -0.048770926892757416 0.04908379167318344
0.9969496130943298 -0.048626262694597244 0.17880770564079285
0.9968153834342957 -0.04848159849643707 0.30853161215782166
0.9966811537742615 -0.0483369380235672 0.43825551867485046
0.9965469241142273 -0.04819227382540703 0.5679793953895569
0.9964126944541931 -0.04804760962724686 0.6977033019065857
0.9962784647941589 -0.047902945429086685 0.8274272084236145
0.99614417552948 -0.047758281230926514 0.9571511745452881
0.9879021644592285 0.15229426324367523 -0.9889435768127441
0.9877679347991943 0.1524389237165451 -0.8592196702957153
0.9876337051391602 0.15258359909057617 -0.7294957637786865
0.987499475479126 0.15272825956344604 -0.5997718572616577
0.9873652458190918 0.15287292003631592 -0.4700479507446289
0.9872310161590576 0.1530175805091858 -0.3403240442276001
0.9870967864990234 0.15316224098205566 -0.21060015261173248
0.9869624972343445 0.15330691635608673 -0.08087623864412308
0.9868282675743103 0.1534515768289566 0.04884766787290573
0.9866940379142761 0.15359623730182648 0.17857158184051514
0.9865598082542419 0.15374089777469635 0.30829548835754395
0.9864255785942078 0.15388555824756622 0.43801939487457275
0.9862913489341736 0.1540302336215973 0.5677433013916016
0.9861571192741394 0.15417489409446716 0.6974672079086304
0.9860228896141052 0.15431955456733704 0.8271911144256592
0.985888659954071 0.1544642150402069 0.956915020942688
0.9371494650840759 0.3483127951622009 -0.9892147183418274
0.9370152354240417 0.3484574556350708 -0.8594908118247986
0.9368809461593628 0.3486021161079407 -0.7297669053077698
0.9367467164993286 0.34874677658081055 -0.600042998790741
0.9366124868392944 0.3488914370536804 -0.47031906247138977
0.9364782571792603 0.3490360975265503 -0.34059515595436096
0.9363440275192261 0.34918075799942017 -0.21087126433849335
0.9362097978591919 0.34932541847229004 -0.08114735037088394
0.9360755681991577 0.3494700789451599 0.04857655614614487
0.9359413385391235 0.3496147692203522 0.17830047011375427
0.9358071088790894 0.34975942969322205 0.3080243766307831
0.9356728196144104 0.3499040901660919 0.4377482831478119
0.9355385899543762 0.3500487506389618 0.5674721598625183
0.935404360294342 0.35019341111183167 0.6971960663795471
0.9352701306343079 0.35033807158470154 0.8269199728965759
0.9351359009742737 0.3504827320575714 0.9566439390182495
0.8479773998260498 0.5301023125648499 -0.9895097017288208
0.8478431105613708 0.5302469730377197 -0.859785795211792
0.8477088809013367 0.5303916335105896 -0.7300618886947632
0.8475746512413025 0.5305362939834595 -0.6003379821777344
0.8474404215812683 0.5306809544563293 -0.47061407566070557
0.8473061919212341 0.5308256149291992 -0.34089016914367676
0.8471719622612 0.5309702754020691 -0.21116626262664795
0.8470377326011658 0.531114935874939 -0.08144234865903854
0.8469035029411316 0.5312595963478088 0.048281557857990265
0.8467692732810974 0.5314042568206787 0.17800547182559967
0.8466349840164185 0.5315489172935486 0.3077293634414673
0.8465007543563843 0.5316935777664185 0.4374532699584961
0.8463665246963501 0.5318382382392883 0.5671771764755249
0.8462322950363159 0.5319828987121582 0.6969010829925537
0.8460980653762817 0.5321275591850281 0.8266249895095825
0.8459638357162476 0.5322722792625427 0.9563488960266113
0.724036693572998 0.690220296382904 -0.9898164868354797
0.7239024639129639 0.6903649568557739 -0.8600925803184509
0.7237682342529297 0.6905096769332886 -0.7303686738014221
0.7236339449882507 0.6906543374061584 -0.6006447672843933
0.7234997153282166 0.6907989978790283 -0.4709208905696869
0.7233654856681824 0.6909436583518982 -0.3411969840526581
0.7232312560081482 0.6910883188247681 -0.21147306263446808
0.723097026348114 0.6912329792976379 -0.08174915611743927
0.7229627966880798 0.6913776397705078 0.04797474667429924
0.7228285670280457 0.6915223002433777 0.17769865691661835
0.7226943373680115 0.6916669607162476 0.30742254853248596
0.7225601077079773 0.6918116211891174 0.43714648485183716
0.7224258184432983 0.6919562816619873 0.566870391368866
0.7222915887832642 0.6921009421348572 0.6965942978858948
0.72215735912323 0.692245602607727 0.8263182044029236
0.7220231294631958 0.6923902630805969 0.9560421109199524
0.5704014897346497 0.8221116065979004 -0.9901225566864014
0.5702672600746155 0.8222562670707703 -0.8603986501693726
0.5701330304145813 0.8224009275436401 -0.7306747436523438
0.5699988007545471 0.82254558801651 -0.6009508371353149
0.5698645710945129 0.8226902484893799 -0.47122693061828613
0.5697303414344788 0.8228349089622498 -0.3415030241012573
0.5695961117744446 0.8229795694351196 -0.2117791324853897
0.5694618225097656 0.8231242299079895 -0.0820552185177803
0.5693275928497314 0.8232688903808594 0.047668687999248505
0.5691933631896973 0.8234135508537292 0.1773926019668579
0.5690591335296631 0.8235582709312439 0.3071165084838867
0.5689249038696289 0.8237029314041138 0.4368404150009155
0.5687906742095947 0.8238475918769836 0.5665643215179443
0.5686564445495605 0.8239922523498535 0.6962882280349731
0.5685222148895264 0.8241369128227234 0.826012134552002
0.5683879852294922 0.8242815732955933 0.9557360410690308
0.3933616876602173 0.9203764796257019 -0.9904153347015381
0.3932274580001831 0.9205211997032166 -0.8606914281845093
0.39309319853782654 0.9206658601760864 -0.7309675216674805
0.39295896887779236 0.9208105206489563 -0.6012436151504517
0.3928247392177582 0.9209551811218262 -0.47151970863342285
0.392690509557724 0.921099841594696 -0.34179580211639404
0.3925562798976898 0.9212445020675659 -0.21207191050052643
0.39242202043533325 0.9213891625404358 -0.08234799653291702
0.3922877907752991 0.9215338230133057 0.047375909984111786
0.3921535611152649 0.9216784834861755 0.17709980905056
0.3920193314552307 0.9218231439590454 0.30682373046875
0.39188507199287415 0.9219678044319153 0.4365476369857788
0.39175084233283997 0.9221124649047852 0.5662715435028076
0.3916166126728058 0.922257125377655 0.6959954500198364
0.3914823830127716 0.9224017858505249 0.8257193565368652
0.3913481533527374 0.9225464463233948 0.955443263053894
0.200165256857872 0.9809920191764832 -0.99068284034729
0.20003102719783783 0.9811367392539978 -0.8609589338302612
0.19989679753780365 0.9812813997268677 -0.7312350273132324
0.19976255297660828 0.9814260601997375 -0.6015111207962036
0.1996283233165741 0.9815707206726074 -0.4717872440814972
0.19949407875537872 0.9817153811454773 -0.3420633375644684
0.19935984909534454 0.9818600416183472 -0.21233941614627838
0.19922560453414917 0.982004702091217 -0.08261550962924957
0.199091374874115 0.9821493625640869 0.047108396887779236
0.19895713031291962 0.9822940230369568 0.17683230340480804
0.19882290065288544 0.9824386835098267 0.30655622482299805
0.19868867099285126 0.9825833439826965 0.43628013134002686
0.19855442643165588 0.9827280044555664 0.5660040378570557
0.1984201967716217 0.9828726649284363 0.6957279443740845
0.19828595221042633 0.9830173254013062 0.8254518508911133
0.19815172255039215 0.983161985874176 0.9551757574081421
-0.0012782812118530273 1.0014766454696655 -0.9909141659736633
-0.0014125173911452293 1.0016212463378906 -0.8611902594566345
-0.0015467536868527532 1.0017659664154053 -0.7314663529396057
-0.0016809898661449552 1.0019105672836304 -0.6017424464225769
-0.001815226161852479 1.002055287361145 -0.4720185399055481
-0.001949462341144681 1.0021998882293701 -0.3422946333885193
-0.002083698520436883 1.0023446083068848 -0.21257071197032928
-0.002217934699729085 1.0024892091751099 -0.08284680545330048
-0.0023521711118519306 1.0026339292526245 0.04687710106372833
-0.0024864072911441326 1.0027786493301392 0.17660100758075714
-0.0026206434704363346 1.0029232501983643 0.30632492899894714
-0.0027548796497285366 1.003067970275879 0.43604883551597595
-0.0028891158290207386 1.003212571144104 0.5657727122306824
-0.0030233522411435843 1.0033572912216187 0.6954966187477112
-0.0031575884204357862 1.0035018920898438 0.82522052526474
-0.0032918245997279882 1.0036466121673584 0.9549444317817688
