ply
format ascii 1.0
element vertex 512
property float x
property float y
property float z
end_header
0.0005288124084472656 0.9944757223129272 -1.0030732154846191
0.00022126322437543422 0.9952934384346008 -0.8735384941101074
-8.628595242043957e-05 0.9961112141609192 -0.7440037131309509
-0.00039383512921631336 0.9969289302825928 -0.6144689917564392
-0.00070138432784006 0.9977467060089111 -0.4849342107772827
-0.0010089335264638066 0.9985644221305847 -0.3553994596004486
-0.0013164826668798923 0.9993821978569031 -0.2258647084236145
-0.001624031807295978 1.0001999139785767 -0.0963299572467804
-0.0019315810641273856 1.001017689704895 0.03320480138063431
-0.0022391302045434713 1.0018354654312134 0.162739560008049
-0.002546679461374879 1.0026532411575317 0.2922743260860443
-0.0028542284853756428 1.0034708976745605 0.4218090772628784
-0.0031617777422070503 1.004288673400879 0.5513437986373901
-0.003469326999038458 1.0051064491271973 0.6808785796165466
-0.0037768760230392218 1.0059242248535156 0.8104133605957031
-0.004084425512701273 1.0067418813705444 0.9399480819702148
-0.20080798864364624 0.9739990830421448 -1.0034220218658447
-0.20111553370952606 0.9748168587684631 -0.8738872408866882
-0.20142309367656708 0.9756345748901367 -0.7443524599075317
-0.2017306387424469 0.9764523506164551 -0.61481773853302
-0.20203818380832672 0.9772700667381287 -0.4852829873561859
-0.20234574377536774 0.978087842464447 -0.3557482361793518
-0.20265328884124756 0.9789055585861206 -0.2262134701013565
-0.20296083390712738 0.979723334312439 -0.0966787114739418
-0.2032683789730072 0.9805410504341125 0.0328560434281826
-0.20357593894004822 0.9813588261604309 0.162390798330307
-0.20388348400592804 0.9821766018867493 0.2919255495071411
-0.20419102907180786 0.9829943180084229 0.4214603006839752
-0.20449857413768768 0.9838120937347412 0.5509950518608093
-0.2048061341047287 0.9846298098564148 0.6805298328399658
-0.20511367917060852 0.9854475855827332 0.8100645542144775
-0.20542122423648834 0.9862653017044067 0.939599335193634
-0.3939020335674286 0.9134135842323303 -1.0034979581832886
-0.3942095935344696 0.9142313003540039 -0.8739632368087769
-0.3945171535015106 0.9150490760803223 -0.7444284558296204
-0.39482468366622925 0.9158668518066406 -0.6148937344551086
-0.39513224363327026 0.9166845679283142 -0.48535895347595215
-0.3954397737979889 0.9175023436546326 -0.35582420229911804
-0.3957473337650299 0.9183200597763062 -0.22628945112228394
-0.3960548937320709 0.9191378355026245 -0.09675469249486923
-0.39636242389678955 0.9199555516242981 0.03278006240725517
-0.39666998386383057 0.9207733273506165 0.16231481730937958
-0.3969775438308716 0.92159104347229 0.2918495833873749
-0.3972850739955902 0.9224088191986084 0.421384334564209
-0.3975926339626312 0.9232265949249268 0.5509190559387207
-0.39790019392967224 0.9240443110466003 0.6804538369178772
-0.39820772409439087 0.9248620867729187 0.8099886178970337
-0.3985152840614319 0.9256798028945923 0.9395233392715454
-0.5708480477333069 0.8151995539665222 -1.003298044204712
-0.5711556077003479 0.8160173296928406 -0.8737633228302002
-0.5714631676673889 0.8168350458145142 -0.7442285418510437
-0.5717706680297852 0.8176528215408325 -0.614693820476532
-0.5720782279968262 0.8184705376625061 -0.4851590394973755
-0.5723857879638672 0.8192883133888245 -0.3556242883205414
-0.5726933479309082 0.820106029510498 -0.22608953714370728
-0.5730009078979492 0.8209238052368164 -0.09655478596687317
-0.5733084678649902 0.8217415809631348 0.032979968935251236
-0.5736159682273865 0.8225592970848083 0.16251473128795624
-0.5739235281944275 0.8233770728111267 0.29204946756362915
-0.5742310881614685 0.8241947889328003 0.42158424854278564
-0.5745386481285095 0.8250125646591187 0.5511189699172974
-0.5748462080955505 0.8258302807807922 0.6806537508964539
-0.5751537084579468 0.8266480565071106 0.8101884722709656
-0.5754612684249878 0.8274657726287842 0.9397232532501221
-0.7244018316268921 0.6833779215812683 -1.0028305053710938
-0.7247093915939331 0.6841956973075867 -0.8732957243919373
-0.7250168919563293 0.6850134134292603 -0.7437609434127808
-0.7253244519233704 0.6858311891555786 -0.614226222038269
-0.7256320118904114 0.6866489052772522 -0.48469144105911255
-0.7259395718574524 0.6874666810035706 -0.35515668988227844
-0.7262471318244934 0.6882843971252441 -0.22562193870544434
-0.7265546321868896 0.6891021728515625 -0.09608717262744904
-0.7268621921539307 0.6899198889732361 0.03344757854938507
-0.7271697521209717 0.6907376646995544 0.16298232972621918
-0.7274773120880127 0.6915554404258728 0.2925170958042145
-0.7277848720550537 0.6923731565475464 0.4220518469810486
-0.7280924320220947 0.6931909322738647 0.5515866279602051
-0.728399932384491 0.6940086483955383 0.6811213493347168
-0.728707492351532 0.6948264241218567 0.8106561303138733
-0.729015052318573 0.6956441402435303 0.940190851688385
-0.8482768535614014 0.5233454704284668 -1.0021142959594727
-0.8485844135284424 0.5241631865501404 -0.8725795149803162
-0.8488919138908386 0.5249809622764587 -0.7430447936058044
-0.8491994738578796 0.5257987380027771 -0.613510012626648
-0.8495070338249207 0.5266164541244507 -0.48397526144981384
-0.8498145937919617 0.527434229850769 -0.35444051027297974
-0.8501221537590027 0.5282519459724426 -0.22490575909614563
-0.8504297137260437 0.529069721698761 -0.09537100791931152
-0.8507372140884399 0.5298874378204346 0.03416374698281288
-0.851044774055481 0.5307052135467529 0.16369850933551788
-0.851352334022522 0.5315229892730713 0.2932332456111908
-0.851659893989563 0.5323407053947449 0.4227680265903473
-0.851967453956604 0.5331584811210632 0.5523027777671814
-0.8522749543190002 0.5339761972427368 0.6818374991416931
-0.8525825142860413 0.5347939729690552 0.8113722801208496
-0.8528900742530823 0.5356116890907288 0.9409070611000061
-0.9374016523361206 0.3416539430618286 -1.0011788606643677
-0.9377092123031616 0.3424716889858246 -0.871644139289856
-0.9380167722702026 0.34328943490982056 -0.7421093583106995
-0.9383243322372437 0.34410718083381653 -0.6125746369361877
-0.9386318325996399 0.3449249267578125 -0.48303985595703125
-0.9389393925666809 0.34574267268180847 -0.35350510478019714
-0.9392469525337219 0.34656041860580444 -0.22397035360336304
-0.9395545125007629 0.3473781645298004 -0.09443560242652893
-0.939862072467804 0.3481959402561188 0.03509915620088577
-0.940169632434845 0.34901368618011475 0.16463391482830048
-0.9404771327972412 0.3498314321041107 0.2941686809062958
-0.9407846927642822 0.3506491780281067 0.4237034320831299
-0.9410922527313232 0.35146692395210266 0.5532381534576416
-0.9413998126983643 0.35228466987609863 0.6827729344367981
-0.9417073726654053 0.3531024158000946 0.8123077154159546
-0.9420148730278015 0.3539201617240906 0.9418424367904663
-0.9881274700164795 0.1457417905330658 -1.0000625848770142
-0.9884350299835205 0.14655955135822296 -0.8705278038978577
-0.9887425899505615 0.14737729728221893 -0.7409930229187012
-0.9890501499176025 0.1481950432062149 -0.6114582419395447
-0.9893577098846436 0.14901278913021088 -0.48192352056503296
-0.9896652698516846 0.14983054995536804 -0.35238876938819885
-0.9899727702140808 0.150648295879364 -0.22285400331020355
-0.9902803301811218 0.15146604180335999 -0.09331924468278885
-0.9905878901481628 0.15228378772735596 0.03621550649404526
-0.9908954501152039 0.15310154855251312 0.16575026512145996
-0.9912030100822449 0.1539192944765091 0.29528501629829407
-0.9915105700492859 0.15473704040050507 0.4248197674751282
-0.9918180704116821 0.15555478632450104 0.5543545484542847
-0.9921256303787231 0.156372532248497 0.6838892698287964
-0.9924331903457642 0.15719029307365417 0.8134240508079529
-0.9927407503128052 0.15800803899765015 0.9429587721824646
-0.9983776211738586 -0.05637027695775032 -0.9988109469413757
-0.9986851811408997 -0.05555252730846405 -0.8692761659622192
-0.9989927411079407 -0.05473477765917778 -0.7397414445877075
-0.9993003010749817 -0.05391702800989151 -0.610206663608551
-0.9996078014373779 -0.05309927836060524 -0.4806719124317169
-0.999915361404419 -0.05228152871131897 -0.3511371612548828
-1.00022292137146 -0.0514637790620327 -0.2216024100780487
-1.000530481338501 -0.05064602941274643 -0.0920676589012146
-1.000838041305542 -0.04982827976346016 0.037467099726200104
-1.001145601272583 -0.04901053011417389 0.1670018583536148
-1.001453161239624 -0.04819278419017792 0.2965366244316101
-1.001760721206665 -0.04737503454089165 0.4260713756084442
-1.002068281173706 -0.04655728489160538 0.5556061267852783
-1.0023757219314575 -0.04573953524231911 0.68514084815979
-1.0026832818984985 -0.04492178559303284 0.8146756291389465
-1.0029908418655396 -0.04410403594374657 0.944210410118103
-0.9677324295043945 -0.25640779733657837 -0.9974753260612488
-0.9680399894714355 -0.2555900514125824 -0.8679406046867371
-0.9683474898338318 -0.2547723054885864 -0.7384058237075806
-0.9686550498008728 -0.25395455956459045 -0.6088711023330688
-0.9689626097679138 -0.2531367838382721 -0.47933632135391235
-0.9692701697349548 -0.2523190379142761 -0.34980157017707825
-0.9695777297019958 -0.25150129199028015 -0.22026681900024414
-0.9698852896690369 -0.2506835460662842 -0.09073206782341003
-0.9701927900314331 -0.2498658001422882 0.03880269080400467
-0.9705003499984741 -0.24904805421829224 0.16833744943141937
-0.9708079099655151 -0.24823030829429626 0.2978722155094147
-0.9711154699325562 -0.2474125474691391 0.4274069666862488
-0.9714230298995972 -0.24659480154514313 0.5569416880607605
-0.9717305302619934 -0.24577705562114716 0.686476469039917
-0.9720380902290344 -0.24495930969715118 0.8160112500190735
-0.9723456501960754 -0.24414154887199402 0.9455459713935852
-0.8974464535713196 -0.44618120789527893 -0.9961104393005371
-0.8977540135383606 -0.44536346197128296 -0.8665756583213806
-0.8980615735054016 -0.4445456862449646 -0.7370409369468689
-0.8983691334724426 -0.44372794032096863 -0.6075061559677124
-0.8986766934394836 -0.44291019439697266 -0.4779714047908783
-0.8989841938018799 -0.4420924484729767 -0.3484366536140442
-0.8992917537689209 -0.4412747025489807 -0.21890190243721008
-0.8995993137359619 -0.44045695662498474 -0.08936715126037598
-0.8999068737030029 -0.43963921070098877 0.04016760364174843
-0.900214433670044 -0.4388214647769928 0.16970235109329224
-0.900521993637085 -0.4380037188529968 0.29923710227012634
-0.9008294939994812 -0.43718594312667847 0.42877185344696045
-0.9011370539665222 -0.4363681972026825 0.5583066344261169
-0.9014446139335632 -0.4355504512786865 0.6878413558006287
-0.9017521739006042 -0.43473270535469055 0.8173761367797852
-0.9020597338676453 -0.4339149594306946 0.9469109177589417
-0.7903972864151001 -0.6179211139678955 -0.9947720766067505
-0.7907048463821411 -0.6171033978462219 -0.8652373552322388
-0.7910124063491821 -0.6162856221199036 -0.7357025742530823
-0.7913199663162231 -0.61546790599823 -0.6061677932739258
-0.7916275262832642 -0.6146501302719116 -0.47663307189941406
-0.7919350862503052 -0.613832414150238 -0.34709832072257996
-0.7922425866127014 -0.6130146384239197 -0.21756355464458466
-0.7925501465797424 -0.6121969223022461 -0.08802880346775055
-0.7928577065467834 -0.6113791465759277 0.041505955159664154
-0.7931652665138245 -0.6105613708496094 0.17104071378707886
-0.7934728264808655 -0.6097436547279358 0.30057546496391296
-0.7937803268432617 -0.6089258790016174 0.43011021614074707
-0.7940878868103027 -0.6081081628799438 0.5596449971199036
-0.7943954467773438 -0.6072903871536255 0.6891797184944153
-0.7947030067443848 -0.6064726710319519 0.8187144994735718
-0.7950105667114258 -0.6056548953056335 0.9482492208480835
-0.650967538356781 -0.7645965814590454 -0.9935150742530823
-0.651275098323822 -0.763778805732727 -0.8639803528785706
-0.651582658290863 -0.7629610896110535 -0.7344455718994141
-0.651890218257904 -0.7621433138847351 -0.6049108505249023
-0.6521977186203003 -0.7613255977630615 -0.47537606954574585
-0.6525052785873413 -0.7605078220367432 -0.34584131836891174
-0.6528128385543823 -0.7596901059150696 -0.21630655229091644
-0.6531203985214233 -0.7588723301887512 -0.08677180111408234
-0.6534279584884644 -0.7580545544624329 0.04276295378804207
-0.6537355184555054 -0.7572368383407593 0.17229771614074707
-0.6540430188179016 -0.7564190626144409 0.3018324673175812
-0.6543505787849426 -0.7556013464927673 0.4313672184944153
-0.6546581387519836 -0.754783570766449 0.5609019994735718
-0.6549656987190247 -0.7539658546447754 0.6904367208480835
-0.6552732586860657 -0.753148078918457 0.81997150182724
-0.6555807590484619 -0.7523303627967834 0.9495062232017517
-0.4848654568195343 -0.88020259141922 -0.9923909306526184
-0.48517298698425293 -0.8793848156929016 -0.8628561496734619
-0.48548054695129395 -0.878567099571228 -0.7333213686943054
-0.48578810691833496 -0.8777493238449097 -0.6037866473197937
-0.4860956370830536 -0.8769316077232361 -0.4742518663406372
-0.4864031970500946 -0.8761138319969177 -0.3447171151638031
-0.48671072721481323 -0.8752961158752441 -0.215182363986969
-0.48701828718185425 -0.8744783401489258 -0.08564761281013489
-0.48732584714889526 -0.8736605644226074 0.04388714209198952
-0.4876333773136139 -0.8728428483009338 0.17342188954353333
-0.4879409372806549 -0.8720250725746155 0.30295664072036743
-0.4882484972476959 -0.8712073564529419 0.4324914216995239
-0.48855602741241455 -0.8703895807266235 0.5620261430740356
-0.48886358737945557 -0.86957186460495 0.6915609240531921
-0.4891711473464966 -0.8687540888786316 0.8210956454277039
-0.4894786775112152 -0.867936372756958 0.9506304264068604
-0.29889124631881714 -0.9600062370300293 -0.9914455413818359
-0.29919880628585815 -0.9591885209083557 -0.8619108200073242
-0.2995063364505768 -0.9583707451820374 -0.7323760390281677
-0.2998138964176178 -0.957552969455719 -0.6028412580490112
-0.3001214265823364 -0.9567352533340454 -0.4733065366744995
-0.30042898654937744 -0.955917477607727 -0.3437717854976654
-0.30073654651641846 -0.9550997614860535 -0.2142370194196701
-0.3010440766811371 -0.9542819857597351 -0.0847022607922554
-0.3013516366481781 -0.9534642696380615 0.044832490384578705
-0.3016591966152191 -0.9526464939117432 0.1743672490119934
-0.30196672677993774 -0.9518287777900696 0.3039020001888275
-0.30227428674697876 -0.9510110020637512 0.4334367513656616
-0.3025818467140198 -0.9501932263374329 0.5629715323448181
-0.3028893768787384 -0.9493755102157593 0.6925062537193298
-0.3031969368457794 -0.9485577344894409 0.8220410346984863
-0.30350446701049805 -0.9477400183677673 0.951575756072998
-0.10065875202417374 -1.0007404088974 -0.9907177686691284
-0.10096629709005356 -0.9999226331710815 -0.8611829876899719
-0.10127384960651398 -0.999104917049408 -0.7316482067108154
-0.1015813946723938 -0.9982871413230896 -0.6021134853363037
-0.10188894718885422 -0.9974693655967712 -0.4725787341594696
-0.10219649225473404 -0.9966516494750977 -0.3430439531803131
-0.10250404477119446 -0.9958338737487793 -0.2135092169046402
-0.10281159728765488 -0.9950161576271057 -0.0839744582772255
-0.1031191423535347 -0.9941983819007874 0.04556030035018921
-0.10342669486999512 -0.9933806657791138 0.17509505152702332
-0.10373423993587494 -0.9925628900527954 0.3046298027038574
-0.10404179245233536 -0.9917451739311218 0.43416455388069153
-0.10434933751821518 -0.9909273982048035 0.5636993050575256
-0.1046568900346756 -0.9901096224784851 0.6932340860366821
-0.10496443510055542 -0.9892919063568115 0.8227688074111938
-0.10527198761701584 -0.9884741306304932 0.9523035883903503
0.10171637684106827 -1.0007373094558716 -0.990237295627594
0.10140882432460785 -0.999919593334198 -0.8607025146484375
0.10110127925872803 -0.9991018772125244 -0.731167733669281
0.10079372674226761 -0.998284101486206 -0.6016330122947693
0.10048618167638779 -0.9974663853645325 -0.4720982611179352
0.10017862915992737 -0.9966486096382141 -0.3425634801387787
0.09987107664346695 -0.9958308339118958 -0.21302874386310577
0.09956353157758713 -0.9950131177902222 -0.08349398523569107
0.09925597906112671 -0.9941953420639038 0.04604077339172363
0.09894843399524689 -0.9933776259422302 0.17557552456855774
0.09864088147878647 -0.9925598502159119 0.30511027574539185
0.09833333641290665 -0.9917421340942383 0.43464502692222595
0.09802578389644623 -0.9909243583679199 0.5641797780990601
0.0977182388305664 -0.9901066422462463 0.6937145590782166
0.09741068631410599 -0.989288866519928 0.8232492804527283
0.09710313379764557 -0.9884710907936096 0.9527840614318848
0.29994887113571167 -0.959997296333313 -0.9900237917900085
0.29964131116867065 -0.9591795206069946 -0.8604890704154968
0.299333781003952 -0.9583617448806763 -0.7309542894363403
0.299026221036911 -0.9575440287590027 -0.6014195680618286
0.29871866106987 -0.9567262530326843 -0.4718847870826721
0.29841113090515137 -0.9559085369110107 -0.342350035905838
0.29810357093811035 -0.9550907611846924 -0.2128152698278427
0.29779601097106934 -0.9542730450630188 -0.0832805186510086
0.2974884808063507 -0.9534552693367004 0.0462542362511158
0.2971809208393097 -0.9526375532150269 0.1757889986038208
0.29687339067459106 -0.9518197774887085 0.3053237497806549
0.29656583070755005 -0.9510020017623901 0.434858500957489
0.29625827074050903 -0.9501842856407166 0.5643932819366455
0.2959507405757904 -0.9493665099143982 0.6939280033111572
0.2956431806087494 -0.9485487937927246 0.8234627842903137
0.2953356206417084 -0.9477310180664062 0.9529975056648254
0.48592308163642883 -0.8801880478858948 -0.9900860786437988
0.4856155216693878 -0.8793702721595764 -0.8605513572692871
0.4853079617023468 -0.8785525560379028 -0.7310165762901306
0.4850004315376282 -0.8777347803115845 -0.6014817953109741
0.48469287157058716 -0.8769170641899109 -0.4719470739364624
0.48438531160354614 -0.8760992884635925 -0.3424123227596283
0.4840777814388275 -0.8752815127372742 -0.212877556681633
0.4837702214717865 -0.8744637966156006 -0.08334279805421829
0.48346269130706787 -0.8736460208892822 0.046191953122615814
0.48315513134002686 -0.8728283047676086 0.17572671175003052
0.48284757137298584 -0.8720105290412903 0.3052614629268646
0.4825400412082672 -0.8711928129196167 0.43479621410369873
0.4822324812412262 -0.8703750371932983 0.5643309950828552
0.4819249212741852 -0.8695573210716248 0.6938657164573669
0.48161739110946655 -0.8687395453453064 0.8234004974365234
0.48130983114242554 -0.867921769618988 0.9529352188110352
0.6520251631736755 -0.7645770311355591 -0.9904215931892395
0.6517176032066345 -0.7637593150138855 -0.860886812210083
0.6514101028442383 -0.7629415392875671 -0.7313520312309265
0.6511025428771973 -0.7621238231658936 -0.6018173098564148
0.6507949829101562 -0.7613060474395752 -0.4722825586795807
0.6504874229431152 -0.7604882717132568 -0.3427477777004242
0.6501798629760742 -0.7596705555915833 -0.21321304142475128
0.6498723030090332 -0.7588527798652649 -0.08367828279733658
0.649564802646637 -0.7580350637435913 0.045856475830078125
0.649257242679596 -0.757217288017273 0.17539122700691223
0.6489496827125549 -0.7563995718955994 0.30492597818374634
0.6486421227455139 -0.755581796169281 0.43446072936058044
0.6483345627784729 -0.7547640800476074 0.5639954805374146
0.6480270624160767 -0.7539463043212891 0.693530261516571
0.6477195024490356 -0.7531285285949707 0.8230649828910828
0.6474119424819946 -0.7523108124732971 0.9525997638702393
0.7914549112319946 -0.6178974509239197 -0.9910165071487427
0.7911474108695984 -0.6170796751976013 -0.8614817261695862
0.7908398509025574 -0.6162619590759277 -0.7319470047950745
0.7905322909355164 -0.6154441833496094 -0.602412223815918
0.7902247309684753 -0.614626407623291 -0.47287750244140625
0.7899171710014343 -0.6138086915016174 -0.34334272146224976
0.7896096706390381 -0.6129909157752991 -0.21380798518657684
0.7893021106719971 -0.6121731996536255 -0.08427321910858154
0.788994550704956 -0.6113554239273071 0.045261532068252563
0.788686990737915 -0.6105377078056335 0.17479628324508667
0.788379430770874 -0.6097199320793152 0.3043310344219208
0.788071870803833 -0.6089022159576416 0.4338657855987549
0.7877643704414368 -0.6080844402313232 0.5634005665779114
0.7874568104743958 -0.6072666645050049 0.6929352879524231
0.7871492505073547 -0.6064489483833313 0.8224700689315796
0.7868416905403137 -0.6056311726570129 0.9520047903060913
0.8985040783882141 -0.44615426659584045 -0.9918465614318848
0.8981965184211731 -0.4453365206718445 -0.8623117804527283
0.8978890180587769 -0.4445187747478485 -0.7327770590782166
0.8975814580917358 -0.44370102882385254 -0.6032422780990601
0.8972738981246948 -0.44288328289985657 -0.47370752692222595
0.8969663381576538 -0.4420655369758606 -0.34417277574539185
0.8966587781906128 -0.4412477910518646 -0.21463802456855774
0.8963512778282166 -0.44043004512786865 -0.08510327339172363
0.8960437178611755 -0.4396122992038727 0.04443148523569107
0.8957361578941345 -0.4387945234775543 0.17396624386310577
0.8954285979270935 -0.43797677755355835 0.3035010099411011
0.8951210379600525 -0.4371590316295624 0.4330357611179352
0.8948134779930115 -0.4363412857055664 0.5625705122947693
0.8945059776306152 -0.43552353978157043 0.692105233669281
0.8941984176635742 -0.43470579385757446 0.8216400146484375
0.8938908576965332 -0.4338880479335785 0.951174795627594
0.9687900543212891 -0.25637876987457275 -0.992877721786499
0.968482494354248 -0.2555610239505768 -0.8633430004119873
0.968174934387207 -0.2547432780265808 -0.7338082194328308
0.967867374420166 -0.25392553210258484 -0.6042734384536743
0.9675598740577698 -0.25310778617858887 -0.4747387170791626
0.9672523140907288 -0.2522900104522705 -0.3452039659023285
0.9669447541236877 -0.25147226452827454 -0.2156691998243332
0.9666371941566467 -0.25065451860427856 -0.08613444119691849
0.9663296341896057 -0.2498367726802826 0.04340031370520592
0.9660220742225647 -0.24901902675628662 0.17293506860733032
0.9657145738601685 -0.24820128083229065 0.30246981978416443
0.9654070138931274 -0.24738352000713348 0.43200457096099854
0.9650994539260864 -0.2465657740831375 0.561539351940155
0.9647918939590454 -0.24574802815914154 0.6910740733146667
0.9644843339920044 -0.24493028223514557 0.8206088542938232
0.9641767740249634 -0.2441125363111496 0.950143575668335
0.9994352459907532 -0.056340333074331284 -0.9940677881240845
0.9991276860237122 -0.05552258342504501 -0.8645330667495728
0.9988201856613159 -0.05470483377575874 -0.7349982857704163
0.9985126256942749 -0.05388708412647247 -0.6054635643959045
0.9982050657272339 -0.0530693344771862 -0.47592878341674805
0.9978975057601929 -0.05225158482789993 -0.34639403223991394
0.9975899457931519 -0.05143383517861366 -0.21685926616191864
0.9972823858261108 -0.05061608552932739 -0.08732451498508453
0.9969748854637146 -0.04979833960533142 0.04221023619174957
0.9966673254966736 -0.04898058995604515 0.17174498736858368
0.9963597655296326 -0.04816284030675888 0.301279753446579
0.9960522055625916 -0.04734509065747261 0.4308145046234131
0.9957446455955505 -0.04652734100818634 0.5603492856025696
0.9954371452331543 -0.04570959135890007 0.6898840069770813
0.9951295852661133 -0.0448918417096138 0.8194187879562378
0.9948220252990723 -0.04407409206032753 0.9489535093307495
0.989185094833374 0.14577142894268036 -0.9953680634498596
0.9888775944709778 0.14658918976783752 -0.8658332824707031
0.9885700345039368 0.1474069356918335 -0.7362985610961914
0.9882624745368958 0.14822468161582947 -0.6067637801170349
0.9879549145698547 0.14904242753982544 -0.4772290587425232
0.9876473546028137 0.1498601734638214 -0.3476942777633667
0.9873398542404175 0.15067793428897858 -0.2181595414876938
0.9870322942733765 0.15149568021297455 -0.08862478286027908
0.9867247343063354 0.15231342613697052 0.04090997576713562
0.9864171743392944 0.1531311720609665 0.17044472694396973
0.9861096143722534 0.15394893288612366 0.29997947812080383
0.9858020544052124 0.15476667881011963 0.42951422929763794
0.9854945540428162 0.1555844247341156 0.5590490102767944
0.9851869940757751 0.15640217065811157 0.6885837316513062
0.9848794341087341 0.15721993148326874 0.8181185126304626
0.9845718741416931 0.1580376774072647 0.9476532340049744
0.9384592771530151 0.3416820466518402 -0.9967252612113953
0.9381517171859741 0.3424997925758362 -0.8671905398368835
0.9378442168235779 0.34331753849983215 -0.737655758857727
0.9375366568565369 0.3441352844238281 -0.6081210374832153
0.9372290968894958 0.3449530601501465 -0.47858625650405884
0.9369215369224548 0.34577080607414246 -0.34905150532722473
0.9366139769554138 0.3465885519981384 -0.21951675415039062
0.9363064169883728 0.3474062979221344 -0.08998199552297592
0.9359989166259766 0.34822404384613037 0.03955275937914848
0.9356913566589355 0.34904178977012634 0.1690875142812729
0.9353837966918945 0.3498595356941223 0.2986222803592682
0.9350762367248535 0.3506772816181183 0.4281570315361023
0.9347686767578125 0.35149502754211426 0.557691752910614
0.9344611763954163 0.3523128032684326 0.6872265338897705
0.9341536164283752 0.3531305491924286 0.816761314868927
0.9338460564613342 0.35394829511642456 0.9462960362434387
0.8493344783782959 0.5233709216117859 -0.9980838894844055
0.8490269184112549 0.5241886377334595 -0.868549108505249
0.8487193584442139 0.5250064134597778 -0.7390143871307373
0.8484117984771729 0.5258241295814514 -0.6094796061515808
0.8481042981147766 0.5266419053077698 -0.4799448549747467
0.8477967381477356 0.5274596810340881 -0.3504101037979126
0.8474891781806946 0.5282773971557617 -0.2208753526210785
0.8471816182136536 0.5290951728820801 -0.09134059399366379
0.8468740582466125 0.5299128890037537 0.03819415718317032
0.8465664982795715 0.530730664730072 0.16772891581058502
0.8462589979171753 0.5315483808517456 0.2972636818885803
0.8459514379501343 0.532366156578064 0.42679843306541443
0.8456438779830933 0.5331839323043823 0.5563331842422485
0.8453363180160522 0.5340016484260559 0.6858679056167603
0.8450287580490112 0.5348194241523743 0.8154026865959167
0.844721257686615 0.5356371402740479 0.9449374675750732
0.7254594564437866 0.6833996772766113 -0.9993882775306702
0.7251518964767456 0.6842173933982849 -0.8698534965515137
0.7248443365097046 0.6850351691246033 -0.7403187155723572
0.7245367765426636 0.6858528852462769 -0.6107839941978455
0.7242292165756226 0.6866706609725952 -0.48124924302101135
0.7239217162132263 0.6874883770942688 -0.35171446204185486
0.7236141562461853 0.6883061528205872 -0.22217972576618195
0.7233065962791443 0.6891239285469055 -0.09264496713876724
0.7229990363121033 0.6899416446685791 0.03688978776335716
0.7226914763450623 0.6907594203948975 0.16642454266548157
0.722383975982666 0.691577136516571 0.2959592938423157
0.722076416015625 0.6923949122428894 0.4254940450191498
0.721768856048584 0.693212628364563 0.5550287961959839
0.721461296081543 0.6940304040908813 0.6845635771751404
0.721153736114502 0.6948481202125549 0.8140982985496521
0.7208461761474609 0.6956658959388733 0.9436330795288086
0.5719056725502014 0.8152166604995728 -1.0005849599838257
0.5715981125831604 0.8160344362258911 -0.871050238609314
0.5712905526161194 0.8168522119522095 -0.7415154576301575
0.5709830522537231 0.8176699280738831 -0.6119807362556458
0.5706754922866821 0.8184877038002014 -0.48244595527648926
0.5703679323196411 0.819305419921875 -0.35291120409965515
0.5700603723526001 0.8201231956481934 -0.22337645292282104
0.5697528123855591 0.8209409117698669 -0.09384170174598694
0.5694452524185181 0.8217586874961853 0.035693056881427765
0.5691377520561218 0.8225764036178589 0.16522781550884247
0.5688301920890808 0.8233941793441772 0.2947625517845154
0.5685226321220398 0.8242119550704956 0.4242973327636719
0.5682150721549988 0.8250296711921692 0.5538320541381836
0.5679075121879578 0.8258474469184875 0.6833668351173401
0.5676000118255615 0.8266651630401611 0.8129016160964966
0.5672924518585205 0.8274829387664795 0.9424363374710083
0.3949596583843231 0.9134253859519958 -1.0016250610351562
0.3946521282196045 0.9142431616783142 -0.8720903396606445
0.3943445682525635 0.9150608777999878 -0.742555558681488
0.39403700828552246 0.9158786535263062 -0.6130208373069763
0.39372947812080383 0.9166963696479797 -0.4834860563278198
0.3934219181537628 0.9175141453742981 -0.3539513051509857
0.3931143581867218 0.9183319211006165 -0.2244165539741516
0.3928068280220032 0.91914963722229 -0.0948818027973175
0.39249926805496216 0.9199674129486084 0.0346529521048069
0.39219173789024353 0.920785129070282 0.1641876995563507
0.3918841779232025 0.9216029047966003 0.2937224507331848
0.3915766179561615 0.9224206209182739 0.4232572317123413
0.39126908779144287 0.9232383966445923 0.552791953086853
0.39096152782440186 0.9240561127662659 0.6823267340660095
0.39065396785736084 0.9248738884925842 0.8118614554405212
0.3903464376926422 0.9256916642189026 0.9413962364196777
0.20186561346054077 0.9740051031112671 -1.0024659633636475
0.20155806839466095 0.9748228788375854 -0.8729312419891357
0.20125052332878113 0.975640594959259 -0.7433964610099792
0.2009429633617401 0.9764583706855774 -0.6138617396354675
0.2006354182958603 0.977276086807251 -0.48432695865631104
0.20032787322998047 0.9780938625335693 -0.35479220747947693
0.20002031326293945 0.9789116382598877 -0.22525745630264282
0.19971276819705963 0.9797293543815613 -0.09572269767522812
0.1994052231311798 0.9805471301078796 0.033812057226896286
0.1990976780653 0.9813648462295532 0.1633468121290207
0.19879011809825897 0.9821826219558716 0.292881578207016
0.19848257303237915 0.9830003380775452 0.4224163293838501
0.19817502796649933 0.9838181138038635 0.5519510507583618
0.1978674829006195 0.9846358299255371 0.6814858317375183
0.1975599229335785 0.9854536056518555 0.8110206127166748
0.19725237786769867 0.9862713813781738 0.9405553340911865
0.0005288124084472656 0.9944757223129272 -1.0030732154846191
0.00022126322437543422 0.9952934384346008 -0.8735384941101074
-8.628595242043957e-05 0.9961112141609192 -0.7440037131309509
-0.00039383512921631336 0.9969289302825928 -0.6144689917564392
-0.00070138432784006 0.9977467060089111 -0.4849342107772827
-0.0010089335264638066 0.9985644221305847 -0.3553994596004486
-0.0013164826668798923 0.9993821978569031 -0.2258647084236145
-0.001624031807295978 1.0001999139785767 -0.0963299572467804
-0.0019315810641273856 1.001017689704895 0.03320480138063431
-0.0022391302045434713 1.0018354654312134 0.162739560008049
-0.002546679461374879 1.0026532411575317 0.2922743260860443
-0.0028542284853756428 1.0034708976745605 0.4218090772628784
-0.0031617777422070503 1.004288673400879 0.5513437986373901
-0.003469326999038458 1.0051064491271973 0.6808785796165466
-0.0037768760230392218 1.0059242248535156 0.8104133605957031
-0.004084425512701273 1.0067418813705444 0.9399480819702148
