ply
format ascii 1.0
element vertex 512
property float x
property float y
property float z
end_header
0.0035872459411621094 -1.0025001764297485 0.9826958179473877
0.0031583579257130623 -1.002210259437561 0.8495633602142334
0.002729469910264015 -1.001920461654663 0.7164309620857239
0.0023005821276456118 -1.0016305446624756 0.5832985043525696
0.0018716941121965647 -1.001340627670288 0.4501660466194153
0.0014428060967475176 -1.0010508298873901 0.317033588886261
0.0010139180812984705 -1.0007609128952026 0.18390116095542908
0.0005850301240570843 -1.0004709959030151 0.050768714398145676
0.00015614218136761338 -1.0001810789108276 -0.08236373215913773
-0.00027274579042568803 -0.9998912215232849 -0.21549618244171143
-0.0007016337476670742 -0.9996013641357422 -0.34862861037254333
-0.0011305217631161213 -0.9993115067481995 -0.48176106810569763
-0.0015594096621498466 -0.999021589756012 -0.6148934960365295
-0.001988297561183572 -0.9987317323684692 -0.7480259537696838
-0.002417185576632619 -0.9984418153762817 -0.8811584115028381
-0.002846073592081666 -0.998151957988739 -1.0142908096313477
-0.19780513644218445 -0.9820219278335571 0.9833891987800598
-0.19823402166366577 -0.9817320704460144 0.8502567410469055
-0.1986629068851471 -0.9814421534538269 0.717124342918396
-0.1990918070077896 -0.9811522960662842 0.5839918851852417
-0.19952069222927094 -0.9808624386787415 0.4508594274520874
-0.19994957745075226 -0.980572521686554 0.3177269697189331
-0.20037846267223358 -0.9802826642990112 0.1845945417881012
-0.2008073478937149 -0.9799927473068237 0.051462091505527496
-0.20123623311519623 -0.979702889919281 -0.0816703513264656
-0.20166513323783875 -0.9794129729270935 -0.2148028016090393
-0.20209401845932007 -0.9791231155395508 -0.3479352295398712
-0.2025229036808014 -0.9788332581520081 -0.4810676872730255
-0.20295178890228271 -0.9785433411598206 -0.6142001152038574
-0.20338067412376404 -0.9782534837722778 -0.7473325729370117
-0.20380957424640656 -0.9779635667800903 -0.880465030670166
-0.20423845946788788 -0.9776737093925476 -1.0135974884033203
-0.3909524977207184 -0.9214227795600891 0.9841433763504028
-0.3913813829421997 -0.9211328625679016 0.8510109186172485
-0.39181026816368103 -0.9208430051803589 0.7178784608840942
-0.39223915338516235 -0.9205530881881714 0.5847460627555847
-0.3926680386066437 -0.9202632308006287 0.4516136050224304
-0.393096923828125 -0.9199733138084412 0.3184811472892761
-0.3935258090496063 -0.9196834564208984 0.18534870445728302
-0.39395469427108765 -0.9193935990333557 0.052216265350580215
-0.39438357949256897 -0.9191036820411682 -0.08091618120670319
-0.3948124945163727 -0.9188138246536255 -0.2140486240386963
-0.395241379737854 -0.918523907661438 -0.3471810817718506
-0.3956702649593353 -0.9182340502738953 -0.4803135097026825
-0.39609915018081665 -0.9179441332817078 -0.6134459376335144
-0.396528035402298 -0.917654275894165 -0.7465783953666687
-0.3969569206237793 -0.9173644185066223 -0.879710853099823
-0.3973858058452606 -0.9170745015144348 -1.0128432512283325
-0.5679473280906677 -0.823183536529541 0.9849274754524231
-0.5683762431144714 -0.8228936791419983 0.8517950177192688
-0.5688050985336304 -0.8226038217544556 0.7186625599861145
-0.5692340135574341 -0.8223139047622681 0.585530161857605
-0.569662868976593 -0.8220240473747253 0.4523977041244507
-0.5700917840003967 -0.8217341303825378 0.3192652463912964
-0.5705206394195557 -0.8214442729949951 0.18613280355930328
-0.5709495544433594 -0.8211543560028076 0.05300036445260048
-0.5713784694671631 -0.8208644986152649 -0.08013208210468292
-0.571807324886322 -0.8205746412277222 -0.21326452493667603
-0.5722362399101257 -0.8202847242355347 -0.3463969826698303
-0.5726650953292847 -0.8199948668479919 -0.47952941060066223
-0.5730940103530884 -0.8197049498558044 -0.6126618385314941
-0.5735228657722473 -0.8194150924682617 -0.7457942962646484
-0.573951780796051 -0.8191251754760742 -0.8789267539978027
-0.57438063621521 -0.8188353180885315 -1.012059211730957
-0.7215434908866882 -0.6913262605667114 0.9857093691825867
-0.7219724059104919 -0.6910364031791687 0.8525769710540771
-0.7224012613296509 -0.690746545791626 0.7194445133209229
-0.7228301763534546 -0.6904566287994385 0.5863120555877686
-0.7232590317726135 -0.6901667714118958 0.45317962765693665
-0.7236879467964172 -0.6898768544197083 0.32004716992378235
-0.7241168022155762 -0.6895869970321655 0.18691472709178925
-0.7245457172393799 -0.689297080039978 0.053782280534505844
-0.7249745726585388 -0.6890072226524353 -0.07935016602277756
-0.7254034876823425 -0.6887173652648926 -0.21248260140419006
-0.7258324027061462 -0.6884274482727051 -0.34561505913734436
-0.7262612581253052 -0.6881375908851624 -0.47874748706817627
-0.7266901731491089 -0.6878476738929749 -0.6118799448013306
-0.7271190285682678 -0.6875578165054321 -0.7450124025344849
-0.7275479435920715 -0.6872679591178894 -0.8781448602676392
-0.7279767990112305 -0.6869780421257019 -1.0112773180007935
-0.8454527258872986 -0.5312491655349731 0.986457109451294
-0.8458815813064575 -0.5309593081474304 0.8533246517181396
-0.8463104963302612 -0.5306694507598877 0.7201922535896301
-0.8467394113540649 -0.5303795337677002 0.5870597958564758
-0.8471682667732239 -0.5300896763801575 0.45392733812332153
-0.8475971817970276 -0.52979975938797 0.3207949101924896
-0.8480260372161865 -0.5295099020004272 0.18766245245933533
-0.8484549522399902 -0.5292199850082397 0.054530009627342224
-0.8488838076591492 -0.528930127620697 -0.07860243320465088
-0.8493127226829529 -0.5286402702331543 -0.21173487603664398
-0.8497415781021118 -0.5283503532409668 -0.3448673188686371
-0.8501704931259155 -0.5280604958534241 -0.4779997766017914
-0.8505993485450745 -0.5277705788612366 -0.6111322045326233
-0.8510282635688782 -0.5274807214736938 -0.7442646622657776
-0.8514571785926819 -0.5271908044815063 -0.8773971199989319
-0.8518860340118408 -0.5269009470939636 -1.0105295181274414
-0.9346021413803101 -0.34950584173202515 0.9871400594711304
-0.9350310564041138 -0.34921595454216003 0.8540076017379761
-0.9354599118232727 -0.3489260673522949 0.7208751440048218
-0.9358888268470764 -0.3486361801624298 0.5877426862716675
-0.9363176822662354 -0.3483463227748871 0.45461025834083557
-0.9367465972900391 -0.348056435585022 0.32147783041000366
-0.937175452709198 -0.34776654839515686 0.18834537267684937
-0.9376043677330017 -0.34747666120529175 0.05521293357014656
-0.9380332231521606 -0.34718677401542664 -0.07791951298713684
-0.9384621381759644 -0.3468968868255615 -0.21105195581912994
-0.9388909935951233 -0.3466070294380188 -0.34418439865112305
-0.939319908618927 -0.3463171422481537 -0.47731685638427734
-0.9397488236427307 -0.3460272550582886 -0.6104493141174316
-0.9401776790618896 -0.34573736786842346 -0.7435817122459412
-0.9406065940856934 -0.34544748067855835 -0.8767141699790955
-0.9410354495048523 -0.34515759348869324 -1.009846568107605
-0.9853419661521912 -0.1535368412733078 0.9877302050590515
-0.9857708811759949 -0.1532469540834427 0.8545977473258972
-0.9861997365951538 -0.15295706689357758 0.7214652895927429
-0.9866286516189575 -0.15266719460487366 0.5883328914642334
-0.9870575070381165 -0.15237730741500854 0.4552004337310791
-0.9874864220619202 -0.15208742022514343 0.3220679759979248
-0.9879153370857239 -0.15179754793643951 0.1889355331659317
-0.9883441925048828 -0.1515076607465744 0.0558030940592289
-0.9887731075286865 -0.1512177735567093 -0.0773293524980545
-0.9892019629478455 -0.15092788636684418 -0.2104617953300476
-0.9896308779716492 -0.15063801407814026 -0.3435942530632019
-0.9900597333908081 -0.15034812688827515 -0.4767266809940338
-0.9904886484146118 -0.15005823969841003 -0.6098591089248657
-0.9909175038337708 -0.14976836740970612 -0.74299156665802
-0.9913464188575745 -0.149478480219841 -0.8761240243911743
-0.9917752742767334 -0.1491885930299759 -1.0092564821243286
-0.9955949187278748 0.04863483086228371 0.9882034659385681
-0.9960238337516785 0.04892471432685852 0.8550710082054138
-0.9964527487754822 0.049214597791433334 0.7219385504722595
-0.9968816041946411 0.04950448125600815 0.5888060927391052
-0.9973105192184448 0.049794360995292664 0.4556736648082733
-0.9977393746376038 0.05008424445986748 0.3225412368774414
-0.9981682896614075 0.05037412792444229 0.1894087791442871
-0.9985971450805664 0.050664011389017105 0.05627633258700371
-0.9990260601043701 0.05095389485359192 -0.0768561139702797
-0.999454915523529 0.051243774592876434 -0.2099885493516922
-0.9998838305473328 0.05153365805745125 -0.3431209921836853
-1.0003126859664917 0.05182354152202606 -0.4762534499168396
-1.0007416009902954 0.052113424986600876 -0.6093859076499939
-1.0011705160140991 0.05240330472588539 -0.7425183057785034
-1.0015994310379028 0.052693188190460205 -0.8756507635116577
-1.002028226852417 0.05298307165503502 -1.008783221244812
-0.9649412631988525 0.24873223900794983 0.9885404109954834
-0.9653701782226562 0.24902211129665375 0.8554079532623291
-0.9657990336418152 0.24931199848651886 0.7222754955291748
-0.9662279486656189 0.24960188567638397 0.5891430377960205
-0.9666568040847778 0.2498917579650879 0.4560106098651886
-0.9670857191085815 0.250181645154953 0.3228781521320343
-0.9675145745277405 0.2504715323448181 0.1897457242012024
-0.9679434895515442 0.2507614195346832 0.05661327391862869
-0.9683723449707031 0.25105130672454834 -0.07651916891336441
-0.9688012599945068 0.25134116411209106 -0.2096516191959381
-0.9692301750183105 0.2516310513019562 -0.34278404712677
-0.9696590304374695 0.2519209384918213 -0.4759165048599243
-0.9700879454612732 0.2522108256816864 -0.6090489625930786
-0.9705168008804321 0.2525007128715515 -0.7421814203262329
-0.9709457159042358 0.2527906000614166 -0.8753138184547424
-0.9713745713233948 0.25308045744895935 -1.0084463357925415
-0.8946359157562256 0.43856334686279297 0.9887272119522095
-0.8950648307800293 0.4388532340526581 0.8555948138237
-0.8954936861991882 0.4391431212425232 0.7224623560905457
-0.8959226012229919 0.4394330084323883 0.5893298983573914
-0.8963514566421509 0.4397228956222534 0.45619747042655945
-0.8967803716659546 0.44001275300979614 0.32306501269340515
-0.8972092270851135 0.44030264019966125 0.18993256986141205
-0.8976381421089172 0.44059252738952637 0.05680012330412865
-0.8980669975280762 0.4408824145793915 -0.07633232325315475
-0.8984959125518799 0.4411723017692566 -0.20946475863456726
-0.8989248275756836 0.4414621889591217 -0.34259721636772156
-0.8993536829948425 0.4417520761489868 -0.47572964429855347
-0.8997825980186462 0.44204193353652954 -0.6088621020317078
-0.9002114534378052 0.44233182072639465 -0.7419945597648621
-0.9006403684616089 0.44262170791625977 -0.8751270174980164
-0.9010692238807678 0.4429115951061249 -1.0082594156265259
-0.7875572443008423 0.6103565096855164 0.9887563586235046
-0.7879860997200012 0.6106463670730591 0.8556239008903503
-0.7884150147438049 0.6109362244606018 0.722491443157196
-0.7888438701629639 0.6112261414527893 0.5893589854240417
-0.7892727851867676 0.611515998840332 0.45622655749320984
-0.7897016406059265 0.6118059158325195 0.32309412956237793
-0.7901305556297302 0.6120957732200623 0.18996167182922363
-0.7905594110488892 0.6123856902122498 0.05682923272252083
-0.7909883260726929 0.6126755475997925 -0.07630321383476257
-0.7914171814918518 0.6129654049873352 -0.20943565666675568
-0.7918460965156555 0.6132553219795227 -0.3425680994987488
-0.7922750115394592 0.6135451793670654 -0.4757005572319031
-0.7927038669586182 0.6138350963592529 -0.6088330149650574
-0.7931327819824219 0.6141249537467957 -0.7419654130935669
-0.7935616374015808 0.6144148707389832 -0.8750978708267212
-0.7939905524253845 0.6147047281265259 -1.0082303285598755
-0.6480889320373535 0.7570784091949463 0.9886265397071838
-0.6485178470611572 0.757368266582489 0.8554940819740295
-0.6489467620849609 0.7576581835746765 0.7223616242408752
-0.6493756175041199 0.7579480409622192 0.589229166507721
-0.6498045325279236 0.7582379579544067 0.45609673857688904
-0.6502333879470825 0.7585278153419495 0.32296428084373474
-0.6506623029708862 0.7588176727294922 0.18983185291290283
-0.6510911583900452 0.7591075897216797 0.05669940635561943
-0.6515200734138489 0.7593974471092224 -0.07643304020166397
-0.6519489288330078 0.7596873641014099 -0.20956549048423767
-0.6523778438568115 0.7599772214889526 -0.3426979184150696
-0.6528066992759705 0.7602670788764954 -0.4758303761482239
-0.6532356142997742 0.7605569958686829 -0.6089628338813782
-0.6536645293235779 0.7608468532562256 -0.7420952916145325
-0.6540933847427368 0.7611367702484131 -0.875227689743042
-0.6545222997665405 0.7614266276359558 -1.0083601474761963
-0.48194101452827454 0.8727222681045532 0.9883430600166321
-0.48236989974975586 0.8730121850967407 0.8552106022834778
-0.4827987849712372 0.8733020424842834 0.7220782041549683
-0.4832276701927185 0.8735918998718262 0.588945746421814
-0.48365655541419983 0.8738818168640137 0.45581328868865967
-0.48408544063568115 0.8741716742515564 0.32268086075782776
-0.4845143258571625 0.8744615912437439 0.18954840302467346
-0.4849432110786438 0.8747514486312866 0.05641596019268036
-0.4853720963001251 0.8750413656234741 -0.07671648263931274
-0.48580098152160645 0.8753312230110168 -0.20984892547130585
-0.48622989654541016 0.8756210803985596 -0.34298136830329895
-0.4866587817668915 0.8759109973907471 -0.47611382603645325
-0.4870876669883728 0.8762008547782898 -0.6092462539672852
-0.4875165522098541 0.8764907717704773 -0.7423787117004395
-0.48794543743133545 0.87678062915802 -0.8755111694335938
-0.4883743226528168 0.8770705461502075 -1.008643627166748
-0.2959154546260834 0.9525536298751831 0.9879176020622253
-0.2963443398475647 0.9528435468673706 0.854785144329071
-0.2967732548713684 0.9531334042549133 0.7216527462005615
-0.29720214009284973 0.9534233212471008 0.5885202884674072
-0.29763102531433105 0.9537131786346436 0.45538783073425293
-0.2980599105358124 0.954003095626831 0.322255402803421
-0.2984887957572937 0.9542929530143738 0.18912294507026672
-0.298917680978775 0.9545828104019165 0.05599050223827362
-0.29934656620025635 0.954872727394104 -0.07714194059371948
-0.29977545142173767 0.9551625847816467 -0.21027438342571259
-0.300204336643219 0.9554525017738342 -0.3434068262577057
-0.3006332218647003 0.955742359161377 -0.47653928399086
-0.30106210708618164 0.9560322761535645 -0.6096717119216919
-0.30149102210998535 0.9563221335411072 -0.7428041696548462
-0.3019199073314667 0.9566119909286499 -0.8759366273880005
-0.302348792552948 0.9569019079208374 -1.0090690851211548
-0.09762825071811676 0.9933041930198669 0.987367570400238
-0.09805713593959808 0.9935941100120544 0.8542351126670837
-0.0984860211610794 0.9938839673995972 0.7211026549339294
-0.09891491383314133 0.9941738843917847 0.5879701972007751
-0.09934379905462265 0.9944637417793274 0.45483776926994324
-0.09977269172668457 0.9947536587715149 0.32170534133911133
-0.1002015769481659 0.9950435161590576 0.18857288360595703
-0.10063046216964722 0.9953333735466003 0.05544044449925423
-0.10105935484170914 0.9956232905387878 -0.07769200205802917
-0.10148824006319046 0.9959131479263306 -0.21082444489002228
-0.10191712528467178 0.9962030649185181 -0.3439568877220154
-0.1023460179567337 0.9964929223060608 -0.4770893454551697
-0.10277490317821503 0.9967828392982483 -0.610221803188324
-0.10320379585027695 0.997072696685791 -0.7433542013168335
-0.10363268107175827 0.9973625540733337 -0.8764866590499878
-0.1040615662932396 0.9976524710655212 -1.009619116783142
0.10480274260044098 0.9933056235313416 0.9867154359817505
0.10437384992837906 0.993595540523529 0.8535829782485962
0.10394496470689774 0.9938853979110718 0.7204505205154419
0.10351607948541641 0.9941753149032593 0.5873181223869324
0.10308718681335449 0.994465172290802 0.4541856348514557
0.10265830159187317 0.9947550296783447 0.3210532069206238
0.10222941637039185 0.9950449466705322 0.18792076408863068
0.10180052369832993 0.995334804058075 0.054788313806056976
0.1013716384768486 0.9956247210502625 -0.07834412902593613
0.10094274580478668 0.9959145784378052 -0.21147657930850983
0.10051386058330536 0.9962044954299927 -0.34460902214050293
0.10008497536182404 0.9964943528175354 -0.47774145007133484
0.09965608268976212 0.9967842102050781 -0.6108739376068115
0.09922719746828079 0.9970741271972656 -0.744006335735321
0.09879831224679947 0.9973639845848083 -0.8771387934684753
0.09836941957473755 0.9976539015769958 -1.0102711915969849
0.3030899465084076 0.9525578618049622 0.9859879016876221
0.30266106128692627 0.9528477191925049 0.8528555035591125
0.30223217606544495 0.9531376361846924 0.7197230458259583
0.3018032908439636 0.9534274935722351 0.586590588092804
0.3013744056224823 0.9537174105644226 0.45345813035964966
0.300945520401001 0.9540072679519653 0.32032570242881775
0.30051663517951965 0.9542971253395081 0.18719324469566345
0.30008774995803833 0.9545870423316956 0.05406080558896065
0.299658864736557 0.9548768997192383 -0.07907164096832275
0.2992299497127533 0.9551668167114258 -0.21220408380031586
0.298801064491272 0.9554566740989685 -0.34533652663230896
0.29837217926979065 0.955746591091156 -0.47846898436546326
0.2979432940483093 0.9560364484786987 -0.6116014122962952
0.297514408826828 0.9563263058662415 -0.7447338700294495
0.2970855236053467 0.956616222858429 -0.8778663277626038
0.29665663838386536 0.9569060802459717 -1.0109987258911133
0.48911550641059875 0.8727290630340576 0.9852148294448853
0.48868662118911743 0.8730189800262451 0.852082371711731
0.4882577061653137 0.8733088374137878 0.7189499139785767
0.4878288209438324 0.8735987544059753 0.5858174562454224
0.4873999357223511 0.8738886117935181 0.45268502831459045
0.48697105050086975 0.8741785287857056 0.31955260038375854
0.4865421652793884 0.8744683861732483 0.18642014265060425
0.4861132800579071 0.874758243560791 0.053287703543901443
0.4856843948364258 0.8750481605529785 -0.07984474301338196
0.48525550961494446 0.8753380179405212 -0.21297718584537506
0.48482662439346313 0.8756279349327087 -0.34610962867736816
0.4843977391719818 0.8759177923202515 -0.47924208641052246
0.4839688539505005 0.876207709312439 -0.6123745441436768
0.4835399389266968 0.8764975666999817 -0.7455069422721863
0.48311105370521545 0.8767874240875244 -0.8786394000053406
0.48268216848373413 0.8770773410797119 -1.01177179813385
0.6552634239196777 0.7570875287055969 0.9844277501106262
0.6548345685005188 0.7573774456977844 0.8512953519821167
0.6544056534767151 0.7576673030853271 0.7181628942489624
0.6539767980575562 0.7579571604728699 0.5850304365158081
0.6535478830337524 0.7582470774650574 0.4518979787826538
0.6531190276145935 0.7585369348526001 0.3187655508518219
0.6526901125907898 0.7588268518447876 0.1856331080198288
0.6522612571716309 0.7591167092323303 0.052500657737255096
0.6518323421478271 0.7594066262245178 -0.080631785094738
0.6514034867286682 0.7596964836120605 -0.2137642353773117
0.6509745717048645 0.7599863409996033 -0.3468966782093048
0.6505456566810608 0.7602762579917908 -0.4800291359424591
0.6501168012619019 0.7605661153793335 -0.613161563873291
0.6496878862380981 0.760856032371521 -0.7462940216064453
0.6492590308189392 0.7611458897590637 -0.8794264793395996
0.6488301157951355 0.7614358067512512 -1.012558937072754
0.7947317361831665 0.6103675961494446 0.983659029006958
0.7943028211593628 0.6106574535369873 0.8505265712738037
0.7938739061355591 0.6109473705291748 0.7173941135406494
0.7934450507164001 0.6112372279167175 0.5842616558074951
0.7930161356925964 0.6115270853042603 0.4511292278766632
0.7925872802734375 0.6118170022964478 0.3179967701435089
0.7921583652496338 0.6121068596839905 0.184864342212677
0.7917295098304749 0.612396776676178 0.0517318919301033
0.7913005948066711 0.6126866340637207 -0.0814005509018898
0.7908717393875122 0.6129765510559082 -0.2145330011844635
0.7904428243637085 0.6132664084434509 -0.3476654291152954
0.7900139093399048 0.6135562658309937 -0.4807978868484497
0.7895850539207458 0.6138461828231812 -0.613930344581604
0.7891561388969421 0.6141360402107239 -0.7470628023147583
0.7887272834777832 0.6144259572029114 -0.8801952004432678
0.7882983684539795 0.6147158145904541 -1.013327717781067
0.9018104076385498 0.43857595324516296 0.9829400181770325
0.9013815522193909 0.4388658404350281 0.8498075604438782
0.9009526371955872 0.4391557276248932 0.7166751027107239
0.9005237221717834 0.4394456148147583 0.5835426449775696
0.9000948667526245 0.439735472202301 0.45041021704673767
0.8996659517288208 0.44002535939216614 0.3172777593135834
0.8992370963096619 0.44031524658203125 0.18414531648159027
0.8988081812858582 0.44060513377189636 0.05101287364959717
0.8983793258666992 0.4408950209617615 -0.08211956918239594
0.8979504108428955 0.4411849081516266 -0.21525201201438904
0.8975215554237366 0.4414747655391693 -0.34838446974754333
0.8970926403999329 0.4417646527290344 -0.48151689767837524
0.8966637849807739 0.44205453991889954 -0.6146493554115295
0.8962348699569702 0.44234442710876465 -0.7477818131446838
0.8958059549331665 0.44263431429862976 -0.8809142112731934
0.8953770995140076 0.4429242014884949 -1.0140466690063477
0.9721157550811768 0.24874581396579742 0.9823001623153687
0.9716868996620178 0.24903570115566254 0.8491677045822144
0.9712579846382141 0.24932558834552765 0.7160352468490601
0.9708290696144104 0.24961546063423157 0.5829028487205505
0.9704002141952515 0.24990534782409668 0.44977039098739624
0.9699712991714478 0.2501952350139618 0.31663793325424194
0.9695424437522888 0.2504851222038269 0.18350549042224884
0.9691135287284851 0.250775009393692 0.050373051315546036
0.9686846733093262 0.25106486678123474 -0.08275939524173737
0.9682557582855225 0.25135475397109985 -0.21589183807373047
0.9678269028663635 0.25164464116096497 -0.34902429580688477
0.9673979878425598 0.2519345283508301 -0.4821567237377167
0.9669691324234009 0.2522244155406952 -0.6152891516685486
0.9665402173995972 0.2525143027305603 -0.7484216094017029
0.9661113023757935 0.2528041899204254 -0.8815540671348572
0.9656824469566345 0.25309404730796814 -1.0146864652633667
1.0027694702148438 0.04864884912967682 0.9817657470703125
1.00234055519104 0.04893873259425163 0.8486332893371582
1.0019116401672363 0.04922861605882645 0.7155008316040039
1.0014827251434326 0.04951849579811096 0.5823683738708496
1.0010539293289185 0.049808379262685776 0.4492359459400177
1.0006250143051147 0.05009826272726059 0.3161034882068634
1.000196099281311 0.0503881461918354 0.1829710453748703
0.9997672438621521 0.05067802965641022 0.049838606268167496
0.9993383288383484 0.05096790939569473 -0.0832938402891159
0.9989094734191895 0.051257792860269547 -0.216426283121109
0.9984805583953857 0.05154767632484436 -0.3495587408542633
0.998051643371582 0.051837559789419174 -0.4826911687850952
0.9976227879524231 0.05212743952870369 -0.6158236265182495
0.9971938729286194 0.0524173229932785 -0.7489560842514038
0.9967650175094604 0.05270720645785332 -0.8820884823799133
0.9963361024856567 0.05299708992242813 -1.0152209997177124
0.9925164580345154 -0.15352296829223633 0.981358528137207
0.9920876026153564 -0.15323308110237122 0.8482260704040527
0.9916586875915527 -0.1529431939125061 0.7150936722755432
0.9912298321723938 -0.15265332162380219 0.5819612145423889
0.9908009171485901 -0.15236343443393707 0.4488287568092346
0.9903720617294312 -0.15207354724407196 0.3156963288784027
0.9899431467056274 -0.15178366005420685 0.1825638711452484
0.9895142316818237 -0.15149378776550293 0.04943142831325531
0.9890853762626648 -0.15120390057563782 -0.08370101451873779
0.9886564612388611 -0.1509140133857727 -0.2168334573507309
0.9882276058197021 -0.1506241410970688 -0.349965900182724
0.9877986907958984 -0.15033425390720367 -0.4830983579158783
0.9873698353767395 -0.15004436671733856 -0.6162307858467102
0.9869409203529358 -0.14975449442863464 -0.7493632435798645
0.9865120649337769 -0.14946460723876953 -0.8824957013130188
0.9860831499099731 -0.14917472004890442 -1.0156280994415283
0.9417766332626343 -0.3494926691055298 0.9810953140258789
0.9413477182388306 -0.34920281171798706 0.8479628562927246
0.9409188628196716 -0.34891292452812195 0.7148303985595703
0.9404899477958679 -0.34862303733825684 0.581697940826416
0.940061092376709 -0.3483331501483917 0.4485655128955841
0.9396321773529053 -0.3480432629585266 0.3154330849647522
0.9392033219337463 -0.3477533757686615 0.1823006272315979
0.9387744069099426 -0.3474634885787964 0.0491681843996048
0.9383455514907837 -0.34717363119125366 -0.0839642584323883
0.93791663646698 -0.34688374400138855 -0.2170967012643814
0.937487781047821 -0.34659385681152344 -0.3502291440963745
0.9370588660240173 -0.3463039696216583 -0.4833616018295288
0.9366299510002136 -0.3460140824317932 -0.6164940595626831
0.9362010955810547 -0.3457241952419281 -0.7496264576911926
0.935772180557251 -0.3454343378543854 -0.8827589154243469
0.935343325138092 -0.34514445066452026 -1.015891432762146
0.8526272177696228 -0.5312373042106628 0.9809867739677429
0.8521983027458191 -0.5309473872184753 0.8478543162345886
0.8517694473266602 -0.5306575298309326 0.7147218585014343
0.8513405323028564 -0.5303676128387451 0.58158940076828
0.8509116768836975 -0.5300777554512024 0.4484569728374481
0.8504827618598938 -0.5297878384590149 0.3153245449066162
0.8500539064407349 -0.5294979810714722 0.18219208717346191
0.8496249914169312 -0.5292081236839294 0.04905964806675911
0.8491961359977722 -0.5289182066917419 -0.08407279849052429
0.8487672209739685 -0.5286283493041992 -0.2172052413225174
0.8483383059501648 -0.5283384323120117 -0.3503376841545105
0.8479094505310059 -0.528048574924469 -0.4834701418876648
0.8474805355072021 -0.5277587175369263 -0.6166025996208191
0.8470516800880432 -0.5274688005447388 -0.7497349977493286
0.8466227650642395 -0.527178943157196 -0.8828674554824829
0.8461939096450806 -0.5268890261650085 -1.0159999132156372
0.7287179827690125 -0.6913161277770996 0.9810373783111572
0.7282891273498535 -0.6910262107849121 0.8479049205780029
0.7278602123260498 -0.6907363533973694 0.7147724628448486
0.7274312973022461 -0.6904464960098267 0.5816400647163391
0.7270024418830872 -0.6901565790176392 0.4485076069831848
0.7265735268592834 -0.6898667216300964 0.3153751492500305
0.7261446714401245 -0.6895768046379089 0.18224270641803741
0.7257157564163208 -0.6892869472503662 0.04911026731133461
0.7252869009971619 -0.6889970302581787 -0.08402217924594879
0.7248579859733582 -0.688707172870636 -0.2171546220779419
0.7244291305541992 -0.6884173154830933 -0.3502870798110962
0.7240002155303955 -0.6881273984909058 -0.4834195077419281
0.7235713601112366 -0.687837541103363 -0.61655193567276
0.7231424450874329 -0.6875476241111755 -0.7496843934059143
0.7227135300636292 -0.6872577667236328 -0.8828168511390686
0.7222846746444702 -0.6869678497314453 -1.0159492492675781
0.5751218199729919 -0.8231755495071411 0.9812451004981995
0.574692964553833 -0.8228856325149536 0.8481126427650452
0.5742640495300293 -0.8225957751274109 0.7149801850318909
0.5738351941108704 -0.8223059177398682 0.5818477272987366
0.5734062790870667 -0.8220160007476807 0.44871529936790466
0.5729773640632629 -0.8217261433601379 0.31558287143707275
0.572548508644104 -0.8214362263679504 0.18245041370391846
0.5721195936203003 -0.8211463689804077 0.049317967146635056
0.5716907382011414 -0.8208564519882202 -0.08381447941064835
0.5712618231773376 -0.8205665946006775 -0.21694691479206085
0.5708329677581787 -0.8202767372131348 -0.35007935762405396
0.570404052734375 -0.8199868202209473 -0.48321181535720825
0.5699751973152161 -0.8196969628334045 -0.6163442730903625
0.5695462822914124 -0.819407045841217 -0.7494766712188721
0.5691174268722534 -0.8191171884536743 -0.8826091289520264
0.5686885118484497 -0.8188272714614868 -1.0157415866851807
0.3981269896030426 -0.921417236328125 0.981601357460022
0.3976981043815613 -0.9211273193359375 0.8484688997268677
0.39726921916007996 -0.9208374619483948 0.7153365015983582
0.39684030413627625 -0.9205475449562073 0.5822040438652039
0.3964114189147949 -0.9202576875686646 0.44907158613204956
0.3959825336933136 -0.9199678301811218 0.31593912839889526
0.3955536484718323 -0.9196779131889343 0.18280670046806335
0.39512476325035095 -0.9193880558013916 0.049674250185489655
0.39469587802886963 -0.9190981388092041 -0.08345819264650345
0.3942669928073883 -0.9188082814216614 -0.21659064292907715
0.393838107585907 -0.9185183644294739 -0.34972307085990906
0.39340922236442566 -0.9182285070419312 -0.48285552859306335
0.39298033714294434 -0.9179386496543884 -0.6159879565238953
0.392551451921463 -0.9176487326622009 -0.7491204142570496
0.3921225368976593 -0.9173588752746582 -0.8822528719902039
0.391693651676178 -0.9170689582824707 -1.0153852701187134
0.20497962832450867 -0.9820191264152527 0.9820916056632996
0.20455074310302734 -0.9817292094230652 0.84895920753479
0.20412185788154602 -0.9814393520355225 0.7158267498016357
0.2036929577589035 -0.9811494946479797 0.5826942920684814
0.20326407253742218 -0.9808595776557922 0.44956186413764954
0.20283518731594086 -0.9805697202682495 0.31642940640449524
0.20240630209445953 -0.980279803276062 0.18329696357250214
0.2019774168729782 -0.9799899458885193 0.05016452074050903
0.2015485167503357 -0.9797000288963318 -0.08296792209148407
0.20111963152885437 -0.9794101715087891 -0.21610036492347717
0.20069074630737305 -0.9791203141212463 -0.34923282265663147
0.20026186108589172 -0.9788303971290588 -0.4823652505874634
0.1998329758644104 -0.9785405397415161 -0.6154977083206177
0.19940409064292908 -0.9782506227493286 -0.748630166053772
0.19897519052028656 -0.9779607653617859 -0.8817625641822815
0.19854630529880524 -0.9776708483695984 -1.0148950815200806
0.0035872459411621094 -1.0025001764297485 0.9826958179473877
0.0031583579257130623 -1.002210259437561 0.8495633602142334
0.002729469910264015 -1.001920461654663 0.7164309620857239
0.0023005821276456118 -1.0016305446624756 0.5832985043525696
0.0018716941121965647 -1.001340627670288 0.4501660466194153
0.0014428060967475176 -1.0010508298873901 0.317033588886261
0.0010139180812984705 -1.0007609128952026 0.18390116095542908
0.0005850301240570843 -1.0004709959030151 0.050768714398145676
0.00015614218136761338 -1.0001810789108276 -0.08236373215913773
-0.00027274579042568803 -0.9998912215232849 -0.21549618244171143
-0.0007016337476670742 -0.9996013641357422 -0.34862861037254333
-0.0011305217631161213 -0.9993115067481995 -0.48176106810569763
-0.0015594096621498466 -0.999021589756012 -0.6148934960365295
-0.001988297561183572 -0.9987317323684692 -0.7480259537696838
-0.002417185576632619 -0.9984418153762817 -0.8811584115028381
-0.002846073592081666 -0.998151957988739 -1.0142908096313477
