ply
format ascii 1.0
element vertex 3092
property float x
property float y
property float z
end_header
6.75 43.75 0.0
6.75 44.25 0.0
6.75 44.75 0.0
6.75 45.25 0.0
6.75 45.75 0.0
7.25 42.75 0.0
7.25 43.25 0.0
7.25 43.75 0.0
7.25 44.25 0.0
7.25 44.75 0.0
7.25 45.25 0.0
7.25 45.75 0.0
7.25 46.25 0.0
7.75 41.75 0.0
7.75 42.25 0.0
7.75 42.75 0.0
7.75 43.25 0.0
7.75 43.75 0.0
7.75 44.25 0.0
7.75 44.75 0.0
7.75 45.25 0.0
7.75 45.75 0.0
7.75 46.25 0.0
7.75 46.75 0.0
8.25 22.75 0.0
8.25 23.25 0.0
8.25 23.75 0.0
8.25 24.25 0.0
8.25 41.25 0.0
8.25 41.75 0.0
8.25 42.25 0.0
8.25 42.75 0.0
8.25 43.25 0.0
8.25 43.75 0.0
8.25 44.25 0.0
8.25 44.75 0.0
8.25 45.25 0.0
8.25 45.75 0.0
8.25 46.25 0.0
8.25 46.75 0.0
8.75 21.75 0.0
8.75 22.25 0.0
8.75 22.75 0.0
8.75 23.25 0.0
8.75 23.75 0.0
8.75 24.25 0.0
8.75 24.75 0.0
8.75 40.75 0.0
8.75 41.25 0.0
8.75 41.75 0.0
8.75 42.25 0.0
8.75 42.75 0.0
8.75 43.25 0.0
8.75 43.75 0.0
8.75 44.25 0.0
8.75 44.75 0.0
8.75 45.25 0.0
8.75 45.75 0.0
8.75 46.25 0.0
8.75 46.75 0.0
9.25 21.25 0.0
9.25 21.75 0.0
9.25 22.25 0.0
9.25 22.75 0.0
9.25 23.25 0.0
9.25 23.75 0.0
9.25 24.25 0.0
9.25 24.75 0.0
9.25 39.75 0.0
9.25 40.25 0.0
9.25 40.75 0.0
9.25 41.25 0.0
9.25 41.75 0.0
9.25 42.25 0.0
9.25 42.75 0.0
9.25 43.25 0.0
9.25 43.75 0.0
9.25 44.25 0.0
9.25 44.75 0.0
9.25 45.25 0.0
9.25 45.75 0.0
9.25 46.25 0.0
9.25 46.75 0.0
9.75 20.25 0.0
9.75 20.75 0.0
9.75 21.25 0.0
9.75 21.75 0.0
9.75 22.25 0.0
9.75 22.75 0.0
9.75 23.25 0.0
9.75 23.75 0.0
9.75 24.25 0.0
9.75 24.75 0.0
9.75 39.25 0.0
9.75 39.75 0.0
9.75 40.25 0.0
9.75 40.75 0.0
9.75 41.25 0.0
9.75 41.75 0.0
9.75 42.25 0.0
9.75 42.75 0.0
9.75 43.25 0.0
9.75 43.75 0.0
9.75 44.25 0.0
9.75 44.75 0.0
9.75 45.25 0.0
9.75 45.75 0.0
9.75 46.25 0.0
10.25 5.25 0.0
10.25 5.75 0.0
10.25 6.25 0.0
10.25 19.75 0.0
10.25 20.25 0.0
10.25 20.75 0.0
10.25 21.25 0.0
10.25 21.75 0.0
10.25 22.25 0.0
10.25 22.75 0.0
10.25 23.25 0.0
10.25 23.75 0.0
10.25 24.25 0.0
10.25 24.75 0.0
10.25 38.75 0.0
10.25 39.25 0.0
10.25 39.75 0.0
10.25 40.25 0.0
10.25 40.75 0.0
10.25 41.25 0.0
10.25 41.75 0.0
10.25 42.25 0.0
10.25 42.75 0.0
10.25 43.25 0.0
10.25 43.75 0.0
10.25 44.25 0.0
10.25 44.75 0.0
10.25 45.25 0.0
10.25 45.75 0.0
10.25 46.25 0.0
10.25 46.75 0.0
10.75 4.25 0.0
10.75 4.75 0.0
10.75 5.25 0.0
10.75 5.75 0.0
10.75 6.25 0.0
10.75 6.75 0.0
10.75 7.25 0.0
10.75 19.25 0.0
10.75 19.75 0.0
10.75 20.25 0.0
10.75 20.75 0.0
10.75 21.25 0.0
10.75 21.75 0.0
10.75 22.25 0.0
10.75 22.75 0.0
10.75 23.25 0.0
10.75 23.75 0.0
10.75 24.25 0.0
10.75 24.75 0.0
10.75 25.25 0.0
10.75 38.25 0.0
10.75 38.75 0.0
10.75 39.25 0.0
10.75 39.75 0.0
10.75 40.25 0.0
10.75 40.75 0.0
10.75 41.25 0.0
10.75 41.75 0.0
10.75 42.25 0.0
10.75 42.75 0.0
10.75 43.25 0.0
10.75 43.75 0.0
10.75 44.25 0.0
10.75 44.75 0.0
10.75 45.25 0.0
10.75 45.75 0.0
11.25 4.25 0.0
11.25 4.75 0.0
11.25 5.25 0.0
11.25 5.75 0.0
11.25 6.25 0.0
11.25 6.75 0.0
11.25 7.25 0.0
11.25 19.25 0.0
11.25 19.75 0.0
11.25 20.25 0.0
11.25 20.75 0.0
11.25 21.25 0.0
11.25 21.75 0.0
11.25 22.25 0.0
11.25 22.75 0.0
11.25 23.25 0.0
11.25 23.75 0.0
11.25 24.25 0.0
11.25 24.75 0.0
11.25 25.25 0.0
11.25 37.25 0.0
11.25 37.75 0.0
11.25 38.25 0.0
11.25 38.75 0.0
11.25 39.25 0.0
11.25 39.75 0.0
11.25 40.25 0.0
11.25 40.75 0.0
11.25 41.25 0.0
11.25 41.75 0.0
11.25 42.25 0.0
11.25 42.75 0.0
11.25 43.25 0.0
11.25 43.75 0.0
11.25 44.25 0.0
11.25 44.75 0.0
11.75 4.25 0.0
11.75 4.75 0.0
11.75 5.25 0.0
11.75 5.75 0.0
11.75 6.25 0.0
11.75 6.75 0.0
11.75 7.25 0.0
11.75 7.75 0.0
11.75 18.75 0.0
11.75 19.25 0.0
11.75 19.75 0.0
11.75 20.25 0.0
11.75 20.75 0.0
11.75 21.25 0.0
11.75 21.75 0.0
11.75 22.25 0.0
11.75 22.75 0.0
11.75 23.25 0.0
11.75 23.75 0.0
11.75 24.25 0.0
11.75 24.75 0.0
11.75 36.75 0.0
11.75 37.25 0.0
11.75 37.75 0.0
11.75 38.25 0.0
11.75 38.75 0.0
11.75 39.25 0.0
11.75 39.75 0.0
11.75 40.25 0.0
11.75 40.75 0.0
11.75 41.25 0.0
11.75 41.75 0.0
11.75 42.25 0.0
11.75 42.75 0.0
11.75 43.25 0.0
11.75 43.75 0.0
11.75 44.25 0.0
12.25 4.25 0.0
12.25 4.75 0.0
12.25 5.25 0.0
12.25 5.75 0.0
12.25 6.25 0.0
12.25 6.75 0.0
12.25 7.25 0.0
12.25 7.75 0.0
12.25 8.25 0.0
12.25 18.25 0.0
12.25 18.75 0.0
12.25 19.25 0.0
12.25 19.75 0.0
12.25 20.25 0.0
12.25 20.75 0.0
12.25 21.25 0.0
12.25 21.75 0.0
12.25 22.25 0.0
12.25 22.75 0.0
12.25 23.25 0.0
12.25 23.75 0.0
12.25 24.25 0.0
12.25 35.75 0.0
12.25 36.25 0.0
12.25 36.75 0.0
12.25 37.25 0.0
12.25 37.75 0.0
12.25 38.25 0.0
12.25 38.75 0.0
12.25 39.25 0.0
12.25 39.75 0.0
12.25 40.25 0.0
12.25 40.75 0.0
12.25 41.25 0.0
12.25 41.75 0.0
12.25 42.25 0.0
12.25 42.75 0.0
12.25 43.25 0.0
12.75 4.25 0.0
12.75 4.75 0.0
12.75 5.25 0.0
12.75 5.75 0.0
12.75 6.25 0.0
12.75 6.75 0.0
12.75 7.25 0.0
12.75 7.75 0.0
12.75 8.25 0.0
12.75 17.75 0.0
12.75 18.25 0.0
12.75 18.75 0.0
12.75 19.25 0.0
12.75 19.75 0.0
12.75 20.25 0.0
12.75 20.75 0.0
12.75 21.25 0.0
12.75 21.75 0.0
12.75 22.25 0.0
12.75 22.75 0.0
12.75 23.25 0.0
12.75 23.75 0.0
12.75 35.25 0.0
12.75 35.75 0.0
12.75 36.25 0.0
12.75 36.75 0.0
12.75 37.25 0.0
12.75 37.75 0.0
12.75 38.25 0.0
12.75 38.75 0.0
12.75 39.25 0.0
12.75 39.75 0.0
12.75 40.25 0.0
12.75 40.75 0.0
12.75 41.25 0.0
12.75 41.75 0.0
12.75 42.25 0.0
13.25 4.25 0.0
13.25 4.75 0.0
13.25 5.25 0.0
13.25 5.75 0.0
13.25 6.25 0.0
13.25 6.75 0.0
13.25 7.25 0.0
13.25 7.75 0.0
13.25 8.25 0.0
13.25 17.25 0.0
13.25 17.75 0.0
13.25 18.25 0.0
13.25 18.75 0.0
13.25 19.25 0.0
13.25 19.75 0.0
13.25 20.25 0.0
13.25 20.75 0.0
13.25 21.25 0.0
13.25 21.75 0.0
13.25 22.25 0.0
13.25 22.75 0.0
13.25 35.25 0.0
13.25 35.75 0.0
13.25 36.25 0.0
13.25 36.75 0.0
13.25 37.25 0.0
13.25 37.75 0.0
13.25 38.25 0.0
13.25 38.75 0.0
13.25 39.25 0.0
13.25 39.75 0.0
13.25 40.25 0.0
13.25 40.75 0.0
13.25 41.25 0.0
13.75 4.25 0.0
13.75 4.75 0.0
13.75 5.25 0.0
13.75 5.75 0.0
13.75 6.25 0.0
13.75 6.75 0.0
13.75 7.25 0.0
13.75 7.75 0.0
13.75 8.25 0.0
13.75 16.75 0.0
13.75 17.25 0.0
13.75 17.75 0.0
13.75 18.25 0.0
13.75 18.75 0.0
13.75 19.25 0.0
13.75 19.75 0.0
13.75 20.25 0.0
13.75 20.75 0.0
13.75 21.25 0.0
13.75 21.75 0.0
13.75 22.25 0.0
13.75 34.25 0.0
13.75 34.75 0.0
13.75 35.25 0.0
13.75 35.75 0.0
13.75 36.25 0.0
13.75 36.75 0.0
13.75 37.25 0.0
13.75 37.75 0.0
13.75 38.25 0.0
13.75 38.75 0.0
13.75 39.25 0.0
13.75 39.75 0.0
13.75 40.25 0.0
13.75 40.75 0.0
13.75 41.25 0.0
14.25 4.25 0.0
14.25 4.75 0.0
14.25 5.25 0.0
14.25 5.75 0.0
14.25 6.25 0.0
14.25 6.75 0.0
14.25 7.25 0.0
14.25 7.75 0.0
14.25 8.25 0.0
14.25 16.75 0.0
14.25 17.25 0.0
14.25 17.75 0.0
14.25 18.25 0.0
14.25 18.75 0.0
14.25 19.25 0.0
14.25 19.75 0.0
14.25 20.25 0.0
14.25 20.75 0.0
14.25 21.25 0.0
14.25 21.75 0.0
14.25 22.25 0.0
14.25 33.75 0.0
14.25 34.25 0.0
14.25 34.75 0.0
14.25 35.25 0.0
14.25 35.75 0.0
14.25 36.25 0.0
14.25 36.75 0.0
14.25 37.25 0.0
14.25 37.75 0.0
14.25 38.25 0.0
14.25 38.75 0.0
14.25 39.25 0.0
14.25 39.75 0.0
14.25 40.25 0.0
14.25 40.75 0.0
14.75 4.25 0.0
14.75 4.75 0.0
14.75 5.25 0.0
14.75 5.75 0.0
14.75 6.25 0.0
14.75 6.75 0.0
14.75 7.25 0.0
14.75 7.75 0.0
14.75 8.25 0.0
14.75 16.25 0.0
14.75 16.75 0.0
14.75 17.25 0.0
14.75 17.75 0.0
14.75 18.25 0.0
14.75 18.75 0.0
14.75 19.25 0.0
14.75 19.75 0.0
14.75 20.25 0.0
14.75 20.75 0.0
14.75 21.25 0.0
14.75 21.75 0.0
14.75 33.25 0.0
14.75 33.75 0.0
14.75 34.25 0.0
14.75 34.75 0.0
14.75 35.25 0.0
14.75 35.75 0.0
14.75 36.25 0.0
14.75 36.75 0.0
14.75 37.25 0.0
14.75 37.75 0.0
14.75 38.25 0.0
14.75 38.75 0.0
14.75 39.25 0.0
14.75 39.75 0.0
15.25 4.25 0.0
15.25 4.75 0.0
15.25 5.25 0.0
15.25 5.75 0.0
15.25 6.25 0.0
15.25 6.75 0.0
15.25 7.25 0.0
15.25 7.75 0.0
15.25 8.25 0.0
15.25 15.75 0.0
15.25 16.25 0.0
15.25 16.75 0.0
15.25 17.25 0.0
15.25 17.75 0.0
15.25 18.25 0.0
15.25 18.75 0.0
15.25 19.25 0.0
15.25 19.75 0.0
15.25 20.25 0.0
15.25 20.75 0.0
15.25 21.25 0.0
15.25 32.75 0.0
15.25 33.25 0.0
15.25 33.75 0.0
15.25 34.25 0.0
15.25 34.75 0.0
15.25 35.25 0.0
15.25 35.75 0.0
15.25 36.25 0.0
15.25 36.75 0.0
15.25 37.25 0.0
15.25 37.75 0.0
15.25 38.25 0.0
15.25 38.75 0.0
15.25 39.25 0.0
15.75 4.25 0.0
15.75 4.75 0.0
15.75 5.25 0.0
15.75 5.75 0.0
15.75 6.25 0.0
15.75 6.75 0.0
15.75 7.25 0.0
15.75 7.75 0.0
15.75 8.25 0.0
15.75 15.25 0.0
15.75 15.75 0.0
15.75 16.25 0.0
15.75 16.75 0.0
15.75 17.25 0.0
15.75 17.75 0.0
15.75 18.25 0.0
15.75 18.75 0.0
15.75 19.25 0.0
15.75 19.75 0.0
15.75 20.25 0.0
15.75 20.75 0.0
15.75 32.25 0.0
15.75 32.75 0.0
15.75 33.25 0.0
15.75 33.75 0.0
15.75 34.25 0.0
15.75 34.75 0.0
15.75 35.25 0.0
15.75 35.75 0.0
15.75 36.25 0.0
15.75 36.75 0.0
15.75 37.25 0.0
15.75 37.75 0.0
15.75 38.25 0.0
16.25 4.25 0.0
16.25 4.75 0.0
16.25 5.25 0.0
16.25 5.75 0.0
16.25 6.25 0.0
16.25 6.75 0.0
16.25 7.25 0.0
16.25 7.75 0.0
16.25 8.25 0.0
16.25 14.75 0.0
16.25 15.25 0.0
16.25 15.75 0.0
16.25 16.25 0.0
16.25 16.75 0.0
16.25 17.25 0.0
16.25 17.75 0.0
16.25 18.25 0.0
16.25 18.75 0.0
16.25 19.25 0.0
16.25 19.75 0.0
16.25 20.25 0.0
16.25 31.75 0.0
16.25 32.25 0.0
16.25 32.75 0.0
16.25 33.25 0.0
16.25 33.75 0.0
16.25 34.25 0.0
16.25 34.75 0.0
16.25 35.25 0.0
16.25 35.75 0.0
16.25 36.25 0.0
16.25 36.75 0.0
16.25 37.25 0.0
16.25 37.75 0.0
16.75 4.25 0.0
16.75 4.75 0.0
16.75 5.25 0.0
16.75 5.75 0.0
16.75 6.25 0.0
16.75 6.75 0.0
16.75 7.25 0.0
16.75 7.75 0.0
16.75 8.25 0.0
16.75 14.25 0.0
16.75 14.75 0.0
16.75 15.25 0.0
16.75 15.75 0.0
16.75 16.25 0.0
16.75 16.75 0.0
16.75 17.25 0.0
16.75 17.75 0.0
16.75 18.25 0.0
16.75 18.75 0.0
16.75 19.25 0.0
16.75 19.75 0.0
16.75 31.75 0.0
16.75 32.25 0.0
16.75 32.75 0.0
16.75 33.25 0.0
16.75 33.75 0.0
16.75 34.25 0.0
16.75 34.75 0.0
16.75 35.25 0.0
16.75 35.75 0.0
16.75 36.25 0.0
16.75 36.75 0.0
16.75 37.25 0.0
16.75 37.75 0.0
17.25 4.25 0.0
17.25 4.75 0.0
17.25 5.25 0.0
17.25 5.75 0.0
17.25 6.25 0.0
17.25 6.75 0.0
17.25 7.25 0.0
17.25 7.75 0.0
17.25 8.25 0.0
17.25 13.75 0.0
17.25 14.25 0.0
17.25 14.75 0.0
17.25 15.25 0.0
17.25 15.75 0.0
17.25 16.25 0.0
17.25 16.75 0.0
17.25 17.25 0.0
17.25 17.75 0.0
17.25 18.25 0.0
17.25 18.75 0.0
17.25 19.25 0.0
17.25 19.75 0.0
17.25 31.25 0.0
17.25 31.75 0.0
17.25 32.25 0.0
17.25 32.75 0.0
17.25 33.25 0.0
17.25 33.75 0.0
17.25 34.25 0.0
17.25 34.75 0.0
17.25 35.25 0.0
17.25 35.75 0.0
17.25 36.25 0.0
17.25 36.75 0.0
17.75 4.25 0.0
17.75 4.75 0.0
17.75 5.25 0.0
17.75 5.75 0.0
17.75 6.25 0.0
17.75 6.75 0.0
17.75 7.25 0.0
17.75 7.75 0.0
17.75 8.25 0.0
17.75 8.75 0.0
17.75 13.75 0.0
17.75 14.25 0.0
17.75 14.75 0.0
17.75 15.25 0.0
17.75 15.75 0.0
17.75 16.25 0.0
17.75 16.75 0.0
17.75 17.25 0.0
17.75 17.75 0.0
17.75 18.25 0.0
17.75 18.75 0.0
17.75 19.25 0.0
17.75 30.75 0.0
17.75 31.25 0.0
17.75 31.75 0.0
17.75 32.25 0.0
17.75 32.75 0.0
17.75 33.25 0.0
17.75 33.75 0.0
17.75 34.25 0.0
17.75 34.75 0.0
17.75 35.25 0.0
17.75 35.75 0.0
17.75 36.25 0.0
18.25 4.75 0.0
18.25 5.25 0.0
18.25 5.75 0.0
18.25 6.25 0.0
18.25 6.75 0.0
18.25 7.25 0.0
18.25 7.75 0.0
18.25 8.25 0.0
18.25 8.75 0.0
18.25 13.75 0.0
18.25 14.25 0.0
18.25 14.75 0.0
18.25 15.25 0.0
18.25 15.75 0.0
18.25 16.25 0.0
18.25 16.75 0.0
18.25 17.25 0.0
18.25 17.75 0.0
18.25 18.25 0.0
18.25 18.75 0.0
18.25 30.25 0.0
18.25 30.75 0.0
18.25 31.25 0.0
18.25 31.75 0.0
18.25 32.25 0.0
18.25 32.75 0.0
18.25 33.25 0.0
18.25 33.75 0.0
18.25 34.25 0.0
18.25 34.75 0.0
18.25 35.25 0.0
18.25 35.75 0.0
18.75 4.75 0.0
18.75 5.25 0.0
18.75 5.75 0.0
18.75 6.25 0.0
18.75 6.75 0.0
18.75 7.25 0.0
18.75 7.75 0.0
18.75 8.25 0.0
18.75 8.75 0.0
18.75 13.25 0.0
18.75 13.75 0.0
18.75 14.25 0.0
18.75 14.75 0.0
18.75 15.25 0.0
18.75 15.75 0.0
18.75 16.25 0.0
18.75 16.75 0.0
18.75 17.25 0.0
18.75 17.75 0.0
18.75 18.25 0.0
18.75 30.25 0.0
18.75 30.75 0.0
18.75 31.25 0.0
18.75 31.75 0.0
18.75 32.25 0.0
18.75 32.75 0.0
18.75 33.25 0.0
18.75 33.75 0.0
18.75 34.25 0.0
18.75 34.75 0.0
18.75 35.25 0.0
19.25 4.75 0.0
19.25 5.25 0.0
19.25 5.75 0.0
19.25 6.25 0.0
19.25 6.75 0.0
19.25 7.25 0.0
19.25 7.75 0.0
19.25 8.25 0.0
19.25 8.75 0.0
19.25 12.75 0.0
19.25 13.25 0.0
19.25 13.75 0.0
19.25 14.25 0.0
19.25 14.75 0.0
19.25 15.25 0.0
19.25 15.75 0.0
19.25 16.25 0.0
19.25 16.75 0.0
19.25 17.25 0.0
19.25 17.75 0.0
19.25 29.75 0.0
19.25 30.25 0.0
19.25 30.75 0.0
19.25 31.25 0.0
19.25 31.75 0.0
19.25 32.25 0.0
19.25 32.75 0.0
19.25 33.25 0.0
19.25 33.75 0.0
19.25 34.25 0.0
19.25 34.75 0.0
19.25 35.25 0.0
19.75 4.75 0.0
19.75 5.25 0.0
19.75 5.75 0.0
19.75 6.25 0.0
19.75 6.75 0.0
19.75 7.25 0.0
19.75 7.75 0.0
19.75 8.25 0.0
19.75 8.75 0.0
19.75 12.75 0.0
19.75 13.25 0.0
19.75 13.75 0.0
19.75 14.25 0.0
19.75 14.75 0.0
19.75 15.25 0.0
19.75 15.75 0.0
19.75 16.25 0.0
19.75 16.75 0.0
19.75 17.25 0.0
19.75 29.25 0.0
19.75 29.75 0.0
19.75 30.25 0.0
19.75 30.75 0.0
19.75 31.25 0.0
19.75 31.75 0.0
19.75 32.25 0.0
19.75 32.75 0.0
19.75 33.25 0.0
19.75 33.75 0.0
19.75 34.25 0.0
19.75 34.75 0.0
20.25 4.75 0.0
20.25 5.25 0.0
20.25 5.75 0.0
20.25 6.25 0.0
20.25 6.75 0.0
20.25 7.25 0.0
20.25 7.75 0.0
20.25 8.25 0.0
20.25 8.75 0.0
20.25 12.25 0.0
20.25 12.75 0.0
20.25 13.25 0.0
20.25 13.75 0.0
20.25 14.25 0.0
20.25 14.75 0.0
20.25 15.25 0.0
20.25 15.75 0.0
20.25 16.25 0.0
20.25 16.75 0.0
20.25 17.25 0.0
20.25 29.25 0.0
20.25 29.75 0.0
20.25 30.25 0.0
20.25 30.75 0.0
20.25 31.25 0.0
20.25 31.75 0.0
20.25 32.25 0.0
20.25 32.75 0.0
20.25 33.25 0.0
20.25 33.75 0.0
20.25 34.25 0.0
20.75 4.75 0.0
20.75 5.25 0.0
20.75 5.75 0.0
20.75 6.25 0.0
20.75 6.75 0.0
20.75 7.25 0.0
20.75 7.75 0.0
20.75 8.25 0.0
20.75 8.75 0.0
20.75 11.75 0.0
20.75 12.25 0.0
20.75 12.75 0.0
20.75 13.25 0.0
20.75 13.75 0.0
20.75 14.25 0.0
20.75 14.75 0.0
20.75 15.25 0.0
20.75 15.75 0.0
20.75 16.25 0.0
20.75 16.75 0.0
20.75 29.25 0.0
20.75 29.75 0.0
20.75 30.25 0.0
20.75 30.75 0.0
20.75 31.25 0.0
20.75 31.75 0.0
20.75 32.25 0.0
20.75 32.75 0.0
20.75 33.25 0.0
20.75 33.75 0.0
21.25 4.75 0.0
21.25 5.25 0.0
21.25 5.75 0.0
21.25 6.25 0.0
21.25 6.75 0.0
21.25 7.25 0.0
21.25 7.75 0.0
21.25 8.25 0.0
21.25 8.75 0.0
21.25 11.75 0.0
21.25 12.25 0.0
21.25 12.75 0.0
21.25 13.25 0.0
21.25 13.75 0.0
21.25 14.25 0.0
21.25 14.75 0.0
21.25 15.25 0.0
21.25 15.75 0.0
21.25 16.25 0.0
21.25 28.75 0.0
21.25 29.25 0.0
21.25 29.75 0.0
21.25 30.25 0.0
21.25 30.75 0.0
21.25 31.25 0.0
21.25 31.75 0.0
21.25 32.25 0.0
21.25 32.75 0.0
21.25 33.25 0.0
21.25 33.75 0.0
21.75 4.75 0.0
21.75 5.25 0.0
21.75 5.75 0.0
21.75 6.25 0.0
21.75 6.75 0.0
21.75 7.25 0.0
21.75 7.75 0.0
21.75 8.25 0.0
21.75 8.75 0.0
21.75 11.25 0.0
21.75 11.75 0.0
21.75 12.25 0.0
21.75 12.75 0.0
21.75 13.25 0.0
21.75 13.75 0.0
21.75 14.25 0.0
21.75 14.75 0.0
21.75 15.25 0.0
21.75 15.75 0.0
21.75 16.25 0.0
21.75 28.75 0.0
21.75 29.25 0.0
21.75 29.75 0.0
21.75 30.25 0.0
21.75 30.75 0.0
21.75 31.25 0.0
21.75 31.75 0.0
21.75 32.25 0.0
21.75 32.75 0.0
21.75 33.25 0.0
22.25 4.75 0.0
22.25 5.25 0.0
22.25 5.75 0.0
22.25 6.25 0.0
22.25 6.75 0.0
22.25 7.25 0.0
22.25 7.75 0.0
22.25 8.25 0.0
22.25 8.75 0.0
22.25 10.75 0.0
22.25 11.25 0.0
22.25 11.75 0.0
22.25 12.25 0.0
22.25 12.75 0.0
22.25 13.25 0.0
22.25 13.75 0.0
22.25 14.25 0.0
22.25 14.75 0.0
22.25 15.25 0.0
22.25 15.75 0.0
22.25 28.25 0.0
22.25 28.75 0.0
22.25 29.25 0.0
22.25 29.75 0.0
22.25 30.25 0.0
22.25 30.75 0.0
22.25 31.25 0.0
22.25 31.75 0.0
22.25 32.25 0.0
22.25 32.75 0.0
22.75 5.25 0.0
22.75 5.75 0.0
22.75 6.25 0.0
22.75 6.75 0.0
22.75 7.25 0.0
22.75 7.75 0.0
22.75 8.25 0.0
22.75 8.75 0.0
22.75 9.25 0.0
22.75 10.75 0.0
22.75 11.25 0.0
22.75 11.75 0.0
22.75 12.25 0.0
22.75 12.75 0.0
22.75 13.25 0.0
22.75 13.75 0.0
22.75 14.25 0.0
22.75 14.75 0.0
22.75 15.25 0.0
22.75 15.75 0.0
22.75 28.25 0.0
22.75 28.75 0.0
22.75 29.25 0.0
22.75 29.75 0.0
22.75 30.25 0.0
22.75 30.75 0.0
22.75 31.25 0.0
22.75 31.75 0.0
22.75 32.25 0.0
23.25 5.25 0.0
23.25 5.75 0.0
23.25 6.25 0.0
23.25 6.75 0.0
23.25 7.25 0.0
23.25 7.75 0.0
23.25 8.25 0.0
23.25 8.75 0.0
23.25 9.25 0.0
23.25 10.75 0.0
23.25 11.25 0.0
23.25 11.75 0.0
23.25 12.25 0.0
23.25 12.75 0.0
23.25 13.25 0.0
23.25 13.75 0.0
23.25 14.25 0.0
23.25 14.75 0.0
23.25 15.25 0.0
23.25 28.25 0.0
23.25 28.75 0.0
23.25 29.25 0.0
23.25 29.75 0.0
23.25 30.25 0.0
23.25 30.75 0.0
23.25 31.25 0.0
23.25 31.75 0.0
23.25 32.25 0.0
23.25 32.75 0.0
23.75 5.25 0.0
23.75 5.75 0.0
23.75 6.25 0.0
23.75 6.75 0.0
23.75 7.25 0.0
23.75 7.75 0.0
23.75 8.25 0.0
23.75 8.75 0.0
23.75 9.25 0.0
23.75 10.25 0.0
23.75 10.75 0.0
23.75 11.25 0.0
23.75 11.75 0.0
23.75 12.25 0.0
23.75 12.75 0.0
23.75 13.25 0.0
23.75 13.75 0.0
23.75 14.25 0.0
23.75 14.75 0.0
23.75 15.25 0.0
23.75 28.25 0.0
23.75 28.75 0.0
23.75 29.25 0.0
23.75 29.75 0.0
23.75 30.25 0.0
23.75 30.75 0.0
23.75 31.25 0.0
23.75 31.75 0.0
23.75 32.25 0.0
24.25 5.75 0.0
24.25 6.25 0.0
24.25 6.75 0.0
24.25 7.25 0.0
24.25 7.75 0.0
24.25 8.25 0.0
24.25 8.75 0.0
24.25 9.25 0.0
24.25 9.75 0.0
24.25 10.25 0.0
24.25 10.75 0.0
24.25 11.25 0.0
24.25 11.75 0.0
24.25 12.25 0.0
24.25 12.75 0.0
24.25 13.25 0.0
24.25 13.75 0.0
24.25 14.25 0.0
24.25 14.75 0.0
24.25 15.25 0.0
24.25 27.75 0.0
24.25 28.25 0.0
24.25 28.75 0.0
24.25 29.25 0.0
24.25 29.75 0.0
24.25 30.25 0.0
24.25 30.75 0.0
24.25 31.25 0.0
24.25 31.75 0.0
24.25 32.25 0.0
24.75 5.75 0.0
24.75 6.25 0.0
24.75 6.75 0.0
24.75 7.25 0.0
24.75 7.75 0.0
24.75 8.25 0.0
24.75 8.75 0.0
24.75 9.25 0.0
24.75 9.75 0.0
24.75 10.25 0.0
24.75 10.75 0.0
24.75 11.25 0.0
24.75 11.75 0.0
24.75 12.25 0.0
24.75 12.75 0.0
24.75 13.25 0.0
24.75 13.75 0.0
24.75 14.25 0.0
24.75 14.75 0.0
24.75 27.75 0.0
24.75 28.25 0.0
24.75 28.75 0.0
24.75 29.25 0.0
24.75 29.75 0.0
24.75 30.25 0.0
24.75 30.75 0.0
24.75 31.25 0.0
24.75 31.75 0.0
25.25 5.75 0.0
25.25 6.25 0.0
25.25 6.75 0.0
25.25 7.25 0.0
25.25 7.75 0.0
25.25 8.25 0.0
25.25 8.75 0.0
25.25 9.25 0.0
25.25 9.75 0.0
25.25 10.25 0.0
25.25 10.75 0.0
25.25 11.25 0.0
25.25 11.75 0.0
25.25 12.25 0.0
25.25 12.75 0.0
25.25 13.25 0.0
25.25 13.75 0.0
25.25 14.25 0.0
25.25 14.75 0.0
25.25 27.75 0.0
25.25 28.25 0.0
25.25 28.75 0.0
25.25 29.25 0.0
25.25 29.75 0.0
25.25 30.25 0.0
25.25 30.75 0.0
25.25 31.25 0.0
25.25 31.75 0.0
25.75 5.75 0.0
25.75 6.25 0.0
25.75 6.75 0.0
25.75 7.25 0.0
25.75 7.75 0.0
25.75 8.25 0.0
25.75 8.75 0.0
25.75 9.25 0.0
25.75 9.75 0.0
25.75 10.25 0.0
25.75 10.75 0.0
25.75 11.25 0.0
25.75 11.75 0.0
25.75 12.25 0.0
25.75 12.75 0.0
25.75 13.25 0.0
25.75 13.75 0.0
25.75 14.25 0.0
25.75 27.25 0.0
25.75 27.75 0.0
25.75 28.25 0.0
25.75 28.75 0.0
25.75 29.25 0.0
25.75 29.75 0.0
25.75 30.25 0.0
25.75 30.75 0.0
25.75 31.25 0.0
25.75 31.75 0.0
26.25 6.25 0.0
26.25 6.75 0.0
26.25 7.25 0.0
26.25 7.75 0.0
26.25 8.25 0.0
26.25 8.75 0.0
26.25 9.25 0.0
26.25 9.75 0.0
26.25 10.25 0.0
26.25 10.75 0.0
26.25 11.25 0.0
26.25 11.75 0.0
26.25 12.25 0.0
26.25 12.75 0.0
26.25 13.25 0.0
26.25 13.75 0.0
26.25 14.25 0.0
26.25 27.25 0.0
26.25 27.75 0.0
26.25 28.25 0.0
26.25 28.75 0.0
26.25 29.25 0.0
26.25 29.75 0.0
26.25 30.25 0.0
26.25 30.75 0.0
26.25 31.25 0.0
26.75 6.25 0.0
26.75 6.75 0.0
26.75 7.25 0.0
26.75 7.75 0.0
26.75 8.25 0.0
26.75 8.75 0.0
26.75 9.25 0.0
26.75 9.75 0.0
26.75 10.25 0.0
26.75 10.75 0.0
26.75 11.25 0.0
26.75 11.75 0.0
26.75 12.25 0.0
26.75 12.75 0.0
26.75 13.25 0.0
26.75 13.75 0.0
26.75 27.25 0.0
26.75 27.75 0.0
26.75 28.25 0.0
26.75 28.75 0.0
26.75 29.25 0.0
26.75 29.75 0.0
26.75 30.25 0.0
26.75 30.75 0.0
26.75 31.25 0.0
27.25 6.25 0.0
27.25 6.75 0.0
27.25 7.25 0.0
27.25 7.75 0.0
27.25 8.25 0.0
27.25 8.75 0.0
27.25 9.25 0.0
27.25 9.75 0.0
27.25 10.25 0.0
27.25 10.75 0.0
27.25 11.25 0.0
27.25 11.75 0.0
27.25 12.25 0.0
27.25 12.75 0.0
27.25 13.25 0.0
27.25 13.75 0.0
27.25 27.25 0.0
27.25 27.75 0.0
27.25 28.25 0.0
27.25 28.75 0.0
27.25 29.25 0.0
27.25 29.75 0.0
27.25 30.25 0.0
27.25 30.75 0.0
27.25 31.25 0.0
27.75 6.25 0.0
27.75 6.75 0.0
27.75 7.25 0.0
27.75 7.75 0.0
27.75 8.25 0.0
27.75 8.75 0.0
27.75 9.25 0.0
27.75 9.75 0.0
27.75 10.25 0.0
27.75 10.75 0.0
27.75 11.25 0.0
27.75 11.75 0.0
27.75 12.25 0.0
27.75 12.75 0.0
27.75 13.25 0.0
27.75 26.75 0.0
27.75 27.25 0.0
27.75 27.75 0.0
27.75 28.25 0.0
27.75 28.75 0.0
27.75 29.25 0.0
27.75 29.75 0.0
27.75 30.25 0.0
27.75 30.75 0.0
28.25 6.25 0.0
28.25 6.75 0.0
28.25 7.25 0.0
28.25 7.75 0.0
28.25 8.25 0.0
28.25 8.75 0.0
28.25 9.25 0.0
28.25 9.75 0.0
28.25 10.25 0.0
28.25 10.75 0.0
28.25 11.25 0.0
28.25 11.75 0.0
28.25 12.25 0.0
28.25 12.75 0.0
28.25 13.25 0.0
28.25 26.75 0.0
28.25 27.25 0.0
28.25 27.75 0.0
28.25 28.25 0.0
28.25 28.75 0.0
28.25 29.25 0.0
28.25 29.75 0.0
28.25 30.25 0.0
28.25 30.75 0.0
28.75 6.75 0.0
28.75 7.25 0.0
28.75 7.75 0.0
28.75 8.25 0.0
28.75 8.75 0.0
28.75 9.25 0.0
28.75 9.75 0.0
28.75 10.25 0.0
28.75 10.75 0.0
28.75 11.25 0.0
28.75 11.75 0.0
28.75 12.25 0.0
28.75 12.75 0.0
28.75 26.75 0.0
28.75 27.25 0.0
28.75 27.75 0.0
28.75 28.25 0.0
28.75 28.75 0.0
28.75 29.25 0.0
28.75 29.75 0.0
28.75 30.25 0.0
28.75 30.75 0.0
29.25 6.75 0.0
29.25 7.25 0.0
29.25 7.75 0.0
29.25 8.25 0.0
29.25 8.75 0.0
29.25 9.25 0.0
29.25 9.75 0.0
29.25 10.25 0.0
29.25 10.75 0.0
29.25 11.25 0.0
29.25 11.75 0.0
29.25 12.25 0.0
29.25 12.75 0.0
29.25 26.75 0.0
29.25 27.25 0.0
29.25 27.75 0.0
29.25 28.25 0.0
29.25 28.75 0.0
29.25 29.25 0.0
29.25 29.75 0.0
29.25 30.25 0.0
29.25 30.75 0.0
29.25 31.25 0.0
29.75 6.75 0.0
29.75 7.25 0.0
29.75 7.75 0.0
29.75 8.25 0.0
29.75 8.75 0.0
29.75 9.25 0.0
29.75 9.75 0.0
29.75 10.25 0.0
29.75 10.75 0.0
29.75 11.25 0.0
29.75 11.75 0.0
29.75 12.25 0.0
29.75 12.75 0.0
29.75 27.25 0.0
29.75 27.75 0.0
29.75 28.25 0.0
29.75 28.75 0.0
29.75 29.25 0.0
29.75 29.75 0.0
29.75 30.25 0.0
29.75 30.75 0.0
29.75 31.25 0.0
30.25 7.25 0.0
30.25 7.75 0.0
30.25 8.25 0.0
30.25 8.75 0.0
30.25 9.25 0.0
30.25 9.75 0.0
30.25 10.25 0.0
30.25 10.75 0.0
30.25 11.25 0.0
30.25 11.75 0.0
30.25 12.25 0.0
30.25 12.75 0.0
30.25 26.75 0.0
30.25 27.25 0.0
30.25 27.75 0.0
30.25 28.25 0.0
30.25 28.75 0.0
30.25 29.25 0.0
30.25 29.75 0.0
30.25 30.25 0.0
30.25 30.75 0.0
30.75 7.75 0.0
30.75 8.25 0.0
30.75 8.75 0.0
30.75 9.25 0.0
30.75 9.75 0.0
30.75 10.25 0.0
30.75 10.75 0.0
30.75 11.25 0.0
30.75 11.75 0.0
30.75 12.25 0.0
30.75 12.75 0.0
30.75 26.75 0.0
30.75 27.25 0.0
30.75 27.75 0.0
30.75 28.25 0.0
30.75 28.75 0.0
30.75 29.25 0.0
30.75 29.75 0.0
30.75 30.25 0.0
30.75 30.75 0.0
31.25 7.75 0.0
31.25 8.25 0.0
31.25 8.75 0.0
31.25 9.25 0.0
31.25 9.75 0.0
31.25 10.25 0.0
31.25 10.75 0.0
31.25 11.25 0.0
31.25 11.75 0.0
31.25 12.25 0.0
31.25 12.75 0.0
31.25 26.75 0.0
31.25 27.25 0.0
31.25 27.75 0.0
31.25 28.25 0.0
31.25 28.75 0.0
31.25 29.25 0.0
31.25 29.75 0.0
31.25 30.25 0.0
31.25 30.75 0.0
31.75 7.75 0.0
31.75 8.25 0.0
31.75 8.75 0.0
31.75 9.25 0.0
31.75 9.75 0.0
31.75 10.25 0.0
31.75 10.75 0.0
31.75 11.25 0.0
31.75 11.75 0.0
31.75 12.25 0.0
31.75 12.75 0.0
31.75 13.25 0.0
31.75 26.75 0.0
31.75 27.25 0.0
31.75 27.75 0.0
31.75 28.25 0.0
31.75 28.75 0.0
31.75 29.25 0.0
31.75 29.75 0.0
31.75 30.25 0.0
31.75 30.75 0.0
32.25 7.75 0.0
32.25 8.25 0.0
32.25 8.75 0.0
32.25 9.25 0.0
32.25 9.75 0.0
32.25 10.25 0.0
32.25 10.75 0.0
32.25 11.25 0.0
32.25 11.75 0.0
32.25 12.25 0.0
32.25 12.75 0.0
32.25 13.25 0.0
32.25 26.75 0.0
32.25 27.25 0.0
32.25 27.75 0.0
32.25 28.25 0.0
32.25 28.75 0.0
32.25 29.25 0.0
32.25 29.75 0.0
32.25 30.25 0.0
32.25 30.75 0.0
32.75 7.75 0.0
32.75 8.25 0.0
32.75 8.75 0.0
32.75 9.25 0.0
32.75 9.75 0.0
32.75 10.25 0.0
32.75 10.75 0.0
32.75 11.25 0.0
32.75 11.75 0.0
32.75 12.25 0.0
32.75 12.75 0.0
32.75 13.25 0.0
32.75 13.75 0.0
32.75 26.75 0.0
32.75 27.25 0.0
32.75 27.75 0.0
32.75 28.25 0.0
32.75 28.75 0.0
32.75 29.25 0.0
32.75 29.75 0.0
32.75 30.25 0.0
32.75 30.75 0.0
33.25 7.75 0.0
33.25 8.25 0.0
33.25 8.75 0.0
33.25 9.25 0.0
33.25 9.75 0.0
33.25 10.25 0.0
33.25 10.75 0.0
33.25 11.25 0.0
33.25 11.75 0.0
33.25 12.25 0.0
33.25 12.75 0.0
33.25 13.25 0.0
33.25 13.75 0.0
33.25 14.25 0.0
33.25 26.75 0.0
33.25 27.25 0.0
33.25 27.75 0.0
33.25 28.25 0.0
33.25 28.75 0.0
33.25 29.25 0.0
33.25 29.75 0.0
33.25 30.25 0.0
33.25 30.75 0.0
33.75 7.25 0.0
33.75 7.75 0.0
33.75 8.25 0.0
33.75 8.75 0.0
33.75 9.25 0.0
33.75 9.75 0.0
33.75 10.25 0.0
33.75 10.75 0.0
33.75 11.25 0.0
33.75 11.75 0.0
33.75 12.25 0.0
33.75 12.75 0.0
33.75 13.25 0.0
33.75 13.75 0.0
33.75 14.25 0.0
33.75 14.75 0.0
33.75 26.75 0.0
33.75 27.25 0.0
33.75 27.75 0.0
33.75 28.25 0.0
33.75 28.75 0.0
33.75 29.25 0.0
33.75 29.75 0.0
33.75 30.25 0.0
33.75 30.75 0.0
34.25 7.25 0.0
34.25 7.75 0.0
34.25 8.25 0.0
34.25 8.75 0.0
34.25 9.25 0.0
34.25 9.75 0.0
34.25 10.25 0.0
34.25 10.75 0.0
34.25 11.25 0.0
34.25 11.75 0.0
34.25 12.25 0.0
34.25 12.75 0.0
34.25 13.25 0.0
34.25 13.75 0.0
34.25 14.25 0.0
34.25 14.75 0.0
34.25 15.25 0.0
34.25 26.75 0.0
34.25 27.25 0.0
34.25 27.75 0.0
34.25 28.25 0.0
34.25 28.75 0.0
34.25 29.25 0.0
34.25 29.75 0.0
34.25 30.25 0.0
34.25 30.75 0.0
34.75 7.25 0.0
34.75 7.75 0.0
34.75 8.25 0.0
34.75 8.75 0.0
34.75 9.25 0.0
34.75 9.75 0.0
34.75 10.25 0.0
34.75 10.75 0.0
34.75 11.25 0.0
34.75 11.75 0.0
34.75 12.25 0.0
34.75 12.75 0.0
34.75 13.25 0.0
34.75 13.75 0.0
34.75 14.25 0.0
34.75 14.75 0.0
34.75 15.25 0.0
34.75 15.75 0.0
34.75 26.75 0.0
34.75 27.25 0.0
34.75 27.75 0.0
34.75 28.25 0.0
34.75 28.75 0.0
34.75 29.25 0.0
34.75 29.75 0.0
34.75 30.25 0.0
34.75 30.75 0.0
35.25 6.75 0.0
35.25 7.25 0.0
35.25 7.75 0.0
35.25 8.25 0.0
35.25 8.75 0.0
35.25 9.25 0.0
35.25 9.75 0.0
35.25 10.25 0.0
35.25 10.75 0.0
35.25 11.25 0.0
35.25 11.75 0.0
35.25 12.25 0.0
35.25 12.75 0.0
35.25 13.25 0.0
35.25 13.75 0.0
35.25 14.25 0.0
35.25 14.75 0.0
35.25 15.25 0.0
35.25 15.75 0.0
35.25 16.25 0.0
35.25 16.75 0.0
35.25 26.75 0.0
35.25 27.25 0.0
35.25 27.75 0.0
35.25 28.25 0.0
35.25 28.75 0.0
35.25 29.25 0.0
35.25 29.75 0.0
35.25 30.25 0.0
35.25 30.75 0.0
35.75 6.75 0.0
35.75 7.25 0.0
35.75 7.75 0.0
35.75 8.25 0.0
35.75 8.75 0.0
35.75 9.25 0.0
35.75 9.75 0.0
35.75 10.25 0.0
35.75 10.75 0.0
35.75 11.25 0.0
35.75 11.75 0.0
35.75 12.25 0.0
35.75 12.75 0.0
35.75 13.25 0.0
35.75 13.75 0.0
35.75 14.25 0.0
35.75 14.75 0.0
35.75 15.25 0.0
35.75 15.75 0.0
35.75 16.25 0.0
35.75 16.75 0.0
35.75 17.25 0.0
35.75 17.75 0.0
35.75 18.25 0.0
35.75 27.25 0.0
35.75 27.75 0.0
35.75 28.25 0.0
35.75 28.75 0.0
35.75 29.25 0.0
35.75 29.75 0.0
35.75 30.25 0.0
35.75 30.75 0.0
35.75 31.25 0.0
35.75 50.75 0.0
35.75 51.25 0.0
35.75 51.75 0.0
35.75 52.25 0.0
36.25 6.75 0.0
36.25 7.25 0.0
36.25 7.75 0.0
36.25 8.25 0.0
36.25 8.75 0.0
36.25 9.25 0.0
36.25 9.75 0.0
36.25 10.25 0.0
36.25 10.75 0.0
36.25 11.25 0.0
36.25 11.75 0.0
36.25 12.25 0.0
36.25 12.75 0.0
36.25 13.25 0.0
36.25 13.75 0.0
36.25 14.25 0.0
36.25 14.75 0.0
36.25 15.25 0.0
36.25 15.75 0.0
36.25 16.25 0.0
36.25 16.75 0.0
36.25 17.25 0.0
36.25 17.75 0.0
36.25 18.25 0.0
36.25 18.75 0.0
36.25 19.25 0.0
36.25 27.25 0.0
36.25 27.75 0.0
36.25 28.25 0.0
36.25 28.75 0.0
36.25 29.25 0.0
36.25 29.75 0.0
36.25 30.25 0.0
36.25 30.75 0.0
36.25 31.25 0.0
36.25 49.25 0.0
36.25 49.75 0.0
36.25 50.25 0.0
36.25 50.75 0.0
36.25 51.25 0.0
36.25 51.75 0.0
36.25 52.25 0.0
36.75 6.75 0.0
36.75 7.25 0.0
36.75 7.75 0.0
36.75 8.25 0.0
36.75 8.75 0.0
36.75 9.25 0.0
36.75 9.75 0.0
36.75 10.25 0.0
36.75 10.75 0.0
36.75 11.25 0.0
36.75 12.25 0.0
36.75 12.75 0.0
36.75 13.25 0.0
36.75 13.75 0.0
36.75 14.25 0.0
36.75 14.75 0.0
36.75 15.25 0.0
36.75 15.75 0.0
36.75 16.25 0.0
36.75 16.75 0.0
36.75 17.25 0.0
36.75 17.75 0.0
36.75 18.25 0.0
36.75 18.75 0.0
36.75 19.25 0.0
36.75 19.75 0.0
36.75 27.25 0.0
36.75 27.75 0.0
36.75 28.25 0.0
36.75 28.75 0.0
36.75 29.25 0.0
36.75 29.75 0.0
36.75 30.25 0.0
36.75 30.75 0.0
36.75 31.25 0.0
36.75 48.75 0.0
36.75 49.25 0.0
36.75 49.75 0.0
36.75 50.25 0.0
36.75 50.75 0.0
36.75 51.25 0.0
36.75 51.75 0.0
36.75 52.25 0.0
37.25 6.75 0.0
37.25 7.25 0.0
37.25 7.75 0.0
37.25 8.25 0.0
37.25 8.75 0.0
37.25 9.25 0.0
37.25 9.75 0.0
37.25 10.25 0.0
37.25 10.75 0.0
37.25 12.75 0.0
37.25 13.25 0.0
37.25 13.75 0.0
37.25 14.25 0.0
37.25 14.75 0.0
37.25 15.25 0.0
37.25 15.75 0.0
37.25 16.25 0.0
37.25 16.75 0.0
37.25 17.25 0.0
37.25 17.75 0.0
37.25 18.25 0.0
37.25 18.75 0.0
37.25 19.25 0.0
37.25 19.75 0.0
37.25 20.25 0.0
37.25 20.75 0.0
37.25 27.25 0.0
37.25 27.75 0.0
37.25 28.25 0.0
37.25 28.75 0.0
37.25 29.25 0.0
37.25 29.75 0.0
37.25 30.25 0.0
37.25 30.75 0.0
37.25 31.25 0.0
37.25 48.75 0.0
37.25 49.25 0.0
37.25 49.75 0.0
37.25 50.25 0.0
37.25 50.75 0.0
37.25 51.25 0.0
37.25 51.75 0.0
37.25 52.25 0.0
37.75 6.25 0.0
37.75 6.75 0.0
37.75 7.25 0.0
37.75 7.75 0.0
37.75 8.25 0.0
37.75 8.75 0.0
37.75 9.25 0.0
37.75 9.75 0.0
37.75 10.25 0.0
37.75 10.75 0.0
37.75 13.25 0.0
37.75 13.75 0.0
37.75 14.25 0.0
37.75 14.75 0.0
37.75 15.25 0.0
37.75 15.75 0.0
37.75 16.25 0.0
37.75 16.75 0.0
37.75 17.25 0.0
37.75 17.75 0.0
37.75 18.25 0.0
37.75 18.75 0.0
37.75 19.25 0.0
37.75 19.75 0.0
37.75 20.25 0.0
37.75 20.75 0.0
37.75 21.25 0.0
37.75 27.25 0.0
37.75 27.75 0.0
37.75 28.25 0.0
37.75 28.75 0.0
37.75 29.25 0.0
37.75 29.75 0.0
37.75 30.25 0.0
37.75 30.75 0.0
37.75 31.25 0.0
37.75 47.75 0.0
37.75 48.25 0.0
37.75 48.75 0.0
37.75 49.25 0.0
37.75 49.75 0.0
37.75 50.25 0.0
37.75 50.75 0.0
37.75 51.25 0.0
37.75 51.75 0.0
37.75 52.25 0.0
38.25 6.25 0.0
38.25 6.75 0.0
38.25 7.25 0.0
38.25 7.75 0.0
38.25 8.25 0.0
38.25 8.75 0.0
38.25 9.25 0.0
38.25 9.75 0.0
38.25 10.25 0.0
38.25 10.75 0.0
38.25 13.75 0.0
38.25 14.25 0.0
38.25 14.75 0.0
38.25 15.25 0.0
38.25 15.75 0.0
38.25 16.25 0.0
38.25 16.75 0.0
38.25 17.25 0.0
38.25 17.75 0.0
38.25 18.25 0.0
38.25 18.75 0.0
38.25 19.25 0.0
38.25 19.75 0.0
38.25 20.25 0.0
38.25 20.75 0.0
38.25 21.25 0.0
38.25 21.75 0.0
38.25 22.25 0.0
38.25 27.25 0.0
38.25 27.75 0.0
38.25 28.25 0.0
38.25 28.75 0.0
38.25 29.25 0.0
38.25 29.75 0.0
38.25 30.25 0.0
38.25 30.75 0.0
38.25 31.25 0.0
38.25 46.25 0.0
38.25 46.75 0.0
38.25 47.25 0.0
38.25 47.75 0.0
38.25 48.25 0.0
38.25 48.75 0.0
38.25 49.25 0.0
38.25 49.75 0.0
38.25 50.25 0.0
38.25 50.75 0.0
38.25 51.25 0.0
38.25 51.75 0.0
38.25 52.25 0.0
38.75 6.25 0.0
38.75 6.75 0.0
38.75 7.25 0.0
38.75 7.75 0.0
38.75 8.25 0.0
38.75 8.75 0.0
38.75 9.25 0.0
38.75 9.75 0.0
38.75 10.25 0.0
38.75 14.75 0.0
38.75 15.25 0.0
38.75 15.75 0.0
38.75 16.25 0.0
38.75 16.75 0.0
38.75 17.25 0.0
38.75 17.75 0.0
38.75 18.25 0.0
38.75 18.75 0.0
38.75 19.25 0.0
38.75 19.75 0.0
38.75 20.25 0.0
38.75 20.75 0.0
38.75 21.25 0.0
38.75 21.75 0.0
38.75 22.25 0.0
38.75 22.75 0.0
38.75 23.25 0.0
38.75 23.75 0.0
38.75 27.25 0.0
38.75 27.75 0.0
38.75 28.25 0.0
38.75 28.75 0.0
38.75 29.25 0.0
38.75 29.75 0.0
38.75 30.25 0.0
38.75 30.75 0.0
38.75 31.25 0.0
38.75 45.25 0.0
38.75 45.75 0.0
38.75 46.25 0.0
38.75 46.75 0.0
38.75 47.25 0.0
38.75 47.75 0.0
38.75 48.25 0.0
38.75 48.75 0.0
38.75 49.25 0.0
38.75 49.75 0.0
38.75 50.25 0.0
38.75 50.75 0.0
38.75 51.25 0.0
38.75 51.75 0.0
38.75 52.25 0.0
39.25 5.75 0.0
39.25 6.25 0.0
39.25 6.75 0.0
39.25 7.25 0.0
39.25 7.75 0.0
39.25 8.25 0.0
39.25 8.75 0.0
39.25 9.25 0.0
39.25 9.75 0.0
39.25 10.25 0.0
39.25 15.25 0.0
39.25 15.75 0.0
39.25 16.25 0.0
39.25 16.75 0.0
39.25 17.25 0.0
39.25 17.75 0.0
39.25 18.25 0.0
39.25 18.75 0.0
39.25 19.25 0.0
39.25 19.75 0.0
39.25 20.25 0.0
39.25 20.75 0.0
39.25 21.25 0.0
39.25 21.75 0.0
39.25 22.25 0.0
39.25 22.75 0.0
39.25 23.25 0.0
39.25 23.75 0.0
39.25 24.25 0.0
39.25 24.75 0.0
39.25 27.25 0.0
39.25 27.75 0.0
39.25 28.25 0.0
39.25 28.75 0.0
39.25 29.25 0.0
39.25 29.75 0.0
39.25 30.25 0.0
39.25 30.75 0.0
39.25 31.25 0.0
39.25 44.25 0.0
39.25 44.75 0.0
39.25 45.25 0.0
39.25 45.75 0.0
39.25 46.25 0.0
39.25 46.75 0.0
39.25 47.25 0.0
39.25 47.75 0.0
39.25 48.25 0.0
39.25 48.75 0.0
39.25 49.25 0.0
39.25 49.75 0.0
39.25 50.25 0.0
39.25 50.75 0.0
39.25 51.25 0.0
39.25 51.75 0.0
39.25 52.25 0.0
39.75 5.75 0.0
39.75 6.25 0.0
39.75 6.75 0.0
39.75 7.25 0.0
39.75 7.75 0.0
39.75 8.25 0.0
39.75 8.75 0.0
39.75 9.25 0.0
39.75 9.75 0.0
39.75 10.25 0.0
39.75 15.75 0.0
39.75 16.25 0.0
39.75 16.75 0.0
39.75 17.25 0.0
39.75 17.75 0.0
39.75 18.25 0.0
39.75 18.75 0.0
39.75 19.25 0.0
39.75 19.75 0.0
39.75 20.25 0.0
39.75 20.75 0.0
39.75 21.25 0.0
39.75 21.75 0.0
39.75 22.25 0.0
39.75 22.75 0.0
39.75 23.25 0.0
39.75 23.75 0.0
39.75 24.25 0.0
39.75 24.75 0.0
39.75 25.25 0.0
39.75 27.25 0.0
39.75 27.75 0.0
39.75 28.25 0.0
39.75 28.75 0.0
39.75 29.25 0.0
39.75 29.75 0.0
39.75 30.25 0.0
39.75 30.75 0.0
39.75 31.25 0.0
39.75 42.75 0.0
39.75 43.25 0.0
39.75 43.75 0.0
39.75 44.25 0.0
39.75 44.75 0.0
39.75 45.25 0.0
39.75 45.75 0.0
39.75 46.25 0.0
39.75 46.75 0.0
39.75 47.25 0.0
39.75 47.75 0.0
39.75 48.25 0.0
39.75 48.75 0.0
39.75 49.25 0.0
39.75 49.75 0.0
39.75 50.25 0.0
39.75 50.75 0.0
39.75 51.25 0.0
39.75 51.75 0.0
39.75 52.25 0.0
40.25 5.75 0.0
40.25 6.25 0.0
40.25 6.75 0.0
40.25 7.25 0.0
40.25 7.75 0.0
40.25 8.25 0.0
40.25 8.75 0.0
40.25 9.25 0.0
40.25 9.75 0.0
40.25 16.75 0.0
40.25 17.25 0.0
40.25 17.75 0.0
40.25 18.25 0.0
40.25 18.75 0.0
40.25 19.25 0.0
40.25 19.75 0.0
40.25 20.25 0.0
40.25 20.75 0.0
40.25 21.25 0.0
40.25 21.75 0.0
40.25 22.25 0.0
40.25 22.75 0.0
40.25 23.25 0.0
40.25 23.75 0.0
40.25 24.25 0.0
40.25 24.75 0.0
40.25 25.25 0.0
40.25 25.75 0.0
40.25 26.25 0.0
40.25 26.75 0.0
40.25 27.25 0.0
40.25 27.75 0.0
40.25 28.25 0.0
40.25 28.75 0.0
40.25 29.25 0.0
40.25 29.75 0.0
40.25 30.25 0.0
40.25 30.75 0.0
40.25 31.25 0.0
40.25 42.75 0.0
40.25 43.25 0.0
40.25 43.75 0.0
40.25 44.25 0.0
40.25 44.75 0.0
40.25 45.25 0.0
40.25 45.75 0.0
40.25 46.25 0.0
40.25 46.75 0.0
40.25 47.25 0.0
40.25 47.75 0.0
40.25 48.25 0.0
40.25 48.75 0.0
40.25 49.25 0.0
40.25 49.75 0.0
40.25 50.25 0.0
40.25 50.75 0.0
40.25 51.25 0.0
40.75 5.25 0.0
40.75 5.75 0.0
40.75 6.25 0.0
40.75 6.75 0.0
40.75 7.25 0.0
40.75 7.75 0.0
40.75 8.25 0.0
40.75 8.75 0.0
40.75 9.25 0.0
40.75 9.75 0.0
40.75 17.25 0.0
40.75 18.25 0.0
40.75 18.75 0.0
40.75 19.25 0.0
40.75 19.75 0.0
40.75 20.25 0.0
40.75 20.75 0.0
40.75 21.25 0.0
40.75 21.75 0.0
40.75 22.25 0.0
40.75 22.75 0.0
40.75 23.25 0.0
40.75 23.75 0.0
40.75 24.25 0.0
40.75 24.75 0.0
40.75 25.25 0.0
40.75 25.75 0.0
40.75 26.25 0.0
40.75 26.75 0.0
40.75 27.25 0.0
40.75 27.75 0.0
40.75 28.25 0.0
40.75 28.75 0.0
40.75 29.25 0.0
40.75 29.75 0.0
40.75 30.25 0.0
40.75 30.75 0.0
40.75 31.25 0.0
40.75 41.25 0.0
40.75 41.75 0.0
40.75 42.25 0.0
40.75 42.75 0.0
40.75 43.25 0.0
40.75 43.75 0.0
40.75 44.25 0.0
40.75 44.75 0.0
40.75 45.25 0.0
40.75 45.75 0.0
40.75 46.25 0.0
40.75 46.75 0.0
40.75 47.25 0.0
40.75 47.75 0.0
40.75 48.25 0.0
40.75 48.75 0.0
40.75 49.25 0.0
40.75 49.75 0.0
40.75 50.25 0.0
41.25 5.25 0.0
41.25 5.75 0.0
41.25 6.25 0.0
41.25 6.75 0.0
41.25 7.25 0.0
41.25 7.75 0.0
41.25 8.25 0.0
41.25 8.75 0.0
41.25 9.25 0.0
41.25 9.75 0.0
41.25 18.75 0.0
41.25 19.25 0.0
41.25 19.75 0.0
41.25 20.25 0.0
41.25 20.75 0.0
41.25 21.25 0.0
41.25 21.75 0.0
41.25 22.25 0.0
41.25 22.75 0.0
41.25 23.25 0.0
41.25 23.75 0.0
41.25 24.25 0.0
41.25 24.75 0.0
41.25 25.25 0.0
41.25 25.75 0.0
41.25 26.25 0.0
41.25 26.75 0.0
41.25 27.25 0.0
41.25 27.75 0.0
41.25 28.25 0.0
41.25 28.75 0.0
41.25 29.25 0.0
41.25 29.75 0.0
41.25 30.25 0.0
41.25 30.75 0.0
41.25 31.25 0.0
41.25 39.25 0.0
41.25 39.75 0.0
41.25 40.25 0.0
41.25 40.75 0.0
41.25 41.25 0.0
41.25 41.75 0.0
41.25 42.25 0.0
41.25 42.75 0.0
41.25 43.25 0.0
41.25 43.75 0.0
41.25 44.25 0.0
41.25 44.75 0.0
41.25 45.25 0.0
41.25 45.75 0.0
41.25 46.25 0.0
41.25 46.75 0.0
41.25 47.25 0.0
41.25 47.75 0.0
41.25 48.25 0.0
41.25 48.75 0.0
41.25 49.25 0.0
41.25 49.75 0.0
41.75 5.25 0.0
41.75 5.75 0.0
41.75 6.25 0.0
41.75 6.75 0.0
41.75 7.25 0.0
41.75 7.75 0.0
41.75 8.25 0.0
41.75 8.75 0.0
41.75 9.25 0.0
41.75 11.75 0.0
41.75 12.25 0.0
41.75 12.75 0.0
41.75 13.25 0.0
41.75 13.75 0.0
41.75 19.75 0.0
41.75 20.25 0.0
41.75 20.75 0.0
41.75 21.25 0.0
41.75 21.75 0.0
41.75 22.25 0.0
41.75 22.75 0.0
41.75 23.25 0.0
41.75 23.75 0.0
41.75 24.25 0.0
41.75 24.75 0.0
41.75 25.25 0.0
41.75 25.75 0.0
41.75 26.25 0.0
41.75 26.75 0.0
41.75 27.25 0.0
41.75 27.75 0.0
41.75 28.25 0.0
41.75 28.75 0.0
41.75 29.25 0.0
41.75 29.75 0.0
41.75 30.25 0.0
41.75 30.75 0.0
41.75 31.25 0.0
41.75 31.75 0.0
41.75 32.25 0.0
41.75 36.25 0.0
41.75 36.75 0.0
41.75 37.25 0.0
41.75 37.75 0.0
41.75 38.25 0.0
41.75 38.75 0.0
41.75 39.25 0.0
41.75 39.75 0.0
41.75 40.25 0.0
41.75 40.75 0.0
41.75 41.25 0.0
41.75 41.75 0.0
41.75 42.25 0.0
41.75 42.75 0.0
41.75 43.25 0.0
41.75 43.75 0.0
41.75 44.25 0.0
41.75 44.75 0.0
41.75 45.25 0.0
41.75 45.75 0.0
41.75 46.25 0.0
41.75 46.75 0.0
41.75 47.25 0.0
41.75 47.75 0.0
41.75 48.25 0.0
41.75 48.75 0.0
42.25 4.75 0.0
42.25 5.25 0.0
42.25 5.75 0.0
42.25 6.25 0.0
42.25 6.75 0.0
42.25 7.25 0.0
42.25 7.75 0.0
42.25 8.25 0.0
42.25 8.75 0.0
42.25 9.25 0.0
42.25 11.25 0.0
42.25 11.75 0.0
42.25 12.25 0.0
42.25 12.75 0.0
42.25 13.25 0.0
42.25 13.75 0.0
42.25 14.25 0.0
42.25 20.75 0.0
42.25 21.25 0.0
42.25 21.75 0.0
42.25 22.25 0.0
42.25 22.75 0.0
42.25 23.25 0.0
42.25 23.75 0.0
42.25 24.25 0.0
42.25 24.75 0.0
42.25 25.25 0.0
42.25 25.75 0.0
42.25 26.25 0.0
42.25 26.75 0.0
42.25 27.25 0.0
42.25 27.75 0.0
42.25 28.25 0.0
42.25 28.75 0.0
42.25 29.25 0.0
42.25 29.75 0.0
42.25 30.25 0.0
42.25 30.75 0.0
42.25 31.25 0.0
42.25 31.75 0.0
42.25 32.25 0.0
42.25 32.75 0.0
42.25 33.25 0.0
42.25 33.75 0.0
42.25 34.25 0.0
42.25 34.75 0.0
42.25 35.25 0.0
42.25 35.75 0.0
42.25 36.25 0.0
42.25 36.75 0.0
42.25 37.25 0.0
42.25 37.75 0.0
42.25 38.25 0.0
42.25 38.75 0.0
42.25 39.25 0.0
42.25 39.75 0.0
42.25 40.25 0.0
42.25 40.75 0.0
42.25 41.25 0.0
42.25 41.75 0.0
42.25 42.25 0.0
42.25 42.75 0.0
42.25 43.25 0.0
42.25 43.75 0.0
42.25 44.25 0.0
42.25 44.75 0.0
42.25 45.25 0.0
42.25 45.75 0.0
42.25 46.25 0.0
42.25 46.75 0.0
42.25 47.25 0.0
42.25 47.75 0.0
42.25 48.25 0.0
42.75 5.25 0.0
42.75 5.75 0.0
42.75 6.25 0.0
42.75 6.75 0.0
42.75 7.25 0.0
42.75 7.75 0.0
42.75 8.25 0.0
42.75 8.75 0.0
42.75 9.25 0.0
42.75 11.25 0.0
42.75 11.75 0.0
42.75 12.25 0.0
42.75 12.75 0.0
42.75 13.25 0.0
42.75 13.75 0.0
42.75 14.25 0.0
42.75 14.75 0.0
42.75 21.75 0.0
42.75 22.25 0.0
42.75 22.75 0.0
42.75 23.25 0.0
42.75 23.75 0.0
42.75 24.25 0.0
42.75 24.75 0.0
42.75 25.25 0.0
42.75 25.75 0.0
42.75 26.25 0.0
42.75 26.75 0.0
42.75 27.25 0.0
42.75 27.75 0.0
42.75 28.25 0.0
42.75 28.75 0.0
42.75 29.25 0.0
42.75 29.75 0.0
42.75 30.25 0.0
42.75 30.75 0.0
42.75 31.25 0.0
42.75 31.75 0.0
42.75 32.25 0.0
42.75 32.75 0.0
42.75 33.25 0.0
42.75 33.75 0.0
42.75 34.25 0.0
42.75 34.75 0.0
42.75 35.25 0.0
42.75 35.75 0.0
42.75 36.25 0.0
42.75 36.75 0.0
42.75 37.25 0.0
42.75 37.75 0.0
42.75 38.25 0.0
42.75 38.75 0.0
42.75 39.25 0.0
42.75 39.75 0.0
42.75 40.25 0.0
42.75 40.75 0.0
42.75 41.25 0.0
42.75 41.75 0.0
42.75 42.25 0.0
42.75 42.75 0.0
42.75 43.25 0.0
42.75 43.75 0.0
42.75 44.25 0.0
42.75 44.75 0.0
42.75 45.25 0.0
42.75 45.75 0.0
42.75 46.25 0.0
42.75 46.75 0.0
42.75 47.25 0.0
42.75 47.75 0.0
43.25 5.25 0.0
43.25 5.75 0.0
43.25 6.25 0.0
43.25 6.75 0.0
43.25 7.25 0.0
43.25 7.75 0.0
43.25 8.25 0.0
43.25 8.75 0.0
43.25 9.25 0.0
43.25 10.75 0.0
43.25 11.25 0.0
43.25 11.75 0.0
43.25 12.25 0.0
43.25 12.75 0.0
43.25 13.25 0.0
43.25 13.75 0.0
43.25 14.25 0.0
43.25 14.75 0.0
43.25 22.25 0.0
43.25 22.75 0.0
43.25 23.25 0.0
43.25 23.75 0.0
43.25 24.25 0.0
43.25 24.75 0.0
43.25 25.25 0.0
43.25 25.75 0.0
43.25 26.25 0.0
43.25 26.75 0.0
43.25 27.25 0.0
43.25 27.75 0.0
43.25 28.25 0.0
43.25 28.75 0.0
43.25 29.25 0.0
43.25 29.75 0.0
43.25 30.25 0.0
43.25 30.75 0.0
43.25 31.25 0.0
43.25 31.75 0.0
43.25 32.25 0.0
43.25 32.75 0.0
43.25 33.25 0.0
43.25 33.75 0.0
43.25 34.25 0.0
43.25 34.75 0.0
43.25 35.25 0.0
43.25 35.75 0.0
43.25 36.25 0.0
43.25 36.75 0.0
43.25 37.25 0.0
43.25 37.75 0.0
43.25 38.25 0.0
43.25 38.75 0.0
43.25 39.25 0.0
43.25 39.75 0.0
43.25 40.25 0.0
43.25 40.75 0.0
43.25 41.25 0.0
43.25 41.75 0.0
43.25 42.25 0.0
43.25 42.75 0.0
43.25 43.25 0.0
43.25 43.75 0.0
43.25 44.25 0.0
43.25 44.75 0.0
43.25 45.25 0.0
43.25 45.75 0.0
43.25 46.25 0.0
43.75 4.75 0.0
43.75 5.25 0.0
43.75 5.75 0.0
43.75 6.25 0.0
43.75 6.75 0.0
43.75 7.25 0.0
43.75 7.75 0.0
43.75 8.25 0.0
43.75 8.75 0.0
43.75 9.25 0.0
43.75 9.75 0.0
43.75 10.25 0.0
43.75 10.75 0.0
43.75 11.25 0.0
43.75 11.75 0.0
43.75 12.25 0.0
43.75 12.75 0.0
43.75 13.25 0.0
43.75 13.75 0.0
43.75 14.25 0.0
43.75 14.75 0.0
43.75 23.25 0.0
43.75 23.75 0.0
43.75 24.25 0.0
43.75 24.75 0.0
43.75 25.25 0.0
43.75 25.75 0.0
43.75 26.25 0.0
43.75 26.75 0.0
43.75 27.25 0.0
43.75 27.75 0.0
43.75 28.25 0.0
43.75 28.75 0.0
43.75 29.25 0.0
43.75 29.75 0.0
43.75 30.25 0.0
43.75 30.75 0.0
43.75 31.25 0.0
43.75 31.75 0.0
43.75 32.25 0.0
43.75 32.75 0.0
43.75 33.25 0.0
43.75 33.75 0.0
43.75 34.25 0.0
43.75 34.75 0.0
43.75 35.25 0.0
43.75 35.75 0.0
43.75 36.25 0.0
43.75 36.75 0.0
43.75 37.25 0.0
43.75 37.75 0.0
43.75 38.25 0.0
43.75 38.75 0.0
43.75 39.25 0.0
43.75 39.75 0.0
43.75 40.25 0.0
43.75 40.75 0.0
43.75 41.25 0.0
43.75 41.75 0.0
43.75 42.25 0.0
43.75 42.75 0.0
43.75 43.25 0.0
43.75 43.75 0.0
43.75 44.25 0.0
43.75 44.75 0.0
43.75 45.25 0.0
44.25 4.75 0.0
44.25 5.25 0.0
44.25 5.75 0.0
44.25 6.25 0.0
44.25 6.75 0.0
44.25 7.25 0.0
44.25 7.75 0.0
44.25 8.25 0.0
44.25 8.75 0.0
44.25 9.25 0.0
44.25 9.75 0.0
44.25 10.25 0.0
44.25 10.75 0.0
44.25 11.25 0.0
44.25 11.75 0.0
44.25 12.25 0.0
44.25 12.75 0.0
44.25 13.25 0.0
44.25 13.75 0.0
44.25 14.25 0.0
44.25 14.75 0.0
44.25 25.25 0.0
44.25 25.75 0.0
44.25 26.25 0.0
44.25 26.75 0.0
44.25 27.25 0.0
44.25 27.75 0.0
44.25 28.25 0.0
44.25 28.75 0.0
44.25 29.25 0.0
44.25 29.75 0.0
44.25 30.25 0.0
44.25 30.75 0.0
44.25 31.25 0.0
44.25 31.75 0.0
44.25 32.25 0.0
44.25 32.75 0.0
44.25 33.25 0.0
44.25 33.75 0.0
44.25 34.25 0.0
44.25 34.75 0.0
44.25 35.25 0.0
44.25 35.75 0.0
44.25 36.25 0.0
44.25 36.75 0.0
44.25 37.25 0.0
44.25 37.75 0.0
44.25 38.25 0.0
44.25 38.75 0.0
44.25 39.25 0.0
44.25 39.75 0.0
44.25 40.25 0.0
44.25 40.75 0.0
44.25 41.25 0.0
44.25 41.75 0.0
44.25 42.25 0.0
44.25 42.75 0.0
44.25 43.25 0.0
44.25 43.75 0.0
44.75 4.25 0.0
44.75 4.75 0.0
44.75 5.25 0.0
44.75 5.75 0.0
44.75 6.25 0.0
44.75 6.75 0.0
44.75 7.25 0.0
44.75 7.75 0.0
44.75 8.25 0.0
44.75 8.75 0.0
44.75 9.25 0.0
44.75 9.75 0.0
44.75 10.25 0.0
44.75 10.75 0.0
44.75 11.25 0.0
44.75 11.75 0.0
44.75 12.25 0.0
44.75 12.75 0.0
44.75 13.25 0.0
44.75 13.75 0.0
44.75 14.25 0.0
44.75 26.25 0.0
44.75 26.75 0.0
44.75 27.25 0.0
44.75 27.75 0.0
44.75 28.25 0.0
44.75 28.75 0.0
44.75 29.25 0.0
44.75 29.75 0.0
44.75 30.25 0.0
44.75 30.75 0.0
44.75 31.25 0.0
44.75 31.75 0.0
44.75 32.25 0.0
44.75 32.75 0.0
44.75 33.25 0.0
44.75 33.75 0.0
44.75 34.25 0.0
44.75 34.75 0.0
44.75 35.25 0.0
44.75 35.75 0.0
44.75 36.25 0.0
44.75 36.75 0.0
44.75 37.25 0.0
44.75 37.75 0.0
44.75 38.25 0.0
44.75 38.75 0.0
44.75 39.25 0.0
44.75 39.75 0.0
44.75 40.25 0.0
44.75 40.75 0.0
44.75 41.25 0.0
44.75 41.75 0.0
44.75 42.25 0.0
45.25 4.25 0.0
45.25 4.75 0.0
45.25 5.25 0.0
45.25 5.75 0.0
45.25 6.25 0.0
45.25 6.75 0.0
45.25 7.25 0.0
45.25 7.75 0.0
45.25 8.25 0.0
45.25 8.75 0.0
45.25 9.25 0.0
45.25 9.75 0.0
45.25 10.25 0.0
45.25 10.75 0.0
45.25 11.25 0.0
45.25 11.75 0.0
45.25 12.25 0.0
45.25 12.75 0.0
45.25 13.25 0.0
45.25 13.75 0.0
45.25 14.25 0.0
45.25 27.25 0.0
45.25 27.75 0.0
45.25 28.25 0.0
45.25 28.75 0.0
45.25 29.25 0.0
45.25 29.75 0.0
45.25 30.25 0.0
45.25 30.75 0.0
45.25 31.25 0.0
45.25 31.75 0.0
45.25 32.25 0.0
45.25 32.75 0.0
45.25 33.25 0.0
45.25 33.75 0.0
45.25 34.25 0.0
45.25 34.75 0.0
45.25 35.25 0.0
45.25 35.75 0.0
45.25 36.25 0.0
45.25 36.75 0.0
45.25 37.25 0.0
45.25 37.75 0.0
45.25 38.25 0.0
45.25 38.75 0.0
45.25 39.25 0.0
45.25 39.75 0.0
45.25 40.25 0.0
45.25 40.75 0.0
45.25 41.25 0.0
45.25 41.75 0.0
45.25 42.25 0.0
45.75 3.75 0.0
45.75 4.25 0.0
45.75 4.75 0.0
45.75 5.25 0.0
45.75 5.75 0.0
45.75 6.25 0.0
45.75 6.75 0.0
45.75 7.25 0.0
45.75 7.75 0.0
45.75 8.25 0.0
45.75 8.75 0.0
45.75 9.25 0.0
45.75 9.75 0.0
45.75 10.25 0.0
45.75 10.75 0.0
45.75 11.25 0.0
45.75 11.75 0.0
45.75 12.25 0.0
45.75 12.75 0.0
45.75 13.25 0.0
45.75 13.75 0.0
45.75 27.75 0.0
45.75 28.25 0.0
45.75 28.75 0.0
45.75 29.25 0.0
45.75 29.75 0.0
45.75 30.25 0.0
45.75 30.75 0.0
45.75 31.25 0.0
45.75 31.75 0.0
45.75 32.25 0.0
45.75 32.75 0.0
45.75 33.25 0.0
45.75 33.75 0.0
45.75 34.25 0.0
45.75 34.75 0.0
45.75 35.25 0.0
45.75 35.75 0.0
45.75 36.25 0.0
45.75 36.75 0.0
45.75 37.25 0.0
45.75 37.75 0.0
45.75 38.25 0.0
45.75 38.75 0.0
45.75 39.25 0.0
45.75 39.75 0.0
46.25 3.75 0.0
46.25 4.25 0.0
46.25 4.75 0.0
46.25 5.25 0.0
46.25 5.75 0.0
46.25 6.25 0.0
46.25 6.75 0.0
46.25 7.25 0.0
46.25 7.75 0.0
46.25 8.25 0.0
46.25 8.75 0.0
46.25 9.25 0.0
46.25 9.75 0.0
46.25 10.25 0.0
46.25 10.75 0.0
46.25 11.25 0.0
46.25 11.75 0.0
46.25 12.25 0.0
46.25 12.75 0.0
46.25 13.25 0.0
46.25 28.25 0.0
46.25 28.75 0.0
46.25 29.25 0.0
46.25 29.75 0.0
46.25 30.25 0.0
46.25 30.75 0.0
46.25 31.25 0.0
46.25 31.75 0.0
46.25 32.25 0.0
46.25 32.75 0.0
46.25 33.25 0.0
46.25 33.75 0.0
46.25 34.25 0.0
46.25 34.75 0.0
46.25 35.25 0.0
46.25 35.75 0.0
46.25 36.25 0.0
46.75 3.75 0.0
46.75 4.25 0.0
46.75 4.75 0.0
46.75 5.25 0.0
46.75 5.75 0.0
46.75 6.25 0.0
46.75 6.75 0.0
46.75 7.25 0.0
46.75 7.75 0.0
46.75 8.25 0.0
46.75 8.75 0.0
46.75 9.25 0.0
46.75 9.75 0.0
46.75 10.25 0.0
46.75 10.75 0.0
46.75 11.25 0.0
46.75 11.75 0.0
46.75 12.25 0.0
46.75 12.75 0.0
46.75 28.25 0.0
46.75 28.75 0.0
46.75 29.25 0.0
46.75 29.75 0.0
46.75 30.25 0.0
46.75 30.75 0.0
46.75 31.25 0.0
46.75 31.75 0.0
46.75 32.25 0.0
47.25 3.25 0.0
47.25 3.75 0.0
47.25 4.25 0.0
47.25 4.75 0.0
47.25 5.25 0.0
47.25 5.75 0.0
47.25 6.25 0.0
47.25 6.75 0.0
47.25 7.25 0.0
47.25 7.75 0.0
47.25 8.25 0.0
47.25 8.75 0.0
47.25 9.25 0.0
47.25 9.75 0.0
47.25 10.25 0.0
47.25 10.75 0.0
47.25 11.25 0.0
47.25 11.75 0.0
47.25 12.25 0.0
47.25 28.25 0.0
47.25 28.75 0.0
47.25 29.25 0.0
47.25 29.75 0.0
47.25 30.25 0.0
47.25 30.75 0.0
47.25 31.25 0.0
47.25 31.75 0.0
47.25 32.25 0.0
47.75 3.25 0.0
47.75 3.75 0.0
47.75 4.25 0.0
47.75 4.75 0.0
47.75 5.25 0.0
47.75 5.75 0.0
47.75 6.25 0.0
47.75 6.75 0.0
47.75 7.25 0.0
47.75 7.75 0.0
47.75 8.25 0.0
47.75 8.75 0.0
47.75 9.25 0.0
47.75 9.75 0.0
47.75 10.25 0.0
47.75 10.75 0.0
47.75 11.25 0.0
47.75 11.75 0.0
47.75 28.25 0.0
47.75 28.75 0.0
47.75 29.25 0.0
47.75 29.75 0.0
47.75 30.25 0.0
47.75 30.75 0.0
47.75 31.25 0.0
47.75 31.75 0.0
47.75 32.25 0.0
48.25 2.75 0.0
48.25 3.25 0.0
48.25 3.75 0.0
48.25 4.25 0.0
48.25 4.75 0.0
48.25 5.25 0.0
48.25 5.75 0.0
48.25 6.25 0.0
48.25 6.75 0.0
48.25 7.25 0.0
48.25 7.75 0.0
48.25 8.25 0.0
48.25 8.75 0.0
48.25 9.25 0.0
48.25 9.75 0.0
48.25 10.25 0.0
48.25 10.75 0.0
48.25 11.25 0.0
48.25 28.75 0.0
48.25 29.25 0.0
48.25 29.75 0.0
48.25 30.25 0.0
48.25 30.75 0.0
48.25 31.25 0.0
48.25 31.75 0.0
48.25 32.25 0.0
48.25 32.75 0.0
48.75 2.25 0.0
48.75 2.75 0.0
48.75 3.25 0.0
48.75 3.75 0.0
48.75 4.25 0.0
48.75 4.75 0.0
48.75 5.25 0.0
48.75 5.75 0.0
48.75 6.25 0.0
48.75 6.75 0.0
48.75 7.25 0.0
48.75 7.75 0.0
48.75 8.25 0.0
48.75 8.75 0.0
48.75 9.25 0.0
48.75 9.75 0.0
48.75 10.25 0.0
48.75 10.75 0.0
48.75 11.25 0.0
48.75 28.75 0.0
48.75 29.25 0.0
48.75 29.75 0.0
48.75 30.25 0.0
48.75 30.75 0.0
48.75 31.25 0.0
48.75 31.75 0.0
48.75 32.25 0.0
48.75 32.75 0.0
49.25 2.75 0.0
49.25 3.25 0.0
49.25 3.75 0.0
49.25 4.25 0.0
49.25 4.75 0.0
49.25 5.25 0.0
49.25 5.75 0.0
49.25 6.25 0.0
49.25 6.75 0.0
49.25 7.25 0.0
49.25 7.75 0.0
49.25 8.25 0.0
49.25 8.75 0.0
49.25 9.25 0.0
49.25 9.75 0.0
49.25 10.25 0.0
49.25 10.75 0.0
49.25 11.25 0.0
49.25 28.75 0.0
49.25 29.25 0.0
49.25 29.75 0.0
49.25 30.25 0.0
49.25 30.75 0.0
49.25 31.25 0.0
49.25 31.75 0.0
49.25 32.25 0.0
49.25 32.75 0.0
49.75 2.25 0.0
49.75 2.75 0.0
49.75 3.25 0.0
49.75 3.75 0.0
49.75 4.25 0.0
49.75 4.75 0.0
49.75 5.25 0.0
49.75 5.75 0.0
49.75 6.25 0.0
49.75 6.75 0.0
49.75 7.25 0.0
49.75 7.75 0.0
49.75 8.25 0.0
49.75 8.75 0.0
49.75 9.25 0.0
49.75 9.75 0.0
49.75 10.25 0.0
49.75 10.75 0.0
49.75 11.25 0.0
49.75 28.75 0.0
49.75 29.25 0.0
49.75 29.75 0.0
49.75 30.25 0.0
49.75 30.75 0.0
49.75 31.25 0.0
49.75 31.75 0.0
49.75 32.25 0.0
49.75 32.75 0.0
50.25 2.25 0.0
50.25 2.75 0.0
50.25 3.25 0.0
50.25 3.75 0.0
50.25 4.25 0.0
50.25 4.75 0.0
50.25 5.25 0.0
50.25 5.75 0.0
50.25 6.25 0.0
50.25 6.75 0.0
50.25 7.25 0.0
50.25 7.75 0.0
50.25 8.25 0.0
50.25 8.75 0.0
50.25 9.25 0.0
50.25 9.75 0.0
50.25 10.25 0.0
50.25 10.75 0.0
50.25 29.25 0.0
50.25 29.75 0.0
50.25 30.25 0.0
50.25 30.75 0.0
50.25 31.25 0.0
50.25 31.75 0.0
50.25 32.25 0.0
50.25 32.75 0.0
50.75 2.25 0.0
50.75 2.75 0.0
50.75 3.25 0.0
50.75 3.75 0.0
50.75 4.25 0.0
50.75 4.75 0.0
50.75 5.25 0.0
50.75 5.75 0.0
50.75 6.25 0.0
50.75 6.75 0.0
50.75 7.25 0.0
50.75 7.75 0.0
50.75 8.25 0.0
50.75 8.75 0.0
50.75 9.25 0.0
50.75 9.75 0.0
50.75 10.25 0.0
50.75 29.25 0.0
50.75 29.75 0.0
50.75 30.25 0.0
50.75 30.75 0.0
50.75 31.25 0.0
50.75 31.75 0.0
50.75 32.25 0.0
50.75 32.75 0.0
51.25 2.25 0.0
51.25 2.75 0.0
51.25 3.25 0.0
51.25 3.75 0.0
51.25 4.25 0.0
51.25 4.75 0.0
51.25 5.25 0.0
51.25 5.75 0.0
51.25 6.25 0.0
51.25 6.75 0.0
51.25 7.25 0.0
51.25 7.75 0.0
51.25 8.25 0.0
51.25 8.75 0.0
51.25 9.25 0.0
51.25 9.75 0.0
51.25 29.25 0.0
51.25 29.75 0.0
51.25 30.25 0.0
51.25 30.75 0.0
51.25 31.25 0.0
51.25 31.75 0.0
51.25 32.25 0.0
51.25 32.75 0.0
51.75 2.25 0.0
51.75 2.75 0.0
51.75 3.25 0.0
51.75 3.75 0.0
51.75 4.25 0.0
51.75 4.75 0.0
51.75 5.25 0.0
51.75 5.75 0.0
51.75 6.25 0.0
51.75 6.75 0.0
51.75 7.25 0.0
51.75 7.75 0.0
51.75 8.25 0.0
51.75 8.75 0.0
51.75 9.25 0.0
51.75 29.25 0.0
51.75 29.75 0.0
51.75 30.25 0.0
51.75 30.75 0.0
51.75 31.25 0.0
51.75 31.75 0.0
51.75 32.25 0.0
51.75 32.75 0.0
52.25 2.25 0.0
52.25 2.75 0.0
52.25 3.25 0.0
52.25 3.75 0.0
52.25 4.25 0.0
52.25 4.75 0.0
52.25 5.25 0.0
52.25 5.75 0.0
52.25 6.25 0.0
52.25 6.75 0.0
52.25 7.25 0.0
52.25 7.75 0.0
52.25 8.25 0.0
52.25 8.75 0.0
52.25 29.25 0.0
52.25 29.75 0.0
52.25 30.25 0.0
