ply
format ascii 1.0
element vertex 512
property float x
property float y
property float z
end_header
-0.037098050117492676 0.9913683533668518 -1.0093657970428467
-0.03666924312710762 0.9912211894989014 -0.8740884065628052
-0.036240432411432266 0.9910739660263062 -0.7388110756874084
-0.03581162542104721 0.9909267425537109 -0.6035336852073669
-0.03538281470537186 0.9907795786857605 -0.4682563543319702
-0.0349540077149868 0.9906323552131653 -0.3329789936542511
-0.034525200724601746 0.9904851317405701 -0.19770163297653198
-0.03409639000892639 0.9903379678726196 -0.06242428347468376
-0.033667583018541336 0.9901907444000244 0.07285307347774506
-0.03323877230286598 0.9900435209274292 0.20813041925430298
-0.032809965312480927 0.9898963570594788 0.3434077799320221
-0.03238115832209587 0.9897491335868835 0.4786851406097412
-0.03195234760642052 0.9896019101142883 0.6139624714851379
-0.03152354061603546 0.9894547462463379 0.7492398619651794
-0.031094731763005257 0.9893075227737427 0.8845171928405762
-0.030665922909975052 0.9891603589057922 1.0197945833206177
-0.23438672721385956 0.9713053107261658 -1.008762240409851
-0.2339579313993454 0.9711580872535706 -0.8734848499298096
-0.23352912068367004 0.9710109233856201 -0.7382075190544128
-0.2331003099679947 0.9708636999130249 -0.6029301285743713
-0.23267149925231934 0.9707164764404297 -0.4676527976989746
-0.23224268853664398 0.9705693125724792 -0.3323754370212555
-0.23181387782096863 0.970422089099884 -0.19709809124469757
-0.23138508200645447 0.9702748656272888 -0.06182073801755905
-0.2309562712907791 0.9701277017593384 0.07345661520957947
-0.23052746057510376 0.9699804782867432 0.20873397588729858
-0.2300986498594284 0.969833254814148 0.3440113365650177
-0.22966983914375305 0.9696860909461975 0.47928866744041443
-0.2292410284280777 0.9695388674736023 0.6145660281181335
-0.22881221771240234 0.9693916440010071 0.7498433589935303
-0.22838342189788818 0.9692444801330566 0.8851207494735718
-0.22795461118221283 0.9690972566604614 1.0203981399536133
-0.42359840869903564 0.9119388461112976 -1.008226990699768
-0.4231695830821991 0.9117916226387024 -0.8729497194290161
-0.42274078726768494 0.911644458770752 -0.7376723289489746
-0.4223119616508484 0.9114972352981567 -0.6023949980735779
-0.42188316583633423 0.9113500118255615 -0.46711763739585876
-0.4214543402194977 0.9112028479576111 -0.33184027671813965
-0.4210255444049835 0.9110556244850159 -0.19656291604042053
-0.42059674859046936 0.9109084010124207 -0.06128556653857231
-0.4201679229736328 0.9107612371444702 0.0739917904138565
-0.41973912715911865 0.910614013671875 0.20926913619041443
-0.4193103015422821 0.9104667901992798 0.34454649686813354
-0.41888150572776794 0.9103196263313293 0.47982385754585266
-0.4184526801109314 0.9101724028587341 0.6151012182235718
-0.41802388429641724 0.9100252389907837 0.7503785490989685
-0.4175950884819031 0.9098780155181885 0.88565593957901
-0.41716626286506653 0.9097307920455933 1.0209332704544067
-0.596986711025238 0.8156994581222534 -1.0077821016311646
-0.5965578556060791 0.8155522346496582 -0.8725047707557678
-0.5961290597915649 0.8154050707817078 -0.7372274398803711
-0.5957002639770508 0.8152578473091125 -0.6019501090049744
-0.5952714681625366 0.8151106834411621 -0.46667274832725525
-0.5948426723480225 0.8149634599685669 -0.33139538764953613
-0.5944138169288635 0.8148162364959717 -0.19611802697181702
-0.5939850211143494 0.8146690726280212 -0.060840677469968796
-0.5935562252998352 0.814521849155426 0.07443667948246002
-0.593127429485321 0.8143746256828308 0.20971402525901794
-0.5926985740661621 0.8142274618148804 0.34499138593673706
-0.592269778251648 0.8140802383422852 0.4802687466144562
-0.5918409824371338 0.8139330148696899 0.6155461072921753
-0.5914121866226196 0.8137858510017395 0.750823438167572
-0.5909833908081055 0.8136386275291443 0.8861008286476135
-0.5905545353889465 0.8134914040565491 1.0213781595230103
-0.7474530935287476 0.6865271925926208 -1.0074458122253418
-0.7470242381095886 0.6863800287246704 -0.8721684217453003
-0.7465954422950745 0.6862328052520752 -0.7368910312652588
-0.7461666464805603 0.68608558177948 -0.6016137003898621
-0.7457378506660461 0.6859384179115295 -0.46633633971214294
-0.745309054851532 0.6857911944389343 -0.33105897903442383
-0.744880199432373 0.6856440305709839 -0.1957816332578659
-0.7444514036178589 0.6854968070983887 -0.060504280030727386
-0.7440226078033447 0.6853495836257935 0.07477307319641113
-0.7435938119888306 0.685202419757843 0.21005043387413025
-0.7431650161743164 0.6850551962852478 0.34532779455184937
-0.7427361607551575 0.6849079728126526 0.4806051254272461
-0.7423073649406433 0.6847608089447021 0.6158825159072876
-0.7418785691261292 0.6846135854721069 0.7511598467826843
-0.741449773311615 0.6844663619995117 0.886437177658081
-0.741020917892456 0.6843191981315613 1.0217145681381226
-0.8688374161720276 0.5297104120254517 -1.007231593132019
-0.8684086203575134 0.5295632481575012 -0.8719542622566223
-0.8679798245429993 0.529416024684906 -0.7366769313812256
-0.8675510287284851 0.5292688012123108 -0.6013995409011841
-0.867122232913971 0.5291216373443604 -0.46612221002578735
-0.866693377494812 0.5289744138717651 -0.33084484934806824
-0.8662645816802979 0.5288271903991699 -0.19556750357151031
-0.8658357858657837 0.5286800265312195 -0.060290150344371796
-0.8654069900512695 0.5285328030586243 0.07498720288276672
-0.8649781942367554 0.528385579586029 0.21026456356048584
-0.8645493388175964 0.5282384157180786 0.34554192423820496
-0.8641205430030823 0.5280911922454834 0.4808192551136017
-0.8636917471885681 0.527944028377533 0.6160966157913208
-0.863262951374054 0.5277968049049377 0.7513739466667175
-0.862834095954895 0.5276495814323425 0.886651337146759
-0.8624053001403809 0.5275024175643921 1.0219286680221558
-0.9561703205108643 0.35166919231414795 -1.0071485042572021
-0.9557414650917053 0.3515219986438751 -0.8718711733818054
-0.9553126692771912 0.3513748049736023 -0.7365938425064087
-0.954883873462677 0.3512275815010071 -0.6013164520263672
-0.9544550776481628 0.35108038783073425 -0.46603912115097046
-0.9540262818336487 0.3509331941604614 -0.33076176047325134
-0.9535974264144897 0.3507859706878662 -0.19548441469669342
-0.9531686305999756 0.3506387770175934 -0.060207054018974304
-0.9527398347854614 0.35049158334732056 0.07507029920816422
-0.9523110389709473 0.35034435987472534 0.21034765243530273
-0.9518822431564331 0.3501971662044525 0.34562501311302185
-0.9514533877372742 0.3500499725341797 0.48090237379074097
-0.95102459192276 0.34990277886390686 0.6161797046661377
-0.9505957961082458 0.34975555539131165 0.7514570951461792
-0.9501670002937317 0.3496083617210388 0.8867344260215759
-0.9497381448745728 0.349461168050766 1.0220117568969727
-1.0058761835098267 0.15969255566596985 -1.0071998834609985
-1.0054473876953125 0.15954534709453583 -0.871922492980957
-1.0050185918807983 0.1593981385231018 -0.7366451621055603
-1.0045897960662842 0.15925094485282898 -0.6013678312301636
-1.00416100025177 0.15910373628139496 -0.46609047055244446
-1.0037322044372559 0.15895654261112213 -0.33081310987472534
-1.0033034086227417 0.1588093340396881 -0.19553574919700623
-1.0028746128082275 0.1586621254682541 -0.060258395969867706
-1.0024458169937134 0.15851493179798126 0.07501895725727081
-1.0020169019699097 0.15836772322654724 0.21029631793498993
-1.0015881061553955 0.15822052955627441 0.34557366371154785
-1.0011593103408813 0.1580733209848404 0.48085102438926697
-1.0007305145263672 0.15792611241340637 0.6161283850669861
-1.000301718711853 0.15777891874313354 0.7514057159423828
-0.9998729228973389 0.15763171017169952 0.8866831064224243
-0.9994441270828247 0.1574845165014267 1.0219603776931763
-1.0159202814102173 -0.03835996612906456 -1.0073835849761963
-1.0154914855957031 -0.03850717097520828 -0.8721061944961548
-1.015062689781189 -0.03865437209606171 -0.7368288636207581
-1.0146338939666748 -0.03880157321691513 -0.6015514731407166
-1.0142050981521606 -0.03894877806305885 -0.4662741422653198
-1.013776183128357 -0.03909597918391228 -0.3309967815876007
-1.0133473873138428 -0.039243184030056 -0.1957194209098816
-1.0129185914993286 -0.039390385150909424 -0.06044206768274307
-1.0124897956848145 -0.03953758627176285 0.07483528554439545
-1.0120609998703003 -0.03968479111790657 0.21011263132095337
-1.0116322040557861 -0.039831992238759995 0.3453899919986725
-1.011203408241272 -0.03997919708490372 0.4806673526763916
-1.0107746124267578 -0.04012639820575714 0.6159446835517883
-1.0103458166122437 -0.040273599326610565 0.7512220740318298
-1.00991690158844 -0.04042080417275429 0.8864994049072266
-1.0094881057739258 -0.04056800529360771 1.021776795387268
-0.9858912229537964 -0.23438005149364471 -1.0076919794082642
-0.9854624271392822 -0.23452726006507874 -0.8724147081375122
-0.9850336313247681 -0.23467446863651276 -0.7371373176574707
-0.9846047759056091 -0.23482166230678558 -0.601859986782074
-0.984175980091095 -0.2349688708782196 -0.46658262610435486
-0.9837471842765808 -0.23511606454849243 -0.33130526542663574
-0.9833183884620667 -0.23526327311992645 -0.19602790474891663
-0.9828895330429077 -0.23541048169136047 -0.060750555247068405
-0.9824607372283936 -0.2355576753616333 0.07452679425477982
-0.9820319414138794 -0.23570488393306732 0.20980414748191833
-0.9816031455993652 -0.23585207760334015 0.34508150815963745
-0.9811743497848511 -0.23599928617477417 0.48035886883735657
-0.9807454943656921 -0.2361464947462082 0.6156362295150757
-0.980316698551178 -0.23629368841648102 0.7509135603904724
-0.9798879027366638 -0.23644089698791504 0.8861908912658691
-0.9794591069221497 -0.23658809065818787 1.0214682817459106
-0.917018473148346 -0.42034265398979187 -1.0081126689910889
-0.9165896773338318 -0.4204898476600647 -0.8728353381156921
-0.9161608219146729 -0.4206370413303375 -0.7375580072402954
-0.9157320261001587 -0.42078423500061035 -0.6022806167602539
-0.9153032302856445 -0.42093145847320557 -0.4670032858848572
-0.9148744344711304 -0.4210786521434784 -0.33172592520713806
-0.9144455790519714 -0.4212258458137512 -0.19644857943058014
-0.9140167832374573 -0.42137306928634644 -0.06117122992873192
-0.9135879874229431 -0.42152026295661926 0.0741061270236969
-0.913159191608429 -0.4216674566268921 0.20938347280025482
-0.9127303957939148 -0.4218146800994873 0.34466081857681274
-0.9123015403747559 -0.42196187376976013 0.47993817925453186
-0.9118727445602417 -0.42210906744003296 0.615215539932251
-0.9114439487457275 -0.4222562611103058 0.7504928708076477
-0.9110151529312134 -0.422403484582901 0.8857702612876892
-0.9105863571166992 -0.42255067825317383 1.021047592163086
-0.8121216297149658 -0.5886343717575073 -1.0086283683776855
-0.8116928339004517 -0.5887815952301025 -0.873350977897644
-0.8112640380859375 -0.588928759098053 -0.7380736470222473
-0.8108352422714233 -0.5890759825706482 -0.6027962565422058
-0.8104064464569092 -0.5892232060432434 -0.4675189256668091
-0.8099775910377502 -0.5893703699111938 -0.33224156498908997
-0.8095487952232361 -0.5895175933837891 -0.19696421921253204
-0.8091199994087219 -0.5896648168563843 -0.061686862260103226
-0.8086912035942078 -0.5898119807243347 0.073590487241745
-0.8082623481750488 -0.5899592041969299 0.2088678479194641
-0.8078335523605347 -0.5901064276695251 0.3441452085971832
-0.8074047565460205 -0.5902535915374756 0.47942253947257996
-0.8069759607315063 -0.5904008150100708 0.6146999001502991
-0.8065471649169922 -0.590548038482666 0.7499772310256958
-0.8061183094978333 -0.5906952023506165 0.8852546215057373
-0.8056895136833191 -0.5908424258232117 1.0205320119857788
-0.6754952669143677 -0.7323653697967529 -1.0092178583145142
-0.6750664710998535 -0.7325125932693481 -0.8739404678344727
-0.6746376752853394 -0.7326598167419434 -0.7386631369590759
-0.6742088794708252 -0.7328069806098938 -0.6033857464790344
-0.673780083656311 -0.732954204082489 -0.4681084156036377
-0.6733512282371521 -0.7331014275550842 -0.3328310549259186
-0.6729224324226379 -0.7332485914230347 -0.19755370914936066
-0.6724936366081238 -0.7333958148956299 -0.06227634847164154
-0.6720648407936096 -0.7335430383682251 0.07300100475549698
-0.6716359853744507 -0.7336902022361755 0.2082783579826355
-0.6712071895599365 -0.7338374257087708 0.3435557186603546
-0.6707783937454224 -0.733984649181366 0.47883307933807373
-0.6703495979309082 -0.7341318130493164 0.6141104102134705
-0.669920802116394 -0.7342790365219116 0.749387800693512
-0.6694919466972351 -0.7344262599945068 0.8846651315689087
-0.669063150882721 -0.7345734238624573 1.0199425220489502
-0.5127328634262085 -0.8456513285636902 -1.0098570585250854
-0.5123040676116943 -0.8457985520362854 -0.874579668045044
-0.5118752717971802 -0.8459457159042358 -0.7393023371696472
-0.5114464163780212 -0.846092939376831 -0.6040249466896057
-0.5110176205635071 -0.8462401628494263 -0.468747615814209
-0.5105888247489929 -0.8463873267173767 -0.33347025513648987
-0.5101600289344788 -0.8465345501899719 -0.19819290935993195
-0.5097312331199646 -0.8466817736625671 -0.06291555613279343
-0.5093023777008057 -0.8468289375305176 0.07236179709434509
-0.5088735818862915 -0.8469761610031128 0.2076391577720642
-0.5084447860717773 -0.8471233248710632 0.3429165184497833
-0.5080159902572632 -0.8472705483436584 0.47819384932518005
-0.507587194442749 -0.8474177718162537 0.6134712100028992
-0.5071583390235901 -0.8475649356842041 0.7487485408782959
-0.5067295432090759 -0.8477121591567993 0.8840259313583374
-0.5063007473945618 -0.8478593826293945 1.019303321838379
-0.3304978907108307 -0.9238542318344116 -1.0105197429656982
-0.33006909489631653 -0.9240014553070068 -0.8752424120903015
-0.32964029908180237 -0.9241486191749573 -0.7399650812149048
-0.3292114734649658 -0.9242958426475525 -0.6046877503395081
-0.32878267765045166 -0.9244430661201477 -0.46941035985946655
-0.3283538520336151 -0.9245902299880981 -0.3341330289840698
-0.32792505621910095 -0.9247374534606934 -0.1988556683063507
-0.3274962604045868 -0.9248846173286438 -0.06357830762863159
-0.32706743478775024 -0.925031840801239 0.07169904559850693
-0.3266386389732361 -0.9251790642738342 0.20697639882564545
-0.32620981335639954 -0.9253262281417847 0.34225374460220337
-0.3257810175418854 -0.9254734516143799 0.4775311052799225
-0.32535219192504883 -0.9256206750869751 0.6128084659576416
-0.32492339611053467 -0.9257678389549255 0.7480857968330383
-0.3244946002960205 -0.9259150624275208 0.8833631873130798
-0.32406577467918396 -0.926062285900116 1.0186405181884766
-0.13625112175941467 -0.9637724757194519 -1.011178970336914
-0.13582231104373932 -0.9639196395874023 -0.8759015798568726
-0.13539350032806396 -0.9640668630599976 -0.7406242489814758
-0.1349646896123886 -0.9642140865325928 -0.6053469181060791
-0.13453587889671326 -0.9643612504005432 -0.4700695276260376
-0.1341070681810379 -0.9645084738731384 -0.33479219675064087
-0.13367825746536255 -0.9646556973457336 -0.19951483607292175
-0.1332494616508484 -0.9648028612136841 -0.06423747539520264
-0.13282065093517303 -0.9649500846862793 0.07103987783193588
-0.13239184021949768 -0.9650973081588745 0.2063172310590744
-0.13196302950382233 -0.965244472026825 0.3415945768356323
-0.13153421878814697 -0.9653916954994202 0.47687193751335144
-0.13110540807247162 -0.9655389189720154 0.6121492981910706
-0.13067659735679626 -0.9656860828399658 0.7474266290664673
-0.1302478015422821 -0.965833306312561 0.8827040195465088
-0.12981899082660675 -0.9659805297851562 1.0179814100265503
0.062055014073848724 -0.9637717604637146 -1.0118075609207153
0.06248382106423378 -0.9639189839363098 -0.8765302300453186
0.06291262805461884 -0.964066207408905 -0.7412528395652771
0.06334143877029419 -0.9642133712768555 -0.6059755086898804
0.06377024948596954 -0.9643605947494507 -0.47069814801216125
0.0641990602016449 -0.9645078182220459 -0.33542078733444214
0.06462786346673965 -0.9646549820899963 -0.20014342665672302
0.06505667418241501 -0.9648022055625916 -0.0648660734295845
0.06548548489809036 -0.9649494290351868 0.07041127979755402
0.06591428816318512 -0.9650965929031372 0.20568862557411194
0.06634309887886047 -0.9652438163757324 0.34096598625183105
0.06677190959453583 -0.9653910398483276 0.47624334692955017
0.06720071285963058 -0.9655382037162781 0.6115207076072693
0.06762952357530594 -0.9656854271888733 0.746798038482666
0.06805833429098129 -0.9658325910568237 0.8820754289627075
0.06848714500665665 -0.965979814529419 1.0173527002334595
0.25630179047584534 -0.9238522052764893 -1.0123798847198486
0.2567306160926819 -0.9239994287490845 -0.8771024942398071
0.25715941190719604 -0.9241465926170349 -0.7418251633644104
0.2575882375240326 -0.9242938160896301 -0.6065477728843689
0.25801703333854675 -0.9244410395622253 -0.47127044200897217
0.2584458589553833 -0.9245882034301758 -0.33599308133125305
0.25887465476989746 -0.924735426902771 -0.20071572065353394
0.2593034505844116 -0.9248826503753662 -0.06543836742639542
0.25973227620124817 -0.9250298142433167 0.0698389858007431
0.26016107201576233 -0.9251770377159119 0.20511633157730103
0.2605898976325989 -0.9253242015838623 0.34039369225502014
0.26101869344711304 -0.9254714250564575 0.47567105293273926
0.2614475190639496 -0.9256186485290527 0.610948383808136
0.26187631487846375 -0.9257658123970032 0.7462257742881775
0.2623051106929779 -0.9259130358695984 0.8815031051635742
0.26273393630981445 -0.9260602593421936 1.0167804956436157
0.43853676319122314 -0.8456480503082275 -1.0128724575042725
0.4389655888080597 -0.8457952737808228 -0.877595067024231
0.43939438462257385 -0.8459424376487732 -0.7423176765441895
0.4398232102394104 -0.8460896611213684 -0.6070403456687927
0.44025200605392456 -0.8462368845939636 -0.4717629849910736
0.4406808018684387 -0.8463840484619141 -0.3364856243133545
0.44110962748527527 -0.8465312719345093 -0.20120827853679657
0.44153842329978943 -0.8466784358024597 -0.06593093276023865
0.441967248916626 -0.8468256592750549 0.06934642791748047
0.44239604473114014 -0.8469728827476501 0.2046237736940384
0.4428248405456543 -0.8471200466156006 0.3399011194705963
0.44325366616249084 -0.8472672700881958 0.47517848014831543
0.443682461977005 -0.847414493560791 0.6104558110237122
0.44411128759384155 -0.8475616574287415 0.7457332015037537
0.4445400834083557 -0.8477088809013367 0.8810105323791504
0.44496890902519226 -0.8478561043739319 1.016287922859192
0.6012991666793823 -0.7323610186576843 -1.0132650136947632
0.6017280220985413 -0.7325081825256348 -0.8779876828193665
0.6021568179130554 -0.73265540599823 -0.7427103519439697
0.6025856137275696 -0.7328026294708252 -0.607433021068573
0.6030144095420837 -0.7329497933387756 -0.4721556603908539
0.6034432053565979 -0.7330970168113708 -0.33687829971313477
0.6038720607757568 -0.7332441806793213 -0.20160093903541565
0.604300856590271 -0.7333914041519165 -0.06632358580827713
0.6047296524047852 -0.7335386276245117 0.06895376741886139
0.6051584482192993 -0.7336857914924622 0.2042311131954193
0.6055873036384583 -0.7338330149650574 0.3395084738731384
0.6060160994529724 -0.7339802384376526 0.47478583455085754
0.6064448952674866 -0.734127402305603 0.6100631952285767
0.6068736910820007 -0.7342746257781982 0.7453405261039734
0.6073024868965149 -0.7344218492507935 0.8806179165840149
0.6077313423156738 -0.7345690131187439 1.0158952474594116
0.7379255294799805 -0.5886290073394775 -1.0135416984558105
0.7383543848991394 -0.5887762308120728 -0.8782643675804138
0.7387831807136536 -0.588923454284668 -0.7429870367050171
0.7392119765281677 -0.5890706181526184 -0.6077097058296204
0.7396407723426819 -0.5892178416252136 -0.47243234515190125
0.740069568157196 -0.5893650650978088 -0.33715498447418213
0.740498423576355 -0.5895122289657593 -0.201877623796463
0.7409272193908691 -0.5896594524383545 -0.0666002705693245
0.7413560152053833 -0.5898066759109497 0.06867708265781403
0.7417848110198975 -0.5899538397789001 0.20395444333553314
0.7422136664390564 -0.5901010632514954 0.33923178911209106
0.7426424622535706 -0.5902482867240906 0.4745091497898102
0.7430712580680847 -0.590395450592041 0.6097865104675293
0.7435000538825989 -0.5905426740646362 0.745063841342926
0.743928849697113 -0.5906898975372314 0.8803412318229675
0.744357705116272 -0.5908370614051819 1.0156185626983643
0.8428223729133606 -0.4203365743160248 -1.0136910676956177
0.8432511687278748 -0.4204837679862976 -0.8784137964248657
0.8436799645423889 -0.42063096165657043 -0.7431364059448242
0.8441087603569031 -0.42077818512916565 -0.6078590750694275
0.844537615776062 -0.4209253787994385 -0.4725817143917084
0.8449664115905762 -0.4210725724697113 -0.33730435371398926
0.8453952074050903 -0.4212197959423065 -0.20202700793743134
0.8458240032196045 -0.42136698961257935 -0.06674964725971222
0.8462527990341187 -0.4215141832828522 0.0685277059674263
0.8466816544532776 -0.4216614067554474 0.20380505919456482
0.8471104502677917 -0.4218086004257202 0.33908241987228394
0.8475392460823059 -0.42195579409599304 0.47435978055000305
0.8479680418968201 -0.42210298776626587 0.6096371412277222
0.848396897315979 -0.4222502112388611 0.7449144721031189
0.8488256931304932 -0.4223974049091339 0.8801918029785156
0.8492544889450073 -0.42254459857940674 1.0154691934585571
0.911695122718811 -0.23437350988388062 -1.0137070417404175
0.9121239185333252 -0.23452071845531464 -0.8784297108650208
0.9125527143478394 -0.23466791212558746 -0.743152379989624
0.9129815697669983 -0.23481512069702148 -0.6078750491142273
0.9134103655815125 -0.2349623292684555 -0.4725976586341858
0.9138391613960266 -0.23510952293872833 -0.33732032775878906
0.9142679572105408 -0.23525673151016235 -0.20204296708106995
0.9146967530250549 -0.23540392518043518 -0.06676560640335083
0.9151256084442139 -0.2355511337518692 0.06851174682378769
0.915554404258728 -0.23569834232330322 0.2037891000509262
0.9159832000732422 -0.23584553599357605 0.33906644582748413
0.9164119958877563 -0.23599274456501007 0.47434380650520325
0.9168407917022705 -0.2361399382352829 0.6096211671829224
0.9172696471214294 -0.23628714680671692 0.7448984980583191
0.9176984429359436 -0.23643435537815094 0.8801758885383606
0.9181272387504578 -0.23658154904842377 1.0154532194137573
0.9417241811752319 -0.03835321590304375 -1.0135890245437622
0.9421529769897461 -0.03850041702389717 -0.8783116340637207
0.9425817728042603 -0.038647618144750595 -0.7430342435836792
0.9430106282234192 -0.03879482299089432 -0.6077569127082825
0.9434394240379333 -0.03894202411174774 -0.47247955203056335
0.9438682198524475 -0.039089228957891464 -0.33720219135284424
0.9442970156669617 -0.03923643007874489 -0.20192484557628632
0.9447258114814758 -0.03938363119959831 -0.0666474923491478
0.9451546669006348 -0.039530836045742035 0.06862986087799072
0.9455834627151489 -0.03967803716659546 0.20390720665454865
0.9460122585296631 -0.03982524201273918 0.33918455243110657
0.9464410543441772 -0.039972443133592606 0.4744619131088257
0.9468698501586914 -0.04011964425444603 0.6097393035888672
0.9472987055778503 -0.04026684910058975 0.7450166344642639
0.9477275013923645 -0.040414050221443176 0.8802939653396606
0.9481562972068787 -0.0405612550675869 1.0155713558197021
0.9316801428794861 0.1596992313861847 -1.0133416652679443
0.9321089386940002 0.15955203771591187 -0.8780642747879028
0.9325377345085144 0.15940482914447784 -0.7427869439125061
0.9329665303230286 0.15925762057304382 -0.6075095534324646
0.9333953857421875 0.159110426902771 -0.4722321927547455
0.9338241815567017 0.15896321833133698 -0.33695486187934875
0.9342529773712158 0.15881600975990295 -0.20167750120162964
0.93468177318573 0.15866881608963013 -0.06640014797449112
0.9351106286048889 0.1585216075181961 0.0688772052526474
0.9355394244194031 0.15837441384792328 0.20415456593036652
0.9359682202339172 0.15822720527648926 0.33943191170692444
0.9363970160484314 0.15807999670505524 0.47470927238464355
0.9368258118629456 0.1579328030347824 0.6099866032600403
0.9372546672821045 0.1577855944633484 0.7452639937400818
0.9376834630966187 0.15763840079307556 0.8805413246154785
0.9381122589111328 0.15749119222164154 1.01581871509552
0.8819742202758789 0.35167554020881653 -1.0129752159118652
0.8824030160903931 0.3515283465385437 -0.8776978254318237
0.8828318119049072 0.3513811230659485 -0.7424204349517822
0.8832606077194214 0.35123392939567566 -0.6071431040763855
0.8836894631385803 0.35108673572540283 -0.4718657433986664
0.8841182589530945 0.3509395122528076 -0.33658838272094727
0.8845470547676086 0.3507923185825348 -0.20131103694438934
0.8849758505821228 0.35064512491226196 -0.06603368371725082
0.885404646396637 0.35049793124198914 0.0692436695098877
0.8858335018157959 0.3503507077693939 0.2045210301876068
0.8862622976303101 0.3502035140991211 0.3397983908653259
0.8866910934448242 0.35005632042884827 0.47507572174072266
0.8871198892593384 0.34990909695625305 0.6103531122207642
0.8875486850738525 0.3497619032859802 0.7456304430961609
0.8879775404930115 0.3496147096157074 0.8809077739715576
0.8884063363075256 0.3494674861431122 1.0161851644515991
0.7946413159370422 0.5297161936759949 -1.0125045776367188
0.7950701713562012 0.5295689702033997 -0.877227246761322
0.7954989671707153 0.5294217467308044 -0.7419499158859253
0.7959277629852295 0.529274582862854 -0.6066725254058838
0.7963565587997437 0.5291273593902588 -0.4713951647281647
0.7967853546142578 0.5289801359176636 -0.33611783385276794
0.7972142100334167 0.5288329720497131 -0.20084047317504883
0.7976430058479309 0.5286857485771179 -0.06556311994791031
0.7980718016624451 0.5285385251045227 0.06971423327922821
0.7985005974769592 0.5283913612365723 0.20499159395694733
0.7989294528961182 0.528244137763977 0.34026893973350525
0.7993582487106323 0.5280969142913818 0.47554630041122437
0.7997870445251465 0.5279497504234314 0.6108236312866211
0.8002158403396606 0.5278025269508362 0.7461010217666626
0.8006446361541748 0.527655303478241 0.8813783526420593
0.8010734915733337 0.5275081396102905 1.016655683517456
0.6732569932937622 0.6865321397781372 -1.0119491815567017
0.6736857891082764 0.686384916305542 -0.8766718506813049
0.6741145849227905 0.6862376928329468 -0.7413944602012634
0.6745433807373047 0.6860905289649963 -0.6061171293258667
0.6749722361564636 0.6859433054924011 -0.4708397686481476
0.6754010319709778 0.6857960820198059 -0.33556240797042847
0.6758298277854919 0.6856489181518555 -0.20028506219387054
0.6762586236000061 0.6855016946792603 -0.06500770896673203
0.6766874194145203 0.685354471206665 0.0702696442604065
0.6771162748336792 0.6852073073387146 0.2055470049381256
0.6775450706481934 0.6850600838661194 0.3408243656158447
0.6779738664627075 0.684912919998169 0.47610169649124146
0.6784026622772217 0.6847656965255737 0.611379086971283
0.6788314580917358 0.6846184730529785 0.7466564178466797
0.6792603135108948 0.6844713091850281 0.8819337487220764
0.6796891093254089 0.6843240857124329 1.0172110795974731
0.5227906107902527 0.8157033324241638 -1.0113316774368286
0.5232194066047668 0.8155561089515686 -0.8760543465614319
0.523648202419281 0.8154089450836182 -0.7407769560813904
0.5240769982337952 0.815261721611023 -0.6054996252059937
0.5245057940483093 0.8151144981384277 -0.47022226452827454
0.5249346494674683 0.8149673342704773 -0.3349449038505554
0.5253634452819824 0.8148201107978821 -0.1996675431728363
0.5257922410964966 0.8146728873252869 -0.06439019739627838
0.5262210369110107 0.8145257234573364 0.07088716328144073
0.5266498923301697 0.8143784999847412 0.20616450905799866
0.5270786881446838 0.814231276512146 0.3414418697357178
0.527507483959198 0.8140841126441956 0.4767192304134369
0.5279362797737122 0.8139368891716003 0.611996591091156
0.5283650755882263 0.8137896656990051 0.7472739219665527
0.5287939310073853 0.8136425018310547 0.8825513124465942
0.5292227268218994 0.8134952783584595 1.0178285837173462
0.3494023084640503 0.9119415283203125 -1.0106773376464844
0.34983110427856445 0.9117943048477173 -0.8754000067710876
0.3502599000930786 0.9116470813751221 -0.7401226162910461
0.35068872570991516 0.9114999175071716 -0.6048452854156494
0.3511175215244293 0.9113526940345764 -0.4695679247379303
0.35154634714126587 0.9112054705619812 -0.3342905640602112
0.35197514295578003 0.9110583066940308 -0.19901321828365326
0.3524039685726166 0.9109110832214355 -0.06373585760593414
0.35283276438713074 0.9107638597488403 0.07154149562120438
0.3532615602016449 0.9106166958808899 0.2068188488483429
0.35369038581848145 0.9104694724082947 0.342096209526062
0.3541191816329956 0.9103223085403442 0.47737357020378113
0.35454800724983215 0.910175085067749 0.6126509308815002
0.3549768030643463 0.9100278615951538 0.747928261756897
0.35540562868118286 0.9098806977272034 0.8832055926322937
0.355834424495697 0.9097334742546082 1.0184829235076904
0.1601906269788742 0.9713066816329956 -1.0100129842758179
0.16061943769454956 0.9711594581604004 -0.8747355937957764
0.16104824841022491 0.9710122346878052 -0.7394582629203796
0.16147705912590027 0.9708650708198547 -0.6041809320449829
0.16190586984157562 0.9707178473472595 -0.4689035415649414
0.16233468055725098 0.9705706238746643 -0.3336261808872223
0.16276349127292633 0.9704234600067139 -0.19834883511066437
0.1631922870874405 0.9702762365341187 -0.06307148933410645
0.16362109780311584 0.9701290130615234 0.07220586389303207
0.1640499085187912 0.969981849193573 0.2074832171201706
0.16447871923446655 0.9698346257209778 0.3427605628967285
0.1649075299501419 0.9696874618530273 0.47803792357444763
0.16533634066581726 0.9695402383804321 0.6133152842521667
0.16576515138149261 0.9693930149078369 0.7485926151275635
0.16619394719600677 0.9692458510398865 0.883870005607605
0.16662275791168213 0.9690986275672913 1.0191473960876465
-0.037098050117492676 0.9913683533668518 -1.0093657970428467
-0.03666924312710762 0.9912211894989014 -0.8740884065628052
-0.036240432411432266 0.9910739660263062 -0.7388110756874084
-0.03581162542104721 0.9909267425537109 -0.6035336852073669
-0.03538281470537186 0.9907795786857605 -0.4682563543319702
-0.0349540077149868 0.9906323552131653 -0.3329789936542511
-0.034525200724601746 0.9904851317405701 -0.19770163297653198
-0.03409639000892639 0.9903379678726196 -0.06242428347468376
-0.033667583018541336 0.9901907444000244 0.07285307347774506
-0.03323877230286598 0.9900435209274292 0.20813041925430298
-0.032809965312480927 0.9898963570594788 0.3434077799320221
-0.03238115832209587 0.9897491335868835 0.4786851406097412
-0.03195234760642052 0.9896019101142883 0.6139624714851379
-0.03152354061603546 0.9894547462463379 0.7492398619651794
-0.031094731763005257 0.9893075227737427 0.8845171928405762
-0.030665922909975052 0.9891603589057922 1.0197945833206177
