ply
format ascii 1.0
element vertex 512
property float x
property float y
property float z
end_header
0.5580408573150635 -1.1115574836730957 1.2976000308990479
0.5624005198478699 -1.1117502450942993 1.013109803199768
0.5667601227760315 -1.111943006515503 0.7286196351051331
0.5711197853088379 -1.112135648727417 0.44412943720817566
0.5754793882369995 -1.1123284101486206 0.15963925421237946
0.5798390507698059 -1.1125211715698242 -0.12485092133283615
0.5841986536979675 -1.1127138137817383 -0.40934109687805176
0.5885583162307739 -1.112906575202942 -0.6938312649726868
0.5929179191589355 -1.1130993366241455 -0.9783214330673218
0.5972775816917419 -1.1132919788360596 -1.2628116607666016
0.6016371846199036 -1.1134847402572632 -1.5473017692565918
0.60599684715271 -1.1136773824691772 -1.8317919969558716
0.6103564500808716 -1.1138701438903809 -2.1162822246551514
0.614716112613678 -1.1140629053115845 -2.4007723331451416
0.6190757155418396 -1.1142555475234985 -2.685262441635132
0.623435378074646 -1.1144483089447021 -2.969752788543701
0.18431051075458527 -1.0735522508621216 1.2918469905853271
0.18867014348506927 -1.0737450122833252 1.007356882095337
0.19302977621555328 -1.0739377737045288 0.7228667140007019
0.1973894089460373 -1.0741304159164429 0.4383765161037445
0.2017490416765213 -1.0743231773376465 0.1538863331079483
0.2061086893081665 -1.07451593875885 -0.1306038498878479
0.2104683220386505 -1.0747085809707642 -0.4150940179824829
0.21482795476913452 -1.0749013423919678 -0.6995841860771179
0.21918758749961853 -1.0750941038131714 -0.9840744137763977
0.22354722023010254 -1.0752867460250854 -1.2685645818710327
0.22790685296058655 -1.075479507446289 -1.553054690361023
0.23226648569107056 -1.0756721496582031 -1.8375449180603027
0.23662611842155457 -1.0758649110794067 -2.122035026550293
0.24098576605319977 -1.0760576725006104 -2.4065253734588623
0.24534539878368378 -1.0762503147125244 -2.6910154819488525
0.24970503151416779 -1.076443076133728 -2.9755055904388428
-0.1741192787885666 -0.96108478307724 1.2862781286239624
-0.16975964605808258 -0.9612774848937988 1.0017880201339722
-0.16539999842643738 -0.9614701867103577 0.7172977924346924
-0.16104036569595337 -0.9616629481315613 0.432807594537735
-0.15668073296546936 -0.9618556499481201 0.14831742644309998
-0.15232110023498535 -0.962048351764679 -0.13617275655269623
-0.14796146750450134 -0.9622410535812378 -0.42066293954849243
-0.14360183477401733 -0.9624338150024414 -0.7051531076431274
-0.13924220204353333 -0.9626265168190002 -0.9896432757377625
-0.13488256931304932 -0.9628192186355591 -1.2741334438323975
-0.1305229216814041 -0.9630119800567627 -1.5586236715316772
-0.1261632889509201 -0.9632046818733215 -1.8431137800216675
-0.1218036562204361 -0.9633973836898804 -2.1276040077209473
-0.11744402348995209 -0.9635900855064392 -2.4120941162109375
-0.11308439075946808 -0.9637828469276428 -2.696584463119507
-0.10872475802898407 -0.9639755487442017 -2.981074571609497
-0.5025743246078491 -0.7787593603134155 1.2811212539672852
-0.4982146918773651 -0.7789521217346191 0.9966310858726501
-0.4938550591468811 -0.779144823551178 0.7121409177780151
-0.4894954264163971 -0.7793375253677368 0.42765071988105774
-0.4851357936859131 -0.7795302867889404 0.14316055178642273
-0.4807761609554291 -0.7797229886054993 -0.14132963120937347
-0.47641652822494507 -0.7799156904220581 -0.4258198142051697
-0.47205689549446106 -0.7801083922386169 -0.7103099822998047
-0.46769726276397705 -0.7803011536598206 -0.9948001503944397
-0.46333763003349304 -0.7804938554763794 -1.2792903184890747
-0.45897799730300903 -0.7806865572929382 -1.5637805461883545
-0.454618364572525 -0.7808792591094971 -1.8482706546783447
-0.450258731842041 -0.7810720205307007 -2.132760763168335
-0.445899099111557 -0.7812647223472595 -2.4172511100769043
-0.4415394365787506 -0.7814574241638184 -2.7017412185668945
-0.4371798038482666 -0.781650185585022 -2.9862313270568848
-0.7876076698303223 -0.5340405702590942 1.2765874862670898
-0.7832480669021606 -0.5342332720756531 0.9920973777770996
-0.7788884043693542 -0.5344259738922119 0.7076071500778198
-0.7745288014411926 -0.5346187353134155 0.4231169819831848
-0.7701691389083862 -0.5348114371299744 0.1386268138885498
-0.7658095359802246 -0.5350041389465332 -0.1458633691072464
-0.7614498734474182 -0.5351969003677368 -0.4303535521030426
-0.7570902705192566 -0.5353896021842957 -0.71484375
-0.7527306079864502 -0.5355823040008545 -0.999333918094635
-0.7483709454536438 -0.5357750058174133 -1.28382408618927
-0.7440113425254822 -0.5359677672386169 -1.5683143138885498
-0.7396516799926758 -0.5361604690551758 -1.85280442237854
-0.7352920770645142 -0.5363531708717346 -2.1372945308685303
-0.7309324145317078 -0.5365459322929382 -2.4217848777770996
-0.7265728116035461 -0.5367386341094971 -2.70627498626709
-0.7222131490707397 -0.5369313359260559 -2.99076509475708
-1.017549991607666 -0.23694713413715363 1.2728625535964966
-1.0131903886795044 -0.23713985085487366 0.9883723855018616
-1.0088307857513428 -0.2373325675725937 0.7038822174072266
-1.0044710636138916 -0.23752528429031372 0.41939201951026917
-1.00011146068573 -0.23771800100803375 0.13490183651447296
-0.9957518577575684 -0.23791071772575378 -0.14958834648132324
-0.991392195224762 -0.23810343444347382 -0.43407851457595825
-0.9870325922966003 -0.23829615116119385 -0.7185686826705933
-0.982672929763794 -0.23848888278007507 -1.003058910369873
-0.9783133268356323 -0.2386815994977951 -1.2875490188598633
-0.9739536643028259 -0.23887431621551514 -1.572039246559143
-0.9695940613746643 -0.23906703293323517 -1.8565293550491333
-0.9652343988418579 -0.2392597496509552 -2.141019582748413
-0.9608747959136963 -0.23945246636867523 -2.4255096912384033
-0.9565151333808899 -0.23964518308639526 -2.7100000381469727
-0.9521555304527283 -0.2398378998041153 -2.994490146636963
-1.1829874515533447 0.10035789012908936 1.2700988054275513
-1.178627848625183 0.10016516596078873 0.9856086373329163
-1.1742682456970215 0.0999724492430687 0.7011184692382812
-1.1699086427688599 0.09977973252534866 0.41662830114364624
-1.1655489206314087 0.09958701580762863 0.13213811814785004
-1.161189317703247 0.099394291639328 -0.15235206484794617
-1.1568297147750854 0.09920157492160797 -0.4368422329425812
-1.1524699926376343 0.09900885820388794 -0.7213324308395386
-1.1481103897094727 0.09881614148616791 -1.0058226585388184
-1.143750786781311 0.09862342476844788 -1.2903127670288086
-1.1393911838531494 0.09843070060014725 -1.5748029947280884
-1.1350314617156982 0.09823798388242722 -1.8592931032180786
-1.1306718587875366 0.09804526716470718 -2.1437833309173584
-1.126312255859375 0.09785255044698715 -2.4282734394073486
-1.1219526529312134 0.09765983372926712 -2.712763786315918
-1.1175929307937622 0.09746710956096649 -2.997253894805908
-1.2771470546722412 0.46406516432762146 1.2684094905853271
-1.2727874517440796 0.4638724625110626 0.9839193224906921
-1.2684277296066284 0.4636797308921814 0.6994291543960571
-1.2640681266784668 0.46348702907562256 0.4149389863014221
-1.2597085237503052 0.46329429745674133 0.13044878840446472
-1.2553489208221436 0.4631015956401825 -0.1540413796901703
-1.2509891986846924 0.46290886402130127 -0.4385315477848053
-1.2466295957565308 0.46271613240242004 -0.7230217456817627
-1.2422699928283691 0.4625234305858612 -1.0075119733810425
-1.2379103899002075 0.46233069896698 -1.2920020818710327
-1.2335506677627563 0.46213799715042114 -1.5764923095703125
-1.2291910648345947 0.4619452655315399 -1.8609824180603027
-1.224831461906433 0.4617525637149811 -2.145472526550293
-1.2204718589782715 0.46155983209609985 -2.4299628734588623
-1.2161121368408203 0.461367130279541 -2.7144529819488525
-1.2117525339126587 0.4611743986606598 -2.9989430904388428
-1.2961738109588623 0.8392845392227173 1.2678637504577637
-1.2918142080307007 0.8390917778015137 0.9833735823631287
-1.2874544858932495 0.8388990759849548 0.6988834142684937
-1.283094882965088 0.838706374168396 0.41439321637153625
-1.2787352800369263 0.8385136127471924 0.12990304827690125
-1.2743756771087646 0.8383209109306335 -0.15458713471889496
-1.2700159549713135 0.8381282091140747 -0.43907731771469116
-1.2656563520431519 0.8379355072975159 -0.7235674858093262
-1.2612967491149902 0.8377427458763123 -1.008057713508606
-1.2569371461868286 0.8375500440597534 -1.2925478219985962
-1.2525774240493774 0.8373573422431946 -1.577038049697876
-1.2482178211212158 0.837164580821991 -1.8615281581878662
-1.2438582181930542 0.8369718790054321 -2.1460182666778564
-1.239498496055603 0.8367791771888733 -2.430508613586426
-1.2351388931274414 0.8365864753723145 -2.714998722076416
-1.2307792901992798 0.8363937139511108 -2.9994888305664062
-1.2392888069152832 1.210654377937317 1.2684838771820068
-1.2349292039871216 1.2104616165161133 0.9839937090873718
-1.2305694818496704 1.2102689743041992 0.6995035409927368
-1.2262098789215088 1.2100762128829956 0.4150133728981018
-1.2218502759933472 1.209883451461792 0.1305232048034668
-1.2174906730651855 1.209690809249878 -0.1539669781923294
-1.2131309509277344 1.2094980478286743 -0.4384571611881256
-1.2087713479995728 1.2093054056167603 -0.722947359085083
-1.2044117450714111 1.2091126441955566 -1.0074374675750732
-1.20005202293396 1.208919882774353 -1.291927695274353
-1.1956924200057983 1.208727240562439 -1.5764179229736328
-1.1913328170776367 1.2085344791412354 -1.860908031463623
-1.186973214149475 1.2083417177200317 -2.1453981399536133
-1.182613492012024 1.2081490755081177 -2.4298884868621826
-1.1782538890838623 1.207956314086914 -2.714378595352173
-1.1738942861557007 1.2077635526657104 -2.998868703842163
-1.108820915222168 1.5629708766937256 1.2702445983886719
-1.1044613122940063 1.562778115272522 0.9857544302940369
-1.1001015901565552 1.5625853538513184 0.7012642025947571
-1.0957419872283936 1.5623927116394043 0.41677406430244446
-1.091382384300232 1.5621999502182007 0.13228386640548706
-1.0870226621627808 1.5620073080062866 -0.15220630168914795
-1.0826630592346191 1.561814546585083 -0.43669649958610535
-1.0783034563064575 1.5616217851638794 -0.721186637878418
-1.073943853378296 1.5614291429519653 -1.0056768655776978
-1.0695841312408447 1.5612363815307617 -1.290166974067688
-1.065224528312683 1.561043620109558 -1.5746572017669678
-1.0608649253845215 1.560850977897644 -1.8591474294662476
-1.0565053224563599 1.5606582164764404 -2.1436376571655273
-1.0521456003189087 1.5604654550552368 -2.4281277656555176
-1.047785997390747 1.5602728128433228 -2.712617874145508
-1.0434263944625854 1.5600800514221191 -2.997107982635498
-0.9101114869117737 1.8818100690841675 1.273073673248291
-0.9057518243789673 1.8816173076629639 0.988583505153656
-0.9013922214508057 1.8814245462417603 0.704093337059021
-0.8970325589179993 1.8812319040298462 0.419603168964386
-0.8926729559898376 1.8810391426086426 0.13511298596858978
-0.8883132934570312 1.8808465003967285 -0.14937719702720642
-0.8839536905288696 1.880653738975525 -0.43386736512184143
-0.8795940279960632 1.8804609775543213 -0.7183575630187988
-0.8752343654632568 1.8802683353424072 -1.002847671508789
-0.8708747625350952 1.8800755739212036 -1.2873378992080688
-0.8665151000022888 1.8798828125 -1.5718281269073486
-0.8621554970741272 1.879690170288086 -1.8563182353973389
-0.8577958345413208 1.8794974088668823 -2.140808343887329
-0.8534362316131592 1.8793046474456787 -2.4252986907958984
-0.8490765690803528 1.8791120052337646 -2.7097887992858887
-0.8447169661521912 1.878919243812561 -2.994278907775879
-0.6512957215309143 2.154118537902832 1.27685546875
-0.6469361186027527 2.153925895690918 0.9923652410507202
-0.6425764560699463 2.153733253479004 0.7078750729560852
-0.6382167935371399 2.1535403728485107 0.4233848750591278
-0.6338571906089783 2.1533477306365967 0.1388947069644928
-0.6294975280761719 2.1531550884246826 -0.1455954760313034
-0.6251379251480103 2.1529624462127686 -0.4300856590270996
-0.6207782626152039 2.1527695655822754 -0.7145758271217346
-0.6164186596870422 2.1525769233703613 -0.9990659952163696
-0.6120589971542358 2.1523842811584473 -1.2835562229156494
-0.6076993942260742 2.152191400527954 -1.5680463314056396
-0.6033397316932678 2.15199875831604 -1.8525365591049194
-0.5989801287651062 2.151806116104126 -2.137026786804199
-0.5946204662322998 2.151613235473633 -2.4215168952941895
-0.5902608633041382 2.1514205932617188 -2.7060070037841797
-0.5859012007713318 2.1512279510498047 -2.990497350692749
-0.3429695963859558 2.368748188018799 1.2814348936080933
-0.3386099636554718 2.3685555458068848 0.9969447255134583
-0.3342503309249878 2.3683629035949707 0.7124545574188232
-0.3298906981945038 2.3681702613830566 0.42796438932418823
-0.3255310654640198 2.3679773807525635 0.14347422122955322
-0.32117143273353577 2.3677847385406494 -0.14101596176624298
-0.31681180000305176 2.3675920963287354 -0.4255061447620392
-0.31245216727256775 2.367399215698242 -0.7099963426589966
-0.30809253454208374 2.367206573486328 -0.9944865107536316
-0.30373287200927734 2.367013931274414 -1.2789766788482666
-0.29937323927879333 2.366821050643921 -1.5634669065475464
-0.2950136065483093 2.366628408432007 -1.8479570150375366
-0.2906539738178253 2.3664357662200928 -2.1324472427368164
-0.2862943410873413 2.3662428855895996 -2.4169373512268066
-0.2819347083568573 2.3660502433776855 -2.701427459716797
-0.2775750756263733 2.3658576011657715 -2.985917806625366
0.0022440042812377214 2.5169119834899902 1.286624789237976
0.006603639107197523 2.516719341278076 1.0021345615386963
0.010963273234665394 2.516526699066162 0.7176443934440613
0.015322907827794552 2.516333818435669 0.43315422534942627
0.019682543352246284 2.516141176223755 0.14866402745246887
0.024042177945375443 2.515948534011841 -0.13582614064216614
0.0284018125385046 2.5157556533813477 -0.42031633853912354
0.03276144713163376 2.5155630111694336 -0.7048065066337585
0.03712107986211777 2.5153703689575195 -0.9892966747283936
0.041480716317892075 2.5151777267456055 -1.2737869024276733
0.04584034904837608 2.5149848461151123 -1.5582770109176636
0.05019998550415039 2.5147922039031982 -1.8427672386169434
0.0545596182346344 2.514599561691284 -2.1272573471069336
0.05891925469040871 2.514406681060791 -2.411747455596924
0.06327889114618301 2.514214038848877 -2.696237802505493
0.06763852387666702 2.514021396636963 -2.9807279109954834
0.37021198868751526 2.5925440788269043 1.2922123670578003
0.37457162141799927 2.5923514366149902 1.00772225856781
0.3789312541484833 2.592158555984497 0.7232320308685303
0.3832908868789673 2.591965913772583 0.43874186277389526
0.3876505196094513 2.591773271560669 0.15425167977809906
0.3920101523399353 2.591580390930176 -0.13023850321769714
0.3963698148727417 2.5913877487182617 -0.41472867131233215
0.4007294476032257 2.5911951065063477 -0.6992188692092896
0.4050890803337097 2.5910024642944336 -0.9837090373039246
0.4094487130641937 2.5908095836639404 -1.2681992053985596
0.41380834579467773 2.5906169414520264 -1.5526894330978394
0.41816797852516174 2.5904242992401123 -1.8371795415878296
0.42252761125564575 2.590231418609619 -2.1216697692871094
0.42688724398612976 2.590038776397705 -2.4061598777770996
0.43124687671661377 2.589846134185791 -2.690650224685669
0.4356065094470978 2.589653253555298 -2.975140333175659
0.7458696961402893 2.59254789352417 1.297969102859497
0.7502293586730957 2.592355251312256 1.0134788751602173
0.7545889616012573 2.592162609100342 0.728988766670227
0.7589486241340637 2.5919697284698486 0.44449856877326965
0.7633082866668701 2.5917770862579346 0.16000840067863464
0.7676678895950317 2.5915844440460205 -0.12448178231716156
0.7720275521278381 2.5913918018341064 -0.40897196531295776
0.7763871550559998 2.5911989212036133 -0.6934621334075928
0.7807468175888062 2.591006278991699 -0.9779523015022278
0.7851064205169678 2.590813636779785 -1.2624424695968628
0.7894660830497742 2.590620756149292 -1.5469326972961426
0.7938256859779358 2.590428113937378 -1.8314228057861328
0.7981853485107422 2.590235471725464 -2.115912914276123
0.8025449514389038 2.5900425910949707 -2.4004032611846924
0.8069046139717102 2.5898499488830566 -2.6848933696746826
0.8112642168998718 2.5896573066711426 -2.969383478164673
1.113837718963623 2.516923666000366 1.303659200668335
1.1181973218917847 2.516730785369873 1.0191690921783447
1.1225569248199463 2.516538143157959 0.7346788644790649
1.1269166469573975 2.516345500946045 0.45018869638442993
1.131276249885559 2.5161526203155518 0.16569849848747253
1.1356358528137207 2.5159599781036377 -0.11879166960716248
1.1399955749511719 2.5157673358917236 -0.4032818377017975
1.1443551778793335 2.5155746936798096 -0.6877720355987549
1.1487147808074951 2.5153818130493164 -0.9722622036933899
1.1530743837356567 2.5151891708374023 -1.256752371788025
1.157434105873108 2.5149965286254883 -1.5412425994873047
1.1617937088012695 2.514803647994995 -1.825732707977295
1.1661533117294312 2.514611005783081 -2.110222816467285
1.1705129146575928 2.514418363571167 -2.3947131633758545
1.174872636795044 2.514225482940674 -2.6792032718658447
1.1792322397232056 2.5140328407287598 -2.963693380355835
1.4590513706207275 2.368767023086548 1.3090497255325317
1.4634109735488892 2.368574380874634 1.0245596170425415
1.4677705764770508 2.3683815002441406 0.7400693893432617
1.4721301794052124 2.3681888580322266 0.4555792212486267
1.4764899015426636 2.3679962158203125 0.1710890531539917
1.4808495044708252 2.3678033351898193 -0.1134011298418045
1.4852091073989868 2.3676106929779053 -0.3978913128376007
1.4895687103271484 2.367418050765991 -0.6823815107345581
1.4939284324645996 2.367225170135498 -0.9668716788291931
1.4982880353927612 2.367032527923584 -1.2513618469238281
1.5026476383209229 2.36683988571167 -1.535852074623108
1.5070072412490845 2.3666470050811768 -1.8203421831130981
1.5113669633865356 2.3664543628692627 -2.104832410812378
1.5157265663146973 2.3662617206573486 -2.389322519302368
1.5200861692428589 2.3660688400268555 -2.6738126277923584
1.5244457721710205 2.3658761978149414 -2.9583029747009277
1.767377495765686 2.154143810272217 1.313920021057129
1.7717370986938477 2.1539509296417236 1.0294299125671387
1.7760967016220093 2.1537582874298096 0.7449396848678589
1.780456304550171 2.1535656452178955 0.4604495167732239
1.784816026687622 2.1533727645874023 0.17595934867858887
1.7891756296157837 2.1531801223754883 -0.10853083431720734
1.7935352325439453 2.152987480163574 -0.39302101731300354
1.797894835472107 2.15279483795166 -0.6775112152099609
1.802254557609558 2.152601957321167 -0.962001383304596
1.8066141605377197 2.152409315109253 -1.246491551399231
1.8109737634658813 2.152216672897339 -1.5309817790985107
1.815333366394043 2.1520237922668457 -1.815471887588501
1.8196930885314941 2.1518311500549316 -2.099961996078491
1.8240526914596558 2.1516385078430176 -2.3844523429870605
1.8284122943878174 2.1514456272125244 -2.668942451477051
1.8327720165252686 2.1512529850006104 -2.953432559967041
2.026193141937256 1.881840467453003 1.3180707693099976
2.030552864074707 1.8816478252410889 1.0335805416107178
2.034912347793579 1.8814550638198853 0.7490903735160828
2.0392720699310303 1.8812624216079712 0.46460017561912537
2.0436317920684814 1.8810696601867676 0.18010999262332916
2.0479912757873535 1.880876898765564 -0.10438017547130585
2.0523509979248047 1.88068425655365 -0.38887035846710205
2.056710720062256 1.8804914951324463 -0.6733605265617371
2.061070203781128 1.8802987337112427 -0.9578506946563721
2.065429925918579 1.8801060914993286 -1.2423409223556519
2.0697896480560303 1.879913330078125 -1.526831030845642
2.0741491317749023 1.8797205686569214 -1.8113212585449219
2.0785088539123535 1.8795279264450073 -2.095811367034912
2.0828683376312256 1.8793351650238037 -2.3803017139434814
2.0872280597686768 1.8791424036026 -2.6647918224334717
2.091587781906128 1.878949761390686 -2.949281930923462
2.224902629852295 1.5630054473876953 1.3213317394256592
2.229262351989746 1.5628126859664917 1.036841630935669
2.233621835708618 1.5626200437545776 0.7523514628410339
2.2379815578460693 1.562427282333374 0.46786126494407654
2.2423410415649414 1.5622345209121704 0.18337108194828033
2.2467007637023926 1.5620418787002563 -0.10111909359693527
2.2510604858398438 1.5618491172790527 -0.3856092691421509
2.255419969558716 1.5616564750671387 -0.6700994372367859
2.259779691696167 1.561463713645935 -0.9545896053314209
2.264139413833618 1.5612709522247314 -1.2390798330307007
2.2684988975524902 1.5610783100128174 -1.523569941520691
2.2728586196899414 1.5608855485916138 -1.8080601692199707
2.2772181034088135 1.5606927871704102 -2.092550277709961
2.2815778255462646 1.560500144958496 -2.3770406246185303
2.285937547683716 1.5603073835372925 -2.6615307331085205
2.290297031402588 1.5601146221160889 -2.9460208415985107
2.35537052154541 1.2106916904449463 1.3235697746276855
2.3597302436828613 1.2104989290237427 1.0390796661376953
2.3640897274017334 1.2103062868118286 0.7545894384384155
2.3684494495391846 1.210113525390625 0.4700992703437805
2.3728089332580566 1.2099207639694214 0.18560908734798431
2.377168655395508 1.2097281217575073 -0.09888109564781189
2.381528377532959 1.2095353603363037 -0.3833712637424469
2.385887861251831 1.2093427181243896 -0.6678614616394043
2.3902475833892822 1.209149956703186 -0.9523516297340393
2.3946073055267334 1.2089571952819824 -1.2368417978286743
2.3989667892456055 1.2087645530700684 -1.521332025527954
2.4033265113830566 1.2085717916488647 -1.8058221340179443
2.407686233520508 1.2083790302276611 -2.0903122425079346
2.41204571723938 1.208186388015747 -2.374802589416504
2.416405439376831 1.2079936265945435 -2.659292697906494
2.420764923095703 1.2078008651733398 -2.9437828063964844
2.4122555255889893 0.8393229842185974 1.3246930837631226
2.4166152477264404 0.8391302824020386 1.0402029752731323
2.4209747314453125 0.8389375805854797 0.7557127475738525
2.4253344535827637 0.8387448787689209 0.47122254967689514
2.429694175720215 0.8385521173477173 0.18673238158226013
2.434053659439087 0.8383594155311584 -0.09775779396295547
2.438413381576538 0.8381667137145996 -0.3822479844093323
2.44277286529541 0.837973952293396 -0.6667381525039673
2.4471325874328613 0.8377812504768372 -0.9512283205986023
2.4514923095703125 0.8375885486602783 -1.2357184886932373
2.4558517932891846 0.8373958468437195 -1.520208716392517
2.4602115154266357 0.8372030854225159 -1.8046988248825073
2.464571237564087 0.837010383605957 -2.089189052581787
2.468930721282959 0.8368176817893982 -2.3736791610717773
2.47329044342041 0.8366249799728394 -2.6581695079803467
2.4776499271392822 0.8364322185516357 -2.942659616470337
2.393228769302368 0.4641032814979553 1.3246556520462036
2.3975884914398193 0.4639105498790741 1.0401655435562134
2.4019479751586914 0.46371784806251526 0.7556753754615784
2.4063076972961426 0.46352511644363403 0.47118517756462097
2.4106674194335938 0.4633324146270752 0.18669499456882477
2.415026903152466 0.46313968300819397 -0.09779518842697144
2.419386625289917 0.46294695138931274 -0.38228535652160645
2.423746109008789 0.4627542495727539 -0.6667755246162415
2.4281058311462402 0.4625615179538727 -0.9512657523155212
2.4324655532836914 0.46236881613731384 -1.2357559204101562
2.4368250370025635 0.4621760845184326 -1.5202460289001465
2.4411847591400146 0.4619833827018738 -1.8047362565994263
2.445544481277466 0.46179065108299255 -2.089226484298706
2.449903964996338 0.4615979492664337 -2.3737165927886963
2.454263687133789 0.4614052176475525 -2.6582067012786865
2.458623170852661 0.46121248602867126 -2.942697048187256
2.2990691661834717 0.10039403289556503 1.3234591484069824
2.303428888320923 0.100201316177845 1.0389689207077026
2.307788372039795 0.10000859946012497 0.7544788122177124
2.312148094177246 0.09981588274240494 0.469988614320755
2.3165078163146973 0.09962315857410431 0.1854984313249588
2.3208673000335693 0.09943044185638428 -0.0989917442202568
2.3252270221710205 0.09923772513866425 -0.3834819197654724
2.3295867443084717 0.09904500842094421 -0.6679720878601074
2.3339462280273438 0.09885228425264359 -0.9524622559547424
2.338305950164795 0.09865956753492355 -1.2369524240493774
2.342665433883667 0.09846685081720352 -1.5214426517486572
2.347025156021118 0.09827413409948349 -1.8059327602386475
2.3513848781585693 0.09808141738176346 -2.090423107147217
2.3557443618774414 0.09788869321346283 -2.374913215637207
2.3601040840148926 0.0976959764957428 -2.6594033241271973
2.3644638061523438 0.09750325977802277 -2.9438934326171875
2.133631706237793 -0.23691441118717194 1.3211524486541748
2.137991428375244 -0.23710712790489197 1.036662220954895
2.142350912094116 -0.2372998595237732 0.75217205286026
2.1467106342315674 -0.23749257624149323 0.467681884765625
2.1510703563690186 -0.23768529295921326 0.1831917017698288
2.1554298400878906 -0.2378780096769333 -0.10129847377538681
2.159789562225342 -0.23807072639465332 -0.3857886493206024
2.164149284362793 -0.23826344311237335 -0.6702788472175598
2.168508768081665 -0.23845615983009338 -0.9547690153121948
2.172868490219116 -0.23864887654781342 -1.2392592430114746
2.1772279739379883 -0.23884159326553345 -1.5237493515014648
2.1815876960754395 -0.23903432488441467 -1.8082395792007446
2.1859474182128906 -0.2392270416021347 -2.0927298069000244
2.1903069019317627 -0.23941975831985474 -2.3772199153900146
2.194666624069214 -0.23961247503757477 -2.661710023880005
2.199026346206665 -0.2398051917552948 -2.946200370788574
1.9036893844604492 -0.5340126156806946 1.317829966545105
1.9080489873886108 -0.5342053174972534 1.0333397388458252
1.912408709526062 -0.534398078918457 0.748849630355835
1.9167683124542236 -0.5345907807350159 0.46435943245887756
1.9211279153823853 -0.5347834825515747 0.17986924946308136
1.9254875183105469 -0.5349762439727783 -0.10462093353271484
1.929847240447998 -0.5351689457893372 -0.38911110162734985
1.9342068433761597 -0.535361647605896 -0.6736012697219849
1.9385664463043213 -0.5355543494224548 -0.9580914974212646
1.9429261684417725 -0.5357471108436584 -1.2425816059112549
1.947285771369934 -0.5359398126602173 -1.5270718336105347
1.9516453742980957 -0.5361325144767761 -1.8115620613098145
1.9560049772262573 -0.5363252758979797 -2.0960521697998047
1.9603646993637085 -0.5365179777145386 -2.380542278289795
1.9647243022918701 -0.5367106795310974 -2.6650326251983643
1.9690839052200317 -0.5369033813476562 -2.9495227336883545
1.618656039237976 -0.7787373661994934 1.31362783908844
1.6230156421661377 -0.7789300680160522 1.0291376113891602
1.6273753643035889 -0.7791228294372559 0.7446474432945251
1.6317349672317505 -0.7793155312538147 0.46015724539756775
1.636094570159912 -0.7795082330703735 0.17566706240177155
1.6404541730880737 -0.7797009348869324 -0.10882311314344406
1.644813895225525 -0.779893696308136 -0.39331328868865967
1.6491734981536865 -0.7800863981246948 -0.6778034567832947
1.6535331010818481 -0.7802790999412537 -0.9622936248779297
1.6578927040100098 -0.7804718613624573 -1.2467838525772095
1.662252426147461 -0.7806645631790161 -1.5312739610671997
1.6666120290756226 -0.780857264995575 -1.8157641887664795
1.6709716320037842 -0.7810499668121338 -2.1002542972564697
1.6753313541412354 -0.7812427282333374 -2.384744644165039
1.679690957069397 -0.7814354300498962 -2.6692347526550293
1.6840505599975586 -0.7816281318664551 -2.9537248611450195
1.29020094871521 -0.9610695838928223 1.308717966079712
1.2945606708526611 -0.9612622857093811 1.0242277383804321
1.2989202737808228 -0.9614549875259399 0.7397375702857971
1.3032798767089844 -0.9616477489471436 0.4552474021911621
1.307639479637146 -0.9618404507637024 0.1707572191953659
1.3119992017745972 -0.9620331525802612 -0.1137329638004303
1.3163588047027588 -0.9622258543968201 -0.3982231318950653
1.3207184076309204 -0.9624186158180237 -0.6827133297920227
1.325078010559082 -0.9626113176345825 -0.9672034978866577
1.3294377326965332 -0.9628040194511414 -1.2516937255859375
1.3337973356246948 -0.962996780872345 -1.5361838340759277
1.3381569385528564 -0.9631894826889038 -1.8206740617752075
1.3425166606903076 -0.9633821845054626 -2.1051642894744873
1.3468762636184692 -0.9635748863220215 -2.3896543979644775
1.3512358665466309 -0.9637676477432251 -2.6741445064544678
1.3555954694747925 -0.9639603495597839 -2.958634853363037
0.9317712187767029 -1.0735445022583008 1.303301453590393
0.9361308217048645 -1.0737372636795044 1.0188112258911133
0.9404904842376709 -1.073930025100708 0.7343210577964783
0.9448500871658325 -1.074122667312622 0.4498308598995209
0.9492097496986389 -1.0743154287338257 0.16534069180488586
0.9535693526268005 -1.0745081901550293 -0.11914948374032974
0.9579290151596069 -1.0747008323669434 -0.40363967418670654
0.9622886180877686 -1.074893593788147 -0.6881298422813416
0.966648280620575 -1.075086236000061 -0.9726200103759766
0.9710079431533813 -1.0752789974212646 -1.2571102380752563
0.975367546081543 -1.0754717588424683 -1.5416003465652466
0.9797272086143494 -1.0756644010543823 -1.8260905742645264
0.984086811542511 -1.075857162475586 -2.1105806827545166
0.9884464740753174 -1.0760499238967896 -2.395071029663086
0.992806077003479 -1.0762425661087036 -2.679561138153076
0.9971657395362854 -1.0764353275299072 -2.9640512466430664
0.5580408573150635 -1.1115574836730957 1.2976000308990479
0.5624005198478699 -1.1117502450942993 1.013109803199768
0.5667601227760315 -1.111943006515503 0.7286196351051331
0.5711197853088379 -1.112135648727417 0.44412943720817566
0.5754793882369995 -1.1123284101486206 0.15963925421237946
0.5798390507698059 -1.1125211715698242 -0.12485092133283615
0.5841986536979675 -1.1127138137817383 -0.40934109687805176
0.5885583162307739 -1.112906575202942 -0.6938312649726868
0.5929179191589355 -1.1130993366241455 -0.9783214330673218
0.5972775816917419 -1.1132919788360596 -1.2628116607666016
0.6016371846199036 -1.1134847402572632 -1.5473017692565918
0.60599684715271 -1.1136773824691772 -1.8317919969558716
0.6103564500808716 -1.1138701438903809 -2.1162822246551514
0.614716112613678 -1.1140629053115845 -2.4007723331451416
0.6190757155418396 -1.1142555475234985 -2.685262441635132
0.623435378074646 -1.1144483089447021 -2.969752788543701
