ply
format ascii 1.0
element vertex 512
property float x
property float y
property float z
end_header
0.05295610427856445 0.9791045784950256 -1.1436656713485718
0.04975575953722 0.9781284332275391 -1.0124379396438599
0.04655541107058525 0.9771522879600525 -0.8812101483345032
0.0433550663292408 0.9761761426925659 -0.7499824166297913
0.04015471786260605 0.9751999974250793 -0.6187546849250793
0.0369543731212616 0.974223792552948 -0.48752695322036743
0.033754028379917145 0.9732476472854614 -0.35629919171333313
0.030553679913282394 0.9722715020179749 -0.22507146000862122
0.027353335171937943 0.9712953567504883 -0.0938437283039093
0.02415298856794834 0.9703192114830017 0.03738400712609291
0.02095264196395874 0.9693430662155151 0.16861175000667572
0.01775229535996914 0.9683668613433838 0.29983946681022644
0.014551949687302113 0.9673907160758972 0.43106722831726074
0.011351603083312511 0.9664145708084106 0.5622949600219727
0.00815125647932291 0.9654384255409241 0.6935226917266846
0.0049509103409945965 0.9644622802734375 0.8247504234313965
-0.1484413892030716 0.9586554765701294 -1.1487293243408203
-0.15164174139499664 0.9576793313026428 -1.0175015926361084
-0.1548420935869217 0.9567031860351562 -0.8862738609313965
-0.15804243087768555 0.9557270407676697 -0.7550461292266846
-0.1612427830696106 0.9547508955001831 -0.6238183975219727
-0.16444312036037445 0.9537746906280518 -0.49259066581726074
-0.1676434725522995 0.9527985453605652 -0.36136293411254883
-0.17084382474422455 0.9518224000930786 -0.23013520240783691
-0.1740441620349884 0.950846254825592 -0.098907470703125
-0.17724451422691345 0.9498701095581055 0.03232026472687721
-0.1804448515176773 0.9488939046859741 0.16354800760746002
-0.18364520370960236 0.9479177594184875 0.29477572441101074
-0.1868455559015274 0.946941614151001 0.42600348591804504
-0.19004589319229126 0.9459654688835144 0.5572311878204346
-0.1932462453842163 0.9449893236160278 0.6884589195251465
-0.19644658267498016 0.9440131187438965 0.8196867108345032
-0.3415936529636383 0.8980723023414612 -1.153890609741211
-0.34479400515556335 0.8970960974693298 -1.022662878036499
-0.3479943573474884 0.8961199522018433 -0.8914350867271423
-0.35119467973709106 0.8951438069343567 -0.7602073550224304
-0.3543950319290161 0.8941676616668701 -0.6289796233177185
-0.35759538412094116 0.8931915163993835 -0.4977518916130066
-0.3607957363128662 0.8922153115272522 -0.3665241599082947
-0.36399608850479126 0.8912391662597656 -0.23529641330242157
-0.3671964108943939 0.890263020992279 -0.10406867414712906
-0.37039676308631897 0.8892868757247925 0.027159065008163452
-0.373597115278244 0.8883107304573059 0.15838679671287537
-0.37679746747016907 0.8873345255851746 0.2896145284175873
-0.3799978196620941 0.886358380317688 0.4208422601222992
-0.3831981420516968 0.8853822350502014 0.5520700216293335
-0.3863984942436218 0.8844060897827148 0.6832977533340454
-0.3895988464355469 0.8834299445152283 0.8145254850387573
-0.5185930132865906 0.7998352646827698 -1.158937931060791
-0.5217933654785156 0.7988590598106384 -1.027710199356079
-0.5249937176704407 0.7978829145431519 -0.8964824676513672
-0.5281940698623657 0.7969067692756653 -0.7652547359466553
-0.531394362449646 0.7959306240081787 -0.6340270042419434
-0.534594714641571 0.7949544787406921 -0.5027992725372314
-0.5377950668334961 0.7939782738685608 -0.37157151103019714
-0.5409954190254211 0.7930021286010742 -0.24034376442432404
-0.5441957712173462 0.7920259833335876 -0.10911603271961212
-0.5473961234092712 0.7910498380661011 0.02211170271039009
-0.5505964756011963 0.7900736927986145 0.1533394455909729
-0.5537968277931213 0.7890974879264832 0.2845671772956848
-0.5569971799850464 0.7881213426589966 0.41579490900039673
-0.5601975321769714 0.78714519739151 0.5470226407051086
-0.5633978247642517 0.7861690521240234 0.6782503724098206
-0.5665981769561768 0.7851929068565369 0.8094781041145325
-0.6721930503845215 0.6679662466049194 -1.1636648178100586
-0.6753934025764465 0.6669900417327881 -1.0324370861053467
-0.6785937547683716 0.6660138964653015 -0.9012093544006348
-0.6817941069602966 0.6650377511978149 -0.7699816226959229
-0.6849944591522217 0.6640616059303284 -0.6387538909912109
-0.6881948113441467 0.6630854606628418 -0.5075260996818542
-0.6913951635360718 0.6621092557907104 -0.3762983977794647
-0.6945955157279968 0.6611331105232239 -0.2450706511735916
-0.6977958083152771 0.6601569652557373 -0.1138429194688797
-0.7009961605072021 0.6591808199882507 0.017384817823767662
-0.7041965126991272 0.6582046747207642 0.14861255884170532
-0.7073968648910522 0.6572284698486328 0.27984029054641724
-0.7105972170829773 0.6562523245811462 0.41106802225112915
-0.7137975692749023 0.6552761793136597 0.5422957539558411
-0.7169979214668274 0.6543000340461731 0.673523485660553
-0.7201982736587524 0.6533238887786865 0.8047512173652649
-0.7961054444313049 0.5078639388084412 -1.1678776741027832
-0.79930579662323 0.5068877935409546 -1.0366499423980713
-0.802506148815155 0.505911648273468 -0.9054222106933594
-0.8057064414024353 0.5049355030059814 -0.7741944789886475
-0.8089067935943604 0.5039592981338501 -0.6429667472839355
-0.8121071457862854 0.5029831528663635 -0.5117390155792236
-0.8153074979782104 0.502007007598877 -0.3805112838745117
-0.8185078501701355 0.5010308623313904 -0.2492835372686386
-0.8217082023620605 0.5000547170639038 -0.1180558055639267
-0.8249085545539856 0.49907854199409485 0.01317193266004324
-0.8281089067459106 0.4981023967266083 0.14439967274665833
-0.8313092589378357 0.4971262216567993 0.27562740445137024
-0.8345096111297607 0.49615007638931274 0.40685513615608215
-0.837709903717041 0.4951739013195038 0.5380828976631165
-0.8409102559089661 0.4941977560520172 0.6693106293678284
-0.8441106081008911 0.49322161078453064 0.8005383610725403
-0.8852571249008179 0.3260830342769623 -1.1714041233062744
-0.8884574770927429 0.3251068890094757 -1.0401763916015625
-0.891657829284668 0.32413071393966675 -0.9089486598968506
-0.894858181476593 0.3231545686721802 -0.7777208685874939
-0.8980585336685181 0.3221784234046936 -0.646493136882782
-0.9012588262557983 0.32120224833488464 -0.5152654051780701
-0.9044591784477234 0.32022610306739807 -0.38403767347335815
-0.9076595306396484 0.3192499279975891 -0.25280994176864624
-0.9108598828315735 0.31827378273010254 -0.12158221751451492
-0.9140602350234985 0.31729763746261597 0.009645521640777588
-0.9172605872154236 0.316321462392807 0.1408732533454895
-0.9204609394073486 0.31534531712532043 0.2721009850502014
-0.9236612915992737 0.3143691420555115 0.40332871675491333
-0.9268616437911987 0.3133929967880249 0.5345564484596252
-0.9300619959831238 0.31241685152053833 0.6657841801643372
-0.933262288570404 0.31144067645072937 0.7970119118690491
-0.935998260974884 0.13006561994552612 -1.1740996837615967
-0.9391986131668091 0.12908945977687836 -1.0428719520568848
-0.9423989653587341 0.1281132996082306 -0.9116442203521729
-0.9455993175506592 0.12713713943958282 -0.7804164886474609
-0.9487996101379395 0.12616097927093506 -0.6491886973381042
-0.9519999623298645 0.1251848340034485 -0.5179609656333923
-0.9552003145217896 0.12420867383480072 -0.3867332637310028
-0.9584006667137146 0.12323251366615295 -0.2555055320262909
-0.9616010189056396 0.12225636094808578 -0.12427777796983719
-0.9648013710975647 0.12128020077943802 0.006949955597519875
-0.9680017232894897 0.12030404061079025 0.13817769289016724
-0.9712020754814148 0.11932788789272308 0.26940542459487915
-0.9744024276733398 0.11835172772407532 0.40063315629959106
-0.9776027798652649 0.11737557500600815 0.531860888004303
-0.9808030724525452 0.11639941483736038 0.6630886197090149
-0.9840034246444702 0.11542326211929321 0.7943163514137268
-0.9462514519691467 -0.07216335088014603 -1.1758540868759155
-0.9494518041610718 -0.0731395035982132 -1.0446263551712036
-0.9526521563529968 -0.07411566376686096 -0.9133985638618469
-0.9558525085449219 -0.07509182393550873 -0.782170832157135
-0.9590528607368469 -0.0760679766535759 -0.6509431004524231
-0.962253212928772 -0.07704413682222366 -0.5197153687477112
-0.965453565120697 -0.07802028954029083 -0.3884876072406769
-0.9686539173126221 -0.0789964497089386 -0.25725987553596497
-0.9718542695045471 -0.07997260242700577 -0.12603214383125305
-0.9750545620918274 -0.08094876259565353 0.005195592995733023
-0.9782549142837524 -0.0819249227643013 0.13642333447933197
-0.9814552664756775 -0.08290107548236847 0.2676510512828827
-0.9846556186676025 -0.08387723565101624 0.398878812789917
-0.9878559708595276 -0.0848533883690834 0.5301065444946289
-0.9910563230514526 -0.08582954853773117 0.6613342761993408
-0.9942566752433777 -0.08680570125579834 0.7925620079040527
-0.9155970215797424 -0.2723245620727539 -1.1765953302383423
-0.9187973737716675 -0.27330073714256287 -1.0453675985336304
-0.9219977259635925 -0.27427688241004944 -0.9141399264335632
-0.9251980781555176 -0.2752530574798584 -0.7829121351242065
-0.9283984303474426 -0.27622920274734497 -0.6516844034194946
-0.9315987229347229 -0.27720534801483154 -0.5204566717147827
-0.934799075126648 -0.2781815230846405 -0.3892289400100708
-0.937999427318573 -0.2791576683521271 -0.2580012083053589
-0.941199779510498 -0.28013381361961365 -0.12677347660064697
-0.9444001317024231 -0.2811099886894226 0.004454256035387516
-0.9476004838943481 -0.2820861339569092 0.13568198680877686
-0.9508008360862732 -0.28306230902671814 0.26690971851348877
-0.9540011882781982 -0.2840384542942047 0.39813748002052307
-0.9572015404701233 -0.2850145995616913 0.5293651819229126
-0.9604018926620483 -0.28599077463150024 0.6605929136276245
-0.9636021852493286 -0.2869669198989868 0.7918207049369812
-0.8452898859977722 -0.46222344040870667 -1.1762933731079102
-0.8484902381896973 -0.46319958567619324 -1.0450656414031982
-0.8516905903816223 -0.4641757309436798 -0.9138378500938416
-0.8548909425735474 -0.46515190601348877 -0.7826101183891296
-0.8580912947654724 -0.46612805128097534 -0.6513823866844177
-0.8612915873527527 -0.4671042263507843 -0.5201546549797058
-0.8644919395446777 -0.4680803716182709 -0.3889269232749939
-0.8676922917366028 -0.46905651688575745 -0.2576991617679596
-0.8708926439285278 -0.4700326919555664 -0.12647144496440887
-0.8740929961204529 -0.471008837223053 0.004756296519190073
-0.8772933483123779 -0.47198501229286194 0.13598403334617615
-0.880493700504303 -0.4729611575603485 0.26721176505088806
-0.883694052696228 -0.4739373028278351 0.3984394967556
-0.8868944048881531 -0.47491347789764404 0.5296672582626343
-0.8900947570800781 -0.4758896231651306 0.6608949899673462
-0.8932950496673584 -0.4768657982349396 0.7921227216720581
-0.7382084727287292 -0.6340854167938232 -1.1749602556228638
-0.7414088249206543 -0.6350616216659546 -1.0437325239181519
-0.7446091771125793 -0.6360377669334412 -0.9125047922134399
-0.7478094696998596 -0.6370139122009277 -0.781277060508728
-0.7510098218917847 -0.6379900574684143 -0.6500493288040161
-0.7542101740837097 -0.6389662027359009 -0.5188215970993042
-0.7574105262756348 -0.6399424076080322 -0.3875938653945923
-0.7606108784675598 -0.6409185528755188 -0.25636613368988037
-0.7638112306594849 -0.6418946981430054 -0.12513838708400726
-0.7670115828514099 -0.6428708434104919 0.006089348345994949
-0.770211935043335 -0.6438469886779785 0.13731709122657776
-0.77341228723526 -0.6448231935501099 0.2685448229312897
-0.7766126394271851 -0.6457993388175964 0.3997725546360016
-0.7798129320144653 -0.646775484085083 0.5310003161430359
-0.7830132842063904 -0.6477516293525696 0.6622280478477478
-0.7862136363983154 -0.6487277746200562 0.7934557795524597
-0.5987366437911987 -0.7808745503425598 -1.1726508140563965
-0.6019369959831238 -0.7818506956100464 -1.0414230823516846
-0.6051373481750488 -0.782826840877533 -0.9101952910423279
-0.6083377003669739 -0.7838030457496643 -0.778967559337616
-0.6115380525588989 -0.7847791910171509 -0.647739827632904
-0.614738404750824 -0.7857553362846375 -0.5165120959281921
-0.617938756942749 -0.786731481552124 -0.3852843642234802
-0.6211391091346741 -0.7877076268196106 -0.2540566325187683
-0.6243394017219543 -0.7886838316917419 -0.1228289008140564
-0.6275397539138794 -0.7896599769592285 0.00839883554726839
-0.6307401061058044 -0.7906361222267151 0.13962657749652863
-0.6339404582977295 -0.7916122674942017 0.27085429430007935
-0.6371408104896545 -0.7925884127616882 0.40208205580711365
-0.6403411626815796 -0.7935646176338196 0.5333097577095032
-0.6435415148735046 -0.7945407629013062 0.6645374894142151
-0.6467418670654297 -0.7955169081687927 0.7957652807235718
-0.4325844943523407 -0.89658123254776 -1.1694594621658325
-0.43578481674194336 -0.8975573778152466 -1.0382317304611206
-0.4389851689338684 -0.8985335230827332 -0.9070039391517639
-0.44218552112579346 -0.8995096683502197 -0.775776207447052
-0.4453858733177185 -0.9004858136177063 -0.6445484757423401
-0.44858622550964355 -0.9014620184898376 -0.5133207440376282
-0.4517865478992462 -0.9024381637573242 -0.38209301233291626
-0.45498690009117126 -0.9034143090248108 -0.25086525082588196
-0.4581872522830963 -0.9043904542922974 -0.11963752657175064
-0.46138760447502136 -0.9053665995597839 0.011590208858251572
-0.4645879566669464 -0.9063428044319153 0.14281794428825378
-0.4677882790565491 -0.9073189496994019 0.2740456759929657
-0.4709886312484741 -0.9082950949668884 0.4052734076976776
-0.47418898344039917 -0.909271240234375 0.5365011692047119
-0.4773893356323242 -0.9102473855018616 0.6677289009094238
-0.48058968782424927 -0.9112235307693481 0.7989566326141357
-0.2465542107820511 -0.9764683246612549 -1.1655168533325195
-0.24975456297397614 -0.9774445295333862 -1.0342891216278076
-0.25295490026474 -0.9784206748008728 -0.9030613303184509
-0.25615525245666504 -0.9793968200683594 -0.771833598613739
-0.2593556046485901 -0.980372965335846 -0.6406058669090271
-0.26255595684051514 -0.9813491106033325 -0.5093781352043152
-0.2657562792301178 -0.9823253154754639 -0.37815040349960327
-0.26895663142204285 -0.9833014607429504 -0.24692265689373016
-0.2721569836139679 -0.984277606010437 -0.11569492518901825
-0.27535733580589294 -0.9852537512779236 0.015532812103629112
-0.278557687997818 -0.9862298965454102 0.14676055312156677
-0.28175801038742065 -0.9872061014175415 0.2779882848262787
-0.2849583625793457 -0.9881822466850281 0.4092160165309906
-0.28815871477127075 -0.9891583919525146 0.5404437780380249
-0.2913590669631958 -0.9901345372200012 0.6716715097427368
-0.29455941915512085 -0.9911106824874878 0.8028992414474487
-0.048261962831020355 -1.0172654390335083 -1.1609843969345093
-0.05146230757236481 -1.01824152469635 -1.0297566652297974
-0.05466265603899956 -1.0192177295684814 -0.8985289335250854
-0.05786300078034401 -1.0201939344406128 -0.7673012018203735
-0.06106334552168846 -1.0211700201034546 -0.6360734701156616
-0.06426369398832321 -1.022146224975586 -0.5048457384109497
-0.06746403872966766 -1.0231223106384277 -0.3736179769039154
-0.07066438347101212 -1.024098515510559 -0.2423902451992035
-0.07386473566293716 -1.0250746011734009 -0.11116250604391098
-0.07706508040428162 -1.0260508060455322 0.02006523497402668
-0.08026542514562607 -1.0270270109176636 0.15129296481609344
-0.08346576988697052 -1.0280030965805054 0.28252071142196655
-0.08666611462831497 -1.0289793014526367 0.41374844312667847
-0.08986646682024002 -1.0299553871154785 0.5449761748313904
-0.09306681156158447 -1.0309315919876099 0.6762039065361023
-0.09626715630292892 -1.0319077968597412 0.8074316382408142
0.15417416393756866 -1.01730215549469 -1.1560477018356323
0.1509738266468048 -1.0182782411575317 -1.0248199701309204
0.14777347445487976 -1.019254446029663 -0.8935922384262085
0.1445731371641159 -1.0202306509017944 -0.7623645067214966
0.14137278497219086 -1.0212067365646362 -0.6311367750167847
0.1381724327802658 -1.0221829414367676 -0.49990901350975037
0.13497209548950195 -1.0231590270996094 -0.36868128180503845
0.1317717432975769 -1.0241352319717407 -0.23745355010032654
0.12857140600681305 -1.025111436843872 -0.10622581839561462
0.125371053814888 -1.0260875225067139 0.025001918897032738
0.12217070907354355 -1.0270637273788452 0.1562296599149704
0.1189703643321991 -1.028039813041687 0.2874573767185211
0.11577001214027405 -1.0290160179138184 0.4186851382255554
0.1125696673989296 -1.0299922227859497 0.5499128699302673
0.10936932265758514 -1.0309683084487915 0.6811406016349792
0.10616897791624069 -1.0319445133209229 0.8123683333396912
0.3524664342403412 -0.9765770435333252 -1.1509088277816772
0.34926608204841614 -0.9775531888008118 -1.0196810960769653
0.3460657298564911 -0.9785293340682983 -0.8884534239768982
0.34286537766456604 -0.9795054793357849 -0.7572256922721863
0.339665025472641 -0.9804816246032715 -0.6259979009628296
0.33646470308303833 -0.9814578294754028 -0.49477019906044006
0.3332643508911133 -0.9824339747428894 -0.36354246735572815
0.33006399869918823 -0.983410120010376 -0.23231472074985504
0.3268636465072632 -0.9843862652778625 -0.10108698159456253
0.32366329431533813 -0.9853624105453491 0.03014075569808483
0.3204629719257355 -0.9863385558128357 0.1613684892654419
0.3172626197338104 -0.987314760684967 0.2925962209701538
0.3140622675418854 -0.9882909059524536 0.4238239526748657
0.3108619153499603 -0.9892670512199402 0.5550516843795776
0.3076615631580353 -0.9902431964874268 0.6862794160842896
0.3044612407684326 -0.9912193417549133 0.8175071477890015
0.5384966731071472 -0.8967573642730713 -1.1457782983779907
0.5352963209152222 -0.8977335095405579 -1.0145505666732788
0.5320959687232971 -0.8987096548080444 -0.8833227753639221
0.5288956761360168 -0.8996858596801758 -0.7520950436592102
0.5256953239440918 -0.9006620049476624 -0.6208673119544983
0.5224949717521667 -0.9016381502151489 -0.4896395802497864
0.5192946195602417 -0.9026142954826355 -0.35841184854507446
0.5160942673683167 -0.9035904407501221 -0.22718411684036255
0.5128939151763916 -0.9045666456222534 -0.09595637768507004
0.5096935629844666 -0.90554279088974 0.03527136147022247
0.5064932107925415 -0.9065189361572266 0.1664990931749344
0.5032928586006165 -0.9074950814247131 0.2977268397808075
0.5000925064086914 -0.9084712266921997 0.4289545714855194
0.49689218401908875 -0.9094473719596863 0.5601823329925537
0.4936918318271637 -0.9104235768318176 0.6914100646972656
0.49049150943756104 -0.9113997220993042 0.8226377964019775
0.7046488523483276 -0.7811110019683838 -1.1408659219741821
0.7014485001564026 -0.7820871472358704 -1.0096381902694702
0.6982481479644775 -0.7830632925033569 -0.8784104585647583
0.6950478553771973 -0.7840394377708435 -0.7471827268600464
0.6918475031852722 -0.7850156426429749 -0.6159549951553345
0.6886471509933472 -0.7859917879104614 -0.48472726345062256
0.6854467988014221 -0.786967933177948 -0.35349953174591064
0.6822464466094971 -0.7879440784454346 -0.22227178514003754
0.679046094417572 -0.7889202237129211 -0.09104404598474503
0.675845742225647 -0.7898964285850525 0.04018368944525719
0.6726453900337219 -0.7908725738525391 0.1714114248752594
0.6694450378417969 -0.7918487191200256 0.3026391565799713
0.6662446856498718 -0.7928248643875122 0.4338668882846832
0.6630443930625916 -0.7938010096549988 0.5650946497917175
0.6598440408706665 -0.7947772145271301 0.6963223814964294
0.6566436886787415 -0.7957533597946167 0.8275501132011414
0.8441206812858582 -0.6343724727630615 -1.1363730430603027
0.8409203290939331 -0.6353486180305481 -1.0051453113555908
0.8377199769020081 -0.6363247632980347 -0.8739175200462341
0.834519624710083 -0.637300968170166 -0.7426897883415222
0.831319272518158 -0.6382771134376526 -0.6114620566368103
0.8281189203262329 -0.6392532587051392 -0.4802343249320984
0.8249185681343079 -0.6402294039726257 -0.3490065932273865
0.8217182159423828 -0.6412055492401123 -0.21777884662151337
0.8185179233551025 -0.6421817541122437 -0.08655111491680145
0.8153175711631775 -0.6431578993797302 0.04467662423849106
0.8121172189712524 -0.6441340446472168 0.17590436339378357
0.8089168667793274 -0.6451101899147034 0.3071320950984955
0.8057165145874023 -0.6460863351821899 0.4383598268032074
0.8025161623954773 -0.6470625400543213 0.5695875883102417
0.7993158102035522 -0.6480386853218079 0.7008153200149536
0.7961154580116272 -0.6490148305892944 0.8320430517196655
0.9512020945549011 -0.4625493288040161 -1.1324833631515503
0.9480017423629761 -0.4635254740715027 -1.0012556314468384
0.944801390171051 -0.46450161933898926 -0.8700278997421265
0.941601037979126 -0.4654777944087982 -0.7388001680374146
0.9384006857872009 -0.4664539396762848 -0.6075724363327026
0.9352003335952759 -0.46743011474609375 -0.4763447046279907
0.9320000410079956 -0.4684062600135803 -0.3451169729232788
0.9287996888160706 -0.4693824052810669 -0.2138892412185669
0.9255993366241455 -0.47035858035087585 -0.08266150951385498
0.9223989844322205 -0.4713347256183624 0.04856622964143753
0.9191986322402954 -0.4723109006881714 0.17979396879673004
0.9159982800483704 -0.47328704595565796 0.31102171540260315
0.9127979278564453 -0.47426319122314453 0.44224944710731506
0.9095975756645203 -0.4752393662929535 0.5734771490097046
0.9063972234725952 -0.47621551156044006 0.7047049403190613
0.9031968712806702 -0.47719165682792664 0.8359326720237732
1.0215091705322266 -0.2726759612560272 -1.1293563842773438
1.0183088779449463 -0.2736521363258362 -0.9981286525726318
1.015108585357666 -0.27462828159332275 -0.8669009208679199
1.0119081735610962 -0.2756044268608093 -0.7356731295585632
1.008707880973816 -0.2765806019306183 -0.6044453978538513
1.005507469177246 -0.27755674719810486 -0.4732176959514618
1.0023071765899658 -0.2785329222679138 -0.3419899344444275
0.9991068243980408 -0.2795090675354004 -0.21076221764087677
0.9959064722061157 -0.28048521280288696 -0.07953447848558426
0.9927061200141907 -0.2814613878726959 0.05169326066970825
0.9895057678222656 -0.2824375331401825 0.18292099237442017
0.9863054156303406 -0.28341370820999146 0.3141487240791321
0.9831050634384155 -0.284389853477478 0.445376455783844
0.9799047112464905 -0.2853659987449646 0.5766041874885559
0.9767043590545654 -0.28634217381477356 0.7078319191932678
0.9735040068626404 -0.28731831908226013 0.8390596508979797
1.0521637201309204 -0.07252586632966995 -1.1271198987960815
1.0489633083343506 -0.07350202649831772 -0.9958921670913696
1.0457630157470703 -0.07447817921638489 -0.8646644353866577
1.0425626039505005 -0.07545433938503265 -0.7334367036819458
1.0393623113632202 -0.07643049210309982 -0.6022089719772339
1.0361618995666504 -0.07740665227174759 -0.470981240272522
1.0329616069793701 -0.07838280498981476 -0.33975350856781006
1.0297613143920898 -0.07935896515846252 -0.20852577686309814
1.02656090259552 -0.08033512532711029 -0.07729803770780563
1.0233606100082397 -0.08131127804517746 0.05392970144748688
1.02016019821167 -0.08228743821382523 0.1851574331521988
1.0169599056243896 -0.0832635909318924 0.3163851797580719
1.0137594938278198 -0.08423975110054016 0.4476129114627838
1.0105592012405396 -0.08521590381860733 0.5788406729698181
1.0073587894439697 -0.0861920639872551 0.71006840467453
1.0041584968566895 -0.08716822415590286 0.8412961363792419
1.0419104099273682 0.12970681488513947 -1.1258656978607178
1.038710117340088 0.1287306547164917 -0.9946379065513611
1.0355098247528076 0.12775450944900513 -0.8634101748466492
1.0323094129562378 0.12677834928035736 -0.7321824431419373
1.0291091203689575 0.1258021891117096 -0.6009547114372253
1.0259087085723877 0.12482602894306183 -0.46972694993019104
1.0227084159851074 0.12384987622499466 -0.3384992182254791
1.0195080041885376 0.1228737160563469 -0.2072714865207672
1.0163077116012573 0.12189756333827972 -0.0760437548160553
1.0131072998046875 0.12092140316963196 0.05518398433923721
1.0099070072174072 0.11994525045156479 0.18641172349452972
1.0067065954208374 0.11896909028291702 0.31763947010040283
1.0035063028335571 0.11799293011426926 0.44886720180511475
1.0003060102462769 0.11701677739620209 0.5800949335098267
0.997105598449707 0.11604061722755432 0.7113226652145386
0.993905246257782 0.11506446450948715 0.8425503969192505
0.9911693334579468 0.3257426619529724 -1.1256449222564697
0.9879689812660217 0.32476648688316345 -0.994417130947113
0.9847686290740967 0.3237903416156769 -0.8631893992424011
0.9815682768821716 0.3228141963481903 -0.7319616675376892
0.9783679246902466 0.32183802127838135 -0.6007339358329773
0.9751675724983215 0.3208618760108948 -0.469506174325943
0.9719672799110413 0.3198857009410858 -0.3382784426212311
0.9687669277191162 0.31890955567359924 -0.20705071091651917
0.9655665755271912 0.31793341040611267 -0.07582297176122665
0.9623662233352661 0.3169572353363037 0.05540476739406586
0.9591658711433411 0.31598109006881714 0.18663249909877777
0.955965518951416 0.3150049149990082 0.3178602457046509
0.952765166759491 0.3140287697315216 0.4490879774093628
0.9495648145675659 0.31305262446403503 0.5803157091140747
0.9463644623756409 0.3120764493942261 0.7115434408187866
0.9431641101837158 0.3111003041267395 0.8427711725234985
0.9020176529884338 0.5075559020042419 -1.1264666318893433
0.8988173007965088 0.5065797567367554 -0.9952389001846313
0.8956169486045837 0.5056036114692688 -0.8640111684799194
0.8924165964126587 0.5046274662017822 -0.7327834367752075
0.8892162442207336 0.5036512613296509 -0.6015557050704956
0.8860158920288086 0.5026751160621643 -0.4703279435634613
0.8828155398368835 0.5016989707946777 -0.3391002118587494
0.8796151876449585 0.5007228255271912 -0.20787246525287628
0.8764148950576782 0.4997466504573822 -0.07664473354816437
0.8732145428657532 0.49877050518989563 0.054583001881837845
0.8700141906738281 0.49779433012008667 0.18581074476242065
0.8668138384819031 0.4968181848526001 0.31703847646713257
0.863613486289978 0.4958420395851135 0.4482662081718445
0.860413134098053 0.49486586451530457 0.5794939398765564
0.8572127819061279 0.493889719247818 0.7107216715812683
0.8540124297142029 0.49291354417800903 0.8419494032859802
0.7781052589416504 0.6677031517028809 -1.1282973289489746
0.7749049067497253 0.6667270064353943 -0.9970695376396179
0.7717045545578003 0.6657508015632629 -0.865841805934906
0.76850426197052 0.6647746562957764 -0.7346140742301941
0.765303909778595 0.6637985110282898 -0.6033863425254822
0.7621035575866699 0.6628223657608032 -0.47215861082077026
0.7589032053947449 0.6618462204933167 -0.34093087911605835
0.7557028532028198 0.6608700156211853 -0.20970313251018524
0.7525025010108948 0.6598938703536987 -0.07847539335489273
0.7493021488189697 0.6589177250862122 0.05275234207510948
0.7461017966270447 0.6579415798187256 0.1839800775051117
0.7429014444351196 0.656965434551239 0.3152078092098236
0.7397010922431946 0.6559892296791077 0.4464355409145355
0.7365007996559143 0.6550130844116211 0.5776633024215698
0.7333004474639893 0.6540369391441345 0.7088910341262817
0.7301000952720642 0.653060793876648 0.8401187658309937
0.6245052218437195 0.7996279001235962 -1.1310619115829468
0.6213048696517944 0.7986517548561096 -0.9998341798782349
0.6181045174598694 0.7976755499839783 -0.868606448173523
0.6149041652679443 0.7966994047164917 -0.737378716468811
0.6117038130760193 0.7957232594490051 -0.6061509847640991
0.6085034608840942 0.7947471141815186 -0.4749232232570648
0.6053031086921692 0.793770968914032 -0.3436954915523529
0.6021028161048889 0.7927947640419006 -0.2124677449464798
0.5989024639129639 0.7918186187744141 -0.08124001324176788
0.5957021117210388 0.7908424735069275 0.04998772591352463
0.5925017595291138 0.7898663282394409 0.18121546506881714
0.5893014073371887 0.7888901829719543 0.31244319677352905
0.5861010551452637 0.787913978099823 0.44367092847824097
0.5829007029533386 0.7869378328323364 0.5748986601829529
0.5797003507614136 0.7859616875648499 0.7061263918876648
0.5764999985694885 0.7849855422973633 0.8373541235923767
0.4475058615207672 0.8979291319847107 -1.134647250175476
0.44430550932884216 0.8969529867172241 -1.0034195184707642
0.4411051571369171 0.8959768414497375 -0.8721917867660522
0.43790483474731445 0.8950006365776062 -0.7409640550613403
0.4347044825553894 0.8940244913101196 -0.6097363233566284
0.43150413036346436 0.8930483460426331 -0.4785085916519165
0.4283037781715393 0.8920722007751465 -0.3472808599472046
0.42510342597961426 0.8910960555076599 -0.21605312824249268
0.4219031035900116 0.8901198506355286 -0.08482539653778076
0.41870275139808655 0.889143705368042 0.04640234261751175
0.4155023992061615 0.8881675601005554 0.17763008177280426
0.41230204701423645 0.8871914148330688 0.30885782837867737
0.4091016948223114 0.8862152695655823 0.4400855600833893
0.40590137243270874 0.8852390646934509 0.5713132619857788
0.4027010202407837 0.8842629194259644 0.7025410532951355
0.39950066804885864 0.8832867741584778 0.8337687849998474
0.2543536126613617 0.9585824012756348 -1.1389065980911255
0.25115326046943665 0.9576062560081482 -1.0076788663864136
0.2479529082775116 0.9566301107406616 -0.8764511942863464
0.24475257098674774 0.955653965473175 -0.7452234625816345
0.2415522187948227 0.9546778202056885 -0.6139957308769226
0.23835186660289764 0.9537016153335571 -0.4827679693698883
0.2351515293121338 0.9527254700660706 -0.3515402376651764
0.23195117712020874 0.951749324798584 -0.22031249105930328
0.22875083982944489 0.9507731795310974 -0.08908475935459137
0.22555048763751984 0.9497970342636108 0.04214297607541084
0.2223501354455948 0.9488208293914795 0.17337071895599365
0.21914979815483093 0.9478446841239929 0.30459845066070557
0.21594944596290588 0.9468685388565063 0.4358261823654175
0.21274910867214203 0.9458923935890198 0.5670539140701294
0.20954875648021698 0.9449162483215332 0.6982816457748413
0.20634840428829193 0.9439400434494019 0.8295093774795532
0.05295610427856445 0.9791045784950256 -1.1436656713485718
0.04975575953722 0.9781284332275391 -1.0124379396438599
0.04655541107058525 0.9771522879600525 -0.8812101483345032
0.0433550663292408 0.9761761426925659 -0.7499824166297913
0.04015471786260605 0.9751999974250793 -0.6187546849250793
0.0369543731212616 0.974223792552948 -0.48752695322036743
0.033754028379917145 0.9732476472854614 -0.35629919171333313
0.030553679913282394 0.9722715020179749 -0.22507146000862122
0.027353335171937943 0.9712953567504883 -0.0938437283039093
0.02415298856794834 0.9703192114830017 0.03738400712609291
0.02095264196395874 0.9693430662155151 0.16861175000667572
0.01775229535996914 0.9683668613433838 0.29983946681022644
0.014551949687302113 0.9673907160758972 0.43106722831726074
0.011351603083312511 0.9664145708084106 0.5622949600219727
0.00815125647932291 0.9654384255409241 0.6935226917266846
0.0049509103409945965 0.9644622802734375 0.8247504234313965
