ply
format ascii 1.0
element vertex 512
property float x
property float y
property float z
end_header
0.00358736515045166 -1.0025075674057007 0.982681930065155
0.0031578540802001953 -1.002217411994934 0.8495510220527649
0.002728342777118087 -1.0019272565841675 0.71642005443573
0.002298831706866622 -1.0016371011734009 0.5832891464233398
0.0018693204037845135 -1.0013470649719238 0.4501582086086273
0.0014398092171177268 -1.0010569095611572 0.3170272707939148
0.0010102980304509401 -1.0007667541503906 0.18389633297920227
0.0005807868437841535 -1.000476598739624 0.05076540634036064
0.00015127568622119725 -1.0001864433288574 -0.08236552774906158
-0.0002782355004455894 -0.9998962879180908 -0.21549645066261292
-0.0007077466580085456 -0.999606192111969 -0.34862738847732544
-0.0011372579028829932 -0.9993160367012024 -0.48175832629203796
-0.00156676908954978 -0.9990258812904358 -0.6148892641067505
-0.0019962801598012447 -0.9987357258796692 -0.7480201721191406
-0.0024257914628833532 -0.9984456300735474 -0.8811511397361755
-0.002855302533134818 -0.9981554746627808 -1.0142821073532104
-0.19780611991882324 -0.9820291996002197 0.9833763241767883
-0.1982356309890747 -0.9817391037940979 0.8502453565597534
-0.19866514205932617 -0.9814489483833313 0.7171144485473633
-0.19909465312957764 -0.9811587929725647 0.5839834809303284
-0.1995241641998291 -0.9808686375617981 0.45085257291793823
-0.19995367527008057 -0.9805785417556763 0.3177216351032257
-0.20038318634033203 -0.9802883863449097 0.18459071218967438
-0.2008126974105835 -0.9799982309341431 0.05145977810025215
-0.20124220848083496 -0.9797080755233765 -0.08167115598917007
-0.20167171955108643 -0.9794179797172546 -0.214802086353302
-0.2021012306213379 -0.979127824306488 -0.3479330241680145
-0.20253074169158936 -0.9788376688957214 -0.48106396198272705
-0.20296025276184082 -0.9785475134849548 -0.6141948699951172
-0.20338976383209229 -0.978257417678833 -0.7473258376121521
-0.20381927490234375 -0.9779672622680664 -0.8804567456245422
-0.20424878597259521 -0.9776771068572998 -1.0135877132415771
-0.39095452427864075 -0.9214296936988831 0.9841315150260925
-0.3913840353488922 -0.9211395382881165 0.8510006070137024
-0.3918135464191437 -0.9208494424819946 0.7178696393966675
-0.39224305748939514 -0.920559287071228 0.5847387313842773
-0.3926725685596466 -0.9202691316604614 0.4516077935695648
-0.39310207962989807 -0.9199789762496948 0.3184768557548523
-0.39353159070014954 -0.919688880443573 0.18534591794013977
-0.393961101770401 -0.9193987250328064 0.05221498757600784
-0.39439061284065247 -0.9191085696220398 -0.08091594278812408
-0.39482012391090393 -0.9188184142112732 -0.2140468806028366
-0.3952496349811554 -0.9185283184051514 -0.34717780351638794
-0.39567914605140686 -0.9182381629943848 -0.48030874133110046
-0.3961086571216583 -0.9179480075836182 -0.613439679145813
-0.3965381681919098 -0.9176578521728516 -0.7465705871582031
-0.39696767926216125 -0.9173677563667297 -0.879701554775238
-0.3973971903324127 -0.9170776009559631 -1.012832522392273
-0.5679503679275513 -0.8231899738311768 0.984916627407074
-0.5683798789978027 -0.8228998184204102 0.8517857193946838
-0.5688093900680542 -0.8226096630096436 0.7186547517776489
-0.5692389011383057 -0.8223195672035217 0.5855238437652588
-0.5696684122085571 -0.8220294117927551 0.45239290595054626
-0.5700979232788086 -0.8217392563819885 0.31926196813583374
-0.5705274343490601 -0.8214491009712219 0.1861310452222824
-0.5709569454193115 -0.8211590051651001 0.05300011858344078
-0.571386456489563 -0.8208688497543335 -0.08013081550598145
-0.5718159675598145 -0.8205786943435669 -0.21326175332069397
-0.5722454786300659 -0.8202885985374451 -0.3463926911354065
-0.5726749897003174 -0.8199984431266785 -0.47952359914779663
-0.5731045007705688 -0.8197082877159119 -0.6126545667648315
-0.5735340118408203 -0.8194181323051453 -0.7457854747772217
-0.5739635229110718 -0.8191280364990234 -0.8789163827896118
-0.5743930339813232 -0.8188378810882568 -1.012047290802002
-0.7215473651885986 -0.6913319826126099 0.9856995344161987
-0.7219768762588501 -0.6910418272018433 0.8525686264038086
-0.7224063873291016 -0.6907517313957214 0.7194376587867737
-0.722835898399353 -0.6904615759849548 0.5863067507743835
-0.7232654094696045 -0.6901714205741882 0.453175812959671
-0.723694920539856 -0.6898812651634216 0.3200448751449585
-0.7241244316101074 -0.6895911693572998 0.18691395223140717
-0.7245539426803589 -0.6893010139465332 0.05378302186727524
-0.7249834537506104 -0.6890108585357666 -0.07934790849685669
-0.7254129648208618 -0.688720703125 -0.2124788463115692
-0.7258424758911133 -0.6884306073188782 -0.34560978412628174
-0.7262719869613647 -0.6881404519081116 -0.4787406921386719
-0.7267014980316162 -0.687850296497345 -0.6118716597557068
-0.7271310091018677 -0.6875601410865784 -0.7450025677680969
-0.7275605201721191 -0.6872700452804565 -0.8781334757804871
-0.7279900312423706 -0.6869798898696899 -1.011264443397522
-0.8454572558403015 -0.5312539935112 0.9864481687545776
-0.845886766910553 -0.5309638977050781 0.8533172607421875
-0.8463162779808044 -0.5306737422943115 0.7201862931251526
-0.8467457890510559 -0.5303835868835449 0.5870553851127625
-0.8471753001213074 -0.5300934314727783 0.4539244472980499
-0.8476048111915588 -0.5298033356666565 0.3207935094833374
-0.8480343222618103 -0.5295131802558899 0.18766258656978607
-0.8484638333320618 -0.5292230248451233 0.054531652480363846
-0.8488933444023132 -0.5289328694343567 -0.07859928160905838
-0.8493228554725647 -0.5286427736282349 -0.2117302119731903
-0.8497523665428162 -0.5283526182174683 -0.34486114978790283
-0.8501818776130676 -0.5280624628067017 -0.47799208760261536
-0.8506113886833191 -0.5277723073959351 -0.6111230254173279
-0.8510408997535706 -0.5274822115898132 -0.744253933429718
-0.851470410823822 -0.5271920561790466 -0.8773849010467529
-0.8518999218940735 -0.52690190076828 -1.010515809059143
-0.9346071481704712 -0.34950965642929077 0.9871318936347961
-0.9350366592407227 -0.34921953082084656 0.8540009260177612
-0.9354661703109741 -0.34892937541007996 0.7208700180053711
-0.9358956813812256 -0.34863924980163574 0.587739109992981
-0.936325192451477 -0.34834909439086914 0.45460814237594604
-0.9367547035217285 -0.3480589687824249 0.3214772343635559
-0.93718421459198 -0.3477688133716583 0.18834629654884338
-0.9376137256622314 -0.3474786877632141 0.05521535873413086
-0.9380432367324829 -0.3471885323524475 -0.07791557163000107
-0.9384727478027344 -0.3468984067440033 -0.211046501994133
-0.9389022588729858 -0.3466082513332367 -0.3441774249076843
-0.9393317699432373 -0.3463181257247925 -0.47730836272239685
-0.9397612810134888 -0.3460279703140259 -0.6104393005371094
-0.9401907920837402 -0.34573784470558167 -0.7435702085494995
-0.9406203031539917 -0.34544768929481506 -0.8767011761665344
-0.9410498142242432 -0.34515756368637085 -1.0098321437835693
-0.9853472709655762 -0.15353959798812866 0.9877226948738098
-0.9857767820358276 -0.15324945747852325 0.8545917272567749
-0.9862062931060791 -0.15295931696891785 0.7214608192443848
-0.9866358041763306 -0.15266917645931244 0.5883298516273499
-0.987065315246582 -0.15237903594970703 0.4551989436149597
-0.9874948263168335 -0.15208889544010162 0.3220680058002472
-0.987924337387085 -0.15179875493049622 0.18893708288669586
-0.9883538484573364 -0.1515086144208908 0.05580614507198334
-0.9887833595275879 -0.1512184739112854 -0.07732478529214859
-0.9892128705978394 -0.15092833340168 -0.21045571565628052
-0.9896423816680908 -0.15063819289207458 -0.34358665347099304
-0.9900718927383423 -0.15034805238246918 -0.47671759128570557
-0.9905014038085938 -0.15005791187286377 -0.6098484992980957
-0.9909309148788452 -0.14976777136325836 -0.7429794669151306
-0.9913604259490967 -0.14947763085365295 -0.8761103749275208
-0.9917899370193481 -0.14918749034404755 -1.0092413425445557
-0.9956002831459045 0.048633184283971786 0.9881963729858398
-0.996029794216156 0.048923324793577194 0.8550654053688049
-0.9964593052864075 0.0492134653031826 0.7219344973564148
-0.9968888163566589 0.04950360581278801 0.5888035893440247
-0.9973183274269104 0.04979374632239342 0.45567262172698975
-0.9977478384971619 0.050083886831998825 0.3225416839122772
-0.9981773495674133 0.05037402734160423 0.1894107609987259
-0.9986068606376648 0.05066416785120964 0.05627983435988426
-0.9990363717079163 0.05095430836081505 -0.07685109972953796
-0.9994658827781677 0.051244448870420456 -0.2099820375442505
-0.9998953938484192 0.051534589380025864 -0.343112975358963
-1.0003249645233154 0.05182472988963127 -0.47624388337135315
-1.000754475593567 0.05211487039923668 -0.6093748211860657
-1.0011839866638184 0.05240501090884209 -0.7425057888031006
-1.0016134977340698 0.052695151418447495 -0.8756366968154907
-1.0020430088043213 0.0529852919280529 -1.0087676048278809
-0.964946448802948 0.24873168766498566 0.9885335564613342
-0.9653759598731995 0.24902182817459106 0.8554025888442993
-0.9658054709434509 0.24931196868419647 0.7222716808319092
-0.9662349820137024 0.24960210919380188 0.589140772819519
-0.9666644930839539 0.2498922497034073 0.45600980520248413
-0.9670940041542053 0.2501823902130127 0.322878897190094
-0.9675235152244568 0.2504725158214569 0.18974795937538147
-0.9679530262947083 0.2507626712322235 0.056617025285959244
-0.9683825373649597 0.2510527968406677 -0.07651390880346298
-0.9688120484352112 0.2513429522514343 -0.2096448391675949
-0.9692415595054626 0.25163307785987854 -0.34277576208114624
-0.9696710705757141 0.25192323327064514 -0.47590669989585876
-0.9701005816459656 0.25221335887908936 -0.6090376377105713
-0.970530092716217 0.25250351428985596 -0.7421685457229614
-0.9709596037864685 0.25279363989830017 -0.8752995133399963
-0.97138911485672 0.2530837953090668 -1.0084304809570312
-0.8946406841278076 0.43856385350227356 0.9887204170227051
-0.8950701951980591 0.4388539791107178 0.8555895090103149
-0.8954997062683105 0.4391441345214844 0.7224586009979248
-0.895929217338562 0.4394342601299286 0.5893276333808899
-0.8963587284088135 0.4397244155406952 0.45619669556617737
-0.8967882990837097 0.4400145411491394 0.32306578755378723
-0.8972178101539612 0.440304696559906 0.1899348497390747
-0.8976473212242126 0.4405948221683502 0.05680391564965248
-0.8980768322944641 0.4408849775791168 -0.07632701843976974
-0.8985063433647156 0.44117510318756104 -0.20945794880390167
-0.898935854434967 0.44146525859832764 -0.342588871717453
-0.8993653655052185 0.44175538420677185 -0.4757198095321655
-0.89979487657547 0.44204553961753845 -0.6088507175445557
-0.9002243876457214 0.44233566522598267 -0.7419816851615906
-0.9006538987159729 0.44262582063674927 -0.8751125931739807
-0.9010834097862244 0.4429159462451935 -1.0082435607910156
-0.7875614166259766 0.610357940196991 0.9887493848800659
-0.787990927696228 0.6106480360031128 0.855618417263031
-0.7884204387664795 0.6109381914138794 0.7224875092506409
-0.788849949836731 0.611228346824646 0.5893566012382507
-0.7892794609069824 0.6115185022354126 0.4562256634235382
-0.7897089719772339 0.6118085980415344 0.3230947256088257
-0.7901384830474854 0.612098753452301 0.18996378779411316
-0.7905679941177368 0.6123889088630676 0.05683285370469093
-0.7909975051879883 0.6126790642738342 -0.07629808038473129
-0.7914270162582397 0.612969160079956 -0.20942901074886322
-0.7918565273284912 0.6132593154907227 -0.34255993366241455
-0.7922860383987427 0.6135494709014893 -0.4756908714771271
-0.7927155494689941 0.6138396263122559 -0.6088218092918396
-0.7931450605392456 0.6141297221183777 -0.7419527173042297
-0.7935745716094971 0.6144198775291443 -0.8750836849212646
-0.7940040826797485 0.6147100329399109 -1.0082145929336548
-0.6480923891067505 0.757080614566803 0.9886192083358765
-0.648521900177002 0.7573707699775696 0.8554882407188416
-0.6489514112472534 0.7576609253883362 0.7223573327064514
-0.6493809223175049 0.7579510807991028 0.5892263650894165
-0.6498104333877563 0.7582411766052246 0.45609545707702637
-0.6502399444580078 0.7585313320159912 0.32296451926231384
-0.6506694555282593 0.7588214874267578 0.18983358144760132
-0.6510989665985107 0.7591116428375244 0.05670265480875969
-0.6515284776687622 0.7594017386436462 -0.07642827928066254
-0.6519579887390137 0.7596918940544128 -0.20955920219421387
-0.6523874998092651 0.7599820494651794 -0.3426901400089264
-0.6528170108795166 0.760272204875946 -0.4758210778236389
-0.6532465219497681 0.7605623006820679 -0.608951985836029
-0.6536760330200195 0.7608524560928345 -0.742082953453064
-0.654105544090271 0.7611426115036011 -0.8752138614654541
-0.6545350551605225 0.7614327669143677 -1.0083447694778442
-0.4819435477256775 0.8727251291275024 0.9883351922035217
-0.48237305879592896 0.873015284538269 0.8552042245864868
-0.4828025698661804 0.8733054399490356 0.7220733165740967
-0.4832320809364319 0.8735955953598022 0.5889424085617065
-0.48366159200668335 0.8738856911659241 0.45581144094467163
-0.4840911030769348 0.8741758465766907 0.3226805031299591
-0.4845206141471863 0.8744660019874573 0.18954958021640778
-0.48495012521743774 0.8747561573982239 0.05641864985227585
-0.4853796362876892 0.8750462532043457 -0.07671228051185608
-0.4858091473579407 0.8753364086151123 -0.2098432183265686
-0.48623865842819214 0.8756265640258789 -0.34297415614128113
-0.4866681694984436 0.8759167194366455 -0.47610506415367126
-0.48709768056869507 0.8762068152427673 -0.6092360019683838
-0.48752719163894653 0.8764969706535339 -0.7423669695854187
-0.487956702709198 0.8767871260643005 -0.8754978775978088
-0.48838621377944946 0.8770772814750671 -1.0086288452148438
-0.29591697454452515 0.9525569677352905 0.9879090189933777
-0.2963464856147766 0.9528471231460571 0.8547780513763428
-0.2967759966850281 0.9531372785568237 0.7216471433639526
-0.29720550775527954 0.9534273743629456 0.5885161757469177
-0.297635018825531 0.9537175297737122 0.4553852677345276
-0.29806452989578247 0.9540076851844788 0.32225432991981506
-0.29849404096603394 0.9542978405952454 0.18912340700626373
-0.2989235520362854 0.9545879364013672 0.05599246919155121
-0.29935306310653687 0.9548780918121338 -0.07713846117258072
-0.29978257417678833 0.9551682472229004 -0.21026939153671265
-0.3002120852470398 0.955458402633667 -0.34340032935142517
-0.30064159631729126 0.9557484984397888 -0.4765312671661377
-0.3010711073875427 0.9560386538505554 -0.6096621751785278
-0.3015006184577942 0.956328809261322 -0.7427931427955627
-0.30193012952804565 0.9566189646720886 -0.8759240508079529
-0.3023596405982971 0.9569090604782104 -1.0090550184249878
-0.09762868285179138 0.9933077692985535 0.9873580932617188
-0.09805819392204285 0.9935979247093201 0.8542271256446838
-0.09848770499229431 0.9938880205154419 0.7210962176322937
-0.09891721606254578 0.9941781759262085 0.5879653096199036
-0.09934672713279724 0.9944683313369751 0.45483434200286865
-0.0997762382030487 0.9947584867477417 0.3217034339904785
-0.10020574927330017 0.9950485825538635 0.1885724812746048
-0.10063526034355164 0.9953387379646301 0.05544155463576317
-0.1010647714138031 0.9956288933753967 -0.07768937945365906
-0.10149428248405457 0.9959190487861633 -0.2108203023672104
-0.10192379355430603 0.9962091445922852 -0.3439512550830841
-0.1023533046245575 0.9964993000030518 -0.47708216309547424
-0.10278281569480896 0.9967894554138184 -0.6102131009101868
-0.10321232676506042 0.997079610824585 -0.7433440089225769
-0.10364183783531189 0.9973697066307068 -0.8764749765396118
-0.10407134890556335 0.9976598620414734 -1.009605884552002
0.1048034131526947 0.9933091998100281 0.9867050051689148
0.10437390208244324 0.9935993552207947 0.8535740375518799
0.10394439101219177 0.9938894510269165 0.7204431295394897
0.10351487994194031 0.9941796064376831 0.5873122215270996
0.10308536887168884 0.9944697618484497 0.4541812539100647
0.10265585780143738 0.9947598576545715 0.3210503160953522
0.10222634673118591 0.9950500130653381 0.18791939318180084
0.10179683566093445 0.9953401684761047 0.05478846654295921
0.10136732459068298 0.9956303238868713 -0.07834246754646301
0.10093781352043152 0.9959204196929932 -0.21147339046001434
0.10050830245018005 0.9962105751037598 -0.34460434317588806
0.10007879137992859 0.9965007305145264 -0.4777352511882782
0.09964928030967712 0.996790885925293 -0.6108661890029907
0.09921976923942566 0.9970809817314148 -0.7439970970153809
0.0987902581691742 0.9973711371421814 -0.8771280646324158
0.09836074709892273 0.997661292552948 -1.0102590322494507
0.30309170484542847 0.9525611996650696 0.9859764575958252
0.302662193775177 0.9528512954711914 0.8528455495834351
0.30223268270492554 0.953141450881958 0.7197145819664001
0.3018031716346741 0.9534316062927246 0.58658367395401
0.3013736605644226 0.9537217617034912 0.4534527361392975
0.30094414949417114 0.954011857509613 0.32032179832458496
0.3005146384239197 0.9543020129203796 0.18719087541103363
0.3000851273536682 0.9545921683311462 0.054059937596321106
0.29965561628341675 0.9548823237419128 -0.07907099276781082
0.2992261052131653 0.9551724195480347 -0.21220192313194275
0.2987965941429138 0.9554625749588013 -0.3453328609466553
0.29836708307266235 0.9557527303695679 -0.4784637987613678
0.2979375720024109 0.9560428857803345 -0.6115947365760803
0.2975080609321594 0.9563329815864563 -0.7447256445884705
0.29707854986190796 0.9566231369972229 -0.8778566122055054
0.2966490387916565 0.9569132924079895 -1.0109875202178955
0.4891182780265808 0.8727319836616516 0.9852023124694824
0.48868876695632935 0.8730221390724182 0.8520714044570923
0.4882592558860779 0.87331223487854 0.7189404368400574
0.4878297448158264 0.8736023902893066 0.5858095288276672
0.48740023374557495 0.8738925457000732 0.4526785910129547
0.4869707226753235 0.8741827011108398 0.3195476531982422
0.486541211605072 0.8744727969169617 0.18641673028469086
0.48611170053482056 0.8747629523277283 0.05328579619526863
0.4856821894645691 0.8750531077384949 -0.0798451378941536
0.4852526783943176 0.8753432631492615 -0.21297606825828552
0.48482316732406616 0.8756333589553833 -0.34610700607299805
0.4843936562538147 0.8759235143661499 -0.47923794388771057
0.48396414518356323 0.8762136697769165 -0.6123688817024231
0.48353463411331177 0.8765038251876831 -0.7454997897148132
0.4831051230430603 0.8767939209938049 -0.8786307573318481
0.48267561197280884 0.8770840764045715 -1.0117616653442383
0.6552671194076538 0.7570897936820984 0.984414279460907
0.6548376083374023 0.757379949092865 0.8512833118438721
0.6544080972671509 0.7576701045036316 0.7181524038314819
0.6539785861968994 0.7579602003097534 0.585021436214447
0.653549075126648 0.75825035572052 0.4518905282020569
0.6531195640563965 0.7585405111312866 0.31875959038734436
0.652690052986145 0.7588306665420532 0.18562866747379303
0.6522605419158936 0.759120762348175 0.0524977371096611
0.6518310308456421 0.7594109177589417 -0.08063319325447083
0.6514015197753906 0.7597010731697083 -0.21376413106918335
0.6509720087051392 0.7599912285804749 -0.3468950688838959
0.6505424976348877 0.7602813243865967 -0.4800260066986084
0.6501129865646362 0.7605714797973633 -0.6131569147109985
0.6496834754943848 0.7608616352081299 -0.7462878823280334
0.6492539644241333 0.7611517906188965 -0.8794187903404236
0.6488244533538818 0.7614418864250183 -1.0125497579574585
0.7947361469268799 0.6103690266609192 0.9836445450782776
0.7943066358566284 0.6106591820716858 0.8505136370658875
0.793877124786377 0.6109493374824524 0.7173826694488525
0.7934476137161255 0.611239492893219 0.5842517614364624
0.793018102645874 0.6115295886993408 0.4511208236217499
0.7925885915756226 0.6118197441101074 0.31798988580703735
0.7921590805053711 0.612109899520874 0.18485894799232483
0.7917295694351196 0.6124000549316406 0.0517280176281929
0.7913000583648682 0.6126901507377625 -0.08140291273593903
0.7908705472946167 0.612980306148529 -0.21453385055065155
0.7904410362243652 0.6132704615592957 -0.3476647734642029
0.7900115251541138 0.6135606169700623 -0.4807957112789154
0.7895820140838623 0.6138507127761841 -0.6139266490936279
0.7891525030136108 0.6141408681869507 -0.7470575571060181
0.7887229919433594 0.6144310235977173 -0.880188524723053
0.7882934808731079 0.6147211790084839 -1.013319492340088
0.9018154144287109 0.43857645988464355 0.9829246997833252
0.9013859033584595 0.43886661529541016 0.8497937321662903
0.900956392288208 0.43915674090385437 0.7166628241539001
0.9005268812179565 0.43944689631462097 0.58353191614151
0.9000973701477051 0.4397370219230652 0.4504009485244751
0.8996678590774536 0.4400271773338318 0.3172700107097626
0.8992383480072021 0.440317302942276 0.18413908779621124
0.8988088369369507 0.4406074583530426 0.051008157432079315
0.8983793258666992 0.4408975839614868 -0.08212277293205261
0.8979498147964478 0.4411877393722534 -0.21525371074676514
0.8975203037261963 0.44147786498069763 -0.34838464856147766
0.8970907926559448 0.44176802039146423 -0.4815155565738678
0.8966612815856934 0.44205814599990845 -0.6146464943885803
0.8962317705154419 0.44234830141067505 -0.7477774620056152
0.8958022594451904 0.44263842701911926 -0.8809083700180054
0.895372748374939 0.44292858242988586 -1.0140392780303955
0.9721211791038513 0.24874530732631683 0.9822841286659241
0.9716916680335999 0.24903544783592224 0.8491532206535339
0.9712621569633484 0.24932558834552765 0.7160223126411438
0.9708326458930969 0.24961572885513306 0.5828913450241089
0.9704031348228455 0.24990586936473846 0.44976040720939636
0.969973623752594 0.25019600987434387 0.3166294991970062
0.9695441126823425 0.2504861354827881 0.1834985613822937
0.9691146016120911 0.2507762908935547 0.05036762356758118
0.9686850905418396 0.2510664165019989 -0.08276330679655075
0.9682555794715881 0.2513565719127655 -0.21589423716068268
0.9678260684013367 0.2516466975212097 -0.349025160074234
0.9673965573310852 0.2519368529319763 -0.48215609788894653
0.9669670462608337 0.25222697854042053 -0.6152870655059814
0.9665375351905823 0.25251713395118713 -0.7484179735183716
0.9661080241203308 0.25280725955963135 -0.8815488815307617
0.9656785130500793 0.25309741497039795 -1.0146797895431519
1.0027750730514526 0.048647236078977585 0.9817491769790649
1.0023455619812012 0.04893737658858299 0.84861820936203
1.0019160509109497 0.0492275170981884 0.7154873013496399
1.0014865398406982 0.04951765760779381 0.5823563933372498
1.0010570287704468 0.049807798117399216 0.44922542572021484
1.0006275177001953 0.05009793862700462 0.3160945177078247
1.0001980066299438 0.05038807913661003 0.18296357989311218
0.9997684359550476 0.05067821964621544 0.04983264207839966
0.9993389248847961 0.05096836015582085 -0.08329828828573227
0.9989094138145447 0.051258500665426254 -0.2164292186498642
0.9984799027442932 0.05154864117503166 -0.3495601415634155
0.9980503916740417 0.05183878168463707 -0.48269107937812805
0.9976208806037903 0.05212892219424248 -0.6158220171928406
0.9971913695335388 0.052419062703847885 -0.7489529252052307
0.9967618584632874 0.05270920321345329 -0.8820838928222656
0.9963323473930359 0.0529993437230587 -1.0152148008346558
0.9925220012664795 -0.1535256803035736 0.9813416600227356
0.992092490196228 -0.1532355397939682 0.8482106924057007
0.9916629791259766 -0.1529453992843628 0.7150797843933105
0.9912334680557251 -0.15265525877475739 0.5819488167762756
0.9908039569854736 -0.15236511826515198 0.4488179087638855
0.9903744459152222 -0.15207497775554657 0.315686970949173
0.9899449348449707 -0.15178483724594116 0.18255604803562164
0.9895154237747192 -0.15149469673633575 0.04942511394619942
0.9890859127044678 -0.15120455622673035 -0.08370582014322281
0.9886564016342163 -0.15091441571712494 -0.21683675050735474
0.9882268905639648 -0.15062427520751953 -0.34996768832206726
0.9877973794937134 -0.15033413469791412 -0.4830986261367798
0.9873678684234619 -0.15004399418830872 -0.6162295341491699
0.9869383573532104 -0.1497538536787033 -0.7493605017662048
0.986508846282959 -0.1494637131690979 -0.882491409778595
0.9860793352127075 -0.1491735726594925 -1.0156223773956299
0.9417818784713745 -0.3494964838027954 0.9810782670974731
0.941352367401123 -0.3492063283920288 0.8479472994804382
0.9409228563308716 -0.3489162027835846 0.7148163914680481
0.9404933452606201 -0.348626047372818 0.5816854238510132
0.9400638341903687 -0.3483359217643738 0.44855451583862305
0.9396343231201172 -0.3480457663536072 0.3154235780239105
0.9392048120498657 -0.34775564074516296 0.1822926551103592
0.9387753009796143 -0.34746548533439636 0.049161721020936966
0.9383457899093628 -0.34717535972595215 -0.08396921306848526
0.9379162788391113 -0.34688520431518555 -0.2171001434326172
0.9374867677688599 -0.34659507870674133 -0.3502310812473297
0.9370572566986084 -0.34630492329597473 -0.48336201906204224
0.9366277456283569 -0.3460147976875305 -0.6164929270744324
0.9361982345581055 -0.3457246422767639 -0.7496238946914673
0.935768723487854 -0.3454345166683197 -0.8827548027038574
0.9353392124176025 -0.3451443612575531 -1.0158857107162476
0.8526319861412048 -0.5312420725822449 0.9809697866439819
0.8522024750709534 -0.5309519171714783 0.847838819026947
0.8517729640007019 -0.5306617617607117 0.7147079110145569
0.8513434529304504 -0.5303716659545898 0.5815770030021667
0.850913941860199 -0.5300815105438232 0.44844603538513184
0.8504844307899475 -0.5297913551330566 0.3153151273727417
0.850054919719696 -0.52950119972229 0.18218418955802917
0.8496254086494446 -0.5292111039161682 0.04905325174331665
0.8491958975791931 -0.5289209485054016 -0.08407767862081528
0.8487663865089417 -0.528630793094635 -0.2172086089849472
0.8483368754386902 -0.5283406972885132 -0.35033953189849854
0.8479073643684387 -0.5280505418777466 -0.48347046971321106
0.8474778532981873 -0.52776038646698 -0.6166014075279236
0.8470483422279358 -0.5274702310562134 -0.7497323155403137
0.8466188311576843 -0.5271801352500916 -0.8828632831573486
0.8461893200874329 -0.526889979839325 -1.0159941911697388
0.728722095489502 -0.6913217902183533 0.9810206890106201
0.7282925844192505 -0.6910316348075867 0.8478897213935852
0.727863073348999 -0.6907414793968201 0.7147588133811951
0.7274335622787476 -0.6904513835906982 0.5816278457641602
0.7270040512084961 -0.6901612281799316 0.44849693775177
0.7265745401382446 -0.689871072769165 0.3153659999370575
0.7261450290679932 -0.6895809173583984 0.18223507702350616
0.7257155179977417 -0.6892908215522766 0.04910413920879364
0.7252860069274902 -0.68900066614151 -0.08402679115533829
0.7248564958572388 -0.6887105107307434 -0.21715772151947021
0.7244269847869873 -0.6884203553199768 -0.35028865933418274
0.7239974737167358 -0.688130259513855 -0.48341959714889526
0.7235679626464844 -0.6878401041030884 -0.6165505051612854
0.7231384515762329 -0.6875499486923218 -0.7496814727783203
0.7227089405059814 -0.6872597932815552 -0.8828123807907104
0.72227942943573 -0.6869696974754333 -1.0159432888031006
0.5751250982284546 -0.8231819272041321 0.9812288284301758
0.5746955871582031 -0.8228917717933655 0.8480979204177856
0.5742660760879517 -0.8226016759872437 0.7149669528007507
0.5738365650177002 -0.822311520576477 0.5818360447883606
0.5734070539474487 -0.8220213651657104 0.44870510697364807
0.5729775428771973 -0.8217312097549438 0.31557416915893555
0.5725480318069458 -0.821441113948822 0.18244324624538422
0.5721185207366943 -0.8211509585380554 0.04931230843067169
0.5716890096664429 -0.8208608031272888 -0.08381862193346024
0.5712594985961914 -0.8205706477165222 -0.21694955229759216
0.5708299875259399 -0.8202805519104004 -0.3500804901123047
0.5704004764556885 -0.8199903964996338 -0.4832114279270172
0.569970965385437 -0.8197002410888672 -0.6163423657417297
0.5695414543151855 -0.8194100856781006 -0.7494732737541199
0.5691119432449341 -0.8191199898719788 -0.8826042413711548
0.5686824321746826 -0.8188298344612122 -1.015735149383545
0.39812925457954407 -0.921424150466919 0.9815857410430908
0.3976997435092926 -0.9211339950561523 0.8484548330307007
0.39727023243904114 -0.9208438992500305 0.7153238654136658
0.3968407213687897 -0.9205537438392639 0.5821929574012756
0.3964112102985382 -0.9202635884284973 0.4490620195865631
0.39598169922828674 -0.9199734330177307 0.315931111574173
0.3955521881580353 -0.9196833372116089 0.18280015885829926
0.3951226770877838 -0.9193931818008423 0.049669232219457626
0.39469316601753235 -0.9191030263900757 -0.0834617018699646
0.3942636549472809 -0.9188128709793091 -0.21659262478351593
0.3938341438770294 -0.9185227751731873 -0.34972357749938965
0.39340463280677795 -0.9182326197624207 -0.4828544855117798
0.3929751217365265 -0.917942464351654 -0.6159854531288147
0.392545610666275 -0.9176523089408875 -0.7491163611412048
0.39211609959602356 -0.9173622131347656 -0.882247269153595
0.3916865885257721 -0.917072057723999 -1.0153782367706299
0.20498085021972656 -0.9820263981819153 0.9820768237113953
0.2045513391494751 -0.9817362427711487 0.8489459156990051
0.20412182807922363 -0.9814460873603821 0.7158149480819702
0.20369231700897217 -0.9811559915542603 0.5826840400695801
0.2032628059387207 -0.9808658361434937 0.44955310225486755
0.20283329486846924 -0.980575680732727 0.31642216444015503
0.20240378379821777 -0.9802855253219604 0.1832912266254425
0.2019742727279663 -0.9799954295158386 0.050160299986600876
0.20154476165771484 -0.979705274105072 -0.08297063410282135
0.20111525058746338 -0.9794151186943054 -0.21610155701637268
0.20068573951721191 -0.9791249632835388 -0.3492324948310852
0.20025622844696045 -0.978834867477417 -0.48236343264579773
0.19982671737670898 -0.9785447120666504 -0.6154943704605103
0.19939720630645752 -0.9782545566558838 -0.7486252784729004
0.19896769523620605 -0.9779644012451172 -0.8817562460899353
0.1985381841659546 -0.9776743054389954 -1.0148872137069702
0.00358736515045166 -1.0025075674057007 0.982681930065155
0.0031578540802001953 -1.002217411994934 0.8495510220527649
0.002728342777118087 -1.0019272565841675 0.71642005443573
0.002298831706866622 -1.0016371011734009 0.5832891464233398
0.0018693204037845135 -1.0013470649719238 0.4501582086086273
0.0014398092171177268 -1.0010569095611572 0.3170272707939148
0.0010102980304509401 -1.0007667541503906 0.18389633297920227
0.0005807868437841535 -1.000476598739624 0.05076540634036064
0.00015127568622119725 -1.0001864433288574 -0.08236552774906158
-0.0002782355004455894 -0.9998962879180908 -0.21549645066261292
-0.0007077466580085456 -0.999606192111969 -0.34862738847732544
-0.0011372579028829932 -0.9993160367012024 -0.48175832629203796
-0.00156676908954978 -0.9990258812904358 -0.6148892641067505
-0.0019962801598012447 -0.9987357258796692 -0.7480201721191406
-0.0024257914628833532 -0.9984456300735474 -0.8811511397361755
-0.002855302533134818 -0.9981554746627808 -1.0142821073532104
