ply
format ascii 1.0
element vertex 512
property float x
property float y
property float z
end_header
-0.002187371253967285 1.0025838613510132 -0.9921364188194275
-0.0021873752120882273 1.0025838613510132 -0.8622214794158936
-0.0021873791702091694 1.0025838613510132 -0.7323065996170044
-0.0021873831283301115 1.0025838613510132 -0.6023917198181152
-0.0021873870864510536 1.0025838613510132 -0.4724768102169037
-0.0021873912774026394 1.0025838613510132 -0.34256190061569214
-0.0021873952355235815 1.0025838613510132 -0.21264702081680298
-0.0021873991936445236 1.0025838613510132 -0.08273211866617203
-0.0021874031517654657 1.0025838613510132 0.047182776033878326
-0.002187407109886408 1.0025838613510132 0.17709767818450928
-0.00218741106800735 1.0025838613510132 0.30701255798339844
-0.002187415026128292 1.0025838613510132 0.43692746758461
-0.002187418984249234 1.0025838613510132 0.5668423771858215
-0.00218742317520082 1.0025838613510132 0.6967572569847107
-0.002187427133321762 1.0025838613510132 0.8266721367835999
-0.002187431091442704 1.0025839805603027 0.956587016582489
-0.20361554622650146 0.9821006059646606 -0.9921364188194275
-0.20361554622650146 0.9821006059646606 -0.8622214794158936
-0.20361554622650146 0.9821006059646606 -0.7323065996170044
-0.20361556112766266 0.9821006059646606 -0.6023917198181152
-0.20361556112766266 0.9821006059646606 -0.4724768102169037
-0.20361556112766266 0.9821006655693054 -0.3425619304180145
-0.20361557602882385 0.9821006655693054 -0.21264702081680298
-0.20361557602882385 0.9821006655693054 -0.08273212611675262
-0.20361557602882385 0.9821006655693054 0.04718276858329773
-0.20361557602882385 0.9821006655693054 0.17709766328334808
-0.20361559092998505 0.9821006655693054 0.30701255798339844
-0.20361559092998505 0.9821006655693054 0.43692746758461
-0.20361559092998505 0.9821006655693054 0.5668423771858215
-0.20361559092998505 0.9821006655693054 0.6967572569847107
-0.20361560583114624 0.9821006655693054 0.8266721367835999
-0.20361560583114624 0.9821006655693054 0.956587016582489
-0.396797239780426 0.9214894771575928 -0.9921364188194275
-0.396797239780426 0.9214894771575928 -0.8622214794158936
-0.396797239780426 0.9214894771575928 -0.7323065996170044
-0.396797239780426 0.9214894771575928 -0.6023917198181152
-0.396797239780426 0.9214894771575928 -0.4724768102169037
-0.396797239780426 0.9214894771575928 -0.3425619304180145
-0.396797239780426 0.9214894771575928 -0.21264702081680298
-0.396797239780426 0.9214894771575928 -0.08273213356733322
-0.3967972695827484 0.9214895367622375 0.04718276485800743
-0.3967972695827484 0.9214895367622375 0.17709766328334808
-0.3967972695827484 0.9214895367622375 0.30701255798339844
-0.3967972695827484 0.9214895367622375 0.4369274377822876
-0.3967972695827484 0.9214895367622375 0.5668423771858215
-0.3967972695827484 0.9214895367622375 0.6967572569847107
-0.3967972695827484 0.9214895367622375 0.8266721367835999
-0.3967972993850708 0.9214895367622375 0.956587016582489
-0.5738235116004944 0.8232318758964539 -0.9921364188194275
-0.5738235116004944 0.8232318758964539 -0.8622214794158936
-0.5738235116004944 0.8232318758964539 -0.7323065996170044
-0.5738235712051392 0.8232318758964539 -0.6023917198181152
-0.5738235712051392 0.8232318758964539 -0.4724768102169037
-0.5738235712051392 0.8232318758964539 -0.3425619304180145
-0.5738235712051392 0.8232318758964539 -0.21264702081680298
-0.5738235712051392 0.8232318758964539 -0.08273213356733322
-0.5738235712051392 0.8232318758964539 0.04718276485800743
-0.5738235712051392 0.8232318758964539 0.17709766328334808
-0.5738235712051392 0.8232318758964539 0.30701255798339844
-0.5738235712051392 0.8232318758964539 0.4369274377822876
-0.5738235712051392 0.8232319355010986 0.5668423175811768
-0.5738235712051392 0.8232319355010986 0.6967572569847107
-0.5738235712051392 0.8232319355010986 0.8266721367835999
-0.5738235712051392 0.8232319355010986 0.956587016582489
-0.727446973323822 0.6913504600524902 -0.9921364188194275
-0.727446973323822 0.6913504600524902 -0.8622214794158936
-0.727446973323822 0.6913504600524902 -0.7323065996170044
-0.727446973323822 0.6913504600524902 -0.6023917198181152
-0.7274470329284668 0.6913504600524902 -0.4724768102169037
-0.7274470329284668 0.6913504600524902 -0.3425619304180145
-0.7274470329284668 0.6913504600524902 -0.21264703571796417
-0.7274470329284668 0.6913504600524902 -0.08273213356733322
-0.7274470329284668 0.6913504600524902 0.04718276113271713
-0.7274470329284668 0.6913504600524902 0.17709766328334808
-0.7274470329284668 0.6913504600524902 0.30701255798339844
-0.7274470329284668 0.691350519657135 0.4369274377822876
-0.7274470329284668 0.691350519657135 0.5668423175811768
-0.7274470329284668 0.691350519657135 0.6967572569847107
-0.7274470329284668 0.691350519657135 0.8266721367835999
-0.7274470329284668 0.691350519657135 0.956587016582489
-0.8513782024383545 0.5312444567680359 -0.9921364188194275
-0.8513782620429993 0.5312445163726807 -0.8622214794158936
-0.8513782620429993 0.5312445163726807 -0.7323065996170044
-0.8513782620429993 0.5312445163726807 -0.6023917198181152
-0.8513782620429993 0.5312445163726807 -0.4724768102169037
-0.8513782620429993 0.5312445163726807 -0.3425619304180145
-0.8513782620429993 0.5312445163726807 -0.21264702081680298
-0.8513782620429993 0.5312445163726807 -0.08273213356733322
-0.8513782620429993 0.5312445163726807 0.04718276485800743
-0.8513782620429993 0.5312445163726807 0.17709766328334808
-0.8513782620429993 0.5312445163726807 0.30701255798339844
-0.8513782620429993 0.5312445163726807 0.4369274377822876
-0.8513782620429993 0.5312445163726807 0.5668423175811768
-0.8513782620429993 0.5312445163726807 0.6967572569847107
-0.8513782620429993 0.5312445163726807 0.8266721367835999
-0.8513782620429993 0.5312445163726807 0.956587016582489
-0.9405434727668762 0.3494687080383301 -0.9921364188194275
-0.9405434727668762 0.34946873784065247 -0.8622214794158936
-0.940543532371521 0.34946873784065247 -0.7323065996170044
-0.940543532371521 0.34946873784065247 -0.6023917198181152
-0.940543532371521 0.34946873784065247 -0.4724768102169037
-0.940543532371521 0.34946873784065247 -0.3425619304180145
-0.940543532371521 0.34946873784065247 -0.21264702081680298
-0.940543532371521 0.34946873784065247 -0.08273212611675262
-0.940543532371521 0.34946876764297485 0.04718276858329773
-0.940543532371521 0.34946876764297485 0.17709766328334808
-0.940543532371521 0.34946876764297485 0.30701255798339844
-0.940543532371521 0.34946876764297485 0.43692746758461
-0.940543532371521 0.34946876764297485 0.5668423771858215
-0.940543532371521 0.34946876764297485 0.6967572569847107
-0.940543532371521 0.34946876764297485 0.8266721367835999
-0.940543532371521 0.34946876764297485 0.956587016582489
-0.9912923574447632 0.15346507728099823 -0.9921364188194275
-0.9912923574447632 0.15346509218215942 -0.8622214794158936
-0.9912923574447632 0.15346509218215942 -0.7323065996170044
-0.9912923574447632 0.15346509218215942 -0.6023917198181152
-0.9912923574447632 0.15346510708332062 -0.4724768102169037
-0.9912923574447632 0.15346510708332062 -0.3425619304180145
-0.9912923574447632 0.15346510708332062 -0.21264702081680298
-0.9912923574447632 0.15346510708332062 -0.08273212611675262
-0.991292417049408 0.1534651219844818 0.04718277230858803
-0.991292417049408 0.1534651219844818 0.17709766328334808
-0.991292417049408 0.1534651219844818 0.30701255798339844
-0.991292417049408 0.1534651219844818 0.43692746758461
-0.991292417049408 0.153465136885643 0.5668423771858215
-0.991292417049408 0.153465136885643 0.6967572569847107
-0.991292417049408 0.153465136885643 0.8266721367835999
-0.991292417049408 0.1534651517868042 0.956587016582489
-1.00154709815979 -0.04874201864004135 -0.9921363592147827
-1.00154709815979 -0.04874201491475105 -0.8622214794158936
-1.00154709815979 -0.048742011189460754 -0.7323065996170044
-1.00154709815979 -0.048742007464170456 -0.6023917198181152
-1.00154709815979 -0.04874200001358986 -0.4724768102169037
-1.0015472173690796 -0.04874199628829956 -0.34256190061569214
-1.0015472173690796 -0.04874199256300926 -0.21264702081680298
-1.0015472173690796 -0.048741988837718964 -0.08273211866617203
-1.0015472173690796 -0.048741985112428665 0.047182776033878326
-1.0015472173690796 -0.04874198138713837 0.17709767818450928
-1.0015472173690796 -0.04874197766184807 0.30701255798339844
-1.0015472173690796 -0.04874197393655777 0.43692746758461
-1.0015472173690796 -0.04874197021126747 0.5668423771858215
-1.0015472173690796 -0.04874196648597717 0.6967572569847107
-1.0015472173690796 -0.048741962760686874 0.8266721367835999
-1.0015472173690796 -0.04874195531010628 0.9565870761871338
-0.9708880186080933 -0.24887420237064362 -0.9921363592147827
-0.9708880186080933 -0.24887420237064362 -0.8622214794158936
-0.9708880186080933 -0.24887418746948242 -0.7323065996170044
-0.9708880186080933 -0.24887418746948242 -0.6023917198181152
-0.9708880186080933 -0.24887418746948242 -0.4724768102169037
-0.9708880186080933 -0.24887418746948242 -0.34256190061569214
-0.9708880186080933 -0.24887417256832123 -0.21264700591564178
-0.9708880186080933 -0.24887417256832123 -0.08273211121559143
-0.970888078212738 -0.24887417256832123 0.04718278348445892
-0.970888078212738 -0.24887415766716003 0.17709767818450928
-0.970888078212738 -0.24887415766716003 0.3070125877857208
-0.970888078212738 -0.24887415766716003 0.43692746758461
-0.970888078212738 -0.24887415766716003 0.5668423771858215
-0.970888078212738 -0.24887414276599884 0.6967572569847107
-0.970888078212738 -0.24887414276599884 0.8266721367835999
-0.970888078212738 -0.24887414276599884 0.9565870761871338
-0.9005701541900635 -0.43873801827430725 -0.9921363592147827
-0.9005701541900635 -0.43873801827430725 -0.8622214794158936
-0.9005701541900635 -0.43873801827430725 -0.7323065996170044
-0.9005702137947083 -0.43873801827430725 -0.6023916602134705
-0.9005702137947083 -0.43873801827430725 -0.4724767804145813
-0.9005702137947083 -0.43873801827430725 -0.34256190061569214
-0.9005702137947083 -0.43873801827430725 -0.21264700591564178
-0.9005702137947083 -0.43873798847198486 -0.08273210376501083
-0.9005702137947083 -0.43873798847198486 0.04718279093503952
-0.9005702137947083 -0.43873798847198486 0.17709769308567047
-0.9005702137947083 -0.43873798847198486 0.3070125877857208
-0.9005702137947083 -0.43873798847198486 0.43692746758461
-0.9005702137947083 -0.43873798847198486 0.5668423771858215
-0.9005702137947083 -0.43873798847198486 0.6967572569847107
-0.9005702137947083 -0.43873798847198486 0.8266721963882446
-0.9005702137947083 -0.4387379586696625 0.9565870761871338
-0.793472409248352 -0.6105604767799377 -0.9921363592147827
-0.7934724688529968 -0.6105604767799377 -0.8622214794158936
-0.7934724688529968 -0.6105604767799377 -0.7323065996170044
-0.7934724688529968 -0.610560417175293 -0.6023916602134705
-0.7934724688529968 -0.610560417175293 -0.4724767804145813
-0.7934724688529968 -0.610560417175293 -0.34256190061569214
-0.7934724688529968 -0.610560417175293 -0.2126469910144806
-0.7934724688529968 -0.610560417175293 -0.08273209631443024
-0.7934724688529968 -0.610560417175293 0.047182802110910416
-0.7934724688529968 -0.610560417175293 0.17709769308567047
-0.7934724688529968 -0.610560417175293 0.3070125877857208
-0.7934724688529968 -0.610560417175293 0.4369274973869324
-0.7934724688529968 -0.610560417175293 0.5668423771858215
-0.7934724688529968 -0.610560417175293 0.6967572569847107
-0.7934724688529968 -0.610560417175293 0.8266721963882446
-0.7934724688529968 -0.610560417175293 0.9565870761871338
-0.6539794206619263 -0.7573070526123047 -0.9921363592147827
-0.6539794206619263 -0.7573070526123047 -0.8622214794158936
-0.6539794206619263 -0.7573070526123047 -0.7323065400123596
-0.6539794206619263 -0.7573070526123047 -0.6023916602134705
-0.6539794206619263 -0.7573070526123047 -0.4724767804145813
-0.6539794206619263 -0.7573070526123047 -0.34256187081336975
-0.6539794206619263 -0.7573070526123047 -0.2126469761133194
-0.6539794206619263 -0.7573070526123047 -0.08273208886384964
-0.6539794206619263 -0.7573070526123047 0.04718280956149101
-0.6539794206619263 -0.7573069930076599 0.17709770798683167
-0.6539794206619263 -0.7573069930076599 0.3070125877857208
-0.6539794206619263 -0.7573069930076599 0.4369274973869324
-0.6539794206619263 -0.7573069930076599 0.5668423771858215
-0.6539794206619263 -0.7573069930076599 0.6967573165893555
-0.653979480266571 -0.7573069930076599 0.8266721963882446
-0.653979480266571 -0.7573069930076599 0.9565870761871338
-0.4878019094467163 -0.8729699850082397 -0.9921363592147827
-0.4878019094467163 -0.8729699850082397 -0.8622214794158936
-0.4878019094467163 -0.8729699850082397 -0.7323065400123596
-0.4878019094467163 -0.8729699850082397 -0.6023916602134705
-0.4878019392490387 -0.8729699850082397 -0.4724767506122589
-0.4878019392490387 -0.8729699850082397 -0.34256187081336975
-0.4878019392490387 -0.8729699850082397 -0.2126469761133194
-0.4878019392490387 -0.8729699850082397 -0.08273207396268845
-0.4878019392490387 -0.8729699850082397 0.04718281701207161
-0.4878019392490387 -0.8729699850082397 0.17709770798683167
-0.4878019392490387 -0.8729699850082397 0.3070126175880432
-0.4878019690513611 -0.872969925403595 0.4369274973869324
-0.4878019690513611 -0.872969925403595 0.5668423771858215
-0.4878019690513611 -0.872969925403595 0.6967573165893555
-0.4878019690513611 -0.872969925403595 0.8266721963882446
-0.4878019690513611 -0.872969925403595 0.9565870761871338
-0.3017432987689972 -0.9528140425682068 -0.9921363592147827
-0.3017433285713196 -0.9528140425682068 -0.8622214198112488
-0.3017433285713196 -0.9528140425682068 -0.7323065400123596
-0.3017433285713196 -0.9528140425682068 -0.6023916602134705
-0.3017433285713196 -0.9528140425682068 -0.4724767506122589
-0.3017433285713196 -0.952813982963562 -0.34256187081336975
-0.3017433285713196 -0.952813982963562 -0.2126469612121582
-0.3017433285713196 -0.952813982963562 -0.08273206651210785
-0.3017433285713196 -0.952813982963562 0.047182828187942505
-0.30174335837364197 -0.952813982963562 0.17709772288799286
-0.30174335837364197 -0.952813982963562 0.3070126175880432
-0.30174335837364197 -0.952813982963562 0.43692752718925476
-0.30174335837364197 -0.952813982963562 0.5668424367904663
-0.30174335837364197 -0.952813982963562 0.6967573165893555
-0.30174335837364197 -0.952813982963562 0.8266721963882446
-0.30174335837364197 -0.952813982963562 0.9565870761871338
-0.10342085361480713 -0.9935703277587891 -0.9921363592147827
-0.10342086106538773 -0.9935703277587891 -0.8622214198112488
-0.10342086106538773 -0.9935703277587891 -0.7323065400123596
-0.10342086851596832 -0.9935703277587891 -0.6023916602134705
-0.10342086851596832 -0.9935703277587891 -0.4724767506122589
-0.10342087596654892 -0.9935703277587891 -0.34256184101104736
-0.10342087596654892 -0.9935703277587891 -0.2126469612121582
-0.10342088341712952 -0.9935703277587891 -0.08273205906152725
-0.10342088341712952 -0.9935703277587891 0.0471828356385231
-0.10342089086771011 -0.9935702681541443 0.17709772288799286
-0.10342089086771011 -0.9935702681541443 0.3070126175880432
-0.10342089831829071 -0.9935702681541443 0.43692752718925476
-0.10342090576887131 -0.9935702681541443 0.5668424367904663
-0.10342090576887131 -0.9935702681541443 0.6967573165893555
-0.1034209132194519 -0.9935702681541443 0.8266721963882446
-0.1034209132194519 -0.9935702681541443 0.9565870761871338
0.09904611110687256 -0.9935703277587891 -0.9921362996101379
0.09904611110687256 -0.9935703277587891 -0.8622214198112488
0.09904610365629196 -0.9935703277587891 -0.7323065400123596
0.09904610365629196 -0.9935703277587891 -0.6023916602134705
0.09904609620571136 -0.9935703277587891 -0.4724767506122589
0.09904608875513077 -0.9935703277587891 -0.34256184101104736
0.09904608875513077 -0.9935703277587891 -0.212646946310997
0.09904608130455017 -0.9935703277587891 -0.08273205161094666
0.09904608130455017 -0.9935703277587891 0.0471828393638134
0.09904607385396957 -0.9935702681541443 0.17709773778915405
0.09904607385396957 -0.9935702681541443 0.3070126175880432
0.09904606640338898 -0.9935702681541443 0.43692752718925476
0.09904606640338898 -0.9935702681541443 0.5668424367904663
0.09904605895280838 -0.9935702681541443 0.6967573165893555
0.09904605895280838 -0.9935702681541443 0.8266721963882446
0.09904605150222778 -0.9935702681541443 0.9565871357917786
0.2973685562610626 -0.9528140425682068 -0.9921362996101379
0.2973685562610626 -0.9528140425682068 -0.8622214198112488
0.2973685562610626 -0.9528140425682068 -0.7323065400123596
0.2973685562610626 -0.9528140425682068 -0.6023916602134705
0.2973685562610626 -0.9528140425682068 -0.4724767506122589
0.2973685562610626 -0.952813982963562 -0.34256184101104736
0.2973685562610626 -0.952813982963562 -0.212646946310997
0.29736852645874023 -0.952813982963562 -0.08273205161094666
0.29736852645874023 -0.952813982963562 0.047182846814394
0.29736852645874023 -0.952813982963562 0.17709773778915405
0.29736852645874023 -0.952813982963562 0.3070126473903656
0.29736852645874023 -0.952813982963562 0.43692752718925476
0.29736852645874023 -0.952813982963562 0.5668424367904663
0.29736852645874023 -0.952813982963562 0.6967573165893555
0.29736852645874023 -0.952813982963562 0.8266721963882446
0.29736849665641785 -0.952813982963562 0.9565871357917786
0.48342716693878174 -0.8729699850082397 -0.9921362996101379
0.48342716693878174 -0.8729699850082397 -0.8622214198112488
0.48342716693878174 -0.8729699850082397 -0.7323065400123596
0.48342716693878174 -0.8729699850082397 -0.6023916006088257
0.48342716693878174 -0.8729699850082397 -0.4724767208099365
0.48342713713645935 -0.8729699850082397 -0.34256184101104736
0.48342713713645935 -0.8729699850082397 -0.212646946310997
0.48342713713645935 -0.8729699850082397 -0.08273204416036606
0.48342713713645935 -0.8729699850082397 0.047182846814394
0.48342713713645935 -0.8729699850082397 0.17709773778915405
0.48342713713645935 -0.8729699850082397 0.3070126473903656
0.48342713713645935 -0.872969925403595 0.43692752718925476
0.48342710733413696 -0.872969925403595 0.5668424367904663
0.48342710733413696 -0.872969925403595 0.6967573165893555
0.48342710733413696 -0.872969925403595 0.8266721963882446
0.48342710733413696 -0.872969925403595 0.9565871357917786
0.6496046781539917 -0.7573070526123047 -0.9921362996101379
0.6496046781539917 -0.7573070526123047 -0.8622214198112488
0.6496046185493469 -0.7573070526123047 -0.7323065400123596
0.6496046185493469 -0.7573070526123047 -0.6023916006088257
0.6496046185493469 -0.7573070526123047 -0.4724767208099365
0.6496046185493469 -0.7573070526123047 -0.34256184101104736
0.6496046185493469 -0.7573070526123047 -0.212646946310997
0.6496046185493469 -0.7573070526123047 -0.08273204416036606
0.6496046185493469 -0.7573070526123047 0.047182850539684296
0.6496046185493469 -0.7573069930076599 0.17709775269031525
0.6496046185493469 -0.7573069930076599 0.3070126473903656
0.6496046185493469 -0.7573069930076599 0.43692752718925476
0.6496046185493469 -0.7573069930076599 0.5668424367904663
0.6496046185493469 -0.7573069930076599 0.6967573165893555
0.6496046185493469 -0.7573069930076599 0.8266721963882446
0.6496046185493469 -0.7573069930076599 0.9565871357917786
0.7890976667404175 -0.6105604767799377 -0.9921362996101379
0.7890976667404175 -0.6105604767799377 -0.8622214198112488
0.7890976667404175 -0.6105604767799377 -0.7323065400123596
0.7890976667404175 -0.610560417175293 -0.6023916006088257
0.7890976667404175 -0.610560417175293 -0.4724767208099365
0.7890976667404175 -0.610560417175293 -0.34256184101104736
0.7890976667404175 -0.610560417175293 -0.212646946310997
0.7890976667404175 -0.610560417175293 -0.08273204416036606
0.7890976667404175 -0.610560417175293 0.047182850539684296
0.7890976667404175 -0.610560417175293 0.17709775269031525
0.7890976667404175 -0.610560417175293 0.3070126473903656
0.7890976667404175 -0.610560417175293 0.43692752718925476
0.7890976667404175 -0.610560417175293 0.5668424367904663
0.7890976667404175 -0.610560417175293 0.6967573165893555
0.7890976667404175 -0.610560417175293 0.8266721963882446
0.7890976071357727 -0.610560417175293 0.9565871357917786
0.8961954116821289 -0.43873801827430725 -0.9921362996101379
0.8961954116821289 -0.43873801827430725 -0.8622214198112488
0.8961954116821289 -0.43873801827430725 -0.7323065400123596
0.8961954116821289 -0.43873801827430725 -0.6023916602134705
0.8961954116821289 -0.43873801827430725 -0.4724767208099365
0.8961954116821289 -0.43873801827430725 -0.34256184101104736
0.8961954116821289 -0.43873801827430725 -0.212646946310997
0.8961954116821289 -0.43873798847198486 -0.08273205161094666
0.8961954116821289 -0.43873798847198486 0.047182846814394
0.8961954116821289 -0.43873798847198486 0.17709773778915405
0.8961954116821289 -0.43873798847198486 0.3070126473903656
0.8961954116821289 -0.43873798847198486 0.43692752718925476
0.8961954116821289 -0.43873798847198486 0.5668424367904663
0.8961953520774841 -0.43873798847198486 0.6967573165893555
0.8961953520774841 -0.43873798847198486 0.8266721963882446
0.8961953520774841 -0.4387379586696625 0.9565871357917786
0.9665132761001587 -0.24887420237064362 -0.9921362996101379
0.9665132761001587 -0.24887420237064362 -0.8622214198112488
0.9665132761001587 -0.24887418746948242 -0.7323065400123596
0.9665132761001587 -0.24887418746948242 -0.6023916602134705
0.9665132761001587 -0.24887418746948242 -0.4724767506122589
0.9665132761001587 -0.24887418746948242 -0.34256184101104736
0.9665132761001587 -0.24887417256832123 -0.212646946310997
0.9665132761001587 -0.24887417256832123 -0.08273205161094666
0.9665132164955139 -0.24887417256832123 0.0471828430891037
0.9665132164955139 -0.24887415766716003 0.17709773778915405
0.9665132164955139 -0.24887415766716003 0.3070126473903656
0.9665132164955139 -0.24887415766716003 0.43692752718925476
0.9665132164955139 -0.24887415766716003 0.5668424367904663
0.9665132164955139 -0.24887414276599884 0.6967573165893555
0.9665132164955139 -0.24887414276599884 0.8266721963882446
0.9665132164955139 -0.24887414276599884 0.9565871357917786
0.9971724152565002 -0.04874201864004135 -0.9921362996101379
0.9971724152565002 -0.04874201491475105 -0.8622214198112488
0.9971724152565002 -0.048742011189460754 -0.7323065400123596
0.9971723556518555 -0.048742007464170456 -0.6023916602134705
0.9971723556518555 -0.04874200001358986 -0.4724767506122589
0.9971723556518555 -0.04874199628829956 -0.34256184101104736
0.9971723556518555 -0.04874199256300926 -0.212646946310997
0.9971723556518555 -0.048741988837718964 -0.08273205906152725
0.9971723556518555 -0.048741985112428665 0.0471828393638134
0.9971723556518555 -0.04874198138713837 0.17709773778915405
0.9971723556518555 -0.04874197766184807 0.3070126175880432
0.9971723556518555 -0.04874197393655777 0.43692752718925476
0.9971723556518555 -0.04874197021126747 0.5668424367904663
0.9971723556518555 -0.04874196648597717 0.6967573165893555
0.9971723556518555 -0.048741962760686874 0.8266721963882446
0.9971723556518555 -0.04874195531010628 0.9565871357917786
0.9869176149368286 0.15346507728099823 -0.9921363592147827
0.9869176149368286 0.15346509218215942 -0.8622214198112488
0.9869176149368286 0.15346509218215942 -0.7323065400123596
0.9869176149368286 0.15346509218215942 -0.6023916602134705
0.9869176149368286 0.15346510708332062 -0.4724767506122589
0.9869176149368286 0.15346510708332062 -0.34256184101104736
0.9869176149368286 0.15346510708332062 -0.2126469612121582
0.9869176149368286 0.15346510708332062 -0.08273206651210785
0.9869175553321838 0.1534651219844818 0.0471828319132328
0.9869175553321838 0.1534651219844818 0.17709772288799286
0.9869175553321838 0.1534651219844818 0.3070126175880432
0.9869175553321838 0.1534651219844818 0.43692752718925476
0.9869175553321838 0.153465136885643 0.5668424367904663
0.9869175553321838 0.153465136885643 0.6967573165893555
0.9869175553321838 0.153465136885643 0.8266721963882446
0.9869175553321838 0.1534651517868042 0.9565870761871338
0.9361687302589417 0.3494687080383301 -0.9921363592147827
0.9361687302589417 0.34946873784065247 -0.8622214198112488
0.9361687302589417 0.34946873784065247 -0.7323065400123596
0.9361687302589417 0.34946873784065247 -0.6023916602134705
0.9361687302589417 0.34946873784065247 -0.4724767506122589
0.9361687302589417 0.34946873784065247 -0.34256187081336975
0.9361687302589417 0.34946873784065247 -0.2126469612121582
0.9361687302589417 0.34946873784065247 -0.08273207396268845
0.9361687302589417 0.34946876764297485 0.047182824462652206
0.9361687302589417 0.34946876764297485 0.17709772288799286
0.9361687302589417 0.34946876764297485 0.3070126175880432
0.9361687302589417 0.34946876764297485 0.4369274973869324
0.9361687302589417 0.34946876764297485 0.5668424367904663
0.9361687302589417 0.34946876764297485 0.6967573165893555
0.9361686706542969 0.34946876764297485 0.8266721963882446
0.9361686706542969 0.34946876764297485 0.9565870761871338
0.8470034599304199 0.5312444567680359 -0.9921363592147827
0.8470034599304199 0.5312445163726807 -0.8622214794158936
0.8470034599304199 0.5312445163726807 -0.7323065400123596
0.8470034599304199 0.5312445163726807 -0.6023916602134705
0.8470034599304199 0.5312445163726807 -0.4724767804145813
0.8470034599304199 0.5312445163726807 -0.34256187081336975
0.8470034599304199 0.5312445163726807 -0.2126469761133194
0.8470034599304199 0.5312445163726807 -0.08273208141326904
0.8470034599304199 0.5312445163726807 0.04718281701207161
0.8470034599304199 0.5312445163726807 0.17709770798683167
0.8470034599304199 0.5312445163726807 0.3070126175880432
0.8470034599304199 0.5312445163726807 0.4369274973869324
0.8470034599304199 0.5312445163726807 0.5668423771858215
0.8470034599304199 0.5312445163726807 0.6967573165893555
0.8470034599304199 0.5312445163726807 0.8266721963882446
0.8470034003257751 0.5312445163726807 0.9565870761871338
0.7230722308158875 0.6913504600524902 -0.9921363592147827
0.7230722308158875 0.6913504600524902 -0.8622214794158936
0.7230722308158875 0.6913504600524902 -0.7323065400123596
0.7230722308158875 0.6913504600524902 -0.6023916602134705
0.7230722308158875 0.6913504600524902 -0.4724767804145813
0.7230722308158875 0.6913504600524902 -0.34256187081336975
0.7230722308158875 0.6913504600524902 -0.2126469910144806
0.7230722308158875 0.6913504600524902 -0.08273208886384964
0.7230722308158875 0.6913504600524902 0.047182805836200714
0.7230722308158875 0.6913504600524902 0.17709770798683167
0.7230722308158875 0.6913504600524902 0.3070125877857208
0.7230722308158875 0.691350519657135 0.4369274973869324
0.7230721712112427 0.691350519657135 0.5668423771858215
0.7230721712112427 0.691350519657135 0.6967572569847107
0.7230721712112427 0.691350519657135 0.8266721963882446
0.7230721712112427 0.691350519657135 0.9565870761871338
0.5694487690925598 0.8232318758964539 -0.9921363592147827
0.5694487690925598 0.8232318758964539 -0.8622214794158936
0.5694487690925598 0.8232318758964539 -0.7323065996170044
0.5694487690925598 0.8232318758964539 -0.6023916602134705
0.5694487690925598 0.8232318758964539 -0.4724767804145813
0.5694487690925598 0.8232318758964539 -0.34256190061569214
0.5694487690925598 0.8232318758964539 -0.2126469910144806
0.5694487690925598 0.8232318758964539 -0.08273209631443024
0.5694487690925598 0.8232318758964539 0.04718279838562012
0.5694487690925598 0.8232318758964539 0.17709769308567047
0.5694487690925598 0.8232318758964539 0.3070125877857208
0.5694487690925598 0.8232318758964539 0.4369274973869324
0.5694487690925598 0.8232319355010986 0.5668423771858215
0.569448709487915 0.8232319355010986 0.6967572569847107
0.569448709487915 0.8232319355010986 0.8266721963882446
0.569448709487915 0.8232319355010986 0.9565870761871338
0.39242249727249146 0.9214894771575928 -0.9921363592147827
0.39242246747016907 0.9214894771575928 -0.8622214794158936
0.39242246747016907 0.9214894771575928 -0.7323065996170044
0.39242246747016907 0.9214894771575928 -0.6023916602134705
0.39242246747016907 0.9214894771575928 -0.4724767804145813
0.39242246747016907 0.9214894771575928 -0.34256190061569214
0.39242246747016907 0.9214894771575928 -0.21264700591564178
0.39242246747016907 0.9214894771575928 -0.08273210376501083
0.3924224376678467 0.9214895367622375 0.04718279093503952
0.3924224376678467 0.9214895367622375 0.17709767818450928
0.3924224376678467 0.9214895367622375 0.3070125877857208
0.3924224376678467 0.9214895367622375 0.43692746758461
0.3924224376678467 0.9214895367622375 0.5668423771858215
0.3924224376678467 0.9214895367622375 0.6967572569847107
0.3924224376678467 0.9214895367622375 0.8266721367835999
0.3924224376678467 0.9214895367622375 0.9565870761871338
0.1992408037185669 0.9821006059646606 -0.9921363592147827
0.1992408037185669 0.9821006059646606 -0.8622214794158936
0.1992407888174057 0.9821006059646606 -0.7323065996170044
0.1992407888174057 0.9821006059646606 -0.6023917198181152
0.1992407888174057 0.9821006059646606 -0.4724768102169037
0.1992407888174057 0.9821006655693054 -0.34256190061569214
0.1992407739162445 0.9821006655693054 -0.21264700591564178
0.1992407739162445 0.9821006655693054 -0.08273211121559143
0.1992407739162445 0.9821006655693054 0.04718278348445892
0.1992407739162445 0.9821006655693054 0.17709767818450928
0.1992407590150833 0.9821006655693054 0.3070125877857208
0.1992407590150833 0.9821006655693054 0.43692746758461
0.1992407590150833 0.9821006655693054 0.5668423771858215
0.19924074411392212 0.9821006655693054 0.6967572569847107
0.19924074411392212 0.9821006655693054 0.8266721367835999
0.19924074411392212 0.9821006655693054 0.9565870761871338
-0.002187371253967285 1.0025838613510132 -0.9921364188194275
-0.0021873752120882273 1.0025838613510132 -0.8622214794158936
-0.0021873791702091694 1.0025838613510132 -0.7323065996170044
-0.0021873831283301115 1.0025838613510132 -0.6023917198181152
-0.0021873870864510536 1.0025838613510132 -0.4724768102169037
-0.0021873912774026394 1.0025838613510132 -0.34256190061569214
-0.0021873952355235815 1.0025838613510132 -0.21264702081680298
-0.0021873991936445236 1.0025838613510132 -0.08273211866617203
-0.0021874031517654657 1.0025838613510132 0.047182776033878326
-0.002187407109886408 1.0025838613510132 0.17709767818450928
-0.00218741106800735 1.0025838613510132 0.30701255798339844
-0.002187415026128292 1.0025838613510132 0.43692746758461
-0.002187418984249234 1.0025838613510132 0.5668423771858215
-0.00218742317520082 1.0025838613510132 0.6967572569847107
-0.002187427133321762 1.0025838613510132 0.8266721367835999
-0.002187431091442704 1.0025839805603027 0.956587016582489
