ply
format ascii 1.0
element vertex 512
property float x
property float y
property float z
end_header
0.003579258918762207 -1.0025019645690918 0.9826940894126892
0.003151559503749013 -1.0022125244140625 0.8495625257492065
0.002723860088735819 -1.0019229650497437 0.7164310216903687
0.0022961606737226248 -1.0016335248947144 0.5832995176315308
0.0018684611422941089 -1.001344084739685 0.45016801357269287
0.001440761610865593 -1.0010545253753662 0.317036509513855
0.0010130621958523989 -1.000765085220337 0.1839049905538559
0.0005853627808392048 -1.0004756450653076 0.05077348276972771
0.0001576633076183498 -1.0001860857009888 -0.08235802501440048
-0.00027003613649867475 -0.9998966455459595 -0.21548953652381897
-0.0006977355806156993 -0.9996072053909302 -0.34862104058265686
-0.0011254349956288934 -0.9993177056312561 -0.48175257444381714
-0.0015531345270574093 -0.999028205871582 -0.614884078502655
-0.0019808339420706034 -0.9987387657165527 -0.7480155825614929
-0.0024085333570837975 -0.9984492659568787 -0.8811470866203308
-0.0028362327720969915 -0.9981597661972046 -1.0142786502838135
-0.19781319797039032 -0.9820237159729004 0.9833855628967285
-0.19824090600013733 -0.9817342162132263 0.8502540588378906
-0.19866859912872314 -0.981444776058197 0.7171225547790527
-0.19909629225730896 -0.981155276298523 0.5839910507202148
-0.19952400028705597 -0.9808657765388489 0.45085954666137695
-0.19995169341564178 -0.9805763363838196 0.31772804260253906
-0.2003794014453888 -0.9802868366241455 0.18459652364253998
-0.2008070945739746 -0.9799973368644714 0.051465004682540894
-0.20123480260372162 -0.9797078967094421 -0.0816665068268776
-0.20166249573230743 -0.9794183969497681 -0.21479801833629608
-0.20209018886089325 -0.979128897190094 -0.34792953729629517
-0.20251789689064026 -0.9788394570350647 -0.48106104135513306
-0.20294559001922607 -0.9785499572753906 -0.614192545413971
-0.20337329804897308 -0.9782604575157166 -0.7473240494728088
-0.2038009911775589 -0.9779710173606873 -0.8804555535316467
-0.2042286992073059 -0.9776815176010132 -1.0135871171951294
-0.3909606337547302 -0.9214245080947876 0.9841378331184387
-0.39138832688331604 -0.9211350083351135 0.8510063290596008
-0.39181602001190186 -0.9208455681800842 0.7178748250007629
-0.39224371314048767 -0.9205560684204102 0.584743320941925
-0.3926714360713959 -0.9202665686607361 0.45161181688308716
-0.3930991291999817 -0.9199771285057068 0.31848031282424927
-0.3935268223285675 -0.9196876287460327 0.18534879386425018
-0.3939545154571533 -0.9193981289863586 0.0522172786295414
-0.3943822383880615 -0.9191086888313293 -0.08091422915458679
-0.39480993151664734 -0.9188191890716553 -0.21404574811458588
-0.39523762464523315 -0.9185296893119812 -0.34717726707458496
-0.39566531777381897 -0.9182402491569519 -0.48030877113342285
-0.3960930109024048 -0.9179507493972778 -0.6134402751922607
-0.396520733833313 -0.9176612496376038 -0.7465717792510986
-0.3969484269618988 -0.9173717498779297 -0.8797032833099365
-0.3973761200904846 -0.9170823097229004 -1.0128347873687744
-0.5679555535316467 -0.8231852650642395 0.984920084476471
-0.5683832764625549 -0.8228957653045654 0.8517885804176331
-0.5688109397888184 -0.8226063251495361 0.7186570763587952
-0.5692386627197266 -0.8223168253898621 0.5855255722999573
-0.56966632604599 -0.822027325630188 0.452394038438797
-0.5700940489768982 -0.8217378854751587 0.3192625343799591
-0.5705217719078064 -0.8214483857154846 0.18613101541996002
-0.5709494352340698 -0.8211588859558105 0.05299950763583183
-0.571377158164978 -0.8208694458007812 -0.08013200759887695
-0.5718048214912415 -0.8205799460411072 -0.21326351165771484
-0.5722325444221497 -0.8202904462814331 -0.34639501571655273
-0.5726602673530579 -0.8200010061264038 -0.479526549577713
-0.5730879306793213 -0.8197115063667297 -0.6126580238342285
-0.5735156536102295 -0.8194220066070557 -0.7457895874977112
-0.5739433169364929 -0.8191325664520264 -0.8789210915565491
-0.5743710398674011 -0.8188430666923523 -1.0120525360107422
-0.721551775932312 -0.6913279294967651 0.985700249671936
-0.7219794392585754 -0.6910384893417358 0.8525687456130981
-0.7224071621894836 -0.6907489895820618 0.7194372415542603
-0.7228348851203918 -0.6904594898223877 0.5863056778907776
-0.7232625484466553 -0.6901700496673584 0.4531742036342621
-0.7236902713775635 -0.6898805499076843 0.3200426697731018
-0.7241179347038269 -0.6895910501480103 0.18691116571426392
-0.7245456576347351 -0.689301609992981 0.053779661655426025
-0.7249733805656433 -0.6890121102333069 -0.07935184985399246
-0.7254010438919067 -0.6887226104736328 -0.21248336136341095
-0.7258287668228149 -0.6884331703186035 -0.34561488032341003
-0.7262564301490784 -0.6881436705589294 -0.4787463843822479
-0.7266841530799866 -0.6878541707992554 -0.6118779182434082
-0.7271118760108948 -0.6875647306442261 -0.7450094223022461
-0.7275395393371582 -0.687275230884552 -0.878140926361084
-0.7279672622680664 -0.6869857311248779 -1.0112724304199219
-0.8454610109329224 -0.5312507748603821 0.9864463806152344
-0.8458887338638306 -0.5309613347053528 0.8533148765563965
-0.8463164567947388 -0.5306718349456787 0.7201833724975586
-0.8467441201210022 -0.5303823351860046 0.5870518684387207
-0.8471718430519104 -0.5300928950309753 0.4539203345775604
-0.8475995063781738 -0.5298033952713013 0.32078883051872253
-0.848027229309082 -0.5295138955116272 0.18765731155872345
-0.8484549522399902 -0.5292244553565979 0.05452580377459526
-0.8488826155662537 -0.5289349555969238 -0.07860571146011353
-0.8493103384971619 -0.5286454558372498 -0.21173721551895142
-0.8497380018234253 -0.5283559560775757 -0.3448687195777893
-0.8501657247543335 -0.5280665159225464 -0.4780002534389496
-0.8505934476852417 -0.5277770161628723 -0.6111317276954651
-0.8510211110115051 -0.5274875164031982 -0.7442632913589478
-0.8514488339424133 -0.527198076248169 -0.8773947954177856
-0.8518764972686768 -0.5269085764884949 -1.0105262994766235
-0.9346104860305786 -0.3495073616504669 0.987127959728241
-0.9350382089614868 -0.34921789169311523 0.8539964556694031
-0.9354658722877502 -0.34892842173576355 0.7208649516105652
-0.9358935952186584 -0.3486389219760895 0.5877334475517273
-0.9363213181495667 -0.3483494520187378 0.454601913690567
-0.9367489814758301 -0.3480599820613861 0.3214704096317291
-0.9371767044067383 -0.34777048230171204 0.18833890557289124
-0.9376043677330017 -0.34748101234436035 0.05520738661289215
-0.9380320906639099 -0.34719154238700867 -0.07792412489652634
-0.9384598135948181 -0.3469020426273346 -0.21105563640594482
-0.9388874769210815 -0.3466125726699829 -0.3441871404647827
-0.9393151998519897 -0.34632307291030884 -0.4773186445236206
-0.9397428631782532 -0.34603360295295715 -0.6104501485824585
-0.9401705861091614 -0.34574413299560547 -0.7435816526412964
-0.9405983090400696 -0.3454546332359314 -0.876713216304779
-0.941025972366333 -0.3451651632785797 -1.0098446607589722
-0.9853503704071045 -0.1535382866859436 0.9877170920372009
-0.9857780337333679 -0.15324881672859192 0.854585587978363
-0.9862057566642761 -0.15295933187007904 0.7214540839195251
-0.9866334795951843 -0.15266984701156616 0.5883225798606873
-0.9870611429214478 -0.15238037705421448 0.455191045999527
-0.987488865852356 -0.1520908921957016 0.3220595419406891
-0.9879165291786194 -0.15180140733718872 0.18892802298069
-0.9883442521095276 -0.15151193737983704 0.055796507745981216
-0.9887719750404358 -0.15122245252132416 -0.07733500003814697
-0.9891996383666992 -0.15093296766281128 -0.21046651899814606
-0.9896273612976074 -0.1506434828042984 -0.34359803795814514
-0.9900550246238708 -0.15035401284694672 -0.47672954201698303
-0.990482747554779 -0.15006452798843384 -0.6098610758781433
-0.9909104704856873 -0.14977504312992096 -0.7429925799369812
-0.9913381338119507 -0.14948557317256927 -0.8761240839958191
-0.9917658567428589 -0.1491960883140564 -1.0092555284500122
-0.9956033229827881 0.04863344877958298 0.9881896376609802
-0.9960310459136963 0.04892292991280556 0.8550581336021423
-0.9964587092399597 0.04921241104602814 0.7219266295433044
-0.9968864321708679 0.04950188845396042 0.5887951254844666
-0.9973140954971313 0.049791369587183 0.4556635916233063
-0.9977418184280396 0.05008085072040558 0.322532057762146
-0.9981695413589478 0.05037033185362816 0.1894005537033081
-0.9985972046852112 0.05065981298685074 0.056269049644470215
-0.9990249276161194 0.05094929412007332 -0.07686246186494827
-0.9994525909423828 0.0512387715280056 -0.20999397337436676
-0.999880313873291 0.05152825266122818 -0.34312549233436584
-1.0003080368041992 0.05181773379445076 -0.47625699639320374
-1.0007357597351074 0.05210721492767334 -0.609388530254364
-1.001163363456726 0.05239669606089592 -0.7425200343132019
-1.0015910863876343 0.0526861771941185 -0.8756515383720398
-1.0020188093185425 0.05297565460205078 -1.0087831020355225
-0.9649496078491211 0.24873092770576477 0.9885262250900269
-0.9653773307800293 0.24902039766311646 0.855394721031189
-0.9658050537109375 0.24930988252162933 0.7222632169723511
-0.9662327170372009 0.2495993673801422 0.5891317129135132
-0.9666604399681091 0.2498888373374939 0.4560002088546753
-0.9670881032943726 0.25017833709716797 0.322868674993515
-0.9675158262252808 0.25046780705451965 0.18973717093467712
-0.967943549156189 0.25075727701187134 0.056605663150548935
-0.9683712124824524 0.2510467767715454 -0.07652585208415985
-0.9687989354133606 0.2513362467288971 -0.20965735614299774
-0.969226598739624 0.2516257166862488 -0.3427888751029968
-0.9696543216705322 0.25191521644592285 -0.4759203791618347
-0.9700820446014404 0.25220468640327454 -0.6090518832206726
-0.9705097079277039 0.2524941563606262 -0.7421833872795105
-0.9709374308586121 0.2527836561203003 -0.8753148913383484
-0.9713650941848755 0.253073126077652 -1.008446455001831
-0.8946442604064941 0.4385620951652527 0.9887131452560425
-0.8950719833374023 0.43885159492492676 0.8555816411972046
-0.8954996466636658 0.43914106488227844 0.7224501371383667
-0.895927369594574 0.4394305646419525 0.5893186330795288
-0.8963550329208374 0.4397200345993042 0.45618709921836853
-0.8967827558517456 0.4400095045566559 0.32305559515953064
-0.8972104787826538 0.44029900431632996 0.18992407619953156
-0.8976381421089172 0.44058847427368164 0.05679256469011307
-0.8980658650398254 0.4408779442310333 -0.07633894681930542
-0.8984935283660889 0.4411674439907074 -0.2094704508781433
-0.8989212512969971 0.4414569139480591 -0.3426019549369812
-0.8993489742279053 0.44174638390541077 -0.4757334887981415
-0.8997766375541687 0.44203588366508484 -0.608864963054657
-0.9002043604850769 0.4423253536224365 -0.7419965267181396
-0.9006320238113403 0.4426148235797882 -0.8751280307769775
-0.9010597467422485 0.4429043233394623 -1.0082595348358154
-0.7875655293464661 0.6103553175926208 0.9887427091598511
-0.7879931926727295 0.6106447577476501 0.8556112051010132
-0.7884209156036377 0.6109342575073242 0.7224796414375305
-0.7888485789299011 0.6112237572669983 0.5893481373786926
-0.7892763018608093 0.6115131974220276 0.45621663331985474
-0.7897040247917175 0.6118026971817017 0.32308512926101685
-0.790131688117981 0.6120921969413757 0.18995362520217896
-0.7905594110488892 0.612381637096405 0.05682210996747017
-0.7909870743751526 0.6126711368560791 -0.07630939781665802
-0.7914147973060608 0.6129606366157532 -0.2094409167766571
-0.791842520236969 0.6132500767707825 -0.342572420835495
-0.7922701835632324 0.6135395765304565 -0.4757039248943329
-0.7926979064941406 0.6138290762901306 -0.6088354587554932
-0.7931256294250488 0.6141185760498047 -0.741966962814331
-0.7935532927513123 0.614408016204834 -0.875098466873169
-0.7939810156822205 0.6146975159645081 -1.0082299709320068
-0.6480972170829773 0.7570772767066956 0.9886136651039124
-0.6485248804092407 0.7573667168617249 0.8554821610450745
-0.6489526033401489 0.7576562166213989 0.7223506569862366
-0.6493803262710571 0.757945716381073 0.5892191529273987
-0.6498079895973206 0.7582351565361023 0.4560876190662384
-0.6502357125282288 0.7585246562957764 0.3229561150074005
-0.6506633758544922 0.7588141560554504 0.18982459604740143
-0.6510910987854004 0.7591036558151245 0.05669308453798294
-0.6515188217163086 0.7593930959701538 -0.07643842697143555
-0.651946485042572 0.7596825957298279 -0.20956994593143463
-0.6523742079734802 0.759972095489502 -0.3427014648914337
-0.6528018712997437 0.7602615356445312 -0.4758329689502716
-0.6532295942306519 0.7605510354042053 -0.6089645028114319
-0.6536573171615601 0.7608405351638794 -0.7420960068702698
-0.6540849804878235 0.7611299753189087 -0.8752275109291077
-0.6545127034187317 0.7614194750785828 -1.0083589553833008
-0.48194918036460876 0.8727211952209473 0.9883313775062561
-0.4823768734931946 0.8730106353759766 0.8551998138427734
-0.4828045666217804 0.8733001351356506 0.7220683097839355
-0.4832322895526886 0.8735896348953247 0.5889368057250977
-0.4836599826812744 0.873879075050354 0.45580530166625977
-0.48408767580986023 0.8741685748100281 0.3226737976074219
-0.48451536893844604 0.8744580745697021 0.1895422786474228
-0.48494306206703186 0.8747475743293762 0.0564107708632946
-0.48537078499794006 0.8750370144844055 -0.07672073692083359
-0.4857984781265259 0.8753265142440796 -0.20985224843025208
-0.4862261712551117 0.8756160140037537 -0.34298375248908997
-0.4866538643836975 0.875905454158783 -0.47611528635025024
-0.4870815575122833 0.876194953918457 -0.6092467904090881
-0.48750928044319153 0.8764844536781311 -0.742378294467926
-0.48793697357177734 0.8767738938331604 -0.8755097985267639
-0.48836466670036316 0.8770633935928345 -1.0086413621902466
-0.2959235608577728 0.9525525569915771 0.9879072904586792
-0.29635125398635864 0.9528420567512512 0.8547757863998413
-0.29677897691726685 0.9531315565109253 0.7216442823410034
-0.29720667004585266 0.9534209966659546 0.5885127782821655
-0.2976343631744385 0.9537104964256287 0.45538127422332764
-0.2980620563030243 0.9539999961853027 0.32224974036216736
-0.2984897494316101 0.954289436340332 0.18911823630332947
-0.2989174723625183 0.9545789361000061 0.05598672851920128
-0.2993451654911041 0.9548684358596802 -0.07714477926492691
-0.29977285861968994 0.9551578760147095 -0.2102762907743454
-0.30020055174827576 0.9554473757743835 -0.3434078097343445
-0.30062827467918396 0.9557368755340576 -0.4765393137931824
-0.3010559678077698 0.9560263752937317 -0.6096708178520203
-0.3014836609363556 0.956315815448761 -0.7428023219108582
-0.3019113540649414 0.9566053152084351 -0.875933825969696
-0.3023390471935272 0.9568948149681091 -1.0090653896331787
-0.09763627499341965 0.9933031797409058 0.9873589277267456
-0.09806397557258606 0.9935926198959351 0.8542273640632629
-0.09849167615175247 0.9938821196556091 0.721095860004425
-0.09891937673091888 0.9941716194152832 0.5879643559455872
-0.0993470698595047 0.9944610595703125 0.45483285188674927
-0.09977477043867111 0.9947505593299866 0.3217013478279114
-0.10020247101783752 0.9950400590896606 0.1885698288679123
-0.10063017159700394 0.9953294992446899 0.055438317358493805
-0.10105787217617035 0.995618999004364 -0.07769319415092468
-0.10148557275533676 0.9959084987640381 -0.21082471311092377
-0.10191326588392258 0.9961979389190674 -0.34395623207092285
-0.10234096646308899 0.9964874386787415 -0.47708773612976074
-0.1027686670422554 0.9967769384384155 -0.6102192401885986
-0.10319636762142181 0.9970663785934448 -0.7433507442474365
-0.10362406820058823 0.9973558783531189 -0.8764822483062744
-0.10405176877975464 0.997645378112793 -1.0096137523651123
0.10479479283094406 0.9933045506477356 0.9867085814476013
0.10436709225177765 0.9935940504074097 0.8535770773887634
0.10393939167261124 0.9938835501670837 0.7204455733299255
0.10351169109344482 0.994172990322113 0.5873140096664429
0.10308399796485901 0.9944624900817871 0.45418253540992737
0.1026562973856926 0.9947519898414612 0.3210510015487671
0.10222859680652618 0.9950414299964905 0.1879194974899292
0.10180089622735977 0.9953309297561646 0.05478798970580101
0.10137319564819336 0.9956204295158386 -0.07834352552890778
0.10094549506902695 0.9959098696708679 -0.21147502958774567
0.10051780194044113 0.996199369430542 -0.34460654854774475
0.10009010136127472 0.9964888691902161 -0.47773805260658264
0.0996624007821083 0.9967783093452454 -0.6108695864677429
0.0992347002029419 0.9970678091049194 -0.7440010905265808
0.09880699962377548 0.9973573088645935 -0.8771325945854187
0.09837929904460907 0.9976467490196228 -1.0102641582489014
0.30308207869529724 0.9525567889213562 0.9859829545021057
0.3026543855667114 0.9528462290763855 0.8528514504432678
0.3022266924381256 0.9531357288360596 0.7197199463844299
0.3017989993095398 0.9534252285957336 0.586588442325592
0.3013712763786316 0.9537146687507629 0.45345690846443176
0.3009435832500458 0.954004168510437 0.32032540440559387
0.30051589012145996 0.9542936682701111 0.1871938854455948
0.30008819699287415 0.9545831084251404 0.0540623664855957
0.29966050386428833 0.9548726081848145 -0.07906914502382278
0.2992327809333801 0.9551621079444885 -0.21220065653324127
0.2988050878047943 0.9554515480995178 -0.34533217549324036
0.2983773946762085 0.9557410478591919 -0.47846367955207825
0.2979497015476227 0.956030547618866 -0.6115952134132385
0.2975219786167145 0.9563199877738953 -0.7447267174720764
0.29709428548812866 0.9566094875335693 -0.8778582215309143
0.29666659235954285 0.9568989872932434 -1.010989785194397
0.4891076982021332 0.8727279901504517 0.9852117300033569
0.48868000507354736 0.873017430305481 0.852080225944519
0.48825231194496155 0.873306930065155 0.7189487218856812
0.48782458901405334 0.8735964298248291 0.5858172178268433
0.48739689588546753 0.8738858699798584 0.452685683965683
0.4869692027568817 0.8741753697395325 0.3195541799068451
0.4865415096282959 0.8744648694992065 0.1864226758480072
0.4861137866973877 0.8747543096542358 0.053291160613298416
0.4856860935688019 0.8750438094139099 -0.07984035462141037
0.48525840044021606 0.875333309173584 -0.21297186613082886
0.48483070731163025 0.8756227493286133 -0.34610337018966675
0.48440301418304443 0.8759122490882874 -0.47923487424850464
0.48397529125213623 0.8762017488479614 -0.6123663783073425
0.4835475981235504 0.8764911890029907 -0.7454978823661804
0.4831199049949646 0.8767806887626648 -0.8786294460296631
0.4826922118663788 0.8770701885223389 -1.011760950088501
0.6552557349205017 0.7570863962173462 0.9844264984130859
0.6548280119895935 0.7573758363723755 0.851294994354248
0.6544002890586853 0.7576653361320496 0.7181634902954102
0.6539726257324219 0.7579548358917236 0.5850319862365723
0.6535449028015137 0.7582442760467529 0.4519004821777344
0.6531172394752502 0.758533775806427 0.3187689781188965
0.652689516544342 0.7588232755661011 0.1856374591588974
0.6522617936134338 0.7591127157211304 0.052505940198898315
0.6518341302871704 0.7594022154808044 -0.08062557131052017
0.6514064073562622 0.7596917152404785 -0.21375708281993866
0.6509787440299988 0.7599811553955078 -0.34688860177993774
0.6505510210990906 0.7602706551551819 -0.48002010583877563
0.6501232981681824 0.760560154914856 -0.6131516098976135
0.649695634841919 0.7608495950698853 -0.7462831139564514
0.6492679119110107 0.7611390948295593 -0.8794146180152893
0.6488402485847473 0.7614285945892334 -1.012546181678772
0.7947240471839905 0.6103663444519043 0.9836594462394714
0.7942963242530823 0.6106558442115784 0.8505279421806335
0.7938686013221741 0.6109452843666077 0.7173964381217957
0.7934409379959106 0.6112347841262817 0.584264874458313
0.7930132150650024 0.6115242838859558 0.4511334002017975
0.792585551738739 0.6118137836456299 0.3180018663406372
0.7921578288078308 0.6121032238006592 0.18487036228179932
0.7917301058769226 0.6123927235603333 0.051738858222961426
0.7913024425506592 0.6126822233200073 -0.08139265328645706
0.790874719619751 0.6129716634750366 -0.21452416479587555
0.7904470562934875 0.6132611632347107 -0.34765568375587463
0.7900193333625793 0.6135506629943848 -0.4807871878147125
0.7895916104316711 0.6138401031494141 -0.6139187216758728
0.7891639471054077 0.6141296029090881 -0.7470502257347107
0.7887362241744995 0.6144191026687622 -0.8801817297935486
0.7883085608482361 0.6147085428237915 -1.0133132934570312
0.9018027782440186 0.4385746717453003 0.9829418659210205
0.9013750553131104 0.438864141702652 0.8498103618621826
0.9009473919868469 0.43915361166000366 0.7166788578033447
0.9005196690559387 0.43944311141967773 0.5835473537445068
0.9000920057296753 0.4397325813770294 0.45041584968566895
0.8996642827987671 0.4400220513343811 0.31728434562683105
0.8992365598678589 0.4403115510940552 0.18415282666683197
0.8988088965415955 0.44060102105140686 0.051021311432123184
0.8983811736106873 0.44089049100875854 -0.082110196352005
0.897953450679779 0.4411799907684326 -0.2152417153120041
0.8975257873535156 0.4414694607257843 -0.3483732342720032
0.8970980644226074 0.441758930683136 -0.48150473833084106
0.896670401096344 0.44204843044281006 -0.614636242389679
0.8962426781654358 0.44233790040016174 -0.7477677464485168
0.8958149552345276 0.4426273703575134 -0.8808992505073547
0.8953872919082642 0.4429168701171875 -1.0140308141708374
0.9721081256866455 0.24874445796012878 0.982303261756897
0.9716804623603821 0.24903392791748047 0.8491717576980591
0.9712527394294739 0.24932341277599335 0.7160402536392212
0.9708250761032104 0.24961289763450623 0.5829087495803833
0.9703973531723022 0.2499023675918579 0.449777215719223
0.969969630241394 0.250191867351532 0.31664571166038513
0.9695419669151306 0.25048133730888367 0.18351419270038605
0.9691142439842224 0.25077080726623535 0.05038268119096756
0.968686580657959 0.2510603070259094 -0.08274883031845093
0.9682588577270508 0.2513497769832611 -0.21588033437728882
0.9678311347961426 0.2516392469406128 -0.3490118384361267
0.9674034714698792 0.25192874670028687 -0.482143372297287
0.966975748538971 0.25221821665763855 -0.6152748465538025
0.9665480256080627 0.25250768661499023 -0.7484064102172852
0.9661203622817993 0.2527971863746643 -0.881537914276123
0.9656926393508911 0.253086656332016 -1.014669418334961
1.0027618408203125 0.048647407442331314 0.9817696809768677
1.0023341178894043 0.048936888575553894 0.8486381769180298
1.001906394958496 0.049226369708776474 0.7155066728591919
1.0014787912368774 0.049515850841999054 0.582375168800354
1.0010510683059692 0.049805331975221634 0.4492436349391937
1.000623345375061 0.050094809383153915 0.31611213088035583
1.0001956224441528 0.050384290516376495 0.18298062682151794
0.9997679591178894 0.050673771649599075 0.04984911531209946
0.9993402361869812 0.050963252782821655 -0.08328239619731903
0.998912513256073 0.051252733916044235 -0.21641391515731812
0.9984848499298096 0.05154221132397652 -0.349545419216156
0.9980571269989014 0.0518316924571991 -0.4826769232749939
0.9976294636726379 0.05212117359042168 -0.6158084273338318
0.9972017407417297 0.05241065472364426 -0.7489399313926697
0.9967740178108215 0.05270013585686684 -0.8820714950561523
0.9963463544845581 0.052989616990089417 -1.0152029991149902
0.9925088882446289 -0.1535244733095169 0.98136305809021
0.9920811653137207 -0.15323500335216522 0.8482314944267273
0.9916534423828125 -0.15294551849365234 0.7150999903678894
0.9912257790565491 -0.15265603363513947 0.5819684863090515
0.9907980561256409 -0.1523665487766266 0.4488369822502136
0.9903703927993774 -0.1520770788192749 0.31570547819137573
0.9899426698684692 -0.15178759396076202 0.18257395923137665
0.989514946937561 -0.15149810910224915 0.04944245144724846
0.9890872836112976 -0.15120863914489746 -0.08368906378746033
0.9886595606803894 -0.15091915428638458 -0.21682056784629822
0.988231897354126 -0.1506296694278717 -0.3499520719051361
0.9878041744232178 -0.15034019947052002 -0.4830836057662964
0.9873764514923096 -0.15005071461200714 -0.6162151098251343
0.9869487881660461 -0.14976122975349426 -0.7493466138839722
0.9865210652351379 -0.14947174489498138 -0.8824781179428101
0.9860934019088745 -0.1491822749376297 -1.015609622001648
0.941769003868103 -0.3494942784309387 0.9810999035835266
0.9413412809371948 -0.34920477867126465 0.8479683995246887
0.9409136176109314 -0.34891530871391296 0.7148368954658508
0.9404858946800232 -0.3486258387565613 0.5817053914070129
0.9400582313537598 -0.3483363389968872 0.44857388734817505
0.9396305084228516 -0.3480468690395355 0.31544235348701477
0.9392027854919434 -0.34775736927986145 0.18231084942817688
0.9387751221656799 -0.34746789932250977 0.04917934164404869
0.9383473992347717 -0.3471784293651581 -0.0839521661400795
0.9379197359085083 -0.346888929605484 -0.21708367764949799
0.9374920129776001 -0.3465994596481323 -0.35021519660949707
0.9370642900466919 -0.34630998969078064 -0.48334670066833496
0.9366366267204285 -0.34602048993110657 -0.6164782047271729
0.9362089037895203 -0.3457310199737549 -0.7496097087860107
0.9357812404632568 -0.3454415500164032 -0.8827412128448486
0.9353535175323486 -0.3451520502567291 -1.0158727169036865
0.8526195287704468 -0.5312389135360718 0.9809911251068115
0.8521918654441833 -0.5309494733810425 0.8478596210479736
0.8517641425132751 -0.5306599736213684 0.7147281169891357
0.8513364791870117 -0.5303704738616943 0.5815966129302979
0.8509087562561035 -0.530081033706665 0.44846510887145996
0.8504810333251953 -0.529791533946991 0.3153335750102997
0.8500533699989319 -0.5295020341873169 0.1822020709514618
0.8496256470680237 -0.5292125940322876 0.049070559442043304
0.8491979837417603 -0.5289230942726135 -0.08406095206737518
0.848770260810852 -0.5286335945129395 -0.21719245612621307
0.8483425378799438 -0.5283440947532654 -0.35032397508621216
0.8479148745536804 -0.5280546545982361 -0.48345547914505005
0.8474871516227722 -0.527765154838562 -0.6165869832038879
0.847059428691864 -0.5274756550788879 -0.7497184872627258
0.8466317653656006 -0.5271862149238586 -0.8828499913215637
0.8462040424346924 -0.5268967151641846 -1.0159815549850464
0.7287102937698364 -0.6913177967071533 0.9810411334037781
0.7282825708389282 -0.691028356552124 0.8479096293449402
0.7278549075126648 -0.69073885679245 0.7147781252861023
0.7274271845817566 -0.6904493570327759 0.5816466212272644
0.7269994616508484 -0.6901599168777466 0.4485150873661041
0.726571798324585 -0.6898704171180725 0.31538358330726624
0.7261440753936768 -0.6895809173583984 0.18225206434726715
0.7257164120674133 -0.6892914772033691 0.04912055656313896
0.7252886891365051 -0.6890019774436951 -0.08401095122098923
0.7248609662055969 -0.688712477684021 -0.21714246273040771
0.7244333028793335 -0.6884230375289917 -0.3502739667892456
0.7240055799484253 -0.6881335377693176 -0.4834055006504059
0.7235779166221619 -0.6878440380096436 -0.6165369749069214
0.7231501936912537 -0.6875545978546143 -0.749668538570404
0.7227224707603455 -0.6872650980949402 -0.8828000426292419
0.722294807434082 -0.6869755983352661 -1.015931487083435
0.5751140713691711 -0.8231772780418396 0.9812478423118591
0.5746863484382629 -0.8228877782821655 0.8481163382530212
0.5742586851119995 -0.8225983381271362 0.7149848341941833
0.5738309621810913 -0.8223088383674622 0.5818533301353455
0.5734032392501831 -0.8220193386077881 0.44872182607650757
0.5729755759239197 -0.8217298984527588 0.3155903220176697
0.5725478529930115 -0.8214403986930847 0.1824588030576706
0.572120189666748 -0.8211508989334106 0.04932728782296181
0.5716924667358398 -0.8208614587783813 -0.08380421996116638
0.5712647438049316 -0.8205719590187073 -0.21693573892116547
0.5708370804786682 -0.8202824592590332 -0.35006725788116455
0.57040935754776 -0.8199930191040039 -0.48319876194000244
0.5699816942214966 -0.8197035193443298 -0.6163302659988403
0.5695539712905884 -0.8194140195846558 -0.7494617700576782
0.5691262483596802 -0.8191245794296265 -0.8825932741165161
0.5686985850334167 -0.8188350796699524 -1.015724778175354
0.39811915159225464 -0.9214189648628235 0.9816028475761414
0.3976914584636688 -0.9211295247077942 0.8484713435173035
0.3972637355327606 -0.9208400249481201 0.7153398394584656
0.3968360424041748 -0.920550525188446 0.5822083353996277
0.396408349275589 -0.9202610850334167 0.4490768313407898
0.3959806561470032 -0.9199715852737427 0.3159452974796295
0.39555296301841736 -0.9196820855140686 0.18281379342079163
0.39512524008750916 -0.9193926453590393 0.04968228563666344
0.39469754695892334 -0.9191031455993652 -0.08344922214746475
0.3942698538303375 -0.9188136458396912 -0.21658073365688324
0.3938421607017517 -0.9185242056846619 -0.3497122526168823
0.3934144675731659 -0.9182347059249878 -0.4828437566757202
0.3929867446422577 -0.9179452061653137 -0.6159752607345581
0.3925590515136719 -0.9176557660102844 -0.749106764793396
0.39213135838508606 -0.9173662662506104 -0.8822382688522339
0.39170366525650024 -0.9170767664909363 -1.0153697729110718
0.20497171580791473 -0.982020914554596 0.9820916056632996
0.20454402267932892 -0.9817314147949219 0.8489601016044617
0.2041163146495819 -0.9814419746398926 0.7158285975456238
0.2036886215209961 -0.9811524748802185 0.5826970934867859
0.20326091349124908 -0.9808629751205444 0.4495655596256256
0.20283322036266327 -0.9805735349655151 0.3164340555667877
0.20240552723407745 -0.9802840352058411 0.18330253660678864
0.20197781920433044 -0.979994535446167 0.05017102137207985
0.20155012607574463 -0.9797050356864929 -0.08296048641204834
0.20112241804599762 -0.9794155955314636 -0.21609200537204742
0.2006947249174118 -0.9791260957717896 -0.3492235243320465
0.200267031788826 -0.9788365960121155 -0.4823550283908844
0.19983932375907898 -0.9785471558570862 -0.6154865622520447
0.19941163063049316 -0.9782576560974121 -0.7486180663108826
0.19898392260074615 -0.977968156337738 -0.8817495703697205
0.19855622947216034 -0.9776787161827087 -1.0148810148239136
0.003579258918762207 -1.0025019645690918 0.9826940894126892
0.003151559503749013 -1.0022125244140625 0.8495625257492065
0.002723860088735819 -1.0019229650497437 0.7164310216903687
0.0022961606737226248 -1.0016335248947144 0.5832995176315308
0.0018684611422941089 -1.001344084739685 0.45016801357269287
0.001440761610865593 -1.0010545253753662 0.317036509513855
0.0010130621958523989 -1.000765085220337 0.1839049905538559
0.0005853627808392048 -1.0004756450653076 0.05077348276972771
0.0001576633076183498 -1.0001860857009888 -0.08235802501440048
-0.00027003613649867475 -0.9998966455459595 -0.21548953652381897
-0.0006977355806156993 -0.9996072053909302 -0.34862104058265686
-0.0011254349956288934 -0.9993177056312561 -0.48175257444381714
-0.0015531345270574093 -0.999028205871582 -0.614884078502655
-0.0019808339420706034 -0.9987387657165527 -0.7480155825614929
-0.0024085333570837975 -0.9984492659568787 -0.8811470866203308
-0.0028362327720969915 -0.9981597661972046 -1.0142786502838135
