ply
format ascii 1.0
element vertex 512
property float x
property float y
property float z
end_header
-0.00551450252532959 1.0378326177597046 -1.3534985780715942
-0.005514679476618767 1.037832498550415 -1.1787806749343872
-0.005514856427907944 1.0378323793411255 -1.0040626525878906
-0.005515033844858408 1.0378323793411255 -0.829344630241394
-0.005515210796147585 1.037832260131836 -0.6546266674995422
-0.005515387747436762 1.0378321409225464 -0.47990870475769043
-0.005515564698725939 1.0378320217132568 -0.30519071221351624
-0.005515741650015116 1.0378319025039673 -0.13047273457050323
-0.005515918601304293 1.0378319025039673 0.04424525424838066
-0.005516096018254757 1.0378317832946777 0.21896323561668396
-0.005516272969543934 1.0378316640853882 0.39368122816085815
-0.005516449920833111 1.0378315448760986 0.56839919090271
-0.005516626872122288 1.037831425666809 0.7431172132492065
-0.005516803823411465 1.037831425666809 0.9178351759910583
-0.005516980774700642 1.0378313064575195 1.0925531387329102
-0.005517158191651106 1.03783118724823 1.2672711610794067
-0.2170746624469757 1.0163190364837646 -1.3534988164901733
-0.21707484126091003 1.016318917274475 -1.1787807941436768
-0.21707502007484436 1.016318917274475 -1.0040628910064697
-0.2170751988887787 1.0163187980651855 -0.8293448686599731
-0.217075377702713 1.016318678855896 -0.6546269059181213
-0.21707554161548615 1.0163185596466064 -0.47990891337394714
-0.21707572042942047 1.016318440437317 -0.30519095063209534
-0.2170758992433548 1.016318440437317 -0.13047295808792114
-0.21707607805728912 1.0163183212280273 0.044245027005672455
-0.21707625687122345 1.0163182020187378 0.21896301209926605
-0.21707643568515778 1.0163180828094482 0.39368098974227905
-0.2170766144990921 1.0163179636001587 0.5683989524841309
-0.21707679331302643 1.0163179636001587 0.7431169748306274
-0.21707697212696075 1.0163178443908691 0.9178349375724792
-0.2170771360397339 1.0163177251815796 1.092552900314331
-0.2170773148536682 1.01631760597229 1.2672709226608276
-0.4199735224246979 0.9526591300964355 -1.3534990549087524
-0.4199737012386322 0.952659010887146 -1.1787810325622559
-0.41997388005256653 0.9526589512825012 -1.0040631294250488
-0.41997405886650085 0.9526588320732117 -0.8293451070785522
-0.4199742376804352 0.9526587724685669 -0.6546271443367004
-0.4199744164943695 0.9526586532592773 -0.47990915179252625
-0.41997459530830383 0.9526585340499878 -0.30519118905067444
-0.41997477412223816 0.952658474445343 -0.13047319650650024
-0.4199749529361725 0.9526583552360535 0.04424478858709335
-0.4199751317501068 0.9526582956314087 0.21896277368068695
-0.41997531056404114 0.9526581764221191 0.39368075132369995
-0.4199754595756531 0.9526580572128296 0.5683987140655518
-0.4199756383895874 0.9526579976081848 0.7431167364120483
-0.41997581720352173 0.9526578783988953 0.9178346991539001
-0.41997599601745605 0.9526578187942505 1.092552661895752
-0.4199761748313904 0.9526576995849609 1.2672706842422485
-0.6059044003486633 0.8494590520858765 -1.3534992933273315
-0.6059045791625977 0.8494589924812317 -1.1787813901901245
-0.605904757976532 0.8494588732719421 -1.004063367843628
-0.6059049367904663 0.8494588136672974 -0.8293453454971313
-0.6059051156044006 0.8494586944580078 -0.6546273827552795
-0.605905294418335 0.8494585752487183 -0.47990939021110535
-0.6059054732322693 0.8494585156440735 -0.30519142746925354
-0.6059056520462036 0.8494583964347839 -0.13047343492507935
-0.6059058308601379 0.8494583368301392 0.04424454644322395
-0.6059060096740723 0.8494582176208496 0.21896252036094666
-0.6059061884880066 0.8494581580162048 0.39368051290512085
-0.6059063076972961 0.8494580388069153 0.5683984756469727
-0.6059064865112305 0.8494579195976257 0.7431164979934692
-0.6059066653251648 0.849457859992981 0.917834460735321
-0.6059068441390991 0.8494577407836914 1.0925524234771729
-0.6059070229530334 0.8494576811790466 1.2672704458236694
-0.7672552466392517 0.7109439373016357 -1.3534995317459106
-0.7672553658485413 0.7109438180923462 -1.1787816286087036
-0.7672555446624756 0.7109437584877014 -1.004063606262207
-0.7672557234764099 0.7109436392784119 -0.8293455839157104
-0.7672559022903442 0.7109435796737671 -0.6546276211738586
-0.7672560811042786 0.7109434604644775 -0.47990962862968445
-0.7672562599182129 0.710943341255188 -0.30519166588783264
-0.7672564387321472 0.7109432816505432 -0.13047367334365845
-0.7672566175460815 0.7109431624412537 0.04424430802464485
-0.7672567963600159 0.7109431028366089 0.21896228194236755
-0.7672569751739502 0.7109429836273193 0.39368027448654175
-0.7672571539878845 0.7109428644180298 0.5683982372283936
-0.7672573328018188 0.710942804813385 0.7431162595748901
-0.7672575116157532 0.7109426856040955 0.9178342223167419
-0.7672576904296875 0.7109426259994507 1.0925521850585938
-0.7672578692436218 0.7109425067901611 1.2672702074050903
-0.8974202871322632 0.5427845120429993 -1.3534997701644897
-0.8974204659461975 0.5427844524383545 -1.1787817478179932
-0.8974206447601318 0.5427843332290649 -1.0040638446807861
-0.8974208235740662 0.5427842140197754 -0.8293458223342896
-0.8974210023880005 0.5427841544151306 -0.6546278595924377
-0.8974211812019348 0.5427840352058411 -0.47990986704826355
-0.8974213600158691 0.5427839756011963 -0.30519187450408936
-0.8974215388298035 0.5427838563919067 -0.13047389686107635
-0.8974217176437378 0.5427837371826172 0.044244084507226944
-0.8974218964576721 0.5427836775779724 0.21896207332611084
-0.8974220752716064 0.5427835583686829 0.39368003606796265
-0.8974222540855408 0.5427834987640381 0.5683980584144592
-0.8974224328994751 0.5427833795547485 0.743116021156311
-0.8974226117134094 0.5427833199501038 0.9178339838981628
-0.8974227905273438 0.5427832007408142 1.0925519466400146
-0.8974229693412781 0.5427830815315247 1.2672699689865112
-0.9910706281661987 0.351865291595459 -1.3535000085830688
-0.9910708069801331 0.3518652021884918 -1.1787819862365723
-0.9910709857940674 0.35186511278152466 -1.0040639638900757
-0.9910711646080017 0.3518650233745575 -0.8293460011482239
-0.991071343421936 0.35186493396759033 -0.6546280384063721
-0.9910715222358704 0.3518648147583008 -0.47991007566452026
-0.9910717010498047 0.3518647253513336 -0.30519208312034607
-0.991071879863739 0.35186463594436646 -0.13047409057617188
-0.9910720586776733 0.3518645465373993 0.044243887066841125
-0.9910722374916077 0.35186445713043213 0.21896186470985413
-0.991072416305542 0.35186436772346497 0.3936798572540283
-0.9910725951194763 0.3518642485141754 0.5683978199958801
-0.9910727739334106 0.35186415910720825 0.7431158423423767
-0.991072952747345 0.3518640697002411 0.9178338050842285
-0.9910731315612793 0.3518639802932739 1.092551827430725
-0.9910733103752136 0.35186389088630676 1.2672697305679321
-1.0443722009658813 0.14600253105163574 -1.3535001277923584
-1.0443724393844604 0.14600244164466858 -1.1787821054458618
-1.04437255859375 0.14600235223770142 -1.0040642023086548
-1.0443726778030396 0.14600224792957306 -0.8293461799621582
-1.0443729162216187 0.1460021585226059 -0.6546282172203064
-1.0443730354309082 0.14600206911563873 -0.4799102246761322
-1.0443732738494873 0.14600196480751038 -0.305192232131958
-1.0443733930587769 0.1460018754005432 -0.1304742693901062
-1.044373631477356 0.14600177109241486 0.044243719428777695
-1.0443737506866455 0.1460016816854477 0.218961700797081
-1.0443739891052246 0.14600159227848053 0.393679678440094
-1.0443741083145142 0.14600148797035217 0.5683976411819458
-1.0443743467330933 0.146001398563385 0.7431156635284424
-1.0443744659423828 0.14600130915641785 0.9178336262702942
-1.044374704360962 0.1460012048482895 1.092551589012146
-1.0443748235702515 0.14600111544132233 1.2672696113586426
-1.0551427602767944 -0.066375732421875 -1.353500247001648
-1.0551429986953735 -0.06637582927942276 -1.1787822246551514
-1.055143117904663 -0.06637592613697052 -1.0040643215179443
-1.0551433563232422 -0.06637601554393768 -0.8293462991714478
-1.0551434755325317 -0.06637611240148544 -0.654628336429596
-1.0551437139511108 -0.0663762092590332 -0.47991034388542175
-1.0551438331604004 -0.06637629866600037 -0.30519238114356995
-1.0551440715789795 -0.06637639552354813 -0.13047438859939575
-1.055144190788269 -0.06637649238109589 0.04424359276890755
-1.0551444292068481 -0.06637658178806305 0.21896158158779144
-1.0551445484161377 -0.06637667864561081 0.39367955923080444
-1.0551447868347168 -0.06637677550315857 0.5683975219726562
-1.0551449060440063 -0.06637687236070633 0.7431155443191528
-1.0551451444625854 -0.06637696176767349 0.9178335070610046
-1.055145263671875 -0.06637705862522125 1.0925514698028564
-1.055145502090454 -0.06637715548276901 1.267269492149353
-1.0229414701461792 -0.2765747308731079 -1.3535003662109375
-1.0229417085647583 -0.2765748202800751 -1.178782343864441
-1.0229418277740479 -0.27657490968704224 -1.0040644407272339
-1.022942066192627 -0.2765749990940094 -0.8293464183807373
-1.0229421854019165 -0.27657508850097656 -0.6546283960342407
-1.0229424238204956 -0.2765751779079437 -0.4799104332923889
-1.0229425430297852 -0.2765752971172333 -0.3051924407482147
-1.0229427814483643 -0.27657538652420044 -0.13047446310520172
-1.0229429006576538 -0.2765754759311676 0.04424351453781128
-1.022943139076233 -0.27657556533813477 0.21896149218082428
-1.0229432582855225 -0.27657565474510193 0.3936794698238373
-1.0229434967041016 -0.2765757441520691 0.5683974623680115
-1.0229436159133911 -0.27657586336135864 0.7431154251098633
-1.0229438543319702 -0.2765759527683258 0.9178334474563599
-1.0229439735412598 -0.27657604217529297 1.092551350593567
-1.0229442119598389 -0.27657613158226013 1.2672693729400635
-0.949086606502533 -0.47598883509635925 -1.3535003662109375
-0.9490867853164673 -0.4759889245033264 -1.178782343864441
-0.9490869641304016 -0.4759890139102936 -1.0040644407272339
-0.9490871429443359 -0.47598913311958313 -0.8293464183807373
-0.9490873217582703 -0.4759892225265503 -0.6546284556388855
-0.9490875005722046 -0.47598931193351746 -0.4799104630947113
-0.9490876793861389 -0.4759894013404846 -0.3051924705505371
-0.9490878582000732 -0.4759894907474518 -0.1304745078086853
-0.9490880370140076 -0.47598958015441895 0.04424348101019859
-0.9490882158279419 -0.4759896993637085 0.2189614623785019
-0.9490883946418762 -0.47598978877067566 0.3936794400215149
-0.9490885734558105 -0.4759898781776428 0.5683974027633667
-0.9490887522697449 -0.47598996758461 0.7431154251098633
-0.9490889310836792 -0.47599005699157715 0.9178333878517151
-0.9490891098976135 -0.4759901463985443 1.092551350593567
-0.9490892887115479 -0.47599026560783386 1.2672693729400635
-0.8366017937660217 -0.6564540863037109 -1.3535003662109375
-0.836601972579956 -0.6564541459083557 -1.178782343864441
-0.8366021513938904 -0.6564542651176453 -1.0040644407272339
-0.8366023302078247 -0.65645432472229 -0.8293464183807373
-0.836602509021759 -0.6564544439315796 -0.6546284556388855
-0.8366026878356934 -0.6564545631408691 -0.4799104630947113
-0.8366028666496277 -0.6564546227455139 -0.3051924705505371
-0.836603045463562 -0.6564547419548035 -0.1304744929075241
-0.8366032242774963 -0.6564548015594482 0.04424349591135979
-0.8366034030914307 -0.6564549207687378 0.21896147727966309
-0.836603581905365 -0.6564549803733826 0.3936794698238373
-0.8366037607192993 -0.6564550995826721 0.5683974623680115
-0.8366039395332336 -0.6564552187919617 0.7431154251098633
-0.836604118347168 -0.6564552783966064 0.9178333878517151
-0.8366042971611023 -0.656455397605896 1.092551350593567
-0.8366044759750366 -0.6564554572105408 1.2672693729400635
-0.690092146396637 -0.8105821013450623 -1.353500247001648
-0.6900923252105713 -0.8105822205543518 -1.178782343864441
-0.6900925040245056 -0.8105823397636414 -1.0040643215179443
-0.6900926828384399 -0.8105823993682861 -0.8293463587760925
-0.6900928616523743 -0.8105825185775757 -0.6546283960342407
-0.6900930404663086 -0.8105825781822205 -0.47991037368774414
-0.6900932192802429 -0.81058269739151 -0.30519241094589233
-0.6900933980941772 -0.8105827569961548 -0.13047441840171814
-0.6900935769081116 -0.8105828762054443 0.04424356296658516
-0.6900937557220459 -0.8105829954147339 0.21896155178546906
-0.6900939345359802 -0.8105830550193787 0.39367952942848206
-0.6900941133499146 -0.8105831742286682 0.5683975219726562
-0.6900942921638489 -0.810583233833313 0.7431154847145081
-0.6900944709777832 -0.8105833530426025 0.9178334474563599
-0.6900946497917175 -0.8105834722518921 1.0925514698028564
-0.6900948286056519 -0.8105835318565369 1.267269492149353
-0.5155557990074158 -0.9320629835128784 -1.353500247001648
-0.5155559778213501 -0.932063102722168 -1.1787822246551514
-0.5155561566352844 -0.9320631623268127 -1.0040642023086548
-0.5155563354492188 -0.9320632815361023 -0.829346239566803
-0.5155565142631531 -0.9320634007453918 -0.6546282768249512
-0.5155566930770874 -0.9320634603500366 -0.479910284280777
-0.5155568718910217 -0.9320635795593262 -0.3051922917366028
-0.515557050704956 -0.932063639163971 -0.13047431409358978
-0.5155572295188904 -0.9320637583732605 0.04424367472529411
-0.5155574083328247 -0.9320638179779053 0.2189616560935974
-0.515557587146759 -0.9320639371871948 0.3936796486377716
-0.5155577659606934 -0.9320640563964844 0.5683976411819458
-0.5155579447746277 -0.9320641160011292 0.7431156039237976
-0.515558123588562 -0.9320642352104187 0.9178335666656494
-0.5155583024024963 -0.9320642948150635 1.092551589012146
-0.5155584812164307 -0.932064414024353 1.267269492149353
-0.3201383352279663 -1.015923261642456 -1.3535000085830688
-0.32013851404190063 -1.0159233808517456 -1.1787821054458618
-0.32013869285583496 -1.0159233808517456 -1.0040640830993652
-0.3201388716697693 -1.0159235000610352 -0.8293460607528687
-0.3201390504837036 -1.0159236192703247 -0.6546280980110168
-0.32013919949531555 -1.0159237384796143 -0.47991013526916504
-0.3201393783092499 -1.0159238576889038 -0.30519214272499084
-0.3201395571231842 -1.0159238576889038 -0.13047415018081665
-0.32013973593711853 -1.0159239768981934 0.04424382746219635
-0.32013991475105286 -1.015924096107483 0.21896180510520935
-0.3201400935649872 -1.0159242153167725 0.39367979764938354
-0.3201402723789215 -1.015924334526062 0.5683977603912354
-0.32014045119285583 -1.015924334526062 0.7431157827377319
-0.32014063000679016 -1.0159244537353516 0.9178337454795837
-0.3201408088207245 -1.0159245729446411 1.0925517082214355
-0.3201409876346588 -1.0159246921539307 1.2672697305679321
-0.11184010654687881 -1.058729648590088 -1.3534998893737793
-0.11184028536081314 -1.0587297677993774 -1.1787818670272827
-0.11184045672416687 -1.0587297677993774 -1.0040638446807861
-0.1118406355381012 -1.058729887008667 -0.8293458819389343
-0.11184081435203552 -1.0587300062179565 -0.6546279191970825
-0.11184099316596985 -1.058730125427246 -0.4799099266529083
-0.11184116452932358 -1.058730125427246 -0.3051919639110565
-0.1118413433432579 -1.0587302446365356 -0.13047397136688232
-0.11184152215719223 -1.0587303638458252 0.04424401372671127
-0.11184170097112656 -1.0587304830551147 0.21896199882030487
-0.11184187233448029 -1.0587306022644043 0.39367997646331787
-0.11184205114841461 -1.0587306022644043 0.5683979392051697
-0.11184222996234894 -1.0587307214736938 0.7431159615516663
-0.11184240877628326 -1.0587308406829834 0.9178339242935181
-0.111842580139637 -1.058730959892273 1.0925519466400146
-0.11184275895357132 -1.0587310791015625 1.2672698497772217
0.10081110149621964 -1.058729648590088 -1.3534996509552002
0.10081092268228531 -1.0587297677993774 -1.1787816286087036
0.10081074386835098 -1.0587297677993774 -1.0040637254714966
0.10081057250499725 -1.058729887008667 -0.829345703125
0.10081039369106293 -1.0587300062179565 -0.6546276807785034
0.1008102148771286 -1.058730125427246 -0.4799097180366516
0.10081003606319427 -1.058730125427246 -0.3051917254924774
0.10080986469984055 -1.0587302446365356 -0.13047374784946442
0.10080968588590622 -1.0587303638458252 0.044244229793548584
0.1008095070719719 -1.0587304830551147 0.21896220743656158
0.10080932825803757 -1.0587306022644043 0.3936801850795746
0.10080914944410324 -1.0587306022644043 0.5683981776237488
0.10080897808074951 -1.0587307214736938 0.7431161403656006
0.10080879926681519 -1.0587308406829834 0.9178341627120972
0.10080862045288086 -1.058730959892273 1.0925520658493042
0.10080844163894653 -1.0587310791015625 1.2672700881958008
0.30910933017730713 -1.015923261642456 -1.353499412536621
0.3091091513633728 -1.0159233808517456 -1.1787813901901245
0.3091089725494385 -1.0159233808517456 -1.0040634870529175
0.30910879373550415 -1.0159235000610352 -0.8293454647064209
0.3091086149215698 -1.0159236192703247 -0.6546274423599243
0.3091084361076355 -1.0159237384796143 -0.4799094796180725
0.30910825729370117 -1.0159238576889038 -0.3051914870738983
0.30910807847976685 -1.0159238576889038 -0.1304735243320465
0.3091078996658325 -1.0159239768981934 0.04424446448683739
0.3091077208518982 -1.015924096107483 0.21896244585514069
0.30910754203796387 -1.0159242153167725 0.3936804234981537
0.30910736322402954 -1.015924334526062 0.5683984160423279
0.3091071844100952 -1.015924334526062 0.7431163787841797
0.3091070353984833 -1.0159244537353516 0.9178344011306763
0.30910685658454895 -1.0159245729446411 1.0925523042678833
0.3091066777706146 -1.0159246921539307 1.2672703266143799
0.5045267939567566 -0.9320629835128784 -1.353499174118042
0.5045266151428223 -0.932063102722168 -1.1787811517715454
0.5045264363288879 -0.9320631623268127 -1.0040631294250488
0.5045262575149536 -0.9320632815361023 -0.8293452262878418
0.5045260787010193 -0.9320634007453918 -0.6546272039413452
0.504525899887085 -0.9320634603500366 -0.4799092411994934
0.5045257210731506 -0.9320635795593262 -0.3051912486553192
0.5045255422592163 -0.932063639163971 -0.1304732710123062
0.5045254230499268 -0.9320637583732605 0.04424470663070679
0.5045252442359924 -0.9320638179779053 0.2189626842737198
0.5045250654220581 -0.9320639371871948 0.3936806619167328
0.5045248866081238 -0.9320640563964844 0.568398654460907
0.5045247077941895 -0.9320641160011292 0.7431166172027588
0.5045245289802551 -0.9320642352104187 0.9178346395492554
0.5045243501663208 -0.9320642948150635 1.092552661895752
0.5045241713523865 -0.932064414024353 1.267270565032959
0.6790631413459778 -0.8105821013450623 -1.353498935699463
0.6790629625320435 -0.8105822205543518 -1.1787809133529663
0.6790627837181091 -0.8105823397636414 -1.0040628910064697
0.6790626049041748 -0.8105823993682861 -0.8293449878692627
0.6790624260902405 -0.8105825185775757 -0.6546269655227661
0.6790622472763062 -0.8105825781822205 -0.4799090027809143
0.6790620684623718 -0.81058269739151 -0.3051910102367401
0.6790618896484375 -0.8105827569961548 -0.1304730325937271
0.6790617108345032 -0.8105828762054443 0.04424494877457619
0.6790615320205688 -0.8105829954147339 0.21896293759346008
0.6790613532066345 -0.8105830550193787 0.3936809003353119
0.6790611743927002 -0.8105831742286682 0.5683988928794861
0.6790609955787659 -0.810583233833313 0.7431168556213379
0.6790608167648315 -0.8105833530426025 0.9178348779678345
0.6790606379508972 -0.8105834722518921 1.092552900314331
0.6790605187416077 -0.8105835318565369 1.267270803451538
0.8255727887153625 -0.6564540863037109 -1.3534986972808838
0.8255726099014282 -0.6564541459083557 -1.1787806749343872
0.8255724310874939 -0.6564542651176453 -1.0040627717971802
0.8255722522735596 -0.65645432472229 -0.8293447494506836
0.8255720734596252 -0.6564544439315796 -0.654626727104187
0.8255718946456909 -0.6564545631408691 -0.4799087643623352
0.8255717158317566 -0.6564546227455139 -0.305190771818161
0.8255715370178223 -0.6564547419548035 -0.130472794175148
0.8255713582038879 -0.6564548015594482 0.04424517974257469
0.8255711793899536 -0.6564549207687378 0.218963161110878
0.8255710005760193 -0.6564549803733826 0.393681138753891
0.825570821762085 -0.6564550995826721 0.5683991312980652
0.8255706429481506 -0.6564552187919617 0.743117094039917
0.8255704641342163 -0.6564552783966064 0.9178351163864136
0.825570285320282 -0.656455397605896 1.0925530195236206
0.8255701065063477 -0.6564554572105408 1.2672710418701172
0.9380576014518738 -0.47598883509635925 -1.3534984588623047
0.9380574226379395 -0.4759889245033264 -1.178780436515808
0.9380572438240051 -0.4759890139102936 -1.004062533378601
0.9380570650100708 -0.47598913311958313 -0.8293445110321045
0.9380569458007812 -0.4759892225265503 -0.6546265482902527
0.9380567669868469 -0.47598931193351746 -0.4799085557460785
0.9380565881729126 -0.4759894013404846 -0.3051905632019043
0.9380564093589783 -0.4759894907474518 -0.1304725855588913
0.938056230545044 -0.47598958015441895 0.044245392084121704
0.9380560517311096 -0.4759896993637085 0.2189633697271347
0.9380558729171753 -0.47598978877067566 0.3936813473701477
0.938055694103241 -0.4759898781776428 0.5683993697166443
0.9380555152893066 -0.47598996758461 0.7431173324584961
0.9380553364753723 -0.47599005699157715 0.9178352952003479
0.938055157661438 -0.4759901463985443 1.0925532579421997
0.9380549788475037 -0.47599026560783386 1.2672712802886963
1.01191246509552 -0.2765747308731079 -1.3534983396530151
1.0119123458862305 -0.2765748202800751 -1.1787803173065186
1.0119121074676514 -0.27657490968704224 -1.004062294960022
1.0119119882583618 -0.2765749990940094 -0.8293443322181702
1.0119117498397827 -0.27657508850097656 -0.6546263694763184
1.0119116306304932 -0.2765751779079437 -0.47990837693214417
1.011911392211914 -0.2765752971172333 -0.30519038438796997
1.0119112730026245 -0.27657538652420044 -0.13047240674495697
1.0119110345840454 -0.2765754759311676 0.04424557462334633
1.0119109153747559 -0.27657556533813477 0.21896356344223022
1.0119106769561768 -0.27657565474510193 0.39368152618408203
1.0119105577468872 -0.2765757441520691 0.5683995485305786
1.0119104385375977 -0.27657586336135864 0.7431175112724304
1.0119102001190186 -0.2765759527683258 0.9178354740142822
1.011910080909729 -0.27657604217529297 1.0925534963607788
1.01190984249115 -0.27657613158226013 1.2672713994979858
1.0441137552261353 -0.066375732421875 -1.353498101234436
1.0441136360168457 -0.06637582927942276 -1.178780198097229
1.0441133975982666 -0.06637592613697052 -1.0040621757507324
1.044113278388977 -0.06637601554393768 -0.8293442130088806
1.044113039970398 -0.06637611240148544 -0.654626190662384
1.0441129207611084 -0.0663762092590332 -0.4799082279205322
1.0441128015518188 -0.06637629866600037 -0.30519023537635803
1.0441125631332397 -0.06637639552354813 -0.13047225773334503
1.0441124439239502 -0.06637649238109589 0.04424571990966797
1.044112205505371 -0.06637658178806305 0.21896369755268097
1.0441120862960815 -0.06637667864561081 0.39368167519569397
1.0441118478775024 -0.06637677550315857 0.5683996677398682
1.044111728668213 -0.06637687236070633 0.74311763048172
1.0441114902496338 -0.06637696176767349 0.9178356528282166
1.0441113710403442 -0.06637705862522125 1.0925536155700684
1.0441111326217651 -0.06637715548276901 1.267271637916565
1.0333431959152222 0.14600253105163574 -1.3534979820251465
1.0333430767059326 0.14600244164466858 -1.1787800788879395
1.0333428382873535 0.14600235223770142 -1.0040620565414429
1.033342719078064 0.14600224792957306 -0.8293440937995911
1.0333424806594849 0.1460021585226059 -0.6546261310577393
1.0333423614501953 0.14600206911563873 -0.4799081087112427
1.0333421230316162 0.14600196480751038 -0.30519014596939087
1.0333420038223267 0.1460018754005432 -0.13047215342521667
1.0333417654037476 0.14600177109241486 0.044245824217796326
1.033341646194458 0.1460016816854477 0.21896380186080933
1.033341407775879 0.14600159227848053 0.3936817944049835
1.0333412885665894 0.14600148797035217 0.5683997869491577
1.0333410501480103 0.146001398563385 0.7431177496910095
1.0333409309387207 0.14600130915641785 0.9178357124328613
1.0333406925201416 0.1460012048482895 1.092553734779358
1.033340573310852 0.14600111544132233 1.2672717571258545
0.9800416231155396 0.351865291595459 -1.3534979820251465
0.9800414443016052 0.3518652021884918 -1.17877995967865
0.9800412654876709 0.35186511278152466 -1.0040620565414429
0.9800410866737366 0.3518650233745575 -0.8293440341949463
0.9800409078598022 0.35186493396759033 -0.6546260714530945
0.9800407290458679 0.3518648147583008 -0.4799080789089203
0.9800405502319336 0.3518647253513336 -0.3051900863647461
0.9800403714179993 0.35186463594436646 -0.1304720938205719
0.9800401926040649 0.3518645465373993 0.0442458838224411
0.9800400137901306 0.35186445713043213 0.2189638614654541
0.9800398945808411 0.35186436772346497 0.3936818540096283
0.9800397157669067 0.3518642485141754 0.5683998465538025
0.9800395369529724 0.35186415910720825 0.7431178092956543
0.9800393581390381 0.3518640697002411 0.9178357720375061
0.9800391793251038 0.3518639802932739 1.092553734779358
0.9800390005111694 0.35186389088630676 1.2672717571258545
0.886391282081604 0.5427845120429993 -1.3534979820251465
0.8863911032676697 0.5427844524383545 -1.17877995967865
0.8863909244537354 0.5427843332290649 -1.0040620565414429
0.886390745639801 0.5427842140197754 -0.8293440341949463
0.8863905668258667 0.5427841544151306 -0.6546260118484497
0.8863903880119324 0.5427840352058411 -0.4799080491065979
0.886390209197998 0.5427839756011963 -0.3051900863647461
0.8863900303840637 0.5427838563919067 -0.1304720938205719
0.8863898515701294 0.5427837371826172 0.0442458912730217
0.8863896727561951 0.5427836775779724 0.2189638763666153
0.8863894939422607 0.5427835583686829 0.3936818540096283
0.8863893151283264 0.5427834987640381 0.5683998465538025
0.8863891363143921 0.5427833795547485 0.7431178092956543
0.8863889575004578 0.5427833199501038 0.9178358316421509
0.8863888382911682 0.5427832007408142 1.092553734779358
0.8863886594772339 0.5427830815315247 1.2672717571258545
0.7562262415885925 0.7109439373016357 -1.3534979820251465
0.7562260627746582 0.7109438180923462 -1.1787800788879395
0.7562258839607239 0.7109437584877014 -1.0040620565414429
0.7562257051467896 0.7109436392784119 -0.8293440341949463
0.7562255263328552 0.7109435796737671 -0.6546260714530945
0.7562253475189209 0.7109434604644775 -0.4799081087112427
0.7562251687049866 0.710943341255188 -0.3051901161670685
0.7562249898910522 0.7109432816505432 -0.13047213852405548
0.7562248110771179 0.7109431624412537 0.044245850294828415
0.7562246322631836 0.7109431028366089 0.2189638316631317
0.7562244534492493 0.7109429836273193 0.3936818242073059
0.7562242746353149 0.7109428644180298 0.5683997869491577
0.7562240958213806 0.710942804813385 0.7431178092956543
0.7562239170074463 0.7109426856040955 0.9178357720375061
0.756223738193512 0.7109426259994507 1.092553734779358
0.7562235593795776 0.7109425067901611 1.2672717571258545
0.5948753952980042 0.8494590520858765 -1.353498101234436
0.5948752164840698 0.8494589924812317 -1.1787800788879395
0.5948750376701355 0.8494588732719421 -1.0040621757507324
0.5948748588562012 0.8494588136672974 -0.8293441534042358
0.5948746800422668 0.8494586944580078 -0.654626190662384
0.5948745012283325 0.8494585752487183 -0.47990819811820984
0.5948743224143982 0.8494585156440735 -0.30519020557403564
0.5948741436004639 0.8494583964347839 -0.13047222793102264
0.5948739647865295 0.8494583368301392 0.04424576088786125
0.5948737859725952 0.8494582176208496 0.21896374225616455
0.5948736071586609 0.8494581580162048 0.39368173480033875
0.5948734283447266 0.8494580388069153 0.5683997273445129
0.5948732495307922 0.8494579195976257 0.7431176900863647
0.5948730707168579 0.849457859992981 0.9178356528282166
0.5948728919029236 0.8494577407836914 1.0925536155700684
0.5948727130889893 0.8494576811790466 1.267271637916565
0.4089445173740387 0.9526591300964355 -1.3534982204437256
0.40894433856010437 0.952659010887146 -1.178780198097229
0.40894415974617004 0.9526589512825012 -1.004062294960022
0.4089439809322357 0.9526588320732117 -0.8293442726135254
0.4089438021183014 0.9526587724685669 -0.6546263098716736
0.40894362330436707 0.9526586532592773 -0.4799083173274994
0.4089434742927551 0.9526585340499878 -0.3051903247833252
0.4089432954788208 0.952658474445343 -0.1304723471403122
0.4089431166648865 0.9526583552360535 0.044245630502700806
0.40894293785095215 0.9526582956314087 0.2189636081457138
0.4089427590370178 0.9526581764221191 0.3936815857887268
0.4089425802230835 0.9526580572128296 0.5683995485305786
0.40894240140914917 0.9526579976081848 0.7431175708770752
0.40894222259521484 0.9526578783988953 0.917835533618927
0.4089420437812805 0.9526578187942505 1.0925534963607788
0.4089418649673462 0.9526576995849609 1.2672715187072754
0.20604565739631653 1.0163190364837646 -1.3534984588623047
0.2060454785823822 1.016318917274475 -1.178780436515808
0.20604529976844788 1.016318917274475 -1.0040624141693115
0.20604512095451355 1.0163187980651855 -0.8293444514274597
0.20604495704174042 1.016318678855896 -0.6546264886856079
0.2060447782278061 1.0163185596466064 -0.4799084961414337
0.20604459941387177 1.016318440437317 -0.3051905035972595
0.20604442059993744 1.016318440437317 -0.13047252595424652
0.2060442417860031 1.0163183212280273 0.044245459139347076
0.2060440629720688 1.0163182020187378 0.21896344423294067
0.20604388415813446 1.0163180828094482 0.39368143677711487
0.20604370534420013 1.0163179636001587 0.5683994293212891
0.206043541431427 1.0163179636001587 0.7431173920631409
0.20604336261749268 1.0163178443908691 0.9178353548049927
0.20604318380355835 1.0163177251815796 1.0925533771514893
0.20604300498962402 1.01631760597229 1.2672712802886963
-0.00551450252532959 1.0378326177597046 -1.3534985780715942
-0.005514679476618767 1.037832498550415 -1.1787806749343872
-0.005514856427907944 1.0378323793411255 -1.0040626525878906
-0.005515033844858408 1.0378323793411255 -0.829344630241394
-0.005515210796147585 1.037832260131836 -0.6546266674995422
-0.005515387747436762 1.0378321409225464 -0.47990870475769043
-0.005515564698725939 1.0378320217132568 -0.30519071221351624
-0.005515741650015116 1.0378319025039673 -0.13047273457050323
-0.005515918601304293 1.0378319025039673 0.04424525424838066
-0.005516096018254757 1.0378317832946777 0.21896323561668396
-0.005516272969543934 1.0378316640853882 0.39368122816085815
-0.005516449920833111 1.0378315448760986 0.56839919090271
-0.005516626872122288 1.037831425666809 0.7431172132492065
-0.005516803823411465 1.037831425666809 0.9178351759910583
-0.005516980774700642 1.0378313064575195 1.0925531387329102
-0.005517158191651106 1.03783118724823 1.2672711610794067
