ply
format ascii 1.0
element vertex 512
property float x
property float y
property float z
end_header
-0.004753708839416504 1.0374709367752075 -0.9362666606903076
-0.004753714427351952 1.0374709367752075 -0.810947060585022
-0.004753720015287399 1.0374709367752075 -0.6856275200843811
-0.00475372513756156 1.0374709367752075 -0.5603079199790955
-0.004753730725497007 1.0374709367752075 -0.4349883198738098
-0.004753736313432455 1.0374709367752075 -0.30966874957084656
-0.004753741901367903 1.0374709367752075 -0.1843491494655609
-0.004753747023642063 1.0374709367752075 -0.05902957171201706
-0.004753752611577511 1.0374709367752075 0.06629001349210739
-0.0047537581995129585 1.0374709367752075 0.19160959124565125
-0.004753763787448406 1.0374709367752075 0.3169291913509369
-0.004753768909722567 1.0374709367752075 0.44224876165390015
-0.004753774497658014 1.0374709367752075 0.5675683617591858
-0.004753780085593462 1.0374709367752075 0.6928879618644714
-0.00475378567352891 1.0374709367752075 0.8182075023651123
-0.00475379079580307 1.0374709367752075 0.943527102470398
-0.20818468928337097 1.0167840719223022 -0.9362666606903076
-0.20818470418453217 1.0167840719223022 -0.810947060585022
-0.20818470418453217 1.0167840719223022 -0.6856275200843811
-0.20818470418453217 1.0167840719223022 -0.5603079199790955
-0.20818471908569336 1.0167840719223022 -0.4349883198738098
-0.20818471908569336 1.0167840719223022 -0.30966874957084656
-0.20818471908569336 1.0167840719223022 -0.1843491643667221
-0.20818473398685455 1.0167840719223022 -0.059029579162597656
-0.20818473398685455 1.0167840719223022 0.0662900060415268
-0.20818473398685455 1.0167840719223022 0.19160959124565125
-0.20818474888801575 1.0167840719223022 0.3169291615486145
-0.20818474888801575 1.0167840719223022 0.44224876165390015
-0.20818476378917694 1.0167840719223022 0.5675683617591858
-0.20818476378917694 1.0167840719223022 0.6928879022598267
-0.20818476378917694 1.0167840719223022 0.8182075023651123
-0.20818477869033813 1.0167840719223022 0.943527102470398
-0.4032871723175049 0.9555702209472656 -0.9362666606903076
-0.40328720211982727 0.9555702209472656 -0.8109471201896667
-0.40328720211982727 0.9555702209472656 -0.6856275200843811
-0.40328720211982727 0.9555702209472656 -0.5603079199790955
-0.40328720211982727 0.9555702209472656 -0.4349883496761322
-0.40328720211982727 0.9555702209472656 -0.30966874957084656
-0.40328723192214966 0.9555702209472656 -0.1843491792678833
-0.40328723192214966 0.9555702209472656 -0.05902959033846855
-0.40328723192214966 0.9555702209472656 0.0662899985909462
-0.40328723192214966 0.9555702209472656 0.19160957634449005
-0.40328723192214966 0.9555702209472656 0.3169291615486145
-0.40328723192214966 0.9555702209472656 0.44224876165390015
-0.40328726172447205 0.9555702209472656 0.567568302154541
-0.40328726172447205 0.9555702209472656 0.6928879022598267
-0.40328726172447205 0.9555702209472656 0.8182075023651123
-0.40328726172447205 0.9555702209472656 0.943527102470398
-0.5820736885070801 0.8563356399536133 -0.9362666606903076
-0.5820736885070801 0.8563356399536133 -0.8109471201896667
-0.5820736885070801 0.8563356399536133 -0.6856275200843811
-0.5820736885070801 0.8563356399536133 -0.5603079199790955
-0.5820736885070801 0.8563356399536133 -0.4349883496761322
-0.5820736885070801 0.8563356399536133 -0.30966877937316895
-0.5820736885070801 0.8563356399536133 -0.1843491792678833
-0.5820736885070801 0.8563356399536133 -0.05902959778904915
-0.5820736885070801 0.8563356399536133 0.066289983689785
-0.5820737481117249 0.8563356399536133 0.19160957634449005
-0.5820737481117249 0.8563356399536133 0.3169291615486145
-0.5820737481117249 0.8563356399536133 0.44224873185157776
-0.5820737481117249 0.8563356399536133 0.567568302154541
-0.5820737481117249 0.8563356399536133 0.6928879022598267
-0.5820737481117249 0.8563356399536133 0.8182075023651123
-0.5820737481117249 0.8563356399536133 0.943527102470398
-0.7372246384620667 0.7231429219245911 -0.9362667202949524
-0.7372246384620667 0.7231429219245911 -0.8109471201896667
-0.7372246384620667 0.7231429219245911 -0.6856275200843811
-0.7372246384620667 0.7231429219245911 -0.5603079199790955
-0.7372246384620667 0.7231429219245911 -0.4349883496761322
-0.7372246384620667 0.7231429219245911 -0.30966877937316895
-0.7372246384620667 0.7231429219245911 -0.1843491941690445
-0.7372246384620667 0.7231429219245911 -0.059029605239629745
-0.7372246384620667 0.7231429219245911 0.066289983689785
-0.7372246384620667 0.7231429219245911 0.19160956144332886
-0.7372246384620667 0.7231429219245911 0.3169291615486145
-0.7372246980667114 0.7231429219245911 0.44224873185157776
-0.7372246980667114 0.7231429219245911 0.567568302154541
-0.7372246980667114 0.7231429219245911 0.6928879022598267
-0.7372246980667114 0.7231429219245911 0.8182075023651123
-0.7372246980667114 0.7231429219245911 0.9435270428657532
-0.8623881340026855 0.5614449977874756 -0.9362667202949524
-0.8623881340026855 0.5614449977874756 -0.8109471201896667
-0.8623881340026855 0.5614449977874756 -0.6856275200843811
-0.8623881340026855 0.5614449977874756 -0.5603079199790955
-0.8623881340026855 0.5614449977874756 -0.4349883496761322
-0.8623881340026855 0.5614449977874756 -0.30966877937316895
-0.8623881340026855 0.5614449977874756 -0.1843491941690445
-0.8623881340026855 0.5614449977874756 -0.059029608964920044
-0.8623881340026855 0.5614449977874756 0.0662899762392044
-0.8623881340026855 0.5614449977874756 0.19160956144332886
-0.8623881340026855 0.5614449977874756 0.3169291317462921
-0.8623881936073303 0.5614449977874756 0.44224873185157776
-0.8623881936073303 0.5614449977874756 0.567568302154541
-0.8623881936073303 0.5614449977874756 0.6928879022598267
-0.8623881936073303 0.5614449977874756 0.8182075023651123
-0.8623881936073303 0.5614449977874756 0.9435270428657532
-0.9524399638175964 0.3778618574142456 -0.9362667202949524
-0.9524399638175964 0.3778618574142456 -0.8109471201896667
-0.9524399638175964 0.3778618574142456 -0.6856275200843811
-0.9524399638175964 0.3778618574142456 -0.5603079199790955
-0.9524399638175964 0.3778618574142456 -0.4349883794784546
-0.9524399638175964 0.3778618574142456 -0.30966877937316895
-0.9524399638175964 0.3778618574142456 -0.1843491941690445
-0.9524399638175964 0.3778618574142456 -0.05902961269021034
-0.9524399638175964 0.3778618574142456 0.06628996878862381
-0.9524400234222412 0.3778618574142456 0.19160956144332886
-0.9524400234222412 0.3778618574142456 0.3169291317462921
-0.9524400234222412 0.3778618574142456 0.44224873185157776
-0.9524400234222412 0.3778618574142456 0.567568302154541
-0.9524400234222412 0.3778618574142456 0.6928879022598267
-0.9524400234222412 0.3778618574142456 0.8182075023651123
-0.9524400234222412 0.3778618574142456 0.9435270428657532
-1.0036934614181519 0.1799093335866928 -0.9362667202949524
-1.0036934614181519 0.1799093335866928 -0.8109471201896667
-1.0036934614181519 0.1799093335866928 -0.6856275200843811
-1.0036934614181519 0.1799093335866928 -0.5603079795837402
-1.0036934614181519 0.1799093335866928 -0.4349883794784546
-1.0036934614181519 0.1799093335866928 -0.30966877937316895
-1.0036934614181519 0.1799093335866928 -0.1843491941690445
-1.0036934614181519 0.1799093335866928 -0.05902961641550064
-1.0036934614181519 0.1799093335866928 0.06628996878862381
-1.0036934614181519 0.1799093335866928 0.19160954654216766
-1.0036934614181519 0.1799093335866928 0.3169291317462921
-1.0036934614181519 0.1799093335866928 0.44224873185157776
-1.0036934614181519 0.1799093335866928 0.567568302154541
-1.0036934614181519 0.1799093335866928 0.6928879022598267
-1.0036934614181519 0.1799093335866928 0.8182075023651123
-1.0036934614181519 0.1799093335866928 0.9435270428657532
-1.0140501260757446 -0.02430832013487816 -0.9362667202949524
-1.0140501260757446 -0.02430831827223301 -0.8109471201896667
-1.0140501260757446 -0.02430831827223301 -0.6856275200843811
-1.0140501260757446 -0.02430831827223301 -0.5603079795837402
-1.0140501260757446 -0.02430831827223301 -0.4349883794784546
-1.0140501260757446 -0.02430831827223301 -0.30966877937316895
-1.0140501260757446 -0.02430831827223301 -0.1843491941690445
-1.0140502452850342 -0.02430831827223301 -0.05902961641550064
-1.0140502452850342 -0.02430831827223301 0.06628996878862381
-1.0140502452850342 -0.02430831827223301 0.19160954654216766
-1.0140502452850342 -0.02430831827223301 0.3169291317462921
-1.0140502452850342 -0.02430831827223301 0.44224873185157776
-1.0140502452850342 -0.02430831827223301 0.567568302154541
-1.0140502452850342 -0.02430831827223301 0.6928879022598267
-1.0140502452850342 -0.02430831827223301 0.8182075023651123
-1.0140502452850342 -0.02430831827223301 0.9435270428657532
-0.9830861687660217 -0.22643043100833893 -0.9362667202949524
-0.9830861687660217 -0.22643043100833893 -0.8109471201896667
-0.9830861687660217 -0.22643043100833893 -0.6856275200843811
-0.9830862283706665 -0.22643043100833893 -0.5603079795837402
-0.9830862283706665 -0.22643043100833893 -0.4349883794784546
-0.9830862283706665 -0.22643043100833893 -0.30966877937316895
-0.9830862283706665 -0.22643043100833893 -0.1843491941690445
-0.9830862283706665 -0.22643043100833893 -0.05902961269021034
-0.9830862283706665 -0.22643043100833893 0.06628996878862381
-0.9830862283706665 -0.22643043100833893 0.19160956144332886
-0.9830862283706665 -0.22643043100833893 0.3169291317462921
-0.9830862283706665 -0.22643043100833893 0.44224873185157776
-0.9830862283706665 -0.22643043100833893 0.567568302154541
-0.9830862283706665 -0.22643043100833893 0.6928879022598267
-0.9830862879753113 -0.22643043100833893 0.8182075023651123
-0.9830862879753113 -0.22643043100833893 0.9435270428657532
-0.9120691418647766 -0.4181820750236511 -0.9362667202949524
-0.9120692014694214 -0.4181820750236511 -0.8109471201896667
-0.9120692014694214 -0.4181820750236511 -0.6856275200843811
-0.9120692014694214 -0.4181820750236511 -0.5603079199790955
-0.9120692014694214 -0.4181820750236511 -0.4349883496761322
-0.9120692014694214 -0.4181820750236511 -0.30966877937316895
-0.9120692014694214 -0.4181820750236511 -0.1843491941690445
-0.9120692014694214 -0.4181820750236511 -0.059029608964920044
-0.9120692014694214 -0.4181820750236511 0.0662899762392044
-0.9120692014694214 -0.4181820750236511 0.19160956144332886
-0.9120692014694214 -0.4181820750236511 0.3169291317462921
-0.9120692014694214 -0.4181820750236511 0.44224873185157776
-0.9120692610740662 -0.4181820750236511 0.567568302154541
-0.9120692610740662 -0.4181820750236511 0.6928879022598267
-0.9120692610740662 -0.4181820750236511 0.8182075023651123
-0.9120692610740662 -0.4181820750236511 0.9435270428657532
-0.8039065599441528 -0.5917129516601562 -0.9362667202949524
-0.8039065599441528 -0.5917129516601562 -0.8109471201896667
-0.8039065599441528 -0.5917129516601562 -0.6856275200843811
-0.8039065599441528 -0.5917129516601562 -0.5603079199790955
-0.8039065599441528 -0.5917129516601562 -0.4349883496761322
-0.8039065599441528 -0.5917129516601562 -0.30966877937316895
-0.8039065599441528 -0.5917129516601562 -0.1843491941690445
-0.8039066195487976 -0.5917129516601562 -0.059029605239629745
-0.8039066195487976 -0.5917129516601562 0.0662899762392044
-0.8039066195487976 -0.5917129516601562 0.19160956144332886
-0.8039066195487976 -0.5917129516601562 0.3169291615486145
-0.8039066195487976 -0.5917129516601562 0.44224873185157776
-0.8039066195487976 -0.5917129516601562 0.567568302154541
-0.8039066195487976 -0.5917129516601562 0.6928879022598267
-0.8039066195487976 -0.5917129516601562 0.8182075023651123
-0.8039066195487976 -0.5917129516601562 0.9435270428657532
-0.6630265116691589 -0.7399186491966248 -0.9362666606903076
-0.6630265116691589 -0.7399186491966248 -0.8109471201896667
-0.6630265116691589 -0.7399186491966248 -0.6856275200843811
-0.6630265712738037 -0.7399186491966248 -0.5603079199790955
-0.6630265712738037 -0.7399186491966248 -0.4349883496761322
-0.6630265712738037 -0.7399186491966248 -0.30966877937316895
-0.6630265712738037 -0.7399186491966248 -0.1843491792678833
-0.6630265712738037 -0.7399186491966248 -0.05902959778904915
-0.6630265712738037 -0.7399186491966248 0.066289983689785
-0.6630265712738037 -0.7399186491966248 0.19160957634449005
-0.6630265712738037 -0.7399186491966248 0.3169291615486145
-0.6630265712738037 -0.7399186491966248 0.44224873185157776
-0.6630265712738037 -0.7399186491966248 0.567568302154541
-0.6630265712738037 -0.7399186491966248 0.6928879022598267
-0.6630266308784485 -0.7399186491966248 0.8182075023651123
-0.6630266308784485 -0.7399186491966248 0.943527102470398
-0.49519672989845276 -0.856731653213501 -0.9362666606903076
-0.49519672989845276 -0.856731653213501 -0.8109471201896667
-0.49519675970077515 -0.856731653213501 -0.6856275200843811
-0.49519675970077515 -0.856731653213501 -0.5603079199790955
-0.49519675970077515 -0.856731653213501 -0.4349883496761322
-0.49519675970077515 -0.856731653213501 -0.30966874957084656
-0.49519675970077515 -0.856731653213501 -0.1843491792678833
-0.49519675970077515 -0.856731653213501 -0.05902959033846855
-0.49519678950309753 -0.856731653213501 0.0662899911403656
-0.49519678950309753 -0.856731653213501 0.19160957634449005
-0.49519678950309753 -0.856731653213501 0.3169291615486145
-0.49519678950309753 -0.856731653213501 0.44224873185157776
-0.49519678950309753 -0.856731653213501 0.567568302154541
-0.4951968193054199 -0.856731653213501 0.6928879022598267
-0.4951968193054199 -0.856731653213501 0.8182075023651123
-0.4951968193054199 -0.856731653213501 0.943527102470398
-0.30728814005851746 -0.9373695850372314 -0.9362666606903076
-0.30728814005851746 -0.9373695850372314 -0.810947060585022
-0.30728816986083984 -0.9373695850372314 -0.6856275200843811
-0.30728816986083984 -0.9373695850372314 -0.5603079199790955
-0.30728816986083984 -0.9373695850372314 -0.4349883496761322
-0.30728816986083984 -0.9373695850372314 -0.30966874957084656
-0.30728816986083984 -0.9373695850372314 -0.1843491643667221
-0.30728816986083984 -0.9373695850372314 -0.059029582887887955
-0.30728819966316223 -0.9373695850372314 0.0662899985909462
-0.30728819966316223 -0.9373695850372314 0.19160959124565125
-0.30728819966316223 -0.9373695850372314 0.3169291615486145
-0.30728819966316223 -0.9373695850372314 0.44224876165390015
-0.30728819966316223 -0.9373695850372314 0.5675683617591858
-0.3072882294654846 -0.9373695850372314 0.6928879022598267
-0.3072882294654846 -0.9373695850372314 0.8182075023651123
-0.3072882294654846 -0.9373695850372314 0.943527102470398
-0.10699375718832016 -0.9785311222076416 -0.9362666606903076
-0.10699376463890076 -0.9785311222076416 -0.810947060585022
-0.10699377208948135 -0.9785311222076416 -0.6856275200843811
-0.10699377954006195 -0.9785311222076416 -0.5603079199790955
-0.10699377954006195 -0.9785311222076416 -0.4349883198738098
-0.10699378699064255 -0.9785311222076416 -0.30966874957084656
-0.10699379444122314 -0.9785311222076416 -0.1843491643667221
-0.10699380189180374 -0.9785311222076416 -0.05902957543730736
-0.10699380189180374 -0.9785311222076416 0.0662900060415268
-0.10699380934238434 -0.9785311222076416 0.19160959124565125
-0.10699381679296494 -0.9785311222076416 0.3169291913509369
-0.10699382424354553 -0.9785311222076416 0.44224876165390015
-0.10699382424354553 -0.9785311222076416 0.5675683617591858
-0.10699383169412613 -0.9785311222076416 0.6928879022598267
-0.10699383914470673 -0.9785311222076416 0.8182075023651123
-0.10699384659528732 -0.9785311222076416 0.943527102470398
0.09748633950948715 -0.9785311222076416 -0.9362666606903076
0.09748633950948715 -0.9785311222076416 -0.810947060585022
0.09748633205890656 -0.9785311222076416 -0.6856274604797363
0.09748632460832596 -0.9785311222076416 -0.5603079199790955
0.09748632460832596 -0.9785311222076416 -0.4349883198738098
0.09748631715774536 -0.9785311222076416 -0.30966871976852417
0.09748630970716476 -0.9785311222076416 -0.1843491494655609
0.09748630225658417 -0.9785311222076416 -0.05902956426143646
0.09748630225658417 -0.9785311222076416 0.06629002094268799
0.09748629480600357 -0.9785311222076416 0.19160960614681244
0.09748628735542297 -0.9785311222076416 0.3169291913509369
0.09748627990484238 -0.9785311222076416 0.44224876165390015
0.09748627990484238 -0.9785311222076416 0.5675683617591858
0.09748627245426178 -0.9785311222076416 0.6928879618644714
0.09748626500368118 -0.9785311222076416 0.8182075023651123
0.09748625755310059 -0.9785311222076416 0.943527102470398
0.29778072237968445 -0.9373695850372314 -0.9362666606903076
0.29778072237968445 -0.9373695850372314 -0.810947060585022
0.29778072237968445 -0.9373695850372314 -0.6856274604797363
0.29778072237968445 -0.9373695850372314 -0.5603079199790955
0.29778069257736206 -0.9373695850372314 -0.4349883198738098
0.29778069257736206 -0.9373695850372314 -0.30966871976852417
0.29778069257736206 -0.9373695850372314 -0.18434913456439972
0.29778069257736206 -0.9373695850372314 -0.059029556810855865
0.29778069257736206 -0.9373695850372314 0.06629002839326859
0.29778069257736206 -0.9373695850372314 0.19160960614681244
0.2977806627750397 -0.9373695850372314 0.3169291913509369
0.2977806627750397 -0.9373695850372314 0.44224879145622253
0.2977806627750397 -0.9373695850372314 0.5675683617591858
0.2977806627750397 -0.9373695850372314 0.6928879618644714
0.2977806627750397 -0.9373695850372314 0.8182075023651123
0.2977806329727173 -0.9373695850372314 0.943527102470398
0.48568931221961975 -0.856731653213501 -0.9362666606903076
0.48568931221961975 -0.856731653213501 -0.810947060585022
0.48568931221961975 -0.856731653213501 -0.6856274604797363
0.48568931221961975 -0.856731653213501 -0.5603078603744507
0.48568928241729736 -0.856731653213501 -0.4349882900714874
0.48568928241729736 -0.856731653213501 -0.30966871976852417
0.48568928241729736 -0.856731653213501 -0.18434913456439972
0.48568928241729736 -0.856731653213501 -0.05902954936027527
0.48568928241729736 -0.856731653213501 0.06629003584384918
0.485689252614975 -0.856731653213501 0.19160962104797363
0.485689252614975 -0.856731653213501 0.3169291913509369
0.485689252614975 -0.856731653213501 0.44224879145622253
0.485689252614975 -0.856731653213501 0.5675683617591858
0.485689252614975 -0.856731653213501 0.6928879618644714
0.485689252614975 -0.856731653213501 0.8182075619697571
0.4856892228126526 -0.856731653213501 0.943527102470398
0.6535190939903259 -0.7399186491966248 -0.9362666606903076
0.6535190939903259 -0.7399186491966248 -0.810947060585022
0.6535190939903259 -0.7399186491966248 -0.6856274604797363
0.6535190939903259 -0.7399186491966248 -0.5603078603744507
0.6535190939903259 -0.7399186491966248 -0.4349882900714874
0.6535190939903259 -0.7399186491966248 -0.30966871976852417
0.6535190939903259 -0.7399186491966248 -0.18434911966323853
0.6535190939903259 -0.7399186491966248 -0.05902954190969467
0.6535190939903259 -0.7399186491966248 0.06629004329442978
0.6535190343856812 -0.7399186491966248 0.19160962104797363
0.6535190343856812 -0.7399186491966248 0.3169292211532593
0.6535190343856812 -0.7399186491966248 0.44224879145622253
0.6535190343856812 -0.7399186491966248 0.5675683617591858
0.6535190343856812 -0.7399186491966248 0.6928879618644714
0.6535190343856812 -0.7399186491966248 0.8182075619697571
0.6535190343856812 -0.7399186491966248 0.943527102470398
0.7943991422653198 -0.5917129516601562 -0.9362666010856628
0.7943991422653198 -0.5917129516601562 -0.810947060585022
0.7943991422653198 -0.5917129516601562 -0.6856274604797363
0.7943991422653198 -0.5917129516601562 -0.5603078603744507
0.7943991422653198 -0.5917129516601562 -0.4349882900714874
0.794399082660675 -0.5917129516601562 -0.3096686899662018
0.794399082660675 -0.5917129516601562 -0.18434911966323853
0.794399082660675 -0.5917129516601562 -0.059029534459114075
0.794399082660675 -0.5917129516601562 0.06629005074501038
0.794399082660675 -0.5917129516601562 0.19160963594913483
0.794399082660675 -0.5917129516601562 0.3169292211532593
0.794399082660675 -0.5917129516601562 0.44224879145622253
0.794399082660675 -0.5917129516601562 0.5675683617591858
0.794399082660675 -0.5917129516601562 0.6928879618644714
0.794399082660675 -0.5917129516601562 0.8182075619697571
0.794399082660675 -0.5917129516601562 0.9435271620750427
0.9025617241859436 -0.4181820750236511 -0.9362666010856628
0.9025617241859436 -0.4181820750236511 -0.810947060585022
0.9025617241859436 -0.4181820750236511 -0.6856274604797363
0.9025617241859436 -0.4181820750236511 -0.5603078603744507
0.9025617241859436 -0.4181820750236511 -0.4349882900714874
0.9025617241859436 -0.4181820750236511 -0.3096686899662018
0.9025617241859436 -0.4181820750236511 -0.18434911966323853
0.9025617241859436 -0.4181820750236511 -0.059029530733823776
0.9025617241859436 -0.4181820750236511 0.06629005074501038
0.9025617241859436 -0.4181820750236511 0.19160963594913483
0.9025617241859436 -0.4181820750236511 0.3169292211532593
0.9025616645812988 -0.4181820750236511 0.44224879145622253
0.9025616645812988 -0.4181820750236511 0.5675683617591858
0.9025616645812988 -0.4181820750236511 0.6928879618644714
0.9025616645812988 -0.4181820750236511 0.8182075619697571
0.9025616645812988 -0.4181820750236511 0.9435271620750427
0.9735787510871887 -0.22643043100833893 -0.9362666010856628
0.9735787510871887 -0.22643043100833893 -0.810947060585022
0.9735787510871887 -0.22643043100833893 -0.6856274604797363
0.9735787510871887 -0.22643043100833893 -0.5603078603744507
0.9735787510871887 -0.22643043100833893 -0.4349882900714874
0.9735787510871887 -0.22643043100833893 -0.3096686899662018
0.9735787510871887 -0.22643043100833893 -0.18434911966323853
0.9735787510871887 -0.22643043100833893 -0.05902952700853348
0.9735787510871887 -0.22643043100833893 0.06629005819559097
0.973578691482544 -0.22643043100833893 0.19160963594913483
0.973578691482544 -0.22643043100833893 0.3169292211532593
0.973578691482544 -0.22643043100833893 0.4422488212585449
0.973578691482544 -0.22643043100833893 0.5675684213638306
0.973578691482544 -0.22643043100833893 0.6928879618644714
0.973578691482544 -0.22643043100833893 0.8182075619697571
0.973578691482544 -0.22643043100833893 0.9435271620750427
1.0045427083969116 -0.02430832013487816 -0.9362666010856628
1.0045427083969116 -0.02430831827223301 -0.810947060585022
1.0045427083969116 -0.02430831827223301 -0.6856274604797363
1.0045427083969116 -0.02430831827223301 -0.5603078603744507
1.0045427083969116 -0.02430831827223301 -0.4349882900714874
1.0045427083969116 -0.02430831827223301 -0.3096686899662018
1.0045427083969116 -0.02430831827223301 -0.18434910476207733
1.0045427083969116 -0.02430831827223301 -0.05902952700853348
1.0045427083969116 -0.02430831827223301 0.06629005819559097
1.0045427083969116 -0.02430831827223301 0.19160963594913483
1.0045427083969116 -0.02430831827223301 0.3169292211532593
1.0045427083969116 -0.02430831827223301 0.4422488212585449
1.0045427083969116 -0.02430831827223301 0.5675684213638306
1.0045427083969116 -0.02430831827223301 0.6928879618644714
1.0045427083969116 -0.02430831827223301 0.8182075619697571
1.0045427083969116 -0.02430831827223301 0.9435271620750427
0.9941859841346741 0.1799093335866928 -0.9362666010856628
0.9941859841346741 0.1799093335866928 -0.810947060585022
0.9941859841346741 0.1799093335866928 -0.6856274604797363
0.9941859841346741 0.1799093335866928 -0.5603078603744507
0.9941859841346741 0.1799093335866928 -0.4349882900714874
0.9941859841346741 0.1799093335866928 -0.3096686899662018
0.9941859841346741 0.1799093335866928 -0.18434910476207733
0.9941859245300293 0.1799093335866928 -0.05902952700853348
0.9941859245300293 0.1799093335866928 0.06629005819559097
0.9941859245300293 0.1799093335866928 0.19160963594913483
0.9941859245300293 0.1799093335866928 0.3169292211532593
0.9941859245300293 0.1799093335866928 0.4422488212585449
0.9941859245300293 0.1799093335866928 0.5675684213638306
0.9941859245300293 0.1799093335866928 0.6928879618644714
0.9941859245300293 0.1799093335866928 0.8182075619697571
0.9941859245300293 0.1799093335866928 0.9435271620750427
0.9429325461387634 0.3778618574142456 -0.9362666010856628
0.9429325461387634 0.3778618574142456 -0.810947060585022
0.9429325461387634 0.3778618574142456 -0.6856274604797363
0.9429324865341187 0.3778618574142456 -0.5603078603744507
0.9429324865341187 0.3778618574142456 -0.4349882900714874
0.9429324865341187 0.3778618574142456 -0.3096686899662018
0.9429324865341187 0.3778618574142456 -0.18434911966323853
0.9429324865341187 0.3778618574142456 -0.059029530733823776
0.9429324865341187 0.3778618574142456 0.06629005074501038
0.9429324865341187 0.3778618574142456 0.19160963594913483
0.9429324865341187 0.3778618574142456 0.3169292211532593
0.9429324865341187 0.3778618574142456 0.4422488212585449
0.9429324865341187 0.3778618574142456 0.5675683617591858
0.9429324865341187 0.3778618574142456 0.6928879618644714
0.9429324269294739 0.3778618574142456 0.8182075619697571
0.9429324269294739 0.3778618574142456 0.9435271620750427
0.8528807163238525 0.5614449977874756 -0.9362666010856628
0.8528806567192078 0.5614449977874756 -0.810947060585022
0.8528806567192078 0.5614449977874756 -0.6856274604797363
0.8528806567192078 0.5614449977874756 -0.5603078603744507
0.8528806567192078 0.5614449977874756 -0.4349882900714874
0.8528806567192078 0.5614449977874756 -0.3096686899662018
0.8528806567192078 0.5614449977874756 -0.18434911966323853
0.8528806567192078 0.5614449977874756 -0.059029534459114075
0.8528806567192078 0.5614449977874756 0.06629005074501038
0.8528806567192078 0.5614449977874756 0.19160963594913483
0.8528806567192078 0.5614449977874756 0.3169292211532593
0.8528806567192078 0.5614449977874756 0.44224879145622253
0.852880597114563 0.5614449977874756 0.5675683617591858
0.852880597114563 0.5614449977874756 0.6928879618644714
0.852880597114563 0.5614449977874756 0.8182075619697571
0.852880597114563 0.5614449977874756 0.9435271620750427
0.7277172207832336 0.7231429219245911 -0.9362666010856628
0.7277171611785889 0.7231429219245911 -0.810947060585022
0.7277171611785889 0.7231429219245911 -0.6856274604797363
0.7277171611785889 0.7231429219245911 -0.5603078603744507
0.7277171611785889 0.7231429219245911 -0.4349882900714874
0.7277171611785889 0.7231429219245911 -0.30966871976852417
0.7277171611785889 0.7231429219245911 -0.18434911966323853
0.7277171611785889 0.7231429219245911 -0.05902953818440437
0.7277171611785889 0.7231429219245911 0.06629004329442978
0.7277171611785889 0.7231429219245911 0.19160963594913483
0.7277171611785889 0.7231429219245911 0.3169292211532593
0.7277171611785889 0.7231429219245911 0.44224879145622253
0.7277171015739441 0.7231429219245911 0.5675683617591858
0.7277171015739441 0.7231429219245911 0.6928879618644714
0.7277171015739441 0.7231429219245911 0.8182075619697571
0.7277171015739441 0.7231429219245911 0.9435271620750427
0.5725662708282471 0.8563356399536133 -0.9362666606903076
0.5725662708282471 0.8563356399536133 -0.810947060585022
0.5725662708282471 0.8563356399536133 -0.6856274604797363
0.5725662112236023 0.8563356399536133 -0.5603078603744507
0.5725662112236023 0.8563356399536133 -0.4349882900714874
0.5725662112236023 0.8563356399536133 -0.30966871976852417
0.5725662112236023 0.8563356399536133 -0.18434913456439972
0.5725662112236023 0.8563356399536133 -0.05902954563498497
0.5725662112236023 0.8563356399536133 0.06629003584384918
0.5725662112236023 0.8563356399536133 0.19160962104797363
0.5725662112236023 0.8563356399536133 0.3169291913509369
0.5725662112236023 0.8563356399536133 0.44224879145622253
0.5725662112236023 0.8563356399536133 0.5675683617591858
0.5725662112236023 0.8563356399536133 0.6928879618644714
0.5725661516189575 0.8563356399536133 0.8182075619697571
0.5725661516189575 0.8563356399536133 0.943527102470398
0.3937797546386719 0.9555702209472656 -0.9362666606903076
0.3937797546386719 0.9555702209472656 -0.810947060585022
0.3937797546386719 0.9555702209472656 -0.6856274604797363
0.3937797546386719 0.9555702209472656 -0.5603079199790955
0.3937797546386719 0.9555702209472656 -0.4349883198738098
0.3937797546386719 0.9555702209472656 -0.30966871976852417
0.3937797248363495 0.9555702209472656 -0.18434913456439972
0.3937797248363495 0.9555702209472656 -0.05902955308556557
0.3937797248363495 0.9555702209472656 0.06629002839326859
0.3937797248363495 0.9555702209472656 0.19160962104797363
0.3937797248363495 0.9555702209472656 0.3169291913509369
0.3937796950340271 0.9555702209472656 0.44224879145622253
0.3937796950340271 0.9555702209472656 0.5675683617591858
0.3937796950340271 0.9555702209472656 0.6928879618644714
0.3937796950340271 0.9555702209472656 0.8182075619697571
0.3937796950340271 0.9555702209472656 0.943527102470398
0.19867727160453796 1.0167840719223022 -0.9362666606903076
0.19867727160453796 1.0167840719223022 -0.810947060585022
0.19867725670337677 1.0167840719223022 -0.6856274604797363
0.19867725670337677 1.0167840719223022 -0.5603079199790955
0.19867725670337677 1.0167840719223022 -0.4349883198738098
0.19867724180221558 1.0167840719223022 -0.30966871976852417
0.19867724180221558 1.0167840719223022 -0.1843491494655609
0.19867724180221558 1.0167840719223022 -0.05902956426143646
0.19867722690105438 1.0167840719223022 0.06629002094268799
0.19867722690105438 1.0167840719223022 0.19160960614681244
0.1986772119998932 1.0167840719223022 0.3169291913509369
0.1986772119998932 1.0167840719223022 0.44224876165390015
0.1986772119998932 1.0167840719223022 0.5675683617591858
0.198677197098732 1.0167840719223022 0.6928879618644714
0.198677197098732 1.0167840719223022 0.8182075023651123
0.198677197098732 1.0167840719223022 0.943527102470398
-0.004753708839416504 1.0374709367752075 -0.9362666606903076
-0.004753714427351952 1.0374709367752075 -0.810947060585022
-0.004753720015287399 1.0374709367752075 -0.6856275200843811
-0.00475372513756156 1.0374709367752075 -0.5603079199790955
-0.004753730725497007 1.0374709367752075 -0.4349883198738098
-0.004753736313432455 1.0374709367752075 -0.30966874957084656
-0.004753741901367903 1.0374709367752075 -0.1843491494655609
-0.004753747023642063 1.0374709367752075 -0.05902957171201706
-0.004753752611577511 1.0374709367752075 0.06629001349210739
-0.0047537581995129585 1.0374709367752075 0.19160959124565125
-0.004753763787448406 1.0374709367752075 0.3169291913509369
-0.004753768909722567 1.0374709367752075 0.44224876165390015
-0.004753774497658014 1.0374709367752075 0.5675683617591858
-0.004753780085593462 1.0374709367752075 0.6928879618644714
-0.00475378567352891 1.0374709367752075 0.8182075023651123
-0.00475379079580307 1.0374709367752075 0.943527102470398
