ply
format ascii 1.0
element vertex 512
property float x
property float y
property float z
end_header
-1.9906883239746094 -1.0544285774230957 0.980959415435791
-1.7705148458480835 -1.0544285774230957 0.8007447719573975
-1.5503413677215576 -1.0544285774230957 0.6205301284790039
-1.3301678895950317 -1.0544285774230957 0.44031545519828796
-1.1099944114685059 -1.0544285774230957 0.2601008117198944
-0.8898208737373352 -1.0544285774230957 0.07988616824150085
-0.6696473956108093 -1.0544285774230957 -0.1003284826874733
-0.44947388768196106 -1.0544285774230957 -0.28054314851760864
-0.2293003797531128 -1.0544285774230957 -0.4607577919960022
-0.009126887656748295 -1.0544285774230957 -0.6409724354743958
0.21104660630226135 -1.0544285774230957 -0.8211870789527893
0.43122008442878723 -1.0544285774230957 -1.0014017820358276
0.6513935923576355 -1.0544285774230957 -1.1816164255142212
0.8715670704841614 -1.0544285774230957 -1.3618310689926147
1.091740608215332 -1.0544285774230957 -1.5420457124710083
1.311914086341858 -1.0544285774230957 -1.7222603559494019
-2.227433443069458 -1.0164194107055664 0.6917209625244141
-2.0072600841522217 -1.0164194107055664 0.5115063190460205
-1.7870864868164062 -1.0164194107055664 0.33129167556762695
-1.5669130086898804 -1.0164194107055664 0.1510770171880722
-1.3467395305633545 -1.0164194107055664 -0.02913762629032135
-1.1265660524368286 -1.0164194107055664 -0.2093522697687149
-0.906392514705658 -1.0164194107055664 -0.38956692814826965
-0.6862190365791321 -1.0164194107055664 -0.5697816014289856
-0.4660455286502838 -1.0164194107055664 -0.7499962449073792
-0.24587202072143555 -1.0164194107055664 -0.9302108883857727
-0.02569853514432907 -1.0164194107055664 -1.1104254722595215
0.1944749653339386 -1.0164194107055664 -1.2906402349472046
0.4146484434604645 -1.0164194107055664 -1.4708548784255981
0.6348219513893127 -1.0164194107055664 -1.6510695219039917
0.8549954295158386 -1.0164194107055664 -1.8312841653823853
1.0751689672470093 -1.0164194107055664 -2.0114986896514893
-2.454486131668091 -0.903948187828064 0.41432398557662964
-2.2343127727508545 -0.903948187828064 0.23410934209823608
-2.014139175415039 -0.903948187828064 0.053894687443971634
-1.7939656972885132 -0.903948187828064 -0.12631995975971222
-1.5737922191619873 -0.903948187828064 -0.30653461813926697
-1.3536187410354614 -0.903948187828064 -0.4867492616176605
-1.1334452629089355 -0.903948187828064 -0.6669639348983765
-0.9132717847824097 -0.903948187828064 -0.84717857837677
-0.6930983066558838 -0.903948187828064 -1.0273932218551636
-0.4729247987270355 -0.903948187828064 -1.2076078653335571
-0.25275129079818726 -0.903948187828064 -1.3878225088119507
-0.03257780894637108 -0.903948187828064 -1.5680371522903442
0.1875956803560257 -0.903948187828064 -1.7482517957687378
0.40776917338371277 -0.903948187828064 -1.9284664392471313
0.627942681312561 -0.903948187828064 -2.1086812019348145
0.8481161594390869 -0.903948187828064 -2.288895845413208
-2.662551164627075 -0.7216193675994873 0.16012512147426605
-2.4423775672912598 -0.7216193675994873 -0.0200895257294178
-2.2222039699554443 -0.7216193675994873 -0.20030418038368225
-2.002030611038208 -0.7216193675994873 -0.3805188238620758
-1.7818571329116821 -0.7216193675994873 -0.5607334971427917
-1.5616835355758667 -0.7216193675994873 -0.7409481406211853
-1.3415100574493408 -0.7216193675994873 -0.9211627840995789
-1.121336579322815 -0.7216193675994873 -1.1013773679733276
-0.9011631011962891 -0.7216193675994873 -1.2815921306610107
-0.6809896230697632 -0.7216193675994873 -1.4618067741394043
-0.4608161151409149 -0.7216193675994873 -1.6420214176177979
-0.24064263701438904 -0.7216193675994873 -1.8222360610961914
-0.020469140261411667 -0.7216193675994873 -2.002450704574585
0.1997043490409851 -0.7216193675994873 -2.1826653480529785
0.4198778569698334 -0.7216193675994873 -2.362879991531372
0.6400513648986816 -0.7216193675994873 -2.5430946350097656
-2.8431098461151123 -0.47689756751060486 -0.06046868860721588
-2.622936248779297 -0.47689756751060486 -0.24068333208560944
-2.4027626514434814 -0.47689756751060486 -0.4208979904651642
-2.182589292526245 -0.47689756751060486 -0.6011126637458801
-1.9624158143997192 -0.47689756751060486 -0.7813273072242737
-1.7422423362731934 -0.47689756751060486 -0.9615419507026672
-1.522068738937378 -0.47689756751060486 -1.141756534576416
-1.301895260810852 -0.47689756751060486 -1.3219712972640991
-1.0817217826843262 -0.47689756751060486 -1.5021859407424927
-0.8615483045578003 -0.47689756751060486 -1.6824005842208862
-0.6413748264312744 -0.47689756751060486 -1.8626152276992798
-0.42120131850242615 -0.47689756751060486 -2.042829751968384
-0.20102782547473907 -0.47689756751060486 -2.2230443954467773
0.01914566569030285 -0.47689756751060486 -2.403259038925171
0.23931916058063507 -0.47689756751060486 -2.5834736824035645
0.45949265360832214 -0.47689756751060486 -2.763688325881958
-2.9887702465057373 -0.17980173230171204 -0.2384263128042221
-2.768596649169922 -0.17980173230171204 -0.41864097118377686
-2.5484232902526855 -0.17980173230171204 -0.5988556146621704
-2.32824969291687 -0.17980173230171204 -0.779070258140564
-2.108076333999634 -0.17980173230171204 -0.9592849016189575
-1.8879027366638184 -0.17980173230171204 -1.139499545097351
-1.6677292585372925 -0.17980173230171204 -1.3197141885757446
-1.4475557804107666 -0.17980173230171204 -1.4999288320541382
-1.2273823022842407 -0.17980173230171204 -1.6801434755325317
-1.0072087049484253 -0.17980173230171204 -1.8603581190109253
-0.7870352864265442 -0.17980173230171204 -2.0405728816986084
-0.5668617486953735 -0.17980173230171204 -2.220787525177002
-0.34668827056884766 -0.17980173230171204 -2.4010021686553955
-0.12651479244232178 -0.17980173230171204 -2.581216812133789
0.09365870803594589 -0.17980173230171204 -2.7614314556121826
0.31383219361305237 -0.17980173230171204 -2.941646099090576
-3.093569040298462 0.15750503540039062 -0.3664621412754059
-2.8733956813812256 0.15750503540039062 -0.5466768145561218
-2.65322208404541 0.15750503540039062 -0.7268914580345154
-2.4330484867095947 0.15750503540039062 -0.9071061015129089
-2.2128751277923584 0.15750503540039062 -1.0873206853866577
-1.9927016496658325 0.15750503540039062 -1.2675354480743408
-1.772528052330017 0.15750503540039062 -1.4477500915527344
-1.5523545742034912 0.15750503540039062 -1.627964735031128
-1.3321810960769653 0.15750503540039062 -1.8081793785095215
-1.1120076179504395 0.15750503540039062 -1.988394021987915
-0.8918341398239136 0.15750503540039062 -2.1686086654663086
-0.6716606616973877 0.15750503540039062 -2.348823308944702
-0.45148715376853943 0.15750503540039062 -2.5290379524230957
-0.23131364583969116 0.15750503540039062 -2.7092525959014893
-0.011140159331262112 0.15750503540039062 -2.889467239379883
0.20903334021568298 0.15750503540039062 -3.0696818828582764
-3.1532158851623535 0.5212133526802063 -0.43933436274528503
-2.933042287826538 0.5212133526802063 -0.619549036026001
-2.7128689289093018 0.5212133526802063 -0.7997636795043945
-2.4926953315734863 0.5212133526802063 -0.9799783229827881
-2.27252197265625 0.5212133526802063 -1.1601929664611816
-2.0523483753204346 0.5212133526802063 -1.3404076099395752
-1.8321748971939087 0.5212133526802063 -1.5206222534179688
-1.6120014190673828 0.5212133526802063 -1.7008368968963623
-1.391827940940857 0.5212133526802063 -1.8810515403747559
-1.171654462814331 0.5212133526802063 -2.0612661838531494
-0.9514809250831604 0.5212133526802063 -2.241480827331543
-0.7313074469566345 0.5212133526802063 -2.4216954708099365
-0.5111339688301086 0.5212133526802063 -2.60191011428833
-0.2909604609012604 0.5212133526802063 -2.7821247577667236
-0.07078695297241211 0.5212133526802063 -2.962339401245117
0.14938654005527496 0.5212133526802063 -3.1425540447235107
-3.165268659591675 0.8964329361915588 -0.4540596008300781
-2.9450950622558594 0.8964329361915588 -0.6342742443084717
-2.724921703338623 0.8964329361915588 -0.8144888877868652
-2.5047481060028076 0.8964329361915588 -0.9947035312652588
-2.2845747470855713 0.8964329361915588 -1.1749181747436523
-2.064401149749756 0.8964329361915588 -1.355132818222046
-1.84422767162323 0.8964329361915588 -1.5353474617004395
-1.624054193496704 0.8964329361915588 -1.715562105178833
-1.4038807153701782 0.8964329361915588 -1.8957768678665161
-1.1837072372436523 0.8964329361915588 -2.07599139213562
-0.9635336995124817 0.8964329361915588 -2.2562060356140137
-0.7433602213859558 0.8964329361915588 -2.4364206790924072
-0.5231867432594299 0.8964329361915588 -2.616635322570801
-0.30301323533058167 0.8964329361915588 -2.7968499660491943
-0.08283974230289459 0.8964329361915588 -2.977064609527588
0.13733375072479248 0.8964329361915588 -3.1572792530059814
-3.1292340755462646 1.2678022384643555 -0.41003498435020447
-2.909060478210449 1.2678022384643555 -0.5902496576309204
-2.688886880874634 1.2678022384643555 -0.770464301109314
-2.4687135219573975 1.2678022384643555 -0.9506789445877075
-2.248539924621582 1.2678022384643555 -1.130893588066101
-2.0283665657043457 1.2678022384643555 -1.3111082315444946
-1.8081929683685303 1.2678022384643555 -1.4913228750228882
-1.5880194902420044 1.2678022384643555 -1.6715375185012817
-1.3678460121154785 1.2678022384643555 -1.8517521619796753
-1.1476725339889526 1.2678022384643555 -2.0319669246673584
-0.9274990558624268 1.2678022384643555 -2.212181568145752
-0.7073255181312561 1.2678022384643555 -2.3923962116241455
-0.4871520400047302 1.2678022384643555 -2.572610855102539
-0.26697856187820435 1.2678022384643555 -2.7528254985809326
-0.04680506885051727 1.2678022384643555 -2.933040142059326
0.1733684241771698 1.2678022384643555 -3.1132547855377197
-3.0465869903564453 1.620117425918579 -0.3090629279613495
-2.826413631439209 1.620117425918579 -0.48927757143974304
-2.6062400341033936 1.620117425918579 -0.6694921851158142
-2.3860666751861572 1.620117425918579 -0.8497068881988525
-2.165893077850342 1.620117425918579 -1.029921531677246
-1.945719599723816 1.620117425918579 -1.2101361751556396
-1.72554612159729 1.620117425918579 -1.3903508186340332
-1.5053726434707642 1.620117425918579 -1.5705654621124268
-1.2851991653442383 1.620117425918579 -1.7507801055908203
-1.0650256872177124 1.620117425918579 -1.9309947490692139
-0.8448521494865417 1.620117425918579 -2.1112093925476074
-0.6246786713600159 1.620117425918579 -2.291424036026001
-0.40450519323349 1.620117425918579 -2.4716386795043945
-0.18433170020580292 1.620117425918579 -2.651853322982788
0.035841796547174454 1.620117425918579 -2.8320679664611816
0.2560153007507324 1.620117425918579 -3.012282609939575
-2.9207115173339844 1.9389545917510986 -0.15527716279029846
-2.700538158416748 1.9389545917510986 -0.335491806268692
-2.4803645610809326 1.9389545917510986 -0.515706479549408
-2.2601912021636963 1.9389545917510986 -0.6959211230278015
-2.040017604827881 1.9389545917510986 -0.8761357665061951
-1.819844126701355 1.9389545917510986 -1.0563504695892334
-1.599670648574829 1.9389545917510986 -1.236565113067627
-1.3794971704483032 1.9389545917510986 -1.4167797565460205
-1.1593236923217773 1.9389545917510986 -1.596994400024414
-0.9391501545906067 1.9389545917510986 -1.7772090435028076
-0.7189766764640808 1.9389545917510986 -1.9574236869812012
-0.49880319833755493 1.9389545917510986 -2.1376383304595947
-0.27862969040870667 1.9389545917510986 -2.3178529739379883
-0.05845620855689049 1.9389545917510986 -2.498067617416382
0.1617172807455063 1.9389545917510986 -2.6782822608947754
0.38189077377319336 1.9389545917510986 -2.858496904373169
-2.756760835647583 2.2112605571746826 0.04502624645829201
-2.5365874767303467 2.2112605571746826 -0.13518840074539185
-2.3164138793945312 2.2112605571746826 -0.3154030442237854
-2.096240282058716 2.2112605571746826 -0.49561768770217896
-1.8760669231414795 2.2112605571746826 -0.6758323311805725
-1.6558934450149536 2.2112605571746826 -0.8560469746589661
-1.4357199668884277 2.2112605571746826 -1.0362616777420044
-1.2155463695526123 2.2112605571746826 -1.216476321220398
-0.9953729510307312 2.2112605571746826 -1.3966909646987915
-0.7751994132995605 2.2112605571746826 -1.576905608177185
-0.5550259351730347 2.2112605571746826 -1.7571202516555786
-0.3348524570465088 2.2112605571746826 -1.9373348951339722
-0.11467895656824112 2.2112605571746826 -2.1175496578216553
0.10549453645944595 2.2112605571746826 -2.297764301300049
0.3256680369377136 2.2112605571746826 -2.4779789447784424
0.5458415150642395 2.2112605571746826 -2.658193588256836
-2.5614469051361084 2.425886869430542 0.2836468815803528
-2.341273546218872 2.425886869430542 0.10343222320079803
-2.1210999488830566 2.425886869430542 -0.07678242772817612
-1.9009265899658203 2.425886869430542 -0.25699707865715027
-1.6807529926300049 2.425886869430542 -0.4372117221355438
-1.460579514503479 2.425886869430542 -0.6174263954162598
-1.2404060363769531 2.425886869430542 -0.7976410388946533
-1.0202325582504272 2.425886869430542 -0.9778556823730469
-0.8000590801239014 2.425886869430542 -1.1580703258514404
-0.5798856019973755 2.425886869430542 -1.338284969329834
-0.3597120940685272 2.425886869430542 -1.5184996128082275
-0.13953860104084015 2.425886869430542 -1.698714256286621
0.08063489198684692 2.425886869430542 -1.8789288997650146
0.3008083999156952 2.425886869430542 -2.059143543243408
0.5209819078445435 2.425886869430542 -2.2393581867218018
0.7411553859710693 2.425886869430542 -2.4195728302001953
-2.342766284942627 2.574047088623047 0.5508155226707458
-2.1225926876068115 2.574047088623047 0.3706009089946747
-1.9024192094802856 2.574047088623047 0.19038625061511993
-1.6822457313537598 2.574047088623047 0.010171602480113506
-1.4620722532272339 2.574047088623047 -0.17004305124282837
-1.241898775100708 2.574047088623047 -0.3502576947212219
-1.0217252969741821 2.574047088623047 -0.5304723381996155
-0.8015518188476562 2.574047088623047 -0.710686981678009
-0.5813782811164856 2.574047088623047 -0.8909016251564026
-0.3612048029899597 2.574047088623047 -1.071116328239441
-0.14103130996227264 2.574047088623047 -1.2513309717178345
0.07914217561483383 2.574047088623047 -1.431545615196228
0.2993156611919403 2.574047088623047 -1.6117602586746216
0.5194891691207886 2.574047088623047 -1.7919749021530151
0.7396626472473145 2.574047088623047 -1.9721895456314087
0.9598361253738403 2.574047088623047 -2.152404308319092
-2.1096713542938232 2.6496753692626953 0.8355943560600281
-1.8894978761672974 2.6496753692626953 0.6553797125816345
-1.6693243980407715 2.6496753692626953 0.47516506910324097
-1.4491509199142456 2.6496753692626953 0.2949504256248474
-1.2289774417877197 2.6496753692626953 0.11473577469587326
-1.0088038444519043 2.6496753692626953 -0.06547887623310089
-0.7886304259300232 2.6496753692626953 -0.24569351971149445
-0.5684568881988525 2.6496753692626953 -0.4259081780910492
-0.34828341007232666 2.6496753692626953 -0.6061228513717651
-0.1281099170446396 2.6496753692626953 -0.7863374948501587
0.09206356853246689 2.6496753692626953 -0.9665521383285522
0.31223705410957336 2.6496753692626953 -1.1467667818069458
0.5324105620384216 2.6496753692626953 -1.3269814252853394
0.7525840401649475 2.6496753692626953 -1.507196068763733
0.9727575182914734 2.6496753692626953 -1.6874107122421265
1.192931056022644 2.6496753692626953 -1.86762535572052
-1.8717052936553955 2.6496753692626953 1.1263244152069092
-1.6515318155288696 2.6496753692626953 0.9461098313331604
-1.4313583374023438 2.6496753692626953 0.7658951282501221
-1.2111848592758179 2.6496753692626953 0.5856804847717285
-0.9910113215446472 2.6496753692626953 0.40546587109565735
-0.7708378434181213 2.6496753692626953 0.2252512127161026
-0.5506643056869507 2.6496753692626953 0.04503655806183815
-0.3304908275604248 2.6496753692626953 -0.1351780891418457
-0.11031734943389893 2.6496753692626953 -0.31539273262023926
0.10985614359378815 2.6496753692626953 -0.4956074059009552
0.3300296366214752 2.6496753692626953 -0.6758220195770264
0.5502031445503235 2.6496753692626953 -0.8560367226600647
0.7703766226768494 2.6496753692626953 -1.0362513065338135
0.9905501008033752 2.6496753692626953 -1.216465950012207
1.210723638534546 2.6496753692626953 -1.3966805934906006
1.4308971166610718 2.6496753692626953 -1.5768952369689941
-1.6386103630065918 2.574047088623047 1.4111032485961914
-1.418436884880066 2.574047088623047 1.2308886051177979
-1.19826340675354 2.574047088623047 1.0506739616394043
-0.9780899286270142 2.574047088623047 0.8704593181610107
-0.7579164505004883 2.574047088623047 0.6902446746826172
-0.5377429127693176 2.574047088623047 0.5100300312042236
-0.31756943464279175 2.574047088623047 0.3298153877258301
-0.09739594906568527 2.574047088623047 0.14960072934627533
0.1227775439620018 2.574047088623047 -0.030613921582698822
0.3429510295391083 2.574047088623047 -0.21082857251167297
0.5631245374679565 2.574047088623047 -0.39104321599006653
0.7832980155944824 2.574047088623047 -0.5712578892707825
1.0034714937210083 2.574047088623047 -0.751472532749176
1.2236449718475342 2.574047088623047 -0.9316871762275696
1.44381844997406 2.574047088623047 -1.111901879310608
1.6639920473098755 2.574047088623047 -1.2921165227890015
-1.4199296236038208 2.425886869430542 1.678272008895874
-1.199756145477295 2.425886869430542 1.4980573654174805
-0.979582667350769 2.425886869430542 1.3178426027297974
-0.7594091296195984 2.425886869430542 1.1376279592514038
-0.5392356514930725 2.425886869430542 0.957413375377655
-0.31906217336654663 2.425886869430542 0.7771987318992615
-0.09888866543769836 2.425886869430542 0.5969840884208679
0.12128482758998871 2.425886869430542 0.416769415140152
0.3414583206176758 2.425886869430542 0.23655475676059723
0.5616317987442017 2.425886869430542 0.056340109556913376
0.7818052768707275 2.425886869430542 -0.12387453764677048
1.0019787549972534 2.425886869430542 -0.30408918857574463
1.2221522331237793 2.425886869430542 -0.4843038320541382
1.4423258304595947 2.425886869430542 -0.6645184755325317
1.6624993085861206 2.425886869430542 -0.8447331190109253
1.8826727867126465 2.425886869430542 -1.0249477624893188
-1.2246158123016357 2.2112605571746826 1.9168925285339355
-1.0044423341751099 2.2112605571746826 1.736677885055542
-0.7842687964439392 2.2112605571746826 1.5564632415771484
-0.5640953183174133 2.2112605571746826 1.3762485980987549
-0.34392181038856506 2.2112605571746826 1.1960339546203613
-0.1237483099102974 2.2112605571746826 1.0158193111419678
0.09642518311738968 2.2112605571746826 0.8356046676635742
0.31659868359565735 2.2112605571746826 0.6553900241851807
0.5367721915245056 2.2112605571746826 0.4751753807067871
0.7569456696510315 2.2112605571746826 0.29496073722839355
0.9771191477775574 2.2112605571746826 0.1147460862994194
1.197292685508728 2.2112605571746826 -0.06546856462955475
1.417466163635254 2.2112605571746826 -0.2456832230091095
1.6376396417617798 2.2112605571746826 -0.42589786648750305
1.8578131198883057 2.2112605571746826 -0.606112539768219
2.077986717224121 2.2112605571746826 -0.7863271832466125
-1.0606650114059448 1.9389545917510986 2.1171960830688477
-0.840491533279419 1.9389545917510986 1.9369813203811646
-0.6203180551528931 1.9389545917510986 1.756766676902771
-0.4001445472240448 1.9389545917510986 1.5765520334243774
-0.17997105419635773 1.9389545917510986 1.3963373899459839
0.04020243510603905 1.9389545917510986 1.2161227464675903
0.2603759169578552 1.9389545917510986 1.0359081029891968
0.4805494248867035 1.9389545917510986 0.8556934595108032
0.7007229328155518 1.9389545917510986 0.6754788160324097
0.9208964109420776 1.9389545917510986 0.4952641427516937
1.1410698890686035 1.9389545917510986 0.31504949927330017
1.3612433671951294 1.9389545917510986 0.13483484089374542
1.5814168453216553 1.9389545917510986 -0.04537980630993843
1.8015903234481812 1.9389545917510986 -0.22559446096420288
2.021763801574707 1.9389545917510986 -0.40580910444259644
2.2419373989105225 1.9389545917510986 -0.58602374792099
-0.9347895383834839 1.620117425918579 2.270981788635254
-0.714616060256958 1.620117425918579 2.0907671451568604
-0.49444255232810974 1.620117425918579 1.9105525016784668
-0.27426907420158386 1.620117425918579 1.7303377389907837
-0.05409557372331619 1.620117425918579 1.5501230955123901
0.16607792675495148 1.620117425918579 1.3699084520339966
0.38625141978263855 1.620117425918579 1.189693808555603
0.6064249277114868 1.620117425918579 1.0094791650772095
0.8265984058380127 1.620117425918579 0.8292645215988159
1.0467718839645386 1.620117425918579 0.6490498781204224
1.2669453620910645 1.620117425918579 0.4688352346420288
1.4871188402175903 1.620117425918579 0.28862059116363525
1.7072923183441162 1.620117425918579 0.1084059476852417
1.9274659156799316 1.620117425918579 -0.07180870324373245
2.147639274597168 1.620117425918579 -0.2520233690738678
2.3678128719329834 1.620117425918579 -0.43223801255226135
-0.8521426916122437 1.2678022384643555 2.3719537258148193
-0.6319692134857178 1.2678022384643555 2.191739082336426
-0.4117957055568695 1.2678022384643555 2.0115244388580322
-0.19162219762802124 1.2678022384643555 1.8313099145889282
0.028551291674375534 1.2678022384643555 1.6510952711105347
0.2487247884273529 1.2678022384643555 1.4708806276321411
0.4688982665538788 1.2678022384643555 1.2906659841537476
0.689071774482727 1.2678022384643555 1.1104512214660645
0.9092452526092529 1.2678022384643555 0.9302366375923157
1.1294187307357788 1.2678022384643555 0.7500219941139221
1.3495922088623047 1.2678022384643555 0.5698073506355286
1.5697656869888306 1.2678022384643555 0.3895926773548126
1.789939284324646 1.2678022384643555 0.20937803387641907
2.010112762451172 1.2678022384643555 0.029163379222154617
2.230286121368408 1.2678022384643555 -0.15105126798152924
2.4504597187042236 1.2678022384643555 -0.331265926361084
-0.816107988357544 0.8964329361915588 2.41597843170166
-0.5959345102310181 0.8964329361915588 2.2357637882232666
-0.3757610321044922 0.8964329361915588 2.055549144744873
-0.15558752417564392 0.8964329361915588 1.8753345012664795
0.06458596140146255 0.8964329361915588 1.695119857788086
0.2847594618797302 0.8964329361915588 1.5149052143096924
0.5049329400062561 0.8964329361915588 1.3346905708312988
0.725106418132782 0.8964329361915588 1.1544759273529053
0.9452799558639526 0.8964329361915588 0.9742612242698669
1.1654534339904785 0.8964329361915588 0.7940465807914734
1.3856269121170044 0.8964329361915588 0.6138319373130798
1.6058003902435303 0.8964329361915588 0.4336172938346863
1.8259738683700562 0.8964329361915588 0.2534026503562927
2.046147346496582 0.8964329361915588 0.07318799197673798
2.2663209438323975 0.8964329361915588 -0.10702665895223618
2.486494302749634 0.8964329361915588 -0.2872413098812103
-0.8281607627868652 0.5212133526802063 2.4012532234191895
-0.6079872846603394 0.5212133526802063 2.221038579940796
-0.3878138065338135 0.5212133526802063 2.0408239364624023
-0.1676403135061264 0.5212133526802063 1.8606092929840088
0.05253318324685097 0.5212133526802063 1.6803946495056152
0.27270668745040894 0.5212133526802063 1.5001800060272217
0.4928801655769348 0.5212133526802063 1.3199652433395386
0.7130536437034607 0.5212133526802063 1.139750599861145
0.9332271814346313 0.5212133526802063 0.9595360159873962
1.1534006595611572 0.5212133526802063 0.7793213725090027
1.373574137687683 0.5212133526802063 0.5991067290306091
1.593747615814209 0.5212133526802063 0.4188920557498932
1.8139210939407349 0.5212133526802063 0.23867739737033844
2.0340945720672607 0.5212133526802063 0.058462753891944885
2.254268169403076 0.5212133526802063 -0.12175189703702927
2.4744415283203125 0.5212133526802063 -0.3019665479660034
-0.8878076076507568 0.15750503540039062 2.328381061553955
-0.6676340699195862 0.15750503540039062 2.1481664180755615
-0.4474605917930603 0.15750503540039062 1.9679516553878784
-0.22728711366653442 0.15750503540039062 1.7877370119094849
-0.007113615982234478 0.15750503540039062 1.6075223684310913
0.21305987238883972 0.15750503540039062 1.4273077249526978
0.433233380317688 0.15750503540039062 1.2470930814743042
0.6534068584442139 0.15750503540039062 1.0668784379959106
0.8735803365707397 0.15750503540039062 0.8866637945175171
1.0937538146972656 0.15750503540039062 0.7064490914344788
1.3139272928237915 0.15750503540039062 0.5262344479560852
1.534100890159607 0.15750503540039062 0.34601983428001404
1.7542743682861328 0.15750503540039062 0.1658051759004593
1.9744478464126587 0.15750503540039062 -0.01440947875380516
2.1946213245391846 0.15750503540039062 -0.194624125957489
2.414794921875 0.15750503540039062 -0.37483876943588257
-0.9926064610481262 -0.17980173230171204 2.200345039367676
-0.7724329829216003 -0.17980173230171204 2.0201303958892822
-0.5522594451904297 -0.17980173230171204 1.8399158716201782
-0.3320859670639038 -0.17980173230171204 1.6597012281417847
-0.11191248148679733 -0.17980173230171204 1.4794865846633911
0.10826101154088974 -0.17980173230171204 1.2992719411849976
0.3284344971179962 -0.17980173230171204 1.119057297706604
0.5486080050468445 -0.17980173230171204 0.9388425946235657
0.7687814831733704 -0.17980173230171204 0.7586279511451721
0.9889549612998962 -0.17980173230171204 0.5784133076667786
1.209128499031067 -0.17980173230171204 0.3981986343860626
1.4293019771575928 -0.17980173230171204 0.21798399090766907
1.6494754552841187 -0.17980173230171204 0.037769343703985214
1.8696489334106445 -0.17980173230171204 -0.14244531095027924
2.08982253074646 -0.17980173230171204 -0.322659969329834
2.3099958896636963 -0.17980173230171204 -0.5028746128082275
-1.138266921043396 -0.47689756751060486 2.0223875045776367
-0.9180933833122253 -0.47689756751060486 1.8421728610992432
-0.6979199051856995 -0.47689756751060486 1.6619582176208496
-0.4777464270591736 -0.47689756751060486 1.481743574142456
-0.2575729191303253 -0.47689756751060486 1.3015289306640625
-0.03739944100379944 -0.47689756751060486 1.121314287185669
0.18277405202388763 -0.47689756751060486 0.9410996437072754
0.4029475450515747 -0.47689756751060486 0.7608849406242371
0.6231210231781006 -0.47689756751060486 0.5806702971458435
0.8432945013046265 -0.47689756751060486 0.40045568346977234
1.0634679794311523 -0.47689756751060486 0.2202410250902176
1.2836414575576782 -0.47689756751060486 0.04002637043595314
1.5038150548934937 -0.47689756751060486 -0.1401882767677307
1.7239885330200195 -0.47689756751060486 -0.32040292024612427
1.9441620111465454 -0.47689756751060486 -0.5006175637245178
2.1643354892730713 -0.47689756751060486 -0.6808322072029114
-1.318825602531433 -0.7216193675994873 1.8017936944961548
-1.0986521244049072 -0.7216193675994873 1.6215790510177612
-0.8784785866737366 -0.7216193675994873 1.4413644075393677
-0.6583051085472107 -0.7216193675994873 1.2611497640609741
-0.4381316304206848 -0.7216193675994873 1.0809351205825806
-0.21795812249183655 -0.7216193675994873 0.900720477104187
0.002215365879237652 -0.7216193675994873 0.7205058336257935
0.2223888635635376 -0.7216193675994873 0.5402911305427551
0.4425623416900635 -0.7216193675994873 0.36007651686668396
0.6627358198165894 -0.7216193675994873 0.1798618584871292
0.88290935754776 -0.7216193675994873 -0.0003527931694407016
1.1030827760696411 -0.7216193675994873 -0.1805674433708191
1.3232563734054565 -0.7216193675994873 -0.36078208684921265
1.5434298515319824 -0.7216193675994873 -0.5409967303276062
1.7636033296585083 -0.7216193675994873 -0.7212113738059998
1.9837768077850342 -0.7216193675994873 -0.9014260172843933
-1.5268903970718384 -0.903948187828064 1.5475947856903076
-1.3067169189453125 -0.903948187828064 1.367380142211914
-1.0865434408187866 -0.903948187828064 1.1871654987335205
-0.8663699626922607 -0.903948187828064 1.006950855255127
-0.6461964249610901 -0.903948187828064 0.8267362713813782
-0.4260229468345642 -0.903948187828064 0.6465215682983398
-0.20584945380687714 -0.903948187828064 0.4663069546222687
0.014324033632874489 -0.903948187828064 0.28609228134155273
0.234497532248497 -0.903948187828064 0.10587764531373978
0.4546710252761841 -0.903948187828064 -0.07433700561523438
0.67484450340271 -0.903948187828064 -0.25455164909362793
0.8950179815292358 -0.903948187828064 -0.43476632237434387
1.1151914596557617 -0.903948187828064 -0.614980936050415
1.3353649377822876 -0.903948187828064 -0.7951955795288086
1.555538535118103 -0.903948187828064 -0.9754102826118469
1.775712013244629 -0.903948187828064 -1.1556248664855957
-1.7539432048797607 -1.0164194107055664 1.270197868347168
-1.5337697267532349 -1.0164194107055664 1.0899832248687744
-1.313596248626709 -1.0164194107055664 0.9097685813903809
-1.0934226512908936 -1.0164194107055664 0.7295538783073425
-0.8732492327690125 -1.0164194107055664 0.549339234828949
-0.6530756950378418 -1.0164194107055664 0.3691246211528778
-0.4329022169113159 -1.0164194107055664 0.18890996277332306
-0.21272873878479004 -1.0164194107055664 0.008695307187736034
0.007444759830832481 -1.0164194107055664 -0.17151933908462524
0.2276182472705841 -1.0164194107055664 -0.3517339825630188
0.4477917551994324 -1.0164194107055664 -0.5319486260414124
0.6679652333259583 -1.0164194107055664 -0.7121632695198059
0.8881387114524841 -1.0164194107055664 -0.8923779726028442
1.1083122491836548 -1.0164194107055664 -1.0725926160812378
1.3284857273101807 -1.0164194107055664 -1.2528072595596313
1.5486592054367065 -1.0164194107055664 -1.433021903038025
-1.9906883239746094 -1.0544285774230957 0.980959415435791
-1.7705148458480835 -1.0544285774230957 0.8007447719573975
-1.5503413677215576 -1.0544285774230957 0.6205301284790039
-1.3301678895950317 -1.0544285774230957 0.44031545519828796
-1.1099944114685059 -1.0544285774230957 0.2601008117198944
-0.8898208737373352 -1.0544285774230957 0.07988616824150085
-0.6696473956108093 -1.0544285774230957 -0.1003284826874733
-0.44947388768196106 -1.0544285774230957 -0.28054314851760864
-0.2293003797531128 -1.0544285774230957 -0.4607577919960022
-0.009126887656748295 -1.0544285774230957 -0.6409724354743958
0.21104660630226135 -1.0544285774230957 -0.8211870789527893
0.43122008442878723 -1.0544285774230957 -1.0014017820358276
0.6513935923576355 -1.0544285774230957 -1.1816164255142212
0.8715670704841614 -1.0544285774230957 -1.3618310689926147
1.091740608215332 -1.0544285774230957 -1.5420457124710083
1.311914086341858 -1.0544285774230957 -1.7222603559494019
