ply
format ascii 1.0
element vertex 512
property float x
property float y
property float z
end_header
0.5119965076446533 -1.0975377559661865 1.266983151435852
0.5119965076446533 -1.0975377559661865 0.9824597239494324
0.5119965076446533 -1.0975377559661865 0.6979363560676575
0.5119965076446533 -1.0975377559661865 0.4134129285812378
0.5119965076446533 -1.0975377559661865 0.1288895457983017
0.5119965076446533 -1.0975377559661865 -0.1556338518857956
0.5119965076446533 -1.097537875175476 -0.4401572346687317
0.5119965076446533 -1.097537875175476 -0.7246806025505066
0.5119965076446533 -1.097537875175476 -1.0092040300369263
0.5119965672492981 -1.097537875175476 -1.2937273979187012
0.5119965672492981 -1.097537875175476 -1.578250765800476
0.5119965672492981 -1.097537875175476 -1.8627742528915405
0.5119965672492981 -1.097537875175476 -2.1472976207733154
0.5119965672492981 -1.097537875175476 -2.431820869445801
0.5119965672492981 -1.097537875175476 -2.7163443565368652
0.5119965672492981 -1.097537875175476 -3.0008678436279297
0.13822227716445923 -1.0595285892486572 1.266983151435852
0.13822227716445923 -1.0595285892486572 0.9824597239494324
0.13822229206562042 -1.0595287084579468 0.6979362964630127
0.13822229206562042 -1.0595287084579468 0.4134129285812378
0.13822229206562042 -1.0595287084579468 0.1288895308971405
0.13822229206562042 -1.0595287084579468 -0.1556338518857956
0.13822230696678162 -1.0595287084579468 -0.4401572346687317
0.13822230696678162 -1.0595287084579468 -0.7246806621551514
0.13822230696678162 -1.0595287084579468 -1.0092040300369263
0.13822230696678162 -1.0595287084579468 -1.2937273979187012
0.1382223218679428 -1.0595287084579468 -1.578250765800476
0.1382223218679428 -1.0595287084579468 -1.8627742528915405
0.1382223218679428 -1.0595288276672363 -2.1472976207733154
0.1382223218679428 -1.0595288276672363 -2.43182110786438
0.138222336769104 -1.0595288276672363 -2.7163443565368652
0.138222336769104 -1.0595288276672363 -3.0008678436279297
-0.22024959325790405 -0.9470573663711548 1.266983151435852
-0.22024957835674286 -0.9470573663711548 0.9824597239494324
-0.22024957835674286 -0.9470573663711548 0.6979362964630127
-0.22024957835674286 -0.9470573663711548 0.4134129285812378
-0.22024957835674286 -0.9470574259757996 0.1288895308971405
-0.22024956345558167 -0.9470574259757996 -0.1556338667869568
-0.22024956345558167 -0.9470574259757996 -0.4401572644710541
-0.22024956345558167 -0.9470574259757996 -0.7246806621551514
-0.22024956345558167 -0.9470574259757996 -1.0092040300369263
-0.22024954855442047 -0.9470574855804443 -1.2937273979187012
-0.22024954855442047 -0.9470574855804443 -1.578250765800476
-0.22024954855442047 -0.9470574855804443 -1.8627742528915405
-0.22024954855442047 -0.9470574855804443 -2.1472976207733154
-0.22024953365325928 -0.9470574855804443 -2.43182110786438
-0.22024953365325928 -0.9470575451850891 -2.7163443565368652
-0.22024953365325928 -0.9470575451850891 -3.0008678436279297
-0.5487431883811951 -0.7647285461425781 1.2669830322265625
-0.5487431883811951 -0.7647285461425781 0.9824596643447876
-0.5487431883811951 -0.7647285461425781 0.6979362964630127
-0.5487431883811951 -0.7647285461425781 0.4134128987789154
-0.5487431883811951 -0.7647285461425781 0.1288895159959793
-0.5487431883811951 -0.7647286057472229 -0.15563388168811798
-0.5487431883811951 -0.7647286057472229 -0.4401572644710541
-0.5487431883811951 -0.7647286057472229 -0.7246806621551514
-0.5487431883811951 -0.7647286057472229 -1.0092040300369263
-0.5487431883811951 -0.7647286057472229 -1.2937273979187012
-0.5487431883811951 -0.7647286653518677 -1.5782508850097656
-0.5487431883811951 -0.7647286653518677 -1.8627742528915405
-0.5487431883811951 -0.7647286653518677 -2.1472976207733154
-0.5487431883811951 -0.7647286653518677 -2.43182110786438
-0.5487431883811951 -0.7647286653518677 -2.7163443565368652
-0.5487431287765503 -0.7647287249565125 -3.0008678436279297
-0.833810031414032 -0.5200067162513733 1.2669830322265625
-0.833810031414032 -0.5200067162513733 0.9824596643447876
-0.833810031414032 -0.5200067162513733 0.6979362964630127
-0.833810031414032 -0.5200067162513733 0.4134128987789154
-0.833810031414032 -0.5200067162513733 0.12888950109481812
-0.833810031414032 -0.5200067162513733 -0.15563389658927917
-0.833810031414032 -0.5200067758560181 -0.44015729427337646
-0.833810031414032 -0.5200067758560181 -0.7246806621551514
-0.8338099718093872 -0.5200067758560181 -1.0092040300369263
-0.8338099718093872 -0.5200067758560181 -1.2937273979187012
-0.8338099718093872 -0.5200067758560181 -1.5782508850097656
-0.8338099718093872 -0.5200068354606628 -1.8627742528915405
-0.8338099718093872 -0.5200068354606628 -2.1472976207733154
-0.8338099718093872 -0.5200068354606628 -2.43182110786438
-0.8338099718093872 -0.5200068354606628 -2.7163443565368652
-0.8338099718093872 -0.5200068354606628 -3.0008678436279297
-1.063779354095459 -0.2229107916355133 1.2669830322265625
-1.063779354095459 -0.2229108065366745 0.9824596643447876
-1.063779354095459 -0.2229108214378357 0.6979362964630127
-1.063779354095459 -0.2229108363389969 0.413412868976593
-1.063779354095459 -0.2229108363389969 0.12888948619365692
-1.063779354095459 -0.22291085124015808 -0.15563391149044037
-1.063779354095459 -0.22291086614131927 -0.44015729427337646
-1.063779354095459 -0.22291088104248047 -0.7246806621551514
-1.063779354095459 -0.22291088104248047 -1.0092040300369263
-1.063779354095459 -0.22291089594364166 -1.2937275171279907
-1.063779354095459 -0.22291091084480286 -1.5782508850097656
-1.063779354095459 -0.22291092574596405 -1.8627742528915405
-1.063779354095459 -0.22291094064712524 -2.1472976207733154
-1.063779354095459 -0.22291094064712524 -2.43182110786438
-1.063779354095459 -0.22291095554828644 -2.7163443565368652
-1.063779354095459 -0.22291097044944763 -3.0008678436279297
-1.2292362451553345 0.11439602077007294 1.2669830322265625
-1.2292362451553345 0.11439600586891174 0.9824596643447876
-1.2292362451553345 0.11439599096775055 0.6979362368583679
-1.2292362451553345 0.11439598351716995 0.413412868976593
-1.2292362451553345 0.11439596861600876 0.12888947129249573
-1.2292362451553345 0.11439596116542816 -0.15563392639160156
-1.2292362451553345 0.11439594626426697 -0.44015732407569885
-1.2292362451553345 0.11439593136310577 -0.7246807217597961
-1.2292362451553345 0.11439592391252518 -1.0092041492462158
-1.2292362451553345 0.11439590901136398 -1.2937275171279907
-1.2292362451553345 0.11439590156078339 -1.5782508850097656
-1.2292362451553345 0.11439588665962219 -1.8627742528915405
-1.2292362451553345 0.114395871758461 -2.1472976207733154
-1.2292362451553345 0.1143958643078804 -2.43182110786438
-1.2292362451553345 0.11439584940671921 -2.7163443565368652
-1.2292362451553345 0.11439584195613861 -3.0008678436279297
-1.3234068155288696 0.4781043529510498 1.2669830322265625
-1.3234068155288696 0.4781043529510498 0.9824596047401428
-1.3234068155288696 0.4781043529510498 0.6979362368583679
-1.3234068155288696 0.4781043231487274 0.41341283917427063
-1.3234068155288696 0.4781043231487274 0.12888945639133453
-1.3234068155288696 0.47810429334640503 -0.15563394129276276
-1.3234068155288696 0.47810429334640503 -0.44015732407569885
-1.3234068155288696 0.47810429334640503 -0.7246807217597961
-1.3234068155288696 0.47810426354408264 -1.0092041492462158
-1.3234068155288696 0.47810426354408264 -1.2937275171279907
-1.3234068155288696 0.47810423374176025 -1.5782508850097656
-1.3234068155288696 0.47810423374176025 -1.8627742528915405
-1.3234068155288696 0.47810423374176025 -2.1472976207733154
-1.3234068155288696 0.47810420393943787 -2.43182110786438
-1.3234068155288696 0.47810420393943787 -2.7163443565368652
-1.3234068155288696 0.4781041741371155 -3.0008678436279297
-1.3424358367919922 0.8533239960670471 1.2669830322265625
-1.3424358367919922 0.8533239960670471 0.9824596047401428
-1.3424358367919922 0.8533239364624023 0.6979362368583679
-1.3424358367919922 0.8533239364624023 0.41341283917427063
-1.3424358367919922 0.8533239364624023 0.12888944149017334
-1.3424358367919922 0.8533239364624023 -0.15563395619392395
-1.3424358367919922 0.8533239364624023 -0.44015735387802124
-1.3424358367919922 0.8533238768577576 -0.7246807217597961
-1.3424358367919922 0.8533238768577576 -1.0092041492462158
-1.3424358367919922 0.8533238768577576 -1.2937275171279907
-1.3424358367919922 0.8533238768577576 -1.5782508850097656
-1.3424358367919922 0.8533238768577576 -1.8627742528915405
-1.3424358367919922 0.8533238172531128 -2.1472976207733154
-1.3424358367919922 0.8533238172531128 -2.43182110786438
-1.3424358367919922 0.8533238172531128 -2.7163445949554443
-1.3424358367919922 0.8533238172531128 -3.0008678436279297
-1.2855441570281982 1.2246932983398438 1.2669830322265625
-1.2855441570281982 1.2246932983398438 0.9824596047401428
-1.2855441570281982 1.2246932983398438 0.6979361772537231
-1.2855441570281982 1.2246932983398438 0.41341280937194824
-1.2855441570281982 1.2246932983398438 0.12888942658901215
-1.2855441570281982 1.2246932983398438 -0.15563397109508514
-1.2855441570281982 1.2246932983398438 -0.44015735387802124
-1.2855441570281982 1.2246932983398438 -0.7246807813644409
-1.2855441570281982 1.2246932983398438 -1.0092041492462158
-1.2855441570281982 1.2246932983398438 -1.2937275171279907
-1.2855441570281982 1.2246931791305542 -1.5782508850097656
-1.2855441570281982 1.2246931791305542 -1.86277437210083
-1.2855441570281982 1.2246931791305542 -2.1472976207733154
-1.2855441570281982 1.2246931791305542 -2.43182110786438
-1.2855441570281982 1.2246931791305542 -2.7163445949554443
-1.2855441570281982 1.2246931791305542 -3.0008678436279297
-1.155060887336731 1.5770084857940674 1.2669830322265625
-1.155060887336731 1.5770084857940674 0.9824596047401428
-1.155060887336731 1.5770084857940674 0.6979361772537231
-1.155060887336731 1.5770084857940674 0.41341280937194824
-1.155060887336731 1.5770084857940674 0.12888941168785095
-1.155060887336731 1.5770084857940674 -0.15563398599624634
-1.155060887336731 1.5770084857940674 -0.44015738368034363
-1.155060887336731 1.5770084857940674 -0.7246807813644409
-1.155060887336731 1.5770084857940674 -1.0092041492462158
-1.155060887336731 1.5770084857940674 -1.2937275171279907
-1.155060887336731 1.5770083665847778 -1.5782508850097656
-1.155060887336731 1.5770083665847778 -1.86277437210083
-1.155060887336731 1.5770083665847778 -2.1472976207733154
-1.155060887336731 1.5770083665847778 -2.43182110786438
-1.155060887336731 1.5770083665847778 -2.7163445949554443
-1.155060887336731 1.5770083665847778 -3.0008678436279297
-0.9563282132148743 1.8958457708358765 1.266982913017273
-0.9563282132148743 1.8958457708358765 0.982459545135498
-0.9563282132148743 1.8958457708358765 0.6979361772537231
-0.9563282132148743 1.895845651626587 0.41341277956962585
-0.9563282132148743 1.895845651626587 0.12888939678668976
-0.9563281536102295 1.895845651626587 -0.15563398599624634
-0.9563281536102295 1.895845651626587 -0.44015738368034363
-0.9563281536102295 1.895845651626587 -0.7246807813644409
-0.9563281536102295 1.895845651626587 -1.0092041492462158
-0.9563281536102295 1.895845651626587 -1.2937275171279907
-0.9563281536102295 1.895845651626587 -1.5782510042190552
-0.9563281536102295 1.895845651626587 -1.86277437210083
-0.9563281536102295 1.895845651626587 -2.1472976207733154
-0.9563281536102295 1.8958455324172974 -2.43182110786438
-0.9563281536102295 1.8958455324172974 -2.7163445949554443
-0.9563281536102295 1.8958455324172974 -3.0008678436279297
-0.6974820494651794 2.168151617050171 1.266982913017273
-0.6974820494651794 2.168151617050171 0.982459545135498
-0.6974820494651794 2.168151617050171 0.6979361772537231
-0.6974820494651794 2.168151617050171 0.41341277956962585
-0.6974820494651794 2.168151617050171 0.12888939678668976
-0.6974820494651794 2.168151617050171 -0.15563400089740753
-0.6974820494651794 2.168151617050171 -0.44015738368034363
-0.6974820494651794 2.168151617050171 -0.7246807813644409
-0.6974820494651794 2.168151617050171 -1.0092041492462158
-0.6974820494651794 2.168151617050171 -1.2937275171279907
-0.6974820494651794 2.168151617050171 -1.5782510042190552
-0.6974820494651794 2.168151617050171 -1.86277437210083
-0.6974820494651794 2.168151617050171 -2.1472978591918945
-0.6974819898605347 2.168151617050171 -2.43182110786438
-0.6974819898605347 2.168151617050171 -2.7163445949554443
-0.6974819898605347 2.168151617050171 -3.0008678436279297
-0.3891197443008423 2.3827781677246094 1.266982913017273
-0.3891197443008423 2.3827781677246094 0.982459545135498
-0.3891197144985199 2.3827781677246094 0.6979361772537231
-0.3891197144985199 2.3827781677246094 0.41341277956962585
-0.3891197144985199 2.3827781677246094 0.12888938188552856
-0.3891197144985199 2.3827781677246094 -0.15563400089740753
-0.3891197144985199 2.3827781677246094 -0.44015738368034363
-0.3891197144985199 2.3827781677246094 -0.7246807813644409
-0.3891197144985199 2.3827781677246094 -1.0092041492462158
-0.3891197144985199 2.3827781677246094 -1.2937275171279907
-0.3891196846961975 2.3827781677246094 -1.5782510042190552
-0.3891196846961975 2.3827781677246094 -1.86277437210083
-0.3891196846961975 2.3827781677246094 -2.1472978591918945
-0.3891196846961975 2.3827781677246094 -2.43182110786438
-0.3891196846961975 2.3827781677246094 -2.7163445949554443
-0.3891196846961975 2.3827781677246094 -3.0008678436279297
-0.04386560246348381 2.5309383869171143 1.266982913017273
-0.04386559873819351 2.5309383869171143 0.982459545135498
-0.043865595012903214 2.5309383869171143 0.6979361772537231
-0.043865591287612915 2.5309383869171143 0.41341277956962585
-0.04386558756232262 2.5309383869171143 0.12888938188552856
-0.04386558383703232 2.5309383869171143 -0.15563400089740753
-0.04386558011174202 2.5309383869171143 -0.440157413482666
-0.04386557638645172 2.5309383869171143 -0.7246807813644409
-0.04386557266116142 2.5309383869171143 -1.0092041492462158
-0.043865568935871124 2.5309383869171143 -1.2937275171279907
-0.043865565210580826 2.5309383869171143 -1.5782510042190552
-0.04386556148529053 2.5309383869171143 -1.86277437210083
-0.04386555776000023 2.5309383869171143 -2.1472978591918945
-0.04386555403470993 2.5309383869171143 -2.43182110786438
-0.04386555030941963 2.5309383869171143 -2.7163445949554443
-0.043865546584129333 2.5309383869171143 -3.0008678436279297
0.3241455852985382 2.6065666675567627 1.266982913017273
0.3241455852985382 2.6065666675567627 0.982459545135498
0.3241455852985382 2.6065666675567627 0.6979361772537231
0.3241456151008606 2.6065666675567627 0.41341277956962585
0.3241456151008606 2.6065666675567627 0.12888938188552856
0.3241456151008606 2.6065666675567627 -0.15563400089740753
0.3241456151008606 2.6065666675567627 -0.44015738368034363
0.3241456151008606 2.6065666675567627 -0.7246807813644409
0.3241456151008606 2.6065666675567627 -1.0092041492462158
0.3241456151008606 2.6065666675567627 -1.2937275171279907
0.3241456151008606 2.6065666675567627 -1.5782510042190552
0.324145644903183 2.6065664291381836 -1.86277437210083
0.324145644903183 2.6065664291381836 -2.1472978591918945
0.324145644903183 2.6065664291381836 -2.43182110786438
0.324145644903183 2.6065664291381836 -2.7163445949554443
0.324145644903183 2.6065664291381836 -3.0008678436279297
0.699847400188446 2.6065666675567627 1.266982913017273
0.699847400188446 2.6065666675567627 0.982459545135498
0.6998474597930908 2.6065666675567627 0.6979361772537231
0.6998474597930908 2.6065666675567627 0.41341277956962585
0.6998474597930908 2.6065666675567627 0.12888939678668976
0.6998474597930908 2.6065666675567627 -0.15563400089740753
0.6998474597930908 2.6065666675567627 -0.44015738368034363
0.6998474597930908 2.6065666675567627 -0.7246807813644409
0.6998474597930908 2.6065666675567627 -1.0092041492462158
0.6998474597930908 2.6065666675567627 -1.2937275171279907
0.6998474597930908 2.6065666675567627 -1.5782510042190552
0.6998474597930908 2.6065664291381836 -1.86277437210083
0.6998474597930908 2.6065664291381836 -2.1472978591918945
0.6998474597930908 2.6065664291381836 -2.43182110786438
0.6998474597930908 2.6065664291381836 -2.7163445949554443
0.6998474597930908 2.6065664291381836 -3.0008678436279297
1.0678585767745972 2.5309383869171143 1.266982913017273
1.0678585767745972 2.5309383869171143 0.982459545135498
1.0678585767745972 2.5309383869171143 0.6979361772537231
1.0678585767745972 2.5309383869171143 0.41341277956962585
1.0678585767745972 2.5309383869171143 0.12888939678668976
1.0678585767745972 2.5309383869171143 -0.15563398599624634
1.0678586959838867 2.5309383869171143 -0.44015738368034363
1.0678586959838867 2.5309383869171143 -0.7246807813644409
1.0678586959838867 2.5309383869171143 -1.0092041492462158
1.0678586959838867 2.5309383869171143 -1.2937275171279907
1.0678586959838867 2.5309383869171143 -1.5782510042190552
1.0678586959838867 2.5309383869171143 -1.86277437210083
1.0678586959838867 2.5309383869171143 -2.1472976207733154
1.0678586959838867 2.5309383869171143 -2.43182110786438
1.0678586959838867 2.5309383869171143 -2.7163445949554443
1.0678586959838867 2.5309383869171143 -3.0008678436279297
1.413112759590149 2.3827781677246094 1.2669830322265625
1.413112759590149 2.3827781677246094 0.9824596047401428
1.413112759590149 2.3827781677246094 0.6979361772537231
1.413112759590149 2.3827781677246094 0.41341280937194824
1.413112759590149 2.3827781677246094 0.12888941168785095
1.413112759590149 2.3827781677246094 -0.15563398599624634
1.413112759590149 2.3827781677246094 -0.44015738368034363
1.413112759590149 2.3827781677246094 -0.7246807813644409
1.413112759590149 2.3827781677246094 -1.0092041492462158
1.413112759590149 2.3827781677246094 -1.2937275171279907
1.413112759590149 2.3827781677246094 -1.5782508850097656
1.413112759590149 2.3827781677246094 -1.86277437210083
1.413112759590149 2.3827781677246094 -2.1472976207733154
1.413112759590149 2.3827781677246094 -2.43182110786438
1.413112759590149 2.3827781677246094 -2.7163445949554443
1.413112759590149 2.3827781677246094 -3.0008678436279297
1.7214751243591309 2.168151617050171 1.2669830322265625
1.7214751243591309 2.168151617050171 0.9824596047401428
1.7214751243591309 2.168151617050171 0.6979361772537231
1.7214751243591309 2.168151617050171 0.41341280937194824
1.7214751243591309 2.168151617050171 0.12888942658901215
1.7214751243591309 2.168151617050171 -0.15563397109508514
1.7214751243591309 2.168151617050171 -0.44015735387802124
1.7214751243591309 2.168151617050171 -0.7246807813644409
1.7214751243591309 2.168151617050171 -1.0092041492462158
1.7214751243591309 2.168151617050171 -1.2937275171279907
1.7214751243591309 2.168151617050171 -1.5782508850097656
1.7214751243591309 2.168151617050171 -1.86277437210083
1.7214751243591309 2.168151617050171 -2.1472976207733154
1.7214751243591309 2.168151617050171 -2.43182110786438
1.7214751243591309 2.168151617050171 -2.7163445949554443
1.7214751243591309 2.168151617050171 -3.0008678436279297
1.9803211688995361 1.8958457708358765 1.2669830322265625
1.9803211688995361 1.8958457708358765 0.9824596047401428
1.9803211688995361 1.8958457708358765 0.6979362368583679
1.9803211688995361 1.895845651626587 0.41341283917427063
1.9803211688995361 1.895845651626587 0.12888944149017334
1.9803212881088257 1.895845651626587 -0.15563395619392395
1.9803212881088257 1.895845651626587 -0.44015735387802124
1.9803212881088257 1.895845651626587 -0.7246807217597961
1.9803212881088257 1.895845651626587 -1.0092041492462158
1.9803212881088257 1.895845651626587 -1.2937275171279907
1.9803212881088257 1.895845651626587 -1.5782508850097656
1.9803212881088257 1.895845651626587 -1.8627742528915405
1.9803212881088257 1.895845651626587 -2.1472976207733154
1.9803212881088257 1.8958455324172974 -2.43182110786438
1.9803212881088257 1.8958455324172974 -2.7163445949554443
1.9803212881088257 1.8958455324172974 -3.0008678436279297
2.179054021835327 1.5770084857940674 1.2669830322265625
2.179054021835327 1.5770084857940674 0.9824596047401428
2.179054021835327 1.5770084857940674 0.6979362368583679
2.179054021835327 1.5770084857940674 0.41341283917427063
2.179054021835327 1.5770084857940674 0.12888945639133453
2.179054021835327 1.5770084857940674 -0.15563394129276276
2.179054021835327 1.5770084857940674 -0.44015732407569885
2.179054021835327 1.5770084857940674 -0.7246807217597961
2.179054021835327 1.5770084857940674 -1.0092041492462158
2.179054021835327 1.5770084857940674 -1.2937275171279907
2.179054021835327 1.5770083665847778 -1.5782508850097656
2.179054021835327 1.5770083665847778 -1.8627742528915405
2.179054021835327 1.5770083665847778 -2.1472976207733154
2.179054021835327 1.5770083665847778 -2.43182110786438
2.179054021835327 1.5770083665847778 -2.7163443565368652
2.179054021835327 1.5770083665847778 -3.0008678436279297
2.309537172317505 1.2246932983398438 1.2669830322265625
2.309537172317505 1.2246932983398438 0.9824596643447876
2.309537172317505 1.2246932983398438 0.6979362368583679
2.309537172317505 1.2246932983398438 0.413412868976593
2.309537172317505 1.2246932983398438 0.12888947129249573
2.309537172317505 1.2246932983398438 -0.15563392639160156
2.309537172317505 1.2246932983398438 -0.44015732407569885
2.309537172317505 1.2246932983398438 -0.7246807217597961
2.309537172317505 1.2246932983398438 -1.0092041492462158
2.309537172317505 1.2246932983398438 -1.2937275171279907
2.309537172317505 1.2246931791305542 -1.5782508850097656
2.309537172317505 1.2246931791305542 -1.8627742528915405
2.309537172317505 1.2246931791305542 -2.1472976207733154
2.309537172317505 1.2246931791305542 -2.43182110786438
2.309537172317505 1.2246931791305542 -2.7163443565368652
2.309537172317505 1.2246931791305542 -3.0008678436279297
2.366428852081299 0.8533239960670471 1.2669830322265625
2.366428852081299 0.8533239960670471 0.9824596643447876
2.366428852081299 0.8533239364624023 0.6979362964630127
2.366428852081299 0.8533239364624023 0.413412868976593
2.366428852081299 0.8533239364624023 0.12888948619365692
2.366428852081299 0.8533239364624023 -0.15563391149044037
2.366428852081299 0.8533239364624023 -0.44015729427337646
2.366428852081299 0.8533238768577576 -0.7246806621551514
2.366428852081299 0.8533238768577576 -1.0092040300369263
2.366428852081299 0.8533238768577576 -1.2937275171279907
2.366428852081299 0.8533238768577576 -1.5782508850097656
2.366428852081299 0.8533238768577576 -1.8627742528915405
2.366428852081299 0.8533238172531128 -2.1472976207733154
2.366428852081299 0.8533238172531128 -2.43182110786438
2.366428852081299 0.8533238172531128 -2.7163443565368652
2.366428852081299 0.8533238172531128 -3.0008678436279297
2.347399950027466 0.4781043529510498 1.2669830322265625
2.347399950027466 0.4781043529510498 0.9824596643447876
2.347399950027466 0.4781043529510498 0.6979362964630127
2.347399950027466 0.4781043231487274 0.4134128987789154
2.347399950027466 0.4781043231487274 0.12888950109481812
2.347399950027466 0.47810429334640503 -0.15563389658927917
2.347399950027466 0.47810429334640503 -0.44015729427337646
2.347399950027466 0.47810429334640503 -0.7246806621551514
2.347399950027466 0.47810426354408264 -1.0092040300369263
2.347399950027466 0.47810426354408264 -1.2937275171279907
2.347399950027466 0.47810423374176025 -1.5782508850097656
2.347399950027466 0.47810423374176025 -1.8627742528915405
2.347399950027466 0.47810423374176025 -2.1472976207733154
2.347399950027466 0.47810420393943787 -2.43182110786438
2.347399950027466 0.47810420393943787 -2.7163443565368652
2.347399950027466 0.4781041741371155 -3.0008678436279297
2.2532293796539307 0.11439602077007294 1.2669830322265625
2.2532293796539307 0.11439600586891174 0.9824596643447876
2.2532293796539307 0.11439599096775055 0.6979362964630127
2.2532293796539307 0.11439598351716995 0.4134128987789154
2.2532293796539307 0.11439596861600876 0.1288895159959793
2.2532293796539307 0.11439596116542816 -0.15563388168811798
2.2532293796539307 0.11439594626426697 -0.4401572644710541
2.2532293796539307 0.11439593136310577 -0.7246806621551514
2.2532293796539307 0.11439592391252518 -1.0092040300369263
2.2532293796539307 0.11439590901136398 -1.2937273979187012
2.2532293796539307 0.11439590156078339 -1.5782508850097656
2.2532293796539307 0.11439588665962219 -1.8627742528915405
2.2532293796539307 0.114395871758461 -2.1472976207733154
2.2532293796539307 0.1143958643078804 -2.43182110786438
2.2532293796539307 0.11439584940671921 -2.7163443565368652
2.2532293796539307 0.11439584195613861 -3.0008678436279297
2.0877723693847656 -0.2229107916355133 1.266983151435852
2.0877723693847656 -0.2229108065366745 0.9824597239494324
2.0877723693847656 -0.2229108214378357 0.6979362964630127
2.0877723693847656 -0.2229108363389969 0.4134129285812378
2.0877723693847656 -0.2229108363389969 0.1288895308971405
2.0877723693847656 -0.22291085124015808 -0.1556338667869568
2.0877723693847656 -0.22291086614131927 -0.4401572644710541
2.0877723693847656 -0.22291088104248047 -0.7246806621551514
2.0877723693847656 -0.22291088104248047 -1.0092040300369263
2.0877723693847656 -0.22291089594364166 -1.2937273979187012
2.0877723693847656 -0.22291091084480286 -1.578250765800476
2.0877723693847656 -0.22291092574596405 -1.8627742528915405
2.0877723693847656 -0.22291094064712524 -2.1472976207733154
2.0877723693847656 -0.22291094064712524 -2.43182110786438
2.0877723693847656 -0.22291095554828644 -2.7163443565368652
2.0877723693847656 -0.22291097044944763 -3.0008678436279297
1.8578029870986938 -0.5200067162513733 1.266983151435852
1.8578031063079834 -0.5200067162513733 0.9824597239494324
1.8578031063079834 -0.5200067162513733 0.6979362964630127
1.8578031063079834 -0.5200067162513733 0.4134129285812378
1.8578031063079834 -0.5200067162513733 0.1288895308971405
1.8578031063079834 -0.5200067162513733 -0.1556338518857956
1.8578031063079834 -0.5200067758560181 -0.4401572346687317
1.8578031063079834 -0.5200067758560181 -0.7246806621551514
1.8578031063079834 -0.5200067758560181 -1.0092040300369263
1.8578031063079834 -0.5200067758560181 -1.2937273979187012
1.8578031063079834 -0.5200067758560181 -1.578250765800476
1.8578031063079834 -0.5200068354606628 -1.8627742528915405
1.8578031063079834 -0.5200068354606628 -2.1472976207733154
1.8578031063079834 -0.5200068354606628 -2.43182110786438
1.8578031063079834 -0.5200068354606628 -2.7163443565368652
1.8578031063079834 -0.5200068354606628 -3.0008678436279297
1.5727362632751465 -0.7647285461425781 1.266983151435852
1.5727362632751465 -0.7647285461425781 0.9824597239494324
1.5727362632751465 -0.7647285461425781 0.6979362964630127
1.5727362632751465 -0.7647285461425781 0.4134129285812378
1.5727362632751465 -0.7647285461425781 0.1288895457983017
1.5727362632751465 -0.7647286057472229 -0.1556338518857956
1.5727362632751465 -0.7647286057472229 -0.4401572346687317
1.5727362632751465 -0.7647286057472229 -0.7246806621551514
1.5727362632751465 -0.7647286057472229 -1.0092040300369263
1.5727362632751465 -0.7647286057472229 -1.2937273979187012
1.5727362632751465 -0.7647286653518677 -1.578250765800476
1.5727362632751465 -0.7647286653518677 -1.8627742528915405
1.5727362632751465 -0.7647286653518677 -2.1472976207733154
1.5727362632751465 -0.7647286653518677 -2.431820869445801
1.5727362632751465 -0.7647286653518677 -2.7163443565368652
1.5727362632751465 -0.7647287249565125 -3.0008678436279297
1.244242548942566 -0.9470573663711548 1.266983151435852
1.244242548942566 -0.9470573663711548 0.9824597239494324
1.2442426681518555 -0.9470573663711548 0.6979363560676575
1.2442426681518555 -0.9470573663711548 0.4134129285812378
1.2442426681518555 -0.9470574259757996 0.1288895457983017
1.2442426681518555 -0.9470574259757996 -0.1556338518857956
1.2442426681518555 -0.9470574259757996 -0.4401572346687317
1.2442426681518555 -0.9470574259757996 -0.7246806025505066
1.2442426681518555 -0.9470574259757996 -1.0092040300369263
1.2442426681518555 -0.9470574855804443 -1.2937273979187012
1.2442426681518555 -0.9470574855804443 -1.578250765800476
1.2442426681518555 -0.9470574855804443 -1.8627742528915405
1.2442426681518555 -0.9470574855804443 -2.1472976207733154
1.2442426681518555 -0.9470574855804443 -2.431820869445801
1.2442426681518555 -0.9470575451850891 -2.7163443565368652
1.2442426681518555 -0.9470575451850891 -3.0008678436279297
0.8857707381248474 -1.0595285892486572 1.266983151435852
0.8857707381248474 -1.0595285892486572 0.9824597239494324
0.8857707381248474 -1.0595287084579468 0.6979363560676575
0.8857707381248474 -1.0595287084579468 0.4134129285812378
0.8857707381248474 -1.0595287084579468 0.1288895457983017
0.8857707381248474 -1.0595287084579468 -0.1556338518857956
0.8857707381248474 -1.0595287084579468 -0.4401572346687317
0.8857707381248474 -1.0595287084579468 -0.7246806025505066
0.8857707381248474 -1.0595287084579468 -1.0092040300369263
0.8857707977294922 -1.0595287084579468 -1.2937273979187012
0.8857707977294922 -1.0595287084579468 -1.578250765800476
0.8857707977294922 -1.0595287084579468 -1.8627742528915405
0.8857707977294922 -1.0595288276672363 -2.1472976207733154
0.8857707977294922 -1.0595288276672363 -2.431820869445801
0.8857707977294922 -1.0595288276672363 -2.7163443565368652
0.8857707977294922 -1.0595288276672363 -3.0008678436279297
0.5119965076446533 -1.0975377559661865 1.266983151435852
0.5119965076446533 -1.0975377559661865 0.9824597239494324
0.5119965076446533 -1.0975377559661865 0.6979363560676575
0.5119965076446533 -1.0975377559661865 0.4134129285812378
0.5119965076446533 -1.0975377559661865 0.1288895457983017
0.5119965076446533 -1.0975377559661865 -0.1556338518857956
0.5119965076446533 -1.097537875175476 -0.4401572346687317
0.5119965076446533 -1.097537875175476 -0.7246806025505066
0.5119965076446533 -1.097537875175476 -1.0092040300369263
0.5119965672492981 -1.097537875175476 -1.2937273979187012
0.5119965672492981 -1.097537875175476 -1.578250765800476
0.5119965672492981 -1.097537875175476 -1.8627742528915405
0.5119965672492981 -1.097537875175476 -2.1472976207733154
0.5119965672492981 -1.097537875175476 -2.431820869445801
0.5119965672492981 -1.097537875175476 -2.7163443565368652
0.5119965672492981 -1.097537875175476 -3.0008678436279297
