ply
format ascii 1.0
element vertex 512
property float x
property float y
property float z
end_header
-0.002123594284057617 1.002284288406372 -0.9919313192367554
-0.002123597776517272 1.002284288406372 -0.8620293140411377
-0.002123601036146283 1.002284288406372 -0.7321273684501648
-0.002123604528605938 1.002284288406372 -0.6022254228591919
-0.0021236080210655928 1.002284288406372 -0.472323477268219
-0.002123611280694604 1.002284288406372 -0.3424215018749237
-0.0021236147731542587 1.002284288406372 -0.2125195562839508
-0.0021236182656139135 1.002284288406372 -0.08261758834123611
-0.0021236215252429247 1.002284288406372 0.04728436470031738
-0.0021236250177025795 1.002284288406372 0.17718632519245148
-0.0021236285101622343 1.002284288406372 0.30708828568458557
-0.0021236317697912455 1.002284288406372 0.43699023127555847
-0.0021236352622509003 1.002284288406372 0.5668922066688538
-0.0021236385218799114 1.002284288406372 0.6967941522598267
-0.0021236420143395662 1.0022844076156616 0.8266960978507996
-0.002123645506799221 1.0022844076156616 0.9565980434417725
-0.20355239510536194 0.9818009734153748 -0.9919313192367554
-0.20355239510536194 0.9818009734153748 -0.8620293140411377
-0.20355239510536194 0.9818009734153748 -0.7321273684501648
-0.20355239510536194 0.9818009734153748 -0.6022254228591919
-0.20355241000652313 0.9818009734153748 -0.472323477268219
-0.20355241000652313 0.9818010330200195 -0.3424215018749237
-0.20355241000652313 0.9818010330200195 -0.2125195562839508
-0.20355241000652313 0.9818010330200195 -0.08261759579181671
-0.20355242490768433 0.9818010330200195 0.047284360975027084
-0.20355242490768433 0.9818010330200195 0.17718632519245148
-0.20355242490768433 0.9818010330200195 0.30708828568458557
-0.20355242490768433 0.9818010330200195 0.43699023127555847
-0.20355243980884552 0.9818010330200195 0.5668922066688538
-0.20355243980884552 0.9818010330200195 0.6967941522598267
-0.20355243980884552 0.9818010330200195 0.8266960978507996
-0.20355243980884552 0.9818010330200195 0.9565980434417725
-0.39673468470573425 0.9211896657943726 -0.9919313192367554
-0.39673468470573425 0.9211896657943726 -0.8620293736457825
-0.39673468470573425 0.9211896657943726 -0.7321273684501648
-0.39673468470573425 0.9211896657943726 -0.6022254228591919
-0.39673468470573425 0.9211896657943726 -0.472323477268219
-0.39673468470573425 0.9211896657943726 -0.3424215018749237
-0.39673468470573425 0.9211896657943726 -0.2125195562839508
-0.39673468470573425 0.9211896657943726 -0.08261760324239731
-0.39673468470573425 0.9211896657943726 0.047284357249736786
-0.39673471450805664 0.9211896657943726 0.17718631029129028
-0.39673471450805664 0.9211897253990173 0.30708828568458557
-0.39673471450805664 0.9211897253990173 0.43699023127555847
-0.39673471450805664 0.9211897253990173 0.5668922066688538
-0.39673471450805664 0.9211897253990173 0.6967941522598267
-0.39673471450805664 0.9211897253990173 0.8266960978507996
-0.39673471450805664 0.9211897253990173 0.9565980434417725
-0.573761522769928 0.822931706905365 -0.9919313192367554
-0.573761522769928 0.822931706905365 -0.8620293736457825
-0.573761522769928 0.8229317665100098 -0.7321273684501648
-0.573761522769928 0.8229317665100098 -0.6022254228591919
-0.573761522769928 0.8229317665100098 -0.472323477268219
-0.573761522769928 0.8229317665100098 -0.3424215018749237
-0.573761522769928 0.8229317665100098 -0.2125195562839508
-0.573761522769928 0.8229317665100098 -0.08261760324239731
-0.5737615823745728 0.8229317665100098 0.047284357249736786
-0.5737615823745728 0.8229317665100098 0.17718631029129028
-0.5737615823745728 0.8229317665100098 0.30708828568458557
-0.5737615823745728 0.8229317665100098 0.43699023127555847
-0.5737615823745728 0.8229317665100098 0.5668922066688538
-0.5737615823745728 0.8229317665100098 0.6967941522598267
-0.5737615823745728 0.8229317665100098 0.8266960978507996
-0.5737615823745728 0.8229318261146545 0.9565980434417725
-0.7273854613304138 0.6910499334335327 -0.9919313192367554
-0.7273854613304138 0.6910499334335327 -0.8620293736457825
-0.7273854613304138 0.6910499334335327 -0.7321273684501648
-0.7273854613304138 0.6910499334335327 -0.6022254228591919
-0.7273854613304138 0.6910499334335327 -0.472323477268219
-0.7273854613304138 0.6910499334335327 -0.3424215018749237
-0.7273854613304138 0.6910499334335327 -0.2125195562839508
-0.7273854613304138 0.6910499334335327 -0.08261760324239731
-0.7273854613304138 0.6910499334335327 0.047284357249736786
-0.7273854613304138 0.6910499334335327 0.17718631029129028
-0.7273855209350586 0.6910499334335327 0.30708828568458557
-0.7273855209350586 0.6910499334335327 0.43699023127555847
-0.7273855209350586 0.6910499930381775 0.5668922066688538
-0.7273855209350586 0.6910499930381775 0.6967941522598267
-0.7273855209350586 0.6910499930381775 0.8266960978507996
-0.7273855209350586 0.6910499930381775 0.9565980434417725
-0.8513171076774597 0.5309434533119202 -0.9919313192367554
-0.8513171076774597 0.5309434533119202 -0.8620293140411377
-0.8513171076774597 0.5309434533119202 -0.7321273684501648
-0.8513171076774597 0.5309434533119202 -0.6022254228591919
-0.8513171076774597 0.5309434533119202 -0.472323477268219
-0.8513171076774597 0.5309434533119202 -0.3424215018749237
-0.8513171076774597 0.5309434533119202 -0.2125195562839508
-0.8513171076774597 0.5309434533119202 -0.08261759579181671
-0.8513171076774597 0.5309435129165649 0.047284360975027084
-0.8513171076774597 0.5309435129165649 0.17718631029129028
-0.8513171076774597 0.5309435129165649 0.30708828568458557
-0.8513171076774597 0.5309435129165649 0.43699023127555847
-0.8513171076774597 0.5309435129165649 0.5668922066688538
-0.8513171076774597 0.5309435129165649 0.6967941522598267
-0.8513171076774597 0.5309435129165649 0.8266960978507996
-0.8513171076774597 0.5309435129165649 0.9565980434417725
-0.9404826164245605 0.349167138338089 -0.9919313192367554
-0.9404826164245605 0.349167138338089 -0.8620293140411377
-0.9404826164245605 0.349167138338089 -0.7321273684501648
-0.9404826164245605 0.349167138338089 -0.6022254228591919
-0.9404826164245605 0.349167138338089 -0.472323477268219
-0.9404826164245605 0.349167138338089 -0.3424215018749237
-0.9404826760292053 0.349167138338089 -0.2125195562839508
-0.9404826760292053 0.3491671681404114 -0.08261759579181671
-0.9404826760292053 0.3491671681404114 0.04728436470031738
-0.9404826760292053 0.3491671681404114 0.17718632519245148
-0.9404826760292053 0.3491671681404114 0.30708828568458557
-0.9404826760292053 0.3491671681404114 0.43699023127555847
-0.9404826760292053 0.3491671681404114 0.5668922066688538
-0.9404826760292053 0.34916719794273376 0.6967941522598267
-0.9404826760292053 0.34916719794273376 0.8266960978507996
-0.9404826760292053 0.34916719794273376 0.9565980434417725
-0.9912316203117371 0.153162881731987 -0.9919313192367554
-0.9912316203117371 0.153162881731987 -0.8620293140411377
-0.9912316203117371 0.1531628966331482 -0.7321273684501648
-0.9912316799163818 0.1531628966331482 -0.6022254228591919
-0.9912316799163818 0.1531628966331482 -0.4723234474658966
-0.9912316799163818 0.1531628966331482 -0.3424215018749237
-0.9912316799163818 0.1531629115343094 -0.2125195413827896
-0.9912316799163818 0.1531629115343094 -0.08261758834123611
-0.9912316799163818 0.1531629115343094 0.04728436842560768
-0.9912316799163818 0.15316292643547058 0.17718632519245148
-0.9912316799163818 0.15316292643547058 0.30708828568458557
-0.9912316799163818 0.15316292643547058 0.43699023127555847
-0.9912316799163818 0.15316294133663177 0.5668922066688538
-0.9912316799163818 0.15316294133663177 0.6967941522598267
-0.9912316799163818 0.15316294133663177 0.8266960978507996
-0.9912316799163818 0.15316295623779297 0.9565980434417725
-1.0014864206314087 -0.04904484748840332 -0.9919312596321106
-1.0014864206314087 -0.04904484376311302 -0.8620293140411377
-1.0014864206314087 -0.049044836312532425 -0.7321273684501648
-1.0014864206314087 -0.049044832587242126 -0.6022254228591919
-1.0014864206314087 -0.04904482886195183 -0.4723234474658966
-1.0014864206314087 -0.04904482513666153 -0.3424215018749237
-1.0014864206314087 -0.04904482141137123 -0.2125195413827896
-1.0014865398406982 -0.049044813960790634 -0.08261758089065552
-1.0014865398406982 -0.049044810235500336 0.04728437587618828
-1.0014865398406982 -0.04904480651021004 0.17718634009361267
-1.0014865398406982 -0.04904480278491974 0.30708828568458557
-1.0014865398406982 -0.04904479905962944 0.43699026107788086
-1.0014865398406982 -0.04904479160904884 0.5668922066688538
-1.0014865398406982 -0.049044787883758545 0.6967941522598267
-1.0014865398406982 -0.049044784158468246 0.8266960978507996
-1.0014865398406982 -0.04904478043317795 0.9565981030464172
-0.9708272218704224 -0.24917764961719513 -0.9919312596321106
-0.9708272218704224 -0.24917764961719513 -0.8620293140411377
-0.9708272218704224 -0.24917763471603394 -0.7321273684501648
-0.9708272218704224 -0.24917763471603394 -0.6022254228591919
-0.9708272814750671 -0.24917763471603394 -0.4723234474658966
-0.9708272814750671 -0.24917763471603394 -0.3424215018749237
-0.9708272814750671 -0.24917761981487274 -0.21251952648162842
-0.9708272814750671 -0.24917761981487274 -0.08261757344007492
-0.9708272814750671 -0.24917761981487274 0.047284383326768875
-0.9708272814750671 -0.24917760491371155 0.17718634009361267
-0.9708272814750671 -0.24917760491371155 0.30708828568458557
-0.9708272814750671 -0.24917760491371155 0.43699026107788086
-0.9708272814750671 -0.24917759001255035 0.5668922066688538
-0.9708272814750671 -0.24917759001255035 0.6967941522598267
-0.9708272814750671 -0.24917759001255035 0.8266961574554443
-0.9708272814750671 -0.24917757511138916 0.9565981030464172
-0.9005091786384583 -0.4390420615673065 -0.9919312596321106
-0.9005091786384583 -0.4390420615673065 -0.8620293140411377
-0.9005091786384583 -0.4390420615673065 -0.7321273684501648
-0.9005091786384583 -0.4390420615673065 -0.6022254228591919
-0.9005091786384583 -0.4390420615673065 -0.4723234474658966
-0.9005091786384583 -0.43904203176498413 -0.3424214720726013
-0.9005091786384583 -0.43904203176498413 -0.21251952648162842
-0.9005091786384583 -0.43904203176498413 -0.08261756598949432
-0.900509238243103 -0.43904203176498413 0.04728439077734947
-0.900509238243103 -0.43904203176498413 0.17718635499477386
-0.900509238243103 -0.43904203176498413 0.30708831548690796
-0.900509238243103 -0.43904203176498413 0.43699026107788086
-0.900509238243103 -0.43904200196266174 0.5668922066688538
-0.900509238243103 -0.43904200196266174 0.6967941522598267
-0.900509238243103 -0.43904200196266174 0.8266961574554443
-0.900509238243103 -0.43904200196266174 0.9565981030464172
-0.793411135673523 -0.61086505651474 -0.9919312596321106
-0.793411135673523 -0.6108649969100952 -0.8620293140411377
-0.793411135673523 -0.6108649969100952 -0.7321273684501648
-0.793411135673523 -0.6108649969100952 -0.6022253632545471
-0.793411135673523 -0.6108649969100952 -0.4723234176635742
-0.793411135673523 -0.6108649969100952 -0.3424214720726013
-0.793411135673523 -0.6108649969100952 -0.21251951158046722
-0.793411135673523 -0.6108649969100952 -0.08261755853891373
-0.793411135673523 -0.6108649969100952 0.04728440195322037
-0.793411135673523 -0.6108649969100952 0.17718635499477386
-0.793411135673523 -0.6108649969100952 0.30708831548690796
-0.793411135673523 -0.6108649969100952 0.43699026107788086
-0.793411135673523 -0.6108649969100952 0.5668922066688538
-0.793411135673523 -0.6108649969100952 0.6967942118644714
-0.793411135673523 -0.6108649373054504 0.8266961574554443
-0.793411135673523 -0.6108649373054504 0.9565981030464172
-0.6539176106452942 -0.7576121091842651 -0.9919312596321106
-0.6539176106452942 -0.7576120495796204 -0.8620293140411377
-0.653917670249939 -0.7576120495796204 -0.73212730884552
-0.653917670249939 -0.7576120495796204 -0.6022253632545471
-0.653917670249939 -0.7576120495796204 -0.4723234176635742
-0.653917670249939 -0.7576120495796204 -0.3424214720726013
-0.653917670249939 -0.7576120495796204 -0.21251951158046722
-0.653917670249939 -0.7576120495796204 -0.08261755108833313
-0.653917670249939 -0.7576120495796204 0.047284409403800964
-0.653917670249939 -0.7576120495796204 0.17718636989593506
-0.653917670249939 -0.7576120495796204 0.30708831548690796
-0.653917670249939 -0.7576120495796204 0.43699029088020325
-0.653917670249939 -0.7576120495796204 0.5668922662734985
-0.653917670249939 -0.7576120495796204 0.6967942118644714
-0.653917670249939 -0.7576119899749756 0.8266961574554443
-0.653917670249939 -0.7576119899749756 0.9565981030464172
-0.4877396523952484 -0.8732753992080688 -0.9919312596321106
-0.4877396523952484 -0.8732753992080688 -0.8620293140411377
-0.4877396523952484 -0.8732753992080688 -0.73212730884552
-0.4877396523952484 -0.8732753396034241 -0.6022253632545471
-0.4877396523952484 -0.8732753396034241 -0.4723234176635742
-0.4877396523952484 -0.8732753396034241 -0.34242144227027893
-0.4877396523952484 -0.8732753396034241 -0.21251949667930603
-0.4877396523952484 -0.8732753396034241 -0.08261753618717194
-0.4877396523952484 -0.8732753396034241 0.04728441685438156
-0.4877396821975708 -0.8732753396034241 0.17718636989593506
-0.4877396821975708 -0.8732753396034241 0.30708834528923035
-0.4877396821975708 -0.8732753396034241 0.43699029088020325
-0.4877396821975708 -0.8732753396034241 0.5668922662734985
-0.4877396821975708 -0.8732753396034241 0.6967942118644714
-0.4877396821975708 -0.8732753396034241 0.8266961574554443
-0.4877396821975708 -0.8732753396034241 0.9565981030464172
-0.30168047547340393 -0.9531196355819702 -0.9919312596321106
-0.30168047547340393 -0.9531196355819702 -0.8620292544364929
-0.30168047547340393 -0.9531196355819702 -0.73212730884552
-0.30168047547340393 -0.9531196355819702 -0.6022253632545471
-0.30168047547340393 -0.9531196355819702 -0.4723234176635742
-0.30168047547340393 -0.9531196355819702 -0.34242144227027893
-0.30168047547340393 -0.9531196355819702 -0.21251948177814484
-0.30168047547340393 -0.9531196355819702 -0.08261752873659134
-0.30168047547340393 -0.9531196355819702 0.04728442430496216
-0.3016805052757263 -0.9531196355819702 0.17718638479709625
-0.3016805052757263 -0.9531196355819702 0.30708834528923035
-0.3016805052757263 -0.9531196355819702 0.43699029088020325
-0.3016805052757263 -0.9531196355819702 0.5668922662734985
-0.3016805052757263 -0.9531195759773254 0.6967942118644714
-0.3016805052757263 -0.9531195759773254 0.8266961574554443
-0.3016805052757263 -0.9531195759773254 0.9565981030464172
-0.10335738956928253 -0.9938760995864868 -0.9919312000274658
-0.10335739701986313 -0.9938760995864868 -0.8620292544364929
-0.10335739701986313 -0.9938760995864868 -0.73212730884552
-0.10335740447044373 -0.9938760995864868 -0.6022253632545471
-0.10335740447044373 -0.9938760995864868 -0.47232338786125183
-0.10335740447044373 -0.993876039981842 -0.34242144227027893
-0.10335741192102432 -0.993876039981842 -0.21251948177814484
-0.10335741192102432 -0.993876039981842 -0.08261752128601074
-0.10335741937160492 -0.993876039981842 0.047284431755542755
-0.10335741937160492 -0.993876039981842 0.17718638479709625
-0.10335742682218552 -0.993876039981842 0.30708834528923035
-0.10335742682218552 -0.993876039981842 0.43699029088020325
-0.10335743427276611 -0.993876039981842 0.5668922662734985
-0.10335743427276611 -0.993876039981842 0.6967942118644714
-0.10335744172334671 -0.993876039981842 0.8266961574554443
-0.10335744172334671 -0.993876039981842 0.956598162651062
0.0991102010011673 -0.9938760995864868 -0.9919312000274658
0.0991102010011673 -0.9938760995864868 -0.8620292544364929
0.0991101935505867 -0.9938760995864868 -0.73212730884552
0.0991101935505867 -0.9938760995864868 -0.6022253632545471
0.0991101861000061 -0.9938760995864868 -0.47232338786125183
0.0991101861000061 -0.993876039981842 -0.34242144227027893
0.0991101786494255 -0.993876039981842 -0.21251948177814484
0.0991101786494255 -0.993876039981842 -0.08261752128601074
0.0991101786494255 -0.993876039981842 0.04728443920612335
0.09911017119884491 -0.993876039981842 0.17718639969825745
0.09911017119884491 -0.993876039981842 0.30708834528923035
0.09911016374826431 -0.993876039981842 0.43699032068252563
0.09911016374826431 -0.993876039981842 0.5668922662734985
0.09911015629768372 -0.993876039981842 0.6967942118644714
0.09911015629768372 -0.993876039981842 0.8266961574554443
0.09911014884710312 -0.993876039981842 0.956598162651062
0.2974332869052887 -0.9531196355819702 -0.9919312000274658
0.2974332571029663 -0.9531196355819702 -0.8620292544364929
0.2974332571029663 -0.9531196355819702 -0.73212730884552
0.2974332571029663 -0.9531196355819702 -0.6022253632545471
0.2974332571029663 -0.9531196355819702 -0.47232338786125183
0.2974332571029663 -0.9531196355819702 -0.34242144227027893
0.2974332571029663 -0.9531196355819702 -0.21251946687698364
0.2974332571029663 -0.9531196355819702 -0.08261751383543015
0.2974332571029663 -0.9531196355819702 0.04728444293141365
0.2974332273006439 -0.9531196355819702 0.17718639969825745
0.2974332273006439 -0.9531196355819702 0.30708834528923035
0.2974332273006439 -0.9531196355819702 0.43699032068252563
0.2974332273006439 -0.9531196355819702 0.5668922662734985
0.2974332273006439 -0.9531195759773254 0.6967942118644714
0.2974332273006439 -0.9531195759773254 0.8266961574554443
0.2974332273006439 -0.9531195759773254 0.956598162651062
0.4834924638271332 -0.8732753992080688 -0.9919312000274658
0.4834924340248108 -0.8732753992080688 -0.8620292544364929
0.4834924340248108 -0.8732753992080688 -0.73212730884552
0.4834924340248108 -0.8732753396034241 -0.6022253632545471
0.4834924340248108 -0.8732753396034241 -0.47232338786125183
0.4834924340248108 -0.8732753396034241 -0.34242144227027893
0.4834924340248108 -0.8732753396034241 -0.21251946687698364
0.4834924340248108 -0.8732753396034241 -0.08261751383543015
0.4834924340248108 -0.8732753396034241 0.04728444293141365
0.4834924042224884 -0.8732753396034241 0.17718639969825745
0.4834924042224884 -0.8732753396034241 0.30708834528923035
0.4834924042224884 -0.8732753396034241 0.43699032068252563
0.4834924042224884 -0.8732753396034241 0.5668922662734985
0.4834924042224884 -0.8732753396034241 0.6967942118644714
0.4834924042224884 -0.8732753396034241 0.8266962170600891
0.4834924042224884 -0.8732753396034241 0.956598162651062
0.649670422077179 -0.7576121091842651 -0.9919312000274658
0.649670422077179 -0.7576120495796204 -0.8620292544364929
0.649670422077179 -0.7576120495796204 -0.73212730884552
0.649670422077179 -0.7576120495796204 -0.6022253632545471
0.649670422077179 -0.7576120495796204 -0.47232338786125183
0.649670422077179 -0.7576120495796204 -0.34242144227027893
0.649670422077179 -0.7576120495796204 -0.21251946687698364
0.649670422077179 -0.7576120495796204 -0.08261751383543015
0.649670422077179 -0.7576120495796204 0.04728444293141365
0.649670422077179 -0.7576120495796204 0.17718639969825745
0.649670422077179 -0.7576120495796204 0.30708834528923035
0.649670422077179 -0.7576120495796204 0.43699032068252563
0.649670422077179 -0.7576120495796204 0.5668922662734985
0.649670422077179 -0.7576120495796204 0.6967942118644714
0.649670422077179 -0.7576119899749756 0.8266962170600891
0.649670422077179 -0.7576119899749756 0.956598162651062
0.7891639471054077 -0.61086505651474 -0.9919312000274658
0.7891639471054077 -0.6108649969100952 -0.8620292544364929
0.7891638875007629 -0.6108649969100952 -0.73212730884552
0.7891638875007629 -0.6108649969100952 -0.6022253632545471
0.7891638875007629 -0.6108649969100952 -0.47232338786125183
0.7891638875007629 -0.6108649969100952 -0.34242144227027893
0.7891638875007629 -0.6108649969100952 -0.21251946687698364
0.7891638875007629 -0.6108649969100952 -0.08261751383543015
0.7891638875007629 -0.6108649969100952 0.04728444293141365
0.7891638875007629 -0.6108649969100952 0.17718639969825745
0.7891638875007629 -0.6108649969100952 0.30708834528923035
0.7891638875007629 -0.6108649969100952 0.43699032068252563
0.7891638875007629 -0.6108649969100952 0.5668922662734985
0.7891638875007629 -0.6108649969100952 0.6967942118644714
0.7891638875007629 -0.6108649373054504 0.8266962170600891
0.7891638875007629 -0.6108649373054504 0.956598162651062
0.896261990070343 -0.4390420615673065 -0.9919312000274658
0.896261990070343 -0.4390420615673065 -0.8620292544364929
0.896261990070343 -0.4390420615673065 -0.73212730884552
0.896261990070343 -0.4390420615673065 -0.6022253632545471
0.896261990070343 -0.4390420615673065 -0.47232338786125183
0.896261990070343 -0.43904203176498413 -0.34242144227027893
0.896261990070343 -0.43904203176498413 -0.21251948177814484
0.896261990070343 -0.43904203176498413 -0.08261752128601074
0.896261990070343 -0.43904203176498413 0.04728443920612335
0.896261990070343 -0.43904203176498413 0.17718639969825745
0.8962619304656982 -0.43904203176498413 0.30708834528923035
0.8962619304656982 -0.43904203176498413 0.43699032068252563
0.8962619304656982 -0.43904200196266174 0.5668922662734985
0.8962619304656982 -0.43904200196266174 0.6967942118644714
0.8962619304656982 -0.43904200196266174 0.8266961574554443
0.8962619304656982 -0.43904200196266174 0.956598162651062
0.9665800333023071 -0.24917764961719513 -0.9919312000274658
0.9665800333023071 -0.24917764961719513 -0.8620292544364929
0.9665800333023071 -0.24917763471603394 -0.73212730884552
0.9665800333023071 -0.24917763471603394 -0.6022253632545471
0.9665800333023071 -0.24917763471603394 -0.47232338786125183
0.9665800333023071 -0.24917763471603394 -0.34242144227027893
0.9665800333023071 -0.24917761981487274 -0.21251948177814484
0.9665800333023071 -0.24917761981487274 -0.08261752128601074
0.9665800333023071 -0.24917761981487274 0.047284435480833054
0.9665800333023071 -0.24917760491371155 0.17718638479709625
0.9665800333023071 -0.24917760491371155 0.30708834528923035
0.9665800333023071 -0.24917760491371155 0.43699032068252563
0.9665800333023071 -0.24917759001255035 0.5668922662734985
0.9665800333023071 -0.24917759001255035 0.6967942118644714
0.9665800333023071 -0.24917759001255035 0.8266961574554443
0.9665799736976624 -0.24917757511138916 0.956598162651062
0.9972392916679382 -0.04904484748840332 -0.9919312596321106
0.9972392916679382 -0.04904484376311302 -0.8620292544364929
0.9972392916679382 -0.049044836312532425 -0.73212730884552
0.9972392320632935 -0.049044832587242126 -0.6022253632545471
0.9972392320632935 -0.04904482886195183 -0.47232338786125183
0.9972392320632935 -0.04904482513666153 -0.34242144227027893
0.9972392320632935 -0.04904482141137123 -0.21251948177814484
0.9972392320632935 -0.049044813960790634 -0.08261752873659134
0.9972392320632935 -0.049044810235500336 0.04728442803025246
0.9972392320632935 -0.04904480651021004 0.17718638479709625
0.9972392320632935 -0.04904480278491974 0.30708834528923035
0.9972392320632935 -0.04904479905962944 0.43699029088020325
0.9972392320632935 -0.04904479160904884 0.5668922662734985
0.9972392320632935 -0.049044787883758545 0.6967942118644714
0.9972392320632935 -0.049044784158468246 0.8266961574554443
0.9972392320632935 -0.04904478043317795 0.9565981030464172
0.9869844317436218 0.153162881731987 -0.9919312596321106
0.9869844317436218 0.153162881731987 -0.8620292544364929
0.9869844317436218 0.1531628966331482 -0.73212730884552
0.9869844317436218 0.1531628966331482 -0.6022253632545471
0.9869844317436218 0.1531628966331482 -0.4723234176635742
0.9869844317436218 0.1531628966331482 -0.34242144227027893
0.9869844317436218 0.1531629115343094 -0.21251949667930603
0.9869844317436218 0.1531629115343094 -0.08261753618717194
0.9869844317436218 0.1531629115343094 0.04728442057967186
0.9869844317436218 0.15316292643547058 0.17718638479709625
0.9869844317436218 0.15316292643547058 0.30708834528923035
0.9869844317436218 0.15316292643547058 0.43699029088020325
0.9869844317436218 0.15316294133663177 0.5668922662734985
0.9869844317436218 0.15316294133663177 0.6967942118644714
0.9869844317436218 0.15316294133663177 0.8266961574554443
0.9869844317436218 0.15316295623779297 0.9565981030464172
0.9362354278564453 0.349167138338089 -0.9919312596321106
0.9362354278564453 0.349167138338089 -0.8620293140411377
0.9362354278564453 0.349167138338089 -0.73212730884552
0.9362354278564453 0.349167138338089 -0.6022253632545471
0.9362354278564453 0.349167138338089 -0.4723234176635742
0.9362354278564453 0.349167138338089 -0.3424214720726013
0.9362354278564453 0.349167138338089 -0.21251949667930603
0.9362354278564453 0.3491671681404114 -0.08261754363775253
0.9362354278564453 0.3491671681404114 0.04728441312909126
0.9362354278564453 0.3491671681404114 0.17718636989593506
0.9362354278564453 0.3491671681404114 0.30708831548690796
0.9362354278564453 0.3491671681404114 0.43699029088020325
0.9362354278564453 0.3491671681404114 0.5668922662734985
0.9362353682518005 0.34916719794273376 0.6967942118644714
0.9362353682518005 0.34916719794273376 0.8266961574554443
0.9362353682518005 0.34916719794273376 0.9565981030464172
0.8470699191093445 0.5309434533119202 -0.9919312596321106
0.8470699191093445 0.5309434533119202 -0.8620293140411377
0.8470698595046997 0.5309434533119202 -0.7321273684501648
0.8470698595046997 0.5309434533119202 -0.6022253632545471
0.8470698595046997 0.5309434533119202 -0.4723234176635742
0.8470698595046997 0.5309434533119202 -0.3424214720726013
0.8470698595046997 0.5309434533119202 -0.21251951158046722
0.8470698595046997 0.5309434533119202 -0.08261755108833313
0.8470698595046997 0.5309435129165649 0.047284405678510666
0.8470698595046997 0.5309435129165649 0.17718635499477386
0.8470698595046997 0.5309435129165649 0.30708831548690796
0.8470698595046997 0.5309435129165649 0.43699029088020325
0.8470698595046997 0.5309435129165649 0.5668922066688538
0.8470698595046997 0.5309435129165649 0.6967942118644714
0.8470698595046997 0.5309435129165649 0.8266961574554443
0.8470698595046997 0.5309435129165649 0.9565981030464172
0.7231382727622986 0.6910499334335327 -0.9919312596321106
0.7231382727622986 0.6910499334335327 -0.8620293140411377
0.7231382727622986 0.6910499334335327 -0.7321273684501648
0.7231382727622986 0.6910499334335327 -0.6022253632545471
0.7231382727622986 0.6910499334335327 -0.4723234474658966
0.7231382727622986 0.6910499334335327 -0.3424214720726013
0.7231382727622986 0.6910499334335327 -0.21251952648162842
0.7231382727622986 0.6910499334335327 -0.08261755853891373
0.7231382131576538 0.6910499334335327 0.04728439450263977
0.7231382131576538 0.6910499334335327 0.17718635499477386
0.7231382131576538 0.6910499334335327 0.30708831548690796
0.7231382131576538 0.6910499334335327 0.43699026107788086
0.7231382131576538 0.6910499930381775 0.5668922066688538
0.7231382131576538 0.6910499930381775 0.6967942118644714
0.7231382131576538 0.6910499930381775 0.8266961574554443
0.7231382131576538 0.6910499930381775 0.9565981030464172
0.5695143342018127 0.822931706905365 -0.9919312596321106
0.5695143342018127 0.822931706905365 -0.8620293140411377
0.5695143342018127 0.8229317665100098 -0.7321273684501648
0.5695143342018127 0.8229317665100098 -0.6022254228591919
0.5695143342018127 0.8229317665100098 -0.4723234474658966
0.5695143342018127 0.8229317665100098 -0.3424214720726013
0.5695143342018127 0.8229317665100098 -0.21251952648162842
0.5695143342018127 0.8229317665100098 -0.08261757344007492
0.5695143342018127 0.8229317665100098 0.047284387052059174
0.5695143342018127 0.8229317665100098 0.17718634009361267
0.569514274597168 0.8229317665100098 0.30708831548690796
0.569514274597168 0.8229317665100098 0.43699026107788086
0.569514274597168 0.8229317665100098 0.5668922066688538
0.569514274597168 0.8229317665100098 0.6967941522598267
0.569514274597168 0.8229317665100098 0.8266961574554443
0.569514274597168 0.8229318261146545 0.9565981030464172
0.392487496137619 0.9211896657943726 -0.9919312596321106
0.39248746633529663 0.9211896657943726 -0.8620293140411377
0.39248746633529663 0.9211896657943726 -0.7321273684501648
0.39248746633529663 0.9211896657943726 -0.6022254228591919
0.39248746633529663 0.9211896657943726 -0.4723234474658966
0.39248746633529663 0.9211896657943726 -0.3424215018749237
0.39248746633529663 0.9211896657943726 -0.2125195413827896
0.39248746633529663 0.9211896657943726 -0.08261758089065552
0.39248746633529663 0.9211896657943726 0.04728437960147858
0.39248746633529663 0.9211896657943726 0.17718634009361267
0.39248743653297424 0.9211897253990173 0.30708828568458557
0.39248743653297424 0.9211897253990173 0.43699026107788086
0.39248743653297424 0.9211897253990173 0.5668922066688538
0.39248743653297424 0.9211897253990173 0.6967941522598267
0.39248743653297424 0.9211897253990173 0.8266960978507996
0.39248743653297424 0.9211897253990173 0.9565981030464172
0.1993052065372467 0.9818009734153748 -0.9919312596321106
0.1993052065372467 0.9818009734153748 -0.8620293140411377
0.1993051916360855 0.9818009734153748 -0.7321273684501648
0.1993051916360855 0.9818009734153748 -0.6022254228591919
0.1993051916360855 0.9818009734153748 -0.4723234474658966
0.1993051916360855 0.9818010330200195 -0.3424215018749237
0.19930517673492432 0.9818010330200195 -0.2125195413827896
0.19930517673492432 0.9818010330200195 -0.08261758834123611
0.19930517673492432 0.9818010330200195 0.04728437215089798
0.19930517673492432 0.9818010330200195 0.17718632519245148
0.19930517673492432 0.9818010330200195 0.30708828568458557
0.19930516183376312 0.9818010330200195 0.43699023127555847
0.19930516183376312 0.9818010330200195 0.5668922066688538
0.19930516183376312 0.9818010330200195 0.6967941522598267
0.19930516183376312 0.9818010330200195 0.8266960978507996
0.19930514693260193 0.9818010330200195 0.9565981030464172
-0.002123594284057617 1.002284288406372 -0.9919313192367554
-0.002123597776517272 1.002284288406372 -0.8620293140411377
-0.002123601036146283 1.002284288406372 -0.7321273684501648
-0.002123604528605938 1.002284288406372 -0.6022254228591919
-0.0021236080210655928 1.002284288406372 -0.472323477268219
-0.002123611280694604 1.002284288406372 -0.3424215018749237
-0.0021236147731542587 1.002284288406372 -0.2125195562839508
-0.0021236182656139135 1.002284288406372 -0.08261758834123611
-0.0021236215252429247 1.002284288406372 0.04728436470031738
-0.0021236250177025795 1.002284288406372 0.17718632519245148
-0.0021236285101622343 1.002284288406372 0.30708828568458557
-0.0021236317697912455 1.002284288406372 0.43699023127555847
-0.0021236352622509003 1.002284288406372 0.5668922066688538
-0.0021236385218799114 1.002284288406372 0.6967941522598267
-0.0021236420143395662 1.0022844076156616 0.8266960978507996
-0.002123645506799221 1.0022844076156616 0.9565980434417725
