ply
format ascii 1.0
element vertex 512
property float x
property float y
property float z
end_header
0.02003335952758789 1.0078600645065308 -0.8972159028053284
0.01990065909922123 1.0082179307937622 -0.7697271108627319
0.01976795867085457 1.008575677871704 -0.6422383189201355
0.019635258242487907 1.0089335441589355 -0.5147495865821838
0.019502555951476097 1.009291410446167 -0.387260764837265
0.019369855523109436 1.0096491575241089 -0.25977200269699097
0.019237155094742775 1.0100070238113403 -0.13228321075439453
0.019104454666376114 1.0103648900985718 -0.004794436506927013
0.018971754238009453 1.0107226371765137 0.12269434332847595
0.018839053809642792 1.0110805034637451 0.2501831352710724
0.01870635338127613 1.0114383697509766 0.37767189741134644
0.01857365109026432 1.011796236038208 0.5051606893539429
0.01844095066189766 1.01215398311615 0.6326494812965393
0.018308250233530998 1.0125118494033813 0.7601382732391357
0.018175549805164337 1.0128697156906128 0.8876270055770874
0.018042849376797676 1.0132274627685547 1.0151158571243286
-0.18184462189674377 0.9873305559158325 -0.8973684310913086
-0.181977316737175 0.9876883625984192 -0.7698796391487122
-0.1821100264787674 0.9880462288856506 -0.6423908472061157
-0.1822427213191986 0.9884040355682373 -0.5149020552635193
-0.18237541615962982 0.988761842250824 -0.38741329312324524
-0.18250812590122223 0.9891197085380554 -0.2599245011806488
-0.18264082074165344 0.9894775152206421 -0.13243572413921356
-0.18277353048324585 0.9898353815078735 -0.004946946166455746
-0.18290622532367706 0.9901931881904602 0.12254183739423752
-0.18303892016410828 0.9905509948730469 0.25003060698509216
-0.18317162990570068 0.9909088611602783 0.3775193989276886
-0.1833043247461319 0.991266667842865 0.5050081610679626
-0.1834370195865631 0.9916245341300964 0.6324969530105591
-0.18356972932815552 0.9919823408126831 0.7599857449531555
-0.18370242416858673 0.9923401474952698 0.887474536895752
-0.18383513391017914 0.9926980137825012 1.0149632692337036
-0.37545767426490784 0.9265837073326111 -0.8973994255065918
-0.37559038400650024 0.9269415140151978 -0.7699106335639954
-0.37572309374809265 0.9272993803024292 -0.6424219012260437
-0.37585580348968506 0.9276571869850159 -0.5149331092834473
-0.3759884834289551 0.9280149936676025 -0.38744431734085083
-0.3761211931705475 0.928372859954834 -0.2599555253982544
-0.3762539029121399 0.9287306666374207 -0.13246674835681915
-0.3763865828514099 0.9290885329246521 -0.004977972246706486
-0.3765192925930023 0.9294463396072388 0.12251080572605133
-0.3766520023345947 0.9298041462898254 0.24999958276748657
-0.37678468227386475 0.9301620125770569 0.377488374710083
-0.37691739201545715 0.9305198192596436 0.5049771666526794
-0.37705010175704956 0.930877685546875 0.6324659585952759
-0.37718281149864197 0.9312354922294617 0.7599546909332275
-0.377315491437912 0.9315932989120483 0.887443482875824
-0.3774482011795044 0.9319511651992798 1.0149322748184204
-0.5528793334960938 0.8281064629554749 -0.8973076939582825
-0.5530120134353638 0.8284643292427063 -0.769818902015686
-0.5531446933746338 0.828822135925293 -0.6423301696777344
-0.5532774329185486 0.8291799426078796 -0.5148413777351379
-0.5534101128578186 0.8295378088951111 -0.3873525857925415
-0.5535427927970886 0.8298956155776978 -0.25986379384994507
-0.5536755323410034 0.8302534818649292 -0.13237503170967102
-0.5538082122802734 0.8306112885475159 -0.004886245355010033
-0.5539408922195435 0.8309690952301025 0.12260253727436066
-0.5540736317634583 0.831326961517334 0.2500913143157959
-0.5542063117027283 0.8316847681999207 0.37758010625839233
-0.5543389916419983 0.8320426344871521 0.5050688982009888
-0.5544717311859131 0.8324004411697388 0.6325576305389404
-0.5546044111251831 0.8327582478523254 0.7600464224815369
-0.5547370910644531 0.8331161141395569 0.8875352144241333
-0.5548698306083679 0.8334739208221436 1.015023946762085
-0.7068458199501038 0.695930540561676 -0.8970969915390015
-0.7069784998893738 0.6962884068489075 -0.769608199596405
-0.7071112394332886 0.6966462135314941 -0.6421194076538086
-0.7072439193725586 0.6970040798187256 -0.5146306157112122
-0.7073765993118286 0.6973618865013123 -0.3871418535709381
-0.7075093388557434 0.6977196931838989 -0.25965309143066406
-0.7076420187950134 0.6980775594711304 -0.13216429948806763
-0.7077746987342834 0.698435366153717 -0.004675520118325949
-0.7079074382781982 0.6987932324409485 0.12281326204538345
-0.7080401182174683 0.6991510391235352 0.2503020465373993
-0.7081727981567383 0.6995088458061218 0.37779080867767334
-0.7083055377006531 0.6998667120933533 0.5052796006202698
-0.7084382176399231 0.7002245187759399 0.6327683925628662
-0.7085708975791931 0.7005823850631714 0.7602571845054626
-0.7087036371231079 0.7009401917457581 0.8877459764480591
-0.7088363170623779 0.7012979984283447 1.0152347087860107
-0.8310537934303284 0.535467267036438 -0.8967759013175964
-0.8311865329742432 0.5358250737190247 -0.769287109375
-0.8313192129135132 0.5361829400062561 -0.6417983174324036
-0.8314518928527832 0.5365407466888428 -0.5143095254898071
-0.831584632396698 0.5368985533714294 -0.3868207633495331
-0.831717312335968 0.5372564196586609 -0.25933197140693665
-0.831849992275238 0.5376142263412476 -0.1318432092666626
-0.8319827318191528 0.537972092628479 -0.004354423843324184
-0.8321154117584229 0.5383298993110657 0.12313435971736908
-0.8322480916976929 0.5386877059936523 0.2506231367588043
-0.8323808312416077 0.5390455722808838 0.37811192870140076
-0.8325135111808777 0.5394033789634705 0.5056006908416748
-0.8326461911201477 0.5397612452507019 0.6330894827842712
-0.8327789306640625 0.5401190519332886 0.7605782747268677
-0.8329116106033325 0.5404768586158752 0.8880670666694641
-0.8330442905426025 0.5408347249031067 1.0155558586120605
-0.9204182028770447 0.35328593850135803 -0.8963575959205627
-0.9205508828163147 0.3536437749862671 -0.7688688039779663
-0.9206835627555847 0.35400158166885376 -0.6413800120353699
-0.9208163022994995 0.3543594181537628 -0.5138912200927734
-0.9209489822387695 0.3547172546386719 -0.3864024579524994
-0.9210816621780396 0.35507509112358093 -0.25891366600990295
-0.9212144017219543 0.35543292760849 -0.1314248889684677
-0.9213470816612244 0.35579073429107666 -0.0039361026138067245
-0.9214797616004944 0.3561485707759857 0.12355268001556396
-0.9216125011444092 0.3565064072608948 0.2510414719581604
-0.9217451810836792 0.35686424374580383 0.37853023409843445
-0.921877920627594 0.3572220504283905 0.5060189962387085
-0.922010600566864 0.35757988691329956 0.6335077881813049
-0.922143280506134 0.3579377233982086 0.7609965801239014
-0.9222760200500488 0.3582955598831177 0.8884853720664978
-0.9224086999893188 0.35865339636802673 1.0159741640090942
-0.9712803959846497 0.1568451225757599 -0.8958591222763062
-0.9714130759239197 0.15720294415950775 -0.7683703899383545
-0.9715457558631897 0.1575607806444168 -0.6408815979957581
-0.9716784954071045 0.15791861712932587 -0.5133928060531616
-0.9718111753463745 0.15827643871307373 -0.3859040141105652
-0.9719438552856445 0.1586342751979828 -0.25841525197029114
-0.9720765948295593 0.15899209678173065 -0.1309264600276947
-0.9722092747688293 0.1593499332666397 -0.0034376815892755985
-0.9723419547080994 0.15970776975154877 0.12405110150575638
-0.9724746942520142 0.16006559133529663 0.2515398859977722
-0.9726073741912842 0.1604234278202057 0.37902864813804626
-0.9727400541305542 0.16078124940395355 0.5065174698829651
-0.972872793674469 0.1611390858888626 0.6340062022209167
-0.973005473613739 0.16149692237377167 0.7614949941635132
-0.973138153553009 0.16185474395751953 0.8889837861061096
-0.9732708930969238 0.1622125804424286 1.016472578048706
-0.9815580248832703 -0.04581286385655403 -0.8953010439872742
-0.9816907644271851 -0.04545503482222557 -0.7678122520446777
-0.9818234443664551 -0.04509720578789711 -0.6403234601020813
-0.9819561839103699 -0.04473937302827835 -0.5128346681594849
-0.9820888638496399 -0.04438154399394989 -0.3853459060192108
-0.9822215437889099 -0.04402371495962143 -0.25785714387893677
-0.9823542833328247 -0.04366588220000267 -0.13036835193634033
-0.9824869632720947 -0.04330805316567421 -0.0028795672114938498
-0.9826196432113647 -0.04295022040605545 0.12460921704769135
-0.9827523827552795 -0.04259239137172699 0.2520979940891266
-0.9828850626945496 -0.04223456233739853 0.379586786031723
-0.9830177426338196 -0.04187672957777977 0.5070755481719971
-0.9831504821777344 -0.04151890054345131 0.6345643401145935
-0.9832831621170044 -0.04116107150912285 0.7620531320571899
-0.9834158420562744 -0.04080323874950409 0.8895419239997864
-0.9835485816001892 -0.04044540971517563 1.0170307159423828
-0.9508304595947266 -0.2463911920785904 -0.8947060704231262
-0.9509631395339966 -0.24603335559368134 -0.7672172784805298
-0.9510958790779114 -0.24567551910877228 -0.6397284865379333
-0.9512285590171814 -0.24531769752502441 -0.5122397541999817
-0.9513612389564514 -0.24495986104011536 -0.38475096225738525
-0.9514939785003662 -0.2446020394563675 -0.2572621703147888
-0.9516266584396362 -0.24424420297145844 -0.12977339327335358
-0.951759397983551 -0.24388638138771057 -0.0022846083156764507
-0.951892077922821 -0.2435285449028015 0.1252041757106781
-0.9520247578620911 -0.24317070841789246 0.25269296765327454
-0.9521574974060059 -0.2428128868341446 0.3801817297935486
-0.9522901773452759 -0.24245505034923553 0.507670521736145
-0.9524228572845459 -0.24209722876548767 0.6351593136787415
-0.9525555968284607 -0.2417393922805786 0.7626481056213379
-0.9526882767677307 -0.24138155579566956 0.8901368379592896
-0.9528209567070007 -0.2410237342119217 1.0176256895065308
-0.8803555965423584 -0.4366781413555145 -0.8940986394882202
-0.8804882764816284 -0.43632030487060547 -0.7666098475456238
-0.8806210160255432 -0.4359624981880188 -0.6391210556030273
-0.8807536959648132 -0.43560466170310974 -0.5116322636604309
-0.8808863759040833 -0.4352468252182007 -0.38414350152015686
-0.881019115447998 -0.4348889887332916 -0.2566547393798828
-0.8811517953872681 -0.43453115224838257 -0.12916594743728638
-0.8812844753265381 -0.4341733455657959 -0.001677162479609251
-0.8814172148704529 -0.43381550908088684 0.1258116215467453
-0.8815498948097229 -0.4334576725959778 0.25330039858818054
-0.8816826343536377 -0.4330998361110687 0.380789190530777
-0.8818153142929077 -0.43274199962615967 0.508277952671051
-0.8819479942321777 -0.432384192943573 0.6357667446136475
-0.8820807337760925 -0.43202635645866394 0.7632555365562439
-0.8822134137153625 -0.4316685199737549 0.8907443284988403
-0.8823460936546326 -0.4313106834888458 1.018233060836792
-0.7730187177658081 -0.6088833808898926 -0.8935035467147827
-0.7731513977050781 -0.6085255146026611 -0.766014814376831
-0.7732840776443481 -0.6081677079200745 -0.6385260224342346
-0.7734168171882629 -0.6078099012374878 -0.5110372304916382
-0.773549497127533 -0.6074520349502563 -0.38354843854904175
-0.7736822366714478 -0.6070942282676697 -0.2560596466064453
-0.7738149166107178 -0.6067363619804382 -0.12857088446617126
-0.7739475965499878 -0.6063785552978516 -0.0010820988100022078
-0.7740803360939026 -0.6060207486152649 0.1264066845178604
-0.7742130160331726 -0.6056628823280334 0.25389546155929565
-0.7743456959724426 -0.6053050756454468 0.3813842535018921
-0.7744784355163574 -0.6049472093582153 0.5088730454444885
-0.7746111154556274 -0.6045894026756287 0.6363617777824402
-0.7747437953948975 -0.604231595993042 0.7638505697250366
-0.7748765349388123 -0.6038737297058105 0.8913393616676331
-0.7750092148780823 -0.6035159230232239 1.0188281536102295
-0.6332141757011414 -0.755956768989563 -0.8929452300071716
-0.6333468556404114 -0.7555989027023315 -0.7654564380645752
-0.6334795355796814 -0.7552410960197449 -0.6379677057266235
-0.6336122751235962 -0.7548832893371582 -0.5104789137840271
-0.6337449550628662 -0.7545254230499268 -0.38299012184143066
-0.633877694606781 -0.7541676163673401 -0.25550132989883423
-0.634010374546051 -0.7538097500801086 -0.128012552857399
-0.634143054485321 -0.753451943397522 -0.0005237791920080781
-0.6342757940292358 -0.7530941367149353 0.1269650012254715
-0.6344084739685059 -0.7527362704277039 0.25445377826690674
-0.6345411539077759 -0.7523784637451172 0.3819425702095032
-0.6346738934516907 -0.7520205974578857 0.5094313621520996
-0.6348065733909607 -0.7516627907752991 0.636920154094696
-0.6349392533302307 -0.7513049840927124 0.7644088864326477
-0.6350719928741455 -0.750947117805481 0.8918976783752441
-0.6352046728134155 -0.7505893111228943 1.0193864107131958
-0.4666655957698822 -0.8718770742416382 -0.8924465179443359
-0.4667983055114746 -0.8715192675590515 -0.7649577260017395
-0.46693098545074463 -0.8711614608764648 -0.6374689936637878
-0.46706369519233704 -0.8708035945892334 -0.5099802017211914
-0.46719640493392944 -0.8704457879066467 -0.38249140977859497
-0.46732908487319946 -0.8700879216194153 -0.25500261783599854
-0.46746179461479187 -0.8697301149368286 -0.1275138407945633
-0.4675945043563843 -0.8693723082542419 -2.506134296709206e-05
-0.4677271842956543 -0.8690144419670105 0.1274637132883072
-0.4678598940372467 -0.8686566352844238 0.25495249032974243
-0.4679926037788391 -0.8682987689971924 0.38244128227233887
-0.4681253135204315 -0.8679409623146057 0.5099300742149353
-0.46825799345970154 -0.867583155632019 0.6374188661575317
-0.46839070320129395 -0.8672252893447876 0.7649075984954834
-0.46852341294288635 -0.8668674826622009 0.8923963904380798
-0.46865609288215637 -0.8665096163749695 1.0198851823806763
-0.2801915109157562 -0.9518986344337463 -0.8920278549194336
-0.28032422065734863 -0.9515407681465149 -0.7645390629768372
-0.28045690059661865 -0.9511829614639282 -0.6370502710342407
-0.28058961033821106 -0.9508250951766968 -0.5095614790916443
-0.28072232007980347 -0.9504672884941101 -0.38207271695137024
-0.2808550000190735 -0.9501094818115234 -0.2545839250087738
-0.2809877097606659 -0.949751615524292 -0.12709514796733856
-0.2811204195022583 -0.9493938088417053 0.0003936372231692076
-0.2812531292438507 -0.9490359425544739 0.12788242101669312
-0.2813858091831207 -0.9486781358718872 0.25537121295928955
-0.28151851892471313 -0.9483203291893005 0.3828599750995636
-0.28165122866630554 -0.9479624629020691 0.5103487372398376
-0.28178390860557556 -0.9476046562194824 0.6378375291824341
-0.28191661834716797 -0.947246789932251 0.7653263211250305
-0.2820493280887604 -0.9468889832496643 0.892815113067627
-0.2821820080280304 -0.9465311765670776 1.0203038454055786
-0.08142618834972382 -0.9927452206611633 -0.8917062878608704
-0.08155888319015503 -0.9923873543739319 -0.7642174959182739
-0.08169158548116684 -0.9920295476913452 -0.6367287039756775
-0.08182428777217865 -0.9916717410087585 -0.5092399716377258
-0.08195699006319046 -0.9913138747215271 -0.3817511796951294
-0.08208969235420227 -0.9909560680389404 -0.25426238775253296
-0.08222238719463348 -0.990598201751709 -0.12677361071109772
-0.0823550894856453 -0.9902403950691223 0.0007151748868636787
-0.0824877917766571 -0.9898825883865356 0.12820395827293396
-0.08262049406766891 -0.9895247220993042 0.2556927502155304
-0.08275318890810013 -0.9891669154167175 0.38318151235580444
-0.08288589119911194 -0.9888090491294861 0.5106703042984009
-0.08301859349012375 -0.9884512424468994 0.6381590962409973
-0.08315129578113556 -0.9880934357643127 0.7656478881835938
-0.08328399807214737 -0.9877355694770813 0.8931366205215454
-0.08341669291257858 -0.9873777627944946 1.0206254720687866
0.1214929074048996 -0.9927446246147156 -0.8914951086044312
0.12136020511388779 -0.9923867583274841 -0.7640063166618347
0.12122750282287598 -0.9920289516448975 -0.6365175247192383
0.12109480053186417 -0.9916711449623108 -0.5090287327766418
0.12096209824085236 -0.9913132786750793 -0.3815399408340454
0.12082940340042114 -0.9909554719924927 -0.25405117869377136
0.12069670110940933 -0.9905976057052612 -0.12656238675117493
0.12056399881839752 -0.9902397990226746 0.0009263879037462175
0.12043129652738571 -0.9898819923400879 0.12841516733169556
0.1202986016869545 -0.9895241260528564 0.255903959274292
0.12016589939594269 -0.9891663193702698 0.38339272141456604
0.12003319710493088 -0.9888084530830383 0.5108814835548401
0.11990049481391907 -0.9884506464004517 0.6383702754974365
0.11976779252290726 -0.988092839717865 0.765859067440033
0.11963509768247604 -0.9877349734306335 0.8933478593826294
0.11950239539146423 -0.9873771667480469 1.020836591720581
0.320258229970932 -0.9518968462944031 -0.8914028406143188
0.3201255202293396 -0.9515390396118164 -0.7639140486717224
0.3199928402900696 -0.951181173324585 -0.636425256729126
0.3198601305484772 -0.9508233666419983 -0.5089365243911743
0.31972742080688477 -0.9504655599594116 -0.3814477026462555
0.31959471106529236 -0.9501076936721802 -0.25395894050598145
0.31946203112602234 -0.9497498869895935 -0.126470148563385
0.31932932138442993 -0.9493920207023621 0.001018629176542163
0.3191966116428375 -0.9490342140197754 0.12850740551948547
0.3190639317035675 -0.9486764073371887 0.2559961974620819
0.3189312219619751 -0.9483185410499573 0.38348495960235596
0.3187985122203827 -0.9479607343673706 0.5109737515449524
0.31866583228111267 -0.9476028680801392 0.6384625434875488
0.31853312253952026 -0.9472450613975525 0.7659513354301453
0.31840041279792786 -0.9468872547149658 0.8934400677680969
0.31826773285865784 -0.9465293884277344 1.0209288597106934
0.5067322850227356 -0.8718742728233337 -0.8914333581924438
0.5065996050834656 -0.8715164065361023 -0.7639445662498474
0.5064669251441956 -0.8711585998535156 -0.636455774307251
0.5063341856002808 -0.8708007335662842 -0.5089669823646545
0.5062015056610107 -0.8704429268836975 -0.3814782202243805
0.5060688257217407 -0.8700851202011108 -0.25398942828178406
0.5059360861778259 -0.8697272539138794 -0.12650065124034882
0.5058034062385559 -0.8693694472312927 0.000988122308626771
0.5056707262992859 -0.8690115809440613 0.12847690284252167
0.5055379867553711 -0.8686537742614746 0.2559656798839569
0.5054053068161011 -0.8682959675788879 0.38345447182655334
0.505272626876831 -0.8679381012916565 0.5109432339668274
0.5051398873329163 -0.8675802946090698 0.6384320259094238
0.5050072073936462 -0.8672224879264832 0.7659208178520203
0.5048745274543762 -0.8668646216392517 0.8934096097946167
0.5047417879104614 -0.866506814956665 1.0208983421325684
0.6732808947563171 -0.7559529542922974 -0.8915853500366211
0.6731481552124023 -0.7555950880050659 -0.7640965580940247
0.6730154752731323 -0.7552372813224792 -0.6366077661514282
0.6728827953338623 -0.7548794150352478 -0.5091190338134766
0.6727500557899475 -0.7545216083526611 -0.38163021206855774
0.6726173758506775 -0.7541638016700745 -0.2541414499282837
0.6724846959114075 -0.753805935382843 -0.12665265798568726
0.6723519563674927 -0.7534481287002563 0.0008361163199879229
0.6722192764282227 -0.7530902624130249 0.12832489609718323
0.6720865964889526 -0.7527324557304382 0.25581368803977966
0.6719538569450378 -0.7523746490478516 0.3833024501800537
0.6718211770057678 -0.7520167827606201 0.5107912421226501
0.6716884970664978 -0.7516589760780334 0.6382800340652466
0.671555757522583 -0.751301109790802 0.765768826007843
0.671423077583313 -0.7509433031082153 0.8932575583457947
0.671290397644043 -0.7505854964256287 1.0207463502883911
0.8130854368209839 -0.6088787317276001 -0.891852617263794
0.8129526972770691 -0.6085209250450134 -0.7643638253211975
0.8128200173377991 -0.608163058757782 -0.6368750929832458
0.812687337398529 -0.6078052520751953 -0.5093863010406494
0.8125545978546143 -0.6074473857879639 -0.381897509098053
0.8124219179153442 -0.6070895791053772 -0.25440871715545654
0.8122892379760742 -0.6067317724227905 -0.1269199401140213
0.8121564984321594 -0.6063739061355591 0.0005688342498615384
0.8120238184928894 -0.6060160994529724 0.12805761396884918
0.8118911385536194 -0.605658233165741 0.2555463910102844
0.8117583990097046 -0.6053004264831543 0.38303518295288086
0.8116257190704346 -0.6049426198005676 0.5105239748954773
0.8114930391311646 -0.6045847535133362 0.6380127668380737
0.8113602995872498 -0.6042269468307495 0.7655014991760254
0.8112276196479797 -0.6038690805435181 0.8929902911186218
0.8110949397087097 -0.6035112738609314 1.0204790830612183
0.9204223155975342 -0.4366728961467743 -0.8922242522239685
0.9202896356582642 -0.43631505966186523 -0.7647354602813721
0.9201568961143494 -0.4359572231769562 -0.6372466683387756
0.9200242161750793 -0.4355993866920471 -0.5097578763961792
0.9198915362358093 -0.43524155020713806 -0.38226911425590515
0.9197587966918945 -0.4348837435245514 -0.2547803521156311
0.9196261167526245 -0.43452590703964233 -0.12729156017303467
0.9194934368133545 -0.4341680705547333 0.00019721873104572296
0.9193606972694397 -0.4338102340698242 0.12768599390983582
0.9192280173301697 -0.43345239758491516 0.25517478585243225
0.9190953373908997 -0.4330945909023285 0.3826635479927063
0.9189625978469849 -0.43273675441741943 0.5101523399353027
0.9188299179077148 -0.4323789179325104 0.6376411318778992
0.9186972379684448 -0.4320210814476013 0.7651299238204956
0.91856449842453 -0.43166324496269226 0.8926186561584473
0.91843181848526 -0.4313054382801056 1.0201075077056885
0.9908971786499023 -0.24638551473617554 -0.8926849961280823
0.9907644987106323 -0.24602767825126648 -0.7651962041854858
0.9906317591667175 -0.24566985666751862 -0.6377074122428894
0.9904990792274475 -0.24531202018260956 -0.510218620300293
0.9903663992881775 -0.2449541985988617 -0.3827298581600189
0.9902336597442627 -0.24459636211395264 -0.2552410662174225
0.9901009798049927 -0.24423852562904358 -0.12775230407714844
0.9899682998657227 -0.24388070404529572 -0.0002635162672959268
0.9898355603218079 -0.24352286756038666 0.12722526490688324
0.9897028803825378 -0.2431650459766388 0.2547140419483185
0.9895702004432678 -0.24280720949172974 0.3822028338909149
0.989437460899353 -0.24244937300682068 0.509691596031189
0.989304780960083 -0.24209155142307281 0.6371803879737854
0.989172101020813 -0.24173371493816376 0.7646691799163818
0.9890393614768982 -0.2413758933544159 0.8921579718589783
0.9889066815376282 -0.24101805686950684 1.0196467638015747
1.0216248035430908 -0.04580701142549515 -0.8932159543037415
1.0214921236038208 -0.04544918239116669 -0.7657272219657898
1.0213593244552612 -0.045091353356838226 -0.6382384300231934
1.0212266445159912 -0.04473352059721947 -0.5107496380805969
1.0210939645767212 -0.044375691562891006 -0.3832608461380005
1.0209612846374512 -0.044017862528562546 -0.25577208399772644
1.0208286046981812 -0.04366002976894379 -0.12828329205513
1.0206959247589111 -0.043302200734615326 -0.0007945082033984363
1.0205631256103516 -0.042944371700286865 0.12669427692890167
1.0204304456710815 -0.042586538940668106 0.2541830539703369
1.0202977657318115 -0.042228709906339645 0.38167184591293335
1.0201650857925415 -0.041870877146720886 0.5091606378555298
1.0200324058532715 -0.041513048112392426 0.6366493701934814
1.019899606704712 -0.041155219078063965 0.7641381621360779
1.019766926765442 -0.040797386318445206 0.8916269540786743
1.0196342468261719 -0.040439557284116745 1.019115686416626
1.0113470554351807 0.1568509191274643 -0.8937954902648926
1.0112143754959106 0.15720874071121216 -0.7663066983222961
1.0110816955566406 0.15756657719612122 -0.6388179063796997
1.0109490156173706 0.15792439877986908 -0.5113291144371033
1.0108163356781006 0.15828223526477814 -0.3838403522968292
1.010683536529541 0.1586400717496872 -0.2563515901565552
1.010550856590271 0.15899789333343506 -0.12886279821395874
1.010418176651001 0.15935572981834412 -0.001374018145725131
1.010285496711731 0.15971355140209198 0.12611475586891174
1.010152816772461 0.16007138788700104 0.2536035478115082
1.010020136833191 0.1604292243719101 0.3810923099517822
1.0098873376846313 0.16078704595565796 0.5085811018943787
1.0097546577453613 0.16114488244056702 0.6360698938369751
1.0096219778060913 0.16150270402431488 0.7635586857795715
1.0094892978668213 0.16186054050922394 0.891047477722168
1.0093566179275513 0.1622183620929718 1.0185362100601196
0.9604849219322205 0.35329142212867737 -0.8943997621536255
0.9603521823883057 0.3536492586135864 -0.7669110298156738
0.9602195024490356 0.3540070950984955 -0.6394222378730774
0.9600868225097656 0.35436490178108215 -0.511933445930481
0.9599540829658508 0.3547227382659912 -0.3844446539878845
0.9598214030265808 0.35508057475090027 -0.2569558918476105
0.9596887230873108 0.3554384112358093 -0.12946709990501404
0.959555983543396 0.3557962477207184 -0.001978321000933647
0.959423303604126 0.35615405440330505 0.12551045417785645
0.959290623664856 0.3565118908882141 0.2529992461204529
0.9591578841209412 0.35686972737312317 0.38048800826072693
0.9590252041816711 0.3572275638580322 0.5079768300056458
0.9588925242424011 0.3575854003429413 0.6354655623435974
0.9587597846984863 0.35794320702552795 0.7629543542861938
0.9586271047592163 0.358301043510437 0.8904431462287903
0.9584943652153015 0.35865887999534607 1.0179319381713867
0.8711205124855042 0.5354722142219543 -0.895004153251648
0.8709878325462341 0.5358300805091858 -0.7675153613090515
0.8708550930023193 0.5361878871917725 -0.6400265693664551
0.8707224130630493 0.5365456938743591 -0.5125377774238586
0.8705897331237793 0.5369035601615906 -0.3850490152835846
0.8704569935798645 0.5372613668441772 -0.25756025314331055
0.8703243136405945 0.5376192331314087 -0.1300714612007141
0.8701916337013245 0.5379770398139954 -0.002582676475867629
0.8700588941574097 0.538334846496582 0.12490610778331757
0.8699262142181396 0.5386927127838135 0.2523948848247528
0.8697935342788696 0.5390505194664001 0.37988367676734924
0.8696607947349548 0.5394083857536316 0.5073724389076233
0.8695281147956848 0.5397661924362183 0.6348612308502197
0.8693954348564148 0.5401239991188049 0.7623500227928162
0.8692626953125 0.5404818654060364 0.8898388147354126
0.86913001537323 0.540839672088623 1.0173275470733643
0.7469125390052795 0.6959348320960999 -0.8955838084220886
0.7467798590660095 0.6962926387786865 -0.7680950164794922
0.7466471195220947 0.6966504454612732 -0.6406062245368958
0.7465144395828247 0.6970083117485046 -0.5131174921989441
0.7463817596435547 0.6973661184310913 -0.38562867045402527
0.7462490200996399 0.6977239847183228 -0.2581399083137512
0.7461163401603699 0.6980817914009094 -0.13065111637115479
0.7459836006164551 0.6984395980834961 -0.0031623421236872673
0.7458509206771851 0.6987974643707275 0.1243264377117157
0.745718240737915 0.6991552710533142 0.25181522965431213
0.7455855011940002 0.6995131373405457 0.3793039917945862
0.7454528212547302 0.6998709440231323 0.5067927837371826
0.7453201413154602 0.700228750705719 0.634281575679779
0.7451874017715454 0.7005866169929504 0.7617703676223755
0.7450547218322754 0.7009444236755371 0.8892590999603271
0.7449220418930054 0.7013022899627686 1.0167479515075684
0.5929460525512695 0.8281098008155823 -0.8961150646209717
0.5928133130073547 0.8284676671028137 -0.7686262726783752
0.5926806330680847 0.8288254737854004 -0.6411374807357788
0.5925479531288147 0.8291833400726318 -0.5136486887931824
0.5924152135848999 0.8295411467552185 -0.3861599266529083
0.5922825336456299 0.8298989534378052 -0.2586711347103119
0.5921497941017151 0.8302568197250366 -0.13118237257003784
0.5920171141624451 0.8306146264076233 -0.0036935866810381413
0.591884434223175 0.8309724926948547 0.12379519641399384
0.5917516946792603 0.8313302993774414 0.2512839734554291
0.5916190147399902 0.8316881060600281 0.3787727653980255
0.5914863348007202 0.8320459723472595 0.5062615275382996
0.5913535952568054 0.8324037790298462 0.633750319480896
0.5912209153175354 0.8327616453170776 0.7612391114234924
0.5910882353782654 0.8331194519996643 0.8887279033660889
0.5909554958343506 0.833477258682251 1.0162166357040405
0.4155243933200836 0.9265860319137573 -0.8965761065483093
0.4153917133808136 0.926943838596344 -0.7690873742103577
0.4152590036392212 0.9273016452789307 -0.6415985822677612
0.4151262938976288 0.9276595115661621 -0.5141097903251648
0.41499361395835876 0.9280173182487488 -0.38662099838256836
0.41486090421676636 0.9283751845359802 -0.2591322362422943
0.41472819447517395 0.9287329912185669 -0.13164344429969788
0.41459551453590393 0.9290907979011536 -0.004154660273343325
0.4144628047943115 0.929448664188385 0.1233341172337532
0.4143300950527191 0.9298064708709717 0.25082290172576904
0.4141974151134491 0.9301642775535583 0.3783116936683655
0.4140647053718567 0.9305221438407898 0.5058004856109619
0.4139319956302643 0.9308799505233765 0.6332892179489136
0.4137992858886719 0.9312378168106079 0.76077800989151
0.41366660594940186 0.9315956234931946 0.8882668018341064
0.41353389620780945 0.9319534301757812 1.015755534172058
0.22191134095191956 0.987331748008728 -0.8969481587409973
0.22177863121032715 0.9876895546913147 -0.7694593667984009
0.22164593636989594 0.9880473613739014 -0.6419705748558044
0.22151324152946472 0.9884052276611328 -0.514481782913208
0.22138053178787231 0.9887630343437195 -0.38699302077293396
0.2212478369474411 0.9891209006309509 -0.2595042586326599
0.2211151272058487 0.9894787073135376 -0.13201546669006348
0.22098243236541748 0.9898365139961243 -0.004526687320321798
0.22084973752498627 0.9901943802833557 0.1229620948433876
0.22071702778339386 0.9905521869659424 0.25045087933540344
0.22058433294296265 0.9909100532531738 0.3779396414756775
0.22045162320137024 0.9912678599357605 0.5054284334182739
0.22031892836093903 0.9916256666183472 0.6329172253608704
0.2201862335205078 0.9919835329055786 0.7604060173034668
0.2200535237789154 0.9923413395881653 0.8878948092460632
0.2199208289384842 0.9926992058753967 1.0153836011886597
0.02003335952758789 1.0078600645065308 -0.8972159028053284
0.01990065909922123 1.0082179307937622 -0.7697271108627319
0.01976795867085457 1.008575677871704 -0.6422383189201355
0.019635258242487907 1.0089335441589355 -0.5147495865821838
0.019502555951476097 1.009291410446167 -0.387260764837265
0.019369855523109436 1.0096491575241089 -0.25977200269699097
0.019237155094742775 1.0100070238113403 -0.13228321075439453
0.019104454666376114 1.0103648900985718 -0.004794436506927013
0.018971754238009453 1.0107226371765137 0.12269434332847595
0.018839053809642792 1.0110805034637451 0.2501831352710724
0.01870635338127613 1.0114383697509766 0.37767189741134644
0.01857365109026432 1.011796236038208 0.5051606893539429
0.01844095066189766 1.01215398311615 0.6326494812965393
0.018308250233530998 1.0125118494033813 0.7601382732391357
0.018175549805164337 1.0128697156906128 0.8876270055770874
0.018042849376797676 1.0132274627685547 1.0151158571243286
