ply
format ascii 1.0
element vertex 1500
property float x
property float y
property float z
end_header
0.02456391416490078 0.0013424158096313477 0.9989883899688721
-0.03431486338376999 -0.02890673093497753 0.9983206987380981
0.003758685663342476 0.05892350152134895 0.9976530075073242
0.04031112417578697 -0.05292505398392677 0.9969853162765503
-0.07763385027647018 0.014845731668174267 0.9963176250457764
0.07100827246904373 0.0473356693983078 0.9956498146057129
-0.025474634021520615 -0.0886056199669838 0.994982123374939
-0.04740072414278984 0.0901167020201683 0.994314432144165
0.09872011840343475 -0.03518284484744072 0.9936466217041016
-0.10532612353563309 -0.04160023108124733 0.9929789304733276
0.04884688928723335 0.10849214345216751 0.9923112392425537
0.03575245290994644 -0.11676984280347824 0.9916435480117798
-0.11293669044971466 0.06604121625423431 0.9909757375717163
0.12965206801891327 0.030130703002214432 0.9903080463409424
-0.08119615167379379 -0.11230912804603577 0.9896403551101685
-0.019750718027353287 0.14376598596572876 0.9889726638793945
0.11198793351650238 -0.09413233399391174 0.988304853439331
-0.15371213853359222 -0.004960522521287203 0.9876371622085571
0.10986343026161194 0.11195962876081467 0.9869694709777832
-0.008730396628379822 -0.15946067869663239 0.9863017797470093
-0.1070265993475914 0.12804453074932098 0.9856339693069458
0.16616810858249664 -0.02118947170674801 0.9849662780761719
-0.1431618332862854 -0.09736502170562744 0.984298586845398
0.03746500983834267 0.17363335192203522 0.9836307764053345
0.08833947777748108 -0.15508122742176056 0.9829630851745605
-0.17649158835411072 0.0572349913418293 0.9822953939437866
0.1688581109046936 0.07995734363794327 0.9816277027130127
-0.07499679923057556 -0.17476490139961243 0.9809598922729492
-0.06706113368272781 0.18418976664543152 0.9802922010421753
0.17367315292358398 -0.09061580151319504 0.9796245098114014
-0.19560731947422028 -0.04987775906920433 0.9789568185806274
0.10913528501987457 0.17308646440505981 0.978289008140564
0.03382779285311699 -0.20302549004554749 0.97762131690979
-0.1677166223526001 0.1302288919687271 0.9769536256790161
0.21155323088169098 0.01897643506526947 0.9762859344482422
-0.14839273691177368 -0.15766622126102448 0.9756181240081787
-0.00022343057207763195 0.2209463268518448 0.9749504327774048
0.14823798835277557 -0.16349557042121887 0.9742827415466309
-0.22579938173294067 0.022149456664919853 0.9736149311065674
0.1805897355079651 0.13938623666763306 0.9729472398757935
-0.042670514434576035 -0.22609548270702362 0.9722795486450195
-0.1259073168039322 0.19936427474021912 0.9716118574142456
0.227016419172287 -0.06122820824384689 0.9709440469741821
-0.2143375128507614 -0.10798761993646622 0.9702763557434082
0.0828821063041687 0.2283949851989746 0.9696086645126343
0.09101224690675735 -0.22540737688541412 0.9689409732818604
-0.22490635514259338 0.10731613636016846 0.9682731628417969
0.2376624196767807 0.07501546293497086 0.967605471611023
-0.1290311962366104 -0.21661721169948578 0.966937780380249
-0.054870396852493286 0.25083494186401367 0.9662700891494751
0.20879530906677246 -0.1478957086801529 0.9656022787094116
-0.25949323177337646 -0.03083636239171028 0.9649345874786377
0.16895698010921478 0.20136111974716187 0.9642668962478638
0.008366738446056843 -0.2635917067527771 0.9635990858078003
-0.1890784054994583 0.19189459085464478 0.9629313945770264
0.2682815492153168 -0.012441200204193592 0.9622637033462524
-0.21121323108673096 -0.172102689743042 0.9615960121154785
0.03665721416473389 0.273363322019577 0.960928201675415
0.1557900756597519 -0.2267933338880539 0.9602605104446411
-0.27347874641418457 0.06397131830453873 0.9595928192138672
0.24370238184928894 0.14014798402786255 0.9589251279830933
-0.08888642489910126 -0.2686602473258972 0.9582573175430298
-0.1200251430273056 0.2616482079029083 0.9575896263122559
0.26414090394973755 -0.11126893013715744 0.9569219350814819
-0.2751716673374176 -0.09565918147563934 0.956254243850708
0.13616004586219788 0.25980648398399353 0.9555864334106445
0.07248472422361374 -0.284197062253952 0.9549187421798706
-0.25038641691207886 0.16322927176952362 0.9542510509490967
0.29384297132492065 0.050583504140377045 0.9535832405090332
-0.1869673728942871 -0.236002579331398 0.9529155492782593
-0.024873578920960426 0.3038753271102905 0.9522478580474854
0.22197861969470978 -0.20723702013492584 0.9515801668167114
-0.30889955163002014 0.004343686159700155 0.950912356376648
0.2290842980146408 0.2082909643650055 0.950244665145874
-0.03157610446214676 -0.30891039967536926 0.9495769739151001
-0.18975922465324402 0.2521921694278717 0.9489092826843262
0.3091023564338684 -0.05669113248586655 0.9482414722442627
-0.27107328176498413 -0.16659411787986755 0.9475737810134888
0.08472712337970734 0.30932196974754333 0.9469060897827148
0.14420586824417114 -0.2856207489967346 0.9462383985519409
-0.3042592704296112 0.11534678936004639 0.9455705881118774
0.3009190857410431 0.12265462428331375 0.9449028968811035
-0.143030047416687 -0.29399701952934265 0.9442352056503296
-0.0968400090932846 0.3166976571083069 0.9435673952102661
0.2838202714920044 -0.1676248013973236 0.9428997039794922
-0.3275231122970581 -0.06704830378293991 0.9422320127487183
0.1941583901643753 0.27366796135902405 0.9415643215179443
0.038760192692279816 -0.3333495557308197 0.9408965110778809
-0.2583235502243042 0.2222912609577179 0.9402288198471069
0.33932921290397644 0.01210051029920578 0.939561128616333
-0.2465098798274994 -0.23796334862709045 0.9388934373855591
0.017972849309444427 0.3452652096748352 0.9382256269454956
0.21796537935733795 -0.26667746901512146 0.9375579357147217
-0.345803439617157 0.051122263073921204 0.9368902444839478
0.2878454923629761 0.19836007058620453 0.9362225532531738
-0.08182316273450851 -0.3409820795059204 0.9355547428131104
-0.17402012646198273 0.3097071051597595 0.9348870515823364
0.33604153990745544 -0.10991472005844116 0.9342193603515625
-0.3267897963523865 -0.14520809054374695 0.933551549911499
0.14041133224964142 0.33087655901908875 0.9328838586807251
0.11738429963588715 -0.3390060067176819 0.9322161674499512
-0.3202272653579712 0.17295622825622559 0.9315484762191772
0.35146406292915344 0.09065696597099304 0.9308806657791138
-0.2020145207643509 -0.3042277693748474 0.9302129745483398
-0.059971246868371964 0.36392131447792053 0.9295452833175659
0.28821563720703125 -0.2274240255355835 0.928877592086792
-0.3709762990474701 -0.02565617486834526 0.9282097816467285
0.2542068660259247 0.2721827030181885 0.9275420904159546
-0.006768000777810812 -0.37261858582496643 0.9268743991851807
-0.25096559524536133 0.28202301263809204 0.9262067079544067
0.3740393817424774 -0.037140361964702606 0.9255388975143433
-0.30536338686943054 -0.22479350864887238 0.9248712062835693
0.07047070562839508 0.3750838041305542 0.9242035150527954
0.19909651577472687 -0.32410043478012085 0.9235357046127319
-0.37044233083724976 0.10639310628175735 0.922868013381958
0.3432994782924652 0.1739560067653656 0.9222003221511841
-0.13935895264148712 -0.3602001368999481 0.9215326309204102
-0.14429405331611633 0.3626721501350403 0.9208648204803467
0.34964650869369507 -0.16918781399726868 0.9201971292495728
-0.3767688274383545 -0.1104205921292305 0.9195294380187988
0.2008790373802185 0.33872660994529724 0.9188617467880249
0.07784101366996765 -0.3855290412902832 0.9181939363479614
-0.3222319781780243 0.23406551778316498 0.9175262451171875
0.3940921723842621 0.046705812215805054 0.9168585538864136
-0.26320680975914 -0.3003489673137665 0.9161908626556396
-0.011999391950666904 0.4022503197193146 0.9155230522155762
0.27846744656562805 -0.2881399989128113 0.9148553609848022
-0.4046401381492615 0.02591339685022831 0.9141876697540283
0.31389120221138 0.256631463766098 0.9135198593139648
-0.06148015707731247 -0.4012925624847412 0.9128521680831909
-0.22972914576530457 0.3401293158531189 0.912184476852417
0.3974427282810211 -0.09451178461313248 0.9115167856216431
-0.3613586723804474 -0.1980401575565338 0.9108489751815796
0.12999404966831207 0.3929821252822876 0.9101812839508057
0.167043536901474 -0.37746983766555786 0.9095135927200317
-0.38264963030815125 0.16754142940044403 0.9088459014892578
0.3935506045818329 0.1368677318096161 0.9081780910491943
-0.2015901803970337 -0.3665802478790283 0.9075103998184204
-0.10247962176799774 0.4093393385410309 0.9068427085876465
0.3501144051551819 -0.23194944858551025 0.9061750173568726
-0.4194170832633972 -0.06423123925924301 0.9055072069168091
0.26361286640167236 0.333249032497406 0.9048395156860352
0.0276670940220356 -0.42375779151916504 0.9041718244552612
-0.31082776188850403 0.29621243476867676 0.9035040140151978
0.4275387227535248 -0.007026553153991699 0.9028363227844238
-0.32421156764030457 -0.2830888628959656 0.9021686315536499
0.044833164662122726 0.43059295415878296 0.901500940322876
0.25547361373901367 -0.3474559783935547 0.9008331298828125
-0.4276009500026703 0.08535966277122498 0.9001654386520386
0.37098512053489685 0.22807636857032776 0.8994977474212646
-0.12302955240011215 -0.41863974928855896 0.8988300561904907
-0.195834219455719 0.3944857716560364 0.8981622457504272
0.4089927673339844 -0.15763399004936218 0.8974945545196533
-0.4124845564365387 -0.1590738445520401 0.8968268632888794
0.19414350390434265 0.3986012637615204 0.8961591720581055
0.12331918627023697 -0.424898624420166 0.895491361618042
-0.3822551369667053 0.2321619689464569 0.8948236703872681
0.4368463158607483 0.08874090015888214 0.8941559791564941
-0.26611974835395813 -0.36014124751091003 0.8934881687164307
-0.05034511536359787 0.4481002688407898 0.8928204774856567
0.33765214681625366 -0.29582491517066956 0.8921527862548828
-0.45327940583229065 -0.008519829250872135 0.8914850950241089
0.3262747526168823 0.3148368000984192 0.8908172845840454
-0.03115808591246605 -0.4523985981941223 0.8901495933532715
-0.2865903973579407 0.35710978507995605 0.8894819021224976
0.45067888498306274 -0.06847388297319412 0.8888142108917236
-0.38280653953552246 -0.25320178270339966 0.8881464004516602
0.10838666558265686 0.44799959659576416 0.8874787092208862
0.2201613485813141 -0.4032284915447235 0.8868110179901123
-0.43908950686454773 0.15048331022262573 0.8861433267593384
0.42343729734420776 0.187610924243927 0.8854755163192749
-0.18917177617549896 -0.4240756630897522 0.884807825088501
-0.15053272247314453 0.44314613938331604 0.884140133857727
0.408292680978775 -0.22423231601715088 0.8834723234176636
-0.4569122791290283 -0.10929607599973679 0.8828046321868896
0.2606292963027954 0.39173394441604614 0.8821369409561157
0.06946456432342529 -0.4646870493888855 0.8814692497253418
-0.36924177408218384 0.2979651689529419 0.8808014392852783
0.47162675857543945 0.031245270743966103 0.8801337480545044
-0.33067378401756287 -0.3410554528236389 0.8794660568237305
0.010322860442101955 0.4775450527667999 0.8787983655929565
0.31261950731277466 -0.3585713505744934 0.8781305551528931
-0.4771047830581665 0.05482286214828491 0.8774628639221191
0.38666820526123047 0.28403395414352417 0.8767951726913452
-0.09665302187204361 -0.4703672528266907 0.8761274814605713
-0.2502436339855194 0.41462230682373047 0.8754596710205078
0.4626021385192871 -0.13557805120944977 0.8747919797897339
-0.4369323253631592 -0.21158534288406372 0.87412428855896
0.1765410304069519 0.4537390470504761 0.8734564781188965
0.17359526455402374 -0.4534880816936493 0.8727887868881226
-0.43855834007263184 0.2191174477338791 0.8721210956573486
0.469381719827652 0.13645845651626587 0.8714534044265747
-0.25770866870880127 -0.41723960638046265 0.8707855939865112
-0.09519745409488678 0.48436081409454346 0.8701179027557373
0.3951704800128937 -0.29209306836128235 0.8694502115249634
-0.4930204749107361 -0.05021865293383598 0.8687825202941895
0.3272381126880646 0.3723972737789154 0.868114709854126
0.007119158282876015 -0.4953532814979553 0.867447018623352
-0.343814879655838 0.36275404691696167 0.8667793273925781
0.49655967950820923 -0.033864304423332214 0.8661116361618042
-0.39308735728263855 -0.30971431732177734 0.8654438257217407
0.0776672437787056 0.49650004506111145 0.8647761344909668
0.2755905091762543 -0.41807156801223755 0.8641084432601929
-0.48988616466522217 0.123851478099823 0.8634406328201294
0.4427388310432434 0.24159209430217743 0.8627729415893555
-0.16679859161376953 -0.4768300950527191 0.8621052503585815
-0.20271055400371552 0.4667734205722809 0.8614375591278076
0.46265357732772827 -0.2062612622976303 0.8607697486877441
-0.4847043454647064 -0.1593267321586609 0.8601020574569702
0.24717532098293304 0.44733932614326477 0.8594343662261963
0.11701797693967819 -0.49645575881004333 0.8587666749954224
-0.42572131752967834 0.289113849401474 0.8580988645553589
0.5071578025817871 0.07600728422403336 0.857431173324585
-0.3264806866645813 -0.3980328142642975 0.856763482093811
-0.03135159611701965 0.5165994167327881 0.8560957908630371
0.36971473693847656 -0.3590615689754486 0.8554279804229736
-0.5194200873374939 0.01651216298341751 0.8547602891921997
0.39183610677719116 0.3408659100532532 0.8540925979614258
-0.061960458755493164 -0.5156594514846802 0.8534247875213623
-0.3064325749874115 0.42443156242370605 0.8527570962905884
0.5105671882629395 -0.10473447293043137 0.8520894050598145
-0.45131587982177734 -0.26675528287887573 0.8514217138290405
0.1497521549463272 0.5040549039840698 0.850753903388977
0.22737646102905273 -0.4723486304283142 0.8500862121582031
-0.4908870756626129 0.19656246900558472 0.8494185209274292
0.4925921857357025 0.1884898841381073 0.8487508296966553
-0.23953893780708313 -0.4712294936180115 0.8480830192565918
-0.14512918889522552 0.5117650628089905 0.8474153280258179
0.4504581689834595 -0.27843108773231506 0.846747636795044
-0.5244343280792236 -0.09771420061588287 0.84607994556427
0.3181765377521515 0.42861029505729675 0.8454121351242065
0.051857732236385345 -0.5305655598640442 0.8447444438934326
-0.4005739986896515 0.3583550751209259 0.8440767526626587
0.535333514213562 0.00781436637043953 0.8434089422225952
-0.39338213205337524 -0.3666360378265381 0.8427412509918213
0.03933146223425865 0.5385743975639343 0.8420735597610474
0.33228954672813416 -0.4230599105358124 0.8414058685302734
-0.534977376461029 0.08911968767642975 0.84073805809021
0.452389121055603 0.29768404364585876 0.840070366859436
-0.13590818643569946 -0.5246338844299316 0.8394026756286621
-0.25781431794166565 0.48102259635925293 0.8387349843978882
0.5128467082977295 -0.17942428588867188 0.8380671739578247
-0.5034583806991577 -0.21306714415550232 0.8373994827270508
0.2245769500732422 0.4995819926261902 0.8367317914962769
0.16902834177017212 -0.5195901393890381 0.8360641002655029
-0.47965916991233826 0.2709110379219055 0.8353962898254395
0.5345181226730347 0.12593182921409607 0.8347285985946655
-0.3128010034561157 -0.45329931378364563 0.8340609073638916
-0.07884792238473892 0.5480024218559265 0.8333930969238281
0.4259336590766907 -0.35000231862068176 0.8327254056930542
-0.5546547770500183 -0.028229251503944397 0.8320577144622803
0.38746345043182373 0.397653728723526 0.8313900232315063
-0.020282667130231857 -0.5544884204864502 0.8307222127914429
-0.3634010851383209 0.424780011177063 0.830054521560669
0.5527280569076538 -0.06640888750553131 0.829386830329895
-0.4563879668712616 -0.3235141634941101 0.8287191390991211
0.1150452196598053 0.5492620468139648 0.8280513286590576
0.28353601694107056 -0.48211470246315 0.8273836374282837
-0.5388335585594177 0.16571657359600067 0.8267159461975098
0.5069905519485474 0.2436635047197342 0.8260482549667358
-0.2127707153558731 -0.5215888023376465 0.8253804445266724
-0.19893613457679749 0.5307022929191589 0.8247127532958984
0.5028867125511169 -0.2559298276901245 0.8240450620651245
-0.5477856397628784 -0.14978216588497162 0.823377251625061
0.30010277032852173 0.4827493727207184 0.8227095603942871
0.10182541608810425 -0.558175802230835 0.8220418691635132
-0.45605242252349854 0.3448394238948822 0.8213741779327393
0.5670177936553955 0.05533396825194359 0.8207063674926758
-0.38452422618865967 -0.4230724275112152 0.8200386762619019
-0.005408210214227438 0.574119508266449 0.8193709850311279
0.3892950117588043 -0.4189276695251465 0.818703293800354
-0.5741429924964905 0.04747352376580238 0.8180354833602905
0.45301809906959534 0.35486477613449097 0.8173677921295166
-0.09764862060546875 -0.5671541094779968 0.8167001008987427
-0.31477436423301697 0.48641571402549744 0.8160324096679688
0.5584319233894348 -0.14482182264328003 0.8153645992279053
-0.51358562707901 -0.26941099762916565 0.8146969079971313
0.19387753307819366 0.5479205846786499 0.8140292167663574
0.22436368465423584 -0.5343887209892273 0.813361406326294
-0.5304197669029236 0.24433432519435883 0.81269371509552
0.5538929104804993 0.1798723191022873 0.8120260238647461
-0.2905387282371521 -0.5061329007148743 0.8113583326339722
-0.1310158222913742 0.5718262195587158 0.8106905221939087
0.4804757833480835 -0.3322167992591858 0.8100228309631348
-0.5827692747116089 -0.07825809717178345 0.8093551397323608
0.374286413192749 0.4535272419452667 0.8086874485015869
0.0272544976323843 -0.5867050290107727 0.8080196380615234
-0.42021849751472473 0.4163115322589874 0.8073519468307495
0.5888292193412781 -0.021699680015444756 0.8066842555999756
-0.45269566774368286 -0.3808804154396057 0.8060165643692017
0.07348150759935379 0.5890026688575745 0.8053487539291382
0.34105104207992554 -0.48323318362236023 0.8046810626983643
-0.5819423198699951 0.12759487330913544 0.8040133714675903
0.5129209756851196 0.3009251654148102 0.8033455610275269
-0.17836438119411469 -0.5677703619003296 0.8026778697967529
-0.2555428743362427 0.5414122343063354 0.802010178565979
0.5518232583999634 -0.22548703849315643 0.8013424873352051
-0.5632092356681824 -0.20533591508865356 0.8006746768951416
0.27384474873542786 0.5341030955314636 0.8000069856643677
0.15593428909778595 -0.5782140493392944 0.7993392944335938
-0.5094675421714783 0.32295873761177063 0.7986716032028198
0.5915390849113464 0.10761509835720062 0.7980037927627563
-0.3671833574771881 -0.4781777858734131 0.7973361015319824
-0.0554904080927372 0.602960467338562 0.7966684103012085
0.44570645689964294 -0.4062577486038208 0.7960007190704346
-0.607109546661377 -5.291099660098553e-05 0.7953329086303711
0.44511786103248596 0.41218796372413635 0.7946652173995972
-0.053017884492874146 -0.6040225625038147 0.7939975261688232
-0.3726072907447815 0.4833506643772125 0.7933297157287598
0.5989506244659424 -0.1034073606133461 0.7926620244979858
-0.5153875350952148 -0.3273469805717468 0.7919943332672119
0.1559782475233078 0.5918113589286804 0.791326642036438
0.28199413418769836 -0.5410552024841309 0.7906588315963745
-0.5773799419403076 0.21022525429725647 0.7899911403656006
0.5653871893882751 0.2367895245552063 0.7893234491348267
-0.260468989610672 -0.5558372139930725 0.7886557579040527
-0.18681593239307404 0.5880775451660156 0.7879879474639893
0.5325787663459778 -0.30640777945518494 0.7873202562332153
-0.603672981262207 -0.13254395127296448 0.7866525650024414
0.35293009877204895 0.5076653957366943 0.7859848737716675
0.07963845133781433 -0.6121233105659485 0.785317063331604
-0.4760128855705261 0.39956897497177124 0.7846493721008301
0.6185920834541321 0.02840699814260006 0.7839816808700562
-0.4406958222389221 -0.43793925642967224 0.7833138704299927
0.0260124783962965 0.6229087114334106 0.7826461791992188
0.39897239208221436 -0.4760718047618866 0.7819784879684448
-0.619760274887085 0.08310627937316895 0.7813107967376709
0.5106598138809204 0.35929983854293823 0.7806429862976074
-0.1371789127588272 -0.6092405319213867 0.7799752950668335
-0.31395718455314636 0.5440784692764282 0.7793076038360596
0.596659243106842 -0.1879049390554428 0.7786399126052856
-0.5707952380180359 -0.2633746266365051 0.7779721021652222
0.24014155566692352 0.5819937586784363 0.7773044109344482
0.21318364143371582 -0.5906770825386047 0.7766367197036743
-0.5600790977478027 0.29338327050209045 0.7759690284729004
0.6088018417358398 0.16366565227508545 0.7753012180328369
-0.34195590019226074 -0.5311560034751892 0.774633526802063
-0.10994001477956772 0.6249110698699951 0.7739658355712891
0.5006793737411499 -0.38556820154190063 0.7732980251312256
-0.6336024403572083 -0.052509605884552 0.7726303339004517
0.42912447452545166 0.46876809000968933 0.7719626426696777
-0.002933056093752384 -0.634879469871521 0.7712949514389038
-0.43039464950561523 0.47217869758605957 0.7706271409988403
0.6339614987373352 -0.05605760216712952 0.7699594497680664
-0.509128212928772 -0.38593170046806335 0.7692917585372925
0.11170834302902222 0.6307359933853149 0.7686240673065186
0.34095942974090576 -0.5397648811340332 0.7679562568664551
-0.6199494004249573 0.16935905814170837 0.7672885656356812
0.5690870881080627 0.2957146167755127 0.7666208744049072
-0.22330699861049652 -0.601755678653717 0.7659531831741333
-0.24527902901172638 0.5967531204223633 0.7652853727340698
0.5815256237983704 -0.27322494983673096 0.7646176815032959
-0.6172741055488586 -0.19012531638145447 0.763949990272522
0.32397374510765076 0.5592973232269287 0.7632821798324585
0.1359233409166336 -0.6305645108222961 0.7626144886016846
-0.5299663543701172 0.3750568926334381 0.7619467973709106
0.6417528390884399 0.08298871666193008 0.7612791061401367
-0.4208146035671234 -0.49383288621902466 0.7606112957000732
-0.026470331475138664 0.6506343483924866 0.7599436044692993
0.45640987157821655 -0.46097543835639954 0.7592759132385254
-0.6518629789352417 0.03310426324605942 0.7586082220077515
0.500468373298645 0.41787242889404297 0.757940411567688
-0.09002292901277542 -0.6455003619194031 0.7572727203369141
-0.3732468783855438 0.5388773083686829 0.7566050291061401
0.6368258595466614 -0.14394091069698334 0.7559373378753662
-0.5706339478492737 -0.322956919670105 0.7552695274353027
0.19969351589679718 0.6257878541946411 0.7546018362045288
0.27263063192367554 -0.5955693125724792 0.7539341449737549
-0.6071945428848267 0.2567509412765503 0.7532663345336914
0.6187248229980469 0.22254911065101624 0.7525986433029175
-0.3094124495983124 -0.5812618732452393 0.7519309520721436
-0.16783449053764343 0.639805793762207 0.7512632608413696
0.5534220337867737 -0.35735827684402466 0.7505954504013062
-0.6533739566802979 -0.1089954674243927 0.7499277591705322
0.4054621160030365 0.5237739682197571 0.7492600679397583
0.051733434200286865 -0.6593973636627197 0.7485923767089844
-0.4872726798057556 0.4532458782196045 0.7479245662689209
0.66306072473526 -0.0036093653179705143 0.747256875038147
-0.4950733184814453 -0.4442761540412903 0.746589183807373
0.06186245381832123 0.6642179489135742 0.7459214925765991
0.40035268664360046 -0.5307016372680664 0.7452536821365356
-0.6575831770896912 0.12248197197914124 0.7445859909057617
0.5650933980941772 0.3557303249835968 0.7439182996749878
-0.17974485456943512 -0.6432798504829407 0.7432504892349243
-0.30548498034477234 0.5978704690933228 0.7425827980041504
0.6266496777534485 -0.23330096900463104 0.7419151067733765
-0.6235073208808899 -0.2500866651535034 0.7412474155426025
0.28798577189445496 0.6077039837837219 0.7405796051025391
0.19520564377307892 -0.6418812870979309 0.7399119138717651
-0.5813134908676147 0.3432752788066864 0.7392442226409912
0.658083975315094 0.14116118848323822 0.7385765314102173
-0.39348000288009644 -0.5477561354637146 0.7379087209701538
-0.08310889452695847 0.6718742847442627 0.7372410297393799
0.5125251412391663 -0.43829700350761414 0.736573338508606
-0.6778700351715088 -0.021586168557405472 0.735905647277832
0.4826222062110901 0.4757785201072693 0.7352378368377686
-0.037681978195905685 -0.6760980486869812 0.7345701456069946
-0.43252843618392944 0.5260049104690552 0.7339024543762207
0.6718038320541382 -0.09433494508266449 0.7332346439361572
-0.5628412365913391 -0.3831873834133148 0.7325669527053833
0.15318936109542847 0.6649034023284912 0.7318992614746094
0.3333752453327179 -0.5929256081581116 0.7312315702438354
-0.650174081325531 0.2136940062046051 0.730563759803772
0.6212623119354248 0.2833681106567383 0.729896068572998
-0.2701241075992584 -0.6278029680252075 0.7292283773422241
-0.2282862812280655 0.6475191712379456 0.7285606861114502
0.6031954884529114 -0.32213345170021057 0.7278928756713867
-0.6662201285362244 -0.16863977909088135 0.7272251844406128
0.3745671212673187 0.5764261484146118 0.7265574932098389
0.11013457179069519 -0.6772958040237427 0.7258898019790649
-0.5424278974533081 0.42691630125045776 0.7252219915390015
0.6858940124511719 0.053120654076337814 0.7245543003082275
-0.4735122323036194 -0.501539409160614 0.7238866090774536
0.0072205932810902596 0.6918323040008545 0.7232187986373901
0.4593125581741333 -0.51407790184021 0.7225511074066162
-0.6897896528244019 0.07033132761716843 0.7218834161758423
0.5535405278205872 0.4159616529941559 0.7212157249450684
-0.13047154247760773 -0.6798553466796875 0.7205479145050049
-0.3665522336959839 0.5914854407310486 0.719880223274231
0.6673387289047241 -0.18727123737335205 0.719212532043457
-0.6223496198654175 -0.31154683232307434 0.7185448408126831
0.24554331600666046 0.6522202491760254 0.7178770303726196
0.2566116750240326 -0.6459724307060242 0.7172093391418457
-0.6293420195579529 0.3047386109828949 0.7165416479110718
0.6674073934555054 0.20206499099731445 0.7158739566802979
-0.3591400682926178 -0.5989553332328796 0.7152061462402344
-0.14306482672691345 0.6863749623298645 0.7145384550094604
0.5665292739868164 -0.40841495990753174 0.7138707637786865
-0.6974552273750305 -0.0801541805267334 0.713202953338623
0.45742738246917725 0.5322003364562988 0.7125352621078491
0.019066929817199707 -0.7006374001502991 0.7118675708770752
-0.49096184968948364 0.5056930780410767 0.7111998796463013
0.7011304497718811 -0.03982427716255188 0.7105320692062378
-0.5475730299949646 -0.4432104825973511 0.7098643779754639
0.10132090747356415 0.6988149285316467 0.7091966867446899
0.3945532441139221 -0.5828253030776978 0.708528995513916
-0.6884340047836304 0.16485358774662018 0.7078611850738525
0.6164165735244751 0.3452565371990204 0.7071934938430786
-0.2246764898300171 -0.6701422929763794 0.7065258026123047
-0.2904341518878937 0.6479765176773071 0.7058581113815308
0.6493147015571594 -0.28041961789131165 0.7051903009414673
-0.6719904541969299 -0.23059293627738953 0.7045226097106934
0.3369016945362091 0.6259970664978027 0.7038549184799194
0.1714390069246292 -0.6883501410484314 0.703187108039856
-0.5950961112976074 0.39358508586883545 0.702519416809082
0.7021644711494446 0.1133258044719696 0.7018517255783081
-0.44477012753486633 -0.5569268465042114 0.7011840343475342
-0.0514414981007576 0.7132126688957214 0.7005162239074707
0.5170201063156128 -0.4901469349861145 0.6998485326766968
-0.7161358594894409 0.013646023347973824 0.6991808414459229
0.534608006477356 0.4755721092224121 0.6985131502151489
-0.07618346810340881 -0.7109866142272949 0.6978453397750854
-0.42763322591781616 0.577702522277832 0.6971776485443115
0.7030385136604309 -0.13578444719314575 0.6965099573135376
-0.613830029964447 -0.37365394830703735 0.6958422660827637
0.19724242389202118 0.692237913608551 0.6951744556427002
0.31929174065589905 -0.6427918076515198 0.6945067644119263
-0.6733945608139038 0.25998589396476746 0.6938390731811523
0.66960209608078 0.2648594081401825 0.6931712627410889
-0.31827279925346375 -0.6467292904853821 0.6925035715103149
-0.20551282167434692 0.693942129611969 0.691835880279541
0.617682933807373 -0.37174278497695923 0.6911681890487671
-0.7103524208068848 -0.14179624617099762 0.6905003786087036
0.4252299666404724 0.5863662362098694 0.6898326873779297
0.07944821566343307 -0.7187829613685608 0.6891649961471558
-0.547749400138855 0.4782179296016693 0.6884973049163818
0.7244038581848145 0.018849387764930725 0.6878294944763184
-0.5250336527824402 -0.5022085905075073 0.6871618032455444
0.0447903648018837 0.7270575761795044 0.6864941120147705
0.45533353090286255 -0.5653994083404541 0.6858264207839966
-0.7214503288269043 0.11088709533214569 0.6851586103439331
0.6042448282241821 0.40737631916999817 0.6844909191131592
-0.1736772656440735 -0.7077010869979858 0.6838232278823853
-0.3534396290779114 0.6411612629890442 0.6831554174423218
0.6911504864692688 -0.2327701449394226 0.6824877262115479
-0.6705948114395142 -0.2940226197242737 0.6818200349807739
0.2929607927799225 0.6718122959136963 0.68115234375
0.2348269373178482 -0.69239741563797 0.6804845333099365
-0.6445631384849548 0.35368525981903076 0.6798168420791626
0.7116380929946899 0.176205113530159 0.6791491508483887
-0.40921497344970703 -0.6096901297569275 0.6784814596176147
-0.11334779113531113 0.7280558943748474 0.6778136491775513
0.5726988315582275 -0.4592088460922241 0.6771459579467773
-0.7362522482872009 -0.046828776597976685 0.6764782667160034
0.5085260272026062 0.53376305103302 0.6758105754852295
-0.017589306458830833 -0.7362404465675354 0.675142765045166
-0.4879133999347687 0.5566806197166443 0.6744750738143921
0.7332560420036316 -0.07950739562511444 0.6738073825836182
-0.5980352759361267 -0.4355839192867279 0.6731395721435547
0.14370302855968475 0.7272081971168518 0.6724718809127808
0.382418692111969 -0.6323531866073608 0.6718041896820068
-0.7128708362579346 0.20958562195301056 0.6711364984512329
0.6646093726158142 0.32872045040130615 0.6704686880111694
-0.27139097452163696 -0.6904311180114746 0.6698009967803955
-0.26963844895362854 0.6944450736045837 0.6691333055496216
0.6652977466583252 -0.32873377203941345 0.6684656143188477
-0.716360330581665 -0.20571373403072357 0.6677978038787842
0.38642045855522156 0.6375518441200256 0.6671301126480103
0.1426851600408554 -0.7302645444869995 0.6664624214172363
-0.6021361947059631 0.44390442967414856 0.6657947301864624
0.7412872314453125 0.08093716949224472 0.6651269197463989
-0.4954802393913269 -0.5594024062156677 0.664459228515625
-0.015686873346567154 0.749230682849884 0.6637915372848511
0.5149184465408325 -0.5408355593681335 0.6631237268447876
-0.7487618327140808 0.052471060305833817 0.6624560356140137
0.5848638415336609 0.4689176082611084 0.6617883443832397
-0.11775901913642883 -0.7399610877037048 0.6611206531524658
-0.4164869785308838 0.6271184682846069 0.6604528427124023
0.7281321287155151 -0.17976891994476318 0.6597851514816284
-0.6620065569877625 -0.3581133186817169 0.6591174602508545
0.24327532947063446 0.7132530808448792 0.6584497690200806
0.29948946833610535 -0.6893399357795715 0.6577819585800171
-0.6901669502258301 0.3076907694339752 0.6571142673492432
0.7141467928886414 0.2409624606370926 0.6564465761184692
-0.36726030707359314 -0.6591292023658752 0.6557788848876953
-0.17772099375724792 0.7361251711845398 0.6551110744476318
0.625616192817688 -0.4216138422489166 0.6544433832168579
-0.749835193157196 -0.11034053564071655 0.653775691986084
0.47557905316352844 0.589775025844574 0.6531078815460205
0.0445888489484787 -0.7552492618560791 0.6524401903152466
-0.5466124415397644 0.5286362171173096 0.6517724990844727
0.7575624585151672 -0.01912631280720234 0.6511048078536987
-0.575112521648407 -0.4965415298938751 0.6504369974136353
0.08557035028934479 0.7566443085670471 0.6497693061828613
0.4451884925365448 -0.6147334575653076 0.6491016149520874
-0.7472303509712219 0.15413713455200195 0.6484339237213135
0.6524354219436646 0.39284154772758484 0.64776611328125
-0.21904365718364716 -0.7294706702232361 0.6470984220504761
-0.33463871479034424 0.6878195405006409 0.6464307308197021
0.7087386250495911 -0.27988263964653015 0.6457630395889282
-0.7153449058532715 -0.27111342549324036 0.6450952291488647
0.34143561124801636 0.6850820183753967 0.6444275379180908
0.2080003023147583 -0.7348794937133789 0.6437598466873169
-0.6534125208854675 0.40312814712524414 0.6430920362472534
0.7515110373497009 0.14568321406841278 0.6424243450164795
-0.4592244327068329 -0.6140531301498413 0.6417566537857056
-0.07938231527805328 0.7650002241134644 0.6410889625549316
0.5725457072257996 -0.5093793869018555 0.6404211521148682
-0.7699725031852722 -0.009698886424303055 0.6397534608840942
0.5584514141082764 0.5291005373001099 0.6390857696533203
-0.05757931247353554 -0.7664677500724792 0.6384180784225464
-0.4787846505641937 0.6059570908546448 0.6377502679824829
0.7597498893737793 -0.12203054130077362 0.637082576751709
-0.6462650895118713 -0.4220680594444275 0.6364148855209351
0.18841233849525452 0.7497586607933044 0.6357471942901611
0.36463019251823425 -0.6791472434997559 0.6350793838500977
-0.7313001155853271 0.25611692667007446 0.6344116926193237
0.7095909714698792 0.3068080544471741 0.6337440013885498
-0.319365918636322 -0.7045947909355164 0.6330761909484863
-0.24378399550914764 0.7372524738311768 0.6324084997177124
0.6750860810279846 -0.3777627944946289 0.6317408084869385
-0.7566497921943665 -0.17613065242767334 0.6310731172561646
0.43610599637031555 0.642890453338623 0.6304053068161011
0.10961665213108063 -0.7677131295204163 0.6297376155853271
-0.6029868125915527 0.4938441812992096 0.6290699243545532
0.7755952477455139 0.0446542464196682 0.6284022331237793
-0.5452702641487122 -0.5557629466056824 0.6277344226837158
0.023513851687312126 0.7801242470741272 0.6270667314529419
0.506822943687439 -0.5900737643241882 0.626399040222168
-0.7759948372840881 0.09426981210708618 0.625731348991394
0.6331529021263123 0.45643600821495056 0.6250635385513306
-0.16181546449661255 -0.7633172273635864 0.6243958473205566
-0.3997245728969574 0.6740692257881165 0.6237281560897827
0.7474265694618225 -0.22572492063045502 0.6230603456497192
-0.7072411179542542 -0.3372097611427307 0.6223926544189453
0.2907578647136688 0.7283340692520142 0.6217249631881714
0.27461758255958557 -0.7324946522712708 0.6210572719573975
-0.7009167075157166 0.35631492733955383 0.620389461517334
0.7548752427101135 0.21232688426971436 0.6197217702865601
-0.41663244366645813 -0.6654651165008545 0.6190540790557861
-0.1455564796924591 0.7741007804870605 0.6183863878250122
0.6274911761283875 -0.47133463621139526 0.6177185773849487
-0.7847539782524109 -0.07490994781255722 0.6170508861541748
0.5252468585968018 0.5871780514717102 0.6163831949234009
0.006181119941174984 -0.7868322730064392 0.615715503692627
-0.5395684838294983 0.577850341796875 0.6150476932525635
0.7855576276779175 -0.060198597609996796 0.6143800020217896
-0.6234761476516724 -0.4851113557815552 0.6137123107910156
0.12897346913814545 0.7808290123939514 0.6130445003509521
0.4294681251049042 -0.6618572473526001 0.6123768091201782
-0.7674127817153931 0.19951893389225006 0.6117091178894043
0.6979402899742126 0.3729614317417145 0.6110414266586304
-0.2660364508628845 -0.7454913258552551 0.6103736162185669
-0.3107627034187317 0.7313397526741028 0.609705924987793
0.7204718589782715 -0.3281061053276062 0.609038233757019
-0.7565312385559082 -0.24343731999397278 0.6083705425262451
0.39049988985061646 0.692436695098877 0.6077027320861816
0.1767503172159195 -0.77340167760849 0.6070350408554077
-0.656332790851593 0.4526369869709015 0.6063673496246338
0.7870606184005737 0.11111408472061157 0.6056996583938599
-0.50877845287323 -0.6125189661979675 0.6050318479537964
-0.04177527129650116 0.7972930073738098 0.6043641567230225
0.5665728449821472 -0.5585790872573853 0.6036964654922485
-0.7987507581710815 0.03064068593084812 0.6030286550521851
0.6069006323814392 0.5187404751777649 0.6023609638214111
-0.10032431781291962 -0.7915021181106567 0.6016932725906372
-0.4641241431236267 0.6532660126686096 0.6010255813598633
0.7808415293693542 -0.16683483123779297 0.6003577709197998
-0.6920533776283264 -0.4032283127307892 0.5996900796890259
0.23491352796554565 0.7667403817176819 0.599022388458252
0.3417659103870392 -0.7230472564697266 0.598354697227478
-0.7440381050109863 0.3039392828941345 0.5976868867874146
0.7512503266334534 0.28010621666908264 0.5970191955566406
-0.3681234121322632 -0.7129893898963928 0.5963515043258667
-0.2134622186422348 0.7763373255729675 0.5956838130950928
0.6790726184844971 -0.42706218361854553 0.5950160026550293
-0.792847216129303 -0.1424354910850525 0.5943483114242554
0.48555007576942444 0.6424398422241211 0.5936806201934814
0.07282157242298126 -0.8007336258888245 0.593012809753418
-0.5981054306030273 0.5430347919464111 0.592345118522644
0.8051750659942627 0.005057395435869694 0.5916774272918701
-0.5938117504119873 -0.5464929342269897 0.5910097360610962
0.06559204310178757 0.8060274720191956 0.5903419256210327
0.49324166774749756 -0.6375758647918701 0.5896742343902588
-0.7980152368545532 0.1384892463684082 0.5890065431594849
0.6792340278625488 0.43865537643432617 0.5883388519287109
-0.20781907439231873 -0.7812801003456116 0.5876710414886475
-0.37789011001586914 0.7183595299720764 0.5870033502578735
0.7611898183822632 -0.2731415927410126 0.5863356590270996
-0.749385416507721 -0.3114994764328003 0.5856679677963257
0.33920541405677795 0.7377893328666687 0.5850001573562622
0.2452404648065567 -0.7721552848815918 0.5843324661254883
-0.7059904932975769 0.40540316700935364 0.5836647748947144
0.7917345762252808 0.17952120304107666 0.5829969644546509
-0.4659663140773773 -0.6661189198493958 0.582329273223877
-0.10958786308765411 0.8078640699386597 0.581661581993103
0.62372225522995 -0.5205174088478088 0.5809938907623291
-0.8151514530181885 -0.036069247871637344 0.5803260803222656
0.5738832950592041 0.5790190100669861 0.5796583890914917
-0.035217978060245514 -0.8136212825775146 0.5789906978607178
-0.5270871520042419 0.6255497336387634 0.5783230066299438
0.8085248470306396 -0.10382207483053207 0.5776551961898804
-0.6698557138442993 -0.4684101939201355 0.5769875049591064
0.17446967959403992 0.7997917532920837 0.5763198137283325
0.4086834490299225 -0.7065449953079224 0.5756521224975586
-0.7822206020355225 0.24652144312858582 0.5749843120574951
0.7405779361724854 0.3482621908187866 0.5743166208267212
-0.31416696310043335 -0.756027340888977 0.5736489295959473
-0.2823491096496582 0.7715859413146973 0.5729811191558838
0.7266533374786377 -0.37697750329971313 0.5723134279251099
-0.7940636873245239 -0.21153929829597473 0.5716457366943359
0.4397193491458893 0.6942160129547119 0.570978045463562
0.1416255682706833 -0.8079202771186829 0.5703102350234985
-0.6536976099014282 0.5018091797828674 0.5696425437927246
0.818289577960968 0.07304605096578598 0.5689748525619507
-0.5575085282325745 -0.605492353439331 0.5683071613311768
-0.001070818747393787 0.8249829411506653 0.5676393508911133
0.5552130341529846 -0.6064761877059937 0.5669716596603394
-0.8226808905601501 0.07365373522043228 0.5663039684295654
0.6535806059837341 0.5031404495239258 0.5656362771987915
-0.14529980719089508 -0.8114819526672363 0.564968466758728
-0.4444107711315155 0.6983547210693359 0.5643007755279541
0.7967122197151184 -0.2134110927581787 0.5636330842971802
-0.7351896166801453 -0.3795614242553711 0.5629652738571167
0.28271621465682983 0.7783762216567993 0.5622975826263428
0.3143368363380432 -0.7638856768608093 0.5616298913955688
-0.7513473629951477 0.35258445143699646 0.5609622001647949
0.7894642353057861 0.24913638830184937 0.5602943897247314
-0.4172205626964569 -0.7159149646759033 0.5596266984939575
-0.17920131981372833 0.8116211295127869 0.5589590072631836
0.6775925755500793 -0.4762173891067505 0.5582913160324097
-0.8249189853668213 -0.10515943169593811 0.5576235055923462
0.5343691110610962 0.6365675926208496 0.5569558143615723
0.032830268144607544 -0.8293371796607971 0.5562881231307983
-0.587889552116394 0.5911263823509216 0.5556204319000244
0.8300822973251343 -0.03732762858271599 0.5549526214599609
-0.6407905220985413 -0.5320166945457458 0.554284930229187
0.11003024876117706 0.8270399570465088 0.5536172389984131
0.4746224582195282 -0.6830655932426453 0.5529494285583496
-0.8149657249450684 0.18462379276752472 0.5522817373275757
0.7228706479072571 0.4160437285900116 0.5516140460968018
-0.2552797496318817 -0.794033944606781 0.5509463548660278
-0.35146838426589966 0.7597938776016235 0.5502785444259644
0.7696460485458374 -0.32154765725135803 0.5496108531951904
-0.7882861495018005 -0.28148046135902405 0.5489431619644165
0.3881687819957733 0.7418814301490784 0.5482754707336426
0.21186567842960358 -0.8082113265991211 0.5476076602935791
-0.7056868076324463 0.4545314610004425 0.5469399690628052
0.8246580362319946 0.1430588960647583 0.5462722778320312
-0.5148659348487854 -0.6614231467247009 0.5456045866012573
-0.07033088803291321 0.8373919725418091 0.5449367761611938
0.6146730780601501 -0.5687968134880066 0.5442690849304199
-0.8410481810569763 0.0056673139333724976 0.543601393699646
0.6211560368537903 0.5656899213790894 0.5429335832595825
-0.07909932732582092 -0.835680365562439 0.5422658920288086
-0.509585976600647 0.6714375019073486 0.5415982007980347
0.8265705704689026 -0.14949637651443481 0.5409305095672607
-0.7139915227890015 -0.44687798619270325 0.5402626991271973
0.2215709090232849 0.8136805295944214 0.5395950078964233
0.38329342007637024 -0.7485758662223816 0.5389273166656494
-0.7918422222137451 0.29467228055000305 0.5382596254348755
0.7801679968833923 0.31921839714050293 0.537591814994812
-0.3629818260669708 -0.7613056898117065 0.5369241237640381
-0.24988475441932678 0.8084188103675842 0.5362564325332642
0.7275470495223999 -0.4260656237602234 0.5355887413024902
-0.8278452157974243 -0.17591479420661926 0.5349209308624268
0.4886879622936249 0.6907187104225159 0.5342532396316528
0.10312652587890625 -0.838380753993988 0.5335855484008789
-0.64583820104599 0.5502665042877197 0.5329177379608154
0.8451859354972839 0.0319809764623642 0.5322500467300415
-0.6050670742988586 -0.5933343768119812 0.5315823554992676
0.04223138839006424 0.8481006622314453 0.5309146642684937
0.5388545393943787 -0.6527557373046875 0.5302468538284302
-0.8418356776237488 0.11884639412164688 0.5295791625976562
0.6982111930847168 0.48271289467811584 0.5289114713668823
-0.1920212358236313 -0.8265213370323181 0.5282437801361084
-0.4200781285762787 0.7409798502922058 0.5275759696960449
0.8075165748596191 -0.26128751039505005 0.526908278465271
-0.7754687070846558 -0.35151880979537964 0.5262405872344971
0.3313646912574768 0.7848597764968872 0.5255728960037231
0.28280892968177795 -0.8014971017837524 0.5249050855636597
-0.7534587979316711 0.40161603689193726 0.5242373943328857
0.8241077661514282 0.21437565982341766 0.5235697031021118
-0.46624329686164856 -0.7136380076408386 0.5229018926620483
-0.14148597419261932 0.8430202007293701 0.5222342014312744
0.6709460020065308 -0.5248395204544067 0.5215665102005005
-0.8528230786323547 -0.06479120254516602 0.5208988189697266
0.5822021961212158 0.6256049275398254 0.5202310085296631
-0.00986800342798233 -0.8535237312316895 0.5195633172988892
-0.5726988911628723 0.6377882957458496 0.5188956260681152
0.8503584861755371 -0.08201459050178528 0.5182279348373413
-0.6859086751937866 -0.5127198696136475 0.5175601243972778
0.15634873509407043 0.843244194984436 0.5168924331665039
0.4513739347457886 -0.7262797355651855 0.51622474193573
-0.8269689679145813 0.23220372200012207 0.515557050704956
0.7638357281684875 0.38902950286865234 0.5148892402648926
-0.3037410080432892 -0.8017405867576599 0.5142215490341187
-0.32090452313423157 0.798183023929596 0.5135538578033447
0.7729949951171875 -0.3705032765865326 0.5128860473632812
-0.8237929940223694 -0.24761125445365906 0.5122183561325073
0.4372278153896332 0.7408462166786194 0.5115506649017334
0.17496173083782196 -0.8405526280403137 0.5108829736709595
-0.7002759575843811 0.503302276134491 0.510215163230896
0.8535757660865784 0.10341501235961914 0.5095474720001221
-0.5629591941833496 -0.6516801714897156 0.5088797807693481
-0.028263622894883156 0.862655520439148 0.5082120895385742
0.6006758809089661 -0.6158287525177002 0.5075442790985107
-0.8624561429023743 0.04982209578156471 0.5068765878677368
0.6667513251304626 0.5475504398345947 0.5062088966369629
-0.12498919665813446 -0.8530620336532593 0.505541205406189
-0.4874490797519684 0.7152324318885803 0.5048733949661255
0.8397874236106873 -0.19675512611865997 0.5042057037353516
-0.7556366920471191 -0.4209204614162445 0.5035380125045776
0.269821435213089 0.8226272463798523 0.5028702020645142
0.3537224531173706 -0.7877391576766968 0.5022025108337402
-0.7964475750923157 0.34352970123291016 0.5015348196029663
0.8165370225906372 0.2862699031829834 0.5008671283721924
-0.41205641627311707 -0.7615329027175903 0.5001993179321289
-0.21382160484790802 0.8417035341262817 0.49953165650367737
0.723394513130188 -0.47496601939201355 0.49886390566825867
-0.8577802777290344 -0.13702459633350372 0.49819621443748474
0.537024199962616 0.6822195053100586 0.49752846360206604
0.06171940267086029 -0.8647274971008301 0.4968607425689697
-0.6330600380897522 0.5976531505584717 0.4961930215358734
0.8677341938018799 -0.011612938717007637 0.4955253005027771
-0.6511263847351074 -0.5763791799545288 0.4948575794696808
0.08766458183526993 0.8666707873344421 0.4941898584365845
0.5178574919700623 -0.6971204876899719 0.49352213740348816
-0.8562795519828796 0.1657567322254181 0.49285441637039185
0.740527868270874 0.4578411877155304 0.49218669533729553
-0.24003487825393677 -0.8367237448692322 0.4915189743041992
-0.39152994751930237 0.7809110283851624 0.4908512532711029
0.8133960366249084 -0.3100218176841736 0.4901835322380066
-0.8126961588859558 -0.31952154636383057 0.4895158112049103
0.3804313838481903 0.7863694429397583 0.48884809017181396
0.2476174384355545 -0.8357241153717041 0.48818033933639526
-0.7505864500999451 0.45062413811683655 0.48751261830329895
0.8550615310668945 0.17627018690109253 0.48684489727020264
-0.5148023962974548 -0.7064064145088196 0.4861771762371063
-0.10076997429132462 0.8704540729522705 0.48550945520401
0.6594125032424927 -0.5725628137588501 0.4848417341709137
-0.8765183091163635 -0.021788863465189934 0.4841740131378174
0.6287095546722412 0.6098612546920776 0.48350629210472107
-0.05481431260704994 -0.8732914924621582 0.48283857107162476
-0.5528701543807983 0.6827092170715332 0.48217085003852844
0.8660410642623901 -0.1285470426082611 0.48150312900543213
-0.7288854122161865 -0.48896369338035583 0.4808354079723358
0.20409691333770752 0.8547164797782898 0.4801676869392395
0.4238792955875397 -0.7669699192047119 0.4794999659061432
-0.834139347076416 0.28078752756118774 0.4788322448730469
0.8019153475761414 0.3580150008201599 0.4781644940376282
-0.3527737557888031 -0.8045517206192017 0.47749677300453186
-0.28661680221557617 0.8333486914634705 0.47682905197143555
0.7714241743087769 -0.4195946455001831 0.47616133093833923
-0.8557645678520203 -0.2103230059146881 0.4754936099052429
0.48598712682724 0.7349056005477905 0.4748258888721466
0.13496948778629303 -0.8690754771232605 0.4741581678390503
-0.6900124549865723 0.5513414144515991 0.473490446805954
0.8784225583076477 0.061036769300699234 0.47282272577285767
-0.6098958849906921 -0.6371750235557556 0.47215500473976135
0.01616360992193222 0.8836281895637512 0.47148728370666504
0.5820441842079163 -0.661289393901825 0.4708195626735687
-0.8793874979019165 0.09594503790140152 0.4701518416404724
0.710374116897583 0.524940013885498 0.4694841206073761
-0.17244109511375427 -0.8658170104026794 0.4688163995742798
-0.46103936433792114 0.7566701769828796 0.4681486487388611
0.8482640981674194 -0.24515864253044128 0.46748092770576477
-0.7945595979690552 -0.39092114567756653 0.46681320667266846
0.3187917172908783 0.8267577290534973 0.46614548563957214
0.32037171721458435 -0.8238372802734375 0.46547776460647583
-0.7961985468864441 0.39267730712890625 0.4648100435733795
0.84952312707901 0.2498326599597931 0.4641423225402832
-0.4609905481338501 -0.7569059133529663 0.4634746015071869
-0.1745871752500534 0.8713148832321167 0.4628068804740906
0.7144257426261902 -0.5232976078987122 0.46213915944099426
-0.8837810158729553 -0.09530460834503174 0.46147143840789795
0.584368884563446 0.668979823589325 0.46080371737480164
0.017845235764980316 -0.8869104385375977 0.4601359963417053
-0.6156541109085083 0.6436344981193542 0.459468275308609
0.8859226107597351 -0.05729280412197113 0.4588005542755127
-0.6953786611557007 -0.5549448728561401 0.458132803440094
0.13478730618953705 0.8807194828987122 0.4574650824069977
0.49256449937820435 -0.7392917275428772 0.45679736137390137
-0.8660764098167419 0.21394798159599304 0.45612964034080505
0.7802826166152954 0.4288901090621948 0.45546191930770874
-0.2889118492603302 -0.8421902656555176 0.4547941982746124
-0.3591502904891968 0.8179330825805664 0.4541264772415161
0.8144882321357727 -0.3591962158679962 0.4534587562084198
-0.8466910123825073 -0.28397008776664734 0.4527910351753235
0.42951256036758423 0.7830779552459717 0.4521233141422272
0.2091761827468872 -0.8664212226867676 0.45145559310913086
-0.7429367899894714 0.49922218918800354 0.45078787207603455
0.8822165131568909 0.13524408638477325 0.45012015104293823
-0.5625311732292175 -0.6944586634635925 0.4494524300098419
-0.05748448148369789 0.8938506841659546 0.4487847089767456
0.6432608962059021 -0.6190431118011475 0.4481169581413269
-0.8959701657295227 0.02341257594525814 0.4474492371082306
0.6735719442367554 0.5896334052085876 0.4467815160751343
-0.10157302767038345 -0.8886434435844421 0.44611379504203796
-0.5287260413169861 0.7255972623825073 0.44544607400894165
0.8771705627441406 -0.17649197578430176 0.44477835297584534
-0.7694581747055054 -0.4610944092273712 0.444110631942749
0.2528475821018219 0.8615343570709229 0.4434429109096527
0.3925054371356964 -0.8049048781394958 0.4427751898765564
-0.8365908265113831 0.3299570381641388 0.4421074688434601
0.8369109034538269 0.323385089635849 0.44143974781036377
-0.40197181701660156 -0.8026165962219238 0.44077202677726746
-0.24900515377521515 0.8651265501976013 0.44010430574417114
0.7651169896125793 -0.4684307277202606 0.43943658471107483
-0.8840718865394592 -0.17002762854099274 0.4387688636779785
0.5340735912322998 0.7242756485939026 0.4381011128425598
0.09230970591306686 -0.8936869502067566 0.4374333918094635
-0.6751433610916138 0.5982964634895325 0.4367656707763672
0.8991422057151794 0.01635071262717247 0.4360979497432709
-0.655346691608429 -0.618183970451355 0.43543022871017456
0.06252173334360123 0.9002909064292908 0.43476250767707825
0.5590810775756836 -0.7048750519752502 0.43409478664398193
-0.89186030626297 0.1436077207326889 0.4334270656108856
0.7517484426498413 0.49818629026412964 0.4327593445777893
-0.22103042900562286 -0.8740001320838928 0.432091623544693
-0.43070656061172485 0.7955045104026794 0.4314239025115967
0.8520917296409607 -0.29428938031196594 0.43075618147850037
-0.8305453658103943 -0.3572491407394409 0.43008846044540405
0.3680742084980011 0.8261987566947937 0.42942073941230774
0.2836269736289978 -0.8566884994506836 0.4287530183792114
-0.7912564873695374 0.44172072410583496 0.4280852675437927
0.8789786100387573 0.21030597388744354 0.4274175465106964
-0.5094059109687805 -0.7476190328598022 0.4267498254776001
-0.13259144127368927 0.8971403241157532 0.4260821044445038
0.7008668780326843 -0.5707007646560669 0.42541438341140747
-0.9057709574699402 -0.05117233470082283 0.42474666237831116
0.6303837895393372 0.6512554883956909 0.42407894134521484
-0.028074102476239204 -0.9048896431922913 0.42341122031211853
-0.5939040780067444 0.6878960728645325 0.4227434992790222
0.8997477293014526 -0.10463551431894302 0.4220757782459259
-0.7375355958938599 -0.5293406248092651 0.4214080572128296
0.1831783801317215 0.8902800679206848 0.4207403361797333
0.46330827474594116 -0.7790094017982483 0.42007261514663696
-0.871295690536499 0.2630040645599365 0.41940489411354065
0.8172456622123718 0.39621296525001526 0.41873717308044434
-0.33824422955513 -0.8430259227752686 0.41806942224502563
-0.3233104944229126 0.8518479466438293 0.4174017012119293
0.8109326958656311 -0.40841400623321533 0.416733980178833
-0.8772882223129272 -0.24525095522403717 0.4160662591457367
0.4782256782054901 0.7751584649085999 0.4153985381126404
0.16788390278816223 -0.8934575319290161 0.41473081707954407
-0.7307150959968567 0.5470445156097412 0.41406309604644775
0.905476987361908 0.09170526266098022 0.41339537501335144
-0.6090835928916931 -0.6780306100845337 0.4127276539802551
-0.012043576687574387 0.9131500720977783 0.4120599329471588
0.6227557063102722 -0.6639565229415894 0.4113922119140625
-0.9111546874046326 0.07039600610733032 0.4107244908809662
0.7164901494979858 0.5652125477790833 0.4100567698478699
-0.14972715079784393 -0.8995919227600098 0.40938904881477356
-0.5005820989608765 0.7661798596382141 0.40872132778167725
0.8837952017784119 -0.22543564438819885 0.40805357694625854
-0.807383120059967 -0.4294493794441223 0.40738585591316223
0.3021933138370514 0.863781750202179 0.4067181348800659
0.3576091527938843 -0.8398712277412415 0.4060504138469696
-0.834442138671875 0.379314124584198 0.4053826928138733
0.8686409592628479 0.28551313281059265 0.404714971780777
-0.45094940066337585 -0.7960877418518066 0.40404725074768066
-0.20845668017864227 0.8933683633804321 0.40337952971458435
0.7542586326599121 -0.5166409611701965 0.40271180868148804
-0.9086009860038757 -0.12712305784225464 0.4020440876483917
0.5811344981193542 0.7091726660728455 0.4013763666152954
0.04738817363977432 -0.9143081903457642 0.4007086455821991
-0.655914306640625 0.643835186958313 0.4000409245491028
0.9156914353370667 -0.030232656747102737 0.39937320351600647
-0.6990023851394653 -0.5949800610542297 0.39870548248291016
0.11039859801530838 0.9126360416412354 0.39803773164749146
0.5320850014686584 -0.7463017106056213 0.39737001061439514
-0.8999025821685791 0.19239942729473114 0.39670228958129883
0.7906175255775452 0.46761080622673035 0.3960345685482025
-0.2703510522842407 -0.8776748776435852 0.3953668475151062
-0.3967927396297455 0.8315078020095825 0.3946991264820099
0.85136878490448 -0.34374868869781494 0.3940314054489136
-0.8633972406387329 -0.3202645182609558 0.39336368441581726
0.4172808825969696 0.8210826516151428 0.39269596338272095
0.24386343359947205 -0.8861281871795654 0.39202824234962463
-0.7817866206169128 0.49028533697128296 0.3913605213165283
0.9047722816467285 0.16807740926742554 0.390692800283432
-0.5569440126419067 -0.733869194984436 0.3900250792503357
-0.08823135495185852 0.9190829396247864 0.3893573582172394
0.6829447150230408 -0.6168360114097595 0.38868963718414307
-0.9236879348754883 -0.005031106993556023 0.38802188634872437
0.6747508645057678 0.6293017864227295 0.38735416531562805
-0.07563192397356033 -0.918638288974762 0.38668644428253174
-0.5680913925170898 0.7301434874534607 0.3860187232494354
0.9092181324958801 -0.15323412418365479 0.3853510022163391
-0.7773287296295166 -0.4998721480369568 0.3846832811832428
0.23243366181850433 0.8953961730003357 0.3840155601501465
0.430416077375412 -0.8160328269004822 0.38334783911705017
-0.8720158934593201 0.3125266432762146 0.38268011808395386
0.8512058258056641 0.36015626788139343 0.38201239705085754
-0.3876425623893738 -0.8393434286117554 0.38134467601776123
-0.28437358140945435 0.8824754953384399 0.3806769549846649
0.8028753995895386 -0.4572974443435669 0.3800092339515686
-0.9043401479721069 -0.2037409543991089 0.3793415129184723
0.5262075662612915 0.7627888917922974 0.378673791885376
0.1241283267736435 -0.9167189598083496 0.3780060410499573
-0.7141298651695251 0.593745231628418 0.37733832001686096
0.9247629046440125 0.04604942351579666 0.37667059898376465
-0.6541335582733154 -0.6573597192764282 0.37600287795066833
0.03515210002660751 0.928307056427002 0.375335156917572
0.598161518573761 -0.7069991827011108 0.3746674358844757
-0.9220617413520813 0.11875887215137482 0.3739997148513794
0.7571847438812256 0.5368883013725281 0.3733319938182831
-0.19887524843215942 -0.9061616659164429 0.37266427278518677
-0.4687506854534149 0.8042041063308716 0.37199655175209045
0.8859745860099792 -0.274980753660202 0.37132883071899414
-0.8424357771873474 -0.3943614363670349 0.3706611096858978
0.3517439663410187 0.8615522980690002 0.3699933886528015
0.3195410370826721 -0.8716744184494019 0.3693256676197052
-0.8278201818466187 0.42847877740859985 0.3686579465866089
0.8969425559043884 0.24476486444473267 0.3679901957511902
-0.49933943152427673 -0.7851244807243347 0.36732247471809387
-0.16534948348999023 0.9179436564445496 0.36665475368499756
0.739039421081543 -0.563873827457428 0.36598703265190125
-0.9292548298835754 -0.08199688047170639 0.36531931161880493
0.6268366575241089 0.6898166537284851 0.3646515905857086
0.0005989433266222477 -0.9308763146400452 0.3639838695526123
-0.6325731873512268 0.6876451969146729 0.363316148519516
0.9280418157577515 -0.07831577211618423 0.3626484274864197
-0.7405736446380615 -0.567837119102478 0.36198070645332336
0.15939614176750183 0.9206699132919312 0.36131298542022705
0.5013535618782043 -0.7853052020072937 0.36064526438713074
-0.9035552740097046 0.24192462861537933 0.3599775433540344
0.8267444968223572 0.43353256583213806 0.3593098223209381
-0.3200128972530365 -0.8769162893295288 0.3586421012878418
-0.3596359193325043 0.8644720911979675 0.3579743504524231
0.8462036848068237 -0.393155038356781 0.3573066294193268
-0.8929375410079956 -0.2803216874599457 0.35663890838623047
0.4660414755344391 0.8115505576133728 0.35597118735313416
0.2014492005109787 -0.9120103120803833 0.35530346632003784
-0.7679615616798401 0.5380149483680725 0.35463574528694153
0.9267908334732056 0.12352599948644638 0.3539680242538452
-0.6032654643058777 -0.7158591747283936 0.3533003032207489
-0.041893914341926575 0.9370629787445068 0.3526325821876526
0.6608906388282776 -0.6613832116127014 0.3519648611545563
-0.9374862909317017 0.0427270345389843 0.35129714012145996
0.7171716094017029 0.6033766269683838 0.35062941908836365
-0.12443414330482483 -0.9281448721885681 0.34996169805526733
-0.5384986996650696 0.7701022624969482 0.349293977022171
0.9143566489219666 -0.20269547402858734 0.3486262559890747
-0.814509391784668 -0.46684446930885315 0.347958505153656
0.28216391801834106 0.8961247801780701 0.3472907841205597
0.39421311020851135 -0.8501411080360413 0.3466230630874634
-0.8683276176452637 0.36213335394859314 0.34595534205436707
0.8819716572761536 0.3210628628730774 0.34528762102127075
-0.4367341995239258 -0.8312660455703735 0.34461989998817444
-0.24269741773605347 0.9096550941467285 0.3439521789550781
0.7904714345932007 -0.5054863691329956 0.3432844579219818
-0.927717924118042 -0.1598101705312729 0.3426167368888855
0.5731132626533508 0.7461549043655396 0.3419490158557892
0.07828893512487411 -0.9361093640327454 0.34128129482269287
-0.6933959722518921 0.6389972567558289 0.34061357378959656
0.9400117993354797 -0.001337430439889431 0.33994585275650024
-0.6973743438720703 -0.6326882839202881 0.33927813172340393
0.08371298760175705 0.9392929077148438 0.3386104106903076
0.5697460174560547 -0.7478869557380676 0.3379426598548889
-0.9286966323852539 0.16811099648475647 0.3372749388217926
0.7953962683677673 0.5049518942832947 0.3366072177886963
-0.24862952530384064 -0.9083920121192932 0.3359394967556
-0.43354418873786926 0.8394371271133423 0.33527177572250366
0.8837814331054688 -0.3247447907924652 0.33460405468940735
-0.8744115233421326 -0.3561616539955139 0.33393633365631104
0.4011252224445343 0.8549516797065735 0.3332686126232147
0.27864840626716614 -0.9001397490501404 0.3326008915901184
-0.816862940788269 0.4770876467227936 0.3319331705570221
0.9216718673706055 0.20150113105773926 0.3312654495239258
-0.5467923283576965 -0.7698956727981567 0.33059772849082947
-0.12005516141653061 0.9387408494949341 0.32993000745773315
0.7196579575538635 -0.6097961664199829 0.32926228642463684
-0.9459547400474548 -0.03502856567502022 0.3285945653915405
0.6708658337593079 0.666434109210968 0.3279268145561218
-0.04767346382141113 -0.9433460235595703 0.3272590935230255
-0.6053727269172668 0.7294334769248962 0.3265913724899292
0.9361817240715027 -0.12751202285289764 0.3259236514568329
-0.7797908782958984 -0.5370321869850159 0.3252559304237366
0.20912858843803406 0.9244146943092346 0.32458820939064026
0.467185914516449 -0.8216413855552673 0.32392048835754395
-0.9028739929199219 0.2918013632297516 0.32325276732444763
0.8599122762680054 0.39627063274383545 0.3225850462913513
-0.3696407079696655 -0.8718130588531494 0.321917325258255
-0.3195725083351135 0.894209086894989 0.3212496042251587
0.8367173671722412 -0.4421426057815552 0.3205818831920624
-0.9190083742141724 -0.23777183890342712 0.31991416215896606
0.5140025019645691 0.79775470495224 0.31924644112586975
0.15674757957458496 -0.9342083930969238 0.31857872009277344
-0.749963641166687 0.5845710039138794 0.31791096925735474
0.9449399709701538 0.07702429592609406 0.3172432482242584
-0.6480492949485779 -0.6937997341156006 0.3165755271911621
0.006041885819286108 0.9510189890861511 0.3159078061580658
0.6349424123764038 -0.7040412425994873 0.3152400851249695
-0.9471379518508911 0.09171956032514572 0.31457236409187317
0.7573670148849487 0.5737429857254028 0.31390464305877686
-0.17409761250019073 -0.9334148168563843 0.31323692202568054
-0.5054120421409607 0.8075176477432251 0.31256920099258423
0.9152020215988159 -0.25263872742652893 0.3119014799594879
-0.8488489985466003 -0.4305644929409027 0.3112337589263916
0.3319934904575348 0.8925377130508423 0.3105660378932953
0.3550247550010681 -0.8811335563659668 0.309898316860199
-0.8603349924087524 0.4114565849304199 0.30923059582710266
0.9093717336654663 0.279274046421051 0.30856287479400635
-0.48516231775283813 -0.8189295530319214 0.30789512395858765
-0.19863660633563995 0.933245837688446 0.30722740292549133
0.773887038230896 -0.5526376366615295 0.306559681892395
-0.9473123550415039 -0.11382381618022919 0.3058919608592987
0.6186158061027527 0.7254519462585449 0.3052242398262024
0.03073872998356819 -0.9515519738197327 0.3045565187931061
-0.6687363386154175 0.6824920773506165 0.30388879776000977
0.9511796832084656 -0.05007736757397652 0.30322107672691345
-0.7385183572769165 -0.604265034198761 0.30255335569381714
0.13325908780097961 0.9460968375205994 0.3018856346607208
0.5377819538116455 -0.7863553166389465 0.3012179136276245
-0.9310817718505859 0.2180732637643814 0.3005501925945282
0.8308852314949036 0.4696977138519287 0.2998824715614319
-0.2986145615577698 -0.9063382148742676 0.29921475052833557
-0.39527660608291626 0.8716663122177124 0.29854702949523926
0.8773036599159241 -0.3743589520454407 0.29787927865982056
-0.9031261205673218 -0.3151811361312866 0.29721155762672424
0.44997772574424744 0.8440995812416077 0.29654383659362793
0.23527687788009644 -0.9251126646995544 0.2958761155605316
-0.8017206788063049 0.5247935056686401 0.2952083945274353
0.9427053332328796 0.15607938170433044 0.294540673494339
-0.5929756164550781 -0.7505812644958496 0.2938729524612427
-0.07294027507305145 0.9556680917739868 0.29320523142814636
0.6963222622871399 -0.6540927290916443 0.29253751039505005
-0.9586412310600281 0.01340899895876646 0.29186978936195374
0.71292644739151 0.6392596364021301 0.2912020683288574
-0.09705273807048798 -0.9516907334327698 0.2905343472957611
-0.5745723843574524 0.7689263224601746 0.2898666262626648
0.940117597579956 -0.17744453251361847 0.2891989052295685
-0.8164042830467224 -0.5028472542762756 0.28853118419647217
0.2592214047908783 0.9239094853401184 0.28786343336105347
0.4298846423625946 -0.8550862073898315 0.28719571232795715
-0.8979304432868958 0.34166020154953003 0.28652799129486084
0.8899244666099548 0.3561456501483917 0.2858602702617645
-0.4188730716705322 -0.8624687194824219 0.2851925492286682
-0.27693888545036316 0.9205513596534729 0.2845248281955719
0.8230445384979248 -0.4903607666492462 0.2838571071624756
-0.9414722919464111 -0.1929643750190735 0.2831893861293793
0.5608266592025757 0.7798597812652588 0.28252166509628296
0.1101183071732521 -0.9526160359382629 0.28185394406318665
-0.7279861569404602 0.629632294178009 0.28118622303009033
0.9591453075408936 0.028939668089151382 0.280518501996994
-0.6909924745559692 -0.6679115295410156 0.2798507809638977
0.055203892290592194 0.9609090089797974 0.2791830599308014
0.6053460836410522 -0.7445278763771057 0.2785153388977051
-0.9526335597038269 0.14157238602638245 0.2778475880622864
0.7950777411460876 0.5406702756881714 0.27717986702919006
-0.22424918413162231 -0.9344715476036072 0.27651214599609375
-0.4691222608089447 0.8421549201011658 0.27584442496299744
0.9118102788925171 -0.30269449949264526 0.2751767039299011
-0.8801394701004028 -0.3913422226905823 0.2745089828968048
0.3815596103668213 0.8847228288650513 0.2738412618637085
0.31317776441574097 -0.9088299870491028 0.2731735408306122
-0.8481572866439819 0.46014294028282166 0.27250581979751587
0.9332551956176758 0.23513078689575195 0.27183809876441956
-0.532585620880127 -0.8024835586547852 0.27117037773132324
-0.15254370868206024 0.953127384185791 0.27050265669822693
0.7533008456230164 -0.5984244346618652 0.2698349356651306
-0.963034451007843 -0.06614332646131516 0.2691672146320343
0.6624054908752441 0.7008863687515259 0.268499493598938
-0.01815473660826683 -0.9629897475242615 0.2678317427635193
-0.6403834223747253 0.7239395976066589 0.267164021730423
0.9582419991493225 -0.09979957342147827 0.26649630069732666
-0.7772970199584961 -0.5723468065261841 0.26582857966423035
0.18341918289661407 0.9487268328666687 0.26516085863113403
0.5025483965873718 -0.8221594095230103 0.2644931375980377
-0.9292575120925903 0.2682768404483795 0.2638254165649414
0.8634322881698608 0.43142497539520264 0.2631576955318451
-0.34846681356430054 -0.9000728130340576 0.2624899744987488
-0.35426485538482666 0.9006994366645813 0.26182225346565247
0.866645097732544 -0.4234676957130432 0.26115453243255615
-0.9284160137176514 -0.27175211906433105 0.26048681139945984
0.4979565739631653 0.8291304707527161 0.2598190903663635
0.18977142870426178 -0.9464593529701233 0.2591513693332672
-0.7825575470924377 0.5712648630142212 0.2584836483001709
0.9599398970603943 0.1088547632098198 0.2578158974647522
-0.6375735998153687 -0.7273736000061035 0.2571481764316559
-0.024367323145270348 0.9686538577079773 0.25648045539855957
0.6692513227462769 -0.6964662075042725 0.25581273436546326
-0.9672749638557434 0.06294874101877213 0.25514501333236694
0.7527415752410889 0.6085373163223267 0.25447729229927063
-0.1471700370311737 -0.9559032320976257 0.2538095712661743
-0.5404391288757324 0.8058694005012512 0.253141850233078
0.9398745894432068 -0.22774553298950195 0.2524741291999817
-0.8501840233802795 -0.46557050943374634 0.2518064081668854
0.3093107044696808 0.9192115664482117 0.25113868713378906
0.38975656032562256 -0.8854362368583679 0.25047096610069275
-0.8888133764266968 0.3911439776420593 0.24980324506759644
0.9166052341461182 0.3134809136390686 0.24913552403450012
-0.4673621654510498 -0.8490028977394104 0.2484678030014038
-0.2320721596479416 0.9433521032333374 0.2478000521659851
0.8053346872329712 -0.5374737977981567 0.24713234603405
-0.9602127075195312 -0.1462477296590805 0.24646462500095367
0.6061928272247314 0.7580438852310181 0.24579690396785736
0.061918437480926514 -0.967147707939148 0.24512916803359985
-0.7022345662117004 0.6728945970535278 0.24446144700050354
0.9693529009819031 -0.020365001633763313 0.24379372596740723
-0.7318103909492493 -0.6384255886077881 0.2431260049343109
0.10522615164518356 0.9667111039161682 0.2424582839012146
0.5723564624786377 -0.7825798392295837 0.2417905628681183
-0.9539834260940552 0.19191931188106537 0.24112284183502197
0.8300639986991882 0.5044353604316711 0.24045510590076447
-0.2745251953601837 -0.9313572645187378 0.23978738486766815
-0.4299258887767792 0.8737996816635132 0.23911966383457184
0.9042551517486572 -0.3525044918060303 0.23845194280147552
-0.9081931710243225 -0.3494916260242462 0.2377842217683792
0.43051204085350037 0.8727850914001465 0.2371165007352829
0.2690010666847229 -0.9330711960792542 0.23644877970218658
-0.8319294452667236 0.5078529715538025 0.23578105866909027
0.9534924626350403 0.18897446990013123 0.23511332273483276
-0.5786779522895813 -0.7820920348167419 0.23444560170173645
-0.10476991534233093 0.969200611114502 0.23377788066864014
0.7289047241210938 -0.6425365805625916 0.23311015963554382
-0.9748162627220154 -0.017126986756920815 0.2324424386024475
0.7041902542114258 0.6726763248443604 0.2317747175693512
-0.06802885979413986 -0.9703864455223083 0.23110699653625488
-0.6085800528526306 0.7630681991577148 0.23043926060199738
0.9611942172050476 -0.15013988316059113 0.22977153956890106
-0.8134613037109375 -0.5371989607810974 0.22910381853580475
0.23383033275604248 0.9472103118896484 0.22843609750270844
0.46433132886886597 -0.8550744652748108 0.22776837646961212
-0.9232829809188843 0.31836286187171936 0.2271006554365158
0.892838716506958 0.39043810963630676 0.2264329344034195
-0.3978341519832611 -0.8896859884262085 0.22576521337032318
-0.31082940101623535 0.9263653755187988 0.22509747743606567
0.8519263863563538 -0.4717284142971039 0.22442975640296936
-0.9501388669013977 -0.2262086123228073 0.22376203536987305
0.5447312593460083 0.8101944327354431 0.22309431433677673
0.14247706532478333 -0.9640674591064453 0.22242659330368042
-0.7595517635345459 0.6161857843399048 0.2217588722705841
0.9732938408851624 0.06018052250146866 0.2210911512374878
-0.6802874803543091 -0.7004777193069458 0.22042341530323029
0.02530485950410366 0.9776477217674255 0.21975569427013397
0.6386756300926208 -0.7366369962692261 0.21908797323703766
-0.9718369841575623 0.11322901397943497 0.21842025220394135
0.7900531888008118 0.5745208859443665 0.21775253117084503
-0.19766369462013245 -0.9559964537620544 0.21708481013774872
-0.5032483339309692 0.8400280475616455 0.2164170891046524
0.9354971051216125 -0.2780561149120331 0.2157493680715561
-0.8809206485748291 -0.42549651861190796 0.21508163213729858
0.35904309153556824 0.9103966951370239 0.21441391110420227
0.34711334109306335 -0.9125086665153503 0.21374619007110596
-0.8756291270256042 0.4399074912071228 0.21307846903800964
0.9397998452186584 0.2686026692390442 0.21241074800491333
-0.5147736668586731 -0.8315517902374268 0.21174302697181702
-0.1853107064962387 0.9624859094619751 0.2110753059387207
0.7837525606155396 -0.5831606388092041 0.2104075700044632
-0.9751344323158264 -0.09796974807977676 0.20973984897136688
0.6497959494590759 0.7324991822242737 0.20907212793827057
0.012502589263021946 -0.9777392148971558 0.20840440690517426
-0.6729269027709961 0.7140711545944214 0.20773668587207794
0.9755298495292664 -0.07053102552890778 0.20706896483898163
-0.7702364325523376 -0.6055841445922852 0.20640124380588531
0.15574869513511658 0.9684239625930786 0.205733522772789
0.5362381339073181 -0.8179530501365662 0.2050657868385315
-0.9512175917625427 0.2424018383026123 0.20439806580543518
0.8621059656143188 0.46532291173934937 0.20373034477233887
-0.3245714008808136 -0.9241334199905396 0.20306262373924255
-0.38812559843063354 0.902258038520813 0.20239490270614624
0.8926289081573486 -0.40172141790390015 0.20172718167304993
-0.9328436255455017 -0.30533096194267273 0.2010594606399536
0.47851312160491943 0.8568465709686279 0.2003917247056961
0.22282610833644867 -0.9537193775177002 0.1997240036725998
-0.8118028044700623 0.5542611479759216 0.19905628263950348
0.9699752926826477 0.1411471664905548 0.19838856160640717
-0.6231286525726318 -0.7579342126846313 0.19772084057331085
-0.0556652694940567 0.981387734413147 0.19705311954021454
0.7009043097496033 -0.6846803426742554 0.19638539850711823
-0.9826109409332275 0.03286990895867348 0.1957176774740219
0.7436957955360413 0.6410521864891052 0.1950499415397644
-0.11852582544088364 -0.9737265110015869 0.1943822205066681
-0.5735795497894287 0.7996248006820679 0.19371449947357178
0.9600524306297302 -0.2007407248020172 0.19304677844047546
-0.8467814326286316 -0.49909597635269165 0.19237905740737915
0.2841379642486572 0.9415945410728455 0.19171133637428284
0.4234241247177124 -0.8848958611488342 0.19104361534118652
-0.9132362008094788 0.367982417345047 0.19037587940692902
0.9189265966415405 0.3470470607280731 0.1897081583738327
-0.44637608528137207 -0.8752860426902771 0.1890404373407364
-0.2652944326400757 0.9485140442848206 0.18837271630764008
0.8332853317260742 -0.5188115835189819 0.18770499527454376
-0.968173623085022 -0.1788865476846695 0.18703727424144745
0.5899858474731445 0.7874574661254883 0.18636955320835114
0.09373879432678223 -0.9778459072113037 0.18570183217525482
-0.7328963875770569 0.6592563390731812 0.18503409624099731
0.9827068448066711 0.010408157482743263 0.184366375207901
-0.7208355069160461 -0.670112133026123 0.1836986541748047
0.07572103291749954 0.9826204776763916 0.18303093314170837
0.6048372983932495 -0.774343729019165 0.18236321210861206
-0.9723293781280518 0.16389359533786774 0.18169549107551575
0.8246221542358398 0.537474513053894 0.18102777004241943
-0.24817922711372375 -0.9520036578178406 0.18036003410816193
-0.4632837772369385 0.8711873888969421 0.1796923130750656
0.927049458026886 -0.3280262351036072 0.1790245920419693
-0.9084250926971436 -0.38292673230171204 0.17835687100887299
0.4080756604671478 0.8975594639778137 0.17768914997577667
0.30227166414260864 -0.9361416697502136 0.17702142894268036
-0.8585020303726196 0.4876176714897156 0.17635370790958405
0.9593751430511475 0.22184039652347565 0.17568598687648773
-0.5607868432998657 -0.8102681636810303 0.17501825094223022
-0.13699422776699066 0.977849006652832 0.1743505299091339
0.758478581905365 -0.6271155476570129 0.1736828088760376
-0.9861639738082886 -0.04847773537039757 0.17301508784294128
0.6913473606109619 0.7034321427345276 0.17234736680984497
-0.03777699172496796 -0.9843476414680481 0.17167964577674866
-0.6402940154075623 0.7528924942016602 0.17101192474365234
0.9776644110679626 -0.1212039589881897 0.17034418880939484
-0.8060227036476135 -0.569640576839447 0.16967646777629852
0.20641760528087616 0.9660669565200806 0.1690087467432022
0.49726513028144836 -0.8504229187965393 0.1683410257101059
-0.9443865418434143 0.29266929626464844 0.16767330467700958
0.8910039663314819 0.42362546920776367 0.16700558364391327
-0.3740430772304535 -0.9128808975219727 0.16633786261081696
-0.3440301716327667 0.9273568391799927 0.16567014157772064
0.877042293548584 -0.45000913739204407 0.16500240564346313
-0.9539455771446228 -0.2591829001903534 0.16433468461036682
0.5252379179000854 0.8370471596717834 0.1636669635772705
0.17498686909675598 -0.9706581234931946 0.1629992425441742
-0.7879449725151062 0.5990563035011292 0.16233152151107788
0.9826171398162842 0.0919916108250618 0.16166380047798157
-0.6656423807144165 -0.7302042245864868 0.16099607944488525
-0.005578582175076008 0.9896326065063477 0.16032834351062775
0.6695188879966736 -0.724578857421875 0.15966062247753143
-0.9863933324813843 0.0834951400756836 0.15899290144443512
0.7806656956672668 0.6062566041946411 0.1583251804113388
-0.16929271817207336 -0.9730157852172852 0.1576574593782425
-0.5356460213661194 0.8333755135536194 0.15698973834514618
0.9548532962799072 -0.251251220703125 0.15632201731204987
-0.8770477175712585 -0.4583212733268738 0.15565429627895355
0.3339959383010864 0.9319468140602112 0.15498656034469604
0.3801274597644806 -0.9114396572113037 0.15431883931159973
-0.8992146849632263 0.41679680347442627 0.15365111827850342
0.94153892993927 0.3015673756599426 0.1529833972454071
-0.49376392364501953 -0.8569998145103455 0.1523156762123108
-0.21798789501190186 0.9670169353485107 0.15164795517921448
0.8108768463134766 -0.5644010305404663 0.15098023414611816
-0.9824212193489075 -0.13012368977069855 0.15031249821186066
0.6334191560745239 0.7611016631126404 0.14964477717876434
0.04390165954828262 -0.9877256155014038 0.14897705614566803
-0.7027990818023682 0.7001925110816956 0.14830933511257172
0.9881404042243958 -0.04011273756623268 0.1476416140794754
-0.7589530944824219 -0.6365086436271667 0.1469738930463791
0.1265297383069992 0.9835643172264099 0.14630617201328278
0.5679903030395508 -0.8093434572219849 0.14563845098018646
-0.9687753319740295 0.2145918309688568 0.14497071504592896
0.8562289476394653 0.49767228960990906 0.14430299401283264
-0.29836955666542053 -0.9439787268638611 0.14363527297973633
-0.42083778977394104 0.8991528153419495 0.14296755194664001
0.9146156907081604 -0.37731507420539856 0.1422998309135437
-0.9325293302536011 -0.3381692171096802 0.1416321098804474
0.4560764729976654 0.8808134198188782 0.14096438884735107
0.25555306673049927 -0.9561949372291565 0.14029665291309357
-0.8375742435455322 0.5339539051055908 0.13962893187999725
0.9752195477485657 0.17352654039859772 0.13896121084690094
-0.6050950288772583 -0.7853219509124756 0.13829348981380463
-0.08746354281902313 0.9893595576286316 0.1376257687807083
0.7297086715698242 -0.6690479516983032 0.136958047747612
-0.9932495951652527 0.0018817578675225377 0.13629032671451569
0.730574905872345 0.6710634231567383 0.13562260568141937
-0.08857071399688721 -0.9869520664215088 0.13495486974716187
-0.6045794486999512 0.7891072034835815 0.13428714871406555
0.9757663607597351 -0.1720338612794876 0.13361942768096924
-0.8389401435852051 -0.5308595299720764 0.13295170664787292
0.256885290145874 0.9596805572509766 0.1322839856147766
0.45572102069854736 -0.8797845244407654 0.1316162645816803
-0.9335610270500183 0.3423791825771332 0.13094854354858398
0.9165790677070618 0.37964341044425964 0.13028080761432648
-0.42260536551475525 -0.897700309753418 0.12961308658123016
-0.2979544401168823 0.9489442110061646 0.12894536554813385
0.8576248288154602 -0.49704307317733765 0.12827764451503754
-0.9713753461837769 -0.2113742083311081 0.12760992348194122
0.5703746676445007 0.8135443329811096 0.1269422024488449
0.1258196383714676 -0.9837930202484131 0.1262744814157486
-0.7605401873588562 0.6419416666030884 0.12560676038265228
0.9913535118103027 0.04185090586543083 0.12493902444839478
-0.7059400081634521 -0.6991116404533386 0.12427130341529846
0.045142821967601776 0.9939011931419373 0.12360358238220215
0.6349815130233765 -0.7619724273681641 0.12293586134910583
-0.9861599206924438 0.13439986109733582 0.12226814031600952
0.8148617744445801 0.5685445070266724 0.12160041183233261
-0.21998187899589539 -0.9682815074920654 0.1209326907992363
-0.4950541853904724 0.8641055822372437 0.12026496976613998
0.9456544518470764 -0.30132755637168884 0.11959724873304367
-0.9040703177452087 -0.41516733169555664 0.11892952024936676
0.38306698203086853 0.9183547496795654 0.11826179921627045
0.33474910259246826 -0.9345424771308899 0.11759407818317413
-0.8813351988792419 0.46447786688804626 0.11692635715007782
0.9605404138565063 0.25431984663009644 0.11625862866640091
-0.5396811962127686 -0.8349722623825073 0.1155909076333046
-0.16924110054969788 0.9817674160003662 0.11492318660020828
0.7848732471466064 -0.6081943511962891 0.11425546556711197
-0.9928044676780701 -0.08025936037302017 0.11358773708343506
0.6747451424598694 0.731325089931488 0.11292001605033875
-0.006689698435366154 -0.9936595559120178 0.11225229501724243
-0.6694822907447815 0.7387269139289856 0.11158456653356552
0.9895778894424438 -0.09103484451770782 0.11091684550046921
-0.7943935990333557 -0.5999120473861694 0.1102491244673729
0.1773836761713028 0.9804933667182922 0.10958140343427658
0.5284001231193542 -0.8414118885993958 0.10891367495059967
-0.961219310760498 0.26497915387153625 0.10824595391750336
0.8846735954284668 0.4553983211517334 0.10757823288440704
-0.34789541363716125 -0.9319961667060852 0.10691051185131073
-0.3762108087539673 0.9237502217292786 0.10624278336763382
0.8982997536659241 -0.4255913496017456 0.1055750623345375
-0.9530861973762512 -0.2915384769439697 0.10490734130144119
0.5027247667312622 0.8602913618087769 0.10423962026834488
0.20728357136249542 -0.9725496768951416 0.10357189178466797
-0.8130061626434326 0.578608512878418 0.10290417075157166
0.9872434139251709 0.12399622052907944 0.10223644971847534
-0.6474058032035828 -0.7568997740745544 0.10156872123479843
-0.03706023842096329 0.9969576597213745 0.10090100020170212
0.6976544260978699 -0.7086831331253052 0.1002332791686058
-0.9963618516921997 0.052763331681489944 0.09956555813550949
0.767223596572876 0.6356276869773865 0.09889782965183258
-0.13953202962875366 -0.9855533838272095 0.09823010861873627
-0.5660394430160522 0.8224819302558899 0.09756238758563995
0.9698671102523804 -0.22267572581768036 0.09689466655254364
-0.8687789440155029 -0.48951658606529236 0.09622693806886673
0.30681097507476807 0.9493262767791748 0.09555921703577042
0.411898672580719 -0.9058532118797302 0.0948914960026741
-0.9188322424888611 0.39119747281074524 0.09422377496957779
0.9386729001998901 0.3336845934391022 0.09355604648590088
-0.46993374824523926 -0.8787118196487427 0.09288832545280457
-0.25021883845329285 0.9668896198272705 0.09222060441970825
0.8345247507095337 -0.5425105690956116 0.09155287593603134
-0.9850311875343323 -0.16223551332950592 0.09088515490293503
0.6136249303817749 0.7865130305290222 0.09021743386983871
0.07566255331039429 -0.9930517077445984 0.0895497128367424
-0.7297889590263367 0.6826356649398804 0.08888198435306549
0.9961419701576233 -0.008931854739785194 0.08821426331996918
-0.7437586188316345 -0.6648807525634766 0.08754654228687286
0.09615357220172882 0.9941813945770264 0.08687882125377655
0.5975387096405029 -0.7966190576553345 0.08621109277009964
-0.9819291234016418 0.18523909151554108 0.08554337173700333
0.8460646867752075 0.5281826257705688 0.08487565070390701
-0.27025139331817627 -0.9595721364021301 0.0842079296708107
-0.45208898186683655 0.8916199207305908 0.08354020118713379
0.9325342774391174 -0.35063356161117554 0.08287248015403748
-0.9276801943778992 -0.36993497610092163 0.08220475912094116
0.43102318048477173 0.9009259343147278 0.08153703063726425
0.28760358691215515 -0.9540624618530273 0.08086930960416794
-0.8597337007522583 0.5107085108757019 0.08020158857107162
0.975817084312439 0.20563016831874847 0.07953386753797531
-0.5838239789009094 -0.8093668222427368 0.0788661390542984
-0.1193884089589119 0.9926806688308716 0.07819841802120209
0.7554638385772705 -0.649903416633606 0.07753069698810577
-0.9992682933807373 -0.029633929952979088 0.07686297595500946
0.7136934399604797 0.6983416676521301 0.07619524747133255
-0.057691480964422226 -0.9956228733062744 0.07552752643823624
-0.6331826448440552 0.7746091485023499 0.07485980540513992
0.98702472448349 -0.14201360940933228 0.07419208437204361
-0.826928436756134 -0.5605801343917847 0.0735243558883667
0.22794018685817719 0.9734432697296143 0.07285663485527039
0.4863436818122864 -0.8703441023826599 0.07218891382217407
-0.949726939201355 0.31471747159957886 0.07152118533849716
0.9097762703895569 0.4109463095664978 0.07085346430540085
-0.39642590284347534 -0.9161510467529297 0.07018574327230453
-0.32971104979515076 0.9448263049125671 0.06951802223920822
0.8782255053520203 -0.4725338816642761 0.06885029375553131
-0.9699702858924866 -0.243354931473732 0.068182572722435
0.5477115511894226 0.8361446857452393 0.06751485168933868
0.15779335796833038 -0.9851090312004089 0.06684713065624237
-0.7849757671356201 0.6212870478630066 0.06617940217256546
0.9953792691230774 0.07358675450086594 0.06551168113946915
-0.6874417066574097 -0.7252046465873718 0.06484396010637283
0.013873858377337456 1.000605821609497 0.06417623907327652
0.6625425219535828 -0.7457625865936279 0.06350851058959961
-0.9954933524131775 0.10382326692342758 0.0628407895565033
0.801055908203125 0.5973735451698303 0.06217306852340698
-0.1903180032968521 -0.9801744818687439 0.06150534003973007
-0.5249422192573547 0.8528019189834595 0.06083761900663376
0.960019588470459 -0.2727900445461273 0.060169897973537445
-0.8953489065170288 -0.4458978772163391 0.05950217321515083
0.3558611571788788 0.935086727142334 0.05883445218205452
0.3660997748374939 -0.9284646511077881 0.05816672742366791
-0.9003117680549622 0.43879935145378113 0.057499006390571594
0.9571483731269836 0.2860638499259949 0.05683128163218498
-0.5157144665718079 -0.856054961681366 0.05616356059908867
-0.20114898681640625 0.9810841679573059 0.05549583584070206
0.8079086542129517 -0.5861115455627441 0.05482811480760574
-0.99483323097229 -0.11210062354803085 0.05416039004921913
0.6547045111656189 0.7561456561088562 0.05349266901612282
0.02485506422817707 -0.9983841180801392 0.052824944257736206
-0.6959077715873718 0.7208720445632935 0.052157219499349594
0.9969626069068909 -0.06001419201493263 0.05148949846625328
-0.778852105140686 -0.6277506947517395 0.05082177370786667
0.14711083471775055 0.9904834032058716 0.050154052674770355
0.5574501752853394 -0.8282946944236755 0.04948632791638374
-0.9737410545349121 0.23567229509353638 0.04881860688328743
0.8740741014480591 0.48544928431510925 0.04815088212490082
-0.3197656273841858 -0.9469577670097351 0.047483161091804504
-0.4070451557636261 0.9157435894012451 0.04681543633341789
0.9155919551849365 -0.39884108304977417 0.04614771530032158
-0.9477288722991943 -0.322933167219162 0.04547999054193497
0.47754648327827454 0.8797879815101624 0.044812269508838654
0.23901163041591644 -0.9698789119720459 0.04414454475045204
-0.8345653414726257 0.5551831722259521 0.04347682371735573
0.987277090549469 0.1558283418416977 0.042809098958969116
-0.6259016990661621 -0.7803646922111511 0.042141374200582504
-0.0687665343284607 0.9996942281723022 0.04147365316748619
0.7228547930717468 -0.6892545819282532 0.04080592840909958
-1.0017801523208618 0.021411744877696037 0.040138207376003265
0.7500097751617432 0.6623806357383728 0.03947048261761665
-0.10876135528087616 -0.9936129450798035 0.03880276158452034
-0.594150960445404 0.8076061010360718 0.03813503682613373
0.9805085062980652 -0.1927078664302826 0.037467315793037415
-0.8563474416732788 -0.5187831521034241 0.0367995910346508
0.27786195278167725 0.9624714255332947 0.03613187000155449
0.4421084225177765 -0.8959546089172363 0.03546414524316788
-0.9343851208686829 0.36347582936286926 0.034796424210071564
0.9313774704933167 0.3646188974380493 0.03412869945168495
-0.4436390995979309 -0.896558940410614 0.03346097841858864
-0.28165403008461 0.9622489213943481 0.032793253660202026
0.8545363545417786 -0.5178321599960327 0.032125528901815414
-0.9830775856971741 -0.19394440948963165 0.0314578078687191
0.5907402038574219 0.8085435628890991 0.03079008311033249
0.1074160560965538 -0.9937981367111206 0.030122362077236176
-0.753678560256958 0.6617091298103333 0.029454637318849564
0.9995819330215454 0.022636964917182922 0.02878691628575325
-0.7249405980110168 -0.6904561519622803 0.028119193390011787
0.06499730050563812 1.000288963317871 0.027451468631625175
0.6246144771575928 -0.7800445556640625 0.026783745735883713
-0.9906589388847351 0.15472017228603363 0.02611602284014225
0.831852376461029 0.5565627217292786 0.025448299944400787
-0.2405899316072464 -0.9708602428436279 0.024780577048659325
-0.481567919254303 0.8798716068267822 0.024112854152917862
0.9462981820106506 -0.32204341888427734 0.0234451312571764
-0.9184797406196594 -0.4002995193004608 0.022777408361434937
0.40371036529541016 0.9170653223991394 0.022109685465693474
0.31863415241241455 -0.9474753737449646 0.02144196256995201
-0.8781312108039856 0.4848697781562805 0.02077423967421055
0.9718899130821228 0.2371024638414383 0.020106516778469086
-0.559645414352417 -0.8298887014389038 0.019438793882727623
-0.15107502043247223 0.9914408922195435 0.01877107098698616
0.777961254119873 -0.6275589466094971 0.018103348091244698
-1.000723958015442 -0.06130599230527878 0.017435623332858086
0.6933438181877136 0.7226514220237732 0.016767900437116623
-0.02626265585422516 -0.9997624158859253 0.01610017754137516
-0.6591286659240723 0.7564006447792053 0.015432454645633698
0.9938175678253174 -0.11105487495660782 0.014764731749892235
-0.8109918832778931 -0.5879745483398438 0.014097008854150772
0.1976749449968338 0.9828394651412964 0.01342928595840931
0.5149882435798645 -0.8567938208580017 0.012761563062667847
-0.9616577625274658 0.2853640019893646 0.012093840166926384
0.8987093567848206 0.44063374400138855 0.011426117271184921
-0.36819595098495483 -0.9305296540260315 0.010758394375443459
-0.36022675037384033 0.9363219738006592 0.010090670548379421
0.894947350025177 -0.44563087821006775 0.009422947652637959
-0.9640891551971436 -0.2744782865047455 0.008755224756896496
0.5223294496536255 0.8550884127616882 0.008087501861155033
0.18929949402809143 -0.9818928837776184 0.00741977896541357
-0.8060039281845093 0.5976086854934692 0.006752056069672108
0.9948505759239197 0.10524805635213852 0.006084333173930645
-0.6656376123428345 -0.7481648921966553 0.005416609812527895
-0.017713963985443115 1.00276780128479 0.004748886916786432
0.6872684955596924 -0.7259896993637085 0.0040811640210449696
-1.000329613685608 0.07253699749708176 0.0034134406596422195
0.7834565043449402 0.6236863136291504 0.002745717763900757
-0.15955911576747894 -0.9876495599746704 0.002077994868159294
-0.5526514649391174 0.8375025987625122 0.0014102717395871878
0.9700788259506226 -0.24278050661087036 0.0007425486110150814
-0.8824595808982849 -0.4748031795024872 7.48257152736187e-05
0.32681751251220703 0.9476569294929504 -0.0005928972968831658
0.39599213004112244 -0.9180778861045837 -0.0012606203090399504
-0.9153016209602356 0.4109311103820801 -0.0019283434376120567
