ply
format ascii 1.0
element vertex 512
property float x
property float y
property float z
end_header
-0.0021164417266845703 1.0022940635681152 -0.9919251203536987
-0.0021165446378290653 1.0022941827774048 -0.862024188041687
-0.0021166475489735603 1.0022943019866943 -0.7321232557296753
-0.002116750692948699 1.0022944211959839 -0.6022223234176636
-0.002116853604093194 1.0022945404052734 -0.47232142090797424
-0.002116956515237689 1.002294659614563 -0.3424204885959625
-0.002117059426382184 1.002294659614563 -0.212519571185112
-0.0021171625703573227 1.0022947788238525 -0.08261864632368088
-0.0021172654815018177 1.002294898033142 0.047282278537750244
-0.0021173683926463127 1.0022950172424316 0.17718319594860077
-0.0021174713037908077 1.0022951364517212 0.3070841133594513
-0.0021175744477659464 1.0022952556610107 0.436985045671463
-0.0021176773589104414 1.0022953748703003 0.5668859481811523
-0.0021177802700549364 1.0022954940795898 0.6967868804931641
-0.0021178831811994314 1.0022956132888794 0.8266878128051758
-0.00211798632517457 1.002295732498169 0.9565887451171875
-0.20354610681533813 0.9818106889724731 -0.9919252395629883
-0.2035462111234665 0.9818107485771179 -0.8620243072509766
-0.20354631543159485 0.9818108677864075 -0.7321234345436096
-0.2035464197397232 0.981810986995697 -0.6022225022315979
-0.20354650914669037 0.9818111062049866 -0.4723215699195862
-0.20354661345481873 0.9818112254142761 -0.34242063760757446
-0.20354671776294708 0.9818113446235657 -0.21251972019672394
-0.20354682207107544 0.9818114042282104 -0.08261878788471222
-0.2035469263792038 0.9818115234375 0.047282133251428604
-0.20354703068733215 0.9818116426467896 0.17718306183815002
-0.2035471349954605 0.9818117618560791 0.30708399415016174
-0.20354723930358887 0.9818118810653687 0.4369848966598511
-0.20354734361171722 0.9818119406700134 0.5668858289718628
-0.20354744791984558 0.981812059879303 0.6967867612838745
-0.20354755222797394 0.9818121790885925 0.8266876935958862
-0.2035476416349411 0.9818122982978821 0.956588625907898
-0.3967292010784149 0.9211990833282471 -0.9919253587722778
-0.39672932028770447 0.9211992025375366 -0.8620244264602661
-0.39672940969467163 0.9211993217468262 -0.7321234941482544
-0.3967295289039612 0.921199381351471 -0.6022225618362427
-0.39672961831092834 0.9211995005607605 -0.47232165932655334
-0.3967297375202179 0.92119961977005 -0.3424207270145416
-0.39672982692718506 0.9211997389793396 -0.2125198096036911
-0.3967299461364746 0.9211998581886292 -0.08261889219284058
-0.3967300355434418 0.9211999177932739 0.047282032668590546
-0.39673012495040894 0.9212000370025635 0.17718295753002167
-0.3967302441596985 0.921200156211853 0.3070838749408722
-0.39673033356666565 0.9212002754211426 0.4369848072528839
-0.3967304527759552 0.9212003946304321 0.5668857097625732
-0.39673054218292236 0.9212004542350769 0.696786642074585
-0.3967306613922119 0.9212005734443665 0.8266875743865967
-0.3967307507991791 0.921200692653656 0.9565885066986084
-0.5737568140029907 0.8229407072067261 -0.9919254183769226
-0.5737569332122803 0.8229408264160156 -0.8620244860649109
-0.5737570524215698 0.8229409456253052 -0.7321235537528992
-0.5737571120262146 0.8229410648345947 -0.6022226214408875
-0.5737572312355042 0.8229411840438843 -0.4723217189311981
-0.5737573504447937 0.8229413032531738 -0.3424207866191864
-0.5737574696540833 0.8229413628578186 -0.21251986920833588
-0.573757529258728 0.8229414820671082 -0.08261895179748535
-0.5737576484680176 0.8229416012763977 0.04728197306394577
-0.5737577676773071 0.8229417204856873 0.1771828979253769
-0.5737578272819519 0.8229418396949768 0.3070838153362274
-0.5737579464912415 0.8229418992996216 0.43698474764823914
-0.573758065700531 0.8229420185089111 0.5668856501579285
-0.5737581849098206 0.8229421377182007 0.6967865824699402
-0.5737582445144653 0.8229422569274902 0.8266875147819519
-0.5737583637237549 0.8229423761367798 0.9565884470939636
-0.7273814082145691 0.691058337688446 -0.9919254183769226
-0.7273815274238586 0.6910584568977356 -0.8620244860649109
-0.7273816466331482 0.6910585761070251 -0.732123613357544
-0.727381706237793 0.6910586953163147 -0.6022226810455322
-0.7273818254470825 0.6910587549209595 -0.4723217487335205
-0.7273819446563721 0.691058874130249 -0.3424208164215088
-0.7273820042610168 0.6910589933395386 -0.21251988410949707
-0.7273821234703064 0.6910591125488281 -0.08261896669864655
-0.727382242679596 0.6910592317581177 0.047281961888074875
-0.7273823618888855 0.6910593509674072 0.1771828830242157
-0.7273824214935303 0.691059410572052 0.3070838153362274
-0.7273825407028198 0.6910595297813416 0.43698474764823914
-0.7273826599121094 0.6910596489906311 0.5668856501579285
-0.7273827791213989 0.6910597681999207 0.6967865824699402
-0.7273828387260437 0.6910598874092102 0.8266875147819519
-0.7273829579353333 0.691059947013855 0.9565884470939636
-0.851313591003418 0.530951201915741 -0.9919254183769226
-0.8513136506080627 0.5309513211250305 -0.8620244860649109
-0.8513137698173523 0.5309514403343201 -0.7321235537528992
-0.8513138890266418 0.5309514999389648 -0.6022226214408875
-0.8513140082359314 0.5309516191482544 -0.47232168912887573
-0.8513140678405762 0.530951738357544 -0.3424207866191864
-0.8513141870498657 0.5309518575668335 -0.21251985430717468
-0.8513143062591553 0.530951976776123 -0.08261892944574356
-0.8513144254684448 0.5309520959854126 0.04728199541568756
-0.8513144850730896 0.5309521555900574 0.17718292772769928
-0.8513146042823792 0.5309522747993469 0.3070838451385498
-0.8513147234916687 0.5309523940086365 0.4369847774505615
-0.8513147830963135 0.530952513217926 0.5668857097625732
-0.851314902305603 0.5309526324272156 0.696786642074585
-0.8513150215148926 0.5309526920318604 0.8266875147819519
-0.8513151407241821 0.5309528112411499 0.9565884470939636
-0.9404795169830322 0.3491741120815277 -0.9919252991676331
-0.940479576587677 0.3491742014884949 -0.8620243668556213
-0.9404796957969666 0.3491743206977844 -0.7321234941482544
-0.9404798150062561 0.3491744101047516 -0.6022225618362427
-0.9404799342155457 0.34917452931404114 -0.47232162952423096
-0.9404799938201904 0.3491746485233307 -0.34242069721221924
-0.94048011302948 0.34917473793029785 -0.21251976490020752
-0.9404802322387695 0.3491748571395874 -0.082618847489357
-0.9404803514480591 0.34917497634887695 0.04728207737207413
-0.9404804110527039 0.3491750657558441 0.17718300223350525
-0.9404805302619934 0.34917518496513367 0.30708393454551697
-0.940480649471283 0.34917527437210083 0.4369848370552063
-0.9404807090759277 0.3491753935813904 0.566885769367218
-0.9404808282852173 0.34917551279067993 0.6967867016792297
-0.9404809474945068 0.3491756021976471 0.8266876339912415
-0.9404810667037964 0.34917572140693665 0.9565885663032532
-0.9912287592887878 0.15316902101039886 -0.9919251799583435
-0.9912288188934326 0.15316912531852722 -0.8620242476463318
-0.9912289381027222 0.15316922962665558 -0.7321233749389648
-0.9912290573120117 0.15316933393478394 -0.6022224426269531
-0.9912291169166565 0.1531694531440735 -0.4723215103149414
-0.991229236125946 0.15316955745220184 -0.3424205780029297
-0.9912293553352356 0.1531696617603302 -0.21251964569091797
-0.9912294745445251 0.15316976606845856 -0.08261872828006744
-0.9912295341491699 0.15316987037658691 0.047282200306653976
-0.9912296533584595 0.15316998958587646 0.1771831214427948
-0.991229772567749 0.15317009389400482 0.3070840537548065
-0.9912298917770386 0.15317019820213318 0.43698498606681824
-0.9912299513816833 0.15317030251026154 0.5668858885765076
-0.9912300705909729 0.1531704217195511 0.6967868208885193
-0.9912301898002625 0.15317052602767944 0.826687753200531
-0.9912302494049072 0.1531706303358078 0.9565886855125427
-1.0014835596084595 -0.049039579927921295 -0.991925060749054
-1.001483678817749 -0.04903947189450264 -0.8620241284370422
-1.0014837980270386 -0.049039363861083984 -0.7321231961250305
-1.0014839172363281 -0.04903925582766533 -0.6022222638130188
-1.0014840364456177 -0.049039147794246674 -0.4723213315010071
-1.0014841556549072 -0.04903903976082802 -0.34242042899131775
-1.0014841556549072 -0.04903893172740936 -0.21251949667930603
-1.0014842748641968 -0.04903882369399071 -0.08261856436729431
-1.0014843940734863 -0.04903871566057205 0.04728236049413681
-1.0014845132827759 -0.0490386076271534 0.17718328535556793
-1.0014846324920654 -0.04903850331902504 0.30708420276641846
-1.001484751701355 -0.049038395285606384 0.4369851350784302
-1.0014848709106445 -0.04903828725218773 0.5668860673904419
-1.0014848709106445 -0.049038179218769073 0.6967869997024536
-1.001484990119934 -0.04903807118535042 0.8266879320144653
-1.0014851093292236 -0.04903796315193176 0.9565888047218323
-0.9708242416381836 -0.24917323887348175 -0.9919248223304749
-0.9708243608474731 -0.2491731345653534 -0.8620239496231079
-0.9708244204521179 -0.24917303025722504 -0.7321230173110962
-0.9708245396614075 -0.24917291104793549 -0.6022220849990845
-0.970824658870697 -0.24917280673980713 -0.47232115268707275
-0.9708247780799866 -0.24917270243167877 -0.34242022037506104
-0.9708248376846313 -0.24917259812355042 -0.2125193029642105
-0.9708249568939209 -0.24917249381542206 -0.08261837810277939
-0.9708250761032104 -0.2491723746061325 0.04728255048394203
-0.9708251953125 -0.24917227029800415 0.17718347907066345
-0.9708252549171448 -0.2491721659898758 0.30708441138267517
-0.9708253741264343 -0.24917206168174744 0.4369853138923645
-0.9708254933357239 -0.24917194247245789 0.5668862462043762
-0.9708255529403687 -0.24917183816432953 0.6967871785163879
-0.9708256721496582 -0.24917173385620117 0.8266881108283997
-0.9708257913589478 -0.24917162954807281 0.9565890431404114
-0.9005059003829956 -0.43903848528862 -0.9919246435165405
-0.9005059599876404 -0.43903836607933044 -0.8620237112045288
-0.9005060791969299 -0.4390382468700409 -0.7321227788925171
-0.9005061984062195 -0.43903815746307373 -0.6022218465805054
-0.900506317615509 -0.4390380382537842 -0.47232094407081604
-0.9005063772201538 -0.439037948846817 -0.3424200117588043
-0.9005064964294434 -0.43903782963752747 -0.2125190794467926
-0.9005066156387329 -0.4390377104282379 -0.08261816203594208
-0.9005067348480225 -0.43903762102127075 0.047282762825489044
-0.9005067944526672 -0.4390375018119812 0.17718368768692017
-0.9005069136619568 -0.43903738260269165 0.3070846199989319
-0.9005070328712463 -0.4390372931957245 0.4369855225086212
-0.9005070924758911 -0.43903717398643494 0.5668864846229553
-0.9005072116851807 -0.4390370845794678 0.6967873573303223
-0.9005073308944702 -0.4390369653701782 0.826688289642334
-0.9005074501037598 -0.43903684616088867 0.9565892219543457
-0.7934073805809021 -0.6108621954917908 -0.9919244050979614
-0.7934074401855469 -0.6108620762825012 -0.8620234727859497
-0.7934075593948364 -0.6108619570732117 -0.732122540473938
-0.793407678604126 -0.6108618378639221 -0.6022216081619263
-0.7934077382087708 -0.6108617186546326 -0.47232070565223694
-0.7934078574180603 -0.6108616590499878 -0.3424197733402252
-0.7934079766273499 -0.6108615398406982 -0.2125188559293747
-0.7934080958366394 -0.6108614206314087 -0.08261793106794357
-0.7934081554412842 -0.6108613014221191 0.04728299006819725
-0.7934082746505737 -0.6108611822128296 0.17718391120433807
-0.7934083938598633 -0.61086106300354 0.3070848286151886
-0.7934085130691528 -0.6108610033988953 0.4369857609272003
-0.7934085726737976 -0.6108608841896057 0.5668866634368896
-0.7934086918830872 -0.6108607649803162 0.6967875957489014
-0.7934088110923767 -0.6108606457710266 0.8266885280609131
-0.7934088706970215 -0.6108605265617371 0.9565894603729248
-0.6539132595062256 -0.7576098442077637 -0.9919241666793823
-0.6539133787155151 -0.7576097249984741 -0.8620232343673706
-0.6539134979248047 -0.7576096653938293 -0.7321223020553589
-0.6539136171340942 -0.7576095461845398 -0.6022213697433472
-0.653913676738739 -0.7576094269752502 -0.47232046723365784
-0.6539137959480286 -0.7576093077659607 -0.3424195349216461
-0.6539139151573181 -0.7576091885566711 -0.2125186324119568
-0.6539139747619629 -0.7576090693473816 -0.08261770009994507
-0.6539140939712524 -0.7576090097427368 0.04728322476148605
-0.653914213180542 -0.7576088905334473 0.17718414962291718
-0.6539143323898315 -0.7576087713241577 0.3070850670337677
-0.6539143919944763 -0.7576086521148682 0.4369859993457794
-0.6539145112037659 -0.7576085329055786 0.5668869018554688
-0.6539146304130554 -0.7576084733009338 0.6967878341674805
-0.653914749622345 -0.7576083540916443 0.8266887664794922
-0.6539148092269897 -0.7576082348823547 0.9565896987915039
-0.4877345561981201 -0.8732736706733704 -0.9919239282608032
-0.48773467540740967 -0.8732735514640808 -0.8620229959487915
-0.48773476481437683 -0.8732734322547913 -0.7321221232414246
-0.4877348840236664 -0.8732733130455017 -0.6022211909294128
-0.48773497343063354 -0.8732731938362122 -0.4723202586174011
-0.4877350926399231 -0.8732731342315674 -0.3424193263053894
-0.48773518204689026 -0.8732730150222778 -0.21251839399337769
-0.4877353012561798 -0.8732728958129883 -0.08261747658252716
-0.487735390663147 -0.8732727766036987 0.04728345200419426
-0.48773548007011414 -0.8732726573944092 0.17718437314033508
-0.4877355992794037 -0.8732725977897644 0.3070853054523468
-0.48773568868637085 -0.8732724785804749 0.4369862377643585
-0.4877358078956604 -0.8732723593711853 0.5668871402740479
-0.48773589730262756 -0.8732722401618958 0.6967880725860596
-0.4877360165119171 -0.8732721209526062 0.8266890048980713
-0.4877361059188843 -0.8732720017433167 0.956589937210083
-0.30167460441589355 -0.9531182646751404 -0.9919237494468689
-0.3016746938228607 -0.9531181454658508 -0.8620228171348572
-0.30167481303215027 -0.953118085861206 -0.7321218848228455
-0.30167490243911743 -0.9531179666519165 -0.6022209525108337
-0.3016749918460846 -0.953117847442627 -0.472320020198822
-0.30167511105537415 -0.9531177282333374 -0.3424191176891327
-0.3016752004623413 -0.9531176090240479 -0.21251818537712097
-0.30167531967163086 -0.9531174898147583 -0.08261726051568985
-0.301675409078598 -0.9531174302101135 0.04728366434574127
-0.3016755282878876 -0.953117311000824 0.177184596657753
-0.30167561769485474 -0.9531171917915344 0.3070855140686035
-0.3016757369041443 -0.9531170725822449 0.43698644638061523
-0.30167582631111145 -0.9531169533729553 0.566887378692627
-0.301675945520401 -0.9531168937683105 0.6967883110046387
-0.30167603492736816 -0.953116774559021 0.8266891837120056
-0.3016761243343353 -0.9531166553497314 0.9565901160240173
-0.1033506691455841 -0.9938748478889465 -0.9919235110282898
-0.10335077345371246 -0.9938747882843018 -0.8620226383209229
-0.10335087776184082 -0.9938746690750122 -0.7321217060089111
-0.10335098206996918 -0.9938745498657227 -0.6022207736968994
-0.10335108637809753 -0.9938744306564331 -0.4723198413848877
-0.10335119068622589 -0.9938743114471436 -0.342418909072876
-0.10335128754377365 -0.9938742518424988 -0.21251799166202545
-0.10335139185190201 -0.9938741326332092 -0.08261706680059433
-0.10335149616003036 -0.9938740134239197 0.047283854335546494
-0.10335160046815872 -0.9938738942146301 0.17718477547168732
-0.10335170477628708 -0.9938737750053406 0.30708569288253784
-0.10335180908441544 -0.9938737154006958 0.43698662519454956
-0.1033519059419632 -0.9938735961914062 0.5668875575065613
-0.10335201025009155 -0.9938734769821167 0.696788489818573
-0.10335211455821991 -0.9938733577728271 0.8266894221305847
-0.10335221886634827 -0.9938732385635376 0.9565903544425964
0.09911778569221497 -0.9938748478889465 -0.9919233918190002
0.0991176888346672 -0.9938747882843018 -0.8620224595069885
0.09911758452653885 -0.9938746690750122 -0.7321215271949768
0.09911748021841049 -0.9938745498657227 -0.6022205948829651
0.09911737591028214 -0.9938744306564331 -0.47231969237327576
0.09911727160215378 -0.9938743114471436 -0.34241876006126404
0.09911717474460602 -0.9938742518424988 -0.21251782774925232
0.09911707043647766 -0.9938741326332092 -0.0826169103384018
0.0991169661283493 -0.9938740134239197 0.047284018248319626
0.09911686182022095 -0.9938738942146301 0.17718493938446045
0.09911675751209259 -0.9938737750053406 0.30708587169647217
0.09911665320396423 -0.9938737154006958 0.4369868040084839
0.09911655634641647 -0.9938735961914062 0.5668877363204956
0.09911645203828812 -0.9938734769821167 0.6967886090278625
0.09911634773015976 -0.9938733577728271 0.8266895413398743
0.0991162434220314 -0.9938732385635376 0.956590473651886
0.2974417209625244 -0.9531182646751404 -0.9919232726097107
0.29744160175323486 -0.9531181454658508 -0.862022340297699
0.2974415123462677 -0.953118085861206 -0.7321214079856873
0.29744139313697815 -0.9531179666519165 -0.6022204756736755
0.297441303730011 -0.953117847442627 -0.4723195433616638
0.29744118452072144 -0.9531177282333374 -0.3424186408519745
0.2974410951137543 -0.9531176090240479 -0.21251770853996277
0.2974409759044647 -0.9531174898147583 -0.08261678367853165
0.29744088649749756 -0.9531174302101135 0.047284141182899475
0.2974407970905304 -0.953117311000824 0.17718505859375
0.29744067788124084 -0.9531171917915344 0.3070859909057617
0.2974405884742737 -0.9531170725822449 0.43698692321777344
0.29744046926498413 -0.9531169533729553 0.5668878555297852
0.29744037985801697 -0.9531168937683105 0.6967887878417969
0.2974402606487274 -0.953116774559021 0.8266896605491638
0.29744017124176025 -0.9531166553497314 0.9565905928611755
0.483501672744751 -0.8732736706733704 -0.9919231534004211
0.4835015833377838 -0.8732735514640808 -0.8620222210884094
0.48350146412849426 -0.8732734322547913 -0.7321213483810425
0.4835013747215271 -0.8732733130455017 -0.6022204160690308
0.48350128531455994 -0.8732731938362122 -0.47231948375701904
0.4835011661052704 -0.8732731342315674 -0.3424185514450073
0.4835010766983032 -0.8732730150222778 -0.2125176340341568
0.48350095748901367 -0.8732728958129883 -0.08261670172214508
0.4835008680820465 -0.8732727766036987 0.04728421941399574
0.48350074887275696 -0.8732726573944092 0.17718514800071716
0.4835006594657898 -0.8732725977897644 0.3070860803127289
0.48350054025650024 -0.8732724785804749 0.4369869828224182
0.4835004508495331 -0.8732723593711853 0.5668879151344299
0.48350033164024353 -0.8732722401618958 0.6967888474464417
0.48350024223327637 -0.8732721209526062 0.8266897797584534
0.4835001528263092 -0.8732720017433167 0.9565907120704651
0.6496803760528564 -0.7576098442077637 -0.9919231534004211
0.6496803164482117 -0.7576097249984741 -0.8620222210884094
0.6496801972389221 -0.7576096653938293 -0.7321212887763977
0.6496800780296326 -0.7576095461845398 -0.602220356464386
0.649679958820343 -0.7576094269752502 -0.47231945395469666
0.6496798992156982 -0.7576093077659607 -0.34241852164268494
0.6496797800064087 -0.7576091885566711 -0.21251758933067322
0.6496796607971191 -0.7576090693473816 -0.0826166644692421
0.6496796011924744 -0.7576090097427368 0.04728425666689873
0.6496794819831848 -0.7576088905334473 0.17718517780303955
0.6496793627738953 -0.7576087713241577 0.30708611011505127
0.6496792435646057 -0.7576086521148682 0.436987042427063
0.6496791839599609 -0.7576085329055786 0.5668879747390747
0.6496790647506714 -0.7576084733009338 0.6967889070510864
0.6496789455413818 -0.7576083540916443 0.8266897797584534
0.6496788263320923 -0.7576082348823547 0.9565907120704651
0.789174497127533 -0.6108621954917908 -0.9919231534004211
0.7891743779182434 -0.6108620762825012 -0.8620222210884094
0.7891742587089539 -0.6108619570732117 -0.7321212887763977
0.7891741394996643 -0.6108618378639221 -0.602220356464386
0.7891740798950195 -0.6108617186546326 -0.47231945395469666
0.78917396068573 -0.6108616590499878 -0.34241852164268494
0.7891738414764404 -0.6108615398406982 -0.2125176042318344
0.7891737222671509 -0.6108614206314087 -0.08261667937040329
0.7891736626625061 -0.6108613014221191 0.04728424549102783
0.7891735434532166 -0.6108611822128296 0.17718516290187836
0.789173424243927 -0.61086106300354 0.3070860803127289
0.7891733646392822 -0.6108610033988953 0.4369870126247406
0.7891732454299927 -0.6108608841896057 0.5668879151344299
0.7891731262207031 -0.6108607649803162 0.6967888474464417
0.7891730070114136 -0.6108606457710266 0.8266897797584534
0.7891729474067688 -0.6108605265617371 0.9565907120704651
0.8962730169296265 -0.43903848528862 -0.9919232130050659
0.8962728977203369 -0.43903836607933044 -0.8620222806930542
0.8962727785110474 -0.4390382468700409 -0.7321213483810425
0.8962727189064026 -0.43903815746307373 -0.6022204160690308
0.896272599697113 -0.4390380382537842 -0.47231951355934143
0.8962724804878235 -0.439037948846817 -0.3424185812473297
0.8962723612785339 -0.43903782963752747 -0.2125176638364792
0.8962723016738892 -0.4390377104282379 -0.08261673897504807
0.8962721824645996 -0.43903762102127075 0.04728418588638306
0.8962720632553101 -0.4390375018119812 0.17718511819839478
0.8962719440460205 -0.43903738260269165 0.3070860505104065
0.8962718844413757 -0.4390372931957245 0.4369869530200958
0.8962717652320862 -0.43903717398643494 0.5668878555297852
0.8962716460227966 -0.4390370845794678 0.6967887878417969
0.8962715864181519 -0.4390369653701782 0.8266897201538086
0.8962714672088623 -0.43903684616088867 0.9565906524658203
0.9665913581848145 -0.24917323887348175 -0.9919233322143555
0.9665912389755249 -0.2491731345653534 -0.8620223999023438
0.9665911793708801 -0.24917303025722504 -0.732121467590332
0.9665910601615906 -0.24917291104793549 -0.6022205352783203
0.966590940952301 -0.24917280673980713 -0.4723196029663086
0.9665908217430115 -0.24917270243167877 -0.34241870045661926
0.9665907621383667 -0.24917259812355042 -0.21251776814460754
0.9665906429290771 -0.24917249381542206 -0.08261683583259583
0.9665905237197876 -0.2491723746061325 0.047284085303545
0.966590404510498 -0.24917227029800415 0.17718501389026642
0.9665903449058533 -0.2491721659898758 0.30708593130111694
0.9665902256965637 -0.24917206168174744 0.43698686361312866
0.9665901064872742 -0.24917194247245789 0.5668877959251404
0.9665900468826294 -0.24917183816432953 0.6967887282371521
0.9665899276733398 -0.24917173385620117 0.8266896605491638
0.9665898084640503 -0.24917162954807281 0.9565905332565308
0.9972507357597351 -0.049039579927921295 -0.991923451423645
0.9972506165504456 -0.04903947189450264 -0.8620225191116333
0.997250497341156 -0.049039363861083984 -0.7321215867996216
0.9972503781318665 -0.04903925582766533 -0.6022206544876099
0.9972503185272217 -0.049039147794246674 -0.47231975197792053
0.9972501993179321 -0.04903903976082802 -0.3424188196659088
0.9972500801086426 -0.04903893172740936 -0.2125179022550583
0.997249960899353 -0.04903882369399071 -0.08261697739362717
0.9972499012947083 -0.04903871566057205 0.04728394374251366
0.9972497820854187 -0.0490386076271534 0.17718486487865448
0.9972496628761292 -0.04903850331902504 0.307085782289505
0.9972496032714844 -0.049038395285606384 0.4369867146015167
0.9972494840621948 -0.04903828725218773 0.566887617111206
0.9972493648529053 -0.049038179218769073 0.6967885494232178
0.9972492456436157 -0.04903807118535042 0.8266894817352295
0.997249186038971 -0.04903796315193176 0.9565904140472412
0.9869958758354187 0.15316902101039886 -0.9919236302375793
0.9869957566261292 0.15316912531852722 -0.8620226979255676
0.9869956374168396 0.15316922962665558 -0.7321217656135559
0.98699551820755 0.15316933393478394 -0.6022208333015442
0.9869954586029053 0.1531694531440735 -0.47231993079185486
0.9869953393936157 0.15316955745220184 -0.34241899847984314
0.9869952201843262 0.1531696617603302 -0.21251808106899261
0.9869951009750366 0.15316976606845856 -0.08261715620756149
0.9869950413703918 0.15316987037658691 0.04728376865386963
0.9869949221611023 0.15316998958587646 0.17718468606472015
0.9869948029518127 0.15317009389400482 0.3070856034755707
0.986994743347168 0.15317019820213318 0.4369865357875824
0.9869946241378784 0.15317030251026154 0.5668874382972717
0.9869945049285889 0.1531704217195511 0.6967883706092834
0.9869943857192993 0.15317052602767944 0.8266893029212952
0.9869943261146545 0.1531706303358078 0.9565902352333069
0.9362466335296631 0.3491741120815277 -0.9919238090515137
0.9362465143203735 0.3491742014884949 -0.862022876739502
0.936246395111084 0.3491743206977844 -0.732122004032135
0.9362463355064392 0.3491744101047516 -0.6022210717201233
0.9362462162971497 0.34917452931404114 -0.4723201394081116
0.9362460970878601 0.3491746485233307 -0.34241920709609985
0.9362459778785706 0.34917473793029785 -0.21251828968524933
0.9362459182739258 0.3491748571395874 -0.08261735737323761
0.9362457990646362 0.34917497634887695 0.047283563762903214
0.9362456798553467 0.3491750657558441 0.17718449234962463
0.9362455606460571 0.34917518496513367 0.30708542466163635
0.9362455010414124 0.34917527437210083 0.4369863271713257
0.9362453818321228 0.3491753935813904 0.5668872594833374
0.9362452626228333 0.34917551279067993 0.6967881917953491
0.9362452030181885 0.3491756021976471 0.8266891241073608
0.9362450838088989 0.34917572140693665 0.9565900564193726
0.8470807075500488 0.530951201915741 -0.9919240474700928
0.8470805883407593 0.5309513211250305 -0.862023115158081
0.8470804691314697 0.5309514403343201 -0.7321221828460693
0.847080409526825 0.5309514999389648 -0.6022212505340576
0.8470802903175354 0.5309516191482544 -0.4723203480243683
0.8470801711082458 0.530951738357544 -0.34241944551467896
0.8470800518989563 0.5309518575668335 -0.21251851320266724
0.8470799922943115 0.530951976776123 -0.08261758089065552
0.847079873085022 0.5309520959854126 0.047283343970775604
0.8470797538757324 0.5309521555900574 0.17718426883220673
0.8470796346664429 0.5309522747993469 0.30708518624305725
0.8470795750617981 0.5309523940086365 0.43698611855506897
0.8470794558525085 0.530952513217926 0.5668870210647583
0.847079336643219 0.5309526324272156 0.69678795337677
0.8470792770385742 0.5309526920318604 0.8266888856887817
0.8470791578292847 0.5309528112411499 0.9565898180007935
0.7231485247612 0.691058337688446 -0.9919242858886719
0.7231484055519104 0.6910584568977356 -0.8620233535766602
0.7231483459472656 0.6910585761070251 -0.7321224212646484
0.7231482267379761 0.6910586953163147 -0.6022214889526367
0.7231481075286865 0.6910587549209595 -0.4723205864429474
0.723147988319397 0.691058874130249 -0.34241965413093567
0.7231479287147522 0.6910589933395386 -0.21251873672008514
0.7231478095054626 0.6910591125488281 -0.08261781185865402
0.7231476902961731 0.6910592317581177 0.0472831092774868
0.7231476306915283 0.6910593509674072 0.17718403041362762
0.7231475114822388 0.691059410572052 0.30708494782447815
0.7231473922729492 0.6910595297813416 0.43698588013648987
0.7231472730636597 0.6910596489906311 0.5668867826461792
0.7231472134590149 0.6910597681999207 0.6967877149581909
0.7231470942497253 0.6910598874092102 0.8266886472702026
0.7231469750404358 0.691059947013855 0.9565895795822144
0.5695239305496216 0.8229407072067261 -0.991924524307251
0.569523811340332 0.8229408264160156 -0.8620235919952393
0.5695237517356873 0.8229409456253052 -0.7321226596832275
0.5695236325263977 0.8229410648345947 -0.6022217273712158
0.5695235133171082 0.8229411840438843 -0.4723208248615265
0.5695234537124634 0.8229413032531738 -0.34241989254951477
0.5695233345031738 0.8229413628578186 -0.21251897513866425
0.5695232152938843 0.8229414820671082 -0.08261804282665253
0.5695230960845947 0.8229416012763977 0.047282878309488297
0.56952303647995 0.8229417204856873 0.17718380689620972
0.5695229172706604 0.8229418396949768 0.30708473920822144
0.5695227980613708 0.8229418992996216 0.43698564171791077
0.5695226788520813 0.8229420185089111 0.5668866038322449
0.5695226192474365 0.8229421377182007 0.6967874765396118
0.569522500038147 0.8229422569274902 0.8266884088516235
0.5695223808288574 0.8229423761367798 0.9565893411636353
0.3924963176250458 0.9211990833282471 -0.9919247627258301
0.3924962282180786 0.9211992025375366 -0.8620238304138184
0.39249610900878906 0.9211993217468262 -0.7321228981018066
0.3924960196018219 0.921199381351471 -0.6022219657897949
0.39249593019485474 0.9211995005607605 -0.4723210334777832
0.3924958109855652 0.92119961977005 -0.3424201011657715
0.392495721578598 0.9211997389793396 -0.21251918375492096
0.39249560236930847 0.9211998581886292 -0.08261826634407043
0.3924955129623413 0.9211999177932739 0.04728265851736069
0.39249539375305176 0.9212000370025635 0.1771835833787918
0.3924953043460846 0.921200156211853 0.30708450078964233
0.39249518513679504 0.9212002754211426 0.43698543310165405
0.3924950957298279 0.9212003946304321 0.5668863654136658
0.39249497652053833 0.9212004542350769 0.6967872977256775
0.39249488711357117 0.9212005734443665 0.8266882300376892
0.392494797706604 0.921200692653656 0.9565891027450562
0.199313223361969 0.9818106889724731 -0.9919249415397644
0.19931311905384064 0.9818107485771179 -0.8620240092277527
0.19931301474571228 0.9818108677864075 -0.732123076915741
0.19931291043758392 0.981810986995697 -0.6022221446037292
0.19931280612945557 0.9818111062049866 -0.4723212420940399
0.1993127018213272 0.9818112254142761 -0.3424203097820282
0.19931259751319885 0.9818113446235657 -0.21251939237117767
0.1993124932050705 0.9818114042282104 -0.08261846750974655
0.19931238889694214 0.9818115234375 0.04728245362639427
0.19931229948997498 0.9818116426467896 0.1771833747625351
0.19931219518184662 0.9818117618560791 0.3070842921733856
0.19931209087371826 0.9818118810653687 0.43698522448539734
0.1993119865655899 0.9818119406700134 0.5668861269950867
0.19931188225746155 0.981812059879303 0.6967870593070984
0.1993117779493332 0.9818121790885925 0.8266879916191101
0.19931167364120483 0.9818122982978821 0.9565889239311218
-0.0021164417266845703 1.0022940635681152 -0.9919251203536987
-0.0021165446378290653 1.0022941827774048 -0.862024188041687
-0.0021166475489735603 1.0022943019866943 -0.7321232557296753
-0.002116750692948699 1.0022944211959839 -0.6022223234176636
-0.002116853604093194 1.0022945404052734 -0.47232142090797424
-0.002116956515237689 1.002294659614563 -0.3424204885959625
-0.002117059426382184 1.002294659614563 -0.212519571185112
-0.0021171625703573227 1.0022947788238525 -0.08261864632368088
-0.0021172654815018177 1.002294898033142 0.047282278537750244
-0.0021173683926463127 1.0022950172424316 0.17718319594860077
-0.0021174713037908077 1.0022951364517212 0.3070841133594513
-0.0021175744477659464 1.0022952556610107 0.436985045671463
-0.0021176773589104414 1.0022953748703003 0.5668859481811523
-0.0021177802700549364 1.0022954940795898 0.6967868804931641
-0.0021178831811994314 1.0022956132888794 0.8266878128051758
-0.00211798632517457 1.002295732498169 0.9565887451171875
