ply
format ascii 1.0
element vertex 512
property float x
property float y
property float z
end_header
0.8724179267883301 1.7955412864685059 -1.451940894126892
0.8724179267883301 1.7955412864685059 -1.167417287826538
0.8724179267883301 1.7955412864685059 -0.8828936219215393
0.8724179267883301 1.7955412864685059 -0.5983700156211853
0.8724179267883301 1.7955412864685059 -0.3138463497161865
0.8724179267883301 1.7955411672592163 -0.029322704300284386
0.8724179267883301 1.7955411672592163 0.25520095229148865
0.8724179267883301 1.7955411672592163 0.539724588394165
0.8724179267883301 1.7955411672592163 0.8242482542991638
0.8724179267883301 1.7955411672592163 1.1087719202041626
0.8724179267883301 1.7955411672592163 1.3932955265045166
0.8724179267883301 1.7955411672592163 1.6778191328048706
0.8724179863929749 1.7955411672592163 1.9623428583145142
0.8724179863929749 1.7955411672592163 2.246866464614868
0.8724179863929749 1.7955411672592163 2.5313901901245117
0.8724179863929749 1.7955410480499268 2.815913677215576
0.498643696308136 1.7575321197509766 -1.451940894126892
0.498643696308136 1.7575321197509766 -1.167417287826538
0.498643696308136 1.7575321197509766 -0.8828936219215393
0.498643696308136 1.7575321197509766 -0.5983700156211853
0.498643696308136 1.7575321197509766 -0.3138463497161865
0.4986437261104584 1.7575321197509766 -0.029322702437639236
0.4986437261104584 1.7575321197509766 0.25520095229148865
0.4986437261104584 1.7575321197509766 0.539724588394165
0.4986437261104584 1.7575321197509766 0.8242482542991638
0.4986437261104584 1.757532000541687 1.1087719202041626
0.4986437261104584 1.757532000541687 1.3932955265045166
0.4986437261104584 1.757532000541687 1.6778191328048706
0.4986437261104584 1.757532000541687 1.9623428583145142
0.4986437261104584 1.757532000541687 2.246866464614868
0.4986437261104584 1.757532000541687 2.5313901901245117
0.4986437261104584 1.757532000541687 2.815913677215576
0.1401718258857727 1.6450608968734741 -1.451940894126892
0.1401718407869339 1.6450608968734741 -1.167417287826538
0.1401718407869339 1.6450608968734741 -0.8828936219215393
0.1401718407869339 1.6450608968734741 -0.5983700156211853
0.1401718407869339 1.6450608968734741 -0.3138463497161865
0.1401718407869339 1.6450607776641846 -0.029322704300284386
0.1401718407869339 1.6450607776641846 0.25520095229148865
0.1401718556880951 1.6450607776641846 0.539724588394165
0.1401718556880951 1.6450607776641846 0.8242482542991638
0.1401718556880951 1.6450607776641846 1.1087719202041626
0.1401718556880951 1.6450607776641846 1.3932955265045166
0.1401718556880951 1.6450607776641846 1.6778191328048706
0.1401718705892563 1.6450607776641846 1.9623428583145142
0.1401718705892563 1.6450607776641846 2.246866464614868
0.1401718705892563 1.6450607776641846 2.5313901901245117
0.1401718705892563 1.645060658454895 2.815913677215576
-0.1883217990398407 1.4627320766448975 -1.451940894126892
-0.1883217841386795 1.4627320766448975 -1.167417287826538
-0.1883217841386795 1.4627320766448975 -0.8828936219215393
-0.1883217841386795 1.462731957435608 -0.5983700156211853
-0.1883217841386795 1.462731957435608 -0.3138463497161865
-0.1883217841386795 1.462731957435608 -0.029322708025574684
-0.1883217841386795 1.462731957435608 0.25520095229148865
-0.1883217692375183 1.462731957435608 0.539724588394165
-0.1883217692375183 1.462731957435608 0.8242482542991638
-0.1883217692375183 1.462731957435608 1.1087719202041626
-0.1883217692375183 1.462731957435608 1.3932955265045166
-0.1883217692375183 1.462731957435608 1.6778191328048706
-0.18832175433635712 1.462731957435608 1.9623428583145142
-0.18832175433635712 1.4627318382263184 2.246866464614868
-0.18832175433635712 1.4627318382263184 2.5313901901245117
-0.18832175433635712 1.4627318382263184 2.815913677215576
-0.4733886122703552 1.2180101871490479 -1.451940894126892
-0.4733886122703552 1.2180101871490479 -1.167417287826538
-0.4733886122703552 1.2180101871490479 -0.8828936815261841
-0.4733886122703552 1.2180101871490479 -0.5983700156211853
-0.4733886122703552 1.2180101871490479 -0.3138463497161865
-0.47338858246803284 1.2180101871490479 -0.02932271547615528
-0.47338858246803284 1.2180101871490479 0.25520092248916626
-0.47338858246803284 1.2180101871490479 0.539724588394165
-0.47338858246803284 1.2180100679397583 0.824248194694519
-0.47338858246803284 1.2180100679397583 1.1087719202041626
-0.47338858246803284 1.2180100679397583 1.3932955265045166
-0.47338858246803284 1.2180100679397583 1.6778191328048706
-0.47338858246803284 1.2180100679397583 1.9623428583145142
-0.47338858246803284 1.2180100679397583 2.246866464614868
-0.47338858246803284 1.2180100679397583 2.5313901901245117
-0.47338858246803284 1.2180100679397583 2.815913677215576
-0.7033579349517822 0.920914351940155 -1.4519410133361816
-0.7033579349517822 0.9209142923355103 -1.167417287826538
-0.7033579349517822 0.9209142923355103 -0.8828936815261841
-0.7033579349517822 0.9209142923355103 -0.5983700156211853
-0.7033579349517822 0.9209142923355103 -0.3138463795185089
-0.7033579349517822 0.9209142923355103 -0.029322726652026176
-0.7033579349517822 0.9209142327308655 0.25520092248916626
-0.7033579349517822 0.9209142327308655 0.539724588394165
-0.7033579349517822 0.9209142327308655 0.824248194694519
-0.7033579349517822 0.9209142327308655 1.108771800994873
-0.7033579349517822 0.9209141731262207 1.3932955265045166
-0.7033579349517822 0.9209141731262207 1.6778191328048706
-0.7033579349517822 0.9209141731262207 1.9623427391052246
-0.7033579349517822 0.9209141731262207 2.246866464614868
-0.7033579349517822 0.9209141731262207 2.5313901901245117
-0.7033579349517822 0.9209141135215759 2.815913677215576
-0.8688148260116577 0.5836074948310852 -1.4519410133361816
-0.8688148260116577 0.5836074948310852 -1.167417287826538
-0.8688148260116577 0.5836074948310852 -0.8828936815261841
-0.8688148260116577 0.5836074948310852 -0.5983700156211853
-0.8688148260116577 0.5836074352264404 -0.3138463795185089
-0.8688148260116577 0.5836074352264404 -0.02932273969054222
-0.8688148260116577 0.5836074352264404 0.25520089268684387
-0.8688148260116577 0.5836074352264404 0.5397245287895203
-0.8688148260116577 0.5836074352264404 0.824248194694519
-0.8688148260116577 0.5836073756217957 1.108771800994873
-0.8688148260116577 0.5836073756217957 1.3932955265045166
-0.8688148260116577 0.5836073756217957 1.6778191328048706
-0.8688148260116577 0.5836073756217957 1.9623427391052246
-0.8688148260116577 0.5836073756217957 2.246866464614868
-0.8688148260116577 0.5836073160171509 2.5313901901245117
-0.8688148260116577 0.5836073160171509 2.815913677215576
-0.9629854559898376 0.21989916265010834 -1.4519410133361816
-0.9629854559898376 0.21989914774894714 -1.167417287826538
-0.9629854559898376 0.21989914774894714 -0.8828936815261841
-0.9629854559898376 0.21989913284778595 -0.5983700752258301
-0.9629854559898376 0.21989911794662476 -0.3138464093208313
-0.9629854559898376 0.21989910304546356 -0.029322754591703415
-0.9629854559898376 0.21989908814430237 0.25520089268684387
-0.9629854559898376 0.21989908814430237 0.5397245287895203
-0.9629854559898376 0.21989907324314117 0.824248194694519
-0.9629854559898376 0.21989905834197998 1.108771800994873
-0.9629854559898376 0.2198990434408188 1.3932955265045166
-0.9629853963851929 0.2198990285396576 1.6778191328048706
-0.9629853963851929 0.2198990136384964 1.9623427391052246
-0.9629853963851929 0.2198990136384964 2.246866464614868
-0.9629853963851929 0.2198989987373352 2.5313899517059326
-0.9629853963851929 0.219898983836174 2.815913677215576
-0.9820144176483154 -0.1553204506635666 -1.4519410133361816
-0.9820144176483154 -0.15532046556472778 -1.1674174070358276
-0.9820144176483154 -0.15532048046588898 -0.8828936815261841
-0.9820144176483154 -0.15532049536705017 -0.5983700752258301
-0.9820144176483154 -0.15532051026821136 -0.3138464093208313
-0.9820144176483154 -0.15532051026821136 -0.02932276949286461
-0.9820144176483154 -0.15532052516937256 0.2552008628845215
-0.9820144176483154 -0.15532054007053375 0.5397245287895203
-0.9820144176483154 -0.15532055497169495 0.824248194694519
-0.9820144176483154 -0.15532056987285614 1.108771800994873
-0.9820144176483154 -0.15532056987285614 1.393295407295227
-0.9820144176483154 -0.15532058477401733 1.6778191328048706
-0.9820144176483154 -0.15532059967517853 1.9623427391052246
-0.9820144176483154 -0.15532061457633972 2.246866464614868
-0.9820144176483154 -0.15532062947750092 2.5313899517059326
-0.9820144176483154 -0.1553206443786621 2.815913677215576
-0.9251227378845215 -0.5266898274421692 -1.4519410133361816
-0.9251227378845215 -0.5266898274421692 -1.1674174070358276
-0.9251227378845215 -0.5266898274421692 -0.8828937411308289
-0.9251227378845215 -0.5266898274421692 -0.5983700752258301
-0.9251227378845215 -0.526689887046814 -0.3138464391231537
-0.9251227378845215 -0.526689887046814 -0.029322786256670952
-0.9251227378845215 -0.526689887046814 0.2552008628845215
-0.9251227378845215 -0.526689887046814 0.5397245287895203
-0.9251227378845215 -0.526689887046814 0.8242481350898743
-0.9251227378845215 -0.5266899466514587 1.108771800994873
-0.9251227378845215 -0.5266899466514587 1.393295407295227
-0.9251227378845215 -0.5266899466514587 1.6778191328048706
-0.9251227378845215 -0.5266899466514587 1.9623427391052246
-0.9251227378845215 -0.5266899466514587 2.246866464614868
-0.9251227378845215 -0.5266900062561035 2.5313899517059326
-0.9251226782798767 -0.5266900062561035 2.815913677215576
-0.794639527797699 -0.8790050148963928 -1.4519410133361816
-0.794639527797699 -0.8790050148963928 -1.1674174070358276
-0.794639527797699 -0.8790050148963928 -0.8828937411308289
-0.794639527797699 -0.8790050745010376 -0.5983700752258301
-0.794639527797699 -0.8790050745010376 -0.3138464391231537
-0.794639527797699 -0.8790050745010376 -0.029322803020477295
-0.794639527797699 -0.8790050745010376 0.2552008330821991
-0.794639527797699 -0.8790050745010376 0.5397244691848755
-0.794639527797699 -0.8790051341056824 0.8242481350898743
-0.794639527797699 -0.8790051341056824 1.108771800994873
-0.794639527797699 -0.8790051341056824 1.393295407295227
-0.794639527797699 -0.8790051341056824 1.6778191328048706
-0.7946394681930542 -0.8790051341056824 1.9623427391052246
-0.7946394681930542 -0.8790051937103271 2.246866464614868
-0.7946394681930542 -0.8790051937103271 2.5313899517059326
-0.7946394681930542 -0.8790051937103271 2.815913677215576
-0.5959067940711975 -1.1978422403335571 -1.4519410133361816
-0.5959067940711975 -1.1978422403335571 -1.1674174070358276
-0.5959067940711975 -1.1978422403335571 -0.8828937411308289
-0.5959067940711975 -1.1978422403335571 -0.5983701348304749
-0.5959067940711975 -1.1978422403335571 -0.3138464689254761
-0.5959067940711975 -1.1978422403335571 -0.02932281792163849
-0.5959067344665527 -1.1978422403335571 0.2552008330821991
-0.5959067344665527 -1.1978422403335571 0.5397244691848755
-0.5959067344665527 -1.1978423595428467 0.8242481350898743
-0.5959067344665527 -1.1978423595428467 1.108771800994873
-0.5959067344665527 -1.1978423595428467 1.393295407295227
-0.5959067344665527 -1.1978423595428467 1.677819013595581
-0.5959067344665527 -1.1978423595428467 1.9623427391052246
-0.5959067344665527 -1.1978423595428467 2.246866464614868
-0.5959067344665527 -1.1978423595428467 2.5313899517059326
-0.5959067344665527 -1.1978423595428467 2.815913677215576
-0.3370606601238251 -1.4701482057571411 -1.4519410133361816
-0.3370606303215027 -1.4701482057571411 -1.1674174070358276
-0.3370606303215027 -1.4701482057571411 -0.8828937411308289
-0.3370606303215027 -1.4701482057571411 -0.5983701348304749
-0.3370606303215027 -1.4701482057571411 -0.3138464689254761
-0.3370606303215027 -1.4701482057571411 -0.029322832822799683
-0.3370606303215027 -1.4701482057571411 0.2552008032798767
-0.3370606303215027 -1.4701483249664307 0.5397244691848755
-0.3370606303215027 -1.4701483249664307 0.8242481350898743
-0.3370606303215027 -1.4701483249664307 1.108771800994873
-0.3370606303215027 -1.4701483249664307 1.393295407295227
-0.3370606303215027 -1.4701483249664307 1.677819013595581
-0.3370606005191803 -1.4701483249664307 1.9623427391052246
-0.3370606005191803 -1.4701483249664307 2.246866226196289
-0.3370606005191803 -1.4701483249664307 2.5313899517059326
-0.3370606005191803 -1.4701483249664307 2.815913677215576
-0.02869831584393978 -1.6847747564315796 -1.4519411325454712
-0.028698313981294632 -1.6847747564315796 -1.1674174070358276
-0.028698312118649483 -1.6847747564315796 -0.8828938007354736
-0.028698308393359184 -1.6847747564315796 -0.5983701348304749
-0.028698306530714035 -1.6847747564315796 -0.31384649872779846
-0.028698302805423737 -1.6847747564315796 -0.029322843998670578
-0.028698300942778587 -1.6847747564315796 0.2552008032798767
-0.02869829721748829 -1.6847747564315796 0.5397244691848755
-0.02869829535484314 -1.6847747564315796 0.8242480754852295
-0.02869829349219799 -1.6847747564315796 1.1087716817855835
-0.028698289766907692 -1.6847748756408691 1.393295407295227
-0.028698287904262543 -1.6847748756408691 1.677819013595581
-0.028698284178972244 -1.6847748756408691 1.962342619895935
-0.028698282316327095 -1.6847748756408691 2.246866226196289
-0.028698280453681946 -1.6847748756408691 2.5313899517059326
-0.028698276728391647 -1.6847748756408691 2.815913677215576
0.31655582785606384 -1.8329349756240845 -1.4519411325454712
0.31655582785606384 -1.8329349756240845 -1.1674174070358276
0.31655582785606384 -1.8329349756240845 -0.8828938007354736
0.31655582785606384 -1.8329349756240845 -0.5983701348304749
0.31655582785606384 -1.8329349756240845 -0.31384649872779846
0.31655582785606384 -1.8329349756240845 -0.029322853311896324
0.31655582785606384 -1.8329349756240845 0.2552008032798767
0.31655582785606384 -1.8329349756240845 0.5397244095802307
0.31655582785606384 -1.8329349756240845 0.8242480754852295
0.31655582785606384 -1.8329349756240845 1.1087716817855835
0.31655585765838623 -1.832935094833374 1.393295407295227
0.31655585765838623 -1.832935094833374 1.677819013595581
0.31655585765838623 -1.832935094833374 1.962342619895935
0.31655585765838623 -1.832935094833374 2.246866226196289
0.31655585765838623 -1.832935094833374 2.5313899517059326
0.31655585765838623 -1.832935094833374 2.815913677215576
0.6845670342445374 -1.9085631370544434 -1.4519411325454712
0.6845670342445374 -1.9085631370544434 -1.1674174070358276
0.6845670342445374 -1.9085631370544434 -0.8828938007354736
0.6845670342445374 -1.9085631370544434 -0.5983701348304749
0.6845670342445374 -1.9085631370544434 -0.31384649872779846
0.6845670342445374 -1.908563256263733 -0.02932286076247692
0.6845670342445374 -1.908563256263733 0.2552007734775543
0.6845670342445374 -1.908563256263733 0.5397244095802307
0.6845670342445374 -1.908563256263733 0.8242480754852295
0.6845670342445374 -1.908563256263733 1.1087716817855835
0.6845670342445374 -1.908563256263733 1.393295407295227
0.6845670342445374 -1.908563256263733 1.677819013595581
0.6845670342445374 -1.908563256263733 1.962342619895935
0.6845670342445374 -1.908563256263733 2.246866226196289
0.6845670342445374 -1.9085633754730225 2.5313899517059326
0.6845670342445374 -1.9085633754730225 2.815913677215576
1.0602688789367676 -1.9085631370544434 -1.4519411325454712
1.0602688789367676 -1.9085631370544434 -1.1674174070358276
1.0602688789367676 -1.9085631370544434 -0.8828938007354736
1.0602688789367676 -1.9085631370544434 -0.5983701348304749
1.0602688789367676 -1.9085631370544434 -0.31384649872779846
1.0602688789367676 -1.908563256263733 -0.02932286448776722
1.0602688789367676 -1.908563256263733 0.2552007734775543
1.0602688789367676 -1.908563256263733 0.5397244095802307
1.0602688789367676 -1.908563256263733 0.8242480754852295
1.0602688789367676 -1.908563256263733 1.1087716817855835
1.0602688789367676 -1.908563256263733 1.393295407295227
1.0602688789367676 -1.908563256263733 1.677819013595581
1.0602688789367676 -1.908563256263733 1.962342619895935
1.0602688789367676 -1.908563256263733 2.246866226196289
1.0602688789367676 -1.9085633754730225 2.5313899517059326
1.0602688789367676 -1.9085633754730225 2.815913677215576
1.428279995918274 -1.8329349756240845 -1.4519411325454712
1.428279995918274 -1.8329349756240845 -1.1674174070358276
1.428279995918274 -1.8329349756240845 -0.8828938007354736
1.428279995918274 -1.8329349756240845 -0.5983701348304749
1.428279995918274 -1.8329349756240845 -0.31384649872779846
1.428279995918274 -1.8329349756240845 -0.02932286448776722
1.428279995918274 -1.8329349756240845 0.2552007734775543
1.428279995918274 -1.8329349756240845 0.5397244095802307
1.4282801151275635 -1.8329349756240845 0.8242480754852295
1.4282801151275635 -1.8329349756240845 1.1087716817855835
1.4282801151275635 -1.832935094833374 1.393295407295227
1.4282801151275635 -1.832935094833374 1.677819013595581
1.4282801151275635 -1.832935094833374 1.962342619895935
1.4282801151275635 -1.832935094833374 2.246866226196289
1.4282801151275635 -1.832935094833374 2.5313899517059326
1.4282801151275635 -1.832935094833374 2.815913677215576
1.7735341787338257 -1.6847747564315796 -1.4519411325454712
1.7735341787338257 -1.6847747564315796 -1.1674174070358276
1.7735341787338257 -1.6847747564315796 -0.8828938007354736
1.7735341787338257 -1.6847747564315796 -0.5983701348304749
1.7735341787338257 -1.6847747564315796 -0.31384649872779846
1.7735341787338257 -1.6847747564315796 -0.02932286076247692
1.7735341787338257 -1.6847747564315796 0.2552007734775543
1.7735341787338257 -1.6847747564315796 0.5397244095802307
1.7735341787338257 -1.6847747564315796 0.8242480754852295
1.7735341787338257 -1.6847747564315796 1.1087716817855835
1.7735341787338257 -1.6847748756408691 1.393295407295227
1.7735341787338257 -1.6847748756408691 1.677819013595581
1.7735341787338257 -1.6847748756408691 1.962342619895935
1.7735341787338257 -1.6847748756408691 2.246866226196289
1.7735341787338257 -1.6847748756408691 2.5313899517059326
1.7735341787338257 -1.6847748756408691 2.815913677215576
2.0818965435028076 -1.4701482057571411 -1.4519411325454712
2.0818965435028076 -1.4701482057571411 -1.1674174070358276
2.0818965435028076 -1.4701482057571411 -0.8828938007354736
2.0818965435028076 -1.4701482057571411 -0.5983701348304749
2.0818965435028076 -1.4701482057571411 -0.31384649872779846
2.0818965435028076 -1.4701482057571411 -0.029322855174541473
2.0818965435028076 -1.4701482057571411 0.2552008032798767
2.0818965435028076 -1.4701483249664307 0.5397244095802307
2.0818965435028076 -1.4701483249664307 0.8242480754852295
2.0818965435028076 -1.4701483249664307 1.1087716817855835
2.0818965435028076 -1.4701483249664307 1.393295407295227
2.0818965435028076 -1.4701483249664307 1.677819013595581
2.0818965435028076 -1.4701483249664307 1.962342619895935
2.0818965435028076 -1.4701483249664307 2.246866226196289
2.0818965435028076 -1.4701483249664307 2.5313899517059326
2.0818965435028076 -1.4701483249664307 2.815913677215576
2.340742588043213 -1.1978422403335571 -1.4519411325454712
2.340742588043213 -1.1978422403335571 -1.1674174070358276
2.340742588043213 -1.1978422403335571 -0.8828938007354736
2.340742588043213 -1.1978422403335571 -0.5983701348304749
2.340742588043213 -1.1978422403335571 -0.31384649872779846
2.340742588043213 -1.1978422403335571 -0.029322845861315727
2.340742588043213 -1.1978422403335571 0.2552008032798767
2.340742588043213 -1.1978422403335571 0.5397244691848755
2.340742588043213 -1.1978423595428467 0.8242480754852295
2.340742588043213 -1.1978423595428467 1.1087716817855835
2.340742588043213 -1.1978423595428467 1.393295407295227
2.340742588043213 -1.1978423595428467 1.677819013595581
2.340742588043213 -1.1978423595428467 1.962342619895935
2.340742588043213 -1.1978423595428467 2.246866226196289
2.340742588043213 -1.1978423595428467 2.5313899517059326
2.340742588043213 -1.1978423595428467 2.815913677215576
2.539475440979004 -0.8790050148963928 -1.4519410133361816
2.539475440979004 -0.8790050148963928 -1.1674174070358276
2.539475440979004 -0.8790050148963928 -0.8828938007354736
2.539475440979004 -0.8790050745010376 -0.5983701348304749
2.539475440979004 -0.8790050745010376 -0.3138464689254761
2.539475440979004 -0.8790050745010376 -0.029322832822799683
2.539475440979004 -0.8790050745010376 0.2552008032798767
2.539475440979004 -0.8790050745010376 0.5397244691848755
2.539475440979004 -0.8790051341056824 0.8242480754852295
2.539475440979004 -0.8790051341056824 1.108771800994873
2.539475440979004 -0.8790051341056824 1.393295407295227
2.539475440979004 -0.8790051341056824 1.677819013595581
2.539475440979004 -0.8790051341056824 1.9623427391052246
2.539475440979004 -0.8790051937103271 2.246866226196289
2.539475440979004 -0.8790051937103271 2.5313899517059326
2.539475440979004 -0.8790051937103271 2.815913677215576
2.6699585914611816 -0.5266898274421692 -1.4519410133361816
2.6699585914611816 -0.5266898274421692 -1.1674174070358276
2.6699585914611816 -0.5266898274421692 -0.8828937411308289
2.6699585914611816 -0.5266898274421692 -0.5983701348304749
2.6699585914611816 -0.526689887046814 -0.3138464689254761
2.6699585914611816 -0.526689887046814 -0.029322819784283638
2.6699585914611816 -0.526689887046814 0.2552008330821991
2.6699585914611816 -0.526689887046814 0.5397244691848755
2.6699585914611816 -0.526689887046814 0.8242481350898743
2.6699585914611816 -0.5266899466514587 1.108771800994873
2.6699585914611816 -0.5266899466514587 1.393295407295227
2.6699585914611816 -0.5266899466514587 1.677819013595581
2.6699585914611816 -0.5266899466514587 1.9623427391052246
2.6699585914611816 -0.5266899466514587 2.246866464614868
2.6699585914611816 -0.5266900062561035 2.5313899517059326
2.6699585914611816 -0.5266900062561035 2.815913677215576
2.7268502712249756 -0.1553204506635666 -1.4519410133361816
2.7268502712249756 -0.15532046556472778 -1.1674174070358276
2.7268502712249756 -0.15532048046588898 -0.8828937411308289
2.7268502712249756 -0.15532049536705017 -0.5983700752258301
2.7268502712249756 -0.15532051026821136 -0.3138464391231537
2.7268502712249756 -0.15532051026821136 -0.029322804883122444
2.7268502712249756 -0.15532052516937256 0.2552008330821991
2.7268502712249756 -0.15532054007053375 0.5397244691848755
2.7268502712249756 -0.15532055497169495 0.8242481350898743
2.7268502712249756 -0.15532056987285614 1.108771800994873
2.7268502712249756 -0.15532056987285614 1.393295407295227
2.7268502712249756 -0.15532058477401733 1.677819013595581
2.7268502712249756 -0.15532059967517853 1.9623427391052246
2.7268502712249756 -0.15532061457633972 2.246866464614868
2.7268502712249756 -0.15532062947750092 2.5313899517059326
2.7268502712249756 -0.1553206443786621 2.815913677215576
2.7078213691711426 0.21989916265010834 -1.4519410133361816
2.7078213691711426 0.21989914774894714 -1.1674174070358276
2.7078213691711426 0.21989914774894714 -0.8828937411308289
2.7078213691711426 0.21989913284778595 -0.5983700752258301
2.7078213691711426 0.21989911794662476 -0.3138464391231537
2.7078213691711426 0.21989910304546356 -0.0293227881193161
2.7078213691711426 0.21989908814430237 0.2552008628845215
2.7078213691711426 0.21989908814430237 0.5397245287895203
2.7078213691711426 0.21989907324314117 0.8242481350898743
2.7078213691711426 0.21989905834197998 1.108771800994873
2.7078213691711426 0.2198990434408188 1.393295407295227
2.7078213691711426 0.2198990285396576 1.6778191328048706
2.7078213691711426 0.2198990136384964 1.9623427391052246
2.7078213691711426 0.2198990136384964 2.246866464614868
2.7078213691711426 0.2198989987373352 2.5313899517059326
2.7078213691711426 0.219898983836174 2.815913677215576
2.6136507987976074 0.5836074948310852 -1.4519410133361816
2.6136507987976074 0.5836074948310852 -1.1674174070358276
2.6136507987976074 0.5836074948310852 -0.8828936815261841
2.6136507987976074 0.5836074948310852 -0.5983700752258301
2.6136507987976074 0.5836074352264404 -0.3138464093208313
2.6136507987976074 0.5836074352264404 -0.029322771355509758
2.6136507987976074 0.5836074352264404 0.2552008628845215
2.6136507987976074 0.5836074352264404 0.5397245287895203
2.6136507987976074 0.5836074352264404 0.824248194694519
2.6136507987976074 0.5836073756217957 1.108771800994873
2.6136507987976074 0.5836073756217957 1.393295407295227
2.6136507987976074 0.5836073756217957 1.6778191328048706
2.6136507987976074 0.5836073756217957 1.9623427391052246
2.6136507987976074 0.5836073756217957 2.246866464614868
2.6136507987976074 0.5836073160171509 2.5313899517059326
2.6136507987976074 0.5836073160171509 2.815913677215576
2.4481937885284424 0.920914351940155 -1.4519410133361816
2.4481937885284424 0.9209142923355103 -1.167417287826538
2.4481937885284424 0.9209142923355103 -0.8828936815261841
2.4481937885284424 0.9209142923355103 -0.5983700752258301
2.4481937885284424 0.9209142923355103 -0.3138464093208313
2.4481937885284424 0.9209142923355103 -0.029322756454348564
2.4481937885284424 0.9209142327308655 0.25520089268684387
2.4481937885284424 0.9209142327308655 0.5397245287895203
2.4481937885284424 0.9209142327308655 0.824248194694519
2.4481937885284424 0.9209142327308655 1.108771800994873
2.4481937885284424 0.9209141731262207 1.3932955265045166
2.4481937885284424 0.9209141731262207 1.6778191328048706
2.4481937885284424 0.9209141731262207 1.9623427391052246
2.4481937885284424 0.9209141731262207 2.246866464614868
2.4481937885284424 0.9209141731262207 2.5313899517059326
2.4481937885284424 0.9209141135215759 2.815913677215576
2.21822452545166 1.2180101871490479 -1.4519410133361816
2.21822452545166 1.2180101871490479 -1.167417287826538
2.21822452545166 1.2180101871490479 -0.8828936815261841
2.21822452545166 1.2180101871490479 -0.5983700156211853
2.21822452545166 1.2180101871490479 -0.3138463795185089
2.21822452545166 1.2180101871490479 -0.02932274155318737
2.21822452545166 1.2180101871490479 0.25520089268684387
2.21822452545166 1.2180101871490479 0.5397245287895203
2.21822452545166 1.2180100679397583 0.824248194694519
2.21822452545166 1.2180100679397583 1.108771800994873
2.21822452545166 1.2180100679397583 1.3932955265045166
2.21822452545166 1.2180100679397583 1.6778191328048706
2.21822452545166 1.2180100679397583 1.9623427391052246
2.21822452545166 1.2180100679397583 2.246866464614868
2.21822452545166 1.2180100679397583 2.5313901901245117
2.21822452545166 1.2180100679397583 2.815913677215576
1.9331576824188232 1.4627320766448975 -1.4519410133361816
1.9331576824188232 1.4627320766448975 -1.167417287826538
1.9331576824188232 1.4627320766448975 -0.8828936815261841
1.9331576824188232 1.462731957435608 -0.5983700156211853
1.9331576824188232 1.462731957435608 -0.3138463795185089
1.9331576824188232 1.462731957435608 -0.029322728514671326
1.9331576824188232 1.462731957435608 0.25520092248916626
1.9331576824188232 1.462731957435608 0.539724588394165
1.9331576824188232 1.462731957435608 0.824248194694519
1.9331576824188232 1.462731957435608 1.108771800994873
1.9331576824188232 1.462731957435608 1.3932955265045166
1.9331576824188232 1.462731957435608 1.6778191328048706
1.9331576824188232 1.462731957435608 1.9623427391052246
1.9331576824188232 1.4627318382263184 2.246866464614868
1.9331576824188232 1.4627318382263184 2.5313901901245117
1.9331576824188232 1.4627318382263184 2.815913677215576
1.6046639680862427 1.6450608968734741 -1.451940894126892
1.6046639680862427 1.6450608968734741 -1.167417287826538
1.6046639680862427 1.6450608968734741 -0.8828936815261841
1.6046640872955322 1.6450608968734741 -0.5983700156211853
1.6046640872955322 1.6450608968734741 -0.3138463497161865
1.6046640872955322 1.6450607776641846 -0.02932271733880043
1.6046640872955322 1.6450607776641846 0.25520092248916626
1.6046640872955322 1.6450607776641846 0.539724588394165
1.6046640872955322 1.6450607776641846 0.824248194694519
1.6046640872955322 1.6450607776641846 1.1087719202041626
1.6046640872955322 1.6450607776641846 1.3932955265045166
1.6046640872955322 1.6450607776641846 1.6778191328048706
1.6046640872955322 1.6450607776641846 1.9623428583145142
1.6046640872955322 1.6450607776641846 2.246866464614868
1.6046640872955322 1.6450607776641846 2.5313901901245117
1.6046640872955322 1.645060658454895 2.815913677215576
1.2461920976638794 1.7575321197509766 -1.451940894126892
1.2461920976638794 1.7575321197509766 -1.167417287826538
1.246192216873169 1.7575321197509766 -0.8828936219215393
1.246192216873169 1.7575321197509766 -0.5983700156211853
1.246192216873169 1.7575321197509766 -0.3138463497161865
1.246192216873169 1.7575321197509766 -0.029322708025574684
1.246192216873169 1.7575321197509766 0.25520092248916626
1.246192216873169 1.7575321197509766 0.539724588394165
1.246192216873169 1.7575321197509766 0.8242482542991638
1.246192216873169 1.757532000541687 1.1087719202041626
1.246192216873169 1.757532000541687 1.3932955265045166
1.246192216873169 1.757532000541687 1.6778191328048706
1.246192216873169 1.757532000541687 1.9623428583145142
1.246192216873169 1.757532000541687 2.246866464614868
1.246192216873169 1.757532000541687 2.5313901901245117
1.246192216873169 1.757532000541687 2.815913677215576
0.8724179267883301 1.7955412864685059 -1.451940894126892
0.8724179267883301 1.7955412864685059 -1.167417287826538
0.8724179267883301 1.7955412864685059 -0.8828936219215393
0.8724179267883301 1.7955412864685059 -0.5983700156211853
0.8724179267883301 1.7955412864685059 -0.3138463497161865
0.8724179267883301 1.7955411672592163 -0.029322704300284386
0.8724179267883301 1.7955411672592163 0.25520095229148865
0.8724179267883301 1.7955411672592163 0.539724588394165
0.8724179267883301 1.7955411672592163 0.8242482542991638
0.8724179267883301 1.7955411672592163 1.1087719202041626
0.8724179267883301 1.7955411672592163 1.3932955265045166
0.8724179267883301 1.7955411672592163 1.6778191328048706
0.8724179863929749 1.7955411672592163 1.9623428583145142
0.8724179863929749 1.7955411672592163 2.246866464614868
0.8724179863929749 1.7955411672592163 2.5313901901245117
0.8724179863929749 1.7955410480499268 2.815913677215576
