ply
format ascii 1.0
element vertex 512
property float x
property float y
property float z
end_header
-0.02992701530456543 -1.0433424711227417 0.7152690887451172
-0.029927009716629982 -1.0433424711227417 0.5924282670021057
-0.029927005991339684 -1.0433424711227417 0.4695874750614166
-0.029927000403404236 -1.0433424711227417 0.34674668312072754
-0.029926994815468788 -1.0433424711227417 0.22390586137771606
-0.02992699109017849 -1.0433424711227417 0.10106505453586578
-0.029926985502243042 -1.0433424711227417 -0.021775754168629646
-0.029926979914307594 -1.0433424711227417 -0.14461655914783478
-0.029926976189017296 -1.0433424711227417 -0.26745736598968506
-0.029926970601081848 -1.0433424711227417 -0.39029818773269653
-0.0299269650131464 -1.0433424711227417 -0.513139009475708
-0.029926961287856102 -1.0433424711227417 -0.6359798312187195
-0.029926955699920654 -1.0433424711227417 -0.7588205933570862
-0.029926950111985207 -1.0433424711227417 -0.8816614151000977
-0.029926946386694908 -1.0433424711227417 -1.0045021772384644
-0.02992694079875946 -1.0433424711227417 -1.1273430585861206
-0.23244233429431915 -1.0227487087249756 0.7152690887451172
-0.23244233429431915 -1.0227487087249756 0.5924282670021057
-0.23244231939315796 -1.0227487087249756 0.4695874750614166
-0.23244231939315796 -1.0227487087249756 0.34674665331840515
-0.23244231939315796 -1.0227487087249756 0.22390586137771606
-0.23244230449199677 -1.0227487087249756 0.10106504708528519
-0.23244230449199677 -1.0227487087249756 -0.021775761619210243
-0.23244230449199677 -1.0227487087249756 -0.14461657404899597
-0.23244228959083557 -1.0227487087249756 -0.26745739579200745
-0.23244228959083557 -1.0227487087249756 -0.39029818773269653
-0.23244228959083557 -1.0227487087249756 -0.513139009475708
-0.23244227468967438 -1.0227487087249756 -0.6359798312187195
-0.23244227468967438 -1.0227487087249756 -0.7588205933570862
-0.23244227468967438 -1.0227487087249756 -0.8816614151000977
-0.23244225978851318 -1.0227487087249756 -1.004502296447754
-0.23244225978851318 -1.0227487087249756 -1.1273430585861206
-0.42666664719581604 -0.9618104100227356 0.7152690887451172
-0.42666664719581604 -0.9618104100227356 0.5924282670021057
-0.42666664719581604 -0.9618104100227356 0.4695874750614166
-0.42666664719581604 -0.9618104100227356 0.34674665331840515
-0.42666661739349365 -0.9618104100227356 0.22390584647655487
-0.42666661739349365 -0.9618104100227356 0.10106503963470459
-0.42666661739349365 -0.9618104100227356 -0.02177577093243599
-0.42666661739349365 -0.9618104100227356 -0.14461657404899597
-0.42666661739349365 -0.9618104100227356 -0.26745739579200745
-0.42666661739349365 -0.9618104100227356 -0.39029818773269653
-0.42666658759117126 -0.9618104100227356 -0.513139009475708
-0.42666658759117126 -0.9618104100227356 -0.6359798312187195
-0.42666658759117126 -0.9618104100227356 -0.758820652961731
-0.42666658759117126 -0.9618104100227356 -0.8816614151000977
-0.42666658759117126 -0.9618104100227356 -1.004502296447754
-0.42666658759117126 -0.9618104100227356 -1.1273430585861206
-0.6046484112739563 -0.8630224466323853 0.7152690887451172
-0.6046484112739563 -0.8630224466323853 0.5924282670021057
-0.6046484112739563 -0.86302250623703 0.46958744525909424
-0.6046484112739563 -0.86302250623703 0.34674665331840515
-0.6046483516693115 -0.86302250623703 0.22390584647655487
-0.6046483516693115 -0.86302250623703 0.10106503218412399
-0.6046483516693115 -0.86302250623703 -0.021775780245661736
-0.6046483516693115 -0.86302250623703 -0.14461658895015717
-0.6046483516693115 -0.86302250623703 -0.26745739579200745
-0.6046483516693115 -0.86302250623703 -0.3902982175350189
-0.6046483516693115 -0.86302250623703 -0.513139009475708
-0.6046483516693115 -0.86302250623703 -0.6359798312187195
-0.6046483516693115 -0.86302250623703 -0.758820652961731
-0.6046483516693115 -0.86302250623703 -0.8816614747047424
-0.6046483516693115 -0.86302250623703 -1.004502296447754
-0.6046483516693115 -0.86302250623703 -1.1273430585861206
-0.7591009736061096 -0.7304292917251587 0.7152690887451172
-0.7591009736061096 -0.7304292917251587 0.5924282670021057
-0.7591009736061096 -0.7304292917251587 0.46958744525909424
-0.7591009736061096 -0.7304292917251587 0.34674665331840515
-0.7591009736061096 -0.7304292917251587 0.22390583157539368
-0.7591009736061096 -0.7304292917251587 0.1010650247335434
-0.7591009736061096 -0.7304292917251587 -0.021775787696242332
-0.7591009736061096 -0.7304292917251587 -0.14461660385131836
-0.7591009736061096 -0.7304292917251587 -0.26745739579200745
-0.7591009736061096 -0.7304292917251587 -0.3902982175350189
-0.7591009140014648 -0.7304292917251587 -0.513139009475708
-0.7591009140014648 -0.7304292917251587 -0.6359798312187195
-0.7591009140014648 -0.7304292917251587 -0.758820652961731
-0.7591009140014648 -0.7304292917251587 -0.8816614747047424
-0.7591009140014648 -0.7304292917251587 -1.004502296447754
-0.7591009140014648 -0.7304292917251587 -1.1273430585861206
-0.8837010860443115 -0.5694591999053955 0.7152690887451172
-0.8837010860443115 -0.5694591999053955 0.5924282670021057
-0.8837010860443115 -0.5694591999053955 0.46958744525909424
-0.8837010860443115 -0.5694591999053955 0.34674662351608276
-0.8837010860443115 -0.5694591999053955 0.22390581667423248
-0.8837010860443115 -0.5694591999053955 0.1010650172829628
-0.8837010860443115 -0.5694591999053955 -0.02177579514682293
-0.8837010860443115 -0.5694591999053955 -0.14461660385131836
-0.8837010860443115 -0.5694591999053955 -0.26745742559432983
-0.8837010860443115 -0.5694591999053955 -0.3902982175350189
-0.8837010860443115 -0.5694591999053955 -0.513139009475708
-0.8837010860443115 -0.5694591999053955 -0.6359798312187195
-0.8837010264396667 -0.5694591999053955 -0.758820652961731
-0.8837010264396667 -0.5694591999053955 -0.8816614747047424
-0.8837010264396667 -0.5694591999053955 -1.004502296447754
-0.8837010264396667 -0.5694591999053955 -1.1273430585861206
-0.9733476042747498 -0.38670235872268677 0.7152690291404724
-0.9733476042747498 -0.38670235872268677 0.5924282670021057
-0.9733476042747498 -0.38670235872268677 0.46958744525909424
-0.9733476042747498 -0.38670235872268677 0.34674662351608276
-0.9733476042747498 -0.38670235872268677 0.22390581667423248
-0.9733476042747498 -0.38670235872268677 0.1010650098323822
-0.9733476042747498 -0.38670235872268677 -0.021775802597403526
-0.9733476042747498 -0.38670235872268677 -0.14461661875247955
-0.9733476042747498 -0.38670235872268677 -0.26745742559432983
-0.9733476042747498 -0.38670235872268677 -0.3902982175350189
-0.973347544670105 -0.38670235872268677 -0.5131390690803528
-0.973347544670105 -0.38670235872268677 -0.6359798312187195
-0.973347544670105 -0.38670238852500916 -0.758820652961731
-0.973347544670105 -0.38670238852500916 -0.8816614747047424
-0.973347544670105 -0.38670238852500916 -1.004502296447754
-0.973347544670105 -0.38670238852500916 -1.1273430585861206
-1.0243704319000244 -0.1896408498287201 0.7152690291404724
-1.0243704319000244 -0.1896408498287201 0.5924282670021057
-1.0243703126907349 -0.1896408498287201 0.46958744525909424
-1.0243703126907349 -0.1896408498287201 0.34674662351608276
-1.0243703126907349 -0.1896408498287201 0.22390581667423248
-1.0243703126907349 -0.1896408498287201 0.1010650023818016
-1.0243703126907349 -0.1896408647298813 -0.021775808185338974
-1.0243703126907349 -0.1896408647298813 -0.14461661875247955
-1.0243703126907349 -0.1896408647298813 -0.26745742559432983
-1.0243703126907349 -0.1896408647298813 -0.3902982473373413
-1.0243703126907349 -0.1896408647298813 -0.5131390690803528
-1.0243703126907349 -0.1896408647298813 -0.6359798312187195
-1.0243703126907349 -0.1896408647298813 -0.758820652961731
-1.0243703126907349 -0.1896408647298813 -0.8816614747047424
-1.0243703126907349 -0.18964087963104248 -1.004502296447754
-1.0243703126907349 -0.18964087963104248 -1.1273430585861206
-1.0346804857254028 0.013657604344189167 0.7152690291404724
-1.0346804857254028 0.013657602481544018 0.5924282670021057
-1.0346804857254028 0.013657600618898869 0.46958741545677185
-1.0346804857254028 0.01365759875625372 0.34674662351608276
-1.0346804857254028 0.01365759689360857 0.2239058017730713
-1.0346804857254028 0.013657594099640846 0.10106499493122101
-1.0346804857254028 0.013657592236995697 -0.021775811910629272
-1.0346804857254028 0.013657590374350548 -0.14461661875247955
-1.0346804857254028 0.013657588511705399 -0.26745742559432983
-1.0346804857254028 0.01365758664906025 -0.3902982473373413
-1.0346804857254028 0.0136575847864151 -0.5131390690803528
-1.0346804857254028 0.013657581992447376 -0.6359798312187195
-1.0346804857254028 0.013657580129802227 -0.758820652961731
-1.0346804857254028 0.013657578267157078 -0.8816614747047424
-1.0346804857254028 0.013657576404511929 -1.004502296447754
-1.0346804857254028 0.01365757454186678 -1.1273430585861206
-1.0038559436798096 0.2148699313402176 0.7152690291404724
-1.0038559436798096 0.2148699313402176 0.5924282073974609
-1.0038559436798096 0.2148699313402176 0.46958741545677185
-1.0038559436798096 0.2148699313402176 0.34674662351608276
-1.0038559436798096 0.2148699313402176 0.2239058017730713
-1.0038559436798096 0.2148699313402176 0.10106499493122101
-1.00385582447052 0.2148699313402176 -0.02177581377327442
-1.00385582447052 0.2148699164390564 -0.14461661875247955
-1.00385582447052 0.2148699164390564 -0.26745742559432983
-1.00385582447052 0.2148699164390564 -0.3902982473373413
-1.00385582447052 0.2148699164390564 -0.5131390690803528
-1.00385582447052 0.2148699164390564 -0.6359798908233643
-1.00385582447052 0.2148699164390564 -0.758820652961731
-1.00385582447052 0.2148699164390564 -0.8816614747047424
-1.00385582447052 0.2148699164390564 -1.004502296447754
-1.00385582447052 0.2148699015378952 -1.1273430585861206
-0.9331585764884949 0.40575850009918213 0.7152690291404724
-0.9331585764884949 0.40575850009918213 0.5924282073974609
-0.9331585168838501 0.40575850009918213 0.46958741545677185
-0.9331585168838501 0.40575850009918213 0.34674662351608276
-0.9331585168838501 0.40575850009918213 0.2239058017730713
-0.9331585168838501 0.40575850009918213 0.10106499493122101
-0.9331585168838501 0.40575847029685974 -0.02177581377327442
-0.9331585168838501 0.40575847029685974 -0.14461661875247955
-0.9331585168838501 0.40575847029685974 -0.26745742559432983
-0.9331585168838501 0.40575847029685974 -0.3902982473373413
-0.9331585168838501 0.40575847029685974 -0.5131390690803528
-0.9331585168838501 0.40575847029685974 -0.6359798908233643
-0.9331585168838501 0.40575847029685974 -0.758820652961731
-0.9331585168838501 0.40575847029685974 -0.8816614747047424
-0.9331584572792053 0.40575847029685974 -1.004502296447754
-0.9331584572792053 0.40575847029685974 -1.1273430585861206
-0.8254827857017517 0.5785082578659058 0.7152690291404724
-0.8254827857017517 0.5785082578659058 0.5924282073974609
-0.8254827857017517 0.5785082578659058 0.46958741545677185
-0.8254827857017517 0.5785082578659058 0.34674662351608276
-0.8254827857017517 0.5785082578659058 0.2239058017730713
-0.8254827857017517 0.5785082578659058 0.10106499493122101
-0.8254827857017517 0.5785082578659058 -0.021775811910629272
-0.8254827260971069 0.5785082578659058 -0.14461661875247955
-0.8254827260971069 0.5785082578659058 -0.26745742559432983
-0.8254827260971069 0.5785082578659058 -0.3902982473373413
-0.8254827260971069 0.5785082578659058 -0.5131390690803528
-0.8254827260971069 0.5785082578659058 -0.6359798908233643
-0.8254827260971069 0.5785082578659058 -0.758820652961731
-0.8254827260971069 0.5785082578659058 -0.8816614747047424
-0.8254827260971069 0.5785082578659058 -1.004502296447754
-0.8254827260971069 0.5785082578659058 -1.1273430585861206
-0.6852368712425232 0.7260469198226929 0.7152690291404724
-0.6852368712425232 0.7260469198226929 0.5924282670021057
-0.6852368712425232 0.7260469198226929 0.46958741545677185
-0.6852368712425232 0.7260469198226929 0.34674662351608276
-0.6852368712425232 0.7260468602180481 0.22390581667423248
-0.6852368712425232 0.7260468602180481 0.1010650023818016
-0.6852368712425232 0.7260468602180481 -0.021775810047984123
-0.6852368712425232 0.7260468602180481 -0.14461661875247955
-0.6852368116378784 0.7260468602180481 -0.26745742559432983
-0.6852368116378784 0.7260468602180481 -0.3902982473373413
-0.6852368116378784 0.7260468602180481 -0.5131390690803528
-0.6852368116378784 0.7260468602180481 -0.6359798312187195
-0.6852368116378784 0.7260468602180481 -0.758820652961731
-0.6852368116378784 0.7260468602180481 -0.8816614747047424
-0.6852368116378784 0.7260468602180481 -1.004502296447754
-0.6852368116378784 0.7260468602180481 -1.1273430585861206
-0.5181624889373779 0.8423340916633606 0.7152690291404724
-0.5181624889373779 0.8423340916633606 0.5924282670021057
-0.5181624889373779 0.8423340916633606 0.46958744525909424
-0.5181624889373779 0.8423340916633606 0.34674662351608276
-0.5181624889373779 0.8423340916633606 0.22390581667423248
-0.5181624889373779 0.8423340916633606 0.1010650023818016
-0.5181624889373779 0.8423340916633606 -0.021775804460048676
-0.5181624889373779 0.8423340916633606 -0.14461661875247955
-0.5181624889373779 0.8423340916633606 -0.26745742559432983
-0.5181624889373779 0.8423340916633606 -0.3902982473373413
-0.5181624293327332 0.8423340916633606 -0.5131390690803528
-0.5181624293327332 0.8423340916633606 -0.6359798312187195
-0.5181624293327332 0.8423340916633606 -0.758820652961731
-0.5181624293327332 0.8423340916633606 -0.8816614747047424
-0.5181624293327332 0.8423340916633606 -1.004502296447754
-0.5181624293327332 0.8423340916633606 -1.1273430585861206
-0.3310997188091278 0.9226090312004089 0.7152690887451172
-0.3310997188091278 0.9226090312004089 0.5924282670021057
-0.3310996890068054 0.9226090312004089 0.46958744525909424
-0.3310996890068054 0.9226090312004089 0.34674662351608276
-0.3310996890068054 0.9226090312004089 0.22390581667423248
-0.3310996890068054 0.9226090312004089 0.1010650098323822
-0.3310996890068054 0.9226090312004089 -0.021775798872113228
-0.3310996890068054 0.9226090312004089 -0.14461660385131836
-0.33109965920448303 0.9226090312004089 -0.26745742559432983
-0.33109965920448303 0.9226090312004089 -0.3902982175350189
-0.33109965920448303 0.9226090312004089 -0.513139009475708
-0.33109965920448303 0.9226090312004089 -0.6359798312187195
-0.33109965920448303 0.9226090312004089 -0.758820652961731
-0.33109965920448303 0.9226090312004089 -0.8816614747047424
-0.33109962940216064 0.9226090312004089 -1.004502296447754
-0.33109962940216064 0.9226090312004089 -1.1273430585861206
-0.13170687854290009 0.9635853171348572 0.7152690887451172
-0.1317068636417389 0.9635853171348572 0.5924282670021057
-0.1317068636417389 0.9635853171348572 0.46958744525909424
-0.1317068636417389 0.9635853171348572 0.34674665331840515
-0.1317068487405777 0.9635853171348572 0.22390583157539368
-0.1317068487405777 0.9635853171348572 0.1010650172829628
-0.1317068487405777 0.9635853171348572 -0.02177579142153263
-0.1317068338394165 0.9635853171348572 -0.14461660385131836
-0.1317068338394165 0.9635853171348572 -0.26745739579200745
-0.1317068338394165 0.9635853171348572 -0.3902982175350189
-0.1317068189382553 0.9635853171348572 -0.513139009475708
-0.1317068189382553 0.9635853171348572 -0.6359798312187195
-0.1317068189382553 0.9635853171348572 -0.758820652961731
-0.13170680403709412 0.9635853171348572 -0.8816614747047424
-0.13170680403709412 0.9635853171348572 -1.004502296447754
-0.13170680403709412 0.9635853171348572 -1.1273430585861206
0.07185284048318863 0.9635853171348572 0.7152690887451172
0.07185284793376923 0.9635853171348572 0.5924282670021057
0.07185285538434982 0.9635853171348572 0.46958744525909424
0.07185285538434982 0.9635853171348572 0.34674665331840515
0.07185286283493042 0.9635853171348572 0.22390583157539368
0.07185287028551102 0.9635853171348572 0.1010650247335434
0.07185287028551102 0.9635853171348572 -0.021775782108306885
0.07185287773609161 0.9635853171348572 -0.14461658895015717
0.07185288518667221 0.9635853171348572 -0.26745739579200745
0.07185288518667221 0.9635853171348572 -0.3902982175350189
0.07185289263725281 0.9635853171348572 -0.513139009475708
0.0718529000878334 0.9635853171348572 -0.6359798312187195
0.0718529000878334 0.9635853171348572 -0.758820652961731
0.071852907538414 0.9635853171348572 -0.8816614747047424
0.0718529149889946 0.9635853171348572 -1.004502296447754
0.0718529149889946 0.9635853171348572 -1.1273430585861206
0.27124568819999695 0.9226090312004089 0.7152690887451172
0.27124568819999695 0.9226090312004089 0.5924282670021057
0.27124568819999695 0.9226090312004089 0.4695874750614166
0.27124568819999695 0.9226090312004089 0.34674665331840515
0.27124568819999695 0.9226090312004089 0.22390584647655487
0.27124571800231934 0.9226090312004089 0.10106503963470459
0.27124571800231934 0.9226090312004089 -0.02177577279508114
0.27124571800231934 0.9226090312004089 -0.14461658895015717
0.27124571800231934 0.9226090312004089 -0.26745739579200745
0.27124571800231934 0.9226090312004089 -0.3902982175350189
0.27124571800231934 0.9226090312004089 -0.513139009475708
0.2712457478046417 0.9226090312004089 -0.6359798312187195
0.2712457478046417 0.9226090312004089 -0.758820652961731
0.2712457478046417 0.9226090312004089 -0.8816614151000977
0.2712457478046417 0.9226090312004089 -1.004502296447754
0.2712457478046417 0.9226090312004089 -1.1273430585861206
0.45830848813056946 0.8423340916633606 0.7152690887451172
0.45830848813056946 0.8423340916633606 0.5924282670021057
0.45830848813056946 0.8423340916633606 0.4695874750614166
0.45830848813056946 0.8423340916633606 0.34674665331840515
0.45830848813056946 0.8423340916633606 0.22390586137771606
0.45830848813056946 0.8423340916633606 0.10106504708528519
0.45830851793289185 0.8423340916633606 -0.02177576534450054
0.45830851793289185 0.8423340916633606 -0.14461657404899597
0.45830851793289185 0.8423340916633606 -0.26745739579200745
0.45830851793289185 0.8423340916633606 -0.39029818773269653
0.45830851793289185 0.8423340916633606 -0.513139009475708
0.45830851793289185 0.8423340916633606 -0.6359798312187195
0.45830854773521423 0.8423340916633606 -0.758820652961731
0.45830854773521423 0.8423340916633606 -0.8816614151000977
0.45830854773521423 0.8423340916633606 -1.004502296447754
0.45830854773521423 0.8423340916633606 -1.1273430585861206
0.6253828406333923 0.7260469198226929 0.7152690887451172
0.6253828406333923 0.7260469198226929 0.5924282670021057
0.6253828406333923 0.7260469198226929 0.4695874750614166
0.6253828406333923 0.7260469198226929 0.34674668312072754
0.6253828406333923 0.7260468602180481 0.22390586137771606
0.6253829002380371 0.7260468602180481 0.10106505453586578
0.6253829002380371 0.7260468602180481 -0.021775756031274796
0.6253829002380371 0.7260468602180481 -0.14461655914783478
0.6253829002380371 0.7260468602180481 -0.26745736598968506
0.6253829002380371 0.7260468602180481 -0.39029818773269653
0.6253829002380371 0.7260468602180481 -0.513139009475708
0.6253829002380371 0.7260468602180481 -0.6359798312187195
0.6253829002380371 0.7260468602180481 -0.7588205933570862
0.6253829002380371 0.7260468602180481 -0.8816614151000977
0.6253829002380371 0.7260468602180481 -1.0045021772384644
0.6253829002380371 0.7260468602180481 -1.1273430585861206
0.7656287550926208 0.5785082578659058 0.7152690887451172
0.7656287550926208 0.5785082578659058 0.5924283266067505
0.7656287550926208 0.5785082578659058 0.469587504863739
0.7656287550926208 0.5785082578659058 0.34674668312072754
0.7656287550926208 0.5785082578659058 0.22390587627887726
0.7656287550926208 0.5785082578659058 0.10106506198644638
0.7656288146972656 0.5785082578659058 -0.0217757485806942
0.7656288146972656 0.5785082578659058 -0.14461655914783478
0.7656288146972656 0.5785082578659058 -0.26745736598968506
0.7656288146972656 0.5785082578659058 -0.39029818773269653
0.7656288146972656 0.5785082578659058 -0.513139009475708
0.7656288146972656 0.5785082578659058 -0.6359797716140747
0.7656288146972656 0.5785082578659058 -0.7588205933570862
0.7656288146972656 0.5785082578659058 -0.8816614151000977
0.7656288146972656 0.5785082578659058 -1.0045021772384644
0.7656288146972656 0.5785082578659058 -1.1273430585861206
0.873304545879364 0.40575850009918213 0.7152690887451172
0.873304545879364 0.40575850009918213 0.5924283266067505
0.873304545879364 0.40575850009918213 0.469587504863739
0.873304545879364 0.40575850009918213 0.34674668312072754
0.873304545879364 0.40575850009918213 0.22390587627887726
0.873304545879364 0.40575850009918213 0.10106506943702698
0.873304545879364 0.40575847029685974 -0.0217757411301136
0.873304545879364 0.40575847029685974 -0.14461654424667358
0.873304545879364 0.40575847029685974 -0.26745736598968506
0.873304545879364 0.40575847029685974 -0.39029815793037415
0.873304545879364 0.40575847029685974 -0.513139009475708
0.8733046054840088 0.40575847029685974 -0.6359797716140747
0.8733046054840088 0.40575847029685974 -0.7588205933570862
0.8733046054840088 0.40575847029685974 -0.8816614151000977
0.8733046054840088 0.40575847029685974 -1.0045021772384644
0.8733046054840088 0.40575847029685974 -1.1273430585861206
0.9440019130706787 0.2148699313402176 0.715269148349762
0.9440019130706787 0.2148699313402176 0.5924283266067505
0.9440019130706787 0.2148699313402176 0.469587504863739
0.9440019130706787 0.2148699313402176 0.34674668312072754
0.9440019130706787 0.2148699313402176 0.22390589118003845
0.9440019130706787 0.2148699313402176 0.10106507688760757
0.9440019130706787 0.2148699313402176 -0.021775735542178154
0.9440019130706787 0.2148699164390564 -0.14461654424667358
0.9440019130706787 0.2148699164390564 -0.26745736598968506
0.9440019130706787 0.2148699164390564 -0.39029815793037415
0.9440019130706787 0.2148699164390564 -0.5131389498710632
0.9440019130706787 0.2148699164390564 -0.6359797716140747
0.9440019726753235 0.2148699164390564 -0.7588205933570862
0.9440019726753235 0.2148699164390564 -0.8816614151000977
0.9440019726753235 0.2148699164390564 -1.0045021772384644
0.9440019726753235 0.2148699015378952 -1.1273430585861206
0.974826455116272 0.013657604344189167 0.715269148349762
0.974826455116272 0.013657602481544018 0.5924283266067505
0.9748265147209167 0.013657600618898869 0.469587504863739
0.9748265147209167 0.01365759875625372 0.3467467129230499
0.9748265147209167 0.01365759689360857 0.22390589118003845
0.9748265147209167 0.013657594099640846 0.10106507688760757
0.9748265147209167 0.013657592236995697 -0.021775729954242706
0.9748265147209167 0.013657590374350548 -0.14461654424667358
0.9748265147209167 0.013657588511705399 -0.26745733618736267
0.9748265147209167 0.01365758664906025 -0.39029815793037415
0.9748265147209167 0.0136575847864151 -0.5131389498710632
0.9748265147209167 0.013657581992447376 -0.6359797716140747
0.9748265147209167 0.013657580129802227 -0.7588205933570862
0.9748265147209167 0.013657578267157078 -0.8816614151000977
0.9748265743255615 0.013657576404511929 -1.0045021772384644
0.9748265743255615 0.01365757454186678 -1.1273430585861206
0.9645163416862488 -0.1896408498287201 0.715269148349762
0.9645163416862488 -0.1896408498287201 0.5924283266067505
0.9645163416862488 -0.1896408498287201 0.469587504863739
0.9645163416862488 -0.1896408498287201 0.3467467129230499
0.9645163416862488 -0.1896408498287201 0.22390589118003845
0.9645164012908936 -0.1896408498287201 0.10106508433818817
0.9645164012908936 -0.1896408647298813 -0.021775728091597557
0.9645164012908936 -0.1896408647298813 -0.14461654424667358
0.9645164012908936 -0.1896408647298813 -0.26745733618736267
0.9645164012908936 -0.1896408647298813 -0.39029815793037415
0.9645164012908936 -0.1896408647298813 -0.5131389498710632
0.9645164012908936 -0.1896408647298813 -0.6359797716140747
0.9645164012908936 -0.1896408647298813 -0.7588205933570862
0.9645164012908936 -0.1896408647298813 -0.8816614151000977
0.9645164012908936 -0.18964087963104248 -1.0045021772384644
0.9645164012908936 -0.18964087963104248 -1.1273430585861206
0.9134935736656189 -0.38670235872268677 0.715269148349762
0.9134935736656189 -0.38670235872268677 0.5924283266067505
0.9134935736656189 -0.38670235872268677 0.469587504863739
0.9134936332702637 -0.38670235872268677 0.3467467129230499
0.9134936332702637 -0.38670235872268677 0.22390589118003845
0.9134936332702637 -0.38670235872268677 0.10106508433818817
0.9134936332702637 -0.38670235872268677 -0.021775726228952408
0.9134936332702637 -0.38670235872268677 -0.1446165293455124
0.9134936332702637 -0.38670235872268677 -0.26745733618736267
0.9134936332702637 -0.38670235872268677 -0.39029815793037415
0.9134936332702637 -0.38670235872268677 -0.5131389498710632
0.9134936332702637 -0.38670235872268677 -0.6359797716140747
0.9134936332702637 -0.38670238852500916 -0.7588205933570862
0.9134936332702637 -0.38670238852500916 -0.8816614151000977
0.9134936332702637 -0.38670238852500916 -1.0045021772384644
0.9134936928749084 -0.38670238852500916 -1.1273430585861206
0.8238470554351807 -0.5694591999053955 0.715269148349762
0.8238471150398254 -0.5694591999053955 0.5924283266067505
0.8238471150398254 -0.5694591999053955 0.469587504863739
0.8238471150398254 -0.5694591999053955 0.3467467129230499
0.8238471150398254 -0.5694591999053955 0.22390589118003845
0.8238471150398254 -0.5694591999053955 0.10106508433818817
0.8238471150398254 -0.5694591999053955 -0.021775726228952408
0.8238471150398254 -0.5694591999053955 -0.1446165293455124
0.8238471150398254 -0.5694591999053955 -0.26745733618736267
0.8238471150398254 -0.5694591999053955 -0.39029815793037415
0.8238471150398254 -0.5694591999053955 -0.5131389498710632
0.8238471150398254 -0.5694591999053955 -0.6359797716140747
0.8238471150398254 -0.5694591999053955 -0.7588205933570862
0.8238471746444702 -0.5694591999053955 -0.8816614151000977
0.8238471746444702 -0.5694591999053955 -1.0045021772384644
0.8238471746444702 -0.5694591999053955 -1.1273430585861206
0.6992469429969788 -0.7304292917251587 0.715269148349762
0.6992469429969788 -0.7304292917251587 0.5924283266067505
0.6992469429969788 -0.7304292917251587 0.469587504863739
0.6992470026016235 -0.7304292917251587 0.3467467129230499
0.6992470026016235 -0.7304292917251587 0.22390589118003845
0.6992470026016235 -0.7304292917251587 0.10106507688760757
0.6992470026016235 -0.7304292917251587 -0.021775729954242706
0.6992470026016235 -0.7304292917251587 -0.14461654424667358
0.6992470026016235 -0.7304292917251587 -0.26745733618736267
0.6992470026016235 -0.7304292917251587 -0.39029815793037415
0.6992470026016235 -0.7304292917251587 -0.5131389498710632
0.6992470026016235 -0.7304292917251587 -0.6359797716140747
0.6992470026016235 -0.7304292917251587 -0.7588205933570862
0.6992470026016235 -0.7304292917251587 -0.8816614151000977
0.6992470026016235 -0.7304292917251587 -1.0045021772384644
0.6992470622062683 -0.7304292917251587 -1.1273430585861206
0.5447943806648254 -0.8630224466323853 0.715269148349762
0.5447943806648254 -0.8630224466323853 0.5924283266067505
0.5447943806648254 -0.86302250623703 0.469587504863739
0.5447943806648254 -0.86302250623703 0.34674668312072754
0.5447943806648254 -0.86302250623703 0.22390589118003845
0.5447943806648254 -0.86302250623703 0.10106507688760757
0.5447943806648254 -0.86302250623703 -0.021775733679533005
0.5447943806648254 -0.86302250623703 -0.14461654424667358
0.5447944402694702 -0.86302250623703 -0.26745736598968506
0.5447944402694702 -0.86302250623703 -0.39029815793037415
0.5447944402694702 -0.86302250623703 -0.5131389498710632
0.5447944402694702 -0.86302250623703 -0.6359797716140747
0.5447944402694702 -0.86302250623703 -0.7588205933570862
0.5447944402694702 -0.86302250623703 -0.8816614151000977
0.5447944402694702 -0.86302250623703 -1.0045021772384644
0.5447944402694702 -0.86302250623703 -1.1273430585861206
0.3668126165866852 -0.9618104100227356 0.715269148349762
0.3668126165866852 -0.9618104100227356 0.5924283266067505
0.3668126165866852 -0.9618104100227356 0.469587504863739
0.36681264638900757 -0.9618104100227356 0.34674668312072754
0.36681264638900757 -0.9618104100227356 0.22390587627887726
0.36681264638900757 -0.9618104100227356 0.10106506943702698
0.36681264638900757 -0.9618104100227356 -0.021775739267468452
0.36681264638900757 -0.9618104100227356 -0.14461654424667358
0.36681264638900757 -0.9618104100227356 -0.26745736598968506
0.36681267619132996 -0.9618104100227356 -0.39029815793037415
0.36681267619132996 -0.9618104100227356 -0.5131389498710632
0.36681267619132996 -0.9618104100227356 -0.6359797716140747
0.36681267619132996 -0.9618104100227356 -0.7588205933570862
0.36681267619132996 -0.9618104100227356 -0.8816614151000977
0.36681267619132996 -0.9618104100227356 -1.0045021772384644
0.36681270599365234 -0.9618104100227356 -1.1273430585861206
0.1725883036851883 -1.0227487087249756 0.7152690887451172
0.1725883036851883 -1.0227487087249756 0.5924283266067505
0.1725883185863495 -1.0227487087249756 0.469587504863739
0.1725883185863495 -1.0227487087249756 0.34674668312072754
0.1725883185863495 -1.0227487087249756 0.22390587627887726
0.17258833348751068 -1.0227487087249756 0.10106506198644638
0.17258833348751068 -1.0227487087249756 -0.02177574671804905
0.17258833348751068 -1.0227487087249756 -0.14461655914783478
0.17258834838867188 -1.0227487087249756 -0.26745736598968506
0.17258834838867188 -1.0227487087249756 -0.39029818773269653
0.17258834838867188 -1.0227487087249756 -0.513139009475708
0.17258836328983307 -1.0227487087249756 -0.6359797716140747
0.17258836328983307 -1.0227487087249756 -0.7588205933570862
0.17258836328983307 -1.0227487087249756 -0.8816614151000977
0.17258837819099426 -1.0227487087249756 -1.0045021772384644
0.17258837819099426 -1.0227487087249756 -1.1273430585861206
-0.02992701530456543 -1.0433424711227417 0.7152690887451172
-0.029927009716629982 -1.0433424711227417 0.5924282670021057
-0.029927005991339684 -1.0433424711227417 0.4695874750614166
-0.029927000403404236 -1.0433424711227417 0.34674668312072754
-0.029926994815468788 -1.0433424711227417 0.22390586137771606
-0.02992699109017849 -1.0433424711227417 0.10106505453586578
-0.029926985502243042 -1.0433424711227417 -0.021775754168629646
-0.029926979914307594 -1.0433424711227417 -0.14461655914783478
-0.029926976189017296 -1.0433424711227417 -0.26745736598968506
-0.029926970601081848 -1.0433424711227417 -0.39029818773269653
-0.0299269650131464 -1.0433424711227417 -0.513139009475708
-0.029926961287856102 -1.0433424711227417 -0.6359798312187195
-0.029926955699920654 -1.0433424711227417 -0.7588205933570862
-0.029926950111985207 -1.0433424711227417 -0.8816614151000977
-0.029926946386694908 -1.0433424711227417 -1.0045021772384644
-0.02992694079875946 -1.0433424711227417 -1.1273430585861206
