ply
format ascii 1.0
element vertex 512
property float x
property float y
property float z
end_header
1.0565687417984009 1.604622721672058 -1.4117251634597778
0.8792740702629089 1.6954631805419922 -1.2085790634155273
0.7019794583320618 1.7863035202026367 -1.0054329633712769
0.5246847867965698 1.8771438598632812 -0.8022868037223816
0.34739017486572266 1.9679841995239258 -0.5991407036781311
0.1700955331325531 2.0588245391845703 -0.39599454402923584
-0.0071990895085036755 2.149664878845215 -0.19284842908382416
-0.18449372053146362 2.2405054569244385 0.010297691449522972
-0.3617883622646332 2.331345796585083 0.2134438157081604
-0.5390830039978027 2.4221861362457275 0.4165899455547333
-0.7163776159286499 2.513026475906372 0.6197360754013062
-0.8936722278594971 2.6038668155670166 0.8228821754455566
-1.0709668397903442 2.694707155227661 1.0260282754898071
-1.2482614517211914 2.7855474948883057 1.2291743755340576
-1.4255561828613281 2.87638783454895 1.4323205947875977
-1.6028507947921753 2.967228412628174 1.6354666948318481
0.8017276525497437 1.6924877166748047 -1.673426628112793
0.6244329810142517 1.7833281755447388 -1.4702805280685425
0.44713836908340454 1.8741685152053833 -1.267134428024292
0.2698437571525574 1.9650088548660278 -1.063988208770752
0.09254911541938782 2.055849313735962 -0.8608421087265015
-0.08474551141262054 2.1466896533966064 -0.657696008682251
-0.2620401382446289 2.237529993057251 -0.4545498788356781
-0.43933477997779846 2.3283703327178955 -0.2514037787914276
-0.616629421710968 2.41921067237854 -0.04825764149427414
-0.7939240336418152 2.5100510120391846 0.15488848090171814
-0.9712186455726624 2.600891351699829 0.358034610748291
-1.1485133171081543 2.6917316913604736 0.5611807107925415
-1.3258079290390015 2.7825722694396973 0.7643268704414368
-1.5031025409698486 2.873412609100342 0.9674729704856873
-1.6803971529006958 2.9642529487609863 1.1706191301345825
-1.857691764831543 3.055093288421631 1.373765230178833
0.5226555466651917 1.7091007232666016 -1.924414038658142
0.3453609347343445 1.7999411821365356 -1.721267819404602
0.16806632280349731 1.8907815217971802 -1.5181217193603516
-0.009228313341736794 1.9816218614578247 -1.314975619316101
-0.1865229457616806 2.072462320327759 -1.1118295192718506
-0.36381757259368896 2.1633026599884033 -0.9086833596229553
-0.5411121845245361 2.254142999649048 -0.7055372595787048
-0.7184068560600281 2.3449833393096924 -0.5023911595344543
-0.8957014679908752 2.435823678970337 -0.2992449998855591
-1.0729961395263672 2.5266640186309814 -0.096098892390728
-1.2502907514572144 2.617504358291626 0.10704723000526428
-1.4275853633880615 2.7083449363708496 0.31019335985183716
-1.6048799753189087 2.799185276031494 0.5133394598960876
-1.7821745872497559 2.8900256156921387 0.7164856195449829
-1.959469199180603 2.980865955352783 0.9196317195892334
-2.13676381111145 3.0717062950134277 1.1227778196334839
0.23077774047851562 1.6537816524505615 -2.154411792755127
0.05348311737179756 1.7446221113204956 -1.9512656927108765
-0.1238115131855011 1.8354624509811401 -1.748119592666626
-0.30110615491867065 1.9263027906417847 -1.5449734926223755
-0.4784007668495178 2.0171432495117188 -1.3418272733688354
-0.655695378780365 2.1079835891723633 -1.138681173324585
-0.8329900503158569 2.198823928833008 -0.9355350732803345
-1.010284662246704 2.2896642684936523 -0.732388973236084
-1.1875792741775513 2.380504608154297 -0.5292428135871887
-1.3648738861083984 2.4713449478149414 -0.32609671354293823
-1.5421684980392456 2.562185287475586 -0.12295059114694595
-1.7194632291793823 2.6530258655548096 0.08019553124904633
-1.8967578411102295 2.743866205215454 0.283341646194458
-2.074052333831787 2.8347065448760986 0.4864877760410309
-2.251347064971924 2.925546884536743 0.6896339058876038
-2.4286417961120605 3.0163872241973877 0.8927800059318542
-0.06195633485913277 1.5287953615188599 -2.35400390625
-0.23925095796585083 1.6196357011795044 -2.150857925415039
-0.4165455996990204 1.710476040840149 -1.947711706161499
-0.5938402414321899 1.8013163805007935 -1.7445656061172485
-0.7711348533630371 1.8921568393707275 -1.541419506072998
-0.9484294652938843 1.982997179031372 -1.3382734060287476
-1.1257240772247314 2.0738375186920166 -1.1351271867752075
-1.3030186891555786 2.164677858352661 -0.931981086730957
-1.4803134202957153 2.2555181980133057 -0.7288349866867065
-1.6576080322265625 2.34635853767395 -0.525688886642456
-1.8349026441574097 2.4371988773345947 -0.3225427567958832
-2.012197256088257 2.5280394554138184 -0.1193966194987297
-2.1894919872283936 2.618879795074463 0.08374950289726257
-2.366786479949951 2.7097201347351074 0.28689563274383545
-2.544081211090088 2.800560474395752 0.49004173278808594
-2.7213757038116455 2.8914008140563965 0.6931878924369812
-0.3435620963573456 1.3392585515975952 -2.515019178390503
-0.5208567380905151 1.4300988912582397 -2.311872959136963
-0.6981513500213623 1.5209393501281738 -2.108726978302002
-0.8754460215568542 1.6117796897888184 -1.905580759048462
-1.0527405738830566 1.702620029449463 -1.7024346590042114
-1.2300353050231934 1.7934603691101074 -1.4992884397506714
-1.4073299169540405 1.884300708770752 -1.296142339706421
-1.5846245288848877 1.975141167640686 -1.0929962396621704
-1.7619191408157349 2.065981388092041 -0.8898501396179199
-1.939213752746582 2.1568219661712646 -0.6867039799690247
-2.1165084838867188 2.247662305831909 -0.48355787992477417
-2.2938029766082764 2.3385026454925537 -0.2804117500782013
-2.471097707748413 2.4293429851531982 -0.07726564258337021
-2.6483922004699707 2.5201833248138428 0.12588047981262207
-2.8256869316101074 2.6110236644744873 0.32902660965919495
-3.002981662750244 2.701864004135132 0.5321727395057678
-0.6025105714797974 1.0929311513900757 -2.6308653354644775
-0.7798052430152893 1.1837714910507202 -2.4277191162109375
-0.9570998549461365 1.2746118307113647 -2.2245731353759766
-1.1343945264816284 1.3654521703720093 -2.0214269161224365
-1.3116891384124756 1.4562925100326538 -1.818280816078186
-1.4889837503433228 1.547132968902588 -1.6151347160339355
-1.66627836227417 1.6379733085632324 -1.4119884967803955
-1.843572974205017 1.728813648223877 -1.208842396736145
-2.0208675861358643 1.8196539878845215 -1.0056962966918945
-2.198162317276001 1.9104944467544556 -0.802550196647644
-2.3754568099975586 2.0013346672058105 -0.5994040369987488
-2.5527515411376953 2.092175245285034 -0.3962579369544983
-2.730046033859253 2.1830155849456787 -0.19311180710792542
-2.9073407649993896 2.2738559246063232 0.010034319944679737
-3.0846354961395264 2.3646962642669678 0.21318043768405914
-3.261929988861084 2.4555366039276123 0.4163265526294708
-0.8282003998756409 0.7998976111412048 -2.6967997550964355
-1.0054950714111328 0.8907379508018494 -2.4936535358428955
-1.18278968334198 0.9815783500671387 -2.2905075550079346
-1.3600842952728271 1.0724186897277832 -2.0873613357543945
-1.5373789072036743 1.1632590293884277 -1.884215235710144
-1.7146735191345215 1.2540994882583618 -1.6810691356658936
-1.8919681310653687 1.3449398279190063 -1.4779229164123535
-2.069262742996216 1.4357801675796509 -1.274776816368103
-2.2465574741363525 1.5266205072402954 -1.0716307163238525
-2.42385196685791 1.6174609661102295 -0.868484616279602
-2.601146697998047 1.708301305770874 -0.6653384566307068
-2.7784414291381836 1.7991416454315186 -0.4621923565864563
-2.955735921859741 1.889981985092163 -0.2590462267398834
-3.133030652999878 1.9808224439620972 -0.055900100618600845
-3.3103251457214355 2.071662664413452 0.14724601805210114
-3.4876198768615723 2.162503242492676 0.3503921329975128
-1.0113917589187622 0.4721549153327942 -2.710123062133789
-1.1886863708496094 0.5629952549934387 -2.506976842880249
-1.3659809827804565 0.653835654258728 -2.303830862045288
-1.5432757139205933 0.7446759939193726 -2.100684642791748
-1.7205703258514404 0.8355163931846619 -1.8975385427474976
-1.8978649377822876 0.9263567328453064 -1.694392442703247
-2.0751595497131348 1.0171971321105957 -1.491246223449707
-2.2524542808532715 1.1080374717712402 -1.2881001234054565
-2.429748773574829 1.1988778114318848 -1.084954023361206
-2.607043504714966 1.2897182703018188 -0.8818079233169556
-2.7843379974365234 1.3805586099624634 -0.6786617636680603
-2.96163272857666 1.471398949623108 -0.4755156636238098
-3.1389272212982178 1.5622392892837524 -0.27236953377723694
-3.3162219524383545 1.6530797481536865 -0.06922341883182526
-3.493516683578491 1.743920087814331 0.13392269611358643
-3.670811176300049 1.8347604274749756 0.3370688259601593
-1.1445848941802979 0.12312082946300507 -2.6702897548675537
-1.321879506111145 0.21396119892597198 -2.4671435356140137
-1.4991741180419922 0.3048015832901001 -2.2639975547790527
-1.6764687299728394 0.39564192295074463 -2.0608513355255127
-1.8537633419036865 0.48648229241371155 -1.8577052354812622
-2.0310580730438232 0.5773226618766785 -1.6545591354370117
-2.208352565765381 0.6681630611419678 -1.4514130353927612
-2.3856472969055176 0.7590034008026123 -1.2482669353485107
-2.562941789627075 0.8498438000679016 -1.0451208353042603
-2.740236520767212 0.9406841397285461 -0.841974675655365
-2.9175312519073486 1.0315245389938354 -0.6388285160064697
-3.0948257446289062 1.12236487865448 -0.43568241596221924
-3.272120475769043 1.2132052183151245 -0.23253630101680756
-3.4494149684906006 1.3040456771850586 -0.029390178620815277
-3.6267096996307373 1.3948860168457031 0.173755943775177
-3.804004192352295 1.4857263565063477 0.3769020736217499
-1.222326636314392 -0.23291513323783875 -2.5789308547973633
-1.3996212482452393 -0.14207476377487183 -2.3757846355438232
-1.576915979385376 -0.05123439058661461 -2.172638416290283
-1.7542105913162231 0.03960597515106201 -1.9694924354553223
-1.9315052032470703 0.13044634461402893 -1.7663462162017822
-2.108799695968628 0.22128671407699585 -1.5632001161575317
-2.2860944271087646 0.31212708353996277 -1.3600540161132812
-2.4633891582489014 0.4029674530029297 -1.1569079160690308
-2.640683650970459 0.4938078224658966 -0.9537617564201355
-2.8179783821105957 0.5846481919288635 -0.750615656375885
-2.9952728748321533 0.6754885315895081 -0.5474694967269897
-3.17256760597229 0.7663289308547974 -0.34432339668273926
-3.3498623371124268 0.8571692705154419 -0.14117728173732758
-3.5271568298339844 0.9480096697807312 0.061968844383955
-3.704451560974121 1.0388500690460205 0.265114963054657
-3.8817460536956787 1.129690408706665 0.46826109290122986
-1.2414344549179077 -0.5813767910003662 -2.439786195755005
-1.4187290668487549 -0.4905364513397217 -2.236639976501465
-1.596023678779602 -0.39969608187675476 -2.033493995666504
-1.7733184099197388 -0.30885571241378784 -1.8303477764129639
-1.950613021850586 -0.21801534295082092 -1.6272016763687134
-2.1279075145721436 -0.127174973487854 -1.424055576324463
-2.3052022457122803 -0.03633461147546768 -1.2209094762802124
-2.482496976852417 0.05450575798749924 -1.017763376235962
-2.6597914695739746 0.14534611999988556 -0.8146172165870667
-2.8370862007141113 0.23618648946285248 -0.6114710569381714
-3.014380693435669 0.3270268738269806 -0.4083249568939209
-3.1916754245758057 0.4178672432899475 -0.20517884194850922
-3.3689699172973633 0.508707582950592 -0.00203271908685565
-3.5462646484375 0.5995479822158813 0.20111340284347534
-3.7235593795776367 0.6903883218765259 0.4042595326900482
-3.9008538722991943 0.7812287211418152 0.6074056625366211
-1.201125979423523 -0.9079982042312622 -2.2585527896881104
-1.3784205913543701 -0.8171578049659729 -2.0554065704345703
-1.5557152032852173 -0.7263174653053284 -1.8522604703903198
-1.7330098152160645 -0.6354770660400391 -1.6491143703460693
-1.9103045463562012 -0.5446367263793945 -1.4459681510925293
-2.087599039077759 -0.4537963271141052 -1.2428220510482788
-2.2648937702178955 -0.3629559576511383 -1.0396759510040283
-2.4421885013580322 -0.2721155881881714 -0.8365298509597778
-2.61948299407959 -0.18127523362636566 -0.6333836913108826
-2.7967777252197266 -0.09043486416339874 -0.4302375912666321
-2.974072217941284 0.00040550268022343516 -0.2270914614200592
-3.151366949081421 0.0912458673119545 -0.023945344612002373
-3.3286614418029785 0.18208624422550201 0.17920078337192535
-3.5059561729431152 0.27292659878730774 0.38234689831733704
-3.683250904083252 0.36376696825027466 0.5854930281639099
-3.8605453968048096 0.4546073377132416 0.7886391282081604
-1.1030514240264893 -1.1994073390960693 -2.042649984359741
-1.2803460359573364 -1.1085668802261353 -1.8395038843154907
-1.4576407670974731 -1.0177265405654907 -1.6363577842712402
-1.6349353790283203 -0.9268862009048462 -1.4332115650177002
-1.8122299909591675 -0.8360458016395569 -1.2300654649734497
-1.9895246028900146 -0.7452054619789124 -1.0269193649291992
-2.1668193340301514 -0.654365062713623 -0.8237732648849487
-2.344113826751709 -0.5635247230529785 -0.6206271052360535
-2.5214085578918457 -0.4726843535900116 -0.417481005191803
-2.6987030506134033 -0.3818439841270447 -0.2143348753452301
-2.87599778175354 -0.29100361466407776 -0.011188751086592674
-3.0532922744750977 -0.20016324520111084 0.19195736944675446
-3.2305870056152344 -0.10932286828756332 0.39510348439216614
-3.407881736755371 -0.018482504412531853 0.598249614238739
-3.5851762294769287 0.07235786318778992 0.8013957142829895
-3.7624709606170654 0.16319823265075684 1.0045418739318848
-0.9512260556221008 -1.443673849105835 -1.800917148590088
-1.1285207271575928 -1.3528335094451904 -1.5977710485458374
-1.30581533908844 -1.2619930505752563 -1.3946248292922974
-1.483109951019287 -1.1711527109146118 -1.1914787292480469
-1.6604045629501343 -1.0803123712539673 -0.9883326292037964
-1.8376991748809814 -0.989471971988678 -0.7851865291595459
-2.014993906021118 -0.8986316323280334 -0.5820403695106506
-2.192288398742676 -0.8077912330627441 -0.37889426946640015
-2.3695831298828125 -0.7169508934020996 -0.17574813961982727
-2.54687762260437 -0.6261104941368103 0.02739797718822956
-2.724172353744507 -0.5352701544761658 0.2305441051721573
-2.9014670848846436 -0.44442978501319885 0.43369022011756897
-3.078761577606201 -0.35358941555023193 0.6368363499641418
-3.256056308746338 -0.262749046087265 0.8399824500083923
-3.4333508014678955 -0.1719086766242981 1.0431286096572876
-3.6106455326080322 -0.08106830716133118 1.246274709701538
-0.7518655061721802 -1.6307975053787231 -1.5432506799697876
-0.9291601777076721 -1.5399571657180786 -1.340104579925537
-1.1064547300338745 -1.4491167068481445 -1.1369584798812866
-1.2837494611740112 -1.3582763671875 -0.9338123202323914
-1.4610440731048584 -1.2674360275268555 -0.7306662201881409
-1.6383386850357056 -1.176595687866211 -0.5275201201438904
-1.8156332969665527 -1.0857552289962769 -0.3243739604949951
-1.9929279088974 -0.9949148893356323 -0.12122785300016403
-2.170222520828247 -0.9040745496749878 0.08191826939582825
-2.347517251968384 -0.8132342100143433 0.2850643992424011
-2.5248117446899414 -0.722393810749054 0.488210529088974
-2.702106475830078 -0.6315534710884094 0.6913566589355469
-2.8794009685516357 -0.5407130718231201 0.8945027589797974
-3.0566956996917725 -0.4498727023601532 1.0976488590240479
-3.233990430831909 -0.3590323328971863 1.3007949590682983
-3.411284923553467 -0.26819196343421936 1.5039411783218384
-0.5131317377090454 -1.7531174421310425 -1.280199646949768
-0.6904263496398926 -1.662277102470398 -1.0770535469055176
-0.8677209615707397 -1.5714366436004639 -0.8739073872566223
-1.045015573501587 -1.4805963039398193 -0.670761227607727
-1.222310185432434 -1.3897559642791748 -0.46761512756347656
-1.3996049165725708 -1.2989156246185303 -0.2644689977169037
-1.576899528503418 -1.2080751657485962 -0.0613228864967823
-1.7541941404342651 -1.1172348260879517 0.14182323217391968
-1.9314887523651123 -1.0263944864273071 0.34496936202049255
-2.108783483505249 -0.9355540871620178 0.5481154918670654
-2.2860779762268066 -0.8447137475013733 0.7512615919113159
-2.4633727073669434 -0.753873348236084 0.9544077515602112
-2.640667200088501 -0.6630330085754395 1.157553791999817
-2.8179619312286377 -0.5721926093101501 1.360700011253357
-2.9952564239501953 -0.4813522696495056 1.5638461112976074
-3.172551155090332 -0.3905119001865387 1.766992211341858
-0.2447984367609024 -1.8056257963180542 -1.0225331783294678
-0.42209306359291077 -1.7147854566574097 -0.8193870782852173
-0.5993877053260803 -1.6239451169967651 -0.6162409782409668
-0.7766823172569275 -1.5331047773361206 -0.4130948483943939
-0.9539769291877747 -1.4422643184661865 -0.20994871854782104
-1.1312716007232666 -1.351423978805542 -0.006802593823522329
-1.3085662126541138 -1.2605836391448975 0.1963435262441635
-1.485860824584961 -1.169743299484253 0.3994896411895752
-1.663155436515808 -1.0789028406143188 0.6026358008384705
-1.8404500484466553 -0.9880625009536743 0.805781900882721
-2.017744779586792 -0.8972221612930298 1.0089280605316162
-2.1950392723083496 -0.8063817620277405 1.2120741605758667
-2.3723340034484863 -0.715541422367096 1.4152202606201172
-2.549628734588623 -0.6247010231018066 1.6183663606643677
-2.7269232273101807 -0.5338606834411621 1.8215124607086182
-2.9042179584503174 -0.4430202841758728 2.024658679962158
0.04214874655008316 -1.7861729860305786 -0.7808003425598145
-0.1351458877325058 -1.695332646369934 -0.577654242515564
-0.31244051456451416 -1.6044923067092896 -0.3745081126689911
-0.4897351562976837 -1.5136518478393555 -0.1713619828224182
-0.6670297980308533 -1.422811508178711 0.03178413584828377
-0.8443244099617004 -1.3319711685180664 0.23493026196956635
-1.0216190814971924 -1.2411308288574219 0.438076376914978
-1.1989136934280396 -1.1502903699874878 0.6412224769592285
-1.3762083053588867 -1.0594500303268433 0.8443686366081238
-1.5535029172897339 -0.9686096906661987 1.047514796257019
-1.730797529220581 -0.8777692914009094 1.2506608963012695
-1.9080921411514282 -0.7869289517402649 1.45380699634552
-2.0853867530822754 -0.6960885524749756 1.6569530963897705
-2.262681484222412 -0.605248212814331 1.860099196434021
-2.4399759769439697 -0.5144078135490417 2.0632452964782715
-2.6172707080841064 -0.4235674738883972 2.2663915157318115
0.335962176322937 -1.695555329322815 -0.5648976564407349
0.15866753458976746 -1.6047149896621704 -0.361751526594162
-0.018627095967531204 -1.5138746500015259 -0.1586053967475891
-0.19592171907424927 -1.4230341911315918 0.044540729373693466
-0.3732163608074188 -1.3321938514709473 0.24768684804439545
-0.5505110025405884 -1.2413535118103027 0.45083296298980713
-0.7278056144714355 -1.1505131721496582 0.6539791226387024
-0.9051002264022827 -1.0596727132797241 0.8571252226829529
-1.0823948383331299 -0.9688323736190796 1.0602713823318481
-1.259689450263977 -0.8779920339584351 1.2634174823760986
-1.4369841814041138 -0.7871516346931458 1.4665635824203491
-1.614278793334961 -0.6963112950325012 1.6697096824645996
-1.791573405265808 -0.6054708957672119 1.87285578250885
-1.9688680171966553 -0.5146305561065674 2.0760018825531006
-2.146162748336792 -0.42379018664360046 2.2791481018066406
-2.3234572410583496 -0.33294981718063354 2.4822940826416016
0.6246130466461182 -1.537482738494873 -0.3836641311645508
0.447318434715271 -1.4466423988342285 -0.1805180162191391
0.27002379298210144 -1.355802059173584 0.02262810245156288
0.09272917360067368 -1.26496160030365 0.22577422857284546
-0.08456545323133469 -1.1741212606430054 0.42892035841941833
-0.26186007261276245 -1.0832809209823608 0.6320664882659912
-0.439154714345932 -0.9924405217170715 0.8352125883102417
-0.6164493560791016 -0.901600182056427 1.0383586883544922
-0.7937439680099487 -0.8107597827911377 1.2415047883987427
-0.9710385799407959 -0.7199194431304932 1.4446510076522827
-1.148333191871643 -0.6290790438652039 1.6477971076965332
-1.3256278038024902 -0.5382387042045593 1.8509432077407837
-1.502922534942627 -0.4473983347415924 2.054089307785034
-1.6802171468734741 -0.3565579652786255 2.257235527038574
-1.8575117588043213 -0.26571759581565857 2.460381507873535
-2.034806489944458 -0.17487721145153046 2.663527727127075
0.8962840437889099 -1.3184267282485962 -0.24451959133148193
0.7189894318580627 -1.2275863885879517 -0.04137346148490906
0.5416947603225708 -1.1367460489273071 0.16177265346050262
0.36440014839172363 -1.045905590057373 0.3649187684059143
0.18710552155971527 -0.9550652503967285 0.5680649280548096
0.009810896590352058 -0.864224910736084 0.7712110280990601
-0.16748373210430145 -0.7733845114707947 0.9743571281433105
-0.3447783589363098 -0.6825441718101501 1.177503228187561
-0.522072970867157 -0.5917037725448608 1.380649447441101
-0.6993676424026489 -0.5008634328842163 1.5837955474853516
-0.8766622543334961 -0.410023033618927 1.786941647529602
-1.0539568662643433 -0.3191826641559601 1.9900877475738525
-1.2312514781951904 -0.22834230959415436 2.1932339668273926
-1.4085460901260376 -0.13750194013118744 2.3963799476623535
-1.5858408212661743 -0.04666157066822052 2.5995261669158936
-1.7631354331970215 0.0441787950694561 2.8026721477508545
1.1398528814315796 -1.0473555326461792 -0.15316055715084076
0.9625582098960876 -0.9565151333808899 0.04998556151986122
0.7852635979652405 -0.8656747341156006 0.2531316876411438
0.6079689860343933 -0.774834394454956 0.4562778174877167
0.43067434430122375 -0.6839939951896667 0.6594239473342896
0.2533797323703766 -0.5931536555290222 0.86257004737854
0.07608509063720703 -0.5023132562637329 1.0657161474227905
-0.10120954364538193 -0.411472886800766 1.268862247467041
-0.2785041630268097 -0.3206325173377991 1.472008466720581
-0.45579880475997925 -0.22979216277599335 1.6751545667648315
-0.6330934166908264 -0.13895179331302643 1.878300666809082
-0.8103880882263184 -0.04811142385005951 2.081446886062622
-0.9876827001571655 0.04272894561290741 2.284592866897583
-1.1649773120880127 0.13356931507587433 2.487739086151123
-1.3422719240188599 0.22440968453884125 2.690885066986084
-1.519566535949707 0.315250039100647 2.894031286239624
1.3453477621078491 -0.7353666424751282 -0.11332731693983078
1.168053150177002 -0.6445263028144836 0.0898188054561615
0.9907585382461548 -0.5536859035491943 0.2929649353027344
0.8134639263153076 -0.4628455638885498 0.49611103534698486
0.6361692547798157 -0.3720051944255829 0.6992571949958801
0.4588746428489685 -0.28116482496261597 0.9024032950401306
0.28158000111579895 -0.19032445549964905 1.1055494546890259
0.10428538173437119 -0.09948408603668213 1.3086955547332764
-0.07300924509763718 -0.008643720299005508 1.5118416547775269
-0.25030386447906494 0.08219664543867111 1.7149877548217773
-0.4275985062122345 0.17303702235221863 1.9181338548660278
-0.604893147945404 0.26387739181518555 2.1212799549102783
-0.7821877598762512 0.35471776127815247 2.3244261741638184
-0.9594823718070984 0.4455581307411194 2.5275721549987793
-1.1367770433425903 0.5363984704017639 2.7307183742523193
-1.3140716552734375 0.6272388696670532 2.9338645935058594
1.504355788230896 -0.395233154296875 -0.1266506314277649
1.3270611763000488 -0.3043927848339081 0.07649548351764679
1.1497665643692017 -0.21355243027210236 0.27964159846305847
0.9724719524383545 -0.12271206080913544 0.48278772830963135
0.7951773405075073 -0.03187169134616852 0.6859338283538818
0.6178826689720154 0.0589686743915081 0.8890799880027771
0.4405880570411682 0.14980904757976532 1.0922261476516724
0.26329341530799866 0.24064941704273224 1.2953722476959229
0.08599879592657089 0.33148977160453796 1.4985183477401733
-0.09129583090543747 0.4223301410675049 1.7016644477844238
-0.26859045028686523 0.5131705403327942 1.9048105478286743
-0.4458850920200348 0.6040108799934387 2.107956647872925
-0.6231797337532043 0.694851279258728 2.311102867126465
-0.8004743456840515 0.7856916189193726 2.514248847961426
-0.9777689576148987 0.8765320181846619 2.717395067214966
-1.1550636291503906 0.9673723578453064 2.920541286468506
1.6103671789169312 -0.040880076587200165 -0.1925850659608841
1.433072566986084 0.049960292875766754 0.010561062954366207
1.2557779550552368 0.14080065488815308 0.21370717883110046
1.0784833431243896 0.23164102435112 0.41685330867767334
0.9011886715888977 0.3224813938140869 0.6199994087219238
0.7238940596580505 0.41332176327705383 0.8231455683708191
0.5465993881225586 0.5041621327400208 1.0262917280197144
0.3693047761917114 0.5950024724006653 1.2294378280639648
0.19201014935970306 0.6858428716659546 1.4325839281082153
0.014715517871081829 0.7766832113265991 1.6357300281524658
-0.16257911920547485 0.8675236105918884 1.8388761281967163
-0.339873731136322 0.958363950252533 2.042022228240967
-0.5171683430671692 1.0492043495178223 2.245168447494507
-0.6944630146026611 1.1400446891784668 2.4483144283294678
-0.8717576265335083 1.2308850288391113 2.651460647583008
-1.0490522384643555 1.3217254877090454 2.854606866836548
1.6590417623519897 0.31318533420562744 -0.3084312081336975
1.4817471504211426 0.40402570366859436 -0.10528509318828583
1.3044524192810059 0.4948660731315613 0.09786102175712585
1.1271578073501587 0.5857064723968506 0.30100715160369873
0.9498631954193115 0.6765468120574951 0.5041532516479492
0.7725685834884644 0.7673872113227844 0.7072994112968445
0.5952739715576172 0.858227550983429 0.910445511341095
0.41797932982444763 0.9490679502487183 1.1135916709899902
0.24068468809127808 1.0399082899093628 1.3167377710342407
0.06339006125926971 1.1307486295700073 1.5198838710784912
-0.11390456557273865 1.2215889692306519 1.7230299711227417
-0.2911992073059082 1.312429428100586 1.9261760711669922
-0.46849381923675537 1.4032697677612305 2.1293222904205322
-0.6457884311676025 1.494110107421875 2.332468271255493
-0.8230831027030945 1.5849504470825195 2.535614490509033
-1.0003777742385864 1.6757909059524536 2.7387607097625732
1.6483867168426514 0.6524676084518433 -0.4694463610649109
1.4710921049118042 0.7433080077171326 -0.266300231218338
1.293797492980957 0.8341483473777771 -0.06315411627292633
1.1165028810501099 0.9249887466430664 0.13999199867248535
0.9392082095146179 1.015829086303711 0.3431381285190582
0.7619135975837708 1.1066694259643555 0.5462842583656311
0.5846189260482788 1.1975098848342896 0.7494303584098816
0.40732431411743164 1.288350224494934 0.9525765180587769
0.23002968728542328 1.3791905641555786 1.1557226181030273
0.05273505300283432 1.4700309038162231 1.3588687181472778
-0.12455957382917404 1.5608712434768677 1.5620148181915283
-0.3018541932106018 1.6517117023468018 1.7651610374450684
-0.47914883494377136 1.7425520420074463 1.9683071374893188
-0.6564434766769409 1.8333923816680908 2.1714532375335693
-0.8337380886077881 1.9242327213287354 2.3745994567871094
-1.0110327005386353 2.01507306098938 2.5777454376220703
1.5788383483886719 0.9630764722824097 -0.6690385341644287
1.4015437364578247 1.0539168119430542 -0.46589237451553345
1.2242491245269775 1.1447572708129883 -0.26274627447128296
1.0469545125961304 1.2355976104736328 -0.05960014462471008
0.8696598410606384 1.3264379501342773 0.1435459703207016
0.6923652291297913 1.4172782897949219 0.3466920852661133
0.5150706171989441 1.508118748664856 0.5498382449150085
0.33777597546577454 1.5989590883255005 0.752984344959259
0.16048134863376617 1.689799427986145 0.9561304450035095
-0.016813283786177635 1.7806397676467896 1.1592766046524048
-0.19410791993141174 1.8714802265167236 1.3624227046966553
-0.3714025318622589 1.9623205661773682 1.5655688047409058
-0.5486971735954285 2.0531609058380127 1.7687149047851562
-0.7259917855262756 2.1440012454986572 1.9718611240386963
-0.9032864570617676 2.2348415851593018 2.1750071048736572
-1.0805810689926147 2.3256819248199463 2.3781533241271973
1.4532439708709717 1.2322956323623657 -0.8990363478660583
1.2759493589401245 1.3231359720230103 -0.6958901882171631
1.0986547470092773 1.4139763116836548 -0.4927440881729126
0.9213601350784302 1.5048166513442993 -0.2895979583263397
0.744065523147583 1.5956571102142334 -0.08645185083150864
0.5667708516120911 1.686497449874878 0.11669427156448364
0.3894762396812439 1.7773377895355225 0.3198404014110565
0.21218162775039673 1.868178129196167 0.5229865312576294
0.03488698974251747 1.959018588066101 0.7261326313018799
-0.1424076408147812 2.049858808517456 0.9292787313461304
-0.31970226764678955 2.1406993865966797 1.1324248313903809
-0.4969969093799591 2.231539726257324 1.335571050643921
-0.6742915511131287 2.3223800659179688 1.5387171506881714
-0.8515861630439758 2.4132204055786133 1.7418632507324219
-1.0288808345794678 2.504060745239258 1.9450093507766724
-1.206175446510315 2.5949010848999023 2.148155450820923
1.2767455577850342 1.4491031169891357 -1.1500236988067627
1.0994508266448975 1.5399434566497803 -0.9468775987625122
0.9221562743186951 1.6307837963104248 -0.7437314391136169
0.7448616027832031 1.7216241359710693 -0.5405853390693665
0.567566990852356 1.8124644756317139 -0.3374392092227936
0.3902723491191864 1.903304934501648 -0.1342930942773819
0.21297772228717804 1.9941452741622925 0.06885302811861038
0.035683099180459976 2.0849857330322266 0.27199915051460266
-0.14161153137683868 2.175826072692871 0.47514528036117554
-0.31890615820884705 2.2666664123535156 0.678291380405426
-0.4962007999420166 2.35750675201416 0.8814375400543213
-0.6734954118728638 2.4483470916748047 1.0845836400985718
-0.8507900238037109 2.539187431335449 1.2877297401428223
-1.028084635734558 2.6300277709960938 1.4908758401870728
-1.2053793668746948 2.7208681106567383 1.6940220594406128
-1.382673978805542 2.811708688735962 1.8971681594848633
1.0565687417984009 1.604622721672058 -1.4117251634597778
0.8792740702629089 1.6954631805419922 -1.2085790634155273
0.7019794583320618 1.7863035202026367 -1.0054329633712769
0.5246847867965698 1.8771438598632812 -0.8022868037223816
0.34739017486572266 1.9679841995239258 -0.5991407036781311
0.1700955331325531 2.0588245391845703 -0.39599454402923584
-0.0071990895085036755 2.149664878845215 -0.19284842908382416
-0.18449372053146362 2.2405054569244385 0.010297691449522972
-0.3617883622646332 2.331345796585083 0.2134438157081604
-0.5390830039978027 2.4221861362457275 0.4165899455547333
-0.7163776159286499 2.513026475906372 0.6197360754013062
-0.8936722278594971 2.6038668155670166 0.8228821754455566
-1.0709668397903442 2.694707155227661 1.0260282754898071
-1.2482614517211914 2.7855474948883057 1.2291743755340576
-1.4255561828613281 2.87638783454895 1.4323205947875977
-1.6028507947921753 2.967228412628174 1.6354666948318481
