ply
format ascii 1.0
element vertex 512
property float x
property float y
property float z
end_header
0.9214072227478027 1.8505606651306152 -1.4660837650299072
0.9189119935035706 1.8541508913040161 -1.181593656539917
0.9164167046546936 1.8577412366867065 -0.8971036076545715
0.9139214754104614 1.8613314628601074 -0.6126135587692261
0.9114261865615845 1.8649218082427979 -0.328123539686203
0.9089309573173523 1.8685120344161987 -0.043633487075567245
0.9064356684684753 1.8721023797988892 0.24085655808448792
0.9039404392242432 1.87569260597229 0.5253466367721558
0.901445209980011 1.8792829513549805 0.8098366856575012
0.898949921131134 1.8828731775283813 1.0943267345428467
0.8964546918869019 1.8864635229110718 1.3788167238235474
0.8939594030380249 1.8900537490844727 1.6633068323135376
0.8914641737937927 1.893644094467163 1.9477968215942383
0.8889688849449158 1.897234320640564 2.2322869300842285
0.8864736557006836 1.9008246660232544 2.5167770385742188
0.8839783668518066 1.9044148921966553 2.80126690864563
0.5476473569869995 1.8125132322311401 -1.4688818454742432
0.5451521277427673 1.816103458404541 -1.184391736984253
0.5426568388938904 1.819693684577942 -0.8999016880989075
0.5401616096496582 1.8232840299606323 -0.615411639213562
0.5376663208007812 1.8268742561340332 -0.33092162013053894
0.5351710915565491 1.8304646015167236 -0.046431563794612885
0.5326758623123169 1.8340548276901245 0.23805849254131317
0.5301805734634399 1.837645173072815 0.5225485563278198
0.5276853442192078 1.8412353992462158 0.8070386052131653
0.5251900553703308 1.8448257446289062 1.0915286540985107
0.5226948261260986 1.8484159708023071 1.3760186433792114
0.5201995372772217 1.8520063161849976 1.6605087518692017
0.5177043080329895 1.8555965423583984 1.9449987411499023
0.5152090787887573 1.8591868877410889 2.2294888496398926
0.5127137899398804 1.8627771139144897 2.513978958129883
0.5102185606956482 1.8663674592971802 2.798468828201294
0.18918928503990173 1.700011134147644 -1.4706060886383057
0.18669402599334717 1.7036014795303345 -1.1861159801483154
0.1841987818479538 1.7071917057037354 -0.90162593126297
0.18170352280139923 1.7107820510864258 -0.6171358823776245
0.17920826375484467 1.7143722772598267 -0.33264586329460144
0.1767130047082901 1.717962622642517 -0.048155806958675385
0.17421776056289673 1.721552848815918 0.23633424937725067
0.17172250151634216 1.7251431941986084 0.5208243131637573
0.1692272424697876 1.7287334203720093 0.8053143620491028
0.16673198342323303 1.7323237657546997 1.0898044109344482
0.16423673927783966 1.7359139919281006 1.374294400215149
0.1617414802312851 1.739504337310791 1.6587845087051392
0.15924622118473053 1.743094563484192 1.9432744979858398
0.15675096213817596 1.7466849088668823 2.22776460647583
0.1542557179927826 1.7502751350402832 2.5122547149658203
0.15176045894622803 1.7538654804229736 2.7967445850372314
-0.1392917037010193 1.5176604986190796 -1.4711859226226807
-0.14178696274757385 1.52125084400177 -1.1866958141326904
-0.14428222179412842 1.524841070175171 -0.902205765247345
-0.1467774659395218 1.5284314155578613 -0.6177157163619995
-0.14927272498607635 1.5320216417312622 -0.33322566747665405
-0.15176798403263092 1.5356119871139526 -0.04873562976717949
-0.15426324307918549 1.5392022132873535 0.23575441539287567
-0.15675848722457886 1.542792558670044 0.5202444791793823
-0.15925374627113342 1.5463827848434448 0.8047345280647278
-0.161749005317688 1.5499730110168457 1.0892245769500732
-0.16424426436424255 1.5535633563995361 1.373714566230774
-0.16673950850963593 1.557153582572937 1.6582046747207642
-0.1692347675561905 1.5607439279556274 1.9426947832107544
-0.17173002660274506 1.5643341541290283 2.227184772491455
-0.17422528564929962 1.5679244995117188 2.5116748809814453
-0.176720529794693 1.5715147256851196 2.7961649894714355
-0.42434754967689514 1.2729265689849854 -1.470597505569458
-0.4268428087234497 1.2765169143676758 -1.1861075162887573
-0.4293380677700043 1.2801071405410767 -0.9016174674034119
-0.43183332681655884 1.283697485923767 -0.6171273589134216
-0.4343285858631134 1.287287712097168 -0.33263733983039856
-0.43682384490966797 1.2908780574798584 -0.0481472872197628
-0.43931910395622253 1.2944682836532593 0.23634275794029236
-0.4418143332004547 1.2980586290359497 0.5208328366279602
-0.4443095922470093 1.3016488552093506 0.8053228855133057
-0.44680485129356384 1.305239200592041 1.0898128747940063
-0.4493001103401184 1.308829426765442 1.3743029832839966
-0.451795369386673 1.3124197721481323 1.6587929725646973
-0.45429062843322754 1.3160099983215332 1.9432830810546875
-0.4567858874797821 1.3196003437042236 2.2277731895446777
-0.45928114652633667 1.3231905698776245 2.512263059616089
-0.46177637577056885 1.326780915260315 2.796753168106079
-0.6543080806732178 0.9758289456367493 -1.468865156173706
-0.65680330991745 0.9794192314147949 -1.1843750476837158
-0.6592985391616821 0.9830095171928406 -0.8998849987983704
-0.6617938280105591 0.9865998029708862 -0.6153949499130249
-0.6642890572547913 0.9901900887489319 -0.33090493083000183
-0.6667843461036682 0.9937803745269775 -0.04641487076878548
-0.6692795753479004 0.9973706603050232 0.23807518184185028
-0.6717748641967773 1.0009609460830688 0.5225652456283569
-0.6742700934410095 1.0045511722564697 0.8070552945137024
-0.6767653226852417 1.0081415176391602 1.0915453433990479
-0.6792606115341187 1.011731743812561 1.3760353326797485
-0.6817558407783508 1.0153220891952515 1.6605254411697388
-0.6842511296272278 1.0189123153686523 1.9450154304504395
-0.68674635887146 1.0225026607513428 2.2295055389404297
-0.6892416477203369 1.0260928869247437 2.51399564743042
-0.6917368769645691 1.029683232307434 2.798485517501831
-0.8197585940361023 0.6385306715965271 -1.4660595655441284
-0.8222538232803345 0.6421209573745728 -1.1815694570541382
-0.8247491121292114 0.6457112431526184 -0.8970794677734375
-0.8272443413734436 0.6493015289306641 -0.612589418888092
-0.8297396302223206 0.6528918147087097 -0.3280993700027466
-0.8322348594665527 0.6564821004867554 -0.04360930621623993
-0.8347300887107849 0.660072386264801 0.24088074266910553
-0.8372253775596619 0.6636626720428467 0.5253707766532898
-0.839720606803894 0.6672529578208923 0.8098608255386353
-0.842215895652771 0.670843243598938 1.0943509340286255
-0.8447111248970032 0.6744335293769836 1.3788409233093262
-0.8472064137458801 0.6780238151550293 1.6633310317993164
-0.8497016429901123 0.681614100933075 1.947821021080017
-0.8521968722343445 0.6852043271064758 2.2323110103607178
-0.8546921610832214 0.6887946128845215 2.516801118850708
-0.8571873903274536 0.6923848986625671 2.8012912273406982
-0.9139255881309509 0.2748408615589142 -1.462295651435852
-0.9164208173751831 0.27843114733695984 -1.1778056621551514
-0.9189161062240601 0.2820214331150055 -0.8933156132698059
-0.9214113354682922 0.28561171889305115 -0.6088255643844604
-0.9239066243171692 0.2892020046710968 -0.324335515499115
-0.9264018535614014 0.29279226064682007 -0.039845455437898636
-0.9288970828056335 0.2963825464248657 0.24464459717273712
-0.9313923716545105 0.2999728322029114 0.5291346311569214
-0.9338876008987427 0.30356311798095703 0.8136246800422668
-0.9363828897476196 0.3071534037590027 1.0981147289276123
-0.9388781189918518 0.31074368953704834 1.3826048374176025
-0.9413734078407288 0.314333975315094 1.6670948266983032
-0.9438686370849609 0.31792426109313965 1.9515849351882935
-0.9463638663291931 0.3215145468711853 2.236074924468994
-0.9488591551780701 0.32510483264923096 2.5205650329589844
-0.9513543844223022 0.3286951184272766 2.8050551414489746
-0.9329538345336914 -0.1003509983420372 -1.4577276706695557
-0.9354490637779236 -0.09676071256399155 -1.1732375621795654
-0.9379443526268005 -0.09317042678594589 -0.8887475728988647
-0.9404395818710327 -0.08958014100790024 -0.6042575240135193
-0.9429348707199097 -0.08598986268043518 -0.31976744532585144
-0.9454300999641418 -0.08239957690238953 -0.03527740389108658
-0.9479253888130188 -0.07880929112434387 0.24921265244483948
-0.950420618057251 -0.07521900534629822 0.5337026715278625
-0.9529158473014832 -0.07162872701883316 0.818192720413208
-0.9554111361503601 -0.0680384412407875 1.1026828289031982
-0.9579063653945923 -0.06444815546274185 1.387172818183899
-0.9604016542434692 -0.060857873409986496 1.6716629266738892
-0.9628968834877014 -0.05726758763194084 1.9561529159545898
-0.9653921723365784 -0.053677305579185486 2.24064302444458
-0.9678874015808105 -0.05008701980113983 2.5251331329345703
-0.9703826308250427 -0.046496737748384476 2.8096230030059814
-0.8760643005371094 -0.4716844856739044 -1.4525424242019653
-0.8785595893859863 -0.46809419989585876 -1.168052315711975
-0.8810548186302185 -0.4645039141178131 -0.8835623264312744
-0.8835501074790955 -0.46091362833976746 -0.599072277545929
-0.8860453367233276 -0.4573233425617218 -0.3145822286605835
-0.8885406255722046 -0.45373305678367615 -0.03009217232465744
-0.8910358548164368 -0.4501428008079529 0.2543978691101074
-0.893531084060669 -0.4465525150299072 0.5388879179954529
-0.8960263729095459 -0.4429622292518616 0.8233779668807983
-0.8985216021537781 -0.4393719434738159 1.1078680753707886
-0.901016891002655 -0.43578165769577026 1.3923580646514893
-0.9035121202468872 -0.4321913719177246 1.6768481731414795
-0.9060074090957642 -0.42860108613967896 1.9613381624221802
-0.9085026383399963 -0.4250108003616333 2.245828151702881
-0.9109978675842285 -0.42142051458358765 2.530318260192871
-0.9134931564331055 -0.417830228805542 2.8148083686828613
-0.745586097240448 -0.8239572048187256 -1.4469523429870605
-0.748081386089325 -0.8203669190406799 -1.1624622344970703
-0.7505766153335571 -0.8167766332626343 -0.8779721856117249
-0.7530719041824341 -0.8131863474845886 -0.5934821367263794
-0.7555671334266663 -0.809596061706543 -0.30899208784103394
-0.7580624222755432 -0.8060057759284973 -0.024502046406269073
-0.7605576515197754 -0.8024154901504517 0.259988009929657
-0.7630528807640076 -0.798825204372406 0.5444780588150024
-0.7655481696128845 -0.7952349185943604 0.8289681077003479
-0.7680433988571167 -0.7916446328163147 1.1134581565856934
-0.7705386877059937 -0.788054347038269 1.397948145866394
-0.7730339169502258 -0.7844640612602234 1.6824382543563843
-0.7755292057991028 -0.7808737754821777 1.9669283628463745
-0.778024435043335 -0.7772834897041321 2.251418352127075
-0.7805197238922119 -0.7736932039260864 2.5359084606170654
-0.7830149531364441 -0.7701029181480408 2.8203985691070557
-0.5468609929084778 -1.1427470445632935 -1.4411861896514893
-0.5493562817573547 -1.139156699180603 -1.156696081161499
-0.5518515110015869 -1.1355664730072021 -0.8722060322761536
-0.5543467998504639 -1.1319761276245117 -0.5877159833908081
-0.556842029094696 -1.1283859014511108 -0.30322593450546265
-0.559337317943573 -1.1247955560684204 -0.01873588375747204
-0.5618325471878052 -1.1212053298950195 0.26575416326522827
-0.5643277764320374 -1.117614984512329 0.5502442121505737
-0.5668230652809143 -1.1140247583389282 0.8347342610359192
-0.5693182945251465 -1.1104344129562378 1.1192243099212646
-0.5718135833740234 -1.106844186782837 1.4037144184112549
-0.5743088126182556 -1.1032538414001465 1.6882044076919556
-0.5768041014671326 -1.0996636152267456 1.9726945161819458
-0.5792993307113647 -1.0960732698440552 2.2571845054626465
-0.5817946195602417 -1.0924830436706543 2.5416746139526367
-0.5842898488044739 -1.0888926982879639 2.826164722442627
-0.2880248427391052 -1.415002703666687 -1.435479998588562
-0.2905201017856598 -1.4114123582839966 -1.1509900093078613
-0.29301536083221436 -1.4078221321105957 -0.8664999008178711
-0.29551059007644653 -1.4042317867279053 -0.5820098519325256
-0.2980058491230011 -1.4006415605545044 -0.2975198030471802
-0.30050110816955566 -1.397051215171814 -0.013029753230512142
-0.30299636721611023 -1.393460988998413 0.27146029472351074
-0.3054916262626648 -1.3898706436157227 0.5559503436088562
-0.30798688530921936 -1.3862804174423218 0.8404403924942017
-0.3104821443557739 -1.3826900720596313 1.124930500984192
-0.3129774034023285 -1.3790998458862305 1.4094204902648926
-0.31547263264656067 -1.37550950050354 1.6939105987548828
-0.31796789169311523 -1.3719192743301392 1.9784005880355835
-0.3204631507396698 -1.3683289289474487 2.262890577316284
-0.32295840978622437 -1.3647387027740479 2.5473806858062744
-0.32545366883277893 -1.3611483573913574 2.8318707942962646
0.020325632765889168 -1.6295779943466187 -1.430067539215088
0.0178303774446249 -1.6259876489639282 -1.1455774307250977
0.015335123054683208 -1.6223974227905273 -0.861087441444397
0.012839867733418941 -1.618807077407837 -0.5765973925590515
0.010344612412154675 -1.615216851234436 -0.29210731387138367
0.007849357090890408 -1.6116265058517456 -0.007617263589054346
0.005354101769626141 -1.6080362796783447 0.27687278389930725
0.0028588464483618736 -1.6044459342956543 0.5613628625869751
0.00036359106888994575 -1.6008557081222534 0.8458529114723206
-0.0021316641941666603 -1.597265362739563 1.130342960357666
-0.004626919515430927 -1.593675136566162 1.4148329496383667
-0.007122174836695194 -1.5900847911834717 1.699323058128357
-0.009617430157959461 -1.5864945650100708 1.9838130474090576
-0.012112685479223728 -1.5829042196273804 2.268303155899048
-0.014607940800487995 -1.5793139934539795 2.552793264389038
-0.017103195190429688 -1.575723648071289 2.837283134460449
0.3655664920806885 -1.7776881456375122 -1.4251703023910522
0.3630712330341339 -1.7740979194641113 -1.140680193901062
0.36057597398757935 -1.770507574081421 -0.8561901450157166
0.3580807149410248 -1.76691734790802 -0.5717000961303711
0.3555854558944702 -1.7633270025253296 -0.28721004724502563
0.35309022665023804 -1.7597367763519287 -0.0027200032491236925
0.35059496760368347 -1.7561464309692383 0.2817700505256653
0.3480997085571289 -1.7525562047958374 0.5662600994110107
0.34560444951057434 -1.748965859413147 0.8507501482963562
0.3431091904640198 -1.745375633239746 1.1352401971817017
0.3406139314174652 -1.7417852878570557 1.419730305671692
0.33811867237091064 -1.7381950616836548 1.7042202949523926
0.3356234133243561 -1.7346047163009644 1.9887104034423828
0.3331281840801239 -1.7310144901275635 2.273200511932373
0.33063292503356934 -1.727424144744873 2.557690382003784
0.32813766598701477 -1.7238339185714722 2.8421804904937744
0.7335635423660278 -1.8532696962356567 -1.42098867893219
0.7310682535171509 -1.8496793508529663 -1.1364986896514893
0.7285730242729187 -1.8460891246795654 -0.8520086407661438
0.7260777354240417 -1.842498779296875 -0.5675185918807983
0.7235825061798096 -1.8389085531234741 -0.2830285131931305
0.7210872769355774 -1.8353182077407837 0.0014615332474932075
0.7185919880867004 -1.8317279815673828 0.2859515845775604
0.7160967588424683 -1.8281376361846924 0.5704416632652283
0.7136014699935913 -1.8245474100112915 0.8549317121505737
0.7111062407493591 -1.820957064628601 1.1394217014312744
0.7086109519004822 -1.8173668384552002 1.4239118099212646
0.70611572265625 -1.8137764930725098 1.7084017992019653
0.7036204934120178 -1.8101862668991089 1.9928919076919556
0.7011252045631409 -1.8065959215164185 2.2773818969726562
0.6986299753189087 -1.8030056953430176 2.5618720054626465
0.6961346864700317 -1.7994153499603271 2.8463621139526367
1.1092509031295776 -1.8532280921936035 -1.417694091796875
1.1067556142807007 -1.849637746810913 -1.1332041025161743
1.1042604446411133 -1.8460475206375122 -0.8487139940261841
1.1017651557922363 -1.8424571752548218 -0.5642239451408386
1.0992698669433594 -1.838866949081421 -0.27973389625549316
1.096774697303772 -1.8352766036987305 0.0047561535611748695
1.094279408454895 -1.8316863775253296 0.28924620151519775
1.091784119606018 -1.8280960321426392 0.5737362504005432
1.0892888307571411 -1.8245058059692383 0.8582262992858887
1.0867936611175537 -1.8209154605865479 1.142716407775879
1.0842983722686768 -1.817325234413147 1.4272063970565796
1.0818030834197998 -1.8137348890304565 1.7116965055465698
1.0793077945709229 -1.8101446628570557 1.9961864948272705
1.0768126249313354 -1.8065544366836548 2.2806766033172607
1.0743173360824585 -1.8029640913009644 2.565166711807251
1.0718220472335815 -1.7993738651275635 2.849656581878662
1.477247953414917 -1.7775651216506958 -1.4154212474822998
1.47475266456604 -1.773974895477295 -1.1309312582015991
1.4722574949264526 -1.7703845500946045 -0.8464411497116089
1.4697622060775757 -1.7667943239212036 -0.5619511008262634
1.4672669172286987 -1.7632039785385132 -0.27746108174324036
1.4647716283798218 -1.7596137523651123 0.007028975058346987
1.4622764587402344 -1.7560234069824219 0.29151901602745056
1.4597811698913574 -1.752433180809021 0.5760090947151184
1.4572858810424805 -1.7488428354263306 0.8604991436004639
1.454790711402893 -1.7452526092529297 1.1449891328811646
1.4522954225540161 -1.7416622638702393 1.4294792413711548
1.4498001337051392 -1.7380720376968384 1.7139692306518555
1.4473048448562622 -1.734481692314148 1.9984593391418457
1.4448096752166748 -1.730891466140747 2.282949447631836
1.4423143863677979 -1.7273011207580566 2.567439317703247
1.439819097518921 -1.7237108945846558 2.8519294261932373
1.822488784790039 -1.6293785572052002 -1.4142632484436035
1.8199936151504517 -1.6257882118225098 -1.1297732591629028
1.8174983263015747 -1.6221979856491089 -0.8452832102775574
1.8150030374526978 -1.6186076402664185 -0.5607931613922119
1.8125077486038208 -1.6150174140930176 -0.27630311250686646
1.8100125789642334 -1.6114270687103271 0.008186948485672474
1.8075172901153564 -1.6078368425369263 0.29267698526382446
1.8050220012664795 -1.6042464971542358 0.5771670341491699
1.8025267124176025 -1.600656270980835 0.8616570830345154
1.8000315427780151 -1.5970659255981445 1.1461471319198608
1.7975362539291382 -1.5934756994247437 1.430637240409851
1.7950409650802612 -1.5898853540420532 1.7151272296905518
1.7925457954406738 -1.5862951278686523 1.999617338180542
1.7900505065917969 -1.582704782485962 2.2841074466705322
1.78755521774292 -1.579114556312561 2.5685973167419434
1.785059928894043 -1.5755242109298706 2.8530874252319336
2.1308393478393555 -1.414734959602356 -1.4142675399780273
2.1283440589904785 -1.411144733428955 -1.1297775506973267
2.1258487701416016 -1.4075543880462646 -0.8452875018119812
2.1233534812927246 -1.4039641618728638 -0.5607974529266357
2.1208581924438477 -1.4003738164901733 -0.2763073742389679
2.1183629035949707 -1.3967835903167725 0.008182667195796967
2.115867853164673 -1.393193244934082 0.292672723531723
2.113372564315796 -1.3896030187606812 0.5771627426147461
2.110877275466919 -1.3860126733779907 0.8616527915000916
2.108381986618042 -1.3824224472045898 1.146142840385437
2.105886697769165 -1.3788321018218994 1.4306329488754272
2.103391408920288 -1.3752418756484985 1.715122938156128
2.100896120071411 -1.371651530265808 1.9996130466461182
2.0984010696411133 -1.3680613040924072 2.2841031551361084
2.0959057807922363 -1.3644709587097168 2.5685930252075195
2.0934104919433594 -1.360880732536316 2.8530831336975098
2.3896753787994385 -1.1424219608306885 -1.4154340028762817
2.3871800899505615 -1.1388317346572876 -1.1309438943862915
2.3846850395202637 -1.1352415084838867 -0.846453845500946
2.3821897506713867 -1.1316511631011963 -0.5619637966156006
2.3796944618225098 -1.1280609369277954 -0.2774737477302551
2.377199172973633 -1.124470591545105 0.0070163048803806305
2.374703884124756 -1.120880365371704 0.2915063500404358
2.372208595275879 -1.1172900199890137 0.5759963989257812
2.369713306427002 -1.1136997938156128 0.8604864478111267
2.367218255996704 -1.1101094484329224 1.1449764966964722
2.364722967147827 -1.1065192222595215 1.4294666051864624
2.36222767829895 -1.102928876876831 1.713956594467163
2.3597323894500732 -1.0993386507034302 1.9984467029571533
2.3572371006011963 -1.0957483053207397 2.2829368114471436
2.3547418117523193 -1.0921580791473389 2.5674266815185547
2.3522465229034424 -1.0885677337646484 2.851916790008545
2.5884006023406982 -0.8235881924629211 -1.4177145957946777
2.5859053134918213 -0.8199979066848755 -1.133224606513977
2.5834100246429443 -0.8164076209068298 -0.8487345576286316
2.5809147357940674 -0.8128173351287842 -0.5642445087432861
2.5784194469451904 -0.8092270493507385 -0.2797544300556183
2.5759243965148926 -0.8056367635726929 0.004735613241791725
2.5734291076660156 -0.8020464777946472 0.28922566771507263
2.5709338188171387 -0.7984562516212463 0.5737156867980957
2.5684385299682617 -0.7948659658432007 0.8582057356834412
2.5659432411193848 -0.791275680065155 1.1426957845687866
2.563447952270508 -0.7876853942871094 1.4271858930587769
2.560952663421631 -0.7840951085090637 1.7116758823394775
2.558457612991333 -0.7805048227310181 1.9961659908294678
2.555962324142456 -0.7769145369529724 2.280656099319458
2.553467035293579 -0.7733242511749268 2.565145969390869
2.550971746444702 -0.7697339653968811 2.8496360778808594
2.718878746032715 -0.4712866246700287 -1.4210163354873657
2.716383457183838 -0.46769633889198303 -1.1365262269973755
2.713888168334961 -0.4641060531139374 -0.85203617811203
2.711393117904663 -0.4605157673358917 -0.5675461292266846
2.708897829055786 -0.45692548155784607 -0.2830560803413391
2.706402540206909 -0.4533351957798004 0.00143396423663944
2.7039072513580322 -0.44974493980407715 0.2859240174293518
2.7014119625091553 -0.4461546540260315 0.5704140663146973
2.6989166736602783 -0.44256436824798584 0.8549041152000427
2.6964213848114014 -0.4389740824699402 1.1393941640853882
2.6939263343811035 -0.43538379669189453 1.4238842725753784
2.6914310455322266 -0.4317935109138489 1.708374261856079
2.6889357566833496 -0.4282032251358032 1.9928643703460693
2.6864404678344727 -0.42461293935775757 2.2773544788360596
2.6839451789855957 -0.4210226535797119 2.5618443489074707
2.6814498901367188 -0.41743236780166626 2.846334457397461
2.775768280029297 -0.09994054585695267 -1.4252036809921265
2.77327299118042 -0.09635026007890701 -1.1407136917114258
2.770777702331543 -0.09275997430086136 -0.8562236428260803
2.768282413482666 -0.0891696885228157 -0.5717335939407349
2.765787363052368 -0.08557940274477005 -0.287243515253067
2.763292074203491 -0.08198912441730499 -0.0027534724213182926
2.7607967853546143 -0.07839883863925934 0.2817365825176239
2.7583014965057373 -0.07480855286121368 0.566226601600647
2.7558062076568604 -0.07121826708316803 0.8507166504859924
2.7533109188079834 -0.06762798875570297 1.135206699371338
2.7508156299591064 -0.06403770297765732 1.4196968078613281
2.7483205795288086 -0.060447417199611664 1.7041867971420288
2.7458252906799316 -0.05685713514685631 1.988676905632019
2.7433300018310547 -0.053266849368810654 2.2731668949127197
2.7408347129821777 -0.0496765673160553 2.55765700340271
2.738339424133301 -0.046086281538009644 2.8421471118927
2.756740093231201 0.27524709701538086 -1.4301055669784546
2.754244804382324 0.2788373827934265 -1.1456154584884644
2.7517495155334473 0.28242766857147217 -0.8611254096031189
2.7492542266845703 0.2860179543495178 -0.5766353607177734
2.7467589378356934 0.2896082401275635 -0.292145311832428
2.7442636489868164 0.29319852590560913 -0.007655262481421232
2.7417685985565186 0.2967888116836548 0.27683478593826294
2.7392733097076416 0.30037909746170044 0.5613248348236084
2.7367780208587646 0.3039693832397461 0.8458148837089539
2.7342827320098877 0.30755963921546936 1.1303049325942993
2.7317874431610107 0.311149924993515 1.4147950410842896
2.729292154312134 0.31474021077156067 1.6992850303649902
2.726796865463257 0.3183304965496063 1.9837751388549805
2.724301815032959 0.321920782327652 2.2682652473449707
2.721806526184082 0.32551106810569763 2.552755117416382
2.719311237335205 0.3291013538837433 2.837245225906372
2.6625730991363525 0.6389160752296448 -1.4355210065841675
2.6600778102874756 0.6425063610076904 -1.1510308980941772
2.6575825214385986 0.6460966467857361 -0.8665408492088318
2.6550872325897217 0.6496869325637817 -0.5820508003234863
2.6525919437408447 0.6532772183418274 -0.29756078124046326
2.6500966548919678 0.656867504119873 -0.013070725835859776
2.64760160446167 0.6604577898979187 0.27141931653022766
2.645106315612793 0.6640480756759644 0.5559093952178955
2.642611026763916 0.66763836145401 0.840399444103241
2.640115737915039 0.6712286472320557 1.1248894929885864
2.637620449066162 0.6748188734054565 1.409379482269287
2.635125160217285 0.6784091591835022 1.6938695907592773
2.632629871368408 0.6819994449615479 1.978359580039978
2.6301348209381104 0.6855897307395935 2.2628495693206787
2.6276395320892334 0.6891800165176392 2.547339677810669
2.6251442432403564 0.6927703022956848 2.831829786300659
2.4971225261688232 0.9761776924133301 -1.4412283897399902
2.4946272373199463 0.9797679781913757 -1.1567384004592896
2.4921319484710693 0.9833582639694214 -0.8722482919692993
2.4896366596221924 0.986948549747467 -0.5877582430839539
2.4871413707733154 0.9905388355255127 -0.3032681941986084
2.4846463203430176 0.9941291213035583 -0.018778154626488686
2.4821510314941406 0.997719407081604 0.2657119035720825
2.4796557426452637 1.0013096332550049 0.550201952457428
2.4771604537963867 1.0048999786376953 0.8346920013427734
2.4746651649475098 1.0084902048110962 1.1191819906234741
2.472169876098633 1.0120805501937866 1.4036720991134644
2.469674587249756 1.0156707763671875 1.6881622076034546
2.467179536819458 1.019261121749878 1.9726521968841553
2.464684247970581 1.0228513479232788 2.2571423053741455
2.462188959121704 1.0264416933059692 2.5416324138641357
2.459693670272827 1.0300319194793701 2.826122283935547
2.2671620845794678 1.2732244729995728 -1.4469941854476929
2.264666795730591 1.2768148183822632 -1.1625040769577026
2.262171506881714 1.280405044555664 -0.8780140280723572
2.259676218032837 1.2839953899383545 -0.5935239791870117
2.25718092918396 1.2875856161117554 -0.30903393030166626
2.254685640335083 1.2911759614944458 -0.02454388327896595
2.252190589904785 1.2947661876678467 0.25994616746902466
2.249695301055908 1.298356533050537 0.5444362163543701
2.2472000122070312 1.301946759223938 0.8289262652397156
2.2447047233581543 1.3055371046066284 1.113416314125061
2.2422094345092773 1.3091273307800293 1.3979064226150513
2.2397141456604004 1.3127175569534302 1.682396411895752
2.2372188568115234 1.3163079023361206 1.9668865203857422
2.2347235679626465 1.3198981285095215 2.2513766288757324
2.2322285175323486 1.323488473892212 2.5358664989471436
2.2297332286834717 1.3270787000656128 2.820356607437134
1.9821062088012695 1.5178953409194946 -1.4525821208953857
1.9796109199523926 1.5214855670928955 -1.1680920124053955
1.9771156311035156 1.525075912475586 -0.8836020231246948
1.9746203422546387 1.5286661386489868 -0.5991119742393494
1.9721251726150513 1.5322564840316772 -0.3146219253540039
1.9696298837661743 1.5358467102050781 -0.030131863430142403
1.9671345949172974 1.5394370555877686 0.2543582022190094
1.9646393060684204 1.5430272817611694 0.5388482213020325
1.962144136428833 1.5466175079345703 0.8233382701873779
1.959648847579956 1.5502078533172607 1.1078283786773682
1.957153558731079 1.5537980794906616 1.3923183679580688
1.9546583890914917 1.557388424873352 1.676808476448059
1.9521631002426147 1.560978651046753 1.9612984657287598
1.9496678113937378 1.5645689964294434 2.24578857421875
1.9471725225448608 1.5681592226028442 2.5302786827087402
1.9446773529052734 1.5717495679855347 2.8147685527801514
1.6536251306533813 1.700173258781433 -1.4577635526657104
1.651129961013794 1.703763484954834 -1.1732735633850098
1.648634672164917 1.7073538303375244 -0.8887834548950195
1.64613938331604 1.7109440565109253 -0.6042934060096741
1.643644094467163 1.7145344018936157 -0.319803386926651
1.6411489248275757 1.7181246280670166 -0.03531332314014435
1.6386536359786987 1.721714973449707 0.2491767257452011
1.6361583471298218 1.725305199623108 0.5336667895317078
1.6336630582809448 1.7288955450057983 0.8181568384170532
1.6311678886413574 1.7324857711791992 1.102646827697754
1.6286725997924805 1.7360761165618896 1.3871369361877441
1.6261773109436035 1.7396663427352905 1.6716269254684448
1.6236821413040161 1.743256688117981 1.956117033958435
1.6211868524551392 1.7468469142913818 2.2406070232391357
1.6186915636062622 1.7504372596740723 2.525097131729126
1.6161962747573853 1.7540274858474731 2.809587240219116
1.295167088508606 1.8125959634780884 -1.4623264074325562
1.292671799659729 1.8161861896514893 -1.177836298942566
1.290176510810852 1.8197764158248901 -0.8933463096618652
1.2876813411712646 1.8233667612075806 -0.608856201171875
1.2851860523223877 1.8269569873809814 -0.32436618208885193
1.2826907634735107 1.8305473327636719 -0.03987612947821617
1.2801955938339233 1.8341375589370728 0.244613915681839
1.2777003049850464 1.8377279043197632 0.5291039943695068
1.2752050161361694 1.841318130493164 0.8135940432548523
1.2727097272872925 1.8449084758758545 1.0980840921401978
1.270214557647705 1.8484987020492554 1.3825740814208984
1.2677192687988281 1.8520890474319458 1.6670641899108887
1.2652239799499512 1.8556792736053467 1.9515541791915894
1.2627288103103638 1.859269618988037 2.23604416847229
1.2602335214614868 1.862859845161438 2.5205342769622803
1.2577382326126099 1.8664501905441284 2.8050243854522705
0.9214072227478027 1.8505606651306152 -1.4660837650299072
0.9189119935035706 1.8541508913040161 -1.181593656539917
0.9164167046546936 1.8577412366867065 -0.8971036076545715
0.9139214754104614 1.8613314628601074 -0.6126135587692261
0.9114261865615845 1.8649218082427979 -0.328123539686203
0.9089309573173523 1.8685120344161987 -0.043633487075567245
0.9064356684684753 1.8721023797988892 0.24085655808448792
0.9039404392242432 1.87569260597229 0.5253466367721558
0.901445209980011 1.8792829513549805 0.8098366856575012
0.898949921131134 1.8828731775283813 1.0943267345428467
0.8964546918869019 1.8864635229110718 1.3788167238235474
0.8939594030380249 1.8900537490844727 1.6633068323135376
0.8914641737937927 1.893644094467163 1.9477968215942383
0.8889688849449158 1.897234320640564 2.2322869300842285
0.8864736557006836 1.9008246660232544 2.5167770385742188
0.8839783668518066 1.9044148921966553 2.80126690864563
