ply
format ascii 1.0
element vertex 1371
property float x
property float y
property float z
end_header
13.25 32.25 0.0
13.25 32.75 0.0
13.25 33.25 0.0
13.25 33.75 0.0
13.25 34.25 0.0
13.75 31.75 0.0
13.75 32.25 0.0
13.75 32.75 0.0
13.75 33.25 0.0
13.75 33.75 0.0
13.75 34.25 0.0
13.75 34.75 0.0
14.25 19.75 0.0
14.25 20.25 0.0
14.25 20.75 0.0
14.25 21.25 0.0
14.25 21.75 0.0
14.25 31.25 0.0
14.25 31.75 0.0
14.25 32.25 0.0
14.25 32.75 0.0
14.25 33.25 0.0
14.25 33.75 0.0
14.25 34.25 0.0
14.25 34.75 0.0
14.75 6.75 0.0
14.75 7.25 0.0
14.75 7.75 0.0
14.75 8.25 0.0
14.75 19.25 0.0
14.75 19.75 0.0
14.75 20.25 0.0
14.75 20.75 0.0
14.75 21.25 0.0
14.75 21.75 0.0
14.75 30.75 0.0
14.75 31.25 0.0
14.75 31.75 0.0
14.75 32.25 0.0
14.75 32.75 0.0
14.75 33.25 0.0
14.75 33.75 0.0
14.75 34.25 0.0
14.75 34.75 0.0
15.25 6.25 0.0
15.25 6.75 0.0
15.25 7.25 0.0
15.25 7.75 0.0
15.25 8.25 0.0
15.25 8.75 0.0
15.25 18.75 0.0
15.25 19.25 0.0
15.25 19.75 0.0
15.25 20.25 0.0
15.25 20.75 0.0
15.25 21.25 0.0
15.25 21.75 0.0
15.25 30.25 0.0
15.25 30.75 0.0
15.25 31.25 0.0
15.25 31.75 0.0
15.25 32.25 0.0
15.25 32.75 0.0
15.25 33.25 0.0
15.25 33.75 0.0
15.25 34.25 0.0
15.25 34.75 0.0
15.75 6.25 0.0
15.75 6.75 0.0
15.75 7.25 0.0
15.75 7.75 0.0
15.75 8.25 0.0
15.75 8.75 0.0
15.75 18.25 0.0
15.75 18.75 0.0
15.75 19.25 0.0
15.75 19.75 0.0
15.75 20.25 0.0
15.75 20.75 0.0
15.75 21.25 0.0
15.75 21.75 0.0
15.75 29.75 0.0
15.75 30.25 0.0
15.75 30.75 0.0
15.75 31.25 0.0
15.75 31.75 0.0
15.75 32.25 0.0
15.75 32.75 0.0
15.75 33.25 0.0
15.75 33.75 0.0
15.75 34.25 0.0
16.25 6.25 0.0
16.25 6.75 0.0
16.25 7.25 0.0
16.25 7.75 0.0
16.25 8.25 0.0
16.25 8.75 0.0
16.25 17.75 0.0
16.25 18.25 0.0
16.25 18.75 0.0
16.25 19.25 0.0
16.25 19.75 0.0
16.25 20.25 0.0
16.25 20.75 0.0
16.25 21.25 0.0
16.25 21.75 0.0
16.25 29.75 0.0
16.25 30.25 0.0
16.25 30.75 0.0
16.25 31.25 0.0
16.25 31.75 0.0
16.25 32.25 0.0
16.25 32.75 0.0
16.25 33.25 0.0
16.25 33.75 0.0
16.25 34.25 0.0
16.75 6.25 0.0
16.75 6.75 0.0
16.75 7.25 0.0
16.75 7.75 0.0
16.75 8.25 0.0
16.75 8.75 0.0
16.75 9.25 0.0
16.75 9.75 0.0
16.75 17.75 0.0
16.75 18.25 0.0
16.75 18.75 0.0
16.75 19.25 0.0
16.75 19.75 0.0
16.75 20.25 0.0
16.75 20.75 0.0
16.75 21.25 0.0
16.75 21.75 0.0
16.75 22.25 0.0
16.75 29.75 0.0
16.75 30.25 0.0
16.75 30.75 0.0
16.75 31.25 0.0
16.75 31.75 0.0
16.75 32.25 0.0
16.75 32.75 0.0
16.75 33.25 0.0
16.75 33.75 0.0
17.25 6.75 0.0
17.25 7.25 0.0
17.25 7.75 0.0
17.25 8.25 0.0
17.25 8.75 0.0
17.25 9.25 0.0
17.25 9.75 0.0
17.25 17.25 0.0
17.25 17.75 0.0
17.25 18.25 0.0
17.25 18.75 0.0
17.25 19.25 0.0
17.25 19.75 0.0
17.25 20.25 0.0
17.25 20.75 0.0
17.25 21.25 0.0
17.25 21.75 0.0
17.25 29.25 0.0
17.25 29.75 0.0
17.25 30.25 0.0
17.25 30.75 0.0
17.25 31.25 0.0
17.25 31.75 0.0
17.25 32.25 0.0
17.25 32.75 0.0
17.25 33.25 0.0
17.75 6.75 0.0
17.75 7.25 0.0
17.75 7.75 0.0
17.75 8.25 0.0
17.75 8.75 0.0
17.75 9.25 0.0
17.75 9.75 0.0
17.75 17.25 0.0
17.75 17.75 0.0
17.75 18.25 0.0
17.75 18.75 0.0
17.75 19.25 0.0
17.75 19.75 0.0
17.75 20.25 0.0
17.75 20.75 0.0
17.75 21.25 0.0
17.75 28.75 0.0
17.75 29.25 0.0
17.75 29.75 0.0
17.75 30.25 0.0
17.75 30.75 0.0
17.75 31.25 0.0
17.75 31.75 0.0
17.75 32.25 0.0
17.75 32.75 0.0
18.25 6.75 0.0
18.25 7.25 0.0
18.25 7.75 0.0
18.25 8.25 0.0
18.25 8.75 0.0
18.25 9.25 0.0
18.25 9.75 0.0
18.25 16.75 0.0
18.25 17.25 0.0
18.25 17.75 0.0
18.25 18.25 0.0
18.25 18.75 0.0
18.25 19.25 0.0
18.25 19.75 0.0
18.25 20.25 0.0
18.25 20.75 0.0
18.25 28.25 0.0
18.25 28.75 0.0
18.25 29.25 0.0
18.25 29.75 0.0
18.25 30.25 0.0
18.25 30.75 0.0
18.25 31.25 0.0
18.25 31.75 0.0
18.25 32.25 0.0
18.75 6.75 0.0
18.75 7.25 0.0
18.75 7.75 0.0
18.75 8.25 0.0
18.75 8.75 0.0
18.75 9.25 0.0
18.75 9.75 0.0
18.75 16.25 0.0
18.75 16.75 0.0
18.75 17.25 0.0
18.75 17.75 0.0
18.75 18.25 0.0
18.75 18.75 0.0
18.75 19.25 0.0
18.75 19.75 0.0
18.75 20.25 0.0
18.75 27.75 0.0
18.75 28.25 0.0
18.75 28.75 0.0
18.75 29.25 0.0
18.75 29.75 0.0
18.75 30.25 0.0
18.75 30.75 0.0
18.75 31.25 0.0
18.75 31.75 0.0
19.25 6.75 0.0
19.25 7.25 0.0
19.25 7.75 0.0
19.25 8.25 0.0
19.25 8.75 0.0
19.25 9.25 0.0
19.25 9.75 0.0
19.25 16.25 0.0
19.25 16.75 0.0
19.25 17.25 0.0
19.25 17.75 0.0
19.25 18.25 0.0
19.25 18.75 0.0
19.25 19.25 0.0
19.25 19.75 0.0
19.25 27.25 0.0
19.25 27.75 0.0
19.25 28.25 0.0
19.25 28.75 0.0
19.25 29.25 0.0
19.25 29.75 0.0
19.25 30.25 0.0
19.25 30.75 0.0
19.25 31.25 0.0
19.75 6.75 0.0
19.75 7.25 0.0
19.75 7.75 0.0
19.75 8.25 0.0
19.75 8.75 0.0
19.75 9.25 0.0
19.75 9.75 0.0
19.75 10.25 0.0
19.75 16.25 0.0
19.75 16.75 0.0
19.75 17.25 0.0
19.75 17.75 0.0
19.75 18.25 0.0
19.75 18.75 0.0
19.75 19.25 0.0
19.75 19.75 0.0
19.75 27.25 0.0
19.75 27.75 0.0
19.75 28.25 0.0
19.75 28.75 0.0
19.75 29.25 0.0
19.75 29.75 0.0
19.75 30.25 0.0
19.75 30.75 0.0
19.75 31.25 0.0
20.25 6.75 0.0
20.25 7.25 0.0
20.25 7.75 0.0
20.25 8.25 0.0
20.25 8.75 0.0
20.25 9.25 0.0
20.25 9.75 0.0
20.25 10.25 0.0
20.25 15.75 0.0
20.25 16.25 0.0
20.25 16.75 0.0
20.25 17.25 0.0
20.25 17.75 0.0
20.25 18.25 0.0
20.25 18.75 0.0
20.25 19.25 0.0
20.25 26.75 0.0
20.25 27.25 0.0
20.25 27.75 0.0
20.25 28.25 0.0
20.25 28.75 0.0
20.25 29.25 0.0
20.25 29.75 0.0
20.25 30.25 0.0
20.25 30.75 0.0
20.25 31.25 0.0
20.25 31.75 0.0
20.25 32.25 0.0
20.75 7.25 0.0
20.75 7.75 0.0
20.75 8.25 0.0
20.75 8.75 0.0
20.75 9.25 0.0
20.75 9.75 0.0
20.75 10.25 0.0
20.75 10.75 0.0
20.75 15.25 0.0
20.75 15.75 0.0
20.75 16.25 0.0
20.75 16.75 0.0
20.75 17.25 0.0
20.75 17.75 0.0
20.75 18.25 0.0
20.75 18.75 0.0
20.75 26.75 0.0
20.75 27.25 0.0
20.75 27.75 0.0
20.75 28.25 0.0
20.75 28.75 0.0
20.75 29.25 0.0
20.75 29.75 0.0
20.75 30.25 0.0
20.75 30.75 0.0
20.75 31.25 0.0
20.75 31.75 0.0
20.75 32.25 0.0
21.25 7.25 0.0
21.25 7.75 0.0
21.25 8.25 0.0
21.25 8.75 0.0
21.25 9.25 0.0
21.25 9.75 0.0
21.25 10.25 0.0
21.25 10.75 0.0
21.25 15.25 0.0
21.25 15.75 0.0
21.25 16.25 0.0
21.25 16.75 0.0
21.25 17.25 0.0
21.25 17.75 0.0
21.25 18.25 0.0
21.25 26.25 0.0
21.25 26.75 0.0
21.25 27.25 0.0
21.25 27.75 0.0
21.25 28.25 0.0
21.25 28.75 0.0
21.25 29.25 0.0
21.25 29.75 0.0
21.25 30.25 0.0
21.25 30.75 0.0
21.25 31.25 0.0
21.25 31.75 0.0
21.25 32.25 0.0
21.75 7.25 0.0
21.75 7.75 0.0
21.75 8.25 0.0
21.75 8.75 0.0
21.75 9.25 0.0
21.75 9.75 0.0
21.75 10.25 0.0
21.75 10.75 0.0
21.75 11.25 0.0
21.75 14.75 0.0
21.75 15.25 0.0
21.75 15.75 0.0
21.75 16.25 0.0
21.75 16.75 0.0
21.75 17.25 0.0
21.75 17.75 0.0
21.75 18.25 0.0
21.75 26.25 0.0
21.75 26.75 0.0
21.75 27.25 0.0
21.75 27.75 0.0
21.75 28.25 0.0
21.75 28.75 0.0
21.75 29.25 0.0
21.75 29.75 0.0
21.75 30.25 0.0
21.75 30.75 0.0
21.75 31.25 0.0
21.75 31.75 0.0
21.75 32.25 0.0
22.25 7.75 0.0
22.25 8.25 0.0
22.25 8.75 0.0
22.25 9.25 0.0
22.25 9.75 0.0
22.25 10.25 0.0
22.25 10.75 0.0
22.25 11.25 0.0
22.25 11.75 0.0
22.25 14.75 0.0
22.25 15.25 0.0
22.25 15.75 0.0
22.25 16.25 0.0
22.25 16.75 0.0
22.25 17.25 0.0
22.25 17.75 0.0
22.25 26.25 0.0
22.25 26.75 0.0
22.25 27.25 0.0
22.25 27.75 0.0
22.25 28.25 0.0
22.25 28.75 0.0
22.25 29.25 0.0
22.25 29.75 0.0
22.25 30.25 0.0
22.25 30.75 0.0
22.25 31.25 0.0
22.25 31.75 0.0
22.25 32.25 0.0
22.75 7.75 0.0
22.75 8.25 0.0
22.75 8.75 0.0
22.75 9.25 0.0
22.75 9.75 0.0
22.75 10.25 0.0
22.75 10.75 0.0
22.75 11.25 0.0
22.75 11.75 0.0
22.75 12.25 0.0
22.75 12.75 0.0
22.75 14.25 0.0
22.75 14.75 0.0
22.75 15.25 0.0
22.75 15.75 0.0
22.75 16.25 0.0
22.75 16.75 0.0
22.75 17.25 0.0
22.75 17.75 0.0
22.75 25.75 0.0
22.75 26.25 0.0
22.75 26.75 0.0
22.75 27.25 0.0
22.75 27.75 0.0
22.75 28.25 0.0
22.75 28.75 0.0
22.75 29.25 0.0
22.75 29.75 0.0
22.75 30.25 0.0
22.75 30.75 0.0
22.75 31.25 0.0
22.75 31.75 0.0
22.75 32.25 0.0
23.25 8.25 0.0
23.25 8.75 0.0
23.25 9.25 0.0
23.25 9.75 0.0
23.25 10.25 0.0
23.25 10.75 0.0
23.25 11.25 0.0
23.25 11.75 0.0
23.25 12.25 0.0
23.25 12.75 0.0
23.25 13.25 0.0
23.25 13.75 0.0
23.25 14.25 0.0
23.25 14.75 0.0
23.25 15.25 0.0
23.25 15.75 0.0
23.25 16.25 0.0
23.25 16.75 0.0
23.25 17.25 0.0
23.25 17.75 0.0
23.25 26.25 0.0
23.25 26.75 0.0
23.25 27.25 0.0
23.25 27.75 0.0
23.25 28.25 0.0
23.25 28.75 0.0
23.25 29.25 0.0
23.25 29.75 0.0
23.25 30.25 0.0
23.25 30.75 0.0
23.25 31.25 0.0
23.25 31.75 0.0
23.75 8.75 0.0
23.75 9.25 0.0
23.75 9.75 0.0
23.75 10.25 0.0
23.75 10.75 0.0
23.75 11.25 0.0
23.75 11.75 0.0
23.75 12.25 0.0
23.75 12.75 0.0
23.75 13.25 0.0
23.75 13.75 0.0
23.75 14.25 0.0
23.75 14.75 0.0
23.75 15.25 0.0
23.75 15.75 0.0
23.75 16.25 0.0
23.75 16.75 0.0
23.75 17.25 0.0
23.75 17.75 0.0
23.75 25.75 0.0
23.75 26.25 0.0
23.75 26.75 0.0
23.75 27.25 0.0
23.75 27.75 0.0
23.75 28.25 0.0
23.75 28.75 0.0
23.75 29.25 0.0
23.75 29.75 0.0
23.75 30.25 0.0
23.75 30.75 0.0
23.75 31.25 0.0
24.25 9.25 0.0
24.25 9.75 0.0
24.25 10.25 0.0
24.25 10.75 0.0
24.25 11.25 0.0
24.25 11.75 0.0
24.25 12.25 0.0
24.25 12.75 0.0
24.25 13.25 0.0
24.25 13.75 0.0
24.25 14.25 0.0
24.25 14.75 0.0
24.25 15.25 0.0
24.25 15.75 0.0
24.25 16.25 0.0
24.25 16.75 0.0
24.25 17.25 0.0
24.25 17.75 0.0
24.25 24.75 0.0
24.25 25.25 0.0
24.25 25.75 0.0
24.25 26.25 0.0
24.25 26.75 0.0
24.25 27.25 0.0
24.25 27.75 0.0
24.25 28.25 0.0
24.25 28.75 0.0
24.25 29.25 0.0
24.25 29.75 0.0
24.25 30.25 0.0
24.75 10.25 0.0
24.75 10.75 0.0
24.75 11.25 0.0
24.75 11.75 0.0
24.75 12.25 0.0
24.75 12.75 0.0
24.75 13.25 0.0
24.75 13.75 0.0
24.75 14.25 0.0
24.75 14.75 0.0
24.75 15.25 0.0
24.75 15.75 0.0
24.75 16.25 0.0
24.75 16.75 0.0
24.75 17.25 0.0
24.75 17.75 0.0
24.75 18.25 0.0
24.75 18.75 0.0
24.75 19.25 0.0
24.75 23.25 0.0
24.75 23.75 0.0
24.75 24.25 0.0
24.75 24.75 0.0
24.75 25.25 0.0
24.75 25.75 0.0
24.75 26.25 0.0
24.75 26.75 0.0
24.75 27.25 0.0
24.75 27.75 0.0
24.75 28.25 0.0
24.75 28.75 0.0
24.75 29.25 0.0
24.75 29.75 0.0
25.25 10.75 0.0
25.25 11.25 0.0
25.25 11.75 0.0
25.25 12.25 0.0
25.25 12.75 0.0
25.25 13.25 0.0
25.25 13.75 0.0
25.25 14.25 0.0
25.25 14.75 0.0
25.25 15.25 0.0
25.25 15.75 0.0
25.25 16.25 0.0
25.25 16.75 0.0
25.25 17.25 0.0
25.25 17.75 0.0
25.25 18.25 0.0
25.25 18.75 0.0
25.25 19.25 0.0
25.25 19.75 0.0
25.25 20.25 0.0
25.25 20.75 0.0
25.25 21.25 0.0
25.25 22.75 0.0
25.25 23.25 0.0
25.25 23.75 0.0
25.25 24.25 0.0
25.25 24.75 0.0
25.25 25.25 0.0
25.25 25.75 0.0
25.25 26.25 0.0
25.25 26.75 0.0
25.25 27.25 0.0
25.25 27.75 0.0
25.25 28.25 0.0
25.25 28.75 0.0
25.25 29.25 0.0
25.75 11.75 0.0
25.75 12.25 0.0
25.75 12.75 0.0
25.75 13.25 0.0
25.75 13.75 0.0
25.75 14.25 0.0
25.75 14.75 0.0
25.75 15.25 0.0
25.75 15.75 0.0
25.75 16.25 0.0
25.75 16.75 0.0
25.75 17.25 0.0
25.75 17.75 0.0
25.75 18.25 0.0
25.75 18.75 0.0
25.75 19.25 0.0
25.75 19.75 0.0
25.75 20.25 0.0
25.75 20.75 0.0
25.75 21.25 0.0
25.75 21.75 0.0
25.75 22.25 0.0
25.75 22.75 0.0
25.75 23.25 0.0
25.75 23.75 0.0
25.75 24.25 0.0
25.75 24.75 0.0
25.75 25.25 0.0
25.75 25.75 0.0
25.75 26.25 0.0
25.75 26.75 0.0
25.75 27.25 0.0
25.75 27.75 0.0
25.75 28.25 0.0
25.75 28.75 0.0
25.75 29.25 0.0
26.25 12.75 0.0
26.25 13.25 0.0
26.25 13.75 0.0
26.25 14.25 0.0
26.25 14.75 0.0
26.25 15.25 0.0
26.25 15.75 0.0
26.25 16.25 0.0
26.25 16.75 0.0
26.25 17.25 0.0
26.25 17.75 0.0
26.25 18.25 0.0
26.25 18.75 0.0
26.25 19.25 0.0
26.25 19.75 0.0
26.25 20.25 0.0
26.25 20.75 0.0
26.25 21.25 0.0
26.25 21.75 0.0
26.25 22.25 0.0
26.25 22.75 0.0
26.25 23.25 0.0
26.25 23.75 0.0
26.25 24.25 0.0
26.25 24.75 0.0
26.25 25.25 0.0
26.25 25.75 0.0
26.25 26.25 0.0
26.25 26.75 0.0
26.25 27.25 0.0
26.25 27.75 0.0
26.25 28.25 0.0
26.25 28.75 0.0
26.25 29.25 0.0
26.75 13.75 0.0
26.75 14.25 0.0
26.75 14.75 0.0
26.75 15.25 0.0
26.75 15.75 0.0
26.75 16.25 0.0
26.75 16.75 0.0
26.75 17.25 0.0
26.75 17.75 0.0
26.75 18.25 0.0
26.75 18.75 0.0
26.75 19.25 0.0
26.75 19.75 0.0
26.75 20.25 0.0
26.75 20.75 0.0
26.75 21.25 0.0
26.75 21.75 0.0
26.75 22.25 0.0
26.75 22.75 0.0
26.75 23.25 0.0
26.75 23.75 0.0
26.75 24.25 0.0
26.75 24.75 0.0
26.75 25.25 0.0
26.75 25.75 0.0
26.75 26.25 0.0
26.75 26.75 0.0
26.75 27.25 0.0
26.75 27.75 0.0
26.75 28.25 0.0
26.75 28.75 0.0
26.75 29.25 0.0
27.25 13.75 0.0
27.25 14.25 0.0
27.25 14.75 0.0
27.25 15.25 0.0
27.25 15.75 0.0
27.25 16.25 0.0
27.25 16.75 0.0
27.25 17.25 0.0
27.25 17.75 0.0
27.25 18.25 0.0
27.25 18.75 0.0
27.25 19.25 0.0
27.25 19.75 0.0
27.25 20.25 0.0
27.25 20.75 0.0
27.25 21.25 0.0
27.25 21.75 0.0
27.25 22.25 0.0
27.25 22.75 0.0
27.25 23.25 0.0
27.25 23.75 0.0
27.25 24.25 0.0
27.25 24.75 0.0
27.25 25.25 0.0
27.25 25.75 0.0
27.25 26.25 0.0
27.25 26.75 0.0
27.25 27.25 0.0
27.25 27.75 0.0
27.25 28.25 0.0
27.25 28.75 0.0
27.25 29.25 0.0
27.75 13.75 0.0
27.75 14.25 0.0
27.75 14.75 0.0
27.75 15.25 0.0
27.75 15.75 0.0
27.75 16.25 0.0
27.75 16.75 0.0
27.75 17.25 0.0
27.75 17.75 0.0
27.75 18.25 0.0
27.75 18.75 0.0
27.75 19.25 0.0
27.75 19.75 0.0
27.75 20.25 0.0
27.75 20.75 0.0
27.75 21.25 0.0
27.75 21.75 0.0
27.75 22.25 0.0
27.75 22.75 0.0
27.75 23.25 0.0
27.75 23.75 0.0
27.75 24.25 0.0
27.75 24.75 0.0
27.75 25.25 0.0
27.75 25.75 0.0
27.75 26.25 0.0
27.75 26.75 0.0
27.75 27.25 0.0
27.75 27.75 0.0
27.75 28.25 0.0
27.75 28.75 0.0
27.75 29.25 0.0
28.25 13.75 0.0
28.25 14.25 0.0
28.25 14.75 0.0
28.25 15.25 0.0
28.25 15.75 0.0
28.25 16.25 0.0
28.25 16.75 0.0
28.25 19.25 0.0
28.25 19.75 0.0
28.25 20.25 0.0
28.25 20.75 0.0
28.25 21.25 0.0
28.25 21.75 0.0
28.25 22.25 0.0
28.25 22.75 0.0
28.25 26.25 0.0
28.25 26.75 0.0
28.25 27.25 0.0
28.25 27.75 0.0
28.25 28.25 0.0
28.25 28.75 0.0
28.25 29.25 0.0
28.75 13.25 0.0
28.75 13.75 0.0
28.75 14.25 0.0
28.75 14.75 0.0
28.75 15.25 0.0
28.75 15.75 0.0
28.75 16.25 0.0
28.75 21.75 0.0
28.75 22.25 0.0
28.75 22.75 0.0
28.75 26.25 0.0
28.75 26.75 0.0
28.75 27.25 0.0
28.75 27.75 0.0
28.75 28.25 0.0
28.75 28.75 0.0
28.75 29.25 0.0
29.25 13.25 0.0
29.25 13.75 0.0
29.25 14.25 0.0
29.25 14.75 0.0
29.25 15.25 0.0
29.25 15.75 0.0
29.25 16.25 0.0
29.25 26.25 0.0
29.25 26.75 0.0
29.25 27.25 0.0
29.25 27.75 0.0
29.25 28.25 0.0
29.25 28.75 0.0
29.25 29.25 0.0
29.75 13.25 0.0
29.75 13.75 0.0
29.75 14.25 0.0
29.75 14.75 0.0
29.75 15.25 0.0
29.75 15.75 0.0
29.75 16.25 0.0
29.75 26.75 0.0
29.75 27.25 0.0
29.75 27.75 0.0
29.75 28.25 0.0
29.75 28.75 0.0
29.75 29.25 0.0
29.75 29.75 0.0
30.25 13.75 0.0
30.25 14.25 0.0
30.25 14.75 0.0
30.25 15.25 0.0
30.25 15.75 0.0
30.25 16.25 0.0
30.25 16.75 0.0
30.25 26.75 0.0
30.25 27.25 0.0
30.25 27.75 0.0
30.25 28.25 0.0
30.25 28.75 0.0
30.25 29.25 0.0
30.25 29.75 0.0
30.75 13.75 0.0
30.75 14.25 0.0
30.75 14.75 0.0
30.75 15.25 0.0
30.75 15.75 0.0
30.75 16.25 0.0
30.75 16.75 0.0
30.75 26.75 0.0
30.75 27.25 0.0
30.75 27.75 0.0
30.75 28.25 0.0
30.75 28.75 0.0
30.75 29.25 0.0
30.75 29.75 0.0
31.25 13.75 0.0
31.25 14.25 0.0
31.25 14.75 0.0
31.25 15.25 0.0
31.25 15.75 0.0
31.25 16.25 0.0
31.25 16.75 0.0
31.25 26.75 0.0
31.25 27.25 0.0
31.25 27.75 0.0
31.25 28.25 0.0
31.25 28.75 0.0
31.25 29.25 0.0
31.25 29.75 0.0
31.75 13.75 0.0
31.75 14.25 0.0
31.75 14.75 0.0
31.75 15.25 0.0
31.75 15.75 0.0
31.75 16.25 0.0
31.75 16.75 0.0
31.75 26.75 0.0
31.75 27.25 0.0
31.75 27.75 0.0
31.75 28.25 0.0
31.75 28.75 0.0
31.75 29.25 0.0
31.75 29.75 0.0
32.25 13.75 0.0
32.25 14.25 0.0
32.25 14.75 0.0
32.25 15.25 0.0
32.25 15.75 0.0
32.25 16.25 0.0
32.25 16.75 0.0
32.25 19.25 0.0
32.25 19.75 0.0
32.25 20.25 0.0
32.25 20.75 0.0
32.25 21.25 0.0
32.25 26.75 0.0
32.25 27.25 0.0
32.25 27.75 0.0
32.25 28.25 0.0
32.25 28.75 0.0
32.25 29.25 0.0
32.25 29.75 0.0
32.75 13.75 0.0
32.75 14.25 0.0
32.75 14.75 0.0
32.75 15.25 0.0
32.75 15.75 0.0
32.75 16.25 0.0
32.75 16.75 0.0
32.75 18.75 0.0
32.75 19.25 0.0
32.75 19.75 0.0
32.75 20.25 0.0
32.75 20.75 0.0
32.75 21.25 0.0
32.75 21.75 0.0
32.75 26.75 0.0
32.75 27.25 0.0
32.75 27.75 0.0
32.75 28.25 0.0
32.75 28.75 0.0
32.75 29.25 0.0
32.75 29.75 0.0
33.25 13.75 0.0
33.25 14.25 0.0
33.25 14.75 0.0
33.25 15.25 0.0
33.25 15.75 0.0
33.25 16.25 0.0
33.25 16.75 0.0
33.25 18.75 0.0
33.25 19.25 0.0
33.25 19.75 0.0
33.25 20.25 0.0
33.25 20.75 0.0
33.25 21.25 0.0
33.25 21.75 0.0
33.25 26.75 0.0
33.25 27.25 0.0
33.25 27.75 0.0
33.25 28.25 0.0
33.25 28.75 0.0
33.25 29.25 0.0
33.25 29.75 0.0
33.75 13.75 0.0
33.75 14.25 0.0
33.75 14.75 0.0
33.75 15.25 0.0
33.75 15.75 0.0
33.75 16.25 0.0
33.75 16.75 0.0
33.75 18.25 0.0
33.75 18.75 0.0
33.75 19.25 0.0
33.75 19.75 0.0
33.75 20.25 0.0
33.75 20.75 0.0
33.75 21.25 0.0
33.75 21.75 0.0
33.75 26.75 0.0
33.75 27.25 0.0
33.75 27.75 0.0
33.75 28.25 0.0
33.75 28.75 0.0
33.75 29.25 0.0
33.75 29.75 0.0
33.75 30.25 0.0
34.25 13.75 0.0
34.25 14.25 0.0
34.25 14.75 0.0
34.25 15.25 0.0
34.25 15.75 0.0
34.25 16.25 0.0
34.25 16.75 0.0
34.25 17.75 0.0
34.25 18.25 0.0
34.25 18.75 0.0
34.25 19.25 0.0
34.25 19.75 0.0
34.25 20.25 0.0
34.25 20.75 0.0
34.25 21.25 0.0
34.25 21.75 0.0
34.25 26.75 0.0
34.25 27.25 0.0
34.25 27.75 0.0
34.25 28.25 0.0
34.25 28.75 0.0
34.25 29.25 0.0
34.25 29.75 0.0
34.25 30.25 0.0
34.75 13.75 0.0
34.75 14.25 0.0
34.75 14.75 0.0
34.75 15.25 0.0
34.75 15.75 0.0
34.75 16.25 0.0
34.75 16.75 0.0
34.75 17.75 0.0
34.75 18.25 0.0
34.75 18.75 0.0
34.75 19.25 0.0
34.75 19.75 0.0
34.75 20.25 0.0
34.75 20.75 0.0
34.75 21.25 0.0
34.75 27.25 0.0
34.75 27.75 0.0
34.75 28.25 0.0
34.75 28.75 0.0
34.75 29.25 0.0
34.75 29.75 0.0
34.75 30.25 0.0
35.25 13.75 0.0
35.25 14.25 0.0
35.25 14.75 0.0
35.25 15.25 0.0
35.25 15.75 0.0
35.25 16.25 0.0
35.25 16.75 0.0
35.25 17.25 0.0
35.25 17.75 0.0
35.25 18.25 0.0
35.25 18.75 0.0
35.25 19.25 0.0
35.25 19.75 0.0
35.25 20.25 0.0
35.25 20.75 0.0
35.25 21.25 0.0
35.25 27.25 0.0
35.25 27.75 0.0
35.25 28.25 0.0
35.25 28.75 0.0
35.25 29.25 0.0
35.25 29.75 0.0
35.25 30.25 0.0
35.75 13.75 0.0
35.75 14.25 0.0
35.75 14.75 0.0
35.75 15.25 0.0
35.75 15.75 0.0
35.75 16.25 0.0
35.75 16.75 0.0
35.75 17.25 0.0
35.75 17.75 0.0
35.75 18.25 0.0
35.75 18.75 0.0
35.75 19.25 0.0
35.75 19.75 0.0
35.75 20.25 0.0
35.75 20.75 0.0
35.75 27.25 0.0
35.75 27.75 0.0
35.75 28.25 0.0
35.75 28.75 0.0
35.75 29.25 0.0
35.75 29.75 0.0
35.75 30.25 0.0
35.75 30.75 0.0
36.25 13.25 0.0
36.25 13.75 0.0
36.25 14.25 0.0
36.25 14.75 0.0
36.25 15.25 0.0
36.25 15.75 0.0
36.25 16.25 0.0
36.25 16.75 0.0
36.25 17.25 0.0
36.25 17.75 0.0
36.25 18.25 0.0
36.25 18.75 0.0
36.25 19.25 0.0
36.25 19.75 0.0
36.25 20.25 0.0
36.25 27.25 0.0
36.25 27.75 0.0
36.25 28.25 0.0
36.25 28.75 0.0
36.25 29.25 0.0
36.25 29.75 0.0
36.25 30.25 0.0
36.25 30.75 0.0
36.25 31.25 0.0
36.75 13.25 0.0
36.75 13.75 0.0
36.75 14.25 0.0
36.75 14.75 0.0
36.75 15.25 0.0
36.75 15.75 0.0
36.75 16.25 0.0
36.75 16.75 0.0
36.75 17.25 0.0
36.75 17.75 0.0
36.75 18.25 0.0
36.75 18.75 0.0
36.75 19.25 0.0
36.75 19.75 0.0
36.75 20.25 0.0
36.75 20.75 0.0
36.75 28.25 0.0
36.75 28.75 0.0
36.75 29.25 0.0
36.75 29.75 0.0
36.75 30.25 0.0
36.75 30.75 0.0
36.75 31.25 0.0
37.25 13.75 0.0
37.25 14.25 0.0
37.25 14.75 0.0
37.25 15.25 0.0
37.25 15.75 0.0
37.25 16.25 0.0
37.25 16.75 0.0
37.25 17.25 0.0
37.25 17.75 0.0
37.25 18.25 0.0
37.25 18.75 0.0
37.25 19.25 0.0
37.25 19.75 0.0
37.25 20.25 0.0
37.25 28.25 0.0
37.25 28.75 0.0
37.25 29.25 0.0
37.25 29.75 0.0
37.25 30.25 0.0
37.25 30.75 0.0
37.25 31.25 0.0
37.25 31.75 0.0
37.75 13.75 0.0
37.75 14.25 0.0
37.75 14.75 0.0
37.75 15.25 0.0
37.75 15.75 0.0
37.75 16.25 0.0
37.75 16.75 0.0
37.75 17.25 0.0
37.75 17.75 0.0
37.75 18.25 0.0
37.75 18.75 0.0
37.75 19.25 0.0
37.75 19.75 0.0
37.75 28.25 0.0
37.75 28.75 0.0
37.75 29.25 0.0
37.75 29.75 0.0
37.75 30.25 0.0
37.75 30.75 0.0
37.75 31.25 0.0
37.75 31.75 0.0
38.25 13.75 0.0
38.25 14.25 0.0
38.25 14.75 0.0
38.25 15.25 0.0
38.25 15.75 0.0
38.25 16.25 0.0
38.25 16.75 0.0
38.25 17.25 0.0
38.25 17.75 0.0
38.25 18.25 0.0
38.25 18.75 0.0
38.25 19.25 0.0
38.25 19.75 0.0
38.25 28.75 0.0
38.25 29.25 0.0
38.25 29.75 0.0
38.25 30.25 0.0
38.25 30.75 0.0
38.25 31.25 0.0
38.25 31.75 0.0
38.25 32.25 0.0
38.75 13.75 0.0
38.75 14.25 0.0
38.75 14.75 0.0
38.75 15.25 0.0
38.75 15.75 0.0
38.75 16.25 0.0
38.75 16.75 0.0
38.75 17.25 0.0
38.75 17.75 0.0
38.75 18.25 0.0
38.75 18.75 0.0
38.75 19.25 0.0
38.75 28.75 0.0
38.75 29.25 0.0
38.75 29.75 0.0
38.75 30.25 0.0
38.75 30.75 0.0
38.75 31.25 0.0
38.75 31.75 0.0
38.75 32.25 0.0
39.25 13.75 0.0
39.25 14.25 0.0
39.25 14.75 0.0
39.25 15.25 0.0
39.25 15.75 0.0
39.25 16.25 0.0
39.25 16.75 0.0
39.25 17.25 0.0
39.25 17.75 0.0
39.25 18.25 0.0
39.25 18.75 0.0
39.25 19.25 0.0
39.25 29.25 0.0
39.25 29.75 0.0
39.25 30.25 0.0
39.25 30.75 0.0
39.25 31.25 0.0
39.25 31.75 0.0
39.25 32.25 0.0
39.25 32.75 0.0
39.75 13.25 0.0
39.75 13.75 0.0
39.75 14.25 0.0
39.75 14.75 0.0
39.75 15.25 0.0
39.75 15.75 0.0
39.75 16.25 0.0
39.75 16.75 0.0
39.75 17.25 0.0
39.75 17.75 0.0
39.75 18.25 0.0
39.75 18.75 0.0
39.75 29.25 0.0
39.75 29.75 0.0
39.75 30.25 0.0
39.75 30.75 0.0
39.75 31.25 0.0
39.75 31.75 0.0
39.75 32.25 0.0
39.75 32.75 0.0
40.25 13.25 0.0
40.25 13.75 0.0
40.25 14.25 0.0
40.25 14.75 0.0
40.25 15.25 0.0
40.25 15.75 0.0
40.25 16.25 0.0
40.25 16.75 0.0
40.25 17.25 0.0
40.25 17.75 0.0
40.25 18.25 0.0
40.25 29.25 0.0
40.25 29.75 0.0
40.25 30.25 0.0
40.25 30.75 0.0
40.25 31.25 0.0
40.25 31.75 0.0
40.25 32.25 0.0
40.25 32.75 0.0
40.75 13.25 0.0
40.75 13.75 0.0
40.75 14.25 0.0
40.75 14.75 0.0
40.75 15.25 0.0
40.75 15.75 0.0
40.75 16.25 0.0
40.75 16.75 0.0
40.75 17.25 0.0
40.75 17.75 0.0
40.75 18.25 0.0
40.75 29.75 0.0
40.75 30.25 0.0
40.75 30.75 0.0
40.75 31.25 0.0
40.75 31.75 0.0
40.75 32.25 0.0
40.75 32.75 0.0
41.25 13.25 0.0
41.25 13.75 0.0
41.25 14.25 0.0
41.25 14.75 0.0
41.25 15.25 0.0
41.25 15.75 0.0
41.25 16.25 0.0
41.25 16.75 0.0
41.25 17.25 0.0
41.25 17.75 0.0
41.25 29.75 0.0
41.25 30.25 0.0
41.25 30.75 0.0
41.25 31.25 0.0
41.25 31.75 0.0
41.25 32.25 0.0
41.25 32.75 0.0
41.75 13.25 0.0
41.75 13.75 0.0
41.75 14.25 0.0
41.75 14.75 0.0
41.75 15.25 0.0
41.75 15.75 0.0
41.75 16.25 0.0
41.75 16.75 0.0
41.75 17.25 0.0
41.75 30.25 0.0
41.75 30.75 0.0
41.75 31.25 0.0
41.75 31.75 0.0
41.75 32.25 0.0
41.75 32.75 0.0
42.25 13.25 0.0
42.25 13.75 0.0
42.25 14.25 0.0
42.25 14.75 0.0
42.25 15.25 0.0
42.25 15.75 0.0
42.25 16.25 0.0
42.25 16.75 0.0
42.25 17.25 0.0
42.25 30.75 0.0
42.25 31.25 0.0
42.25 31.75 0.0
42.25 32.25 0.0
42.75 13.25 0.0
42.75 13.75 0.0
42.75 14.25 0.0
42.75 14.75 0.0
42.75 15.25 0.0
42.75 15.75 0.0
42.75 16.25 0.0
42.75 16.75 0.0
43.25 13.25 0.0
43.25 13.75 0.0
43.25 14.25 0.0
43.25 14.75 0.0
43.25 15.25 0.0
43.25 15.75 0.0
43.25 16.25 0.0
43.25 16.75 0.0
43.75 14.25 0.0
43.75 14.75 0.0
43.75 15.25 0.0
43.75 15.75 0.0
43.75 16.25 0.0
43.75 16.75 0.0
