ply
format ascii 1.0
element vertex 512
property float x
property float y
property float z
end_header
0.003587007522583008 -1.0024956464767456 0.9826899766921997
0.0031583141535520554 -1.0022056102752686 0.849558413028717
0.0027296210173517466 -1.0019155740737915 0.7164269089698792
0.002300927648320794 -1.0016255378723145 0.5832953453063965
0.0018722343957051635 -1.001335620880127 0.4501637816429138
0.0014435411430895329 -1.00104558467865 0.31703221797943115
0.0010148478904739022 -1.0007555484771729 0.1839006543159485
0.0005861545796506107 -1.0004655122756958 0.050769105553627014
0.00015746131248306483 -1.0001754760742188 -0.08236245065927505
-0.000271231954684481 -0.9998854398727417 -0.21549400687217712
-0.0006999252364039421 -0.9995954036712646 -0.3486255705356598
-0.0011286184890195727 -0.9993054270744324 -0.48175710439682007
-0.0015573117416352034 -0.9990153908729553 -0.6148886680603027
-0.001986005110666156 -0.9987253546714783 -0.7480202317237854
-0.0024146982468664646 -0.9984353184700012 -0.8811517953872681
-0.002843391615897417 -0.998145341873169 -1.014283299446106
-0.1978054642677307 -0.9820173978805542 0.9833831191062927
-0.1982341706752777 -0.9817273616790771 0.8502515554428101
-0.1986628621816635 -0.9814373254776001 0.7171199917793274
-0.19909155368804932 -0.9811473488807678 0.5839884281158447
-0.19952024519443512 -0.9808573126792908 0.45085689425468445
-0.19994893670082092 -0.9805672764778137 0.3177253305912018
-0.20037762820720673 -0.9802772402763367 0.18459376692771912
-0.20080631971359253 -0.9799872636795044 0.051462214440107346
-0.20123501121997833 -0.9796972274780273 -0.08166933804750443
-0.20166371762752533 -0.9794071912765503 -0.2148008942604065
-0.20209240913391113 -0.9791171550750732 -0.34793245792388916
-0.20252110064029694 -0.9788271188735962 -0.48106399178504944
-0.20294979214668274 -0.9785371422767639 -0.6141955852508545
-0.20337848365306854 -0.9782471060752869 -0.7473270893096924
-0.20380717515945435 -0.9779570698738098 -0.880458652973175
-0.20423586666584015 -0.9776670336723328 -1.0135902166366577
-0.3909529149532318 -0.9214181900024414 0.9841370582580566
-0.3913816213607788 -0.9211281538009644 0.851005494594574
-0.3918102979660034 -0.9208381175994873 0.7178739309310913
-0.3922390043735504 -0.920548141002655 0.5847423672676086
-0.392667680978775 -0.920258104801178 0.45161083340644836
-0.393096387386322 -0.9199680685997009 0.3184792995452881
-0.39352506399154663 -0.9196780323982239 0.18534773588180542
-0.39395377039909363 -0.9193879961967468 0.05221617594361305
-0.3943824768066406 -0.9190980195999146 -0.08091537654399872
-0.39481115341186523 -0.9188079833984375 -0.21404694020748138
-0.39523985981941223 -0.9185179471969604 -0.34717848896980286
-0.39566853642463684 -0.9182279109954834 -0.4803100526332855
-0.39609724283218384 -0.9179379343986511 -0.6134415864944458
-0.39652591943740845 -0.9176478981971741 -0.7465731501579285
-0.39695462584495544 -0.917357861995697 -0.8797047138214111
-0.39738333225250244 -0.91706782579422 -1.012836217880249
-0.5679478645324707 -0.8231789469718933 0.9849210381507874
-0.5683765411376953 -0.8228889107704163 0.8517894744873047
-0.5688052177429199 -0.8225988745689392 0.718657910823822
-0.5692339539527893 -0.8223088979721069 0.5855263471603394
-0.5696626305580139 -0.8220188617706299 0.4523947834968567
-0.5700913071632385 -0.8217288255691528 0.319263219833374
-0.5705200433731079 -0.8214387893676758 0.18613168597221375
-0.5709487199783325 -0.8211487531661987 0.05300012603402138
-0.5713773965835571 -0.8208587765693665 -0.08013143390417099
-0.5718060731887817 -0.8205687403678894 -0.21326299011707306
-0.5722348093986511 -0.8202787041664124 -0.34639453887939453
-0.5726634860038757 -0.8199886679649353 -0.4795261025428772
-0.5730921626091003 -0.819698691368103 -0.6126576662063599
-0.573520839214325 -0.819408655166626 -0.7457892298698425
-0.5739495754241943 -0.8191186189651489 -0.8789207339286804
-0.574378252029419 -0.8188285827636719 -1.012052297592163
-0.721544086933136 -0.691321611404419 0.9857028722763062
-0.7219727635383606 -0.6910315752029419 0.8525713086128235
-0.72240149974823 -0.6907415390014648 0.7194397449493408
-0.7228301763534546 -0.6904515624046326 0.5863081812858582
-0.7232588529586792 -0.6901615262031555 0.4531766176223755
-0.7236875295639038 -0.6898714900016785 0.3200450837612152
-0.7241162657737732 -0.6895814538002014 0.18691352009773254
-0.7245449423789978 -0.6892914772033691 0.053781963884830475
-0.7249736189842224 -0.6890014410018921 -0.0793495923280716
-0.7254023551940918 -0.688711404800415 -0.21248114109039307
-0.7258310317993164 -0.688421368598938 -0.34561270475387573
-0.726259708404541 -0.6881313323974609 -0.4787442684173584
-0.7266883850097656 -0.6878413558006287 -0.6118758320808411
-0.727117121219635 -0.6875513195991516 -0.7450073957443237
-0.7275457978248596 -0.6872612833976746 -0.8781388998031616
-0.7279744744300842 -0.6869712471961975 -1.011270523071289
-0.8454533815383911 -0.5312444567680359 0.9864505529403687
-0.8458820581436157 -0.5309544205665588 0.853318989276886
-0.8463107347488403 -0.5306643843650818 0.7201874852180481
-0.8467394709587097 -0.5303743481636047 0.5870559215545654
-0.8471681475639343 -0.5300843715667725 0.45392435789108276
-0.8475968241691589 -0.5297943353652954 0.3207927942276001
-0.8480255007743835 -0.5295042991638184 0.18766123056411743
-0.8484542369842529 -0.5292142629623413 0.05452968180179596
-0.8488829135894775 -0.5289242267608643 -0.07860187441110611
-0.8493115901947021 -0.528634250164032 -0.21173343062400818
-0.8497403264045715 -0.5283442139625549 -0.34486499428749084
-0.8501690030097961 -0.5280541777610779 -0.4779965281486511
-0.8505976796150208 -0.5277641415596008 -0.6111280918121338
-0.8510263562202454 -0.5274741649627686 -0.7442596554756165
-0.8514550924301147 -0.5271841287612915 -0.8773912191390991
-0.8518837690353394 -0.5268940925598145 -1.010522723197937
-0.9346028566360474 -0.34950101375579834 0.9871335625648499
-0.935031533241272 -0.3492109775543213 0.8540019989013672
-0.9354602098464966 -0.34892094135284424 0.7208704352378845
-0.9358888864517212 -0.3486309349536896 0.5877388715744019
-0.9363176226615906 -0.3483408987522125 0.4546073377132416
-0.9367462992668152 -0.34805089235305786 0.3214757740497589
-0.9371749758720398 -0.3477608561515808 0.18834422528743744
-0.9376037120819092 -0.34747084975242615 0.05521267279982567
-0.9380323886871338 -0.3471808135509491 -0.0779188796877861
-0.9384610652923584 -0.34689080715179443 -0.21105043590068817
-0.938889741897583 -0.3466007709503174 -0.34418198466300964
-0.9393184781074524 -0.3463107645511627 -0.4773135483264923
-0.939747154712677 -0.34602072834968567 -0.6104450821876526
-0.9401758313179016 -0.3457306921482086 -0.7435766458511353
-0.940604567527771 -0.34544068574905396 -0.8767082095146179
-0.9410332441329956 -0.3451506495475769 -1.0098397731781006
-0.9853426814079285 -0.15353190898895264 0.9877238273620605
-0.9857714176177979 -0.15324187278747559 0.8545923233032227
-0.9862000942230225 -0.15295185148715973 0.72146075963974
-0.9866287708282471 -0.15266183018684387 0.5883291959762573
-0.9870574474334717 -0.15237180888652802 0.45519763231277466
-0.9874861836433411 -0.15208178758621216 0.322066068649292
-0.9879148602485657 -0.1517917662858963 0.18893451988697052
-0.9883435368537903 -0.15150174498558044 0.05580297112464905
-0.9887722134590149 -0.1512117236852646 -0.07732858508825302
-0.9892009496688843 -0.15092170238494873 -0.2104601413011551
-0.9896296262741089 -0.15063168108463287 -0.34359169006347656
-0.9900583028793335 -0.15034164488315582 -0.47672325372695923
-0.9904870390892029 -0.15005162358283997 -0.6098548173904419
-0.9909157156944275 -0.1497616022825241 -0.7429863810539246
-0.9913443922996521 -0.14947158098220825 -0.8761178851127625
-0.9917730689048767 -0.1491815596818924 -1.0092494487762451
-0.9955956339836121 0.04863986372947693 0.9881972670555115
-0.9960243701934814 0.048929885029792786 0.8550657629966736
-0.996453046798706 0.04921990633010864 0.7219341993331909
-0.9968817234039307 0.0495099313557148 0.5888026356697083
-0.9973104596138 0.049799952656030655 0.4556710720062256
-0.9977391362190247 0.05008997768163681 0.3225395083427429
-0.9981678128242493 0.05037999898195267 0.18940795958042145
-0.9985964894294739 0.050670020282268524 0.056276410818099976
-0.9990252256393433 0.05096004530787468 -0.0768551453948021
-0.9994539022445679 0.051250066608190536 -0.20998670160770416
-0.9998825788497925 0.05154009163379669 -0.34311825037002563
-1.000311255455017 0.05183011293411255 -0.4762498140335083
-1.0007399320602417 0.052120134234428406 -0.609381377696991
-1.0011687278747559 0.05241015926003456 -0.7425129413604736
-1.0015974044799805 0.05270018056035042 -0.8756444454193115
-1.002026081085205 0.052990201860666275 -1.008776068687439
-0.9649419784545898 0.24873735010623932 0.9885345101356506
-0.9653706550598145 0.24902738630771637 0.855402946472168
-0.9657993316650391 0.24931740760803223 0.7222713828086853
-0.9662280678749084 0.24960742890834808 0.5891398191452026
-0.9666567444801331 0.24989745020866394 0.45600828528404236
-0.9670854210853577 0.2501874566078186 0.3228767216205597
-0.967514157295227 0.25047749280929565 0.18974515795707703
-0.9679428339004517 0.2507675290107727 0.056613609194755554
-0.9683715105056763 0.25105753540992737 -0.07651794701814651
-0.9688001871109009 0.2513475716114044 -0.20964950323104858
-0.9692289233207703 0.2516375780105591 -0.34278106689453125
-0.9696575999259949 0.25192761421203613 -0.47591260075569153
-0.9700862765312195 0.2522176206111908 -0.6090441942214966
-0.9705150127410889 0.25250765681266785 -0.7421756982803345
-0.9709436893463135 0.2527976632118225 -0.8753072619438171
-0.9713723659515381 0.25308769941329956 -1.0084388256072998
-0.8946365714073181 0.4385685622692108 0.9887216687202454
-0.8950653076171875 0.43885859847068787 0.8555901050567627
-0.8954939842224121 0.43914860486984253 0.72245854139328
-0.8959226608276367 0.4394386410713196 0.5893269777297974
-0.8963513374328613 0.43972864747047424 0.4561954140663147
-0.8967800736427307 0.4400186836719513 0.3230638802051544
-0.8972087502479553 0.44030869007110596 0.18993231654167175
-0.8976374268531799 0.440598726272583 0.056800760328769684
-0.8980661630630493 0.44088876247406006 -0.07633079588413239
-0.8984948396682739 0.4411787688732147 -0.20946234464645386
-0.8989235162734985 0.4414688050746918 -0.3425939083099365
-0.8993521928787231 0.44175881147384644 -0.4757254719734192
-0.8997809290885925 0.4420488476753235 -0.6088570356369019
-0.9002096056938171 0.44233885407447815 -0.7419885396957397
-0.9006382822990417 0.4426288902759552 -0.8751201033592224
-0.9010670185089111 0.44291889667510986 -1.008251667022705
-0.78755784034729 0.6103617548942566 0.9887511134147644
-0.7879865169525146 0.6106517910957336 0.8556195497512817
-0.7884151935577393 0.6109418272972107 0.7224879860877991
-0.7888439297676086 0.6112318634986877 0.5893564224243164
-0.7892726063728333 0.6115218997001648 0.45622485876083374
-0.7897012829780579 0.6118118762969971 0.32309332489967346
-0.7901300191879272 0.6121019124984741 0.1899617612361908
-0.7905586957931519 0.6123919486999512 0.05683020502328873
-0.7909873723983765 0.6126819849014282 -0.07630135118961334
-0.7914160490036011 0.6129719614982605 -0.20943289995193481
-0.7918447852134705 0.6132619976997375 -0.3425644636154175
-0.7922734618186951 0.6135520339012146 -0.47569602727890015
-0.7927021384239197 0.6138420701026917 -0.6088275909423828
-0.7931308746337891 0.6141321063041687 -0.7419590950012207
-0.7935595512390137 0.614422082901001 -0.8750906586647034
-0.7939882278442383 0.614712119102478 -1.008222222328186
-0.6480895280838013 0.7570837736129761 0.9886215925216675
-0.6485182046890259 0.7573738098144531 0.8554900884628296
-0.6489468812942505 0.7576637864112854 0.7223585247993469
-0.6493756175041199 0.7579538226127625 0.5892269611358643
-0.6498042941093445 0.7582438588142395 0.4560953974723816
-0.6502329707145691 0.7585338950157166 0.3229638338088989
-0.6506616473197937 0.7588238716125488 0.18983228504657745
-0.6510903835296631 0.7591139078140259 0.05670073628425598
-0.6515190601348877 0.7594039440155029 -0.07643081992864609
-0.6519477367401123 0.75969398021698 -0.20956237614154816
-0.6523764729499817 0.759984016418457 -0.34269392490386963
-0.6528051495552063 0.7602739930152893 -0.4758254885673523
-0.6532338261604309 0.7605640292167664 -0.608957052230835
-0.6536625027656555 0.7608540654182434 -0.7420886158943176
-0.6540912389755249 0.7611441016197205 -0.8752201199531555
-0.6545199155807495 0.7614340782165527 -1.0083516836166382
-0.48194146156311035 0.8727276921272278 0.9883385300636292
-0.48237016797065735 0.8730177283287048 0.8552069664001465
-0.48279887437820435 0.8733077645301819 0.7220754027366638
-0.48322755098342896 0.8735977411270142 0.5889438986778259
-0.48365625739097595 0.8738877773284912 0.4558123052120209
-0.48408493399620056 0.8741778135299683 0.3226807713508606
-0.48451364040374756 0.8744678497314453 0.18954920768737793
-0.48494231700897217 0.8747578859329224 0.05641765519976616
-0.48537102341651917 0.8750478625297546 -0.07671389728784561
-0.48579972982406616 0.8753378987312317 -0.20984545350074768
-0.48622840642929077 0.8756279349327087 -0.34297701716423035
-0.48665711283683777 0.8759179711341858 -0.4761085510253906
-0.4870857894420624 0.8762079477310181 -0.6092401146888733
-0.4875144958496094 0.8764979839324951 -0.742371678352356
-0.487943172454834 0.8767880201339722 -0.8755032420158386
-0.488371878862381 0.8770780563354492 -1.0086348056793213
-0.2959158420562744 0.9525591135025024 0.9879134297370911
-0.2963445484638214 0.9528491497039795 0.8547818660736084
-0.296773225069046 0.9531391859054565 0.7216503024101257
-0.297201931476593 0.9534291625022888 0.5885187983512878
-0.2976306080818176 0.9537191987037659 0.4553872048854828
-0.2980593144893646 0.9540092349052429 0.3222556710243225
-0.2984880208969116 0.95429927110672 0.18912410736083984
-0.29891669750213623 0.9545892477035522 0.055992547422647476
-0.2993454039096832 0.9548792839050293 -0.0771390050649643
-0.29977408051490784 0.9551693201065063 -0.21027055382728577
-0.30020278692245483 0.9554593563079834 -0.34340211749076843
-0.30063146352767944 0.9557493925094604 -0.4765336811542511
-0.30106016993522644 0.9560393691062927 -0.6096652150154114
-0.30148884654045105 0.9563294053077698 -0.742796778678894
-0.30191755294799805 0.9566194415092468 -0.8759283423423767
-0.30234625935554504 0.9569094777107239 -1.0090599060058594
-0.09762853384017944 0.9933096766471863 0.9873636960983276
-0.09805723279714584 0.9935997128486633 0.854232132434845
-0.09848592430353165 0.9938897490501404 0.7211005687713623
-0.09891461580991745 0.9941797852516174 0.5879690647125244
-0.09934330731630325 0.9944697618484497 0.45483750104904175
-0.09977199882268906 0.9947597980499268 0.3217059373855591
-0.10020069777965546 0.9950498342514038 0.18857437372207642
-0.10062938928604126 0.9953398704528809 0.055442824959754944
-0.10105808079242706 0.9956299066543579 -0.07768873125314713
-0.10148677229881287 0.9959198832511902 -0.2108202874660492
-0.10191547125577927 0.9962099194526672 -0.34395185112953186
-0.10234416276216507 0.9964999556541443 -0.47708338499069214
-0.10277285426855087 0.9967899918556213 -0.6102149486541748
-0.10320154577493668 0.9970799684524536 -0.7433465123176575
-0.10363024473190308 0.9973700046539307 -0.8764780759811401
-0.10405893623828888 0.9976600408554077 -1.009609580039978
0.10480254888534546 0.9933111071586609 0.986711859703064
0.10437385737895966 0.9936011433601379 0.8535802960395813
0.10394516587257385 0.993891179561615 0.7204487323760986
0.10351647436618805 0.994181215763092 0.5873172283172607
0.10308777540922165 0.9944711923599243 0.4541856348514557
0.10265908390283585 0.9947612285614014 0.3210541009902954
0.10223039239645004 0.9950512647628784 0.18792253732681274
0.10180170089006424 0.9953413009643555 0.054790984839200974
0.10137300193309784 0.9956312775611877 -0.0783405676484108
0.10094431042671204 0.9959213137626648 -0.21147212386131287
0.10051561892032623 0.9962113499641418 -0.34460368752479553
0.10008692741394043 0.9965013861656189 -0.4777352213859558
0.09965822845697403 0.9967913627624512 -0.6108667850494385
0.09922953695058823 0.9970813989639282 -0.7439983487129211
0.09880084544420242 0.9973714351654053 -0.8771299123764038
0.09837215393781662 0.9976614713668823 -1.0102614164352417
0.30308985710144043 0.9525633454322815 0.9859846234321594
0.3026611804962158 0.9528533220291138 0.8528530597686768
0.3022324740886688 0.9531433582305908 0.7197214961051941
0.3018037676811218 0.9534333944320679 0.5865899324417114
0.3013750910758972 0.9537234306335449 0.45345836877822876
0.3009463846683502 0.9540134072303772 0.3203268349170685
0.3005177080631256 0.9543034434318542 0.18719527125358582
0.3000890016555786 0.9545934796333313 0.054063715040683746
0.299660325050354 0.9548835158348083 -0.07906784117221832
0.299231618642807 0.9551734924316406 -0.2121993899345398
0.2988029420375824 0.9554635286331177 -0.34533095359802246
0.2983742356300354 0.9557535648345947 -0.4784625172615051
0.2979455292224884 0.9560436010360718 -0.6115940809249878
0.2975168526172638 0.9563336372375488 -0.7447255849838257
0.2970881462097168 0.9566236138343811 -0.8778571486473083
0.2966594696044922 0.9569136500358582 -1.010988712310791
0.48911547660827637 0.8727344870567322 0.9852116703987122
0.48868680000305176 0.8730245232582092 0.8520801067352295
0.48825809359550476 0.8733145594596863 0.7189485430717468
0.48782941699028015 0.8736045956611633 0.5858170390129089
0.48740071058273315 0.8738946318626404 0.45268547534942627
0.48697203397750854 0.8741846084594727 0.3195539116859436
0.48654332756996155 0.8744746446609497 0.18642234802246094
0.48611465096473694 0.8747646808624268 0.05329079553484917
0.48568594455718994 0.8750547170639038 -0.0798407569527626
0.48525723814964294 0.8753446936607361 -0.21297231316566467
0.48482856154441833 0.8756347298622131 -0.34610387682914734
0.48439985513687134 0.8759247660636902 -0.4792354106903076
0.48397117853164673 0.8762148022651672 -0.6123669743537903
0.48354247212409973 0.8765047788619995 -0.745498538017273
0.4831137955188751 0.8767948150634766 -0.8786301016807556
0.4826850891113281 0.8770848512649536 -1.0117616653442383
0.6552635431289673 0.7570928931236267 0.9844247698783875
0.6548348069190979 0.7573829293251038 0.8512932062149048
0.6544061303138733 0.7576729655265808 0.7181616425514221
0.6539774537086487 0.7579630017280579 0.5850300788879395
0.6535487771034241 0.7582529783248901 0.4518985450267792
0.6531200408935547 0.7585430145263672 0.3187669813632965
0.6526913642883301 0.7588330507278442 0.18563541769981384
0.6522626876831055 0.7591230869293213 0.05250386521220207
0.6518339514732361 0.7594130635261536 -0.0806276872754097
0.6514052748680115 0.7597030997276306 -0.21375924348831177
0.6509765982627869 0.7599931359291077 -0.34689080715179443
0.6505479216575623 0.7602831721305847 -0.4800223410129547
0.6501191854476929 0.7605732083320618 -0.6131539344787598
0.6496905088424683 0.760863184928894 -0.7462854385375977
0.6492618322372437 0.7611532211303711 -0.8794170022010803
0.648833155632019 0.7614432573318481 -1.012548565864563
0.794731855392456 0.6103729009628296 0.9836560487747192
0.7943031787872314 0.6106628775596619 0.8505244851112366
0.7938744425773621 0.6109529137611389 0.7173929214477539
0.7934457659721375 0.611242949962616 0.5842613577842712
0.7930170893669128 0.611532986164093 0.4511297941207886
0.7925883531570435 0.6118230223655701 0.3179982602596283
0.7921596765518188 0.6121129989624023 0.18486669659614563
0.7917309999465942 0.6124030351638794 0.05173514410853386
0.7913023233413696 0.6126930713653564 -0.08139640837907791
0.7908735871315002 0.6129831075668335 -0.21452796459197998
0.7904449105262756 0.6132730841636658 -0.34765952825546265
0.790016233921051 0.6135631203651428 -0.4807910621166229
0.7895875573158264 0.6138531565666199 -0.613922655582428
0.789158821105957 0.6141431927680969 -0.7470541596412659
0.7887301445007324 0.614433228969574 -0.8801857233047485
0.7883014678955078 0.6147232055664062 -1.013317346572876
0.9018105864524841 0.4385811686515808 0.9829369783401489
0.9013819098472595 0.43887120485305786 0.8498054146766663
0.9009532332420349 0.4391612112522125 0.7166738510131836
0.9005245566368103 0.4394512474536896 0.5835423469543457
0.9000958204269409 0.43974125385284424 0.45041075348854065
0.8996671438217163 0.4400312900543213 0.31727921962738037
0.8992384672164917 0.44032129645347595 0.1841476559638977
0.8988097310066223 0.440611332654953 0.051016099750995636
0.8983810544013977 0.44090133905410767 -0.08211545646190643
0.8979523777961731 0.4411913752555847 -0.2152470052242279
0.8975237011909485 0.44148141145706177 -0.34837856888771057
0.8970949649810791 0.44177141785621643 -0.48151013255119324
0.8966662883758545 0.4420614540576935 -0.6146416664123535
0.8962376117706299 0.44235146045684814 -0.7477732300758362
0.8958088755607605 0.4426414966583252 -0.8809047937393188
0.8953801989555359 0.44293150305747986 -1.0140362977981567
0.9721159934997559 0.2487509399652481 0.9822970628738403
0.9716873168945312 0.24904096126556396 0.8491654992103577
0.9712585806846619 0.24933099746704102 0.716033935546875
0.9708299040794373 0.24962101876735687 0.5829023718833923
0.9704012274742126 0.24991104006767273 0.44977083802223206
0.969972550868988 0.2502010464668274 0.3166392743587494
0.9695438146591187 0.25049108266830444 0.18350772559642792
0.969115138053894 0.2507811188697815 0.05037617310881615
0.9686864614486694 0.25107112526893616 -0.08275538682937622
0.9682577252388 0.2513611614704132 -0.2158869355916977
0.9678290486335754 0.25165116786956787 -0.34901848435401917
0.9674003720283508 0.2519412040710449 -0.48215004801750183
0.9669716954231262 0.2522312104701996 -0.6152815818786621
0.9665429592132568 0.25252124667167664 -0.7484131455421448
0.9661142826080322 0.2528112530708313 -0.8815447092056274
0.9656856060028076 0.25310128927230835 -1.0146762132644653
1.0027697086334229 0.04865388199687004 0.9817624688148499
1.0023410320281982 0.0489439032971859 0.8486309051513672
1.001912236213684 0.049233924597501755 0.7154993414878845
1.0014835596084595 0.04952394962310791 0.5823677778244019
1.0010548830032349 0.04981397092342377 0.4492362141609192
1.0006262063980103 0.05010399594902992 0.3161046802997589
1.0001975297927856 0.05039401724934578 0.18297311663627625
0.999768853187561 0.050684038549661636 0.049841560423374176
0.9993401169776917 0.05097406357526779 -0.0832899957895279
0.998911440372467 0.05126408487558365 -0.21642154455184937
0.9984827637672424 0.051554106175899506 -0.34955310821533203
0.998054027557373 0.05184413120150566 -0.4826846718788147
0.9976253509521484 0.05213415250182152 -0.6158162355422974
0.9971966743469238 0.05242417752742767 -0.74894779920578
0.9967679977416992 0.05271419882774353 -0.8820793032646179
0.9963392615318298 0.05300422012805939 -1.0152108669281006
0.9925166964530945 -0.15351802110671997 0.9813550114631653
0.9920880198478699 -0.1532279998064041 0.8482235074043274
0.9916593432426453 -0.15293797850608826 0.7150919437408447
0.9912306070327759 -0.1526479572057724 0.5819603800773621
0.9908019304275513 -0.15235793590545654 0.4488288164138794
0.9903732538223267 -0.15206791460514069 0.31569725275039673
0.989944577217102 -0.15177789330482483 0.18256570398807526
0.9895158410072327 -0.15148787200450897 0.049434151500463486
0.9890871644020081 -0.15119785070419312 -0.08369740843772888
0.9886584877967834 -0.15090782940387726 -0.21682895720005035
0.9882297515869141 -0.1506178081035614 -0.3499605059623718
0.9878010749816895 -0.15032777190208435 -0.4830920696258545
0.9873723983764648 -0.1500377506017685 -0.6162236332893372
0.9869437217712402 -0.14974772930145264 -0.7493551969528198
0.9865149855613708 -0.14945770800113678 -0.8824867606163025
0.9860863089561462 -0.14916768670082092 -1.0156183242797852
0.9417768716812134 -0.349487841129303 0.9810914993286133
0.941348135471344 -0.3491978049278259 0.8479599356651306
0.9409194588661194 -0.34890779852867126 0.714828372001648
0.9404907822608948 -0.3486177623271942 0.5816968679428101
0.9400620460510254 -0.34832775592803955 0.448565274477005
0.9396333694458008 -0.3480377197265625 0.3154337406158447
0.9392046928405762 -0.34774771332740784 0.18230217695236206
0.9387760162353516 -0.3474576771259308 0.04917062073945999
0.9383472800254822 -0.3471676707267761 -0.08396093547344208
0.9379186034202576 -0.3468776345252991 -0.21709248423576355
0.937489926815033 -0.346587598323822 -0.3502240478992462
0.9370612502098083 -0.34629759192466736 -0.4833556115627289
0.936632513999939 -0.3460075557231903 -0.6164871454238892
0.9362038373947144 -0.34571754932403564 -0.7496187090873718
0.9357751607894897 -0.3454275131225586 -0.8827502727508545
0.9353464245796204 -0.34513750672340393 -1.0158817768096924
0.8526273965835571 -0.5312325358390808 0.9809826612472534
0.8521986603736877 -0.5309424996376038 0.8478510975837708
0.8517699837684631 -0.5306524634361267 0.7147195339202881
0.8513413071632385 -0.5303624272346497 0.5815879702568054
0.8509126305580139 -0.5300724506378174 0.44845643639564514
0.8504838943481445 -0.5297824144363403 0.3153248727321625
0.8500552177429199 -0.5294923782348633 0.182193323969841
0.8496265411376953 -0.5292023420333862 0.049061764031648636
0.8491978049278259 -0.528912365436554 -0.08406978845596313
0.8487691283226013 -0.5286223292350769 -0.2172013521194458
0.8483404517173767 -0.5283322930335999 -0.3503328859806061
0.8479117751121521 -0.5280422568321228 -0.48346444964408875
0.8474830389022827 -0.5277522802352905 -0.616595983505249
0.8470543622970581 -0.5274622440338135 -0.7497275471687317
0.8466256856918335 -0.5271722078323364 -0.8828591108322144
0.8461970090866089 -0.5268821716308594 -1.0159907341003418
0.728718101978302 -0.6913114190101624 0.9810329079627991
0.7282894253730774 -0.6910214424133301 0.8479013442993164
0.727860689163208 -0.690731406211853 0.7147697806358337
0.7274320125579834 -0.690441370010376 0.5816382765769958
0.7270033359527588 -0.6901513338088989 0.4485067129135132
0.7265746593475342 -0.6898612976074219 0.3153751492500305
0.7261459231376648 -0.6895713210105896 0.18224358558654785
0.7257172465324402 -0.6892812848091125 0.04911203682422638
0.7252885699272156 -0.6889912486076355 -0.08401951938867569
0.7248598337173462 -0.6887012124061584 -0.21715107560157776
0.7244311571121216 -0.6884112358093262 -0.3502826392650604
0.724002480506897 -0.6881211996078491 -0.4834141731262207
0.7235738039016724 -0.6878311634063721 -0.6165457367897034
0.723145067691803 -0.687541127204895 -0.749677300453186
0.7227163910865784 -0.687251091003418 -0.8828088641166687
0.7222877144813538 -0.6869611144065857 -1.0159404277801514
0.5751218795776367 -0.8231709003448486 0.9812402725219727
0.5746932029724121 -0.8228809237480164 0.84810870885849
0.5742644667625427 -0.8225908875465393 0.7149771451950073
0.5738357901573181 -0.8223008513450623 0.5818455815315247
0.5734071135520935 -0.8220108151435852 0.4487140476703644
0.5729783773422241 -0.8217208385467529 0.3155824840068817
0.5725497007369995 -0.8214308023452759 0.18245093524456024
0.5721210241317749 -0.8211407661437988 0.049319375306367874
0.5716923475265503 -0.8208507299423218 -0.0838121771812439
0.5712636113166809 -0.8205606937408447 -0.21694374084472656
0.5708349347114563 -0.8202707171440125 -0.35007530450820923
0.5704062581062317 -0.8199806809425354 -0.4832068383693695
0.5699775218963623 -0.8196906447410583 -0.6163383722305298
0.5695488452911377 -0.8194006085395813 -0.7494699358940125
0.5691201686859131 -0.819110631942749 -0.8826014995574951
0.5686914920806885 -0.818820595741272 -1.0157331228256226
0.3981269299983978 -0.9214126467704773 0.9815961718559265
0.3976982533931732 -0.9211226105690002 0.8484646081924438
0.3972695469856262 -0.9208325743675232 0.7153330445289612
0.3968408405780792 -0.9205425977706909 0.5822015404701233
0.3964121639728546 -0.9202525615692139 0.44906994700431824
0.3959834575653076 -0.9199625253677368 0.31593841314315796
0.395554780960083 -0.9196724891662598 0.1828068494796753
0.395126074552536 -0.9193825125694275 0.049675293266773224
0.3946973979473114 -0.9190924763679504 -0.08345626294612885
0.3942686915397644 -0.9188024401664734 -0.21658781170845032
0.3938400149345398 -0.9185124039649963 -0.349719375371933
0.3934113085269928 -0.9182223677635193 -0.48285093903541565
0.3929826021194458 -0.917932391166687 -0.6159824728965759
0.3925539255142212 -0.91764235496521 -0.7491140365600586
0.3921252191066742 -0.9173523187637329 -0.8822456002235413
0.3916965425014496 -0.9170622825622559 -1.015377163887024
0.20497947931289673 -0.9820145964622498 0.9820861220359802
0.20455078780651093 -0.9817245602607727 0.8489545583724976
0.20412209630012512 -0.9814345240592957 0.7158229947090149
0.20369340479373932 -0.9811444878578186 0.5826914310455322
0.20326471328735352 -0.9808545112609863 0.44955989718437195
0.2028360217809677 -0.9805644750595093 0.3164283335208893
0.2024073302745819 -0.9802744388580322 0.1832967847585678
0.2019786387681961 -0.9799844026565552 0.05016522482037544
0.2015499472618103 -0.9796943664550781 -0.08296632766723633
0.2011212408542633 -0.9794043898582458 -0.216097891330719
0.2006925493478775 -0.9791143536567688 -0.34922945499420166
0.2002638578414917 -0.9788243174552917 -0.48236098885536194
0.1998351663351059 -0.9785342812538147 -0.6154925227165222
0.1994064748287201 -0.9782443046569824 -0.7486240863800049
0.1989777833223343 -0.9779542684555054 -0.8817556500434875
0.1985490918159485 -0.9776642322540283 -1.0148872137069702
0.003587007522583008 -1.0024956464767456 0.9826899766921997
0.0031583141535520554 -1.0022056102752686 0.849558413028717
0.0027296210173517466 -1.0019155740737915 0.7164269089698792
0.002300927648320794 -1.0016255378723145 0.5832953453063965
0.0018722343957051635 -1.001335620880127 0.4501637816429138
0.0014435411430895329 -1.00104558467865 0.31703221797943115
0.0010148478904739022 -1.0007555484771729 0.1839006543159485
0.0005861545796506107 -1.0004655122756958 0.050769105553627014
0.00015746131248306483 -1.0001754760742188 -0.08236245065927505
-0.000271231954684481 -0.9998854398727417 -0.21549400687217712
-0.0006999252364039421 -0.9995954036712646 -0.3486255705356598
-0.0011286184890195727 -0.9993054270744324 -0.48175710439682007
-0.0015573117416352034 -0.9990153908729553 -0.6148886680603027
-0.001986005110666156 -0.9987253546714783 -0.7480202317237854
-0.0024146982468664646 -0.9984353184700012 -0.8811517953872681
-0.002843391615897417 -0.998145341873169 -1.014283299446106
