ply
format ascii 1.0
element vertex 512
property float x
property float y
property float z
end_header
0.9141857624053955 1.9314868450164795 -1.5259454250335693
0.9141908288002014 1.9314870834350586 -1.2414216995239258
0.9141958951950073 1.9314873218536377 -0.9568980932235718
0.9142009615898132 1.9314875602722168 -0.672374427318573
0.9142060279846191 1.931487798690796 -0.3878507912158966
0.914211094379425 1.931488037109375 -0.10332715511322021
0.914216160774231 1.9314883947372437 0.18119649589061737
0.9142212271690369 1.9314886331558228 0.46572014689445496
0.9142262935638428 1.9314888715744019 0.7502437829971313
0.9142313599586487 1.931489109992981 1.0347673892974854
0.9142364263534546 1.93148934841156 1.319291114807129
0.9142415523529053 1.9314895868301392 1.603814721107483
0.9142466187477112 1.9314898252487183 1.888338327407837
0.9142516851425171 1.9314900636672974 2.1728620529174805
0.914256751537323 1.9314903020858765 2.457385778427124
0.9142618179321289 1.9314905405044556 2.7419092655181885
0.5404115319252014 1.8934776782989502 -1.5259387493133545
0.5404165983200073 1.8934779167175293 -1.241415023803711
0.5404216647148132 1.893478274345398 -0.9568914175033569
0.5404267311096191 1.893478512763977 -0.6723677515983582
0.540431797504425 1.8934787511825562 -0.38784411549568176
0.540436863899231 1.8934789896011353 -0.10332046449184418
0.5404419302940369 1.8934792280197144 0.1812031865119934
0.5404469966888428 1.8934794664382935 0.4657268226146698
0.5404520630836487 1.8934797048568726 0.7502504587173462
0.5404571294784546 1.8934799432754517 1.0347740650177002
0.5404622554779053 1.8934801816940308 1.3192977905273438
0.5404673218727112 1.8934804201126099 1.6038213968276978
0.5404723882675171 1.893480658531189 1.8883450031280518
0.540477454662323 1.8934810161590576 2.1728687286376953
0.5404825210571289 1.8934812545776367 2.457392454147339
0.5404875874519348 1.8934814929962158 2.7419159412384033
0.18193966150283813 1.7810064554214478 -1.5259321928024292
0.18194474279880524 1.7810066938400269 -1.2414085865020752
0.18194980919361115 1.781006932258606 -0.9568849205970764
0.18195487558841705 1.781007170677185 -0.6723612546920776
0.18195994198322296 1.7810074090957642 -0.38783761858940125
0.18196500837802887 1.7810076475143433 -0.10331397503614426
0.18197008967399597 1.7810078859329224 0.18120966851711273
0.18197515606880188 1.781008243560791 0.4657333195209503
0.1819802224636078 1.7810084819793701 0.7502569556236267
0.1819852888584137 1.7810087203979492 1.0347806215286255
0.1819903552532196 1.7810089588165283 1.3193042278289795
0.1819954216480255 1.7810091972351074 1.603827953338623
0.18200050294399261 1.7810094356536865 1.888351559638977
0.18200556933879852 1.7810096740722656 2.172875165939331
0.18201063573360443 1.7810099124908447 2.4573988914489746
0.18201570212841034 1.7810101509094238 2.741922378540039
-0.14655396342277527 1.598677635192871 -1.5259262323379517
-0.14654888212680817 1.5986778736114502 -1.241402506828308
-0.14654381573200226 1.5986781120300293 -0.9568789005279541
-0.14653874933719635 1.5986783504486084 -0.6723552346229553
-0.14653368294239044 1.5986785888671875 -0.38783159852027893
-0.14652861654758453 1.5986788272857666 -0.10330796241760254
-0.14652355015277863 1.5986790657043457 0.18121568858623505
-0.14651846885681152 1.5986793041229248 0.46573933959007263
-0.14651340246200562 1.5986796617507935 0.750262975692749
-0.1465083360671997 1.5986799001693726 1.034786581993103
-0.1465032696723938 1.5986801385879517 1.3193103075027466
-0.1464982032775879 1.5986803770065308 1.6038339138031006
-0.1464931219816208 1.5986806154251099 1.8883575201034546
-0.14648805558681488 1.598680853843689 2.1728811264038086
-0.14648298919200897 1.598681092262268 2.457404851913452
-0.14647792279720306 1.5986813306808472 2.7419285774230957
-0.4316207766532898 1.3539557456970215 -1.5259208679199219
-0.4316157102584839 1.3539559841156006 -1.2413972616195679
-0.431610643863678 1.3539562225341797 -0.9568735957145691
-0.43160557746887207 1.3539565801620483 -0.6723499894142151
-0.43160051107406616 1.3539568185806274 -0.3878263235092163
-0.43159541487693787 1.3539570569992065 -0.10330267250537872
-0.43159034848213196 1.3539572954177856 0.18122097849845886
-0.43158528208732605 1.3539575338363647 0.46574461460113525
-0.43158021569252014 1.3539577722549438 0.750268280506134
-0.43157514929771423 1.353958010673523 1.0347919464111328
-0.4315700829029083 1.353958249092102 1.3193155527114868
-0.4315650165081024 1.3539584875106812 1.6038391590118408
-0.4315599501132965 1.3539587259292603 1.8883628845214844
-0.4315548837184906 1.3539589643478394 2.172886610031128
-0.4315498173236847 1.353959321975708 2.4574100971221924
-0.4315447509288788 1.353959560394287 2.741933822631836
-0.6615900993347168 1.0568598508834839 -1.525916576385498
-0.6615850329399109 1.056860089302063 -1.2413928508758545
-0.661579966545105 1.056860327720642 -0.9568692445755005
-0.6615749001502991 1.0568606853485107 -0.6723455786705017
-0.6615698337554932 1.0568609237670898 -0.3878219723701477
-0.6615647673606873 1.056861162185669 -0.10329831391572952
-0.6615597009658813 1.056861400604248 0.18122532963752747
-0.6615546345710754 1.0568616390228271 0.46574896574020386
-0.6615495681762695 1.0568618774414062 0.7502726316452026
-0.6615445017814636 1.0568621158599854 1.0347962379455566
-0.6615394353866577 1.0568623542785645 1.3193199634552002
-0.6615343689918518 1.0568625926971436 1.6038435697555542
-0.6615293025970459 1.0568628311157227 1.8883671760559082
-0.66152423620224 1.0568630695343018 2.1728909015655518
-0.6615191698074341 1.0568634271621704 2.457414388656616
-0.6615141034126282 1.0568636655807495 2.7419381141662598
-0.8270469903945923 0.7195530533790588 -1.5259133577346802
-0.8270419239997864 0.7195532917976379 -1.2413896322250366
-0.8270368576049805 0.7195535898208618 -0.9568660259246826
-0.8270317912101746 0.7195538282394409 -0.6723423600196838
-0.8270267248153687 0.71955406665802 -0.38781872391700745
-0.8270216584205627 0.7195543050765991 -0.10329507291316986
-0.8270165920257568 0.7195545434951782 0.18122857809066772
-0.8270115256309509 0.7195548415184021 0.4657522141933441
-0.827006459236145 0.7195550799369812 0.7502758502960205
-0.8270013928413391 0.7195553183555603 1.0347994565963745
-0.8269963264465332 0.7195555567741394 1.319323182106018
-0.8269912600517273 0.7195557951927185 1.603846788406372
-0.8269861936569214 0.7195560932159424 1.888370394706726
-0.8269811272621155 0.7195563316345215 2.17289400100708
-0.8269760608673096 0.7195565700531006 2.4574177265167236
-0.8269709944725037 0.7195568084716797 2.741941452026367
-0.9212176203727722 0.35584473609924316 -1.5259113311767578
-0.9212125539779663 0.35584497451782227 -1.2413876056671143
-0.9212074875831604 0.35584521293640137 -0.9568639993667603
-0.9212024211883545 0.35584548115730286 -0.6723403930664062
-0.9211973547935486 0.35584571957588196 -0.38781672716140747
-0.9211922883987427 0.35584595799446106 -0.10329307615756989
-0.9211872220039368 0.35584622621536255 0.1812305748462677
-0.9211821556091309 0.35584646463394165 0.4657542109489441
-0.921177089214325 0.35584673285484314 0.7502778768539429
-0.921172022819519 0.35584697127342224 1.0348014831542969
-0.9211669564247131 0.35584720969200134 1.3193252086639404
-0.9211618304252625 0.35584747791290283 1.6038488149642944
-0.9211567640304565 0.35584771633148193 1.8883724212646484
-0.9211516976356506 0.35584795475006104 2.172896146774292
-0.9211466312408447 0.3558482229709625 2.4574196338653564
-0.9211415648460388 0.3558484613895416 2.741943359375
-0.94024658203125 -0.019374897703528404 -1.5259106159210205
-0.9402415156364441 -0.019374648109078407 -1.2413870096206665
-0.9402364492416382 -0.01937439851462841 -0.9568633437156677
-0.9402313828468323 -0.019374148920178413 -0.672339677810669
-0.9402263164520264 -0.019373899325728416 -0.38781604170799255
-0.9402212500572205 -0.01937364973127842 -0.10329240560531616
-0.9402161836624146 -0.019373400136828423 0.18123124539852142
-0.9402111172676086 -0.019373152405023575 0.465754896402359
-0.9402060508728027 -0.019372902810573578 0.7502785325050354
-0.9402009844779968 -0.01937265321612358 1.0348021984100342
-0.9401959180831909 -0.019372403621673584 1.3193258047103882
-0.940190851688385 -0.019372154027223587 1.6038495302200317
-0.9401857852935791 -0.01937190443277359 1.8883731365203857
-0.9401807188987732 -0.019371654838323593 2.1728968620300293
-0.9401756525039673 -0.019371405243873596 2.4574203491210938
-0.9401705861091614 -0.0193711556494236 2.7419440746307373
-0.883354902267456 -0.39074426889419556 -1.5259113311767578
-0.8833498358726501 -0.39074400067329407 -1.2413877248764038
-0.8833447694778442 -0.39074376225471497 -0.956864058971405
-0.8833397030830383 -0.39074352383613586 -0.6723403930664062
-0.8833346366882324 -0.3907432556152344 -0.38781672716140747
-0.8833295702934265 -0.3907430171966553 -0.10329309105873108
-0.8833245038986206 -0.3907427489757538 0.1812305599451065
-0.8833194375038147 -0.3907425105571747 0.4657542109489441
-0.8833143711090088 -0.3907422721385956 0.7502778172492981
-0.8833093047142029 -0.3907420039176941 1.0348014831542969
-0.883304238319397 -0.390741765499115 1.3193250894546509
-0.8832991719245911 -0.3907415270805359 1.6038488149642944
-0.8832941055297852 -0.3907412588596344 1.8883724212646484
-0.8832890391349792 -0.3907410204410553 2.172896146774292
-0.8832839727401733 -0.3907407522201538 2.4574196338653564
-0.8832788467407227 -0.3907405138015747 2.741943359375
-0.7528716921806335 -0.7430594563484192 -1.5259133577346802
-0.7528666257858276 -0.7430592179298401 -1.2413897514343262
-0.7528615593910217 -0.743058979511261 -0.9568660259246826
-0.7528564929962158 -0.7430586814880371 -0.6723424196243286
-0.7528514266014099 -0.743058443069458 -0.38781875371932983
-0.752846360206604 -0.7430582046508789 -0.10329511016607285
-0.7528412938117981 -0.7430579662322998 0.18122853338718414
-0.7528362274169922 -0.7430577278137207 0.46575218439102173
-0.7528311610221863 -0.7430574297904968 0.7502758502960205
-0.7528260946273804 -0.7430571913719177 1.0347994565963745
-0.7528210282325745 -0.7430569529533386 1.3193230628967285
-0.7528159022331238 -0.7430567145347595 1.603846788406372
-0.7528108358383179 -0.7430564761161804 1.888370394706726
-0.752805769443512 -0.7430562376976013 2.17289400100708
-0.752800703048706 -0.7430559396743774 2.4574177265167236
-0.7527956366539001 -0.7430557012557983 2.741941452026367
-0.5541389584541321 -1.0618966817855835 -1.525916576385498
-0.5541338920593262 -1.0618964433670044 -1.241392970085144
-0.5541288256645203 -1.0618962049484253 -0.9568693041801453
-0.5541237592697144 -1.0618958473205566 -0.6723456382751465
-0.5541186928749084 -1.0618956089019775 -0.3878220021724701
-0.5541136264801025 -1.0618953704833984 -0.1032983735203743
-0.5541085004806519 -1.0618951320648193 0.1812252700328827
-0.554103434085846 -1.0618948936462402 0.46574893593788147
-0.55409836769104 -1.0618946552276611 0.7502725720405579
-0.5540933012962341 -1.061894416809082 1.0347962379455566
-0.5540882349014282 -1.061894178390503 1.3193198442459106
-0.5540831685066223 -1.0618939399719238 1.6038434505462646
-0.5540781021118164 -1.0618937015533447 1.8883671760559082
-0.5540730357170105 -1.0618934631347656 2.1728909015655518
-0.5540679693222046 -1.061893105506897 2.457414388656616
-0.5540629029273987 -1.0618928670883179 2.7419381141662598
-0.29529279470443726 -1.3342026472091675 -1.5259209871292114
-0.29528772830963135 -1.3342024087905884 -1.2413973808288574
-0.29528266191482544 -1.3342021703720093 -0.9568736553192139
-0.29527759552001953 -1.3342019319534302 -0.6723500490188599
-0.2952725291252136 -1.334201693534851 -0.3878263831138611
-0.2952674627304077 -1.3342013359069824 -0.1033027395606041
-0.2952623963356018 -1.3342010974884033 0.1812209039926529
-0.2952573299407959 -1.3342008590698242 0.4657445549964905
-0.29525226354599 -1.3342006206512451 0.7502682209014893
-0.2952471971511841 -1.334200382232666 1.0347918272018433
-0.2952421307563782 -1.334200143814087 1.3193154335021973
-0.2952370345592499 -1.3341999053955078 1.6038391590118408
-0.29523196816444397 -1.3341996669769287 1.8883627653121948
-0.29522690176963806 -1.3341994285583496 2.172886371612549
-0.29522183537483215 -1.3341991901397705 2.4574100971221924
-0.29521676898002625 -1.3341988325119019 2.741933822631836
0.013069518841803074 -1.548829197883606 -1.5259262323379517
0.013074588030576706 -1.5488288402557373 -1.2414026260375977
0.013079657219350338 -1.5488286018371582 -0.9568789601325989
0.01308472640812397 -1.548828363418579 -0.6723553538322449
0.013089795596897602 -1.548828125 -0.3878316879272461
0.013094864785671234 -1.548827886581421 -0.1033080518245697
0.013099933974444866 -1.5488276481628418 0.18121559917926788
0.013105003163218498 -1.5488274097442627 0.46573925018310547
0.01311007235199213 -1.5488271713256836 0.7502629160881042
0.013115141540765762 -1.5488269329071045 1.034786581993103
0.013120210729539394 -1.5488266944885254 1.319310188293457
0.013125278986990452 -1.5488264560699463 1.603833794593811
0.013130348175764084 -1.5488260984420776 1.8883575201034546
0.013135417364537716 -1.5488258600234985 2.1728811264038086
0.013140486553311348 -1.5488256216049194 2.457404851913452
0.01314555574208498 -1.5488253831863403 2.7419283390045166
0.3583236634731293 -1.6969894170761108 -1.5259323120117188
0.3583287298679352 -1.6969890594482422 -1.2414087057113647
0.3583337962627411 -1.696988821029663 -0.9568849802017212
0.358338862657547 -1.696988582611084 -0.6723613739013672
0.3583439290523529 -1.6969883441925049 -0.3878377079963684
0.3583489954471588 -1.6969881057739258 -0.10331407189369202
0.3583540618419647 -1.6969878673553467 0.18120957911014557
0.35835912823677063 -1.6969876289367676 0.46573323011398315
0.35836419463157654 -1.6969873905181885 0.7502568960189819
0.35836926102638245 -1.6969871520996094 1.034780502319336
0.35837435722351074 -1.6969869136810303 1.31930410861969
0.35837942361831665 -1.6969866752624512 1.6038278341293335
0.35838449001312256 -1.6969863176345825 1.8883514404296875
0.35838955640792847 -1.6969860792160034 2.172875165939331
0.3583946228027344 -1.6969858407974243 2.4573986530303955
0.3583996891975403 -1.6969856023788452 2.741922378540039
0.7263348698616028 -1.7726175785064697 -1.5259387493133545
0.7263399362564087 -1.7726173400878906 -1.2414151430130005
0.7263450026512146 -1.7726171016693115 -0.9568914771080017
0.7263500690460205 -1.7726168632507324 -0.6723678708076477
0.7263551354408264 -1.7726166248321533 -0.3878442049026489
0.7263602018356323 -1.7726163864135742 -0.10332056134939194
0.7263652682304382 -1.7726161479949951 0.18120308220386505
0.7263703346252441 -1.7726157903671265 0.46572673320770264
0.72637540102005 -1.7726155519485474 0.7502503991127014
0.726380467414856 -1.7726153135299683 1.0347740650177002
0.7263855338096619 -1.7726150751113892 1.3192976713180542
0.7263906002044678 -1.77261483669281 1.6038212776184082
0.7263956665992737 -1.772614598274231 1.8883450031280518
0.7264007329940796 -1.7726143598556519 2.172868490219116
0.7264057993888855 -1.7726141214370728 2.4573922157287598
0.7264108657836914 -1.7726138830184937 2.7419159412384033
1.102036714553833 -1.7726175785064697 -1.5259454250335693
1.1020417213439941 -1.7726173400878906 -1.2414218187332153
1.1020468473434448 -1.7726171016693115 -0.9568982124328613
1.102051854133606 -1.7726168632507324 -0.6723745465278625
1.1020569801330566 -1.7726166248321533 -0.38785091042518616
1.1020619869232178 -1.7726163864135742 -0.10332725197076797
1.1020671129226685 -1.7726161479949951 0.181196391582489
1.1020721197128296 -1.7726157903671265 0.4657200276851654
1.1020772457122803 -1.7726155519485474 0.7502436637878418
1.1020822525024414 -1.7726153135299683 1.0347673892974854
1.102087378501892 -1.7726150751113892 1.3192909955978394
1.1020923852920532 -1.77261483669281 1.6038146018981934
1.102097511291504 -1.772614598274231 1.888338327407837
1.102102518081665 -1.7726143598556519 2.1728618144989014
1.1021076440811157 -1.7726141214370728 2.457385540008545
1.1021127700805664 -1.7726138830184937 2.7419092655181885
1.4700478315353394 -1.6969894170761108 -1.5259521007537842
1.47005295753479 -1.6969890594482422 -1.2414284944534302
1.4700579643249512 -1.696988821029663 -0.9569048285484314
1.4700630903244019 -1.696988582611084 -0.6723811626434326
1.470068097114563 -1.6969883441925049 -0.3878575265407562
1.4700732231140137 -1.6969881057739258 -0.10333387553691864
1.4700782299041748 -1.6969878673553467 0.18118977546691895
1.4700833559036255 -1.6969876289367676 0.46571341156959534
1.4700884819030762 -1.6969873905181885 0.7502370476722717
1.4700934886932373 -1.6969871520996094 1.0347607135772705
1.470098614692688 -1.6969869136810303 1.3192843198776245
1.4701036214828491 -1.6969866752624512 1.603808045387268
1.4701087474822998 -1.6969863176345825 1.888331651687622
1.470113754272461 -1.6969860792160034 2.1728553771972656
1.4701188802719116 -1.6969858407974243 2.45737886428833
1.4701238870620728 -1.6969856023788452 2.7419025897979736
1.8153020143508911 -1.548829197883606 -1.5259584188461304
1.8153070211410522 -1.5488288402557373 -1.2414346933364868
1.815312147140503 -1.5488286018371582 -0.9569110870361328
1.815317153930664 -1.548828363418579 -0.672387421131134
1.8153222799301147 -1.548828125 -0.38786381483078003
1.8153274059295654 -1.548827886581421 -0.10334015637636185
1.8153324127197266 -1.5488276481628418 0.18118348717689514
1.8153375387191772 -1.5488274097442627 0.46570712327957153
1.8153425455093384 -1.5488271713256836 0.7502307891845703
1.815347671508789 -1.5488269329071045 1.0347543954849243
1.8153526782989502 -1.5488266944885254 1.3192781209945679
1.8153578042984009 -1.5488264560699463 1.6038017272949219
1.815362811088562 -1.5488260984420776 1.8883253335952759
1.8153679370880127 -1.5488258600234985 2.17284893989563
1.8153729438781738 -1.5488256216049194 2.4573726654052734
1.8153780698776245 -1.5488253831863403 2.741896390914917
2.123664379119873 -1.3342026472091675 -1.5259640216827393
2.123669385910034 -1.3342024087905884 -1.2414404153823853
2.1236743927001953 -1.3342021703720093 -0.9569167494773865
2.1236796379089355 -1.3342019319534302 -0.6723931431770325
2.1236846446990967 -1.334201693534851 -0.3878694772720337
2.123689651489258 -1.3342013359069824 -0.1033458411693573
2.123694658279419 -1.3342010974884033 0.18117780983448029
2.123699903488159 -1.3342008590698242 0.46570146083831787
2.1237049102783203 -1.3342006206512451 0.7502251267433167
2.1237099170684814 -1.334200382232666 1.0347487926483154
2.1237149238586426 -1.334200143814087 1.3192723989486694
2.123720169067383 -1.3341999053955078 1.6037960052490234
2.123725175857544 -1.3341996669769287 1.888319730758667
2.123730182647705 -1.3341994285583496 2.1728432178497314
2.123735189437866 -1.3341991901397705 2.457366943359375
2.1237404346466064 -1.3341988325119019 2.7418906688690186
2.3825104236602783 -1.0618966817855835 -1.5259689092636108
2.3825154304504395 -1.0618964433670044 -1.2414453029632568
2.3825206756591797 -1.0618962049484253 -0.9569216370582581
2.382525682449341 -1.0618958473205566 -0.6723979711532593
2.382530689239502 -1.0618956089019775 -0.3878743350505829
2.382535696029663 -1.0618953704833984 -0.1033506914973259
2.3825409412384033 -1.0618951320648193 0.1811729520559311
2.3825459480285645 -1.0618948936462402 0.4656966030597687
2.3825509548187256 -1.0618946552276611 0.7502202391624451
2.382556200027466 -1.061894416809082 1.0347439050674438
2.382561206817627 -1.061894178390503 1.3192675113677979
2.382566213607788 -1.0618939399719238 1.6037912368774414
2.382571220397949 -1.0618937015533447 1.8883148431777954
2.3825764656066895 -1.0618934631347656 2.1728384494781494
2.3825814723968506 -1.061893105506897 2.457362174987793
2.3825864791870117 -1.0618928670883179 2.7418856620788574
2.5812432765960693 -0.7430594563484192 -1.5259727239608765
2.5812482833862305 -0.7430592179298401 -1.2414491176605225
2.5812532901763916 -0.743058979511261 -0.9569254517555237
2.581258535385132 -0.7430586814880371 -0.6724017858505249
2.581263542175293 -0.743058443069458 -0.3878781497478485
2.581268548965454 -0.7430582046508789 -0.10335451364517212
2.5812735557556152 -0.7430579662322998 0.18116913735866547
2.5812788009643555 -0.7430577278137207 0.46569278836250305
2.5812838077545166 -0.7430574297904968 0.7502164244651794
2.5812888145446777 -0.7430571913719177 1.0347400903701782
2.581293821334839 -0.7430569529533386 1.3192636966705322
2.581299066543579 -0.7430567145347595 1.6037874221801758
2.5813040733337402 -0.7430564761161804 1.8883110284805298
2.5813090801239014 -0.7430562376976013 2.172834634780884
2.5813140869140625 -0.7430559396743774 2.4573583602905273
2.5813193321228027 -0.7430557012557983 2.741881847381592
2.711726427078247 -0.39074426889419556 -1.5259753465652466
2.711731433868408 -0.39074400067329407 -1.2414517402648926
2.7117366790771484 -0.39074376225471497 -0.9569280743598938
2.7117416858673096 -0.39074352383613586 -0.672404408454895
2.7117466926574707 -0.3907432556152344 -0.387880802154541
2.711751699447632 -0.3907430171966553 -0.10335714370012283
2.711756944656372 -0.3907427489757538 0.18116649985313416
2.711761951446533 -0.3907425105571747 0.46569013595581055
2.7117669582366943 -0.3907422721385956 0.7502138018608093
2.7117719650268555 -0.3907420039176941 1.034737467765808
2.7117772102355957 -0.390741765499115 1.319261074066162
2.711782217025757 -0.3907415270805359 1.6037846803665161
2.711787223815918 -0.3907412588596344 1.8883084058761597
2.711792230606079 -0.3907410204410553 2.1728320121765137
2.7117974758148193 -0.3907407522201538 2.4573557376861572
2.7118024826049805 -0.3907405138015747 2.7418792247772217
2.768618106842041 -0.019374897703528404 -1.5259766578674316
2.768623113632202 -0.019374648109078407 -1.2414530515670776
2.7686283588409424 -0.01937439851462841 -0.9569294452667236
2.7686333656311035 -0.019374148920178413 -0.6724057793617249
2.7686383724212646 -0.019373899325728416 -0.38788214325904846
2.768643379211426 -0.01937364973127842 -0.10335848480463028
2.768648624420166 -0.019373400136828423 0.1811651587486267
2.768653631210327 -0.019373152405023575 0.4656887948513031
2.7686586380004883 -0.019372902810573578 0.7502124309539795
2.7686636447906494 -0.01937265321612358 1.034736156463623
2.7686688899993896 -0.019372403621673584 1.319259762763977
2.768673896789551 -0.019372154027223587 1.603783369064331
2.768678903579712 -0.01937190443277359 1.8883070945739746
2.768683910369873 -0.019371654838323593 2.172830581665039
2.7686891555786133 -0.019371405243873596 2.4573543071746826
2.7686941623687744 -0.0193711556494236 2.741878032684326
2.749589204788208 0.35584473609924316 -1.5259766578674316
2.749594211578369 0.35584497451782227 -1.2414530515670776
2.7495992183685303 0.35584521293640137 -0.9569293856620789
2.7496044635772705 0.35584548115730286 -0.6724057793617249
2.7496094703674316 0.35584571957588196 -0.3878821134567261
2.7496144771575928 0.35584595799446106 -0.10335846990346909
2.749619483947754 0.35584622621536255 0.1811651736497879
2.749624729156494 0.35584646463394165 0.4656888246536255
2.7496297359466553 0.35584673285484314 0.7502124905586243
2.7496347427368164 0.35584697127342224 1.034736156463623
2.7496397495269775 0.35584720969200134 1.319259762763977
2.7496449947357178 0.35584747791290283 1.603783369064331
2.749650001525879 0.35584771633148193 1.8883070945739746
2.74965500831604 0.35584795475006104 2.172830581665039
2.749660015106201 0.3558482229709625 2.4573543071746826
2.7496652603149414 0.3558484613895416 2.741878032684326
2.655418634414673 0.7195530533790588 -1.5259753465652466
2.655423641204834 0.7195532917976379 -1.2414517402648926
2.655428647994995 0.7195535898208618 -0.9569280743598938
2.6554336547851562 0.7195538282394409 -0.672404408454895
2.6554388999938965 0.71955406665802 -0.38788077235221863
2.6554439067840576 0.7195543050765991 -0.10335711389780045
2.6554489135742188 0.7195545434951782 0.18116652965545654
2.65545392036438 0.7195548415184021 0.46569016575813293
2.65545916557312 0.7195550799369812 0.7502138018608093
2.6554641723632812 0.7195553183555603 1.034737467765808
2.6554691791534424 0.7195555567741394 1.319261074066162
2.6554741859436035 0.7195557951927185 1.6037847995758057
2.6554794311523438 0.7195560932159424 1.8883084058761597
2.655484437942505 0.7195563316345215 2.1728320121765137
2.655489444732666 0.7195565700531006 2.4573557376861572
2.655494451522827 0.7195568084716797 2.741879463195801
2.489961624145508 1.0568598508834839 -1.5259727239608765
2.489966630935669 1.056860089302063 -1.241448998451233
2.489971876144409 1.056860327720642 -0.9569253921508789
2.4899768829345703 1.0568606853485107 -0.6724017262458801
2.4899818897247314 1.0568609237670898 -0.3878781199455261
2.4899868965148926 1.056861162185669 -0.10335446149110794
2.489992141723633 1.056861400604248 0.18116918206214905
2.489997148513794 1.0568616390228271 0.46569281816482544
2.490002155303955 1.0568618774414062 0.7502164840698242
2.490007162094116 1.0568621158599854 1.0347400903701782
2.4900124073028564 1.0568623542785645 1.3192638158798218
2.4900174140930176 1.0568625926971436 1.6037874221801758
2.4900224208831787 1.0568628311157227 1.8883110284805298
2.49002742767334 1.0568630695343018 2.172834634780884
2.49003267288208 1.0568634271621704 2.4573583602905273
2.490037679672241 1.0568636655807495 2.741882085800171
2.2599923610687256 1.3539557456970215 -1.5259689092636108
2.2599973678588867 1.3539559841156006 -1.2414451837539673
2.260002374649048 1.3539562225341797 -0.9569215774536133
2.260007619857788 1.3539565801620483 -0.6723979115486145
2.260012626647949 1.3539568185806274 -0.3878742754459381
2.2600176334381104 1.3539570569992065 -0.10335062444210052
2.2600226402282715 1.3539572954177856 0.18117302656173706
2.2600278854370117 1.3539575338363647 0.46569666266441345
2.260032892227173 1.3539577722549438 0.7502202987670898
2.260037899017334 1.353958010673523 1.0347439050674438
2.260042905807495 1.353958249092102 1.3192676305770874
2.2600481510162354 1.3539584875106812 1.6037912368774414
2.2600531578063965 1.3539587259292603 1.8883148431777954
2.2600581645965576 1.3539589643478394 2.1728384494781494
2.2600631713867188 1.353959321975708 2.457362174987793
2.260068416595459 1.353959560394287 2.7418859004974365
1.9749255180358887 1.598677635192871 -1.5259640216827393
1.9749305248260498 1.5986778736114502 -1.2414402961730957
1.9749356508255005 1.5986781120300293 -0.9569166898727417
1.9749406576156616 1.5986783504486084 -0.6723930239677429
1.9749457836151123 1.5986785888671875 -0.3878694176673889
1.9749507904052734 1.5986788272857666 -0.10334575921297073
1.9749559164047241 1.5986790657043457 0.18117788434028625
1.9749609231948853 1.5986793041229248 0.46570152044296265
1.974966049194336 1.5986796617507935 0.7502251863479614
1.974971055984497 1.5986799001693726 1.0347487926483154
1.9749761819839478 1.5986801385879517 1.319272518157959
1.9749811887741089 1.5986803770065308 1.603796124458313
1.9749863147735596 1.5986806154251099 1.888319730758667
1.9749913215637207 1.598680853843689 2.1728434562683105
1.9749964475631714 1.598681092262268 2.457366943359375
1.975001573562622 1.5986813306808472 2.7418906688690186
1.646431803703308 1.7810064554214478 -1.5259582996368408
1.6464369297027588 1.7810066938400269 -1.2414346933364868
1.64644193649292 1.781006932258606 -0.956911027431488
1.6464470624923706 1.781007170677185 -0.6723873615264893
1.6464521884918213 1.7810074090957642 -0.38786372542381287
1.6464571952819824 1.7810076475143433 -0.10334006696939468
1.646462321281433 1.7810078859329224 0.1811835765838623
1.6464673280715942 1.781008243560791 0.4657072126865387
1.646472454071045 1.7810084819793701 0.7502308487892151
1.646477460861206 1.7810087203979492 1.0347545146942139
1.6464825868606567 1.7810089588165283 1.3192781209945679
1.6464875936508179 1.7810091972351074 1.6038018465042114
1.6464927196502686 1.7810094356536865 1.8883254528045654
1.6464977264404297 1.7810096740722656 2.172849178314209
1.6465028524398804 1.7810099124908447 2.4573726654052734
1.6465078592300415 1.7810101509094238 2.741896390914917
1.2879599332809448 1.8934776782989502 -1.5259519815444946
1.2879650592803955 1.8934779167175293 -1.2414283752441406
1.2879701852798462 1.893478274345398 -0.9569047093391418
1.2879751920700073 1.893478512763977 -0.6723810434341431
1.287980318069458 1.8934787511825562 -0.38785743713378906
1.2879853248596191 1.8934789896011353 -0.10333377867937088
1.2879904508590698 1.8934792280197144 0.1811898648738861
1.287995457649231 1.8934794664382935 0.4657135009765625
1.2880005836486816 1.8934797048568726 0.7502371668815613
1.2880055904388428 1.8934799432754517 1.03476083278656
1.2880107164382935 1.8934801816940308 1.319284439086914
1.2880157232284546 1.8934804201126099 1.603808045387268
1.2880208492279053 1.893480658531189 1.8883317708969116
1.2880258560180664 1.8934810161590576 2.1728553771972656
1.288030982017517 1.8934812545776367 2.457379102706909
1.2880359888076782 1.8934814929962158 2.7419025897979736
0.9141857624053955 1.9314868450164795 -1.5259454250335693
0.9141908288002014 1.9314870834350586 -1.2414216995239258
0.9141958951950073 1.9314873218536377 -0.9568980932235718
0.9142009615898132 1.9314875602722168 -0.672374427318573
0.9142060279846191 1.931487798690796 -0.3878507912158966
0.914211094379425 1.931488037109375 -0.10332715511322021
0.914216160774231 1.9314883947372437 0.18119649589061737
0.9142212271690369 1.9314886331558228 0.46572014689445496
0.9142262935638428 1.9314888715744019 0.7502437829971313
0.9142313599586487 1.931489109992981 1.0347673892974854
0.9142364263534546 1.93148934841156 1.319291114807129
0.9142415523529053 1.9314895868301392 1.603814721107483
0.9142466187477112 1.9314898252487183 1.888338327407837
0.9142516851425171 1.9314900636672974 2.1728620529174805
0.914256751537323 1.9314903020858765 2.457385778427124
0.9142618179321289 1.9314905405044556 2.7419092655181885
