ply
format ascii 1.0
element vertex 512
property float x
property float y
property float z
end_header
0.003583550453186035 -1.002503514289856 0.9826935529708862
0.0031549979466944933 -1.0022133588790894 0.8495612740516663
0.0027264452073723078 -1.0019233226776123 0.7164290547370911
0.002297892700880766 -1.0016331672668457 0.5832967758178711
0.0018693400779739022 -1.001343011856079 0.4501645565032959
0.0014407874550670385 -1.0010528564453125 0.3170323073863983
0.0010122348321601748 -1.0007628202438354 0.18390005826950073
0.0005836822092533112 -1.0004726648330688 0.050767816603183746
0.0001551296008983627 -1.0001825094223022 -0.08236443251371384
-0.00027342300745658576 -0.9998924136161804 -0.21549667418003082
-0.000701975601259619 -0.9996023178100586 -0.3486289381980896
-0.0011305281659588218 -0.999312162399292 -0.4817611575126648
-0.0015590807888656855 -0.9990220665931702 -0.6148934364318848
-0.001987633528187871 -0.9987319111824036 -0.74802565574646
-0.002416186034679413 -0.9984418153762817 -0.8811579346656799
-0.0028447385411709547 -0.9981517195701599 -1.0142902135849
-0.19780923426151276 -0.9820252060890198 0.9833864569664001
-0.19823779165744781 -0.981735110282898 0.8502541780471802
-0.19866634905338287 -0.9814450144767761 0.717121958732605
-0.19909489154815674 -0.9811548590660095 0.5839897394180298
-0.1995234489440918 -0.9808647632598877 0.4508574604988098
-0.19995200634002686 -0.9805746078491211 0.31772521138191223
-0.20038056373596191 -0.9802845120429993 0.18459297716617584
-0.20080910623073578 -0.9799943566322327 0.05146072432398796
-0.20123766362667084 -0.9797042608261108 -0.08167152106761932
-0.2016662210226059 -0.9794141054153442 -0.2148037701845169
-0.20209476351737976 -0.9791240096092224 -0.3479360044002533
-0.20252332091331482 -0.9788339138031006 -0.4810682535171509
-0.20295187830924988 -0.978543758392334 -0.6142005324363708
-0.20338042080402374 -0.9782536625862122 -0.747332751750946
-0.2038089781999588 -0.9779635071754456 -0.8804649710655212
-0.20423753559589386 -0.9776734113693237 -1.0135972499847412
-0.3909569978713989 -0.9214259386062622 0.9841402769088745
-0.391385555267334 -0.9211357831954956 0.8510079979896545
-0.39181408286094666 -0.9208456873893738 0.7178757786750793
-0.3922426402568817 -0.9205555319786072 0.5847434997558594
-0.3926711976528168 -0.9202654361724854 0.4516112804412842
-0.39309975504875183 -0.9199752807617188 0.3184790313243866
-0.3935283124446869 -0.9196851849555969 0.18534676730632782
-0.39395686984062195 -0.9193950891494751 0.052214525640010834
-0.3943853974342346 -0.9191049337387085 -0.08091772347688675
-0.3948139548301697 -0.9188148379325867 -0.21404996514320374
-0.39524251222610474 -0.9185246825218201 -0.3471822142601013
-0.3956710696220398 -0.9182345867156982 -0.4803144633769989
-0.39609962701797485 -0.9179444313049316 -0.6134467124938965
-0.3965281844139099 -0.9176543354988098 -0.7465789318084717
-0.3969567120075226 -0.917364239692688 -0.8797112107276917
-0.39738526940345764 -0.9170740842819214 -1.0128434896469116
-0.5679522156715393 -0.8231865167617798 0.9849240779876709
-0.5683807730674744 -0.822896420955658 0.8517918586730957
-0.5688093304634094 -0.8226062655448914 0.7186595797538757
-0.5692378282546997 -0.8223161697387695 0.5855273604393005
-0.5696663856506348 -0.8220260143280029 0.45239511132240295
-0.5700949430465698 -0.8217359185218811 0.31926286220550537
-0.5705235004425049 -0.8214458227157593 0.1861305981874466
-0.5709520578384399 -0.8211556673049927 0.05299835652112961
-0.571380615234375 -0.8208655714988708 -0.08013389259576797
-0.5718091726303101 -0.8205754160881042 -0.21326613426208496
-0.5722377300262451 -0.8202853202819824 -0.34639838337898254
-0.5726662874221802 -0.8199951648712158 -0.4795306324958801
-0.5730948448181152 -0.819705069065094 -0.6126628518104553
-0.5735234022140503 -0.8194149136543274 -0.7457951307296753
-0.5739519596099854 -0.8191248178482056 -0.8789273500442505
-0.5743805170059204 -0.8188347220420837 -1.0120595693588257
-0.7215486764907837 -0.6913290023803711 0.9857058525085449
-0.7219772338867188 -0.6910388469696045 0.8525736331939697
-0.7224057912826538 -0.6907487511634827 0.7194413542747498
-0.7228343486785889 -0.6904586553573608 0.5863091349601746
-0.7232629060745239 -0.6901684999465942 0.4531768560409546
-0.7236914038658142 -0.6898784041404724 0.3200446367263794
-0.7241199612617493 -0.6895882487297058 0.18691237270832062
-0.7245485186576843 -0.689298152923584 0.05378012731671333
-0.7249770760536194 -0.6890079975128174 -0.07935211807489395
-0.7254056334495544 -0.6887179017066956 -0.21248435974121094
-0.7258341908454895 -0.688427746295929 -0.3456166088581085
-0.7262627482414246 -0.6881376504898071 -0.4787488579750061
-0.7266913056373596 -0.6878475546836853 -0.6118810772895813
-0.7271198630332947 -0.6875573992729187 -0.7450133562088013
-0.7275484204292297 -0.6872673034667969 -0.8781455755233765
-0.7279769778251648 -0.6869771480560303 -1.0112777948379517
-0.8454581499099731 -0.5312515497207642 0.9864535331726074
-0.8458867073059082 -0.5309614539146423 0.8533213138580322
-0.8463152647018433 -0.5306713581085205 0.720189094543457
-0.8467438220977783 -0.5303812026977539 0.5870568156242371
-0.8471723794937134 -0.5300911068916321 0.4539245665073395
-0.8476008772850037 -0.5298009514808655 0.3207923173904419
-0.8480294346809387 -0.5295108556747437 0.1876600831747055
-0.8484579920768738 -0.529220700263977 0.05452783405780792
-0.8488865494728088 -0.5289306044578552 -0.07860441505908966
-0.8493151068687439 -0.5286404490470886 -0.21173666417598724
-0.849743664264679 -0.5283503532409668 -0.34486889839172363
-0.850172221660614 -0.528060257434845 -0.4780011475086212
-0.8506007790565491 -0.5277701020240784 -0.6111333966255188
-0.8510293364524841 -0.5274800062179565 -0.744265615940094
-0.8514578938484192 -0.5271898508071899 -0.877397894859314
-0.8518864512443542 -0.5268997550010681 -1.0105301141738892
-0.934607744216919 -0.3495078682899475 0.9871366024017334
-0.935036301612854 -0.3492177426815033 0.8540043234825134
-0.9354648590087891 -0.3489276170730591 0.7208721041679382
-0.9358934164047241 -0.34863749146461487 0.5877398252487183
-0.9363219738006592 -0.34834736585617065 0.45460760593414307
-0.9367505311965942 -0.34805724024772644 0.3214753568172455
-0.9371790885925293 -0.3477671146392822 0.1883431077003479
-0.9376075863838196 -0.347476989030838 0.055210862308740616
-0.9380361437797546 -0.3471868932247162 -0.07792138308286667
-0.9384647011756897 -0.346896767616272 -0.21105362474918365
-0.9388932585716248 -0.34660664200782776 -0.34418588876724243
-0.9393218159675598 -0.34631651639938354 -0.47731813788414
-0.9397503733634949 -0.34602639079093933 -0.6104503870010376
-0.9401789307594299 -0.3457362651824951 -0.7435826063156128
-0.940607488155365 -0.3454461395740509 -0.8767148852348328
-0.9410360455513 -0.3451560139656067 -1.0098471641540527
-0.9853476881980896 -0.15353845059871674 0.9877269864082336
-0.9857762455940247 -0.15324833989143372 0.8545947074890137
-0.9862048029899597 -0.1529582142829895 0.7214624881744385
-0.9866333603858948 -0.1526680886745453 0.5883302092552185
-0.9870619177818298 -0.15237796306610107 0.4551979899406433
-0.9874904751777649 -0.15208783745765686 0.3220657408237457
-0.9879190325737 -0.15179772675037384 0.18893349170684814
-0.9883475303649902 -0.15150760114192963 0.05580125376582146
-0.9887760877609253 -0.1512174755334854 -0.07733099162578583
-0.9892046451568604 -0.1509273499250412 -0.2104632407426834
-0.9896332025527954 -0.15063723921775818 -0.3435954749584198
-0.9900617599487305 -0.15034711360931396 -0.4767277240753174
-0.9904903173446655 -0.15005698800086975 -0.6098600029945374
-0.9909188747406006 -0.14976686239242554 -0.7429922223091125
-0.9913474321365356 -0.14947675168514252 -0.8761245012283325
-0.9917759895324707 -0.1491866260766983 -1.0092567205429077
-0.995600700378418 0.048633623868227005 0.9882005453109741
-0.9960291981697083 0.04892374575138092 0.8550683259963989
-0.9964577555656433 0.049213867634534836 0.721936047077179
-0.9968863129615784 0.04950398951768875 0.5888038277626038
-0.9973148703575134 0.04979411140084267 0.4556715786457062
-0.9977434277534485 0.05008423328399658 0.3225393295288086
-0.9981719851493835 0.0503743551671505 0.189407080411911
-0.9986005425453186 0.05066447705030441 0.05627483129501343
-0.9990290999412537 0.05095459893345833 -0.07685741782188416
-0.9994576573371887 0.051244720816612244 -0.20998966693878174
-0.9998862147331238 0.05153484269976616 -0.3431219160556793
-1.000314712524414 0.051824964582920074 -0.4762541651725769
-1.0007432699203491 0.05211508646607399 -0.6093863844871521
-1.0011718273162842 0.052405212074518204 -0.7425186634063721
-1.0016003847122192 0.05269533395767212 -0.8756508827209473
-1.0020289421081543 0.052985455840826035 -1.0087831020355225
-0.9649469256401062 0.24873143434524536 0.9885379076004028
-0.9653754830360413 0.24902154505252838 0.8554056882858276
-0.9658040404319763 0.2493116706609726 0.7222734689712524
-0.9662325978279114 0.2496017962694168 0.5891411900520325
-0.9666611552238464 0.24989192187786102 0.4560089409351349
-0.9670897126197815 0.25018203258514404 0.3228766918182373
-0.9675182700157166 0.25047215819358826 0.18974445760250092
-0.9679468274116516 0.25076228380203247 0.05661220848560333
-0.9683753848075867 0.2510524094104767 -0.07652004063129425
-0.968803882598877 0.2513425350189209 -0.20965228974819183
-0.969232439994812 0.2516326606273651 -0.3427845239639282
-0.9696609973907471 0.25192275643348694 -0.4759167730808258
-0.9700895547866821 0.25221288204193115 -0.6090490221977234
-0.9705181121826172 0.25250300765037537 -0.7421812415122986
-0.9709466695785522 0.2527931332588196 -0.8753135204315186
-0.9713752269744873 0.2530832588672638 -1.0084457397460938
-0.8946414589881897 0.43856292963027954 0.9887253046035767
-0.8950700163841248 0.43885305523872375 0.8555930852890015
-0.8954985737800598 0.43914318084716797 0.7224608063697815
-0.8959271311759949 0.4394333064556122 0.5893285870552063
-0.8963556289672852 0.4397234320640564 0.45619630813598633
-0.8967841863632202 0.4400135278701782 0.32306405901908875
-0.8972127437591553 0.44030365347862244 0.18993182480335236
-0.8976413011550903 0.44059377908706665 0.05679957941174507
-0.8980698585510254 0.44088390469551086 -0.07633266597986221
-0.8984984159469604 0.4411740303039551 -0.2094649225473404
-0.8989269733428955 0.4414641559123993 -0.3425971567630768
-0.8993555307388306 0.4417542815208435 -0.47572940587997437
-0.8997840881347656 0.4420444071292877 -0.6088616847991943
-0.9002126455307007 0.44233453273773193 -0.7419939041137695
-0.9006412029266357 0.44262462854385376 -0.8751261234283447
-0.9010697603225708 0.442914754152298 -1.00825834274292
-0.7875625491142273 0.6103563904762268 0.9887549877166748
-0.7879910469055176 0.6106465458869934 0.8556227684020996
-0.7884196043014526 0.6109366416931152 0.7224904894828796
-0.7888481616973877 0.6112267971038818 0.5893582701683044
-0.7892767190933228 0.6115168929100037 0.4562259912490845
-0.7897052764892578 0.6118070483207703 0.3230937421321869
-0.7901338338851929 0.6120971441268921 0.1899615079164505
-0.7905623912811279 0.6123872399330139 0.056829262524843216
-0.790990948677063 0.6126773953437805 -0.07630298286676407
-0.791419506072998 0.6129674911499023 -0.20943522453308105
-0.7918480634689331 0.613257646560669 -0.34256747364997864
-0.7922766208648682 0.6135477423667908 -0.4756997227668762
-0.7927051782608032 0.6138378977775574 -0.6088319420814514
-0.7931336760520935 0.6141279935836792 -0.7419642210006714
-0.7935622334480286 0.6144181489944458 -0.8750964403152466
-0.7939907908439636 0.6147082448005676 -1.0082286596298218
-0.6480939984321594 0.7570786476135254 0.9886257648468018
-0.6485225558280945 0.7573687434196472 0.8554935455322266
-0.6489511132240295 0.757658839225769 0.7223612666130066
-0.6493796110153198 0.7579489946365356 0.5892290472984314
-0.6498081684112549 0.7582390904426575 0.4560967981815338
-0.6502367258071899 0.7585292458534241 0.32296454906463623
-0.650665283203125 0.7588193416595459 0.18983229994773865
-0.6510938405990601 0.7591094970703125 0.056700050830841064
-0.6515223979949951 0.7593995928764343 -0.07643219828605652
-0.6519509553909302 0.7596897482872009 -0.2095644474029541
-0.6523795127868652 0.7599798440933228 -0.3426966965198517
-0.6528080701828003 0.7602699398994446 -0.47582894563674927
-0.6532366275787354 0.7605600953102112 -0.6089611649513245
-0.6536651849746704 0.760850191116333 -0.7420934438705444
-0.6540937423706055 0.7611403465270996 -0.8752256631851196
-0.6545222401618958 0.7614304423332214 -1.0083578824996948
-0.4819456934928894 0.8727227449417114 0.9883429408073425
-0.48237425088882446 0.8730128407478333 0.8552107214927673
-0.48280277848243713 0.8733029961585999 0.7220784425735474
-0.4832313358783722 0.8735930919647217 0.5889462232589722
-0.48365989327430725 0.8738832473754883 0.4558139741420746
-0.4840884506702423 0.8741733431816101 0.322681725025177
-0.48451700806617737 0.8744634985923767 0.18954947590827942
-0.4849455654621124 0.8747535943984985 0.05641723424196243
-0.4853740930557251 0.8750436902046204 -0.07671501487493515
-0.48580265045166016 0.875333845615387 -0.20984725654125214
-0.4862312078475952 0.8756239414215088 -0.3429795205593109
-0.4866597652435303 0.8759140968322754 -0.4761117398738861
-0.48708832263946533 0.8762041926383972 -0.6092439889907837
-0.4875168800354004 0.8764943480491638 -0.7423762679100037
-0.48794543743133545 0.8767844438552856 -0.8755084872245789
-0.4883739650249481 0.8770745396614075 -1.0086407661437988
-0.2959197759628296 0.9525542855262756 0.9879181385040283
-0.29634833335876465 0.9528443813323975 0.8547858595848083
-0.2967768609523773 0.9531345367431641 0.7216536402702332
-0.2972054183483124 0.9534246325492859 0.5885213613510132
-0.29763397574424744 0.9537147879600525 0.4553891122341156
-0.2980625331401825 0.9540048837661743 0.322256863117218
-0.29849109053611755 0.9542949795722961 0.18912462890148163
-0.2989196479320526 0.9545851349830627 0.055992383509874344
-0.2993481755256653 0.9548752307891846 -0.07713986188173294
-0.29977673292160034 0.9551653861999512 -0.21027210354804993
-0.3002052903175354 0.955455482006073 -0.3434043526649475
-0.30063384771347046 0.9557456374168396 -0.4765366017818451
-0.3010624051094055 0.9560357332229614 -0.6096688508987427
-0.3014909625053406 0.956325888633728 -0.7428010702133179
-0.30191951990127563 0.9566159844398499 -0.8759333491325378
-0.3023480474948883 0.9569060802459717 -1.0090656280517578
-0.09763214737176895 0.9933049082756042 0.987368643283844
-0.09806070476770401 0.9935950636863708 0.854236364364624
-0.09848925471305847 0.9938851594924927 0.7211041450500488
-0.09891780465841293 0.9941753149032593 0.5879718661308289
-0.09934636205434799 0.9944654107093811 0.45483964681625366
-0.09977491199970245 0.9947555065155029 0.3217073976993561
-0.10020346939563751 0.9950456619262695 0.1885751485824585
-0.10063201934099197 0.9953357577323914 0.05544289946556091
-0.10106056928634644 0.995625913143158 -0.07768934965133667
-0.1014891266822815 0.9959160089492798 -0.21082159876823425
-0.10191767662763596 0.9962061643600464 -0.34395384788513184
-0.10234622657299042 0.9964962601661682 -0.4770860970020294
-0.10277478396892548 0.9967864155769348 -0.610218346118927
-0.10320333391427994 0.9970765113830566 -0.7433505654335022
-0.1036318838596344 0.9973666071891785 -0.8764828443527222
-0.10406044125556946 0.9976567625999451 -1.0096150636672974
0.10479924827814102 0.9933063387870789 0.9867169857025146
0.10437069833278656 0.9935964345932007 0.8535847663879395
0.1039421483874321 0.9938865900039673 0.7204524874687195
0.10351359099149704 0.9941766858100891 0.5873202681541443
0.10308504104614258 0.9944668412208557 0.4541880190372467
0.10265649110078812 0.9947569370269775 0.3210557699203491
0.10222793370485306 0.9950470924377441 0.18792352080345154
0.1017993837594986 0.995337188243866 0.054791275411844254
0.10137083381414413 0.9956273436546326 -0.07834096997976303
0.10094227641820908 0.9959174394607544 -0.21147321164608002
0.10051372647285461 0.9962075352668762 -0.3446054756641388
0.10008516907691956 0.9964976906776428 -0.477737694978714
0.0996566191315651 0.9967877864837646 -0.6108699440956116
0.09922806918621063 0.9970779418945312 -0.7440022230148315
0.09879951179027557 0.9973680377006531 -0.8771344423294067
0.09837096184492111 0.9976581931114197 -1.010266661643982
0.30308687686920166 0.9525584578514099 0.9859899282455444
0.3026583194732666 0.9528486132621765 0.8528576493263245
0.30222976207733154 0.9531387090682983 0.7197254300117493
0.3018012046813965 0.9534288644790649 0.5865931510925293
0.3013726472854614 0.9537189602851868 0.4534609317779541
0.30094411969184875 0.9540091156959534 0.3203286826610565
0.3005155622959137 0.9542992115020752 0.18719643354415894
0.30008700489997864 0.954589307308197 0.05406419187784195
0.2996584475040436 0.9548794627189636 -0.07906805723905563
0.2992298901081085 0.9551695585250854 -0.21220029890537262
0.29880133271217346 0.955459713935852 -0.3453325629234314
0.2983728051185608 0.9557498097419739 -0.4784647822380066
0.29794424772262573 0.9560399651527405 -0.6115970611572266
0.2975156903266907 0.9563300609588623 -0.7447292804718018
0.2970871329307556 0.9566201567649841 -0.8778615593910217
0.29665857553482056 0.9569103121757507 -1.0109938383102417
0.4891127943992615 0.8727295398712158 0.9852171540260315
0.4886842370033264 0.8730196952819824 0.8520848751068115
0.48825567960739136 0.8733097910881042 0.7189526557922363
0.4878271222114563 0.8735998868942261 0.5858203768730164
0.48739856481552124 0.8738900423049927 0.45268815755844116
0.48697003722190857 0.8741801381111145 0.3195559084415436
0.4865414798259735 0.8744702935218811 0.186423659324646
0.48611292243003845 0.8747603893280029 0.05329141020774841
0.4856843650341034 0.8750505447387695 -0.07984083890914917
0.48525580763816833 0.8753406405448914 -0.21297308802604675
0.4848272502422333 0.875630795955658 -0.34610533714294434
0.4843987226486206 0.8759208917617798 -0.4792375862598419
0.48397016525268555 0.8762109875679016 -0.6123698353767395
0.4835416078567505 0.8765011429786682 -0.7455020546913147
0.48311305046081543 0.87679123878479 -0.8786343336105347
0.48268449306488037 0.8770813941955566 -1.0117665529251099
0.6552610993385315 0.757087767124176 0.9844303131103516
0.6548325419425964 0.7573778629302979 0.8512980341911316
0.6544039845466614 0.7576680183410645 0.7181658148765564
0.6539754271507263 0.7579581141471863 0.5850335359573364
0.6535468697547913 0.7582482695579529 0.45190131664276123
0.6531183123588562 0.7585383653640747 0.31876906752586365
0.6526897549629211 0.7588285207748413 0.18563681840896606
0.6522611975669861 0.7591186165809631 0.05250457301735878
0.651832640171051 0.759408712387085 -0.0806276723742485
0.651404082775116 0.7596988677978516 -0.2137599140405655
0.6509755849838257 0.7599889636039734 -0.34689217805862427
0.6505470275878906 0.76027911901474 -0.48002442717552185
0.6501184701919556 0.7605692148208618 -0.6131566762924194
0.6496899127960205 0.7608593702316284 -0.7462888956069946
0.6492613554000854 0.7611494660377502 -0.8794211745262146
0.6488327980041504 0.7614396214485168 -1.0125534534454346
0.7947296500205994 0.6103675365447998 0.9836615920066833
0.7943010926246643 0.6106576323509216 0.8505293726921082
0.7938725352287292 0.6109477281570435 0.7173970937728882
0.7934439778327942 0.6112378835678101 0.584264874458313
0.7930154204368591 0.6115279793739319 0.4511326253414154
0.7925868630409241 0.6118181347846985 0.3180003762245178
0.792158305644989 0.6121082305908203 0.18486814200878143
0.791729748249054 0.6123983860015869 0.05173588916659355
0.7913011908531189 0.6126884818077087 -0.08139635622501373
0.7908726334571838 0.6129786372184753 -0.21452860534191132
0.7904440760612488 0.6132687330245972 -0.3476608395576477
0.7900155186653137 0.613558828830719 -0.4807930886745453
0.7895869612693787 0.6138489842414856 -0.6139253377914429
0.7891584634780884 0.6141390800476074 -0.7470576167106628
0.7887299060821533 0.614429235458374 -0.880189836025238
0.7883013486862183 0.6147193312644958 -1.013322114944458
0.9018085598945618 0.43857553601264954 0.9829425811767578
0.9013800024986267 0.43886566162109375 0.8498103022575378
0.9009514451026917 0.43915578722953796 0.7166780829429626
0.9005228877067566 0.4394459128379822 0.5835458040237427
0.9000943303108215 0.439736008644104 0.4504135847091675
0.8996657729148865 0.4400261342525482 0.3172813355922699
0.8992372155189514 0.44031625986099243 0.18414908647537231
0.8988086581230164 0.44060638546943665 0.05101683363318443
0.8983801007270813 0.44089651107788086 -0.08211541175842285
0.8979515433311462 0.4411866366863251 -0.21524766087532043
0.897523045539856 0.4414767622947693 -0.348379909992218
0.8970944881439209 0.4417668879032135 -0.4815121591091156
0.8966659307479858 0.4420570135116577 -0.6146444082260132
0.8962373733520508 0.44234710931777954 -0.7477766275405884
0.8958088159561157 0.44263723492622375 -0.8809089064598083
0.8953802585601807 0.44292736053466797 -1.0140411853790283
0.9721140265464783 0.24874500930309296 0.9823025465011597
0.9716854691505432 0.24903513491153717 0.8491703271865845
0.9712569117546082 0.24932526051998138 0.7160380482673645
0.9708283543586731 0.2496153861284256 0.5829058289527893
0.970399796962738 0.24990549683570862 0.4497735798358917
0.9699712991714478 0.25019562244415283 0.31664133071899414
0.9695427417755127 0.25048574805259705 0.18350908160209656
0.9691141843795776 0.25077587366104126 0.05037683993577957
0.9686856269836426 0.2510659992694855 -0.08275540173053741
0.9682570695877075 0.2513561248779297 -0.215887650847435
0.9678285121917725 0.2516462504863739 -0.3490198850631714
0.9673999547958374 0.2519363462924957 -0.48215213418006897
0.9669713973999023 0.25222647190093994 -0.6152843832969666
0.9665428400039673 0.25251659750938416 -0.7484166622161865
0.9661142826080322 0.25280672311782837 -0.8815488815307617
0.9656857252120972 0.2530968487262726 -1.014681100845337
1.00276780128479 0.04864764213562012 0.9817678332328796
1.002339243888855 0.04893776401877403 0.8486356139183044
1.00191068649292 0.04922788590192795 0.7155033349990845
1.0014821290969849 0.04951800778508186 0.5823711156845093
1.0010535717010498 0.04980812966823578 0.4492388665676117
1.0006250143051147 0.050098251551389694 0.3161066174507141
1.0001964569091797 0.05038837343454361 0.18297436833381653
0.9997678995132446 0.050678495317697525 0.04984211549162865
0.9993393421173096 0.05096861720085144 -0.08329012989997864
0.9989107847213745 0.051258739084005356 -0.21642237901687622
0.9984822273254395 0.05154886096715927 -0.3495546281337738
0.9980536699295044 0.05183898285031319 -0.4826868772506714
0.9976251125335693 0.0521291047334671 -0.6158190965652466
0.997196614742279 0.052419230341911316 -0.7489513754844666
0.996768057346344 0.05270935222506523 -0.8820835947990417
0.9963394999504089 0.05299947410821915 -1.0152158737182617
0.9925147891044617 -0.15352457761764526 0.9813602566719055
0.9920862317085266 -0.15323445200920105 0.8482280373573303
0.9916576743125916 -0.15294434130191803 0.7150957584381104
0.9912291169166565 -0.15265421569347382 0.5819635391235352
0.9908005595207214 -0.1523640900850296 0.4488312900066376
0.9903720021247864 -0.1520739644765854 0.31569904088974
0.9899435043334961 -0.15178385376930237 0.1825667917728424
0.989514946937561 -0.15149372816085815 0.049434542655944824
0.989086389541626 -0.15120360255241394 -0.08369769901037216
0.9886578321456909 -0.15091347694396973 -0.21682995557785034
0.9882292747497559 -0.1506233662366867 -0.3499622046947479
0.9878007173538208 -0.1503332406282425 -0.4830944538116455
0.9873721599578857 -0.15004311501979828 -0.6162266731262207
0.9869436025619507 -0.14975298941135406 -0.7493589520454407
0.9865150451660156 -0.14946286380290985 -0.8824911713600159
0.9860864877700806 -0.14917275309562683 -1.0156234502792358
0.941774845123291 -0.34949469566345215 0.9810965657234192
0.941346287727356 -0.34920457005500793 0.8479642868041992
0.9409177303314209 -0.3489144444465637 0.714832067489624
0.9404891729354858 -0.3486243188381195 0.581699788570404
0.9400606155395508 -0.3483341932296753 0.44856756925582886
0.9396320581436157 -0.34804409742355347 0.3154353201389313
0.9392035603523254 -0.34775397181510925 0.1823030710220337
0.9387750029563904 -0.34746384620666504 0.04917081817984581
0.9383464455604553 -0.3471737205982208 -0.08396142721176147
0.9379178881645203 -0.3468835949897766 -0.21709367632865906
0.9374893307685852 -0.3465934693813324 -0.35022592544555664
0.9370607733726501 -0.3463033437728882 -0.4833581745624542
0.9366322159767151 -0.34601321816444397 -0.6164904236793518
0.93620365858078 -0.34572309255599976 -0.749622642993927
0.935775101184845 -0.34543299674987793 -0.882754921913147
0.9353465437889099 -0.3451428711414337 -1.0158871412277222
0.8526252508163452 -0.5312396883964539 0.9809874296188354
0.8521966934204102 -0.5309495329856873 0.8478552103042603
0.8517681360244751 -0.5306594371795654 0.7147229909896851
0.85133957862854 -0.5303692817687988 0.5815907120704651
0.850911021232605 -0.530079185962677 0.4484584629535675
0.8504824638366699 -0.5297890305519104 0.3153262138366699
0.8500539064407349 -0.5294989347457886 0.18219397962093353
0.8496253490447998 -0.529208779335022 0.04906173050403595
0.8491967916488647 -0.5289186835289001 -0.08407051861286163
0.8487682938575745 -0.5286285877227783 -0.21720276772975922
0.8483397364616394 -0.5283384323120117 -0.3503350019454956
0.8479111790657043 -0.5280483365058899 -0.4834672510623932
0.8474826216697693 -0.5277581810951233 -0.6165995001792908
0.8470540642738342 -0.5274680852890015 -0.749731719493866
0.8466255068778992 -0.5271779298782349 -0.8828639984130859
0.8461969494819641 -0.526887834072113 -1.0159962177276611
0.7287157773971558 -0.6913188099861145 0.9810374975204468
0.7282872200012207 -0.6910287141799927 0.8479052186012268
0.7278586626052856 -0.6907385587692261 0.7147729992866516
0.7274301052093506 -0.6904484629631042 0.5816407203674316
0.7270015478134155 -0.6901583075523376 0.44850850105285645
0.7265729904174805 -0.6898682117462158 0.31537625193595886
0.7261444330215454 -0.689578115940094 0.18224400281906128
0.7257158756256104 -0.6892879605293274 0.0491117499768734
0.7252873778343201 -0.6889978647232056 -0.08402049541473389
0.724858820438385 -0.688707709312439 -0.21715274453163147
0.72443026304245 -0.6884176135063171 -0.35028499364852905
0.7240017056465149 -0.6881274580955505 -0.48341724276542664
0.7235731482505798 -0.6878373622894287 -0.6165494918823242
0.7231445908546448 -0.6875472068786621 -0.7496817111968994
0.7227160334587097 -0.6872571110725403 -0.8828139901161194
0.7222874760627747 -0.6869670152664185 -1.0159462690353394
0.5751193165779114 -0.8231785297393799 0.9812445640563965
0.5746907591819763 -0.8228883743286133 0.8481122851371765
0.5742622017860413 -0.8225982785224915 0.7149800658226013
0.5738336443901062 -0.8223081231117249 0.5818477869033813
0.5734050869941711 -0.822018027305603 0.44871556758880615
0.5729765295982361 -0.8217278718948364 0.31558331847190857
0.572547972202301 -0.8214377760887146 0.182451069355011
0.572119414806366 -0.8211476802825928 0.049318827688694
0.5716908574104309 -0.8208575248718262 -0.08381342142820358
0.5712623000144958 -0.8205674290657043 -0.21694566309452057
0.5708338022232056 -0.8202772736549377 -0.35007789731025696
0.5704052448272705 -0.8199871778488159 -0.48321014642715454
0.5699766874313354 -0.8196970224380493 -0.6163424253463745
0.5695481300354004 -0.8194069266319275 -0.7494746446609497
0.5691195726394653 -0.8191168308258057 -0.8826069235801697
0.5686910152435303 -0.8188266754150391 -1.0157392024993896
0.398124098777771 -0.9214203953742981 0.9816002249717712
0.39769554138183594 -0.9211302399635315 0.8484679460525513
0.3972669839859009 -0.9208401441574097 0.7153357267379761
0.3968384265899658 -0.9205500483512878 0.5822034478187561
0.39640986919403076 -0.9202598929405212 0.4490712285041809
0.3959813117980957 -0.9199697971343994 0.3159389793872833
0.39555278420448303 -0.9196796417236328 0.18280673027038574
0.395124226808548 -0.919389545917511 0.049674488604068756
0.3946956694126129 -0.9190993905067444 -0.08345776051282883
0.39426711201667786 -0.9188092947006226 -0.2165900021791458
0.3938385546207428 -0.918519139289856 -0.3497222661972046
0.39340999722480774 -0.9182290434837341 -0.4828544855117798
0.39298146963119507 -0.9179389476776123 -0.6159867644309998
0.39255291223526 -0.9176487922668457 -0.749118983745575
0.39212435483932495 -0.9173586964607239 -0.8822512626647949
0.3916957974433899 -0.9170685410499573 -1.0153834819793701
0.20497633516788483 -0.9820224046707153 0.9820898771286011
0.20454779267311096 -0.9817323088645935 0.8489576578140259
0.2041192352771759 -0.9814421534538269 0.7158253788948059
0.20369067788124084 -0.9811520576477051 0.5826931595802307
0.20326213538646698 -0.9808619022369385 0.44956091046333313
0.20283357799053192 -0.9805718064308167 0.31642866134643555
0.20240502059459686 -0.98028165102005 0.18329641222953796
0.201976478099823 -0.9799915552139282 0.05016416683793068
0.20154792070388794 -0.9797014594078064 -0.0829680785536766
0.20111936330795288 -0.9794113039970398 -0.21610033512115479
0.20069082081317902 -0.979121208190918 -0.34923258423805237
0.20026226341724396 -0.9788310527801514 -0.48236483335494995
0.1998337060213089 -0.9785409569740295 -0.6154970526695251
0.19940516352653503 -0.9782508015632629 -0.7486293315887451
0.19897660613059998 -0.9779607057571411 -0.8817615509033203
0.19854804873466492 -0.9776705503463745 -1.0148937702178955
0.003583550453186035 -1.002503514289856 0.9826935529708862
0.0031549979466944933 -1.0022133588790894 0.8495612740516663
0.0027264452073723078 -1.0019233226776123 0.7164290547370911
0.002297892700880766 -1.0016331672668457 0.5832967758178711
0.0018693400779739022 -1.001343011856079 0.4501645565032959
0.0014407874550670385 -1.0010528564453125 0.3170323073863983
0.0010122348321601748 -1.0007628202438354 0.18390005826950073
0.0005836822092533112 -1.0004726648330688 0.050767816603183746
0.0001551296008983627 -1.0001825094223022 -0.08236443251371384
-0.00027342300745658576 -0.9998924136161804 -0.21549667418003082
-0.000701975601259619 -0.9996023178100586 -0.3486289381980896
-0.0011305281659588218 -0.999312162399292 -0.4817611575126648
-0.0015590807888656855 -0.9990220665931702 -0.6148934364318848
-0.001987633528187871 -0.9987319111824036 -0.74802565574646
-0.002416186034679413 -0.9984418153762817 -0.8811579346656799
-0.0028447385411709547 -0.9981517195701599 -1.0142902135849
