ply
format ascii 1.0
element vertex 512
property float x
property float y
property float z
end_header
0.22119081020355225 1.407373070716858 -1.353499174118042
0.22119081020355225 1.407373070716858 -1.1861209869384766
0.22119079530239105 1.407373070716858 -1.0187426805496216
0.22119079530239105 1.407373070716858 -0.8513644933700562
0.22119078040122986 1.407373070716858 -0.683986246585846
0.22119078040122986 1.407373070716858 -0.5166079998016357
0.22119076550006866 1.407373070716858 -0.34922975301742554
0.22119076550006866 1.407373070716858 -0.18185153603553772
0.22119075059890747 1.407373070716858 -0.014473294839262962
0.22119075059890747 1.407373070716858 0.1529049426317215
0.22119073569774628 1.407373070716858 0.3202831745147705
0.22119073569774628 1.407373070716858 0.4876614212989807
0.22119072079658508 1.407373070716858 0.6550396680831909
0.22119072079658508 1.407373070716858 0.8224178552627563
0.2211907058954239 1.407373070716858 0.9897961020469666
0.2211907058954239 1.407373070716858 1.1571743488311768
-0.009731506928801537 1.3838905096054077 -1.353499174118042
-0.009731514379382133 1.3838905096054077 -1.1861209869384766
-0.009731520898640156 1.3838905096054077 -1.0187426805496216
-0.009731528349220753 1.3838905096054077 -0.8513644933700562
-0.00973153579980135 1.3838905096054077 -0.683986246585846
-0.009731543250381947 1.3838905096054077 -0.5166079998016357
-0.009731550700962543 1.3838905096054077 -0.3492297828197479
-0.00973155815154314 1.3838905096054077 -0.18185153603553772
-0.009731565602123737 1.3838905096054077 -0.014473305083811283
-0.00973157212138176 1.3838905096054077 0.1529049277305603
-0.009731579571962357 1.3838905096054077 0.3202831745147705
-0.009731587022542953 1.3838905096054077 0.4876613914966583
-0.00973159447312355 1.3838905096054077 0.6550396084785461
-0.009731601923704147 1.3838905096054077 0.8224178552627563
-0.009731609374284744 1.3838905096054077 0.9897961020469666
-0.009731616824865341 1.3838905096054077 1.1571743488311768
-0.23119983077049255 1.3144044876098633 -1.353499174118042
-0.23119984567165375 1.3144044876098633 -1.1861209869384766
-0.23119984567165375 1.3144044876098633 -1.0187426805496216
-0.23119986057281494 1.3144044876098633 -0.8513644933700562
-0.23119986057281494 1.3144044876098633 -0.683986246585846
-0.23119987547397614 1.3144044876098633 -0.5166079998016357
-0.23119987547397614 1.3144044876098633 -0.3492297828197479
-0.23119989037513733 1.3144044876098633 -0.1818515509366989
-0.23119989037513733 1.3144044876098633 -0.014473315328359604
-0.23119990527629852 1.3144044876098633 0.1529049128293991
-0.23119990527629852 1.3144044876098633 0.3202831447124481
-0.23119992017745972 1.3144044876098633 0.4876613914966583
-0.23119992017745972 1.3144044876098633 0.6550396084785461
-0.2311999350786209 1.3144044876098633 0.8224178552627563
-0.2311999350786209 1.3144044876098633 0.9897961020469666
-0.2311999499797821 1.3144044876098633 1.1571743488311768
-0.4341472387313843 1.2017594575881958 -1.353499174118042
-0.4341472387313843 1.2017594575881958 -1.1861209869384766
-0.43414726853370667 1.2017594575881958 -1.0187426805496216
-0.43414726853370667 1.2017594575881958 -0.8513644933700562
-0.43414726853370667 1.2017594575881958 -0.683986246585846
-0.43414726853370667 1.2017594575881958 -0.5166079998016357
-0.43414729833602905 1.2017594575881958 -0.3492297828197479
-0.43414729833602905 1.2017594575881958 -0.1818515658378601
-0.43414729833602905 1.2017594575881958 -0.014473323710262775
-0.43414729833602905 1.2017594575881958 0.1529049128293991
-0.43414732813835144 1.2017594575881958 0.3202831447124481
-0.43414732813835144 1.2017594575881958 0.4876613914966583
-0.43414732813835144 1.2017594575881958 0.6550396084785461
-0.43414732813835144 1.2017594575881958 0.8224178552627563
-0.43414735794067383 1.2017594575881958 0.9897961020469666
-0.43414735794067383 1.2017594575881958 1.1571743488311768
-0.6102650165557861 1.0505672693252563 -1.353499174118042
-0.6102650165557861 1.0505672693252563 -1.1861209869384766
-0.6102650165557861 1.0505672693252563 -1.0187427997589111
-0.6102650761604309 1.0505672693252563 -0.8513644933700562
-0.6102650761604309 1.0505672693252563 -0.683986246585846
-0.6102650761604309 1.0505672693252563 -0.5166080594062805
-0.6102650761604309 1.0505672693252563 -0.3492298126220703
-0.6102650761604309 1.0505672693252563 -0.1818515658378601
-0.6102650761604309 1.0505672693252563 -0.014473331160843372
-0.6102650761604309 1.0505672693252563 0.15290489792823792
-0.6102650761604309 1.0505672693252563 0.3202831447124481
-0.6102651357650757 1.0505672693252563 0.48766136169433594
-0.6102651357650757 1.0505672693252563 0.6550396084785461
-0.6102651357650757 1.0505672693252563 0.8224178552627563
-0.6102651357650757 1.0505672693252563 0.9897961020469666
-0.6102651357650757 1.0505672693252563 1.1571743488311768
-0.752342939376831 0.8670177459716797 -1.353499174118042
-0.752342939376831 0.8670177459716797 -1.1861209869384766
-0.752342939376831 0.8670177459716797 -1.0187427997589111
-0.752342939376831 0.8670177459716797 -0.8513644933700562
-0.752342939376831 0.8670177459716797 -0.6839863061904907
-0.752342939376831 0.8670177459716797 -0.5166080594062805
-0.752342939376831 0.8670177459716797 -0.3492298126220703
-0.752342939376831 0.8670177459716797 -0.1818515658378601
-0.7523429989814758 0.8670177459716797 -0.014473337680101395
-0.7523429989814758 0.8670177459716797 0.15290489792823792
-0.7523429989814758 0.8670177459716797 0.3202831447124481
-0.7523429989814758 0.8670177459716797 0.48766136169433594
-0.7523429989814758 0.8670177459716797 0.6550396084785461
-0.7523429989814758 0.8670177459716797 0.8224178552627563
-0.7523429989814758 0.8670177459716797 0.9897960424423218
-0.7523429989814758 0.8670177459716797 1.1571743488311768
-0.8545641899108887 0.6586254835128784 -1.353499174118042
-0.8545642495155334 0.6586254835128784 -1.1861209869384766
-0.8545642495155334 0.6586254835128784 -1.0187427997589111
-0.8545642495155334 0.6586254835128784 -0.8513644933700562
-0.8545642495155334 0.6586254835128784 -0.6839863061904907
-0.8545642495155334 0.6586254835128784 -0.5166080594062805
-0.8545642495155334 0.6586254835128784 -0.3492298126220703
-0.8545642495155334 0.6586254835128784 -0.1818515807390213
-0.8545642495155334 0.6586254835128784 -0.014473342336714268
-0.8545643091201782 0.6586254835128784 0.15290489792823792
-0.8545643091201782 0.6586254835128784 0.32028311491012573
-0.8545643091201782 0.6586254835128784 0.48766136169433594
-0.8545643091201782 0.6586254835128784 0.6550396084785461
-0.8545643091201782 0.6586254835128784 0.8224178552627563
-0.8545643091201782 0.6586254835128784 0.9897960424423218
-0.8545643091201782 0.6586254835128784 1.1571743488311768
-0.9127439856529236 0.4339219927787781 -1.353499174118042
-0.9127439856529236 0.4339219927787781 -1.1861209869384766
-0.9127439856529236 0.4339219927787781 -1.0187427997589111
-0.9127439856529236 0.4339219927787781 -0.8513644933700562
-0.9127439856529236 0.4339219927787781 -0.6839863061904907
-0.9127440452575684 0.4339219927787781 -0.5166080594062805
-0.9127440452575684 0.4339219927787781 -0.3492298126220703
-0.9127440452575684 0.4339219927787781 -0.1818515807390213
-0.9127440452575684 0.4339219927787781 -0.014473345130681992
-0.9127440452575684 0.4339219927787781 0.15290488302707672
-0.9127440452575684 0.4339219927787781 0.32028311491012573
-0.9127440452575684 0.4339219927787781 0.48766136169433594
-0.9127440452575684 0.4339219927787781 0.6550396084785461
-0.9127441048622131 0.4339219927787781 0.8224178552627563
-0.9127441048622131 0.4339219927787781 0.9897960424423218
-0.9127441048622131 0.4339219927787781 1.1571743488311768
-0.9245003461837769 0.20210668444633484 -1.353499174118042
-0.9245003461837769 0.20210668444633484 -1.1861209869384766
-0.9245003461837769 0.20210668444633484 -1.0187427997589111
-0.9245003461837769 0.20210668444633484 -0.8513644933700562
-0.9245003461837769 0.20210668444633484 -0.6839863061904907
-0.9245003461837769 0.20210668444633484 -0.5166080594062805
-0.9245003461837769 0.20210668444633484 -0.3492298126220703
-0.9245003461837769 0.20210668444633484 -0.1818515807390213
-0.9245004057884216 0.20210668444633484 -0.014473345130681992
-0.9245004057884216 0.20210668444633484 0.15290488302707672
-0.9245004057884216 0.20210668444633484 0.32028311491012573
-0.9245004057884216 0.20210668444633484 0.48766136169433594
-0.9245004057884216 0.20210668444633484 0.6550396084785461
-0.9245004057884216 0.20210668444633484 0.8224178552627563
-0.9245004057884216 0.20210668444633484 0.9897960424423218
-0.9245004057884216 0.20210668444633484 1.1571743488311768
-0.8893519639968872 -0.027329878881573677 -1.353499174118042
-0.8893519639968872 -0.027329878881573677 -1.1861209869384766
-0.8893519639968872 -0.027329878881573677 -1.0187427997589111
-0.8893519639968872 -0.027329878881573677 -0.8513644933700562
-0.8893519639968872 -0.027329878881573677 -0.6839863061904907
-0.8893519639968872 -0.027329878881573677 -0.5166080594062805
-0.8893519639968872 -0.027329878881573677 -0.3492298126220703
-0.8893519639968872 -0.027329878881573677 -0.1818515807390213
-0.889352023601532 -0.027329878881573677 -0.014473344199359417
-0.889352023601532 -0.027329878881573677 0.15290489792823792
-0.889352023601532 -0.027329878881573677 0.32028311491012573
-0.889352023601532 -0.027329878881573677 0.48766136169433594
-0.889352023601532 -0.027329878881573677 0.6550396084785461
-0.889352023601532 -0.027329878881573677 0.8224178552627563
-0.889352023601532 -0.027329878881573677 0.9897960424423218
-0.889352023601532 -0.027329878881573677 1.1571743488311768
-0.8087378144264221 -0.24499453604221344 -1.353499174118042
-0.8087378144264221 -0.24499453604221344 -1.1861209869384766
-0.8087378144264221 -0.24499453604221344 -1.0187427997589111
-0.8087378144264221 -0.24499453604221344 -0.8513644933700562
-0.8087378144264221 -0.24499453604221344 -0.6839863061904907
-0.8087378144264221 -0.24499453604221344 -0.5166080594062805
-0.8087378144264221 -0.24499453604221344 -0.3492298126220703
-0.8087378740310669 -0.24499453604221344 -0.1818515807390213
-0.8087378740310669 -0.24499453604221344 -0.014473340474069118
-0.8087378740310669 -0.24499453604221344 0.15290489792823792
-0.8087378740310669 -0.24499453604221344 0.32028311491012573
-0.8087378740310669 -0.24499453604221344 0.48766136169433594
-0.8087378740310669 -0.24499453604221344 0.6550396084785461
-0.8087378740310669 -0.24499453604221344 0.8224178552627563
-0.8087378740310669 -0.24499453604221344 0.9897960424423218
-0.8087379336357117 -0.24499453604221344 1.1571743488311768
-0.6859582662582397 -0.4419761002063751 -1.353499174118042
-0.6859582662582397 -0.4419761002063751 -1.1861209869384766
-0.6859582662582397 -0.4419761002063751 -1.0187427997589111
-0.6859582662582397 -0.4419761002063751 -0.8513644933700562
-0.6859582662582397 -0.4419761002063751 -0.683986246585846
-0.6859583258628845 -0.4419761002063751 -0.5166080594062805
-0.6859583258628845 -0.4419761002063751 -0.3492298126220703
-0.6859583258628845 -0.4419761002063751 -0.1818515658378601
-0.6859583258628845 -0.4419761002063751 -0.01447333488613367
-0.6859583258628845 -0.4419761002063751 0.15290489792823792
-0.6859583258628845 -0.4419761002063751 0.3202831447124481
-0.6859583258628845 -0.4419761002063751 0.48766136169433594
-0.6859583258628845 -0.4419761002063751 0.6550396084785461
-0.6859583258628845 -0.4419761002063751 0.8224178552627563
-0.6859583854675293 -0.4419761002063751 0.9897961020469666
-0.6859583854675293 -0.4419761002063751 1.1571743488311768
-0.5260399580001831 -0.6102100610733032 -1.353499174118042
-0.5260399580001831 -0.6102100610733032 -1.1861209869384766
-0.5260399580001831 -0.6102100610733032 -1.0187426805496216
-0.5260399580001831 -0.6102100610733032 -0.8513644933700562
-0.5260399580001831 -0.6102100610733032 -0.683986246585846
-0.5260399580001831 -0.6102100610733032 -0.5166080594062805
-0.5260399580001831 -0.6102100610733032 -0.3492297828197479
-0.5260399580001831 -0.6102100610733032 -0.1818515658378601
-0.5260400176048279 -0.6102100610733032 -0.014473327435553074
-0.5260400176048279 -0.6102100610733032 0.1529049128293991
-0.5260400176048279 -0.6102100610733032 0.3202831447124481
-0.5260400176048279 -0.6102100610733032 0.4876613914966583
-0.5260400176048279 -0.6102100610733032 0.6550396084785461
-0.5260400176048279 -0.6102100610733032 0.8224178552627563
-0.5260400176048279 -0.6102100610733032 0.9897961020469666
-0.5260400176048279 -0.6102100610733032 1.1571743488311768
-0.3355298936367035 -0.742808997631073 -1.353499174118042
-0.3355298936367035 -0.742808997631073 -1.1861209869384766
-0.3355298936367035 -0.742808997631073 -1.0187426805496216
-0.3355299234390259 -0.742808997631073 -0.8513644933700562
-0.3355299234390259 -0.742808997631073 -0.683986246585846
-0.3355299234390259 -0.742808997631073 -0.5166079998016357
-0.3355299234390259 -0.742808997631073 -0.3492297828197479
-0.33552995324134827 -0.742808997631073 -0.1818515509366989
-0.33552995324134827 -0.742808997631073 -0.014473319984972477
-0.33552995324134827 -0.742808997631073 0.1529049128293991
-0.33552995324134827 -0.742808997631073 0.3202831447124481
-0.33552998304367065 -0.742808997631073 0.4876613914966583
-0.33552998304367065 -0.742808997631073 0.6550396084785461
-0.33552998304367065 -0.742808997631073 0.8224178552627563
-0.33552998304367065 -0.742808997631073 0.9897961020469666
-0.33553001284599304 -0.742808997631073 1.1571743488311768
-0.12222763895988464 -0.8343441486358643 -1.353499174118042
-0.12222764641046524 -0.8343441486358643 -1.1861209869384766
-0.12222765386104584 -0.8343441486358643 -1.0187426805496216
-0.12222766131162643 -0.8343441486358643 -0.8513644933700562
-0.12222766876220703 -0.8343441486358643 -0.683986246585846
-0.12222767621278763 -0.8343441486358643 -0.5166079998016357
-0.12222768366336823 -0.8343441486358643 -0.3492297828197479
-0.12222769111394882 -0.8343441486358643 -0.1818515509366989
-0.12222769856452942 -0.8343441486358643 -0.01447331067174673
-0.12222770601511002 -0.8343441486358643 0.1529049277305603
-0.12222771346569061 -0.8343441486358643 0.3202831447124481
-0.12222772091627121 -0.8343441486358643 0.4876613914966583
-0.1222277283668518 -0.8343441486358643 0.6550396084785461
-0.1222277358174324 -0.8343441486358643 0.8224178552627563
-0.122227743268013 -0.8343441486358643 0.9897961020469666
-0.1222277507185936 -0.8343441486358643 1.1571743488311768
0.10513420403003693 -0.881068229675293 -1.353499174118042
0.10513419657945633 -0.881068229675293 -1.1861209869384766
0.10513418912887573 -0.881068229675293 -1.0187426805496216
0.10513418167829514 -0.881068229675293 -0.8513644933700562
0.10513417422771454 -0.881068229675293 -0.683986246585846
0.10513416677713394 -0.881068229675293 -0.5166079998016357
0.10513415932655334 -0.881068229675293 -0.3492297828197479
0.10513415187597275 -0.881068229675293 -0.18185153603553772
0.10513414442539215 -0.881068229675293 -0.01447330042719841
0.10513413697481155 -0.881068229675293 0.1529049277305603
0.10513412952423096 -0.881068229675293 0.3202831745147705
0.10513412207365036 -0.881068229675293 0.4876613914966583
0.10513411462306976 -0.881068229675293 0.6550396680831909
0.10513410717248917 -0.881068229675293 0.8224178552627563
0.10513409972190857 -0.881068229675293 0.9897961020469666
0.10513409227132797 -0.881068229675293 1.1571743488311768
0.33724743127822876 -0.881068229675293 -1.353499174118042
0.33724740147590637 -0.881068229675293 -1.1861209869384766
0.33724740147590637 -0.881068229675293 -1.0187426805496216
0.33724740147590637 -0.881068229675293 -0.8513644933700562
0.33724740147590637 -0.881068229675293 -0.683986246585846
0.337247371673584 -0.881068229675293 -0.5166079998016357
0.337247371673584 -0.881068229675293 -0.34922975301742554
0.337247371673584 -0.881068229675293 -0.18185152113437653
0.337247371673584 -0.881068229675293 -0.01447329018265009
0.3372473418712616 -0.881068229675293 0.1529049426317215
0.3372473418712616 -0.881068229675293 0.3202831745147705
0.3372473418712616 -0.881068229675293 0.4876614212989807
0.3372473418712616 -0.881068229675293 0.6550396680831909
0.3372473120689392 -0.881068229675293 0.8224178552627563
0.3372473120689392 -0.881068229675293 0.9897961020469666
0.3372473120689392 -0.881068229675293 1.1571743488311768
0.5646092891693115 -0.8343441486358643 -1.353499174118042
0.5646092295646667 -0.8343441486358643 -1.186120867729187
0.5646092295646667 -0.8343441486358643 -1.0187426805496216
0.5646092295646667 -0.8343441486358643 -0.8513644337654114
0.5646092295646667 -0.8343441486358643 -0.683986246585846
0.5646092295646667 -0.8343441486358643 -0.5166079998016357
0.5646092295646667 -0.8343441486358643 -0.34922975301742554
0.5646092295646667 -0.8343441486358643 -0.18185152113437653
0.5646092295646667 -0.8343441486358643 -0.014473279938101768
0.564609169960022 -0.8343441486358643 0.1529049575328827
0.564609169960022 -0.8343441486358643 0.3202832043170929
0.564609169960022 -0.8343441486358643 0.4876614212989807
0.564609169960022 -0.8343441486358643 0.6550396680831909
0.564609169960022 -0.8343441486358643 0.8224179148674011
0.564609169960022 -0.8343441486358643 0.9897961020469666
0.564609169960022 -0.8343441486358643 1.1571743488311768
0.7779114842414856 -0.742808997631073 -1.353499174118042
0.7779114842414856 -0.742808997631073 -1.186120867729187
0.7779114842414856 -0.742808997631073 -1.0187426805496216
0.7779114842414856 -0.742808997631073 -0.8513644337654114
0.7779114842414856 -0.742808997631073 -0.6839861869812012
0.7779114842414856 -0.742808997631073 -0.5166079998016357
0.7779114842414856 -0.742808997631073 -0.34922975301742554
0.7779114842414856 -0.742808997631073 -0.18185150623321533
0.7779114842414856 -0.742808997631073 -0.014473270624876022
0.7779114246368408 -0.742808997631073 0.1529049575328827
0.7779114246368408 -0.742808997631073 0.3202832043170929
0.7779114246368408 -0.742808997631073 0.4876614212989807
0.7779114246368408 -0.742808997631073 0.6550396680831909
0.7779114246368408 -0.742808997631073 0.8224179148674011
0.7779114246368408 -0.742808997631073 0.9897961616516113
0.7779114246368408 -0.742808997631073 1.1571743488311768
0.9684215784072876 -0.6102100610733032 -1.353499174118042
0.9684215188026428 -0.6102100610733032 -1.186120867729187
0.9684215188026428 -0.6102100610733032 -1.0187426805496216
0.9684215188026428 -0.6102100610733032 -0.8513644337654114
0.9684215188026428 -0.6102100610733032 -0.6839861869812012
0.9684215188026428 -0.6102100610733032 -0.516607940196991
0.9684215188026428 -0.6102100610733032 -0.34922972321510315
0.9684215188026428 -0.6102100610733032 -0.18185149133205414
0.9684215188026428 -0.6102100610733032 -0.01447326224297285
0.968421459197998 -0.6102100610733032 0.15290497243404388
0.968421459197998 -0.6102100610733032 0.3202832043170929
0.968421459197998 -0.6102100610733032 0.4876614511013031
0.968421459197998 -0.6102100610733032 0.6550396680831909
0.968421459197998 -0.6102100610733032 0.8224179148674011
0.968421459197998 -0.6102100610733032 0.9897961616516113
0.968421459197998 -0.6102100610733032 1.1571743488311768
1.1283398866653442 -0.4419761002063751 -1.353499174118042
1.1283398866653442 -0.4419761002063751 -1.186120867729187
1.1283398866653442 -0.4419761002063751 -1.0187426805496216
1.1283398866653442 -0.4419761002063751 -0.8513644337654114
1.1283398866653442 -0.4419761002063751 -0.6839861869812012
1.1283398866653442 -0.4419761002063751 -0.516607940196991
1.1283398866653442 -0.4419761002063751 -0.34922972321510315
1.1283398866653442 -0.4419761002063751 -0.18185149133205414
1.1283397674560547 -0.4419761002063751 -0.014473255723714828
1.1283397674560547 -0.4419761002063751 0.15290497243404388
1.1283397674560547 -0.4419761002063751 0.3202832043170929
1.1283397674560547 -0.4419761002063751 0.4876614511013031
1.1283397674560547 -0.4419761002063751 0.6550396680831909
1.1283397674560547 -0.4419761002063751 0.8224179148674011
1.1283397674560547 -0.4419761002063751 0.9897961616516113
1.1283397674560547 -0.4419761002063751 1.1571743488311768
1.2511193752288818 -0.24499453604221344 -1.353499174118042
1.2511193752288818 -0.24499453604221344 -1.186120867729187
1.2511193752288818 -0.24499453604221344 -1.0187426805496216
1.2511193752288818 -0.24499453604221344 -0.8513644337654114
1.2511193752288818 -0.24499453604221344 -0.6839861869812012
1.2511193752288818 -0.24499453604221344 -0.516607940196991
1.2511193752288818 -0.24499453604221344 -0.34922972321510315
1.2511193752288818 -0.24499453604221344 -0.18185149133205414
1.2511193752288818 -0.24499453604221344 -0.01447325013577938
1.2511193752288818 -0.24499453604221344 0.15290498733520508
1.2511193752288818 -0.24499453604221344 0.3202832341194153
1.2511193752288818 -0.24499453604221344 0.4876614511013031
1.2511193752288818 -0.24499453604221344 0.6550396680831909
1.2511193752288818 -0.24499453604221344 0.8224179148674011
1.2511192560195923 -0.24499453604221344 0.9897961616516113
1.2511192560195923 -0.24499453604221344 1.1571743488311768
1.3317335844039917 -0.027329878881573677 -1.353499174118042
1.3317335844039917 -0.027329878881573677 -1.186120867729187
1.3317335844039917 -0.027329878881573677 -1.0187426805496216
1.3317335844039917 -0.027329878881573677 -0.8513644337654114
1.3317335844039917 -0.027329878881573677 -0.6839861869812012
1.3317334651947021 -0.027329878881573677 -0.516607940196991
1.3317334651947021 -0.027329878881573677 -0.34922972321510315
1.3317334651947021 -0.027329878881573677 -0.18185147643089294
1.3317334651947021 -0.027329878881573677 -0.014473246410489082
1.3317334651947021 -0.027329878881573677 0.15290498733520508
1.3317334651947021 -0.027329878881573677 0.3202832341194153
1.3317334651947021 -0.027329878881573677 0.4876614511013031
1.3317334651947021 -0.027329878881573677 0.6550396680831909
1.3317334651947021 -0.027329878881573677 0.8224179148674011
1.3317334651947021 -0.027329878881573677 0.9897961616516113
1.3317334651947021 -0.027329878881573677 1.1571743488311768
1.3668819665908813 0.20210668444633484 -1.353499174118042
1.3668819665908813 0.20210668444633484 -1.186120867729187
1.3668819665908813 0.20210668444633484 -1.0187426805496216
1.3668819665908813 0.20210668444633484 -0.8513644337654114
1.3668819665908813 0.20210668444633484 -0.6839861869812012
1.3668819665908813 0.20210668444633484 -0.516607940196991
1.3668818473815918 0.20210668444633484 -0.34922972321510315
1.3668818473815918 0.20210668444633484 -0.18185147643089294
1.3668818473815918 0.20210668444633484 -0.014473245479166508
1.3668818473815918 0.20210668444633484 0.15290498733520508
1.3668818473815918 0.20210668444633484 0.3202832341194153
1.3668818473815918 0.20210668444633484 0.4876614511013031
1.3668818473815918 0.20210668444633484 0.6550396680831909
1.3668818473815918 0.20210668444633484 0.8224179148674011
1.3668818473815918 0.20210668444633484 0.9897961616516113
1.3668818473815918 0.20210668444633484 1.1571743488311768
1.3551255464553833 0.4339219927787781 -1.353499174118042
1.3551255464553833 0.4339219927787781 -1.186120867729187
1.3551255464553833 0.4339219927787781 -1.0187426805496216
1.3551255464553833 0.4339219927787781 -0.8513644337654114
1.3551255464553833 0.4339219927787781 -0.6839861869812012
1.3551255464553833 0.4339219927787781 -0.516607940196991
1.3551255464553833 0.4339219927787781 -0.34922972321510315
1.3551255464553833 0.4339219927787781 -0.18185147643089294
1.3551255464553833 0.4339219927787781 -0.014473245479166508
1.3551255464553833 0.4339219927787781 0.15290498733520508
1.3551255464553833 0.4339219927787781 0.3202832341194153
1.3551255464553833 0.4339219927787781 0.4876614511013031
1.3551255464553833 0.4339219927787781 0.6550396680831909
1.3551255464553833 0.4339219927787781 0.8224179148674011
1.3551255464553833 0.4339219927787781 0.9897961616516113
1.3551255464553833 0.4339219927787781 1.1571743488311768
1.2969458103179932 0.6586254835128784 -1.353499174118042
1.2969458103179932 0.6586254835128784 -1.186120867729187
1.2969458103179932 0.6586254835128784 -1.0187426805496216
1.2969458103179932 0.6586254835128784 -0.8513644337654114
1.2969458103179932 0.6586254835128784 -0.6839861869812012
1.2969458103179932 0.6586254835128784 -0.516607940196991
1.2969458103179932 0.6586254835128784 -0.34922972321510315
1.2969458103179932 0.6586254835128784 -0.18185147643089294
1.2969458103179932 0.6586254835128784 -0.014473248273134232
1.2969458103179932 0.6586254835128784 0.15290498733520508
1.2969458103179932 0.6586254835128784 0.3202832341194153
1.2969458103179932 0.6586254835128784 0.4876614511013031
1.2969456911087036 0.6586254835128784 0.6550396680831909
1.2969456911087036 0.6586254835128784 0.8224179148674011
1.2969456911087036 0.6586254835128784 0.9897961616516113
1.2969456911087036 0.6586254835128784 1.1571743488311768
1.1947245597839355 0.8670177459716797 -1.353499174118042
1.1947245597839355 0.8670177459716797 -1.186120867729187
1.1947245597839355 0.8670177459716797 -1.0187426805496216
1.1947245597839355 0.8670177459716797 -0.8513644337654114
1.1947245597839355 0.8670177459716797 -0.6839861869812012
1.194724440574646 0.8670177459716797 -0.516607940196991
1.194724440574646 0.8670177459716797 -0.34922972321510315
1.194724440574646 0.8670177459716797 -0.18185149133205414
1.194724440574646 0.8670177459716797 -0.014473252929747105
1.194724440574646 0.8670177459716797 0.15290498733520508
1.194724440574646 0.8670177459716797 0.3202832043170929
1.194724440574646 0.8670177459716797 0.4876614511013031
1.194724440574646 0.8670177459716797 0.6550396680831909
1.194724440574646 0.8670177459716797 0.8224179148674011
1.194724440574646 0.8670177459716797 0.9897961616516113
1.194724440574646 0.8670177459716797 1.1571743488311768
1.0526466369628906 1.0505672693252563 -1.353499174118042
1.0526466369628906 1.0505672693252563 -1.186120867729187
1.0526466369628906 1.0505672693252563 -1.0187426805496216
1.0526466369628906 1.0505672693252563 -0.8513644337654114
1.0526466369628906 1.0505672693252563 -0.6839861869812012
1.0526466369628906 1.0505672693252563 -0.516607940196991
1.0526466369628906 1.0505672693252563 -0.34922972321510315
1.0526466369628906 1.0505672693252563 -0.18185149133205414
1.0526466369628906 1.0505672693252563 -0.014473258517682552
1.0526466369628906 1.0505672693252563 0.15290497243404388
1.052646517753601 1.0505672693252563 0.3202832043170929
1.052646517753601 1.0505672693252563 0.4876614511013031
1.052646517753601 1.0505672693252563 0.6550396680831909
1.052646517753601 1.0505672693252563 0.8224179148674011
1.052646517753601 1.0505672693252563 0.9897961616516113
1.052646517753601 1.0505672693252563 1.1571743488311768
0.8765288591384888 1.2017594575881958 -1.353499174118042
0.8765288591384888 1.2017594575881958 -1.186120867729187
0.8765288591384888 1.2017594575881958 -1.0187426805496216
0.8765288591384888 1.2017594575881958 -0.8513644337654114
0.8765288591384888 1.2017594575881958 -0.6839861869812012
0.876528799533844 1.2017594575881958 -0.5166079998016357
0.876528799533844 1.2017594575881958 -0.34922972321510315
0.876528799533844 1.2017594575881958 -0.18185150623321533
0.876528799533844 1.2017594575881958 -0.014473266899585724
0.876528799533844 1.2017594575881958 0.15290497243404388
0.876528799533844 1.2017594575881958 0.3202832043170929
0.876528799533844 1.2017594575881958 0.4876614511013031
0.876528799533844 1.2017594575881958 0.6550396680831909
0.8765287399291992 1.2017594575881958 0.8224179148674011
0.8765287399291992 1.2017594575881958 0.9897961616516113
0.8765287399291992 1.2017594575881958 1.1571743488311768
0.6735814809799194 1.3144044876098633 -1.353499174118042
0.6735814213752747 1.3144044876098633 -1.186120867729187
0.6735814213752747 1.3144044876098633 -1.0187426805496216
0.6735814213752747 1.3144044876098633 -0.8513644337654114
0.6735814213752747 1.3144044876098633 -0.6839861869812012
0.6735814213752747 1.3144044876098633 -0.5166079998016357
0.6735814213752747 1.3144044876098633 -0.34922975301742554
0.6735814213752747 1.3144044876098633 -0.18185150623321533
0.6735814213752747 1.3144044876098633 -0.014473275281488895
0.6735813617706299 1.3144044876098633 0.1529049575328827
0.6735813617706299 1.3144044876098633 0.3202832043170929
0.6735813617706299 1.3144044876098633 0.4876614212989807
0.6735813617706299 1.3144044876098633 0.6550396680831909
0.6735813617706299 1.3144044876098633 0.8224179148674011
0.6735813617706299 1.3144044876098633 0.9897961616516113
0.6735813617706299 1.3144044876098633 1.1571743488311768
0.4521131217479706 1.3838905096054077 -1.353499174118042
0.4521131217479706 1.3838905096054077 -1.1861209869384766
0.4521131217479706 1.3838905096054077 -1.0187426805496216
0.4521130919456482 1.3838905096054077 -0.8513644337654114
0.4521130919456482 1.3838905096054077 -0.683986246585846
0.4521130919456482 1.3838905096054077 -0.5166079998016357
0.4521130919456482 1.3838905096054077 -0.34922975301742554
0.4521130621433258 1.3838905096054077 -0.18185152113437653
0.4521130621433258 1.3838905096054077 -0.014473285526037216
0.4521130621433258 1.3838905096054077 0.1529049426317215
0.4521130621433258 1.3838905096054077 0.3202831745147705
0.4521130323410034 1.3838905096054077 0.4876614212989807
0.4521130323410034 1.3838905096054077 0.6550396680831909
0.4521130323410034 1.3838905096054077 0.8224179148674011
0.4521130323410034 1.3838905096054077 0.9897961020469666
0.45211300253868103 1.3838905096054077 1.1571743488311768
0.22119081020355225 1.407373070716858 -1.353499174118042
0.22119081020355225 1.407373070716858 -1.1861209869384766
0.22119079530239105 1.407373070716858 -1.0187426805496216
0.22119079530239105 1.407373070716858 -0.8513644933700562
0.22119078040122986 1.407373070716858 -0.683986246585846
0.22119078040122986 1.407373070716858 -0.5166079998016357
0.22119076550006866 1.407373070716858 -0.34922975301742554
0.22119076550006866 1.407373070716858 -0.18185153603553772
0.22119075059890747 1.407373070716858 -0.014473294839262962
0.22119075059890747 1.407373070716858 0.1529049426317215
0.22119073569774628 1.407373070716858 0.3202831745147705
0.22119073569774628 1.407373070716858 0.4876614212989807
0.22119072079658508 1.407373070716858 0.6550396680831909
0.22119072079658508 1.407373070716858 0.8224178552627563
0.2211907058954239 1.407373070716858 0.9897961020469666
0.2211907058954239 1.407373070716858 1.1571743488311768
