ply
format ascii 1.0
element vertex 512
property float x
property float y
property float z
end_header
-0.001604318618774414 1.0398658514022827 -1.353499174118042
-0.0016043265350162983 1.0398658514022827 -1.1736445426940918
-0.0016043343348428607 1.0398658514022827 -0.9937899112701416
-0.001604342251084745 1.0398658514022827 -0.8139352798461914
-0.0016043500509113073 1.0398658514022827 -0.6340806484222412
-0.0016043579671531916 1.0398658514022827 -0.454226016998291
-0.001604365766979754 1.0398658514022827 -0.2743713855743408
-0.0016043736832216382 1.0398658514022827 -0.09451675415039062
-0.0016043814830482006 1.0398658514022827 0.08533787727355957
-0.0016043893992900848 1.0398658514022827 0.26519250869750977
-0.0016043971991166472 1.0398658514022827 0.44504714012145996
-0.0016044051153585315 1.0398658514022827 0.6249017715454102
-0.0016044129151850939 1.0398658514022827 0.8047564029693604
-0.0016044208314269781 1.0398658514022827 0.9846110343933105
-0.0016044286312535405 1.0398658514022827 1.1644656658172607
-0.0016044365474954247 1.0398658514022827 1.344320297241211
-0.2272234708070755 1.0169225931167603 -1.353499174118042
-0.2272234857082367 1.0169225931167603 -1.1736445426940918
-0.2272234857082367 1.0169225931167603 -0.9937899112701416
-0.2272235006093979 1.0169225931167603 -0.8139352798461914
-0.2272235006093979 1.0169225931167603 -0.6340806484222412
-0.22722351551055908 1.0169225931167603 -0.454226016998291
-0.22722351551055908 1.0169225931167603 -0.2743713855743408
-0.22722353041172028 1.0169225931167603 -0.09451676160097122
-0.22722353041172028 1.0169225931167603 0.08533786982297897
-0.22722354531288147 1.0169225931167603 0.26519250869750977
-0.22722354531288147 1.0169225931167603 0.44504714012145996
-0.22722356021404266 1.0169225931167603 0.6249017715454102
-0.22722356021404266 1.0169225931167603 0.8047564029693604
-0.22722357511520386 1.0169225931167603 0.9846110343933105
-0.22722357511520386 1.0169225931167603 1.1644656658172607
-0.22722359001636505 1.0169225931167603 1.344320297241211
-0.4436057507991791 0.9490322470664978 -1.353499174118042
-0.4436057507991791 0.9490322470664978 -1.1736445426940918
-0.4436057507991791 0.9490322470664978 -0.9937899112701416
-0.44360578060150146 0.9490322470664978 -0.8139352798461914
-0.44360578060150146 0.9490322470664978 -0.6340806484222412
-0.44360578060150146 0.9490322470664978 -0.4542260468006134
-0.44360581040382385 0.9490322470664978 -0.2743714153766632
-0.44360581040382385 0.9490322470664978 -0.09451677650213242
-0.44360581040382385 0.9490322470664978 0.08533785492181778
-0.44360581040382385 0.9490322470664978 0.2651924788951874
-0.44360584020614624 0.9490322470664978 0.4450471103191376
-0.44360584020614624 0.9490322470664978 0.6249017715454102
-0.44360584020614624 0.9490322470664978 0.8047564029693604
-0.44360584020614624 0.9490322470664978 0.9846110343933105
-0.44360587000846863 0.9490322470664978 1.1644656658172607
-0.44360587000846863 0.9490322470664978 1.344320297241211
-0.6418924331665039 0.8389741778373718 -1.353499174118042
-0.6418924331665039 0.8389741778373718 -1.1736445426940918
-0.6418924331665039 0.8389741778373718 -0.9937899112701416
-0.6418924331665039 0.8389741778373718 -0.8139352798461914
-0.6418924927711487 0.8389741778373718 -0.6340806484222412
-0.6418924927711487 0.8389741778373718 -0.4542260468006134
-0.6418924927711487 0.8389741778373718 -0.2743714153766632
-0.6418924927711487 0.8389741778373718 -0.09451678395271301
-0.6418924927711487 0.8389741778373718 0.08533784747123718
-0.6418924927711487 0.8389741778373718 0.2651924788951874
-0.6418924927711487 0.8389741778373718 0.4450471103191376
-0.6418925523757935 0.8389741778373718 0.6249017715454102
-0.6418925523757935 0.8389741778373718 0.8047564029693604
-0.6418925523757935 0.8389741778373718 0.9846110343933105
-0.6418925523757935 0.8389741778373718 1.1644656658172607
-0.6418925523757935 0.8389741778373718 1.344320297241211
-0.8139656782150269 0.6912541389465332 -1.353499174118042
-0.8139656782150269 0.6912541389465332 -1.1736445426940918
-0.8139656782150269 0.6912541389465332 -0.9937899708747864
-0.8139656782150269 0.6912541389465332 -0.8139353394508362
-0.8139656782150269 0.6912541389465332 -0.634080708026886
-0.8139656782150269 0.6912541389465332 -0.4542260468006134
-0.8139656782150269 0.6912541389465332 -0.2743714153766632
-0.8139656782150269 0.6912541389465332 -0.09451679140329361
-0.8139657378196716 0.6912541389465332 0.08533784002065659
-0.8139657378196716 0.6912541389465332 0.2651924788951874
-0.8139657378196716 0.6912541389465332 0.4450471103191376
-0.8139657378196716 0.6912541389465332 0.6249017119407654
-0.8139657378196716 0.6912541389465332 0.8047563433647156
-0.8139657378196716 0.6912541389465332 0.9846109747886658
-0.8139657378196716 0.6912541389465332 1.1644656658172607
-0.8139657974243164 0.6912541389465332 1.344320297241211
-0.9527807235717773 0.5119199156761169 -1.353499174118042
-0.9527807235717773 0.5119199156761169 -1.1736445426940918
-0.9527807235717773 0.5119199156761169 -0.9937899708747864
-0.9527807235717773 0.5119199156761169 -0.8139353394508362
-0.9527807235717773 0.5119199156761169 -0.634080708026886
-0.9527807235717773 0.5119199156761169 -0.4542260468006134
-0.9527807235717773 0.5119199156761169 -0.2743714153766632
-0.9527807831764221 0.5119199156761169 -0.0945167988538742
-0.9527807831764221 0.5119199156761169 0.08533783257007599
-0.9527807831764221 0.5119199156761169 0.2651924788951874
-0.9527807831764221 0.5119199156761169 0.4450471103191376
-0.9527807831764221 0.5119199156761169 0.6249017119407654
-0.9527807831764221 0.5119199156761169 0.8047563433647156
-0.9527807831764221 0.5119199156761169 0.9846109747886658
-0.9527807831764221 0.5119199156761169 1.1644656658172607
-0.9527808427810669 0.5119199156761169 1.344320297241211
-1.052654504776001 0.3083133399486542 -1.353499174118042
-1.052654504776001 0.3083133399486542 -1.1736445426940918
-1.052654504776001 0.3083133399486542 -0.9937899708747864
-1.052654504776001 0.3083133399486542 -0.8139353394508362
-1.052654504776001 0.3083133399486542 -0.634080708026886
-1.052654504776001 0.3083133399486542 -0.4542260766029358
-1.052654504776001 0.3083133399486542 -0.2743714451789856
-1.052654504776001 0.3083133399486542 -0.0945167988538742
-1.052654504776001 0.3083133399486542 0.08533783257007599
-1.052654504776001 0.3083133399486542 0.265192449092865
-1.052654504776001 0.3083133399486542 0.4450470805168152
-1.052654504776001 0.3083133399486542 0.6249017119407654
-1.0526546239852905 0.3083133399486542 0.8047563433647156
-1.0526546239852905 0.3083133399486542 0.9846109747886658
-1.0526546239852905 0.3083133399486542 1.1644656658172607
-1.0526546239852905 0.3083133399486542 1.344320297241211
-1.109498143196106 0.08877021074295044 -1.353499174118042
-1.109498143196106 0.08877021074295044 -1.1736445426940918
-1.109498143196106 0.08877021074295044 -0.9937899708747864
-1.109498143196106 0.08877021074295044 -0.8139353394508362
-1.109498143196106 0.08877021074295044 -0.634080708026886
-1.109498143196106 0.08877021074295044 -0.4542260766029358
-1.109498143196106 0.08877021074295044 -0.2743714451789856
-1.109498143196106 0.08877021074295044 -0.0945167988538742
-1.109498143196106 0.08877021074295044 0.08533783257007599
-1.1094982624053955 0.08877021074295044 0.265192449092865
-1.1094982624053955 0.08877021074295044 0.4450470805168152
-1.1094982624053955 0.08877021074295044 0.6249017119407654
-1.1094982624053955 0.08877021074295044 0.8047563433647156
-1.1094982624053955 0.08877021074295044 0.9846109747886658
-1.1094982624053955 0.08877021074295044 1.1644656658172607
-1.1094982624053955 0.08877021074295044 1.344320297241211
-1.120984435081482 -0.13772141933441162 -1.353499174118042
-1.1209845542907715 -0.13772141933441162 -1.1736445426940918
-1.1209845542907715 -0.13772141933441162 -0.9937899708747864
-1.1209845542907715 -0.13772141933441162 -0.8139353394508362
-1.1209845542907715 -0.13772141933441162 -0.634080708026886
-1.1209845542907715 -0.13772141933441162 -0.4542260766029358
-1.1209845542907715 -0.13772141933441162 -0.2743714451789856
-1.1209845542907715 -0.13772141933441162 -0.0945168063044548
-1.1209845542907715 -0.13772141933441162 0.08533782511949539
-1.1209845542907715 -0.13772141933441162 0.265192449092865
-1.1209845542907715 -0.13772141933441162 0.4450470805168152
-1.1209845542907715 -0.13772141933441162 0.6249017119407654
-1.1209845542907715 -0.13772141933441162 0.8047563433647156
-1.1209845542907715 -0.13772141933441162 0.9846109747886658
-1.1209845542907715 -0.13772141933441162 1.1644656658172607
-1.1209845542907715 -0.13772141933441162 1.344320297241211
-1.0866433382034302 -0.36188894510269165 -1.353499174118042
-1.0866433382034302 -0.36188894510269165 -1.1736445426940918
-1.0866433382034302 -0.36188894510269165 -0.9937899708747864
-1.0866433382034302 -0.36188894510269165 -0.8139353394508362
-1.0866433382034302 -0.36188894510269165 -0.634080708026886
-1.0866433382034302 -0.36188894510269165 -0.4542260766029358
-1.0866433382034302 -0.36188894510269165 -0.2743714451789856
-1.0866433382034302 -0.36188894510269165 -0.0945167988538742
-1.0866433382034302 -0.36188894510269165 0.08533783257007599
-1.0866433382034302 -0.36188894510269165 0.265192449092865
-1.0866433382034302 -0.36188894510269165 0.4450470805168152
-1.0866433382034302 -0.36188894510269165 0.6249017119407654
-1.0866433382034302 -0.36188894510269165 0.8047563433647156
-1.0866433382034302 -0.36188894510269165 0.9846109747886658
-1.0866434574127197 -0.36188894510269165 1.1644656658172607
-1.0866434574127197 -0.36188894510269165 1.344320297241211
-1.007880449295044 -0.5745549201965332 -1.353499174118042
-1.007880449295044 -0.5745549201965332 -1.1736445426940918
-1.007880449295044 -0.5745549201965332 -0.9937899708747864
-1.007880449295044 -0.5745549201965332 -0.8139353394508362
-1.007880449295044 -0.5745549201965332 -0.634080708026886
-1.007880449295044 -0.5745549201965332 -0.4542260468006134
-1.0078805685043335 -0.5745549201965332 -0.2743714153766632
-1.0078805685043335 -0.5745549201965332 -0.0945167988538742
-1.0078805685043335 -0.5745549201965332 0.08533783257007599
-1.0078805685043335 -0.5745549201965332 0.2651924788951874
-1.0078805685043335 -0.5745549201965332 0.4450471103191376
-1.0078805685043335 -0.5745549201965332 0.6249017119407654
-1.0078805685043335 -0.5745549201965332 0.8047563433647156
-1.0078805685043335 -0.5745549201965332 0.9846109747886658
-1.0078805685043335 -0.5745549201965332 1.1644656658172607
-1.0078805685043335 -0.5745549201965332 1.344320297241211
-0.8879205584526062 -0.7670127153396606 -1.353499174118042
-0.8879205584526062 -0.7670127153396606 -1.1736445426940918
-0.887920618057251 -0.7670127153396606 -0.9937899708747864
-0.887920618057251 -0.7670127153396606 -0.8139353394508362
-0.887920618057251 -0.7670127153396606 -0.634080708026886
-0.887920618057251 -0.7670127153396606 -0.4542260468006134
-0.887920618057251 -0.7670127153396606 -0.2743714153766632
-0.887920618057251 -0.7670127153396606 -0.09451679140329361
-0.887920618057251 -0.7670127153396606 0.08533784002065659
-0.8879206776618958 -0.7670127153396606 0.2651924788951874
-0.8879206776618958 -0.7670127153396606 0.4450471103191376
-0.8879206776618958 -0.7670127153396606 0.6249017119407654
-0.8879206776618958 -0.7670127153396606 0.8047563433647156
-0.8879206776618958 -0.7670127153396606 0.9846109747886658
-0.8879206776618958 -0.7670127153396606 1.1644656658172607
-0.8879206776618958 -0.7670127153396606 1.344320297241211
-0.7316747903823853 -0.9313831925392151 -1.353499174118042
-0.7316747903823853 -0.9313831925392151 -1.1736445426940918
-0.7316747903823853 -0.9313831925392151 -0.9937899708747864
-0.73167484998703 -0.9313831925392151 -0.8139353394508362
-0.73167484998703 -0.9313831925392151 -0.634080708026886
-0.73167484998703 -0.9313831925392151 -0.4542260468006134
-0.73167484998703 -0.9313831925392151 -0.2743714153766632
-0.73167484998703 -0.9313831925392151 -0.09451678395271301
-0.73167484998703 -0.9313831925392151 0.08533784747123718
-0.73167484998703 -0.9313831925392151 0.2651924788951874
-0.73167484998703 -0.9313831925392151 0.4450471103191376
-0.7316749095916748 -0.9313831925392151 0.6249017119407654
-0.7316749095916748 -0.9313831925392151 0.8047563433647156
-0.7316749095916748 -0.9313831925392151 0.9846109747886658
-0.7316749095916748 -0.9313831925392151 1.1644656658172607
-0.7316749095916748 -0.9313831925392151 1.344320297241211
-0.5455398559570312 -1.0609369277954102 -1.353499174118042
-0.5455398559570312 -1.0609369277954102 -1.1736445426940918
-0.5455398559570312 -1.0609369277954102 -0.9937899112701416
-0.5455398559570312 -1.0609369277954102 -0.8139352798461914
-0.5455398559570312 -1.0609369277954102 -0.6340806484222412
-0.545539915561676 -1.0609369277954102 -0.4542260468006134
-0.545539915561676 -1.0609369277954102 -0.2743714153766632
-0.545539915561676 -1.0609369277954102 -0.09451677650213242
-0.545539915561676 -1.0609369277954102 0.08533785492181778
-0.545539915561676 -1.0609369277954102 0.2651924788951874
-0.545539915561676 -1.0609369277954102 0.4450471103191376
-0.545539915561676 -1.0609369277954102 0.6249017715454102
-0.545539915561676 -1.0609369277954102 0.8047564029693604
-0.5455399751663208 -1.0609369277954102 0.9846110343933105
-0.5455399751663208 -1.0609369277954102 1.1644656658172607
-0.5455399751663208 -1.0609369277954102 1.344320297241211
-0.3371361196041107 -1.1503700017929077 -1.353499174118042
-0.3371361196041107 -1.1503700017929077 -1.1736445426940918
-0.3371361196041107 -1.1503700017929077 -0.9937899112701416
-0.3371361494064331 -1.1503700017929077 -0.8139352798461914
-0.3371361494064331 -1.1503700017929077 -0.6340806484222412
-0.3371361494064331 -1.1503700017929077 -0.454226016998291
-0.3371361494064331 -1.1503700017929077 -0.2743713855743408
-0.3371361792087555 -1.1503700017929077 -0.09451676905155182
-0.3371361792087555 -1.1503700017929077 0.08533786237239838
-0.3371361792087555 -1.1503700017929077 0.26519250869750977
-0.3371361792087555 -1.1503700017929077 0.44504714012145996
-0.3371362090110779 -1.1503700017929077 0.6249017715454102
-0.3371362090110779 -1.1503700017929077 0.8047564029693604
-0.3371362090110779 -1.1503700017929077 0.9846110343933105
-0.33713623881340027 -1.1503700017929077 1.1644656658172607
-0.33713623881340027 -1.1503700017929077 1.344320297241211
-0.11499566584825516 -1.1960210800170898 -1.353499174118042
-0.11499568074941635 -1.1960210800170898 -1.1736445426940918
-0.11499568819999695 -1.1960210800170898 -0.9937899112701416
-0.11499569565057755 -1.1960210800170898 -0.8139352798461914
-0.11499570310115814 -1.1960210800170898 -0.6340806484222412
-0.11499571055173874 -1.1960210800170898 -0.454226016998291
-0.11499571800231934 -1.1960210800170898 -0.2743713855743408
-0.11499572545289993 -1.1960210800170898 -0.09451676160097122
-0.11499573290348053 -1.1960210800170898 0.08533786982297897
-0.11499574035406113 -1.1960210800170898 0.26519250869750977
-0.11499574780464172 -1.1960210800170898 0.44504714012145996
-0.11499575525522232 -1.1960210800170898 0.6249017715454102
-0.11499576270580292 -1.1960210800170898 0.8047564029693604
-0.11499577015638351 -1.1960210800170898 0.9846110343933105
-0.11499577760696411 -1.1960210800170898 1.1644656658172607
-0.11499578505754471 -1.1960210800170898 1.344320297241211
0.11178702861070633 -1.1960210800170898 -1.353499174118042
0.11178702116012573 -1.1960210800170898 -1.1736445426940918
0.11178701370954514 -1.1960210800170898 -0.9937899112701416
0.11178700625896454 -1.1960210800170898 -0.8139352798461914
0.11178699880838394 -1.1960210800170898 -0.6340806484222412
0.11178699135780334 -1.1960210800170898 -0.454226016998291
0.11178698390722275 -1.1960210800170898 -0.2743713855743408
0.11178697645664215 -1.1960210800170898 -0.09451674669981003
0.11178696900606155 -1.1960210800170898 0.08533788472414017
0.11178696155548096 -1.1960210800170898 0.26519250869750977
0.11178695410490036 -1.1960210800170898 0.44504714012145996
0.11178694665431976 -1.1960210800170898 0.6249017715454102
0.11178693920373917 -1.1960210800170898 0.8047564029693604
0.11178693175315857 -1.1960210800170898 0.9846110343933105
0.11178692430257797 -1.1960210800170898 1.1644656658172607
0.11178691685199738 -1.1960210800170898 1.344320297241211
0.3339274823665619 -1.1503700017929077 -1.353499174118042
0.3339274823665619 -1.1503700017929077 -1.1736445426940918
0.3339274525642395 -1.1503700017929077 -0.9937899112701416
0.3339274525642395 -1.1503700017929077 -0.8139352798461914
0.3339274525642395 -1.1503700017929077 -0.6340806484222412
0.3339274525642395 -1.1503700017929077 -0.454226016998291
0.3339274227619171 -1.1503700017929077 -0.2743713855743408
0.3339274227619171 -1.1503700017929077 -0.09451673924922943
0.3339274227619171 -1.1503700017929077 0.08533789217472076
0.3339273929595947 -1.1503700017929077 0.26519250869750977
0.3339273929595947 -1.1503700017929077 0.44504714012145996
0.3339273929595947 -1.1503700017929077 0.6249017715454102
0.3339273929595947 -1.1503700017929077 0.8047564029693604
0.33392736315727234 -1.1503700017929077 0.9846110343933105
0.33392736315727234 -1.1503700017929077 1.1644656658172607
0.33392736315727234 -1.1503700017929077 1.344320297241211
0.5423312187194824 -1.0609369277954102 -1.353499174118042
0.5423312187194824 -1.0609369277954102 -1.1736445426940918
0.5423312187194824 -1.0609369277954102 -0.9937899112701416
0.5423312187194824 -1.0609369277954102 -0.8139352798461914
0.5423311591148376 -1.0609369277954102 -0.6340806484222412
0.5423311591148376 -1.0609369277954102 -0.45422598719596863
0.5423311591148376 -1.0609369277954102 -0.27437135577201843
0.5423311591148376 -1.0609369277954102 -0.09451673179864883
0.5423311591148376 -1.0609369277954102 0.08533789962530136
0.5423311591148376 -1.0609369277954102 0.26519253849983215
0.5423311591148376 -1.0609369277954102 0.44504716992378235
0.5423310995101929 -1.0609369277954102 0.6249017715454102
0.5423310995101929 -1.0609369277954102 0.8047564029693604
0.5423310995101929 -1.0609369277954102 0.9846110343933105
0.5423310995101929 -1.0609369277954102 1.1644656658172607
0.5423310995101929 -1.0609369277954102 1.344320297241211
0.7284661531448364 -0.9313831925392151 -1.353499174118042
0.7284661531448364 -0.9313831925392151 -1.1736445426940918
0.7284661531448364 -0.9313831925392151 -0.9937898516654968
0.7284661531448364 -0.9313831925392151 -0.8139352202415466
0.7284661531448364 -0.9313831925392151 -0.6340805888175964
0.7284661531448364 -0.9313831925392151 -0.45422598719596863
0.7284660935401917 -0.9313831925392151 -0.27437135577201843
0.7284660935401917 -0.9313831925392151 -0.09451672434806824
0.7284660935401917 -0.9313831925392151 0.08533790707588196
0.7284660935401917 -0.9313831925392151 0.26519253849983215
0.7284660935401917 -0.9313831925392151 0.44504716992378235
0.7284660935401917 -0.9313831925392151 0.6249018311500549
0.7284660935401917 -0.9313831925392151 0.8047564625740051
0.7284660339355469 -0.9313831925392151 0.9846110939979553
0.7284660339355469 -0.9313831925392151 1.1644656658172607
0.7284660339355469 -0.9313831925392151 1.344320297241211
0.8847119212150574 -0.7670127153396606 -1.353499174118042
0.8847119212150574 -0.7670127153396606 -1.1736445426940918
0.8847119212150574 -0.7670127153396606 -0.9937898516654968
0.8847119212150574 -0.7670127153396606 -0.8139352202415466
0.8847119212150574 -0.7670127153396606 -0.6340805888175964
0.8847119212150574 -0.7670127153396606 -0.45422598719596863
0.8847119212150574 -0.7670127153396606 -0.27437135577201843
0.8847118616104126 -0.7670127153396606 -0.09451671689748764
0.8847118616104126 -0.7670127153396606 0.08533791452646255
0.8847118616104126 -0.7670127153396606 0.26519253849983215
0.8847118616104126 -0.7670127153396606 0.44504716992378235
0.8847118616104126 -0.7670127153396606 0.6249018311500549
0.8847118616104126 -0.7670127153396606 0.8047564625740051
0.8847118616104126 -0.7670127153396606 0.9846110939979553
0.8847118020057678 -0.7670127153396606 1.1644656658172607
0.8847118020057678 -0.7670127153396606 1.344320297241211
1.0046718120574951 -0.5745549201965332 -1.353499174118042
1.0046718120574951 -0.5745549201965332 -1.1736445426940918
1.0046718120574951 -0.5745549201965332 -0.9937898516654968
1.0046718120574951 -0.5745549201965332 -0.8139352202415466
1.0046718120574951 -0.5745549201965332 -0.6340805888175964
1.0046718120574951 -0.5745549201965332 -0.45422598719596863
1.0046718120574951 -0.5745549201965332 -0.27437135577201843
1.0046718120574951 -0.5745549201965332 -0.09451670944690704
1.0046718120574951 -0.5745549201965332 0.08533792197704315
1.0046718120574951 -0.5745549201965332 0.26519253849983215
1.0046716928482056 -0.5745549201965332 0.44504716992378235
1.0046716928482056 -0.5745549201965332 0.6249018311500549
1.0046716928482056 -0.5745549201965332 0.8047564625740051
1.0046716928482056 -0.5745549201965332 0.9846110939979553
1.0046716928482056 -0.5745549201965332 1.1644656658172607
1.0046716928482056 -0.5745549201965332 1.344320297241211
1.0834347009658813 -0.36188894510269165 -1.353499174118042
1.0834347009658813 -0.36188894510269165 -1.1736445426940918
1.0834345817565918 -0.36188894510269165 -0.9937898516654968
1.0834345817565918 -0.36188894510269165 -0.8139352202415466
1.0834345817565918 -0.36188894510269165 -0.6340805888175964
1.0834345817565918 -0.36188894510269165 -0.45422595739364624
1.0834345817565918 -0.36188894510269165 -0.27437132596969604
1.0834345817565918 -0.36188894510269165 -0.09451670944690704
1.0834345817565918 -0.36188894510269165 0.08533792197704315
1.0834345817565918 -0.36188894510269165 0.26519256830215454
1.0834345817565918 -0.36188894510269165 0.44504719972610474
1.0834345817565918 -0.36188894510269165 0.6249018311500549
1.0834345817565918 -0.36188894510269165 0.8047564625740051
1.0834345817565918 -0.36188894510269165 0.9846110939979553
1.0834345817565918 -0.36188894510269165 1.1644656658172607
1.0834345817565918 -0.36188894510269165 1.344320297241211
1.117775797843933 -0.13772141933441162 -1.353499174118042
1.117775797843933 -0.13772141933441162 -1.1736445426940918
1.117775797843933 -0.13772141933441162 -0.9937898516654968
1.117775797843933 -0.13772141933441162 -0.8139352202415466
1.117775797843933 -0.13772141933441162 -0.6340805888175964
1.117775797843933 -0.13772141933441162 -0.45422595739364624
1.117775797843933 -0.13772141933441162 -0.27437132596969604
1.117775797843933 -0.13772141933441162 -0.09451670199632645
1.117775797843933 -0.13772141933441162 0.08533792942762375
1.117775797843933 -0.13772141933441162 0.26519256830215454
1.117775797843933 -0.13772141933441162 0.44504719972610474
1.117775797843933 -0.13772141933441162 0.6249018311500549
1.117775797843933 -0.13772141933441162 0.8047564625740051
1.117775797843933 -0.13772141933441162 0.9846110939979553
1.117775797843933 -0.13772141933441162 1.1644656658172607
1.1177756786346436 -0.13772141933441162 1.344320297241211
1.1062895059585571 0.08877021074295044 -1.353499174118042
1.1062895059585571 0.08877021074295044 -1.1736445426940918
1.1062895059585571 0.08877021074295044 -0.9937898516654968
1.1062895059585571 0.08877021074295044 -0.8139352202415466
1.1062895059585571 0.08877021074295044 -0.6340805888175964
1.1062895059585571 0.08877021074295044 -0.45422595739364624
1.1062895059585571 0.08877021074295044 -0.27437132596969604
1.1062893867492676 0.08877021074295044 -0.09451670944690704
1.1062893867492676 0.08877021074295044 0.08533792197704315
1.1062893867492676 0.08877021074295044 0.26519256830215454
1.1062893867492676 0.08877021074295044 0.44504719972610474
1.1062893867492676 0.08877021074295044 0.6249018311500549
1.1062893867492676 0.08877021074295044 0.8047564625740051
1.1062893867492676 0.08877021074295044 0.9846110939979553
1.1062893867492676 0.08877021074295044 1.1644656658172607
1.1062893867492676 0.08877021074295044 1.344320297241211
1.0494458675384521 0.3083133399486542 -1.353499174118042
1.0494458675384521 0.3083133399486542 -1.1736445426940918
1.0494458675384521 0.3083133399486542 -0.9937898516654968
1.0494458675384521 0.3083133399486542 -0.8139352202415466
1.0494457483291626 0.3083133399486542 -0.6340805888175964
1.0494457483291626 0.3083133399486542 -0.45422595739364624
1.0494457483291626 0.3083133399486542 -0.27437132596969604
1.0494457483291626 0.3083133399486542 -0.09451670944690704
1.0494457483291626 0.3083133399486542 0.08533792197704315
1.0494457483291626 0.3083133399486542 0.26519256830215454
1.0494457483291626 0.3083133399486542 0.44504719972610474
1.0494457483291626 0.3083133399486542 0.6249018311500549
1.0494457483291626 0.3083133399486542 0.8047564625740051
1.0494457483291626 0.3083133399486542 0.9846110939979553
1.0494457483291626 0.3083133399486542 1.1644656658172607
1.0494457483291626 0.3083133399486542 1.344320297241211
0.9495720863342285 0.5119199156761169 -1.353499174118042
0.9495720267295837 0.5119199156761169 -1.1736445426940918
0.9495720267295837 0.5119199156761169 -0.9937898516654968
0.9495720267295837 0.5119199156761169 -0.8139352202415466
0.9495720267295837 0.5119199156761169 -0.6340805888175964
0.9495720267295837 0.5119199156761169 -0.45422598719596863
0.9495720267295837 0.5119199156761169 -0.27437135577201843
0.9495720267295837 0.5119199156761169 -0.09451670944690704
0.9495720267295837 0.5119199156761169 0.08533792197704315
0.949571967124939 0.5119199156761169 0.26519253849983215
0.949571967124939 0.5119199156761169 0.44504716992378235
0.949571967124939 0.5119199156761169 0.6249018311500549
0.949571967124939 0.5119199156761169 0.8047564625740051
0.949571967124939 0.5119199156761169 0.9846110939979553
0.949571967124939 0.5119199156761169 1.1644656658172607
0.949571967124939 0.5119199156761169 1.344320297241211
0.810757040977478 0.6912541389465332 -1.353499174118042
0.8107569813728333 0.6912541389465332 -1.1736445426940918
0.8107569813728333 0.6912541389465332 -0.9937898516654968
0.8107569813728333 0.6912541389465332 -0.8139352202415466
0.8107569813728333 0.6912541389465332 -0.6340805888175964
0.8107569813728333 0.6912541389465332 -0.45422598719596863
0.8107569813728333 0.6912541389465332 -0.27437135577201843
0.8107569813728333 0.6912541389465332 -0.09451671689748764
0.8107569813728333 0.6912541389465332 0.08533791452646255
0.8107569217681885 0.6912541389465332 0.26519253849983215
0.8107569217681885 0.6912541389465332 0.44504716992378235
0.8107569217681885 0.6912541389465332 0.6249018311500549
0.8107569217681885 0.6912541389465332 0.8047564625740051
0.8107569217681885 0.6912541389465332 0.9846110939979553
0.8107569217681885 0.6912541389465332 1.1644656658172607
0.8107569217681885 0.6912541389465332 1.344320297241211
0.6386837959289551 0.8389741778373718 -1.353499174118042
0.6386837959289551 0.8389741778373718 -1.1736445426940918
0.6386837959289551 0.8389741778373718 -0.9937899112701416
0.6386837959289551 0.8389741778373718 -0.8139352798461914
0.6386837959289551 0.8389741778373718 -0.6340806484222412
0.6386837363243103 0.8389741778373718 -0.45422598719596863
0.6386837363243103 0.8389741778373718 -0.27437135577201843
0.6386837363243103 0.8389741778373718 -0.09451672434806824
0.6386837363243103 0.8389741778373718 0.08533790707588196
0.6386837363243103 0.8389741778373718 0.26519253849983215
0.6386837363243103 0.8389741778373718 0.44504716992378235
0.6386837363243103 0.8389741778373718 0.6249017715454102
0.6386836767196655 0.8389741778373718 0.8047564029693604
0.6386836767196655 0.8389741778373718 0.9846110343933105
0.6386836767196655 0.8389741778373718 1.1644656658172607
0.6386836767196655 0.8389741778373718 1.344320297241211
0.44039711356163025 0.9490322470664978 -1.353499174118042
0.44039711356163025 0.9490322470664978 -1.1736445426940918
0.44039708375930786 0.9490322470664978 -0.9937899112701416
0.44039708375930786 0.9490322470664978 -0.8139352798461914
0.44039708375930786 0.9490322470664978 -0.6340806484222412
0.44039708375930786 0.9490322470664978 -0.45422598719596863
0.4403970539569855 0.9490322470664978 -0.27437135577201843
0.4403970539569855 0.9490322470664978 -0.09451673179864883
0.4403970539569855 0.9490322470664978 0.08533789962530136
0.4403970539569855 0.9490322470664978 0.26519253849983215
0.4403970241546631 0.9490322470664978 0.44504716992378235
0.4403970241546631 0.9490322470664978 0.6249017715454102
0.4403970241546631 0.9490322470664978 0.8047564029693604
0.4403970241546631 0.9490322470664978 0.9846110343933105
0.4403969943523407 0.9490322470664978 1.1644656658172607
0.4403969943523407 0.9490322470664978 1.344320297241211
0.22401483356952667 1.0169225931167603 -1.353499174118042
0.22401481866836548 1.0169225931167603 -1.1736445426940918
0.22401481866836548 1.0169225931167603 -0.9937899112701416
0.22401480376720428 1.0169225931167603 -0.8139352798461914
0.22401480376720428 1.0169225931167603 -0.6340806484222412
0.2240147888660431 1.0169225931167603 -0.454226016998291
0.2240147888660431 1.0169225931167603 -0.2743713855743408
0.2240147739648819 1.0169225931167603 -0.09451674669981003
0.2240147739648819 1.0169225931167603 0.08533788472414017
0.2240147590637207 1.0169225931167603 0.26519250869750977
0.2240147590637207 1.0169225931167603 0.44504714012145996
0.2240147441625595 1.0169225931167603 0.6249017715454102
0.2240147441625595 1.0169225931167603 0.8047564029693604
0.22401472926139832 1.0169225931167603 0.9846110343933105
0.22401472926139832 1.0169225931167603 1.1644656658172607
0.22401471436023712 1.0169225931167603 1.344320297241211
-0.001604318618774414 1.0398658514022827 -1.353499174118042
-0.0016043265350162983 1.0398658514022827 -1.1736445426940918
-0.0016043343348428607 1.0398658514022827 -0.9937899112701416
-0.001604342251084745 1.0398658514022827 -0.8139352798461914
-0.0016043500509113073 1.0398658514022827 -0.6340806484222412
-0.0016043579671531916 1.0398658514022827 -0.454226016998291
-0.001604365766979754 1.0398658514022827 -0.2743713855743408
-0.0016043736832216382 1.0398658514022827 -0.09451675415039062
-0.0016043814830482006 1.0398658514022827 0.08533787727355957
-0.0016043893992900848 1.0398658514022827 0.26519250869750977
-0.0016043971991166472 1.0398658514022827 0.44504714012145996
-0.0016044051153585315 1.0398658514022827 0.6249017715454102
-0.0016044129151850939 1.0398658514022827 0.8047564029693604
-0.0016044208314269781 1.0398658514022827 0.9846110343933105
-0.0016044286312535405 1.0398658514022827 1.1644656658172607
-0.0016044365474954247 1.0398658514022827 1.344320297241211
