ply
format ascii 1.0
element vertex 1475
property float x
property float y
property float z
end_header
0.25 34.25 0.0
0.25 34.75 0.0
0.25 35.25 0.0
0.25 35.75 0.0
0.25 36.25 0.0
0.75 34.25 0.0
0.75 34.75 0.0
0.75 35.25 0.0
0.75 35.75 0.0
0.75 36.25 0.0
0.75 36.75 0.0
1.25 34.75 0.0
1.25 35.25 0.0
1.25 35.75 0.0
1.25 36.25 0.0
1.25 36.75 0.0
1.75 34.25 0.0
1.75 34.75 0.0
1.75 35.25 0.0
1.75 35.75 0.0
1.75 36.25 0.0
2.25 34.25 0.0
2.25 34.75 0.0
2.25 35.25 0.0
2.25 35.75 0.0
2.25 36.25 0.0
2.75 34.25 0.0
2.75 34.75 0.0
2.75 35.25 0.0
2.75 35.75 0.0
2.75 36.25 0.0
2.75 36.75 0.0
3.25 34.25 0.0
3.25 34.75 0.0
3.25 35.25 0.0
3.25 35.75 0.0
3.25 36.25 0.0
3.75 26.25 0.0
3.75 26.75 0.0
3.75 34.25 0.0
3.75 34.75 0.0
3.75 35.25 0.0
3.75 35.75 0.0
3.75 36.25 0.0
4.25 25.75 0.0
4.25 26.25 0.0
4.25 26.75 0.0
4.25 27.25 0.0
4.25 27.75 0.0
4.25 34.25 0.0
4.25 34.75 0.0
4.25 35.25 0.0
4.25 35.75 0.0
4.75 25.25 0.0
4.75 25.75 0.0
4.75 26.25 0.0
4.75 26.75 0.0
4.75 27.25 0.0
4.75 27.75 0.0
4.75 34.25 0.0
4.75 34.75 0.0
4.75 35.25 0.0
4.75 35.75 0.0
4.75 36.25 0.0
5.25 24.75 0.0
5.25 25.25 0.0
5.25 25.75 0.0
5.25 26.25 0.0
5.25 26.75 0.0
5.25 27.25 0.0
5.25 34.25 0.0
5.25 34.75 0.0
5.25 35.25 0.0
5.25 35.75 0.0
5.25 36.25 0.0
5.75 18.75 0.0
5.75 19.25 0.0
5.75 24.75 0.0
5.75 25.25 0.0
5.75 25.75 0.0
5.75 26.25 0.0
5.75 26.75 0.0
5.75 34.25 0.0
5.75 34.75 0.0
5.75 35.25 0.0
5.75 35.75 0.0
6.25 17.75 0.0
6.25 18.25 0.0
6.25 18.75 0.0
6.25 19.25 0.0
6.25 24.75 0.0
6.25 25.25 0.0
6.25 25.75 0.0
6.25 26.25 0.0
6.25 26.75 0.0
6.25 33.75 0.0
6.25 34.25 0.0
6.25 34.75 0.0
6.25 35.25 0.0
6.25 35.75 0.0
6.75 17.25 0.0
6.75 17.75 0.0
6.75 18.25 0.0
6.75 18.75 0.0
6.75 19.25 0.0
6.75 24.75 0.0
6.75 25.25 0.0
6.75 25.75 0.0
6.75 26.25 0.0
6.75 33.75 0.0
6.75 34.25 0.0
6.75 34.75 0.0
6.75 35.25 0.0
6.75 35.75 0.0
7.25 17.25 0.0
7.25 17.75 0.0
7.25 18.25 0.0
7.25 18.75 0.0
7.25 19.25 0.0
7.25 19.75 0.0
7.25 24.25 0.0
7.25 24.75 0.0
7.25 25.25 0.0
7.25 25.75 0.0
7.25 26.25 0.0
7.25 33.75 0.0
7.25 34.25 0.0
7.25 34.75 0.0
7.25 35.25 0.0
7.25 35.75 0.0
7.75 17.25 0.0
7.75 17.75 0.0
7.75 18.25 0.0
7.75 18.75 0.0
7.75 19.25 0.0
7.75 23.75 0.0
7.75 24.25 0.0
7.75 24.75 0.0
7.75 25.25 0.0
7.75 25.75 0.0
7.75 33.75 0.0
7.75 34.25 0.0
7.75 34.75 0.0
7.75 35.25 0.0
7.75 35.75 0.0
8.25 17.25 0.0
8.25 17.75 0.0
8.25 18.25 0.0
8.25 18.75 0.0
8.25 23.25 0.0
8.25 23.75 0.0
8.25 24.25 0.0
8.25 24.75 0.0
8.25 25.25 0.0
8.25 25.75 0.0
8.25 26.25 0.0
8.25 33.25 0.0
8.25 33.75 0.0
8.25 34.25 0.0
8.25 34.75 0.0
8.25 35.25 0.0
8.75 16.75 0.0
8.75 17.25 0.0
8.75 17.75 0.0
8.75 18.25 0.0
8.75 18.75 0.0
8.75 23.25 0.0
8.75 23.75 0.0
8.75 24.25 0.0
8.75 24.75 0.0
8.75 25.25 0.0
8.75 25.75 0.0
8.75 33.25 0.0
8.75 33.75 0.0
8.75 34.25 0.0
8.75 34.75 0.0
8.75 35.25 0.0
8.75 35.75 0.0
9.25 17.25 0.0
9.25 17.75 0.0
9.25 18.25 0.0
9.25 18.75 0.0
9.25 23.25 0.0
9.25 23.75 0.0
9.25 24.25 0.0
9.25 24.75 0.0
9.25 25.25 0.0
9.25 33.25 0.0
9.25 33.75 0.0
9.25 34.25 0.0
9.25 34.75 0.0
9.25 35.25 0.0
9.75 16.75 0.0
9.75 17.25 0.0
9.75 17.75 0.0
9.75 18.25 0.0
9.75 18.75 0.0
9.75 23.25 0.0
9.75 23.75 0.0
9.75 24.25 0.0
9.75 24.75 0.0
9.75 33.25 0.0
9.75 33.75 0.0
9.75 34.25 0.0
9.75 34.75 0.0
9.75 35.25 0.0
10.25 16.25 0.0
10.25 16.75 0.0
10.25 17.25 0.0
10.25 17.75 0.0
10.25 18.25 0.0
10.25 18.75 0.0
10.25 22.75 0.0
10.25 23.25 0.0
10.25 23.75 0.0
10.25 24.25 0.0
10.25 24.75 0.0
10.25 32.75 0.0
10.25 33.25 0.0
10.25 33.75 0.0
10.25 34.25 0.0
10.25 34.75 0.0
10.75 16.25 0.0
10.75 16.75 0.0
10.75 17.25 0.0
10.75 17.75 0.0
10.75 18.25 0.0
10.75 22.75 0.0
10.75 23.25 0.0
10.75 23.75 0.0
10.75 24.25 0.0
10.75 24.75 0.0
10.75 32.25 0.0
10.75 32.75 0.0
10.75 33.25 0.0
10.75 33.75 0.0
10.75 34.25 0.0
10.75 34.75 0.0
11.25 16.25 0.0
11.25 16.75 0.0
11.25 17.25 0.0
11.25 17.75 0.0
11.25 18.25 0.0
11.25 22.75 0.0
11.25 23.25 0.0
11.25 23.75 0.0
11.25 24.25 0.0
11.25 24.75 0.0
11.25 32.25 0.0
11.25 32.75 0.0
11.25 33.25 0.0
11.25 33.75 0.0
11.25 34.25 0.0
11.25 34.75 0.0
11.75 16.25 0.0
11.75 16.75 0.0
11.75 17.25 0.0
11.75 17.75 0.0
11.75 18.25 0.0
11.75 22.25 0.0
11.75 22.75 0.0
11.75 23.25 0.0
11.75 23.75 0.0
11.75 24.25 0.0
11.75 31.75 0.0
11.75 32.25 0.0
11.75 32.75 0.0
11.75 33.25 0.0
11.75 33.75 0.0
11.75 34.25 0.0
12.25 15.75 0.0
12.25 16.25 0.0
12.25 16.75 0.0
12.25 17.25 0.0
12.25 17.75 0.0
12.25 22.25 0.0
12.25 22.75 0.0
12.25 23.25 0.0
12.25 23.75 0.0
12.25 24.25 0.0
12.25 24.75 0.0
12.25 31.25 0.0
12.25 31.75 0.0
12.25 32.25 0.0
12.25 32.75 0.0
12.25 33.25 0.0
12.25 33.75 0.0
12.75 4.25 0.0
12.75 4.75 0.0
12.75 15.75 0.0
12.75 16.25 0.0
12.75 16.75 0.0
12.75 17.25 0.0
12.75 17.75 0.0
12.75 22.25 0.0
12.75 22.75 0.0
12.75 23.25 0.0
12.75 23.75 0.0
12.75 24.25 0.0
12.75 31.25 0.0
12.75 31.75 0.0
12.75 32.25 0.0
12.75 32.75 0.0
12.75 33.25 0.0
12.75 33.75 0.0
13.25 3.75 0.0
13.25 4.25 0.0
13.25 4.75 0.0
13.25 5.25 0.0
13.25 16.25 0.0
13.25 16.75 0.0
13.25 17.25 0.0
13.25 17.75 0.0
13.25 22.25 0.0
13.25 22.75 0.0
13.25 23.25 0.0
13.25 23.75 0.0
13.25 24.25 0.0
13.25 30.75 0.0
13.25 31.25 0.0
13.25 31.75 0.0
13.25 32.25 0.0
13.25 32.75 0.0
13.25 33.25 0.0
13.75 3.75 0.0
13.75 4.25 0.0
13.75 4.75 0.0
13.75 5.25 0.0
13.75 5.75 0.0
13.75 15.75 0.0
13.75 16.25 0.0
13.75 16.75 0.0
13.75 17.25 0.0
13.75 17.75 0.0
13.75 21.75 0.0
13.75 22.25 0.0
13.75 22.75 0.0
13.75 23.25 0.0
13.75 23.75 0.0
13.75 29.75 0.0
13.75 30.25 0.0
13.75 30.75 0.0
13.75 31.25 0.0
13.75 31.75 0.0
13.75 32.25 0.0
13.75 32.75 0.0
13.75 33.25 0.0
14.25 3.75 0.0
14.25 4.25 0.0
14.25 4.75 0.0
14.25 5.25 0.0
14.25 5.75 0.0
14.25 15.75 0.0
14.25 16.25 0.0
14.25 16.75 0.0
14.25 17.25 0.0
14.25 17.75 0.0
14.25 21.75 0.0
14.25 22.25 0.0
14.25 22.75 0.0
14.25 23.25 0.0
14.25 23.75 0.0
14.25 24.25 0.0
14.25 29.25 0.0
14.25 29.75 0.0
14.25 30.25 0.0
14.25 30.75 0.0
14.25 31.25 0.0
14.25 31.75 0.0
14.25 32.25 0.0
14.25 32.75 0.0
14.75 4.25 0.0
14.75 4.75 0.0
14.75 5.25 0.0
14.75 5.75 0.0
14.75 6.25 0.0
14.75 6.75 0.0
14.75 15.25 0.0
14.75 15.75 0.0
14.75 16.25 0.0
14.75 16.75 0.0
14.75 17.25 0.0
14.75 22.25 0.0
14.75 22.75 0.0
14.75 23.25 0.0
14.75 23.75 0.0
14.75 24.25 0.0
14.75 27.75 0.0
14.75 28.25 0.0
14.75 28.75 0.0
14.75 29.25 0.0
14.75 29.75 0.0
14.75 30.25 0.0
14.75 30.75 0.0
14.75 31.25 0.0
14.75 31.75 0.0
15.25 4.25 0.0
15.25 4.75 0.0
15.25 5.25 0.0
15.25 5.75 0.0
15.25 6.25 0.0
15.25 6.75 0.0
15.25 7.25 0.0
15.25 15.75 0.0
15.25 16.25 0.0
15.25 16.75 0.0
15.25 17.25 0.0
15.25 17.75 0.0
15.25 22.25 0.0
15.25 22.75 0.0
15.25 23.25 0.0
15.25 23.75 0.0
15.25 26.75 0.0
15.25 27.25 0.0
15.25 27.75 0.0
15.25 28.25 0.0
15.25 28.75 0.0
15.25 29.25 0.0
15.25 29.75 0.0
15.25 30.25 0.0
15.25 30.75 0.0
15.25 31.25 0.0
15.75 4.75 0.0
15.75 5.25 0.0
15.75 5.75 0.0
15.75 6.25 0.0
15.75 6.75 0.0
15.75 7.25 0.0
15.75 7.75 0.0
15.75 15.75 0.0
15.75 16.25 0.0
15.75 16.75 0.0
15.75 17.25 0.0
15.75 17.75 0.0
15.75 21.75 0.0
15.75 22.25 0.0
15.75 22.75 0.0
15.75 23.25 0.0
15.75 23.75 0.0
15.75 26.25 0.0
15.75 26.75 0.0
15.75 27.25 0.0
15.75 27.75 0.0
15.75 28.25 0.0
15.75 28.75 0.0
15.75 29.25 0.0
15.75 29.75 0.0
15.75 30.25 0.0
15.75 30.75 0.0
15.75 31.25 0.0
16.25 5.25 0.0
16.25 5.75 0.0
16.25 6.25 0.0
16.25 6.75 0.0
16.25 7.25 0.0
16.25 7.75 0.0
16.25 8.25 0.0
16.25 8.75 0.0
16.25 15.25 0.0
16.25 15.75 0.0
16.25 16.25 0.0
16.25 16.75 0.0
16.25 17.25 0.0
16.25 22.25 0.0
16.25 22.75 0.0
16.25 23.25 0.0
16.25 23.75 0.0
16.25 24.25 0.0
16.25 24.75 0.0
16.25 25.25 0.0
16.25 25.75 0.0
16.25 26.25 0.0
16.25 26.75 0.0
16.25 27.25 0.0
16.25 27.75 0.0
16.25 28.25 0.0
16.25 28.75 0.0
16.25 29.25 0.0
16.25 29.75 0.0
16.75 5.75 0.0
16.75 6.25 0.0
16.75 6.75 0.0
16.75 7.25 0.0
16.75 7.75 0.0
16.75 8.25 0.0
16.75 8.75 0.0
16.75 9.25 0.0
16.75 15.25 0.0
16.75 15.75 0.0
16.75 16.25 0.0
16.75 16.75 0.0
16.75 17.25 0.0
16.75 17.75 0.0
16.75 22.25 0.0
16.75 22.75 0.0
16.75 23.25 0.0
16.75 23.75 0.0
16.75 24.25 0.0
16.75 24.75 0.0
16.75 25.25 0.0
16.75 25.75 0.0
16.75 26.25 0.0
16.75 26.75 0.0
16.75 27.25 0.0
16.75 27.75 0.0
16.75 28.25 0.0
16.75 28.75 0.0
16.75 29.25 0.0
16.75 29.75 0.0
17.25 6.25 0.0
17.25 6.75 0.0
17.25 7.25 0.0
17.25 7.75 0.0
17.25 8.25 0.0
17.25 8.75 0.0
17.25 9.25 0.0
17.25 9.75 0.0
17.25 15.75 0.0
17.25 16.25 0.0
17.25 16.75 0.0
17.25 17.25 0.0
17.25 17.75 0.0
17.25 21.25 0.0
17.25 21.75 0.0
17.25 22.25 0.0
17.25 22.75 0.0
17.25 23.25 0.0
17.25 23.75 0.0
17.25 24.25 0.0
17.25 24.75 0.0
17.25 25.25 0.0
17.25 25.75 0.0
17.25 26.25 0.0
17.25 26.75 0.0
17.25 27.25 0.0
17.25 27.75 0.0
17.75 6.75 0.0
17.75 7.25 0.0
17.75 7.75 0.0
17.75 8.25 0.0
17.75 8.75 0.0
17.75 9.25 0.0
17.75 9.75 0.0
17.75 10.25 0.0
17.75 10.75 0.0
17.75 15.25 0.0
17.75 15.75 0.0
17.75 16.25 0.0
17.75 16.75 0.0
17.75 17.25 0.0
17.75 20.75 0.0
17.75 21.25 0.0
17.75 21.75 0.0
17.75 22.25 0.0
17.75 22.75 0.0
17.75 23.25 0.0
17.75 23.75 0.0
17.75 24.25 0.0
17.75 24.75 0.0
17.75 25.25 0.0
17.75 25.75 0.0
17.75 26.25 0.0
17.75 26.75 0.0
17.75 27.25 0.0
18.25 7.75 0.0
18.25 8.25 0.0
18.25 8.75 0.0
18.25 9.25 0.0
18.25 9.75 0.0
18.25 10.25 0.0
18.25 10.75 0.0
18.25 11.25 0.0
18.25 15.25 0.0
18.25 15.75 0.0
18.25 16.25 0.0
18.25 16.75 0.0
18.25 17.25 0.0
18.25 18.75 0.0
18.25 19.25 0.0
18.25 19.75 0.0
18.25 20.25 0.0
18.25 20.75 0.0
18.25 21.25 0.0
18.25 21.75 0.0
18.25 22.25 0.0
18.25 22.75 0.0
18.25 23.25 0.0
18.25 23.75 0.0
18.25 24.25 0.0
18.25 24.75 0.0
18.25 25.25 0.0
18.25 25.75 0.0
18.75 8.25 0.0
18.75 8.75 0.0
18.75 9.25 0.0
18.75 9.75 0.0
18.75 10.25 0.0
18.75 10.75 0.0
18.75 11.25 0.0
18.75 11.75 0.0
18.75 12.25 0.0
18.75 12.75 0.0
18.75 14.75 0.0
18.75 15.25 0.0
18.75 15.75 0.0
18.75 16.25 0.0
18.75 16.75 0.0
18.75 17.25 0.0
18.75 17.75 0.0
18.75 18.25 0.0
18.75 18.75 0.0
18.75 19.25 0.0
18.75 19.75 0.0
18.75 20.25 0.0
18.75 20.75 0.0
18.75 21.25 0.0
18.75 21.75 0.0
18.75 22.25 0.0
18.75 22.75 0.0
18.75 23.25 0.0
18.75 23.75 0.0
18.75 24.25 0.0
18.75 24.75 0.0
18.75 25.25 0.0
19.25 8.75 0.0
19.25 9.25 0.0
19.25 9.75 0.0
19.25 10.25 0.0
19.25 10.75 0.0
19.25 11.25 0.0
19.25 11.75 0.0
19.25 12.25 0.0
19.25 12.75 0.0
19.25 13.25 0.0
19.25 13.75 0.0
19.25 14.25 0.0
19.25 14.75 0.0
19.25 15.25 0.0
19.25 15.75 0.0
19.25 16.25 0.0
19.25 16.75 0.0
19.25 17.25 0.0
19.25 17.75 0.0
19.25 18.25 0.0
19.25 18.75 0.0
19.25 19.25 0.0
19.25 19.75 0.0
19.25 20.25 0.0
19.25 20.75 0.0
19.25 21.25 0.0
19.25 21.75 0.0
19.25 22.25 0.0
19.25 22.75 0.0
19.25 23.25 0.0
19.25 23.75 0.0
19.25 24.25 0.0
19.25 24.75 0.0
19.25 25.25 0.0
19.75 9.25 0.0
19.75 9.75 0.0
19.75 10.25 0.0
19.75 10.75 0.0
19.75 11.25 0.0
19.75 11.75 0.0
19.75 12.25 0.0
19.75 12.75 0.0
19.75 13.25 0.0
19.75 13.75 0.0
19.75 14.25 0.0
19.75 14.75 0.0
19.75 15.25 0.0
19.75 15.75 0.0
19.75 16.25 0.0
19.75 16.75 0.0
19.75 17.25 0.0
19.75 17.75 0.0
19.75 18.25 0.0
19.75 18.75 0.0
19.75 19.25 0.0
19.75 19.75 0.0
19.75 20.25 0.0
19.75 20.75 0.0
19.75 21.25 0.0
19.75 22.25 0.0
19.75 23.25 0.0
19.75 23.75 0.0
19.75 24.25 0.0
19.75 24.75 0.0
19.75 25.25 0.0
19.75 25.75 0.0
20.25 10.25 0.0
20.25 10.75 0.0
20.25 11.25 0.0
20.25 11.75 0.0
20.25 12.25 0.0
20.25 12.75 0.0
20.25 13.25 0.0
20.25 13.75 0.0
20.25 14.25 0.0
20.25 14.75 0.0
20.25 15.25 0.0
20.25 15.75 0.0
20.25 16.25 0.0
20.25 16.75 0.0
20.25 17.25 0.0
20.25 17.75 0.0
20.25 18.25 0.0
20.25 18.75 0.0
20.25 19.25 0.0
20.25 19.75 0.0
20.25 20.25 0.0
20.25 23.75 0.0
20.25 24.25 0.0
20.25 24.75 0.0
20.25 25.25 0.0
20.25 25.75 0.0
20.75 11.75 0.0
20.75 12.25 0.0
20.75 12.75 0.0
20.75 13.25 0.0
20.75 13.75 0.0
20.75 14.25 0.0
20.75 14.75 0.0
20.75 15.25 0.0
20.75 15.75 0.0
20.75 16.25 0.0
20.75 16.75 0.0
20.75 17.25 0.0
20.75 17.75 0.0
20.75 18.25 0.0
20.75 18.75 0.0
20.75 23.75 0.0
20.75 24.25 0.0
20.75 24.75 0.0
20.75 25.25 0.0
20.75 25.75 0.0
21.25 12.25 0.0
21.25 12.75 0.0
21.25 14.25 0.0
21.25 14.75 0.0
21.25 15.75 0.0
21.25 16.25 0.0
21.25 16.75 0.0
21.25 17.25 0.0
21.25 17.75 0.0
21.25 18.25 0.0
21.25 23.75 0.0
21.25 24.25 0.0
21.25 24.75 0.0
21.25 25.25 0.0
21.25 25.75 0.0
21.25 26.25 0.0
21.75 15.75 0.0
21.75 16.25 0.0
21.75 16.75 0.0
21.75 17.25 0.0
21.75 17.75 0.0
21.75 24.75 0.0
21.75 25.25 0.0
21.75 25.75 0.0
21.75 26.25 0.0
21.75 26.75 0.0
22.25 15.75 0.0
22.25 16.25 0.0
22.25 16.75 0.0
22.25 17.25 0.0
22.25 17.75 0.0
22.25 24.75 0.0
22.25 25.25 0.0
22.25 25.75 0.0
22.25 26.25 0.0
22.25 26.75 0.0
22.25 27.25 0.0
22.75 15.75 0.0
22.75 16.25 0.0
22.75 16.75 0.0
22.75 17.25 0.0
22.75 17.75 0.0
22.75 18.25 0.0
22.75 18.75 0.0
22.75 24.75 0.0
22.75 25.25 0.0
22.75 25.75 0.0
22.75 26.25 0.0
22.75 26.75 0.0
22.75 27.25 0.0
23.25 16.75 0.0
23.25 17.25 0.0
23.25 17.75 0.0
23.25 18.25 0.0
23.25 18.75 0.0
23.25 25.25 0.0
23.25 25.75 0.0
23.25 26.25 0.0
23.25 26.75 0.0
23.25 27.25 0.0
23.25 27.75 0.0
23.75 16.75 0.0
23.75 17.25 0.0
23.75 17.75 0.0
23.75 18.25 0.0
23.75 18.75 0.0
23.75 25.75 0.0
23.75 26.25 0.0
23.75 26.75 0.0
23.75 27.25 0.0
23.75 27.75 0.0
23.75 28.25 0.0
24.25 16.75 0.0
24.25 17.25 0.0
24.25 17.75 0.0
24.25 18.25 0.0
24.25 18.75 0.0
24.25 26.25 0.0
24.25 26.75 0.0
24.25 27.25 0.0
24.25 27.75 0.0
24.25 28.25 0.0
24.75 17.25 0.0
24.75 17.75 0.0
24.75 18.25 0.0
24.75 18.75 0.0
24.75 19.25 0.0
24.75 26.25 0.0
24.75 26.75 0.0
24.75 27.25 0.0
24.75 27.75 0.0
24.75 28.25 0.0
25.25 17.25 0.0
25.25 17.75 0.0
25.25 18.25 0.0
25.25 18.75 0.0
25.25 19.25 0.0
25.25 19.75 0.0
25.25 26.25 0.0
25.25 26.75 0.0
25.25 27.25 0.0
25.25 27.75 0.0
25.25 28.25 0.0
25.25 28.75 0.0
25.25 29.25 0.0
25.75 17.25 0.0
25.75 17.75 0.0
25.75 18.25 0.0
25.75 18.75 0.0
25.75 19.25 0.0
25.75 19.75 0.0
25.75 26.75 0.0
25.75 27.25 0.0
25.75 27.75 0.0
25.75 28.25 0.0
25.75 28.75 0.0
25.75 29.25 0.0
26.25 17.25 0.0
26.25 17.75 0.0
26.25 18.25 0.0
26.25 18.75 0.0
26.25 19.25 0.0
26.25 19.75 0.0
26.25 20.25 0.0
26.25 27.25 0.0
26.25 27.75 0.0
26.25 28.25 0.0
26.25 28.75 0.0
26.25 29.25 0.0
26.25 29.75 0.0
26.25 31.25 0.0
26.25 31.75 0.0
26.75 18.25 0.0
26.75 18.75 0.0
26.75 19.25 0.0
26.75 19.75 0.0
26.75 20.25 0.0
26.75 27.25 0.0
26.75 27.75 0.0
26.75 28.25 0.0
26.75 28.75 0.0
26.75 29.25 0.0
26.75 29.75 0.0
26.75 30.25 0.0
26.75 31.25 0.0
26.75 31.75 0.0
26.75 32.25 0.0
26.75 32.75 0.0
27.25 18.25 0.0
27.25 18.75 0.0
27.25 19.25 0.0
27.25 19.75 0.0
27.25 20.25 0.0
27.25 20.75 0.0
27.25 28.25 0.0
27.25 28.75 0.0
27.25 29.25 0.0
27.25 29.75 0.0
27.25 30.25 0.0
27.25 30.75 0.0
27.25 31.25 0.0
27.25 31.75 0.0
27.25 32.25 0.0
27.25 32.75 0.0
27.75 18.25 0.0
27.75 18.75 0.0
27.75 19.25 0.0
27.75 19.75 0.0
27.75 20.25 0.0
27.75 20.75 0.0
27.75 28.25 0.0
27.75 28.75 0.0
27.75 29.25 0.0
27.75 29.75 0.0
27.75 30.25 0.0
27.75 30.75 0.0
27.75 31.25 0.0
27.75 31.75 0.0
27.75 32.25 0.0
27.75 32.75 0.0
28.25 19.25 0.0
28.25 19.75 0.0
28.25 20.25 0.0
28.25 20.75 0.0
28.25 21.25 0.0
28.25 21.75 0.0
28.25 28.25 0.0
28.25 28.75 0.0
28.25 29.25 0.0
28.25 29.75 0.0
28.25 30.25 0.0
28.25 30.75 0.0
28.25 31.25 0.0
28.25 31.75 0.0
28.25 32.25 0.0
28.25 32.75 0.0
28.25 33.25 0.0
28.75 19.25 0.0
28.75 19.75 0.0
28.75 20.25 0.0
28.75 20.75 0.0
28.75 21.25 0.0
28.75 21.75 0.0
28.75 28.75 0.0
28.75 29.25 0.0
28.75 29.75 0.0
28.75 30.25 0.0
28.75 30.75 0.0
28.75 31.25 0.0
28.75 31.75 0.0
28.75 32.25 0.0
28.75 32.75 0.0
28.75 33.25 0.0
29.25 19.25 0.0
29.25 19.75 0.0
29.25 20.25 0.0
29.25 20.75 0.0
29.25 21.25 0.0
29.25 21.75 0.0
29.25 29.25 0.0
29.25 29.75 0.0
29.25 30.25 0.0
29.25 30.75 0.0
29.25 31.25 0.0
29.25 31.75 0.0
29.25 32.25 0.0
29.25 32.75 0.0
29.75 19.75 0.0
29.75 20.25 0.0
29.75 20.75 0.0
29.75 21.25 0.0
29.75 21.75 0.0
29.75 22.25 0.0
29.75 22.75 0.0
29.75 29.75 0.0
29.75 30.25 0.0
29.75 30.75 0.0
29.75 31.25 0.0
29.75 31.75 0.0
29.75 32.25 0.0
29.75 32.75 0.0
30.25 20.25 0.0
30.25 20.75 0.0
30.25 21.25 0.0
30.25 21.75 0.0
30.25 22.25 0.0
30.25 22.75 0.0
30.25 30.25 0.0
30.25 30.75 0.0
30.25 31.25 0.0
30.25 31.75 0.0
30.25 32.25 0.0
30.25 32.75 0.0
30.25 33.25 0.0
30.25 33.75 0.0
30.75 20.75 0.0
30.75 21.25 0.0
30.75 21.75 0.0
30.75 22.25 0.0
30.75 22.75 0.0
30.75 30.75 0.0
30.75 31.25 0.0
30.75 31.75 0.0
30.75 32.25 0.0
30.75 32.75 0.0
30.75 33.25 0.0
30.75 33.75 0.0
30.75 34.25 0.0
31.25 20.75 0.0
31.25 21.25 0.0
31.25 21.75 0.0
31.25 22.25 0.0
31.25 22.75 0.0
31.25 23.25 0.0
31.25 31.25 0.0
31.25 31.75 0.0
31.25 32.25 0.0
31.25 32.75 0.0
31.25 33.25 0.0
31.25 33.75 0.0
31.25 34.25 0.0
31.25 34.75 0.0
31.75 20.75 0.0
31.75 21.25 0.0
31.75 21.75 0.0
31.75 22.25 0.0
31.75 22.75 0.0
31.75 23.25 0.0
31.75 23.75 0.0
31.75 31.25 0.0
31.75 31.75 0.0
31.75 32.25 0.0
31.75 32.75 0.0
31.75 33.25 0.0
31.75 33.75 0.0
31.75 34.25 0.0
31.75 34.75 0.0
31.75 35.25 0.0
31.75 35.75 0.0
31.75 36.25 0.0
32.25 21.75 0.0
32.25 22.25 0.0
32.25 22.75 0.0
32.25 23.25 0.0
32.25 23.75 0.0
32.25 24.25 0.0
32.25 30.75 0.0
32.25 31.25 0.0
32.25 31.75 0.0
32.25 32.25 0.0
32.25 32.75 0.0
32.25 33.25 0.0
32.25 33.75 0.0
32.25 34.25 0.0
32.25 34.75 0.0
32.25 35.25 0.0
32.25 35.75 0.0
32.25 36.25 0.0
32.25 36.75 0.0
32.75 21.75 0.0
32.75 22.25 0.0
32.75 22.75 0.0
32.75 23.25 0.0
32.75 23.75 0.0
32.75 24.25 0.0
32.75 31.25 0.0
32.75 31.75 0.0
32.75 32.25 0.0
32.75 32.75 0.0
32.75 33.25 0.0
32.75 33.75 0.0
32.75 34.25 0.0
32.75 34.75 0.0
32.75 35.25 0.0
32.75 35.75 0.0
32.75 36.25 0.0
32.75 36.75 0.0
32.75 37.25 0.0
32.75 37.75 0.0
33.25 21.75 0.0
33.25 22.25 0.0
33.25 22.75 0.0
33.25 23.25 0.0
33.25 23.75 0.0
33.25 24.25 0.0
33.25 24.75 0.0
33.25 31.25 0.0
33.25 31.75 0.0
33.25 32.25 0.0
33.25 32.75 0.0
33.25 33.25 0.0
33.25 33.75 0.0
33.25 34.25 0.0
33.25 34.75 0.0
33.25 35.25 0.0
33.25 35.75 0.0
33.25 36.25 0.0
33.25 36.75 0.0
33.25 37.25 0.0
33.25 37.75 0.0
33.25 38.25 0.0
33.75 22.75 0.0
33.75 23.25 0.0
33.75 23.75 0.0
33.75 24.25 0.0
33.75 24.75 0.0
33.75 25.25 0.0
33.75 31.25 0.0
33.75 31.75 0.0
33.75 32.25 0.0
33.75 32.75 0.0
33.75 33.25 0.0
33.75 33.75 0.0
33.75 34.75 0.0
33.75 35.25 0.0
33.75 35.75 0.0
33.75 36.25 0.0
33.75 36.75 0.0
33.75 37.25 0.0
33.75 37.75 0.0
33.75 38.25 0.0
33.75 38.75 0.0
33.75 39.25 0.0
34.25 22.75 0.0
34.25 23.25 0.0
34.25 23.75 0.0
34.25 24.25 0.0
34.25 24.75 0.0
34.25 25.25 0.0
34.25 31.25 0.0
34.25 31.75 0.0
34.25 32.25 0.0
34.25 32.75 0.0
34.25 33.25 0.0
34.25 33.75 0.0
34.25 35.75 0.0
34.25 36.25 0.0
34.25 36.75 0.0
34.25 37.25 0.0
34.25 37.75 0.0
34.25 38.25 0.0
34.25 38.75 0.0
34.25 39.25 0.0
34.25 39.75 0.0
34.25 40.25 0.0
34.75 23.25 0.0
34.75 23.75 0.0
34.75 24.25 0.0
34.75 24.75 0.0
34.75 25.25 0.0
34.75 31.25 0.0
34.75 31.75 0.0
34.75 32.25 0.0
34.75 32.75 0.0
34.75 33.25 0.0
34.75 36.75 0.0
34.75 37.25 0.0
34.75 37.75 0.0
34.75 38.25 0.0
34.75 38.75 0.0
34.75 39.25 0.0
34.75 39.75 0.0
34.75 40.25 0.0
34.75 40.75 0.0
35.25 23.25 0.0
35.25 23.75 0.0
35.25 24.25 0.0
35.25 24.75 0.0
35.25 25.25 0.0
35.25 25.75 0.0
35.25 31.25 0.0
35.25 31.75 0.0
35.25 32.25 0.0
35.25 32.75 0.0
35.25 33.25 0.0
35.25 37.25 0.0
35.25 37.75 0.0
35.25 38.25 0.0
35.25 38.75 0.0
35.25 39.25 0.0
35.25 39.75 0.0
35.25 40.25 0.0
35.25 40.75 0.0
35.25 41.25 0.0
35.25 41.75 0.0
35.25 42.25 0.0
35.25 42.75 0.0
35.75 23.75 0.0
35.75 24.25 0.0
35.75 24.75 0.0
35.75 25.25 0.0
35.75 25.75 0.0
35.75 26.25 0.0
35.75 31.25 0.0
35.75 31.75 0.0
35.75 32.25 0.0
35.75 32.75 0.0
35.75 33.25 0.0
35.75 38.75 0.0
35.75 39.25 0.0
35.75 39.75 0.0
35.75 40.25 0.0
35.75 40.75 0.0
35.75 41.25 0.0
35.75 41.75 0.0
35.75 42.25 0.0
35.75 42.75 0.0
35.75 43.25 0.0
36.25 24.25 0.0
36.25 24.75 0.0
36.25 25.25 0.0
36.25 25.75 0.0
36.25 26.25 0.0
36.25 31.75 0.0
36.25 32.25 0.0
36.25 32.75 0.0
36.25 33.25 0.0
36.25 33.75 0.0
36.25 39.25 0.0
36.25 39.75 0.0
36.25 40.25 0.0
36.25 40.75 0.0
36.25 41.25 0.0
36.25 41.75 0.0
36.25 42.25 0.0
36.25 42.75 0.0
36.25 43.25 0.0
36.25 43.75 0.0
36.25 44.25 0.0
36.75 24.25 0.0
36.75 24.75 0.0
36.75 25.25 0.0
36.75 25.75 0.0
36.75 26.25 0.0
36.75 26.75 0.0
36.75 27.25 0.0
36.75 31.75 0.0
36.75 32.25 0.0
36.75 32.75 0.0
36.75 33.25 0.0
36.75 39.75 0.0
36.75 40.25 0.0
36.75 40.75 0.0
36.75 41.25 0.0
36.75 41.75 0.0
36.75 42.25 0.0
36.75 42.75 0.0
36.75 43.25 0.0
36.75 43.75 0.0
36.75 44.25 0.0
36.75 44.75 0.0
36.75 45.25 0.0
37.25 24.75 0.0
37.25 25.25 0.0
37.25 25.75 0.0
37.25 26.25 0.0
37.25 26.75 0.0
37.25 27.25 0.0
37.25 31.25 0.0
37.25 31.75 0.0
37.25 32.25 0.0
37.25 32.75 0.0
37.25 33.25 0.0
37.25 41.75 0.0
37.25 42.25 0.0
37.25 42.75 0.0
37.25 43.25 0.0
37.25 43.75 0.0
37.25 44.25 0.0
37.25 44.75 0.0
37.25 45.25 0.0
37.75 24.75 0.0
37.75 25.25 0.0
37.75 25.75 0.0
37.75 26.25 0.0
37.75 26.75 0.0
37.75 27.25 0.0
37.75 31.25 0.0
37.75 31.75 0.0
37.75 32.25 0.0
37.75 32.75 0.0
37.75 33.25 0.0
37.75 42.25 0.0
37.75 42.75 0.0
37.75 43.25 0.0
37.75 43.75 0.0
37.75 44.25 0.0
37.75 44.75 0.0
37.75 45.25 0.0
38.25 25.25 0.0
38.25 25.75 0.0
38.25 26.25 0.0
38.25 26.75 0.0
38.25 27.25 0.0
38.25 31.75 0.0
38.25 32.25 0.0
38.25 32.75 0.0
38.25 33.25 0.0
38.25 33.75 0.0
38.25 43.25 0.0
38.25 43.75 0.0
38.25 44.25 0.0
38.25 44.75 0.0
38.25 45.25 0.0
38.25 45.75 0.0
38.75 25.25 0.0
38.75 25.75 0.0
38.75 26.25 0.0
38.75 26.75 0.0
38.75 27.25 0.0
38.75 27.75 0.0
38.75 28.25 0.0
38.75 31.75 0.0
38.75 32.25 0.0
38.75 32.75 0.0
38.75 33.25 0.0
38.75 33.75 0.0
39.25 25.75 0.0
39.25 26.25 0.0
39.25 26.75 0.0
39.25 27.25 0.0
39.25 27.75 0.0
39.25 28.25 0.0
39.25 31.25 0.0
39.25 31.75 0.0
39.25 32.25 0.0
39.25 32.75 0.0
39.25 33.25 0.0
39.75 26.25 0.0
39.75 26.75 0.0
39.75 27.25 0.0
39.75 27.75 0.0
39.75 28.25 0.0
39.75 31.25 0.0
39.75 31.75 0.0
39.75 32.25 0.0
39.75 32.75 0.0
39.75 33.25 0.0
40.25 26.25 0.0
40.25 26.75 0.0
40.25 27.25 0.0
40.25 27.75 0.0
40.25 28.25 0.0
40.25 31.75 0.0
40.25 32.25 0.0
40.25 32.75 0.0
40.25 33.25 0.0
40.25 33.75 0.0
40.75 26.75 0.0
40.75 27.25 0.0
40.75 27.75 0.0
40.75 28.25 0.0
40.75 28.75 0.0
40.75 29.25 0.0
40.75 31.75 0.0
40.75 32.25 0.0
40.75 32.75 0.0
40.75 33.25 0.0
40.75 33.75 0.0
41.25 26.75 0.0
41.25 27.25 0.0
41.25 27.75 0.0
41.25 28.25 0.0
41.25 28.75 0.0
41.25 29.25 0.0
41.25 31.25 0.0
41.25 31.75 0.0
41.25 32.25 0.0
41.25 32.75 0.0
41.25 33.25 0.0
41.75 27.25 0.0
41.75 27.75 0.0
41.75 28.25 0.0
41.75 28.75 0.0
41.75 29.25 0.0
41.75 31.25 0.0
41.75 31.75 0.0
41.75 32.25 0.0
41.75 32.75 0.0
41.75 33.25 0.0
41.75 33.75 0.0
42.25 27.25 0.0
42.25 27.75 0.0
42.25 28.25 0.0
42.25 28.75 0.0
42.25 29.25 0.0
42.25 29.75 0.0
42.25 31.75 0.0
42.25 32.25 0.0
42.25 32.75 0.0
42.25 33.25 0.0
42.25 33.75 0.0
42.75 27.75 0.0
42.75 28.25 0.0
42.75 28.75 0.0
42.75 29.25 0.0
42.75 29.75 0.0
42.75 30.25 0.0
42.75 31.75 0.0
42.75 32.25 0.0
42.75 32.75 0.0
42.75 33.25 0.0
43.25 28.25 0.0
43.25 28.75 0.0
43.25 29.25 0.0
43.25 29.75 0.0
43.25 30.25 0.0
43.25 31.75 0.0
43.25 32.25 0.0
43.25 32.75 0.0
43.25 33.25 0.0
43.75 28.25 0.0
43.75 28.75 0.0
43.75 29.25 0.0
43.75 29.75 0.0
43.75 30.25 0.0
43.75 30.75 0.0
43.75 31.25 0.0
43.75 31.75 0.0
43.75 32.25 0.0
43.75 32.75 0.0
43.75 33.25 0.0
43.75 33.75 0.0
44.25 28.25 0.0
44.25 28.75 0.0
44.25 29.25 0.0
44.25 29.75 0.0
44.25 30.25 0.0
44.25 30.75 0.0
44.25 31.25 0.0
44.25 31.75 0.0
44.25 32.25 0.0
44.25 32.75 0.0
44.25 33.25 0.0
44.75 28.75 0.0
44.75 29.25 0.0
44.75 29.75 0.0
44.75 30.25 0.0
44.75 30.75 0.0
44.75 31.25 0.0
44.75 31.75 0.0
44.75 32.25 0.0
44.75 32.75 0.0
44.75 33.25 0.0
45.25 29.25 0.0
45.25 29.75 0.0
45.25 30.25 0.0
45.25 30.75 0.0
45.25 31.25 0.0
45.25 31.75 0.0
45.25 32.25 0.0
45.25 32.75 0.0
45.25 33.25 0.0
45.75 29.25 0.0
45.75 29.75 0.0
45.75 30.25 0.0
45.75 30.75 0.0
45.75 31.25 0.0
45.75 31.75 0.0
45.75 32.25 0.0
45.75 32.75 0.0
45.75 33.25 0.0
46.25 29.75 0.0
46.25 30.25 0.0
46.25 30.75 0.0
46.25 31.25 0.0
46.25 31.75 0.0
46.25 32.25 0.0
46.25 32.75 0.0
46.25 33.25 0.0
46.75 30.25 0.0
46.75 30.75 0.0
46.75 31.25 0.0
46.75 31.75 0.0
46.75 32.25 0.0
46.75 32.75 0.0
47.25 30.75 0.0
47.25 31.25 0.0
47.25 31.75 0.0
