ply
format ascii 1.0
element vertex 1600
property float x
property float y
property float z
end_header
-1.2610628604888916 -0.4889943301677704 -0.0037652039900422096
-1.2667739391326904 -0.4539310932159424 -0.002230960177257657
-1.2711340188980103 -0.42039814591407776 -0.0008957281243056059
-1.274217128753662 -0.3885643482208252 0.0002376312477281317
-1.2761262655258179 -0.358535498380661 0.0011711514089256525
-1.2769898176193237 -0.3303544819355011 0.0019113097805529833
-1.2769545316696167 -0.3040032684803009 0.0024684083182364702
-1.2761807441711426 -0.27940788865089417 0.002855855505913496
-1.2748363018035889 -0.2564445734024048 0.003089413046836853
-1.2730931043624878 -0.23494663834571838 0.0031864740885794163
-1.271121621131897 -0.214710995554924 0.003165400354191661
-1.2690918445587158 -0.195504829287529 0.0030449696350842714
-1.2671680450439453 -0.1770702451467514 0.002843929687514901
-1.2655117511749268 -0.15912814438343048 0.002580680651590228
-1.2642476558685303 -0.14141111075878143 0.0022712573409080505
-1.2633687257766724 -0.12376654893159866 0.0019239832181483507
-1.2628369331359863 -0.10607831180095673 0.0015452910447493196
-1.2626148462295532 -0.08823694288730621 0.0011416426859796047
-1.2626657485961914 -0.07013962417840958 0.0007195789949037135
-1.2629541158676147 -0.051689885556697845 0.00028575322357937694
-1.2634440660476685 -0.032798003405332565 -0.00015304028056561947
-1.2640994787216187 -0.013380843214690685 -0.0005898635135963559
-1.2648845911026 0.0066372486762702465 -0.0010176260257139802
-1.2657625675201416 0.027324168011546135 -0.0014291051775217056
-1.2666969299316406 0.048739075660705566 -0.001816967036575079
-1.2676504850387573 0.07093193382024765 -0.0021738121286034584
-1.2685860395431519 0.09394253045320511 -0.0024922280572354794
-1.2694579362869263 0.11778540909290314 -0.002763199619948864
-1.2701890468597412 0.14241963624954224 -0.002971382811665535
-1.2706959247589111 0.1678142100572586 -0.003100308822467923
-1.2708964347839355 0.19396761059761047 -0.0031338976696133614
-1.27070951461792 0.22090934216976166 -0.0030561794992536306
-1.270053505897522 0.24870216846466064 -0.0028509306721389294
-1.2688446044921875 0.2774444818496704 -0.002501212991774082
-1.2669936418533325 0.30727359652519226 -0.0019888170063495636
-1.2644046545028687 0.3383709192276001 -0.001293578534387052
-1.260970115661621 0.3709682524204254 -0.00039253829163499177
-1.2565666437149048 0.4053572416305542 0.0007411129190586507
-1.2510496377944946 0.44190239906311035 0.0021393843926489353
-1.2442452907562256 0.481059193611145 0.0038412550929933786
-1.1890326738357544 -0.4891289472579956 -0.0037652039900422096
-1.1998188495635986 -0.4576556980609894 -0.00222519738599658
-1.2084800004959106 -0.42688462138175964 -0.00088590505765751
-1.215101718902588 -0.3970161974430084 0.00025089867995120585
-1.2198169231414795 -0.36820489168167114 0.0011884091654792428
-1.2227985858917236 -0.34055665135383606 0.001934283645823598
-1.2242521047592163 -0.3141278922557831 0.002499974798411131
-1.2244046926498413 -0.28892746567726135 0.0028999773785471916
-1.2234983444213867 -0.2649199068546295 0.0031510500703006983
-1.2217820882797241 -0.24202953279018402 0.0032714842818677425
-1.2195067405700684 -0.2201453000307083 0.0032804463990032673
-1.216920018196106 -0.199125275015831 0.0031974324956536293
-1.214263677597046 -0.17880085110664368 0.003041849471628666
-1.2117743492126465 -0.15897981822490692 0.0028327214531600475
-1.209637999534607 -0.1394653022289276 0.0025863933842629194
-1.2078644037246704 -0.1201169416308403 0.0023102660197764635
-1.2064207792282104 -0.100816510617733 0.0020095084328204393
-1.2052768468856812 -0.08145271986722946 0.0016892753774300218
-1.204402208328247 -0.061920732259750366 0.0013547419803217053
-1.2037687301635742 -0.042121876031160355 0.001011132262647152
-1.2033476829528809 -0.021963708102703094 0.0006637417245656252
-1.2031115293502808 -0.0013597147772088647 0.0003179438353981823
-1.2030328512191772 0.019770098850131035 -2.0797850083908997e-05
-1.2030839920043945 0.041499100625514984 -0.0003469401563052088
-1.2032381296157837 0.0638933777809143 -0.0006548662204295397
-1.2034670114517212 0.0870114117860794 -0.0009389112237840891
-1.203743577003479 0.11090342700481415 -0.0011933891801163554
-1.204030156135559 0.13558612763881683 -0.0014112862991169095
-1.2042474746704102 0.16098015010356903 -0.0015803741989657283
-1.2043070793151855 0.18700353801250458 -0.0016874007415026426
-1.2041212320327759 0.21360047161579132 -0.0017193324165418744
-1.2036030292510986 0.24074217677116394 -0.0016631587641313672
-1.2026634216308594 0.26842811703681946 -0.0015056373085826635
-1.2012118101119995 0.2966870367527008 -0.001232971902936697
-1.1991527080535889 0.3255787193775177 -0.0008304225630126894
-1.1963839530944824 0.3551959991455078 -0.00028182711685076356
-1.1927931308746338 0.3856685161590576 0.00043098293826915324
-1.1882535219192505 0.4171670377254486 0.0013289125636219978
-1.1826194524765015 0.44991084933280945 0.0024365230929106474
-1.1757194995880127 0.4841768145561218 0.0037832229863852262
-1.1178056001663208 -0.48912134766578674 -0.003765203757211566
-1.133194088935852 -0.4606568515300751 -0.0022226388100534678
-1.1458028554916382 -0.4321894347667694 -0.0008812607266008854
-1.1557226181030273 -0.4039488136768341 0.00025789946084842086
-1.163109302520752 -0.3761337995529175 0.001198843470774591
-1.1681723594665527 -0.3489060699939728 0.0019500621128827333
-1.1711643934249878 -0.3223872184753418 0.002523835515603423
-1.1723690032958984 -0.2966575026512146 0.002935452852398157
-1.1720906496047974 -0.2717565894126892 0.00320242065936327
-1.17064368724823 -0.247685506939888 0.0033437178935855627
-1.1683461666107178 -0.22440974414348602 0.0033791421446949244
-1.1655124425888062 -0.2018623799085617 0.0033287713304162025
-1.1624499559402466 -0.17994743585586548 0.003212556941434741
-1.1594586372375488 -0.15854282677173615 0.0030500537250190973
-1.1567763090133667 -0.137508362531662 0.0028578678611665964
-1.1544268131256104 -0.11671512573957443 0.0026425786782056093
-1.1523821353912354 -0.09604519605636597 0.0024082546588033438
-1.15061616897583 -0.07538750767707825 0.0021589279640465975
-1.1491036415100098 -0.05463715270161629 0.0018986216746270657
-1.1478208303451538 -0.033695071935653687 0.0016313717933371663
-1.1467446088790894 -0.012467935681343079 0.0013612456386908889
-1.1458529233932495 0.00913228839635849 0.0010923496447503567
-1.1451236009597778 0.03118794783949852 0.000828840013127774
-1.1445353031158447 0.05377579107880592 0.0005749203846789896
-1.1440666913986206 0.07696643471717834 0.00033484207233414054
-1.1436965465545654 0.10082435607910156 0.00011289051326457411
-1.1434041261672974 0.12540729343891144 -8.662683103466406e-05
-1.1431574821472168 0.150734081864357 -0.00025839064619503915
-1.1428803205490112 0.17669866979122162 -0.0003931289247702807
-1.1424856185913086 0.20318205654621124 -0.0004807415825780481
-1.1418869495391846 0.2300872653722763 -0.0005112406215630472
-1.1409968137741089 0.2573396861553192 -0.00047462157090194523
-1.1397274732589722 0.2848876714706421 -0.0003606980899348855
-1.1379879713058472 0.3127024471759796 -0.000158893468324095
-1.135683298110962 0.34077879786491394 0.0001420113112544641
-1.132712721824646 0.36913543939590454 0.0005541839636862278
-1.1289669275283813 0.3978160619735718 0.0010911129647865891
-1.1243245601654053 0.42689117789268494 0.0017680664313957095
-1.1186482906341553 0.4564605951309204 0.0026026605628430843
-1.1117801666259766 0.4866574704647064 0.0036155846901237965
-1.0476993322372437 -0.48898500204086304 -0.0037652042228728533
-1.0671412944793701 -0.46293768286705017 -0.002223869552835822
-1.0832746028900146 -0.4363154172897339 -0.0008828335558064282
-1.0961897373199463 -0.4093724489212036 0.00025725908926688135
-1.1060551404953003 -0.38234370946884155 0.0012008516350761056
-1.1131057739257812 -0.3554369807243347 0.0019569145515561104
-1.117629885673523 -0.3288272023200989 0.0025382309686392546
-1.1199555397033691 -0.30265289545059204 0.0029605969320982695
-1.1204359531402588 -0.2770144045352936 0.003242016304284334
-1.1194393634796143 -0.2519746422767639 0.0034019534941762686
-1.1173382997512817 -0.2275599092245102 0.0034606701228767633
-1.114502191543579 -0.20376268029212952 0.003438694169744849
-1.1112937927246094 -0.18054386973381042 0.003356418339535594
-1.1080647706985474 -0.1578357070684433 0.003233838127925992
-1.1050971746444702 -0.13554193079471588 0.003087782533839345
-1.1024259328842163 -0.1135447770357132 0.002924122614786029
-1.1000266075134277 -0.09172911942005157 0.002745984820649028
-1.0978761911392212 -0.06998629122972488 0.0025564541574567556
-1.095953106880188 -0.048213567584753036 0.002358595374971628
-1.0942367315292358 -0.026313552632927895 0.0021554685663431883
-1.0927073955535889 -0.004194131586700678 0.0019501418573781848
-1.0913465023040771 0.018232174217700958 0.0017457017675042152
-1.0901352167129517 0.041047848761081696 0.001545259729027748
-1.0890560150146484 0.06433063745498657 0.0013519554631784558
-1.0880913734436035 0.08815315365791321 0.0011689579114317894
-1.0872241258621216 0.11258309334516525 0.0009994602296501398
-1.0864373445510864 0.13768263161182404 0.0008466746076010168
-1.0857040882110596 0.16347214579582214 0.0007144793635234237
-1.0849558115005493 0.18982923030853271 0.0006093375268392265
-1.084113597869873 0.21661046147346497 0.0005382748786360025
-1.0830984115600586 0.24368983507156372 0.0005082666757516563
-1.081830382347107 0.27095890045166016 0.0005263131461106241
-1.0802286863327026 0.2983267605304718 0.000599536404479295
-1.0782099962234497 0.3257195055484772 0.0007352996035479009
-1.0756877660751343 0.35308003425598145 0.0009413501829840243
-1.0725706815719604 0.3803677558898926 0.0012259942013770342
-1.0687603950500488 0.40755781531333923 0.0015983012272045016
-1.0641502141952515 0.4346414804458618 0.002068357542157173
-1.0586212873458862 0.461625874042511 0.0026475710328668356
-1.0520387887954712 0.48853442072868347 0.0033490511123090982
-0.9789074659347534 -0.48873835802078247 -0.0037652035243809223
-1.0018069744110107 -0.4645249545574188 -0.0022294246591627598
-1.0209972858428955 -0.43930113315582275 -0.0008916044025681913
-1.036558985710144 -0.41333821415901184 0.00024764580302871764
-1.0486631393432617 -0.3868979513645172 0.0011928509920835495
-1.0575588941574097 -0.3602229058742523 0.00195311417337507
-1.0635578632354736 -0.3335282802581787 0.0025413967669010162
-1.0670188665390015 -0.30699682235717773 0.002973715076223016
-1.0683327913284302 -0.28077518939971924 0.0032683296594768763
-1.0679084062576294 -0.25497275590896606 0.0034449829254299402
-1.0661617517471313 -0.22966186702251434 0.003524239407852292
-1.0635063648223877 -0.2048790454864502 0.0035269425716251135
-1.0603491067886353 -0.18062736093997955 0.003473821561783552
-1.0570855140686035 -0.15687872469425201 0.003385227872058749
-1.054032802581787 -0.13356913626194 0.003278173506259918
-1.051235556602478 -0.11059176176786423 0.003157934872433543
-1.0486713647842407 -0.08783671259880066 0.0030268540140241385
-1.0463199615478516 -0.06520015001296997 0.0028872357215732336
-1.0441617965698242 -0.042583659291267395 0.002741360804066062
-1.0421782732009888 -0.019893690943717957 0.002591499127447605
-1.0403517484664917 0.0029585191514343023 0.0024399186950176954
-1.0386656522750854 0.026057668030261993 0.0022888947278261185
-1.0371034145355225 0.04948408901691437 0.0021407122258096933
-1.035649061203003 0.0733141079545021 0.0019976727198809385
-1.0342873334884644 0.09761973470449448 0.0018620959017425776
-1.033003330230713 0.12246895581483841 0.0017363176448270679
-1.0317822694778442 0.14792536199092865 0.0016226882580667734
-1.0306012630462646 0.1740099936723709 0.0015238591004163027
-1.0294052362442017 0.20059317350387573 0.0014436253113672137
-1.0281298160552979 0.22751839458942413 0.0013860296458005905
-1.0267112255096436 0.2546420097351074 0.001355095999315381
-1.0250837802886963 0.2818330228328705 0.0013548660790547729
-1.0231813192367554 0.30897292494773865 0.0013894459698349237
-1.0209362506866455 0.3359549641609192 0.001463061198592186
-1.0182781219482422 0.3626835346221924 0.0015801225090399384
-1.0151331424713135 0.3890734314918518 0.001745304325595498
-1.0114229917526245 0.4150486886501312 0.0019636349752545357
-1.0070639848709106 0.440542072057724 0.002240606816485524
-1.0019642114639282 0.46549323201179504 0.002582303248345852
-0.996022641658783 0.4898485541343689 0.0029955566860735416
-0.9114813208580017 -0.4884044826030731 -0.0037652042228728533
-0.93723064661026 -0.4654686450958252 -0.002239782130345702
-0.9589905142784119 -0.4412190616130829 -0.0009084803168661892
-0.9768238663673401 -0.41593679785728455 0.00022779565188102424
-0.9908946752548218 -0.3899003863334656 0.0011733104474842548
-1.0014545917510986 -0.36337533593177795 0.0019369639921933413
-1.0088268518447876 -0.33660441637039185 0.002531585283577442
-1.0133894681930542 -0.3098006546497345 0.002973131136968732
-1.0155584812164307 -0.2831428050994873 0.0032798736356198788
-1.0157722234725952 -0.2567722797393799 0.003471632022410631
-1.0144795179367065 -0.23079299926757812 0.0035691026132553816
-1.012128472328186 -0.2052716314792633 0.00359331164509058
-1.0091606378555298 -0.1802394688129425 0.0035652099177241325
-1.0060067176818848 -0.15569457411766052 0.0035054143518209457
-1.003013253211975 -0.13159474730491638 0.0034310761839151382
-1.0002316236495972 -0.10784381628036499 0.003346988931298256
-0.9976415634155273 -0.084339439868927 0.003254861803725362
-0.9952237010002136 -0.06098473072052002 0.003156374441459775
-0.9929596185684204 -0.037687744945287704 0.0030531848315149546
-0.9908319711685181 -0.01436087116599083 0.002946938620880246
-0.9888241291046143 0.009079232811927795 0.0028392767999321222
-0.9869197607040405 0.03271231800317764 0.0027318382635712624
-0.9851037263870239 0.05661431699991226 0.0026262698229402304
-0.9833606481552124 0.0808577761054039 0.0025242241099476814
-0.9816758632659912 0.10551153868436813 0.002427364932373166
-0.980035126209259 0.1306411623954773 0.0023373656440526247
-0.9784245491027832 0.15630865097045898 0.0022559119388461113
-0.9768255949020386 0.18253470957279205 0.0021846117451786995
-0.9752017855644226 0.20919018983840942 0.0021247309632599354
-0.9735114574432373 0.23611587285995483 0.0020774370059370995
-0.9717123508453369 0.2631607949733734 0.0020438916981220245
-0.9697625041007996 0.2901822626590729 0.002025263849645853
-0.9676178693771362 0.31704533100128174 0.002022740663960576
-0.9652343392372131 0.3436223864555359 0.0020375458989292383
-0.9625657200813293 0.36979231238365173 0.0020709545351564884
-0.9595645070075989 0.395440012216568 0.0021243151277303696
-0.9561803340911865 0.42045485973358154 0.002199068432673812
-0.9523604512214661 0.44473031163215637 0.0022967762779444456
-0.9480478763580322 0.4681621491909027 0.0024191488046199083
-0.9431813359260559 0.4906473755836487 0.0025680765975266695
-0.8453195691108704 -0.48800915479660034 -0.0037652042228728533
-0.8733332753181458 -0.4658382833003998 -0.002255350351333618
-0.8971836566925049 -0.4421723186969757 -0.000934273877646774
-0.9169092178344727 -0.41729462146759033 0.0001965345727512613
-0.9326581358909607 -0.39149168133735657 0.0011407710844650865
-0.9446749687194824 -0.36504119634628296 0.0019068231340497732
-0.9532838463783264 -0.3382011950016022 0.0025070905685424805
-0.958871603012085 -0.3112025558948517 0.0029572006314992905
-0.9618688821792603 -0.2842426002025604 0.00327519653365016
-0.9627342820167542 -0.2574818730354309 0.0034807694610208273
-0.961939811706543 -0.2310425043106079 0.0035945731215178967
-0.959959864616394 -0.2050083726644516 0.003637669375166297
-0.9572631120681763 -0.17942646145820618 0.003631110768765211
-0.9543082118034363 -0.15430878102779388 0.0035956725478172302
-0.9514653086662292 -0.1296253651380539 0.003548593260347843
-0.9487913250923157 -0.10529027134180069 0.003494289005175233
-0.9462663531303406 -0.08121074736118317 0.003433982143178582
-0.9438713192939758 -0.057298727333545685 0.0033688698895275593
-0.9415885806083679 -0.03347061574459076 0.0033001352567225695
-0.9394002556800842 -0.00964659545570612 0.00322894798591733
-0.9372898936271667 0.014249295927584171 0.003156473161652684
-0.9352410435676575 0.03828992322087288 0.003083871677517891
-0.9332380890846252 0.06254477798938751 0.003012307919561863
-0.9312655329704285 0.08708037436008453 0.002942947903648019
-0.9293082356452942 0.11196009814739227 0.002876963699236512
-0.9273515343666077 0.13724453747272491 0.0028155336622148752
-0.9253809452056885 0.1629912555217743 0.002759842434898019
-0.9233828783035278 0.1892196089029312 0.0027106190100312233
-0.9213457703590393 0.2158079445362091 0.0026667420752346516
-0.9192586541175842 0.24260319769382477 0.0026266283821314573
-0.9171099662780762 0.269456684589386 0.0025886946823447943
-0.9148879051208496 0.2962239384651184 0.002551356563344598
-0.9125803709030151 0.3227643370628357 0.0025130254216492176
-0.9101747274398804 0.3489407002925873 0.0024721056688576937
-0.9076575040817261 0.3746190369129181 0.0024269893765449524
-0.9050152897834778 0.39966773986816406 0.0023760502226650715
-0.9022334218025208 0.4239571690559387 0.002317636040970683
-0.8992965817451477 0.44735872745513916 0.002250061137601733
-0.8961884379386902 0.46974414587020874 0.002171593951061368
-0.8928919434547424 0.49098461866378784 0.0020804472733289003
-0.780168890953064 -0.48758023977279663 -0.0037652039900422096
-0.8099164366722107 -0.46572041511535645 -0.002276471583172679
-0.8354127407073975 -0.44228991866111755 -0.0009697037166915834
-0.8566678166389465 -0.41756942868232727 0.00015278745559044182
-0.8738070726394653 -0.39184558391571045 0.0010938644409179688
-0.8870598673820496 -0.3653990626335144 0.0018611253472045064
-0.8967434763908386 -0.3384934663772583 0.002466269303113222
-0.9032447934150696 -0.31136590242385864 0.002924335654824972
-0.9070010781288147 -0.2842210531234741 0.0032529060263186693
-0.9084832072257996 -0.25722673535346985 0.0034713323693722486
-0.9081792831420898 -0.23051172494888306 0.003600045572966337
-0.9065830111503601 -0.20416568219661713 0.003659984329715371
-0.9041846394538879 -0.1782401204109192 0.003672167658805847
-0.9014651775360107 -0.15275020897388458 0.0036574092227965593
-0.8988142013549805 -0.12766943871974945 0.003632964100688696
-0.896291971206665 -0.1029217466711998 0.0036029687616974115
-0.8938784599304199 -0.0784253403544426 0.0035682932939380407
-0.8915541172027588 -0.05410252884030342 0.0035297891590744257
-0.8893001079559326 -0.029879501089453697 0.0034882950130850077
-0.8870980143547058 -0.005685843992978334 0.0034446397330611944
-0.8849301338195801 0.018545465543866158 0.0033996484708040953
-0.8827791213989258 0.04287870600819588 0.0033541403245180845
-0.8806280493736267 0.06737515330314636 0.0033089350908994675
-0.878460168838501 0.09209343791007996 0.0032648530323058367
-0.8762587308883667 0.1170894056558609 0.003222715575248003
-0.8740079998970032 0.14241646230220795 0.0031833488028496504
-0.8716919422149658 0.16812534630298615 0.003147582057863474
-0.8693020343780518 0.19423311948776245 0.003115408355370164
-0.8668593168258667 0.2206311821937561 0.003083469346165657
-0.8643916845321655 0.2471805363893509 0.003047575242817402
-0.8619272708892822 0.27374324202537537 0.0030035427771508694
-0.8594936728477478 0.3001819849014282 0.0029471872840076685
-0.8571186065673828 0.326360285282135 0.0028743217699229717
-0.8548297882080078 0.3521421551704407 0.002780752256512642
-0.8526551127433777 0.3773919939994812 0.0026622707955539227
-0.8506221175193787 0.4019744098186493 0.0025146494153887033
-0.8487586379051208 0.4257541000843048 0.0023336363956332207
-0.8470923900604248 0.44859543442726135 0.0021149455569684505
-0.8456518054008484 0.4703625440597534 0.0018542526522651315
-0.8444646596908569 0.4909188747406006 0.0015471852384507656
-0.7156292796134949 -0.48714679479599 -0.0037652042228728533
-0.7466632723808289 -0.46521416306495667 -0.002303426619619131
-0.7734207510948181 -0.44172197580337524 -0.0010153951589018106
-0.795879602432251 -0.41694438457489014 9.558113379171118e-05
-0.8141382932662964 -0.3911632299423218 0.0010313184466212988
-0.8284063339233398 -0.364655464887619 0.0017983915749937296
-0.8389882445335388 -0.3376818299293518 0.002407555002719164
-0.8462650179862976 -0.31047728657722473 0.0028730216436088085
-0.8506749868392944 -0.283244252204895 0.0032116826623678207
-0.852695643901825 -0.2561480402946472 0.0034423416946083307
-0.8528264164924622 -0.22931437194347382 0.003585014957934618
-0.851576030254364 -0.20282897353172302 0.003660351037979126
-0.8494518995285034 -0.17673832178115845 0.0036891780328005552
-0.8469541072845459 -0.151051327586174 0.003692209254950285
-0.8444883227348328 -0.1257375329732895 0.003686628770083189
-0.842117428779602 -0.10072990506887436 0.0036763788666576147
-0.8398194313049316 -0.07595847547054291 0.003662100527435541
-0.8375734090805054 -0.05135691538453102 0.003644421463832259
-0.8353586196899414 -0.026862267404794693 0.003623959142714739
-0.8331550359725952 -0.0024145874194800854 0.0036013228818774223
-0.8309429883956909 0.0220430139452219 0.003577116411179304
-0.8287029266357422 0.046564966440200806 0.0035519388038665056
-0.8264156579971313 0.07120295614004135 0.0035263875033706427
-0.8240623474121094 0.09600623697042465 0.0035010590218007565
-0.8216245770454407 0.12102152407169342 0.003476550104096532
-0.8190836906433105 0.1462932527065277 0.0034534591250121593
-0.8164215683937073 0.17186346650123596 0.003432383993640542
-0.8136359453201294 0.19774602353572845 0.003412716556340456
-0.8107876181602478 0.22384993731975555 0.0033890206832438707
-0.8079527616500854 0.25005659461021423 0.0033546634949743748
-0.8052079677581787 0.27624577283859253 0.0033030288759618998
-0.8026297688484192 0.302295446395874 0.0032275172416120768
-0.8002946376800537 0.32808178663253784 0.0031215499620884657
-0.7982791066169739 0.35347941517829895 0.002978578209877014
-0.7966596484184265 0.37836143374443054 0.002792089944705367
-0.7955121994018555 0.4025994837284088 0.0025556227192282677
-0.794912576675415 0.4260641932487488 0.002262779511511326
-0.7949360609054565 0.44862526655197144 0.0019072418799623847
-0.7956569194793701 0.4701518714427948 0.001482792547903955
-0.797148585319519 0.49051305651664734 0.0009833332151174545
-0.6511650085449219 -0.4867374002933502 -0.003765203757211566
-0.6831444501876831 -0.4644271433353424 -0.002336446661502123
-0.7108579874038696 -0.440633088350296 -0.001071895589120686
-0.7342502474784851 -0.41562172770500183 2.4032908186200075e-05
-0.7533913254737854 -0.3896673321723938 0.000951954280026257
-0.7684677839279175 -0.3630388379096985 0.0017172313528135419
-0.7797682881355286 -0.33598875999450684 0.002329465700313449
-0.7876653075218201 -0.30874335765838623 0.00280182552523911
-0.7925952672958374 -0.2814960181713104 0.003150294767692685
-0.7950393557548523 -0.2544020116329193 0.0033929182682186365
-0.7955063581466675 -0.22757622599601746 0.0035491015296429396
-0.7945175170898438 -0.20109273493289948 0.0036390137393027544
-0.7925956845283508 -0.17498518526554108 0.0036831239704042673
-0.7902584671974182 -0.1492486298084259 0.003701880807057023
-0.7879264950752258 -0.12384229898452759 0.0037122906651347876
-0.7856636047363281 -0.09870710223913193 0.0037181691732257605
-0.7834452390670776 -0.07378517836332321 0.003720042295753956
-0.7812479734420776 -0.04902193322777748 0.003718423889949918
-0.7790482640266418 -0.024365674704313278 0.0037138184998184443
-0.7768231630325317 0.00023246921773534268 0.003706722753122449
-0.7745500802993774 0.02481861226260662 0.003697626758366823
-0.7722065448760986 0.04943656548857689 0.0036870180629193783
-0.7697705030441284 0.07412755489349365 0.003675379091873765
-0.7672201991081238 0.09893053770065308 0.003663192503154278
-0.7645336985588074 0.12388196587562561 0.003650938393548131
-0.7616899013519287 0.14901615679264069 0.003639096859842539
-0.7586673498153687 0.1743650734424591 0.0036281468346714973
-0.7554712295532227 0.19993887841701508 0.003617001697421074
-0.7522096037864685 0.22566711902618408 0.003598314942792058
-0.7490168809890747 0.25145629048347473 0.003563196398317814
-0.7460274696350098 0.2772095501422882 0.0035027903504669666
-0.7433755993843079 0.30282628536224365 0.0034082878846675158
-0.7411952614784241 0.3282027542591095 0.0032709455117583275
-0.7396200299263 0.3532320559024811 0.003082114038988948
-0.7387819290161133 0.37780439853668213 0.002833267208188772
-0.7388119697570801 0.4018077850341797 0.002516042673960328
-0.7398385405540466 0.42512795329093933 0.0021222818177193403
-0.7419875264167786 0.4476497769355774 0.0016440808540210128
-0.7453807592391968 0.4692569673061371 0.0010738399578258395
-0.750136137008667 0.48983365297317505 0.0004043206281494349
-0.5861184000968933 -0.48638007044792175 -0.003765203757211566
-0.6188255548477173 -0.4634716212749481 -0.0023757312446832657
-0.6472868919372559 -0.4391973614692688 -0.001139697153121233
-0.6714140176773071 -0.41381704807281494 -6.266855780268088e-05
-0.6912484169006348 -0.3875965178012848 0.0008546726312488317
-0.7069537043571472 -0.36079519987106323 0.0016163393156602979
-0.718802273273468 -0.3336544930934906 0.0022306081373244524
-0.7271575927734375 -0.30638834834098816 0.0027094094548374414
-0.7324543595314026 -0.27917641401290894 0.0030676156748086214
-0.735177755355835 -0.2521589994430542 0.003322305390611291
-0.7358458042144775 -0.22543485462665558 0.003492067102342844
-0.734993040561676 -0.1990605741739273 0.0035963943228125572
-0.733158528804779 -0.1730513870716095 0.0036552036181092262
-0.7308778166770935 -0.14738266170024872 0.0036884979344904423
-0.7285869717597961 -0.12199848890304565 0.003712970530614257
-0.7263502478599548 -0.09684622287750244 0.0037323657888919115
-0.7241392731666565 -0.07187972217798233 0.0037471912801265717
-0.7219269275665283 -0.047055743634700775 0.003757943632081151
-0.719685971736908 -0.022333815693855286 0.00376510969363153
-0.7173897624015808 0.0023240100126713514 0.003769168397411704
-0.715011715888977 0.0269529540091753 0.0037705921567976475
-0.7125256657600403 0.0515860952436924 0.003769849194213748
-0.7099056839942932 0.07625395059585571 0.003767404705286026
-0.707126259803772 0.10098479688167572 0.003763721091672778
-0.7041618227958679 0.12580440938472748 0.003759257262572646
-0.7009872794151306 0.15073645114898682 0.0037544735241681337
-0.6975780725479126 0.17580226063728333 0.00374982669018209
-0.6939471364021301 0.2010078728199005 0.003743865294381976
-0.6902585029602051 0.22630484402179718 0.0037275117356330156
-0.6867137551307678 0.2516276240348816 0.003689822740852833
-0.6835139393806458 0.27690601348876953 0.003619913710281253
-0.6808600425720215 0.3020657002925873 0.003506990382447839
-0.678951621055603 0.32702815532684326 0.0033403828274458647
-0.6779861450195312 0.3517109155654907 0.003109591780230403
-0.678158700466156 0.37602826952934265 0.0028043438214808702
-0.6796601414680481 0.39989128708839417 0.0024146526120603085
-0.6826763153076172 0.4232085943222046 0.0019308901391923428
-0.687386691570282 0.44588714838027954 0.001343859825283289
-0.6939626932144165 0.4678325057029724 0.0006448774947784841
-0.7025665640830994 0.48895010352134705 -0.00017414669855497777
-0.519722044467926 -0.48610159754753113 -0.0037652042228728533
-0.5530746579170227 -0.46246153116226196 -0.0024214668665081263
-0.582185685634613 -0.43759387731552124 -0.0012192617869004607
-0.606934666633606 -0.41175365447998047 -0.00016528820560779423
-0.6273354291915894 -0.3851999044418335 0.000738436181563884
-0.6435302495956421 -0.35818302631378174 0.001494483440183103
-0.6557775139808655 -0.3309330344200134 0.002109673572704196
-0.6644340753555298 -0.3036503493785858 0.002594532910734415
-0.6699351072311401 -0.27649903297424316 0.0029626323375850916
-0.6727732419967651 -0.24960185587406158 0.0032298811711370945
-0.6734788417816162 -0.2230384796857834 0.003413840662688017
-0.6726030111312866 -0.19684480130672455 0.0035331163089722395
-0.6707040071487427 -0.1710139513015747 0.0036068635527044535
-0.6683387160301208 -0.145498126745224 0.003654433647170663
-0.6659610271453857 -0.12022285908460617 0.0036920513957738876
-0.6636347770690918 -0.09514028578996658 0.0037234241608530283
-0.6613272428512573 -0.07021486014127731 0.003749124240130186
-0.6590063571929932 -0.04541373252868652 0.003769711824133992
-0.656640350818634 -0.02070672996342182 0.0037857359275221825
-0.6541978120803833 0.003933839499950409 0.0037977397441864014
-0.6516475081443787 0.02853299118578434 0.00380625925026834
-0.648958683013916 0.05311357229948044 0.003811826230958104
-0.6461008191108704 0.0776958242058754 0.003814967582002282
-0.6430438756942749 0.10229773074388504 0.0038162085693329573
-0.6397578716278076 0.1269346922636032 0.003816071664914489
-0.6362136006355286 0.15161997079849243 0.003815079340711236
-0.6323820948600769 0.17636433243751526 0.0038137496449053288
-0.6282860040664673 0.20116978883743286 0.003810370108112693
-0.6241521239280701 0.22600950300693512 0.003794324118643999
-0.6202579140663147 0.2508460283279419 0.0037528304383158684
-0.6168797016143799 0.27563750743865967 0.0036732053849846125
-0.614292323589325 0.3003377914428711 0.003542902646586299
-0.61276775598526 0.32489684224128723 0.0033495640382170677
-0.6125745177268982 0.34926074743270874 0.0030810777097940445
-0.6139755249023438 0.37337204813957214 0.0027256475295871496
-0.6172273755073547 0.39717012643814087 0.0022718708496540785
-0.6225775480270386 0.42059171199798584 0.0017088220920413733
-0.6302635669708252 0.4435712397098541 0.0010261418065056205
-0.6405101418495178 0.4660414457321167 0.00021412984642665833
-0.6535279750823975 0.4879341721534729 -0.0007361604948528111
-0.45110824704170227 -0.4859269857406616 -0.0037652042228728533
-0.4851677715778351 -0.46150970458984375 -0.002473849803209305
-0.5149508118629456 -0.43600204586982727 -0.0013110546860843897
-0.5403059720993042 -0.4096578359603882 -0.0002845793787855655
-0.5612211227416992 -0.38273224234580994 0.0006022370653226972
-0.5778199434280396 -0.3554688096046448 0.001350484206341207
-0.5903504490852356 -0.3280881941318512 0.0019654284697026014
-0.5991677045822144 -0.3007783889770508 0.0024560533929616213
-0.6047130227088928 -0.27368855476379395 0.0028344548773020506
-0.6074920296669006 -0.24692411720752716 0.003115174826234579
-0.6080533266067505 -0.2205449789762497 0.003314533270895481
-0.6069707870483398 -0.19456559419631958 0.003450025338679552
-0.6048277616500854 -0.1689559519290924 0.0035398199688643217
-0.602208137512207 -0.1436436027288437 0.003602387383580208
-0.5995875000953674 -0.11853401362895966 0.003653306979686022
-0.5970299243927002 -0.09358230233192444 0.003696265397593379
-0.59449702501297 -0.06876162439584732 0.003731965087354183
-0.5919512510299683 -0.044047851115465164 0.003761093132197857
-0.5893550515174866 -0.019419539719820023 0.0037843298632651567
-0.5866716504096985 0.0051422142423689365 0.0038023460656404495
-0.5838642716407776 0.029653573408722878 0.003815807169303298
-0.5808969736099243 0.05412842705845833 0.00382537511177361
-0.5777337551116943 0.07857796549797058 0.003831708338111639
-0.5743393301963806 0.10301099717617035 0.0038354613352566957
-0.5706790089607239 0.1274336725473404 0.003837288822978735
-0.5667185187339783 0.15184985101222992 0.0038378422614187002
-0.5624245405197144 0.176260843873024 0.0038377714809030294
-0.5578301548957825 0.20066480338573456 0.003835196839645505
-0.5532312989234924 0.2250540405511856 0.003818158758804202
-0.5489883422851562 0.24941687285900116 0.0037722699344158173
-0.5454592108726501 0.2737383544445038 0.003683284157887101
-0.5429985523223877 0.2980005145072937 0.0035371435806155205
-0.5419562458992004 0.32218223810195923 0.0033200315665453672
-0.5426762104034424 0.3462594151496887 0.0030184336937963963
-0.5454946756362915 0.3702053725719452 0.0026192080695182085
-0.5507384538650513 0.3939906656742096 0.0021096565760672092
-0.5587226748466492 0.41758352518081665 0.0014776072930544615
-0.5697492361068726 0.44095006585121155 0.0007114940672181547
-0.5841045379638672 0.46405455470085144 -0.00019955846073571593
-0.6020572185516357 0.48685958981513977 -0.0012656510807573795
-0.3793144226074219 -0.4858802556991577 -0.0037652042228728533
-0.41429170966148376 -0.46072670817375183 -0.0025331079959869385
-0.4448987543582916 -0.4346000552177429 -0.0014155813260003924
-0.4709525406360626 -0.4077562987804413 -0.0004213237843941897
-0.49241703748703003 -0.380450576543808 0.00044506401172839105
-0.5094007253646851 -0.3529234826564789 0.001183186424896121
-0.5221467018127441 -0.32538995146751404 0.0017966971499845386
-0.5310146808624268 -0.29802921414375305 0.0022929213009774685
-0.5364596843719482 -0.27097833156585693 0.0026823212392628193
-0.5390089154243469 -0.2443278282880783 0.0029778790194541216
-0.5392382740974426 -0.21812018752098083 0.003194458084180951
-0.5377526879310608 -0.19235002994537354 0.003348209196701646
-0.5351697206497192 -0.16696558892726898 0.003456072648987174
-0.5321078896522522 -0.14187099039554596 0.0035353954881429672
-0.5290713310241699 -0.11695212125778198 0.0036009098403155804
-0.5261245965957642 -0.09216494858264923 0.0036562818568199873
-0.5232228636741638 -0.06748892366886139 0.003702388145029545
-0.5203221440315247 -0.04290619120001793 0.003740095067769289
-0.5173785090446472 -0.018401792272925377 0.0037702578119933605
-0.5143489241600037 0.006036612670868635 0.0037937273737043142
-0.5111904740333557 0.030418438836932182 0.0038113484624773264
-0.5078609585762024 0.054750680923461914 0.0038239627610892057
-0.5043185949325562 0.07903750240802765 0.003832409856840968
-0.500522255897522 0.10328048467636108 0.0038375272415578365
-0.4964319169521332 0.1274784654378891 0.003840151708573103
-0.49200788140296936 0.1516278088092804 0.0038411172572523355
-0.4872119724750519 0.17572233080863953 0.0038412550929933786
-0.482088178396225 0.1997566670179367 0.003838598495349288
-0.4770062267780304 0.22373749315738678 0.003820049809291959
-0.4724138379096985 0.2476736605167389 0.0037698547821491957
-0.468754380941391 0.2715730369091034 0.003672450315207243
-0.46646547317504883 0.29544246196746826 0.0035125024151057005
-0.46597790718078613 0.31928780674934387 0.0032749546226114035
-0.4677141308784485 0.3431137502193451 0.0029450696893036366
-0.4720873534679413 0.36692407727241516 0.002508479403331876
-0.4794999063014984 0.39072152972221375 0.00195122801233083
-0.4903418719768524 0.4145077168941498 0.0012598210014402866
-0.5049902200698853 0.4382835626602173 0.0004212728817947209
-0.5238067507743835 0.46204864978790283 -0.0005768503760918975
-0.5471375584602356 0.4858018755912781 -0.0017463838448747993
-0.3036227524280548 -0.48597580194473267 -0.0037652039900422096
-0.3398318886756897 -0.4601971209049225 -0.0025992467999458313
-0.3715077042579651 -0.43352842330932617 -0.0015329220332205296
-0.3984346091747284 -0.40623146295547485 -0.0005757122416980565
-0.4205532371997833 -0.37856507301330566 0.0002666229265742004
-0.437960684299469 -0.35077184438705444 0.000992238405160606
-0.4509003460407257 -0.32306551933288574 0.0016031439881771803
-0.4597444236278534 -0.29562145471572876 0.0021049173083156347
-0.46497097611427307 -0.26856935024261475 0.002506245393306017
-0.4671383500099182 -0.24198950827121735 0.002818366279825568
-0.4668603837490082 -0.21591101586818695 0.003054470056667924
-0.4647838771343231 -0.19031259417533875 0.0032291309908032417
-0.46157020330429077 -0.16512441635131836 0.0033578122965991497
-0.4578826427459717 -0.14023050665855408 0.0034564808011054993
-0.45426127314567566 -0.11549932509660721 0.0035388139076530933
-0.45077192783355713 -0.09088580310344696 0.0036084377206861973
-0.4473627209663391 -0.0663725808262825 0.0036664386279881
-0.44398248195648193 -0.04194529727101326 0.0037138902116566896
-0.4405803680419922 -0.017592571675777435 0.0037518609315156937
-0.43710631132125854 0.00669411476701498 0.003781411563977599
-0.4335106909275055 0.030920181423425674 0.003803601022809744
-0.42974454164505005 0.05508839711546898 0.003819485194981098
-0.4257597029209137 0.07919856160879135 0.003830122062936425
-0.42150890827178955 0.10324768722057343 0.0038365647196769714
-0.41694584488868713 0.12722982466220856 0.003839867888018489
-0.412025511264801 0.15113651752471924 0.0038410818669945
-0.4067043364048004 0.1749565601348877 0.0038412557914853096
-0.4010375440120697 0.19868184626102448 0.0038384017534554005
-0.39546939730644226 0.22232650220394135 0.0038184893783181906
-0.3905355930328369 0.24591228365898132 0.0037646431010216475
-0.38676461577415466 0.26946330070495605 0.0036602262407541275
-0.38467639684677124 0.29300570487976074 0.003488862421363592
-0.38478174805641174 0.3165677487850189 0.0032344553619623184
-0.38758227229118347 0.3401797413825989 0.0028811972588300705
-0.39357006549835205 0.36387380957603455 0.002413563197478652
-0.40322771668434143 0.3876838982105255 0.0018163060303777456
-0.4170292615890503 0.411645770072937 0.0010744370520114899
-0.4354405403137207 0.43579691648483276 0.00017319944163318723
-0.4589202105998993 0.46017661690711975 -0.0009019626886583865
-0.4879209101200104 0.48482581973075867 -0.002165443729609251
-0.22460350394248962 -0.48619478940963745 -0.0037652042228728533
-0.26226502656936646 -0.45991143584251404 -0.002671194029971957
-0.29517966508865356 -0.43278875946998596 -0.0016612149775028229
-0.32309767603874207 -0.4050963521003723 -0.0007453358848579228
-0.3459372818470001 -0.3771001100540161 6.966146611375734e-05
-0.36378636956214905 -0.34904807806015015 0.0007805576897226274
-0.3768932819366455 -0.32115718722343445 0.0013877257006242871
-0.3856485188007355 -0.29360318183898926 0.001894938643090427
-0.3905598521232605 -0.26651304960250854 0.0023089952301234007
-0.3922249674797058 -0.2399611920118332 0.0026392312720417976
-0.39130350947380066 -0.2139676958322525 0.0028969731647521257
-0.38849207758903503 -0.18849965929985046 0.003095002379268408
-0.38450390100479126 -0.16347305476665497 0.0032470771111547947
-0.38005393743515015 -0.13875582814216614 0.0033675488084554672
-0.37572401762008667 -0.1142018586397171 0.0034688482992351055
-0.3715819716453552 -0.08976320922374725 0.003554542548954487
-0.3675687909126282 -0.06542307138442993 0.0036259531043469906
-0.3636258542537689 -0.04116776958107948 0.0036843905691057444
-0.3596952259540558 -0.016986822709441185 0.003731158096343279
-0.3557196855545044 0.007127145770937204 0.003767558140680194
-0.3516426384449005 0.031178196892142296 0.0037948903627693653
-0.3474084734916687 0.05516757443547249 0.0038144548889249563
-0.3429623544216156 0.07909326255321503 0.003827552543953061
-0.3382507860660553 0.10295036435127258 0.00383548391982913
-0.3332214653491974 0.1267307996749878 0.0038395484443753958
-0.327823668718338 0.1504237800836563 0.003841042285785079
-0.32200852036476135 0.17401564121246338 0.003841254860162735
-0.3158418834209442 0.19749629497528076 0.0038382424972951412
-0.3098379373550415 0.22088080644607544 0.003817235119640827
-0.30461451411247253 0.24419640004634857 0.0037604733370244503
-0.30077850818634033 0.2674767076969147 0.003650476224720478
-0.2989254295825958 0.2907615005970001 0.0034700410906225443
-0.29964008927345276 0.314096599817276 0.0032022164668887854
-0.3034980893135071 0.3375338315963745 0.0028302534483373165
-0.311068058013916 0.3611306846141815 0.0023375325836241245
-0.3229145407676697 0.38495078682899475 0.001707467483356595
-0.3396017551422119 0.409063458442688 0.0009233937598764896
-0.36169806122779846 0.4335446357727051 -3.157341052428819e-05
-0.38978099822998047 0.4584764838218689 -0.001174693345092237
-0.4244433343410492 0.48394858837127686 -0.002523783128708601
-0.14312398433685303 -0.48651015758514404 -0.0037652042228728533
-0.18233175575733185 -0.45983654260635376 -0.002747621852904558
-0.2165503054857254 -0.43234720826148987 -0.0017981039127334952
-0.2454955130815506 -0.40432068705558777 -0.0009270937298424542
-0.26906388998031616 -0.37603187561035156 -0.00014222813479136676
-0.2873363494873047 -0.3477369248867035 0.0005520028062164783
-0.3005690574645996 -0.31965893507003784 0.001154374796897173
-0.30917468667030334 -0.2919776737689972 0.0016668327152729034
-0.31369534134864807 -0.2648211419582367 0.002094205701723695
-0.3147726356983185 -0.23826159536838531 0.0024437997490167618
-0.3131169378757477 -0.21231432259082794 0.002724915277212858
-0.309479296207428 -0.18693853914737701 0.0029483556281775236
-0.30462905764579773 -0.16204026341438293 0.003125976538285613
-0.29933691024780273 -0.13747520744800568 0.0032703098841011524
-0.2942289412021637 -0.1130855605006218 0.0033923692535609007
-0.2893761992454529 -0.08881937712430954 0.0034956512972712517
-0.2847123444080353 -0.06465794146060944 0.0035817325115203857
-0.2801719605922699 -0.04058588668704033 0.0036521826405078173
-0.2756901979446411 -0.016591345891356468 0.0037085667718201876
-0.27120304107666016 0.007334332913160324 0.0037524495273828506
-0.2666473388671875 0.03119625337421894 0.0037853969261050224
-0.2619609534740448 0.05499645695090294 0.0038089759182184935
-0.25708281993865967 0.07873357832431793 0.0038247567135840654
-0.25195345282554626 0.10240311920642853 0.0038343090564012527
-0.24651484191417694 0.12599721550941467 0.003839201759546995
-0.24071092903614044 0.14950516819953918 0.0038409987464547157
-0.23448793590068817 0.17291323840618134 0.003841254860162735
-0.22792035341262817 0.1962098479270935 0.003838119562715292
-0.22158311307430267 0.21940572559833527 0.003816267242655158
-0.21616415679454803 0.24252702295780182 0.0037572686560451984
-0.21233651041984558 0.2656109929084778 0.0036430086474865675
-0.2107592672109604 0.28870585560798645 0.0034556505270302296
-0.21208003163337708 0.31187015771865845 0.0031775536481291056
-0.21693898737430573 0.33517324924468994 0.002791151637211442
-0.22597450017929077 0.35869482159614563 0.0022787884809076786
-0.23983000218868256 0.38252556324005127 0.001622517011128366
-0.25916242599487305 0.4067675769329071 0.0008038551895879209
-0.2846521735191345 0.43153539299964905 -0.00019650423200801015
-0.3170146942138672 0.45695698261260986 -0.0013990303268656135
-0.35701438784599304 0.4831758737564087 -0.002825750969350338
-0.0600096620619297 -0.48689568042755127 -0.0037652046885341406
-0.1007501631975174 -0.4599396884441376 -0.002827228046953678
-0.13624782860279083 -0.4321696162223816 -0.0019412462133914232
-0.16618561744689941 -0.40387317538261414 -0.0011178572895005345
-0.19044026732444763 -0.375335156917572 -0.0003653781895991415
-0.2090875208377838 -0.34682103991508484 0.0003105543728452176
-0.22239378094673157 -0.31856250762939453 0.0009071838576346636
-0.2307959944009781 -0.29074564576148987 0.0014246300561353564
-0.23487301170825958 -0.2635025978088379 0.0018657032633200288
-0.23531247675418854 -0.2369069904088974 0.0022355844266712666
-0.23287707567214966 -0.21097256243228912 0.0025414174888283014
-0.22837398946285248 -0.18565458059310913 0.002791875973343849
-0.2226293534040451 -0.1608528345823288 0.002996747149154544
-0.21647030115127563 -0.13641485571861267 0.0031665735878050327
-0.210567444562912 -0.11217433214187622 0.003310814267024398
-0.20499548316001892 -0.08807430416345596 0.003432878293097019
-0.19968178868293762 -0.06409227102994919 0.003534619463607669
-0.19455455243587494 -0.04020924121141434 0.0036178864538669586
-0.18954281508922577 -0.016409872099757195 0.0036845242138952017
-0.18457642197608948 0.007317742332816124 0.00373638141900301
-0.1795862466096878 0.03098178654909134 0.0037753069773316383
-0.17450428009033203 0.0545872300863266 0.003803157014772296
-0.16926391422748566 0.07813536375761032 0.003821789287030697
-0.1638001650571823 0.10162421315908432 0.0038330634124577045
-0.15804985165596008 0.12504824995994568 0.003838834585621953
-0.1519520878791809 0.14839884638786316 0.0038409533444792032
-0.14544853568077087 0.17166423797607422 0.003841254860162735
-0.1386200487613678 0.19483213126659393 0.0038380282931029797
-0.13208886981010437 0.21790461242198944 0.0038155566435307264
-0.12659679353237152 0.24090133607387543 0.003754928708076477
-0.12286693602800369 0.2638583779335022 0.0036375783383846283
-0.12160633504390717 0.28682759404182434 0.003445202251896262
-0.12351075559854507 0.30987614393234253 0.0031596175394952297
-0.12927214801311493 0.33308684825897217 0.002762555843219161
-0.13958801329135895 0.35655805468559265 0.0022353979293257
-0.15517336130142212 0.3804047405719757 0.0015588451642543077
-0.1767749786376953 0.40475955605506897 0.000712523004040122
-0.20518869161605835 0.42977502942085266 -0.00032549581374041736
-0.24127987027168274 0.4556260406970978 -0.0015792659251019359
-0.28600844740867615 0.48251402378082275 -0.0030756674241274595
0.023956583812832832 -0.48732540011405945 -0.0037652042228728533
-0.018213855102658272 -0.46018823981285095 -0.0029087415896356106
-0.054890405386686325 -0.43222153186798096 -0.0020883178804069757
-0.08572670072317123 -0.4037216305732727 -0.001314486376941204
-0.11058273166418076 -0.37498295307159424 -0.0005960688577033579
-0.12953174114227295 -0.3462810814380646 6.0284684877842665e-05
-0.14285211265087128 -0.3178570866584778 0.0006503670592792332
-0.15100626647472382 -0.28990527987480164 0.0011725028743967414
-0.15460991859436035 -0.2625640034675598 0.001627462450414896
-0.15439632534980774 -0.23591093719005585 0.0020182395819574594
-0.15117952227592468 -0.20996150374412537 0.0023497280199080706
-0.14582087099552155 -0.18467050790786743 0.002628354588523507
-0.13920144736766815 -0.1599350869655609 0.0028617107309401035
-0.1322021186351776 -0.13559874892234802 0.0030582158360630274
-0.12553609907627106 -0.11148973554372787 0.0032256650738418102
-0.11928202956914902 -0.08754568547010422 0.0033673711586743593
-0.11336193233728409 -0.06373874098062515 0.0034854812547564507
-0.10769862681627274 -0.04004475101828575 0.0035821357741951942
-0.10221590846776962 -0.01644331030547619 0.0036594774574041367
-0.09683841466903687 0.007082405034452677 0.003719651373103261
-0.09149198234081268 0.030545342713594437 0.0037648091092705727
-0.08610356599092484 0.05395510047674179 0.00379710691049695
-0.08060172200202942 0.07731740176677704 0.0038187066093087196
-0.07491669058799744 0.10063453018665314 0.00383176957257092
-0.0689808577299118 0.12390508502721786 0.0038384541403502226
-0.06272897124290466 0.1471242755651474 0.003840906312689185
-0.056098610162734985 0.17028401792049408 0.0038412550929933786
-0.04917416721582413 0.19337213039398193 0.0038379651959985495
-0.04260934889316559 0.21637873351573944 0.0038150695618242025
-0.03718097135424614 0.23931320011615753 0.003753337077796459
-0.03364403545856476 0.26220637559890747 0.0036339014768600464
-0.032736070454120636 0.28510990738868713 0.0034381370060145855
-0.035184673964977264 0.3080958127975464 0.003147444687783718
-0.04171829670667648 0.33125653862953186 0.0027429626788944006
-0.05308011174201965 0.3547056019306183 0.002205194905400276
-0.07004519551992416 0.3785787522792816 0.0015135458670556545
-0.09344152361154556 0.40303635597229004 0.00064575340365991
-0.12417565286159515 0.4282667636871338 -0.0004228056932333857
-0.16326409578323364 0.45449092984199524 -0.0017199772410094738
-0.21187299489974976 0.48196959495544434 -0.0032779122702777386
0.10803445428609848 -0.4877742826938629 -0.0037652042228728533
0.06460963189601898 -0.460549920797348 -0.002990923821926117
0.026916446164250374 -0.43246832489967346 -0.002237027743831277
-0.004675217438489199 -0.4038330316543579 -0.0015138493617996573
-0.03001333586871624 -0.3749471604824066 -0.0008305548690259457
-0.049171920865774155 -0.3460958003997803 -0.0001946763222804293
-0.062443096190690994 -0.31752970814704895 0.0003882218443322927
-0.07031476497650146 -0.2894519865512848 0.0009147196542471647
-0.07343809306621552 -0.2620088756084442 0.00138355721719563
-0.07258915901184082 -0.23528406023979187 0.0017955125076696277
-0.06862954795360565 -0.20929740369319916 0.0021531740203499794
-0.06247038394212723 -0.18400627374649048 0.0024606462102383375
-0.05504255369305611 -0.1593088060617447 0.0027232340071350336
-0.04727555438876152 -0.1350482702255249 0.002947142580524087
-0.039920829236507416 -0.11105089634656906 0.003138423664495349
-0.03306115046143532 -0.08724869042634964 0.003300288924947381
-0.026614291593432426 -0.06360747665166855 0.0034351875074207783
-0.02049892581999302 -0.04009679704904556 0.0035455652978271246
-0.014634636230766773 -0.016689999029040337 0.0036338705103844404
-0.008941984735429287 0.006635894067585468 0.003702557412907481
-0.0033426815643906593 0.02989990822970867 0.0037540884222835302
0.00224032043479383 0.05311756953597069 0.0037909322418272495
0.007882483303546906 0.0763004869222641 0.003815562231466174
0.01365746557712555 0.09945661574602127 0.003830451052635908
0.019636712968349457 0.122590072453022 0.003838065778836608
0.02588917873799801 0.14570142328739166 0.003840857883915305
0.0324808806180954 0.16878767311573029 0.0038412550929933786
0.03932705149054527 0.19183745980262756 0.003837925847619772
0.045759402215480804 0.2148272693157196 0.003814769210293889
0.05098570138216019 0.23775340616703033 0.0037523661740124226
0.0542377233505249 0.26063865423202515 0.0036316742189228535
0.05476519092917442 0.28353142738342285 0.0034338561818003654
0.05182557553052902 0.30650532245635986 0.0031400041189044714
0.044669996947050095 0.32965901494026184 0.0027307679411023855
0.03252527490258217 0.3531174659729004 0.002185874618589878
0.014571409672498703 0.3770335018634796 0.0014835292240604758
-0.010086102411150932 0.40159130096435547 0.0005996712134219706
-0.04245077818632126 0.4270114004611969 -0.000492956954985857
-0.08367867767810822 0.4535580277442932 -0.0018259945791214705
-0.1351345032453537 0.48154959082603455 -0.0034369961358606815
0.19152364134788513 -0.4882177710533142 -0.0037652039900422096
0.14707820117473602 -0.46099305152893066 -0.003072567516937852
0.10858074575662613 -0.43287554383277893 -0.002385118743404746
0.0764165148139 -0.4041740298271179 -0.0017128332983702421
0.05074313282966614 -0.3751985728740692 -0.001065086922608316
0.031481582671403885 -0.34624236822128296 -0.0004501717630773783
0.018324395641684532 -0.31756508350372314 0.00012508929648902267
0.010758865624666214 -0.2893787622451782 0.000655601266771555
0.008101419545710087 -0.26183798909187317 0.0011381119256839156
0.009538033977150917 -0.23503413796424866 0.0015711946180090308
0.01416579820215702 -0.20899350941181183 0.001955115469172597
0.0210309699177742 -0.18367889523506165 0.002291622571647167
0.029160281643271446 -0.15899287164211273 0.0025836913846433163
0.037583377212285995 -0.13478215038776398 0.0028352567460387945
0.04551659896969795 -0.11087431013584137 0.0030505843460559845
0.05287322774529457 -0.08719605207443237 0.003232779446989298
0.059738416224718094 -0.06370623409748077 0.003384597832337022
0.06619646400213242 -0.04036746174097061 0.003508797148242593
0.07233072817325592 -0.017146121710538864 0.003608137834817171
0.07822365313768387 0.0059877741150557995 0.0036853880155831575
0.08395653963088989 0.029060209169983864 0.0037433255929499865
0.08960944414138794 0.052093636244535446 0.0037847356870770454
0.09526094049215317 0.07510653883218765 0.003812408074736595
0.10098769515752792 0.09811363369226456 0.0038291290402412415
0.10686428844928741 0.12112569063901901 0.003837676951661706
0.1129627451300621 0.1441497504711151 0.003840809687972069
0.11935219913721085 0.16718913614749908 0.0038412550929933786
0.12595058977603912 0.19023418426513672 0.0038379053585231304
0.13209165632724762 0.21324710547924042 0.003814617870375514
0.1369866579771042 0.2362099289894104 0.0037518858443945646
0.13987192511558533 0.2591356039047241 0.0036305810790508986
0.14000114798545837 0.28206709027290344 0.00343174091540277
0.1366330087184906 0.30507686734199524 0.003136236919090152
0.12901438772678375 0.32826679944992065 0.002724324120208621
0.11635872721672058 0.3517695665359497 0.0021750666201114655
0.09781908988952637 0.37575095891952515 0.0014656088314950466
0.07245443761348724 0.40041446685791016 0.0005702631897293031
0.039186764508485794 0.4260077178478241 -0.0005406597629189491
-0.0032540024258196354 0.4528329372406006 -0.0019023692002519965
-0.056403204798698425 0.4812607169151306 -0.003557615913450718
0.2737627327442169 -0.4886317849159241 -0.003765204455703497
0.22857657074928284 -0.4614863693714142 -0.0031525033991783857
0.18952704966068268 -0.43340879678726196 -0.002530378755182028
0.15700450539588928 -0.40471065044403076 -0.0019083651714026928
0.1311640739440918 -0.37570664286613464 -0.0012959432788193226
0.11191677302122116 -0.3466961085796356 -0.000702059711329639
0.09893798828125 -0.3179457485675812 -0.00013469580153468996
0.09169180691242218 -0.2896758019924164 0.0003994651779066771
0.08946667611598969 -0.26204913854599 0.0008952468051575124
0.0914173573255539 -0.23516561090946198 0.0013490645214915276
0.09660804271697998 -0.20905981957912445 0.001758890924975276
0.10405170917510986 -0.18370233476161957 0.0021241293288767338
0.11274249106645584 -0.15900318324565887 0.0024454223457723856
0.12167879939079285 -0.1348162740468979 0.002724425634369254
0.13005241751670837 -0.11097382009029388 0.002963605336844921
0.1377730667591095 -0.08739794045686722 0.003165955888107419
0.144927516579628 -0.06404045969247818 0.0033345415722578764
0.15160168707370758 -0.04085681587457657 0.003472430631518364
0.1578807234764099 -0.01780608296394348 0.00358269433490932
0.1638488620519638 0.005149075295776129 0.003668416291475296
0.1695893108844757 0.028042128309607506 0.0037326894234865904
0.17518416047096252 0.05090300738811493 0.003778613405302167
0.18071402609348297 0.07375776022672653 0.003809291636571288
0.18625782430171967 0.09662860631942749 0.0038278228603303432
0.19189243018627167 0.11953375488519669 0.0038372923154383898
0.19769234955310822 0.14248767495155334 0.003840762423351407
0.20372922718524933 0.16550081968307495 0.0038412553258240223
0.2099265605211258 0.18856634199619293 0.0038378993049263954
0.2156352698802948 0.21163296699523926 0.0038145764265209436
0.22008715569972992 0.23466844856739044 0.0037517622113227844
0.22253882884979248 0.2576752007007599 0.0036303044762462378
0.22226276993751526 0.28068944811820984 0.0034311735071241856
0.2185334861278534 0.30378028750419617 0.003135084640234709
0.21060872077941895 0.32705000042915344 0.002721984637901187
0.19770537316799164 0.35063543915748596 0.0021703948732465506
0.17896917462348938 0.37471097707748413 0.0014565747696906328
0.15343645215034485 0.3994939923286438 0.0005534564843401313
0.1199847012758255 0.4252529442310333 -0.0005707395612262189
0.07726769894361496 0.4523199796676636 -0.001954336417838931
0.023627599701285362 0.4811093509197235 -0.003644694574177265
0.3541240096092224 -0.488992840051651 -0.003765204455703497
0.3085135221481323 -0.4619991183280945 -0.0032295887358486652
0.26919588446617126 -0.4340340495109558 -0.002670642454177141
0.23655404150485992 -0.40540915727615356 -0.0020974210929125547
0.2107313573360443 -0.3764406442642212 -0.0015194499865174294
0.19162306189537048 -0.34743109345436096 -0.0009462442249059677
0.1788858324289322 -0.3186523914337158 -0.00038684418541379273
0.17196282744407654 -0.2903309166431427 0.00015058090502861887
0.1701202541589737 -0.26263734698295593 0.0006590283592231572
0.17249014973640442 -0.23568014800548553 0.0011328428518027067
0.17811402678489685 -0.20950329303741455 0.0015677765477448702
0.1859828531742096 -0.1840873807668686 0.001960945315659046
0.19506974518299103 -0.15935268998146057 0.002310702344402671
0.2043531984090805 -0.13516372442245483 0.002616455079987645
0.21300925314426422 -0.11136073619127274 0.0028788894414901733
0.22094477713108063 -0.08786232769489288 0.0031008850783109665
0.22824671864509583 -0.06461366266012192 0.0032858082558959723
0.23500138521194458 -0.0415632389485836 0.003437029430642724
0.24129444360733032 -0.018663018941879272 0.003557929303497076
0.24721072614192963 0.004131717141717672 0.003651897655799985
0.2528343200683594 0.026861967518925667 0.0037223363760858774
0.2582482397556305 0.049565404653549194 0.0037726531736552715
0.26353418827056885 0.07227588444948196 0.0038062569219619036
0.2687724828720093 0.09502360969781876 0.003826550208032131
0.2740413248538971 0.11783473193645477 0.0038369176909327507
0.2794170677661896 0.14073176681995392 0.003840715391561389
0.28497326374053955 0.16373315453529358 0.0038412553258240223
0.2906411588191986 0.18683584034442902 0.0038379027973860502
0.2958018183708191 0.20997729897499084 0.0038146066945046186
0.2997218370437622 0.2331123650074005 0.0037518655881285667
0.3016909956932068 0.2562333345413208 0.0036305340472608805
0.3010129928588867 0.27936890721321106 0.00343154720030725
0.29699039459228516 0.30258336663246155 0.0031355072278529406
0.28890541195869446 0.3259768784046173 0.002722129225730896
0.2759941816329956 0.349686861038208 0.0021695145405828953
0.2574150562286377 0.373891681432724 0.0014532414497807622
0.232207790017128 0.3988164961338043 0.0005451762117445469
0.19924023747444153 0.42474278807640076 -0.0005880794487893581
0.15713728964328766 0.4520227909088135 -0.001987274968996644
0.10418318212032318 0.48110100626945496 -0.003703397698700428
0.43201038241386414 -0.4892774522304535 -0.0037652046885341406
0.3863219916820526 -0.4625011682510376 -0.0033027150202542543
0.3470456600189209 -0.43471771478652954 -0.0028037934098392725
0.3145432472229004 -0.4062354564666748 -0.0022770424839109182
0.28893575072288513 -0.3773688077926636 -0.0017320099286735058
0.2700967788696289 -0.34842029213905334 -0.0011787146795541048
0.257662832736969 -0.31966376304626465 -0.0006271600141189992
0.25105923414230347 -0.29132959246635437 -8.688232628628612e-05
0.24953693151474 -0.26359474658966064 0.0004334179393481463
0.25221505761146545 -0.23657608032226562 0.0009261422092095017
0.25812435150146484 -0.21032771468162537 0.0013849405804648995
0.2662465572357178 -0.18484176695346832 0.0018047462217509747
0.275546669960022 -0.1600513905286789 0.002181711606681347
0.28499600291252136 -0.13583491742610931 0.002513067563995719
0.29376471042633057 -0.11204394698143005 0.0027977670542895794
0.3017573356628418 -0.08859504014253616 0.0030385726131498814
0.30905988812446594 -0.06542757898569107 0.003239137353375554
0.31575772166252136 -0.04248381778597832 0.0034031232353299856
0.321935772895813 -0.019709166139364243 0.0035342045594006777
0.32767853140830994 0.0029480154626071453 0.0036360681988298893
0.33306950330734253 0.025535982102155685 0.0037124105729162693
0.33819180727005005 0.04809997230768204 0.0037669348530471325
0.34312719106674194 0.070681631565094 0.003803343279287219
0.34795621037483215 0.09331925213336945 0.003825327381491661
0.3527578115463257 0.11604726314544678 0.0038365572690963745
0.3576091527938843 0.13889655470848083 0.0038406711537390947
0.36258500814437866 0.16189411282539368 0.003841254860162735
0.36762601137161255 0.18504215776920319 0.0038379111792892218
0.3721531927585602 0.20827016234397888 0.0038146707229316235
0.3754788339138031 0.23152290284633636 0.0037520683836191893
0.3769358992576599 0.25478389859199524 0.0036309664137661457
0.37586846947669983 0.2780744433403015 0.00343227107077837
0.37161707878112793 0.3014528155326843 0.003136495128273964
0.36349934339523315 0.32501477003097534 0.002723177894949913
0.35078489780426025 0.34889480471611023 0.0021701313089579344
0.33266356587409973 0.37327033281326294 0.0014524742728099227
0.3082045912742615 0.3983675539493561 0.0005413819453679025
0.2763027548789978 0.42447200417518616 -0.0005975725362077355
0.23560619354248047 0.45194363594055176 -0.0020066609140485525
0.184415802359581 0.4812402129173279 -0.003739127656444907
0.5068488121032715 -0.48946264386177063 -0.0037652046885341406
0.46145519614219666 -0.4629628658294678 -0.0033707960974425077
0.4225517511367798 -0.4354266822338104 -0.0029277666471898556
0.39046385884284973 -0.4071558117866516 -0.0024443469010293484
0.36527958512306213 -0.37845930457115173 -0.001930124475620687
0.3468448221683502 -0.34963566064834595 -0.0013955800095573068
0.3347751200199127 -0.3209569454193115 -0.0008515830850228667
0.3284819722175598 -0.29265493154525757 -0.00030890171183273196
0.32720911502838135 -0.26491087675094604 0.0002222248585894704
0.33007383346557617 -0.23784902691841125 0.0007324235048145056
0.3361092209815979 -0.21153376996517181 0.0012134065618738532
0.3443017601966858 -0.18597017228603363 0.0016580745577812195
0.3536224067211151 -0.1611063927412033 0.002060510450974107
0.3630487322807312 -0.13683763146400452 0.0024158817250281572
0.3717554211616516 -0.11303006857633591 0.002721482655033469
0.37964582443237305 -0.0896000862121582 0.0029799537733197212
0.3868035674095154 -0.0664825364947319 0.0031952133867889643
0.39331191778182983 -0.043614696711301804 0.0033711958676576614
0.3992539346218109 -0.020936332643032074 0.003511850256472826
0.40471234917640686 0.001610250910744071 0.003621140494942665
0.4097694754600525 0.024079881608486176 0.0037030407693237066
0.4145069420337677 0.046524833887815475 0.0037615306209772825
0.41900569200515747 0.06899427622556686 0.0038005849346518517
0.42334556579589844 0.091534323990345 0.003824167186394334
0.42760521173477173 0.11418776959180832 0.003836214542388916
0.43186154961586 0.13699409365653992 0.003840628545731306
0.43618980050086975 0.15998928248882294 0.0038412553258240223
0.4405405521392822 0.18318228423595428 0.0038379200268536806
0.4443817138671875 0.20649942755699158 0.0038147333543747663
0.4470783472061157 0.22987936437129974 0.0037522469647228718
0.448013037443161 0.25329920649528503 0.003631309373304248
0.44657641649246216 0.2767736315727234 0.0034327739849686623
0.44215378165245056 0.30035439133644104 0.0031370643991976976
0.4341066777706146 0.32413044571876526 0.002723592333495617
0.42174986004829407 0.34823015332221985 0.002170000923797488
0.4043210744857788 0.3728242814540863 0.001451196032576263
0.3809430003166199 0.398132860660553 0.0005380850052461028
0.3505723774433136 0.4244348108768463 -0.0006040912121534348
0.3119320869445801 0.45208364725112915 -0.002018022583797574
0.26341575384140015 0.4815298914909363 -0.003757491707801819
0.5780861973762512 -0.48952504992485046 -0.0037652039900422096
0.53338623046875 -0.4633549153804779 -0.0034327690955251455
0.4952077269554138 -0.4361282289028168 -0.003040549112483859
0.46382462978363037 -0.40813690423965454 -0.002596538979560137
0.4392811059951782 -0.3796800971031189 -0.0021104193292558193
0.4213900864124298 -0.3510482609272003 -0.0015931042144075036
0.4097461998462677 -0.32250773906707764 -0.0010562316747382283
0.4037522077560425 -0.2942882180213928 -0.0005116473184898496
0.40265360474586487 -0.26657283306121826 2.9061908207950182e-05
0.4055781364440918 -0.23949170112609863 0.0005549564957618713
0.411575049161911 -0.21311935782432556 0.0010560188675299287
0.4196503162384033 -0.18747450411319733 0.001523311948403716
0.428795725107193 -0.16252225637435913 0.0019490221748128533
0.438009113073349 -0.13817737996578217 0.0023264014162123203
0.44648072123527527 -0.11432379484176636 0.0026511866599321365
0.4541139304637909 -0.0908799022436142 0.002925888868048787
0.46098846197128296 -0.0677778348326683 0.0031546636018902063
0.46718451380729675 -0.04495140165090561 0.0033416892401874065
0.47278207540512085 -0.022336233407258987 0.003491165116429329
0.47786110639572144 0.0001302528689848259 0.0036073075607419014
0.4825012683868408 0.02250843495130539 0.0036943431477993727
0.486782044172287 0.04485677182674408 0.003756503341719508
0.4907822012901306 0.06723125278949738 0.0037980135530233383
0.49457985162734985 0.08968549221754074 0.0038230828940868378
0.4982520043849945 0.11227032542228699 0.003835893701761961
0.501874566078186 0.13503393530845642 0.0038405880331993103
0.5055219531059265 0.15802150964736938 0.003841254860162735
0.5091548562049866 0.18125055730342865 0.003837925149127841
0.5122908353805542 0.20465026795864105 0.0038147587329149246
0.5143514275550842 0.22815851867198944 0.003752282354980707
0.5147716999053955 0.2517494261264801 0.0036312765441834927
0.5129919648170471 0.2754325270652771 0.003432495053857565
0.5084459185600281 0.2992526888847351 0.003136251587420702
0.5005447268486023 0.32329049706459045 0.002721860073506832
0.4886563718318939 0.3476637601852417 0.002166916150599718
0.4720797836780548 0.3725312054157257 0.001446372247301042
0.45001089572906494 0.39809805154800415 0.0005313445581123233
0.4214988052845001 0.42462512850761414 -0.0006124650244601071
0.3853866457939148 0.45244282484054565 -0.00202689110301435
0.34022989869117737 0.48197123408317566 -0.0037642440292984247
0.6451821327209473 -0.4894411563873291 -0.0037652042228728533
0.6016037464141846 -0.46364825963974 -0.0034875872079283
0.5645245313644409 -0.4367903769016266 -0.0031401803717017174
0.5341521501541138 -0.409145712852478 -0.0027309220749884844
0.5104770660400391 -0.380999356508255 -0.0022696650121361017
0.49327510595321655 -0.3526289463043213 -0.0017677381401881576
0.48212146759033203 -0.3242909908294678 -0.0012374416692182422
0.47641614079475403 -0.2962091863155365 -0.0006915230769664049
0.4754166901111603 -0.26856550574302673 -0.00014269402890931815
0.4782741069793701 -0.24149440228939056 0.00039678518078289926
0.48406848311424255 -0.2150796502828598 0.0009154165745712817
0.4918404519557953 -0.1893540918827057 0.0014026605058461428
0.5006176233291626 -0.16430114209651947 0.0018490181537345052
0.5094329118728638 -0.13985762000083923 0.002246006391942501
0.517503023147583 -0.11592813581228256 0.0025879296008497477
0.5247327089309692 -0.09243573248386383 0.0028771611396223307
0.5311971306800842 -0.06931200623512268 0.003118055174127221
0.5369716882705688 -0.046489328145980835 0.003315001493319869
0.5421324372291565 -0.023900926113128662 0.0034724175930023193
0.5467553734779358 -0.0014809336280450225 0.0035947407595813274
0.5509165525436401 0.020835168659687042 0.003686420852318406
0.5546919703483582 0.04311086982488632 0.0037519107572734356
0.5581571459770203 0.06540805846452713 0.003795655444264412
0.561387300491333 0.08778710663318634 0.00382208451628685
0.5644566416740417 0.11030647903680801 0.003835596377030015
0.5674388408660889 0.13302285969257355 0.0038405507802963257
0.5704063177108765 0.155990868806839 0.0038412550929933786
0.5733286738395691 0.1792384386062622 0.0038379221223294735
0.575773298740387 0.2027049958705902 0.003814712166786194
0.5772174596786499 0.22633440792560577 0.0037520555779337883
0.5771481990814209 0.250102162361145 0.0036305836401879787
0.5750553011894226 0.27401500940322876 0.0034308775793761015
0.5704216361045837 0.2981111407279968 0.0031330951023846865
0.562710165977478 0.3224605321884155 0.0027164702769368887
0.5513470768928528 0.34716665744781494 0.0021586704533547163
0.5357010364532471 0.37236934900283813 0.001434979378245771
0.5150560736656189 0.3982495665550232 0.0005172467208467424
0.488576740026474 0.42503681778907776 -0.0006274775369092822
0.4552619159221649 0.4530199468135834 -0.0020387519616633654
0.4138825833797455 0.4825633466243744 -0.003765204455703497
0.7078110575675964 -0.4891932010650635 -0.0037652049213647842
0.6657876968383789 -0.46381160616874695 -0.0035338019952178
0.6301814913749695 -0.4373701810836792 -0.0032240040600299835
0.6011205315589905 -0.4101296067237854 -0.0028438963927328587
0.5785347819328308 -0.3823567032814026 -0.0024035933893173933
0.562161386013031 -0.35431206226348877 -0.0019148162100464106
0.5515588521957397 -0.32623791694641113 -0.0013904012739658356
0.5461321473121643 -0.29834824800491333 -0.000843794783577323
0.5451611280441284 -0.2708209753036499 -0.00028857329743914306
0.5478327870368958 -0.24379241466522217 0.00026197158149443567
0.5532719492912292 -0.2173544466495514 0.0007951569859869778
0.5605684518814087 -0.19155378639698029 0.0012991235125809908
0.568800151348114 -0.16639308631420135 0.0017629447393119335
0.5770485401153564 -0.1418328881263733 0.0021766291465610266
0.5845682621002197 -0.11780114471912384 0.002533205784857273
0.5912662744522095 -0.09422803670167923 0.002834900049492717
0.5972121357917786 -0.07104712724685669 0.003086221171543002
0.6024762392044067 -0.04819149151444435 0.003291728673502803
0.6071293950080872 -0.02559400349855423 0.003456016769632697
0.6112427711486816 -0.003187357448041439 0.0035837083123624325
0.6148880124092102 0.019095517694950104 0.0036794375628232956
0.618136465549469 0.041321735829114914 0.00374784367159009
0.6210594773292542 0.06355788558721542 0.003793557407334447
0.6237282752990723 0.08587014675140381 0.0038211909122765064
0.6262132525444031 0.10832393169403076 0.003835328621789813
0.6285845637321472 0.13098405301570892 0.0038405165541917086
0.6309115290641785 0.1539144217967987 0.003841254860162735
0.6331709623336792 0.17715534567832947 0.0038379088509827852
0.6349759101867676 0.20066457986831665 0.003814582945778966
0.6358556151390076 0.2243996113538742 0.003751528449356556
0.635344922542572 0.24834264814853668 0.003629140555858612
0.6329795718193054 0.2725006341934204 0.0034277441445738077
0.6282891631126404 0.29690560698509216 0.0031272927299141884
0.6207868456840515 0.3216151297092438 0.0027069570496678352
0.609958291053772 0.3467140197753906 0.0021446123719215393
0.595245361328125 0.37231603264808655 0.0014161815633997321
0.5760277509689331 0.3985677659511566 0.0004948168061673641
0.551598310470581 0.42565327882766724 -0.0006501487223431468
0.5211324095726013 0.45380157232284546 -0.002054546494036913
0.4836462438106537 0.48329678177833557 -0.0037611452862620354
0.7664556503295898 -0.4887882471084595 -0.0037652046885341406
0.7263241410255432 -0.4638035297393799 -0.0035683319438248873
0.6924696564674377 -0.43777918815612793 -0.0032864566892385483
0.6649354100227356 -0.4109557867050171 -0.0029280020389705896
0.6435898542404175 -0.38357943296432495 -0.0025034057907760143
0.6281329989433289 -0.35589033365249634 -0.0020247185602784157
0.6181123852729797 -0.3281136453151703 -0.0015051462687551975
0.6129446029663086 -0.3004505932331085 -0.0009585756342858076
0.611940860748291 -0.2730722427368164 -0.0003991301346104592
0.6143333911895752 -0.2461143583059311 0.0001592252083355561
0.6193016767501831 -0.21967510879039764 0.0007029942935332656
0.6259952187538147 -0.19381386041641235 0.0012193660950288177
0.6335519552230835 -0.16855168342590332 0.001696334918960929
0.6411117315292358 -0.143872931599617 0.0021227227989584208
0.6479746699333191 -0.11972959339618683 0.0024905214086174965
0.6540520787239075 -0.09606079757213593 0.0028018092270940542
0.659407913684845 -0.072803795337677 0.003061195369809866
0.664107084274292 -0.04989419877529144 0.0032733541447669268
0.6682153940200806 -0.0272661205381155 0.003443008754402399
0.6717991828918457 -0.0048523349687457085 0.0035749138332903385
0.6749251484870911 0.017415331676602364 0.0036738398484885693
0.6776597499847412 0.039606254547834396 0.003744563553482294
0.6800702810287476 0.06179050728678703 0.0037918533198535442
0.6822229623794556 0.08403896540403366 0.003820460056886077
0.6841844320297241 0.1064230352640152 0.003835107898339629
0.6860206127166748 0.12901483476161957 0.0038404888473451138
0.6877971291542053 0.1518869549036026 0.0038412550929933786
0.6894960403442383 0.17509324848651886 0.0038378972094506025
0.6907690763473511 0.19861607253551483 0.0038144539576023817
0.6911895871162415 0.22243312001228333 0.0037509887479245663
0.6903330087661743 0.24653810262680054 0.0036276387982070446
0.6877750754356384 0.27094119787216187 0.0034244656562805176
0.6830857992172241 0.2956693768501282 0.0031212354078888893
0.6758243441581726 0.32076695561408997 0.002697140444070101
0.6655312180519104 0.3462967872619629 0.00213043880648911
0.6517186164855957 0.37234121561050415 0.0013980177463963628
0.6338598132133484 0.39900439977645874 0.00047485632239840925
0.6113744378089905 0.4264147877693176 -0.0006666424451395869
0.5836114287376404 0.4547288715839386 -0.00205747177824378
0.5498270392417908 0.484136164188385 -0.0037330540362745523
0.8217298984527588 -0.48823973536491394 -0.0037652046885341406
0.7837340235710144 -0.4635802209377289 -0.0035876755136996508
0.7518198490142822 -0.4379187226295471 -0.0033213330898433924
0.7259479761123657 -0.4114750623703003 -0.002975044772028923
0.7059289216995239 -0.3844725489616394 -0.0025595526676625013
0.6914318203926086 -0.3571297228336334 -0.0020870999433100224
0.6819998025894165 -0.3296526074409485 -0.001571023603901267
0.677067756652832 -0.3022274672985077 -0.0010253314394503832
0.6759846210479736 -0.27501606941223145 -0.00046431022929027677
0.6780341267585754 -0.24815136194229126 9.782531560631469e-05
0.6824566721916199 -0.22173509001731873 0.0006472107488662004
0.6884668469429016 -0.19583676755428314 0.0011705319629982114
0.6952683925628662 -0.17049385607242584 0.0016551436856389046
0.7020652890205383 -0.14571253955364227 0.002089102054014802
0.7082085013389587 -0.1214677169919014 0.002463685581460595
0.7136147022247314 -0.0977080687880516 0.0027808379381895065
0.7183433771133423 -0.07437562942504883 0.0030452057253569365
0.7224546670913696 -0.051409486681222916 0.00326151424087584
0.7260099649429321 -0.02874615043401718 0.003434550715610385
0.7290711998939514 -0.006319616921246052 0.0035691391676664352
0.7317007780075073 0.01593823730945587 0.0036701257340610027
0.7339609861373901 0.03809787705540657 0.003742362605407834
0.7359146475791931 0.06023164093494415 0.003790695918723941
0.7376242280006409 0.08241390436887741 0.003819956909865141
0.7391522526741028 0.10472080111503601 0.0038349535316228867
0.7405606508255005 0.12723055481910706 0.003840468358248472
0.7419118285179138 0.15002337098121643 0.0038412553258240223
0.7431910634040833 0.1731664389371872 0.0038378986064344645
0.7440804243087769 0.19667093455791473 0.0038144313730299473
0.7441868782043457 0.22053922712802887 0.0037508022505789995
0.7431183457374573 0.24478046596050262 0.0036269682459533215
0.7404814958572388 0.2694109082221985 0.003422811161726713
0.7358794212341309 0.29445403814315796 0.003118023043498397
0.728909432888031 0.3199411630630493 0.00269196811132133
0.7191594839096069 0.34591156244277954 0.0021235120948404074
0.7062040567398071 0.37241330742836 0.001390821416862309
0.6895998120307922 0.39950379729270935 0.0004711264919023961
0.6688801050186157 0.42725053429603577 -0.0006595608429051936
0.6435483694076538 0.45573246479034424 -0.0020267702639102936
0.613071084022522 0.4850409924983978 -0.0036579612642526627
0.8741737604141235 -0.48756143450737 -0.0037652046885341406
0.8384950757026672 -0.46309807896614075 -0.0035883383825421333
0.8086493611335754 -0.4376923739910126 -0.0033225491642951965
0.7845221161842346 -0.4115423858165741 -0.0029771130066365004
0.7658752202987671 -0.38484856486320496 -0.002562928246334195
0.7523555755615234 -0.3578067123889923 -0.002092192880809307
0.7435088157653809 -0.33060237765312195 -0.0015780495014041662
0.7387946844100952 -0.3034054934978485 -0.0010342360474169254
0.7376043200492859 -0.276366263628006 -0.00047475803876295686
0.7392767071723938 -0.24961191415786743 8.640211308375001e-05
0.7431157231330872 -0.2232448160648346 0.000635517411865294
0.7484034895896912 -0.19734126329421997 0.0011592876398935914
0.7544122338294983 -0.1719515472650528 0.0016449447721242905
0.760412871837616 -0.14710018038749695 0.002080288017168641
0.765809178352356 -0.12278208136558533 0.0024562866892665625
0.7705256938934326 -0.09895499795675278 0.0027747757267206907
0.7746179699897766 -0.07556591928005219 0.0030403670389205217
0.778143048286438 -0.052557919174432755 0.0032577661331743
0.7811588048934937 -0.029870443046092987 0.0034317495301365852
0.7837236523628235 -0.007439387030899525 0.003567137522622943
0.7858965992927551 0.0148024195805192 0.003668776946142316
0.7877368330955505 0.0369255468249321 0.0037415246479213238
0.7893038392066956 0.05900343134999275 0.003790233749896288
0.7906568050384521 0.08111266046762466 0.003819746430963278
0.791854977607727 0.10333266109228134 0.0038348862435668707
0.7929576635360718 0.1257462203502655 0.003840459743514657
0.7940240502357483 0.14843934774398804 0.0038412557914853096
0.7950418591499329 0.1714915782213211 0.0038379267789423466
0.795714259147644 0.19494427740573883 0.003814620664343238
0.7956722974777222 0.2188270539045334 0.003751337993890047
0.7945460677146912 0.24316714704036713 0.0036280278582125902
0.7919644713401794 0.26798927783966064 0.0034245774149894714
0.787554919719696 0.2933156490325928 0.0031208039727061987
0.780943751335144 0.3191657066345215 0.0026964694261550903
0.7717562317848206 0.3455561101436615 0.0021312967874109745
0.7596176266670227 0.3725004196166992 0.0014050041791051626
0.7441537380218506 0.4000089764595032 0.0004973512841388583
0.7249919772148132 0.42808887362480164 -0.0006118052988313138
0.7017627358436584 0.4567434787750244 -0.001942440401762724
0.6741008162498474 0.4859725832939148 -0.0035142810083925724
0.9242637157440186 -0.4867680072784424 -0.003765204455703497
0.8910474181175232 -0.4623144268989563 -0.003566863015294075
0.8633624911308289 -0.4370054304599762 -0.003284160513430834
0.8410327434539795 -0.4110173285007477 -0.0029265570919960737
0.8237830996513367 -0.3845270574092865 -0.002504809759557247
0.811248779296875 -0.35770756006240845 -0.002030703704804182
0.8029859066009521 -0.3307231068611145 -0.0015167708043009043
0.7984843850135803 -0.3037257492542267 -0.0009760141838341951
0.797180712223053 -0.27685198187828064 -0.0004216553352307528
0.798470675945282 -0.25022050738334656 0.0001330893865088001
0.8017221689224243 -0.22393059730529785 0.0006751897162757814
0.80628502368927 -0.19806118309497833 0.0011919355019927025
0.811500072479248 -0.1726706176996231 0.0016710214549675584
0.8167051672935486 -0.1477968543767929 0.002100578974932432
0.8213582038879395 -0.12345040589570999 0.002471746178343892
0.8253927230834961 -0.09959650784730911 0.002786288969218731
0.8288623094558716 -0.0761866346001625 0.0030487070325762033
0.8318216800689697 -0.053167589008808136 0.0032636078540235758
0.8343265652656555 -0.030481765046715736 0.0034356722608208656
0.8364333510398865 -0.008067319169640541 0.003569635096937418
0.8381990194320679 0.014141470193862915 0.0036702598445117474
0.8396806120872498 0.03621441870927811 0.0037423260509967804
0.840935230255127 0.058225035667419434 0.003790611866861582
0.8420203328132629 0.08025074005126953 0.003819890785962343
0.8429933190345764 0.10237271338701248 0.0038349241949617863
0.8439112901687622 0.12467633932828903 0.003840463235974312
0.8448321223258972 0.14725133776664734 0.0038412550929933786
0.845745325088501 0.17018724977970123 0.0038379926700145006
0.8463671207427979 0.19355462491512299 0.0038151275366544724
0.8463430404663086 0.21741034090518951 0.0037529647815972567
0.8453169465065002 0.24180084466934204 0.0036317198537290096
0.8429312109947205 0.26676124334335327 0.0034315690863877535
0.8388288617134094 0.2923147678375244 0.003132748883217573
0.8326557874679565 0.31847187876701355 0.0027157000731676817
0.8240641951560974 0.34522947669029236 0.002161261159926653
0.8127172589302063 0.37257030606269836 0.0014509038301184773
0.7982931733131409 0.4004623293876648 0.0005670062964782119
0.7804914116859436 0.42885804176330566 -0.0005068373866379261
0.7590383291244507 0.4576949179172516 -0.0017854854231700301
0.7336935997009277 0.48689520359039307 -0.003281904384493828
0.9724195599555969 -0.4858756363391876 -0.0037652049213647842
0.9417964816093445 -0.4611881971359253 -0.0035198689438402653
0.9163511395454407 -0.43576598167419434 -0.0032003845553845167
0.8958620429039001 -0.409763365983963 -0.0028159667272120714
0.8800321221351624 -0.38333380222320557 -0.0023767673410475254
0.868495523929596 -0.3566269874572754 -0.0018936701817438006
0.8608273863792419 -0.3297852873802185 -0.0013780832523480058
0.8565517067909241 -0.3029411733150482 -0.0008417387725785375
0.8551526665687561 -0.2762153446674347 -0.000296516198432073
0.8560833930969238 -0.24971479177474976 0.00024571854737587273
0.8587744235992432 -0.22353164851665497 0.0007732401718385518
0.8626417517662048 -0.1977425515651703 0.0012745591811835766
0.8670930862426758 -0.17240820825099945 0.0017384830862283707
0.8715324997901917 -0.147573783993721 0.0021541407331824303
0.8754714727401733 -0.12325940281152725 0.0025133888702839613
0.8788538575172424 -0.09943541884422302 0.002817974891513586
0.8817320466041565 -0.07605651021003723 0.0030722070951014757
0.8841606378555298 -0.05307235196232796 0.003280505072325468
0.8861941695213318 -0.030427832156419754 0.003447367576882243
0.8878883719444275 -0.008063199929893017 0.003577348543331027
0.8892989754676819 0.01408550888299942 0.0036750370636582375
0.8904824256896973 0.03608681261539459 0.003745041089132428
0.8914951086044312 0.058013271540403366 0.0037919755559414625
0.8923934102058411 0.07994184643030167 0.0038204537704586983
0.8932343125343323 0.10195371508598328 0.0038350869435817003
0.8940747380256653 0.12413477897644043 0.0038404837250709534
0.894972026348114 0.14657577872276306 0.0038412553258240223
0.8959172964096069 0.16937300562858582 0.0038381111808121204
0.8966339230537415 0.1926223188638687 0.003816056065261364
0.8967750072479248 0.21640558540821075 0.0037560462951660156
0.8959912061691284 0.24078769981861115 0.0036389322485774755
0.8939322233200073 0.26581525802612305 0.0034455626737326384
0.8902494311332703 0.2915150821208954 0.003156965132802725
0.8846002817153931 0.31789281964302063 0.002754594897851348
0.8766544461250305 0.34493160247802734 0.0022206564899533987
0.8661004900932312 0.37259092926979065 0.0015384802827611566
0.8526526689529419 0.40080583095550537 0.0006929477676749229
0.8360603451728821 0.4294871389865875 -0.00032905236002989113
0.8161158561706543 0.45852211117744446 -0.0015381661942228675
0.7926625609397888 0.4877758026123047 -0.002942136488854885
1.0190070867538452 -0.48490142822265625 -0.0037652042228728533
0.9911145567893982 -0.4596796929836273 -0.0034441002644598484
0.9679936766624451 -0.4338843524456024 -0.003065622877329588
0.9493978023529053 -0.4076475203037262 -0.0026381281204521656
0.9350228309631348 -0.38109925389289856 -0.0021705548278987408
0.9245138168334961 -0.35436543822288513 -0.0016722858417779207
0.9174715876579285 -0.32756584882736206 -0.0011530083138495684
0.913459062576294 -0.30081209540367126 -0.0006225841934792697
0.9120092988014221 -0.2742064893245697 -9.093600965570658e-05
0.9126315116882324 -0.24784085154533386 0.0004320545122027397
0.9148173332214355 -0.22179554402828217 0.0009366259910166264
0.9180465340614319 -0.19613930583000183 0.0014131974894553423
0.9217912554740906 -0.1709287315607071 0.0018524047918617725
0.9255194067955017 -0.14620859920978546 0.0022451148834079504
0.9287951588630676 -0.12200148403644562 0.0025845228228718042
0.9315731525421143 -0.0982794314622879 0.0028724216390401125
0.9339064359664917 -0.0749984085559845 0.0031128423288464546
0.935849666595459 -0.05210952088236809 0.003309922991320491
0.9374576807022095 -0.029559163376688957 0.003467881353572011
0.9387864470481873 -0.0072891972959041595 0.003590991720557213
0.939892053604126 0.01476268284022808 0.0036835663486272097
0.9408308863639832 0.03666326403617859 0.003749941010028124
0.9416596293449402 0.05848337709903717 0.003794466145336628
0.9424353241920471 0.08029816299676895 0.003821497317403555
0.9432152509689331 0.10218699276447296 0.0038353940472006798
0.944057047367096 0.12423388659954071 0.0038405219092965126
0.9450188279151917 0.14652767777442932 0.0038412553258240223
0.9460935592651367 0.16916710138320923 0.0038382932543754578
0.9470083117485046 0.19226694107055664 0.0038175054360181093
0.9474208354949951 0.21592900156974792 0.0037609285209327936
0.9469855427742004 0.2402341216802597 0.0036505048628896475
0.9453558921813965 0.2652403712272644 0.003468227107077837
0.9421886205673218 0.2909809947013855 0.0031963582150638103
0.9371486306190491 0.3174625635147095 0.0028177397325634956
0.9299159646034241 0.3446630835533142 0.002316174330189824
0.9201949238777161 0.37253057956695557 0.0016768646892160177
0.9077218174934387 0.4009828567504883 0.0008869003504514694
0.8922756314277649 0.4299074411392212 -6.424920866265893e-05
0.8736864924430847 0.45916345715522766 -0.0011842548847198486
0.8518446683883667 0.4885844886302948 -0.0024775094352662563
1.064342975616455 -0.48386457562446594 -0.003765204455703497
1.0393426418304443 -0.4577523171901703 -0.0033364889677613974
1.018656611442566 -0.4312741756439209 -0.0028744933661073446
1.0020326375961304 -0.4045400321483612 -0.00238598114810884
0.9891757369041443 -0.37765663862228394 -0.0018779803067445755
0.9797525405883789 -0.3507261872291565 -0.0013576984638348222
0.9733964800834656 -0.323844850063324 -0.000832442834507674
0.9697133898735046 -0.29710182547569275 -0.00030954714748077095
0.9682856798171997 -0.27057844400405884 0.0002036904770648107
0.9686778783798218 -0.2443474680185318 0.0007000615005381405
0.9704403281211853 -0.21847252547740936 0.001172486925497651
0.9731135964393616 -0.19300802052021027 0.0016140453517436981
0.9762316942214966 -0.16799898445606232 0.002017989056184888
0.9793239235877991 -0.14348098635673523 0.0023777433671057224
0.9820055961608887 -0.11947065591812134 0.0026885371189564466
0.98424232006073 -0.09593740105628967 0.0029522799886763096
0.986088216304779 -0.07283596694469452 0.0031726351007819176
0.9875989556312561 -0.050116874277591705 0.003353359643369913
0.9888302087783813 -0.027726594358682632 0.0034982834476977587
0.989838719367981 -0.005607687868177891 0.0036112929228693247
0.9906814098358154 0.01630084030330181 0.0036963128950446844
0.9914156198501587 0.038063894957304 0.0037573003210127354
0.992098867893219 0.059749800711870193 0.003798227058723569
0.9927890300750732 0.08143063634634018 0.0038230824284255505
0.9935446381568909 0.10318199545145035 0.003835863433778286
0.9944242238998413 0.12508350610733032 0.003840580116957426
0.9954872727394104 0.14721879363059998 0.003841254860162735
0.9967285394668579 0.16968390345573425 0.0038385498337447643
0.9978801608085632 0.19260354340076447 0.003819567384198308
0.9986055493354797 0.216092050075531 0.003767924150452018
0.9985654950141907 0.24024194478988647 0.003667189972475171
0.9974199533462524 0.26512178778648376 0.0035010334104299545
0.9948330521583557 0.29077428579330444 0.0032534520141780376
0.9904780387878418 0.31721386313438416 0.002909070113673806
0.9840446710586548 0.344424843788147 0.0024535092525184155
0.9752476811408997 0.37236008048057556 0.0018738029757514596
0.9638353586196899 0.4009402394294739 0.0011588456109166145
0.9495996236801147 0.43005436658859253 0.00029984136926941574
0.9323840141296387 0.4595615267753601 -0.0007092775194905698
0.9120924472808838 0.4892941117286682 -0.0018714996986091137
1.1086939573287964 -0.48278555274009705 -0.0037652039900422096
1.086790680885315 -0.45537322759628296 -0.0031942210625857115
1.0686932802200317 -0.4278527498245239 -0.002621858613565564
1.0541632175445557 -0.4003135561943054 -0.002052566036581993
1.0429291725158691 -0.37284010648727417 -0.0014907584991306067
1.0346897840499878 -0.34551137685775757 -0.000940779922530055
1.0291180610656738 -0.3183996081352234 -0.00040686834836378694
1.0258647203445435 -0.2915700078010559 0.00010687242320273072
1.0245633125305176 -0.2650800347328186 0.0005964917945675552
1.0248318910598755 -0.23897914588451385 0.001058207475580275
1.026277780532837 -0.21330858767032623 0.0014884136617183685
1.028499960899353 -0.18810129165649414 0.0018836802337318659
1.031091570854187 -0.1633819341659546 0.002240748144686222
1.03364098072052 -0.13916710019111633 0.0025565135292708874
1.0358132123947144 -0.11545747518539429 0.0028290089685469866
1.0375843048095703 -0.09221488237380981 0.0030603446066379547
1.03900945186615 -0.06938964873552322 0.0032537137158215046
1.040144920349121 -0.04692920669913292 0.003412385703995824
1.0410473346710205 -0.02477823756635189 0.003539690049365163
1.0417742729187012 -0.0028787453193217516 0.0036390076857060194
1.0423829555511475 0.01882960833609104 0.0037137591280043125
1.0429317951202393 0.040409836918115616 0.0037673984188586473
1.0434788465499878 0.061927150934934616 0.003803402418270707
1.0440832376480103 0.08344922959804535 0.0038252701051533222
1.044803500175476 0.10504593700170517 0.003836513962596655
1.0456992387771606 0.12678968906402588 0.0038406618405133486
1.0468297004699707 0.14875531196594238 0.0038412553258240223
1.0481922626495361 0.17103026807308197 0.003838891861960292
1.0495299100875854 0.19373807311058044 0.003822323400527239
1.050520420074463 0.21699610352516174 0.003777303034439683
1.0508396625518799 0.24090270698070526 0.00368960271589458
1.0501642227172852 0.26553553342819214 0.0035451441071927547
1.0481758117675781 0.2909497320652008 0.003330181585624814
1.0445643663406372 0.3171757757663727 0.0030315369367599487
1.0390355587005615 0.3442181348800659 0.002636881312355399
1.0313167572021484 0.3720536530017853 0.002135050715878606
1.0211644172668457 0.40063074231147766 0.0015163752250373363
1.0083726644515991 0.4298698604106903 0.0007730157813057303
0.9927788376808167 0.4596637189388275 -0.00010073117300635204
0.9742716550827026 0.4898800551891327 -0.0011081682750955224
1.1522777080535889 -0.48168644309043884 -0.003765204455703497
1.1337366104125977 -0.45251375436782837 -0.0030148073565214872
1.1184427738189697 -0.42354118824005127 -0.00230285688303411
1.1061890125274658 -0.39484187960624695 -0.0016309592174366117
1.0967398881912231 -0.3664815127849579 -0.0010003438219428062
1.0898346900939941 -0.33851754665374756 -0.00041186827002093196
1.0851913690567017 -0.31099894642829895 0.000133972498588264
1.0825092792510986 -0.2839655578136444 0.0006370307528413832
1.0814727544784546 -0.25744807720184326 0.001097483211196959
1.0817537307739258 -0.23146794736385345 0.00151580770034343
1.083014726638794 -0.20603740215301514 0.00189275573939085
1.0849114656448364 -0.18115980923175812 0.0022293219808489084
1.0870939493179321 -0.15682965517044067 0.0025267135351896286
1.0892091989517212 -0.13303309679031372 0.0027863190043717623
1.090969443321228 -0.10974331945180893 0.0030098287388682365
1.0923608541488647 -0.08690889924764633 0.0031996448524296284
1.0934383869171143 -0.06447208672761917 0.0033583790063858032
1.0942577123641968 -0.04237426444888115 0.0034886940848082304
1.0948747396469116 -0.020556041970849037 0.0035932972095906734
1.0953468084335327 0.0010427223751321435 0.0036749395076185465
1.0957310199737549 0.02248259261250496 0.003736409591510892
1.0960848331451416 0.043824851512908936 0.0037805261090397835
1.0964664220809937 0.0651310384273529 0.003810139140114188
1.0969337224960327 0.0864630714058876 0.003828120417892933
1.0975446701049805 0.10788288712501526 0.003837361466139555
1.0983577966690063 0.12945273518562317 0.0038407682441174984
1.0994306802749634 0.1512347161769867 0.0038412550929933786
1.1007633209228516 0.17330116033554077 0.0038393272552639246
1.102122187614441 0.1957615166902542 0.0038258375134319067
1.103216290473938 0.21872548758983612 0.0037892605178058147
1.103754997253418 0.242290660738945 0.003718164749443531
1.1034499406814575 0.266541987657547 0.003601295407861471
1.102018117904663 0.2915501892566681 0.0034276831429451704
1.099184513092041 0.31737104058265686 0.003186773043125868
1.0946848392486572 0.3440438210964203 0.00286857015453279
1.0882707834243774 0.3715907633304596 0.0024638024624437094
1.0797127485275269 0.4000157415866852 0.001964086666703224
1.0688053369522095 0.4293042719364166 0.0013620981480926275
1.0553709268569946 0.45942291617393494 0.0006517327856272459
1.0392632484436035 0.49031978845596313 -0.00017174708773382008
1.1952627897262573 -0.48059025406837463 -0.003765204455703497
1.1804255247116089 -0.4491508901119232 -0.002796156331896782
1.1682305335998535 -0.41826510429382324 -0.0019129342399537563
1.1585136651992798 -0.38799938559532166 -0.0011142072034999728
1.151084542274475 -0.3584076464176178 -0.00039774354081600904
1.1457301378250122 -0.3295306861400604 0.00023952826450113207
1.1422172784805298 -0.3013961911201477 0.0008014506893232465
1.1402958631515503 -0.27401819825172424 0.0012925580376759171
1.1397030353546143 -0.24739785492420197 0.0017179937567561865
1.1401642560958862 -0.22152329981327057 0.002083428902551532
1.14139723777771 -0.19637049734592438 0.0023949809838086367
1.143113613128662 -0.17190338671207428 0.0026591364294290543
1.145020604133606 -0.14807488024234772 0.0028826831839978695
1.146822452545166 -0.12482725083827972 0.0030726499389857054
1.148280143737793 -0.10209324955940247 0.0032353480346500874
1.1493860483169556 -0.07980158925056458 0.00337355793453753
1.1501928567886353 -0.05788245424628258 0.003489183494821191
1.1507526636123657 -0.036267802119255066 0.003584150690585375
1.1511191129684448 -0.014891552738845348 0.0036604152992367744
1.1513458490371704 0.006310471333563328 0.0037199619691818953
1.1514872312545776 0.027400150895118713 0.0037648046854883432
1.1515976190567017 0.04843735322356224 0.0037969897966831923
1.1517322063446045 0.0694793090224266 0.0038185880985111
1.1519458293914795 0.09058073908090591 0.0038316950667649508
1.1522926092147827 0.11179327964782715 0.003838424338027835
1.152827262878418 0.1331656128168106 0.003840901656076312
1.153603196144104 0.1547430157661438 0.0038412550929933786
1.1546239852905273 0.17657548189163208 0.0038398639298975468
1.155702829360962 0.19874492287635803 0.0038301553577184677
1.1566060781478882 0.22134168446063995 0.0038039134815335274
1.1571037769317627 0.24445649981498718 0.003753064665943384
1.1569708585739136 0.2681799829006195 0.0036697061732411385
1.1559858322143555 0.2926023304462433 0.003546130144968629
1.1539342403411865 0.3178134262561798 0.00337484129704535
1.1506071090698242 0.34390246868133545 0.0031485671643167734
1.1458016633987427 0.3709578812122345 0.002860264154151082
1.1393221616744995 0.3990677297115326 0.002503120107576251
1.1309782266616821 0.42831894755363464 0.002070545917376876
1.1205867528915405 0.45879843831062317 0.0015561706386506557
1.1079697608947754 0.4905923008918762 0.0009538272279314697
1.2377680540084839 -0.47952085733413696 -0.0037652042228728533
1.2270681858062744 -0.44526779651641846 -0.0025366484187543392
1.2183661460876465 -0.4119551479816437 -0.0014478800585493445
1.2115449905395508 -0.3796597123146057 -0.0004952528979629278
1.2064639329910278 -0.34843695163726807 0.0003266895073466003
1.2029595375061035 -0.3183201253414154 0.0010250657796859741
1.200850009918213 -0.2893206775188446 0.0016084829112514853
1.1999380588531494 -0.2614283561706543 0.0020868470892310143
1.200014352798462 -0.23461204767227173 0.0024711675941944122
1.2008596658706665 -0.20882099866867065 0.0027733673341572285
1.2022477388381958 -0.18398576974868774 0.003006101120263338
1.2039480209350586 -0.16001982986927032 0.003182594897225499
1.2057266235351562 -0.13682064414024353 0.0033165079075843096
1.2073473930358887 -0.11427097767591476 0.0034218227956444025
1.2086198329925537 -0.09224779903888702 0.0035105475690215826
1.2095409631729126 -0.07065293192863464 0.00358593394048512
1.2101553678512573 -0.04940003529191017 0.0036490235943347216
1.2105076313018799 -0.02840803749859333 0.0037008633371442556
1.2106435298919678 -0.007601219229400158 0.0037425104528665543
1.210608959197998 0.013090740889310837 0.0037750378251075745
1.2104512453079224 0.0337323322892189 0.0037995355669409037
1.2102175951004028 0.054382309317588806 0.0038171145133674145
1.209956169128418 0.07509302347898483 0.0038289050571620464
1.209714412689209 0.09591024369001389 0.003836053190752864
1.2095401287078857 0.1168726235628128 0.0038397167809307575
1.2094806432724 0.1380116492509842 0.0038410634733736515
1.209581732749939 0.15935108065605164 0.0038412553258240223
1.2098569869995117 0.18091155588626862 0.0038405058439821005
1.2101982831954956 0.2027333527803421 0.0038352967239916325
1.2104694843292236 0.2248772233724594 0.0038212756626307964
1.2105381488800049 0.24742144346237183 0.0037942174822092056
1.2102762460708618 0.2704620659351349 0.0037500110920518637
1.2095588445663452 0.29411283135414124 0.0036846341099590063
1.2082632780075073 0.31850600242614746 0.0035941018722951412
1.2062684297561646 0.34379372000694275 0.0034744087606668472
1.2034516334533691 0.37014976143836975 0.00332144764252007
1.1996870040893555 0.39777225255966187 0.0031309162732213736
1.1948422193527222 0.4268878102302551 0.00289820390753448
1.1887743473052979 0.45775628089904785 0.0026182576548308134
1.181325912475586 0.4906775951385498 0.0022854197304695845
1.2798655033111572 -0.47850191593170166 -0.003765203757211566
1.2738409042358398 -0.4408547878265381 -0.0022352002561092377
1.2691434621810913 -0.40454724431037903 -0.0009038574062287807
1.265697956085205 -0.36969438195228577 0.000233147555263713
1.2634069919586182 -0.33637499809265137 0.001183497253805399
1.262155294418335 -0.30463117361068726 0.001957960892468691
1.2618111371994019 -0.2744680345058441 0.002570053795352578
1.2622300386428833 -0.24585482478141785 0.003035649424418807
1.2632577419281006 -0.2187269777059555 0.0033725795801728964
1.2647325992584229 -0.19298820197582245 0.0036002350971102715
1.2664885520935059 -0.1685134768486023 0.003739199135452509
1.268356442451477 -0.14515161514282227 0.003810920985415578
1.2701659202575684 -0.12272816151380539 0.0038374527357518673
1.2717456817626953 -0.10104749351739883 0.0038412550929933786
1.2729578018188477 -0.07991291582584381 0.0038412546273320913
1.2737984657287598 -0.05919160693883896 0.003841254860162735
1.2742966413497925 -0.038776177912950516 0.0038412550929933786
1.2744821310043335 -0.018568627536296844 0.0038412550929933786
1.274385690689087 0.0015195332234725356 0.0038412553258240223
1.2740391492843628 0.02156710997223854 0.0038412550929933786
1.2734750509262085 0.04164258763194084 0.0038412550929933786
1.2727278470993042 0.061803966760635376 0.003841254860162735
1.271833062171936 0.08209788054227829 0.0038412546273320913
1.270827293395996 0.10255928337574005 0.0038412550929933786
1.2697476148605347 0.12321073561906815 0.003841254860162735
1.268632411956787 0.14406241476535797 0.003841255558654666
1.267519474029541 0.16511186957359314 0.0038412550929933786
1.2664430141448975 0.18634314835071564 0.003841254860162735
1.2654223442077637 0.20774224400520325 0.003841254860162735
1.2644704580307007 0.22933156788349152 0.0038412550929933786
1.2635973691940308 0.2511739134788513 0.0038412550929933786
1.2628116607666016 0.2733718752861023 0.0038412550929933786
1.2621194124221802 0.2960668206214905 0.0038412553258240223
1.2615255117416382 0.31944018602371216 0.003841254860162735
1.2610347270965576 0.34371668100357056 0.0038412553258240223
1.2606512308120728 0.36916935443878174 0.0038412550929933786
1.2603801488876343 0.39612916111946106 0.0038412546273320913
1.2602277994155884 0.4249981641769409 0.0038412553258240223
1.2602019309997559 0.45626941323280334 0.0038412553258240223
1.2603132724761963 0.49055585265159607 0.0038412550929933786
