ply
format ascii 1.0
element vertex 512
property float x
property float y
property float z
end_header
0.9134116172790527 1.7936968803405762 -1.5018877983093262
0.9134116172790527 1.7936968803405762 -1.2173640727996826
0.9134116172790527 1.7936968803405762 -0.9328404664993286
0.913411557674408 1.7936968803405762 -0.6483168601989746
0.913411557674408 1.7936968803405762 -0.36379319429397583
0.913411557674408 1.7936968803405762 -0.07926955074071884
0.913411557674408 1.7936968803405762 0.20525409281253815
0.913411557674408 1.7936968803405762 0.48977774381637573
0.9134114980697632 1.7936968803405762 0.7743014097213745
0.9134114980697632 1.7936968803405762 1.0588250160217285
0.9134114980697632 1.7936968803405762 1.343348741531372
0.9134114980697632 1.7936968803405762 1.627872347831726
0.9134114980697632 1.7936968803405762 1.91239595413208
0.9134114384651184 1.7936968803405762 2.1969196796417236
0.9134114384651184 1.7936968803405762 2.481443166732788
0.9134114384651184 1.7936968803405762 2.7659668922424316
0.5396373867988586 1.7556877136230469 -1.5018877983093262
0.5396373867988586 1.7556877136230469 -1.2173641920089722
0.5396373867988586 1.7556877136230469 -0.9328405261039734
0.5396373271942139 1.7556877136230469 -0.6483168601989746
0.5396373271942139 1.7556877136230469 -0.3637932240962982
0.5396373271942139 1.7556877136230469 -0.07926956564188004
0.5396373271942139 1.7556877136230469 0.20525407791137695
0.5396373271942139 1.7556877136230469 0.48977771401405334
0.5396372675895691 1.7556877136230469 0.7743013501167297
0.5396372675895691 1.7556877136230469 1.0588250160217285
0.5396372675895691 1.7556877136230469 1.3433486223220825
0.5396372675895691 1.7556877136230469 1.627872347831726
0.5396372675895691 1.7556877136230469 1.91239595413208
0.5396372079849243 1.7556877136230469 2.1969196796417236
0.5396372079849243 1.7556877136230469 2.481443166732788
0.5396372079849243 1.7556877136230469 2.7659668922424316
0.18116551637649536 1.6432164907455444 -1.5018877983093262
0.18116551637649536 1.6432164907455444 -1.2173641920089722
0.18116550147533417 1.6432164907455444 -0.9328405261039734
0.18116548657417297 1.6432164907455444 -0.6483168601989746
0.18116547167301178 1.6432164907455444 -0.3637932240962982
0.18116545677185059 1.6432164907455444 -0.07926958054304123
0.18116545677185059 1.6432164907455444 0.20525406301021576
0.1811654418706894 1.6432164907455444 0.48977771401405334
0.1811654269695282 1.6432164907455444 0.7743013501167297
0.181165412068367 1.6432164907455444 1.0588250160217285
0.1811653971672058 1.6432164907455444 1.3433486223220825
0.1811653971672058 1.6432164907455444 1.627872347831726
0.18116538226604462 1.6432164907455444 1.91239595413208
0.18116536736488342 1.6432164907455444 2.1969196796417236
0.18116535246372223 1.6432164907455444 2.481443166732788
0.18116533756256104 1.6432164907455444 2.7659668922424316
-0.14732810854911804 1.4608876705169678 -1.5018877983093262
-0.14732810854911804 1.4608876705169678 -1.2173641920089722
-0.14732812345027924 1.4608876705169678 -0.9328405261039734
-0.14732813835144043 1.4608876705169678 -0.6483168601989746
-0.14732815325260162 1.4608876705169678 -0.3637932538986206
-0.14732816815376282 1.4608876705169678 -0.07926959544420242
-0.14732816815376282 1.4608876705169678 0.20525404810905457
-0.147328183054924 1.4608876705169678 0.48977768421173096
-0.1473281979560852 1.4608876705169678 0.7743013501167297
-0.1473282128572464 1.4608876705169678 1.0588250160217285
-0.1473282277584076 1.4608876705169678 1.3433486223220825
-0.1473282426595688 1.4608876705169678 1.6278722286224365
-0.1473282426595688 1.4608875513076782 1.91239595413208
-0.14732825756072998 1.4608875513076782 2.1969196796417236
-0.14732827246189117 1.4608875513076782 2.481443166732788
-0.14732828736305237 1.4608875513076782 2.7659668922424316
-0.43239492177963257 1.2161657810211182 -1.5018877983093262
-0.43239492177963257 1.2161657810211182 -1.2173641920089722
-0.43239495158195496 1.2161657810211182 -0.9328405261039734
-0.43239495158195496 1.2161657810211182 -0.6483169198036194
-0.43239498138427734 1.2161657810211182 -0.3637932538986206
-0.43239498138427734 1.2161657810211182 -0.07926961034536362
-0.43239498138427734 1.2161657810211182 0.20525403320789337
-0.43239501118659973 1.2161657810211182 0.48977768421173096
-0.43239501118659973 1.2161657810211182 0.7743013501167297
-0.4323950409889221 1.2161657810211182 1.0588250160217285
-0.4323950409889221 1.2161657810211182 1.3433486223220825
-0.4323950409889221 1.2161657810211182 1.6278722286224365
-0.4323950707912445 1.2161657810211182 1.91239595413208
-0.4323950707912445 1.2161657810211182 2.1969194412231445
-0.4323951005935669 1.2161657810211182 2.481443166732788
-0.4323951005935669 1.2161657810211182 2.7659668922424316
-0.6623642444610596 0.9190699458122253 -1.5018877983093262
-0.6623642444610596 0.9190698862075806 -1.2173641920089722
-0.6623643040657043 0.9190698862075806 -0.9328405857086182
-0.6623643040657043 0.9190698862075806 -0.6483169198036194
-0.6623643040657043 0.9190698862075806 -0.363793283700943
-0.6623643040657043 0.9190698862075806 -0.07926962524652481
-0.6623643040657043 0.9190698862075806 0.20525401830673218
-0.6623643636703491 0.9190698862075806 0.48977765440940857
-0.6623643636703491 0.9190698862075806 0.774301290512085
-0.6623643636703491 0.9190698862075806 1.0588250160217285
-0.6623643636703491 0.9190698862075806 1.3433486223220825
-0.6623643636703491 0.9190698862075806 1.6278722286224365
-0.6623644232749939 0.9190698862075806 1.91239595413208
-0.6623644232749939 0.9190698862075806 2.1969194412231445
-0.6623644232749939 0.9190698862075806 2.481443166732788
-0.6623644232749939 0.9190698862075806 2.7659668922424316
-0.8278211355209351 0.5817630887031555 -1.5018879175186157
-0.8278211355209351 0.5817630887031555 -1.2173641920089722
-0.8278211951255798 0.5817630887031555 -0.9328405857086182
-0.8278211951255798 0.5817630887031555 -0.6483169198036194
-0.8278211951255798 0.5817630887031555 -0.363793283700943
-0.8278211951255798 0.5817630887031555 -0.07926963269710541
-0.8278211951255798 0.5817630887031555 0.20525401830673218
-0.8278212547302246 0.5817630887031555 0.48977765440940857
-0.8278212547302246 0.5817630887031555 0.774301290512085
-0.8278212547302246 0.5817630887031555 1.058824896812439
-0.8278212547302246 0.5817630887031555 1.3433486223220825
-0.8278212547302246 0.5817630887031555 1.6278722286224365
-0.8278213143348694 0.5817630887031555 1.9123958349227905
-0.8278213143348694 0.5817630887031555 2.1969194412231445
-0.8278213143348694 0.5817630887031555 2.481443166732788
-0.8278213143348694 0.5817630887031555 2.7659668922424316
-0.921991765499115 0.21805475652217865 -1.5018879175186157
-0.921991765499115 0.21805475652217865 -1.2173641920089722
-0.921991765499115 0.21805475652217865 -0.9328405857086182
-0.9219918251037598 0.21805475652217865 -0.6483169198036194
-0.9219918251037598 0.21805474162101746 -0.363793283700943
-0.9219918251037598 0.21805474162101746 -0.079269640147686
-0.9219918251037598 0.21805474162101746 0.20525400340557098
-0.9219918251037598 0.21805474162101746 0.48977765440940857
-0.9219918847084045 0.21805474162101746 0.774301290512085
-0.9219918847084045 0.21805472671985626 1.058824896812439
-0.9219918847084045 0.21805472671985626 1.3433486223220825
-0.9219918847084045 0.21805472671985626 1.6278722286224365
-0.9219918847084045 0.21805472671985626 1.9123958349227905
-0.9219919443130493 0.21805472671985626 2.1969194412231445
-0.9219919443130493 0.21805471181869507 2.481443166732788
-0.9219919443130493 0.21805471181869507 2.7659668922424316
-0.9410207271575928 -0.15716485679149628 -1.5018879175186157
-0.9410207867622375 -0.15716487169265747 -1.2173641920089722
-0.9410207867622375 -0.15716487169265747 -0.9328405857086182
-0.9410207867622375 -0.15716487169265747 -0.6483169198036194
-0.9410207867622375 -0.15716487169265747 -0.363793283700943
-0.9410207867622375 -0.15716487169265747 -0.0792696475982666
-0.9410208463668823 -0.15716488659381866 0.20525400340557098
-0.9410208463668823 -0.15716488659381866 0.48977765440940857
-0.9410208463668823 -0.15716488659381866 0.774301290512085
-0.9410208463668823 -0.15716488659381866 1.058824896812439
-0.9410208463668823 -0.15716488659381866 1.3433486223220825
-0.9410209059715271 -0.15716490149497986 1.6278722286224365
-0.9410209059715271 -0.15716490149497986 1.9123958349227905
-0.9410209059715271 -0.15716490149497986 2.1969194412231445
-0.9410209059715271 -0.15716490149497986 2.481443166732788
-0.9410209059715271 -0.15716490149497986 2.7659668922424316
-0.8841290473937988 -0.5285342335700989 -1.5018879175186157
-0.8841290473937988 -0.5285342335700989 -1.2173641920089722
-0.8841291069984436 -0.5285342335700989 -0.9328405857086182
-0.8841291069984436 -0.5285342335700989 -0.6483169198036194
-0.8841291069984436 -0.5285342335700989 -0.363793283700943
-0.8841291069984436 -0.5285342335700989 -0.0792696475982666
-0.8841291069984436 -0.5285342335700989 0.20525400340557098
-0.8841291666030884 -0.5285342335700989 0.48977765440940857
-0.8841291666030884 -0.5285342335700989 0.774301290512085
-0.8841291666030884 -0.5285342335700989 1.058824896812439
-0.8841291666030884 -0.5285342335700989 1.3433486223220825
-0.8841291666030884 -0.5285342335700989 1.6278722286224365
-0.8841292262077332 -0.5285342335700989 1.9123958349227905
-0.8841292262077332 -0.5285342335700989 2.1969194412231445
-0.8841292262077332 -0.5285342931747437 2.481443166732788
-0.8841292262077332 -0.5285342931747437 2.7659668922424316
-0.7536458373069763 -0.8808494210243225 -1.5018879175186157
-0.7536458373069763 -0.8808494210243225 -1.2173641920089722
-0.7536458373069763 -0.8808494210243225 -0.9328405857086182
-0.7536458969116211 -0.8808494210243225 -0.6483169198036194
-0.7536458969116211 -0.8808494210243225 -0.363793283700943
-0.7536458969116211 -0.8808494210243225 -0.0792696475982666
-0.7536458969116211 -0.8808494210243225 0.20525400340557098
-0.7536458969116211 -0.8808494210243225 0.48977765440940857
-0.7536459565162659 -0.8808494210243225 0.774301290512085
-0.7536459565162659 -0.8808494210243225 1.058824896812439
-0.7536459565162659 -0.8808494210243225 1.3433486223220825
-0.7536459565162659 -0.8808494210243225 1.6278722286224365
-0.7536459565162659 -0.8808494806289673 1.9123958349227905
-0.7536460161209106 -0.8808494806289673 2.1969194412231445
-0.7536460161209106 -0.8808494806289673 2.481443166732788
-0.7536460161209106 -0.8808494806289673 2.7659668922424316
-0.5549131035804749 -1.1996866464614868 -1.5018879175186157
-0.5549131035804749 -1.1996866464614868 -1.2173641920089722
-0.5549131035804749 -1.1996866464614868 -0.9328405857086182
-0.5549131035804749 -1.1996866464614868 -0.6483169198036194
-0.5549131631851196 -1.1996866464614868 -0.363793283700943
-0.5549131631851196 -1.1996866464614868 -0.079269640147686
-0.5549131631851196 -1.1996866464614868 0.20525400340557098
-0.5549131631851196 -1.1996866464614868 0.48977765440940857
-0.5549131631851196 -1.1996866464614868 0.774301290512085
-0.5549132227897644 -1.1996866464614868 1.058824896812439
-0.5549132227897644 -1.1996866464614868 1.3433486223220825
-0.5549132227897644 -1.1996866464614868 1.6278722286224365
-0.5549132227897644 -1.1996866464614868 1.9123958349227905
-0.5549132227897644 -1.1996866464614868 2.1969194412231445
-0.5549132823944092 -1.1996866464614868 2.481443166732788
-0.5549132823944092 -1.1996866464614868 2.7659668922424316
-0.2960669696331024 -1.4719926118850708 -1.5018879175186157
-0.2960669696331024 -1.4719926118850708 -1.2173641920089722
-0.2960669696331024 -1.4719926118850708 -0.9328405857086182
-0.2960669994354248 -1.4719926118850708 -0.6483169198036194
-0.2960669994354248 -1.4719926118850708 -0.363793283700943
-0.2960670292377472 -1.4719926118850708 -0.07926963269710541
-0.2960670292377472 -1.4719926118850708 0.20525401830673218
-0.2960670292377472 -1.4719926118850708 0.48977765440940857
-0.2960670590400696 -1.4719926118850708 0.774301290512085
-0.2960670590400696 -1.4719926118850708 1.058824896812439
-0.29606708884239197 -1.4719926118850708 1.3433486223220825
-0.29606708884239197 -1.4719926118850708 1.6278722286224365
-0.29606708884239197 -1.4719926118850708 1.9123958349227905
-0.29606711864471436 -1.4719926118850708 2.1969194412231445
-0.29606711864471436 -1.4719926118850708 2.481443166732788
-0.29606714844703674 -1.4719926118850708 2.7659668922424316
0.0122953737154603 -1.6866191625595093 -1.5018877983093262
0.01229536160826683 -1.6866191625595093 -1.2173641920089722
0.01229534950107336 -1.6866191625595093 -0.9328405857086182
0.01229533739387989 -1.6866191625595093 -0.6483169198036194
0.01229532528668642 -1.6866191625595093 -0.363793283700943
0.012295314110815525 -1.6866191625595093 -0.07926962524652481
0.012295302003622055 -1.6866191625595093 0.20525401830673218
0.012295289896428585 -1.6866191625595093 0.48977765440940857
0.012295277789235115 -1.6866191625595093 0.774301290512085
0.012295265682041645 -1.6866191625595093 1.0588250160217285
0.012295253574848175 -1.6866191625595093 1.3433486223220825
0.012295241467654705 -1.6866191625595093 1.6278722286224365
0.012295229360461235 -1.6866191625595093 1.91239595413208
0.012295217253267765 -1.6866191625595093 2.1969194412231445
0.012295205146074295 -1.6866191625595093 2.481443166732788
0.012295193038880825 -1.6866191625595093 2.7659668922424316
0.3575495183467865 -1.8347793817520142 -1.5018877983093262
0.3575494885444641 -1.8347793817520142 -1.2173641920089722
0.3575494885444641 -1.8347793817520142 -0.9328405261039734
0.3575494587421417 -1.8347793817520142 -0.6483169198036194
0.3575494587421417 -1.8347793817520142 -0.3637932538986206
0.3575494587421417 -1.8347793817520142 -0.07926961034536362
0.35754942893981934 -1.8347793817520142 0.20525403320789337
0.35754942893981934 -1.8347793817520142 0.48977768421173096
0.35754939913749695 -1.8347793817520142 0.7743013501167297
0.35754939913749695 -1.8347793817520142 1.0588250160217285
0.35754939913749695 -1.8347793817520142 1.3433486223220825
0.35754936933517456 -1.8347793817520142 1.6278722286224365
0.35754936933517456 -1.8347793817520142 1.91239595413208
0.3575493395328522 -1.8347793817520142 2.1969194412231445
0.3575493395328522 -1.8347793817520142 2.481443166732788
0.3575493395328522 -1.8347793817520142 2.7659668922424316
0.72556072473526 -1.910407543182373 -1.5018877983093262
0.7255606651306152 -1.910407543182373 -1.2173641920089722
0.7255606651306152 -1.910407543182373 -0.9328405261039734
0.7255606651306152 -1.910407543182373 -0.6483168601989746
0.7255606651306152 -1.910407543182373 -0.3637932538986206
0.7255606651306152 -1.910407543182373 -0.07926959544420242
0.7255606055259705 -1.910407543182373 0.20525404810905457
0.7255606055259705 -1.910407543182373 0.48977768421173096
0.7255606055259705 -1.910407543182373 0.7743013501167297
0.7255606055259705 -1.910407543182373 1.0588250160217285
0.7255606055259705 -1.910407543182373 1.3433486223220825
0.7255605459213257 -1.910407543182373 1.6278722286224365
0.7255605459213257 -1.910407543182373 1.91239595413208
0.7255605459213257 -1.910407543182373 2.1969196796417236
0.7255605459213257 -1.910407543182373 2.481443166732788
0.7255605459213257 -1.910407543182373 2.7659668922424316
1.1012625694274902 -1.910407543182373 -1.5018877983093262
1.1012625694274902 -1.910407543182373 -1.2173641920089722
1.1012624502182007 -1.910407543182373 -0.9328405261039734
1.1012624502182007 -1.910407543182373 -0.6483168601989746
1.1012624502182007 -1.910407543182373 -0.3637932240962982
1.1012624502182007 -1.910407543182373 -0.07926958054304123
1.1012624502182007 -1.910407543182373 0.20525406301021576
1.1012624502182007 -1.910407543182373 0.48977771401405334
1.1012624502182007 -1.910407543182373 0.7743013501167297
1.1012624502182007 -1.910407543182373 1.0588250160217285
1.1012624502182007 -1.910407543182373 1.3433486223220825
1.1012624502182007 -1.910407543182373 1.627872347831726
1.1012623310089111 -1.910407543182373 1.91239595413208
1.1012623310089111 -1.910407543182373 2.1969196796417236
1.1012623310089111 -1.910407543182373 2.481443166732788
1.1012623310089111 -1.910407543182373 2.7659668922424316
1.4692736864089966 -1.8347793817520142 -1.5018877983093262
1.4692736864089966 -1.8347793817520142 -1.2173641920089722
1.4692736864089966 -1.8347793817520142 -0.9328405261039734
1.4692736864089966 -1.8347793817520142 -0.6483168601989746
1.4692736864089966 -1.8347793817520142 -0.3637932240962982
1.4692736864089966 -1.8347793817520142 -0.07926956564188004
1.4692736864089966 -1.8347793817520142 0.20525407791137695
1.4692736864089966 -1.8347793817520142 0.48977771401405334
1.4692736864089966 -1.8347793817520142 0.7743013501167297
1.469273567199707 -1.8347793817520142 1.0588250160217285
1.469273567199707 -1.8347793817520142 1.3433486223220825
1.469273567199707 -1.8347793817520142 1.627872347831726
1.469273567199707 -1.8347793817520142 1.91239595413208
1.469273567199707 -1.8347793817520142 2.1969196796417236
1.469273567199707 -1.8347793817520142 2.481443166732788
1.469273567199707 -1.8347793817520142 2.7659668922424316
1.8145278692245483 -1.6866191625595093 -1.5018877983093262
1.8145278692245483 -1.6866191625595093 -1.2173640727996826
1.8145278692245483 -1.6866191625595093 -0.9328404664993286
1.8145278692245483 -1.6866191625595093 -0.6483168601989746
1.8145278692245483 -1.6866191625595093 -0.36379319429397583
1.8145277500152588 -1.6866191625595093 -0.07926955074071884
1.8145277500152588 -1.6866191625595093 0.20525409281253815
1.8145277500152588 -1.6866191625595093 0.48977774381637573
1.8145277500152588 -1.6866191625595093 0.7743014097213745
1.8145277500152588 -1.6866191625595093 1.0588250160217285
1.8145277500152588 -1.6866191625595093 1.343348741531372
1.8145277500152588 -1.6866191625595093 1.627872347831726
1.8145277500152588 -1.6866191625595093 1.91239595413208
1.8145277500152588 -1.6866191625595093 2.1969196796417236
1.8145277500152588 -1.6866191625595093 2.481443166732788
1.8145276308059692 -1.6866191625595093 2.7659668922424316
2.1228902339935303 -1.4719926118850708 -1.5018877983093262
2.1228902339935303 -1.4719926118850708 -1.2173640727996826
2.1228902339935303 -1.4719926118850708 -0.9328404664993286
2.1228902339935303 -1.4719926118850708 -0.6483168005943298
2.1228902339935303 -1.4719926118850708 -0.36379316449165344
2.1228902339935303 -1.4719926118850708 -0.07926953583955765
2.1228902339935303 -1.4719926118850708 0.20525410771369934
2.122889995574951 -1.4719926118850708 0.4897777736186981
2.122889995574951 -1.4719926118850708 0.7743014097213745
2.122889995574951 -1.4719926118850708 1.0588250160217285
2.122889995574951 -1.4719926118850708 1.343348741531372
2.122889995574951 -1.4719926118850708 1.627872347831726
2.122889995574951 -1.4719926118850708 1.91239595413208
2.122889995574951 -1.4719926118850708 2.1969196796417236
2.122889995574951 -1.4719926118850708 2.481443166732788
2.122889995574951 -1.4719926118850708 2.7659668922424316
2.3817362785339355 -1.1996866464614868 -1.5018877983093262
2.3817362785339355 -1.1996866464614868 -1.2173640727996826
2.3817362785339355 -1.1996866464614868 -0.9328404664993286
2.3817362785339355 -1.1996866464614868 -0.6483168005943298
2.3817362785339355 -1.1996866464614868 -0.36379316449165344
2.3817362785339355 -1.1996866464614868 -0.07926952093839645
2.3817362785339355 -1.1996866464614868 0.20525412261486053
2.3817362785339355 -1.1996866464614868 0.4897777736186981
2.3817362785339355 -1.1996866464614868 0.7743014097213745
2.3817362785339355 -1.1996866464614868 1.0588250160217285
2.3817362785339355 -1.1996866464614868 1.343348741531372
2.3817362785339355 -1.1996866464614868 1.627872347831726
2.3817362785339355 -1.1996866464614868 1.91239595413208
2.3817362785339355 -1.1996866464614868 2.1969196796417236
2.3817360401153564 -1.1996866464614868 2.481443405151367
2.3817360401153564 -1.1996866464614868 2.7659668922424316
2.5804691314697266 -0.8808494210243225 -1.5018876791000366
2.5804691314697266 -0.8808494210243225 -1.2173640727996826
2.5804691314697266 -0.8808494210243225 -0.9328404664993286
2.5804691314697266 -0.8808494210243225 -0.6483168005943298
2.5804691314697266 -0.8808494210243225 -0.36379316449165344
2.5804688930511475 -0.8808494210243225 -0.07926950603723526
2.5804688930511475 -0.8808494210243225 0.20525413751602173
2.5804688930511475 -0.8808494210243225 0.4897777736186981
2.5804688930511475 -0.8808494210243225 0.7743014097213745
2.5804688930511475 -0.8808494210243225 1.058825135231018
2.5804688930511475 -0.8808494210243225 1.343348741531372
2.5804688930511475 -0.8808494210243225 1.627872347831726
2.5804688930511475 -0.8808494806289673 1.9123960733413696
2.5804688930511475 -0.8808494806289673 2.1969196796417236
2.5804688930511475 -0.8808494806289673 2.481443405151367
2.5804688930511475 -0.8808494806289673 2.7659668922424316
2.7109522819519043 -0.5285342335700989 -1.5018876791000366
2.7109522819519043 -0.5285342335700989 -1.2173640727996826
2.7109522819519043 -0.5285342335700989 -0.9328404068946838
2.7109522819519043 -0.5285342335700989 -0.6483168005943298
2.7109522819519043 -0.5285342335700989 -0.36379313468933105
2.7109522819519043 -0.5285342335700989 -0.07926949858665466
2.7109522819519043 -0.5285342335700989 0.20525415241718292
2.7109522819519043 -0.5285342335700989 0.4897778034210205
2.7109522819519043 -0.5285342335700989 0.7743014693260193
2.7109522819519043 -0.5285342335700989 1.058825135231018
2.7109522819519043 -0.5285342335700989 1.343348741531372
2.710952043533325 -0.5285342335700989 1.627872347831726
2.710952043533325 -0.5285342335700989 1.9123960733413696
2.710952043533325 -0.5285342335700989 2.1969196796417236
2.710952043533325 -0.5285342931747437 2.481443405151367
2.710952043533325 -0.5285342931747437 2.7659668922424316
2.7678439617156982 -0.15716485679149628 -1.5018876791000366
2.7678439617156982 -0.15716487169265747 -1.2173640727996826
2.7678439617156982 -0.15716487169265747 -0.9328404068946838
2.7678439617156982 -0.15716487169265747 -0.6483168005943298
2.7678439617156982 -0.15716487169265747 -0.36379313468933105
2.7678439617156982 -0.15716487169265747 -0.07926949113607407
2.7678439617156982 -0.15716488659381866 0.20525415241718292
2.7678439617156982 -0.15716488659381866 0.4897778034210205
2.7678439617156982 -0.15716488659381866 0.7743014693260193
2.7678439617156982 -0.15716488659381866 1.058825135231018
2.7678439617156982 -0.15716488659381866 1.343348741531372
2.7678439617156982 -0.15716490149497986 1.627872347831726
2.767843723297119 -0.15716490149497986 1.9123960733413696
2.767843723297119 -0.15716490149497986 2.1969196796417236
2.767843723297119 -0.15716490149497986 2.481443405151367
2.767843723297119 -0.15716490149497986 2.7659668922424316
2.7488150596618652 0.21805475652217865 -1.5018876791000366
2.7488150596618652 0.21805475652217865 -1.2173640727996826
2.7488150596618652 0.21805475652217865 -0.9328404068946838
2.7488150596618652 0.21805475652217865 -0.6483168005943298
2.7488150596618652 0.21805474162101746 -0.36379313468933105
2.748814821243286 0.21805474162101746 -0.07926948368549347
2.748814821243286 0.21805474162101746 0.20525415241718292
2.748814821243286 0.21805474162101746 0.4897778034210205
2.748814821243286 0.21805474162101746 0.7743014693260193
2.748814821243286 0.21805472671985626 1.058825135231018
2.748814821243286 0.21805472671985626 1.343348741531372
2.748814821243286 0.21805472671985626 1.627872347831726
2.748814821243286 0.21805472671985626 1.9123960733413696
2.748814821243286 0.21805472671985626 2.1969196796417236
2.748814821243286 0.21805471181869507 2.481443405151367
2.748814821243286 0.21805471181869507 2.7659668922424316
2.65464448928833 0.5817630887031555 -1.5018876791000366
2.65464448928833 0.5817630887031555 -1.2173640727996826
2.654644250869751 0.5817630887031555 -0.9328404068946838
2.654644250869751 0.5817630887031555 -0.6483168005943298
2.654644250869751 0.5817630887031555 -0.36379313468933105
2.654644250869751 0.5817630887031555 -0.07926948368549347
2.654644250869751 0.5817630887031555 0.20525415241718292
2.654644250869751 0.5817630887031555 0.4897778034210205
2.654644250869751 0.5817630887031555 0.7743014693260193
2.654644250869751 0.5817630887031555 1.058825135231018
2.654644250869751 0.5817630887031555 1.343348741531372
2.654644250869751 0.5817630887031555 1.627872347831726
2.654644250869751 0.5817630887031555 1.9123960733413696
2.654644250869751 0.5817630887031555 2.1969196796417236
2.654644250869751 0.5817630887031555 2.481443405151367
2.654644250869751 0.5817630887031555 2.7659668922424316
2.489187479019165 0.9190699458122253 -1.5018876791000366
2.489187479019165 0.9190698862075806 -1.2173640727996826
2.489187479019165 0.9190698862075806 -0.9328404068946838
2.489187479019165 0.9190698862075806 -0.6483168005943298
2.489187479019165 0.9190698862075806 -0.36379313468933105
2.489187479019165 0.9190698862075806 -0.07926949113607407
2.489187479019165 0.9190698862075806 0.20525415241718292
2.489187479019165 0.9190698862075806 0.4897778034210205
2.489187479019165 0.9190698862075806 0.7743014693260193
2.489187479019165 0.9190698862075806 1.058825135231018
2.489187479019165 0.9190698862075806 1.343348741531372
2.489187479019165 0.9190698862075806 1.627872347831726
2.489187240600586 0.9190698862075806 1.9123960733413696
2.489187240600586 0.9190698862075806 2.1969196796417236
2.489187240600586 0.9190698862075806 2.481443405151367
2.489187240600586 0.9190698862075806 2.7659668922424316
2.259218215942383 1.2161657810211182 -1.5018876791000366
2.259218215942383 1.2161657810211182 -1.2173640727996826
2.259218215942383 1.2161657810211182 -0.9328404068946838
2.259218215942383 1.2161657810211182 -0.6483168005943298
2.259218215942383 1.2161657810211182 -0.36379313468933105
2.2592179775238037 1.2161657810211182 -0.07926949858665466
2.2592179775238037 1.2161657810211182 0.20525415241718292
2.2592179775238037 1.2161657810211182 0.4897778034210205
2.2592179775238037 1.2161657810211182 0.7743014693260193
2.2592179775238037 1.2161657810211182 1.058825135231018
2.2592179775238037 1.2161657810211182 1.343348741531372
2.2592179775238037 1.2161657810211182 1.627872347831726
2.2592179775238037 1.2161657810211182 1.9123960733413696
2.2592179775238037 1.2161657810211182 2.1969196796417236
2.2592179775238037 1.2161657810211182 2.481443405151367
2.2592179775238037 1.2161657810211182 2.7659668922424316
1.974151372909546 1.4608876705169678 -1.5018876791000366
1.974151372909546 1.4608876705169678 -1.2173640727996826
1.974151372909546 1.4608876705169678 -0.9328404664993286
1.9741512537002563 1.4608876705169678 -0.6483168005943298
1.9741512537002563 1.4608876705169678 -0.36379316449165344
1.9741512537002563 1.4608876705169678 -0.07926950603723526
1.9741512537002563 1.4608876705169678 0.20525413751602173
1.9741512537002563 1.4608876705169678 0.4897777736186981
1.9741512537002563 1.4608876705169678 0.7743014097213745
1.9741512537002563 1.4608876705169678 1.058825135231018
1.9741512537002563 1.4608876705169678 1.343348741531372
1.9741512537002563 1.4608876705169678 1.627872347831726
1.9741511344909668 1.4608875513076782 1.9123960733413696
1.9741511344909668 1.4608875513076782 2.1969196796417236
1.9741511344909668 1.4608875513076782 2.481443405151367
1.9741511344909668 1.4608875513076782 2.7659668922424316
1.6456576585769653 1.6432164907455444 -1.5018877983093262
1.6456576585769653 1.6432164907455444 -1.2173640727996826
1.6456576585769653 1.6432164907455444 -0.9328404664993286
1.6456576585769653 1.6432164907455444 -0.6483168005943298
1.6456576585769653 1.6432164907455444 -0.36379316449165344
1.6456576585769653 1.6432164907455444 -0.07926952093839645
1.6456576585769653 1.6432164907455444 0.20525412261486053
1.6456576585769653 1.6432164907455444 0.4897777736186981
1.6456576585769653 1.6432164907455444 0.7743014097213745
1.6456576585769653 1.6432164907455444 1.0588250160217285
1.6456575393676758 1.6432164907455444 1.343348741531372
1.6456575393676758 1.6432164907455444 1.627872347831726
1.6456575393676758 1.6432164907455444 1.91239595413208
1.6456575393676758 1.6432164907455444 2.1969196796417236
1.6456575393676758 1.6432164907455444 2.481443405151367
1.6456575393676758 1.6432164907455444 2.7659668922424316
1.287185788154602 1.7556877136230469 -1.5018877983093262
1.287185788154602 1.7556877136230469 -1.2173640727996826
1.287185788154602 1.7556877136230469 -0.9328404664993286
1.287185788154602 1.7556877136230469 -0.6483168005943298
1.287185788154602 1.7556877136230469 -0.36379316449165344
1.287185788154602 1.7556877136230469 -0.07926953583955765
1.287185788154602 1.7556877136230469 0.20525410771369934
1.287185788154602 1.7556877136230469 0.4897777736186981
1.287185788154602 1.7556877136230469 0.7743014097213745
1.287185788154602 1.7556877136230469 1.0588250160217285
1.2871856689453125 1.7556877136230469 1.343348741531372
1.2871856689453125 1.7556877136230469 1.627872347831726
1.2871856689453125 1.7556877136230469 1.91239595413208
1.2871856689453125 1.7556877136230469 2.1969196796417236
1.2871856689453125 1.7556877136230469 2.481443166732788
1.2871856689453125 1.7556877136230469 2.7659668922424316
0.9134116172790527 1.7936968803405762 -1.5018877983093262
0.9134116172790527 1.7936968803405762 -1.2173640727996826
0.9134116172790527 1.7936968803405762 -0.9328404664993286
0.913411557674408 1.7936968803405762 -0.6483168601989746
0.913411557674408 1.7936968803405762 -0.36379319429397583
0.913411557674408 1.7936968803405762 -0.07926955074071884
0.913411557674408 1.7936968803405762 0.20525409281253815
0.913411557674408 1.7936968803405762 0.48977774381637573
0.9134114980697632 1.7936968803405762 0.7743014097213745
0.9134114980697632 1.7936968803405762 1.0588250160217285
0.9134114980697632 1.7936968803405762 1.343348741531372
0.9134114980697632 1.7936968803405762 1.627872347831726
0.9134114980697632 1.7936968803405762 1.91239595413208
0.9134114384651184 1.7936968803405762 2.1969196796417236
0.9134114384651184 1.7936968803405762 2.481443166732788
0.9134114384651184 1.7936968803405762 2.7659668922424316
