ply
format ascii 1.0
element vertex 1902
property float x
property float y
property float z
end_header
11.25 35.75 0.0
11.75 19.75 0.0
11.75 20.25 0.0
11.75 20.75 0.0
11.75 21.25 0.0
11.75 21.75 0.0
11.75 33.75 0.0
11.75 34.25 0.0
11.75 34.75 0.0
11.75 35.25 0.0
11.75 35.75 0.0
11.75 36.25 0.0
12.25 19.25 0.0
12.25 19.75 0.0
12.25 20.25 0.0
12.25 20.75 0.0
12.25 21.25 0.0
12.25 21.75 0.0
12.25 22.25 0.0
12.25 33.25 0.0
12.25 33.75 0.0
12.25 34.25 0.0
12.25 34.75 0.0
12.25 35.25 0.0
12.25 35.75 0.0
12.25 36.25 0.0
12.75 19.25 0.0
12.75 19.75 0.0
12.75 20.25 0.0
12.75 20.75 0.0
12.75 21.25 0.0
12.75 21.75 0.0
12.75 22.25 0.0
12.75 33.25 0.0
12.75 33.75 0.0
12.75 34.25 0.0
12.75 34.75 0.0
12.75 35.25 0.0
12.75 35.75 0.0
12.75 36.25 0.0
13.25 18.75 0.0
13.25 19.25 0.0
13.25 19.75 0.0
13.25 20.25 0.0
13.25 20.75 0.0
13.25 21.25 0.0
13.25 21.75 0.0
13.25 22.25 0.0
13.25 32.75 0.0
13.25 33.25 0.0
13.25 33.75 0.0
13.25 34.25 0.0
13.25 34.75 0.0
13.25 35.25 0.0
13.25 35.75 0.0
13.25 36.25 0.0
13.25 40.25 0.0
13.25 40.75 0.0
13.25 41.25 0.0
13.25 41.75 0.0
13.25 42.25 0.0
13.75 18.25 0.0
13.75 18.75 0.0
13.75 19.25 0.0
13.75 19.75 0.0
13.75 20.25 0.0
13.75 20.75 0.0
13.75 21.25 0.0
13.75 21.75 0.0
13.75 22.25 0.0
13.75 32.25 0.0
13.75 32.75 0.0
13.75 33.25 0.0
13.75 33.75 0.0
13.75 34.25 0.0
13.75 34.75 0.0
13.75 35.25 0.0
13.75 35.75 0.0
13.75 39.75 0.0
13.75 40.25 0.0
13.75 40.75 0.0
13.75 41.25 0.0
13.75 41.75 0.0
13.75 42.25 0.0
14.25 7.25 0.0
14.25 7.75 0.0
14.25 8.25 0.0
14.25 17.75 0.0
14.25 18.25 0.0
14.25 18.75 0.0
14.25 19.25 0.0
14.25 19.75 0.0
14.25 20.25 0.0
14.25 20.75 0.0
14.25 21.25 0.0
14.25 21.75 0.0
14.25 31.75 0.0
14.25 32.25 0.0
14.25 32.75 0.0
14.25 33.25 0.0
14.25 33.75 0.0
14.25 34.25 0.0
14.25 34.75 0.0
14.25 35.25 0.0
14.25 35.75 0.0
14.25 39.25 0.0
14.25 39.75 0.0
14.25 40.25 0.0
14.25 40.75 0.0
14.25 41.25 0.0
14.25 41.75 0.0
14.25 42.25 0.0
14.75 6.75 0.0
14.75 7.25 0.0
14.75 7.75 0.0
14.75 8.25 0.0
14.75 8.75 0.0
14.75 9.25 0.0
14.75 17.75 0.0
14.75 18.25 0.0
14.75 18.75 0.0
14.75 19.25 0.0
14.75 19.75 0.0
14.75 20.25 0.0
14.75 20.75 0.0
14.75 21.25 0.0
14.75 31.25 0.0
14.75 31.75 0.0
14.75 32.25 0.0
14.75 32.75 0.0
14.75 33.25 0.0
14.75 33.75 0.0
14.75 34.25 0.0
14.75 34.75 0.0
14.75 35.25 0.0
14.75 39.25 0.0
14.75 39.75 0.0
14.75 40.25 0.0
14.75 40.75 0.0
14.75 41.25 0.0
14.75 41.75 0.0
14.75 42.25 0.0
15.25 6.75 0.0
15.25 7.25 0.0
15.25 7.75 0.0
15.25 8.25 0.0
15.25 8.75 0.0
15.25 9.25 0.0
15.25 17.25 0.0
15.25 17.75 0.0
15.25 18.25 0.0
15.25 18.75 0.0
15.25 19.25 0.0
15.25 19.75 0.0
15.25 20.25 0.0
15.25 20.75 0.0
15.25 21.25 0.0
15.25 31.25 0.0
15.25 31.75 0.0
15.25 32.25 0.0
15.25 32.75 0.0
15.25 33.25 0.0
15.25 33.75 0.0
15.25 34.25 0.0
15.25 34.75 0.0
15.25 35.25 0.0
15.25 39.25 0.0
15.25 39.75 0.0
15.25 40.25 0.0
15.25 40.75 0.0
15.25 41.25 0.0
15.25 41.75 0.0
15.25 42.25 0.0
15.75 6.25 0.0
15.75 6.75 0.0
15.75 7.25 0.0
15.75 7.75 0.0
15.75 8.25 0.0
15.75 8.75 0.0
15.75 9.25 0.0
15.75 9.75 0.0
15.75 16.75 0.0
15.75 17.25 0.0
15.75 17.75 0.0
15.75 18.25 0.0
15.75 18.75 0.0
15.75 19.25 0.0
15.75 19.75 0.0
15.75 20.25 0.0
15.75 20.75 0.0
15.75 30.75 0.0
15.75 31.25 0.0
15.75 31.75 0.0
15.75 32.25 0.0
15.75 32.75 0.0
15.75 33.25 0.0
15.75 33.75 0.0
15.75 34.25 0.0
15.75 34.75 0.0
15.75 38.75 0.0
15.75 39.25 0.0
15.75 39.75 0.0
15.75 40.25 0.0
15.75 40.75 0.0
15.75 41.25 0.0
15.75 41.75 0.0
15.75 42.25 0.0
16.25 6.75 0.0
16.25 7.25 0.0
16.25 7.75 0.0
16.25 8.25 0.0
16.25 8.75 0.0
16.25 9.25 0.0
16.25 9.75 0.0
16.25 16.75 0.0
16.25 17.25 0.0
16.25 17.75 0.0
16.25 18.25 0.0
16.25 18.75 0.0
16.25 19.25 0.0
16.25 19.75 0.0
16.25 20.25 0.0
16.25 30.75 0.0
16.25 31.25 0.0
16.25 31.75 0.0
16.25 32.25 0.0
16.25 32.75 0.0
16.25 33.25 0.0
16.25 33.75 0.0
16.25 34.25 0.0
16.25 34.75 0.0
16.25 39.25 0.0
16.25 39.75 0.0
16.25 40.25 0.0
16.25 40.75 0.0
16.25 41.25 0.0
16.25 41.75 0.0
16.25 42.25 0.0
16.75 6.75 0.0
16.75 7.25 0.0
16.75 7.75 0.0
16.75 8.25 0.0
16.75 8.75 0.0
16.75 9.25 0.0
16.75 9.75 0.0
16.75 16.75 0.0
16.75 17.25 0.0
16.75 17.75 0.0
16.75 18.25 0.0
16.75 18.75 0.0
16.75 19.25 0.0
16.75 19.75 0.0
16.75 20.25 0.0
16.75 30.75 0.0
16.75 31.25 0.0
16.75 31.75 0.0
16.75 32.25 0.0
16.75 32.75 0.0
16.75 33.25 0.0
16.75 33.75 0.0
16.75 34.25 0.0
16.75 38.75 0.0
16.75 39.25 0.0
16.75 39.75 0.0
16.75 40.25 0.0
16.75 40.75 0.0
16.75 41.25 0.0
16.75 41.75 0.0
16.75 42.25 0.0
17.25 7.25 0.0
17.25 7.75 0.0
17.25 8.25 0.0
17.25 8.75 0.0
17.25 9.25 0.0
17.25 9.75 0.0
17.25 10.25 0.0
17.25 10.75 0.0
17.25 16.25 0.0
17.25 16.75 0.0
17.25 17.25 0.0
17.25 17.75 0.0
17.25 18.25 0.0
17.25 18.75 0.0
17.25 19.25 0.0
17.25 19.75 0.0
17.25 20.25 0.0
17.25 30.25 0.0
17.25 30.75 0.0
17.25 31.25 0.0
17.25 31.75 0.0
17.25 32.25 0.0
17.25 32.75 0.0
17.25 33.25 0.0
17.25 33.75 0.0
17.25 34.25 0.0
17.25 38.75 0.0
17.25 39.25 0.0
17.25 39.75 0.0
17.25 40.25 0.0
17.25 40.75 0.0
17.25 41.25 0.0
17.25 41.75 0.0
17.25 42.25 0.0
17.75 7.25 0.0
17.75 7.75 0.0
17.75 8.25 0.0
17.75 8.75 0.0
17.75 9.25 0.0
17.75 9.75 0.0
17.75 10.25 0.0
17.75 10.75 0.0
17.75 16.25 0.0
17.75 16.75 0.0
17.75 17.25 0.0
17.75 17.75 0.0
17.75 18.25 0.0
17.75 18.75 0.0
17.75 19.25 0.0
17.75 19.75 0.0
17.75 30.25 0.0
17.75 30.75 0.0
17.75 31.25 0.0
17.75 31.75 0.0
17.75 32.25 0.0
17.75 32.75 0.0
17.75 33.25 0.0
17.75 33.75 0.0
17.75 38.75 0.0
17.75 39.25 0.0
17.75 39.75 0.0
17.75 40.25 0.0
17.75 40.75 0.0
17.75 41.25 0.0
17.75 41.75 0.0
18.25 7.75 0.0
18.25 8.25 0.0
18.25 8.75 0.0
18.25 9.25 0.0
18.25 9.75 0.0
18.25 10.25 0.0
18.25 10.75 0.0
18.25 11.25 0.0
18.25 16.25 0.0
18.25 16.75 0.0
18.25 17.25 0.0
18.25 17.75 0.0
18.25 18.25 0.0
18.25 18.75 0.0
18.25 19.25 0.0
18.25 29.75 0.0
18.25 30.25 0.0
18.25 30.75 0.0
18.25 31.25 0.0
18.25 31.75 0.0
18.25 32.25 0.0
18.25 32.75 0.0
18.25 33.25 0.0
18.25 38.25 0.0
18.25 38.75 0.0
18.25 39.25 0.0
18.25 39.75 0.0
18.25 40.25 0.0
18.25 40.75 0.0
18.25 41.25 0.0
18.25 41.75 0.0
18.75 7.75 0.0
18.75 8.25 0.0
18.75 8.75 0.0
18.75 9.25 0.0
18.75 9.75 0.0
18.75 10.25 0.0
18.75 10.75 0.0
18.75 11.25 0.0
18.75 15.75 0.0
18.75 16.25 0.0
18.75 16.75 0.0
18.75 17.25 0.0
18.75 17.75 0.0
18.75 18.25 0.0
18.75 18.75 0.0
18.75 19.25 0.0
18.75 29.75 0.0
18.75 30.25 0.0
18.75 30.75 0.0
18.75 31.25 0.0
18.75 31.75 0.0
18.75 32.25 0.0
18.75 32.75 0.0
18.75 33.25 0.0
18.75 38.25 0.0
18.75 38.75 0.0
18.75 39.25 0.0
18.75 39.75 0.0
18.75 40.25 0.0
18.75 40.75 0.0
18.75 41.25 0.0
19.25 7.75 0.0
19.25 8.25 0.0
19.25 8.75 0.0
19.25 9.25 0.0
19.25 9.75 0.0
19.25 10.25 0.0
19.25 10.75 0.0
19.25 11.25 0.0
19.25 11.75 0.0
19.25 15.75 0.0
19.25 16.25 0.0
19.25 16.75 0.0
19.25 17.25 0.0
19.25 17.75 0.0
19.25 18.25 0.0
19.25 18.75 0.0
19.25 29.25 0.0
19.25 29.75 0.0
19.25 30.25 0.0
19.25 30.75 0.0
19.25 31.25 0.0
19.25 31.75 0.0
19.25 32.25 0.0
19.25 32.75 0.0
19.25 37.75 0.0
19.25 38.25 0.0
19.25 38.75 0.0
19.25 39.25 0.0
19.25 39.75 0.0
19.25 40.25 0.0
19.25 40.75 0.0
19.25 41.25 0.0
19.75 8.25 0.0
19.75 8.75 0.0
19.75 9.25 0.0
19.75 9.75 0.0
19.75 10.25 0.0
19.75 10.75 0.0
19.75 11.25 0.0
19.75 11.75 0.0
19.75 15.25 0.0
19.75 15.75 0.0
19.75 16.25 0.0
19.75 16.75 0.0
19.75 17.25 0.0
19.75 17.75 0.0
19.75 18.25 0.0
19.75 18.75 0.0
19.75 29.25 0.0
19.75 29.75 0.0
19.75 30.25 0.0
19.75 30.75 0.0
19.75 31.25 0.0
19.75 31.75 0.0
19.75 32.25 0.0
19.75 37.75 0.0
19.75 38.25 0.0
19.75 38.75 0.0
19.75 39.25 0.0
19.75 39.75 0.0
19.75 40.25 0.0
19.75 40.75 0.0
20.25 8.25 0.0
20.25 8.75 0.0
20.25 9.25 0.0
20.25 9.75 0.0
20.25 10.25 0.0
20.25 10.75 0.0
20.25 11.25 0.0
20.25 11.75 0.0
20.25 15.25 0.0
20.25 15.75 0.0
20.25 16.25 0.0
20.25 16.75 0.0
20.25 17.25 0.0
20.25 17.75 0.0
20.25 18.25 0.0
20.25 28.75 0.0
20.25 29.25 0.0
20.25 29.75 0.0
20.25 30.25 0.0
20.25 30.75 0.0
20.25 31.25 0.0
20.25 31.75 0.0
20.25 32.25 0.0
20.25 37.25 0.0
20.25 37.75 0.0
20.25 38.25 0.0
20.25 38.75 0.0
20.25 39.25 0.0
20.25 39.75 0.0
20.25 40.25 0.0
20.25 40.75 0.0
20.75 8.75 0.0
20.75 9.25 0.0
20.75 9.75 0.0
20.75 10.25 0.0
20.75 10.75 0.0
20.75 11.25 0.0
20.75 11.75 0.0
20.75 12.25 0.0
20.75 14.75 0.0
20.75 15.25 0.0
20.75 15.75 0.0
20.75 16.25 0.0
20.75 16.75 0.0
20.75 17.25 0.0
20.75 17.75 0.0
20.75 18.25 0.0
20.75 28.75 0.0
20.75 29.25 0.0
20.75 29.75 0.0
20.75 30.25 0.0
20.75 30.75 0.0
20.75 31.25 0.0
20.75 31.75 0.0
20.75 37.25 0.0
20.75 37.75 0.0
20.75 38.25 0.0
20.75 38.75 0.0
20.75 39.25 0.0
20.75 39.75 0.0
20.75 40.25 0.0
21.25 8.75 0.0
21.25 9.25 0.0
21.25 9.75 0.0
21.25 10.25 0.0
21.25 10.75 0.0
21.25 11.25 0.0
21.25 11.75 0.0
21.25 12.25 0.0
21.25 12.75 0.0
21.25 14.75 0.0
21.25 15.25 0.0
21.25 15.75 0.0
21.25 16.25 0.0
21.25 16.75 0.0
21.25 17.25 0.0
21.25 17.75 0.0
21.25 28.75 0.0
21.25 29.25 0.0
21.25 29.75 0.0
21.25 30.25 0.0
21.25 30.75 0.0
21.25 31.25 0.0
21.25 31.75 0.0
21.25 36.75 0.0
21.25 37.25 0.0
21.25 37.75 0.0
21.25 38.25 0.0
21.25 38.75 0.0
21.25 39.25 0.0
21.25 39.75 0.0
21.25 40.25 0.0
21.75 9.25 0.0
21.75 9.75 0.0
21.75 10.25 0.0
21.75 10.75 0.0
21.75 11.25 0.0
21.75 11.75 0.0
21.75 12.25 0.0
21.75 12.75 0.0
21.75 14.25 0.0
21.75 14.75 0.0
21.75 15.25 0.0
21.75 15.75 0.0
21.75 16.25 0.0
21.75 16.75 0.0
21.75 17.25 0.0
21.75 17.75 0.0
21.75 28.25 0.0
21.75 28.75 0.0
21.75 29.25 0.0
21.75 29.75 0.0
21.75 30.25 0.0
21.75 30.75 0.0
21.75 31.25 0.0
21.75 36.25 0.0
21.75 36.75 0.0
21.75 37.25 0.0
21.75 37.75 0.0
21.75 38.25 0.0
21.75 38.75 0.0
21.75 39.25 0.0
21.75 39.75 0.0
22.25 9.25 0.0
22.25 9.75 0.0
22.25 10.25 0.0
22.25 10.75 0.0
22.25 11.25 0.0
22.25 11.75 0.0
22.25 12.25 0.0
22.25 12.75 0.0
22.25 13.25 0.0
22.25 14.25 0.0
22.25 14.75 0.0
22.25 15.25 0.0
22.25 15.75 0.0
22.25 16.25 0.0
22.25 16.75 0.0
22.25 17.25 0.0
22.25 28.25 0.0
22.25 28.75 0.0
22.25 29.25 0.0
22.25 29.75 0.0
22.25 30.25 0.0
22.25 30.75 0.0
22.25 31.25 0.0
22.25 36.25 0.0
22.25 36.75 0.0
22.25 37.25 0.0
22.25 37.75 0.0
22.25 38.25 0.0
22.25 38.75 0.0
22.25 39.25 0.0
22.25 39.75 0.0
22.75 9.75 0.0
22.75 10.25 0.0
22.75 10.75 0.0
22.75 11.25 0.0
22.75 11.75 0.0
22.75 12.25 0.0
22.75 12.75 0.0
22.75 13.25 0.0
22.75 13.75 0.0
22.75 14.25 0.0
22.75 14.75 0.0
22.75 15.25 0.0
22.75 15.75 0.0
22.75 16.25 0.0
22.75 16.75 0.0
22.75 17.25 0.0
22.75 28.25 0.0
22.75 28.75 0.0
22.75 29.25 0.0
22.75 29.75 0.0
22.75 30.25 0.0
22.75 30.75 0.0
22.75 31.25 0.0
22.75 31.75 0.0
22.75 36.25 0.0
22.75 36.75 0.0
22.75 37.25 0.0
22.75 37.75 0.0
22.75 38.25 0.0
22.75 38.75 0.0
22.75 39.25 0.0
22.75 39.75 0.0
23.25 10.25 0.0
23.25 10.75 0.0
23.25 11.25 0.0
23.25 11.75 0.0
23.25 12.25 0.0
23.25 12.75 0.0
23.25 13.25 0.0
23.25 13.75 0.0
23.25 14.25 0.0
23.25 14.75 0.0
23.25 15.25 0.0
23.25 15.75 0.0
23.25 16.25 0.0
23.25 16.75 0.0
23.25 28.25 0.0
23.25 28.75 0.0
23.25 29.25 0.0
23.25 29.75 0.0
23.25 30.25 0.0
23.25 30.75 0.0
23.25 31.25 0.0
23.25 36.25 0.0
23.25 36.75 0.0
23.25 37.25 0.0
23.25 37.75 0.0
23.25 38.25 0.0
23.25 38.75 0.0
23.25 39.25 0.0
23.25 39.75 0.0
23.75 10.75 0.0
23.75 11.25 0.0
23.75 11.75 0.0
23.75 12.25 0.0
23.75 12.75 0.0
23.75 13.25 0.0
23.75 13.75 0.0
23.75 14.25 0.0
23.75 14.75 0.0
23.75 15.25 0.0
23.75 15.75 0.0
23.75 16.25 0.0
23.75 16.75 0.0
23.75 17.25 0.0
23.75 28.25 0.0
23.75 28.75 0.0
23.75 29.25 0.0
23.75 29.75 0.0
23.75 30.25 0.0
23.75 30.75 0.0
23.75 31.25 0.0
23.75 35.75 0.0
23.75 36.25 0.0
23.75 36.75 0.0
23.75 37.25 0.0
23.75 37.75 0.0
23.75 38.25 0.0
23.75 38.75 0.0
23.75 39.25 0.0
24.25 11.25 0.0
24.25 11.75 0.0
24.25 12.25 0.0
24.25 12.75 0.0
24.25 13.25 0.0
24.25 13.75 0.0
24.25 14.25 0.0
24.25 14.75 0.0
24.25 15.25 0.0
24.25 15.75 0.0
24.25 16.25 0.0
24.25 16.75 0.0
24.25 17.25 0.0
24.25 28.25 0.0
24.25 28.75 0.0
24.25 29.25 0.0
24.25 29.75 0.0
24.25 30.25 0.0
24.25 30.75 0.0
24.25 31.25 0.0
24.25 35.75 0.0
24.25 36.25 0.0
24.25 36.75 0.0
24.25 37.25 0.0
24.25 37.75 0.0
24.25 38.25 0.0
24.25 38.75 0.0
24.25 39.25 0.0
24.75 11.25 0.0
24.75 11.75 0.0
24.75 12.25 0.0
24.75 12.75 0.0
24.75 13.25 0.0
24.75 13.75 0.0
24.75 14.25 0.0
24.75 14.75 0.0
24.75 15.25 0.0
24.75 15.75 0.0
24.75 16.25 0.0
24.75 16.75 0.0
24.75 17.25 0.0
24.75 28.25 0.0
24.75 28.75 0.0
24.75 29.25 0.0
24.75 29.75 0.0
24.75 30.25 0.0
24.75 30.75 0.0
24.75 35.25 0.0
24.75 35.75 0.0
24.75 36.25 0.0
24.75 36.75 0.0
24.75 37.25 0.0
24.75 37.75 0.0
24.75 38.25 0.0
24.75 38.75 0.0
25.25 11.75 0.0
25.25 12.25 0.0
25.25 12.75 0.0
25.25 13.25 0.0
25.25 13.75 0.0
25.25 14.25 0.0
25.25 14.75 0.0
25.25 15.25 0.0
25.25 15.75 0.0
25.25 16.25 0.0
25.25 16.75 0.0
25.25 17.25 0.0
25.25 27.75 0.0
25.25 28.25 0.0
25.25 28.75 0.0
25.25 29.25 0.0
25.25 29.75 0.0
25.25 30.25 0.0
25.25 30.75 0.0
25.25 34.75 0.0
25.25 35.25 0.0
25.25 35.75 0.0
25.25 36.25 0.0
25.25 36.75 0.0
25.25 37.25 0.0
25.25 37.75 0.0
25.25 38.25 0.0
25.75 12.25 0.0
25.75 12.75 0.0
25.75 13.25 0.0
25.75 13.75 0.0
25.75 14.25 0.0
25.75 14.75 0.0
25.75 15.25 0.0
25.75 15.75 0.0
25.75 16.25 0.0
25.75 16.75 0.0
25.75 17.25 0.0
25.75 17.75 0.0
25.75 27.75 0.0
25.75 28.25 0.0
25.75 28.75 0.0
25.75 29.25 0.0
25.75 29.75 0.0
25.75 30.25 0.0
25.75 30.75 0.0
25.75 33.75 0.0
25.75 34.25 0.0
25.75 34.75 0.0
25.75 35.25 0.0
25.75 35.75 0.0
25.75 36.25 0.0
25.75 36.75 0.0
25.75 37.25 0.0
25.75 37.75 0.0
26.25 12.75 0.0
26.25 13.25 0.0
26.25 13.75 0.0
26.25 14.25 0.0
26.25 14.75 0.0
26.25 15.25 0.0
26.25 15.75 0.0
26.25 16.25 0.0
26.25 16.75 0.0
26.25 17.25 0.0
26.25 17.75 0.0
26.25 18.25 0.0
26.25 18.75 0.0
26.25 27.75 0.0
26.25 28.25 0.0
26.25 28.75 0.0
26.25 29.25 0.0
26.25 29.75 0.0
26.25 30.25 0.0
26.25 30.75 0.0
26.25 33.25 0.0
26.25 33.75 0.0
26.25 34.25 0.0
26.25 34.75 0.0
26.25 35.25 0.0
26.25 35.75 0.0
26.25 36.25 0.0
26.25 36.75 0.0
26.25 37.25 0.0
26.25 37.75 0.0
26.75 12.75 0.0
26.75 13.25 0.0
26.75 13.75 0.0
26.75 14.25 0.0
26.75 14.75 0.0
26.75 15.25 0.0
26.75 15.75 0.0
26.75 16.25 0.0
26.75 16.75 0.0
26.75 17.25 0.0
26.75 17.75 0.0
26.75 18.25 0.0
26.75 18.75 0.0
26.75 19.25 0.0
26.75 19.75 0.0
26.75 20.25 0.0
26.75 23.25 0.0
26.75 27.75 0.0
26.75 28.25 0.0
26.75 28.75 0.0
26.75 29.25 0.0
26.75 29.75 0.0
26.75 30.25 0.0
26.75 30.75 0.0
26.75 31.25 0.0
26.75 31.75 0.0
26.75 32.25 0.0
26.75 32.75 0.0
26.75 33.25 0.0
26.75 33.75 0.0
26.75 34.25 0.0
26.75 34.75 0.0
26.75 35.25 0.0
26.75 35.75 0.0
26.75 36.25 0.0
26.75 36.75 0.0
26.75 37.25 0.0
27.25 13.25 0.0
27.25 13.75 0.0
27.25 14.25 0.0
27.25 14.75 0.0
27.25 15.25 0.0
27.25 15.75 0.0
27.25 16.25 0.0
27.25 16.75 0.0
27.25 17.25 0.0
27.25 17.75 0.0
27.25 18.25 0.0
27.25 18.75 0.0
27.25 19.25 0.0
27.25 19.75 0.0
27.25 20.25 0.0
27.25 20.75 0.0
27.25 21.25 0.0
27.25 21.75 0.0
27.25 22.25 0.0
27.25 22.75 0.0
27.25 23.25 0.0
27.25 23.75 0.0
27.25 24.25 0.0
27.25 24.75 0.0
27.25 25.25 0.0
27.25 25.75 0.0
27.25 26.25 0.0
27.25 26.75 0.0
27.25 27.25 0.0
27.25 27.75 0.0
27.25 28.25 0.0
27.25 28.75 0.0
27.25 29.25 0.0
27.25 29.75 0.0
27.25 30.25 0.0
27.25 30.75 0.0
27.25 31.25 0.0
27.25 31.75 0.0
27.25 32.25 0.0
27.25 32.75 0.0
27.25 33.25 0.0
27.25 33.75 0.0
27.25 34.25 0.0
27.25 34.75 0.0
27.25 35.25 0.0
27.25 35.75 0.0
27.25 36.25 0.0
27.25 36.75 0.0
27.75 13.25 0.0
27.75 13.75 0.0
27.75 14.25 0.0
27.75 14.75 0.0
27.75 15.25 0.0
27.75 15.75 0.0
27.75 16.25 0.0
27.75 16.75 0.0
27.75 17.25 0.0
27.75 17.75 0.0
27.75 18.25 0.0
27.75 18.75 0.0
27.75 19.25 0.0
27.75 19.75 0.0
27.75 20.25 0.0
27.75 20.75 0.0
27.75 21.25 0.0
27.75 21.75 0.0
27.75 22.25 0.0
27.75 22.75 0.0
27.75 23.25 0.0
27.75 23.75 0.0
27.75 24.25 0.0
27.75 24.75 0.0
27.75 25.25 0.0
27.75 25.75 0.0
27.75 26.25 0.0
27.75 26.75 0.0
27.75 27.25 0.0
27.75 27.75 0.0
27.75 28.25 0.0
27.75 28.75 0.0
27.75 29.25 0.0
27.75 29.75 0.0
27.75 30.25 0.0
27.75 30.75 0.0
27.75 31.25 0.0
27.75 31.75 0.0
27.75 32.25 0.0
27.75 32.75 0.0
27.75 33.25 0.0
27.75 33.75 0.0
27.75 34.25 0.0
27.75 34.75 0.0
27.75 35.25 0.0
27.75 35.75 0.0
27.75 36.25 0.0
28.25 13.25 0.0
28.25 13.75 0.0
28.25 14.25 0.0
28.25 14.75 0.0
28.25 15.25 0.0
28.25 15.75 0.0
28.25 16.25 0.0
28.25 16.75 0.0
28.25 17.25 0.0
28.25 17.75 0.0
28.25 18.25 0.0
28.25 18.75 0.0
28.25 19.25 0.0
28.25 19.75 0.0
28.25 20.25 0.0
28.25 20.75 0.0
28.25 21.25 0.0
28.25 21.75 0.0
28.25 22.25 0.0
28.25 22.75 0.0
28.25 23.25 0.0
28.25 23.75 0.0
28.25 24.25 0.0
28.25 24.75 0.0
28.25 25.25 0.0
28.25 25.75 0.0
28.25 26.25 0.0
28.25 26.75 0.0
28.25 27.25 0.0
28.25 27.75 0.0
28.25 28.25 0.0
28.25 28.75 0.0
28.25 29.25 0.0
28.25 29.75 0.0
28.25 30.25 0.0
28.25 30.75 0.0
28.25 31.25 0.0
28.25 31.75 0.0
28.25 32.25 0.0
28.25 32.75 0.0
28.25 33.25 0.0
28.25 33.75 0.0
28.25 34.25 0.0
28.25 34.75 0.0
28.25 35.25 0.0
28.25 35.75 0.0
28.25 36.25 0.0
28.75 13.25 0.0
28.75 13.75 0.0
28.75 14.25 0.0
28.75 14.75 0.0
28.75 15.25 0.0
28.75 15.75 0.0
28.75 16.25 0.0
28.75 16.75 0.0
28.75 17.25 0.0
28.75 17.75 0.0
28.75 18.25 0.0
28.75 18.75 0.0
28.75 19.25 0.0
28.75 19.75 0.0
28.75 20.25 0.0
28.75 20.75 0.0
28.75 21.25 0.0
28.75 21.75 0.0
28.75 22.25 0.0
28.75 22.75 0.0
28.75 23.25 0.0
28.75 23.75 0.0
28.75 24.25 0.0
28.75 24.75 0.0
28.75 25.25 0.0
28.75 25.75 0.0
28.75 26.25 0.0
28.75 26.75 0.0
28.75 27.25 0.0
28.75 27.75 0.0
28.75 28.25 0.0
28.75 28.75 0.0
28.75 29.25 0.0
28.75 29.75 0.0
28.75 30.25 0.0
28.75 30.75 0.0
28.75 31.25 0.0
28.75 31.75 0.0
28.75 32.25 0.0
28.75 32.75 0.0
28.75 33.25 0.0
28.75 33.75 0.0
28.75 34.25 0.0
28.75 34.75 0.0
28.75 35.25 0.0
29.25 13.25 0.0
29.25 13.75 0.0
29.25 14.25 0.0
29.25 14.75 0.0
29.25 15.25 0.0
29.25 15.75 0.0
29.25 16.25 0.0
29.25 17.25 0.0
29.25 17.75 0.0
29.25 18.25 0.0
29.25 18.75 0.0
29.25 19.25 0.0
29.25 19.75 0.0
29.25 20.25 0.0
29.25 20.75 0.0
29.25 21.25 0.0
29.25 21.75 0.0
29.25 22.25 0.0
29.25 22.75 0.0
29.25 23.25 0.0
29.25 23.75 0.0
29.25 24.25 0.0
29.25 24.75 0.0
29.25 25.25 0.0
29.25 25.75 0.0
29.25 26.25 0.0
29.25 26.75 0.0
29.25 27.25 0.0
29.25 27.75 0.0
29.25 28.25 0.0
29.25 28.75 0.0
29.25 29.25 0.0
29.25 29.75 0.0
29.25 30.25 0.0
29.25 30.75 0.0
29.25 31.25 0.0
29.25 31.75 0.0
29.25 32.25 0.0
29.25 32.75 0.0
29.25 33.25 0.0
29.25 33.75 0.0
29.25 34.25 0.0
29.25 34.75 0.0
29.25 35.25 0.0
29.75 13.25 0.0
29.75 13.75 0.0
29.75 14.25 0.0
29.75 14.75 0.0
29.75 15.25 0.0
29.75 15.75 0.0
29.75 16.25 0.0
29.75 18.75 0.0
29.75 19.25 0.0
29.75 19.75 0.0
29.75 20.25 0.0
29.75 20.75 0.0
29.75 21.25 0.0
29.75 21.75 0.0
29.75 22.25 0.0
29.75 22.75 0.0
29.75 23.25 0.0
29.75 23.75 0.0
29.75 24.25 0.0
29.75 24.75 0.0
29.75 25.25 0.0
29.75 25.75 0.0
29.75 26.25 0.0
29.75 26.75 0.0
29.75 27.25 0.0
29.75 27.75 0.0
29.75 28.25 0.0
29.75 28.75 0.0
29.75 29.25 0.0
29.75 29.75 0.0
29.75 30.25 0.0
29.75 30.75 0.0
29.75 31.25 0.0
29.75 31.75 0.0
29.75 32.25 0.0
29.75 32.75 0.0
29.75 33.25 0.0
29.75 33.75 0.0
30.25 13.25 0.0
30.25 13.75 0.0
30.25 14.25 0.0
30.25 14.75 0.0
30.25 15.25 0.0
30.25 15.75 0.0
30.25 16.25 0.0
30.25 21.25 0.0
30.25 21.75 0.0
30.25 22.25 0.0
30.25 22.75 0.0
30.25 24.25 0.0
30.25 24.75 0.0
30.25 25.25 0.0
30.25 25.75 0.0
30.25 26.25 0.0
30.25 26.75 0.0
30.25 27.25 0.0
30.25 27.75 0.0
30.25 28.25 0.0
30.25 28.75 0.0
30.25 29.25 0.0
30.25 29.75 0.0
30.25 30.25 0.0
30.25 30.75 0.0
30.25 31.25 0.0
30.25 31.75 0.0
30.75 13.25 0.0
30.75 13.75 0.0
30.75 14.25 0.0
30.75 14.75 0.0
30.75 15.25 0.0
30.75 15.75 0.0
30.75 16.25 0.0
30.75 27.75 0.0
30.75 28.25 0.0
30.75 28.75 0.0
30.75 29.25 0.0
30.75 29.75 0.0
30.75 30.25 0.0
30.75 30.75 0.0
30.75 31.25 0.0
31.25 13.25 0.0
31.25 13.75 0.0
31.25 14.25 0.0
31.25 14.75 0.0
31.25 15.25 0.0
31.25 15.75 0.0
31.25 16.25 0.0
31.25 28.25 0.0
31.25 28.75 0.0
31.25 29.25 0.0
31.25 29.75 0.0
31.25 30.25 0.0
31.25 30.75 0.0
31.25 31.25 0.0
31.75 13.25 0.0
31.75 13.75 0.0
31.75 14.25 0.0
31.75 14.75 0.0
31.75 15.25 0.0
31.75 15.75 0.0
31.75 16.25 0.0
31.75 28.25 0.0
31.75 28.75 0.0
31.75 29.25 0.0
31.75 29.75 0.0
31.75 30.25 0.0
31.75 30.75 0.0
31.75 31.25 0.0
32.25 13.25 0.0
32.25 13.75 0.0
32.25 14.25 0.0
32.25 14.75 0.0
32.25 15.25 0.0
32.25 15.75 0.0
32.25 16.25 0.0
32.25 28.25 0.0
32.25 28.75 0.0
32.25 29.25 0.0
32.25 29.75 0.0
32.25 30.25 0.0
32.25 30.75 0.0
32.25 31.25 0.0
32.75 13.25 0.0
32.75 13.75 0.0
32.75 14.25 0.0
32.75 14.75 0.0
32.75 15.25 0.0
32.75 15.75 0.0
32.75 16.25 0.0
32.75 28.25 0.0
32.75 28.75 0.0
32.75 29.25 0.0
32.75 29.75 0.0
32.75 30.25 0.0
32.75 30.75 0.0
32.75 31.25 0.0
33.25 13.25 0.0
33.25 13.75 0.0
33.25 14.25 0.0
33.25 14.75 0.0
33.25 15.25 0.0
33.25 15.75 0.0
33.25 16.25 0.0
33.25 19.25 0.0
33.25 19.75 0.0
33.25 20.25 0.0
33.25 20.75 0.0
33.25 21.25 0.0
33.25 28.25 0.0
33.25 28.75 0.0
33.25 29.25 0.0
33.25 29.75 0.0
33.25 30.25 0.0
33.25 30.75 0.0
33.25 31.25 0.0
33.75 13.25 0.0
33.75 13.75 0.0
33.75 14.25 0.0
33.75 14.75 0.0
33.75 15.25 0.0
33.75 15.75 0.0
33.75 16.25 0.0
33.75 19.25 0.0
33.75 19.75 0.0
33.75 20.25 0.0
33.75 20.75 0.0
33.75 21.25 0.0
33.75 21.75 0.0
33.75 28.25 0.0
33.75 28.75 0.0
33.75 29.25 0.0
33.75 29.75 0.0
33.75 30.25 0.0
33.75 30.75 0.0
33.75 31.25 0.0
34.25 12.75 0.0
34.25 13.25 0.0
34.25 13.75 0.0
34.25 14.25 0.0
34.25 14.75 0.0
34.25 15.25 0.0
34.25 15.75 0.0
34.25 18.75 0.0
34.25 19.25 0.0
34.25 19.75 0.0
34.25 20.25 0.0
34.25 20.75 0.0
34.25 21.25 0.0
34.25 21.75 0.0
34.25 28.25 0.0
34.25 28.75 0.0
34.25 29.25 0.0
34.25 29.75 0.0
34.25 30.25 0.0
34.25 30.75 0.0
34.25 31.25 0.0
34.75 12.75 0.0
34.75 13.25 0.0
34.75 13.75 0.0
34.75 14.25 0.0
34.75 14.75 0.0
34.75 15.25 0.0
34.75 15.75 0.0
34.75 18.25 0.0
34.75 18.75 0.0
34.75 19.25 0.0
34.75 19.75 0.0
34.75 20.25 0.0
34.75 20.75 0.0
34.75 21.25 0.0
34.75 21.75 0.0
34.75 28.25 0.0
34.75 28.75 0.0
34.75 29.25 0.0
34.75 29.75 0.0
34.75 30.25 0.0
34.75 30.75 0.0
34.75 31.25 0.0
35.25 12.75 0.0
35.25 13.25 0.0
35.25 13.75 0.0
35.25 14.25 0.0
35.25 14.75 0.0
35.25 15.25 0.0
35.25 15.75 0.0
35.25 18.25 0.0
35.25 18.75 0.0
35.25 19.25 0.0
35.25 19.75 0.0
35.25 20.25 0.0
35.25 20.75 0.0
35.25 21.25 0.0
35.25 21.75 0.0
35.25 28.25 0.0
35.25 28.75 0.0
35.25 29.25 0.0
35.25 29.75 0.0
35.25 30.25 0.0
35.25 30.75 0.0
35.25 31.25 0.0
35.25 31.75 0.0
35.75 12.75 0.0
35.75 13.25 0.0
35.75 13.75 0.0
35.75 14.25 0.0
35.75 14.75 0.0
35.75 15.25 0.0
35.75 15.75 0.0
35.75 17.75 0.0
35.75 18.25 0.0
35.75 18.75 0.0
35.75 19.25 0.0
35.75 19.75 0.0
35.75 20.25 0.0
35.75 20.75 0.0
35.75 21.25 0.0
35.75 28.75 0.0
35.75 29.25 0.0
35.75 29.75 0.0
35.75 30.25 0.0
35.75 30.75 0.0
35.75 31.25 0.0
35.75 31.75 0.0
36.25 12.75 0.0
36.25 13.25 0.0
36.25 13.75 0.0
36.25 14.25 0.0
36.25 14.75 0.0
36.25 15.25 0.0
36.25 15.75 0.0
36.25 17.75 0.0
36.25 18.25 0.0
36.25 18.75 0.0
36.25 19.25 0.0
36.25 19.75 0.0
36.25 20.25 0.0
36.25 20.75 0.0
36.25 21.25 0.0
36.25 29.25 0.0
36.25 29.75 0.0
36.25 30.25 0.0
36.25 30.75 0.0
36.25 31.25 0.0
36.25 31.75 0.0
36.25 32.25 0.0
36.75 13.25 0.0
36.75 13.75 0.0
36.75 14.25 0.0
36.75 14.75 0.0
36.75 15.25 0.0
36.75 15.75 0.0
36.75 16.25 0.0
36.75 17.75 0.0
36.75 18.25 0.0
36.75 18.75 0.0
36.75 19.25 0.0
36.75 19.75 0.0
36.75 20.25 0.0
36.75 20.75 0.0
36.75 21.25 0.0
36.75 29.25 0.0
36.75 29.75 0.0
36.75 30.25 0.0
36.75 30.75 0.0
36.75 31.25 0.0
36.75 31.75 0.0
36.75 32.25 0.0
37.25 13.25 0.0
37.25 13.75 0.0
37.25 14.25 0.0
37.25 14.75 0.0
37.25 15.25 0.0
37.25 15.75 0.0
37.25 16.25 0.0
37.25 17.75 0.0
37.25 18.25 0.0
37.25 18.75 0.0
37.25 19.25 0.0
37.25 19.75 0.0
37.25 20.25 0.0
37.25 20.75 0.0
37.25 21.25 0.0
37.25 29.25 0.0
37.25 29.75 0.0
37.25 30.25 0.0
37.25 30.75 0.0
37.25 31.25 0.0
37.25 31.75 0.0
37.25 32.25 0.0
37.75 13.25 0.0
37.75 13.75 0.0
37.75 14.25 0.0
37.75 14.75 0.0
37.75 15.25 0.0
37.75 15.75 0.0
37.75 16.25 0.0
37.75 17.25 0.0
37.75 17.75 0.0
37.75 18.25 0.0
37.75 18.75 0.0
37.75 19.25 0.0
37.75 19.75 0.0
37.75 20.25 0.0
37.75 20.75 0.0
37.75 29.25 0.0
37.75 29.75 0.0
37.75 30.25 0.0
37.75 30.75 0.0
37.75 31.25 0.0
37.75 31.75 0.0
37.75 32.25 0.0
38.25 12.75 0.0
38.25 13.25 0.0
38.25 13.75 0.0
38.25 14.25 0.0
38.25 14.75 0.0
38.25 15.25 0.0
38.25 15.75 0.0
38.25 17.25 0.0
38.25 17.75 0.0
38.25 18.25 0.0
38.25 18.75 0.0
38.25 19.25 0.0
38.25 19.75 0.0
38.25 20.25 0.0
38.25 20.75 0.0
38.25 29.25 0.0
38.25 29.75 0.0
38.25 30.25 0.0
38.25 30.75 0.0
38.25 31.25 0.0
38.25 31.75 0.0
38.25 32.25 0.0
38.75 12.75 0.0
38.75 13.25 0.0
38.75 13.75 0.0
38.75 14.25 0.0
38.75 14.75 0.0
38.75 15.25 0.0
38.75 15.75 0.0
38.75 16.75 0.0
38.75 17.25 0.0
38.75 17.75 0.0
38.75 18.25 0.0
38.75 18.75 0.0
38.75 19.25 0.0
38.75 19.75 0.0
38.75 20.25 0.0
38.75 29.25 0.0
38.75 29.75 0.0
38.75 30.25 0.0
38.75 30.75 0.0
38.75 31.25 0.0
38.75 31.75 0.0
38.75 32.25 0.0
39.25 12.75 0.0
39.25 13.25 0.0
39.25 13.75 0.0
39.25 14.25 0.0
39.25 14.75 0.0
39.25 15.25 0.0
39.25 15.75 0.0
39.25 16.25 0.0
39.25 16.75 0.0
39.25 17.25 0.0
39.25 17.75 0.0
39.25 18.25 0.0
39.25 18.75 0.0
39.25 19.25 0.0
39.25 19.75 0.0
39.25 20.25 0.0
39.25 29.25 0.0
39.25 29.75 0.0
39.25 30.25 0.0
39.25 30.75 0.0
39.25 31.25 0.0
39.25 31.75 0.0
39.25 32.25 0.0
39.75 12.75 0.0
39.75 13.25 0.0
39.75 13.75 0.0
39.75 14.25 0.0
39.75 14.75 0.0
39.75 15.25 0.0
39.75 15.75 0.0
39.75 16.25 0.0
39.75 16.75 0.0
39.75 17.25 0.0
39.75 17.75 0.0
39.75 18.25 0.0
39.75 18.75 0.0
39.75 19.25 0.0
39.75 19.75 0.0
39.75 29.25 0.0
39.75 29.75 0.0
39.75 30.25 0.0
39.75 30.75 0.0
39.75 31.25 0.0
39.75 31.75 0.0
39.75 32.25 0.0
40.25 12.75 0.0
40.25 13.25 0.0
40.25 13.75 0.0
40.25 14.25 0.0
40.25 14.75 0.0
40.25 15.25 0.0
40.25 15.75 0.0
40.25 16.25 0.0
40.25 16.75 0.0
40.25 17.25 0.0
40.25 17.75 0.0
40.25 18.25 0.0
40.25 18.75 0.0
40.25 19.25 0.0
40.25 19.75 0.0
40.25 29.25 0.0
40.25 29.75 0.0
40.25 30.25 0.0
40.25 30.75 0.0
40.25 31.25 0.0
40.25 31.75 0.0
40.25 32.25 0.0
40.75 12.75 0.0
40.75 13.25 0.0
40.75 13.75 0.0
40.75 14.25 0.0
40.75 14.75 0.0
40.75 15.25 0.0
40.75 15.75 0.0
40.75 16.25 0.0
40.75 16.75 0.0
40.75 17.25 0.0
40.75 17.75 0.0
40.75 18.25 0.0
40.75 18.75 0.0
40.75 19.25 0.0
40.75 29.25 0.0
40.75 29.75 0.0
40.75 30.25 0.0
40.75 30.75 0.0
40.75 31.25 0.0
40.75 31.75 0.0
40.75 32.25 0.0
40.75 32.75 0.0
41.25 12.25 0.0
41.25 12.75 0.0
41.25 13.25 0.0
41.25 13.75 0.0
41.25 14.25 0.0
41.25 14.75 0.0
41.25 15.25 0.0
41.25 15.75 0.0
41.25 16.25 0.0
41.25 16.75 0.0
41.25 17.25 0.0
41.25 17.75 0.0
41.25 18.25 0.0
41.25 18.75 0.0
41.25 29.75 0.0
41.25 30.25 0.0
41.25 30.75 0.0
41.25 31.25 0.0
41.25 31.75 0.0
41.25 32.25 0.0
41.25 32.75 0.0
41.75 12.25 0.0
41.75 12.75 0.0
41.75 13.25 0.0
41.75 13.75 0.0
41.75 14.25 0.0
41.75 14.75 0.0
41.75 15.25 0.0
41.75 15.75 0.0
41.75 16.25 0.0
41.75 16.75 0.0
41.75 17.25 0.0
41.75 17.75 0.0
41.75 18.25 0.0
41.75 18.75 0.0
41.75 29.75 0.0
41.75 30.25 0.0
41.75 30.75 0.0
41.75 31.25 0.0
41.75 31.75 0.0
41.75 32.25 0.0
41.75 32.75 0.0
42.25 12.25 0.0
42.25 12.75 0.0
42.25 13.25 0.0
42.25 13.75 0.0
42.25 14.25 0.0
42.25 14.75 0.0
42.25 15.25 0.0
42.25 15.75 0.0
42.25 16.25 0.0
42.25 16.75 0.0
42.25 17.25 0.0
42.25 17.75 0.0
42.25 18.25 0.0
42.25 29.75 0.0
42.25 30.25 0.0
42.25 30.75 0.0
42.25 31.25 0.0
42.25 31.75 0.0
42.25 32.25 0.0
42.25 32.75 0.0
42.75 12.25 0.0
42.75 12.75 0.0
42.75 13.25 0.0
42.75 13.75 0.0
42.75 14.25 0.0
42.75 14.75 0.0
42.75 15.25 0.0
42.75 15.75 0.0
42.75 16.25 0.0
42.75 16.75 0.0
42.75 17.25 0.0
42.75 17.75 0.0
42.75 18.25 0.0
42.75 29.75 0.0
42.75 30.25 0.0
42.75 30.75 0.0
42.75 31.25 0.0
42.75 31.75 0.0
42.75 32.25 0.0
42.75 32.75 0.0
42.75 33.25 0.0
42.75 33.75 0.0
43.25 12.25 0.0
43.25 12.75 0.0
43.25 13.25 0.0
43.25 13.75 0.0
43.25 14.25 0.0
43.25 14.75 0.0
43.25 15.25 0.0
43.25 15.75 0.0
43.25 16.25 0.0
43.25 16.75 0.0
43.25 17.25 0.0
43.25 17.75 0.0
43.25 18.25 0.0
43.25 30.75 0.0
43.25 31.25 0.0
43.25 31.75 0.0
43.25 32.25 0.0
43.25 32.75 0.0
43.25 33.25 0.0
43.25 33.75 0.0
43.75 12.75 0.0
43.75 13.25 0.0
43.75 13.75 0.0
43.75 14.25 0.0
43.75 14.75 0.0
43.75 15.25 0.0
43.75 15.75 0.0
43.75 16.25 0.0
43.75 16.75 0.0
43.75 17.25 0.0
43.75 17.75 0.0
43.75 30.75 0.0
43.75 31.25 0.0
43.75 31.75 0.0
43.75 32.25 0.0
43.75 32.75 0.0
43.75 33.25 0.0
43.75 33.75 0.0
43.75 34.25 0.0
44.25 12.75 0.0
44.25 13.25 0.0
44.25 13.75 0.0
44.25 14.25 0.0
44.25 14.75 0.0
44.25 15.25 0.0
44.25 15.75 0.0
44.25 16.25 0.0
44.25 16.75 0.0
44.25 17.25 0.0
44.25 17.75 0.0
44.25 30.75 0.0
44.25 31.25 0.0
44.25 31.75 0.0
44.25 32.25 0.0
44.25 32.75 0.0
44.25 33.25 0.0
44.25 33.75 0.0
44.25 34.25 0.0
44.75 12.75 0.0
44.75 13.25 0.0
44.75 13.75 0.0
44.75 14.25 0.0
44.75 14.75 0.0
44.75 15.25 0.0
44.75 15.75 0.0
44.75 16.25 0.0
44.75 16.75 0.0
44.75 17.25 0.0
44.75 31.25 0.0
44.75 31.75 0.0
44.75 32.25 0.0
44.75 32.75 0.0
44.75 33.25 0.0
44.75 33.75 0.0
44.75 34.25 0.0
45.25 12.75 0.0
45.25 13.25 0.0
45.25 13.75 0.0
45.25 14.25 0.0
45.25 14.75 0.0
45.25 15.25 0.0
45.25 15.75 0.0
45.25 16.25 0.0
45.25 16.75 0.0
45.25 31.25 0.0
45.25 31.75 0.0
45.25 32.25 0.0
45.25 32.75 0.0
45.25 33.25 0.0
45.25 33.75 0.0
45.25 34.25 0.0
45.25 34.75 0.0
45.75 12.75 0.0
45.75 13.25 0.0
45.75 13.75 0.0
45.75 14.25 0.0
45.75 14.75 0.0
45.75 15.25 0.0
45.75 15.75 0.0
45.75 16.25 0.0
45.75 16.75 0.0
45.75 31.75 0.0
45.75 32.25 0.0
45.75 32.75 0.0
45.75 33.25 0.0
45.75 33.75 0.0
45.75 34.25 0.0
45.75 34.75 0.0
46.25 12.75 0.0
46.25 13.25 0.0
46.25 13.75 0.0
46.25 14.25 0.0
46.25 14.75 0.0
46.25 15.25 0.0
46.25 15.75 0.0
46.25 16.25 0.0
46.25 16.75 0.0
46.25 31.75 0.0
46.25 32.25 0.0
46.25 32.75 0.0
46.25 33.25 0.0
46.25 33.75 0.0
46.25 34.25 0.0
46.25 34.75 0.0
46.25 35.25 0.0
46.75 12.75 0.0
46.75 13.25 0.0
46.75 13.75 0.0
46.75 14.25 0.0
46.75 14.75 0.0
46.75 15.25 0.0
46.75 15.75 0.0
46.75 16.25 0.0
46.75 31.75 0.0
46.75 32.25 0.0
46.75 32.75 0.0
46.75 33.25 0.0
46.75 33.75 0.0
46.75 34.25 0.0
46.75 34.75 0.0
46.75 35.25 0.0
47.25 13.25 0.0
47.25 13.75 0.0
47.25 14.25 0.0
47.25 14.75 0.0
47.25 15.25 0.0
47.25 15.75 0.0
47.25 32.25 0.0
47.25 32.75 0.0
47.25 33.25 0.0
47.25 33.75 0.0
47.25 34.25 0.0
47.25 34.75 0.0
47.25 35.25 0.0
47.25 35.75 0.0
47.75 32.25 0.0
47.75 32.75 0.0
47.75 33.25 0.0
47.75 33.75 0.0
47.75 34.25 0.0
47.75 34.75 0.0
47.75 35.25 0.0
47.75 35.75 0.0
48.25 32.75 0.0
48.25 33.25 0.0
48.25 33.75 0.0
48.25 34.25 0.0
48.25 34.75 0.0
48.25 35.25 0.0
48.25 35.75 0.0
48.75 32.75 0.0
48.75 33.25 0.0
48.75 33.75 0.0
48.75 34.25 0.0
48.75 34.75 0.0
48.75 35.25 0.0
48.75 35.75 0.0
48.75 36.25 0.0
49.25 33.25 0.0
49.25 33.75 0.0
49.25 34.25 0.0
49.25 34.75 0.0
49.25 35.25 0.0
49.25 35.75 0.0
49.25 36.25 0.0
49.25 36.75 0.0
49.25 37.25 0.0
49.75 33.75 0.0
49.75 34.25 0.0
49.75 34.75 0.0
49.75 35.25 0.0
49.75 35.75 0.0
49.75 36.25 0.0
49.75 36.75 0.0
49.75 37.25 0.0
50.25 34.25 0.0
50.25 34.75 0.0
50.25 35.25 0.0
50.25 35.75 0.0
50.25 36.25 0.0
50.25 36.75 0.0
50.25 37.25 0.0
50.25 37.75 0.0
50.75 34.25 0.0
50.75 34.75 0.0
50.75 35.25 0.0
50.75 35.75 0.0
50.75 36.25 0.0
50.75 36.75 0.0
50.75 37.25 0.0
50.75 37.75 0.0
51.25 34.25 0.0
51.25 34.75 0.0
51.25 35.25 0.0
51.25 35.75 0.0
51.25 36.25 0.0
51.25 36.75 0.0
51.25 37.25 0.0
51.25 37.75 0.0
51.75 34.75 0.0
51.75 35.25 0.0
51.75 35.75 0.0
51.75 36.25 0.0
51.75 36.75 0.0
