ply
format ascii 1.0
element vertex 512
property float x
property float y
property float z
end_header
0.0035854578018188477 -1.00250244140625 0.9826957583427429
0.00315673416480422 -1.0022127628326416 0.8495634198188782
0.0027280107606202364 -1.0019229650497437 0.7164310812950134
0.002299287123605609 -1.0016332864761353 0.5832986831665039
0.0018705634865909815 -1.0013434886932373 0.45016634464263916
0.0014418399659916759 -1.001053810119629 0.3170340061187744
0.0010131164453923702 -1.0007641315460205 0.18390163779258728
0.0005843928083777428 -1.0004743337631226 0.05076928064227104
0.00015566925867460668 -1.0001846551895142 -0.0823630765080452
-0.00027305432013235986 -0.999894917011261 -0.21549543738365173
-0.000701777869835496 -0.9996051788330078 -0.34862780570983887
-0.0011305015068501234 -0.9993154406547546 -0.4817601442337036
-0.001559225027449429 -0.9990257024765015 -0.6148924827575684
-0.0019879485480487347 -0.9987359642982483 -0.7480248808860779
-0.002416672185063362 -0.9984462857246399 -0.8811572194099426
-0.0028453958220779896 -0.9981565475463867 -1.0142896175384521
-0.19780738651752472 -0.9820241332054138 0.9833889007568359
-0.1982361078262329 -0.9817344546318054 0.8502565622329712
-0.1986648291349411 -0.9814447164535522 0.7171241641044617
-0.1990935504436493 -0.9811549782752991 0.5839918255805969
-0.19952227175235748 -0.9808652400970459 0.4508594572544098
-0.19995099306106567 -0.9805755019187927 0.31772708892822266
-0.20037972927093506 -0.9802857637405396 0.1845947504043579
-0.20080845057964325 -0.9799960851669312 0.051462385803461075
-0.20123717188835144 -0.979706346988678 -0.08166997134685516
-0.20166589319705963 -0.9794166088104248 -0.2148023247718811
-0.20209461450576782 -0.9791268706321716 -0.34793469309806824
-0.202523335814476 -0.9788371324539185 -0.481067031621933
-0.2029520571231842 -0.9785473942756653 -0.6141993999481201
-0.2033807933330536 -0.9782577157020569 -0.7473317384719849
-0.20380951464176178 -0.9779679775238037 -0.8804641366004944
-0.20423823595046997 -0.9776782393455505 -1.013596534729004
-0.3909551799297333 -0.9214248061180115 0.9841427803039551
-0.3913838863372803 -0.9211351275444031 0.8510103821754456
-0.39181262254714966 -0.9208453893661499 0.7178780436515808
-0.39224132895469666 -0.9205556511878967 0.5847457051277161
-0.39267006516456604 -0.9202659130096436 0.45161333680152893
-0.3930988013744354 -0.9199761748313904 0.3184809684753418
-0.3935275077819824 -0.9196864366531372 0.18534861505031586
-0.3939562439918518 -0.9193967580795288 0.05221625417470932
-0.3943849503993988 -0.9191070199012756 -0.08091609925031662
-0.3948136866092682 -0.9188172817230225 -0.21404846012592316
-0.3952424228191376 -0.9185275435447693 -0.3471808135509491
-0.39567112922668457 -0.9182378053665161 -0.48031318187713623
-0.39609986543655396 -0.9179480671882629 -0.613445520401001
-0.39652857184410095 -0.9176583886146545 -0.7465779185295105
-0.39695730805397034 -0.9173686504364014 -0.8797102570533752
-0.39738601446151733 -0.9170789122581482 -1.0128426551818848
-0.567950427532196 -0.8231854438781738 0.9849265217781067
-0.5683791637420654 -0.8228957056999207 0.8517941832542419
-0.5688078999519348 -0.8226059675216675 0.7186617851257324
-0.5692365765571594 -0.8223162293434143 0.5855294466018677
-0.5696653127670288 -0.8220264911651611 0.45239710807800293
-0.5700940489768982 -0.821736752986908 0.3192647397518158
-0.5705227851867676 -0.8214470744132996 0.18613238632678986
-0.5709514617919922 -0.8211573362350464 0.05300002172589302
-0.5713801980018616 -0.8208675980567932 -0.08013233542442322
-0.571808934211731 -0.82057785987854 -0.21326468884944916
-0.5722376704216003 -0.8202881217002869 -0.3463970422744751
-0.5726664066314697 -0.8199983835220337 -0.47952941060066223
-0.5730950832366943 -0.8197086453437805 -0.6126617789268494
-0.5735238194465637 -0.8194189667701721 -0.7457941174507141
-0.5739525556564331 -0.819129228591919 -0.8789264559745789
-0.5743812918663025 -0.8188394904136658 -1.0120588541030884
-0.7215469479560852 -0.6913278698921204 0.9857081174850464
-0.7219756841659546 -0.6910381317138672 0.8525757789611816
-0.7224043607711792 -0.690748393535614 0.7194433808326721
-0.7228330969810486 -0.6904586553573608 0.5863110423088074
-0.723261833190918 -0.6901689171791077 0.45317867398262024
-0.7236905694007874 -0.6898791790008545 0.3200463056564331
-0.724119246006012 -0.6895895004272461 0.18691395223140717
-0.7245479822158813 -0.6892997622489929 0.053781602531671524
-0.7249767184257507 -0.6890100240707397 -0.07935075461864471
-0.7254054546356201 -0.6887202858924866 -0.21248310804367065
-0.7258341908454895 -0.6884305477142334 -0.3456154763698578
-0.7262628674507141 -0.6881408095359802 -0.4787478446960449
-0.7266916036605835 -0.6878511309623718 -0.6118801832199097
-0.7271203398704529 -0.6875613927841187 -0.7450125217437744
-0.7275490760803223 -0.6872716546058655 -0.8781449198722839
-0.7279778122901917 -0.6869819164276123 -1.0112773180007935
-0.8454564213752747 -0.5312503576278687 0.986455500125885
-0.845885157585144 -0.5309606790542603 0.8533231616020203
-0.8463138937950134 -0.5306709408760071 0.7201907634735107
-0.8467426300048828 -0.5303812026977539 0.587058424949646
-0.8471713066101074 -0.5300914645195007 0.45392605662345886
-0.8476000428199768 -0.5298017263412476 0.3207937180995941
-0.8480287790298462 -0.5295119881629944 0.18766134977340698
-0.8484575152397156 -0.529222309589386 0.054528992623090744
-0.8488861918449402 -0.5289325714111328 -0.0786033645272255
-0.8493149280548096 -0.5286428332328796 -0.21173572540283203
-0.849743664264679 -0.5283530950546265 -0.34486809372901917
-0.8501724004745483 -0.5280633568763733 -0.4780004322528839
-0.8506011366844177 -0.5277736186981201 -0.611132800579071
-0.8510298132896423 -0.5274839401245117 -0.7442651391029358
-0.8514585494995117 -0.5271942019462585 -0.8773975372314453
-0.8518872857093811 -0.5269044637680054 -1.01052987575531
-0.9346060752868652 -0.3495066165924072 0.9871380925178528
-0.9350348114967346 -0.34921690821647644 0.854005753993988
-0.9354634881019592 -0.34892717003822327 0.7208734154701233
-0.9358922243118286 -0.3486374318599701 0.5877410173416138
-0.936320960521698 -0.3483477234840393 0.454608678817749
-0.9367496967315674 -0.34805798530578613 0.3214763104915619
-0.937178373336792 -0.34776824712753296 0.18834395706653595
-0.9376071095466614 -0.3474785387516022 0.05521159619092941
-0.9380358457565308 -0.347188800573349 -0.07792075723409653
-0.9384645819664001 -0.3468990623950958 -0.21105311810970306
-0.9388933181762695 -0.34660935401916504 -0.344185471534729
-0.9393219947814941 -0.34631961584091187 -0.47731783986091614
-0.9397507309913635 -0.3460298776626587 -0.6104502081871033
-0.9401794672012329 -0.3457401394844055 -0.743582546710968
-0.9406082034111023 -0.34545043110847473 -0.8767148852348328
-0.9410369396209717 -0.34516069293022156 -1.0098472833633423
-0.9853460192680359 -0.15353716909885406 0.9877279996871948
-0.9857747554779053 -0.15324744582176208 0.8545956015586853
-0.9862034320831299 -0.1529577225446701 0.7214632630348206
-0.9866321682929993 -0.15266798436641693 0.5883309245109558
-0.9870609045028687 -0.15237826108932495 0.4551985561847687
-0.987489640712738 -0.15208853781223297 0.32206618785858154
-0.9879183769226074 -0.1517987996339798 0.1889338344335556
-0.988347053527832 -0.15150907635688782 0.055801473557949066
-0.9887757897377014 -0.15121935307979584 -0.07733088731765747
-0.9892045259475708 -0.15092961490154266 -0.2104632407426834
-0.9896332621574402 -0.15063989162445068 -0.34359559416770935
-0.9900619983673096 -0.1503501534461975 -0.4767279624938965
-0.9904906749725342 -0.15006043016910553 -0.6098603010177612
-0.9909194111824036 -0.14977070689201355 -0.7429926991462708
-0.991348147392273 -0.14948096871376038 -0.8761250376701355
-0.9917768836021423 -0.1491912454366684 -1.009257435798645
-0.9955989718437195 0.048634953796863556 0.9882009625434875
-0.9960277080535889 0.048924680799245834 0.8550686240196228
-0.9964564442634583 0.04921441152691841 0.7219362854957581
-0.9968851804733276 0.04950413852930069 0.5888038873672485
-0.997313916683197 0.04979386553168297 0.4556715488433838
-0.9977425932884216 0.050083596259355545 0.32253918051719666
-0.998171329498291 0.050373323261737823 0.18940682709217072
-0.9986000657081604 0.0506630539894104 0.05627446621656418
-0.9990288019180298 0.05095278099179268 -0.07685789465904236
-0.9994575381278992 0.05124250799417496 -0.2099902480840683
-0.9998862147331238 0.051532238721847534 -0.34312260150909424
-1.0003149509429932 0.05182196572422981 -0.47625496983528137
-1.0007436275482178 0.05211169645190239 -0.6093873381614685
-1.001172423362732 0.05240142345428467 -0.7425196766853333
-1.0016010999679565 0.052691150456666946 -0.875652015209198
-1.0020298957824707 0.05298088118433952 -1.0087844133377075
-0.9649452567100525 0.2487328052520752 0.9885377287864685
-0.9653739929199219 0.24902252852916718 0.8554053902626038
-0.9658027291297913 0.24931226670742035 0.7222729921340942
-0.9662314057350159 0.24960198998451233 0.5891406536102295
-0.9666601419448853 0.2498917132616043 0.45600828528404236
-0.9670888781547546 0.2501814365386963 0.3228759169578552
-0.967517614364624 0.25047117471694946 0.18974357843399048
-0.9679462909698486 0.25076091289520264 0.05661121383309364
-0.968375027179718 0.2510506212711334 -0.0765211433172226
-0.9688037633895874 0.2513403594493866 -0.20965349674224854
-0.9692324995994568 0.25163009762763977 -0.34278586506843567
-0.9696612358093262 0.25191980600357056 -0.4759182333946228
-0.9700899124145508 0.25220954418182373 -0.6090505719184875
-0.9705186486244202 0.2524992823600769 -0.7421829104423523
-0.9709473848342896 0.2527890205383301 -0.8753153085708618
-0.9713761210441589 0.25307872891426086 -1.0084476470947266
-0.8946397304534912 0.43856436014175415 0.988724410533905
-0.8950684666633606 0.4388540983200073 0.8555920720100403
-0.89549720287323 0.4391438066959381 0.7224597334861755
-0.8959259390830994 0.4394335448741913 0.589327335357666
-0.896354615688324 0.43972328305244446 0.45619499683380127
-0.8967833518981934 0.44001299142837524 0.3230626583099365
-0.8972120881080627 0.4403027296066284 0.1899302899837494
-0.8976408243179321 0.4405924677848816 0.05679792910814285
-0.8980695605278015 0.4408821761608124 -0.07633443176746368
-0.8984982371330261 0.44117191433906555 -0.20946678519248962
-0.8989269733428955 0.4414616525173187 -0.34259915351867676
-0.8993557095527649 0.4417513608932495 -0.4757314920425415
-0.8997844457626343 0.4420410990715027 -0.608863890171051
-0.9002131819725037 0.44233083724975586 -0.7419962286949158
-0.9006418585777283 0.44262054562568665 -0.8751285672187805
-0.9010705947875977 0.4429102838039398 -1.00826096534729
-0.7875608205795288 0.6103578805923462 0.9887534976005554
-0.7879894971847534 0.6106476187705994 0.8556210994720459
-0.7884182333946228 0.6109373569488525 0.7224887609481812
-0.7888469696044922 0.6112270355224609 0.5893564224243164
-0.7892757058143616 0.6115167737007141 0.4562240540981293
-0.789704442024231 0.6118065118789673 0.32309168577194214
-0.7901331186294556 0.6120962500572205 0.1899593323469162
-0.790561854839325 0.6123859882354736 0.05682697147130966
-0.7909905910491943 0.6126757264137268 -0.07630538940429688
-0.7914193272590637 0.6129654049873352 -0.20943774282932281
-0.7918480038642883 0.6132551431655884 -0.34257009625434875
-0.7922767400741577 0.6135448813438416 -0.4757024645805359
-0.7927054762840271 0.6138346195220947 -0.6088348031044006
-0.7931342124938965 0.6141243577003479 -0.7419672012329102
-0.7935629487037659 0.6144140958786011 -0.8750995397567749
-0.7939916253089905 0.6147038340568542 -1.0082318782806396
-0.6480922102928162 0.7570801377296448 0.9886236786842346
-0.6485209465026855 0.757369875907898 0.8554912805557251
-0.6489496827125549 0.7576595544815063 0.7223589420318604
-0.6493784189224243 0.7579492926597595 0.5892266035079956
-0.6498070955276489 0.7582390308380127 0.4560942053794861
-0.6502358317375183 0.7585287690162659 0.32296186685562134
-0.6506645679473877 0.758818507194519 0.1898294985294342
-0.6510933041572571 0.7591082453727722 0.056697145104408264
-0.6515220403671265 0.7593979239463806 -0.07643521577119827
-0.6519507169723511 0.7596876621246338 -0.2095675766468048
-0.6523794531822205 0.759977400302887 -0.34269991517066956
-0.6528081893920898 0.7602671384811401 -0.4758322834968567
-0.6532369256019592 0.7605568766593933 -0.6089646220207214
-0.6536656618118286 0.7608466148376465 -0.742097020149231
-0.6540943384170532 0.7611362934112549 -0.8752293586730957
-0.6545230746269226 0.7614260315895081 -1.0083616971969604
-0.48194390535354614 0.8727242946624756 0.9883402585983276
-0.48237261176109314 0.873013973236084 0.8552079200744629
-0.4828013479709625 0.8733037114143372 0.7220755815505981
-0.4832300543785095 0.8735934495925903 0.5889431834220886
-0.4836587905883789 0.8738831877708435 0.4558108448982239
-0.4840874969959259 0.8741729259490967 0.32267847657203674
-0.4845162332057953 0.8744626641273499 0.1895461231470108
-0.4849449694156647 0.8747523427009583 0.05641376972198486
-0.48537367582321167 0.8750420808792114 -0.07671858370304108
-0.48580241203308105 0.8753318190574646 -0.2098509520292282
-0.48623111844062805 0.8756215572357178 -0.34298330545425415
-0.48665985465049744 0.875911295413971 -0.4761156737804413
-0.48708856105804443 0.8762010335922241 -0.6092480421066284
-0.4875172972679138 0.8764907121658325 -0.7423803806304932
-0.4879460334777832 0.8767804503440857 -0.8755127191543579
-0.4883747398853302 0.8770701885223389 -1.0086450576782227
-0.29591792821884155 0.9525558352470398 0.9879149794578552
-0.29634666442871094 0.952845573425293 0.8547825813293457
-0.29677537083625793 0.9531352519989014 0.721650242805481
-0.2972041070461273 0.9534249901771545 0.5885179042816162
-0.2976328134536743 0.9537147283554077 0.4553855359554291
-0.2980615496635437 0.9540044665336609 0.32225316762924194
-0.2984902858734131 0.9542942047119141 0.1891207993030548
-0.2989189922809601 0.9545839428901672 0.05598844960331917
-0.29934772849082947 0.9548736214637756 -0.07714390754699707
-0.29977643489837646 0.9551633596420288 -0.210276260972023
-0.30020517110824585 0.955453097820282 -0.34340861439704895
-0.30063387751579285 0.9557428359985352 -0.4765409827232361
-0.30106261372566223 0.9560325741767883 -0.6096733212471008
-0.3014913499355316 0.9563223123550415 -0.7428057193756104
-0.3019200563430786 0.9566119909286499 -0.8759380578994751
-0.302348792552948 0.9569017291069031 -1.0090703964233398
-0.09763026982545853 0.9933064579963684 0.9873651266098022
-0.09805899113416672 0.9935961961746216 0.8542327284812927
-0.09848771244287491 0.9938859343528748 0.721100389957428
-0.0989164337515831 0.9941756725311279 0.5879680514335632
-0.09934516251087189 0.9944654107093811 0.4548356533050537
-0.09977388381958008 0.9947550892829895 0.32170331478118896
-0.10020260512828827 0.9950448274612427 0.18857094645500183
-0.10063133388757706 0.9953345656394958 0.05543858930468559
-0.10106005519628525 0.995624303817749 -0.07769376784563065
-0.10148877650499344 0.9959140419960022 -0.21082612872123718
-0.10191750526428223 0.9962037801742554 -0.3439584970474243
-0.10234622657299042 0.9964935183525085 -0.47709083557128906
-0.10277494788169861 0.9967831969261169 -0.6102231740951538
-0.1032036766409874 0.9970729351043701 -0.7433555722236633
-0.10363239794969559 0.9973626732826233 -0.8764879107475281
-0.10406111925840378 0.9976524114608765 -1.0096203088760376
0.10480118542909622 0.993307888507843 0.9867132306098938
0.10437245666980743 0.9935976266860962 0.8535808324813843
0.10394373536109924 0.9938873648643494 0.7204484939575195
0.10351501405239105 0.9941771030426025 0.5873161554336548
0.10308628529310226 0.9944667816162109 0.45418378710746765
0.10265756398439407 0.9947565197944641 0.3210514187812805
0.10222884267568588 0.9950462579727173 0.18791906535625458
0.1018001139163971 0.9953359961509705 0.05478670820593834
0.1013713926076889 0.9956257343292236 -0.0783456489443779
0.10094267129898071 0.9959154725074768 -0.21147800981998444
0.10051394999027252 0.9962051510810852 -0.3446103632450104
0.10008522123098373 0.9964948892593384 -0.4777427315711975
0.09965649992227554 0.9967846274375916 -0.6108750700950623
0.09922777861356735 0.9970743656158447 -0.7440074682235718
0.09879904985427856 0.9973641037940979 -0.8771398067474365
0.09837032854557037 0.9976538419723511 -1.0102721452713013
0.30308884382247925 0.9525600075721741 0.9859859943389893
0.30266013741493225 0.9528497457504272 0.8528536558151245
0.30223140120506287 0.9531394839286804 0.719721257686615
0.3018026649951935 0.9534292221069336 0.5865889191627502
0.3013739585876465 0.9537189602851868 0.4534565508365631
0.3009452223777771 0.9540086388587952 0.32032421231269836
0.3005165159702301 0.9542983770370483 0.18719184398651123
0.3000877797603607 0.9545881152153015 0.05405948683619499
0.2996590733528137 0.9548778533935547 -0.07907287031412125
0.29923033714294434 0.9551675915718079 -0.21220523118972778
0.29880160093307495 0.955457329750061 -0.3453375995159149
0.29837289452552795 0.9557470083236694 -0.47846993803977966
0.29794415831565857 0.9560367465019226 -0.6116023063659668
0.2975154519081116 0.9563264846801758 -0.7447346448898315
0.2970867156982422 0.956616222858429 -0.8778670430183411
0.2966579794883728 0.9569059610366821 -1.010999321937561
0.48911482095718384 0.87273108959198 0.9852132201194763
0.48868608474731445 0.8730208277702332 0.8520808815956116
0.48825734853744507 0.8733105063438416 0.718948483467102
0.48782864212989807 0.8736002445220947 0.5858161449432373
0.4873999059200287 0.8738899827003479 0.45268377661705017
0.4869711995124817 0.8741797208786011 0.31955140829086304
0.4865424633026123 0.8744694590568542 0.1864190697669983
0.4861137568950653 0.8747591972351074 0.053286705166101456
0.4856850206851959 0.8750488758087158 -0.07984565198421478
0.48525628447532654 0.875338613986969 -0.21297800540924072
0.48482757806777954 0.8756283521652222 -0.34611037373542786
0.48439884185791016 0.8759180903434753 -0.479242742061615
0.48397013545036316 0.8762078285217285 -0.6123750805854797
0.4835413992404938 0.8764975666999817 -0.7455074191093445
0.4831126928329468 0.8767872452735901 -0.878639817237854
0.4826839566230774 0.8770769834518433 -1.0117721557617188
0.6552631258964539 0.7570892572402954 0.9844264984130859
0.6548343896865845 0.7573789954185486 0.8512941598892212
0.6544057130813599 0.7576687335968018 0.7181617617607117
0.6539769768714905 0.7579584717750549 0.5850294232368469
0.6535482406616211 0.7582481503486633 0.4518970847129822
0.6531195044517517 0.7585378885269165 0.31876471638679504
0.6526908278465271 0.7588276267051697 0.1856323480606079
0.6522620916366577 0.7591173648834229 0.05249999463558197
0.6518333554267883 0.759407103061676 -0.08063236624002457
0.651404619216919 0.7596968412399292 -0.2137647271156311
0.6509758830070496 0.7599865198135376 -0.34689706563949585
0.650547206401825 0.7602762579917908 -0.480029433965683
0.6501184701919556 0.760565996170044 -0.6131618022918701
0.6496897339820862 0.7608557343482971 -0.7462941408157349
0.6492609977722168 0.7611454725265503 -0.8794265389442444
0.6488322615623474 0.7614352107048035 -1.0125588178634644
0.7947317361831665 0.6103689670562744 0.9836580753326416
0.7943029999732971 0.6106587052345276 0.8505257368087769
0.7938742637634277 0.6109484434127808 0.7173933386802673
0.7934455275535583 0.6112381815910339 0.5842610001564026
0.793016791343689 0.6115278601646423 0.45112863183021545
0.7925881147384644 0.6118175983428955 0.3179962933063507
0.792159378528595 0.6121073365211487 0.18486392498016357
0.7917306423187256 0.6123970746994019 0.051731567829847336
0.7913019061088562 0.612686812877655 -0.0814007893204689
0.7908732295036316 0.6129765510559082 -0.21453315019607544
0.7904444932937622 0.6132662296295166 -0.3476655185222626
0.7900157570838928 0.6135559678077698 -0.4807978570461273
0.7895870208740234 0.613845705986023 -0.6139302253723145
0.789158284664154 0.6141354441642761 -0.7470625638961792
0.7887296080589294 0.6144251823425293 -0.8801949620246887
0.7883008718490601 0.6147149205207825 -1.0133272409439087
0.9018106460571289 0.43857693672180176 0.9829393625259399
0.9013819694519043 0.43886667490005493 0.8498070240020752
0.9009532332420349 0.4391564130783081 0.7166746854782104
0.9005244970321655 0.4394461214542389 0.5835422873497009
0.9000957608222961 0.43973585963249207 0.4504099488258362
0.8996670246124268 0.44002559781074524 0.31727761030197144
0.8992383480072021 0.440315306186676 0.1841452419757843
0.8988096117973328 0.4406050443649292 0.051012881100177765
0.8983808755874634 0.4408947825431824 -0.08211947232484818
0.897952139377594 0.44118449091911316 -0.2152518332004547
0.8975234031677246 0.44147422909736633 -0.34838420152664185
0.8970947265625 0.4417639672756195 -0.4815165400505066
0.8966659903526306 0.4420536756515503 -0.6146488785743713
0.8962372541427612 0.44234341382980347 -0.7477812767028809
0.8958085179328918 0.44263315200805664 -0.8809136152267456
0.8953797817230225 0.4429228603839874 -1.0140459537506104
0.9721161723136902 0.2487463802099228 0.9822998642921448
0.9716874361038208 0.24903610348701477 0.84916752576828
0.9712586998939514 0.24932584166526794 0.7160351276397705
0.9708300232887268 0.24961556494235992 0.5829027891159058
0.9704012870788574 0.2499053031206131 0.449770450592041
0.969972550868988 0.2501950263977051 0.3166380822658539
0.9695438146591187 0.25048476457595825 0.18350571393966675
0.9691150784492493 0.25077447295188904 0.05037336051464081
0.9686864018440247 0.2510642111301422 -0.08275900036096573
0.9682576656341553 0.2513539493083954 -0.21589136123657227
0.9678289294242859 0.25164365768432617 -0.349023699760437
0.9674001932144165 0.25193339586257935 -0.48215606808662415
0.9669714570045471 0.2522231340408325 -0.6152884364128113
0.9665427803993225 0.2525128424167633 -0.748420774936676
0.9661140441894531 0.2528025805950165 -0.8815531730651855
0.9656853079795837 0.25309231877326965 -1.0146855115890503
1.002769947052002 0.048648957163095474 0.9817656874656677
1.0023411512374878 0.04893868789076805 0.848633348941803
1.0019124746322632 0.04922841489315033 0.7155009508132935
1.0014837980270386 0.04951814189553261 0.5823686122894287
1.0010550022125244 0.049807872623205185 0.44923627376556396
1.0006263256072998 0.05009759962558746 0.31610390543937683
1.0001975297927856 0.05038733035326004 0.1829715520143509
0.999768853187561 0.05067705735564232 0.049839187413454056
0.9993401169776917 0.0509667843580246 -0.08329316973686218
0.9989113807678223 0.051256515085697174 -0.21642552316188812
0.9984827041625977 0.05154624208807945 -0.34955787658691406
0.9980539679527283 0.05183597281575203 -0.4826902449131012
0.9976252317428589 0.05212569981813431 -0.6158226132392883
0.9971964955329895 0.052415426820516586 -0.7489549517631531
0.9967677593231201 0.05270515754818916 -0.8820873498916626
0.9963390827178955 0.05299488455057144 -1.0152196884155273
0.9925169348716736 -0.1535233110189438 0.9813587069511414
0.9920881986618042 -0.1532335877418518 0.8482263684272766
0.9916594624519348 -0.15294384956359863 0.7150940299034119
0.9912307858467102 -0.15265412628650665 0.5819616317749023
0.9908020496368408 -0.15236440300941467 0.4488292932510376
0.9903733134269714 -0.1520746648311615 0.31569695472717285
0.989944577217102 -0.15178494155406952 0.18256458640098572
0.9895158410072327 -0.15149521827697754 0.04943222925066948
0.9890871644020081 -0.15120548009872437 -0.08370012789964676
0.9886584281921387 -0.15091575682163239 -0.2168324887752533
0.9882296919822693 -0.1506260335445404 -0.34996485710144043
0.9878009557723999 -0.15033629536628723 -0.4830971956253052
0.9873722195625305 -0.15004657208919525 -0.6162295341491699
0.9869435429573059 -0.14975684881210327 -0.7493619322776794
0.9865148067474365 -0.1494671106338501 -0.8824942708015442
0.9860860705375671 -0.14917738735675812 -1.0156266689300537
0.9417769908905029 -0.34949347376823425 0.9810956716537476
0.9413482546806335 -0.3492037355899811 0.847963273525238
0.9409195184707642 -0.3489140272140503 0.7148309350013733
0.9404907822608948 -0.3486242890357971 0.5816985964775085
0.9400621056556702 -0.34833455085754395 0.4485662281513214
0.9396333694458008 -0.34804484248161316 0.3154338598251343
0.9392046332359314 -0.34775510430336 0.18230150640010834
0.938775897026062 -0.3474653661251068 0.0491691455245018
0.9383471608161926 -0.347175657749176 -0.08396321535110474
0.937918484210968 -0.34688591957092285 -0.21709556877613068
0.9374897480010986 -0.3465961813926697 -0.3502279222011566
0.9370610117912292 -0.3463064730167389 -0.48336029052734375
0.9366322755813599 -0.3460167348384857 -0.6164926290512085
0.9362035393714905 -0.34572699666023254 -0.749625027179718
0.9357748627662659 -0.34543728828430176 -0.8827573657035828
0.9353461265563965 -0.3451475501060486 -1.0158897638320923
0.8526273369789124 -0.5312384963035583 0.9809871912002563
0.852198600769043 -0.5309487581253052 0.8478548526763916
0.8517699241638184 -0.530659019947052 0.7147225141525269
0.851341187953949 -0.5303692817687988 0.5815901160240173
0.8509124517440796 -0.5300795435905457 0.4484577775001526
0.8504837155342102 -0.5297898650169373 0.31532543897628784
0.8500549793243408 -0.5295001268386841 0.1821930706501007
0.8496263027191162 -0.5292103886604309 0.04906070977449417
0.8491975665092468 -0.5289206504821777 -0.08407164365053177
0.8487688302993774 -0.5286309123039246 -0.2172040045261383
0.8483400940895081 -0.5283411741256714 -0.35033637285232544
0.8479114174842834 -0.528051495552063 -0.4834687113761902
0.8474826812744141 -0.5277617573738098 -0.6166010499000549
0.8470539450645447 -0.5274720191955566 -0.7497334480285645
0.8466252088546753 -0.5271822810173035 -0.8828657865524292
0.8461964726448059 -0.5268925428390503 -1.015998125076294
0.7287178635597229 -0.6913176774978638 0.9810378551483154
0.7282891273498535 -0.6910279393196106 0.8479055166244507
0.7278603911399841 -0.6907382011413574 0.7147731781005859
0.7274316549301147 -0.690448522567749 0.5816407799720764
0.7270029783248901 -0.6901587843894958 0.44850844144821167
0.7265742421150208 -0.6898690462112427 0.31537607312202454
0.7261455059051514 -0.6895793080329895 0.1822437196969986
0.725716769695282 -0.6892895698547363 0.04911136254668236
0.7252880334854126 -0.6889998316764832 -0.08402099460363388
0.724859356880188 -0.6887101531028748 -0.21715335547924042
0.7244306206703186 -0.6884204149246216 -0.35028570890426636
0.7240018844604492 -0.6881306767463684 -0.4834180772304535
0.7235731482505798 -0.6878409385681152 -0.6165504455566406
0.7231444120407104 -0.6875512003898621 -0.7496827840805054
0.7227157354354858 -0.6872614622116089 -0.8828151226043701
0.7222869992256165 -0.6869717836380005 -1.0159474611282349
0.5751213431358337 -0.8231773972511292 0.9812455177307129
0.5746926069259644 -0.822887659072876 0.8481131792068481
0.574263870716095 -0.8225979208946228 0.7149808406829834
0.5738351941108704 -0.8223082423210144 0.5818484425544739
0.573406457901001 -0.8220185041427612 0.44871610403060913
0.5729777216911316 -0.8217287659645081 0.315583735704422
0.5725489854812622 -0.8214390277862549 0.18245138227939606
0.5721202492713928 -0.8211492896080017 0.04931902885437012
0.5716915726661682 -0.8208595514297485 -0.08381333202123642
0.5712628364562988 -0.8205698728561401 -0.21694569289684296
0.5708341002464294 -0.820280134677887 -0.3500780463218689
0.5704053640365601 -0.8199903964996338 -0.48321041464805603
0.5699766874313354 -0.8197006583213806 -0.6163427829742432
0.5695479512214661 -0.8194109201431274 -0.7494751214981079
0.5691192150115967 -0.8191211819648743 -0.8826074600219727
0.5686904788017273 -0.8188315033912659 -1.0157397985458374
0.39812609553337097 -0.9214193224906921 0.9816017150878906
0.3976973593235016 -0.921129584312439 0.8484693765640259
0.3972686529159546 -0.9208398461341858 0.7153369784355164
0.3968399167060852 -0.9205501079559326 0.5822046399116516
0.3964111804962158 -0.9202603697776794 0.4490722715854645
0.3959824740886688 -0.9199706315994263 0.31593993306159973
0.39555373787879944 -0.9196809530258179 0.1828075647354126
0.39512503147125244 -0.9193912148475647 0.04967520385980606
0.39469629526138306 -0.9191014766693115 -0.08345715701580048
0.39426758885383606 -0.9188117384910583 -0.21658951044082642
0.3938388526439667 -0.9185220003128052 -0.34972187876701355
0.3934101164340973 -0.918232262134552 -0.4828542172908783
0.3929814100265503 -0.9179425835609436 -0.6159865856170654
0.3925526738166809 -0.9176528453826904 -0.7491189241409302
0.3921239674091339 -0.9173631072044373 -0.8822513222694397
0.3916952311992645 -0.9170733690261841 -1.0153837203979492
0.20497830212116241 -0.9820213317871094 0.9820918440818787
0.20454956591129303 -0.9817315936088562 0.8489594459533691
0.20412084460258484 -0.981441855430603 0.7158271074295044
0.20369212329387665 -0.9811521768569946 0.5826947689056396
0.20326340198516846 -0.9808624386787415 0.4495623707771301
0.20283468067646027 -0.9805727005004883 0.3164300322532654
0.20240595936775208 -0.9802829623222351 0.18329766392707825
0.20197723805904388 -0.9799932241439819 0.05016531050205231
0.2015485018491745 -0.9797034859657288 -0.08296705037355423
0.2011197805404663 -0.9794138073921204 -0.21609941124916077
0.20069105923175812 -0.9791240692138672 -0.3492317795753479
0.20026233792304993 -0.978834331035614 -0.48236411809921265
0.19983361661434174 -0.9785445928573608 -0.6154964566230774
0.19940489530563354 -0.9782548546791077 -0.7486288547515869
0.19897615909576416 -0.9779651165008545 -0.8817611932754517
0.19854743778705597 -0.9776754379272461 -1.0148935317993164
0.0035854578018188477 -1.00250244140625 0.9826957583427429
0.00315673416480422 -1.0022127628326416 0.8495634198188782
0.0027280107606202364 -1.0019229650497437 0.7164310812950134
0.002299287123605609 -1.0016332864761353 0.5832986831665039
0.0018705634865909815 -1.0013434886932373 0.45016634464263916
0.0014418399659916759 -1.001053810119629 0.3170340061187744
0.0010131164453923702 -1.0007641315460205 0.18390163779258728
0.0005843928083777428 -1.0004743337631226 0.05076928064227104
0.00015566925867460668 -1.0001846551895142 -0.0823630765080452
-0.00027305432013235986 -0.999894917011261 -0.21549543738365173
-0.000701777869835496 -0.9996051788330078 -0.34862780570983887
-0.0011305015068501234 -0.9993154406547546 -0.4817601442337036
-0.001559225027449429 -0.9990257024765015 -0.6148924827575684
-0.0019879485480487347 -0.9987359642982483 -0.7480248808860779
-0.002416672185063362 -0.9984462857246399 -0.8811572194099426
-0.0028453958220779896 -0.9981565475463867 -1.0142896175384521
