ply
format ascii 1.0
element vertex 512
property float x
property float y
property float z
end_header
-0.005754947662353516 -1.0480103492736816 1.0541871786117554
-0.005774796940386295 -1.0476067066192627 0.9189221858978271
-0.005794646218419075 -1.0472031831741333 0.7836572527885437
-0.005814495496451855 -1.0467995405197144 0.648392379283905
-0.005834345240145922 -1.046396017074585 0.5131274461746216
-0.005854194518178701 -1.045992374420166 0.37786251306533813
-0.005874043796211481 -1.0455888509750366 0.24259759485721588
-0.005893893074244261 -1.0451852083206177 0.10733266919851303
-0.0059137423522770405 -1.0447816848754883 -0.02793225087225437
-0.00593359163030982 -1.0443780422210693 -0.16319717466831207
-0.0059534409083426 -1.04397451877594 -0.2984620928764343
-0.0059732901863753796 -1.043570876121521 -0.4337270259857178
-0.0059931399300694466 -1.0431673526763916 -0.5689919590950012
-0.006012989208102226 -1.0427638292312622 -0.7042568325996399
-0.006032838486135006 -1.0423601865768433 -0.8395217657089233
-0.006052687764167786 -1.0419566631317139 -0.9747866988182068
-0.21233858168125153 -1.0270030498504639 1.054280161857605
-0.21235843002796173 -1.026599407196045 0.9190151691436768
-0.21237827837467194 -1.0261958837509155 0.7837502956390381
-0.21239812672138214 -1.0257922410964966 0.6484853625297546
-0.21241797506809235 -1.0253887176513672 0.5132204294204712
-0.21243783831596375 -1.0249850749969482 0.37795549631118774
-0.21245768666267395 -1.0245815515518188 0.24269059300422668
-0.21247753500938416 -1.0241779088974 0.10742566734552383
-0.21249738335609436 -1.0237743854522705 -0.027839256450533867
-0.21251723170280457 -1.0233707427978516 -0.16310417652130127
-0.21253708004951477 -1.0229672193527222 -0.2983691096305847
-0.21255692839622498 -1.0225635766983032 -0.4336340129375458
-0.21257677674293518 -1.0221600532531738 -0.5688989162445068
-0.21259662508964539 -1.0217564105987549 -0.7041638493537903
-0.2126164734363556 -1.0213528871536255 -0.8394287824630737
-0.2126363217830658 -1.0209492444992065 -0.9746937155723572
-0.41046467423439026 -0.9648408889770508 1.0544946193695068
-0.41048452258110046 -0.9644373059272766 0.9192297458648682
-0.41050437092781067 -0.9640337228775024 0.7839648127555847
-0.4105242192745209 -0.9636301398277283 0.6486998796463013
-0.4105440676212311 -0.9632265567779541 0.5134349465370178
-0.4105639159679413 -0.9628229737281799 0.37817004323005676
-0.4105837643146515 -0.9624193906784058 0.2429051250219345
-0.4106036126613617 -0.9620158672332764 0.10764020681381226
-0.4106234610080719 -0.9616122841835022 -0.027624715119600296
-0.4106433093547821 -0.961208701133728 -0.16288962960243225
-0.4106631577014923 -0.9608051180839539 -0.2981545627117157
-0.4106830060482025 -0.9604015350341797 -0.43341946601867676
-0.4107028543949127 -0.9599979519844055 -0.5686843991279602
-0.4107227027416229 -0.9595943689346313 -0.7039493322372437
-0.41074255108833313 -0.9591907858848572 -0.8392142653465271
-0.41076239943504333 -0.958787202835083 -0.9744791388511658
-0.5920218825340271 -0.8640689253807068 1.0548219680786133
-0.5920417308807373 -0.8636653423309326 0.9195570349693298
-0.5920615792274475 -0.8632618188858032 0.7842921018600464
-0.5920814275741577 -0.862858235836029 0.6490272283554077
-0.5921012759208679 -0.8624546527862549 0.5137622952461243
-0.5921211242675781 -0.8620510697364807 0.3784973621368408
-0.5921409726142883 -0.8616474866867065 0.24323242902755737
-0.5921608209609985 -0.8612439036369324 0.10796751827001572
-0.5921806693077087 -0.8608403205871582 -0.027297407388687134
-0.592200517654419 -0.860436737537384 -0.1625623255968094
-0.5922203660011292 -0.8600331544876099 -0.29782724380493164
-0.5922402143478394 -0.8596295714378357 -0.4330921769142151
-0.5922600626945496 -0.8592259883880615 -0.5683571100234985
-0.5922799110412598 -0.8588224053382874 -0.703622043132782
-0.59229975938797 -0.8584188222885132 -0.8388869166374207
-0.5923196077346802 -0.858015239238739 -0.9741518497467041
-0.7495772838592529 -0.7288127541542053 1.0552486181259155
-0.7495971322059631 -0.7284091711044312 0.9199837446212769
-0.7496169805526733 -0.728005588054657 0.7847188115119934
-0.7496368288993835 -0.7276020050048828 0.64945387840271
-0.7496566772460938 -0.7271984219551086 0.5141889452934265
-0.749676525592804 -0.7267948389053345 0.37892404198646545
-0.7496963739395142 -0.7263912558555603 0.243659108877182
-0.7497162222862244 -0.7259877324104309 0.10839419066905975
-0.7497360706329346 -0.7255841493606567 -0.026870733126997948
-0.7497559189796448 -0.7251805663108826 -0.16213566064834595
-0.749775767326355 -0.7247769832611084 -0.297400563955307
-0.7497956156730652 -0.7243734002113342 -0.43266549706459045
-0.7498154640197754 -0.7239698171615601 -0.5679304003715515
-0.7498353123664856 -0.7235662341117859 -0.703195333480835
-0.7498551607131958 -0.7231626510620117 -0.8384602665901184
-0.749875009059906 -0.7227590680122375 -0.9737251996994019
-0.8766804337501526 -0.5646097660064697 1.0557571649551392
-0.8767002820968628 -0.5642061829566956 0.9204922914505005
-0.8767201900482178 -0.5638025999069214 0.785227358341217
-0.876740038394928 -0.5633990168571472 0.6499624252319336
-0.8767598867416382 -0.562995433807373 0.5146975517272949
-0.8767797350883484 -0.5625918507575989 0.3794326186180115
-0.8767995834350586 -0.5621882677078247 0.24416768550872803
-0.8768194317817688 -0.5617846846580505 0.10890275985002518
-0.876839280128479 -0.5613811016082764 -0.026362162083387375
-0.8768591284751892 -0.5609775185585022 -0.16162708401679993
-0.8768789768218994 -0.560573935508728 -0.2968920171260834
-0.8768988251686096 -0.5601703524589539 -0.43215692043304443
-0.8769186735153198 -0.5597667694091797 -0.5674218535423279
-0.87693852186203 -0.5593631863594055 -0.7026867866516113
-0.8769583702087402 -0.5589596033096313 -0.8379517197608948
-0.8769782185554504 -0.5585560202598572 -0.9732165932655334
-0.9681278467178345 -0.37818238139152527 1.0563268661499023
-0.9681476950645447 -0.3777787983417511 0.9210619330406189
-0.9681675434112549 -0.37737521529197693 0.7857969999313354
-0.9681874513626099 -0.37697163224220276 0.650532066822052
-0.9682072997093201 -0.3765680491924286 0.5152671933174133
-0.9682271480560303 -0.3761644959449768 0.3800022602081299
-0.9682469964027405 -0.37576091289520264 0.24473732709884644
-0.9682668447494507 -0.37535732984542847 0.10947240889072418
-0.9682866930961609 -0.3749537467956543 -0.02579251304268837
-0.9683065414428711 -0.3745501637458801 -0.16105742752552032
-0.9683263897895813 -0.37414658069610596 -0.2963223457336426
-0.9683462381362915 -0.3737429976463318 -0.431587278842926
-0.9683660864830017 -0.3733394145965576 -0.5668522119522095
-0.9683859348297119 -0.37293583154678345 -0.7021171450614929
-0.9684057831764221 -0.37253227829933167 -0.8373820185661316
-0.9684256315231323 -0.3721286952495575 -0.972646951675415
-1.020175576210022 -0.1771630346775055 1.0569342374801636
-1.020195484161377 -0.17675945162773132 0.9216693639755249
-1.0202152729034424 -0.17635586857795715 0.7864044308662415
-1.0202351808547974 -0.17595230042934418 0.651139497756958
-1.0202549695968628 -0.17554871737957 0.5158745646476746
-1.0202748775482178 -0.17514513432979584 0.3806096613407135
-1.0202946662902832 -0.17474155128002167 0.24534472823143005
-1.0203145742416382 -0.1743379831314087 0.1100798100233078
-1.0203343629837036 -0.17393440008163452 -0.025185108184814453
-1.0203542709350586 -0.17353081703186035 -0.1604500263929367
-1.0203741788864136 -0.17312723398208618 -0.29571494460105896
-1.020393967628479 -0.172723650932312 -0.4309798777103424
-1.020413875579834 -0.17232008278369904 -0.5662447810173035
-1.0204336643218994 -0.17191649973392487 -0.7015097141265869
-1.0204535722732544 -0.1715129166841507 -0.8367746472358704
-1.0204733610153198 -0.17110933363437653 -0.9720395803451538
-1.0306929349899292 0.030218541622161865 1.0575546026229858
-1.0307127237319946 0.030622120946645737 0.9222896099090576
-1.0307326316833496 0.031025700271129608 0.787024736404419
-1.030752420425415 0.03142927959561348 0.6517598032951355
-1.03077232837677 0.03183285892009735 0.516494870185852
-1.0307921171188354 0.03223643824458122 0.3812299370765686
-1.0308120250701904 0.032640017569065094 0.24596503376960754
-1.0308318138122559 0.033043596893548965 0.1107001081109047
-1.0308517217636108 0.033447179943323135 -0.024564817547798157
-1.0308715105056763 0.03385075926780701 -0.1598297357559204
-1.0308914184570312 0.03425433859229088 -0.29509466886520386
-1.0309112071990967 0.03465791791677475 -0.4303595721721649
-1.0309311151504517 0.03506149724125862 -0.565624475479126
-1.030950903892517 0.03546507656574249 -0.7008894085884094
-1.030970811843872 0.035868655890226364 -0.8361543416976929
-1.0309906005859375 0.036272235214710236 -0.9714192748069763
-0.9992490410804749 0.23547211289405823 1.0581623315811157
-0.9992688894271851 0.2358756959438324 0.9228973984718323
-0.9992887377738953 0.23627927899360657 0.7876325249671936
-0.9993085861206055 0.23668286204338074 0.6523675918579102
-0.9993284344673157 0.2370864450931549 0.5171026587486267
-0.9993482828140259 0.23749001324176788 0.38183772563934326
-0.9993681311607361 0.23789359629154205 0.246572807431221
-0.9993879795074463 0.23829717934131622 0.11130788922309875
-0.9994078278541565 0.2387007623910904 -0.023957030847668648
-0.9994276762008667 0.23910433053970337 -0.15922194719314575
-0.9994475245475769 0.23950791358947754 -0.2944868803024292
-0.9994673728942871 0.2399114966392517 -0.42975178360939026
-0.9994872212409973 0.24031507968902588 -0.5650167465209961
-0.9995070695877075 0.24071864783763885 -0.7002816200256348
-0.9995269179344177 0.24112223088741302 -0.8355465531349182
-0.9995467662811279 0.2415258139371872 -0.9708114862442017
-0.9271314740180969 0.43019458651542664 1.0587327480316162
-0.9271513223648071 0.4305981695652008 0.9234678149223328
-0.9271711707115173 0.431001752614975 0.7882028818130493
-0.9271910190582275 0.43140533566474915 0.6529379487037659
-0.9272108674049377 0.4318089187145233 0.5176730751991272
-0.927230715751648 0.4322125017642975 0.38240814208984375
-0.9272505640983582 0.43261608481407166 0.2471432089805603
-0.9272704124450684 0.43301963806152344 0.11187828332185745
-0.9272902607917786 0.4334232211112976 -0.0233866348862648
-0.9273101091384888 0.4338268041610718 -0.15865156054496765
-0.927329957485199 0.43423038721084595 -0.2939164936542511
-0.9273498058319092 0.4346339702606201 -0.42918139696121216
-0.9273696541786194 0.4350375533103943 -0.5644463300704956
-0.9273895025253296 0.43544113636016846 -0.699711263179779
-0.9274093508720398 0.4358447194099426 -0.8349761366844177
-0.92742919921875 0.4362483024597168 -0.9702410697937012
-0.8172925710678101 0.6064140200614929 1.0592423677444458
-0.8173124194145203 0.6068176031112671 0.9239774942398071
-0.8173322677612305 0.6072211861610413 0.7887125611305237
-0.8173521161079407 0.6076247692108154 0.6534476280212402
-0.8173719644546509 0.6080283522605896 0.5181826949119568
-0.8173918724060059 0.608431875705719 0.3829177916049957
-0.8174117207527161 0.6088354587554932 0.24765285849571228
-0.8174315690994263 0.6092390418052673 0.11238794028759003
-0.8174514174461365 0.6096426248550415 -0.022876981645822525
-0.8174712657928467 0.6100462079048157 -0.15814189612865448
-0.8174911141395569 0.6104497909545898 -0.29340681433677673
-0.8175109624862671 0.610853374004364 -0.4286717474460602
-0.8175308108329773 0.6112569570541382 -0.5639366507530212
-0.8175506591796875 0.6116605401039124 -0.6992015838623047
-0.8175705075263977 0.6120641231536865 -0.8344665169715881
-0.8175903558731079 0.6124677062034607 -0.9697314500808716
-0.6742292642593384 0.7569159269332886 1.0596704483032227
-0.6742491126060486 0.7573195099830627 0.9244055151939392
-0.6742690205574036 0.7577230930328369 0.7891405820846558
-0.6742888689041138 0.7581266760826111 0.6538756489753723
-0.674308717250824 0.7585301995277405 0.5186107754707336
-0.6743285655975342 0.7589337825775146 0.3833458423614502
-0.6743484139442444 0.7593373656272888 0.24808090925216675
-0.6743682622909546 0.759740948677063 0.1128159910440445
-0.6743881106376648 0.7601445317268372 -0.022448934614658356
-0.674407958984375 0.7605481147766113 -0.1577138602733612
-0.6744278073310852 0.7609516978263855 -0.29297876358032227
-0.6744476556777954 0.7613552808761597 -0.4282436966896057
-0.6744675040245056 0.7617588639259338 -0.5635086297988892
-0.6744873523712158 0.762162446975708 -0.6987735629081726
-0.674507200717926 0.7625660300254822 -0.8340384364128113
-0.6745270490646362 0.7629696130752563 -0.9693033695220947
-0.5037985444068909 0.8755387663841248 1.0599993467330933
-0.5038183927536011 0.8759423494338989 0.9247344136238098
-0.5038382411003113 0.8763458728790283 0.7894695401191711
-0.5038581490516663 0.8767494559288025 0.6542046070098877
-0.5038779973983765 0.8771530389785767 0.5189396739006042
-0.5038978457450867 0.8775566220283508 0.3836747407913208
-0.5039176940917969 0.877960205078125 0.24840982258319855
-0.5039375424385071 0.8783637881278992 0.1131449043750763
-0.5039573907852173 0.8787673711776733 -0.022120017558336258
-0.5039772391319275 0.8791709542274475 -0.1573849320411682
-0.5039970874786377 0.8795745372772217 -0.29264986515045166
-0.5040169358253479 0.8799781203269958 -0.4279147684574127
-0.5040367841720581 0.88038170337677 -0.5631797313690186
-0.5040566325187683 0.8807852864265442 -0.6984446048736572
-0.5040764808654785 0.8811888694763184 -0.8337095379829407
-0.5040963292121887 0.8815924525260925 -0.9689744710922241
-0.3129778802394867 0.9574260711669922 1.060215711593628
-0.3129977285861969 0.9578296542167664 0.9249507784843445
-0.3130175769329071 0.9582332372665405 0.789685845375061
-0.3130374252796173 0.9586368203163147 0.6544209122657776
-0.3130572736263275 0.9590404033660889 0.5191559791564941
-0.3130771219730377 0.959443986415863 0.3838910758495331
-0.3130969703197479 0.9598475694656372 0.24862614274024963
-0.31311681866645813 0.9602511525154114 0.11336122453212738
-0.31313666701316833 0.9606546759605408 -0.02190369926393032
-0.31315651535987854 0.9610582590103149 -0.15716862678527832
-0.31317639350891113 0.9614618420600891 -0.2924335300922394
-0.31319624185562134 0.9618654251098633 -0.4276984632015228
-0.31321609020233154 0.9622690081596375 -0.5629633665084839
-0.31323593854904175 0.9626725912094116 -0.6982282996177673
-0.31325578689575195 0.9630761742591858 -0.8334932327270508
-0.31327563524246216 0.96347975730896 -0.9687581658363342
-0.10957945883274078 0.9992254376411438 1.0603104829788208
-0.10959930717945099 0.9996289610862732 0.9250456094741821
-0.1096191555261612 1.0000325441360474 0.7897806763648987
-0.1096390038728714 1.0004361867904663 0.65451580286026
-0.1096588522195816 1.0008397102355957 0.5192508697509766
-0.10967870056629181 1.0012433528900146 0.3839859366416931
-0.10969854891300201 1.001646876335144 0.24872100353240967
-0.10971840471029282 1.002050518989563 0.11345609277486801
-0.10973825305700302 1.0024540424346924 -0.02180883288383484
-0.10975810140371323 1.0028576850891113 -0.1570737510919571
-0.10977794975042343 1.0032612085342407 -0.29233866930007935
-0.10979779809713364 1.0036647319793701 -0.4276036024093628
-0.10981764644384384 1.004068374633789 -0.5628685355186462
-0.10983749479055405 1.0044718980789185 -0.6981334686279297
-0.10985734313726425 1.0048755407333374 -0.8333983421325684
-0.10987719893455505 1.0052790641784668 -0.9686632752418518
0.09806956350803375 0.9992254972457886 1.0602800846099854
0.09804970771074295 0.9996290802955627 0.9250151515007019
0.09802985936403275 1.000032663345337 0.7897502183914185
0.09801001101732254 1.0004361867904663 0.654485285282135
0.09799016267061234 1.0008398294448853 0.5192204117774963
0.09797031432390213 1.0012433528900146 0.3839554488658905
0.09795046597719193 1.0016469955444336 0.24869054555892944
0.09793061763048172 1.002050518989563 0.11342561990022659
0.09791076928377151 1.002454161643982 -0.021839303895831108
0.09789091348648071 1.0028576850891113 -0.1571042239665985
0.09787106513977051 1.0032613277435303 -0.29236915707588196
0.0978512167930603 1.0036648511886597 -0.427634060382843
0.0978313684463501 1.0040684938430786 -0.5628989934921265
0.09781152009963989 1.004472017288208 -0.6981639266014099
0.09779167175292969 1.004875659942627 -0.8334288597106934
0.09777182340621948 1.0052791833877563 -0.968693733215332
0.30146798491477966 0.9574263095855713 1.060125470161438
0.30144813656806946 0.9578298926353455 0.9248605966567993
0.30142828822135925 0.9582334756851196 0.7895956635475159
0.30140843987464905 0.9586370587348938 0.6543307304382324
0.30138859152793884 0.959040641784668 0.519065797328949
0.30136874318122864 0.9594442248344421 0.3838008940219879
0.30134889483451843 0.9598478078842163 0.24853597581386566
0.3013290464878082 0.9602513909339905 0.11327105760574341
0.301309198141098 0.9606549739837646 -0.021993864327669144
0.3012893497943878 0.9610585570335388 -0.1572587788105011
0.3012695014476776 0.961462140083313 -0.29252371191978455
0.3012496531009674 0.9618657231330872 -0.4277886152267456
0.3012298047542572 0.9622693061828613 -0.563053548336029
0.301209956407547 0.9626728892326355 -0.6983184814453125
0.3011901080608368 0.9630764722824097 -0.833583414554596
0.3011702597141266 0.9634800553321838 -0.9688482880592346
0.4922886788845062 0.8755391836166382 1.059853196144104
0.492268830537796 0.8759427666664124 0.9245882630348206
0.4922489821910858 0.8763463497161865 0.7893233299255371
0.4922291338443756 0.8767499327659607 0.6540583968162537
0.4922092854976654 0.8771535158157349 0.518793523311615
0.4921894371509552 0.877557098865509 0.38352859020233154
0.492169588804245 0.8779606819152832 0.2482636570930481
0.4921497404575348 0.8783642053604126 0.11299873888492584
0.4921298921108246 0.8787677884101868 -0.022266186773777008
0.4921100437641144 0.8791713714599609 -0.15753111243247986
0.4920901954174042 0.8795749545097351 -0.2927960157394409
0.49207034707069397 0.8799785375595093 -0.42806094884872437
0.49205049872398376 0.8803821206092834 -0.5633258819580078
0.49203062057495117 0.8807857036590576 -0.6985908150672913
0.49201077222824097 0.8811892867088318 -0.8338556885719299
0.49199092388153076 0.881592869758606 -0.9691206216812134
0.6627193689346313 0.7569165229797363 1.059474229812622
0.6626995205879211 0.7573200464248657 0.9242093563079834
0.6626796722412109 0.7577236294746399 0.7889444231987
0.6626598238945007 0.7581272125244141 0.6536794900894165
0.6626399755477905 0.7585307955741882 0.5184145569801331
0.6626201272010803 0.7589343786239624 0.383149653673172
0.6626002788543701 0.7593379616737366 0.24788472056388855
0.6625804305076599 0.7597415447235107 0.1126198023557663
0.6625605821609497 0.7601451277732849 -0.022645121440291405
0.6625407338142395 0.7605487108230591 -0.1579100489616394
0.6625208854675293 0.7609522938728333 -0.29317495226860046
0.6625010371208191 0.7613558769226074 -0.4284398853778839
0.6624811887741089 0.7617594599723816 -0.563704788684845
0.6624613404273987 0.7621630430221558 -0.6989697217941284
0.6624414920806885 0.7625666260719299 -0.8342346549034119
0.6624216437339783 0.7629702091217041 -0.9694995880126953
0.805782675743103 0.6064147353172302 1.0590041875839233
0.8057628273963928 0.6068183183670044 0.9237393140792847
0.8057429790496826 0.6072219014167786 0.7884743809700012
0.8057231307029724 0.6076254844665527 0.6532094478607178
0.8057032823562622 0.6080290079116821 0.5179445147514343
0.805683434009552 0.6084325909614563 0.38267961144447327
0.8056635856628418 0.6088361740112305 0.247414693236351
0.8056437373161316 0.6092397570610046 0.11214976757764816
0.8056238889694214 0.6096433401107788 -0.02311515621840954
0.8056040406227112 0.610046923160553 -0.15838007628917694
0.805584192276001 0.6104505062103271 -0.2936449944972992
0.8055643439292908 0.6108540892601013 -0.42890992760658264
0.8055444955825806 0.6112576723098755 -0.5641748309135437
0.8055246472358704 0.6116612553596497 -0.6994397640228271
0.8055047988891602 0.6120648384094238 -0.8347046971321106
0.80548495054245 0.612468421459198 -0.969969630241394
0.9156215786933899 0.4301953911781311 1.058462381362915
0.9156017303466797 0.4305989742279053 0.9231973886489868
0.9155818819999695 0.43100255727767944 0.7879324555397034
0.9155620336532593 0.4314061403274536 0.6526675820350647
0.9155421853065491 0.4318097233772278 0.5174026489257812
0.9155223369598389 0.43221330642700195 0.3821377158164978
0.9155024886131287 0.4326168894767761 0.24687279760837555
0.9154826402664185 0.4330204725265503 0.1116078719496727
0.9154627919197083 0.4334240257740021 -0.023657046258449554
0.9154428839683533 0.43382760882377625 -0.1589219719171524
0.9154230356216431 0.4342311918735504 -0.29418689012527466
0.9154031872749329 0.4346347749233246 -0.4294518232345581
0.9153833389282227 0.43503835797309875 -0.5647167563438416
0.9153634905815125 0.4354419410228729 -0.6999816298484802
0.9153436422348022 0.4358455240726471 -0.8352465629577637
0.915323793888092 0.43624910712242126 -0.9705114960670471
0.9877391457557678 0.23547299206256866 1.0578707456588745
0.9877192974090576 0.23587657511234283 0.9226058721542358
0.9876994490623474 0.2362801432609558 0.7873409390449524
0.9876796007156372 0.23668372631072998 0.652076005935669
0.987659752368927 0.23708730936050415 0.5168110728263855
0.9876399040222168 0.23749089241027832 0.38154616951942444
0.9876200556755066 0.2378944605588913 0.246281236410141
0.9876002073287964 0.23829804360866547 0.11101631075143814
0.9875803589820862 0.23870162665843964 -0.024248607456684113
0.987560510635376 0.2391052097082138 -0.15951353311538696
0.9875406622886658 0.23950879275798798 -0.294778436422348
0.9875208139419556 0.23991236090660095 -0.43004336953163147
0.9875009655952454 0.24031594395637512 -0.5653082728385925
0.9874811172485352 0.2407195270061493 -0.700573205947876
0.987461268901825 0.24112311005592346 -0.8358381390571594
0.9874414205551147 0.24152667820453644 -0.9711030721664429
1.0191830396652222 0.030219437554478645 1.0572537183761597
1.0191631317138672 0.030623018741607666 0.921988844871521
1.0191432237625122 0.031026598066091537 0.7867239117622375
1.0191234350204468 0.03143017739057541 0.6514589786529541
1.0191035270690918 0.03183375671505928 0.5161940455436707
1.0190837383270264 0.03223733603954315 0.3809291422367096
1.0190638303756714 0.03264091536402702 0.24566422402858734
1.019044041633606 0.033044494688510895 0.11039929836988449
1.019024133682251 0.033448077738285065 -0.02486562170088291
1.0190043449401855 0.033851657062768936 -0.1601305454969406
1.0189844369888306 0.03425523638725281 -0.29539546370506287
1.0189646482467651 0.03465881571173668 -0.4306603968143463
1.0189447402954102 0.03506239503622055 -0.5659253001213074
1.0189249515533447 0.03546597436070442 -0.7011902332305908
1.0189050436019897 0.03586955368518829 -0.8364551663398743
1.0188852548599243 0.036273133009672165 -0.9717200994491577
1.008665680885315 -0.17716214060783386 1.0566365718841553
1.0086458921432495 -0.1767585724592209 0.9213716387748718
1.0086259841918945 -0.17635498940944672 0.7861067056655884
1.008606195449829 -0.17595140635967255 0.6508417725563049
1.0085862874984741 -0.17554782330989838 0.5155768394470215
1.0085664987564087 -0.1751442551612854 0.3803119361400604
1.0085465908050537 -0.17474067211151123 0.24504701793193817
1.0085268020629883 -0.17433708906173706 0.10978209227323532
1.0085068941116333 -0.1739335060119629 -0.025482825934886932
1.0084871053695679 -0.17352992296218872 -0.16074775159358978
1.008467197418213 -0.17312635481357574 -0.29601266980171204
1.0084474086761475 -0.17272277176380157 -0.4312776029109955
1.0084275007247925 -0.1723191887140274 -0.5665425062179565
1.008407711982727 -0.17191560566425323 -0.70180743932724
1.008387804031372 -0.17151203751564026 -0.8370723724365234
1.0083680152893066 -0.1711084544658661 -0.9723373055458069
0.9566179513931274 -0.3781815469264984 1.0560444593429565
0.9565981030464172 -0.37777796387672424 0.9207794666290283
0.956578254699707 -0.3773743808269501 0.7855145931243896
0.9565584063529968 -0.3769707977771759 0.6502496600151062
0.9565385580062866 -0.37656721472740173 0.5149847269058228
0.9565187096595764 -0.37616363167762756 0.3797198235988617
0.9564988613128662 -0.3757600486278534 0.24445489048957825
0.956479012966156 -0.3753564655780792 0.1091899648308754
0.9564591646194458 -0.37495291233062744 -0.026074955239892006
0.9564393162727356 -0.37454932928085327 -0.1613398790359497
0.9564194679260254 -0.3741457462310791 -0.29660481214523315
0.9563996195793152 -0.37374216318130493 -0.4318697154521942
0.956379771232605 -0.37333858013153076 -0.5671346187591553
0.9563599228858948 -0.3729349970817566 -0.7023995518684387
0.9563400745391846 -0.3725314140319824 -0.8376644849777222
0.9563202261924744 -0.37212783098220825 -0.9729294180870056
0.8651705384254456 -0.5646089911460876 1.0555015802383423
0.8651506900787354 -0.5642054080963135 0.9202367067337036
0.8651308417320251 -0.5638018250465393 0.7849717736244202
0.8651109933853149 -0.5633982419967651 0.6497068405151367
0.8650911450386047 -0.562994658946991 0.5144419074058533
0.8650712966918945 -0.5625910758972168 0.3791770040988922
0.8650514483451843 -0.5621874928474426 0.24391207098960876
0.8650315999984741 -0.5617839097976685 0.10864715278148651
0.8650117516517639 -0.5613803267478943 -0.026617765426635742
0.8649919033050537 -0.5609767436981201 -0.161882683634758
0.8649720549583435 -0.560573160648346 -0.29714760184288025
0.8649522066116333 -0.5601695775985718 -0.4324125349521637
0.8649323582649231 -0.5597659945487976 -0.5676774382591248
0.8649125099182129 -0.5593624711036682 -0.7029423713684082
0.8648926615715027 -0.558958888053894 -0.8382073044776917
0.8648728132247925 -0.5585553050041199 -0.9734722375869751
0.7380673885345459 -0.7288120985031128 1.055030345916748
0.7380475401878357 -0.7284085154533386 0.9197654128074646
0.7380276918411255 -0.7280049324035645 0.7845004796981812
0.7380077838897705 -0.7276013493537903 0.6492355465888977
0.7379879355430603 -0.7271977663040161 0.513970673084259
0.7379680871963501 -0.7267941832542419 0.3787057399749756
0.7379482388496399 -0.7263906598091125 0.24344080686569214
0.7379283905029297 -0.7259870767593384 0.10817588865756989
0.7379085421562195 -0.7255834937095642 -0.027089035138487816
0.7378886938095093 -0.72517991065979 -0.16235396265983582
0.7378688454627991 -0.7247763276100159 -0.2976188659667969
0.7378489971160889 -0.7243727445602417 -0.4328837990760803
0.7378291487693787 -0.7239691615104675 -0.5681487321853638
0.7378093004226685 -0.7235655784606934 -0.7034136652946472
0.7377894520759583 -0.7231619954109192 -0.8386785387992859
0.737769603729248 -0.722758412361145 -0.9739434719085693
0.5805119872093201 -0.8640684485435486 1.0546499490737915
0.5804921388626099 -0.8636648654937744 0.9193849563598633
0.5804722905158997 -0.8632612824440002 0.7841200828552246
0.5804524421691895 -0.8628576993942261 0.6488551497459412
0.5804325938224792 -0.8624541163444519 0.5135902166366577
0.580412745475769 -0.8620505332946777 0.37832528352737427
0.5803928971290588 -0.8616469502449036 0.2430603802204132
0.5803730487823486 -0.8612433671951294 0.10779545456171036
0.5803532004356384 -0.8608397841453552 -0.027469467371702194
0.5803333520889282 -0.860436201095581 -0.16273438930511475
0.580313503742218 -0.8600326180458069 -0.2979993224143982
0.5802936553955078 -0.8596290349960327 -0.43326422572135925
0.5802738070487976 -0.8592254519462585 -0.5685291290283203
0.5802539587020874 -0.8588219285011292 -0.7037940621376038
0.5802341103553772 -0.858418345451355 -0.8390589952468872
0.580214262008667 -0.8580147624015808 -0.9743239283561707
0.3989547789096832 -0.9648405313491821 1.0543758869171143
0.398934930562973 -0.964436948299408 0.9191109538078308
0.3989150822162628 -0.9640333652496338 0.7838460206985474
0.3988952338695526 -0.9636297821998596 0.6485810875892639
0.39887535572052 -0.9632261991500854 0.5133162140846252
0.3988555073738098 -0.9628226161003113 0.3780512809753418
0.3988356590270996 -0.9624190926551819 0.24278634786605835
0.3988158106803894 -0.9620155096054077 0.1075214296579361
0.3987959623336792 -0.9616119265556335 -0.027743492275476456
0.398776113986969 -0.9612083435058594 -0.1630084067583084
0.3987562656402588 -0.9608047604560852 -0.29827332496643066
0.3987364172935486 -0.960401177406311 -0.4335382580757141
0.3987165689468384 -0.9599975943565369 -0.5688031911849976
0.3986967206001282 -0.9595940113067627 -0.704068124294281
0.39867687225341797 -0.9591904282569885 -0.8393329977989197
0.39865702390670776 -0.9587868452072144 -0.9745979309082031
0.2008286863565445 -1.0270028114318848 1.0542194843292236
0.2008088380098343 -1.0265992879867554 0.9189545512199402
0.20078898966312408 -1.0261956453323364 0.7836896181106567
0.20076914131641388 -1.025792121887207 0.6484247446060181
0.20074929296970367 -1.025388479232788 0.5131598114967346
0.20072944462299347 -1.0249849557876587 0.37789487838745117
0.20070959627628326 -1.0245813131332397 0.24262996017932892
0.20068974792957306 -1.0241777896881104 0.10736503452062607
0.20066989958286285 -1.0237741470336914 -0.027899887412786484
0.20065005123615265 -1.023370623588562 -0.16316480934619904
0.20063020288944244 -1.022966980934143 -0.2984297275543213
0.20061033964157104 -1.0225634574890137 -0.43369466066360474
0.20059049129486084 -1.0221598148345947 -0.5689595937728882
0.20057064294815063 -1.0217562913894653 -0.7042244672775269
0.20055079460144043 -1.0213526487350464 -0.8394894003868103
0.20053094625473022 -1.020949125289917 -0.9747543334960938
-0.005754947662353516 -1.0480103492736816 1.0541871786117554
-0.005774796940386295 -1.0476067066192627 0.9189221858978271
-0.005794646218419075 -1.0472031831741333 0.7836572527885437
-0.005814495496451855 -1.0467995405197144 0.648392379283905
-0.005834345240145922 -1.046396017074585 0.5131274461746216
-0.005854194518178701 -1.045992374420166 0.37786251306533813
-0.005874043796211481 -1.0455888509750366 0.24259759485721588
-0.005893893074244261 -1.0451852083206177 0.10733266919851303
-0.0059137423522770405 -1.0447816848754883 -0.02793225087225437
-0.00593359163030982 -1.0443780422210693 -0.16319717466831207
-0.0059534409083426 -1.04397451877594 -0.2984620928764343
-0.0059732901863753796 -1.043570876121521 -0.4337270259857178
-0.0059931399300694466 -1.0431673526763916 -0.5689919590950012
-0.006012989208102226 -1.0427638292312622 -0.7042568325996399
-0.006032838486135006 -1.0423601865768433 -0.8395217657089233
-0.006052687764167786 -1.0419566631317139 -0.9747866988182068
