ply
format ascii 1.0
element vertex 512
property float x
property float y
property float z
end_header
-1.0323716402053833 -1.6433225870132446 -0.05398857593536377
-0.8642915487289429 -1.5838333368301392 -0.05498678982257843
-0.6962114572525024 -1.5243439674377441 -0.05598500743508339
-0.528131365776062 -1.4648547172546387 -0.05698322132229805
-0.3600512146949768 -1.4053653478622437 -0.05798143893480301
-0.191971093416214 -1.3458760976791382 -0.05897965282201767
-0.023890981450676918 -1.2863867282867432 -0.05997787043452263
0.14418913424015045 -1.2268974781036377 -0.06097608432173729
0.31226927042007446 -1.1674081087112427 -0.06197430193424225
0.4803493618965149 -1.1079188585281372 -0.06297251582145691
0.6484295129776001 -1.0484294891357422 -0.06397072970867157
0.8165096044540405 -0.9889401793479919 -0.06496894359588623
0.9845897555351257 -0.9294508695602417 -0.06596716493368149
1.152669906616211 -0.8699615597724915 -0.06696537882089615
1.3207499980926514 -0.8104722499847412 -0.06796359270811081
1.4888300895690918 -0.750982940196991 -0.06896180659532547
-1.0417207479476929 -1.6209090948104858 -0.29243987798690796
-0.8736406564712524 -1.5614197254180908 -0.2934380769729614
-0.7055605053901672 -1.5019304752349854 -0.2944363057613373
-0.5374804139137268 -1.4424411058425903 -0.29543453454971313
-0.369400292634964 -1.3829518556594849 -0.2964327335357666
-0.20132017135620117 -1.3234624862670898 -0.29743096232414246
-0.033240050077438354 -1.2639732360839844 -0.2984291613101959
0.13484007120132446 -1.2044838666915894 -0.2994273900985718
0.3029201924800873 -1.1449946165084839 -0.30042558908462524
0.4710003137588501 -1.0855052471160889 -0.3014238178730011
0.6390804052352905 -1.0260159969329834 -0.30242201685905457
0.8071605563163757 -0.9665266275405884 -0.3034202456474304
0.9752406477928162 -0.9070373177528381 -0.3044184744358063
1.1433207988739014 -0.8475480079650879 -0.30541667342185974
1.3114008903503418 -0.7880586981773376 -0.3064149022102356
1.4794809818267822 -0.7285693883895874 -0.30741310119628906
-1.0668681859970093 -1.5536952018737793 -0.5211289525032043
-0.8987880945205688 -1.4942059516906738 -0.5221271514892578
-0.7307080030441284 -1.4347165822982788 -0.5231253504753113
-0.5626278519630432 -1.3752272129058838 -0.5241236090660095
-0.3945477604866028 -1.3157379627227783 -0.525121808052063
-0.22646763920783997 -1.2562485933303833 -0.5261200070381165
-0.05838751420378685 -1.1967593431472778 -0.5271182656288147
0.10969260334968567 -1.1372699737548828 -0.5281164646148682
0.2777727246284485 -1.0777807235717773 -0.5291146636009216
0.4458528459072113 -1.0182913541793823 -0.5301128625869751
0.6139329671859741 -0.9588021039962769 -0.5311111211776733
0.7820130586624146 -0.8993127942085266 -0.5321093201637268
0.9500932097434998 -0.8398234844207764 -0.5331075191497803
1.118173360824585 -0.7803341150283813 -0.5341057777404785
1.2862534523010254 -0.7208448052406311 -0.535103976726532
1.4543335437774658 -0.6613554954528809 -0.5361021757125854
-1.1067845821380615 -1.4444327354431152 -0.7306932210922241
-0.9387044310569763 -1.3849433660507202 -0.7316914796829224
-0.7706242799758911 -1.3254541158676147 -0.7326896786689758
-0.6025441884994507 -1.2659647464752197 -0.7336878776550293
-0.43446406722068787 -1.2064754962921143 -0.7346860766410828
-0.26638394594192505 -1.1469861268997192 -0.735684335231781
-0.09830383211374283 -1.0874968767166138 -0.7366825342178345
0.06977628171443939 -1.0280075073242188 -0.7376807332038879
0.2378564029932022 -0.9685182571411133 -0.7386789917945862
0.40593650937080383 -0.909028947353363 -0.7396771907806396
0.5740166306495667 -0.849539577960968 -0.7406753897666931
0.7420967817306519 -0.7900502681732178 -0.7416735887527466
0.9101768732070923 -0.7305609583854675 -0.7426718473434448
1.0782569646835327 -0.6710716485977173 -0.7436700463294983
1.2463370561599731 -0.611582338809967 -0.7446682453155518
1.4144172668457031 -0.5520930290222168 -0.7456664443016052
-1.1598355770111084 -1.2975949048995972 -0.9125531911849976
-0.9917554259300232 -1.2381055355072021 -0.913551390171051
-0.8236753344535828 -1.1786162853240967 -0.9145495891571045
-0.6555951833724976 -1.1191269159317017 -0.915547788143158
-0.48751506209373474 -1.0596376657485962 -0.9165460467338562
-0.3194349408149719 -1.0001482963562012 -0.9175442457199097
-0.1513548344373703 -0.9406589865684509 -0.9185424447059631
0.016725286841392517 -0.8811696767807007 -0.9195406436920166
0.18480540812015533 -0.8216803669929504 -0.9205389022827148
0.35288551449775696 -0.7621910572052002 -0.9215371012687683
0.5209656357765198 -0.70270174741745 -0.9225353002548218
0.689045786857605 -0.6432124376296997 -0.92353355884552
0.8571258783340454 -0.5837231278419495 -0.9245317578315735
1.0252059698104858 -0.5242338180541992 -0.925529956817627
1.1932860612869263 -0.464744508266449 -0.9265281558036804
1.3613662719726562 -0.40525519847869873 -0.9275264143943787
-1.2238492965698242 -1.119193196296692 -1.0592633485794067
-1.0557692050933838 -1.0597039461135864 -1.060261607170105
-0.8876890540122986 -1.0002145767211914 -1.0612597465515137
-0.7196089625358582 -0.9407252669334412 -1.062258005142212
-0.551528811454773 -0.8812359571456909 -1.0632562637329102
-0.3834487199783325 -0.8217466473579407 -1.0642544031143188
-0.2153685986995697 -0.7622573375701904 -1.065252661705017
-0.047288473695516586 -0.7027680277824402 -1.0662508010864258
0.12079164385795593 -0.6432787179946899 -1.067249059677124
0.28887176513671875 -0.5837894082069397 -1.0682473182678223
0.45695188641548157 -0.5243000984191895 -1.069245457649231
0.6250320076942444 -0.4648107886314392 -1.0702437162399292
0.7931120991706848 -0.40532147884368896 -1.0712419748306274
0.96119225025177 -0.3458321690559387 -1.0722401142120361
1.1292723417282104 -0.2863428592681885 -1.0732383728027344
1.2973524332046509 -0.22685353457927704 -1.0742366313934326
-1.2962050437927246 -0.9165315628051758 -1.164817452430725
-1.1281249523162842 -0.8570421934127808 -1.1658157110214233
-0.9600448608398438 -0.7975528836250305 -1.166813850402832
-0.7919647693634033 -0.7380635738372803 -1.1678121089935303
-0.6238846182823181 -0.67857426404953 -1.1688103675842285
-0.4558044970035553 -0.6190849542617798 -1.1698085069656372
-0.2877243757247925 -0.5595956444740295 -1.1708067655563354
-0.11964426934719086 -0.5001063346862793 -1.1718050241470337
0.04843585193157196 -0.44061702489852905 -1.1728031635284424
0.21651597321033478 -0.3811277151107788 -1.1738014221191406
0.3845960795879364 -0.32163840532302856 -1.1747996807098389
0.5526762008666992 -0.2621490955352783 -1.1757978200912476
0.7207563519477844 -0.20265978574752808 -1.1767960786819458
0.8888364434242249 -0.14317047595977783 -1.1777942180633545
1.05691659450531 -0.08368115872144699 -1.1787924766540527
1.2249966859817505 -0.02419184520840645 -1.179790735244751
-1.3739407062530518 -0.6979067921638489 -1.2248941659927368
-1.2058604955673218 -0.6384174823760986 -1.2258923053741455
-1.0377804040908813 -0.5789281725883484 -1.2268905639648438
-0.8697003126144409 -0.5194388628005981 -1.227888822555542
-0.7016202211380005 -0.4599495530128479 -1.2288869619369507
-0.5335400700569153 -0.40046024322509766 -1.229885220527649
-0.36545994877815247 -0.3409709334373474 -1.2308833599090576
-0.19737984240055084 -0.28148162364959717 -1.2318816184997559
-0.029299719259142876 -0.22199231386184692 -1.232879877090454
0.1387804001569748 -0.16250298917293549 -1.2338780164718628
0.3068605065345764 -0.10301368683576584 -1.234876275062561
0.47494062781333923 -0.043524369597435 -1.2358745336532593
0.643020749092102 0.015964942052960396 -1.236872673034668
0.8111009001731873 0.07545425742864609 -1.2378709316253662
0.9791809916496277 0.13494355976581573 -1.2388691902160645
1.147261142730713 0.19443288445472717 -1.2398673295974731
-1.4538735151290894 -0.47226956486701965 -1.237033724784851
-1.285793423652649 -0.4127802550792694 -1.2380319833755493
-1.1177133321762085 -0.35329094529151917 -1.2390302419662476
-0.9496331810951233 -0.2938016355037689 -1.2400283813476562
-0.7815530300140381 -0.23431232571601868 -1.2410266399383545
-0.6134729385375977 -0.17482301592826843 -1.2420248985290527
-0.44539281725883484 -0.11533369868993759 -1.2430230379104614
-0.277312695980072 -0.05584438517689705 -1.2440212965011597
-0.10923256725072861 0.00364492810331285 -1.2450194358825684
0.05884755402803421 0.06313423812389374 -1.2460176944732666
0.22692766785621643 0.12262355536222458 -1.2470159530639648
0.39500778913497925 0.18211287260055542 -1.2480140924453735
0.5630878806114197 0.24160218238830566 -1.2490123510360718
0.7311680316925049 0.3010914921760559 -1.25001060962677
0.8992481231689453 0.36058080196380615 -1.2510087490081787
1.0673282146453857 0.4200701117515564 -1.252007007598877
-1.5327311754226685 -0.24885743856430054 -1.2007393836975098
-1.364651083946228 -0.1893681287765503 -1.201737642288208
-1.1965709924697876 -0.12987881898880005 -1.2027357816696167
-1.0284907817840576 -0.07038950175046921 -1.203734040260315
-0.8604106903076172 -0.010900186374783516 -1.2047322988510132
-0.6923305988311768 0.04858912527561188 -1.2057304382324219
-0.5242504477500916 0.10807843506336212 -1.2067286968231201
-0.3561703562736511 0.16756774485111237 -1.2077269554138184
-0.1880902200937271 0.2270570695400238 -1.208725094795227
-0.02001010626554489 0.28654637932777405 -1.2097233533859253
0.14807000756263733 0.3460356891155243 -1.2107216119766235
0.31615012884140015 0.40552499890327454 -1.2117197513580322
0.48423025012016296 0.4650143086910248 -1.2127180099487305
0.6523103713989258 0.5245036482810974 -1.2137161493301392
0.8203904628753662 0.5839929580688477 -1.2147144079208374
0.9884706139564514 0.6434822678565979 -1.2157126665115356
-1.6072852611541748 -0.03681692108511925 -1.1174969673156738
-1.4392050504684448 0.022672390565276146 -1.1184951066970825
-1.2711249589920044 0.08216170221567154 -1.1194933652877808
-1.103044867515564 0.14165101945400238 -1.120491623878479
-0.9349647164344788 0.20114032924175262 -1.1214897632598877
-0.7668846249580383 0.26062965393066406 -1.122488021850586
-0.5988044738769531 0.3201189637184143 -1.1234862804412842
-0.4307243824005127 0.37960827350616455 -1.1244844198226929
-0.2626442611217499 0.4390975832939148 -1.1254826784133911
-0.09456413984298706 0.49858689308166504 -1.1264808177947998
0.07351598143577576 0.5580762028694153 -1.127479076385498
0.24159610271453857 0.6175655126571655 -1.1284773349761963
0.4096762239933014 0.6770548224449158 -1.129475474357605
0.5777563452720642 0.736544132232666 -1.1304737329483032
0.7458364367485046 0.7960334420204163 -1.1314719915390015
0.9139165878295898 0.8555227518081665 -1.1324701309204102
-1.6744834184646606 0.1551710069179535 -0.9907143115997314
-1.5064032077789307 0.21466031670570374 -0.9917125105857849
-1.3383231163024902 0.274149626493454 -0.9927107095718384
-1.1702430248260498 0.3336389362812042 -0.9937089681625366
-1.0021629333496094 0.39312824606895447 -0.9947071671485901
-0.8340827822685242 0.4526175558567047 -0.9957053661346436
-0.666002631187439 0.5121068954467773 -0.996703565120697
-0.49792253971099854 0.5715962052345276 -0.9977018237113953
-0.3298424184322357 0.6310855150222778 -0.9987000226974487
-0.1617622971534729 0.6905748248100281 -0.9996982216835022
0.006317828316241503 0.7500641345977783 -1.0006964206695557
0.17439794540405273 0.8095534443855286 -1.001694679260254
0.34247806668281555 0.8690427541732788 -1.0026929378509521
0.5105581879615784 0.928532063961029 -1.0036910772323608
0.6786382794380188 0.9880213737487793 -1.004689335823059
0.846718430519104 1.0475107431411743 -1.0056874752044678
-1.731574535369873 0.3192463517189026 -0.825581967830658
-1.5634944438934326 0.37873566150665283 -0.8265802264213562
-1.3954143524169922 0.4382249712944031 -0.8275784254074097
-1.2273341417312622 0.4977142810821533 -0.8285766243934631
-1.0592540502548218 0.5572035908699036 -0.8295748829841614
-0.8911739587783813 0.6166929006576538 -0.8305730819702148
-0.7230938076972961 0.676182210445404 -0.8315712809562683
-0.5550137162208557 0.7356715202331543 -0.8325694799423218
-0.3869335949420929 0.7951608300209045 -0.83356773853302
-0.21885345876216888 0.8546501398086548 -0.8345659375190735
-0.050773344933986664 0.914139449596405 -0.835564136505127
0.11730676889419556 0.9736287593841553 -0.8365623950958252
0.2853868901729584 1.0331181287765503 -0.8375605940818787
0.4534670114517212 1.0926073789596558 -0.8385587930679321
0.6215471029281616 1.1520967483520508 -0.8395569920539856
0.7896272540092468 1.2115859985351562 -0.8405552506446838
-1.7762213945388794 0.44869181513786316 -0.628860592842102
-1.608141303062439 0.5081811547279358 -0.6298587918281555
-1.4400612115859985 0.567670464515686 -0.630856990814209
-1.2719810009002686 0.6271597743034363 -0.6318552494049072
-1.1039009094238281 0.6866490840911865 -0.6328534483909607
-0.9358208179473877 0.7461383938789368 -0.6338516473770142
-0.7677407264709473 0.805627703666687 -0.6348498463630676
-0.5996605753898621 0.8651170134544373 -0.6358481049537659
-0.43158045411109924 0.9246063232421875 -0.6368463039398193
-0.2635003328323364 0.9840956330299377 -0.6378445029258728
-0.0954202190041542 1.043584942817688 -0.6388427019119263
0.07265989482402802 1.103074312210083 -0.6398409605026245
0.24074001610279083 1.1625635623931885 -0.640839159488678
0.40882012248039246 1.2220529317855835 -0.6418373584747314
0.5769002437591553 1.281542181968689 -0.6428356170654297
0.7449803948402405 1.341031551361084 -0.6438338160514832
-1.8065961599349976 0.5382079482078552 -0.40860381722450256
-1.6385160684585571 0.5976972579956055 -0.4096020460128784
-1.4704358577728271 0.6571865677833557 -0.4106002449989319
-1.3023557662963867 0.716675877571106 -0.41159847378730774
-1.1342756748199463 0.7761651873588562 -0.4125967025756836
-0.9661955237388611 0.8356544971466064 -0.41359490156173706
-0.7981154322624207 0.8951438069343567 -0.4145931303501129
-0.6300352811813354 0.9546331167221069 -0.4155913293361664
-0.461955189704895 1.014122486114502 -0.41658955812454224
-0.2938750684261322 1.0736117362976074 -0.4175877571105957
-0.12579494714736938 1.1331011056900024 -0.41858598589897156
0.042285166680812836 1.192590355873108 -0.419584184885025
0.21036528050899506 1.252079725265503 -0.4205824136734009
0.37844541668891907 1.3115689754486084 -0.42158064246177673
0.5465255379676819 1.3710583448410034 -0.4225788414478302
0.7146056294441223 1.4305475950241089 -0.42357707023620605
-1.8214551210403442 0.5841298699378967 -0.1738290935754776
-1.6533750295639038 0.643619179725647 -0.17482730746269226
-1.4852949380874634 0.7031084895133972 -0.17582552134990692
-1.317214846611023 0.7625977993011475 -0.17682373523712158
-1.1491347551345825 0.8220871090888977 -0.17782194912433624
-0.9810546040534973 0.881576418876648 -0.1788201630115509
-0.8129744529724121 0.9410657286643982 -0.17981837689876556
-0.6448943614959717 1.0005550384521484 -0.18081659078598022
-0.47681424021720886 1.0600444078445435 -0.18181480467319489
-0.30873411893844604 1.119533658027649 -0.18281303346157074
-0.14065398275852203 1.179023027420044 -0.1838112473487854
0.027426129207015038 1.2385122776031494 -0.18480946123600006
0.1955062448978424 1.2980016469955444 -0.18580767512321472
0.3635863661766052 1.35749089717865 -0.18680588901042938
0.5316664576530457 1.416980266571045 -0.18780410289764404
0.6997466087341309 1.4764695167541504 -0.1888023167848587
-1.820190191268921 0.5845776200294495 0.06585193425416946
-1.6521100997924805 0.6440669298171997 0.0648537203669548
-1.48403000831604 0.70355623960495 0.06385550647974014
-1.31594979763031 0.7630455493927002 0.06285729259252548
-1.1478697061538696 0.8225348591804504 0.06185907498002052
-0.9797896146774292 0.8820241689682007 0.060860857367515564
-0.811709463596344 0.9415134787559509 0.0598626434803009
-0.6436293721199036 1.0010027885437012 0.058864425867795944
-0.47554925084114075 1.0604920387268066 0.057866211980581284
-0.30746912956237793 1.1199814081192017 0.056867994368076324
-0.1393890082836151 1.1794707775115967 0.055869780480861664
0.028691112995147705 1.2389600276947021 0.054871562868356705
0.19677123427391052 1.2984493970870972 0.053873348981142044
0.36485135555267334 1.3579386472702026 0.05287513509392738
0.5329314470291138 1.4174280166625977 0.051876917481422424
0.701011598110199 1.4769172668457031 0.050878703594207764
-1.802852988243103 0.5395327806472778 0.300626665353775
-1.6347728967666626 0.5990220904350281 0.29962846636772156
-1.4666926860809326 0.6585114002227783 0.2986302375793457
-1.2986125946044922 0.7180007100105286 0.29763203859329224
-1.1305325031280518 0.7774900197982788 0.2966338098049164
-0.9624523520469666 0.836979329586029 0.2956356108188629
-0.7943722605705261 0.8964686393737793 0.29463738203048706
-0.6262921690940857 0.9559579491615295 0.2936391532421112
-0.4582120180130005 1.0154472589492798 0.29264095425605774
-0.29013189673423767 1.0749366283416748 0.2916427254676819
-0.12205179035663605 1.1344258785247803 0.2906445264816284
0.04602833092212677 1.1939152479171753 0.28964629769325256
0.2141084522008896 1.2534044981002808 0.2886480987071991
0.3821885585784912 1.3128938674926758 0.28764986991882324
0.5502687096595764 1.3723831176757812 0.2866516709327698
0.7183488011360168 1.4318724870681763 0.2856534421443939
-1.770153284072876 0.4508395195007324 0.5208834409713745
-1.6020731925964355 0.5103288292884827 0.5198851823806763
-1.4339931011199951 0.5698181390762329 0.5188869833946228
-1.2659130096435547 0.6293074488639832 0.5178887844085693
-1.0978327989578247 0.6887967586517334 0.5168905854225159
-0.9297527074813843 0.7482860684394836 0.5158923268318176
-0.7616726160049438 0.8077753782272339 0.5148941278457642
-0.5935924649238586 0.8672647476196289 0.5138959288597107
-0.4255123734474182 0.9267540574073792 0.5128976702690125
-0.2574322521686554 0.9862433671951294 0.511899471282959
-0.08935212343931198 1.0457326173782349 0.5109012722969055
0.07872799783945084 1.1052219867706299 0.509903073310852
0.24680811166763306 1.1647112369537354 0.5089048147201538
0.4148882329463959 1.2242006063461304 0.5079066157341003
0.5829683542251587 1.2836898565292358 0.5069084167480469
0.7510484457015991 1.3431792259216309 0.5059102177619934
-1.7234299182891846 0.3221290111541748 0.7176048159599304
-1.5553498268127441 0.38161832094192505 0.716606616973877
-1.3872697353363037 0.4411076307296753 0.7156084179878235
-1.2191895246505737 0.5005969405174255 0.71461021900177
-1.0511094331741333 0.5600862503051758 0.7136119604110718
-0.8830293416976929 0.619575560092926 0.7126137614250183
-0.7149491906166077 0.6790648698806763 0.7116155624389648
-0.5468690991401672 0.7385541796684265 0.7106173634529114
-0.3787889778614044 0.7980434894561768 0.7096191048622131
-0.2107088565826416 0.857532799243927 0.7086209058761597
-0.04262874275445938 0.9170221090316772 0.7076227068901062
0.12545137107372284 0.9765114188194275 0.706624448299408
0.29353150725364685 1.0360007286071777 0.7056262493133545
0.46161162853240967 1.0954900979995728 0.704628050327301
0.6296917200088501 1.1549793481826782 0.7036298513412476
0.7977718710899353 1.2144687175750732 0.7026315927505493
-1.6645957231521606 0.1586705893278122 0.8827371597290039
-1.4965156316757202 0.21815989911556244 0.8817389011383057
-1.3284354209899902 0.2776492238044739 0.8807407021522522
-1.1603553295135498 0.3371385335922241 0.8797425031661987
-0.9922752380371094 0.39662784337997437 0.8787443041801453
-0.8241950869560242 0.4561171531677246 0.877746045589447
-0.6561149954795837 0.5156064629554749 0.8767478466033936
-0.4880348742008209 0.5750957727432251 0.8757496476173401
-0.3199547529220581 0.6345850825309753 0.8747513890266418
-0.1518746167421341 0.6940743923187256 0.8737531900405884
0.016205497086048126 0.7535637021064758 0.8727549910545349
0.18428561091423035 0.8130530118942261 0.8717567920684814
0.35236573219299316 0.8725423216819763 0.8707585334777832
0.5204458236694336 0.9320316314697266 0.8697603344917297
0.6885259747505188 0.9915209412574768 0.8687621355056763
0.8566060662269592 1.051010251045227 0.8677639365196228
-1.5960593223571777 -0.032843682914972305 1.0095198154449463
-1.4279791116714478 0.026645630598068237 1.008521556854248
-1.2598990201950073 0.08613494038581848 1.0075232982635498
-1.091818928718567 0.14562425017356873 1.0065251588821411
-0.9237387776374817 0.20511357486248016 1.0055269002914429
-0.7556586861610413 0.2646028697490692 1.0045286417007446
-0.587578535079956 0.32409217953681946 1.003530502319336
-0.4194984436035156 0.3835815191268921 1.0025322437286377
-0.2514183223247528 0.44307082891464233 1.001534104347229
-0.08333820849657059 0.5025601387023926 1.0005358457565308
0.08474191278219223 0.5620494484901428 0.9995376467704773
0.25282204151153564 0.6215387582778931 0.998539388179779
0.42090216279029846 0.6810280680656433 0.9975411891937256
0.5889822840690613 0.7405173778533936 0.9965429902076721
0.7570623755455017 0.8000066876411438 0.9955447316169739
0.9251425266265869 0.859495997428894 0.9945465326309204
-1.5206265449523926 -0.2445732057094574 1.0927622318267822
-1.3525464534759521 -0.18508389592170715 1.0917640924453735
-1.1844663619995117 -0.12559457123279572 1.0907658338546753
-1.0163862705230713 -0.06610526889562607 1.089767575263977
-0.8483061194419861 -0.006615953519940376 1.0887694358825684
-0.6802259683609009 0.05287335813045502 1.0877711772918701
-0.5121458768844604 0.11236267536878586 1.0867729187011719
-0.34406575560569763 0.1718519777059555 1.0857747793197632
-0.17598561942577362 0.23134130239486694 1.084776520729065
-0.007905503734946251 0.2908306121826172 1.0837782621383667
0.16017460823059082 0.35031992197036743 1.082780122756958
0.32825472950935364 0.4098092317581177 1.0817818641662598
0.49633485078811646 0.4692985415458679 1.080783724784851
0.6644149422645569 0.5287878513336182 1.0797854661941528
0.8324950933456421 0.5882771611213684 1.0787872076034546
1.0005751848220825 0.6477664709091187 1.077789068222046
-1.4413858652114868 -0.4678497314453125 1.1290565729141235
-1.2733056545257568 -0.40836042165756226 1.1280584335327148
-1.1052255630493164 -0.348871111869812 1.1270601749420166
-0.937145471572876 -0.28938180208206177 1.1260619163513184
-0.7690653204917908 -0.22989249229431152 1.1250637769699097
-0.6009852290153503 -0.17040318250656128 1.1240655183792114
-0.4329051077365875 -0.11091386526823044 1.1230673789978027
-0.2648249864578247 -0.051424555480480194 1.1220691204071045
-0.09674485772848129 0.0080647561699152 1.1210708618164062
0.07133526355028152 0.06755407154560089 1.1200727224349976
0.23941537737846375 0.12704338133335114 1.1190744638442993
0.40749549865722656 0.18653269112110138 1.118076205253601
0.575575590133667 0.24602200090885162 1.1170780658721924
0.7436557412147522 0.30551132559776306 1.1160798072814941
0.9117358326911926 0.3650006353855133 1.115081548690796
1.0798159837722778 0.42448994517326355 1.1140834093093872
-1.3615810871124268 -0.6935323476791382 1.1169170141220093
-1.1935009956359863 -0.6340430378913879 1.115918755531311
-1.025420904159546 -0.5745537281036377 1.1149204969406128
-0.8573407530784607 -0.5150644183158875 1.113922357559204
-0.6892606019973755 -0.4555750787258148 1.1129240989685059
-0.5211805105209351 -0.3960857689380646 1.1119258403778076
-0.35310038924217224 -0.33659645915031433 1.110927700996399
-0.18502026796340942 -0.2771071493625641 1.1099294424057007
-0.016940152272582054 -0.21761783957481384 1.108931303024292
0.1511399745941162 -0.1581285148859024 1.1079330444335938
0.31922009587287903 -0.09863921254873276 1.1069347858428955
0.48730021715164185 -0.039149895310401917 1.1059366464614868
0.6553803086280823 0.020339416339993477 1.1049383878707886
0.8234604597091675 0.07982873171567917 1.1039401292800903
0.9915405511856079 0.13931803405284882 1.1029419898986816
1.1596206426620483 0.19880735874176025 1.1019437313079834
-1.2844796180725098 -0.9123815298080444 1.0568403005599976
-1.1163995265960693 -0.8528922200202942 1.0558421611785889
-0.9483194351196289 -0.7934028506278992 1.0548439025878906
-0.7802393436431885 -0.7339135408401489 1.0538456439971924
-0.6121591925621033 -0.6744242310523987 1.0528475046157837
-0.44407907128334045 -0.6149349212646484 1.0518492460250854
-0.27599895000457764 -0.5554456114768982 1.0508509874343872
-0.10791884362697601 -0.49595630168914795 1.0498528480529785
0.060161277651786804 -0.4364669919013977 1.0488545894622803
0.22824139893054962 -0.37697768211364746 1.047856330871582
0.39632150530815125 -0.3174883723258972 1.0468581914901733
0.5644016265869141 -0.257999062538147 1.045859932899475
0.7324817776679993 -0.19850975275039673 1.0448616743087769
0.9005618691444397 -0.13902044296264648 1.0438635349273682
1.068642020225525 -0.07953112572431564 1.04286527633667
1.2367221117019653 -0.0200418159365654 1.0418671369552612
-1.2132381200790405 -1.1154375076293945 0.9512861967086792
-1.0451579093933105 -1.055948257446289 0.9502879977226257
-0.8770778179168701 -0.996458888053894 0.9492897391319275
-0.7089977264404297 -0.9369695782661438 0.948291540145874
-0.5409175753593445 -0.8774802684783936 0.9472933411598206
-0.37283748388290405 -0.8179909586906433 0.9462951421737671
-0.20475734770298004 -0.7585016489028931 0.9452968835830688
-0.03667723387479782 -0.6990123391151428 0.9442986845970154
0.1314028799533844 -0.6395230293273926 0.9433004856109619
0.2994830012321472 -0.5800337195396423 0.9423022866249084
0.46756312251091003 -0.5205444097518921 0.9413040280342102
0.6356432437896729 -0.46105509996414185 0.9403058290481567
0.8037233352661133 -0.4015657901763916 0.9393076300621033
0.9718034863471985 -0.34207648038864136 0.938309371471405
1.1398836374282837 -0.2825871706008911 0.9373111724853516
1.3079637289047241 -0.22309784591197968 0.9363129734992981
-1.1507729291915894 -1.2943873405456543 0.80457603931427
-0.9826927781105042 -1.2348979711532593 0.8035777807235718
-0.8146126866340637 -1.1754087209701538 0.8025795817375183
-0.6465325355529785 -1.1159193515777588 0.8015813827514648
-0.4784524440765381 -1.0564301013946533 0.8005831241607666
-0.31037232279777527 -0.9969407320022583 0.7995849251747131
-0.14229220151901245 -0.9374514222145081 0.7985867261886597
0.025787919759750366 -0.8779621124267578 0.7975885272026062
0.19386804103851318 -0.8184728026390076 0.796590268611908
0.361948162317276 -0.7589834928512573 0.7955920696258545
0.5300282835960388 -0.6994941830635071 0.794593870639801
0.6981083750724792 -0.6400048732757568 0.7935956120491028
0.8661885261535645 -0.5805155634880066 0.7925974130630493
1.0342686176300049 -0.5210262537002563 0.7915992140769958
1.2023487091064453 -0.4615369439125061 0.7906010150909424
1.3704289197921753 -0.40204760432243347 0.7896027565002441
-1.0996415615081787 -1.4419045448303223 0.6227160692214966
-0.9315614104270935 -1.3824152946472168 0.6217178702354431
-0.7634813189506531 -1.3229259252548218 0.6207196712493896
-0.5954011678695679 -1.2634366750717163 0.6197214126586914
-0.42732107639312744 -1.2039473056793213 0.6187232136726379
-0.2592409551143646 -1.1444580554962158 0.6177250146865845
-0.0911608338356018 -1.0849686861038208 0.616726815700531
0.07691928744316101 -1.0254794359207153 0.6157285571098328
0.24499940872192383 -0.9659900665283203 0.6147303581237793
0.41307953000068665 -0.9065007567405701 0.6137321591377258
0.5811596512794495 -0.8470114469528198 0.6127339601516724
0.7492397427558899 -0.7875221371650696 0.6117357015609741
0.9173198938369751 -0.7280328273773193 0.6107375025749207
1.0853999853134155 -0.6685435175895691 0.6097393035888672
1.253480076789856 -0.6090542078018188 0.608741044998169
1.421560287475586 -0.5495648980140686 0.6077428460121155
-1.0619373321533203 -1.5519499778747559 0.4131518006324768
-0.8938571810722351 -1.4924607276916504 0.41215357184410095
-0.7257770299911499 -1.4329713582992554 0.4111553728580475
-0.5576969385147095 -1.3734819889068604 0.41015714406967163
-0.38961681723594666 -1.3139927387237549 0.40915894508361816
-0.22153669595718384 -1.2545033693313599 0.4081607162952423
-0.05345658212900162 -1.1950141191482544 0.40716248750686646
0.1146235316991806 -1.1355247497558594 0.406164288520813
0.2827036678791046 -1.076035499572754 0.40516605973243713
0.45078375935554504 -1.0165461301803589 0.40416786074638367
0.6188638806343079 -0.9570568799972534 0.4031696319580078
0.7869440317153931 -0.8975675702095032 0.40217143297195435
0.9550241231918335 -0.8380782604217529 0.4011732041835785
1.123104214668274 -0.7785888910293579 0.400175005197525
1.291184425354004 -0.7190995812416077 0.39917677640914917
1.4592645168304443 -0.6596102714538574 0.3981785476207733
-1.0392037630081177 -1.6200182437896729 0.18446272611618042
-0.8711236715316772 -1.5605288743972778 0.18346451222896576
-0.703043520450592 -1.5010396242141724 0.1824662834405899
-0.5349634289741516 -1.4415502548217773 0.18146806955337524
-0.3668833076953888 -1.3820610046386719 0.18046985566616058
-0.19880318641662598 -1.3225716352462769 0.17947164177894592
-0.03072306141257286 -1.2630823850631714 0.17847342789173126
0.13735705614089966 -1.2035930156707764 0.1774752140045166
0.3054371774196625 -1.144103765487671 0.17647700011730194
0.4735172986984253 -1.0846143960952759 0.17547878623008728
0.6415973901748657 -1.0251251459121704 0.17448057234287262
0.8096775412559509 -0.9656357765197754 0.17348234355449677
0.9777576327323914 -0.9061464667320251 0.1724841296672821
1.1458377838134766 -0.8466571569442749 0.17148591578006744
1.313917875289917 -0.7871678471565247 0.17048770189285278
1.4819979667663574 -0.7276785373687744 0.16948948800563812
-1.0323716402053833 -1.6433225870132446 -0.05398857593536377
-0.8642915487289429 -1.5838333368301392 -0.05498678982257843
-0.6962114572525024 -1.5243439674377441 -0.05598500743508339
-0.528131365776062 -1.4648547172546387 -0.05698322132229805
-0.3600512146949768 -1.4053653478622437 -0.05798143893480301
-0.191971093416214 -1.3458760976791382 -0.05897965282201767
-0.023890981450676918 -1.2863867282867432 -0.05997787043452263
0.14418913424015045 -1.2268974781036377 -0.06097608432173729
0.31226927042007446 -1.1674081087112427 -0.06197430193424225
0.4803493618965149 -1.1079188585281372 -0.06297251582145691
0.6484295129776001 -1.0484294891357422 -0.06397072970867157
0.8165096044540405 -0.9889401793479919 -0.06496894359588623
0.9845897555351257 -0.9294508695602417 -0.06596716493368149
1.152669906616211 -0.8699615597724915 -0.06696537882089615
1.3207499980926514 -0.8104722499847412 -0.06796359270811081
1.4888300895690918 -0.750982940196991 -0.06896180659532547
