ply
format ascii 1.0
element vertex 512
property float x
property float y
property float z
end_header
0.0005336999893188477 0.9944814443588257 -1.0030755996704102
0.00022642672411166131 0.9952989816665649 -0.8735414743423462
-8.084654109552503e-05 0.9961164593696594 -0.7440073490142822
-0.00038811980630271137 0.9969339966773987 -0.6144731640815735
-0.0006953930715098977 0.9977515339851379 -0.48493900895118713
-0.0010026663076132536 0.9985690116882324 -0.3554048538208008
-0.0013099395437166095 0.9993865489959717 -0.22587071359157562
-0.0016172128962352872 1.000204086303711 -0.09633655846118927
-0.001924486132338643 1.0010216236114502 0.033197592943906784
-0.002231759484857321 1.0018391609191895 0.16273175179958344
-0.002539032604545355 1.0026565790176392 0.2922658920288086
-0.0028463059570640326 1.0034741163253784 0.42180004715919495
-0.0031535790767520666 1.0042916536331177 0.5513342022895813
-0.0034608524292707443 1.005109190940857 0.68086838722229
-0.003768125781789422 1.0059267282485962 0.810402512550354
-0.0040753991343081 1.0067442655563354 0.9399366974830627
-0.20080214738845825 0.9740049242973328 -1.003424048423767
-0.20110942423343658 0.974822461605072 -0.8738898634910583
-0.20141668617725372 0.9756399393081665 -0.7443556785583496
-0.20172396302223206 0.9764574766159058 -0.6148215532302856
-0.2020312398672104 0.977275013923645 -0.4852873980998993
-0.20233851671218872 0.9780924916267395 -0.35575324296951294
-0.20264577865600586 0.9789100289344788 -0.2262190729379654
-0.2029530555009842 0.979727566242218 -0.09668492525815964
-0.20326033234596252 0.9805450439453125 0.032849229872226715
-0.20356760919094086 0.9813625812530518 0.16238337755203247
-0.203874871134758 0.982180118560791 0.2919175326824188
-0.20418214797973633 0.9829975962638855 0.4214516878128052
-0.20448942482471466 0.9838151335716248 0.5509858727455139
-0.204796701669693 0.984632670879364 0.6805199980735779
-0.20510396361351013 0.9854501485824585 0.8100541234016418
-0.20541124045848846 0.9862676858901978 0.9395883083343506
-0.3938952684402466 0.9134197235107422 -1.0034996271133423
-0.3942025601863861 0.9142372012138367 -0.8739655017852783
-0.39450982213020325 0.9150547385215759 -0.7444313764572144
-0.3948170840740204 0.9158722758293152 -0.6148971915245056
-0.3951243758201599 0.9166897535324097 -0.48536306619644165
-0.39543163776397705 0.9175072908401489 -0.3558289110660553
-0.3957389295101166 0.9183248281478882 -0.22629475593566895
-0.3960461914539337 0.9191423058509827 -0.09676060080528259
-0.39635345339775085 0.9199598431587219 0.03277355059981346
-0.3966607451438904 0.9207773804664612 0.1623077094554901
-0.3969680070877075 0.9215948581695557 0.29184186458587646
-0.39727526903152466 0.9224123954772949 0.4213760197162628
-0.3975825607776642 0.9232299327850342 0.5509101748466492
-0.3978898227214813 0.9240474700927734 0.6804443001747131
-0.39819711446762085 0.9248649477958679 0.8099784851074219
-0.398504376411438 0.9256824851036072 0.9395126104354858
-0.5708404183387756 0.8152061700820923 -1.003299593925476
-0.5711477398872375 0.8160236477851868 -0.8737654089927673
-0.5714550018310547 0.816841185092926 -0.7442312836647034
-0.5717622637748718 0.8176587224006653 -0.6146970987319946
-0.572069525718689 0.8184762001037598 -0.4851629436016083
-0.5723767876625061 0.819293737411499 -0.3556287884712219
-0.5726840496063232 0.8201112747192383 -0.22609464824199677
-0.5729913711547852 0.8209288120269775 -0.09656049311161041
-0.5732986330986023 0.821746289730072 0.03297366201877594
-0.5736058950424194 0.8225638270378113 0.1625078171491623
-0.5739131569862366 0.8233813643455505 0.29204195737838745
-0.5742204189300537 0.824198842048645 0.4215761125087738
-0.5745277404785156 0.8250163793563843 0.5511102676391602
-0.5748350024223328 0.8258339166641235 0.6806444525718689
-0.5751422643661499 0.826651394367218 0.8101785778999329
-0.575449526309967 0.8274689316749573 0.9397127628326416
-0.7243934869766235 0.6833851337432861 -1.0028318166732788
-0.7247007489204407 0.6842026710510254 -0.8732976913452148
-0.7250080108642578 0.6850202083587646 -0.7437635660171509
-0.725315272808075 0.6858376860618591 -0.6142293810844421
-0.7256225943565369 0.6866552233695984 -0.4846952557563782
-0.725929856300354 0.6874727606773376 -0.3551611006259918
-0.7262371182441711 0.6882902383804321 -0.22562694549560547
-0.7265443801879883 0.6891077756881714 -0.09609279036521912
-0.7268516421318054 0.6899253129959106 0.033441364765167236
-0.7271589636802673 0.6907427906990051 0.1629755198955536
-0.7274662256240845 0.6915603280067444 0.29250967502593994
-0.7277734875679016 0.6923778653144836 0.4220438301563263
-0.7280807495117188 0.6931954026222229 0.5515779852867126
-0.7283880114555359 0.6940128803253174 0.6811121106147766
-0.728695273399353 0.6948304176330566 0.8106462955474854
-0.7290025949478149 0.6956479549407959 0.9401804208755493
-0.8482679128646851 0.5233534574508667 -1.0021157264709473
-0.8485751748085022 0.524170994758606 -0.8725815415382385
-0.8488824367523193 0.5249884724617004 -0.7430474162101746
-0.8491897583007812 0.5258060097694397 -0.6135132312774658
-0.8494970202445984 0.526623547077179 -0.48397910594940186
-0.8498042821884155 0.5274410247802734 -0.3544449508190155
-0.8501115441322327 0.5282585620880127 -0.22491079568862915
-0.8504188060760498 0.529076099395752 -0.0953766405582428
-0.8507260680198669 0.5298935770988464 0.034157510846853256
-0.8510333895683289 0.5307111144065857 0.1636916697025299
-0.851340651512146 0.531528651714325 0.29322582483291626
-0.8516479134559631 0.5323461890220642 0.4227599799633026
-0.8519551753997803 0.5331636667251587 0.552294135093689
-0.8522624373435974 0.533981204032898 0.6818282604217529
-0.8525697588920593 0.5347987413406372 0.8113624453544617
-0.8528770208358765 0.5356162190437317 0.9408965706825256
-0.9373922944068909 0.34166279435157776 -1.0011804103851318
-0.937699556350708 0.34248030185699463 -0.8716462850570679
-0.9380068778991699 0.3432978391647339 -0.7421121597290039
-0.9383141398429871 0.34411534667015076 -0.6125779747962952
-0.9386214017868042 0.3449328541755676 -0.4830438196659088
-0.9389286637306213 0.3457503914833069 -0.35350966453552246
-0.9392359256744385 0.34656789898872375 -0.2239755243062973
-0.9395432472229004 0.3473854064941406 -0.09444136917591095
-0.9398505091667175 0.3482029438018799 0.0350927859544754
-0.9401577711105347 0.34902045130729675 0.16462694108486176
-0.9404650330543518 0.349837988615036 0.2941610813140869
-0.940772294998169 0.3506554961204529 0.42369523644447327
-0.9410796165466309 0.35147300362586975 0.5532293915748596
-0.941386878490448 0.352290540933609 0.6827635765075684
-0.9416941404342651 0.3531080484390259 0.8122977018356323
-0.9420014023780823 0.35392555594444275 0.9418318867683411
-0.9881179332733154 0.14575158059597015 -1.0000643730163574
-0.9884251952171326 0.14656910300254822 -0.8705301880836487
-0.9887324571609497 0.14738662540912628 -0.7409960031509399
-0.9890397191047668 0.14820414781570435 -0.611461877822876
-0.989346981048584 0.14902165532112122 -0.4819277226924896
-0.9896542429924011 0.14983917772769928 -0.35239356756210327
-0.989961564540863 0.15065670013427734 -0.22285941243171692
-0.9902688264846802 0.1514742225408554 -0.09332525730133057
-0.9905760884284973 0.15229173004627228 0.036208897829055786
-0.9908833503723145 0.15310925245285034 0.16574305295944214
-0.9911906123161316 0.1539267748594284 0.2952772080898285
-0.9914979338645935 0.15474429726600647 0.42481136322021484
-0.9918051958084106 0.15556180477142334 0.5543454885482788
-0.9921124577522278 0.1563793271780014 0.6838796734809875
-0.9924197196960449 0.15719684958457947 0.8134137988090515
-0.9927269816398621 0.15801437199115753 0.9429479837417603
-0.998367965221405 -0.05635952576994896 -0.9988130927085876
-0.9986752867698669 -0.055542007088661194 -0.8692789077758789
-0.9989825487136841 -0.05472448840737343 -0.7397447824478149
-0.9992898106575012 -0.05390696972608566 -0.6102105975151062
-0.9995970726013184 -0.0530894510447979 -0.48067647218704224
-0.9999043345451355 -0.05227193236351013 -0.3511423170566559
-1.0002115964889526 -0.051454413682222366 -0.22160816192626953
-1.0005189180374146 -0.0506368950009346 -0.09207400679588318
-1.000826120376587 -0.049819376319646835 0.037460148334503174
-1.0011334419250488 -0.04900185763835907 0.16699430346488953
-1.0014407634735107 -0.048184338957071304 0.2965284585952759
-1.001747965812683 -0.04736682027578354 0.42606261372566223
-1.002055287361145 -0.04654930159449577 0.5555967688560486
-1.0023624897003174 -0.04573178291320801 0.6851308941841125
-1.0026698112487793 -0.04491426423192024 0.8146650791168213
-1.0029771327972412 -0.04409674555063248 0.9441992044448853
-0.9677228927612305 -0.25639608502388 -0.9974778890609741
-0.9680302143096924 -0.25557857751846313 -0.8679437637329102
-0.9683374762535095 -0.25476107001304626 -0.7384095788002014
-0.9686447381973267 -0.253943532705307 -0.6088754534721375
-0.9689520001411438 -0.25312602519989014 -0.4793412983417511
-0.9692592620849609 -0.2523084878921509 -0.34980714321136475
-0.9695665836334229 -0.251490980386734 -0.2202729880809784
-0.96987384557724 -0.25067347288131714 -0.09073883295059204
-0.9701811075210571 -0.24985595047473907 0.03879531845450401
-0.9704883694648743 -0.249038428068161 0.16832947731018066
-0.9707956314086914 -0.24822090566158295 0.297863632440567
-0.9711029529571533 -0.24740338325500488 0.42739778757095337
-0.9714102149009705 -0.246585875749588 0.5569319128990173
-0.9717174768447876 -0.24576835334300995 0.6864660978317261
-0.9720247387886047 -0.24495083093643188 0.81600022315979
-0.9723320007324219 -0.24413330852985382 0.9455344080924988
-0.897437334060669 -0.44616860151290894 -0.9961134791374207
-0.8977445960044861 -0.4453510642051697 -0.8665793538093567
-0.8980518579483032 -0.4445335566997528 -0.737045168876648
-0.8983591198921204 -0.44371604919433594 -0.607511043548584
-0.8986663818359375 -0.4428985118865967 -0.47797685861587524
-0.8989737033843994 -0.4420810043811798 -0.3484427034854889
-0.8992809653282166 -0.44126349687576294 -0.21890856325626373
-0.8995882272720337 -0.4404459595680237 -0.08937440812587738
-0.8998954892158508 -0.4396284520626068 0.040159743279218674
-0.900202751159668 -0.43881091475486755 0.16969390213489532
-0.9005100131034851 -0.4379934072494507 0.2992280423641205
-0.900817334651947 -0.4371758997440338 0.42876219749450684
-0.9011245965957642 -0.43635836243629456 0.5582963824272156
-0.9014318585395813 -0.4355408549308777 0.6878305077552795
-0.9017391204833984 -0.4347233474254608 0.8173646926879883
-0.9020463824272156 -0.43390581011772156 0.9468988180160522
-0.7903886437416077 -0.617907702922821 -0.994775652885437
-0.7906959056854248 -0.6170902252197266 -0.865241527557373
-0.7910032272338867 -0.6162726879119873 -0.7357073426246643
-0.7913104891777039 -0.615455150604248 -0.6061732172966003
-0.791617751121521 -0.6146376729011536 -0.476639062166214
-0.7919250130653381 -0.6138201355934143 -0.34710490703582764
-0.7922322750091553 -0.613002598285675 -0.21757075190544128
-0.7925395965576172 -0.6121851205825806 -0.08803658932447433
-0.7928468585014343 -0.6113675832748413 0.04149756208062172
-0.7931541204452515 -0.610550045967102 0.17103171348571777
-0.7934613823890686 -0.6097325682640076 0.3005658686161041
-0.7937686443328857 -0.6089150309562683 0.4301000237464905
-0.7940759658813477 -0.608097493648529 0.5596341490745544
-0.7943832278251648 -0.6072799563407898 0.6891683340072632
-0.7946904897689819 -0.6064624786376953 0.8187024593353271
-0.7949977517127991 -0.605644941329956 0.9482366442680359
-0.6509595513343811 -0.7645824551582336 -0.9935192465782166
-0.6512668132781982 -0.7637649178504944 -0.8639850616455078
-0.6515741348266602 -0.7629474401473999 -0.7344509363174438
-0.6518813967704773 -0.7621299028396606 -0.6049167513847351
-0.6521886587142944 -0.7613123655319214 -0.47538259625434875
-0.6524959206581116 -0.7604948878288269 -0.3458484709262848
-0.6528031826019287 -0.7596773505210876 -0.21631430089473724
-0.6531104445457458 -0.7588598132133484 -0.08678015321493149
-0.6534177660942078 -0.7580423355102539 0.042754001915454865
-0.6537250280380249 -0.7572247982025146 0.17228814959526062
-0.654032289981842 -0.7564072608947754 0.301822304725647
-0.6543395519256592 -0.7555897831916809 0.4313564598560333
-0.6546468138694763 -0.7547722458839417 0.5608906149864197
-0.6549541354179382 -0.7539547085762024 0.6904247999191284
-0.6552613973617554 -0.7531371712684631 0.8199589252471924
-0.6555686593055725 -0.7523196935653687 0.9494930505752563
-0.4848582446575165 -0.8801879286766052 -0.9923955798149109
-0.4851655066013336 -0.879370391368866 -0.8628614544868469
-0.48547279834747314 -0.8785529136657715 -0.7333272695541382
-0.4857800602912903 -0.8777353763580322 -0.6037931442260742
-0.4860873520374298 -0.876917839050293 -0.47425898909568787
-0.48639461398124695 -0.8761003017425537 -0.3447248339653015
-0.4867018759250641 -0.8752828240394592 -0.21519067883491516
-0.4870091676712036 -0.87446528673172 -0.08565652370452881
-0.48731642961502075 -0.8736477494239807 0.043877631425857544
-0.4876236915588379 -0.8728302717208862 0.1734117865562439
-0.4879309833049774 -0.872012734413147 0.30294594168663025
-0.48823824524879456 -0.8711951971054077 0.4324800968170166
-0.4885455369949341 -0.8703777194023132 0.5620142221450806
-0.4888527989387512 -0.869560182094574 0.6915484070777893
-0.48916006088256836 -0.8687426447868347 0.8210825324058533
-0.4894673526287079 -0.8679251670837402 0.950616717338562
-0.29888492822647095 -0.9599912166595459 -0.9914507865905762
-0.2991921901702881 -0.9591736793518066 -0.8619166612625122
-0.2994994819164276 -0.9583562016487122 -0.7323824763298035
-0.29980674386024475 -0.9575386643409729 -0.6028483510017395
-0.3001140356063843 -0.9567211270332336 -0.47331416606903076
-0.3004212975502014 -0.9559035897254944 -0.3437800109386444
-0.30072855949401855 -0.9550861120223999 -0.21424587070941925
-0.3010358512401581 -0.9542685747146606 -0.0847117081284523
-0.3013431131839752 -0.9534510374069214 0.04482244327664375
-0.30165037512779236 -0.9526335597038269 0.1743565946817398
-0.3019576668739319 -0.9518160223960876 0.30389073491096497
-0.302264928817749 -0.9509984850883484 0.4334248900413513
-0.30257222056388855 -0.9501810073852539 0.5629590749740601
-0.3028794825077057 -0.9493634700775146 0.692493200302124
-0.3031867444515228 -0.9485459327697754 0.8220273852348328
-0.30349403619766235 -0.9477284550666809 0.9515615105628967
-0.10065338015556335 -1.0007251501083374 -0.9907234907150269
-0.10096065700054169 -0.9999076724052429 -0.8611893057823181
-0.10126792639493942 -0.9990901350975037 -0.7316551804542542
-0.10157520323991776 -0.9982725977897644 -0.6021209955215454
-0.10188247263431549 -0.9974551200866699 -0.47258687019348145
-0.10218974947929382 -0.9966375827789307 -0.3430527150630951
-0.10249701887369156 -0.9958200454711914 -0.21351854503154755
-0.10280429571866989 -0.9950025081634521 -0.08398439735174179
-0.10311156511306763 -0.9941850304603577 0.04554975777864456
-0.10341884195804596 -0.9933674931526184 0.17508390545845032
-0.1037261113524437 -0.9925499558448792 0.30461806058883667
-0.10403338819742203 -0.9917324781417847 0.434152215719223
-0.10434065759181976 -0.9909149408340454 0.5636863708496094
-0.1046479344367981 -0.9900974035263062 0.6932204961776733
-0.10495520383119583 -0.9892799258232117 0.8227546811103821
-0.10526248067617416 -0.9884623885154724 0.952288806438446
0.10172078013420105 -1.0007221698760986 -0.9902434349060059
0.10141351073980331 -0.9999046325683594 -0.8607092499732971
0.10110623389482498 -0.9990870952606201 -0.7311751246452332
0.10079895704984665 -0.9982695579528809 -0.6016409993171692
0.10049168765544891 -0.9974520802497864 -0.47210681438446045
0.10018441081047058 -0.9966345429420471 -0.3425726592540741
0.09987714141607285 -0.9958170056343079 -0.21303850412368774
0.09956986457109451 -0.9949995279312134 -0.08350435644388199
0.09926259517669678 -0.9941819906234741 0.046029798686504364
0.09895531833171844 -0.9933644533157349 0.17556394636631012
0.09864804893732071 -0.9925469756126404 0.30509811639785767
0.09834077209234238 -0.9917294383049011 0.434632271528244
0.09803350269794464 -0.9909119009971619 0.5641664266586304
0.09772622585296631 -0.9900943636894226 0.6937005519866943
0.09741895645856857 -0.9892768859863281 0.8232347369194031
0.09711167961359024 -0.9884593486785889 0.952768862247467
0.29995232820510864 -0.9599822759628296 -0.9900302886962891
0.2996450662612915 -0.9591647386550903 -0.8604961633682251
0.299337774515152 -0.9583472013473511 -0.7309620380401611
0.29903051257133484 -0.9575296640396118 -0.6014278531074524
0.2987232506275177 -0.9567121863365173 -0.47189369797706604
0.2984159588813782 -0.9558946490287781 -0.3423595428466797
0.29810869693756104 -0.9550771117210388 -0.21282538771629333
0.2978014051914215 -0.9542596340179443 -0.08329124003648758
0.29749414324760437 -0.9534420967102051 0.046242911368608475
0.29718688130378723 -0.9526245594024658 0.17577706277370453
0.2968795895576477 -0.9518070816993713 0.3053112328052521
0.29657232761383057 -0.9509895443916321 0.43484535813331604
0.2962650656700134 -0.9501720070838928 0.5643795132637024
0.2959577739238739 -0.9493545293807983 0.6939136981964111
0.29565051198005676 -0.9485369920730591 0.8234478235244751
0.29534322023391724 -0.9477194547653198 0.9529820084571838
0.4859256446361542 -0.88017338514328 -0.9900928735733032
0.48561838269233704 -0.8793558478355408 -0.8605586886405945
0.4853110909461975 -0.8785383701324463 -0.7310245633125305
0.48500382900238037 -0.877720832824707 -0.6014903783798218
0.48469656705856323 -0.8769032955169678 -0.4719562530517578
0.4843892753124237 -0.8760858178138733 -0.34242209792137146
0.48408201336860657 -0.875268280506134 -0.2128879278898239
0.48377472162246704 -0.8744507431983948 -0.08335378021001816
0.4834674596786499 -0.8736332654953003 0.046180374920368195
0.48316019773483276 -0.872815728187561 0.17571452260017395
0.48285290598869324 -0.8719981908798218 0.3052486777305603
0.4825456440448761 -0.8711807131767273 0.43478283286094666
0.4822383522987366 -0.870363175868988 0.564316987991333
0.48193109035491943 -0.8695456385612488 0.693851113319397
0.4816238284111023 -0.8687281012535095 0.8233852982521057
0.48131653666496277 -0.867910623550415 0.9529194235801697
0.6520269513130188 -0.7645629644393921 -0.9904285073280334
0.6517196893692017 -0.7637454271316528 -0.8608943223953247
0.6514124274253845 -0.7629278898239136 -0.7313601970672607
0.6511051654815674 -0.7621104121208191 -0.601826012134552
0.6507978439331055 -0.7612928748130798 -0.47229185700416565
0.6504905819892883 -0.7604753375053406 -0.3427577018737793
0.6501833200454712 -0.7596578598022461 -0.21322356164455414
0.649876058101654 -0.7588403224945068 -0.08368940651416779
0.6495687961578369 -0.7580227851867676 0.04584474861621857
0.649261474609375 -0.7572053074836731 0.17537890374660492
0.6489542126655579 -0.7563877701759338 0.3049130439758301
0.6486469507217407 -0.7555702328681946 0.43444719910621643
0.6483396887779236 -0.7547527551651001 0.5639813542366028
0.6480324268341064 -0.7539352178573608 0.6935155391693115
0.6477251052856445 -0.7531176805496216 0.8230496644973755
0.6474178433418274 -0.7523002028465271 0.9525838494300842
0.7914560437202454 -0.6178840398788452 -0.9910234808921814
0.7911487817764282 -0.617066502571106 -0.8614892959594727
0.7908415198326111 -0.6162490248680115 -0.7319551706314087
0.790534257888794 -0.6154314875602722 -0.6024209856987
0.7902269959449768 -0.614613950252533 -0.4728868305683136
0.7899196743965149 -0.6137964725494385 -0.34335267543792725
0.7896124124526978 -0.6129789352416992 -0.2138185352087021
0.7893051505088806 -0.61216139793396 -0.08428438007831573
0.7889978885650635 -0.6113439202308655 0.04524977132678032
0.7886906266212463 -0.6105263829231262 0.17478393018245697
0.7883833050727844 -0.609708845615387 0.30431807041168213
0.7880760431289673 -0.6088913679122925 0.4338522255420685
0.7877687811851501 -0.6080738306045532 0.5633863806724548
0.787461519241333 -0.607256293296814 0.6929205656051636
0.7871542572975159 -0.6064387559890747 0.8224546909332275
0.786846935749054 -0.6056212782859802 0.9519888162612915
0.8985047340393066 -0.44614171981811523 -0.9918534159660339
0.8981974124908447 -0.445324182510376 -0.86231929063797
0.8978901505470276 -0.4445066750049591 -0.7327851057052612
0.8975828886032104 -0.44368916749954224 -0.6032509803771973
0.8972756266593933 -0.442871630191803 -0.4737168252468109
0.8969683647155762 -0.4420541226863861 -0.34418267011642456
0.8966610431671143 -0.44123658537864685 -0.21464850008487701
0.8963537812232971 -0.44041907787323 -0.08511435240507126
0.89604651927948 -0.4396015703678131 0.044419799000024796
0.8957392573356628 -0.43878403306007385 0.17395395040512085
0.8954319953918457 -0.437966525554657 0.3034881055355072
0.8951246738433838 -0.4371490180492401 0.43302226066589355
0.8948174118995667 -0.43633148074150085 0.5625563859939575
0.8945101499557495 -0.435513973236084 0.6920905709266663
0.8942028880119324 -0.4346964359283447 0.8216246962547302
0.8938956260681152 -0.43387892842292786 0.951158881187439
0.9687902927398682 -0.25636711716651917 -0.9928843975067139
0.968483030796051 -0.2555495798587799 -0.8633502721786499
0.9681757688522339 -0.25473207235336304 -0.7338160872459412
0.9678685069084167 -0.2539145350456238 -0.6042819619178772
0.9675612449645996 -0.2530970275402069 -0.47474780678749084
0.9672539234161377 -0.25227952003479004 -0.3452136516571045
0.9669466614723206 -0.2514619827270508 -0.21567948162555695
0.9666393995285034 -0.2506444752216339 -0.08614533394575119
0.9663321375846863 -0.24982695281505585 0.043388817459344864
0.9660248756408691 -0.24900943040847778 0.17292296886444092
0.965717613697052 -0.2481919229030609 0.30245712399482727
0.9654102921485901 -0.24737440049648285 0.4319912791252136
0.965103030204773 -0.24655687808990479 0.5615254044532776
0.9647957682609558 -0.24573935568332672 0.6910595893859863
0.9644885063171387 -0.24492184817790985 0.8205937147140503
0.9641812443733215 -0.2441043257713318 0.950127899646759
0.9994353652000427 -0.05632961913943291 -0.9940741658210754
0.9991281032562256 -0.05551210045814514 -0.8645400404930115
0.9988208413124084 -0.054694581776857376 -0.7350059151649475
0.9985135793685913 -0.05387706309556961 -0.6054717302322388
0.9982063174247742 -0.053059544414281845 -0.4759375751018524
0.9978989958763123 -0.05224202573299408 -0.34640341997146606
0.9975917339324951 -0.051424507051706314 -0.2168692797422409
0.997284471988678 -0.05060698837041855 -0.08733512461185455
0.9969772100448608 -0.04978946968913078 0.0421990305185318
0.9966699481010437 -0.04897195100784302 0.17173318564891815
0.9963626265525818 -0.04815443232655525 0.3012673258781433
0.9960553646087646 -0.04733691364526749 0.43080148100852966
0.9957481026649475 -0.04651939496397972 0.560335636138916
0.9954408407211304 -0.045701876282691956 0.6898698210716248
0.9951335787773132 -0.04488435760140419 0.8194039463996887
0.9948263168334961 -0.044066835194826126 0.9489381313323975
0.9891853332519531 0.14578118920326233 -0.9953740835189819
0.9888780117034912 0.1465987116098404 -0.8658398985862732
0.9885707497596741 0.14741621911525726 -0.7363057732582092
0.9882634878158569 0.14823374152183533 -0.6067715883255005
0.9879562258720398 0.1490512639284134 -0.4772374629974365
0.9876489639282227 0.14986878633499146 -0.34770330786705017
0.9873416423797607 0.15068629384040833 -0.21816915273666382
0.9870343804359436 0.1515038162469864 -0.08863500505685806
0.9867271184921265 0.15232133865356445 0.04089915007352829
0.9864198565483093 0.15313886106014252 0.17043329775333405
0.9861125946044922 0.1539563685655594 0.2999674677848816
0.9858052730560303 0.15477389097213745 0.42950162291526794
0.9854980111122131 0.15559141337871552 0.5590357780456543
0.985190749168396 0.15640893578529358 0.6885699033737183
0.9848834872245789 0.15722644329071045 0.818104088306427
0.9845762252807617 0.1580439656972885 0.947638213634491
0.9384596943855286 0.34169086813926697 -0.9967308044433594
0.9381524324417114 0.34250837564468384 -0.8671966791152954
0.9378451704978943 0.3433259129524231 -0.7376625537872314
0.9375379085540771 0.34414342045783997 -0.6081283688545227
0.9372305870056152 0.3449609577655792 -0.47859421372413635
0.9369233250617981 0.3457784652709961 -0.34906005859375
0.936616063117981 0.34659597277641296 -0.21952591836452484
0.9363088011741638 0.3474135100841522 -0.08999176323413849
0.9360015392303467 0.3482310175895691 0.039542391896247864
0.9356942772865295 0.34904852509498596 0.16907654702663422
0.9353869557380676 0.3498660624027252 0.2986106872558594
0.9350796937942505 0.3506835699081421 0.4281448423862457
0.9347724318504333 0.35150110721588135 0.5576789975166321
0.9344651699066162 0.3523186147212982 0.6872131824493408
0.9341579079627991 0.3531361222267151 0.8167473077774048
0.9338505864143372 0.35395365953445435 0.9462814927101135
0.8493353128433228 0.523378849029541 -0.9980888962745667
0.8490280508995056 0.5241963863372803 -0.8685547709465027
0.8487207889556885 0.5250139236450195 -0.7390206456184387
0.8484134674072266 0.525831401348114 -0.60948646068573
0.8481062054634094 0.5266489386558533 -0.47995230555534363
0.8477989435195923 0.5274664759635925 -0.3504181504249573
0.8474916815757751 0.528283953666687 -0.22088399529457092
0.847184419631958 0.5291014909744263 -0.09134984761476517
0.8468770980834961 0.5299190282821655 0.03818430379033089
0.846569836139679 0.5307365655899048 0.16771845519542694
0.8462625741958618 0.5315540432929993 0.2972526252269745
0.8459553122520447 0.5323715806007385 0.42678675055503845
0.8456480503082275 0.5331891179084778 0.5563209056854248
0.8453407883644104 0.5340065956115723 0.6858550906181335
0.8450334668159485 0.5348241329193115 0.8153892159461975
0.8447262048721313 0.5356416702270508 0.9449234008789062
0.7254608869552612 0.6834068298339844 -0.9993927478790283
0.7251536250114441 0.6842243671417236 -0.8698585629463196
0.7248463034629822 0.6850419044494629 -0.7403244376182556
0.724539041519165 0.6858593821525574 -0.6107902526855469
0.7242317795753479 0.6866769194602966 -0.4812561273574829
0.7239245176315308 0.6874944567680359 -0.35172197222709656
0.7236172556877136 0.6883119940757751 -0.2221878170967102
0.7233099341392517 0.6891294717788696 -0.09265366941690445
0.7230026721954346 0.6899470090866089 0.0368804857134819
0.7226954102516174 0.6907645463943481 0.16641463339328766
0.7223881483078003 0.6915820240974426 0.2959488034248352
0.7220808863639832 0.6923995614051819 0.42548295855522156
0.721773624420166 0.6932170987129211 0.5550171136856079
0.7214663028717041 0.6940345764160156 0.6845512390136719
0.721159040927887 0.6948521137237549 0.8140854239463806
0.7208517789840698 0.6956696510314941 0.9436195492744446
0.5719078183174133 0.8152232766151428 -1.0005888938903809
0.5716005563735962 0.8160407543182373 -0.8710547685623169
0.571293294429779 0.8168582916259766 -0.7415205836296082
0.5709860324859619 0.8176758289337158 -0.6119864583015442
0.5706787705421448 0.8184933066368103 -0.48245230317115784
0.5703714489936829 0.8193108439445496 -0.3529181480407715
0.5700641870498657 0.8201283812522888 -0.22338399291038513
0.5697569251060486 0.8209459185600281 -0.09384983777999878
0.5694496631622314 0.8217633962631226 0.035684313625097275
0.5691424012184143 0.8225809335708618 0.16521847248077393
0.5688350796699524 0.8233984708786011 0.2947526276111603
0.5685278177261353 0.8242159485816956 0.42428678274154663
0.5682205557823181 0.8250334858894348 0.5538209080696106
0.567913293838501 0.8258510231971741 0.6833550930023193
0.5676060318946838 0.8266685009002686 0.8128892183303833
0.5672987103462219 0.8274860382080078 0.942423403263092
0.3949626684188843 0.9134315252304077 -1.0016285181045532
0.39465540647506714 0.9142490029335022 -0.8720943331718445
0.3943481147289276 0.9150665402412415 -0.7425601482391357
0.3940408527851105 0.9158840775489807 -0.6130260229110718
0.39373359084129333 0.9167015552520752 -0.4834918677806854
0.3934262990951538 0.9175190925598145 -0.3539577126502991
0.39311903715133667 0.9183366298675537 -0.22442354261875153
0.39281177520751953 0.919154167175293 -0.09488939493894577
0.39250448346138 0.9199716448783875 0.03464476019144058
0.39219722151756287 0.9207891821861267 0.16417890787124634
0.39188992977142334 0.921606719493866 0.2937130630016327
0.3915826678276062 0.9224241971969604 0.42324721813201904
0.39127540588378906 0.9232417345046997 0.5527814030647278
0.39096811413764954 0.924059271812439 0.6823155283927917
0.3906608521938324 0.9248767495155334 0.8118496537208557
0.39035359025001526 0.9256942868232727 0.9413838386535645
0.20186954736709595 0.9740109443664551 -1.0024688243865967
0.20156227052211761 0.9748284816741943 -0.8729346990585327
0.20125499367713928 0.9756459593772888 -0.743400514125824
0.20094773173332214 0.9764634966850281 -0.61386638879776
0.2006404548883438 0.9772810339927673 -0.48433223366737366
0.20033317804336548 0.9780985116958618 -0.3547980785369873
0.20002590119838715 0.9789160490036011 -0.22526392340660095
0.1997186243534088 0.9797335863113403 -0.0957297682762146
0.19941136240959167 0.9805510640144348 0.03380438685417175
0.19910408556461334 0.9813686013221741 0.1633385419845581
0.198796808719635 0.9821861386299133 0.29287269711494446
0.19848953187465668 0.9830036759376526 0.4224068522453308
0.19818226993083954 0.9838211536407471 0.5519409775733948
0.1978749930858612 0.9846386909484863 0.6814751625061035
0.19756771624088287 0.9854562282562256 0.8110092878341675
0.19726043939590454 0.9862737059593201 0.9405434727668762
0.0005336999893188477 0.9944814443588257 -1.0030755996704102
0.00022642672411166131 0.9952989816665649 -0.8735414743423462
-8.084654109552503e-05 0.9961164593696594 -0.7440073490142822
-0.00038811980630271137 0.9969339966773987 -0.6144731640815735
-0.0006953930715098977 0.9977515339851379 -0.48493900895118713
-0.0010026663076132536 0.9985690116882324 -0.3554048538208008
-0.0013099395437166095 0.9993865489959717 -0.22587071359157562
-0.0016172128962352872 1.000204086303711 -0.09633655846118927
-0.001924486132338643 1.0010216236114502 0.033197592943906784
-0.002231759484857321 1.0018391609191895 0.16273175179958344
-0.002539032604545355 1.0026565790176392 0.2922658920288086
-0.0028463059570640326 1.0034741163253784 0.42180004715919495
-0.0031535790767520666 1.0042916536331177 0.5513342022895813
-0.0034608524292707443 1.005109190940857 0.68086838722229
-0.003768125781789422 1.0059267282485962 0.810402512550354
-0.0040753991343081 1.0067442655563354 0.9399366974830627
