ply
format ascii 1.0
element vertex 512
property float x
property float y
property float z
end_header
-0.0026335716247558594 1.0019207000732422 -0.9606500864028931
-0.0024161057081073523 1.0019177198410034 -0.8328694701194763
-0.002198639791458845 1.0019147396087646 -0.7050888538360596
-0.001981173874810338 1.0019117593765259 -0.5773082971572876
-0.001763707958161831 1.001908779144287 -0.44952768087387085
-0.0015462420415133238 1.0019057989120483 -0.3217470645904541
-0.0013287761248648167 1.0019029378890991 -0.19396647810935974
-0.0011113102082163095 1.0018999576568604 -0.06618586927652359
-0.0008938442333601415 1.0018969774246216 0.061594732105731964
-0.0006763783167116344 1.0018939971923828 0.18937532603740692
-0.0004589124000631273 1.001891016960144 0.3171559274196625
-0.00024144646886270493 1.0018880367279053 0.4449365437030792
-2.398053948127199e-05 1.0018850564956665 0.5727171301841736
0.00019348537898622453 1.0018820762634277 0.7004977464675903
0.00041095129563473165 1.001879096031189 0.8282783627510071
0.0006284172413870692 1.0018761157989502 0.956058919429779
-0.20405755937099457 0.9814378619194031 -0.960307776927948
-0.20384010672569275 0.9814348816871643 -0.8325271606445312
-0.20362263917922974 0.9814319014549255 -0.7047465443611145
-0.20340517163276672 0.9814289212226868 -0.5769659876823425
-0.2031877040863037 0.981425940990448 -0.4491853415966034
-0.2029702365398407 0.981423020362854 -0.32140475511550903
-0.20275276899337769 0.9814200401306152 -0.19362415373325348
-0.20253530144691467 0.9814170598983765 -0.06584355235099792
-0.20231783390045166 0.9814140796661377 0.06193705275654793
-0.20210036635398865 0.9814110994338989 0.18971765041351318
-0.20188291370868683 0.9814081788063049 0.31749826669692993
-0.20166544616222382 0.9814051985740662 0.4452788531780243
-0.2014479786157608 0.9814022183418274 0.5730594396591187
-0.2012305110692978 0.9813992381095886 0.7008400559425354
-0.20101304352283478 0.9813962578773499 0.8286206722259521
-0.20079557597637177 0.9813933372497559 0.9564012885093689
-0.397235244512558 0.9208278656005859 -0.9599804282188416
-0.39701777696609497 0.9208248853683472 -0.8321998119354248
-0.39680030941963196 0.9208219051361084 -0.7044191956520081
-0.39658284187316895 0.9208189845085144 -0.5766385793685913
-0.39636537432670593 0.9208160042762756 -0.44885799288749695
-0.3961479067802429 0.9208130240440369 -0.3210774064064026
-0.3959304392337799 0.9208100438117981 -0.19329679012298584
-0.3957129716873169 0.9208070635795593 -0.06551619619131088
-0.3954955041408539 0.9208041429519653 0.06226440891623497
-0.39527803659439087 0.9208011627197266 0.19004501402378082
-0.39506056904792786 0.9207981824874878 0.3178256154060364
-0.39484310150146484 0.920795202255249 0.44560620188713074
-0.39462563395500183 0.9207922220230103 0.5733867883682251
-0.3944081962108612 0.9207892417907715 0.7011674046516418
-0.3941907286643982 0.9207863211631775 0.8289480209350586
-0.3939732611179352 0.9207833409309387 0.9567286372184753
-0.5742578506469727 0.8225721120834351 -0.9596814513206482
-0.574040412902832 0.8225691914558411 -0.8319008350372314
-0.5738229155540466 0.8225662112236023 -0.7041202187538147
-0.573605477809906 0.8225632309913635 -0.576339602470398
-0.5733879804611206 0.8225602507591248 -0.4485590159893036
-0.57317054271698 0.822557270526886 -0.32077839970588684
-0.5729531049728394 0.822554349899292 -0.19299781322479248
-0.572735607624054 0.8225513696670532 -0.06521721184253693
-0.5725181698799133 0.8225483894348145 0.06256339699029922
-0.5723006725311279 0.8225454092025757 0.19034399092197418
-0.5720832347869873 0.8225424289703369 0.31812459230422974
-0.5718657374382019 0.8225395083427429 0.4459052085876465
-0.5716482996940613 0.8225365281105042 0.5736858248710632
-0.5714308023452759 0.8225335478782654 0.7014663815498352
-0.5712133646011353 0.8225305676460266 0.829246997833252
-0.5709958672523499 0.8225275874137878 0.9570276141166687
-0.7278781533241272 0.6906932592391968 -0.9594230651855469
-0.7276606559753418 0.690690279006958 -0.8316424489021301
-0.7274432182312012 0.6906872987747192 -0.7038618326187134
-0.7272257208824158 0.6906843781471252 -0.5760812163352966
-0.7270082831382751 0.6906813979148865 -0.44830062985420227
-0.7267907857894897 0.6906784176826477 -0.3205200433731079
-0.7265733480453491 0.6906754374504089 -0.19273942708969116
-0.7263558506965637 0.6906724572181702 -0.0649588331580162
-0.7261384129524231 0.6906695365905762 0.06282176822423935
-0.7259209752082825 0.6906665563583374 0.1906023770570755
-0.7257034778594971 0.6906635761260986 0.31838297843933105
-0.7254860401153564 0.6906605958938599 0.4461635649204254
-0.725268542766571 0.6906576156616211 0.5739441514015198
-0.7250511050224304 0.6906546950340271 0.7017247676849365
-0.724833607673645 0.6906517148017883 0.8295053839683533
-0.7246161699295044 0.6906487345695496 0.95728600025177
-0.8518068194389343 0.5305903553962708 -0.9592158794403076
-0.8515893220901489 0.5305874347686768 -0.8314352631568909
-0.8513718843460083 0.530584454536438 -0.7036546468734741
-0.8511543869972229 0.5305814743041992 -0.5758740305900574
-0.8509369492530823 0.5305784940719604 -0.448093444108963
-0.8507195115089417 0.5305755138397217 -0.32031285762786865
-0.8505020141601562 0.5305725932121277 -0.1925322413444519
-0.8502845764160156 0.5305696129798889 -0.06475163996219635
-0.8500670790672302 0.5305666327476501 0.0630289614200592
-0.8498496413230896 0.5305636525154114 0.19080956280231476
-0.8496321439743042 0.5305606722831726 0.3185901641845703
-0.8494147062301636 0.5305577516555786 0.44637078046798706
-0.8491972088813782 0.5305547714233398 0.5741513967514038
-0.8489797711372375 0.5305517911911011 0.7019319534301758
-0.8487622737884521 0.5305488109588623 0.8297125697135925
-0.8485448360443115 0.5305458307266235 0.9574931859970093
-0.940970242023468 0.3488181233406067 -0.9590683579444885
-0.9407527446746826 0.3488151729106903 -0.8312877416610718
-0.940535306930542 0.34881219267845154 -0.703507125377655
-0.9403178095817566 0.34880921244621277 -0.5757265090942383
-0.940100371837616 0.3488062620162964 -0.4479459226131439
-0.9398828744888306 0.3488032817840576 -0.32016533613204956
-0.9396654367446899 0.34880033135414124 -0.1923847198486328
-0.9394479393959045 0.34879735112190247 -0.06460411846637726
-0.9392305016517639 0.3487943708896637 0.0631764829158783
-0.9390130639076233 0.3487914204597473 0.19095708429813385
-0.9387955665588379 0.34878844022750854 0.3187376856803894
-0.9385781288146973 0.3487854599952698 0.44651830196380615
-0.9383606314659119 0.3487825095653534 0.5742989182472229
-0.9381431937217712 0.3487795293331146 0.7020794749259949
-0.9379256963729858 0.34877657890319824 0.8298600912094116
-0.9377082586288452 0.3487735986709595 0.9576407074928284
-0.991718053817749 0.15281827747821808 -0.9589865207672119
-0.9915005564689636 0.1528152972459793 -0.8312059044837952
-0.991283118724823 0.15281233191490173 -0.7034252882003784
-0.9910656213760376 0.15280936658382416 -0.5756447315216064
-0.990848183631897 0.15280640125274658 -0.4478641152381897
-0.9906306862831116 0.1528034210205078 -0.32008349895477295
-0.990413248538971 0.15280045568943024 -0.1923029124736786
-0.9901957511901855 0.15279749035835266 -0.06452230364084244
-0.9899783134460449 0.15279452502727509 0.06325829774141312
-0.9897608160972595 0.1527915596961975 0.19103890657424927
-0.9895433783531189 0.15278857946395874 0.31881949305534363
-0.9893258810043335 0.15278561413288116 0.4466001093387604
-0.9891084432601929 0.1527826488018036 0.5743806958198547
-0.9888910055160522 0.152779683470726 0.7021613121032715
-0.9886735081672668 0.15277671813964844 0.8299419283866882
-0.9884560704231262 0.15277373790740967 0.9577224850654602
-1.0019725561141968 -0.04938492923974991 -0.95897376537323
-1.0017551183700562 -0.04938789829611778 -0.8311931490898132
-1.0015376806259155 -0.04939086735248566 -0.7034125328063965
-1.001320242881775 -0.04939383268356323 -0.5756319761276245
-1.0011026859283447 -0.04939680173993111 -0.44785135984420776
-1.000885248184204 -0.04939977079629898 -0.320070743560791
-1.0006678104400635 -0.049402739852666855 -0.19229015707969666
-1.0004503726959229 -0.04940570890903473 -0.0645095482468605
-1.0002329349517822 -0.0494086779654026 0.06327105313539505
-1.000015377998352 -0.04941164702177048 0.19105164706707
-0.9997979402542114 -0.04941461235284805 0.31883224844932556
-0.9995805025100708 -0.04941758140921593 0.4466128647327423
-0.9993630051612854 -0.0494205504655838 0.5743934512138367
-0.9991455674171448 -0.049423519521951675 0.7021740674972534
-0.9989280700683594 -0.04942648857831955 0.8299546837806702
-0.9987106323242188 -0.049429457634687424 0.9577352404594421
-0.9713141322135925 -0.24951325356960297 -0.9590305685997009
-0.9710966348648071 -0.24951621890068054 -0.831250011920929
-0.9708791971206665 -0.24951918423175812 -0.7034693956375122
-0.9706616997718811 -0.2495221495628357 -0.5756887793540955
-0.9704442620277405 -0.24952511489391327 -0.4479081928730011
-0.9702267646789551 -0.24952809512615204 -0.32012757658958435
-0.9700093269348145 -0.24953106045722961 -0.1923469752073288
-0.969791829586029 -0.2495340257883072 -0.06456637382507324
-0.9695743918418884 -0.24953699111938477 0.06321422755718231
-0.9693569540977478 -0.24953997135162354 0.19099482893943787
-0.9691394567489624 -0.2495429366827011 0.3187754154205322
-0.9689220190048218 -0.2495459020137787 0.446556031703949
-0.9687045216560364 -0.24954886734485626 0.5743366479873657
-0.9684870839118958 -0.24955183267593384 0.7021172642707825
-0.9682695865631104 -0.2495548129081726 0.8298978209495544
-0.9680521488189697 -0.24955777823925018 0.9576784372329712
-0.9009977579116821 -0.4393734037876129 -0.9591546654701233
-0.9007802605628967 -0.4393763840198517 -0.8313740491867065
-0.9005628228187561 -0.43937933444976807 -0.7035934925079346
-0.9003453254699707 -0.43938231468200684 -0.5758128762245178
-0.9001278877258301 -0.4393852949142456 -0.4480322599411011
-0.8999103903770447 -0.439388245344162 -0.3202516734600067
-0.899692952632904 -0.43939122557640076 -0.19247105717658997
-0.8994754552841187 -0.43939417600631714 -0.06469045579433441
-0.899258017539978 -0.4393971562385559 0.06309014558792114
-0.8990405201911926 -0.4394001364707947 0.1908707469701767
-0.898823082447052 -0.43940308690071106 0.31865134835243225
-0.8986055850982666 -0.43940606713294983 0.446431964635849
-0.898388147354126 -0.4394090473651886 0.5742125511169434
-0.8981707096099854 -0.439411997795105 0.7019931674003601
-0.8979532122612 -0.43941497802734375 0.8297737836837769
-0.8977357745170593 -0.43941792845726013 0.9575543403625488
-0.7939022183418274 -0.611192524433136 -0.9593409299850464
-0.7936847805976868 -0.6111955046653748 -0.8315603137016296
-0.7934672832489014 -0.6111984848976135 -0.7037796974182129
-0.7932498455047607 -0.6112014055252075 -0.5759991407394409
-0.7930323481559753 -0.6112043857574463 -0.44821852445602417
-0.7928149104118347 -0.6112073659896851 -0.3204379081726074
-0.7925974130630493 -0.6112103462219238 -0.19265730679035187
-0.7923799753189087 -0.6112133264541626 -0.06487671285867691
-0.7921624779701233 -0.6112162470817566 0.06290388852357864
-0.7919450402259827 -0.6112192273139954 0.1906844973564148
-0.7917275428771973 -0.6112222075462341 0.31846508383750916
-0.7915101051330566 -0.6112251877784729 0.4462457001209259
-0.7912926077842712 -0.6112281680107117 0.5740262866020203
-0.7910751700401306 -0.6112310886383057 0.701806902885437
-0.7908576726913452 -0.6112340688705444 0.8295875191688538
-0.7906402349472046 -0.6112370491027832 0.9573681354522705
-0.6544120907783508 -0.7579362988471985 -0.959581732749939
-0.6541945934295654 -0.7579392194747925 -0.8318011164665222
-0.6539771556854248 -0.7579421997070312 -0.7040205001831055
-0.6537596583366394 -0.75794517993927 -0.5762399435043335
-0.6535422205924988 -0.7579481601715088 -0.44845932722091675
-0.6533247232437134 -0.7579511404037476 -0.3206787109375
-0.6531072854995728 -0.7579540610313416 -0.19289810955524445
-0.6528897881507874 -0.7579570412635803 -0.06511751562356949
-0.6526723504066467 -0.7579600214958191 0.06266308575868607
-0.6524548530578613 -0.7579630017280579 0.19044369459152222
-0.6522374153137207 -0.7579659819602966 0.3182242810726166
-0.6520199179649353 -0.7579689025878906 0.4460048973560333
-0.6518024802207947 -0.7579718828201294 0.5737854838371277
-0.651585042476654 -0.7579748630523682 0.7015661001205444
-0.6513675451278687 -0.7579778432846069 0.8293467164039612
-0.651150107383728 -0.7579808235168457 0.9571272730827332
-0.48823803663253784 -0.8735969662666321 -0.9598672389984131
-0.48802056908607483 -0.8735999464988708 -0.8320866227149963
-0.4878031015396118 -0.8736029267311096 -0.7043060064315796
-0.4875856339931488 -0.8736059069633484 -0.5765253901481628
-0.4873681664466858 -0.8736088275909424 -0.4487448036670685
-0.4871506989002228 -0.8736118078231812 -0.3209642171859741
-0.48693323135375977 -0.8736147880554199 -0.19318361580371857
-0.48671576380729675 -0.8736177682876587 -0.06540300697088242
-0.48649829626083374 -0.8736207485198975 0.06237759441137314
-0.4862808287143707 -0.8736236691474915 0.1901582032442093
-0.4860633909702301 -0.8736266493797302 0.31793880462646484
-0.4858459234237671 -0.873629629611969 0.4457193911075592
-0.4856284558773041 -0.8736326098442078 0.5734999775886536
-0.48541098833084106 -0.8736355900764465 0.7012805938720703
-0.48519352078437805 -0.8736385703086853 0.8290612101554871
-0.48497605323791504 -0.8736414909362793 0.9568418264389038
-0.3021833002567291 -0.953439474105835 -0.960185706615448
-0.3019658327102661 -0.9534424543380737 -0.8324050903320312
-0.3017483651638031 -0.9534453749656677 -0.7046245336532593
-0.3015308976173401 -0.9534483551979065 -0.5768439173698425
-0.3013134300708771 -0.9534513354301453 -0.4490633010864258
-0.30109596252441406 -0.953454315662384 -0.3212827146053314
-0.30087849497795105 -0.9534572958946228 -0.19350209832191467
-0.30066102743148804 -0.9534602761268616 -0.06572150439023972
-0.300443559885025 -0.9534631967544556 0.06205910071730614
-0.300226092338562 -0.9534661769866943 0.189839705824852
-0.300008624792099 -0.9534691572189331 0.31762030720710754
-0.299791157245636 -0.9534721374511719 0.4454008936882019
-0.299573689699173 -0.9534751176834106 0.5731815099716187
-0.29935625195503235 -0.9534780383110046 0.7009621262550354
-0.29913878440856934 -0.9534810185432434 0.8287426829338074
-0.2989213168621063 -0.9534839987754822 0.9565232992172241
-0.10386495292186737 -0.9941949844360352 -0.9605242013931274
-0.10364748537540436 -0.9941979646682739 -0.8327435851097107
-0.10343002527952194 -0.9942008852958679 -0.704962968826294
-0.10321255773305893 -0.9942038655281067 -0.5771823525428772
-0.10299509018659592 -0.9942068457603455 -0.44940176606178284
-0.1027776226401329 -0.9942098259925842 -0.3216211795806885
-0.10256016254425049 -0.994212806224823 -0.19384056329727173
-0.10234269499778748 -0.994215726852417 -0.06605996191501617
-0.10212522745132446 -0.9942187070846558 0.06172063946723938
-0.10190775990486145 -0.9942216873168945 0.18950124084949493
-0.10169029235839844 -0.9942246675491333 0.3172818422317505
-0.10147283226251602 -0.9942276477813721 0.44506245851516724
-0.10125536471605301 -0.9942305684089661 0.572843074798584
-0.10103789716959 -0.9942335486412048 0.700623631477356
-0.10082042962312698 -0.9942365288734436 0.8284042477607727
-0.10060296207666397 -0.9942395091056824 0.9561848640441895
0.09859780967235565 -0.9941949844360352 -0.9608687162399292
0.09881527721881866 -0.9941979050636292 -0.8330881595611572
0.09903274476528168 -0.9942008852958679 -0.7053075432777405
0.09925021231174469 -0.9942038655281067 -0.5775269269943237
0.0994676724076271 -0.9942068457603455 -0.44974634051322937
0.09968513995409012 -0.9942098259925842 -0.3219657242298126
0.09990260750055313 -0.994212806224823 -0.19418512284755707
0.10012007504701614 -0.994215726852417 -0.06640452891588211
0.10033753514289856 -0.9942187070846558 0.06137607619166374
0.10055500268936157 -0.9942216873168945 0.1891566812992096
0.10077247023582458 -0.9942246675491333 0.31693726778030396
0.1009899377822876 -0.9942276477813721 0.4447178840637207
0.10120740532875061 -0.9942305684089661 0.5724985003471375
0.10142486542463303 -0.9942335486412048 0.7002790570259094
0.10164233297109604 -0.9942365288734436 0.8280596733093262
0.10185980051755905 -0.9942395091056824 0.9558402895927429
0.2969161570072174 -0.9534394145011902 -0.9612053036689758
0.2971336245536804 -0.953442394733429 -0.8334246873855591
0.29735109210014343 -0.9534453749656677 -0.7056441307067871
0.29756855964660645 -0.9534483551979065 -0.5778635144233704
0.29778602719306946 -0.9534513354301453 -0.4500828981399536
0.29800349473953247 -0.953454315662384 -0.32230228185653687
0.2982209622859955 -0.953457236289978 -0.1945216953754425
0.2984384000301361 -0.9534602165222168 -0.06674109399318695
0.2986558675765991 -0.9534631967544556 0.0610395111143589
0.29887333512306213 -0.9534661769866943 0.18882010877132416
0.29909080266952515 -0.9534691572189331 0.3166007101535797
0.29930827021598816 -0.9534720778465271 0.44438132643699646
0.29952573776245117 -0.9534750580787659 0.5721619129180908
0.2997432053089142 -0.9534780383110046 0.6999425292015076
0.2999606728553772 -0.9534810185432434 0.8277231454849243
0.3001781404018402 -0.9534839987754822 0.9555037021636963
0.4829708933830261 -0.8735969662666321 -0.9615200757980347
0.48318836092948914 -0.8735998868942261 -0.8337395191192627
0.48340582847595215 -0.8736028671264648 -0.705958902835846
0.48362329602241516 -0.8736058473587036 -0.5781782865524292
0.4838407635688782 -0.8736088275909424 -0.45039767026901245
0.4840582311153412 -0.8736118078231812 -0.3226170837879181
0.4842756986618042 -0.8736147284507751 -0.19483648240566254
0.4844931662082672 -0.8736177086830139 -0.06705588102340698
0.4847106337547302 -0.8736206889152527 0.06072472408413887
0.48492807149887085 -0.8736236691474915 0.18850532174110413
0.48514553904533386 -0.8736266493797302 0.3162859380245209
0.4853630065917969 -0.8736295700073242 0.44406652450561523
0.4855804741382599 -0.873632550239563 0.571847140789032
0.4857979416847229 -0.8736355304718018 0.6996277570724487
0.4860154092311859 -0.8736385107040405 0.8274083137512207
0.4862328767776489 -0.8736414909362793 0.9551889300346375
0.6491449475288391 -0.7579362392425537 -0.961800217628479
0.6493623852729797 -0.7579392194747925 -0.8340196013450623
0.6495798826217651 -0.7579421401023865 -0.7062389850616455
0.6497973203659058 -0.7579451203346252 -0.5784584283828735
0.6500148177146912 -0.757948100566864 -0.4506778120994568
0.6502322554588318 -0.7579510807991028 -0.32289719581604004
0.6504497528076172 -0.7579540610313416 -0.19511659443378448
0.6506671905517578 -0.7579569816589355 -0.06733600050210953
0.6508846282958984 -0.7579599618911743 0.060444604605436325
0.6511021256446838 -0.7579629421234131 0.18822520971298218
0.6513195633888245 -0.7579659223556519 0.31600579619407654
0.6515370607376099 -0.7579689025878906 0.4437864124774933
0.6517544984817505 -0.7579718232154846 0.5715669989585876
0.6519719958305359 -0.7579748034477234 0.6993476152420044
0.6521894335746765 -0.7579777836799622 0.8271282315254211
0.6524069309234619 -0.7579807639122009 0.9549088478088379
0.7886350750923157 -0.6111924648284912 -0.9620342254638672
0.7888525724411011 -0.61119544506073 -0.8342536091804504
0.7890700101852417 -0.611198365688324 -0.7064729928970337
0.7892874479293823 -0.6112013459205627 -0.5786923766136169
0.7895049452781677 -0.6112043261528015 -0.4509117901325226
0.7897223830223083 -0.6112073063850403 -0.32313117384910583
0.7899398803710938 -0.611210286617279 -0.19535058736801147
0.7901573181152344 -0.611213207244873 -0.06756998598575592
0.7903748154640198 -0.6112161874771118 0.06021061912178993
0.7905922532081604 -0.6112191677093506 0.1879912167787552
0.7908097505569458 -0.6112221479415894 0.31577181816101074
0.7910271883010864 -0.6112251281738281 0.4435524344444275
0.7912446856498718 -0.6112280488014221 0.5713330507278442
0.7914621233940125 -0.6112310290336609 0.6991136074066162
0.7916796207427979 -0.6112340092658997 0.826894223690033
0.7918970584869385 -0.6112369894981384 0.9546748399734497
0.8957306146621704 -0.43937334418296814 -0.9622124433517456
0.895948052406311 -0.4393762946128845 -0.8344318866729736
0.8961655497550964 -0.4393792748451233 -0.7066512703895569
0.8963829874992371 -0.43938225507736206 -0.5788706541061401
0.8966004848480225 -0.43938520550727844 -0.4510900676250458
0.8968179225921631 -0.4393881857395172 -0.32330945134162903
0.8970353603363037 -0.4393911361694336 -0.19552884995937347
0.8972528576850891 -0.43939411640167236 -0.06774825602769852
0.8974702954292297 -0.43939709663391113 0.060032349079847336
0.8976877927780151 -0.4394000470638275 0.1878129541873932
0.8979052305221558 -0.4394030272960663 0.31559354066848755
0.8981227278709412 -0.43940600752830505 0.4433741569519043
0.8983401656150818 -0.43940895795822144 0.571154773235321
0.8985576629638672 -0.4394119381904602 0.698935329914093
0.8987751007080078 -0.4394148886203766 0.8267159461975098
0.8989925980567932 -0.43941786885261536 0.9544965624809265
0.9660469889640808 -0.2495131641626358 -0.9623277187347412
0.9662644267082214 -0.24951614439487457 -0.8345471024513245
0.9664819240570068 -0.24951910972595215 -0.7067665457725525
0.9666993618011475 -0.24952207505702972 -0.5789859294891357
0.9669168591499329 -0.2495250403881073 -0.451205313205719
0.9671342968940735 -0.24952802062034607 -0.32342472672462463
0.9673517942428589 -0.24953098595142365 -0.19564411044120789
0.9675692319869995 -0.24953395128250122 -0.06786350905895233
0.9677867293357849 -0.2495369166135788 0.059917088598012924
0.9680041670799255 -0.24953988194465637 0.18769769370555878
0.9682216644287109 -0.24954286217689514 0.31547829508781433
0.9684391021728516 -0.24954582750797272 0.4432588815689087
0.9686565399169922 -0.2495487928390503 0.5710394978523254
0.9688740372657776 -0.24955175817012787 0.6988201141357422
0.9690914750099182 -0.24955473840236664 0.8266007304191589
0.9693089723587036 -0.2495577037334442 0.9543812870979309
0.9967054724693298 -0.04938485100865364 -0.962375283241272
0.9969229102134705 -0.049387816339731216 -0.8345946669578552
0.9971404075622559 -0.04939078539609909 -0.7068140506744385
0.9973578453063965 -0.049393754452466965 -0.5790334343910217
0.9975753426551819 -0.04939672350883484 -0.45125284790992737
0.9977927803993225 -0.04939969256520271 -0.3234722316265106
0.9980102777481079 -0.04940266162157059 -0.19569164514541626
0.9982277154922485 -0.04940563067793846 -0.06791103631258011
0.9984452128410339 -0.04940859600901604 0.05986956134438515
0.9986626505851746 -0.04941156506538391 0.1876501590013504
0.99888014793396 -0.049414534121751785 0.31543076038360596
0.9990975856781006 -0.04941750317811966 0.4432113766670227
0.999315083026886 -0.049420472234487534 0.5709919929504395
0.9995325207710266 -0.04942344129085541 0.6987725496292114
0.9997499585151672 -0.04942641034722328 0.8265531659126282
0.9999674558639526 -0.049429379403591156 0.9543337821960449
0.9864509105682373 0.15281835198402405 -0.9623531103134155
0.9866683483123779 0.15281538665294647 -0.8345724940299988
0.9868858456611633 0.1528124064207077 -0.706791877746582
0.987103283405304 0.15280944108963013 -0.5790113210678101
0.9873207807540894 0.15280647575855255 -0.4512307047843933
0.98753821849823 0.15280351042747498 -0.32345008850097656
0.9877557158470154 0.1528005450963974 -0.195669487118721
0.987973153591156 0.15279756486415863 -0.06788889318704605
0.9881905913352966 0.15279459953308105 0.0598917119204998
0.988408088684082 0.15279163420200348 0.18767231702804565
0.9886255264282227 0.1527886688709259 0.31545290350914
0.9888430237770081 0.15278568863868713 0.44323351979255676
0.9890604615211487 0.15278272330760956 0.5710141062736511
0.9892779588699341 0.15277975797653198 0.6987947225570679
0.9894953966140747 0.1527767926454544 0.8265753388404846
0.9897128939628601 0.15277382731437683 0.9543559551239014
0.9357030987739563 0.34881821274757385 -0.9622622132301331
0.9359205365180969 0.3488152325153351 -0.8344815969467163
0.9361380338668823 0.3488122522830963 -0.7067009806632996
0.936355471611023 0.34880930185317993 -0.5789203643798828
0.9365729689598083 0.34880632162094116 -0.45113977789878845
0.936790406703949 0.3488033711910248 -0.3233591616153717
0.9370079040527344 0.348800390958786 -0.19557857513427734
0.937225341796875 0.34879741072654724 -0.06779797375202179
0.9374428391456604 0.34879446029663086 0.05998263135552406
0.937660276889801 0.3487914800643921 0.18776322901248932
0.9378777742385864 0.3487885296344757 0.3155438303947449
0.938095211982727 0.34878554940223694 0.4433244466781616
0.9383126497268677 0.34878256916999817 0.5711050629615784
0.9385301470756531 0.3487796187400818 0.6988856196403503
0.9387475848197937 0.348776638507843 0.8266662359237671
0.9389650821685791 0.34877368807792664 0.9544468522071838
0.8465396761894226 0.5305904746055603 -0.9621062278747559
0.8467571139335632 0.5305874943733215 -0.8343256115913391
0.8469746112823486 0.5305845141410828 -0.7065449953079224
0.8471920490264893 0.530581533908844 -0.5787644386291504
0.8474095463752747 0.5305785536766052 -0.45098382234573364
0.8476269841194153 0.5305756330490112 -0.3232032060623169
0.8478444814682007 0.5305726528167725 -0.19542260468006134
0.8480619192123413 0.5305696725845337 -0.06764200329780579
0.8482794165611267 0.5305666923522949 0.06013859808444977
0.8484968543052673 0.5305637121200562 0.18791919946670532
0.8487143516540527 0.5305607914924622 0.31569981575012207
0.8489317893981934 0.5305578112602234 0.44348040223121643
0.8491492867469788 0.5305548310279846 0.5712609887123108
0.8493667244911194 0.5305518507957458 0.6990416049957275
0.84958416223526 0.5305488705635071 0.8268222212791443
0.8498016595840454 0.5305459499359131 0.954602837562561
0.7226110100746155 0.6906933188438416 -0.9618915915489197
0.7228284478187561 0.6906903386116028 -0.8341109752655029
0.7230459451675415 0.690687358379364 -0.7063303589820862
0.7232633829116821 0.69068443775177 -0.5785498023033142
0.7234808802604675 0.6906814575195312 -0.45076918601989746
0.7236983180046082 0.6906784772872925 -0.3229885697364807
0.7239158153533936 0.6906754970550537 -0.19520796835422516
0.7241332530975342 0.6906725168228149 -0.0674273744225502
0.7243507504463196 0.690669596195221 0.06035322695970535
0.7245681881904602 0.6906666159629822 0.1881338357925415
0.7247856855392456 0.6906636357307434 0.31591442227363586
0.7250031232833862 0.6906606554985046 0.4436950385570526
0.7252205610275269 0.6906576752662659 0.571475625038147
0.7254380583763123 0.6906547546386719 0.6992562413215637
0.7256554961204529 0.6906517744064331 0.8270368576049805
0.7258729934692383 0.6906487941741943 0.9548174142837524
0.5689907073974609 0.8225721716880798 -0.9616270661354065
0.5692082047462463 0.8225691914558411 -0.8338465094566345
0.569425642490387 0.8225662708282471 -0.7060658931732178
0.5696431398391724 0.8225632905960083 -0.578285276889801
0.569860577583313 0.8225603103637695 -0.4505046606063843
0.5700780749320984 0.8225573301315308 -0.3227240741252899
0.570295512676239 0.822554349899292 -0.19494347274303436
0.5705130100250244 0.822551429271698 -0.06716287136077881
0.570730447769165 0.8225484490394592 0.060617733746767044
0.5709479451179504 0.8225454688072205 0.1883983314037323
0.5711653828620911 0.8225424885749817 0.31617894768714905
0.5713828802108765 0.8225395083427429 0.4439595341682434
0.5716003179550171 0.8225365877151489 0.5717401504516602
0.5718178153038025 0.8225336074829102 0.6995207667350769
0.5720352530479431 0.8225306272506714 0.8273013234138489
0.5722526907920837 0.8225276470184326 0.9550819396972656
0.39196810126304626 0.9208278656005859 -0.9613235592842102
0.3921855688095093 0.9208249449729919 -0.8335429430007935
0.3924030363559723 0.9208219647407532 -0.7057623267173767
0.3926205039024353 0.9208189845085144 -0.57798171043396
0.3928379714488983 0.9208160042762756 -0.4502011239528656
0.39305543899536133 0.9208130240440369 -0.32242050766944885
0.39327287673950195 0.9208101034164429 -0.1946399211883545
0.39349034428596497 0.9208071231842041 -0.06685931980609894
0.393707811832428 0.9208041429519653 0.060921285301446915
0.393925279378891 0.9208011627197266 0.18870188295841217
0.394142746925354 0.9207981824874878 0.3164824843406677
0.394360214471817 0.9207952618598938 0.4442631006240845
0.39457768201828003 0.920792281627655 0.5720437169075012
0.39479514956474304 0.9207893013954163 0.6998242735862732
0.39501261711120605 0.9207863211631775 0.8276048898696899
0.39523008465766907 0.9207833409309387 0.9553855061531067
0.19879041612148285 0.9814378619194031 -0.9609933495521545
0.19900788366794586 0.9814348816871643 -0.8332127332687378
0.19922535121440887 0.9814319014549255 -0.7054321765899658
0.1994428187608719 0.9814289808273315 -0.5776515603065491
0.1996602863073349 0.9814260005950928 -0.4498709440231323
0.1998777538537979 0.981423020362854 -0.32209035754203796
0.20009522140026093 0.9814200401306152 -0.19430974125862122
0.20031268894672394 0.9814170598983765 -0.06652914732694626
0.20053015649318695 0.9814141392707825 0.061251457780599594
0.20074760913848877 0.9814111590385437 0.18903206288814545
0.20096507668495178 0.9814081788063049 0.316812664270401
0.2011825442314148 0.9814051985740662 0.44459325075149536
0.2014000117778778 0.9814022183418274 0.5723738670349121
0.20161747932434082 0.9813992977142334 0.7001544833183289
0.20183494687080383 0.9813963174819946 0.8279350399971008
0.20205241441726685 0.9813933372497559 0.9557156562805176
-0.0026335716247558594 1.0019207000732422 -0.9606500864028931
-0.0024161057081073523 1.0019177198410034 -0.8328694701194763
-0.002198639791458845 1.0019147396087646 -0.7050888538360596
-0.001981173874810338 1.0019117593765259 -0.5773082971572876
-0.001763707958161831 1.001908779144287 -0.44952768087387085
-0.0015462420415133238 1.0019057989120483 -0.3217470645904541
-0.0013287761248648167 1.0019029378890991 -0.19396647810935974
-0.0011113102082163095 1.0018999576568604 -0.06618586927652359
-0.0008938442333601415 1.0018969774246216 0.061594732105731964
-0.0006763783167116344 1.0018939971923828 0.18937532603740692
-0.0004589124000631273 1.001891016960144 0.3171559274196625
-0.00024144646886270493 1.0018880367279053 0.4449365437030792
-2.398053948127199e-05 1.0018850564956665 0.5727171301841736
0.00019348537898622453 1.0018820762634277 0.7004977464675903
0.00041095129563473165 1.001879096031189 0.8282783627510071
0.0006284172413870692 1.0018761157989502 0.956058919429779
