ply
format ascii 1.0
element vertex 512
property float x
property float y
property float z
end_header
-1.4811657667160034 -1.6396678686141968 0.04937541484832764
-1.30146324634552 -1.6396678686141968 0.041979189962148666
-1.1217608451843262 -1.6396678686141968 0.034582965075969696
-0.9420583248138428 -1.6396678686141968 0.027186738327145576
-0.7623558044433594 -1.6396678686141968 0.019790511578321457
-0.5826533436775208 -1.6396678686141968 0.012394286692142487
-0.40295082330703735 -1.6396678686141968 0.004998060874640942
-0.22324834764003754 -1.6396678686141968 -0.0023981647100299597
-0.043545860797166824 -1.6396678686141968 -0.009794390760362148
0.13615663349628448 -1.6396678686141968 -0.017190616577863693
0.3158591091632843 -1.6396678686141968 -0.024586841464042664
0.4955615997314453 -1.6396678686141968 -0.031983066350221634
0.6752641201019287 -1.6396678686141968 -0.039379291236400604
0.8549665808677673 -1.6396678686141968 -0.04677551984786987
1.034669041633606 -1.6396678686141968 -0.05417174473404884
1.2143715620040894 -1.6396678686141968 -0.061567969620227814
-1.4909718036651611 -1.6154193878173828 -0.1888779103755951
-1.3112694025039673 -1.6154193878173828 -0.19627413153648376
-1.1315668821334839 -1.6154193878173828 -0.20367035269737244
-0.9518643617630005 -1.6154193878173828 -0.2110665887594223
-0.7721619009971619 -1.6154193878173828 -0.21846280992031097
-0.5924593806266785 -1.6154193878173828 -0.22585903108119965
-0.41275691986083984 -1.6154193878173828 -0.23325525224208832
-0.23305441439151764 -1.6154193878173828 -0.24065148830413818
-0.053351931273937225 -1.6154193878173828 -0.24804770946502686
0.1263505518436432 -1.6154193878173828 -0.2554439306259155
0.3060530424118042 -1.6154193878173828 -0.2628401517868042
0.4857555329799652 -1.6154193878173828 -0.27023637294769287
0.6654580235481262 -1.6154193878173828 -0.27763262391090393
0.8451604843139648 -1.6154193878173828 -0.2850288450717926
1.0248630046844482 -1.6154193878173828 -0.2924250662326813
1.2045655250549316 -1.6154193878173828 -0.29982128739356995
-1.5003764629364014 -1.5436666011810303 -0.4173771142959595
-1.320673942565918 -1.5436666011810303 -0.42477333545684814
-1.1409714221954346 -1.5436666011810303 -0.4321695566177368
-0.961268961429596 -1.5436666011810303 -0.4395657777786255
-0.7815665006637573 -1.5436666011810303 -0.44696199893951416
-0.6018639802932739 -1.5436666011810303 -0.45435822010040283
-0.4221615195274353 -1.5436666011810303 -0.4617544710636139
-0.2424590289592743 -1.5436666011810303 -0.46915069222450256
-0.06275653839111328 -1.5436666011810303 -0.47654691338539124
0.11694594472646713 -1.5436666011810303 -0.4839431345462799
0.29664844274520874 -1.5436666011810303 -0.4913393557071686
0.47635093331336975 -1.5436666011810303 -0.49873557686805725
0.6560534238815308 -1.5436666011810303 -0.5061318278312683
0.8357558846473694 -1.5436666011810303 -0.513528048992157
1.015458345413208 -1.5436666011810303 -0.5209242701530457
1.1951608657836914 -1.5436666011810303 -0.5283204913139343
-1.5089945793151855 -1.4273470640182495 -0.6267673969268799
-1.3292920589447021 -1.4273470640182495 -0.6341636180877686
-1.1495895385742188 -1.4273470640182495 -0.6415598392486572
-0.9698870778083801 -1.4273470640182495 -0.6489560604095459
-0.7901846170425415 -1.4273470640182495 -0.6563522815704346
-0.6104821562767029 -1.4273470640182495 -0.6637485027313232
-0.4307796359062195 -1.4273470640182495 -0.6711447834968567
-0.25107714533805847 -1.4273470640182495 -0.6785410046577454
-0.07137466222047806 -1.4273470640182495 -0.685937225818634
0.10832782834768295 -1.4273470640182495 -0.6933334469795227
0.28803032636642456 -1.4273470640182495 -0.7007296681404114
0.46773281693458557 -1.4273470640182495 -0.7081258893013
0.6474353075027466 -1.4273470640182495 -0.7155221104621887
0.8271377682685852 -1.4273470640182495 -0.7229183316230774
1.0068402290344238 -1.4273470640182495 -0.7303145527839661
1.1865427494049072 -1.4273470640182495 -0.7377107739448547
-1.516473412513733 -1.2712230682373047 -0.8084763288497925
-1.3367708921432495 -1.2712230682373047 -0.8158725500106812
-1.1570683717727661 -1.2712230682373047 -0.8232687711715698
-0.9773659110069275 -1.2712230682373047 -0.8306649923324585
-0.7976634502410889 -1.2712230682373047 -0.8380612134933472
-0.6179609298706055 -1.2712230682373047 -0.8454574346542358
-0.43825843930244446 -1.2712230682373047 -0.8528537154197693
-0.25855594873428345 -1.2712230682373047 -0.860249936580658
-0.07885346561670303 -1.2712230682373047 -0.8676461577415466
0.10084901750087738 -1.2712230682373047 -0.8750423789024353
0.2805514931678772 -1.2712230682373047 -0.882438600063324
0.4602539837360382 -1.2712230682373047 -0.8898348212242126
0.6399564743041992 -1.2712230682373047 -0.8972310423851013
0.8196589946746826 -1.2712230682373047 -0.90462726354599
0.9993614554405212 -1.2712230682373047 -0.9120234847068787
1.1790639162063599 -1.2712230682373047 -0.9194197058677673
-1.5225067138671875 -1.0816861391067505 -0.9550647139549255
-1.342804193496704 -1.0816861391067505 -0.9624609351158142
-1.1631016731262207 -1.0816861391067505 -0.9698571562767029
-0.9833992123603821 -1.0816861391067505 -0.9772533774375916
-0.8036967515945435 -1.0816861391067505 -0.9846495985984802
-0.6239942312240601 -1.0816861391067505 -0.9920458197593689
-0.44429174065589905 -1.0816861391067505 -0.9994420409202576
-0.2645892798900604 -1.0816861391067505 -1.006838321685791
-0.08488678187131882 -1.0816861391067505 -1.0142345428466797
0.0948157086968422 -1.0816861391067505 -1.0216307640075684
0.2745181918144226 -1.0816861391067505 -1.029026985168457
0.4542206823825836 -1.0816861391067505 -1.0364232063293457
0.6339231729507446 -1.0816861391067505 -1.0438194274902344
0.8136256337165833 -1.0816861391067505 -1.051215648651123
0.9933281540870667 -1.0816861391067505 -1.0586118698120117
1.1730306148529053 -1.0816861391067505 -1.0660080909729004
-1.5268474817276 -0.8664960265159607 -1.0605311393737793
-1.3471449613571167 -0.8664960265159607 -1.0679274797439575
-1.1674425601959229 -0.8664960265159607 -1.0753237009048462
-0.9877400398254395 -0.8664960265159607 -1.0827199220657349
-0.808037519454956 -0.8664960265159607 -1.0901161432266235
-0.6283350586891174 -0.8664960265159607 -1.0975123643875122
-0.4486325681209564 -0.8664960265159607 -1.1049085855484009
-0.2689300775527954 -0.8664960265159607 -1.1123048067092896
-0.0892275869846344 -0.8664960265159607 -1.1197010278701782
0.09047490358352661 -0.8664960265159607 -1.127097249031067
0.2701773941516876 -0.8664960265159607 -1.1344934701919556
0.44987988471984863 -0.8664960265159607 -1.1418896913528442
0.6295823454856873 -0.8664960265159607 -1.149285912513733
0.8092848658561707 -0.8664960265159607 -1.1566821336746216
0.9889873266220093 -0.8664960265159607 -1.1640783548355103
1.1686898469924927 -0.8664960265159607 -1.171474575996399
-1.52931809425354 -0.6344626545906067 -1.1205580234527588
-1.3496155738830566 -0.6344626545906067 -1.1279542446136475
-1.1699130535125732 -0.6344626545906067 -1.1353504657745361
-0.9902105927467346 -0.6344626545906067 -1.1427466869354248
-0.810508131980896 -0.6344626545906067 -1.1501429080963135
-0.6308056712150574 -0.6344626545906067 -1.1575391292572021
-0.451103150844574 -0.6344626545906067 -1.1649353504180908
-0.27140066027641296 -0.6344626545906067 -1.1723315715789795
-0.09169817715883255 -0.6344626545906067 -1.1797277927398682
0.08800431340932846 -0.6344626545906067 -1.1871240139007568
0.26770681142807007 -0.6344626545906067 -1.1945202350616455
0.4474092721939087 -0.6344626545906067 -1.2019164562225342
0.6271117925643921 -0.6344626545906067 -1.2093126773834229
0.8068142533302307 -0.6344626545906067 -1.2167088985443115
0.9865167737007141 -0.6344626545906067 -1.2241051197052002
1.1662192344665527 -0.6344626545906067 -1.2315013408660889
-1.5298173427581787 -0.39508551359176636 -1.1326875686645508
-1.3501148223876953 -0.39508551359176636 -1.1400837898254395
-1.170412302017212 -0.39508551359176636 -1.1474800109863281
-0.9907098412513733 -0.39508551359176636 -1.1548762321472168
-0.8110073804855347 -0.39508551359176636 -1.1622724533081055
-0.6313048601150513 -0.39508551359176636 -1.1696686744689941
-0.45160239934921265 -0.39508551359176636 -1.1770648956298828
-0.27189990878105164 -0.39508551359176636 -1.1844611167907715
-0.09219741076231003 -0.39508551359176636 -1.1918573379516602
0.08750507980585098 -0.39508551359176636 -1.1992535591125488
0.2672075629234314 -0.39508551359176636 -1.2066497802734375
0.4469100534915924 -0.39508551359176636 -1.2140460014343262
0.6266125440597534 -0.39508551359176636 -1.2214422225952148
0.806315004825592 -0.39508551359176636 -1.2288384437561035
0.9860175251960754 -0.39508551359176636 -1.2362346649169922
1.165719985961914 -0.39508551359176636 -1.2436308860778809
-1.5283247232437134 -0.15816470980644226 -1.0964232683181763
-1.34862220287323 -0.15816470980644226 -1.103819489479065
-1.1689198017120361 -0.15816470980644226 -1.1112157106399536
-0.9892172813415527 -0.15816470980644226 -1.1186119318008423
-0.8095148205757141 -0.15816470980644226 -1.126008152961731
-0.6298123002052307 -0.15816470980644226 -1.1334044933319092
-0.4501098096370697 -0.15816470980644226 -1.1408007144927979
-0.2704073190689087 -0.15816470980644226 -1.1481969356536865
-0.09070484340190887 -0.15816470980644226 -1.1555931568145752
0.08899764716625214 -0.15816470980644226 -1.1629893779754639
0.26870012283325195 -0.15816470980644226 -1.1703855991363525
0.44840261340141296 -0.15816470980644226 -1.1777818202972412
0.628105103969574 -0.15816470980644226 -1.1851780414581299
0.8078076243400574 -0.15816470980644226 -1.1925742626190186
0.987510085105896 -0.15816470980644226 -1.1999704837799072
1.1672126054763794 -0.15816470980644226 -1.207366704940796
-1.5249015092849731 0.06660020351409912 -1.0132499933242798
-1.3451989889144897 0.06660020351409912 -1.0206462144851685
-1.1654964685440063 0.06660020351409912 -1.0280424356460571
-0.9857940077781677 0.06660020351409912 -1.0354386568069458
-0.8060915470123291 0.06660020351409912 -1.0428348779678345
-0.6263890266418457 0.06660020351409912 -1.0502310991287231
-0.4466865658760071 0.06660020351409912 -1.0576273202896118
-0.26698407530784607 0.06660020351409912 -1.0650235414505005
-0.08728157728910446 0.06660020351409912 -1.0724197626113892
0.09242091327905655 0.06660020351409912 -1.0798159837722778
0.27212339639663696 0.06660020351409912 -1.0872122049331665
0.451825886964798 0.06660020351409912 -1.0946084260940552
0.631528377532959 0.06660020351409912 -1.1020046472549438
0.8112308382987976 0.06660020351409912 -1.1094008684158325
0.990933358669281 0.06660020351409912 -1.1167970895767212
1.1706358194351196 0.06660020351409912 -1.1241933107376099
-1.5196876525878906 0.27000731229782104 -0.8865725994110107
-1.3399851322174072 0.27000731229782104 -0.8939688205718994
-1.1602827310562134 0.27000731229782104 -0.9013650417327881
-0.98058021068573 0.27000731229782104 -0.9087612628936768
-0.8008777499198914 0.27000731229782104 -0.9161574840545654
-0.621175229549408 0.27000731229782104 -0.9235537052154541
-0.44147273898124695 0.27000731229782104 -0.9309499263763428
-0.26177024841308594 0.27000731229782104 -0.9383461475372314
-0.08206776529550552 0.27000731229782104 -0.9457423686981201
0.09763471782207489 0.27000731229782104 -0.9531385898590088
0.2773372232913971 0.27000731229782104 -0.9605348110198975
0.4570396840572357 0.27000731229782104 -0.9679310321807861
0.6367421746253967 0.27000731229782104 -0.9753272533416748
0.8164446949958801 0.27000731229782104 -0.9827235341072083
0.9961471557617188 0.27000731229782104 -0.9901197552680969
1.1758496761322021 0.27000731229782104 -0.9975159764289856
-1.5128967761993408 0.44372910261154175 -0.7215774059295654
-1.3331942558288574 0.44372910261154175 -0.7289736270904541
-1.1534918546676636 0.44372910261154175 -0.7363698482513428
-0.9737893342971802 0.44372910261154175 -0.7437660694122314
-0.7940868139266968 0.44372910261154175 -0.7511622905731201
-0.6143843531608582 0.44372910261154175 -0.7585585117340088
-0.43468183279037476 0.44372910261154175 -0.7659547328948975
-0.25497934222221375 0.44372910261154175 -0.7733509540557861
-0.07527686655521393 0.44372910261154175 -0.7807471752166748
0.10442562401294708 0.44372910261154175 -0.7881433963775635
0.2841280996799469 0.44372910261154175 -0.7955396175384521
0.4638305902481079 0.44372910261154175 -0.8029358386993408
0.6435331106185913 0.44372910261154175 -0.8103320598602295
0.8232355713844299 0.44372910261154175 -0.8177283406257629
1.0029380321502686 0.44372910261154175 -0.8251245617866516
1.182640552520752 0.44372910261154175 -0.8325207829475403
-1.5048067569732666 0.5806534290313721 -0.5250192880630493
-1.3251043558120728 0.5806534290313721 -0.532415509223938
-1.1454018354415894 0.5806534290313721 -0.5398117303848267
-0.965699315071106 0.5806534290313721 -0.5472079515457153
-0.7859968543052673 0.5806534290313721 -0.554604172706604
-0.6062943339347839 0.5806534290313721 -0.5620003938674927
-0.4265918731689453 0.5806534290313721 -0.5693966150283813
-0.2468893826007843 0.5806534290313721 -0.5767928957939148
-0.06718689203262329 0.5806534290313721 -0.5841891169548035
0.11251559108495712 0.5806534290313721 -0.5915853381156921
0.29221808910369873 0.5806534290313721 -0.5989815592765808
0.47192057967185974 0.5806534290313721 -0.6063777804374695
0.6516230702400208 0.5806534290313721 -0.6137740015983582
0.8313255310058594 0.5806534290313721 -0.6211702227592468
1.0110280513763428 0.5806534290313721 -0.6285664439201355
1.1907305717468262 0.5806534290313721 -0.6359626650810242
-1.4957489967346191 0.6751744747161865 -0.3049454092979431
-1.3160464763641357 0.6751744747161865 -0.3123416304588318
-1.1363439559936523 0.6751744747161865 -0.31973785161972046
-0.9566414952278137 0.6751744747161865 -0.3271341025829315
-0.7769390344619751 0.6751744747161865 -0.3345303237438202
-0.5972365140914917 0.6751744747161865 -0.34192654490470886
-0.4175340235233307 0.6751744747161865 -0.34932276606559753
-0.23783154785633087 0.6751744747161865 -0.3567189872264862
-0.05812905728816986 0.6751744747161865 -0.3641152083873749
0.12157343327999115 0.6751744747161865 -0.37151142954826355
0.30127590894699097 0.6751744747161865 -0.3789076805114746
0.480978399515152 0.6751744747161865 -0.3863039016723633
0.660680890083313 0.6751744747161865 -0.39370012283325195
0.8403834104537964 0.6751744747161865 -0.4010963439941406
1.0200859308242798 0.6751744747161865 -0.4084925651550293
1.1997883319854736 0.6751744747161865 -0.41588878631591797
-1.4860941171646118 0.7234227061271667 -0.07036560028791428
-1.3063915967941284 0.7234227061271667 -0.07776182144880295
-1.126689076423645 0.7234227061271667 -0.08515805006027222
-0.9469866156578064 0.7234227061271667 -0.09255427122116089
-0.7672841548919678 0.7234227061271667 -0.09995049983263016
-0.5875816345214844 0.7234227061271667 -0.10734672844409943
-0.40787914395332336 0.7234227061271667 -0.1147429496049881
-0.22817666828632355 0.7234227061271667 -0.12213917821645737
-0.048474181443452835 0.7234227061271667 -0.12953540682792664
0.13122831284999847 0.7234227061271667 -0.1369316279888153
0.3109307885169983 0.7234227061271667 -0.14432784914970398
0.4906332790851593 0.7234227061271667 -0.15172408521175385
0.6703357696533203 0.7234227061271667 -0.15912030637264252
0.8500382304191589 0.7234227061271667 -0.1665165275335312
1.0297406911849976 0.7234227061271667 -0.17391276359558105
1.209443211555481 0.7234227061271667 -0.18130898475646973
-1.476237416267395 0.7234227061271667 0.16911642253398895
-1.2965350151062012 0.7234227061271667 0.16172020137310028
-1.1168324947357178 0.7234227061271667 0.1543239802122116
-0.9371299743652344 0.7234227061271667 0.14692774415016174
-0.7574275135993958 0.7234227061271667 0.13953152298927307
-0.5777249932289124 0.7234227061271667 0.1321353018283844
-0.39802250266075134 0.7234227061271667 0.12473907321691513
-0.21832002699375153 0.7234227061271667 0.11734284460544586
-0.038617540150880814 0.7234227061271667 0.10994662344455719
0.1410849541425705 0.7234227061271667 0.10255039483308792
0.3207874298095703 0.7234227061271667 0.09515417367219925
0.5004899501800537 0.7234227061271667 0.08775794506072998
0.6801924109458923 0.7234227061271667 0.08036171644926071
0.8598949313163757 0.7234227061271667 0.07296549528837204
1.0395973920822144 0.7234227061271667 0.06556926667690277
1.2192999124526978 0.7234227061271667 0.0581730417907238
-1.4665825366973877 0.6751744747161865 0.4036962389945984
-1.2868801355361938 0.6751744747161865 0.3963000178337097
-1.1071776151657104 0.6751744747161865 0.38890379667282104
-0.927475094795227 0.6751744747161865 0.3815075755119324
-0.7477726340293884 0.6751744747161865 0.3741113245487213
-0.568070113658905 0.6751744747161865 0.36671510338783264
-0.3883676528930664 0.6751744747161865 0.35931888222694397
-0.2086651474237442 0.6751744747161865 0.3519226610660553
-0.028962664306163788 0.6751744747161865 0.3445264399051666
0.15073981881141663 0.6751744747161865 0.33713021874427795
0.33044230937957764 0.6751744747161865 0.3297339975833893
0.510144829750061 0.6751744747161865 0.3223377466201782
0.6898472905158997 0.6751744747161865 0.31494152545928955
0.8695497512817383 0.6751744747161865 0.3075453042984009
1.0492522716522217 0.6751744747161865 0.3001490831375122
1.228954792022705 0.6751744747161865 0.29275286197662354
-1.4575247764587402 0.5806534290313721 0.6237701177597046
-1.2778222560882568 0.5806534290313721 0.6163738965988159
-1.0981197357177734 0.5806534290313721 0.6089776754379272
-0.9184172749519348 0.5806534290313721 0.6015814542770386
-0.7387147545814514 0.5806534290313721 0.5941852331161499
-0.5590122938156128 0.5806534290313721 0.5867890119552612
-0.3793098032474518 0.5806534290313721 0.5793927907943726
-0.19960731267929077 0.5806534290313721 0.5719965100288391
-0.01990482583642006 0.5806534290313721 0.5646002888679504
0.15979766845703125 0.5806534290313721 0.5572040677070618
0.33950015902519226 0.5806534290313721 0.5498078465461731
0.5192026495933533 0.5806534290313721 0.5424116253852844
0.6989051103591919 0.5806534290313721 0.5350154042243958
0.8786076307296753 0.5806534290313721 0.5276191830635071
1.0583101511001587 0.5806534290313721 0.5202229619026184
1.2380125522613525 0.5806534290313721 0.5128267407417297
-1.449434757232666 0.44372910261154175 0.8203282356262207
-1.2697322368621826 0.44372910261154175 0.8129319548606873
-1.0900298357009888 0.44372910261154175 0.8055357336997986
-0.9103273153305054 0.44372910261154175 0.7981395125389099
-0.730624794960022 0.44372910261154175 0.7907432913780212
-0.5509223341941833 0.44372910261154175 0.7833470702171326
-0.37121984362602234 0.44372910261154175 0.7759508490562439
-0.19151733815670013 0.44372910261154175 0.7685546278953552
-0.011814854107797146 0.44372910261154175 0.7611584067344666
0.1678876280784607 0.44372910261154175 0.7537621855735779
0.3475901186466217 0.44372910261154175 0.7463659644126892
0.5272926092147827 0.44372910261154175 0.7389697432518005
0.7069950699806213 0.44372910261154175 0.7315735220909119
0.8866975903511047 0.44372910261154175 0.7241773009300232
1.0664000511169434 0.44372910261154175 0.7167810201644897
1.2461025714874268 0.44372910261154175 0.7093847990036011
-1.4426438808441162 0.27000731229782104 0.985323429107666
-1.2629413604736328 0.27000731229782104 0.9779271483421326
-1.0832388401031494 0.27000731229782104 0.9705309271812439
-0.9035363793373108 0.27000731229782104 0.9631347060203552
-0.7238339185714722 0.27000731229782104 0.9557384848594666
-0.5441313982009888 0.27000731229782104 0.9483422636985779
-0.36442893743515015 0.27000731229782104 0.9409460425376892
-0.18472644686698914 0.27000731229782104 0.9335498213768005
-0.0050239539705216885 0.27000731229782104 0.9261536002159119
0.17467853426933289 0.27000731229782104 0.9187573790550232
0.3543810248374939 0.27000731229782104 0.9113611578941345
0.5340834856033325 0.27000731229782104 0.9039649367332458
0.7137860059738159 0.27000731229782104 0.8965687155723572
0.8934884667396545 0.27000731229782104 0.8891724944114685
1.0731909275054932 0.27000731229782104 0.8817762136459351
1.2528934478759766 0.27000731229782104 0.8743799924850464
-1.4374300241470337 0.06660020351409912 1.112000823020935
-1.2577275037765503 0.06660020351409912 1.1046046018600464
-1.0780251026153564 0.06660020351409912 1.0972083806991577
-0.898322582244873 0.06660020351409912 1.0898120403289795
-0.7186201214790344 0.06660020351409912 1.0824158191680908
-0.538917601108551 0.06660020351409912 1.0750195980072021
-0.35921511054039 0.06660020351409912 1.0676233768463135
-0.1795126348733902 0.06660020351409912 1.0602271556854248
0.0001898551417980343 0.06660020351409912 1.0528309345245361
0.17989234626293182 0.06660020351409912 1.0454347133636475
0.35959482192993164 0.06660020351409912 1.0380384922027588
0.539297342300415 0.06660020351409912 1.0306422710418701
0.7189998030662537 0.06660020351409912 1.0232460498809814
0.8987023234367371 0.06660020351409912 1.0158498287200928
1.0784047842025757 0.06660020351409912 1.008453607559204
1.258107304573059 0.06660020351409912 1.0010573863983154
-1.4340068101882935 -0.15816470980644226 1.1951740980148315
-1.25430428981781 -0.15816470980644226 1.1877778768539429
-1.0746017694473267 -0.15816470980644226 1.1803816556930542
-0.894899308681488 -0.15816470980644226 1.1729854345321655
-0.7151968479156494 -0.15816470980644226 1.1655892133712769
-0.535494327545166 -0.15816470980644226 1.1581929922103882
-0.3557918667793274 -0.15816470980644226 1.1507967710494995
-0.17608937621116638 -0.15816470980644226 1.1434005498886108
0.0036131187807768583 -0.15816470980644226 1.1360043287277222
0.18331560492515564 -0.15816470980644226 1.1286081075668335
0.36301809549331665 -0.15816470980644226 1.1212118864059448
0.5427205562591553 -0.15816470980644226 1.1138156652450562
0.7224230766296387 -0.15816470980644226 1.1064194440841675
0.9021255373954773 -0.15816470980644226 1.0990232229232788
1.081827998161316 -0.15816470980644226 1.0916270017623901
1.2615305185317993 -0.15816470980644226 1.0842307806015015
-1.4325141906738281 -0.39508551359176636 1.231438398361206
-1.2528116703033447 -0.39508551359176636 1.2240421772003174
-1.0731092691421509 -0.39508551359176636 1.2166459560394287
-0.8934067487716675 -0.39508551359176636 1.20924973487854
-0.7137042880058289 -0.39508551359176636 1.2018535137176514
-0.5340017676353455 -0.39508551359176636 1.1944572925567627
-0.35429927706718445 -0.39508551359176636 1.187061071395874
-0.17459680140018463 -0.39508551359176636 1.1796647310256958
0.005105688236653805 -0.39508551359176636 1.1722685098648071
0.1848081797361374 -0.39508551359176636 1.1648722887039185
0.3645106554031372 -0.39508551359176636 1.1574760675430298
0.5442131757736206 -0.39508551359176636 1.1500798463821411
0.7239156365394592 -0.39508551359176636 1.1426836252212524
0.9036181569099426 -0.39508551359176636 1.1352874040603638
1.0833206176757812 -0.39508551359176636 1.127891182899475
1.2630231380462646 -0.39508551359176636 1.1204949617385864
-1.4330134391784668 -0.6344626545906067 1.219308853149414
-1.2533109188079834 -0.6344626545906067 1.2119126319885254
-1.0736085176467896 -0.6344626545906067 1.2045164108276367
-0.8939059972763062 -0.6344626545906067 1.1971200704574585
-0.7142034769058228 -0.6344626545906067 1.1897238492965698
-0.5345010161399841 -0.6344626545906067 1.1823276281356812
-0.3547985255718231 -0.6344626545906067 1.1749314069747925
-0.1750960350036621 -0.6344626545906067 1.1675351858139038
0.004606457427144051 -0.6344626545906067 1.1601389646530151
0.1843089461326599 -0.6344626545906067 1.1527427434921265
0.3640114367008209 -0.6344626545906067 1.1453465223312378
0.5437139272689819 -0.6344626545906067 1.1379503011703491
0.7234163880348206 -0.6344626545906067 1.1305540800094604
0.903118908405304 -0.6344626545906067 1.1231578588485718
1.0828213691711426 -0.6344626545906067 1.115761637687683
1.262523889541626 -0.6344626545906067 1.1083654165267944
-1.4354840517044067 -0.8664960265159607 1.1592819690704346
-1.2557815313339233 -0.8664960265159607 1.151885747909546
-1.07607901096344 -0.8664960265159607 1.1444895267486572
-0.8963765501976013 -0.8664960265159607 1.1370933055877686
-0.7166740894317627 -0.8664960265159607 1.1296970844268799
-0.5369716286659241 -0.8664960265159607 1.1223008632659912
-0.3572691082954407 -0.8664960265159607 1.1149046421051025
-0.17756661772727966 -0.8664960265159607 1.1075084209442139
0.002135865157470107 -0.8664960265159607 1.1001121997833252
0.18183834850788116 -0.8664960265159607 1.0927159786224365
0.36154085397720337 -0.8664960265159607 1.0853197574615479
0.541243314743042 -0.8664960265159607 1.0779235363006592
0.7209458351135254 -0.8664960265159607 1.0705273151397705
0.900648295879364 -0.8664960265159607 1.0631310939788818
1.0803507566452026 -0.8664960265159607 1.0557348728179932
1.260053277015686 -0.8664960265159607 1.0483386516571045
-1.4398248195648193 -1.0816861391067505 1.0538156032562256
-1.2601224184036255 -1.0816861391067505 1.0464192628860474
-1.080419898033142 -1.0816861391067505 1.0390230417251587
-0.9007173776626587 -1.0816861391067505 1.03162682056427
-0.7210149168968201 -1.0816861391067505 1.0242305994033813
-0.5413123965263367 -1.0816861391067505 1.0168343782424927
-0.36160990595817566 -1.0816861391067505 1.009438157081604
-0.18190743029117584 -1.0816861391067505 1.0020419359207153
-0.0022049425169825554 -1.0816861391067505 0.9946457147598267
0.17749755084514618 -1.0816861391067505 0.987249493598938
0.357200026512146 -1.0816861391067505 0.9798532724380493
0.5369025468826294 -1.0816861391067505 0.9724570512771606
0.716605007648468 -1.0816861391067505 0.965060830116272
0.8963075280189514 -1.0816861391067505 0.9576646089553833
1.07600998878479 -1.0816861391067505 0.9502683877944946
1.2557125091552734 -1.0816861391067505 0.942872166633606
-1.445858120918274 -1.2712230682373047 0.9072271585464478
-1.26615571975708 -1.2712230682373047 0.8998309373855591
-1.0864531993865967 -1.2712230682373047 0.8924347162246704
-0.9067506790161133 -1.2712230682373047 0.8850384950637817
-0.7270482182502747 -1.2712230682373047 0.8776422739028931
-0.5473456978797913 -1.2712230682373047 0.8702460527420044
-0.36764323711395264 -1.2712230682373047 0.8628498315811157
-0.18794074654579163 -1.2712230682373047 0.855453610420227
-0.008238252252340317 -1.2712230682373047 0.8480573892593384
0.1714642345905304 -1.2712230682373047 0.8406611084938049
0.3511667251586914 -1.2712230682373047 0.8332648873329163
0.53086918592453 -1.2712230682373047 0.8258686661720276
0.7105717062950134 -1.2712230682373047 0.8184724450111389
0.890274167060852 -1.2712230682373047 0.8110762238502502
1.0699766874313354 -1.2712230682373047 0.8036800026893616
1.2496792078018188 -1.2712230682373047 0.7962837815284729
-1.4533369541168213 -1.4273470640182495 0.7255182266235352
-1.273634433746338 -1.4273470640182495 0.7181220054626465
-1.093932032585144 -1.4273470640182495 0.7107257843017578
-0.9142295122146606 -1.4273470640182495 0.7033295631408691
-0.7345269918441772 -1.4273470640182495 0.6959333419799805
-0.5548245310783386 -1.4273470640182495 0.6885371208190918
-0.3751220405101776 -1.4273470640182495 0.6811408996582031
-0.1954195499420166 -1.4273470640182495 0.6737446784973145
-0.01571705937385559 -1.4273470640182495 0.6663484573364258
0.16398543119430542 -1.4273470640182495 0.6589521765708923
0.34368792176246643 -1.4273470640182495 0.6515559554100037
0.5233904123306274 -1.4273470640182495 0.644159734249115
0.7030928730964661 -1.4273470640182495 0.6367635130882263
0.8827953934669495 -1.4273470640182495 0.6293672919273376
1.062497854232788 -1.4273470640182495 0.621971070766449
1.2422003746032715 -1.4273470640182495 0.6145748496055603
-1.4619550704956055 -1.5436666011810303 0.5161279439926147
-1.282252550125122 -1.5436666011810303 0.5087317228317261
-1.1025501489639282 -1.5436666011810303 0.5013355016708374
-0.9228476285934448 -1.5436666011810303 0.49393925070762634
-0.7431451082229614 -1.5436666011810303 0.48654302954673767
-0.5634426474571228 -1.5436666011810303 0.479146808385849
-0.3837401568889618 -1.5436666011810303 0.4717505872249603
-0.20403766632080078 -1.5436666011810303 0.46435436606407166
-0.024335181340575218 -1.5436666011810303 0.456958144903183
0.15536731481552124 -1.5436666011810303 0.4495618939399719
0.33506980538368225 -1.5436666011810303 0.44216567277908325
0.5147722959518433 -1.5436666011810303 0.4347694516181946
0.6944747567176819 -1.5436666011810303 0.4273732304573059
0.8741772770881653 -1.5436666011810303 0.41997700929641724
1.053879737854004 -1.5436666011810303 0.41258078813552856
1.2335822582244873 -1.5436666011810303 0.4051845371723175
-1.4713597297668457 -1.6154193878173828 0.28762874007225037
-1.2916572093963623 -1.6154193878173828 0.2802325189113617
-1.111954689025879 -1.6154193878173828 0.272836297750473
-0.9322522282600403 -1.6154193878173828 0.26544004678726196
-0.7525497674942017 -1.6154193878173828 0.2580438256263733
-0.5728472471237183 -1.6154193878173828 0.2506476044654846
-0.39314475655555725 -1.6154193878173828 0.24325138330459595
-0.21344228088855743 -1.6154193878173828 0.23585516214370728
-0.03373979032039642 -1.6154193878173828 0.2284589260816574
0.1459627002477646 -1.6154193878173828 0.22106270492076874
0.3256651759147644 -1.6154193878173828 0.21366648375988007
0.5053676962852478 -1.6154193878173828 0.2062702476978302
0.6850701570510864 -1.6154193878173828 0.19887402653694153
0.8647726774215698 -1.6154193878173828 0.19147780537605286
1.0444751977920532 -1.6154193878173828 0.184081569314003
1.224177598953247 -1.6154193878173828 0.17668534815311432
-1.4811657667160034 -1.6396678686141968 0.04937541484832764
-1.30146324634552 -1.6396678686141968 0.041979189962148666
-1.1217608451843262 -1.6396678686141968 0.034582965075969696
-0.9420583248138428 -1.6396678686141968 0.027186738327145576
-0.7623558044433594 -1.6396678686141968 0.019790511578321457
-0.5826533436775208 -1.6396678686141968 0.012394286692142487
-0.40295082330703735 -1.6396678686141968 0.004998060874640942
-0.22324834764003754 -1.6396678686141968 -0.0023981647100299597
-0.043545860797166824 -1.6396678686141968 -0.009794390760362148
0.13615663349628448 -1.6396678686141968 -0.017190616577863693
0.3158591091632843 -1.6396678686141968 -0.024586841464042664
0.4955615997314453 -1.6396678686141968 -0.031983066350221634
0.6752641201019287 -1.6396678686141968 -0.039379291236400604
0.8549665808677673 -1.6396678686141968 -0.04677551984786987
1.034669041633606 -1.6396678686141968 -0.05417174473404884
1.2143715620040894 -1.6396678686141968 -0.061567969620227814
