ply
format ascii 1.0
element vertex 512
property float x
property float y
property float z
end_header
0.5552177429199219 -0.8203253149986267 1.2908660173416138
0.5552860498428345 -0.820266604423523 1.0063424110412598
0.5553543567657471 -0.8202078938484192 0.7218188047409058
0.5554226636886597 -0.8201491832733154 0.43729516863822937
0.5554909706115723 -0.8200904726982117 0.15277154743671417
0.5555592775344849 -0.8200317621231079 -0.13175208866596222
0.5556275844573975 -0.8199730515480042 -0.4162757098674774
0.5556958913803101 -0.8199142813682556 -0.7007993459701538
0.5557641983032227 -0.8198555707931519 -0.9853229522705078
0.5558324456214905 -0.8197968602180481 -1.2698465585708618
0.5559007525444031 -0.8197381496429443 -1.5543702840805054
0.5559690594673157 -0.8196794390678406 -1.8388938903808594
0.5560373663902283 -0.8196207284927368 -2.123417615890503
0.5561056733131409 -0.8195620179176331 -2.4079411029815674
0.5561739802360535 -0.8195032477378845 -2.692464828491211
0.5562422871589661 -0.8194445371627808 -2.9769883155822754
0.18144352734088898 -0.7823162078857422 1.290784239768982
0.18151183426380157 -0.7822574973106384 1.0062605142593384
0.18158012628555298 -0.7821987271308899 0.7217369079589844
0.18164843320846558 -0.7821400165557861 0.43721330165863037
0.18171674013137817 -0.7820813059806824 0.15268966555595398
0.18178504705429077 -0.7820225954055786 -0.1318339705467224
0.18185333907604218 -0.7819638848304749 -0.4163576066493988
0.18192164599895477 -0.7819051742553711 -0.7008812427520752
0.18198995292186737 -0.7818464636802673 -0.9854048490524292
0.18205825984477997 -0.7817877531051636 -1.2699284553527832
0.18212655186653137 -0.781728982925415 -1.5544521808624268
0.18219485878944397 -0.7816702723503113 -1.8389757871627808
0.18226316571235657 -0.7816115617752075 -2.1234993934631348
0.18233147263526917 -0.7815528512001038 -2.4080231189727783
0.18239976465702057 -0.781494140625 -2.6925466060638428
0.18246807157993317 -0.7814354300498962 -2.9770703315734863
-0.1770283281803131 -0.669844925403595 1.2907212972640991
-0.1769600212574005 -0.6697862148284912 1.0061976909637451
-0.1768917292356491 -0.6697274446487427 0.7216740846633911
-0.1768234223127365 -0.6696687340736389 0.4371504485607147
-0.1767551153898239 -0.6696100234985352 0.15262681245803833
-0.17668680846691132 -0.6695513129234314 -0.13189680874347687
-0.1766185164451599 -0.6694926023483276 -0.41642045974731445
-0.17655020952224731 -0.6694338917732239 -0.7009440660476685
-0.17648190259933472 -0.6693751811981201 -0.9854677319526672
-0.17641359567642212 -0.6693164110183716 -1.269991397857666
-0.17634530365467072 -0.6692577004432678 -1.55451500415802
-0.17627699673175812 -0.6691989898681641 -1.839038610458374
-0.17620868980884552 -0.6691402792930603 -2.1235623359680176
-0.17614038288593292 -0.6690815687179565 -2.408085823059082
-0.17607209086418152 -0.6690228581428528 -2.6926095485687256
-0.17600378394126892 -0.668964147567749 -2.97713303565979
-0.5055219531059265 -0.48751604557037354 1.290680170059204
-0.5054536461830139 -0.4874573349952698 1.0061564445495605
-0.5053853392601013 -0.487398624420166 0.7216328382492065
-0.5053170323371887 -0.48733991384506226 0.43710923194885254
-0.5052487254142761 -0.4872811734676361 0.15258558094501495
-0.5051804184913635 -0.48722246289253235 -0.13193804025650024
-0.5051121115684509 -0.4871637523174286 -0.41646167635917664
-0.5050438046455383 -0.48710501194000244 -0.700985312461853
-0.5049754977226257 -0.4870463013648987 -0.985508918762207
-0.5049071907997131 -0.4869875907897949 -1.270032525062561
-0.5048389434814453 -0.48692888021469116 -1.5545562505722046
-0.5047706365585327 -0.486870139837265 -1.8390798568725586
-0.5047023296356201 -0.48681142926216125 -2.123603582382202
-0.5046340227127075 -0.4867527186870575 -2.4081270694732666
-0.5045657157897949 -0.48669400811195374 -2.69265079498291
-0.5044974088668823 -0.4866352677345276 -2.9771742820739746
-0.7905887365341187 -0.2427942156791687 1.290662169456482
-0.790520429611206 -0.24273549020290375 1.006138563156128
-0.7904521226882935 -0.2426767796278 0.7216148972511292
-0.7903838753700256 -0.24261805415153503 0.43709129095077515
-0.790315568447113 -0.24255934357643127 0.15256765484809875
-0.7902472615242004 -0.24250061810016632 -0.13195596635341644
-0.7901789546012878 -0.24244189262390137 -0.41647961735725403
-0.7901106476783752 -0.2423831820487976 -0.7010032534599304
-0.7900423407554626 -0.24232445657253265 -0.9855268597602844
-0.78997403383255 -0.2422657459974289 -1.2700505256652832
-0.7899057269096375 -0.24220702052116394 -1.5545741319656372
-0.7898374199867249 -0.24214830994606018 -1.8390977382659912
-0.7897691130638123 -0.24208958446979523 -2.1236214637756348
-0.7897008061408997 -0.24203087389469147 -2.408144950866699
-0.7896324992179871 -0.2419721484184265 -2.6926686763763428
-0.7895641922950745 -0.24191343784332275 -2.9771924018859863
-1.0205581188201904 0.05430168658494949 1.290668249130249
-1.0204898118972778 0.05436040461063385 1.006144642829895
-1.0204215049743652 0.05441912263631821 0.721621036529541
-1.0203531980514526 0.05447784438729286 0.4370974004268646
-1.02028489112854 0.05453656241297722 0.15257376432418823
-1.0202165842056274 0.054595280438661575 -0.13194987177848816
-1.0201482772827148 0.05465399846434593 -0.41647350788116455
-1.0200799703598022 0.05471271649003029 -0.7009971141815186
-1.0200116634368896 0.054771438241004944 -0.9855207800865173
-1.019943356513977 0.0548301562666893 -1.2700444459915161
-1.0198750495910645 0.05488887429237366 -1.5545680522918701
-1.0198067426681519 0.054947592318058014 -1.8390916585922241
-1.0197384357452393 0.05500631034374237 -2.123615264892578
-1.0196701288223267 0.05506502836942673 -2.4081389904022217
-1.019601821899414 0.05512375012040138 -2.692662477493286
-1.0195335149765015 0.05518246814608574 -2.9771862030029297
-1.186015009880066 0.39160850644111633 1.2906981706619263
-1.1859467029571533 0.3916672170162201 1.0061745643615723
-1.1858783960342407 0.39172592759132385 0.7216508984565735
-1.1858100891113281 0.39178466796875 0.4371272921562195
-1.1857417821884155 0.39184337854385376 0.1526036560535431
-1.185673475265503 0.3919020891189575 -0.1319199800491333
-1.1856051683425903 0.3919607996940613 -0.4164436161518097
-1.1855368614196777 0.3920195400714874 -0.7009672522544861
-1.1854685544967651 0.3920782506465912 -0.9854908585548401
-1.1854002475738525 0.39213696122169495 -1.2700145244598389
-1.18533194065094 0.3921956717967987 -1.5545381307601929
-1.1852636337280273 0.39225441217422485 -1.8390617370605469
-1.1851953268051147 0.3923131227493286 -2.1235854625701904
-1.1851270198822021 0.3923718333244324 -2.408108949661255
-1.1850587129592896 0.3924305737018585 -2.6926326751708984
-1.184990406036377 0.3924892842769623 -2.977156400680542
-1.280185580253601 0.7553168535232544 1.2907506227493286
-1.2801172733306885 0.7553755640983582 1.0062270164489746
-1.2800489664077759 0.7554342746734619 0.7217033505439758
-1.2799806594848633 0.7554929852485657 0.4371797442436218
-1.2799123525619507 0.7555516958236694 0.15265610814094543
-1.279844045639038 0.755610466003418 -0.13186752796173096
-1.2797757387161255 0.7556691765785217 -0.41639116406440735
-1.279707431793213 0.7557278871536255 -0.7009148001670837
-1.2796391248703003 0.7557865977287292 -0.9854384064674377
-1.2795708179473877 0.755845308303833 -1.2699620723724365
-1.279502511024475 0.7559040188789368 -1.5544856786727905
-1.2794342041015625 0.7559627294540405 -1.8390092849731445
-1.27936589717865 0.7560214400291443 -2.123533010482788
-1.2792975902557373 0.7560802102088928 -2.4080564975738525
-1.2792292833328247 0.7561389207839966 -2.692580223083496
-1.2791610956192017 0.7561976313591003 -2.9771039485931396
-1.2992146015167236 1.130536437034607 1.2908234596252441
-1.299146294593811 1.1305952072143555 1.0062998533248901
-1.2990779876708984 1.1306538581848145 0.7217762470245361
-1.2990096807479858 1.130712628364563 0.43725261092185974
-1.2989413738250732 1.130771279335022 0.15272897481918335
-1.2988730669021606 1.1308300495147705 -0.13179464638233185
-1.298804759979248 1.130888819694519 -0.41631829738616943
-1.2987364530563354 1.130947470664978 -0.7008419036865234
-1.2986681461334229 1.1310062408447266 -0.9853655695915222
-1.2985998392105103 1.1310648918151855 -1.269889235496521
-1.2985315322875977 1.131123661994934 -1.554412841796875
-1.298463225364685 1.131182312965393 -1.838936448097229
-1.2983949184417725 1.1312410831451416 -2.123460054397583
-1.2983266115188599 1.1312998533248901 -2.4079837799072266
-1.2982583045959473 1.1313585042953491 -2.692507266998291
-1.2981899976730347 1.1314172744750977 -2.9770309925079346
-1.2423229217529297 1.5019057989120483 1.2909138202667236
-1.242254614830017 1.5019645690917969 1.0063902139663696
-1.2421863079071045 1.5020232200622559 0.7218665480613708
-1.242118000984192 1.5020819902420044 0.43734291195869446
-1.2420496940612793 1.5021406412124634 0.15281927585601807
-1.2419813871383667 1.502199411392212 -0.13170436024665833
-1.241913080215454 1.502258062362671 -0.4162279963493347
-1.2418447732925415 1.5023168325424194 -0.7007516026496887
-1.241776466369629 1.502375602722168 -0.9852752685546875
-1.2417081594467163 1.502434253692627 -1.2697988748550415
-1.2416398525238037 1.5024930238723755 -1.5543224811553955
-1.2415715456008911 1.5025516748428345 -1.8388460874557495
-1.2415032386779785 1.502610445022583 -2.1233696937561035
-1.241434931755066 1.502669095993042 -2.407893419265747
-1.2413666248321533 1.5027278661727905 -2.6924171447753906
-1.2412983179092407 1.502786636352539 -2.976940631866455
-1.1118396520614624 1.854220986366272 1.2910178899765015
-1.1117713451385498 1.8542797565460205 1.006494164466858
-1.1117030382156372 1.8543384075164795 0.7219705581665039
-1.1116347312927246 1.854397177696228 0.4374469518661499
-1.111566424369812 1.854455828666687 0.1529233157634735
-1.1114981174468994 1.8545145988464355 -0.13160032033920288
-1.1114298105239868 1.8545732498168945 -0.4161239564418793
-1.1113615036010742 1.854632019996643 -0.7006475925445557
-1.1112931966781616 1.8546907901763916 -0.9851711988449097
-1.111224889755249 1.8547494411468506 -1.2696948051452637
-1.1111565828323364 1.8548082113265991 -1.5542185306549072
-1.1110882759094238 1.854866862297058 -1.8387421369552612
-1.1110199689865112 1.8549256324768066 -2.1232657432556152
-1.1109516620635986 1.8549842834472656 -2.407789468765259
-1.1108834743499756 1.8550430536270142 -2.6923129558563232
-1.110815167427063 1.8551018238067627 -2.976836681365967
-0.9131069183349609 2.173058271408081 1.2911313772201538
-0.9130386114120483 2.17311692237854 1.0066077709197998
-0.9129703044891357 2.173175573348999 0.722084105014801
-0.9129019975662231 2.173234224319458 0.43756043910980225
-0.9128336906433105 2.173293113708496 0.15303681790828705
-0.912765383720398 2.173351764678955 -0.13148681819438934
-0.9126970767974854 2.173410415649414 -0.41601043939590454
-0.9126287698745728 2.173469305038452 -0.7005341053009033
-0.9125605225563049 2.173527956008911 -0.9850577116012573
-0.9124922156333923 2.17358660697937 -1.2695813179016113
-0.9124239087104797 2.173645257949829 -1.5541049242019653
-0.9123556017875671 2.173704147338867 -1.8386286497116089
-0.9122872948646545 2.173762798309326 -2.123152256011963
-0.9122189879417419 2.173821449279785 -2.4076759815216064
-0.9121506810188293 2.1738803386688232 -2.692199468612671
-0.9120823740959167 2.1739389896392822 -2.9767231941223145
-0.6542608141899109 2.445364236831665 1.2912496328353882
-0.6541925072669983 2.445422887802124 1.0067260265350342
-0.6541242003440857 2.445481538772583 0.7222024202346802
-0.6540558934211731 2.445540189743042 0.4376787841320038
-0.6539875864982605 2.44559907913208 0.1531551480293274
-0.6539192795753479 2.445657730102539 -0.1313684731721878
-0.6538509726524353 2.445716381072998 -0.415892094373703
-0.6537826657295227 2.445775270462036 -0.7004157304763794
-0.6537143588066101 2.445833921432495 -0.9849393963813782
-0.6536460518836975 2.445892572402954 -1.269463062286377
-0.6535777449607849 2.445951223373413 -1.553986668586731
-0.6535094380378723 2.446010112762451 -1.838510274887085
-0.6534411311149597 2.44606876373291 -2.1230340003967285
-0.6533728241920471 2.446127414703369 -2.407557487487793
-0.6533045768737793 2.4461863040924072 -2.6920812129974365
-0.6532362699508667 2.446244955062866 -2.976604700088501
-0.34589847922325134 2.6599905490875244 1.291368007659912
-0.34583017230033875 2.6600494384765625 1.006844401359558
-0.34576186537742615 2.6601080894470215 0.7223207354545593
-0.34569355845451355 2.6601667404174805 0.43779709935188293
-0.34562525153160095 2.6602253913879395 0.15327347815036774
-0.34555694460868835 2.6602842807769775 -0.13125015795230865
-0.34548866748809814 2.6603429317474365 -0.41577377915382385
-0.34542036056518555 2.6604015827178955 -0.7002974152565002
-0.34535205364227295 2.6604604721069336 -0.984821081161499
-0.34528374671936035 2.6605191230773926 -1.269344687461853
-0.34521543979644775 2.6605777740478516 -1.553868293762207
-0.34514713287353516 2.6606364250183105 -1.838391900062561
-0.34507882595062256 2.6606953144073486 -2.122915506362915
-0.34501051902770996 2.6607539653778076 -2.4074392318725586
-0.34494224190711975 2.6608126163482666 -2.691962957382202
-0.34487393498420715 2.6608715057373047 -2.9764864444732666
-0.000644350831862539 2.8081507682800293 1.2914814949035645
-0.0005760475760325789 2.8082096576690674 1.0069578886032104
-0.0005077443202026188 2.8082683086395264 0.7224342226982117
-0.00043944103526882827 2.8083269596099854 0.4379105567932129
-0.00037113777943886817 2.8083856105804443 0.1533869355916977
-0.00030283452360890806 2.8084444999694824 -0.1311367005109787
-0.00023453125322703272 2.8085031509399414 -0.4156603217124939
-0.00016622798284515738 2.8085618019104004 -0.7001839876174927
-9.792471973923966e-05 2.8086206912994385 -0.9847075939178467
-2.962145117635373e-05 2.8086793422698975 -1.2692312002182007
3.8681813748553395e-05 2.8087379932403564 -1.5537548065185547
0.00010698507685447112 2.8087966442108154 -1.8382785320281982
0.00017528833996038884 2.8088555335998535 -2.1228020191192627
0.00024359161034226418 2.8089141845703125 -2.4073257446289062
0.0003118948661722243 2.8089728355407715 -2.69184947013855
0.00038019815110601485 2.8090314865112305 -2.9763729572296143
0.36736682057380676 2.8837790489196777 1.2915854454040527
0.36743512749671936 2.8838376998901367 1.0070618391036987
0.36750343441963196 2.8838963508605957 0.7225381731987
0.36757174134254456 2.883955240249634 0.43801450729370117
0.36764004826545715 2.8840138912200928 0.15349088609218597
0.36770835518836975 2.8840725421905518 -0.13103275001049042
0.36777666211128235 2.88413143157959 -0.4155563712120056
0.36784496903419495 2.884190082550049 -0.7000800371170044
0.36791324615478516 2.884248733520508 -0.9846036434173584
0.36798155307769775 2.884307384490967 -1.2691272497177124
0.36804986000061035 2.884366273880005 -1.5536508560180664
0.36811816692352295 2.884424924850464 -1.83817458152771
0.36818647384643555 2.884483575820923 -2.1226980686187744
0.36825478076934814 2.884542465209961 -2.407221794128418
0.36832308769226074 2.88460111618042 -2.6917455196380615
0.36839139461517334 2.884659767150879 -2.976269006729126
0.7430686354637146 2.8837790489196777 1.2916755676269531
0.7431369423866272 2.8838376998901367 1.0071519613265991
0.7432052493095398 2.8838963508605957 0.7226283550262451
0.7432735562324524 2.883955240249634 0.4381047189235687
0.743341863155365 2.8840138912200928 0.15358108282089233
0.7434101700782776 2.8840725421905518 -0.13094255328178406
0.7434784770011902 2.88413143157959 -0.41546618938446045
0.7435467839241028 2.884190082550049 -0.6999897956848145
0.7436150908470154 2.884248733520508 -0.9845134615898132
0.743683397769928 2.884307384490967 -1.269037127494812
0.7437517046928406 2.884366273880005 -1.553560733795166
0.7438200116157532 2.884424924850464 -1.83808434009552
0.7438883185386658 2.884483575820923 -2.122607946395874
0.7439566254615784 2.884542465209961 -2.4071316719055176
0.7440248727798462 2.88460111618042 -2.691655158996582
0.7440931797027588 2.884659767150879 -2.9761788845062256
1.1110798120498657 2.8081507682800293 1.291748285293579
1.1111481189727783 2.8082094192504883 1.007224678993225
1.111216425895691 2.8082683086395264 0.7227010726928711
1.1112847328186035 2.8083269596099854 0.4381774365901947
1.1113530397415161 2.8083856105804443 0.1536538153886795
1.1114213466644287 2.8084442615509033 -0.1308698207139969
1.1114896535873413 2.8085031509399414 -0.4153934419155121
1.111557960510254 2.8085618019104004 -0.6999170780181885
1.1116262674331665 2.8086204528808594 -0.9844406843185425
1.111694574356079 2.8086793422698975 -1.2689642906188965
1.1117628812789917 2.8087379932403564 -1.55348801612854
1.1118311882019043 2.8087966442108154 -1.838011622428894
1.111899495124817 2.8088552951812744 -2.122535228729248
1.1119678020477295 2.8089141845703125 -2.4070589542388916
1.112036108970642 2.8089728355407715 -2.691582441329956
1.1121044158935547 2.8090314865112305 -2.9761061668395996
1.4563339948654175 2.6599905490875244 1.291800618171692
1.45640230178833 2.6600492000579834 1.007277011871338
1.4564706087112427 2.6601080894470215 0.7227534055709839
1.4565389156341553 2.6601667404174805 0.4382297396659851
1.4566072225570679 2.6602253913879395 0.1537061184644699
1.4566755294799805 2.6602840423583984 -0.1308175027370453
1.456743836402893 2.6603429317474365 -0.4153411388397217
1.4568120241165161 2.6604015827178955 -0.6998647451400757
1.4568803310394287 2.6604602336883545 -0.9843884110450745
1.4569486379623413 2.6605191230773926 -1.2689120769500732
1.457016944885254 2.6605777740478516 -1.5534356832504272
1.4570852518081665 2.6606364250183105 -1.8379592895507812
1.457153558731079 2.6606950759887695 -2.122483015060425
1.4572218656539917 2.6607539653778076 -2.4070065021514893
1.4572901725769043 2.6608126163482666 -2.691530227661133
1.457358479499817 2.6608712673187256 -2.9760537147521973
1.7646962404251099 2.445363998413086 1.2918304204940796
1.7647645473480225 2.445422649383545 1.007306694984436
1.764832854270935 2.445481538772583 0.722783088684082
1.7649011611938477 2.445540189743042 0.438259482383728
1.7649694681167603 2.445598840713501 0.15373586118221283
1.7650377750396729 2.44565749168396 -0.13078777492046356
1.7651060819625854 2.445716381072998 -0.41531139612197876
1.765174388885498 2.445775032043457 -0.6998350620269775
1.7652426958084106 2.445833683013916 -0.9843586683273315
1.7653110027313232 2.445892572402954 -1.2688822746276855
1.7653793096542358 2.445951223373413 -1.5534058809280396
1.7654476165771484 2.446009874343872 -1.837929606437683
1.765515923500061 2.446068525314331 -2.122453212738037
1.7655842304229736 2.446127414703369 -2.4069769382476807
1.7656525373458862 2.446186065673828 -2.691500425338745
1.7657208442687988 2.446244716644287 -2.9760241508483887
2.0235424041748047 2.173058032989502 1.2918363809585571
2.0236105918884277 2.173116683959961 1.0073126554489136
2.02367901802063 2.173175573348999 0.7227890491485596
2.023747205734253 2.173234224319458 0.43826544284820557
2.023815631866455 2.173292875289917 0.15374179184436798
2.023883819580078 2.173351526260376 -0.13078182935714722
2.0239522457122803 2.173410415649414 -0.4153054654598236
2.0240204334259033 2.173469066619873 -0.6998291015625
2.0240888595581055 2.173527717590332 -0.984352707862854
2.0241570472717285 2.17358660697937 -1.268876314163208
2.0242254734039307 2.173645257949829 -1.5534000396728516
2.0242936611175537 2.173703908920288 -1.8379236459732056
2.024362087249756 2.173762559890747 -2.1224472522735596
2.024430274963379 2.173821449279785 -2.406970977783203
2.024498701095581 2.173880100250244 -2.6914944648742676
2.024566888809204 2.173938751220703 -2.976018190383911
2.2222752571105957 1.8542208671569824 1.2918182611465454
2.2223434448242188 1.8542795181274414 1.0072946548461914
2.222411870956421 1.85433828830719 0.7227709889411926
2.222480058670044 1.854396939277649 0.43824732303619385
2.222548246383667 1.8544557094573975 0.15372370183467865
2.222616672515869 1.8545143604278564 -0.13079993426799774
2.222684860229492 1.854573130607605 -0.41532355546951294
2.2227532863616943 1.8546319007873535 -0.6998471617698669
2.2228214740753174 1.8546905517578125 -0.9843708276748657
2.2228899002075195 1.854749321937561 -1.2688944339752197
2.2229580879211426 1.85480797290802 -1.5534180402755737
2.2230265140533447 1.8548667430877686 -1.8379417657852173
2.2230947017669678 1.8549253940582275 -2.1224653720855713
2.22316312789917 1.854984164237976 -2.406989097595215
2.223231315612793 1.8550429344177246 -2.6915125846862793
2.223299741744995 1.8551015853881836 -2.976036310195923
2.3527584075927734 1.5019056797027588 1.2917768955230713
2.3528265953063965 1.5019643306732178 1.0072531700134277
2.3528950214385986 1.5020231008529663 0.7227295637130737
2.3529632091522217 1.5020817518234253 0.4382059574127197
2.353031635284424 1.5021405220031738 0.15368232131004333
2.353099822998047 1.5021991729736328 -0.13084131479263306
2.353168249130249 1.5022579431533813 -0.41536495089530945
2.353236436843872 1.5023167133331299 -0.6998885869979858
2.353304862976074 1.5023753643035889 -0.9844121932983398
2.3533730506896973 1.5024341344833374 -1.2689357995986938
2.3534414768218994 1.5024927854537964 -1.5534595251083374
2.3535096645355225 1.502551555633545 -1.8379831314086914
2.3535780906677246 1.502610206604004 -2.122506618499756
2.3536462783813477 1.5026689767837524 -2.4070303440093994
2.35371470451355 1.502727746963501 -2.691554069519043
2.353782892227173 1.50278639793396 -2.9760775566101074
2.4096500873565674 1.1305363178253174 1.291713833808899
2.4097182750701904 1.1305949687957764 1.007190227508545
2.4097867012023926 1.130653738975525 0.7226666212081909
2.4098548889160156 1.1307123899459839 0.43814295530319214
2.4099233150482178 1.1307711601257324 0.15361933410167694
2.409991502761841 1.1308298110961914 -0.13090430200099945
2.410059928894043 1.13088858127594 -0.41542792320251465
2.410128116607666 1.1309473514556885 -0.6999515891075134
2.410196542739868 1.1310060024261475 -0.9844751954078674
2.410264730453491 1.131064772605896 -1.2689988613128662
2.4103331565856934 1.131123423576355 -1.5535224676132202
2.4104013442993164 1.1311821937561035 -1.8380460739135742
2.4104697704315186 1.1312408447265625 -2.1225697994232178
2.4105379581451416 1.131299614906311 -2.4070932865142822
2.4106063842773438 1.1313583850860596 -2.691617012023926
2.410674571990967 1.1314170360565186 -2.9761404991149902
2.3906211853027344 0.7553166747093201 1.291631817817688
2.3906893730163574 0.7553753852844238 1.007108211517334
2.3907575607299805 0.7554340958595276 0.72258460521698
2.3908259868621826 0.7554928064346313 0.4380609691143036
2.3908941745758057 0.7555515170097351 0.1535373330116272
2.390962600708008 0.7556102275848389 -0.1309863030910492
2.391030788421631 0.7556689977645874 -0.4155099391937256
2.391099214553833 0.7557277083396912 -0.7000335454940796
2.391167402267456 0.7557864189147949 -0.9845572113990784
2.391235828399658 0.7558451294898987 -1.2690808773040771
2.3913040161132812 0.7559038400650024 -1.5536044836044312
2.3913724422454834 0.7559625506401062 -1.8381280899047852
2.3914406299591064 0.75602126121521 -2.1226518154144287
2.3915090560913086 0.7560800313949585 -2.407175302505493
2.3915772438049316 0.7561387419700623 -2.6916990280151367
2.391645669937134 0.756197452545166 -2.976222515106201
2.29645037651062 0.391608327627182 1.291534185409546
2.2965188026428223 0.39166703820228577 1.007010579109192
2.2965869903564453 0.3917257487773895 0.7224869132041931
2.2966554164886475 0.3917844891548157 0.4379633069038391
2.2967236042022705 0.39184319972991943 0.15343967080116272
2.2967920303344727 0.3919019103050232 -0.13108396530151367
2.2968602180480957 0.39196065068244934 -0.41560760140419006
2.296928644180298 0.3920193612575531 -0.7001312375068665
2.296996831893921 0.39207807183265686 -0.9846548438072205
2.297065258026123 0.3921367824077606 -1.2691785097122192
2.297133445739746 0.39219552278518677 -1.5537021160125732
2.2972018718719482 0.3922542333602905 -1.8382257223129272
2.2972700595855713 0.3923129439353943 -2.1227493286132812
2.2973384857177734 0.39237165451049805 -2.407273054122925
2.2974066734313965 0.3924303948879242 -2.6917965412139893
2.2974750995635986 0.39248910546302795 -2.976320266723633
2.130993604660034 0.05430153012275696 1.2914248704910278
2.1310617923736572 0.054360248148441315 1.0069012641906738
2.1311302185058594 0.05441896989941597 0.722377598285675
2.1311984062194824 0.05447768792510033 0.43785396218299866
2.1312668323516846 0.05453640595078468 0.15333032608032227
2.1313350200653076 0.05459512397646904 -0.13119329512119293
2.1314034461975098 0.0546538420021534 -0.4157169461250305
2.131471633911133 0.05471256002783775 -0.7002405524253845
2.131540060043335 0.05477128177881241 -0.9847642183303833
2.131608247756958 0.054829999804496765 -1.2692878246307373
2.13167667388916 0.05488871783018112 -1.5538114309310913
2.131744861602783 0.05494743585586548 -1.8383350372314453
2.1318132877349854 0.055006153881549835 -2.122858762741089
2.1318814754486084 0.05506487190723419 -2.4073822498321533
2.1319499015808105 0.05512359365820885 -2.691905975341797
2.1320180892944336 0.055182311683893204 -2.9764297008514404
1.9010242223739624 -0.24279434978961945 1.2913082838058472
1.901092529296875 -0.2427356243133545 1.0067846775054932
1.9011608362197876 -0.24267691373825073 0.7222610712051392
1.9012291431427002 -0.24261818826198578 0.43773743510246277
1.9012974500656128 -0.24255946278572083 0.15321381390094757
1.9013657569885254 -0.24250075221061707 -0.13130982220172882
1.901434063911438 -0.2424420267343521 -0.415833443403244
1.9015023708343506 -0.24238331615924835 -0.7003570795059204
1.9015706777572632 -0.2423245906829834 -0.9848806858062744
1.9016389846801758 -0.24226588010787964 -1.2694042921066284
1.9017072916030884 -0.24220715463161469 -1.553928017616272
1.901775598526001 -0.24214844405651093 -1.838451623916626
1.9018439054489136 -0.24208971858024597 -2.1229753494262695
1.9019122123718262 -0.2420310080051422 -2.407498836517334
1.9019805192947388 -0.24197228252887726 -2.6920225620269775
1.9020488262176514 -0.2419135719537735 -2.976546049118042
1.6159573793411255 -0.4875161647796631 1.291189432144165
1.616025686264038 -0.4874574542045593 1.006665825843811
1.6160939931869507 -0.4873987138271332 0.7221421599388123
1.6161623001098633 -0.4873400032520294 0.4376184940338135
1.6162306070327759 -0.48728129267692566 0.15309487283229828
1.6162989139556885 -0.4872225522994995 -0.1314287632703781
1.616367220878601 -0.48716384172439575 -0.4159523844718933
1.6164355278015137 -0.487105131149292 -0.7004760503768921
1.6165038347244263 -0.48704642057418823 -0.9849996566772461
1.6165721416473389 -0.4869876801967621 -1.2695232629776
1.6166404485702515 -0.4869289696216583 -1.554046869277954
1.616708755493164 -0.48687025904655457 -1.8385705947875977
1.6167770624160767 -0.4868115484714508 -2.123094081878662
1.6168453693389893 -0.48675280809402466 -2.4076178073883057
1.6169136762619019 -0.4866940975189209 -2.692141532897949
1.6169819831848145 -0.48663538694381714 -2.9766650199890137
1.2874637842178345 -0.6698449850082397 1.291072964668274
1.287532091140747 -0.669786274433136 1.0065492391586304
1.2876003980636597 -0.6697275638580322 0.7220256328582764
1.2876687049865723 -0.6696687936782837 0.43750202655792236
1.2877370119094849 -0.6696100831031799 0.15297839045524597
1.2878053188323975 -0.6695513725280762 -0.13154524564743042
1.28787362575531 -0.6694926619529724 -0.4160688817501068
1.2879419326782227 -0.6694339513778687 -0.7005925178527832
1.2880102396011353 -0.6693752408027649 -0.9851161241531372
1.2880785465240479 -0.6693165302276611 -1.2696397304534912
1.2881468534469604 -0.6692578196525574 -1.5541634559631348
1.288215160369873 -0.6691990494728088 -1.8386870622634888
1.2882834672927856 -0.6691403388977051 -2.1232106685638428
1.2883517742156982 -0.6690816283226013 -2.4077343940734863
1.2884200811386108 -0.6690229177474976 -2.692257881164551
1.2884883880615234 -0.6689642071723938 -2.9767816066741943
0.928991973400116 -0.7823162078857422 1.2909636497497559
0.9290602803230286 -0.7822574973106384 1.0064400434494019
0.9291285872459412 -0.7821987867355347 0.7219163775444031
0.9291968941688538 -0.7821400761604309 0.4373927414417267
0.9292652010917664 -0.7820813655853271 0.1528691202402115
0.9293334484100342 -0.7820226550102234 -0.1316545158624649
0.9294017553329468 -0.7819639444351196 -0.4161781370639801
0.9294700622558594 -0.7819051742553711 -0.7007017731666565
0.929538369178772 -0.7818464636802673 -0.9852253794670105
0.9296066761016846 -0.7817877531051636 -1.2697490453720093
0.9296749830245972 -0.7817290425300598 -1.5542726516723633
0.9297432899475098 -0.781670331954956 -1.8387962579727173
0.9298115968704224 -0.7816116213798523 -2.1233198642730713
0.929879903793335 -0.7815529108047485 -2.407843589782715
0.9299482107162476 -0.781494140625 -2.6923673152923584
0.9300165176391602 -0.7814354300498962 -2.976890802383423
0.5552177429199219 -0.8203253149986267 1.2908660173416138
0.5552860498428345 -0.820266604423523 1.0063424110412598
0.5553543567657471 -0.8202078938484192 0.7218188047409058
0.5554226636886597 -0.8201491832733154 0.43729516863822937
0.5554909706115723 -0.8200904726982117 0.15277154743671417
0.5555592775344849 -0.8200317621231079 -0.13175208866596222
0.5556275844573975 -0.8199730515480042 -0.4162757098674774
0.5556958913803101 -0.8199142813682556 -0.7007993459701538
0.5557641983032227 -0.8198555707931519 -0.9853229522705078
0.5558324456214905 -0.8197968602180481 -1.2698465585708618
0.5559007525444031 -0.8197381496429443 -1.5543702840805054
0.5559690594673157 -0.8196794390678406 -1.8388938903808594
0.5560373663902283 -0.8196207284927368 -2.123417615890503
0.5561056733131409 -0.8195620179176331 -2.4079411029815674
0.5561739802360535 -0.8195032477378845 -2.692464828491211
0.5562422871589661 -0.8194445371627808 -2.9769883155822754
