ply
format ascii 1.0
element vertex 512
property float x
property float y
property float z
end_header
0.5267047882080078 -1.0927660465240479 1.2957005500793457
0.5388404130935669 -1.080338716506958 1.0117076635360718
0.550976037979126 -1.0679113864898682 0.7277147173881531
0.5631117224693298 -1.0554840564727783 0.4437217712402344
0.5752473473548889 -1.0430567264556885 0.15972886979579926
0.587382972240448 -1.0306293964385986 -0.12426404654979706
0.5995185971260071 -1.0182019472122192 -0.4082569479942322
0.6116542816162109 -1.0057746171951294 -0.6922498941421509
0.62378990650177 -0.9933472871780396 -0.9762427806854248
0.6359255313873291 -0.9809199571609497 -1.2602356672286987
0.6480611562728882 -0.9684926271438599 -1.5442285537719727
0.660196840763092 -0.95606529712677 -1.8282215595245361
0.6723324656486511 -0.9436379075050354 -2.1122143268585205
0.6844680905342102 -0.9312105774879456 -2.396207332611084
0.6966037154197693 -0.9187832474708557 -2.6802003383636475
0.7087393999099731 -0.9063559174537659 -2.964193105697632
0.15327070653438568 -1.0540963411331177 1.2814350128173828
0.16540634632110596 -1.0416690111160278 0.9974421262741089
0.17754198610782623 -1.029241681098938 0.7134491801261902
0.1896776258945465 -1.0168142318725586 0.42945629358291626
0.20181326568126678 -1.0043869018554688 0.14546337723731995
0.21394890546798706 -0.9919595718383789 -0.13852953910827637
0.22608454525470734 -0.9795322418212891 -0.4225224554538727
0.2382201850414276 -0.9671049118041992 -0.706515371799469
0.2503558099269867 -0.9546775817871094 -0.9905082583427429
0.26249146461486816 -0.9422501921653748 -1.2745012044906616
0.27462708950042725 -0.9298228621482849 -1.5584940910339355
0.2867627441883087 -0.9173955321311951 -1.8424869775772095
0.2988983690738678 -0.9049682021141052 -2.1264798641204834
0.31103402376174927 -0.8925408124923706 -2.410472869873047
0.32316964864730835 -0.8801134824752808 -2.6944656372070312
0.3353053033351898 -0.8676861524581909 -2.9784586429595947
-0.2048749327659607 -0.941064178943634 1.2710769176483154
-0.1927393078804016 -0.9286367893218994 0.9870839715003967
-0.18060366809368134 -0.9162094593048096 0.7030910849571228
-0.16846802830696106 -0.9037821292877197 0.4190981686115265
-0.15633238852024078 -0.8913547992706299 0.13510523736476898
-0.1441967487335205 -0.8789274096488953 -0.14888766407966614
-0.13206110894680023 -0.8665000796318054 -0.43288058042526245
-0.11992546916007996 -0.8540727496147156 -0.7168734669685364
-0.10778982937335968 -0.841645359992981 -1.000866413116455
-0.0956541895866394 -0.8292180299758911 -1.284859299659729
-0.08351854979991913 -0.8167906999588013 -1.568852186203003
-0.07138291001319885 -0.8043633699417114 -1.8528451919555664
-0.059247273951768875 -0.7919359803199768 -2.136837959289551
-0.0471116341650486 -0.779508650302887 -2.4208309650421143
-0.03497599437832832 -0.7670813202857971 -2.7048239707946777
-0.022840356454253197 -0.7546539902687073 -2.988816738128662
-0.5330696105957031 -0.7582970857620239 1.2650501728057861
-0.520933985710144 -0.7458697557449341 0.9810572862625122
-0.508798360824585 -0.7334424257278442 0.6970643401145935
-0.4966627061367035 -0.7210150957107544 0.4130714535713196
-0.4845270812511444 -0.7085877060890198 0.12907853722572327
-0.47239142656326294 -0.6961603760719299 -0.15491437911987305
-0.46025580167770386 -0.6837330460548401 -0.43890729546546936
-0.4481201469898224 -0.6713057160377502 -0.7229002118110657
-0.4359845221042633 -0.6588783264160156 -1.0068931579589844
-0.42384886741638184 -0.6464509963989258 -1.2908860445022583
-0.41171324253082275 -0.6340236663818359 -1.5748789310455322
-0.3995775878429413 -0.6215963363647461 -1.8588718175888062
-0.3874419629573822 -0.6091689467430115 -2.14286470413208
-0.37530630826950073 -0.5967416167259216 -2.4268577098846436
-0.36317068338394165 -0.5843142867088318 -2.710850477218628
-0.3510350286960602 -0.5718868970870972 -2.9948434829711914
-0.8178769946098328 -0.5132777094841003 1.2636016607284546
-0.8057413697242737 -0.5008503198623657 0.9796087145805359
-0.7936057448387146 -0.4884229898452759 0.695615828037262
-0.7814701199531555 -0.47599565982818604 0.41162288188934326
-0.7693344950675964 -0.4635683000087738 0.12762998044490814
-0.7571988105773926 -0.45114096999168396 -0.15636293590068817
-0.7450631856918335 -0.43871361017227173 -0.4403558373451233
-0.7329275608062744 -0.4262862801551819 -0.724348783493042
-0.7207919359207153 -0.41385892033576965 -1.008341670036316
-0.7086562514305115 -0.4014315903186798 -1.2923345565795898
-0.6965206265449524 -0.3890042304992676 -1.5763274431228638
-0.6843850016593933 -0.37657690048217773 -1.8603204488754272
-0.6722493767738342 -0.3641495406627655 -2.144313335418701
-0.6601136922836304 -0.35172221064567566 -2.4283063411712646
-0.6479780673980713 -0.3392948508262634 -2.712299108505249
-0.6358424425125122 -0.3268675208091736 -2.9962921142578125
-1.0476371049880981 -0.21603702008724213 1.266790509223938
-1.035501480102539 -0.2036096751689911 0.9827976226806641
-1.02336585521698 -0.19118233025074005 0.6988047361373901
-1.0112301111221313 -0.178754985332489 0.41481178998947144
-0.999094545841217 -0.16632764041423798 0.13081888854503632
-0.9869588613510132 -0.15390029549598694 -0.15317402780056
-0.9748232364654541 -0.1414729505777359 -0.4371669292449951
-0.962687611579895 -0.12904560565948486 -0.7211598753929138
-0.9505519866943359 -0.11661826074123383 -1.0051528215408325
-0.9384163618087769 -0.10419091582298279 -1.2891457080841064
-0.926280677318573 -0.09176357090473175 -1.5731385946273804
-0.9141450524330139 -0.07933622598648071 -1.8571314811706543
-0.9020094275474548 -0.06690888106822968 -2.1411244869232178
-0.8898738026618958 -0.05448153614997864 -2.425117254257202
-0.8777381181716919 -0.0420541875064373 -2.7091102600097656
-0.8656024932861328 -0.029626844450831413 -2.993103265762329
-1.212943434715271 0.12125582247972488 1.2744863033294678
-1.200807809829712 0.13368315994739532 0.9904934167861938
-1.1886720657348633 0.14611050486564636 0.7065005302429199
-1.1765364408493042 0.1585378497838974 0.4225076138973236
-1.1644008159637451 0.17096519470214844 0.1385146975517273
-1.152265191078186 0.18339253962039948 -0.14547821879386902
-1.140129566192627 0.1958198994398117 -0.42947113513946533
-1.1279939413070679 0.20824724435806274 -0.7134640216827393
-1.1158583164215088 0.22067458927631378 -0.997456967830658
-1.1037226915359497 0.23310193419456482 -1.2814499139785767
-1.0915870666503906 0.24552927911281586 -1.5654428005218506
-1.079451322555542 0.2579566240310669 -1.8494356870651245
-1.067315697669983 0.27038395404815674 -2.1334285736083984
-1.0551800727844238 0.28281131386756897 -2.417421579360962
-1.0430444478988647 0.2952386438846588 -2.7014143466949463
-1.0309088230133057 0.30766600370407104 -2.9854073524475098
-1.3070282936096191 0.484792023897171 1.2863739728927612
-1.29489266872406 0.49721938371658325 1.0023810863494873
-1.282757043838501 0.5096467137336731 0.7183881998062134
-1.270621418952942 0.5220740437507629 0.4343952536582947
-1.2584857940673828 0.5345014333724976 0.15040235221385956
-1.2463501691818237 0.5469287633895874 -0.13359056413173676
-1.2342145442962646 0.5593560934066772 -0.4175834655761719
-1.222078800201416 0.5717834234237671 -0.7015764117240906
-1.209943175315857 0.5842108130455017 -0.9855692982673645
-1.1978075504302979 0.5966381430625916 -1.2695622444152832
-1.1856719255447388 0.6090654730796814 -1.5535551309585571
-1.1735363006591797 0.6214928030967712 -1.837548017501831
-1.1614006757736206 0.6339201927185059 -2.1215410232543945
-1.1492650508880615 0.6463475227355957 -2.405533790588379
-1.1371294260025024 0.6587748527526855 -2.6895267963409424
-1.1249936819076538 0.6712022423744202 -2.973519802093506
-1.3260400295257568 0.859688401222229 1.3019667863845825
-1.3139044046401978 0.8721157312393188 1.0179738998413086
-1.3017686605453491 0.8845431208610535 0.7339810132980347
-1.28963303565979 0.8969704508781433 0.44998806715011597
-1.277497410774231 0.9093977808952332 0.16599516570568085
-1.2653617858886719 0.921825110912323 -0.11799774318933487
-1.2532261610031128 0.9342525005340576 -0.4019906520843506
-1.2410905361175537 0.9466798305511475 -0.6859835982322693
-1.2289549112319946 0.9591071605682373 -0.9699764847755432
-1.2168192863464355 0.9715344905853271 -1.253969430923462
-1.204683542251587 0.9839618802070618 -1.5379623174667358
-1.1925479173660278 0.9963892102241516 -1.8219552040100098
-1.1804122924804688 1.0088165998458862 -2.1059482097625732
-1.1682766675949097 1.021243929862976 -2.3899409770965576
-1.1561410427093506 1.033671259880066 -2.673933982849121
-1.1440054178237915 1.0460985898971558 -2.9579269886016846
-1.269200086593628 1.230596661567688 1.3206263780593872
-1.2570644617080688 1.2430239915847778 1.0366334915161133
-1.2449288368225098 1.2554513216018677 0.7526406049728394
-1.2327930927276611 1.2678786516189575 0.46864768862724304
-1.220657467842102 1.2803059816360474 0.18465475738048553
-1.208521842956543 1.2927333116531372 -0.09933815151453018
-1.1963862180709839 1.305160641670227 -0.3833310604095459
-1.1842505931854248 1.3175880908966064 -0.6673239469528198
-1.1721149682998657 1.3300154209136963 -0.9513168931007385
-1.1599793434143066 1.3424427509307861 -1.2353098392486572
-1.1478437185287476 1.354870080947876 -1.5193027257919312
-1.1357080936431885 1.3672974109649658 -1.803295612335205
-1.1235723495483398 1.3797247409820557 -2.0872886180877686
-1.1114367246627808 1.3921520709991455 -2.371281385421753
-1.0993010997772217 1.4045794010162354 -2.6552743911743164
-1.0871654748916626 1.4170068502426147 -2.939267158508301
-1.1388355493545532 1.582331657409668 1.3415888547897339
-1.1266999244689941 1.5947589874267578 1.05759596824646
-1.114564299583435 1.6071863174438477 0.7736030220985413
-1.102428674697876 1.619613766670227 0.48961013555526733
-1.090293049812317 1.632041096687317 0.20561721920967102
-1.0781574249267578 1.6444684267044067 -0.0783756896853447
-1.0660218000411987 1.6568957567214966 -0.3623686134815216
-1.0538861751556396 1.6693230867385864 -0.6463615298271179
-1.041750431060791 1.6817504167556763 -0.9303544163703918
-1.029614806175232 1.6941777467727661 -1.2143473625183105
-1.0174791812896729 1.706605076789856 -1.4983402490615845
-1.0053435564041138 1.7190325260162354 -1.7823331356048584
-0.9932079315185547 1.7314598560333252 -2.066326141357422
-0.9810723066329956 1.743887186050415 -2.3503189086914062
-0.9689366221427917 1.7563145160675049 -2.6343119144439697
-0.9568009972572327 1.7687418460845947 -2.918304920196533
-0.9402837157249451 1.9004935026168823 1.3639960289001465
-0.9281480312347412 1.9129208326339722 1.080003023147583
-0.9160124063491821 1.925348162651062 0.7960101366043091
-0.903876781463623 1.9377754926681519 0.5120172500610352
-0.891741156578064 1.9502028226852417 0.22802433371543884
-0.8796054720878601 1.9626301527023315 -0.05596858263015747
-0.867469847202301 1.975057601928711 -0.3399614989757538
-0.8553342223167419 1.9874849319458008 -0.6239544153213501
-0.8431985974311829 1.9999122619628906 -0.907947301864624
-0.8310629725456238 2.0123395919799805 -1.191940188407898
-0.8189272880554199 2.0247669219970703 -1.4759331941604614
-0.8067916631698608 2.03719425201416 -1.7599260807037354
-0.7946560382843018 2.04962158203125 -2.043919086456299
-0.7825204133987427 2.06204891204834 -2.327911853790283
-0.7703847289085388 2.0744762420654297 -2.6119048595428467
-0.7582491040229797 2.0869035720825195 -2.895897626876831
-0.6816731095314026 2.1720564365386963 1.3869303464889526
-0.6695374846458435 2.184483766555786 1.1029374599456787
-0.6574018597602844 2.196911096572876 0.8189445734024048
-0.6452661752700806 2.209338426589966 0.5349516868591309
-0.6331305503845215 2.2217657566070557 0.25095874071121216
-0.6209949254989624 2.2341930866241455 -0.03303416818380356
-0.6088593006134033 2.2466204166412354 -0.31702709197998047
-0.5967236757278442 2.2590479850769043 -0.6010199785232544
-0.5845879912376404 2.271475315093994 -0.8850129246711731
-0.5724523663520813 2.283902645111084 -1.1690058708190918
-0.5603167414665222 2.296329975128174 -1.4529987573623657
-0.5481811165809631 2.3087573051452637 -1.7369916439056396
-0.5360454320907593 2.3211846351623535 -2.020984649658203
-0.5239098072052002 2.3336119651794434 -2.3049774169921875
-0.5117741823196411 2.346039295196533 -2.588970422744751
-0.49963852763175964 2.358466625213623 -2.8729631900787354
-0.37359142303466797 2.3859028816223145 1.4094531536102295
-0.3614557683467865 2.3983302116394043 1.1254602670669556
-0.3493201434612274 2.410757541656494 0.8414673805236816
-0.33718448877334595 2.423184871673584 0.5574744343757629
-0.32504886388778687 2.435612201690674 0.2734815180301666
-0.3129132091999054 2.4480395317077637 -0.010511385276913643
-0.3007775843143463 2.4604668617248535 -0.2945042848587036
-0.28864192962646484 2.4728941917419434 -0.5784972310066223
-0.27650630474090576 2.485321521759033 -0.8624901175498962
-0.2643706500530243 2.497748851776123 -1.146483063697815
-0.2522350251674652 2.510176181793213 -1.4304759502410889
-0.24009938538074493 2.5226035118103027 -1.7144688367843628
-0.22796374559402466 2.5350308418273926 -1.9984617233276367
-0.21582810580730438 2.5474581718444824 -2.2824547290802
-0.2036924660205841 2.5598855018615723 -2.5664474964141846
-0.19155682623386383 2.572313070297241 -2.850440502166748
-0.028651470318436623 2.5332775115966797 1.4306422472000122
-0.016515830531716347 2.5457048416137695 1.1466493606567383
-0.0043801916763186455 2.5581321716308594 0.8626564145088196
0.007755447179079056 2.570559501647949 0.5786635279655457
0.019891085103154182 2.582986831665039 0.29467058181762695
0.03202672302722931 2.595414400100708 0.010677678510546684
0.044162362813949585 2.607841730117798 -0.2733152210712433
0.05629800260066986 2.6202690601348877 -0.5573081374168396
0.06843364238739014 2.6326963901519775 -0.8413010835647583
0.08056928217411041 2.6451237201690674 -1.1252939701080322
0.09270492196083069 2.6575510501861572 -1.4092868566513062
0.10484056174755096 2.669978380203247 -1.69327974319458
0.11697619408369064 2.682405710220337 -1.9772727489471436
0.12911184132099152 2.6948330402374268 -2.261265516281128
0.1412474811077118 2.7072603702545166 -2.5452585220336914
0.15338312089443207 2.7196877002716064 -2.829251527786255
0.3390248119831085 2.608147382736206 1.4496301412582397
0.35116046667099 2.620574712753296 1.1656371355056763
0.3632960915565491 2.6330020427703857 0.8816443085670471
0.37543174624443054 2.6454293727874756 0.5976513624191284
0.3875673711299896 2.6578567028045654 0.3136584460735321
0.3997030258178711 2.6702840328216553 0.029665540903806686
0.4118386507034302 2.682711362838745 -0.25432735681533813
0.42397430539131165 2.695138692855835 -0.5383203029632568
0.4361099302768707 2.707566022872925 -0.8223131895065308
0.4482455849647522 2.7199933528900146 -1.1063060760498047
0.4603812098503113 2.7324206829071045 -1.3902989625930786
0.47251686453819275 2.7448480129241943 -1.674291968345642
0.48465248942375183 2.757275342941284 -1.958284854888916
0.4967881143093109 2.769702672958374 -2.2422778606414795
0.5089237689971924 2.782130002975464 -2.526270627975464
0.5210593938827515 2.7945573329925537 -2.8102636337280273
0.7143847346305847 2.6074466705322266 1.465639352798462
0.7265204191207886 2.6198740005493164 1.181646466255188
0.7386560440063477 2.6323013305664062 0.8976535797119141
0.7507916688919067 2.644728660583496 0.6136606335639954
0.7629272937774658 2.657155990600586 0.32966774702072144
0.7750629782676697 2.669583320617676 0.04567483812570572
0.7871986031532288 2.6820108890533447 -0.23831807076931
0.7993342280387878 2.6944382190704346 -0.5223109722137451
0.8114698529243469 2.7068655490875244 -0.8063039183616638
0.823605477809906 2.7192928791046143 -1.0902968645095825
0.8357411623001099 2.731720209121704 -1.3742897510528564
0.847876787185669 2.744147539138794 -1.6582826375961304
0.860012412071228 2.756574869155884 -1.9422755241394043
0.8721480369567871 2.7690021991729736 -2.2262685298919678
0.884283721446991 2.7814295291900635 -2.510261297225952
0.89641934633255 2.7938568592071533 -2.7942543029785156
1.0820610523223877 2.5312044620513916 1.4780147075653076
1.0941966772079468 2.5436320304870605 1.1940218210220337
1.1063323020935059 2.5560593605041504 0.910028874874115
1.118467926979065 2.5684866905212402 0.6260359883308411
1.130603551864624 2.58091402053833 0.34204304218292236
1.1427392959594727 2.59334135055542 0.05805014446377754
1.1548749208450317 2.6057686805725098 -0.22594277560710907
1.1670105457305908 2.6181960105895996 -0.5099356770515442
1.17914617061615 2.6306233406066895 -0.7939286231994629
1.191281795501709 2.6430506706237793 -1.0779215097427368
1.203417420387268 2.655478000640869 -1.3619143962860107
1.2155530452728271 2.667905330657959 -1.6459072828292847
1.2276886701583862 2.680332660675049 -1.9299002885818481
1.2398242950439453 2.6927599906921387 -2.213893175125122
1.251960039138794 2.7051873207092285 -2.4978861808776855
1.264095664024353 2.7176146507263184 -2.78187894821167
1.4270009994506836 2.382542133331299 1.486249327659607
1.4391366243362427 2.3949694633483887 1.202256441116333
1.4512722492218018 2.4073970317840576 0.9182635545730591
1.4634078741073608 2.4198243618011475 0.6342706680297852
1.47554349899292 2.4322516918182373 0.35027772188186646
1.487679123878479 2.444679021835327 0.06628481298685074
1.4998148679733276 2.457106351852417 -0.21770809590816498
1.5119504928588867 2.469533681869507 -0.5017009973526001
1.5240861177444458 2.4819610118865967 -0.7856939435005188
1.5362217426300049 2.4943883419036865 -1.0696868896484375
1.548357367515564 2.5068156719207764 -1.3536797761917114
1.560492992401123 2.519243001937866 -1.6376726627349854
1.5726286172866821 2.531670331954956 -1.9216655492782593
1.5847642421722412 2.544097661972046 -2.205658435821533
1.5968999862670898 2.5565249919891357 -2.4896514415740967
1.609035611152649 2.5689523220062256 -2.773644208908081
1.735082745552063 2.167546033859253 1.4900063276290894
1.747218370437622 2.1799733638763428 1.2060133218765259
1.7593539953231812 2.1924006938934326 0.922020435333252
1.7714896202087402 2.2048280239105225 0.638027548789978
1.7836252450942993 2.2172553539276123 0.3540346324443817
1.7957608699798584 2.229682683944702 0.070041723549366
1.8078964948654175 2.242110013961792 -0.21395118534564972
1.8200321197509766 2.254537343978882 -0.4979441165924072
1.8321678638458252 2.2669646739959717 -0.7819370031356812
1.8443034887313843 2.2793920040130615 -1.065929889678955
1.8564391136169434 2.2918193340301514 -1.3499228954315186
1.8685747385025024 2.304246664047241 -1.6339157819747925
1.8807103633880615 2.316673994064331 -1.9179086685180664
1.8928459882736206 2.329101324081421 -2.20190167427063
1.9049816131591797 2.3415286540985107 -2.4858944416046143
1.9171172380447388 2.3539559841156006 -2.7698874473571777
1.993693232536316 1.8950176239013672 1.4891315698623657
2.005828857421875 1.907444953918457 1.2051386833190918
2.0179646015167236 1.9198722839355469 0.9211457967758179
2.030100107192993 1.9322996139526367 0.637152910232544
2.042235851287842 1.9447270631790161 0.35315996408462524
2.0543713569641113 1.957154393196106 0.06916705518960953
2.06650710105896 1.9695817232131958 -0.2148258537054062
2.0786428451538086 1.9820090532302856 -0.4988187551498413
2.090778350830078 1.9944363832473755 -0.78281170129776
2.1029140949249268 2.006863832473755 -1.0668046474456787
2.1150496006011963 2.0192911624908447 -1.3507975339889526
2.127185344696045 2.0317184925079346 -1.6347904205322266
2.1393208503723145 2.0441458225250244 -1.9187833070755005
2.151456594467163 2.0565731525421143 -2.2027761936187744
2.1635921001434326 2.069000482559204 -2.486769199371338
2.1757278442382812 2.081427812576294 -2.7707619667053223
2.1922452449798584 1.5761146545410156 1.48366117477417
2.204380750656128 1.5885419845581055 1.199668288230896
2.2165164947509766 1.6009694337844849 0.9156753420829773
2.228652000427246 1.6133967638015747 0.6316824555397034
2.2407877445220947 1.6258240938186646 0.34768953919410706
2.2529232501983643 1.6382514238357544 0.06369663029909134
2.265058994293213 1.6506787538528442 -0.22029627859592438
2.2771947383880615 1.663106083869934 -0.5042892098426819
2.289330244064331 1.675533413887024 -0.7882820963859558
2.3014659881591797 1.6879607439041138 -1.0722750425338745
2.313601493835449 1.7003881931304932 -1.3562679290771484
2.325737237930298 1.712815523147583 -1.6402608156204224
2.3378727436065674 1.7252428531646729 -1.9242537021636963
2.350008487701416 1.7376701831817627 -2.2082467079162598
2.3621439933776855 1.7500975131988525 -2.492239475250244
2.374279737472534 1.7625248432159424 -2.7762324810028076
2.3226096630096436 1.2238930463790894 1.4738190174102783
2.334745168685913 1.2363203763961792 1.1898260116577148
2.3468809127807617 1.248747706413269 0.9058331251144409
2.3590166568756104 1.2611750364303589 0.621840238571167
2.37115216255188 1.2736023664474487 0.3378473222255707
2.3832879066467285 1.2860296964645386 0.05385439842939377
2.395423412322998 1.298457145690918 -0.23013851046562195
2.4075591564178467 1.3108844757080078 -0.5141314268112183
2.419694662094116 1.3233118057250977 -0.7981243133544922
2.431830406188965 1.3357391357421875 -1.0821171998977661
2.4439661502838135 1.3481664657592773 -1.3661102056503296
2.456101655960083 1.3605937957763672 -1.6501030921936035
2.4682374000549316 1.373021125793457 -1.9340959787368774
2.480372905731201 1.3854484558105469 -2.2180888652801514
2.49250864982605 1.3978759050369263 -2.502081871032715
2.5046441555023193 1.4103032350540161 -2.786074638366699
2.3794496059417725 0.8527726531028748 1.460007905960083
2.391585111618042 0.8651999831199646 1.1760149002075195
2.4037208557128906 0.8776273131370544 0.8920220136642456
2.41585636138916 0.8900546431541443 0.6080291271209717
2.427992105484009 0.9024820327758789 0.32403621077537537
2.4401278495788574 0.9149093627929688 0.04004330560564995
2.452263355255127 0.9273366928100586 -0.24394960701465607
2.4643990993499756 0.9397640228271484 -0.5279425382614136
2.476534605026245 0.9521914124488831 -0.8119354248046875
2.4886703491210938 0.9646187424659729 -1.0959283113479614
2.5008058547973633 0.9770460724830627 -1.379921317100525
2.512941598892212 0.9894734025001526 -1.6639142036437988
2.5250773429870605 1.0019007921218872 -1.9479070901870728
2.53721284866333 1.014328122138977 -2.2318999767303467
2.5493485927581787 1.026755452156067 -2.51589298248291
2.5614840984344482 1.0391827821731567 -2.7998857498168945
2.3604378700256348 0.4779472351074219 1.442793369293213
2.3725736141204834 0.4903745651245117 1.158800482749939
2.384709119796753 0.5028018951416016 0.8748075366020203
2.3968448638916016 0.5152292847633362 0.5908145904541016
2.408980369567871 0.527656614780426 0.30682170391082764
2.4211161136627197 0.5400839447975159 0.022828778252005577
2.4332516193389893 0.5525112748146057 -0.261164128780365
2.445387363433838 0.5649386644363403 -0.5451570749282837
2.4575231075286865 0.5773659944534302 -0.8291499614715576
2.469658613204956 0.58979332447052 -1.1131428480148315
2.4817943572998047 0.6022206544876099 -1.3971357345581055
2.493929862976074 0.6146480441093445 -1.681128740310669
2.506065607070923 0.6270753741264343 -1.9651216268539429
2.5182011127471924 0.6395027041435242 -2.249114513397217
2.530336856842041 0.651930034160614 -2.5331075191497803
2.5424723625183105 0.6643574237823486 -2.8171002864837646
2.266352891921997 0.11476220190525055 1.4228801727294922
2.2784886360168457 0.1271895468235016 1.1388872861862183
2.2906241416931152 0.13961689174175262 0.8548943400382996
2.302759885787964 0.15204423666000366 0.5709013938903809
2.3148956298828125 0.1644715815782547 0.28690850734710693
2.327031135559082 0.17689892649650574 0.002915583085268736
2.3391668796539307 0.18932627141475677 -0.2810773253440857
2.3513023853302 0.2017536163330078 -0.5650702714920044
2.363438129425049 0.21418096125125885 -0.8490631580352783
2.3755736351013184 0.2266083061695099 -1.1330560445785522
2.387709379196167 0.23903565108776093 -1.4170489311218262
2.3998451232910156 0.25146299600601196 -1.7010419368743896
2.411980628967285 0.2638903558254242 -1.9850348234176636
2.424116373062134 0.27631768584251404 -2.2690277099609375
2.4362518787384033 0.28874504566192627 -2.553020715713501
2.448387622833252 0.3011723756790161 -2.8370134830474854
2.101046562194824 -0.22191359102725983 1.4010835886001587
2.113182306289673 -0.2094862461090088 1.1170905828475952
2.1253180503845215 -0.19705890119075775 0.8330976963043213
2.137453556060791 -0.1846315562725067 0.5491048097610474
2.1495893001556396 -0.17220421135425568 0.26511189341545105
2.161724805831909 -0.15977686643600464 -0.01888103224337101
2.173860549926758 -0.1473495215177536 -0.3028739392757416
2.1859960556030273 -0.13492217659950256 -0.5868668556213379
2.198131799697876 -0.12249483168125153 -0.8708597421646118
2.2102673053741455 -0.11006748676300049 -1.1548526287078857
2.222403049468994 -0.09764014184474945 -1.4388456344604492
2.2345387935638428 -0.08521279692649841 -1.7228385210037231
2.2466742992401123 -0.07278545200824738 -2.006831407546997
2.258810043334961 -0.06035810708999634 -2.2908244132995605
2.2709455490112305 -0.0479307621717453 -2.574817180633545
2.283081293106079 -0.03550341725349426 -2.8588101863861084
1.8712866306304932 -0.5182966589927673 1.3782958984375
1.8834222555160522 -0.5058692693710327 1.0943028926849365
1.8955578804016113 -0.49344193935394287 0.8103100061416626
1.9076935052871704 -0.481014609336853 0.5263171195983887
1.9198291301727295 -0.4685872495174408 0.24232420325279236
1.9319647550582886 -0.45615991950035095 -0.041668713092803955
1.9441003799438477 -0.4437325596809387 -0.32566162943840027
1.9562361240386963 -0.4313052296638489 -0.6096545457839966
1.9683717489242554 -0.41887786984443665 -0.8936474323272705
1.9805073738098145 -0.4064505100250244 -1.1776403188705444
1.9926429986953735 -0.39402318000793457 -1.461633324623108
2.0047786235809326 -0.38159582018852234 -1.7456262111663818
2.0169143676757812 -0.3691684901714325 -2.0296192169189453
2.029049873352051 -0.35674113035202026 -2.3136119842529297
2.0411856174468994 -0.3443138003349304 -2.597604990005493
2.053321123123169 -0.3318864405155182 -2.8815977573394775
1.5864791870117188 -0.762252926826477 1.3554500341415405
1.5986148118972778 -0.7498255968093872 1.0714571475982666
1.610750436782837 -0.7373982667922974 0.7874642014503479
1.622886061668396 -0.7249709367752075 0.503471314907074
1.6350218057632446 -0.7125435471534729 0.21947838366031647
1.6471574306488037 -0.7001162171363831 -0.06451452523469925
1.6592930555343628 -0.6876888871192932 -0.34850743412971497
1.6714286804199219 -0.6752614974975586 -0.6325003504753113
1.683564305305481 -0.6628341674804688 -0.9164932370185852
1.69569993019104 -0.6504068374633789 -1.200486183166504
1.7078355550765991 -0.6379795074462891 -1.4844790697097778
1.7199711799621582 -0.6255521178245544 -1.7684719562530518
1.7321069240570068 -0.6131247878074646 -2.0524649620056152
1.744242548942566 -0.6006974577903748 -2.3364577293395996
1.756378173828125 -0.5882701277732849 -2.620450735092163
1.768513798713684 -0.5758427381515503 -2.9044437408447266
1.258284568786621 -0.9437949061393738 1.3334814310073853
1.2704201936721802 -0.9313675761222839 1.0494885444641113
1.2825558185577393 -0.9189402461051941 0.7654955983161926
1.2946914434432983 -0.9065129160881042 0.4815026521682739
1.3068270683288574 -0.8940855264663696 0.1975097507238388
1.3189626932144165 -0.8816581964492798 -0.08648315817117691
1.3310983180999756 -0.8692308664321899 -0.3704760670661926
1.3432339429855347 -0.8568035364151001 -0.6544690132141113
1.3553695678710938 -0.8443761467933655 -0.9384618997573853
1.3675053119659424 -0.8319488167762756 -1.2224547863006592
1.3796409368515015 -0.8195214867591858 -1.506447672843933
1.3917765617370605 -0.807094156742096 -1.7904406785964966
1.4039121866226196 -0.7946667671203613 -2.0744335651397705
1.4160478115081787 -0.7822394371032715 -2.358426570892334
1.4281834363937378 -0.7698121070861816 -2.6424193382263184
1.4403190612792969 -0.7573847770690918 -2.926412343978882
0.9001388549804688 -1.055490255355835 1.3132892847061157
0.9122744798660278 -1.0430629253387451 1.0292963981628418
0.9244101643562317 -1.0306355953216553 0.7453035116195679
0.9365457892417908 -1.0182082653045654 0.46131059527397156
0.9486814141273499 -1.005780816078186 0.17731769382953644
0.9608170390129089 -0.993353545665741 -0.10667522251605988
0.9729527235031128 -0.9809261560440063 -0.390668123960495
0.9850883483886719 -0.9684988260269165 -0.6746610403060913
0.997223973274231 -0.9560714960098267 -0.95865398645401
1.00935959815979 -0.9436441659927368 -1.2426469326019287
1.0214952230453491 -0.9312167763710022 -1.5266398191452026
1.0336308479309082 -0.9187894463539124 -1.8106327056884766
1.0457665920257568 -0.9063621163368225 -2.09462571144104
1.057902216911316 -0.8939347863197327 -2.3786184787750244
1.070037841796875 -0.881507396697998 -2.662611484527588
1.082173466682434 -0.8690800666809082 -2.9466042518615723
0.5267047882080078 -1.0927660465240479 1.2957005500793457
0.5388404130935669 -1.080338716506958 1.0117076635360718
0.550976037979126 -1.0679113864898682 0.7277147173881531
0.5631117224693298 -1.0554840564727783 0.4437217712402344
0.5752473473548889 -1.0430567264556885 0.15972886979579926
0.587382972240448 -1.0306293964385986 -0.12426404654979706
0.5995185971260071 -1.0182019472122192 -0.4082569479942322
0.6116542816162109 -1.0057746171951294 -0.6922498941421509
0.62378990650177 -0.9933472871780396 -0.9762427806854248
0.6359255313873291 -0.9809199571609497 -1.2602356672286987
0.6480611562728882 -0.9684926271438599 -1.5442285537719727
0.660196840763092 -0.95606529712677 -1.8282215595245361
0.6723324656486511 -0.9436379075050354 -2.1122143268585205
0.6844680905342102 -0.9312105774879456 -2.396207332611084
0.6966037154197693 -0.9187832474708557 -2.6802003383636475
0.7087393999099731 -0.9063559174537659 -2.964193105697632
