ply
format ascii 1.0
element vertex 512
property float x
property float y
property float z
end_header
0.000522613525390625 0.9944712519645691 -1.003055453300476
0.00021687385742552578 0.9952874779701233 -0.8735241889953613
-8.886581053957343e-05 0.9961037635803223 -0.743992805480957
-0.00039460547850467265 0.9969200491905212 -0.6144614815711975
-0.0007003451464697719 0.9977362751960754 -0.4849301874637604
-0.0010060848435387015 0.9985525608062744 -0.35539886355400085
-0.0013118245406076312 0.9993687868118286 -0.22586752474308014
-0.001617564121261239 1.0001850128173828 -0.09633619338274002
-0.0019233038183301687 1.0010013580322266 0.0331951342523098
-0.0022290435153990984 1.0018175840377808 0.16272646188735962
-0.002534783212468028 1.002633810043335 0.29225778579711914
-0.0028405229095369577 1.0034501552581787 0.42178910970687866
-0.0031462626066058874 1.004266381263733 0.5513204336166382
-0.0034520020708441734 1.005082607269287 0.6808517575263977
-0.003757741767913103 1.0058988332748413 0.8103830814361572
-0.004063481464982033 1.006715178489685 0.9399144053459167
-0.2008109986782074 0.9739949703216553 -1.0034016370773315
-0.20111674070358276 0.9748112559318542 -0.8738703727722168
-0.20142248272895813 0.9756274819374084 -0.7443389892578125
-0.2017282247543335 0.9764437675476074 -0.614807665348053
-0.20203396677970886 0.9772599935531616 -0.48527637124061584
-0.20233970880508423 0.9780762791633606 -0.3557450473308563
-0.2026454359292984 0.9788925051689148 -0.2262137085199356
-0.20295117795467377 0.9797087907791138 -0.09668237715959549
-0.20325691998004913 0.980525016784668 0.03284895047545433
-0.2035626620054245 0.9813413023948669 0.16238027811050415
-0.20386840403079987 0.9821575880050659 0.29191160202026367
-0.20417414605617523 0.9829738140106201 0.4214429259300232
-0.2044798880815506 0.9837900996208191 0.5509742498397827
-0.20478561520576477 0.9846063256263733 0.6805055737495422
-0.20509135723114014 0.9854226112365723 0.8100368976593018
-0.2053970992565155 0.9862388372421265 0.9395682215690613
-0.3939020037651062 0.9134104251861572 -1.0034756660461426
-0.39420774579048157 0.9142267107963562 -0.8739443421363831
-0.39451348781585693 0.9150429368019104 -0.7444130182266235
-0.3948192298412323 0.9158592224121094 -0.614881694316864
-0.39512497186660767 0.9166755080223083 -0.4853503406047821
-0.39543071389198303 0.9174917340278625 -0.3558190166950226
-0.395736426115036 0.9183080196380615 -0.22628769278526306
-0.3960421681404114 0.9191242456436157 -0.09675636142492294
-0.39634791016578674 0.9199405312538147 0.032774969935417175
-0.3966536521911621 0.9207567572593689 0.1623062938451767
-0.3969593942165375 0.9215730428695679 0.2918376326560974
-0.39726513624191284 0.9223892688751221 0.42136895656585693
-0.3975708782672882 0.923205554485321 0.5509002804756165
-0.3978766202926636 0.92402184009552 0.680431604385376
-0.39818236231803894 0.9248380661010742 0.8099629282951355
-0.3984881043434143 0.9256543517112732 0.939494252204895
-0.5708451867103577 0.8151980042457581 -1.0032744407653809
-0.5711509585380554 0.8160142302513123 -0.8737430572509766
-0.5714566707611084 0.8168305158615112 -0.744211733341217
-0.5717624425888062 0.8176468014717102 -0.6146804094314575
-0.5720681548118591 0.8184630274772644 -0.485149085521698
-0.5723739266395569 0.8192793130874634 -0.3556177616119385
-0.5726796388626099 0.8200955390930176 -0.22608643770217896
-0.5729854106903076 0.8209118247032166 -0.09655510634183884
-0.5732911229133606 0.8217280507087708 0.03297622129321098
-0.5735968351364136 0.8225443363189697 0.1625075489282608
-0.5739026069641113 0.8233605623245239 0.2920388877391815
-0.5742083191871643 0.8241768479347229 0.42157021164894104
-0.5745140910148621 0.8249931335449219 0.5511015057563782
-0.574819803237915 0.8258093595504761 0.6806328296661377
-0.5751255750656128 0.826625645160675 0.810164213180542
-0.5754312872886658 0.8274418711662292 0.9396955370903015
-0.7243965268135071 0.6833784580230713 -1.0028061866760254
-0.7247022986412048 0.6841947436332703 -0.8732748031616211
-0.7250080108642578 0.6850109696388245 -0.7437434792518616
-0.7253137826919556 0.6858272552490234 -0.614212155342102
-0.7256194949150085 0.6866434812545776 -0.4846808612346649
-0.7259252667427063 0.6874597668647766 -0.355149507522583
-0.7262309789657593 0.6882759928703308 -0.22561819851398468
-0.726536750793457 0.6890922784805298 -0.09608686715364456
-0.72684246301651 0.6899085640907288 0.03344446420669556
-0.727148175239563 0.690724790096283 0.16297578811645508
-0.7274539470672607 0.6915410757064819 0.2925071120262146
-0.7277596592903137 0.6923573017120361 0.4220384359359741
-0.7280654311180115 0.6931735873222351 0.5515697598457336
-0.7283711433410645 0.6939898133277893 0.6811010837554932
-0.7286769151687622 0.6948060989379883 0.8106324076652527
-0.7289826273918152 0.6956223249435425 0.9401637315750122
-0.8482696413993835 0.5233485698699951 -1.0020900964736938
-0.8485753536224365 0.5241647958755493 -0.8725587725639343
-0.8488810658454895 0.5249810814857483 -0.7430274486541748
-0.8491868376731873 0.5257973074913025 -0.6134961247444153
-0.8494925498962402 0.5266135931015015 -0.4839647710323334
-0.849798321723938 0.5274298191070557 -0.35443344712257385
-0.850104033946991 0.5282461047172546 -0.22490212321281433
-0.8504098057746887 0.5290623307228088 -0.09537079930305481
-0.8507155179977417 0.5298786163330078 0.03416052833199501
-0.8510212898254395 0.5306949019432068 0.16369186341762543
-0.8513270020484924 0.531511127948761 0.29322317242622375
-0.8516327738761902 0.53232741355896 0.42275452613830566
-0.8519384860992432 0.5331436395645142 0.5522858500480652
-0.8522442579269409 0.5339599251747131 0.6818171739578247
-0.8525499701499939 0.5347761511802673 0.8113484978675842
-0.8528556823730469 0.5355924367904663 0.9408798217773438
-0.9373930096626282 0.34165987372398376 -1.0011554956436157
-0.9376987814903259 0.34247612953186035 -0.8716241717338562
-0.9380044937133789 0.3432924151420593 -0.7420928478240967
-0.9383102655410767 0.3441086709499359 -0.6125615239143372
-0.9386159777641296 0.3449249267578125 -0.48303020000457764
-0.9389217495918274 0.3457411825656891 -0.3534988760948181
-0.9392274618148804 0.3465574383735657 -0.2239675521850586
-0.9395331740379333 0.34737369418144226 -0.09443622082471848
-0.9398389458656311 0.34818994998931885 0.035095103085041046
-0.9401446580886841 0.3490062355995178 0.16462643444538116
-0.9404504299163818 0.3498224914073944 0.2941577732563019
-0.9407561421394348 0.350638747215271 0.4236890971660614
-0.9410619139671326 0.3514550030231476 0.5532203912734985
-0.9413676261901855 0.35227125883102417 0.6827517151832581
-0.9416733980178833 0.35308751463890076 0.8122830986976624
-0.9419791102409363 0.35390377044677734 0.9418144226074219
-0.988118052482605 0.14575085043907166 -1.0000406503677368
-0.9884238243103027 0.14656710624694824 -0.8705093860626221
-0.9887295365333557 0.14738336205482483 -0.7409780621528625
-0.9890352487564087 0.14819961786270142 -0.611446738243103
-0.9893410205841064 0.1490158885717392 -0.4819153845310211
-0.9896467328071594 0.14983214437961578 -0.3523840606212616
-0.9899525046348572 0.15064840018749237 -0.22285273671150208
-0.9902582168579102 0.15146465599536896 -0.09332140535116196
-0.9905639886856079 0.15228092670440674 0.03620992228388786
-0.9908697009086609 0.15309718251228333 0.16574124991893768
-0.9911754727363586 0.1539134383201599 0.2952725887298584
-0.9914811849594116 0.1547296941280365 0.4248039126396179
-0.9917869567871094 0.15554596483707428 0.5543352365493774
-0.9920926690101624 0.15636222064495087 0.683866560459137
-0.9923984408378601 0.15717847645282745 0.8133978843688965
-0.9927041530609131 0.15799474716186523 0.942929208278656
-0.9983680248260498 -0.056358035653829575 -0.9987912774085999
-0.9986737966537476 -0.05554177612066269 -0.8692599534988403
-0.9989795088768005 -0.054725516587495804 -0.7397286295890808
-0.9992852210998535 -0.05390925705432892 -0.6101973056793213
-0.9995909929275513 -0.05309299752116203 -0.4806659519672394
-0.9998967051506042 -0.05227673798799515 -0.35113462805747986
-1.0002024173736572 -0.05146047845482826 -0.22160330414772034
-1.000508189201355 -0.05064421892166138 -0.09207198023796082
-1.0008139610290527 -0.04982795938849449 0.037459347397089005
-1.0011197328567505 -0.049011699855327606 0.16699066758155823
-1.0014253854751587 -0.04819544032216072 0.29652199149131775
-1.0017311573028564 -0.047379180788993835 0.42605331540107727
-1.0020369291305542 -0.04656292125582695 0.5555846691131592
-1.002342700958252 -0.045746661722660065 0.6851159930229187
-1.0026483535766602 -0.04493040218949318 0.8146473169326782
-1.002954125404358 -0.044114142656326294 0.9441786408424377
-0.9677233099937439 -0.25639238953590393 -0.9974583983421326
-0.9680290222167969 -0.25557613372802734 -0.867927074432373
-0.9683347940444946 -0.25475987792015076 -0.7383957505226135
-0.9686405062675476 -0.25394362211227417 -0.608864426612854
-0.9689462780952454 -0.2531273663043976 -0.4793331027030945
-0.9692519903182983 -0.252311110496521 -0.3498017489910126
-0.9695577621459961 -0.2514948546886444 -0.22027043998241425
-0.9698634743690491 -0.2506785988807678 -0.09073910862207413
-0.970169186592102 -0.24986232817173004 0.03879222273826599
-0.9704749584197998 -0.24904607236385345 0.1683235466480255
-0.9707806706428528 -0.24822980165481567 0.29785487055778503
-0.9710864424705505 -0.2474135458469391 0.42738619446754456
-0.9713921546936035 -0.2465972900390625 0.5569175481796265
-0.9716979265213013 -0.2457810342311859 0.686448872089386
-0.9720036387443542 -0.24496476352214813 0.8159801959991455
-0.972309410572052 -0.24414850771427155 0.945511519908905
-0.8974384665489197 -0.4461628198623657 -0.9960966110229492
-0.8977441787719727 -0.44534656405448914 -0.8665652871131897
-0.8980499505996704 -0.44453030824661255 -0.7370339632034302
-0.8983556628227234 -0.44371405243873596 -0.6075026392936707
-0.8986614346504211 -0.4428977966308594 -0.47797131538391113
-0.8989671468734741 -0.4420815110206604 -0.3484399914741516
-0.8992729187011719 -0.4412652552127838 -0.2189086675643921
-0.8995786309242249 -0.4404489994049072 -0.08937734365463257
-0.8998844027519226 -0.43963274359703064 0.04015398398041725
-0.9001901149749756 -0.43881648778915405 0.16968531906604767
-0.9004958868026733 -0.43800023198127747 0.299216628074646
-0.9008015990257263 -0.4371839761734009 0.4287479817867279
-0.9011073708534241 -0.4363676905632019 0.558279275894165
-0.901413083076477 -0.4355514347553253 0.6878105998039246
-0.90171879529953 -0.43473517894744873 0.8173419237136841
-0.9020245671272278 -0.43391892313957214 0.9468733072280884
-0.7903910279273987 -0.6179000735282898 -0.9947617650032043
-0.7906967401504517 -0.6170837879180908 -0.8652304410934448
-0.7910024523735046 -0.6162675619125366 -0.7356990575790405
-0.7913082242012024 -0.6154512763023376 -0.606167733669281
-0.7916139364242554 -0.6146350502967834 -0.47663643956184387
-0.7919197082519531 -0.6138187646865845 -0.34710511565208435
-0.7922254204750061 -0.6130025386810303 -0.21757377684116364
-0.7925311923027039 -0.6121862530708313 -0.08804244548082352
-0.7928369045257568 -0.6113699674606323 0.041488878428936005
-0.7931426763534546 -0.6105537414550781 0.17102020978927612
-0.7934483885765076 -0.6097374558448792 0.30055153369903564
-0.7937541604042053 -0.608921229839325 0.43008285760879517
-0.7940598726272583 -0.608104944229126 0.5596141815185547
-0.794365644454956 -0.6072887182235718 0.6891455054283142
-0.794671356678009 -0.6064724326133728 0.8186768293380737
-0.794977068901062 -0.6056561470031738 0.9482081532478333
-0.6509634256362915 -0.7645732164382935 -0.9935083389282227
-0.6512691974639893 -0.7637569308280945 -0.8639770150184631
-0.6515749096870422 -0.7629407048225403 -0.7344456911087036
-0.65188068151474 -0.7621244192123413 -0.6049143671989441
-0.652186393737793 -0.7613081336021423 -0.47538304328918457
-0.6524921655654907 -0.7604919075965881 -0.34585171937942505
-0.6527978777885437 -0.7596756219863892 -0.21632039546966553
-0.6531035900115967 -0.758859395980835 -0.086789071559906
-0.6534093618392944 -0.758043110370636 0.04274225980043411
-0.6537150740623474 -0.7572268843650818 0.17227359116077423
-0.6540208458900452 -0.7564105987548828 0.30180490016937256
-0.6543265581130981 -0.7555943727493286 0.43133625388145447
-0.6546323299407959 -0.7547780871391296 0.5608675479888916
-0.6549380421638489 -0.7539618015289307 0.6903988718986511
-0.6552438139915466 -0.7531455755233765 0.8199302554130554
-0.6555495262145996 -0.7523292899131775 0.9494615793228149
-0.4848639667034149 -0.88017737865448 -0.9923878312110901
-0.4851697087287903 -0.8793611526489258 -0.8628565073013306
-0.48547545075416565 -0.8785448670387268 -0.733325183391571
-0.485781192779541 -0.8777286410331726 -0.6037938594818115
-0.4860869348049164 -0.8769123554229736 -0.4742625057697296
-0.48639267683029175 -0.8760961294174194 -0.3447311818599701
-0.4866983890533447 -0.8752798438072205 -0.21519984304904938
-0.4870041310787201 -0.8744635581970215 -0.08566851913928986
-0.48730987310409546 -0.8736473321914673 0.043862808495759964
-0.4876156151294708 -0.8728310465812683 0.17339414358139038
-0.4879213571548462 -0.8720148205757141 0.3029254674911499
-0.48822709918022156 -0.8711985349655151 0.4324567914009094
-0.4885328412055969 -0.8703823089599609 0.561988115310669
-0.4888385832309723 -0.869566023349762 0.6915194392204285
-0.48914432525634766 -0.8687497973442078 0.821050763130188
-0.489450067281723 -0.8679335117340088 0.9505820870399475
-0.29889270663261414 -0.9599798321723938 -0.9914459586143494
-0.2991984486579895 -0.9591635465621948 -0.8619146347045898
-0.29950419068336487 -0.9583473205566406 -0.7323833107948303
-0.29980993270874023 -0.9575310349464417 -0.6028519868850708
-0.3001156747341156 -0.9567148089408875 -0.4733206629753113
-0.30042141675949097 -0.9558985233306885 -0.34378933906555176
-0.30072715878486633 -0.9550822973251343 -0.21425800025463104
-0.3010328710079193 -0.9542660117149353 -0.08472667634487152
-0.3013386130332947 -0.9534497261047363 0.0448046512901783
-0.30164435505867004 -0.9526335000991821 0.17433598637580872
-0.3019500970840454 -0.9518172144889832 0.30386731028556824
-0.3022558391094208 -0.951000988483429 0.43339863419532776
-0.30256158113479614 -0.95018470287323 0.5629299879074097
-0.3028673231601715 -0.9493684768676758 0.6924613118171692
-0.3031730651855469 -0.9485521912574768 0.8219926357269287
-0.30347880721092224 -0.9477359056472778 0.9515239596366882
-0.10066334903240204 -1.0007133483886719 -0.9907214045524597
-0.1009690910577774 -0.9998971223831177 -0.8611900806427002
-0.10127482563257217 -0.9990808367729187 -0.7316587567329407
-0.10158056765794754 -0.9982645511627197 -0.6021274328231812
-0.1018863096833229 -0.9974483251571655 -0.47259607911109924
-0.10219204425811768 -0.9966320395469666 -0.3430647552013397
-0.10249778628349304 -0.9958158135414124 -0.213533416390419
-0.10280352830886841 -0.9949995279312134 -0.08400209248065948
-0.10310926288366318 -0.9941833019256592 0.04552923142910004
-0.10341500490903854 -0.9933670163154602 0.17506055533885956
-0.10372074693441391 -0.9925507307052612 0.3045918941497803
-0.10402648150920868 -0.991734504699707 0.4341232180595398
-0.10433222353458405 -0.9909182190895081 0.5636545419692993
-0.10463796555995941 -0.9901019930839539 0.6931858658790588
-0.10494370013475418 -0.9892857074737549 0.8227171897888184
-0.10524944216012955 -0.9884694814682007 0.9522485136985779
0.10170857608318329 -1.000710368156433 -0.9902437329292297
0.10140283405780792 -0.9998940825462341 -0.8607124090194702
0.10109709948301315 -0.9990777969360352 -0.7311810851097107
0.10079135745763779 -0.998261570930481 -0.6016497611999512
0.10048561543226242 -0.997445285320282 -0.47211843729019165
0.10017987340688705 -0.9966290593147278 -0.34258711338043213
0.09987413883209229 -0.9958127737045288 -0.2130557745695114
0.09956839680671692 -0.9949965476989746 -0.0835244432091713
0.09926265478134155 -0.9941802620887756 0.046006880700588226
0.09895692020654678 -0.9933640360832214 0.17553821206092834
0.09865117818117142 -0.9925477504730225 0.30506953597068787
0.09834543615579605 -0.9917314648628235 0.4346008598804474
0.09803970158100128 -0.9909152388572693 0.5641322135925293
0.09773395955562592 -0.9900989532470703 0.6936635375022888
0.09742821753025055 -0.9892827272415161 0.8231948614120483
0.09712248295545578 -0.9884664416313171 0.9527261853218079
0.2999379336833954 -0.9599708914756775 -0.9900325536727905
0.29963219165802 -0.9591546654701233 -0.860501229763031
0.29932644963264465 -0.9583383798599243 -0.7309699058532715
0.2990207076072693 -0.9575221538543701 -0.601438581943512
0.2987149655818939 -0.9567058682441711 -0.47190725803375244
0.29840922355651855 -0.9558896422386169 -0.3423759341239929
0.2981034815311432 -0.955073356628418 -0.2128446102142334
0.2977977693080902 -0.9542571306228638 -0.08331327885389328
0.29749202728271484 -0.9534408450126648 0.04621804878115654
0.2971862852573395 -0.9526245594024658 0.17574937641620636
0.2968805432319641 -0.9518083333969116 0.3052807152271271
0.29657480120658875 -0.9509920477867126 0.4348120391368866
0.2962690591812134 -0.9501758217811584 0.5643433332443237
0.295963317155838 -0.9493595361709595 0.6938746571540833
0.29565757513046265 -0.9485433101654053 0.8234060406684875
0.2953518331050873 -0.9477270245552063 0.9529373645782471
0.48590919375419617 -0.8801629543304443 -0.9900965094566345
0.4856034517288208 -0.8793467283248901 -0.860565185546875
0.48529770970344543 -0.8785304427146912 -0.7310338616371155
0.48499196767807007 -0.8777141571044922 -0.601502537727356
0.4846862256526947 -0.876897931098938 -0.47197121381759644
0.48438048362731934 -0.876081645488739 -0.3424398899078369
0.48407474160194397 -0.8752654194831848 -0.2129085659980774
0.483769029378891 -0.8744491338729858 -0.08337724208831787
0.4834632873535156 -0.8736329078674316 0.04615408554673195
0.48315754532814026 -0.8728166222572327 0.17568540573120117
0.4828518033027649 -0.8720003962516785 0.3052167296409607
0.4825460612773895 -0.8711841106414795 0.4347480535507202
0.48224031925201416 -0.8703678250312805 0.5642793774604797
0.4819345772266388 -0.8695515990257263 0.6938107013702393
0.4816288352012634 -0.8687353134155273 0.8233420252799988
0.48132309317588806 -0.8679190874099731 0.9528734087944031
0.6520086526870728 -0.7645538449287415 -0.9904330372810364
0.6517029404640198 -0.7637375593185425 -0.8609016537666321
0.651397168636322 -0.7629212737083435 -0.7313703298568726
0.651091456413269 -0.7621050477027893 -0.601839005947113
0.6507856845855713 -0.7612887620925903 -0.4723077118396759
0.6504799723625183 -0.7604725360870361 -0.342776358127594
0.6501742601394653 -0.7596562504768372 -0.21324504911899567
0.6498684883117676 -0.758840024471283 -0.08371371775865555
0.6495627760887146 -0.758023738861084 0.04581760987639427
0.6492570042610168 -0.7572075128555298 0.1753489375114441
0.6489512920379639 -0.7563912272453308 0.3048802614212036
0.6486455202102661 -0.7555749416351318 0.43441158533096313
0.6483398079872131 -0.7547587156295776 0.5639429092407227
0.6480340361595154 -0.7539424300193787 0.6934742331504822
0.6477283239364624 -0.7531262040138245 0.8230055570602417
0.6474225521087646 -0.7523099184036255 0.9525368809700012
0.7914362549781799 -0.6178765296936035 -0.9910282492637634
0.7911304831504822 -0.6170603036880493 -0.8614968657493591
0.7908247709274292 -0.6162440180778503 -0.7319655418395996
0.7905189990997314 -0.6154277324676514 -0.6024342179298401
0.7902132868766785 -0.6146115064620972 -0.47290289402008057
0.7899075150489807 -0.6137952208518982 -0.34337157011032104
0.7896018028259277 -0.612978994846344 -0.21384024620056152
0.78929603099823 -0.612162709236145 -0.084308922290802
0.788990318775177 -0.6113464832305908 0.04522240161895752
0.7886845469474792 -0.6105301976203918 0.17475372552871704
0.7883788347244263 -0.6097139716148376 0.30428504943847656
0.7880731225013733 -0.6088976860046387 0.4338163733482361
0.7877673506736755 -0.6080814003944397 0.5633476972579956
0.7874616384506226 -0.6072651743888855 0.6928790211677551
0.7871558666229248 -0.6064488887786865 0.8224103450775146
0.7868501543998718 -0.6056326627731323 0.9519416689872742
0.8984836935997009 -0.44613611698150635 -0.9918577671051025
0.898177981376648 -0.44531986117362976 -0.862326443195343
0.8978722095489502 -0.4445035755634308 -0.7327951192855835
0.8975664973258972 -0.4436873197555542 -0.603263795375824
0.8972607254981995 -0.4428710639476776 -0.47373247146606445
0.8969550132751465 -0.442054808139801 -0.34420114755630493
0.8966492414474487 -0.44123855233192444 -0.2146698236465454
0.8963435292243958 -0.44042229652404785 -0.08513849973678589
0.896037757396698 -0.43960604071617126 0.04439282789826393
0.895732045173645 -0.4387897849082947 0.17392414808273315
0.8954262733459473 -0.4379734992980957 0.3034554719924927
0.8951205611228943 -0.4371572434902191 0.4329867959022522
0.8948147892951965 -0.43634098768234253 0.5625181198120117
0.8945090770721436 -0.43552473187446594 0.6920494437217712
0.8942033648490906 -0.43470847606658936 0.8215807676315308
0.8938975930213928 -0.43389222025871277 0.9511120915412903
0.9687685370445251 -0.2563636004924774 -0.9928877949714661
0.9684627652168274 -0.25554734468460083 -0.8633564710617065
0.9681570529937744 -0.25473108887672424 -0.733825147151947
0.9678512811660767 -0.25391483306884766 -0.6042937636375427
0.9675455689430237 -0.2530985474586487 -0.4747624695301056
0.9672398567199707 -0.2522822916507721 -0.34523114562034607
0.966934084892273 -0.2514660358428955 -0.21569980680942535
0.96662837266922 -0.2506497800350189 -0.08616848289966583
0.9663226008415222 -0.24983352422714233 0.04336284473538399
0.9660168886184692 -0.24901726841926575 0.1728941798210144
0.9657111167907715 -0.24820099771022797 0.3024255037307739
0.9654054045677185 -0.24738474190235138 0.43195682764053345
0.9650996327400208 -0.2465684860944748 0.561488151550293
0.9647939205169678 -0.2457522302865982 0.6910194754600525
0.96448814868927 -0.24493595957756042 0.820550799369812
0.964182436466217 -0.24411970376968384 0.9500821232795715
0.999413251876831 -0.05632832273840904 -0.9940760135650635
0.9991075396537781 -0.05551206320524216 -0.864544689655304
0.9988017678260803 -0.05469580367207527 -0.7350133657455444
0.9984960556030273 -0.053879544138908386 -0.6054819822311401
0.9981902837753296 -0.0530632846057415 -0.475950688123703
0.9978845715522766 -0.052247025072574615 -0.3464193642139435
0.9975787997245789 -0.05143076553940773 -0.21688802540302277
0.9972730875015259 -0.050614506006240845 -0.08735670149326324
0.9969673156738281 -0.04979824647307396 0.042174626141786575
0.9966616034507751 -0.048981986939907074 0.171705961227417
0.9963558316230774 -0.04816572740674019 0.3012372851371765
0.9960501194000244 -0.0473494678735733 0.43076860904693604
0.9957444071769714 -0.04653320834040642 0.5602999329566956
0.9954386353492737 -0.04571694880723953 0.6898312568664551
0.9951329231262207 -0.04490068927407265 0.8193625807762146
0.994827151298523 -0.04408442974090576 0.9488939046859741
0.9891632795333862 0.14578025043010712 -0.9953737854957581
0.9888575673103333 0.1465965211391449 -0.8658424615859985
0.9885517954826355 0.14741277694702148 -0.736311137676239
0.9882460832595825 0.14822903275489807 -0.6067798137664795
0.9879403114318848 0.14904528856277466 -0.47724848985671997
0.9876345992088318 0.14986155927181244 -0.34771716594696045
0.987328827381134 0.15067781507968903 -0.21818584203720093
0.987023115158081 0.1514940708875656 -0.08865451067686081
0.9867173433303833 0.1523103266954422 0.04087682068347931
0.9864116311073303 0.15312659740447998 0.17040814459323883
0.9861059188842773 0.15394285321235657 0.29993948340415955
0.9858001470565796 0.15475910902023315 0.42947080731391907
0.9854944348335266 0.15557536482810974 0.5590021014213562
0.9851886630058289 0.15639163553714752 0.6885334849357605
0.9848829507827759 0.1572078913450241 0.81806480884552
0.9845771789550781 0.1580241471529007 0.9475961327552795
0.9384382367134094 0.34168779850006104 -0.9967280626296997
0.9381325244903564 0.3425040543079376 -0.8671967387199402
0.9378267526626587 0.3433203101158142 -0.7376654148101807
0.9375210404396057 0.3441365659236908 -0.6081340909004211
0.937215268611908 0.3449528217315674 -0.4786027669906616
0.936909556388855 0.34576907753944397 -0.3490714430809021
0.9366037845611572 0.34658533334732056 -0.21954010426998138
0.9362980723381042 0.34740158915519714 -0.09000877290964127
0.9359923601150513 0.3482178747653961 0.039522551000118256
0.9356865882873535 0.3490341305732727 0.16905388236045837
0.9353808760643005 0.3498503863811493 0.2985852062702179
0.9350751042366028 0.3506666421890259 0.4281165301799774
0.9347693920135498 0.35148289799690247 0.5576478838920593
0.934463620185852 0.35229915380477905 0.6871792078018188
0.9341579079627991 0.35311540961265564 0.8167105317115784
0.9338521361351013 0.3539316654205322 0.9462418556213379
0.8493148684501648 0.5233737826347351 -0.9980833530426025
0.849009096622467 0.5241900682449341 -0.868552029132843
0.8487033843994141 0.5250062942504883 -0.7390207052230835
0.8483976125717163 0.5258225798606873 -0.609489381313324
0.8480919003486633 0.5266388058662415 -0.47995802760124207
0.8477861285209656 0.5274550914764404 -0.35042670369148254
0.8474804162979126 0.5282713174819946 -0.22089537978172302
0.8471746444702148 0.5290876030921936 -0.0913640558719635
0.8468689322471619 0.5299038887023926 0.03816726803779602
0.8465631604194641 0.5307201147079468 0.16769859194755554
0.8462574481964111 0.5315364003181458 0.29722991585731506
0.8459516763687134 0.5323526263237 0.4267612397670746
0.8456459641456604 0.5331689119338989 0.5562925934791565
0.8453402519226074 0.5339851379394531 0.685823917388916
0.8450344800949097 0.5348014235496521 0.8153552412986755
0.8447287678718567 0.5356177091598511 0.9448865652084351
0.7254417538642883 0.68340003490448 -0.9993841648101807
0.7251360416412354 0.6842162609100342 -0.8698528409004211
0.7248302698135376 0.6850325465202332 -0.7403215169906616
0.7245245575904846 0.6858487725257874 -0.6107901930809021
0.7242188453674316 0.6866650581359863 -0.4812588393688202
0.7239130735397339 0.6874813437461853 -0.35172751545906067
0.7236073613166809 0.6882975697517395 -0.22219619154930115
0.7233015894889832 0.6891138553619385 -0.09266486763954163
0.7229958772659302 0.6899300813674927 0.036866456270217896
0.7226901054382324 0.6907463669776917 0.16639778017997742
0.7223843932151794 0.6915625929832458 0.29592910408973694
0.7220786213874817 0.6923788785934448 0.42546042799949646
0.7217729091644287 0.6931951642036438 0.5549917817115784
0.721467137336731 0.694011390209198 0.6845231056213379
0.721161425113678 0.694827675819397 0.8140544295310974
0.7208556532859802 0.6956439018249512 0.9435857534408569
0.5718904137611389 0.815214991569519 -1.0005772113800049
0.5715847015380859 0.816031277179718 -0.8710459470748901
0.5712789297103882 0.8168475031852722 -0.7415146231651306
0.5709732174873352 0.8176637887954712 -0.6119832396507263
0.5706675052642822 0.8184800148010254 -0.4824519455432892
0.5703617334365845 0.8192963004112244 -0.35292062163352966
0.5700560212135315 0.8201125264167786 -0.22338928282260895
0.5697502493858337 0.8209288120269775 -0.09385795891284943
0.5694445371627808 0.8217450380325317 0.03567337244749069
0.569138765335083 0.8225613236427307 0.1652047038078308
0.56883305311203 0.8233776092529297 0.29473602771759033
0.5685272812843323 0.8241938352584839 0.42426735162734985
0.5682215690612793 0.8250101208686829 0.5537986755371094
0.5679157972335815 0.8258263468742371 0.6833299994468689
0.5676100850105286 0.826642632484436 0.8128613233566284
0.5673043131828308 0.8274588584899902 0.9423926472663879
0.39494723081588745 0.913422167301178 -1.001613736152649
0.3946414887905121 0.914238452911377 -0.8720824122428894
0.3943357467651367 0.9150546789169312 -0.7425510883331299
0.39403000473976135 0.9158709645271301 -0.6130197644233704
0.393724262714386 0.9166871905326843 -0.48348844051361084
0.3934185206890106 0.9175034761428833 -0.3539571166038513
0.39311277866363525 0.9183197021484375 -0.2244257926940918
0.3928070366382599 0.9191359877586365 -0.09489446878433228
0.3925013244152069 0.9199522733688354 0.034636858850717545
0.39219558238983154 0.9207684993743896 0.16416817903518677
0.3918898403644562 0.9215847849845886 0.2936995029449463
0.3915840983390808 0.9224010109901428 0.4232308268547058
0.39127835631370544 0.9232172966003418 0.5527621507644653
0.3909726142883301 0.924033522605896 0.6822934746742249
0.3906668722629547 0.924849808216095 0.8118247985839844
0.39036113023757935 0.925666093826294 0.9413561224937439
0.20185622572898865 0.9740009307861328 -1.0024513006210327
0.20155049860477448 0.9748172163963318 -0.8729199171066284
0.2012447565793991 0.9756335020065308 -0.7433885931968689
0.20093901455402374 0.976449728012085 -0.6138572692871094
0.20063327252864838 0.9772660136222839 -0.48432597517967224
0.200327530503273 0.9780822396278381 -0.35479462146759033
0.20002178847789764 0.9788985252380371 -0.225263312458992
0.19971606135368347 0.9797147512435913 -0.09573198109865189
0.1994103193283081 0.9805310368537903 0.03379935026168823
0.19910457730293274 0.9813473224639893 0.16333067417144775
0.19879883527755737 0.9821635484695435 0.2928619980812073
0.198493093252182 0.9829798340797424 0.4223933219909668
0.19818735122680664 0.9837960600852966 0.5519246459007263
0.19788160920143127 0.9846123456954956 0.6814559698104858
0.1975758820772171 0.9854285717010498 0.8109872937202454
0.19727014005184174 0.9862448573112488 0.9405186176300049
0.000522613525390625 0.9944712519645691 -1.003055453300476
0.00021687385742552578 0.9952874779701233 -0.8735241889953613
-8.886581053957343e-05 0.9961037635803223 -0.743992805480957
-0.00039460547850467265 0.9969200491905212 -0.6144614815711975
-0.0007003451464697719 0.9977362751960754 -0.4849301874637604
-0.0010060848435387015 0.9985525608062744 -0.35539886355400085
-0.0013118245406076312 0.9993687868118286 -0.22586752474308014
-0.001617564121261239 1.0001850128173828 -0.09633619338274002
-0.0019233038183301687 1.0010013580322266 0.0331951342523098
-0.0022290435153990984 1.0018175840377808 0.16272646188735962
-0.002534783212468028 1.002633810043335 0.29225778579711914
-0.0028405229095369577 1.0034501552581787 0.42178910970687866
-0.0031462626066058874 1.004266381263733 0.5513204336166382
-0.0034520020708441734 1.005082607269287 0.6808517575263977
-0.003757741767913103 1.0058988332748413 0.8103830814361572
-0.004063481464982033 1.006715178489685 0.9399144053459167
