ply
format ascii 1.0
element vertex 512
property float x
property float y
property float z
end_header
-0.01251208782196045 -1.0320228338241577 1.34432053565979
-0.012512095272541046 -1.0320228338241577 1.1644659042358398
-0.012512103654444218 -1.0320228338241577 0.9846112728118896
-0.012512111105024815 -1.0320228338241577 0.8047566413879395
-0.012512119486927986 -1.0320228338241577 0.6249020099639893
-0.012512126937508583 -1.0320228338241577 0.44504737854003906
-0.012512135319411755 -1.0320228338241577 0.26519274711608887
-0.012512142769992352 -1.0320228338241577 0.08533811569213867
-0.012512151151895523 -1.0320228338241577 -0.09451651573181152
-0.01251215860247612 -1.0320228338241577 -0.2743711471557617
-0.012512166053056717 -1.0320228338241577 -0.4542257785797119
-0.012512174434959888 -1.0320228338241577 -0.6340804100036621
-0.012512181885540485 -1.0320228338241577 -0.8139350414276123
-0.012512190267443657 -1.0320228338241577 -0.9937896728515625
-0.012512197718024254 -1.0320228338241577 -1.1736443042755127
-0.012512206099927425 -1.0320228338241577 -1.353498935699463
-0.2141142338514328 -1.0115219354629517 1.34432053565979
-0.214114248752594 -1.0115219354629517 1.1644659042358398
-0.214114248752594 -1.0115219354629517 0.9846112728118896
-0.2141142636537552 -1.0115219354629517 0.8047566413879395
-0.2141142636537552 -1.0115219354629517 0.6249020099639893
-0.21411427855491638 -1.0115219354629517 0.44504737854003906
-0.21411427855491638 -1.0115219354629517 0.26519274711608887
-0.21411429345607758 -1.0115219354629517 0.08533812314271927
-0.21411429345607758 -1.0115219354629517 -0.09451650828123093
-0.21411430835723877 -1.0115219354629517 -0.2743711471557617
-0.21411432325839996 -1.0115219354629517 -0.4542257785797119
-0.21411432325839996 -1.0115219354629517 -0.6340804100036621
-0.21411433815956116 -1.0115219354629517 -0.8139350414276123
-0.21411433815956116 -1.0115219354629517 -0.9937896728515625
-0.21411435306072235 -1.0115219354629517 -1.1736443042755127
-0.21411435306072235 -1.0115219354629517 -1.353498935699463
-0.4074627757072449 -0.9508584141731262 1.34432053565979
-0.4074627757072449 -0.9508584141731262 1.1644659042358398
-0.4074627757072449 -0.9508584141731262 0.9846112728118896
-0.40746280550956726 -0.9508584141731262 0.8047566413879395
-0.40746280550956726 -0.9508584141731262 0.6249020099639893
-0.40746280550956726 -0.9508584141731262 0.44504740834236145
-0.40746280550956726 -0.9508584141731262 0.26519277691841125
-0.40746283531188965 -0.9508584141731262 0.08533813059329987
-0.40746283531188965 -0.9508584141731262 -0.09451650083065033
-0.40746283531188965 -0.9508584141731262 -0.27437111735343933
-0.40746286511421204 -0.9508584141731262 -0.4542257487773895
-0.40746286511421204 -0.9508584141731262 -0.6340804100036621
-0.40746286511421204 -0.9508584141731262 -0.8139350414276123
-0.40746286511421204 -0.9508584141731262 -0.9937896728515625
-0.4074628949165344 -0.9508584141731262 -1.1736443042755127
-0.4074628949165344 -0.9508584141731262 -1.353498935699463
-0.5846419930458069 -0.8525159358978271 1.34432053565979
-0.5846419930458069 -0.8525159358978271 1.1644659042358398
-0.5846419930458069 -0.8525159358978271 0.9846112728118896
-0.5846419930458069 -0.8525159358978271 0.8047566413879395
-0.5846419930458069 -0.8525159358978271 0.6249020099639893
-0.5846419930458069 -0.8525159358978271 0.44504740834236145
-0.5846420526504517 -0.8525159358978271 0.26519277691841125
-0.5846420526504517 -0.8525159358978271 0.08533813804388046
-0.5846420526504517 -0.8525159358978271 -0.09451649338006973
-0.5846420526504517 -0.8525159358978271 -0.27437111735343933
-0.5846420526504517 -0.8525159358978271 -0.4542257487773895
-0.5846420526504517 -0.8525159358978271 -0.6340804100036621
-0.5846420526504517 -0.8525159358978271 -0.8139350414276123
-0.5846420526504517 -0.8525159358978271 -0.9937896728515625
-0.5846421122550964 -0.8525159358978271 -1.1736443042755127
-0.5846421122550964 -0.8525159358978271 -1.353498935699463
-0.7383981347084045 -0.7205206155776978 1.34432053565979
-0.7383981347084045 -0.7205206155776978 1.1644659042358398
-0.7383981347084045 -0.7205206155776978 0.9846113324165344
-0.7383981347084045 -0.7205206155776978 0.8047567009925842
-0.7383981347084045 -0.7205206155776978 0.624902069568634
-0.7383981347084045 -0.7205206155776978 0.44504740834236145
-0.7383981943130493 -0.7205206155776978 0.26519277691841125
-0.7383981943130493 -0.7205206155776978 0.08533814549446106
-0.7383981943130493 -0.7205206155776978 -0.09451648592948914
-0.7383981943130493 -0.7205206155776978 -0.27437111735343933
-0.7383981943130493 -0.7205206155776978 -0.4542257487773895
-0.7383981943130493 -0.7205206155776978 -0.6340803503990173
-0.7383981943130493 -0.7205206155776978 -0.8139349818229675
-0.7383981943130493 -0.7205206155776978 -0.9937896132469177
-0.7383982539176941 -0.7205206155776978 -1.1736443042755127
-0.7383982539176941 -0.7205206155776978 -1.353498935699463
-0.8624364137649536 -0.5602763295173645 1.34432053565979
-0.8624364137649536 -0.5602763295173645 1.1644659042358398
-0.8624364137649536 -0.5602763295173645 0.9846113324165344
-0.8624364137649536 -0.5602763295173645 0.8047567009925842
-0.8624364137649536 -0.5602763295173645 0.624902069568634
-0.8624364137649536 -0.5602763295173645 0.44504740834236145
-0.8624364733695984 -0.5602763295173645 0.26519277691841125
-0.8624364733695984 -0.5602763295173645 0.08533815294504166
-0.8624364733695984 -0.5602763295173645 -0.09451647847890854
-0.8624364733695984 -0.5602763295173645 -0.27437111735343933
-0.8624364733695984 -0.5602763295173645 -0.4542257487773895
-0.8624364733695984 -0.5602763295173645 -0.6340803503990173
-0.8624364733695984 -0.5602763295173645 -0.8139349818229675
-0.8624365329742432 -0.5602763295173645 -0.9937896132469177
-0.8624365329742432 -0.5602763295173645 -1.1736443042755127
-0.8624365329742432 -0.5602763295173645 -1.353498935699463
-0.9516786932945251 -0.3783435821533203 1.34432053565979
-0.9516786932945251 -0.3783435821533203 1.1644659042358398
-0.9516786932945251 -0.3783435821533203 0.9846113324165344
-0.9516786932945251 -0.3783435821533203 0.8047567009925842
-0.9516786932945251 -0.3783435821533203 0.624902069568634
-0.9516786932945251 -0.3783435821533203 0.44504740834236145
-0.9516787528991699 -0.3783435821533203 0.26519277691841125
-0.9516787528991699 -0.3783435821533203 0.08533816039562225
-0.9516787528991699 -0.3783435821533203 -0.09451647102832794
-0.9516787528991699 -0.3783435821533203 -0.27437111735343933
-0.9516787528991699 -0.3783435821533203 -0.4542257487773895
-0.9516787528991699 -0.3783435821533203 -0.6340803503990173
-0.9516787528991699 -0.3783435821533203 -0.8139349818229675
-0.9516788125038147 -0.3783435821533203 -0.9937896132469177
-0.9516788125038147 -0.3783435821533203 -1.1736443042755127
-0.9516788125038147 -0.3783435821533203 -1.353498935699463
-1.0024713277816772 -0.18217065930366516 1.34432053565979
-1.0024713277816772 -0.18217065930366516 1.1644659042358398
-1.0024714469909668 -0.18217065930366516 0.9846113324165344
-1.0024714469909668 -0.18217065930366516 0.8047567009925842
-1.0024714469909668 -0.18217065930366516 0.624902069568634
-1.0024714469909668 -0.18217065930366516 0.44504740834236145
-1.0024714469909668 -0.18217065930366516 0.26519277691841125
-1.0024714469909668 -0.18217065930366516 0.08533816039562225
-1.0024714469909668 -0.18217065930366516 -0.09451647102832794
-1.0024714469909668 -0.18217065930366516 -0.27437111735343933
-1.0024714469909668 -0.18217065930366516 -0.4542257487773895
-1.0024714469909668 -0.18217065930366516 -0.6340803503990173
-1.0024714469909668 -0.18217065930366516 -0.8139349818229675
-1.0024714469909668 -0.18217065930366516 -0.9937896132469177
-1.0024714469909668 -0.18217065930366516 -1.1736443042755127
-1.0024714469909668 -0.18217065930366516 -1.353498935699463
-1.0127350091934204 0.02021108753979206 1.34432053565979
-1.0127350091934204 0.02021108753979206 1.1644659042358398
-1.0127350091934204 0.02021108753979206 0.9846113324165344
-1.0127350091934204 0.02021108753979206 0.8047567009925842
-1.0127350091934204 0.02021108753979206 0.624902069568634
-1.0127350091934204 0.02021108753979206 0.44504740834236145
-1.0127350091934204 0.02021108753979206 0.26519277691841125
-1.01273512840271 0.02021108753979206 0.08533816039562225
-1.01273512840271 0.02021108753979206 -0.09451647102832794
-1.01273512840271 0.02021108753979206 -0.27437111735343933
-1.01273512840271 0.02021108753979206 -0.4542257487773895
-1.01273512840271 0.02021108753979206 -0.6340803503990173
-1.01273512840271 0.02021108753979206 -0.8139349818229675
-1.01273512840271 0.02021108753979206 -0.9937896132469177
-1.01273512840271 0.02021108753979206 -1.1736443042755127
-1.01273512840271 0.02021108753979206 -1.353498935699463
-0.9820494055747986 0.2205161303281784 1.34432053565979
-0.9820494055747986 0.2205161303281784 1.1644659042358398
-0.9820494055747986 0.2205161303281784 0.9846113324165344
-0.9820494055747986 0.2205161303281784 0.8047567009925842
-0.9820494651794434 0.2205161303281784 0.624902069568634
-0.9820494651794434 0.2205161303281784 0.44504740834236145
-0.9820494651794434 0.2205161303281784 0.26519277691841125
-0.9820494651794434 0.2205161303281784 0.08533816039562225
-0.9820494651794434 0.2205161303281784 -0.09451647102832794
-0.9820494651794434 0.2205161303281784 -0.27437111735343933
-0.9820494651794434 0.2205161303281784 -0.4542257487773895
-0.9820495247840881 0.2205161303281784 -0.6340803503990173
-0.9820495247840881 0.2205161303281784 -0.8139349818229675
-0.9820495247840881 0.2205161303281784 -0.9937896132469177
-0.9820495247840881 0.2205161303281784 -1.1736443042755127
-0.9820495247840881 0.2205161303281784 -1.353498935699463
-0.9116708636283875 0.41054394841194153 1.34432053565979
-0.9116708636283875 0.41054394841194153 1.1644659042358398
-0.9116708636283875 0.41054394841194153 0.9846113324165344
-0.9116708636283875 0.41054394841194153 0.8047567009925842
-0.9116708636283875 0.41054394841194153 0.624902069568634
-0.9116708636283875 0.41054394841194153 0.44504740834236145
-0.9116708636283875 0.41054394841194153 0.26519277691841125
-0.9116708636283875 0.41054394841194153 0.08533815294504166
-0.9116709232330322 0.41054394841194153 -0.09451647847890854
-0.9116709232330322 0.41054394841194153 -0.27437111735343933
-0.9116709232330322 0.41054394841194153 -0.4542257487773895
-0.9116709232330322 0.41054394841194153 -0.6340803503990173
-0.9116709232330322 0.41054394841194153 -0.8139349818229675
-0.9116709232330322 0.41054394841194153 -0.9937896132469177
-0.9116709232330322 0.41054394841194153 -1.1736443042755127
-0.911670982837677 0.41054394841194153 -1.353498935699463
-0.8044806122779846 0.582514762878418 1.34432053565979
-0.8044806122779846 0.582514762878418 1.1644659042358398
-0.8044806122779846 0.582514762878418 0.9846113324165344
-0.8044806122779846 0.582514762878418 0.8047567009925842
-0.8044806122779846 0.582514762878418 0.624902069568634
-0.8044806122779846 0.582514762878418 0.44504740834236145
-0.8044806718826294 0.582514762878418 0.26519277691841125
-0.8044806718826294 0.582514762878418 0.08533815294504166
-0.8044806718826294 0.582514762878418 -0.09451647847890854
-0.8044806718826294 0.582514762878418 -0.27437111735343933
-0.8044806718826294 0.582514762878418 -0.4542257487773895
-0.8044806718826294 0.582514762878418 -0.6340803503990173
-0.8044806718826294 0.582514762878418 -0.8139349818229675
-0.8044806718826294 0.582514762878418 -0.9937896132469177
-0.8044807314872742 0.582514762878418 -1.1736443042755127
-0.8044807314872742 0.582514762878418 -1.353498935699463
-0.6648670434951782 0.7293881177902222 1.34432053565979
-0.664867103099823 0.7293881177902222 1.1644659042358398
-0.664867103099823 0.7293881177902222 0.9846112728118896
-0.664867103099823 0.7293881177902222 0.8047566413879395
-0.664867103099823 0.7293881177902222 0.6249020099639893
-0.664867103099823 0.7293881177902222 0.44504740834236145
-0.664867103099823 0.7293881177902222 0.26519277691841125
-0.664867103099823 0.7293881177902222 0.08533814549446106
-0.6648671627044678 0.7293881177902222 -0.09451648592948914
-0.6648671627044678 0.7293881177902222 -0.27437111735343933
-0.6648671627044678 0.7293881177902222 -0.4542257487773895
-0.6648671627044678 0.7293881177902222 -0.6340804100036621
-0.6648671627044678 0.7293881177902222 -0.8139350414276123
-0.6648671627044678 0.7293881177902222 -0.9937896728515625
-0.6648671627044678 0.7293881177902222 -1.1736443042755127
-0.6648671627044678 0.7293881177902222 -1.353498935699463
-0.4985460638999939 0.8451509475708008 1.34432053565979
-0.4985460638999939 0.8451509475708008 1.1644659042358398
-0.4985460638999939 0.8451509475708008 0.9846112728118896
-0.4985460937023163 0.8451509475708008 0.8047566413879395
-0.4985460937023163 0.8451509475708008 0.6249020099639893
-0.4985460937023163 0.8451509475708008 0.44504740834236145
-0.4985460937023163 0.8451509475708008 0.26519277691841125
-0.49854612350463867 0.8451509475708008 0.08533813804388046
-0.49854612350463867 0.8451509475708008 -0.09451649338006973
-0.49854612350463867 0.8451509475708008 -0.27437111735343933
-0.49854612350463867 0.8451509475708008 -0.4542257487773895
-0.49854615330696106 0.8451509475708008 -0.6340804100036621
-0.49854615330696106 0.8451509475708008 -0.8139350414276123
-0.49854615330696106 0.8451509475708008 -0.9937896728515625
-0.49854615330696106 0.8451509475708008 -1.1736443042755127
-0.49854618310928345 0.8451509475708008 -1.353498935699463
-0.3123267590999603 0.925063967704773 1.34432053565979
-0.3123267590999603 0.925063967704773 1.1644659042358398
-0.3123267590999603 0.925063967704773 0.9846112728118896
-0.3123267889022827 0.925063967704773 0.8047566413879395
-0.3123267889022827 0.925063967704773 0.6249020099639893
-0.3123267889022827 0.925063967704773 0.44504737854003906
-0.3123268187046051 0.925063967704773 0.26519274711608887
-0.3123268187046051 0.925063967704773 0.08533813059329987
-0.3123268187046051 0.925063967704773 -0.09451650083065033
-0.3123268187046051 0.925063967704773 -0.2743711471557617
-0.3123268485069275 0.925063967704773 -0.4542257785797119
-0.3123268485069275 0.925063967704773 -0.6340804100036621
-0.3123268485069275 0.925063967704773 -0.8139350414276123
-0.3123268485069275 0.925063967704773 -0.9937896728515625
-0.3123268783092499 0.925063967704773 -1.1736443042755127
-0.3123268783092499 0.925063967704773 -1.353498935699463
-0.11383301019668579 0.9658554792404175 1.34432053565979
-0.11383301764726639 0.9658554792404175 1.1644659042358398
-0.11383302509784698 0.9658554792404175 0.9846112728118896
-0.11383303254842758 0.9658554792404175 0.8047566413879395
-0.11383303999900818 0.9658554792404175 0.6249020099639893
-0.11383304744958878 0.9658554792404175 0.44504737854003906
-0.11383305490016937 0.9658554792404175 0.26519274711608887
-0.11383306235074997 0.9658554792404175 0.08533812314271927
-0.11383306980133057 0.9658554792404175 -0.09451650828123093
-0.11383307725191116 0.9658554792404175 -0.2743711471557617
-0.11383308470249176 0.9658554792404175 -0.4542257785797119
-0.11383309215307236 0.9658554792404175 -0.6340804100036621
-0.11383309960365295 0.9658554792404175 -0.8139350414276123
-0.11383310705423355 0.9658554792404175 -0.9937896728515625
-0.11383311450481415 0.9658554792404175 -1.1736443042755127
-0.11383312195539474 0.9658554792404175 -1.353498935699463
0.08880883455276489 0.9658554792404175 1.34432053565979
0.0888088271021843 0.9658554792404175 1.1644659042358398
0.0888088196516037 0.9658554792404175 0.9846112728118896
0.0888088047504425 0.9658554792404175 0.8047566413879395
0.08880879729986191 0.9658554792404175 0.6249020099639893
0.08880878984928131 0.9658554792404175 0.44504737854003906
0.08880878239870071 0.9658554792404175 0.26519274711608887
0.08880877494812012 0.9658554792404175 0.08533810824155807
0.08880876749753952 0.9658554792404175 -0.09451652318239212
0.08880876004695892 0.9658554792404175 -0.2743711471557617
0.08880875259637833 0.9658554792404175 -0.4542257785797119
0.08880874514579773 0.9658554792404175 -0.6340804100036621
0.08880873769521713 0.9658554792404175 -0.8139350414276123
0.08880873024463654 0.9658554792404175 -0.9937896728515625
0.08880872279405594 0.9658554792404175 -1.1736443042755127
0.08880871534347534 0.9658554792404175 -1.353498935699463
0.28730258345603943 0.925063967704773 1.34432053565979
0.28730258345603943 0.925063967704773 1.1644659042358398
0.28730255365371704 0.925063967704773 0.9846112728118896
0.28730255365371704 0.925063967704773 0.8047566413879395
0.28730255365371704 0.925063967704773 0.6249020099639893
0.28730255365371704 0.925063967704773 0.44504737854003906
0.28730252385139465 0.925063967704773 0.26519274711608887
0.28730252385139465 0.925063967704773 0.08533810079097748
0.28730252385139465 0.925063967704773 -0.09451653063297272
0.28730252385139465 0.925063967704773 -0.2743711471557617
0.28730249404907227 0.925063967704773 -0.4542257785797119
0.28730249404907227 0.925063967704773 -0.6340804100036621
0.28730249404907227 0.925063967704773 -0.8139350414276123
0.2873024642467499 0.925063967704773 -0.9937896728515625
0.2873024642467499 0.925063967704773 -1.1736443042755127
0.2873024642467499 0.925063967704773 -1.353498935699463
0.473521888256073 0.8451509475708008 1.34432053565979
0.473521888256073 0.8451509475708008 1.1644659042358398
0.4735218584537506 0.8451509475708008 0.9846112728118896
0.4735218584537506 0.8451509475708008 0.8047566413879395
0.4735218584537506 0.8451509475708008 0.6249020099639893
0.4735218286514282 0.8451509475708008 0.4450473487377167
0.4735218286514282 0.8451509475708008 0.2651927173137665
0.4735218286514282 0.8451509475708008 0.08533809334039688
0.4735218286514282 0.8451509475708008 -0.09451653808355331
0.47352179884910583 0.8451509475708008 -0.2743711769580841
0.47352179884910583 0.8451509475708008 -0.4542258083820343
0.47352179884910583 0.8451509475708008 -0.6340804100036621
0.47352179884910583 0.8451509475708008 -0.8139350414276123
0.47352176904678345 0.8451509475708008 -0.9937896728515625
0.47352176904678345 0.8451509475708008 -1.1736443042755127
0.47352176904678345 0.8451509475708008 -1.353498935699463
0.6398428678512573 0.7293881177902222 1.34432053565979
0.6398428678512573 0.7293881177902222 1.1644659042358398
0.6398428678512573 0.7293881177902222 0.9846112728118896
0.6398428678512573 0.7293881177902222 0.8047566413879395
0.6398428678512573 0.7293881177902222 0.6249020099639893
0.6398428678512573 0.7293881177902222 0.4450473487377167
0.6398428678512573 0.7293881177902222 0.2651927173137665
0.6398428678512573 0.7293881177902222 0.08533808588981628
0.6398428082466125 0.7293881177902222 -0.09451654553413391
0.6398428082466125 0.7293881177902222 -0.2743711769580841
0.6398428082466125 0.7293881177902222 -0.4542258083820343
0.6398428082466125 0.7293881177902222 -0.6340804100036621
0.6398428082466125 0.7293881177902222 -0.8139350414276123
0.6398428082466125 0.7293881177902222 -0.9937896728515625
0.6398428082466125 0.7293881177902222 -1.1736443042755127
0.6398427486419678 0.7293881177902222 -1.353498935699463
0.7794564366340637 0.582514762878418 1.34432053565979
0.7794564366340637 0.582514762878418 1.1644659042358398
0.779456377029419 0.582514762878418 0.9846112132072449
0.779456377029419 0.582514762878418 0.8047565817832947
0.779456377029419 0.582514762878418 0.6249019503593445
0.779456377029419 0.582514762878418 0.4450473487377167
0.779456377029419 0.582514762878418 0.2651927173137665
0.779456377029419 0.582514762878418 0.08533807843923569
0.779456377029419 0.582514762878418 -0.09451655298471451
0.779456377029419 0.582514762878418 -0.2743711769580841
0.7794563174247742 0.582514762878418 -0.4542258083820343
0.7794563174247742 0.582514762878418 -0.6340804696083069
0.7794563174247742 0.582514762878418 -0.8139351010322571
0.7794563174247742 0.582514762878418 -0.9937897324562073
0.7794563174247742 0.582514762878418 -1.1736443042755127
0.7794563174247742 0.582514762878418 -1.353498935699463
0.8866466879844666 0.41054394841194153 1.34432053565979
0.8866466283798218 0.41054394841194153 1.1644659042358398
0.8866466283798218 0.41054394841194153 0.9846112132072449
0.8866466283798218 0.41054394841194153 0.8047565817832947
0.8866466283798218 0.41054394841194153 0.6249019503593445
0.8866466283798218 0.41054394841194153 0.4450473487377167
0.8866466283798218 0.41054394841194153 0.2651927173137665
0.8866466283798218 0.41054394841194153 0.08533807843923569
0.886646568775177 0.41054394841194153 -0.09451655298471451
0.886646568775177 0.41054394841194153 -0.2743711769580841
0.886646568775177 0.41054394841194153 -0.4542258083820343
0.886646568775177 0.41054394841194153 -0.6340804696083069
0.886646568775177 0.41054394841194153 -0.8139351010322571
0.886646568775177 0.41054394841194153 -0.9937897324562073
0.886646568775177 0.41054394841194153 -1.1736443042755127
0.886646568775177 0.41054394841194153 -1.353498935699463
0.9570252299308777 0.2205161303281784 1.34432053565979
0.9570252299308777 0.2205161303281784 1.1644659042358398
0.9570252299308777 0.2205161303281784 0.9846112132072449
0.9570252299308777 0.2205161303281784 0.8047565817832947
0.9570252299308777 0.2205161303281784 0.6249019503593445
0.9570251703262329 0.2205161303281784 0.4450473487377167
0.9570251703262329 0.2205161303281784 0.2651927173137665
0.9570251703262329 0.2205161303281784 0.08533807098865509
0.9570251703262329 0.2205161303281784 -0.0945165604352951
0.9570251703262329 0.2205161303281784 -0.2743711769580841
0.9570251703262329 0.2205161303281784 -0.4542258083820343
0.9570251703262329 0.2205161303281784 -0.6340804696083069
0.9570251703262329 0.2205161303281784 -0.8139351010322571
0.9570251107215881 0.2205161303281784 -0.9937897324562073
0.9570251107215881 0.2205161303281784 -1.1736443042755127
0.9570251107215881 0.2205161303281784 -1.353498935699463
0.9877108335494995 0.02021108753979206 1.34432053565979
0.9877108335494995 0.02021108753979206 1.1644659042358398
0.9877108335494995 0.02021108753979206 0.9846112132072449
0.9877108335494995 0.02021108753979206 0.8047565817832947
0.9877108335494995 0.02021108753979206 0.6249019503593445
0.9877107739448547 0.02021108753979206 0.4450473487377167
0.9877107739448547 0.02021108753979206 0.2651927173137665
0.9877107739448547 0.02021108753979206 0.08533807098865509
0.9877107739448547 0.02021108753979206 -0.0945165604352951
0.9877107739448547 0.02021108753979206 -0.2743711769580841
0.9877107739448547 0.02021108753979206 -0.4542258083820343
0.9877107739448547 0.02021108753979206 -0.6340804696083069
0.9877107739448547 0.02021108753979206 -0.8139351010322571
0.98771071434021 0.02021108753979206 -0.9937897324562073
0.98771071434021 0.02021108753979206 -1.1736443042755127
0.98771071434021 0.02021108753979206 -1.353498935699463
0.9774472117424011 -0.18217065930366516 1.34432053565979
0.9774472117424011 -0.18217065930366516 1.1644659042358398
0.9774472117424011 -0.18217065930366516 0.9846112132072449
0.9774471521377563 -0.18217065930366516 0.8047565817832947
0.9774471521377563 -0.18217065930366516 0.6249019503593445
0.9774471521377563 -0.18217065930366516 0.4450473487377167
0.9774471521377563 -0.18217065930366516 0.2651927173137665
0.9774471521377563 -0.18217065930366516 0.08533807098865509
0.9774471521377563 -0.18217065930366516 -0.0945165604352951
0.9774471521377563 -0.18217065930366516 -0.2743711769580841
0.9774470925331116 -0.18217065930366516 -0.4542258083820343
0.9774470925331116 -0.18217065930366516 -0.6340804696083069
0.9774470925331116 -0.18217065930366516 -0.8139351010322571
0.9774470925331116 -0.18217065930366516 -0.9937897324562073
0.9774470925331116 -0.18217065930366516 -1.1736443042755127
0.9774470925331116 -0.18217065930366516 -1.353498935699463
0.9266545176506042 -0.3783435821533203 1.34432053565979
0.9266545176506042 -0.3783435821533203 1.1644659042358398
0.9266545176506042 -0.3783435821533203 0.9846112132072449
0.9266544580459595 -0.3783435821533203 0.8047565817832947
0.9266544580459595 -0.3783435821533203 0.6249019503593445
0.9266544580459595 -0.3783435821533203 0.4450473487377167
0.9266544580459595 -0.3783435821533203 0.2651927173137665
0.9266544580459595 -0.3783435821533203 0.08533807098865509
0.9266544580459595 -0.3783435821533203 -0.0945165604352951
0.9266544580459595 -0.3783435821533203 -0.2743711769580841
0.9266544580459595 -0.3783435821533203 -0.4542258083820343
0.9266543984413147 -0.3783435821533203 -0.6340804696083069
0.9266543984413147 -0.3783435821533203 -0.8139351010322571
0.9266543984413147 -0.3783435821533203 -0.9937897324562073
0.9266543984413147 -0.3783435821533203 -1.1736443042755127
0.9266543984413147 -0.3783435821533203 -1.353498935699463
0.8374122381210327 -0.5602763295173645 1.34432053565979
0.8374122381210327 -0.5602763295173645 1.1644659042358398
0.8374122381210327 -0.5602763295173645 0.9846112132072449
0.8374121785163879 -0.5602763295173645 0.8047565817832947
0.8374121785163879 -0.5602763295173645 0.6249019503593445
0.8374121785163879 -0.5602763295173645 0.4450473487377167
0.8374121785163879 -0.5602763295173645 0.2651927173137665
0.8374121785163879 -0.5602763295173645 0.08533807843923569
0.8374121785163879 -0.5602763295173645 -0.09451655298471451
0.8374121785163879 -0.5602763295173645 -0.2743711769580841
0.8374121189117432 -0.5602763295173645 -0.4542258083820343
0.8374121189117432 -0.5602763295173645 -0.6340804696083069
0.8374121189117432 -0.5602763295173645 -0.8139351010322571
0.8374121189117432 -0.5602763295173645 -0.9937897324562073
0.8374121189117432 -0.5602763295173645 -1.1736443042755127
0.8374121189117432 -0.5602763295173645 -1.353498935699463
0.7133739590644836 -0.7205206155776978 1.34432053565979
0.7133739590644836 -0.7205206155776978 1.1644659042358398
0.7133738994598389 -0.7205206155776978 0.9846112132072449
0.7133738994598389 -0.7205206155776978 0.8047565817832947
0.7133738994598389 -0.7205206155776978 0.6249019503593445
0.7133738994598389 -0.7205206155776978 0.4450473487377167
0.7133738994598389 -0.7205206155776978 0.2651927173137665
0.7133738994598389 -0.7205206155776978 0.08533808588981628
0.7133738994598389 -0.7205206155776978 -0.09451654553413391
0.7133738994598389 -0.7205206155776978 -0.2743711769580841
0.7133738398551941 -0.7205206155776978 -0.4542258083820343
0.7133738398551941 -0.7205206155776978 -0.6340804696083069
0.7133738398551941 -0.7205206155776978 -0.8139351010322571
0.7133738398551941 -0.7205206155776978 -0.9937897324562073
0.7133738398551941 -0.7205206155776978 -1.1736443042755127
0.7133738398551941 -0.7205206155776978 -1.353498935699463
0.559617817401886 -0.8525159358978271 1.34432053565979
0.559617817401886 -0.8525159358978271 1.1644659042358398
0.5596177577972412 -0.8525159358978271 0.9846112728118896
0.5596177577972412 -0.8525159358978271 0.8047566413879395
0.5596177577972412 -0.8525159358978271 0.6249020099639893
0.5596177577972412 -0.8525159358978271 0.4450473487377167
0.5596177577972412 -0.8525159358978271 0.2651927173137665
0.5596177577972412 -0.8525159358978271 0.08533809334039688
0.5596177577972412 -0.8525159358978271 -0.09451653808355331
0.5596177577972412 -0.8525159358978271 -0.2743711769580841
0.5596176981925964 -0.8525159358978271 -0.4542258083820343
0.5596176981925964 -0.8525159358978271 -0.6340804100036621
0.5596176981925964 -0.8525159358978271 -0.8139350414276123
0.5596176981925964 -0.8525159358978271 -0.9937896728515625
0.5596176981925964 -0.8525159358978271 -1.1736443042755127
0.5596176981925964 -0.8525159358978271 -1.353498935699463
0.382438600063324 -0.9508584141731262 1.34432053565979
0.382438600063324 -0.9508584141731262 1.1644659042358398
0.3824385702610016 -0.9508584141731262 0.9846112728118896
0.3824385702610016 -0.9508584141731262 0.8047566413879395
0.3824385702610016 -0.9508584141731262 0.6249020099639893
0.3824385702610016 -0.9508584141731262 0.4450473487377167
0.3824385404586792 -0.9508584141731262 0.2651927173137665
0.3824385404586792 -0.9508584141731262 0.08533810079097748
0.3824385404586792 -0.9508584141731262 -0.09451653063297272
0.3824385106563568 -0.9508584141731262 -0.2743711769580841
0.3824385106563568 -0.9508584141731262 -0.4542258083820343
0.3824385106563568 -0.9508584141731262 -0.6340804100036621
0.3824385106563568 -0.9508584141731262 -0.8139350414276123
0.3824384808540344 -0.9508584141731262 -0.9937896728515625
0.3824384808540344 -0.9508584141731262 -1.1736443042755127
0.3824384808540344 -0.9508584141731262 -1.353498935699463
0.1890900582075119 -1.0115219354629517 1.34432053565979
0.1890900582075119 -1.0115219354629517 1.1644659042358398
0.1890900433063507 -1.0115219354629517 0.9846112728118896
0.1890900433063507 -1.0115219354629517 0.8047566413879395
0.18909002840518951 -1.0115219354629517 0.6249020099639893
0.18909002840518951 -1.0115219354629517 0.44504737854003906
0.18909001350402832 -1.0115219354629517 0.26519274711608887
0.18909001350402832 -1.0115219354629517 0.08533810824155807
0.18908999860286713 -1.0115219354629517 -0.09451652318239212
0.18908999860286713 -1.0115219354629517 -0.2743711471557617
0.18908998370170593 -1.0115219354629517 -0.4542257785797119
0.18908996880054474 -1.0115219354629517 -0.6340804100036621
0.18908996880054474 -1.0115219354629517 -0.8139350414276123
0.18908995389938354 -1.0115219354629517 -0.9937896728515625
0.18908995389938354 -1.0115219354629517 -1.1736443042755127
0.18908993899822235 -1.0115219354629517 -1.353498935699463
-0.01251208782196045 -1.0320228338241577 1.34432053565979
-0.012512095272541046 -1.0320228338241577 1.1644659042358398
-0.012512103654444218 -1.0320228338241577 0.9846112728118896
-0.012512111105024815 -1.0320228338241577 0.8047566413879395
-0.012512119486927986 -1.0320228338241577 0.6249020099639893
-0.012512126937508583 -1.0320228338241577 0.44504737854003906
-0.012512135319411755 -1.0320228338241577 0.26519274711608887
-0.012512142769992352 -1.0320228338241577 0.08533811569213867
-0.012512151151895523 -1.0320228338241577 -0.09451651573181152
-0.01251215860247612 -1.0320228338241577 -0.2743711471557617
-0.012512166053056717 -1.0320228338241577 -0.4542257785797119
-0.012512174434959888 -1.0320228338241577 -0.6340804100036621
-0.012512181885540485 -1.0320228338241577 -0.8139350414276123
-0.012512190267443657 -1.0320228338241577 -0.9937896728515625
-0.012512197718024254 -1.0320228338241577 -1.1736443042755127
-0.012512206099927425 -1.0320228338241577 -1.353498935699463
