ply
format ascii 1.0
element vertex 512
property float x
property float y
property float z
end_header
-1.4811657667160034 -1.7530936002731323 0.010843753814697266
-1.3013116121292114 -1.7530936002731323 0.010428454726934433
-1.1214574575424194 -1.7530936002731323 0.0100131556391716
-0.9416033029556274 -1.7530936002731323 0.009597856551408768
-0.7617491483688354 -1.7530936002731323 0.009182557463645935
-0.5818949937820435 -1.7530936002731323 0.008767258375883102
-0.40204086899757385 -1.7530936002731323 0.00835195928812027
-0.22218669950962067 -1.7530936002731323 0.007936660200357437
-0.04233255237340927 -1.7530936002731323 0.0075213611125946045
0.13752159476280212 -1.7530936002731323 0.007106062024831772
0.3173757493495941 -1.7530936002731323 0.006690762937068939
0.4972299039363861 -1.7530936002731323 0.006275463849306107
0.6770840287208557 -1.7530936002731323 0.005860164761543274
0.8569381833076477 -1.7530936002731323 0.005444865673780441
1.0367923974990845 -1.7530936002731323 0.005029566586017609
1.2166465520858765 -1.7530936002731323 0.004614267963916063
-1.4817163944244385 -1.7288451194763184 -0.22761064767837524
-1.3018622398376465 -1.7288451194763184 -0.22802594304084778
-1.1220080852508545 -1.7288451194763184 -0.2284412384033203
-0.9421539306640625 -1.7288451194763184 -0.22885654866695404
-0.7622997760772705 -1.7288451194763184 -0.22927184402942657
-0.5824456214904785 -1.7288451194763184 -0.2296871393918991
-0.4025914669036865 -1.7288451194763184 -0.23010243475437164
-0.22273731231689453 -1.7288451194763184 -0.23051774501800537
-0.042883165180683136 -1.7288451194763184 -0.2309330403804779
0.13697098195552826 -1.7288451194763184 -0.23134833574295044
0.31682515144348145 -1.7288451194763184 -0.23176363110542297
0.49667930603027344 -1.7288451194763184 -0.2321789413690567
0.6765334606170654 -1.7288451194763184 -0.23259423673152924
0.8563876152038574 -1.7288451194763184 -0.23300953209400177
1.0362417697906494 -1.7288451194763184 -0.2334248274564743
1.2160959243774414 -1.7288451194763184 -0.23384013772010803
-1.4822444915771484 -1.6570923328399658 -0.4563027024269104
-1.3023903369903564 -1.6570923328399658 -0.45671799778938293
-1.1225361824035645 -1.6570923328399658 -0.45713329315185547
-0.9426819682121277 -1.6570923328399658 -0.457548588514328
-0.7628278136253357 -1.6570923328399658 -0.45796388387680054
-0.5829737186431885 -1.6570923328399658 -0.45837917923927307
-0.4031195342540741 -1.6570923328399658 -0.4587944746017456
-0.2232653796672821 -1.6570923328399658 -0.4592097997665405
-0.04341123253107071 -1.6570923328399658 -0.45962509512901306
0.13644291460514069 -1.6570923328399658 -0.4600403904914856
0.31629708409309387 -1.6570923328399658 -0.46045568585395813
0.4961512088775635 -1.6570923328399658 -0.46087098121643066
0.6760053634643555 -1.6570923328399658 -0.4612862765789032
0.8558595180511475 -1.6570923328399658 -0.46170157194137573
1.0357136726379395 -1.6570923328399658 -0.46211686730384827
1.2155678272247314 -1.6570923328399658 -0.4625321924686432
-1.482728362083435 -1.540772795677185 -0.6658697128295898
-1.302874207496643 -1.540772795677185 -0.6662850379943848
-1.123020052909851 -1.540772795677185 -0.6667003035545349
-0.9431658983230591 -1.540772795677185 -0.6671156287193298
-0.7633117437362671 -1.540772795677185 -0.66753089427948
-0.5834575891494751 -1.540772795677185 -0.6679462194442749
-0.4036034345626831 -1.540772795677185 -0.668361485004425
-0.2237492948770523 -1.540772795677185 -0.66877681016922
-0.043895140290260315 -1.540772795677185 -0.6691920757293701
0.13595901429653168 -1.540772795677185 -0.669607400894165
0.3158131539821625 -1.540772795677185 -0.67002272605896
0.49566730856895447 -1.540772795677185 -0.6704379916191101
0.6755214929580688 -1.540772795677185 -0.670853316783905
0.8553755879402161 -1.540772795677185 -0.6712685823440552
1.0352298021316528 -1.540772795677185 -0.6716839075088501
1.2150839567184448 -1.540772795677185 -0.6720991730690002
-1.4831483364105225 -1.3846487998962402 -0.8477320075035095
-1.3032941818237305 -1.3846487998962402 -0.8481472730636597
-1.1234400272369385 -1.3846487998962402 -0.8485625982284546
-0.9435858130455017 -1.3846487998962402 -0.8489779233932495
-0.7637316584587097 -1.3846487998962402 -0.8493931889533997
-0.5838775634765625 -1.3846487998962402 -0.8498085141181946
-0.4040233790874481 -1.3846487998962402 -0.8502237796783447
-0.22416922450065613 -1.3846487998962402 -0.8506391048431396
-0.04431507736444473 -1.3846487998962402 -0.8510543704032898
0.13553906977176666 -1.3846487998962402 -0.8514696955680847
0.31539323925971985 -1.3846487998962402 -0.8518849611282349
0.49524736404418945 -1.3846487998962402 -0.8523002862930298
0.6751015186309814 -1.3846487998962402 -0.8527156114578247
0.8549556732177734 -1.3846487998962402 -0.8531308770179749
1.0348098278045654 -1.3846487998962402 -0.8535462021827698
1.2146639823913574 -1.3846487998962402 -0.8539614677429199
-1.4834870100021362 -1.195111870765686 -0.9944440722465515
-1.3036328554153442 -1.195111870765686 -0.9948593974113464
-1.1237788200378418 -1.195111870765686 -0.9952747225761414
-0.943924605846405 -1.195111870765686 -0.9956899881362915
-0.764070451259613 -1.195111870765686 -0.9961053133010864
-0.584216296672821 -1.195111870765686 -0.9965205788612366
-0.40436214208602905 -1.195111870765686 -0.9969359040260315
-0.22450800240039825 -1.195111870765686 -0.9973511695861816
-0.04465384781360626 -1.195111870765686 -0.9977664947509766
0.13520030677318573 -1.195111870765686 -0.9981817603111267
0.31505444645881653 -1.195111870765686 -0.9985970854759216
0.4949086010456085 -1.195111870765686 -0.9990124106407166
0.6747627854347229 -1.195111870765686 -0.9994276762008667
0.8546169400215149 -1.195111870765686 -0.9998430013656616
1.034471035003662 -1.195111870765686 -1.0002583265304565
1.214325189590454 -1.195111870765686 -1.000673532485962
-1.4837307929992676 -0.9799217581748962 -1.0999995470046997
-1.3038766384124756 -0.9799217581748962 -1.1004148721694946
-1.1240224838256836 -0.9799217581748962 -1.1008301973342896
-0.9441683292388916 -0.9799217581748962 -1.1012455224990845
-0.7643141746520996 -0.9799217581748962 -1.1016607284545898
-0.5844600200653076 -0.9799217581748962 -1.1020760536193848
-0.404605895280838 -0.9799217581748962 -1.1024913787841797
-0.22475174069404602 -0.9799217581748962 -1.1029067039489746
-0.04489758610725403 -0.9799217581748962 -1.1033220291137695
0.13495656847953796 -0.9799217581748962 -1.103737235069275
0.31481072306632996 -0.9799217581748962 -1.1041525602340698
0.49466487765312195 -0.9799217581748962 -1.1045678853988647
0.6745190024375916 -0.9799217581748962 -1.1049832105636597
0.8543731570243835 -0.9799217581748962 -1.1053985357284546
1.0342273712158203 -0.9799217581748962 -1.10581374168396
1.2140815258026123 -0.9799217581748962 -1.1062290668487549
-1.4838695526123047 -0.7478883862495422 -1.1600769758224487
-1.3040153980255127 -0.7478883862495422 -1.1604923009872437
-1.1241612434387207 -0.7478883862495422 -1.1609076261520386
-0.9443070888519287 -0.7478883862495422 -1.1613229513168335
-0.7644529342651367 -0.7478883862495422 -1.1617382764816284
-0.5845987796783447 -0.7478883862495422 -1.1621534824371338
-0.40474462509155273 -0.7478883862495422 -1.1625688076019287
-0.22489045560359955 -0.7478883862495422 -1.1629841327667236
-0.04503631219267845 -0.7478883862495422 -1.1633994579315186
0.13481783866882324 -0.7478883862495422 -1.163814663887024
0.31467199325561523 -0.7478883862495422 -1.1642299890518188
0.4945261478424072 -0.7478883862495422 -1.1646453142166138
0.6743803024291992 -0.7478883862495422 -1.1650606393814087
0.8542344570159912 -0.7478883862495422 -1.1654759645462036
1.0340886116027832 -0.7478883862495422 -1.165891170501709
1.2139427661895752 -0.7478883862495422 -1.166306495666504
-1.4838975667953491 -0.5085112452507019 -1.172216773033142
-1.3040434122085571 -0.5085112452507019 -1.172632098197937
-1.1241892576217651 -0.5085112452507019 -1.173047423362732
-0.9443351030349731 -0.5085112452507019 -1.1734627485275269
-0.7644809484481812 -0.5085112452507019 -1.1738780736923218
-0.5846267938613892 -0.5085112452507019 -1.1742932796478271
-0.40477263927459717 -0.5085112452507019 -1.174708604812622
-0.22491849958896637 -0.5085112452507019 -1.175123929977417
-0.04506434127688408 -0.5085112452507019 -1.175539255142212
0.13478980958461761 -0.5085112452507019 -1.1759544610977173
0.3146439492702484 -0.5085112452507019 -1.1763697862625122
0.4944981038570404 -0.5085112452507019 -1.1767851114273071
0.6743522882461548 -0.5085112452507019 -1.177200436592102
0.8542064428329468 -0.5085112452507019 -1.177615761756897
1.0340605974197388 -0.5085112452507019 -1.1780309677124023
1.2139147520065308 -0.5085112452507019 -1.1784462928771973
-1.483813762664795 -0.2715904414653778 -1.1359219551086426
-1.303959608078003 -0.2715904414653778 -1.1363372802734375
-1.124105453491211 -0.2715904414653778 -1.1367526054382324
-0.944251298904419 -0.2715904414653778 -1.1371679306030273
-0.764397144317627 -0.2715904414653778 -1.1375831365585327
-0.584542989730835 -0.2715904414653778 -1.1379984617233276
-0.40468883514404297 -0.2715904414653778 -1.1384137868881226
-0.22483468055725098 -0.2715904414653778 -1.1388291120529175
-0.04498053342103958 -0.2715904414653778 -1.1392444372177124
0.13487361371517181 -0.2715904414653778 -1.1396596431732178
0.314727783203125 -0.2715904414653778 -1.1400749683380127
0.4945819079875946 -0.2715904414653778 -1.1404902935028076
0.674436092376709 -0.2715904414653778 -1.1409056186676025
0.854290246963501 -0.2715904414653778 -1.141320824623108
1.034144401550293 -0.2715904414653778 -1.1417361497879028
1.213998556137085 -0.2715904414653778 -1.1421514749526978
-1.4836214780807495 -0.046825531870126724 -1.0526784658432007
-1.3037673234939575 -0.046825531870126724 -1.053093671798706
-1.123913288116455 -0.046825531870126724 -1.053508996963501
-0.9440590739250183 -0.046825531870126724 -1.053924322128296
-0.7642049193382263 -0.046825531870126724 -1.0543396472930908
-0.5843507647514343 -0.046825531870126724 -1.0547549724578857
-0.40449661016464233 -0.046825531870126724 -1.0551701784133911
-0.22464247047901154 -0.046825531870126724 -1.055585503578186
-0.04478831589221954 -0.046825531870126724 -1.056000828742981
0.13506583869457245 -0.046825531870126724 -1.0564161539077759
0.31491997838020325 -0.046825531870126724 -1.0568314790725708
0.49477413296699524 -0.046825531870126724 -1.0572466850280762
0.6746283173561096 -0.046825531870126724 -1.057662010192871
0.8544824719429016 -0.046825531870126724 -1.058077335357666
1.0343365669250488 -0.046825531870126724 -1.058492660522461
1.2141907215118408 -0.046825531870126724 -1.0589078664779663
-1.4833288192749023 0.1565815806388855 -0.9258941411972046
-1.3034746646881104 0.1565815806388855 -0.9263094663619995
-1.1236205101013184 0.1565815806388855 -0.9267247319221497
-0.9437662959098816 0.1565815806388855 -0.9271400570869446
-0.7639121413230896 0.1565815806388855 -0.9275553226470947
-0.5840580463409424 0.1565815806388855 -0.9279706478118896
-0.404203861951828 0.1565815806388855 -0.9283859133720398
-0.224349707365036 0.1565815806388855 -0.9288012385368347
-0.044495560228824615 0.1565815806388855 -0.9292165637016296
0.13535858690738678 0.1565815806388855 -0.9296318292617798
0.31521275639533997 0.1565815806388855 -0.9300471544265747
0.49506688117980957 0.1565815806388855 -0.9304624199867249
0.6749210357666016 0.1565815806388855 -0.9308777451515198
0.8547751903533936 0.1565815806388855 -0.9312930107116699
1.0346293449401855 0.1565815806388855 -0.9317083358764648
1.2144834995269775 0.1565815806388855 -0.9321236610412598
-1.4829474687576294 0.3303033709526062 -0.760759711265564
-1.3030933141708374 0.3303033709526062 -0.7611749768257141
-1.1232391595840454 0.3303033709526062 -0.761590301990509
-0.9433850049972534 0.3303033709526062 -0.762005627155304
-0.7635308504104614 0.3303033709526062 -0.7624208927154541
-0.5836766958236694 0.3303033709526062 -0.762836217880249
-0.40382254123687744 0.3303033709526062 -0.7632514834403992
-0.22396840155124664 0.3303033709526062 -0.7636668086051941
-0.04411425068974495 0.3303033709526062 -0.7640820741653442
0.13573990762233734 0.3303033709526062 -0.7644973993301392
0.31559404730796814 0.3303033709526062 -0.7649126648902893
0.49544820189476013 0.3303033709526062 -0.7653279900550842
0.6753023266792297 0.3303033709526062 -0.7657433152198792
0.8551564812660217 0.3303033709526062 -0.7661585807800293
1.0350106954574585 0.3303033709526062 -0.7665739059448242
1.2148648500442505 0.3303033709526062 -0.7669891715049744
-1.4824931621551514 0.46722766757011414 -0.5640357136726379
-1.3026390075683594 0.46722766757011414 -0.5644510388374329
-1.1227848529815674 0.46722766757011414 -0.564866304397583
-0.9429307579994202 0.46722766757011414 -0.5652816295623779
-0.7630766034126282 0.46722766757011414 -0.5656968951225281
-0.5832224488258362 0.46722766757011414 -0.566112220287323
-0.4033682942390442 0.46722766757011414 -0.5665275454521179
-0.2235141545534134 0.46722766757011414 -0.5669428110122681
-0.0436599999666214 0.46722766757011414 -0.567358136177063
0.1361941546201706 0.46722766757011414 -0.5677734017372131
0.3160482943058014 0.46722766757011414 -0.5681887269020081
0.4959024488925934 0.46722766757011414 -0.5686039924621582
0.6757566332817078 0.46722766757011414 -0.5690193176269531
0.8556107878684998 0.46722766757011414 -0.5694345831871033
1.035464882850647 0.46722766757011414 -0.5698499083518982
1.215319037437439 0.46722766757011414 -0.5702652335166931
-1.4819846153259277 0.561748743057251 -0.3437761068344116
-1.3021304607391357 0.561748743057251 -0.34419140219688416
-1.1222763061523438 0.561748743057251 -0.3446066975593567
-0.9424221515655518 0.561748743057251 -0.3450219929218292
-0.7625679969787598 0.561748743057251 -0.34543731808662415
-0.5827138423919678 0.561748743057251 -0.3458526134490967
-0.40285971760749817 0.561748743057251 -0.3462679088115692
-0.22300554811954498 0.561748743057251 -0.34668320417404175
-0.04315140098333359 0.561748743057251 -0.3470984995365143
0.1367027461528778 0.561748743057251 -0.3475137948989868
0.3165569007396698 0.561748743057251 -0.34792909026145935
0.4964110553264618 0.561748743057251 -0.3483443856239319
0.6762651801109314 0.561748743057251 -0.3487597107887268
0.8561193346977234 0.561748743057251 -0.34917500615119934
1.0359735488891602 0.561748743057251 -0.3495903015136719
1.2158277034759521 0.561748743057251 -0.3500055968761444
-1.4814424514770508 0.6099969744682312 -0.10899831354618073
-1.3015882968902588 0.6099969744682312 -0.10941361635923386
-1.1217341423034668 0.6099969744682312 -0.10982891172170639
-0.9418800473213196 0.6099969744682312 -0.11024421453475952
-0.7620258927345276 0.6099969744682312 -0.11065950989723206
-0.5821717381477356 0.6099969744682312 -0.11107481271028519
-0.4023175835609436 0.6099969744682312 -0.11149010807275772
-0.2224634289741516 0.6099969744682312 -0.11190541088581085
-0.04260927811264992 0.6099969744682312 -0.11232070624828339
0.13724488019943237 0.6099969744682312 -0.11273600906133652
0.31709903478622437 0.6099969744682312 -0.11315130442380905
0.49695318937301636 0.6099969744682312 -0.11356660723686218
0.6768073439598083 0.6099969744682312 -0.11398190259933472
0.8566614985466003 0.6099969744682312 -0.11439720541238785
1.0365155935287476 0.6099969744682312 -0.11481250077486038
1.2163697481155396 0.6099969744682312 -0.11522780358791351
-1.480889081954956 0.6099969744682312 0.13068582117557526
-1.301034927368164 0.6099969744682312 0.13027052581310272
-1.121180772781372 0.6099969744682312 0.1298552304506302
-0.9413265585899353 0.6099969744682312 0.12943992018699646
-0.7614724040031433 0.6099969744682312 0.12902462482452393
-0.5816183090209961 0.6099969744682312 0.1286093294620514
-0.4017641246318817 0.6099969744682312 0.12819403409957886
-0.22190997004508972 0.6099969744682312 0.12777872383594513
-0.042055826634168625 0.6099969744682312 0.1273634284734726
0.13779832422733307 0.6099969744682312 0.12694813311100006
0.31765246391296387 0.6099969744682312 0.12653283774852753
0.49750661849975586 0.6099969744682312 0.1261175274848938
0.6773607730865479 0.6099969744682312 0.12570223212242126
0.8572149276733398 0.6099969744682312 0.12528693675994873
1.0370690822601318 0.6099969744682312 0.1248716339468956
1.2169232368469238 0.6099969744682312 0.12445633858442307
-1.480346918106079 0.561748743057251 0.36546361446380615
-1.300492763519287 0.561748743057251 0.3650483191013336
-1.1206386089324951 0.561748743057251 0.3646330237388611
-0.9407844543457031 0.561748743057251 0.36421772837638855
-0.7609302997589111 0.561748743057251 0.363802433013916
-0.5810761451721191 0.561748743057251 0.3633871078491211
-0.40122202038764954 0.561748743057251 0.36297181248664856
-0.22136785089969635 0.561748743057251 0.362556517124176
-0.041513703763484955 0.561748743057251 0.3621412217617035
0.13834044337272644 0.561748743057251 0.36172592639923096
0.31819459795951843 0.561748743057251 0.3613106310367584
0.4980487525463104 0.561748743057251 0.3608953356742859
0.67790287733078 0.561748743057251 0.36048004031181335
0.857757031917572 0.561748743057251 0.36006471514701843
1.0376112461090088 0.561748743057251 0.3596494197845459
1.2174654006958008 0.561748743057251 0.35923412442207336
-1.4798383712768555 0.46722766757011414 0.5857232213020325
-1.2999842166900635 0.46722766757011414 0.5853079557418823
-1.1201300621032715 0.46722766757011414 0.5848926305770874
-0.9402758479118347 0.46722766757011414 0.5844773054122925
-0.7604216933250427 0.46722766757011414 0.5840620398521423
-0.5805675387382507 0.46722766757011414 0.5836467146873474
-0.40071341395378113 0.46722766757011414 0.5832314491271973
-0.22085925936698914 0.46722766757011414 0.5828161239624023
-0.041005104780197144 0.46722766757011414 0.5824008584022522
0.13884904980659485 0.46722766757011414 0.5819855332374573
0.31870320439338684 0.46722766757011414 0.5815702676773071
0.49855735898017883 0.46722766757011414 0.5811549425125122
0.6784114837646484 0.46722766757011414 0.5807396173477173
0.8582656383514404 0.46722766757011414 0.5803243517875671
1.0381197929382324 0.46722766757011414 0.5799090266227722
1.2179739475250244 0.46722766757011414 0.5794937610626221
-1.4793840646743774 0.3303033709526062 0.7824472188949585
-1.2995299100875854 0.3303033709526062 0.7820318937301636
-1.1196757555007935 0.3303033709526062 0.7816166281700134
-0.9398216009140015 0.3303033709526062 0.7812013030052185
-0.7599674463272095 0.3303033709526062 0.7807860374450684
-0.5801132917404175 0.3303033709526062 0.7803707122802734
-0.4002591669559479 0.3303033709526062 0.7799553871154785
-0.2204049974679947 0.3303033709526062 0.7795401215553284
-0.040550850331783295 0.3303033709526062 0.7791247963905334
0.1393032968044281 0.3303033709526062 0.7787095308303833
0.3191574513912201 0.3303033709526062 0.7782942056655884
0.4990116059780121 0.3303033709526062 0.7778789401054382
0.6788657307624817 0.3303033709526062 0.7774636149406433
0.8587198853492737 0.3303033709526062 0.7770483493804932
1.0385740995407104 0.3303033709526062 0.7766330242156982
1.2184282541275024 0.3303033709526062 0.7762176990509033
-1.4790027141571045 0.1565815806388855 0.9475816488265991
-1.2991485595703125 0.1565815806388855 0.947166383266449
-1.1192944049835205 0.1565815806388855 0.946751058101654
-0.9394403100013733 0.1565815806388855 0.9463357329368591
-0.7595861554145813 0.1565815806388855 0.945920467376709
-0.5797320008277893 0.1565815806388855 0.9455051422119141
-0.3998778462409973 0.1565815806388855 0.9450898766517639
-0.22002369165420532 0.1565815806388855 0.944674551486969
-0.04016954079270363 0.1565815806388855 0.9442592859268188
0.13968461751937866 0.1565815806388855 0.9438439607620239
0.31953877210617065 0.1565815806388855 0.943428635597229
0.49939292669296265 0.1565815806388855 0.9430133700370789
0.6792470812797546 0.1565815806388855 0.9425980448722839
0.8591012358665466 0.1565815806388855 0.9421827793121338
1.0389553308486938 0.1565815806388855 0.9417674541473389
1.2188094854354858 0.1565815806388855 0.9413521885871887
-1.4787100553512573 -0.046825531870126724 1.0743659734725952
-1.2988559007644653 -0.046825531870126724 1.0739506483078003
-1.1190017461776733 -0.046825531870126724 1.0735353231430054
-0.9391475319862366 -0.046825531870126724 1.0731199979782104
-0.7592933773994446 -0.046825531870126724 1.072704792022705
-0.5794392228126526 -0.046825531870126724 1.0722894668579102
-0.399585098028183 -0.046825531870126724 1.0718741416931152
-0.219730943441391 -0.046825531870126724 1.0714588165283203
-0.0398767851293087 -0.046825531870126724 1.0710434913635254
0.139977365732193 -0.046825531870126724 1.07062828540802
0.319831520318985 -0.046825531870126724 1.070212960243225
0.499685674905777 -0.046825531870126724 1.0697976350784302
0.6795397996902466 -0.046825531870126724 1.0693823099136353
0.8593939542770386 -0.046825531870126724 1.0689671039581299
1.0392481088638306 -0.046825531870126724 1.068551778793335
1.2191022634506226 -0.046825531870126724 1.06813645362854
-1.478517770767212 -0.2715904414653778 1.157609462738037
-1.29866361618042 -0.2715904414653778 1.1571942567825317
-1.118809461593628 -0.2715904414653778 1.1567789316177368
-0.9389553070068359 -0.2715904414653778 1.156363606452942
-0.759101152420044 -0.2715904414653778 1.155948281288147
-0.579246997833252 -0.2715904414653778 1.155532956123352
-0.39939287304878235 -0.2715904414653778 1.1551177501678467
-0.21953871846199036 -0.2715904414653778 1.1547024250030518
-0.03968456760048866 -0.2715904414653778 1.1542870998382568
0.14016959071159363 -0.2715904414653778 1.153871774673462
0.3200237452983856 -0.2715904414653778 1.153456449508667
0.4998778998851776 -0.2715904414653778 1.1530412435531616
0.6797320246696472 -0.2715904414653778 1.1526259183883667
0.8595861792564392 -0.2715904414653778 1.1522105932235718
1.039440393447876 -0.2715904414653778 1.1517952680587769
1.219294548034668 -0.2715904414653778 1.1513800621032715
-1.4784339666366577 -0.5085112452507019 1.1939042806625366
-1.2985798120498657 -0.5085112452507019 1.1934890747070312
-1.1187256574630737 -0.5085112452507019 1.1930737495422363
-0.9388715028762817 -0.5085112452507019 1.1926584243774414
-0.7590173482894897 -0.5085112452507019 1.1922430992126465
-0.5791631937026978 -0.5085112452507019 1.1918278932571411
-0.39930906891822815 -0.5085112452507019 1.1914125680923462
-0.21945491433143616 -0.5085112452507019 1.1909972429275513
-0.039600759744644165 -0.5085112452507019 1.1905819177627563
0.14025339484214783 -0.5085112452507019 1.1901665925979614
0.3201075494289398 -0.5085112452507019 1.189751386642456
0.4999617040157318 -0.5085112452507019 1.1893360614776611
0.6798158288002014 -0.5085112452507019 1.1889207363128662
0.8596699833869934 -0.5085112452507019 1.1885054111480713
1.0395241975784302 -0.5085112452507019 1.188090205192566
1.2193783521652222 -0.5085112452507019 1.187674880027771
-1.4784619808197021 -0.7478883862495422 1.1817644834518433
-1.2986078262329102 -0.7478883862495422 1.181349277496338
-1.1187536716461182 -0.7478883862495422 1.180933952331543
-0.938899576663971 -0.7478883862495422 1.180518627166748
-0.759045422077179 -0.7478883862495422 1.1801033020019531
-0.579191267490387 -0.7478883862495422 1.1796880960464478
-0.3993370831012726 -0.7478883862495422 1.1792727708816528
-0.21948294341564178 -0.7478883862495422 1.178857445716858
-0.03962879255414009 -0.7478883862495422 1.178442120552063
0.1402253657579422 -0.7478883862495422 1.178026795387268
0.320079505443573 -0.7478883862495422 1.1776115894317627
0.499933660030365 -0.7478883862495422 1.1771962642669678
0.679787814617157 -0.7478883862495422 1.1767809391021729
0.859641969203949 -0.7478883862495422 1.176365613937378
1.0394960641860962 -0.7478883862495422 1.175950288772583
1.2193502187728882 -0.7478883862495422 1.1755350828170776
-1.4786007404327393 -0.9799217581748962 1.1216870546340942
-1.2987465858459473 -0.9799217581748962 1.1212718486785889
-1.1188924312591553 -0.9799217581748962 1.120856523513794
-0.9390382766723633 -0.9799217581748962 1.120441198348999
-0.7591841220855713 -0.9799217581748962 1.120025873184204
-0.5793299674987793 -0.9799217581748962 1.1196105480194092
-0.3994758129119873 -0.9799217581748962 1.1191953420639038
-0.2196216732263565 -0.9799217581748962 1.1187800168991089
-0.039767514914274216 -0.9799217581748962 1.118364691734314
0.14008663594722748 -0.9799217581748962 1.117949366569519
0.3199407756328583 -0.9799217581748962 1.1175341606140137
0.49979493021965027 -0.9799217581748962 1.1171188354492188
0.6796491146087646 -0.9799217581748962 1.1167035102844238
0.8595032691955566 -0.9799217581748962 1.116288185119629
1.0393574237823486 -0.9799217581748962 1.115872859954834
1.2192115783691406 -0.9799217581748962 1.1154576539993286
-1.4788445234298706 -1.195111870765686 1.0161316394805908
-1.2989903688430786 -1.195111870765686 1.015716314315796
-1.1191362142562866 -1.195111870765686 1.015300989151001
-0.9392820000648499 -1.195111870765686 1.014885663986206
-0.7594278454780579 -1.195111870765686 1.0144704580307007
-0.5795736908912659 -1.195111870765686 1.0140551328659058
-0.39971956610679626 -1.195111870765686 1.0136398077011108
-0.21986541152000427 -1.195111870765686 1.013224482536316
-0.04001125320792198 -1.195111870765686 1.012809157371521
0.1398428976535797 -1.195111870765686 1.0123939514160156
0.3196970522403717 -1.195111870765686 1.0119786262512207
0.4995512068271637 -1.195111870765686 1.0115633010864258
0.6794053316116333 -1.195111870765686 1.0111479759216309
0.8592594861984253 -1.195111870765686 1.0107327699661255
1.0391136407852173 -1.195111870765686 1.0103174448013306
1.2189677953720093 -1.195111870765686 1.0099021196365356
-1.4791831970214844 -1.3846487998962402 0.869419515132904
-1.2993290424346924 -1.3846487998962402 0.8690041899681091
-1.1194748878479004 -1.3846487998962402 0.868588924407959
-0.9396207928657532 -1.3846487998962402 0.8681735992431641
-0.7597666382789612 -1.3846487998962402 0.8677583336830139
-0.5799124836921692 -1.3846487998962402 0.867343008518219
-0.4000583291053772 -1.3846487998962402 0.8669276833534241
-0.2202041745185852 -1.3846487998962402 0.8665124177932739
-0.04035002365708351 -1.3846487998962402 0.866097092628479
0.13950413465499878 -1.3846487998962402 0.8656818270683289
0.31935828924179077 -1.3846487998962402 0.8652665019035339
0.49921244382858276 -1.3846487998962402 0.8648512363433838
0.6790665984153748 -1.3846487998962402 0.8644359111785889
0.8589207530021667 -1.3846487998962402 0.8640206456184387
1.038774847984314 -1.3846487998962402 0.8636053204536438
1.218629002571106 -1.3846487998962402 0.8631899952888489
-1.4796031713485718 -1.540772795677185 0.6875572204589844
-1.2997490167617798 -1.540772795677185 0.6871418952941895
-1.1198948621749878 -1.540772795677185 0.6867266297340393
-0.9400407075881958 -1.540772795677185 0.6863113045692444
-0.7601865530014038 -1.540772795677185 0.6858960390090942
-0.5803323984146118 -1.540772795677185 0.6854807138442993
-0.4004782736301422 -1.540772795677185 0.6850654482841492
-0.22062411904335022 -1.540772795677185 0.6846501231193542
-0.04076996073126793 -1.540772795677185 0.6842347979545593
0.13908419013023376 -1.540772795677185 0.6838195323944092
0.31893834471702576 -1.540772795677185 0.6834042072296143
0.49879249930381775 -1.540772795677185 0.6829889416694641
0.6786466240882874 -1.540772795677185 0.6825736165046692
0.8585007786750793 -1.540772795677185 0.682158350944519
1.0383549928665161 -1.540772795677185 0.6817430257797241
1.218209147453308 -1.540772795677185 0.681327760219574
-1.4800870418548584 -1.6570923328399658 0.47799021005630493
-1.3002328872680664 -1.6570923328399658 0.4775749146938324
-1.1203787326812744 -1.6570923328399658 0.4771595895290375
-0.9405246376991272 -1.6570923328399658 0.47674429416656494
-0.7606704831123352 -1.6570923328399658 0.4763289988040924
-0.5808163285255432 -1.6570923328399658 0.4759137034416199
-0.4009621739387512 -1.6570923328399658 0.47549840807914734
-0.22110801935195923 -1.6570923328399658 0.4750831127166748
-0.041253868490457535 -1.6570923328399658 0.47466781735420227
0.13860028982162476 -1.6570923328399658 0.47425252199172974
0.31845444440841675 -1.6570923328399658 0.4738371968269348
0.49830859899520874 -1.6570923328399658 0.4734219014644623
0.6781627535820007 -1.6570923328399658 0.47300660610198975
0.8580169081687927 -1.6570923328399658 0.4725913107395172
1.03787100315094 -1.6570923328399658 0.4721760153770447
1.217725157737732 -1.6570923328399658 0.47176072001457214
-1.4806151390075684 -1.7288451194763184 0.24929815530776978
-1.3007609844207764 -1.7288451194763184 0.24888285994529724
-1.1209068298339844 -1.7288451194763184 0.2484675496816635
-0.9410526752471924 -1.7288451194763184 0.24805225431919098
-0.7611985206604004 -1.7288451194763184 0.24763695895671844
-0.5813443660736084 -1.7288451194763184 0.2472216635942459
-0.4014902412891388 -1.7288451194763184 0.24680635333061218
-0.2216360867023468 -1.7288451194763184 0.24639105796813965
-0.041781939566135406 -1.7288451194763184 0.24597576260566711
0.138072207570076 -1.7288451194763184 0.24556046724319458
0.3179263770580292 -1.7288451194763184 0.24514515697956085
0.49778053164482117 -1.7288451194763184 0.24472986161708832
0.6776346564292908 -1.7288451194763184 0.24431456625461578
0.8574888110160828 -1.7288451194763184 0.24389927089214325
1.0373430252075195 -1.7288451194763184 0.24348396062850952
1.2171971797943115 -1.7288451194763184 0.243068665266037
-1.4811657667160034 -1.7530936002731323 0.010843753814697266
-1.3013116121292114 -1.7530936002731323 0.010428454726934433
-1.1214574575424194 -1.7530936002731323 0.0100131556391716
-0.9416033029556274 -1.7530936002731323 0.009597856551408768
-0.7617491483688354 -1.7530936002731323 0.009182557463645935
-0.5818949937820435 -1.7530936002731323 0.008767258375883102
-0.40204086899757385 -1.7530936002731323 0.00835195928812027
-0.22218669950962067 -1.7530936002731323 0.007936660200357437
-0.04233255237340927 -1.7530936002731323 0.0075213611125946045
0.13752159476280212 -1.7530936002731323 0.007106062024831772
0.3173757493495941 -1.7530936002731323 0.006690762937068939
0.4972299039363861 -1.7530936002731323 0.006275463849306107
0.6770840287208557 -1.7530936002731323 0.005860164761543274
0.8569381833076477 -1.7530936002731323 0.005444865673780441
1.0367923974990845 -1.7530936002731323 0.005029566586017609
1.2166465520858765 -1.7530936002731323 0.004614267963916063
