ply
format ascii 1.0
element vertex 1600
property float x
property float y
property float z
end_header
-0.34917470812797546 -0.29954636096954346 -0.8909313082695007
-0.31998804211616516 -0.3901900053024292 -0.8656144142150879
-0.3087269365787506 -0.46248525381088257 -0.8359530568122864
-0.3117813467979431 -0.5199863910675049 -0.802564263343811
-0.3264094889163971 -0.5652644038200378 -0.7659353017807007
-0.35043492913246155 -0.6002196073532104 -0.7264798283576965
-0.38204798102378845 -0.6262848973274231 -0.6845760345458984
-0.41966912150382996 -0.6445617079734802 -0.6405949592590332
-0.46185213327407837 -0.6559152603149414 -0.5949227213859558
-0.5072143077850342 -0.6610437035560608 -0.5479779839515686
-0.5543845891952515 -0.6605289578437805 -0.5002273321151733
-0.6019660234451294 -0.6548765301704407 -0.45219552516937256
-0.6485108733177185 -0.6445481777191162 -0.40447571873664856
-0.6925064921379089 -0.6299868822097778 -0.3577338457107544
-0.7326667308807373 -0.6116560101509094 -0.3126881420612335
-0.7688383460044861 -0.5900938510894775 -0.27001723647117615
-0.8011534214019775 -0.5658518671989441 -0.23038089275360107
-0.8297414779663086 -0.5394765734672546 -0.19443610310554504
-0.8547289967536926 -0.5115101337432861 -0.1628374308347702
-0.876240074634552 -0.48249080777168274 -0.1362377107143402
-0.8943962454795837 -0.4529534578323364 -0.11528831720352173
-0.9093167185783386 -0.42342960834503174 -0.10063942521810532
-0.9211184978485107 -0.3944483995437622 -0.09294065088033676
-0.9299170970916748 -0.36653655767440796 -0.09284131973981857
-0.9358254075050354 -0.3402191400527954 -0.10099069774150848
-0.9389554858207703 -0.31601962447166443 -0.11803838610649109
-0.9394171833992004 -0.2944599390029907 -0.14463463425636292
-0.9371951818466187 -0.27606910467147827 -0.18097877502441406
-0.9317768216133118 -0.26140183210372925 -0.2254827916622162
-0.9225168228149414 -0.2510112226009369 -0.2761635184288025
-0.908750057220459 -0.2454521656036377 -0.331106960773468
-0.8897773027420044 -0.24529603123664856 -0.3884682059288025
-0.864845335483551 -0.2511492073535919 -0.44646304845809937
-0.8331237435340881 -0.26367467641830444 -0.5033509135246277
-0.7936756014823914 -0.2836189270019531 -0.5574100613594055
-0.7454202175140381 -0.3118446469306946 -0.6069034337997437
-0.6870850920677185 -0.34937241673469543 -0.6500338315963745
-0.6171432137489319 -0.3974340558052063 -0.6848859190940857
-0.5337297320365906 -0.45754367113113403 -0.7093498110771179
-0.4345282018184662 -0.5315935015678406 -0.7210204005241394
-0.19326840341091156 -0.38088110089302063 -0.8917469382286072
-0.21388626098632812 -0.4817415177822113 -0.8413928747177124
-0.2401771992444992 -0.5620269775390625 -0.7885712385177612
-0.2711392343044281 -0.6253545880317688 -0.7335708141326904
-0.30595704913139343 -0.6744075417518616 -0.6766729354858398
-0.3439304232597351 -0.7112151980400085 -0.6181707382202148
-0.3844245970249176 -0.7373413443565369 -0.5583849549293518
-0.42683446407318115 -0.7540144920349121 -0.49767646193504333
-0.4705575704574585 -0.762222170829773 -0.4364582300186157
-0.5149734020233154 -0.762778639793396 -0.3752043843269348
-0.5594281554222107 -0.7563786506652832 -0.31445854902267456
-0.603222668170929 -0.7436385750770569 -0.25484028458595276
-0.6456053256988525 -0.7251298427581787 -0.1970483958721161
-0.6857689619064331 -0.7014070153236389 -0.14186197519302368
-0.7230185866355896 -0.6730520725250244 -0.09008529782295227
-0.7572908401489258 -0.6407432556152344 -0.04236435517668724
-0.7886819243431091 -0.6051722764968872 0.0007017653551883996
-0.8172846436500549 -0.5670207738876343 0.03851408511400223
-0.8431885242462158 -0.5269618630409241 0.07047215849161148
-0.8664799928665161 -0.4856608211994171 0.09597248584032059
-0.8872414827346802 -0.44377729296684265 0.11440664529800415
-0.90555340051651 -0.4019659459590912 0.1251598298549652
-0.9214920997619629 -0.36087867617607117 0.12760867178440094
-0.9351311326026917 -0.32116568088531494 0.1211194321513176
-0.9465407729148865 -0.2834775447845459 0.10504581034183502
-0.9557883143424988 -0.24846655130386353 0.07872684299945831
-0.9629380702972412 -0.21678879857063293 0.041484396904706955
-0.9678499698638916 -0.18908463418483734 -0.00694437837228179
-0.969575047492981 -0.16591551899909973 -0.06510355323553085
-0.9669533967971802 -0.14782938361167908 -0.1311187446117401
-0.9588096141815186 -0.13538490235805511 -0.2031279057264328
-0.9439481496810913 -0.1291550099849701 -0.27927738428115845
-0.9211463332176208 -0.1297309398651123 -0.35771605372428894
-0.8891468644142151 -0.1377267688512802 -0.43658897280693054
-0.8466496467590332 -0.15378421545028687 -0.5140295624732971
-0.7923022508621216 -0.17857865989208221 -0.5881506204605103
-0.7246889472007751 -0.2128252536058426 -0.6570337414741516
-0.6423177719116211 -0.2572864592075348 -0.7187172770500183
-0.5436065196990967 -0.31278014183044434 -0.7711825370788574
-0.42686644196510315 -0.38018932938575745 -0.8123373985290527
-0.06942986696958542 -0.44997748732566833 -0.8818119764328003
-0.12394563108682632 -0.5575851202011108 -0.8107362985610962
-0.17565515637397766 -0.6431148648262024 -0.7384989261627197
-0.22516046464443207 -0.7100977301597595 -0.6652681231498718
-0.2728976905345917 -0.7612268328666687 -0.5912585258483887
-0.31917619705200195 -0.7985930442810059 -0.5167355537414551
-0.36420488357543945 -0.823849081993103 -0.44202083349227905
-0.408110111951828 -0.838326096534729 -0.36749696731567383
-0.4509471356868744 -0.8431192636489868 -0.2936130166053772
-0.492708683013916 -0.8391532301902771 -0.2208889275789261
-0.5333305597305298 -0.8272314071655273 -0.14991982281208038
-0.5726956129074097 -0.8080763220787048 -0.08137845993041992
-0.6106369495391846 -0.7823617458343506 -0.016015920788049698
-0.6469411253929138 -0.750739336013794 0.04533965885639191
-0.6814074516296387 -0.7138856053352356 0.10186190158128738
-0.7140287756919861 -0.672577977180481 0.15297158062458038
-0.7448469996452332 -0.627604067325592 0.19815213978290558
-0.7739006280899048 -0.5797368884086609 0.23687931895256042
-0.8012239933013916 -0.5297365188598633 0.2686190605163574
-0.8268488645553589 -0.478354275226593 0.2928253412246704
-0.8508026599884033 -0.42633455991744995 0.3089376986026764
-0.8731103539466858 -0.3744175136089325 0.3163793385028839
-0.8937927484512329 -0.32334232330322266 0.3145538866519928
-0.9128679037094116 -0.2738496661186218 0.30284327268600464
-0.9303502440452576 -0.2266853153705597 0.28060460090637207
-0.9462507367134094 -0.1826021522283554 0.24716714024543762
-0.9605770111083984 -0.14236408472061157 0.20182879269123077
-0.9730738997459412 -0.1067049652338028 0.14425548911094666
-0.9824360013008118 -0.07620494812726974 0.07570888847112656
-0.987073540687561 -0.051431745290756226 -0.0021136843133717775
-0.9853721261024475 -0.03297964483499527 -0.08745825290679932
-0.9757006764411926 -0.021461008116602898 -0.1785004436969757
-0.9564239978790283 -0.01749560236930847 -0.2733362019062042
-0.9259207248687744 -0.021697938442230225 -0.36997905373573303
-0.8826057314872742 -0.034662533551454544 -0.46636325120925903
-0.8249592185020447 -0.05694739520549774 -0.5603540539741516
-0.7515573501586914 -0.0890558734536171 -0.6497646570205688
-0.6611089706420898 -0.13141758739948273 -0.7323812246322632
-0.5524932146072388 -0.1843690425157547 -0.8059946298599243
-0.42479732632637024 -0.24813459813594818 -0.8684375286102295
0.029177838936448097 -0.5094918012619019 -0.862666130065918
-0.04675402119755745 -0.6208950877189636 -0.7745241522789001
-0.11415927857160568 -0.7092481255531311 -0.6861184239387512
-0.17458151280879974 -0.777908444404602 -0.5976414084434509
-0.22924795746803284 -0.8295177817344666 -0.5093408226966858
-0.2791498899459839 -0.866188108921051 -0.42152053117752075
-0.3250996470451355 -0.8896358013153076 -0.33454233407974243
-0.36777228116989136 -0.9012802839279175 -0.24882827699184418
-0.4077357351779938 -0.9023182988166809 -0.1648637354373932
-0.44547316431999207 -0.8937802314758301 -0.08319921791553497
-0.4814000129699707 -0.8765751719474792 -0.004452683962881565
-0.5158766508102417 -0.8515268564224243 0.0706893652677536
-0.5492172837257385 -0.8194019198417664 0.14147205650806427
-0.5816977620124817 -0.7809345722198486 0.2070736587047577
-0.6135196089744568 -0.7368714213371277 0.26669755578041077
-0.6447023153305054 -0.6880500316619873 0.31985366344451904
-0.675219714641571 -0.6353124380111694 0.3661181628704071
-0.7050431370735168 -0.5794817805290222 0.4050472378730774
-0.7341413497924805 -0.5213679671287537 0.43617552518844604
-0.7624799609184265 -0.46177130937576294 0.45901376008987427
-0.7900218963623047 -0.4014880657196045 0.4730472266674042
-0.816726803779602 -0.34131306409835815 0.47773319482803345
-0.8425511717796326 -0.28204506635665894 0.4724990129470825
-0.8674477338790894 -0.22449025511741638 0.456739217042923
-0.8913657069206238 -0.1694667935371399 0.4298133850097656
-0.9142505526542664 -0.11780814081430435 0.39104267954826355
-0.9360432624816895 -0.07036764919757843 0.33970698714256287
-0.9563806056976318 -0.027960555627942085 0.2754037082195282
-0.973676323890686 0.008806790225207806 0.19917164742946625
-0.9859943985939026 0.03933245688676834 0.11249449849128723
-0.9913552403450012 0.06296935677528381 0.016982752829790115
-0.98775714635849 0.07904557883739471 -0.0855998694896698
-0.9732112288475037 0.08688948303461075 -0.19331949949264526
-0.9457892775535583 0.08585915714502335 -0.3040684759616852
-0.9036811590194702 0.07537563890218735 -0.41557618975639343
-0.8452630639076233 0.05495878681540489 -0.5254361629486084
-0.769170343875885 0.024263819679617882 -0.6311505436897278
-0.6743707060813904 -0.01688428595662117 -0.7301902174949646
-0.5602323412895203 -0.06846098601818085 -0.8200698494911194
-0.4265793561935425 -0.1302204430103302 -0.8984324932098389
0.10758914053440094 -0.561324954032898 -0.8354308605194092
0.020183010026812553 -0.6739931702613831 -0.7334873676300049
-0.05503087118268013 -0.7630249857902527 -0.6318696141242981
-0.12010396271944046 -0.831562876701355 -0.5308961272239685
-0.17674116790294647 -0.8821657299995422 -0.43091827630996704
-0.22638347744941711 -0.9169459342956543 -0.33232396841049194
-0.270269513130188 -0.937671422958374 -0.23554104566574097
-0.30948176980018616 -0.9458434581756592 -0.14103963971138
-0.3449819087982178 -0.9427557587623596 -0.04933561757206917
-0.3776382505893707 -0.929542064666748 0.03900730609893799
-0.4082469642162323 -0.9072132706642151 0.123375304043293
-0.43754854798316956 -0.8766869902610779 0.20310285687446594
-0.46624070405960083 -0.8388122916221619 0.2774716019630432
-0.4949886202812195 -0.7943907976150513 0.3457096517086029
-0.524310827255249 -0.7442158460617065 0.40708914399147034
-0.5542271137237549 -0.6891486644744873 0.46122074127197266
-0.5846354365348816 -0.6300475597381592 0.507774829864502
-0.6154339909553528 -0.5677512288093567 0.5463864207267761
-0.6465204358100891 -0.5030854344367981 0.576654314994812
-0.6777909994125366 -0.43686985969543457 0.5981405973434448
-0.7091395854949951 -0.3699242174625397 0.6103694438934326
-0.7404574751853943 -0.3030734658241272 0.6128261089324951
-0.7716323733329773 -0.23715375363826752 0.6049554347991943
-0.8025476336479187 -0.17301706969738007 0.5861607789993286
-0.8330813050270081 -0.11153700947761536 0.5558021664619446
-0.8631063103675842 -0.05361253395676613 0.5131946802139282
-0.8924886584281921 -0.00017327429668512195 0.457606703042984
-0.9207632541656494 0.04789294674992561 0.3885749578475952
-0.9461312890052795 0.08994854986667633 0.3069097101688385
-0.9663890600204468 0.12535007297992706 0.21386659145355225
-0.9792630076408386 0.15339040756225586 0.11089278757572174
-0.9824461340904236 0.17333035171031952 -0.0003328078310005367
-0.9736548066139221 0.18443721532821655 -0.11787279695272446
-0.9507055878639221 0.1860302984714508 -0.23952442407608032
-0.9116088151931763 0.17753128707408905 -0.36283597350120544
-0.8546736240386963 0.15851683914661407 -0.4851492643356323
-0.7786156535148621 0.12876905500888824 -0.6036704182624817
-0.6826576590538025 0.08831852674484253 -0.7155657410621643
-0.5666090250015259 0.03747469186782837 -0.818077802658081
-0.43091514706611633 -0.023161398246884346 -0.9086517095565796
0.16964595019817352 -0.6068601608276367 -0.8009732961654663
0.07872619479894638 -0.7186182141304016 -0.6882967948913574
0.002118597738444805 -0.8064283728599548 -0.576285719871521
-0.06246069818735123 -0.8732102513313293 -0.4654521644115448
-0.11698427051305771 -0.9214323163032532 -0.35629937052726746
-0.1631787270307541 -0.953201949596405 -0.24933010339736938
-0.2025756984949112 -0.9703356623649597 -0.1450531929731369
-0.23655249178409576 -0.9744144678115845 -0.04398956149816513
-0.266364187002182 -0.9668275713920593 0.05332221835851669
-0.29317018389701843 -0.9488083124160767 0.14632157981395721
-0.3180558681488037 -0.9214633703231812 0.23442140221595764
-0.3420506417751312 -0.8857958316802979 0.3170038163661957
-0.36614277958869934 -0.8427252769470215 0.39341628551483154
-0.39129289984703064 -0.7931050658226013 0.4629674553871155
-0.41825661063194275 -0.7377538681030273 0.5250227451324463
-0.44703444838523865 -0.6775241494178772 0.579296350479126
-0.4774455726146698 -0.6132580637931824 0.6255479454994202
-0.5093144774436951 -0.545778751373291 0.6634840965270996
-0.5424687266349792 -0.4759003818035126 0.6927601099014282
-0.5767368078231812 -0.40443655848503113 0.7129806280136108
-0.6119460463523865 -0.33220815658569336 0.7237004637718201
-0.6479207873344421 -0.2600496709346771 0.7244250178337097
-0.6844808459281921 -0.18881690502166748 0.7146105766296387
-0.7214397192001343 -0.11939209699630737 0.6936646103858948
-0.7586027979850769 -0.05269068479537964 0.6609460115432739
-0.7957658767700195 0.010334545746445656 0.6157652139663696
-0.8327144980430603 0.0686880424618721 0.5573852062225342
-0.8688866496086121 0.12141599506139755 0.48529285192489624
-0.9023306369781494 0.1678464710712433 0.4000786244869232
-0.9306459426879883 0.2072916030883789 0.30277159810066223
-0.9513323903083801 0.23898372054100037 0.19464796781539917
-0.9618399143218994 0.2621169090270996 0.07728493958711624
-0.9596458673477173 0.2758979797363281 -0.047402337193489075
-0.942359209060669 0.2796066999435425 -0.17714963853359222
-0.9078451991081238 0.2726612985134125 -0.30936354398727417
-0.8543643951416016 0.2546852231025696 -0.4411783218383789
-0.7807080149650574 0.22556787729263306 -0.5695509910583496
-0.6863148808479309 0.18551138043403625 -0.6913900375366211
-0.5713531374931335 0.13505585491657257 -0.8037081956863403
-0.4367503523826599 0.07507813721895218 -0.903784453868866
0.2183932214975357 -0.6471126079559326 -0.7600207328796387
0.1302865892648697 -0.7561022639274597 -0.6396317481994629
0.05744924768805504 -0.8410161137580872 -0.5200248956680298
-0.0024708767887204885 -0.9045706391334534 -0.40194714069366455
-0.051578179001808167 -0.9491549134254456 -0.28608307242393494
-0.0917695164680481 -0.9768779873847961 -0.17306818068027496
-0.12476851046085358 -0.9896084070205688 -0.06350066512823105
-0.1521548181772232 -0.9890085458755493 0.04204823449254036
-0.17538966238498688 -0.976561427116394 0.14302437007427216
-0.19583845138549805 -0.9535956382751465 0.23888224363327026
-0.214790940284729 -0.9213059544563293 0.3290764093399048
-0.23347963392734528 -0.8807709217071533 0.4130532443523407
-0.2530969977378845 -0.8329677581787109 0.49024298787117004
-0.27481192350387573 -0.7787865400314331 0.560050368309021
-0.2995447814464569 -0.7190532088279724 0.6219456791877747
-0.32726243138313293 -0.6545833945274353 0.6757413744926453
-0.3577077388763428 -0.5861746072769165 0.7212764620780945
-0.3906363248825073 -0.5146099328994751 0.7583191394805908
-0.42581164836883545 -0.4406694173812866 0.7865709066390991
-0.4630012810230255 -0.36513975262641907 0.8056695461273193
-0.5019721984863281 -0.28882473707199097 0.8151916265487671
-0.5424885749816895 -0.21255211532115936 0.8146551847457886
-0.5843069553375244 -0.13718248903751373 0.8035215139389038
-0.6271744966506958 -0.06361566483974457 0.7811979055404663
-0.6708252429962158 0.007202422246336937 0.747040331363678
-0.7149782180786133 0.07427506148815155 0.7003563046455383
-0.7593338489532471 0.13654962182044983 0.6404082179069519
-0.8032394647598267 0.19301214814186096 0.5666447281837463
-0.8446398377418518 0.24295437335968018 0.4794546961784363
-0.8809996843338013 0.2856437861919403 0.3796531558036804
-0.9096531867980957 0.32025575637817383 0.26834768056869507
-0.9278650879859924 0.3459234833717346 0.1470038741827011
-0.9329251050949097 0.3618002235889435 0.017492037266492844
-0.9222765564918518 0.3671320080757141 -0.11789675801992416
-0.8936683535575867 0.36133667826652527 -0.2564736604690552
-0.8453192114830017 0.34408119320869446 -0.3952208459377289
-0.7760753035545349 0.31534937024116516 -0.530907154083252
-0.6855382919311523 0.27548888325691223 -0.660245418548584
-0.5741406083106995 0.22522836923599243 -0.7800755500793457
-0.4431542158126831 0.1656603217124939 -0.8875542283058167
0.25634604692459106 -0.6828288435935974 -0.7132477760314941
0.17594864964485168 -0.78749018907547 -0.5882344841957092
0.11091568320989609 -0.8680550456047058 -0.4639003872871399
0.05891299247741699 -0.9270775318145752 -0.3412449359893799
0.017787206918001175 -0.9668931365013123 -0.22114750742912292
-0.01444911491125822 -0.989628791809082 -0.10438495129346848
-0.03963382914662361 -0.9972143769264221 0.008351498283445835
-0.05947233363986015 -0.9913960099220276 0.11644051223993301
-0.07555542141199112 -0.9737489819526672 0.21931545436382294
-0.0893775224685669 -0.945692241191864 0.3164505660533905
-0.10235512256622314 -0.9084994792938232 0.407347172498703
-0.11584577709436417 -0.8633132576942444 0.4915202856063843
-0.13116766512393951 -0.8111568093299866 0.5684857368469238
-0.1496199667453766 -0.75294429063797 0.6377460956573486
-0.1722242683172226 -0.689493715763092 0.6988736391067505
-0.19890515506267548 -0.6215605735778809 0.7517678737640381
-0.2293362319469452 -0.5498755574226379 0.7963342070579529
-0.2632130980491638 -0.47516128420829773 0.8323909044265747
-0.300245076417923 -0.3981454074382782 0.8596743941307068
-0.3401488959789276 -0.31957191228866577 0.8778456449508667
-0.3826417326927185 -0.2402128130197525 0.8864948153495789
-0.4274364411830902 -0.16087567806243896 0.8851450681686401
-0.474235475063324 -0.08241409063339233 0.8732576370239258
-0.5227263569831848 -0.005734179634600878 0.8502357602119446
-0.5725767612457275 0.06819750368595123 0.8154308199882507
-0.6234305500984192 0.1383497416973114 0.7681478261947632
-0.6749035120010376 0.20362132787704468 0.7076529860496521
-0.7262575626373291 0.2629445791244507 0.6333675384521484
-0.775375485420227 0.3155733048915863 0.5455030202865601
-0.8196385502815247 0.36073145270347595 0.4446805715560913
-0.8562681078910828 0.3975428342819214 0.33184900879859924
-0.8823950886726379 0.4250885844230652 0.20835953950881958
-0.8951691389083862 0.44247886538505554 0.07602064311504364
-0.8919051289558411 0.44893598556518555 -0.0628817230463028
-0.8702573776245117 0.4438839256763458 -0.20560909807682037
-0.8284045457839966 0.42703381180763245 -0.3490486443042755
-0.7652225494384766 0.39845532178878784 -0.48984599113464355
-0.6804172396659851 0.35862067341804504 -0.624583899974823
-0.574593722820282 0.30841273069381714 -0.7499892115592957
-0.4492443799972534 0.2490914911031723 -0.8631411194801331
0.2856758236885071 -0.7145534157752991 -0.6613460183143616
0.21655452251434326 -0.8136247992515564 -0.5349574089050293
0.16227851808071136 -0.8886184096336365 -0.4089066982269287
0.12056485563516617 -0.941983699798584 -0.2844429016113281
0.0892566666007042 -0.9760403633117676 -0.1626405566930771
0.06632991135120392 -0.9929561614990234 -0.04441987723112106
0.049892157316207886 -0.9947346448898315 0.0694323182106018
0.038175713270902634 -0.9832104444503784 0.17824168503284454
0.02952626347541809 -0.9600499272346497 0.28142523765563965
0.022387944161891937 -0.9267544746398926 0.3784717619419098
0.015285657718777657 -0.8846691846847534 0.46892237663269043
0.006804871838539839 -0.834990382194519 0.5523516535758972
-0.004430701956152916 -0.7787764072418213 0.6283498406410217
-0.019784221425652504 -0.7169564366340637 0.6965036392211914
-0.04032541438937187 -0.650330662727356 0.7564721703529358
-0.06593333184719086 -0.5795762538909912 0.8082259297370911
-0.09622303396463394 -0.5053389072418213 0.8517224192619324
-0.1308417171239853 -0.42826536297798157 0.8868165612220764
-0.16945704817771912 -0.3490173816680908 0.9132689833641052
-0.21174760162830353 -0.26828375458717346 0.930755078792572
-0.25739315152168274 -0.18679307401180267 0.9388700127601624
-0.30606725811958313 -0.10532213002443314 0.9371364712715149
-0.3574288785457611 -0.024706995114684105 0.9250103831291199
-0.4111156165599823 0.05414963886141777 0.9018877148628235
-0.46673616766929626 0.13027037680149078 0.8671134114265442
-0.5238650441169739 0.20259886980056763 0.8199901580810547
-0.5820360779762268 0.26999521255493164 0.7597903609275818
-0.6404321789741516 0.3313451409339905 0.685917317867279
-0.696906328201294 0.3858632445335388 0.5984326004981995
-0.7487980127334595 0.4327310621738434 0.4977898597717285
-0.7932596206665039 0.4710267186164856 0.38479506969451904
-0.827332615852356 0.4997888207435608 0.2606889307498932
-0.8480671644210815 0.518095850944519 0.12720778584480286
-0.852682888507843 0.5251578092575073 -0.013392935506999493
-0.8387585282325745 0.5204135179519653 -0.15836560726165771
-0.8044320940971375 0.5036208033561707 -0.30455535650253296
-0.748583197593689 0.47492876648902893 -0.4485452473163605
-0.6709688305854797 0.43491750955581665 -0.586850643157959
-0.5722846984863281 0.38459521532058716 -0.7161409258842468
-0.4541384279727936 0.3253513276576996 -0.8334603309631348
0.3083434998989105 -0.7426756620407104 -0.6050850749015808
0.25276419520378113 -0.8352082371711731 -0.4808034598827362
0.21111154556274414 -0.9036586284637451 -0.3562391698360443
0.1811540573835373 -0.9504426121711731 -0.23287218809127808
0.16075244545936584 -0.9779094457626343 -0.11196348071098328
0.14788122475147247 -0.988296389579773 0.005424755159765482
0.140638068318367 -0.9836959838867188 0.11840566992759705
0.13724376261234283 -0.9660362601280212 0.2262425571680069
0.1360345482826233 -0.9370728731155396 0.32832270860671997
0.1354486644268036 -0.8983853459358215 0.4241323173046112
0.1340080052614212 -0.8513813018798828 0.5132318735122681
0.13029587268829346 -0.7973034977912903 0.595232367515564
0.12293139100074768 -0.7372382879257202 0.6697726249694824
0.11053971201181412 -0.6721263527870178 0.7364963293075562
0.0920436829328537 -0.6027462482452393 0.7951227426528931
0.06760796904563904 -0.5296833515167236 0.8456735610961914
0.03766322508454323 -0.45348504185676575 0.8881428241729736
0.0025973061565309763 -0.3747102618217468 0.922408938407898
-0.03722945228219032 -0.29394522309303284 0.948246955871582
-0.0814710333943367 -0.2118142545223236 0.9653372168540955
-0.1297832429409027 -0.12899357080459595 0.973273754119873
-0.18181344866752625 -0.04622027650475502 0.9715725779533386
-0.23718932271003723 0.035696059465408325 0.9596803784370422
-0.2955096662044525 0.11586572974920273 0.9369823336601257
-0.3563343584537506 0.19331052899360657 0.9028153419494629
-0.41917645931243896 0.266959547996521 0.8564785718917847
-0.4834941327571869 0.335645854473114 0.7972511649131775
-0.5483994483947754 0.3982180058956146 0.7245259284973145
-0.6117385029792786 0.45384979248046875 0.6382443308830261
-0.6708406805992126 0.5016801953315735 0.5387216806411743
-0.7228241562843323 0.5407461524009705 0.42664244771003723
-0.7646772265434265 0.5700523257255554 0.30314767360687256
-0.7933850884437561 0.5886560678482056 0.1698993295431137
-0.8061002492904663 0.5957661271095276 0.029105234891176224
-0.8003427982330322 0.590843915939331 -0.11650900542736053
-0.7742099165916443 0.5736974477767944 -0.26379022002220154
-0.7265638113021851 0.5445508360862732 -0.40931108593940735
-0.6571677327156067 0.5040780305862427 -0.5495733618736267
-0.5667415857315063 0.45338988304138184 -0.6812385320663452
-0.45692411065101624 0.3939749300479889 -0.8013535141944885
0.3261946737766266 -0.7674643993377686 -0.5453647971153259
0.28509896993637085 -0.8528487086296082 -0.4269556403160095
0.25680863857269287 -0.9140642881393433 -0.30730167031288147
0.23912717401981354 -0.9535713195800781 -0.18808552622795105
0.22993887960910797 -0.9738017916679382 -0.07074174284934998
0.2272380143404007 -0.9770928621292114 0.043526068329811096
0.22914353013038635 -0.9656422734260559 0.1537211388349533
0.2339014858007431 -0.9414784908294678 0.2590262293815613
0.2398783415555954 -0.9064458608627319 0.3587738275527954
0.24554644525051117 -0.8621984720230103 0.45241737365722656
0.249464213848114 -0.8102025985717773 0.539502739906311
0.25025081634521484 -0.7517431974411011 0.6196399331092834
0.2465573400259018 -0.6879344582557678 0.6924776434898376
0.2370327264070511 -0.6197310090065002 0.7576764225959778
0.2206193059682846 -0.5478939414024353 0.8149780631065369
0.19751940667629242 -0.4729083478450775 0.8644334673881531
0.16819538176059723 -0.39521315693855286 0.9060571193695068
0.13305647671222687 -0.3152725100517273 0.9397395253181458
0.0924777090549469 -0.233589306473732 0.9652589559555054
0.04681623727083206 -0.1507171243429184 0.9822933673858643
-0.003572859102860093 -0.06727275252342224 0.9904287457466125
-0.05832367762923241 0.016053877770900726 0.9891698956489563
-0.11704526096582413 0.09848836064338684 0.977949321269989
-0.17930975556373596 0.17916348576545715 0.9561389684677124
-0.24463945627212524 0.2571112811565399 0.9230638742446899
-0.31249669194221497 0.3312591314315796 0.8780183792114258
-0.3822729289531708 0.4004274904727936 0.8202862739562988
-0.4530187249183655 0.4634398818016052 0.7492548823356628
-0.5225894451141357 0.5194268226623535 0.6647751927375793
-0.5883253216743469 0.5674822926521301 0.5670570135116577
-0.6473364233970642 0.6066044569015503 0.456689715385437
-0.6965855956077576 0.6357690691947937 0.33473166823387146
-0.733021080493927 0.654020369052887 0.20277653634548187
-0.7537518739700317 0.6605738997459412 0.06297829002141953
-0.7562547326087952 0.6549206972122192 -0.08197906613349915
-0.7385879158973694 0.6369208097457886 -0.22897528111934662
-0.6995821595191956 0.6068702936172485 -0.37461206316947937
-0.6389741897583008 0.565526008605957 -0.5154206156730652
-0.5574590563774109 0.51408451795578 -0.648094892501831
-0.4566449224948883 0.4541110694408417 -0.7697163820266724
0.3410252034664154 -0.7890949249267578 -0.48325979709625244
0.31397461891174316 -0.8670960664749146 -0.3747952878475189
0.2985965311527252 -0.9207016825675964 -0.2636982500553131
0.2927080988883972 -0.95250004529953 -0.1518256664276123
0.2942145764827728 -0.9650586843490601 -0.04077508673071861
0.3011398911476135 -0.9608482122421265 0.0681028887629509
0.3116415739059448 -0.942188560962677 0.17368309199810028
0.3240118622779846 -0.9112163186073303 0.27503862977027893
0.33666932582855225 -0.8698669672012329 0.3714102506637573
0.3481416702270508 -0.8198692202568054 0.46217575669288635
0.35704347491264343 -0.7627483606338501 0.5468189120292664
0.3620482385158539 -0.6998353600502014 0.6248998045921326
0.3618558943271637 -0.6322788000106812 0.6960259079933167
0.3551557958126068 -0.5610597133636475 0.7598228454589844
0.34092143177986145 -0.48693448305130005 0.8160097599029541
0.31938305497169495 -0.41028422117233276 0.8646419644355774
0.291020929813385 -0.33143338561058044 0.9057396054267883
0.25625285506248474 -0.25074589252471924 0.9391921162605286
0.2154562920331955 -0.16863711178302765 0.9647718071937561
0.16898790001869202 -0.08558476716279984 0.9821458458900452
0.11720184236764908 -0.0021409683395177126 0.9908866882324219
0.060465678572654724 0.08105862885713577 0.9904816150665283
-0.000823046313598752 0.16328302025794983 0.9803450703620911
-0.06622162461280823 0.24369826912879944 0.9598311185836792
-0.13522709906101227 0.3213594853878021 0.928249716758728
-0.20726290345191956 0.39520779252052307 0.8848857283592224
-0.28166601061820984 0.4640693664550781 0.8290228247642517
-0.35743623971939087 0.5267584919929504 0.76004558801651
-0.4324471354484558 0.5823582410812378 0.677744448184967
-0.5040626525878906 0.629912257194519 0.5822587013244629
-0.5694007873535156 0.6683771014213562 0.47411248087882996
-0.6254194974899292 0.696701169013977 0.35430586338043213
-0.6690506935119629 0.7139186859130859 0.2243797481060028
-0.697379469871521 0.7192560434341431 0.08643930405378342
-0.7078533172607422 0.7122370600700378 -0.05687892064452171
-0.6984968781471252 0.6927750110626221 -0.20250390470027924
-0.6681028604507446 0.6612340211868286 -0.3470909595489502
-0.6163630485534668 0.6184472441673279 -0.4872303009033203
-0.5439163446426392 0.565684974193573 -0.6196778416633606
-0.45230069756507874 0.5045754313468933 -0.741576075553894
0.35461992025375366 -0.8076727390289307 -0.4200529158115387
0.3397271931171417 -0.8784704804420471 -0.3259022831916809
0.33555859327316284 -0.9244468212127686 -0.22720159590244293
0.3399238884449005 -0.9484029412269592 -0.12596698105335236
0.3507409691810608 -0.9530959725379944 -0.023960597813129425
0.3660624027252197 -0.941161036491394 0.07730335742235184
0.38408637046813965 -0.9150582551956177 0.17654165625572205
0.4031538665294647 -0.8770410418510437 0.27267763018608093
0.42173683643341064 -0.8291425108909607 0.3648122251033783
0.43841806054115295 -0.7731711268424988 0.45219382643699646
0.4518660604953766 -0.7107198238372803 0.5341871976852417
0.46080467104911804 -0.6431766748428345 0.6102426648139954
0.4639785587787628 -0.5717424750328064 0.6798661947250366
0.4601140320301056 -0.49744802713394165 0.7425891757011414
0.44821080565452576 -0.4210680425167084 0.7980539202690125
0.4285145699977875 -0.3428814113140106 0.8462948799133301
0.401510626077652 -0.26309433579444885 0.8873217105865479
0.36761412024497986 -0.18196803331375122 0.9210103750228882
0.32719531655311584 -0.09982758015394211 0.9471174478530884
0.28060075640678406 -0.017071325331926346 0.9652910828590393
0.22817456722259521 0.06581835448741913 0.9750820398330688
0.17027617990970612 0.1482667177915573 0.9759548306465149
0.10729984194040298 0.22959564626216888 0.9672995805740356
0.03969192132353783 0.30901655554771423 0.9484469890594482
-0.03203106299042702 0.38562312722206116 0.9186856150627136
-0.1072668582201004 0.4583893418312073 0.877284586429596
-0.1853121817111969 0.5261701941490173 0.8235203623771667
-0.26512885093688965 0.5877901911735535 0.7567731142044067
-0.344611793756485 0.6422793865203857 0.676803469657898
-0.42115268111228943 0.6886200308799744 0.5837162137031555
-0.49188631772994995 0.7257200479507446 0.4780055284500122
-0.5537779331207275 0.7524949312210083 0.3606441020965576
-0.603757917881012 0.7679657936096191 0.23314516246318817
-0.6389026045799255 0.7713683843612671 0.09758275747299194
-0.656643271446228 0.7622580528259277 -0.04344482347369194
-0.6549800634384155 0.7405997514724731 -0.18691587448120117
-0.6326699256896973 0.7068231105804443 -0.32954758405685425
-0.5893539786338806 0.6618326902389526 -0.46800342202186584
-0.5256024599075317 0.6069675087928772 -0.5991197824478149
-0.44286492466926575 0.5439128875732422 -0.7201189994812012
0.3687651753425598 -0.8232539296150208 -0.3572515547275543
0.36263445019721985 -0.8874812722206116 -0.28203055262565613
0.3666731119155884 -0.926202118396759 -0.19969210028648376
0.37866124510765076 -0.942514955997467 -0.11242693662643433
0.39651304483413696 -0.9394175410270691 -0.0221857987344265
0.41829556226730347 -0.9197393655776978 0.06932041049003601
0.4422319531440735 -0.8860971331596375 0.1606084108352661
0.46669477224349976 -0.8408731818199158 0.2504022717475891
0.49018871784210205 -0.786206841468811 0.3376075029373169
0.5113286972045898 -0.7239999175071716 0.42128291726112366
0.5288119912147522 -0.6559288501739502 0.5006109476089478
0.5413868427276611 -0.5834622979164124 0.574867308139801
0.5478169322013855 -0.5078821182250977 0.6433905363082886
0.5468406677246094 -0.43030524253845215 0.7055509090423584
0.5374635457992554 -0.35156121850013733 0.760855495929718
0.5199310183525085 -0.27183300256729126 0.809289813041687
0.4947219491004944 -0.191208153963089 0.850836455821991
0.4622403383255005 -0.10984398424625397 0.8853445649147034
0.42284151911735535 -0.027973763644695282 0.912542462348938
0.3768559396266937 0.054086603224277496 0.9320496916770935
0.3246110677719116 0.13592933118343353 0.9433866739273071
0.26645171642303467 0.2170482724905014 0.9459864497184753
0.2027612030506134 0.2968290448188782 0.9392073750495911
0.13398031890392303 0.3745429813861847 0.9223477840423584
0.06062806025147438 0.4493412673473358 0.8946669697761536
-0.016681024804711342 0.5202544331550598 0.8554084897041321
-0.09721957892179489 0.586194634437561 0.8038303852081299
-0.1799258589744568 0.6460208296775818 0.7393044829368591
-0.26271432638168335 0.6987009644508362 0.6615912318229675
-0.3430018126964569 0.7431398034095764 0.5708006620407104
-0.4179416596889496 0.778181254863739 0.4674363434314728
-0.48451149463653564 0.8026955723762512 0.3524813652038574
-0.5396494269371033 0.815680205821991 0.2274569422006607
-0.5804344415664673 0.8163714408874512 0.09443722665309906
-0.6042942404747009 0.8043502569198608 -0.04399335756897926
-0.6092168092727661 0.7796282172203064 -0.18484537303447723
-0.5939335823059082 0.742698073387146 -0.32488882541656494
-0.5580429434776306 0.6945347189903259 -0.4608595669269562
-0.5020508170127869 0.6365467309951782 -0.5896803736686707
-0.4273199141025543 0.5704795718193054 -0.7086653709411621
0.38489726185798645 -0.8358286619186401 -0.29626408219337463
0.38295650482177734 -0.894519031047821 -0.24458827078342438
0.3911973536014557 -0.9267202019691467 -0.18248088657855988
0.4073397219181061 -0.9359055757522583 -0.11237165331840515
0.429267019033432 -0.9253585934638977 -0.03645533323287964
0.45503267645835876 -0.8981264233589172 0.043308790773153305
0.4828554093837738 -0.8569971919059753 0.12518633902072906
0.5111050605773926 -0.804492175579071 0.20764970779418945
0.5382826328277588 -0.7428709864616394 0.28935420513153076
0.5629953145980835 -0.6741464734077454 0.3691118359565735
0.5839276313781738 -0.6001037359237671 0.44586271047592163
0.5998100638389587 -0.5223244428634644 0.5186457633972168
0.6093829870223999 -0.44221231341362 0.5865681171417236
0.6113573908805847 -0.36102041602134705 0.6487736105918884
0.6047109365463257 -0.27968117594718933 0.7045742869377136
0.5896710753440857 -0.19829386472702026 0.7538773417472839
0.5667005181312561 -0.11682891100645065 0.7966196537017822
0.5361848473548889 -0.03534025698900223 0.8326075077056885
0.4984601140022278 0.046031683683395386 0.8615277409553528
0.4538366496562958 0.12705636024475098 0.8829582929611206
0.4026223123073578 0.20740659534931183 0.8963780403137207
0.34514346718788147 0.2866537868976593 0.9011778235435486
0.2817670404911041 0.36426016688346863 0.8966727256774902
0.21292166411876678 0.43957456946372986 0.8821188807487488
0.139118954539299 0.5118283629417419 0.856734037399292
0.06097256764769554 0.5801365375518799 0.8197236061096191
-0.02078329585492611 0.6435018181800842 0.7703130841255188
-0.10507906973361969 0.7008455991744995 0.7078588008880615
-0.1898440569639206 0.7510618567466736 0.6321510076522827
-0.2725132703781128 0.7929558157920837 0.5433457493782043
-0.35025519132614136 0.8252872228622437 0.44199874997138977
-0.420060932636261 0.8468607664108276 0.32914745807647705
-0.4788810610771179 0.8566330075263977 0.2063641995191574
-0.5238058567047119 0.8538260459899902 0.07576379179954529
-0.552271842956543 0.8380352258682251 -0.0600464828312397
-0.5622696280479431 0.8093118667602539 -0.19807925820350647
-0.5525219440460205 0.7682085633277893 -0.3351353704929352
-0.5226013660430908 0.7157727479934692 -0.46800994873046875
-0.47296687960624695 0.6534876227378845 -0.5937084555625916
-0.40491020679473877 0.5831689834594727 -0.7096424102783203
0.4030681252479553 -0.8452334403991699 -0.23735055327415466
0.40104231238365173 -0.8995031714439392 -0.2131204456090927
0.40974077582359314 -0.9260515570640564 -0.17443880438804626
0.4267898201942444 -0.9287813305854797 -0.12408880144357681
0.4500139355659485 -0.9112860560417175 -0.06459176540374756
0.4774264395236969 -0.8768422603607178 0.0017835148610174656
0.5072130560874939 -0.8284139037132263 0.0730038583278656
0.5377113819122314 -0.7686676979064941 0.1472495049238205
0.5673855543136597 -0.699994683265686 0.22288814187049866
0.5948001146316528 -0.6245368719100952 0.29844775795936584
0.6185899972915649 -0.5442144870758057 0.3725873827934265
0.637429416179657 -0.46075770258903503 0.44406747817993164
0.6499974131584167 -0.3757370710372925 0.5117190480232239
0.6549400687217712 -0.2905954122543335 0.5744108557701111
0.6511746048927307 -0.20642022788524628 0.6312141418457031
0.63889479637146 -0.12324288487434387 0.6819308400154114
0.6185376048088074 -0.04091997817158699 0.726433277130127
0.5904644727706909 0.04059619456529617 0.7644680142402649
0.5549888610839844 0.12125921249389648 0.7956659197807312
0.5123984813690186 0.20092763006687164 0.8195500373840332
0.4629794657230377 0.27936145663261414 0.835545003414154
0.4070373475551605 0.3562200367450714 0.842987060546875
0.34491947293281555 0.4310566484928131 0.8411369323730469
0.27703654766082764 0.5033168792724609 0.8291963338851929
0.20388440787792206 0.5723361372947693 0.8063292503356934
0.12606389820575714 0.637343168258667 0.7716901302337646
0.044299617409706116 0.6974659562110901 0.7244572639465332
-0.040346577763557434 0.7517167329788208 0.6639637351036072
-0.1258152723312378 0.7989051342010498 0.5900565385818481
-0.2095535546541214 0.837716817855835 0.5029751062393188
-0.2887424826622009 0.8668065667152405 0.4033655524253845
-0.36038753390312195 0.8848947286605835 0.2923586964607239
-0.421456515789032 0.8908789753913879 0.1716165840625763
-0.4690591096878052 0.8839519619941711 0.04333112761378288
-0.5006518959999084 0.8637105822563171 -0.08983536064624786
-0.5142414569854736 0.8302371501922607 -0.22487087547779083
-0.5085573196411133 0.7841392755508423 -0.35858744382858276
-0.48316285014152527 0.7265354990959167 -0.4878275990486145
-0.43848663568496704 0.6589882373809814 -0.6096760034561157
-0.3757658898830414 0.5833899974822998 -0.7216455340385437
0.4229641854763031 -0.8513011932373047 -0.1804424375295639
0.4173034429550171 -0.9022637605667114 -0.18660829961299896
0.4233447313308716 -0.9240851402282715 -0.1737096905708313
0.43858227133750916 -0.9211265444755554 -0.1450328379869461
0.460752934217453 -0.897299587726593 -0.10352231562137604
0.48780667781829834 -0.8561080098152161 -0.05181718245148659
0.5178754925727844 -0.8006892204284668 0.007713325787335634
0.5492438673973083 -0.7338565587997437 0.0729343593120575
0.5803181529045105 -0.6581405401229858 0.14191052317619324
0.6095969676971436 -0.5758277773857117 0.21287260949611664
0.6356410384178162 -0.4889998733997345 0.2841845452785492
0.6570422649383545 -0.399570494890213 0.3543112874031067
0.6723909378051758 -0.3093213140964508 0.42178577184677124
0.6802402138710022 -0.21993915736675262 0.4851754307746887
0.6794225573539734 -0.13271977007389069 0.5432806611061096
0.6700828075408936 -0.04764437675476074 0.5957750678062439
0.65262371301651 0.035538408905267715 0.6424471735954285
0.6273773312568665 0.11697620898485184 0.6829672455787659
0.5946298837661743 0.1967175304889679 0.7168935537338257
0.5546445250511169 0.27471455931663513 0.7436805367469788
0.5076838731765747 0.3508225381374359 0.7626848220825195
0.45403021574020386 0.42480039596557617 0.7731757164001465
0.394008070230484 0.49630850553512573 0.7743468880653381
0.3280049264431 0.5649091005325317 0.765333354473114
0.2564931809902191 0.6300667524337769 0.7452334761619568
0.18004927039146423 0.6911534667015076 0.7131375074386597
0.09937235713005066 0.7474555969238281 0.6681624054908752
0.0155015354976058 0.7981041073799133 0.6096101403236389
-0.06951320916414261 0.8418165445327759 0.5374073386192322
-0.15312685072422028 0.8771411180496216 0.45190808176994324
-0.2325320839881897 0.9026103615760803 0.35388070344924927
-0.3047507107257843 0.9168427586555481 0.24458098411560059
-0.36677244305610657 0.9186602234840393 0.12579089403152466
-0.4157339930534363 0.907210648059845 -0.00019277044339105487
-0.4491211175918579 0.8820788264274597 -0.1306285560131073
-0.4649676978588104 0.8433672189712524 -0.26246047019958496
-0.46202194690704346 0.7917304039001465 -0.3924976885318756
-0.43985119462013245 0.7283543348312378 -0.5176222324371338
-0.3988666236400604 0.6548792123794556 -0.6349954605102539
-0.34026429057121277 0.5732781887054443 -0.7422347068786621
0.4442521035671234 -0.8539073467254639 -0.12544399499893188
0.43218499422073364 -0.9026651978492737 -0.16395418345928192
0.43312492966651917 -0.9207273721694946 -0.1783553957939148
0.4443914592266083 -0.9129219651222229 -0.1725957691669464
0.46360650658607483 -0.8834728002548218 -0.15013770759105682
0.4886382520198822 -0.8361003398895264 -0.11404133588075638
0.5175521373748779 -0.7741076946258545 -0.06703417003154755
0.5485696196556091 -0.7004523277282715 -0.011570620350539684
0.5800295472145081 -0.6178086996078491 0.05011603608727455
0.6103553771972656 -0.5286223292350769 0.1159684881567955
0.6380227208137512 -0.43515902757644653 0.1840643435716629
0.6615282893180847 -0.3395484983921051 0.25257807970046997
0.6793594360351562 -0.24382686614990234 0.31974512338638306
0.6899606585502625 -0.14997711777687073 0.38382548093795776
0.6920634508132935 -0.05955531820654869 0.4433360993862152
0.685751736164093 0.0274873785674572 0.4978027939796448
0.6713847517967224 0.11150344461202621 0.5469105839729309
0.6492586731910706 0.19273772835731506 0.5902351140975952
0.6196287870407104 0.2713354527950287 0.627246618270874
0.582730233669281 0.34734782576560974 0.6573145985603333
0.5387988686561584 0.4207345247268677 0.6797136068344116
0.4880913197994232 0.49136754870414734 0.6936322450637817
0.43090498447418213 0.5590314269065857 0.6981843709945679
0.3675985634326935 0.6234265565872192 0.6924257874488831
0.298612505197525 0.6841715574264526 0.6753767728805542
0.22448742389678955 0.7408103346824646 0.646050214767456
0.14588166773319244 0.7928197979927063 0.6034882068634033
0.06379640102386475 0.839475154876709 0.5469532608985901
-0.019727159291505814 0.8793954253196716 0.47646987438201904
-0.10214927792549133 0.9109767079353333 0.3925319314002991
-0.1806742548942566 0.9326139092445374 0.2960546910762787
-0.25234273076057434 0.9428073763847351 0.18844221532344818
-0.314170777797699 0.9402874708175659 0.07161805778741837
-0.3633279800415039 0.9241412281990051 -0.05199676379561424
-0.39733678102493286 0.893926739692688 -0.1795653998851776
-0.41426631808280945 0.8497527241706848 -0.30797499418258667
-0.4128923714160919 0.7923102974891663 -0.43402281403541565
-0.3927951455116272 0.722844660282135 -0.554624617099762
-0.35437849164009094 0.6430701017379761 -0.6670168042182922
-0.29880714416503906 0.555039644241333 -0.7689228057861328
0.46658575534820557 -0.8529711365699768 -0.07223450392484665
0.4461525082588196 -0.9006039500236511 -0.14401425421237946
0.44023263454437256 -0.9158995747566223 -0.18641704320907593
0.44593361020088196 -0.9041427969932556 -0.20419040322303772
0.4607415795326233 -0.8698527216911316 -0.20138844847679138
0.48243245482444763 -0.8169518709182739 -0.18152375519275665
0.5090013742446899 -0.748897135257721 -0.14768590033054352
0.5386067032814026 -0.6687853932380676 -0.10263558477163315
0.5695228576660156 -0.5794375538825989 -0.04888073354959488
0.6001008749008179 -0.48346900939941406 0.011260642670094967
0.6287335157394409 -0.3833492398262024 0.07560720294713974
0.6538236141204834 -0.2814541757106781 0.1420677900314331
0.6737538576126099 -0.1801130771636963 0.20859965682029724
0.6868578195571899 -0.08165362477302551 0.27316921949386597
0.691760241985321 0.012059004046022892 0.33401334285736084
0.6884737014770508 0.10108276456594467 0.3904941976070404
0.6773054599761963 0.18586307764053345 0.44217434525489807
0.6585087180137634 0.26673948764801025 0.48851683735847473
0.6323019862174988 0.343955934047699 0.5288859605789185
0.5988882184028625 0.41766947507858276 0.5625506043434143
0.5584728717803955 0.4879551827907562 0.5886880159378052
0.5112816095352173 0.5548125505447388 0.6063916087150574
0.4575800597667694 0.6181689500808716 0.6146820187568665
0.3976908326148987 0.6778843998908997 0.6125229597091675
0.3320135176181793 0.7337566614151001 0.598844051361084
0.26104095578193665 0.7855287790298462 0.5725685358047485
0.1853751838207245 0.8328966498374939 0.5326497554779053
0.10596458613872528 0.8753021359443665 0.478302001953125
0.02484145201742649 0.9112613201141357 0.40966159105300903
-0.05545831471681595 0.9390054941177368 0.32738032937049866
-0.13215111196041107 0.9567782282829285 0.23253706097602844
-0.20229873061180115 0.9629471302032471 0.12669925391674042
-0.26294711232185364 0.9561346769332886 0.011945189908146858
-0.31130313873291016 0.9353505969047546 -0.1091688796877861
-0.34493035078048706 0.9001092314720154 -0.23370155692100525
-0.3619382977485657 0.8505101799964905 -0.35847604274749756
-0.361135333776474 0.7872670888900757 -0.480272114276886
-0.3421204388141632 0.711673378944397 -0.5960355401039124
-0.305296391248703 0.6255101561546326 -0.7030749917030334
-0.2518042027950287 0.5309064984321594 -0.799219012260437
0.4896138906478882 -0.8484563231468201 -0.020671391859650612
0.4596807062625885 -0.8960056900978088 -0.12562760710716248
0.4458235800266266 -0.9095348715782166 -0.1959637999534607
0.44491901993751526 -0.8947569131851196 -0.23731179535388947
0.45430997014045715 -0.8564615845680237 -0.2543523907661438
0.4716807007789612 -0.7987536191940308 -0.25105440616607666
0.4949626922607422 -0.7252323031425476 -0.230852872133255
0.5222615599632263 -0.6391270160675049 -0.19678474962711334
0.5517998337745667 -0.5434063076972961 -0.1515953540802002
0.5818702578544617 -0.440863698720932 -0.09782206267118454
0.6107966899871826 -0.33418864011764526 -0.03786354139447212
0.6369010210037231 -0.22602801024913788 0.025963054969906807
0.658473551273346 -0.11903845518827438 0.09137257188558578
0.6737459301948547 -0.01593419723212719 0.15606825053691864
0.681241512298584 0.08106740564107895 0.21802563965320587
0.6808944940567017 0.1720128357410431 0.2764320373535156
0.6729510426521301 0.25743192434310913 0.3307096064090729
0.6576137542724609 0.33775660395622253 0.38019052147865295
0.635058581829071 0.41333308815956116 0.4241162836551666
0.6054496765136719 0.4844319224357605 0.46163803339004517
0.5689563751220703 0.5512559413909912 0.4918200671672821
0.5257678627967834 0.6139482259750366 0.513646125793457
0.4761102795600891 0.6725977063179016 0.526029646396637
0.4202624559402466 0.7272460460662842 0.5278298854827881
0.3585726320743561 0.7778931856155396 0.5178729891777039
0.2914732098579407 0.8245055675506592 0.49498066306114197
0.21949483454227448 0.8670228123664856 0.45800474286079407
0.14351904392242432 0.9050717353820801 0.40610164403915405
0.06556827574968338 0.9370612502098083 0.3395281732082367
-0.011824360117316246 0.9610477089881897 0.25910523533821106
-0.08588804304599762 0.975111186504364 0.16608388721942902
-0.15370726585388184 0.9774728417396545 0.06220155209302902
-0.21235999464988708 0.9666311144828796 -0.05030412599444389
-0.25909239053726196 0.9415004253387451 -0.16873830556869507
-0.2915111780166626 0.9015330076217651 -0.2900524437427521
-0.3077675700187683 0.8468011021614075 -0.4110032320022583
-0.30670467019081116 0.7780239582061768 -0.5283503532409668
-0.2879423201084137 0.6965296864509583 -0.6390661597251892
-0.25188586115837097 0.6041554808616638 -0.740527868270874
-0.1996578723192215 0.5031009912490845 -0.8306647539138794
0.5129867196083069 -0.8403702974319458 0.029405627399683
0.4732431173324585 -0.8888211250305176 -0.10764092206954956
0.4510347247123718 -0.9015746116638184 -0.20512796938419342
0.44301843643188477 -0.8847241997718811 -0.2695748805999756
0.4464077949523926 -0.8432976007461548 -0.30627188086509705
0.4588112235069275 -0.7815607190132141 -0.3196135461330414
0.47811371088027954 -0.7032415866851807 -0.3133414685726166
0.5023880004882812 -0.6116968393325806 -0.29072466492652893
0.5298258662223816 -0.5100426077842712 -0.2546970844268799
0.558684229850769 -0.4012562930583954 -0.20796506106853485
0.5872415900230408 -0.2882607877254486 -0.1530933827161789
0.6137619614601135 -0.17399343848228455 -0.0925750881433487
0.6364656090736389 -0.061465051025152206 -0.028889833018183708
0.6535040736198425 0.04618997126817703 0.03544682636857033
0.6633149981498718 0.14636772871017456 0.09818092733621597
0.6657501459121704 0.2390846610069275 0.15831908583641052
0.6609860062599182 0.32494714856147766 0.21512649953365326
0.6491672396659851 0.4044782221317291 0.2677878737449646
0.6304190754890442 0.47813090682029724 0.31540447473526
0.6048601865768433 0.5462987422943115 0.3569936454296112
0.5726162195205688 0.609325647354126 0.39149072766304016
0.533831775188446 0.6675150394439697 0.41775524616241455
0.48868513107299805 0.721136212348938 0.4345802068710327
0.43740156292915344 0.7704328298568726 0.44070759415626526
0.38026687502861023 0.815627932548523 0.4348490536212921
0.3176403343677521 0.8569314479827881 0.4157128632068634
0.24996626377105713 0.8945451378822327 0.3820376992225647
0.1780463457107544 0.9282940030097961 0.3329128921031952
0.10389213263988495 0.956476092338562 0.26871854066848755
0.030035030096769333 0.9769652485847473 0.19044853746891022
-0.04076714813709259 0.9876673817634583 0.09952616691589355
-0.10562215000391006 0.98664391040802 -0.0021430577617138624
-0.16164028644561768 0.9722532629966736 -0.11216554790735245
-0.20610669255256653 0.9432957768440247 -0.22771169245243073
-0.23667003214359283 0.8991411328315735 -0.3456289768218994
-0.2515217363834381 0.8398131728172302 -0.46260908246040344
-0.24953801929950714 0.7660177946090698 -0.5753904581069946
-0.23035909235477448 0.6791009306907654 -0.6809684038162231
-0.1943942904472351 0.5809436440467834 -0.7767828106880188
-0.1427507996559143 0.4738079309463501 -0.8608566522598267
0.5363640189170837 -0.8287620544433594 0.07817158848047256
0.48730534315109253 -0.8790212273597717 -0.08892737329006195
0.45696863532066345 -0.8919634222984314 -0.21212531626224518
0.44184398651123047 -0.8739941120147705 -0.29873189330101013
0.43905532360076904 -0.8303371071815491 -0.35456615686416626
0.44616809487342834 -0.7653958201408386 -0.384380042552948
0.46105003356933594 -0.6830141544342041 -0.3921600580215454
0.48176875710487366 -0.5866708159446716 -0.38134899735450745
0.5065134763717651 -0.4796299934387207 -0.3550131618976593
0.5335344076156616 -0.3650583326816559 -0.31597164273262024
0.5610945820808411 -0.24612128734588623 -0.26689884066581726
0.5874313116073608 -0.1260613054037094 -0.21040727198123932
0.6107262372970581 -0.008262120187282562 -0.14911533892154694
0.6290825605392456 0.10369922965765 -0.0857025533914566
0.640877366065979 0.20680952072143555 -0.022609900683164597
0.6458790898323059 0.3010404706001282 0.03898760676383972
0.6441876292228699 0.3870687186717987 0.09818456321954727
0.6358813643455505 0.4655092656612396 0.15400280058383942
0.6210269927978516 0.5369277000427246 0.20538753271102905
0.5996890068054199 0.6018517017364502 0.2512064576148987
0.5719401836395264 0.660780131816864 0.2902510464191437
0.5378716588020325 0.7141933441162109 0.3212427496910095
0.49760404229164124 0.7625592350959778 0.34284156560897827
0.451297789812088 0.8063405156135559 0.35366103053092957
0.39916497468948364 0.846000075340271 0.3522878587245941
0.34147900342941284 0.882006049156189 0.33730724453926086
0.27858439087867737 0.9148337841033936 0.3073344826698303
0.21119120717048645 0.9445128440856934 0.2613825500011444
0.14129984378814697 0.9692282676696777 0.19995267689228058
0.07144096493721008 0.9866653680801392 0.12420687824487686
0.004360107704997063 0.9945474863052368 0.03573329374194145
-0.05707298591732979 0.9907641410827637 -0.06340517103672028
-0.10999924689531326 0.9735174179077148 -0.17067019641399384
-0.15173974633216858 0.9414739608764648 -0.2831079363822937
-0.17998114228248596 0.8938986659049988 -0.3974701464176178
-0.19295047223567963 0.8307446241378784 -0.5103878974914551
-0.18955254554748535 0.7526817917823792 -0.6185787320137024
-0.16944526135921478 0.6610552668571472 -0.7190564274787903
-0.13304084539413452 0.5577751398086548 -0.8093152642250061
-0.08143344521522522 0.44515663385391235 -0.8874613642692566
0.5594197511672974 -0.8137186765670776 0.12581110000610352
0.5023188591003418 -0.8665919899940491 -0.06840044260025024
0.4646863341331482 -0.8806455731391907 -0.21526318788528442
0.4429434835910797 -0.8625044226646423 -0.32266920804977417
0.4341941177845001 -0.8175365328788757 -0.3968191146850586
0.43601128458976746 -0.7502550482749939 -0.44271284341812134
0.44628673791885376 -0.66460782289505 -0.46449682116508484
0.46311837434768677 -0.5641915798187256 -0.4657169580459595
0.48472654819488525 -0.45241984724998474 -0.44950902462005615
0.509388267993927 -0.33265364170074463 -0.41874557733535767
0.5353856682777405 -0.20830796658992767 -0.3761522173881531
0.5609657764434814 -0.08293914794921875 -0.3244021534919739
0.5843102931976318 0.03968627750873566 -0.26619261503219604
0.6035137176513672 0.155539408326149 -0.20430617034435272
0.6169257164001465 0.26118963956832886 -0.14132040739059448
0.6242344379425049 0.3565552234649658 -0.07858818769454956
0.6254565119743347 0.4423799514770508 -0.017196450382471085
0.6205967664718628 0.5193735361099243 0.04170063138008118
0.609654426574707 0.5882223844528198 0.09687811136245728
0.5926307439804077 0.6496000289916992 0.14703989028930664
0.5695361495018005 0.704174816608429 0.19082011282444
0.5403973460197449 0.752619206905365 0.22678977251052856
0.5052664875984192 0.7956143617630005 0.2534652054309845
0.4642285406589508 0.8338561058044434 0.2693222463130951
0.4174102544784546 0.8680581450462341 0.2728145122528076
0.3649875521659851 0.8989534974098206 0.26239678263664246
0.3071933388710022 0.927294909954071 0.2365531325340271
0.24463680386543274 0.9533155560493469 0.1942121386528015
0.17930713295936584 0.9750869274139404 0.1359877735376358
0.11373592168092728 0.9901019334793091 0.0631980374455452
0.050657957792282104 0.9958959221839905 -0.02242061123251915
-0.007077214773744345 0.990175187587738 -0.11866628378629684
-0.05663728341460228 0.9709698557853699 -0.22287483513355255
-0.09537399560213089 0.9367929697036743 -0.33198508620262146
-0.1210051104426384 0.8867809772491455 -0.44266581535339355
-0.13178589940071106 0.8207907676696777 -0.5514949560165405
-0.12664300203323364 0.739432692527771 -0.6551698446273804
-0.10524679720401764 0.6440292000770569 -0.7507174611091614
-0.06801041960716248 0.5365034937858582 -0.8356760740280151
-0.016016129404306412 0.41921234130859375 -0.9082202315330505
0.5818488597869873 -0.7953611612319946 0.17251472175121307
0.5187185406684875 -0.8515288829803467 -0.04502187669277191
0.4752066731452942 -0.867560088634491 -0.2129368782043457
0.4478073716163635 -0.8501791954040527 -0.3393898010253906
0.43370020389556885 -0.8048334121704102 -0.4307488799095154
0.43053528666496277 -0.7361136078834534 -0.49211278557777405
0.4362800419330597 -0.6480578184127808 -0.5276792049407959
0.44910570979118347 -0.5443788766860962 -0.5410135388374329
0.4673016667366028 -0.42864298820495605 -0.5352522730827332
0.489208459854126 -0.3044107258319855 -0.5132603049278259
0.5131652355194092 -0.17535224556922913 -0.4777565896511078
0.5374691486358643 -0.04534117877483368 -0.43141674995422363
0.5603445172309875 0.08147340267896652 -0.3769563138484955
0.5799232125282288 0.20061655342578888 -0.3171975910663605
0.5945674777030945 0.3082500696182251 -0.25480005145072937
0.6038907170295715 0.4042379558086395 -0.19128701090812683
0.6078213453292847 0.48939192295074463 -0.12793470919132233
0.60628342628479 0.5645226836204529 -0.0660838857293129
0.5992002487182617 0.6304474472999573 -0.007141347508877516
0.586500346660614 0.6879976987838745 0.04742109030485153
0.5681210160255432 0.7380247116088867 0.09606938809156418
0.5440148711204529 0.7814056873321533 0.1372145265340805
0.5141544342041016 0.8190458416938782 0.16922125220298767
0.4785385727882385 0.851881742477417 0.19042152166366577
0.4371985197067261 0.8808809518814087 0.1991311013698578
0.3902028799057007 0.9070408344268799 0.19367016851902008
0.3376638889312744 0.9313850998878479 0.1723872870206833
0.28008320927619934 0.9543437361717224 0.1341199278831482
0.21943938732147217 0.9738739132881165 0.07958082109689713
0.15826721489429474 0.9872778654098511 0.010223783552646637
0.09929299354553223 0.9918989539146423 -0.07209137082099915
0.04534992203116417 0.9852516651153564 -0.16505023837089539
-0.0007508701528422534 0.9651799201965332 -0.26588916778564453
-0.03638412058353424 0.9300224781036377 -0.3714626133441925
-0.05928945168852806 0.8787627220153809 -0.4783738851547241
-0.06774061918258667 0.811134397983551 -0.5831578373908997
-0.060677219182252884 0.7276616096496582 -0.6824930310249329
-0.03777546435594559 0.6296212077140808 -0.7734137773513794
0.000553873076569289 0.5189301371574402 -0.853489100933075
0.05323956534266472 0.3979744613170624 -0.920944333076477
0.6033703684806824 -0.7738404273986816 0.2184745818376541
0.536920428276062 -0.8338332176208496 -0.017805276438593864
0.48951202630996704 -0.8526368737220764 -0.20361660420894623
0.45788446068763733 -0.8369265198707581 -0.34698066115379333
0.4394115209579468 -0.792147696018219 -0.4541604518890381
0.43190401792526245 -0.7229291200637817 -0.5301655530929565
0.43346723914146423 -0.6333841681480408 -0.5791122913360596
0.4423949420452118 -0.5273407101631165 -0.6044886112213135
0.4570877254009247 -0.40852266550064087 -0.6093563437461853
0.4759894609451294 -0.2806970179080963 -0.5965102314949036
0.4975362718105316 -0.1477935016155243 -0.5686055421829224
0.5201176404953003 -0.014001238159835339 -0.5282645225524902
0.5420470833778381 0.11615914851427078 -0.4781630337238312
0.5615445971488953 0.2377900630235672 -0.42110103368759155
0.5770292282104492 0.34667521715164185 -0.3597642183303833
0.5880481004714966 0.44263362884521484 -0.2958362102508545
0.5944376587867737 0.526551365852356 -0.23078790307044983
0.5960343480110168 0.5993490815162659 -0.16615404188632965
0.5926782488822937 0.6619865894317627 -0.10353207588195801
0.5842154622077942 0.715465247631073 -0.0445779450237751
0.5705010890960693 0.7608298063278198 0.008998741395771503
0.5514029860496521 0.7991704940795898 0.055443380028009415
0.52680504322052 0.8316214084625244 0.09296535700559616
0.4966109097003937 0.8593594431877136 0.1197509840130806
0.4607481062412262 0.8836008310317993 0.13397765159606934
0.4191712439060211 0.9055968523025513 0.1338312029838562
0.3718658685684204 0.9266263842582703 0.1175246611237526
0.3192223012447357 0.9473015666007996 0.08380013704299927
0.2632099688053131 0.9654690027236938 0.033449482172727585
0.2063688039779663 0.9782447814941406 -0.03196665644645691
0.15141989290714264 0.9827808141708374 -0.11049745976924896
0.10118484497070312 0.9763948917388916 -0.19975118339061737
0.05846070498228073 0.9567310810089111 -0.2968979775905609
0.025859346613287926 0.9219344854354858 -0.39873749017715454
0.00563036696985364 0.8708099126815796 -0.501829981803894
-0.0005066889571025968 0.8029393553733826 -0.6026799082756042
0.008506243117153645 0.718731701374054 -0.6979506015777588
0.03299503028392792 0.619391679763794 -0.784676194190979
0.07255525887012482 0.5068087577819824 -0.8604417443275452
0.12612608075141907 0.38338416814804077 -0.9235028028488159
0.623731255531311 -0.7493311166763306 0.2638811469078064
0.5573234558105469 -0.8135056495666504 0.014185382053256035
0.5085597038269043 -0.835791289806366 -0.1858261078596115
0.4746086895465851 -0.8226350545883179 -0.34356987476348877
0.4531680643558502 -0.7793810367584229 -0.4648842513561249
0.44230249524116516 -0.7106462121009827 -0.5544680953025818
0.4403250217437744 -0.6206004023551941 -0.6162003874778748
0.4457065165042877 -0.5131848454475403 -0.6533794403076172
0.45700541138648987 -0.39228928089141846 -0.668908953666687
0.47281113266944885 -0.2618953585624695 -0.6654473543167114
0.4916994273662567 -0.1261957436800003 -0.645530641078949
0.5121968388557434 0.01031204778701067 -0.6116751432418823
0.5327551960945129 0.14275842905044556 -0.5664635896682739
0.5517363548278809 0.26586514711380005 -0.512614905834198
0.5676652789115906 0.37509050965309143 -0.45278775691986084
0.5800327062606812 0.47022876143455505 -0.3888149857521057
0.5885798931121826 0.5522520542144775 -0.32236480712890625
0.5930513143539429 0.6222041249275208 -0.2551707625389099
0.5931963324546814 0.6811990737915039 -0.18902568519115448
0.5887709259986877 0.7304181456565857 -0.12577365338802338
0.579539954662323 0.7711060047149658 -0.06730225682258606
0.5652786493301392 0.8045682311058044 -0.01553211361169815
0.5457748174667358 0.8321635723114014 0.027592763304710388
0.5208308100700378 0.8553006052970886 0.060116566717624664
0.4902653992176056 0.8754284977912903 0.08008348941802979
0.45391562581062317 0.8940313458442688 0.08555056154727936
0.4116383492946625 0.9126191735267639 0.07460066676139832
0.36371228098869324 0.9319658279418945 0.045879099518060684
0.3120987117290497 0.9498130679130554 0.00023107945162337273
0.2593447268009186 0.9631026387214661 -0.060712456703186035
0.2081691473722458 0.9688009023666382 -0.1349508911371231
0.16138751804828644 0.9640264511108398 -0.22005775570869446
0.12179090827703476 0.9462143778800964 -0.31317856907844543
0.09198859333992004 0.9132968783378601 -0.41109439730644226
0.07423214614391327 0.863874614238739 -0.5103498697280884
0.07024762034416199 0.7973473072052002 -0.60743647813797
0.08110275119543076 0.7139768600463867 -0.6990067958831787
0.10713449865579605 0.6148662567138672 -0.782088577747345
0.1479492485523224 0.5018535852432251 -0.8542661070823669
0.20249603688716888 0.377337247133255 -0.9138016700744629
0.6427087187767029 -0.7220266461372375 0.3089197278022766
0.5803106427192688 -0.7905428409576416 0.05184007063508034
0.5332970023155212 -0.816920280456543 -0.15811480581760406
0.49943339824676514 -0.8071708679199219 -0.32727232575416565
0.47686535120010376 -0.7664168477058411 -0.4606999456882477
0.46400558948516846 -0.6991997957229614 -0.5625374913215637
0.459447979927063 -0.6097205281257629 -0.6362479329109192
0.46189963817596436 -0.5020318031311035 -0.6848104000091553
0.47012725472450256 -0.38019728660583496 -0.7108762264251709
0.4829123616218567 -0.2484234869480133 -0.7168963551521301
0.49901625514030457 -0.11116833239793777 -0.705230712890625
0.5171509385108948 0.026775576174259186 -0.6782397627830505
0.5359591245651245 0.16022485494613647 -0.6383641362190247
0.5540024638175964 0.2835833430290222 -0.5881891250610352
0.5699644088745117 0.3920603394508362 -0.5302971601486206
0.5832907557487488 0.48545747995376587 -0.46665963530540466
0.5936261415481567 0.5648505687713623 -0.3991428017616272
0.6006191968917847 0.6314213275909424 -0.32968029379844666
0.6039236783981323 0.6864492297172546 -0.26026052236557007
0.6032000184059143 0.7313011884689331 -0.1929142326116562
0.5981170535087585 0.7674225568771362 -0.12970314919948578
0.5883527398109436 0.7963266372680664 -0.07270750403404236
0.5735951066017151 0.8195846080780029 -0.024016203358769417
0.5535423159599304 0.838815450668335 0.014283335767686367
0.5279035568237305 0.8556764125823975 0.04011358693242073
0.4963986575603485 0.8718539476394653 0.051414601504802704
0.4587576985359192 0.8890551924705505 0.046150073409080505
0.41515010595321655 0.9081907868385315 0.022870413959026337
0.36752980947494507 0.9269102215766907 -0.01755700074136257
0.31845158338546753 0.9419983625411987 -0.07347565144300461
0.2706347107887268 0.9502478837966919 -0.14288459718227386
0.22689352929592133 0.9485825300216675 -0.223373681306839
0.19002176821231842 0.9342214465141296 -0.31211328506469727
0.16263742744922638 0.9048672914505005 -0.4059094190597534
0.14700797200202942 0.8588908910751343 -0.5013260245323181
0.1448802947998047 0.7954772114753723 -0.5948632955551147
0.15734504163265228 0.7147064208984375 -0.6831715703010559
0.18476004898548126 0.6175458431243896 -0.7632666230201721
0.22674766182899475 0.5057536363601685 -0.8327146172523499
0.28226619958877563 0.3817044198513031 -0.8897582292556763
0.6600461602210999 -0.6920944452285767 0.35360509157180786
0.6059209108352661 -0.7648444771766663 0.09561138600111008
0.5641457438468933 -0.7957468628883362 -0.11955622583627701
0.5331829190254211 -0.7901636958122253 -0.29672369360923767
0.5117133855819702 -0.7528600096702576 -0.4398661255836487
0.49857211112976074 -0.6882250308990479 -0.5523176789283752
0.4926973581314087 -0.6004548072814941 -0.6369377374649048
0.4930887520313263 -0.49370428919792175 -0.6962460279464722
0.498771995306015 -0.37221604585647583 -0.7325366735458374
0.5087699890136719 -0.2404276430606842 -0.7479757070541382
0.5220781564712524 -0.10305838286876678 -0.7446861267089844
0.5376457571983337 0.034826528280973434 -0.7248241901397705
0.5543619394302368 0.1677808314561844 -0.6906428337097168
0.5710492134094238 0.28997379541397095 -0.6445471048355103
0.5866034030914307 0.39646413922309875 -0.5889992713928223
0.6004378795623779 0.4871025085449219 -0.5260992646217346
0.6121012568473816 0.5630887150764465 -0.4579107165336609
0.6211444735527039 0.6257560849189758 -0.3865639269351959
0.6271241307258606 0.6765560507774353 -0.314238041639328
0.6296035647392273 0.7170405387878418 -0.24314212799072266
0.628154456615448 0.7488451600074768 -0.17550092935562134
0.6223568916320801 0.773674488067627 -0.11354029178619385
0.6118001341819763 0.7932865023612976 -0.05947801470756531
0.5960806608200073 0.8094798922538757 -0.015515425242483616
0.574802041053772 0.824083685874939 0.016166405752301216
0.547572135925293 0.8389475345611572 0.03340883180499077
0.5140005350112915 0.8559356331825256 0.03407350182533264
0.47415265440940857 0.8760675191879272 0.016621951013803482
0.4299733340740204 0.8969188928604126 -0.018092218786478043
0.38402292132377625 0.9151451587677002 -0.06843827664852142
0.33902043104171753 0.9273865818977356 -0.13247095048427582
0.29778215289115906 0.930383026599884 -0.20785480737686157
0.26311054825782776 0.9211378693580627 -0.2918422222137451
0.2376425564289093 0.8971124887466431 -0.38131648302078247
0.22367417812347412 0.8564232587814331 -0.47290295362472534
0.22298777103424072 0.7980077862739563 -0.5631400942802429
0.23671063780784607 0.721725583076477 -0.6486891508102417
0.2652328908443451 0.6283699870109558 -0.7265514135360718
0.30819934606552124 0.5195840001106262 -0.7942578792572021
0.3645789921283722 0.3976912498474121 -0.8500031232833862
0.6752974987030029 -0.659504771232605 0.3973912298679352
0.6329127550125122 -0.7359378337860107 0.14439915120601654
0.5994386672973633 -0.7713804244995117 -0.07129095494747162
0.5740010738372803 -0.7703971862792969 -0.2528362572193146
0.5558127760887146 -0.7372819185256958 -0.4029453992843628
0.5441458821296692 -0.6761940121650696 -0.5239847302436829
0.5383080840110779 -0.5912768840789795 -0.618069052696228
0.5376226305961609 -0.4867604672908783 -0.687140941619873
0.5414102077484131 -0.36704957485198975 -0.7330418825149536
0.5489734411239624 -0.2367965131998062 -0.7575766444206238
0.5595844388008118 -0.10095585882663727 -0.7625721096992493
0.572474479675293 0.035180799663066864 -0.749929666519165
0.5868270993232727 0.16597585380077362 -0.721671998500824
0.6017759442329407 0.28546568751335144 -0.6799802780151367
0.6164739727973938 0.3886675536632538 -0.627158522605896
0.6303152441978455 0.4755219519138336 -0.5654246807098389
0.6427558064460754 0.5473655462265015 -0.49703291058540344
0.6532533168792725 0.6056883931159973 -0.4243016839027405
0.6612710952758789 0.6521084904670715 -0.3495880365371704
0.6662799715995789 0.6883478760719299 -0.27526363730430603
0.6677602529525757 0.7162100672721863 -0.2036975473165512
0.6652014255523682 0.7375590801239014 -0.13724011182785034
0.6581018567085266 0.7543026804924011 -0.07821515202522278
0.6459664106369019 0.7683779001235962 -0.02891441620886326
0.628303587436676 0.781740128993988 0.008401445113122463
0.6046213507652283 0.7963570356369019 0.031498633325099945
0.5744219422340393 0.8142052888870239 0.0381598137319088
0.5376756191253662 0.8363848924636841 0.026768436655402184
0.49631205201148987 0.8604264855384827 -0.001871998654678464
0.4528871476650238 0.8828956484794617 -0.046208497136831284
0.4101119935512543 0.9003141522407532 -0.10440848767757416
0.37079888582229614 0.9092642664909363 -0.17427213490009308
0.3377571702003479 0.9065483808517456 -0.25319549441337585
0.31364503502845764 0.8893862366676331 -0.33819764852523804
0.3007941246032715 0.8556257486343384 -0.4260164201259613
0.3010331690311432 0.8039278984069824 -0.5132665634155273
0.315540075302124 0.7338925004005432 -0.596642017364502
0.3447515070438385 0.6460942625999451 -0.6731327176094055
0.3883480429649353 0.5420161485671997 -0.7402198314666748
0.4453186094760895 0.4238916039466858 -0.7960194945335388
0.6880653500556946 -0.624060332775116 0.43981412053108215
0.6598461270332336 -0.7032226920127869 0.19688254594802856
0.6370657086372375 -0.7427878975868225 -0.01488370168954134
0.6193742752075195 -0.7464666366577148 -0.19704969227313995
0.6064328551292419 -0.7180134057998657 -0.3510510325431824
0.5979053378105164 -0.6612946391105652 -0.47823554277420044
0.593451201915741 -0.5803474187850952 -0.5799033045768738
0.5927180647850037 -0.4794314205646515 -0.6573445200920105
0.5953361392021179 -0.3630717396736145 -0.7118762731552124
0.6009118556976318 -0.23608849942684174 -0.7448778748512268
0.609023928642273 -0.10361406952142715 -0.7578232884407043
0.6192195415496826 0.028908519074320793 -0.752310574054718
0.6310126185417175 0.1557467132806778 -0.7300870418548584
0.643884003162384 0.2709217369556427 -0.6930685043334961
0.6572753190994263 0.3695236146450043 -0.6433637142181396
0.6705746054649353 0.4516147971153259 -0.5832913517951965
0.6831557750701904 0.5186707973480225 -0.5152824521064758
0.6943933963775635 0.5723274350166321 -0.4418247640132904
0.7036687135696411 0.6143491268157959 -0.3654312491416931
0.7103723287582397 0.646598219871521 -0.28861135244369507
0.7139061093330383 0.6710072755813599 -0.21385127305984497
0.7136830687522888 0.6895568370819092 -0.14359767735004425
0.709125816822052 0.7042562961578369 -0.08025173097848892
0.6996634006500244 0.7171303629875183 -0.02616705745458603
0.6847259402275085 0.7302109599113464 0.016344310715794563
0.663739025592804 0.7455340623855591 0.045000653713941574
0.6361154317855835 0.7651429176330566 0.05753280222415924
0.6017430424690247 0.7901911735534668 0.052260980010032654
0.5625242590904236 0.8182008266448975 0.029903074726462364
0.5209941267967224 0.8456993699073792 -0.008116725832223892
0.47983962297439575 0.869138240814209 -0.060134127736091614
0.4418559670448303 0.8849841952323914 -0.12414523959159851
0.4098491072654724 0.8898687362670898 -0.19775377213954926
0.386493057012558 0.8807868957519531 -0.2781786024570465
0.3741561472415924 0.8553162217140198 -0.36232882738113403
0.3747212886810303 0.8118208646774292 -0.4469433128833771
0.3894313871860504 0.7496037483215332 -0.5287806391716003
0.4187886118888855 0.6689705848693848 -0.6048307418823242
0.4625299870967865 0.5711897015571594 -0.6725152134895325
0.5196834206581116 0.4583505094051361 -0.7298420071601868
0.6980367302894592 -0.5854058265686035 0.48064130544662476
0.6854122877120972 -0.6660390496253967 0.25193923711776733
0.674994170665741 -0.7089366912841797 0.04819908365607262
0.6667693853378296 -0.7169916033744812 -0.1308019906282425
0.6607170104980469 -0.693408727645874 -0.28536009788513184
0.6568066477775574 -0.6417248249053955 -0.4158612787723541
0.6549969911575317 -0.5658205151557922 -0.5227988958358765
0.6552340388298035 -0.46992573142051697 -0.6067895889282227
0.6574497818946838 -0.3586174249649048 -0.6685895323753357
0.6615606546401978 -0.2368052899837494 -0.7091081142425537
0.6674664616584778 -0.10970671474933624 -0.7294198274612427
0.6750496625900269 0.017190607264637947 -0.7307729125022888
0.6841747760772705 0.13817961513996124 -0.714594841003418
0.6946884989738464 0.2473975419998169 -0.6824910044670105
0.7063368558883667 0.34012097120285034 -0.6363347172737122
0.7185177803039551 0.4165542423725128 -0.5785203576087952
0.7305393218994141 0.4782964289188385 -0.511629045009613
0.7417112588882446 0.5271024107933044 -0.43828797340393066
0.7513510584831238 0.564845621585846 -0.36113250255584717
0.7587882280349731 0.593483030796051 -0.2827749252319336
0.7633663415908813 0.6150258779525757 -0.2057831734418869
0.7644417881965637 0.6315164566040039 -0.13266554474830627
0.7613818645477295 0.6450101733207703 -0.0658668726682663
0.7535597085952759 0.6575644612312317 -0.0077706798911094666
0.7403484582901001 0.6712345480918884 0.03929009661078453
0.7211116552352905 0.6880754232406616 0.07301560789346695
0.6951939463615417 0.7101498246192932 0.0911141186952591
0.6624147891998291 0.7386398315429688 0.09185979515314102
0.6246333718299866 0.7711030840873718 0.07585068047046661
0.584341287612915 0.8040888905525208 0.04433386027812958
0.5441808700561523 0.8340385556221008 -0.0012467980850487947
0.5069097280502319 0.8573588132858276 -0.05914142355322838
0.47531408071517944 0.8705590963363647 -0.12722499668598175
0.4520722031593323 0.8704431653022766 -0.20298314094543457
0.4395851790904999 0.8543328046798706 -0.28356191515922546
0.4397960603237152 0.8202869296073914 -0.3658826947212219
0.4540276825428009 0.7672799229621887 -0.44681209325790405
0.48287180066108704 0.6952968239784241 -0.523363471031189
0.5261507034301758 0.6053264141082764 -0.5928977727890015
0.5829616189002991 0.4992455840110779 -0.653290867805481
0.7049416303634644 -0.5430022478103638 0.5198313593864441
0.7084071636199951 -0.6236407160758972 0.30863866209983826
0.7112463712692261 -0.6687827110290527 0.11657435446977615
0.7136011123657227 -0.6806248426437378 -0.055584926158189774
0.7156296968460083 -0.6618720889091492 -0.2072274088859558
0.7175048589706421 -0.6157287955284119 -0.33792465925216675
0.7194129228591919 -0.5458791851997375 -0.4474472999572754
0.7215515971183777 -0.4564548134803772 -0.5357775092124939
0.7241270542144775 -0.3519916832447052 -0.603116512298584
0.7273518443107605 -0.23737716674804688 -0.6498881578445435
0.7314420938491821 -0.11778731644153595 -0.676737368106842
0.736613929271698 0.0013826792128384113 -0.6845232248306274
0.7430815100669861 0.11459286510944366 -0.6743080019950867
0.7510531544685364 0.21623556315898895 -0.6473408341407776
0.7605764269828796 0.3018808960914612 -0.6052142381668091
0.771076500415802 0.37187808752059937 -0.5503607392311096
0.781819760799408 0.42791643738746643 -0.48547181487083435
0.7920758724212646 0.4718254804611206 -0.4132702648639679
0.801124632358551 0.5055344104766846 -0.33646902441978455
0.8082603216171265 0.5310371518135071 -0.25773876905441284
0.8127927184104919 0.5503625869750977 -0.1796863079071045
0.8140463829040527 0.5655537247657776 -0.10484150052070618
0.8113572597503662 0.578652560710907 -0.03565620258450508
0.8040664196014404 0.5916928648948669 0.02549022063612938
0.7915119528770447 0.6067004799842834 0.07627516984939575
0.7730192542076111 0.6257003545761108 0.1144106313586235
0.7478870153427124 0.6507304906845093 0.1376125067472458
0.7158809304237366 0.6829774379730225 0.14412720501422882
0.6787981390953064 0.7200811505317688 0.13440103828907013
0.6390607357025146 0.7586792707443237 0.10946062952280045
0.5992403626441956 0.795271635055542 0.07048296928405762
0.5620329976081848 0.826273500919342 0.018911829218268394
0.5301827788352966 0.8481362462043762 -0.04345902428030968
0.5063557028770447 0.8575253486633301 -0.11444905400276184
0.49297747015953064 0.851540744304657 -0.19151200354099274
0.49205437302589417 0.827944815158844 -0.27181974053382874
0.5050060749053955 0.7853621244430542 -0.35240477323532104
0.5325425863265991 0.7234086394309998 -0.4303431510925293
0.5746095776557922 0.6427223682403564 -0.502950131893158
0.6304153203964233 0.5448846817016602 -0.5679571628570557
0.7085082530975342 -0.49608778953552246 0.5574991106987
0.7276936769485474 -0.5751588344573975 0.36622703075408936
0.7438767552375793 -0.6212577819824219 0.18892742693424225
0.7572196125984192 -0.6360718011856079 0.02701135352253914
0.7679459452629089 -0.6219078302383423 -0.1182834655046463
0.7763404846191406 -0.5816701054573059 -0.24592337012290955
0.7827440500259399 -0.5188184976577759 -0.35510390996932983
0.7875493764877319 -0.4373099207878113 -0.4452674686908722
0.7911937832832336 -0.3415268659591675 -0.516112744808197
0.7941513657569885 -0.2361942082643509 -0.5675962567329407
0.7969248294830322 -0.12629078328609467 -0.5999246835708618
0.8000367879867554 -0.01695910282433033 -0.6135410070419312
0.8040207624435425 0.0865824818611145 -0.6091030240058899
0.809414267539978 0.1791200339794159 -0.5874571204185486
0.816540002822876 0.25661149621009827 -0.5498675107955933
0.8248690366744995 0.31953495740890503 -0.4987545907497406
0.8336572051048279 0.369618684053421 -0.43686553835868835
0.8421658873558044 0.4087067246437073 -0.3669629991054535
0.8496685028076172 0.43871980905532837 -0.2917823791503906
0.8554542064666748 0.4616214632987976 -0.21399983763694763
0.8588288426399231 0.47939273715019226 -0.1362132877111435
0.8591128587722778 0.4940139949321747 -0.060930654406547546
0.8556370735168457 0.5074545741081238 0.009427577257156372
0.8477353453636169 0.5216700434684753 0.07252028584480286
0.8347354531288147 0.5386067032814026 0.1260659396648407
0.815947413444519 0.5602138042449951 0.16781769692897797
0.7906488180160522 0.588462233543396 0.19552820920944214
0.7585667371749878 0.6245192289352417 0.20743504166603088
0.7214151620864868 0.6661545634269714 0.20380526781082153
0.6815165877342224 0.7101621031761169 0.1854085773229599
0.6413435935974121 0.7531732320785522 0.15311801433563232
0.6035017371177673 0.7916903495788574 0.10802824050188065
0.5706660747528076 0.822185218334198 0.05154946818947792
0.5454682111740112 0.8412576913833618 -0.014534720219671726
0.5303454399108887 0.8458420634269714 -0.08805817365646362
0.5273672938346863 0.8334346413612366 -0.16652053594589233
0.5380668640136719 0.8023075461387634 -0.24719391763210297
0.5633057951927185 0.7516686320304871 -0.32727769017219543
0.6032006144523621 0.6817334890365601 -0.40407994389533997
0.6571270227432251 0.5936932563781738 -0.47519752383232117
0.7084180116653442 -0.44361740350723267 0.5938923954963684
0.7421568632125854 -0.5195572972297668 0.4241103529930115
0.7709512114524841 -0.5652574300765991 0.263997882604599
0.794920027256012 -0.5821212530136108 0.1152665838599205
0.8142922520637512 -0.5721957087516785 -0.020506639033555984
0.8294050693511963 -0.5381390452384949 -0.1419202834367752
0.8406983017921448 -0.4831681549549103 -0.2477816343307495
0.8487042784690857 -0.41098466515541077 -0.33713141083717346
0.8540368676185608 -0.3256893455982208 -0.4092581868171692
0.8573766946792603 -0.23168635368347168 -0.463702917098999
0.8594560623168945 -0.1335848718881607 -0.5002525448799133
0.861043393611908 -0.03610445559024811 -0.5189249515533447
0.8629290461540222 0.05601228401064873 -0.5199465155601501
0.8659120798110962 0.13807371258735657 -0.5037227869033813
0.8705382347106934 0.20650137960910797 -0.47114455699920654
0.8763420581817627 0.26186802983283997 -0.42455944418907166
0.882606029510498 0.3058752715587616 -0.36670419573783875
0.8886195421218872 0.3403119146823883 -0.30031517148017883
0.8936854004859924 0.36701852083206177 -0.22808745503425598
0.8971213698387146 0.3878592848777771 -0.15264564752578735
0.898261308670044 0.40470126271247864 -0.07652729749679565
0.8964511156082153 0.4194016456604004 -0.002174153458327055
0.8910442590713501 0.4338015615940094 0.06806342303752899
0.8813936710357666 0.44972825050354004 0.1319154053926468
0.8668416142463684 0.4690030515193939 0.18717102706432343
0.8467079401016235 0.4934573471546173 0.2316519320011139
0.8202739357948303 0.5249544382095337 0.2631755471229553
0.7872442007064819 0.564618706703186 0.27998968958854675
0.749225914478302 0.6103929281234741 0.28216060996055603
0.708410918712616 0.6592930555343628 0.27017468214035034
0.6671390533447266 0.7081558704376221 0.2445758432149887
0.6278924942016602 0.7536545395851135 0.20607943832874298
0.5932442545890808 0.7923724055290222 0.1556721180677414
0.5657622218132019 0.8209338188171387 0.09468601644039154
0.5478748083114624 0.8361886143684387 0.024836959317326546
0.5417089462280273 0.835424542427063 -0.0517861545085907
0.5489241480827332 0.81658536195755 -0.1327858567237854
0.5705694556236267 0.778451681137085 -0.21557244658470154
0.6069890260696411 0.7207539677619934 -0.2975187599658966
0.6577978730201721 0.6441923379898071 -0.37613150477409363
0.7042515873908997 -0.384166955947876 0.6293819546699524
0.7506482005119324 -0.45557165145874023 0.48183685541152954
0.7905229926109314 -0.499626487493515 0.34056639671325684
0.8239730000495911 -0.51768559217453 0.2073131948709488
0.8512371182441711 -0.5116807222366333 0.08373857289552689
0.8726931810379028 -0.48408326506614685 -0.028617490082979202
0.8888493776321411 -0.437846302986145 -0.12837083637714386
0.9003317356109619 -0.37633103132247925 -0.21431966125965118
0.9078688621520996 -0.30322378873825073 -0.2854619026184082
0.9122722148895264 -0.222447007894516 -0.34100353717803955
0.9144178628921509 -0.13807128369808197 -0.3803572952747345
0.9152261018753052 -0.054232776165008545 -0.4031327962875366
0.9156444072723389 0.024939648807048798 -0.40911951661109924
0.9166308045387268 0.09538403153419495 -0.3982633352279663
0.9188737869262695 0.1540396511554718 -0.37104853987693787
0.9219878911972046 0.20152606070041656 -0.32968464493751526
0.9253219962120056 0.23944498598575592 -0.2768242359161377
0.9282330274581909 0.2694564759731293 -0.21510595083236694
0.9300903081893921 0.2932506203651428 -0.14711908996105194
0.930276095867157 0.31252628564834595 -0.07537771761417389
0.9281848669052124 0.3289763629436493 -0.0023075484205037355
0.923218846321106 0.34428027272224426 0.06975992769002914
0.9147825837135315 0.36010247468948364 0.13858135044574738
0.9022755026817322 0.3780977129936218 0.2019897699356079
0.8850805759429932 0.3999221622943878 0.25787293910980225
0.8625531196594238 0.4272507131099701 0.3041468560695648
0.8340049982070923 0.4618006646633148 0.33872008323669434
0.7991359233856201 0.5046288371086121 0.3598698377609253
0.7594215869903564 0.5538877844810486 0.3674488067626953
0.7168861031532288 0.6068739295005798 0.3616454005241394
0.6737003922462463 0.660700798034668 0.34266358613967896
0.6321823000907898 0.712297260761261 0.3108257055282593
0.5947609543800354 0.758455753326416 0.266670823097229
0.5639011859893799 0.7959325909614563 0.21103936433792114
0.5419892072677612 0.8215969800949097 0.1451343148946762
0.5311910510063171 0.8326194286346436 0.07054691761732101
0.5332962274551392 0.8266738057136536 -0.010762723162770271
0.5495725870132446 0.8021277189254761 -0.09653441607952118
0.5806536078453064 0.7581874132156372 -0.18432188034057617
0.6264821887016296 0.6949684023857117 -0.27163904905319214
0.6954204440116882 -0.31578218936920166 0.6644691228866577
0.7519167065620422 -0.3816261291503906 0.5390796065330505
0.8006094098091125 -0.42314398288726807 0.41744086146354675
0.8416769504547119 -0.4418477714061737 0.3011341691017151
0.8754363656044006 -0.4396740198135376 0.19170843064785004
0.9023370146751404 -0.41894423961639404 0.09065035730600357
0.9229506850242615 -0.38231515884399414 -0.0006413409719243646
0.937957763671875 -0.3327202796936035 -0.0808774009346962
0.9481320977210999 -0.2733082175254822 -0.14889366924762726
0.954322874546051 -0.2073793113231659 -0.20366144180297852
0.9574376940727234 -0.13832436501979828 -0.24429140985012054
0.9584245085716248 -0.06956858187913895 -0.27003172039985657
0.9582563042640686 -0.004522206261754036 -0.2802615463733673
0.9579161405563354 0.053459469228982925 -0.2744790315628052
0.9581313729286194 0.10186517238616943 -0.25275370478630066
0.9586083889007568 0.1413063257932663 -0.21709337830543518
0.9588027596473694 0.173212468624115 -0.16999167203903198
0.9581786394119263 0.19904674589633942 -0.1139194518327713
0.9562085866928101 0.22028599679470062 -0.05129571631550789
0.9523744583129883 0.23840709030628204 0.01553247682750225
0.9461638927459717 0.25487804412841797 0.08430042117834091
0.9370660781860352 0.2711556553840637 0.15282860398292542
0.9245668649673462 0.28868725895881653 0.21901625394821167
0.908139169216156 0.3089183270931244 0.2808295488357544
0.8872349858283997 0.3333045542240143 0.336281418800354
0.8612732291221619 0.36332961916923523 0.38340678811073303
0.8296255469322205 0.40052786469459534 0.42023009061813354
0.792006254196167 0.44586145877838135 0.4450783431529999
0.7497314214706421 0.4977205693721771 0.4575873017311096
0.7046172618865967 0.5537317991256714 0.4576471447944641
0.65861976146698 0.6113481521606445 0.44512656331062317
0.6138423085212708 0.6678351163864136 0.41995957493782043
0.572515606880188 0.7202949523925781 0.3822340965270996
0.5369440913200378 0.7657328248023987 0.33227774500846863
0.5094189047813416 0.8011658191680908 0.2707326114177704
0.4921031892299652 0.8237708806991577 0.19861000776290894
0.4868968725204468 0.8310561776161194 0.11731347441673279
0.4952995777130127 0.8210402131080627 0.028622204437851906
0.5182879567146301 0.7924092411994934 -0.06536965817213058
0.5562301874160767 0.7446306943893433 -0.16235414147377014
0.681070864200592 -0.23573380708694458 0.6998166441917419
0.7445237040519714 -0.2957189977169037 0.5956231355667114
0.7991673946380615 -0.3345066010951996 0.49344301223754883
0.8454309105873108 -0.35391440987586975 0.3945797383785248
0.883818507194519 -0.35594692826271057 0.30034035444259644
0.9149038195610046 -0.3427737057209015 0.21202316880226135
0.9393236041069031 -0.3167054355144501 0.13090577721595764
0.9577699899673462 -0.2801695466041565 0.05823391303420067
0.9709827303886414 -0.23568427562713623 -0.004788095131516457
0.9797408580780029 -0.18583327531814575 -0.057006195187568665
0.9848542809486389 -0.13324056565761566 -0.09732386469841003
0.9871557950973511 -0.08054640889167786 -0.12470757961273193
0.987492561340332 -0.03038516268134117 -0.13819117844104767
0.986719012260437 0.014634883962571621 -0.13687799870967865
0.985480010509491 0.05256284400820732 -0.12044795602560043
0.9835806488990784 0.08394870162010193 -0.09065499156713486
0.9806216359138489 0.10998717695474625 -0.04976480454206467
0.9762089252471924 0.1318885236978531 -1.6723141015972942e-05
0.9699532985687256 0.15086722373962402 0.0563979372382164
0.9614680409431458 0.1681349277496338 0.11735064536333084
0.9503651857376099 0.18489688634872437 0.18078181147575378
0.9362515807151794 0.20235323905944824 0.24470266699790955
0.9187223315238953 0.22170288860797882 0.3071880340576172
0.8973546028137207 0.24415206909179688 0.36636608839035034
0.8716982007026672 0.27092599868774414 0.4204004108905792
0.8412672281265259 0.3032851815223694 0.4674692451953888
0.8055257797241211 0.3425453305244446 0.5057366490364075
0.7642253637313843 0.3895447850227356 0.5336005091667175
0.7184911966323853 0.4429289698600769 0.5504880547523499
0.6698818802833557 0.5006921887397766 0.5560042858123779
0.6200827360153198 0.5606794357299805 0.5497047305107117
0.5709181427955627 0.6205647587776184 0.5311592221260071
0.5243460536003113 0.677855908870697 0.5000236630439758
0.482427716255188 0.7299284934997559 0.45611560344696045
0.447272390127182 0.7740922570228577 0.399490088224411
0.4209573566913605 0.8076887130737305 0.33050915598869324
0.40542665123939514 0.828217625617981 0.24989691376686096
0.4023771286010742 0.8334788084030151 0.15876944363117218
0.41314294934272766 0.8217182159423828 0.05863368511199951
0.4385942220687866 0.791757345199585 -0.04865146428346634
0.6599307656288147 -0.140110045671463 0.7363146543502808
0.7267249226570129 -0.19525651633739471 0.6513529419898987
0.784064531326294 -0.2323087751865387 0.5673941969871521
0.8328234553337097 -0.2534668445587158 0.4854016900062561
0.8737958669662476 -0.2608036696910858 0.40636956691741943
0.9077118635177612 -0.25629958510398865 0.3313269317150116
0.9352520704269409 -0.24187101423740387 0.2613399624824524
0.9570593237876892 -0.2193935215473175 0.1975119262933731
0.9737489223480225 -0.19071999192237854 0.14098110795021057
0.9859152436256409 -0.1576942801475525 0.09291595965623856
0.9941402077674866 -0.12216053158044815 0.05450845882296562
0.9989979863166809 -0.08596846461296082 0.026964543387293816
1.0010579824447632 -0.05097407475113869 0.011491863988339901
1.000888705253601 -0.019036762416362762 0.009285535663366318
0.9989254474639893 0.008445730432868004 0.020990312099456787
0.9950734376907349 0.03191806748509407 0.04514148831367493
0.9891088008880615 0.05229407176375389 0.07975735515356064
0.9808094501495361 0.07049290090799332 0.12288204580545425
0.9699519276618958 0.08743457496166229 0.17259898781776428
0.9563089609146118 0.10403807461261749 0.22704041004180908
0.9396448731422424 0.1212216466665268 0.2843901216983795
0.9197118878364563 0.13990609347820282 0.34288373589515686
0.8962438106536865 0.16101959347724915 0.4008021950721741
0.8689517378807068 0.18550577759742737 0.45646288990974426
0.8375164866447449 0.2143336832523346 0.5082054138183594
0.801580548286438 0.24851107597351074 0.5543747544288635
0.7607396245002747 0.28910064697265625 0.5932983756065369
0.7148073315620422 0.33678579330444336 0.623466968536377
0.6646818518638611 0.3904745876789093 0.6441190838813782
0.6116049885749817 0.44855445623397827 0.6546023488044739
0.55692058801651 0.5093007683753967 0.6541959643363953
0.5020896196365356 0.5708544850349426 0.6421490907669067
0.4486958980560303 0.6312132477760315 0.6177284717559814
0.39843758940696716 0.6882398128509521 0.5802725553512573
0.35310375690460205 0.7396889925003052 0.529252290725708
0.3145347237586975 0.7832555174827576 0.464336097240448
0.284564733505249 0.8166424632072449 0.38545432686805725
0.26495036482810974 0.8376494646072388 0.2928578853607178
0.2572872042655945 0.8442743420600891 0.18716385960578918
0.2629217505455017 0.834820568561554 0.06938144564628601
0.6300562024116516 -0.023110661655664444 0.775206983089447
0.6963092684745789 -0.07680854946374893 0.7062509059906006
0.7530496716499329 -0.11502183228731155 0.6381009221076965
0.8017348647117615 -0.14041002094745636 0.5713081359863281
0.8434715270996094 -0.1551159769296646 0.506496012210846
0.8791078329086304 -0.16091987490653992 0.44436898827552795
0.9092975854873657 -0.15934860706329346 0.3857191503047943
0.9345470070838928 -0.15175576508045197 0.3314313590526581
0.9552493095397949 -0.1393810659646988 0.2824861705303192
0.9717110395431519 -0.12339504808187485 0.23995938897132874
0.9841739535331726 -0.10493270307779312 0.20501771569252014
0.9928313493728638 -0.08511783182621002 0.17890973389148712
0.9978437423706055 -0.06508001685142517 0.16295050084590912
0.9993511438369751 -0.045963987708091736 0.15849964320659637
0.997459352016449 -0.028635762631893158 0.16642475128173828
0.9921674728393555 -0.012785707600414753 0.1855638176202774
0.9834486842155457 0.002193667460232973 0.2142583727836609
0.9712726473808289 0.016911877319216728 0.25087177753448486
0.9556019902229309 0.03198045492172241 0.29379579424858093
0.9363898634910583 0.04801415652036667 0.3414546847343445
0.9135750532150269 0.0656331405043602 0.3923051655292511
0.8870797157287598 0.08546685427427292 0.44483518600463867
0.8568047285079956 0.10815849155187607 0.49755844473838806
0.8226261734962463 0.13437147438526154 0.5490072965621948
0.7843895554542542 0.1647965908050537 0.5977212190628052
0.7419058084487915 0.2001618593931198 0.6422355771064758
0.6949440240859985 0.24124334752559662 0.6810639500617981
0.6434116959571838 0.28853780031204224 0.7128140926361084
0.5879368185997009 0.34121406078338623 0.7365655303001404
0.529371976852417 0.39806559681892395 0.7514488697052002
0.4686310291290283 0.4578220248222351 0.7565174698829651
0.4067021906375885 0.5191313028335571 0.7507607340812683
0.34465861320495605 0.5805467963218689 0.7331219911575317
0.28366419672966003 0.6405199766159058 0.7025213837623596
0.22497490048408508 0.6973997354507446 0.6578851342201233
0.1699342131614685 0.7494388222694397 0.5981813073158264
0.11996131390333176 0.7948108315467834 0.5224614143371582
0.07653164863586426 0.8316352367401123 0.429907888174057
0.0411490835249424 0.8580144643783569 0.31988540291786194
0.015309602953493595 0.8720806837081909 0.19199395179748535
0.5883693099021912 0.12424442172050476 0.8183285593986511
0.650356650352478 0.06426427513360977 0.7603967189788818
0.703717827796936 0.019032102078199387 0.7043380737304688
0.7504401803016663 -0.015008495189249516 0.6500324010848999
0.7918089032173157 -0.040306124836206436 0.5975829362869263
0.8286471366882324 -0.05861040577292442 0.5472738742828369
0.861457109451294 -0.07121633738279343 0.49954837560653687
0.8905068635940552 -0.07911743968725204 0.4549991190433502
0.9158846139907837 -0.08310595154762268 0.41436487436294556
0.93753582239151 -0.08384107053279877 0.3785283863544464
0.9552890062332153 -0.08189700543880463 0.3485125005245209
0.9688777327537537 -0.07779795676469803 0.32547318935394287
0.9779589176177979 -0.07204372435808182 0.3106841444969177
0.9821330904960632 -0.0651283785700798 0.30551213026046753
0.981073260307312 -0.057418979704380035 0.3109176456928253
0.9748603105545044 -0.048754435032606125 0.32603296637535095
0.9636736512184143 -0.038838423788547516 0.3495425581932068
0.9476832151412964 -0.027370769530534744 0.3801470398902893
0.927047848701477 -0.014045909978449345 0.4165644645690918
0.9019126892089844 0.0014491473557427526 0.4575295150279999
0.8724077343940735 0.019436923786997795 0.5017911791801453
0.8386455774307251 0.04025258123874664 0.5481107831001282
0.8007187843322754 0.06424681097269058 0.5952561497688293
0.7586988210678101 0.09178981930017471 0.641996443271637
0.7126338481903076 0.12327545881271362 0.6870944499969482
0.6625454425811768 0.15912671387195587 0.7292981147766113
0.6084268093109131 0.199801504611969 0.7673294544219971
0.5503139495849609 0.2455775886774063 0.7999377846717834
0.48851606249809265 0.29587623476982117 0.8260833621025085
0.4234091639518738 0.34989869594573975 0.8447291254997253
0.3553680181503296 0.4068368375301361 0.8547639846801758
0.28476935625076294 0.465865820646286 0.8549923896789551
0.21199555695056915 0.5261349678039551 0.8441197872161865
0.13743889331817627 0.5867598056793213 0.8207385540008545
0.061505381017923355 0.6468114852905273 0.7833114266395569
-0.01538035087287426 0.7053067088127136 0.7301511168479919
-0.09277015179395676 0.7611957788467407 0.6593993902206421
-0.1701866090297699 0.8133485317230225 0.5689999461174011
-0.2471168339252472 0.8605398535728455 0.4566690921783447
-0.32300472259521484 0.9014304876327515 0.3198596239089966
