ply
format ascii 1.0
element vertex 512
property float x
property float y
property float z
end_header
0.0035866498947143555 -1.0025033950805664 0.982694685459137
0.003157699713483453 -1.0022135972976685 0.849562406539917
0.00272874953225255 -1.001923680305481 0.7164301872253418
0.0022997993510216475 -1.001633882522583 0.5832979679107666
0.001870849053375423 -1.0013439655303955 0.4501657485961914
0.0014418988721445203 -1.0010541677474976 0.3170335292816162
0.0010129486909136176 -1.0007643699645996 0.18390128016471863
0.000583998451475054 -1.000474452972412 0.050769057124853134
0.0001550482411403209 -1.0001846551895142 -0.08236317336559296
-0.00027390196919441223 -0.9998947978019714 -0.21549540758132935
-0.0007028521504253149 -0.9996049404144287 -0.34862762689590454
-0.0011318023316562176 -0.999315083026886 -0.4817598760128021
-0.001560752629302442 -0.999025285243988 -0.6148920655250549
-0.001989702694118023 -0.9987354278564453 -0.7480243444442749
-0.0024186528753489256 -0.9984455704689026 -0.8811565637588501
-0.002847603289410472 -0.9981557130813599 -1.0142887830734253
-0.19780611991882324 -0.982025146484375 0.9833881258964539
-0.19823506474494934 -0.9817352890968323 0.8502559065818787
-0.19866400957107544 -0.9814454317092896 0.7171236872673035
-0.19909296929836273 -0.9811555743217468 0.5839914679527283
-0.19952191412448883 -0.9808657169342041 0.4508592188358307
-0.19995087385177612 -0.9805759191513062 0.3177269697189331
-0.20037981867790222 -0.9802860617637634 0.1845947504043579
-0.20080876350402832 -0.9799962043762207 0.05146252363920212
-0.2012377232313156 -0.979706346988678 -0.08166970312595367
-0.2016666680574417 -0.9794164896011353 -0.21480193734169006
-0.2020956128835678 -0.9791266918182373 -0.34793415665626526
-0.2025245726108551 -0.9788368344306946 -0.48106640577316284
-0.2029535174369812 -0.9785469770431519 -0.614198625087738
-0.2033824622631073 -0.9782571196556091 -0.7473308444023132
-0.2038114219903946 -0.9779672622680664 -0.8804630637168884
-0.2042403668165207 -0.9776774048805237 -1.0135953426361084
-0.39095383882522583 -0.9214258193969727 0.9841423630714417
-0.39138278365135193 -0.9211359620094299 0.8510101437568665
-0.391811728477478 -0.9208461046218872 0.7178779244422913
-0.3922406733036041 -0.9205563068389893 0.5847457051277161
-0.3926696479320526 -0.9202664494514465 0.4516134560108185
-0.3930985927581787 -0.9199765920639038 0.3184812366962433
-0.3935275375843048 -0.9196867346763611 0.1853490024805069
-0.3939564824104309 -0.9193968772888184 0.052216775715351105
-0.394385427236557 -0.9191070199012756 -0.08091545104980469
-0.3948144018650055 -0.9188172221183777 -0.21404768526554108
-0.3952433466911316 -0.918527364730835 -0.34717991948127747
-0.3956722915172577 -0.9182375073432922 -0.48031213879585266
-0.3961012363433838 -0.9179476499557495 -0.6134443879127502
-0.3965301811695099 -0.9176577925682068 -0.7465766072273254
-0.396959125995636 -0.9173679947853088 -0.8797088265419006
-0.3973881006240845 -0.9170781373977661 -1.0128411054611206
-0.5679489970207214 -0.823186457157135 0.9849265217781067
-0.5683779716491699 -0.8228965997695923 0.8517943024635315
-0.5688069462776184 -0.8226067423820496 0.7186620831489563
-0.5692358613014221 -0.8223168849945068 0.5855298638343811
-0.5696648359298706 -0.8220270276069641 0.4523976147174835
-0.5700937509536743 -0.8217372298240662 0.3192653954029083
-0.5705227255821228 -0.8214473724365234 0.18613316118717194
-0.5709517002105713 -0.8211575150489807 0.053000930696725845
-0.571380615234375 -0.820867657661438 -0.08013129979372025
-0.5718095898628235 -0.8205778002738953 -0.21326352655887604
-0.5722385048866272 -0.8202880024909973 -0.3463957607746124
-0.5726674795150757 -0.8199981451034546 -0.4795279800891876
-0.5730964541435242 -0.8197082877159119 -0.6126602292060852
-0.5735253691673279 -0.8194184303283691 -0.7457924485206604
-0.5739543437957764 -0.8191285729408264 -0.8789246678352356
-0.5743832588195801 -0.8188387751579285 -1.0120569467544556
-0.7215454578399658 -0.6913289427757263 0.985708475112915
-0.7219744324684143 -0.6910390853881836 0.8525762557983398
-0.722403347492218 -0.6907492280006409 0.7194440364837646
-0.7228323221206665 -0.6904593706130981 0.5863118171691895
-0.723261296749115 -0.6901695132255554 0.45317956805229187
-0.7236902117729187 -0.6898796558380127 0.3200473487377167
-0.7241191864013672 -0.6895898580551147 0.18691511452198029
-0.7245481014251709 -0.689300000667572 0.05378288775682449
-0.7249770760536194 -0.6890101432800293 -0.0793493390083313
-0.7254060506820679 -0.6887202858924866 -0.2124815732240677
-0.7258349657058716 -0.6884304285049438 -0.3456138074398041
-0.7262639403343201 -0.6881406307220459 -0.4787460267543793
-0.7266928553581238 -0.6878507733345032 -0.6118782758712769
-0.7271218299865723 -0.6875609159469604 -0.745010495185852
-0.7275508046150208 -0.6872710585594177 -0.8781427145004272
-0.7279797196388245 -0.686981201171875 -1.0112749338150024
-0.8454549312591553 -0.5312514901161194 0.9864562153816223
-0.8458839058876038 -0.5309616923332214 0.8533239960670471
-0.8463128209114075 -0.5306718349456787 0.7201917767524719
-0.846741795539856 -0.530381977558136 0.5870595574378967
-0.8471707105636597 -0.5300921201705933 0.45392730832099915
-0.8475996851921082 -0.5298022627830505 0.32079508900642395
-0.8480286598205566 -0.5295124650001526 0.18766285479068756
-0.8484575748443604 -0.5292226076126099 0.05453063175082207
-0.8488865494728088 -0.5289327502250671 -0.07860159873962402
-0.8493154644966125 -0.5286428928375244 -0.2117338329553604
-0.849744439125061 -0.5283530354499817 -0.3448660671710968
-0.8501734137535095 -0.5280632376670837 -0.477998286485672
-0.8506023287773132 -0.527773380279541 -0.6111305356025696
-0.8510313034057617 -0.5274835228919983 -0.7442627549171448
-0.8514602184295654 -0.5271936655044556 -0.87739497423172
-0.8518891930580139 -0.5269038081169128 -1.01052725315094
-0.9346045255661011 -0.34950780868530273 0.9871391654014587
-0.9350335001945496 -0.3492179811000824 0.8540069460868835
-0.9354624152183533 -0.3489281237125397 0.7208747267723083
-0.9358913898468018 -0.34863826632499695 0.5877424478530884
-0.9363203048706055 -0.3483484387397766 0.4546102285385132
-0.936749279499054 -0.3480585813522339 0.321478009223938
-0.9371782541275024 -0.34776875376701355 0.1883457750082016
-0.9376071691513062 -0.3474788963794708 0.05521354824304581
-0.9380361437797546 -0.3471890389919281 -0.07791867852210999
-0.9384650588035583 -0.34689921140670776 -0.21105091273784637
-0.9388940334320068 -0.34660935401916504 -0.34418314695358276
-0.9393229484558105 -0.3463195264339447 -0.47731536626815796
-0.939751923084259 -0.346029669046402 -0.6104475855827332
-0.9401808977127075 -0.34573981165885925 -0.7435798048973083
-0.9406098127365112 -0.3454499840736389 -0.8767120838165283
-0.9410387873649597 -0.3451601266860962 -1.0098443031311035
-0.9853444695472717 -0.15353843569755554 0.9877293109893799
-0.9857733845710754 -0.153248593211174 0.8545970916748047
-0.9862023591995239 -0.15295875072479248 0.7214648127555847
-0.9866313338279724 -0.15266889333724976 0.5883325934410095
-0.9870602488517761 -0.15237905085086823 0.4552003741264343
-0.9874892234802246 -0.1520892083644867 0.32206815481185913
-0.9879181385040283 -0.15179936587810516 0.18893590569496155
-0.9883471131324768 -0.15150952339172363 0.055803682655096054
-0.9887760877609253 -0.1512196660041809 -0.07732854783535004
-0.989205002784729 -0.15092982351779938 -0.21046078205108643
-0.9896339774131775 -0.15063998103141785 -0.3435930013656616
-0.9900628924369812 -0.15035013854503632 -0.4767252504825592
-0.9904918670654297 -0.1500602811574936 -0.609857439994812
-0.9909208416938782 -0.14977043867111206 -0.742989718914032
-0.9913497567176819 -0.14948059618473053 -0.8761219382286072
-0.9917787313461304 -0.149190753698349 -1.0092542171478271
-0.9955974221229553 0.04863361641764641 0.9882024526596069
-0.9960263967514038 0.04892346262931824 0.8550702333450317
-0.9964553713798523 0.049213308840990067 0.7219380140304565
-0.996884286403656 0.049503155052661896 0.5888057947158813
-0.9973132610321045 0.049793001264333725 0.45567357540130615
-0.9977421760559082 0.050082847476005554 0.32254132628440857
-0.9981711506843567 0.050372689962387085 0.18940910696983337
-0.9986000657081604 0.050662536174058914 0.056276872754096985
-0.9990290403366089 0.05095238238573074 -0.0768553614616394
-0.9994580149650574 0.05124222859740257 -0.2099875956773758
-0.9998869299888611 0.0515320748090744 -0.3431198298931122
-1.0003159046173096 0.05182192102074623 -0.4762520492076874
-1.0007448196411133 0.05211176723241806 -0.609384298324585
-1.0011738538742065 0.05240161344408989 -0.7425165176391602
-1.0016027688980103 0.05269145965576172 -0.8756487369537354
-1.002031683921814 0.05298130214214325 -1.0087809562683105
-0.9649437069892883 0.24873140454292297 0.9885393381118774
-0.9653726816177368 0.2490212470293045 0.8554071187973022
-0.9658015966415405 0.24931108951568604 0.722274899482727
-0.966230571269989 0.24960093200206757 0.5891426801681519
-0.9666594862937927 0.2498907744884491 0.4560104310512543
-0.9670884609222412 0.2501806318759918 0.3228782117366791
-0.9675174355506897 0.25047045946121216 0.1897459775209427
-0.9679463505744934 0.2507603168487549 0.0566137433052063
-0.9683753252029419 0.2510501742362976 -0.0765184834599495
-0.9688042402267456 0.25134000182151794 -0.20965071022510529
-0.9692332148551941 0.25162985920906067 -0.3427829444408417
-0.9696621894836426 0.2519197165966034 -0.47591516375541687
-0.9700911045074463 0.25220954418182373 -0.6090474128723145
-0.9705200791358948 0.25249940156936646 -0.7421796321868896
-0.9709489941596985 0.2527892291545868 -0.8753118515014648
-0.971377968788147 0.2530790865421295 -1.00844407081604
-0.8946382403373718 0.43856287002563477 0.9887261390686035
-0.8950671553611755 0.4388527274131775 0.8555938601493835
-0.895496129989624 0.4391425848007202 0.7224616408348083
-0.8959251046180725 0.43943241238594055 0.5893294215202332
-0.8963540196418762 0.4397222697734833 0.45619720220565796
-0.8967829942703247 0.4400120973587036 0.3230649530887604
-0.8972119092941284 0.44030195474624634 0.18993273377418518
-0.8976408839225769 0.44059181213378906 0.05680050700902939
-0.8980698585510254 0.4408816397190094 -0.0763317197561264
-0.8984987735748291 0.4411714971065521 -0.2094639539718628
-0.8989277482032776 0.44146132469177246 -0.342596173286438
-0.8993566632270813 0.4417511820793152 -0.47572842240333557
-0.8997856378555298 0.4420410394668579 -0.6088606715202332
-0.9002146124839783 0.44233086705207825 -0.7419928908348083
-0.900643527507782 0.44262072443962097 -0.8751251101493835
-0.9010725021362305 0.4429105818271637 -1.0082573890686035
-0.7875593304634094 0.610356330871582 0.9887551069259644
-0.7879882454872131 0.6106461882591248 0.8556228876113892
-0.7884172201156616 0.6109360456466675 0.722490668296814
-0.7888461947441101 0.6112259030342102 0.5893584489822388
-0.7892751097679138 0.6115157008171082 0.4562261998653412
-0.7897040843963623 0.6118055582046509 0.323093980550766
-0.790132999420166 0.6120954155921936 0.1899617463350296
-0.7905619740486145 0.6123852729797363 0.05682951584458351
-0.790990948677063 0.612675130367279 -0.07630271464586258
-0.7914198637008667 0.612964928150177 -0.20943494141101837
-0.7918488383293152 0.6132547855377197 -0.34256717562675476
-0.7922777533531189 0.6135446429252625 -0.47569939494132996
-0.7927067279815674 0.6138345003128052 -0.6088316440582275
-0.7931356430053711 0.6141243577003479 -0.7419638633728027
-0.7935646176338196 0.6144141554832458 -0.8750960826873779
-0.7939935922622681 0.6147040128707886 -1.0082283020019531
-0.6480907797813416 0.7570785284042358 0.988625168800354
-0.64851975440979 0.7573683857917786 0.8554929494857788
-0.6489486694335938 0.7576582431793213 0.7223607301712036
-0.6493776440620422 0.757948100566864 0.5892285108566284
-0.6498066186904907 0.758237898349762 0.45609626173973083
-0.6502355337142944 0.7585277557373047 0.32296404242515564
-0.6506645083427429 0.7588176131248474 0.18983180820941925
-0.6510934233665466 0.7591074705123901 0.05669958516955376
-0.6515223979949951 0.7593973278999329 -0.07643264532089233
-0.6519513726234436 0.7596871256828308 -0.20956487953662872
-0.6523802876472473 0.7599769830703735 -0.3426971137523651
-0.6528092622756958 0.7602668404579163 -0.4758293330669403
-0.6532381772994995 0.760556697845459 -0.6089615821838379
-0.653667151927948 0.7608465552330017 -0.7420938014984131
-0.6540961265563965 0.7611363530158997 -0.8752260208129883
-0.6545250415802002 0.7614262104034424 -1.0083582401275635
-0.4819425344467163 0.8727226257324219 0.9883416295051575
-0.4823714792728424 0.8730124831199646 0.8552094101905823
-0.4828004240989685 0.8733023405075073 0.7220771908760071
-0.4832293689250946 0.87359219789505 0.5889449715614319
-0.4836583137512207 0.873881995677948 0.4558127224445343
-0.4840872883796692 0.8741718530654907 0.3226805031299591
-0.4845162332057953 0.8744617104530334 0.18954825401306152
-0.4849451780319214 0.8747515678405762 0.05641602724790573
-0.4853741228580475 0.8750414252281189 -0.07671619951725006
-0.4858030676841736 0.8753312230110168 -0.20984843373298645
-0.4862320125102997 0.8756210803985596 -0.34298065304756165
-0.48666098713874817 0.8759109377861023 -0.47611290216445923
-0.48708993196487427 0.876200795173645 -0.6092451214790344
-0.48751887679100037 0.8764906525611877 -0.7423773407936096
-0.48794782161712646 0.8767804503440857 -0.8755095601081848
-0.48837676644325256 0.8770703077316284 -1.0086418390274048
-0.2959166169166565 0.9525541663169861 0.9879160523414612
-0.296345591545105 0.9528440237045288 0.854783833026886
-0.2967745363712311 0.9531338810920715 0.7216516137123108
-0.2972034811973572 0.9534236788749695 0.5885193943977356
-0.2976324260234833 0.9537135362625122 0.455387145280838
-0.2980613708496094 0.9540033936500549 0.3222549259662628
-0.29849034547805786 0.9542932510375977 0.18912269175052643
-0.29891929030418396 0.9545831084251404 0.05599046126008034
-0.29934823513031006 0.9548729062080383 -0.07714176923036575
-0.29977717995643616 0.955162763595581 -0.21027399599552155
-0.30020612478256226 0.9554526209831238 -0.34340623021125793
-0.30063506960868835 0.9557424783706665 -0.47653844952583313
-0.30106404423713684 0.9560323357582092 -0.6096706986427307
-0.30149298906326294 0.9563221335411072 -0.7428029179573059
-0.30192193388938904 0.9566119909286499 -0.8759351372718811
-0.30235087871551514 0.9569018483161926 -1.009067416191101
-0.09762904047966003 0.9933047890663147 0.9873659014701843
-0.09805798530578613 0.9935946464538574 0.8542336821556091
-0.09848693758249283 0.9938845038414001 0.7211014628410339
-0.09891588985919952 0.9941743612289429 0.5879692435264587
-0.09934484213590622 0.9944642186164856 0.45483699440956116
-0.09977378696203232 0.9947540163993835 0.3217047452926636
-0.10020273923873901 0.9950438737869263 0.18857252597808838
-0.10063169151544571 0.995333731174469 0.05544029921293259
-0.10106063634157181 0.9956235885620117 -0.0776919275522232
-0.1014895886182785 0.9959134459495544 -0.2108241617679596
-0.1019185408949852 0.9962032437324524 -0.3439563810825348
-0.1023474931716919 0.9964931011199951 -0.4770886301994324
-0.102776437997818 0.9967829585075378 -0.6102208495140076
-0.10320539027452469 0.9970728158950806 -0.7433530688285828
-0.10363434255123138 0.9973626732826233 -0.876485288143158
-0.10406328737735748 0.9976524710655212 -1.009617567062378
0.10480234026908875 0.9933062195777893 0.986713707447052
0.10437338799238205 0.993596076965332 0.853581428527832
0.10394443571567535 0.9938859343528748 0.7204492092132568
0.10351548343896866 0.9941757917404175 0.5873169898986816
0.10308653861284256 0.9944655895233154 0.45418477058410645
0.10265758633613586 0.9947554469108582 0.32105252146720886
0.10222863405942917 0.9950453042984009 0.18792030215263367
0.10179968923330307 0.9953351616859436 0.054788071662187576
0.10137073695659637 0.9956250190734863 -0.07834415882825851
0.10094178467988968 0.9959148168563843 -0.2114763855934143
0.10051283240318298 0.996204674243927 -0.3446086049079895
0.10008388757705688 0.9964945316314697 -0.4777408540248871
0.09965493530035019 0.9967843890190125 -0.6108731031417847
0.0992259830236435 0.9970742464065552 -0.7440053224563599
0.0987970381975174 0.9973640441894531 -0.8771375417709351
0.0983680859208107 0.9976539015769958 -1.0102697610855103
0.3030899167060852 0.9525583386421204 0.9859861135482788
0.3026609718799591 0.9528481960296631 0.8528538346290588
0.302232027053833 0.9531380534172058 0.7197216153144836
0.3018030822277069 0.9534279108047485 0.5865893959999084
0.3013741374015808 0.9537177681922913 0.45345717668533325
0.3009451925754547 0.9540075659751892 0.32032492756843567
0.3005162179470062 0.9542974233627319 0.18719270825386047
0.3000872731208801 0.9545872807502747 0.05406047776341438
0.29965832829475403 0.9548771381378174 -0.07907175272703171
0.29922938346862793 0.9551669955253601 -0.2122039794921875
0.29880043864250183 0.9554568529129028 -0.3453361988067627
0.29837146401405334 0.9557466506958008 -0.4784684479236603
0.29794251918792725 0.9560365080833435 -0.6116006970405579
0.29751357436180115 0.9563263654708862 -0.7447329163551331
0.29708462953567505 0.956616222858429 -0.8778651356697083
0.29665568470954895 0.9569060802459717 -1.0109974145889282
0.489115834236145 0.8727294206619263 0.9852129220962524
0.48868685960769653 0.873019278049469 0.8520807027816772
0.48825791478157043 0.8733091354370117 0.718948483467102
0.48782896995544434 0.8735989928245544 0.5858162045478821
0.48740002512931824 0.8738888502120972 0.4526839852333069
0.48697108030319214 0.8741786479949951 0.3195517659187317
0.48654213547706604 0.8744685053825378 0.1864195317029953
0.48611316084861755 0.8747583627700806 0.053287308663129807
0.48568421602249146 0.8750482201576233 -0.07984492182731628
0.48525527119636536 0.875338077545166 -0.21297715604305267
0.48482632637023926 0.8756279349327087 -0.34610939025878906
0.48439738154411316 0.8759177327156067 -0.47924160957336426
0.48396843671798706 0.8762075901031494 -0.6123738288879395
0.4835394620895386 0.8764974474906921 -0.7455060482025146
0.4831105172634125 0.8767873048782349 -0.8786383271217346
0.4826815724372864 0.8770771622657776 -1.011770486831665
0.6552640795707703 0.7570876479148865 0.9844258427619934
0.6548351645469666 0.7573775053024292 0.8512935638427734
0.6544061899185181 0.7576673626899719 0.7181613445281982
0.6539772748947144 0.7579572200775146 0.585029125213623
0.6535483002662659 0.7582470774650574 0.45189690589904785
0.6531193256378174 0.7585369348526001 0.31876468658447266
0.6526904106140137 0.758826732635498 0.18563243746757507
0.6522614359855652 0.7591165900230408 0.05250021442770958
0.6518325209617615 0.7594064474105835 -0.08063201606273651
0.651403546333313 0.7596963047981262 -0.2137642502784729
0.6509745717048645 0.759986162185669 -0.3468964695930481
0.6505456566810608 0.7602759599685669 -0.4800287187099457
0.6501166820526123 0.7605658173561096 -0.6131609082221985
0.6496877670288086 0.7608556747436523 -0.7462931871414185
0.6492587924003601 0.7611455321311951 -0.8794254064559937
0.6488298177719116 0.7614353895187378 -1.0125576257705688
0.7947326302528381 0.6103674173355103 0.9836570024490356
0.7943036556243896 0.610657274723053 0.8505247831344604
0.7938747406005859 0.6109471321105957 0.7173925638198853
0.7934457659721375 0.6112369894981384 0.5842603445053101
0.793016791343689 0.6115268468856812 0.4511280953884125
0.7925878763198853 0.6118166446685791 0.3179958760738373
0.7921589016914368 0.6121065020561218 0.1848636418581009
0.7917299866676331 0.6123963594436646 0.0517314188182354
0.7913010120391846 0.6126862168312073 -0.0814008116722107
0.7908720374107361 0.61297607421875 -0.21453304588794708
0.7904431223869324 0.613265872001648 -0.34766528010368347
0.7900141477584839 0.6135557293891907 -0.48079749941825867
0.7895852327346802 0.6138455867767334 -0.6139297485351562
0.7891562581062317 0.6141354441642761 -0.7470619678497314
0.788727343082428 0.6144253015518188 -0.8801941871643066
0.7882983684539795 0.6147150993347168 -1.0133264064788818
0.9018115401268005 0.43857547640800476 0.9829379916191101
0.901382565498352 0.4388653337955475 0.8498057723045349
0.9009536504745483 0.4391551613807678 0.7166735529899597
0.9005246758460999 0.43944501876831055 0.5835413336753845
0.9000957012176514 0.43973487615585327 0.45040908455848694
0.8996667861938477 0.4400247037410736 0.31727686524391174
0.8992378115653992 0.44031456112861633 0.18414463102817535
0.8988088965415955 0.44060438871383667 0.05101240053772926
0.898379921913147 0.4408942461013794 -0.08211982995271683
0.8979510068893433 0.4411841034889221 -0.21525205671787262
0.8975220322608948 0.44147393107414246 -0.348384290933609
0.8970930576324463 0.4417637884616852 -0.4815165102481842
0.8966641426086426 0.4420536458492279 -0.6146487593650818
0.8962351679801941 0.44234347343444824 -0.747780978679657
0.8958062529563904 0.44263333082199097 -0.8809131979942322
0.8953772783279419 0.4429231584072113 -1.0140454769134521
0.972117006778717 0.24874497950077057 0.9822981953620911
0.9716880321502686 0.2490348368883133 0.8491659760475159
0.9712591171264648 0.24932467937469482 0.7160337567329407
0.9708301424980164 0.24961452186107635 0.5829015374183655
0.9704012274742126 0.24990436434745789 0.4497692883014679
0.9699722528457642 0.2501942217350006 0.3166370391845703
0.9695433378219604 0.25048404932022095 0.18350481986999512
0.969114363193512 0.25077390670776367 0.050372589379549026
0.9686853885650635 0.2510637640953064 -0.08275964111089706
0.9682564735412598 0.25135359168052673 -0.21589186787605286
0.9678274989128113 0.25164344906806946 -0.34902408719062805
0.9673985838890076 0.2519332766532898 -0.48215633630752563
0.9669696092605591 0.2522231340408325 -0.6152885556221008
0.9665406346321106 0.25251299142837524 -0.748420774936676
0.9661117196083069 0.2528028190135956 -0.8815529942512512
0.9656827449798584 0.2530926764011383 -1.0146852731704712
1.0027707815170288 0.04864763468503952 0.9817637801170349
1.0023417472839355 0.04893748089671135 0.8486315608024597
1.0019128322601318 0.04922732710838318 0.7154993414878845
1.0014839172363281 0.04951717332005501 0.5823671221733093
1.0010548830032349 0.04980701953172684 0.44923487305641174
1.0006259679794312 0.05009686201810837 0.31610265374183655
1.0001970529556274 0.0503867082297802 0.18297041952610016
0.999768078327179 0.050676554441452026 0.04983818903565407
0.9993391633033752 0.050966400653123856 -0.08329404145479202
0.9989101886749268 0.051256246864795685 -0.21642626821994781
0.9984812140464783 0.051546093076467514 -0.3495585024356842
0.9980522990226746 0.05183593928813934 -0.4826907217502594
0.9976233243942261 0.05212578549981117 -0.615822970867157
0.9971944093704224 0.052415631711483 -0.7489551901817322
0.9967654347419739 0.05270547419786453 -0.8820874094963074
0.9963365197181702 0.05299532040953636 -1.0152196884155273
0.9925177693367004 -0.15352456271648407 0.981356680393219
0.992088794708252 -0.15323472023010254 0.8482244610786438
0.9916598796844482 -0.152944877743721 0.7150922417640686
0.9912309050559998 -0.15265502035617828 0.5819599628448486
0.990801990032196 -0.15236517786979675 0.44882774353027344
0.9903730154037476 -0.15207533538341522 0.31569552421569824
0.9899440407752991 -0.1517854928970337 0.18256330490112305
0.9895151257514954 -0.15149565041065216 0.04943106696009636
0.9890861511230469 -0.15120579302310944 -0.08370116353034973
0.9886572360992432 -0.1509159505367279 -0.21683339774608612
0.9882282614707947 -0.15062610805034637 -0.3499656319618225
0.9877992868423462 -0.15033626556396484 -0.4830978512763977
0.9873703718185425 -0.15004640817642212 -0.6162300705909729
0.986941397190094 -0.1497565656900406 -0.7493622899055481
0.9865124821662903 -0.14946672320365906 -0.8824945688247681
0.9860835075378418 -0.14917688071727753 -1.0156267881393433
0.9417778253555298 -0.34949466586112976 0.9810935258865356
0.9413488507270813 -0.34920480847358704 0.8479613065719604
0.9409199357032776 -0.3489149510860443 0.7148290276527405
0.9404909610748291 -0.348625123500824 0.5816968083381653
0.9400620460510254 -0.34833526611328125 0.4485645890235901
0.9396330714225769 -0.3480454385280609 0.3154323697090149
0.9392040967941284 -0.3477555811405182 0.1823001354932785
0.9387751817703247 -0.34746572375297546 0.049167897552251816
0.9383462071418762 -0.3471758961677551 -0.08396433293819427
0.9379172921180725 -0.3468860387802124 -0.21709656715393066
0.937488317489624 -0.34659621119499207 -0.35022878646850586
0.9370594024658203 -0.34630635380744934 -0.48336103558540344
0.9366304278373718 -0.3460164964199066 -0.6164932250976562
0.9362014532089233 -0.3457266688346863 -0.7496255040168762
0.9357725381851196 -0.34543681144714355 -0.8827577233314514
0.9353435635566711 -0.34514695405960083 -1.0158898830413818
0.852628231048584 -0.5312396287918091 0.9809850454330444
0.8521992564201355 -0.5309497714042664 0.8478528261184692
0.8517703413963318 -0.5306599140167236 0.714720606803894
0.8513413667678833 -0.5303700566291809 0.5815883874893188
0.8509124517440796 -0.5300801992416382 0.44845613837242126
0.8504834771156311 -0.5297904014587402 0.31532391905784607
0.8500545024871826 -0.5295005440711975 0.18219168484210968
0.8496255874633789 -0.5292106866836548 0.04905945807695389
0.8491966128349304 -0.5289208292961121 -0.0840727761387825
0.8487676978111267 -0.5286309719085693 -0.2172050029039383
0.8483387231826782 -0.5283411145210266 -0.3503372371196747
0.8479098081588745 -0.5280513167381287 -0.4834694564342499
0.847480833530426 -0.5277614593505859 -0.6166017055511475
0.8470518589019775 -0.5274716019630432 -0.7497339248657227
0.8466229438781738 -0.5271817445755005 -0.8828661441802979
0.8461939692497253 -0.5268918871879578 -1.015998363494873
0.7287187576293945 -0.6913187503814697 0.9810357689857483
0.7282898426055908 -0.691028892993927 0.8479035496711731
0.7278608679771423 -0.6907390356063843 0.7147713303565979
0.7274319529533386 -0.6904491782188416 0.5816391110420227
0.7270029783248901 -0.6901593804359436 0.4485068619251251
0.7265740036964417 -0.6898695230484009 0.3153746426105499
0.7261450886726379 -0.6895796656608582 0.18224240839481354
0.7257161140441895 -0.6892898082733154 0.04911017790436745
0.7252871990203857 -0.6889999508857727 -0.08402205258607864
0.7248582243919373 -0.6887101531028748 -0.21715427935123444
0.7244292497634888 -0.688420295715332 -0.3502865135669708
0.7240003347396851 -0.6881304383277893 -0.483418732881546
0.7235713601112366 -0.6878405809402466 -0.6165509819984436
0.7231424450874329 -0.6875507235527039 -0.7496832013130188
0.7227134704589844 -0.6872609257698059 -0.882815420627594
0.7222844958305359 -0.6869710683822632 -1.015947699546814
0.5751222968101501 -0.8231784105300903 0.9812436103820801
0.5746933817863464 -0.8228885531425476 0.8481113910675049
0.574264407157898 -0.8225987553596497 0.7149791121482849
0.5738354921340942 -0.8223088979721069 0.5818468928337097
0.5734065175056458 -0.8220190405845642 0.4487146735191345
0.572977602481842 -0.8217291831970215 0.3155824542045593
0.5725486278533936 -0.8214393258094788 0.18245021998882294
0.5721196532249451 -0.821149468421936 0.049317989498376846
0.5716907382011414 -0.8208596706390381 -0.08381424099206924
0.5712617635726929 -0.8205698132514954 -0.21694646775722504
0.5708328485488892 -0.8202799558639526 -0.3500787019729614
0.5704038739204407 -0.8199900984764099 -0.4832109212875366
0.5699748992919922 -0.8197002410888672 -0.6163431406021118
0.5695459842681885 -0.8194104433059692 -0.7494754195213318
0.56911700963974 -0.8191205859184265 -0.882607638835907
0.5686880946159363 -0.8188307285308838 -1.0157397985458374
0.39812713861465454 -0.9214202761650085 0.9815999865531921
0.39769819378852844 -0.9211304187774658 0.8484677672386169
0.39726924896240234 -0.9208405613899231 0.7153355479240417
0.39684027433395386 -0.9205507636070251 0.5822033286094666
0.39641132950782776 -0.9202609062194824 0.44907107949256897
0.39598238468170166 -0.9199710488319397 0.3159388303756714
0.39555343985557556 -0.919681191444397 0.1828066110610962
0.39512449502944946 -0.9193913340568542 0.0496743805706501
0.39469555020332336 -0.9191015362739563 -0.08345784991979599
0.3942665755748749 -0.9188116788864136 -0.21659007668495178
0.3938376307487488 -0.9185218214988708 -0.349722295999527
0.3934086859226227 -0.9182319641113281 -0.48285454511642456
0.3929797410964966 -0.9179421067237854 -0.6159867644309998
0.3925507962703705 -0.9176523089408875 -0.749118983745575
0.392121821641922 -0.9173624515533447 -0.8822512030601501
0.3916928768157959 -0.917072594165802 -1.0153834819793701
0.20497941970825195 -0.9820222854614258 0.9820903539657593
0.20455045998096466 -0.9817324280738831 0.8489581346511841
0.20412151515483856 -0.9814426302909851 0.7158259153366089
0.20369257032871246 -0.9811527729034424 0.5826936960220337
0.20326361060142517 -0.9808629155158997 0.4495614469051361
0.20283466577529907 -0.9805730581283569 0.3164292275905609
0.20240572094917297 -0.9802832007408142 0.18329699337482452
0.20197676122188568 -0.9799934029579163 0.050164759159088135
0.20154781639575958 -0.9797035455703735 -0.08296746760606766
0.2011188566684723 -0.9794136881828308 -0.21609969437122345
0.2006899118423462 -0.9791238307952881 -0.34923192858695984
0.2002609670162201 -0.9788339734077454 -0.48236414790153503
0.1998320072889328 -0.9785441756248474 -0.6154963970184326
0.1994030624628067 -0.9782543182373047 -0.7486286163330078
0.1989741176366806 -0.977964460849762 -0.881760835647583
0.1985451579093933 -0.9776746034622192 -1.0148930549621582
0.0035866498947143555 -1.0025033950805664 0.982694685459137
0.003157699713483453 -1.0022135972976685 0.849562406539917
0.00272874953225255 -1.001923680305481 0.7164301872253418
0.0022997993510216475 -1.001633882522583 0.5832979679107666
0.001870849053375423 -1.0013439655303955 0.4501657485961914
0.0014418988721445203 -1.0010541677474976 0.3170335292816162
0.0010129486909136176 -1.0007643699645996 0.18390128016471863
0.000583998451475054 -1.000474452972412 0.050769057124853134
0.0001550482411403209 -1.0001846551895142 -0.08236317336559296
-0.00027390196919441223 -0.9998947978019714 -0.21549540758132935
-0.0007028521504253149 -0.9996049404144287 -0.34862762689590454
-0.0011318023316562176 -0.999315083026886 -0.4817598760128021
-0.001560752629302442 -0.999025285243988 -0.6148920655250549
-0.001989702694118023 -0.9987354278564453 -0.7480243444442749
-0.0024186528753489256 -0.9984455704689026 -0.8811565637588501
-0.002847603289410472 -0.9981557130813599 -1.0142887830734253
