ply
format ascii 1.0
element vertex 1358
property float x
property float y
property float z
end_header
0.25 25.25 0.0
0.25 25.75 0.0
0.25 26.25 0.0
0.25 26.75 0.0
0.25 27.25 0.0
0.25 27.75 0.0
0.75 18.25 0.0
0.75 18.75 0.0
0.75 19.25 0.0
0.75 24.75 0.0
0.75 25.25 0.0
0.75 25.75 0.0
0.75 26.25 0.0
0.75 26.75 0.0
0.75 27.25 0.0
0.75 27.75 0.0
1.25 17.75 0.0
1.25 18.25 0.0
1.25 18.75 0.0
1.25 19.25 0.0
1.25 19.75 0.0
1.25 24.25 0.0
1.25 24.75 0.0
1.25 25.25 0.0
1.25 25.75 0.0
1.25 26.25 0.0
1.25 26.75 0.0
1.25 27.25 0.0
1.25 27.75 0.0
1.75 17.25 0.0
1.75 17.75 0.0
1.75 18.25 0.0
1.75 18.75 0.0
1.75 19.25 0.0
1.75 19.75 0.0
1.75 20.25 0.0
1.75 23.75 0.0
1.75 24.25 0.0
1.75 24.75 0.0
1.75 25.25 0.0
1.75 25.75 0.0
1.75 26.25 0.0
1.75 26.75 0.0
1.75 27.25 0.0
1.75 27.75 0.0
1.75 28.25 0.0
2.25 17.25 0.0
2.25 17.75 0.0
2.25 18.25 0.0
2.25 18.75 0.0
2.25 19.25 0.0
2.25 19.75 0.0
2.25 20.25 0.0
2.25 23.25 0.0
2.25 23.75 0.0
2.25 24.25 0.0
2.25 24.75 0.0
2.25 25.25 0.0
2.25 25.75 0.0
2.25 26.25 0.0
2.25 26.75 0.0
2.25 27.25 0.0
2.25 27.75 0.0
2.75 16.75 0.0
2.75 17.25 0.0
2.75 17.75 0.0
2.75 18.25 0.0
2.75 18.75 0.0
2.75 19.25 0.0
2.75 19.75 0.0
2.75 20.25 0.0
2.75 23.25 0.0
2.75 23.75 0.0
2.75 24.25 0.0
2.75 24.75 0.0
2.75 25.25 0.0
2.75 25.75 0.0
2.75 26.25 0.0
2.75 26.75 0.0
2.75 27.25 0.0
2.75 27.75 0.0
2.75 28.25 0.0
3.25 17.25 0.0
3.25 17.75 0.0
3.25 18.25 0.0
3.25 18.75 0.0
3.25 19.25 0.0
3.25 19.75 0.0
3.25 20.25 0.0
3.25 20.75 0.0
3.25 22.75 0.0
3.25 23.25 0.0
3.25 23.75 0.0
3.25 24.25 0.0
3.25 24.75 0.0
3.25 25.25 0.0
3.25 25.75 0.0
3.25 26.25 0.0
3.25 26.75 0.0
3.25 27.25 0.0
3.25 27.75 0.0
3.25 28.25 0.0
3.75 17.25 0.0
3.75 17.75 0.0
3.75 18.25 0.0
3.75 18.75 0.0
3.75 19.25 0.0
3.75 19.75 0.0
3.75 20.25 0.0
3.75 22.25 0.0
3.75 22.75 0.0
3.75 23.25 0.0
3.75 23.75 0.0
3.75 24.25 0.0
3.75 24.75 0.0
3.75 25.25 0.0
3.75 25.75 0.0
3.75 26.25 0.0
3.75 26.75 0.0
3.75 27.25 0.0
3.75 27.75 0.0
3.75 28.25 0.0
4.25 16.75 0.0
4.25 17.25 0.0
4.25 17.75 0.0
4.25 18.25 0.0
4.25 18.75 0.0
4.25 19.25 0.0
4.25 19.75 0.0
4.25 20.25 0.0
4.25 22.25 0.0
4.25 22.75 0.0
4.25 23.25 0.0
4.25 23.75 0.0
4.25 24.25 0.0
4.25 24.75 0.0
4.25 25.25 0.0
4.25 25.75 0.0
4.25 26.25 0.0
4.25 26.75 0.0
4.25 27.25 0.0
4.25 27.75 0.0
4.25 28.25 0.0
4.75 16.75 0.0
4.75 17.25 0.0
4.75 17.75 0.0
4.75 18.25 0.0
4.75 18.75 0.0
4.75 19.25 0.0
4.75 19.75 0.0
4.75 21.75 0.0
4.75 22.25 0.0
4.75 22.75 0.0
4.75 23.25 0.0
4.75 23.75 0.0
4.75 24.25 0.0
4.75 24.75 0.0
4.75 25.25 0.0
4.75 25.75 0.0
4.75 26.25 0.0
4.75 26.75 0.0
4.75 27.25 0.0
4.75 27.75 0.0
5.25 16.75 0.0
5.25 17.25 0.0
5.25 17.75 0.0
5.25 18.25 0.0
5.25 18.75 0.0
5.25 19.25 0.0
5.25 19.75 0.0
5.25 21.25 0.0
5.25 21.75 0.0
5.25 22.25 0.0
5.25 22.75 0.0
5.25 23.25 0.0
5.25 23.75 0.0
5.25 24.25 0.0
5.25 24.75 0.0
5.25 25.25 0.0
5.25 25.75 0.0
5.25 26.25 0.0
5.25 26.75 0.0
5.25 27.25 0.0
5.25 27.75 0.0
5.75 2.75 0.0
5.75 3.25 0.0
5.75 3.75 0.0
5.75 4.25 0.0
5.75 16.25 0.0
5.75 16.75 0.0
5.75 17.25 0.0
5.75 17.75 0.0
5.75 18.25 0.0
5.75 18.75 0.0
5.75 19.25 0.0
5.75 19.75 0.0
5.75 20.75 0.0
5.75 21.25 0.0
5.75 21.75 0.0
5.75 22.25 0.0
5.75 22.75 0.0
5.75 23.25 0.0
5.75 23.75 0.0
5.75 24.25 0.0
5.75 24.75 0.0
5.75 25.25 0.0
5.75 25.75 0.0
5.75 26.25 0.0
5.75 26.75 0.0
5.75 27.25 0.0
5.75 27.75 0.0
6.25 2.75 0.0
6.25 3.25 0.0
6.25 3.75 0.0
6.25 4.25 0.0
6.25 4.75 0.0
6.25 16.25 0.0
6.25 16.75 0.0
6.25 17.25 0.0
6.25 17.75 0.0
6.25 18.25 0.0
6.25 18.75 0.0
6.25 19.25 0.0
6.25 20.75 0.0
6.25 21.25 0.0
6.25 21.75 0.0
6.25 22.25 0.0
6.25 22.75 0.0
6.25 23.25 0.0
6.25 23.75 0.0
6.25 24.25 0.0
6.25 24.75 0.0
6.25 25.25 0.0
6.25 25.75 0.0
6.25 26.25 0.0
6.25 26.75 0.0
6.25 27.25 0.0
6.25 27.75 0.0
6.75 2.25 0.0
6.75 2.75 0.0
6.75 3.25 0.0
6.75 3.75 0.0
6.75 4.25 0.0
6.75 4.75 0.0
6.75 5.25 0.0
6.75 16.25 0.0
6.75 16.75 0.0
6.75 17.25 0.0
6.75 17.75 0.0
6.75 18.25 0.0
6.75 18.75 0.0
6.75 19.25 0.0
6.75 19.75 0.0
6.75 20.25 0.0
6.75 20.75 0.0
6.75 21.25 0.0
6.75 21.75 0.0
6.75 22.25 0.0
6.75 22.75 0.0
6.75 23.25 0.0
6.75 23.75 0.0
6.75 24.25 0.0
6.75 24.75 0.0
6.75 25.25 0.0
6.75 25.75 0.0
6.75 26.25 0.0
6.75 26.75 0.0
6.75 27.25 0.0
7.25 2.25 0.0
7.25 2.75 0.0
7.25 3.25 0.0
7.25 3.75 0.0
7.25 4.25 0.0
7.25 4.75 0.0
7.25 5.25 0.0
7.25 5.75 0.0
7.25 16.25 0.0
7.25 16.75 0.0
7.25 17.25 0.0
7.25 17.75 0.0
7.25 18.25 0.0
7.25 18.75 0.0
7.25 19.25 0.0
7.25 19.75 0.0
7.25 20.25 0.0
7.25 20.75 0.0
7.25 21.25 0.0
7.25 21.75 0.0
7.25 22.25 0.0
7.25 22.75 0.0
7.25 23.25 0.0
7.25 23.75 0.0
7.25 24.25 0.0
7.25 24.75 0.0
7.25 25.25 0.0
7.25 25.75 0.0
7.25 26.25 0.0
7.25 26.75 0.0
7.25 27.25 0.0
7.75 2.25 0.0
7.75 2.75 0.0
7.75 3.25 0.0
7.75 3.75 0.0
7.75 4.25 0.0
7.75 4.75 0.0
7.75 5.25 0.0
7.75 5.75 0.0
7.75 15.75 0.0
7.75 16.25 0.0
7.75 16.75 0.0
7.75 17.25 0.0
7.75 17.75 0.0
7.75 18.25 0.0
7.75 18.75 0.0
7.75 19.25 0.0
7.75 19.75 0.0
7.75 20.25 0.0
7.75 20.75 0.0
7.75 21.25 0.0
7.75 21.75 0.0
7.75 22.25 0.0
7.75 22.75 0.0
7.75 23.25 0.0
7.75 23.75 0.0
7.75 24.25 0.0
7.75 24.75 0.0
7.75 25.25 0.0
7.75 25.75 0.0
7.75 26.25 0.0
7.75 26.75 0.0
7.75 27.25 0.0
8.25 2.75 0.0
8.25 3.25 0.0
8.25 3.75 0.0
8.25 4.25 0.0
8.25 4.75 0.0
8.25 5.25 0.0
8.25 5.75 0.0
8.25 6.25 0.0
8.25 15.75 0.0
8.25 16.25 0.0
8.25 16.75 0.0
8.25 17.25 0.0
8.25 17.75 0.0
8.25 18.25 0.0
8.25 18.75 0.0
8.25 19.25 0.0
8.25 19.75 0.0
8.25 20.25 0.0
8.25 20.75 0.0
8.25 21.25 0.0
8.25 21.75 0.0
8.25 22.25 0.0
8.25 22.75 0.0
8.25 23.25 0.0
8.25 23.75 0.0
8.25 24.25 0.0
8.25 24.75 0.0
8.25 25.25 0.0
8.25 25.75 0.0
8.25 26.25 0.0
8.25 26.75 0.0
8.75 2.75 0.0
8.75 3.25 0.0
8.75 3.75 0.0
8.75 4.25 0.0
8.75 4.75 0.0
8.75 5.25 0.0
8.75 5.75 0.0
8.75 6.25 0.0
8.75 15.75 0.0
8.75 16.25 0.0
8.75 16.75 0.0
8.75 17.25 0.0
8.75 17.75 0.0
8.75 18.25 0.0
8.75 18.75 0.0
8.75 19.25 0.0
8.75 19.75 0.0
8.75 20.25 0.0
8.75 20.75 0.0
8.75 21.25 0.0
8.75 21.75 0.0
8.75 22.25 0.0
8.75 22.75 0.0
8.75 23.25 0.0
8.75 23.75 0.0
8.75 24.25 0.0
8.75 24.75 0.0
8.75 25.25 0.0
8.75 25.75 0.0
8.75 26.25 0.0
8.75 26.75 0.0
9.25 3.25 0.0
9.25 3.75 0.0
9.25 4.25 0.0
9.25 4.75 0.0
9.25 5.25 0.0
9.25 5.75 0.0
9.25 6.25 0.0
9.25 6.75 0.0
9.25 15.75 0.0
9.25 16.25 0.0
9.25 16.75 0.0
9.25 17.25 0.0
9.25 17.75 0.0
9.25 18.25 0.0
9.25 18.75 0.0
9.25 19.25 0.0
9.25 19.75 0.0
9.25 20.25 0.0
9.25 20.75 0.0
9.25 21.25 0.0
9.25 21.75 0.0
9.25 22.25 0.0
9.25 22.75 0.0
9.25 23.25 0.0
9.25 23.75 0.0
9.25 24.25 0.0
9.25 24.75 0.0
9.25 25.25 0.0
9.25 25.75 0.0
9.25 26.25 0.0
9.25 26.75 0.0
9.75 3.25 0.0
9.75 3.75 0.0
9.75 4.25 0.0
9.75 4.75 0.0
9.75 5.25 0.0
9.75 5.75 0.0
9.75 6.25 0.0
9.75 6.75 0.0
9.75 15.75 0.0
9.75 16.25 0.0
9.75 16.75 0.0
9.75 17.25 0.0
9.75 17.75 0.0
9.75 18.25 0.0
9.75 18.75 0.0
9.75 19.25 0.0
9.75 19.75 0.0
9.75 20.25 0.0
9.75 20.75 0.0
9.75 21.25 0.0
9.75 21.75 0.0
9.75 22.25 0.0
9.75 22.75 0.0
9.75 23.25 0.0
9.75 23.75 0.0
9.75 24.25 0.0
9.75 24.75 0.0
9.75 25.25 0.0
9.75 25.75 0.0
9.75 26.25 0.0
9.75 26.75 0.0
10.25 4.25 0.0
10.25 4.75 0.0
10.25 5.25 0.0
10.25 5.75 0.0
10.25 6.25 0.0
10.25 6.75 0.0
10.25 7.25 0.0
10.25 7.75 0.0
10.25 15.75 0.0
10.25 16.25 0.0
10.25 16.75 0.0
10.25 17.25 0.0
10.25 17.75 0.0
10.25 18.25 0.0
10.25 18.75 0.0
10.25 19.25 0.0
10.25 19.75 0.0
10.25 20.25 0.0
10.25 20.75 0.0
10.25 21.25 0.0
10.25 21.75 0.0
10.25 22.25 0.0
10.25 22.75 0.0
10.25 23.25 0.0
10.25 23.75 0.0
10.25 24.25 0.0
10.25 24.75 0.0
10.25 25.25 0.0
10.25 25.75 0.0
10.25 26.25 0.0
10.25 26.75 0.0
10.75 4.25 0.0
10.75 4.75 0.0
10.75 5.25 0.0
10.75 5.75 0.0
10.75 6.25 0.0
10.75 6.75 0.0
10.75 7.25 0.0
10.75 7.75 0.0
10.75 8.25 0.0
10.75 15.75 0.0
10.75 16.25 0.0
10.75 16.75 0.0
10.75 17.25 0.0
10.75 17.75 0.0
10.75 18.25 0.0
10.75 18.75 0.0
10.75 19.25 0.0
10.75 19.75 0.0
10.75 20.25 0.0
10.75 20.75 0.0
10.75 21.25 0.0
10.75 21.75 0.0
10.75 22.25 0.0
10.75 22.75 0.0
10.75 23.25 0.0
10.75 23.75 0.0
10.75 24.25 0.0
10.75 24.75 0.0
10.75 25.25 0.0
10.75 25.75 0.0
10.75 26.25 0.0
11.25 4.75 0.0
11.25 5.25 0.0
11.25 5.75 0.0
11.25 6.25 0.0
11.25 6.75 0.0
11.25 7.25 0.0
11.25 7.75 0.0
11.25 8.25 0.0
11.25 15.75 0.0
11.25 16.25 0.0
11.25 16.75 0.0
11.25 17.25 0.0
11.25 17.75 0.0
11.25 18.25 0.0
11.25 18.75 0.0
11.25 19.25 0.0
11.25 19.75 0.0
11.25 20.25 0.0
11.25 20.75 0.0
11.25 21.25 0.0
11.25 21.75 0.0
11.25 22.25 0.0
11.25 22.75 0.0
11.25 23.25 0.0
11.25 23.75 0.0
11.25 24.25 0.0
11.25 24.75 0.0
11.25 25.25 0.0
11.25 25.75 0.0
11.25 26.25 0.0
11.75 4.75 0.0
11.75 5.25 0.0
11.75 5.75 0.0
11.75 6.25 0.0
11.75 6.75 0.0
11.75 7.25 0.0
11.75 7.75 0.0
11.75 8.25 0.0
11.75 8.75 0.0
11.75 9.25 0.0
11.75 15.75 0.0
11.75 16.25 0.0
11.75 16.75 0.0
11.75 17.25 0.0
11.75 17.75 0.0
11.75 18.25 0.0
11.75 18.75 0.0
11.75 19.25 0.0
11.75 19.75 0.0
11.75 20.25 0.0
11.75 20.75 0.0
11.75 21.25 0.0
11.75 21.75 0.0
11.75 22.25 0.0
11.75 22.75 0.0
11.75 23.25 0.0
11.75 23.75 0.0
11.75 24.25 0.0
11.75 24.75 0.0
11.75 25.25 0.0
11.75 25.75 0.0
12.25 5.25 0.0
12.25 5.75 0.0
12.25 6.25 0.0
12.25 6.75 0.0
12.25 7.25 0.0
12.25 7.75 0.0
12.25 8.25 0.0
12.25 8.75 0.0
12.25 9.25 0.0
12.25 9.75 0.0
12.25 15.75 0.0
12.25 16.25 0.0
12.25 16.75 0.0
12.25 17.25 0.0
12.25 17.75 0.0
12.25 18.25 0.0
12.25 18.75 0.0
12.25 19.25 0.0
12.25 19.75 0.0
12.25 20.25 0.0
12.25 20.75 0.0
12.25 21.25 0.0
12.25 21.75 0.0
12.25 22.25 0.0
12.25 22.75 0.0
12.25 23.25 0.0
12.25 23.75 0.0
12.25 24.25 0.0
12.25 24.75 0.0
12.25 25.25 0.0
12.75 5.75 0.0
12.75 6.25 0.0
12.75 6.75 0.0
12.75 7.25 0.0
12.75 7.75 0.0
12.75 8.25 0.0
12.75 8.75 0.0
12.75 9.25 0.0
12.75 9.75 0.0
12.75 10.25 0.0
12.75 10.75 0.0
12.75 15.75 0.0
12.75 16.25 0.0
12.75 16.75 0.0
12.75 17.25 0.0
12.75 17.75 0.0
12.75 18.25 0.0
12.75 18.75 0.0
12.75 19.25 0.0
12.75 19.75 0.0
12.75 20.25 0.0
12.75 20.75 0.0
12.75 21.25 0.0
12.75 21.75 0.0
12.75 22.25 0.0
12.75 22.75 0.0
12.75 23.25 0.0
12.75 23.75 0.0
12.75 24.25 0.0
12.75 24.75 0.0
13.25 6.25 0.0
13.25 6.75 0.0
13.25 7.25 0.0
13.25 7.75 0.0
13.25 8.25 0.0
13.25 8.75 0.0
13.25 9.25 0.0
13.25 9.75 0.0
13.25 10.25 0.0
13.25 10.75 0.0
13.25 11.25 0.0
13.25 11.75 0.0
13.25 12.25 0.0
13.25 12.75 0.0
13.25 13.25 0.0
13.25 13.75 0.0
13.25 14.25 0.0
13.25 14.75 0.0
13.25 15.25 0.0
13.25 15.75 0.0
13.25 16.25 0.0
13.25 16.75 0.0
13.25 17.25 0.0
13.25 17.75 0.0
13.25 18.25 0.0
13.25 18.75 0.0
13.25 19.25 0.0
13.25 19.75 0.0
13.25 20.25 0.0
13.25 20.75 0.0
13.25 21.25 0.0
13.25 21.75 0.0
13.25 22.25 0.0
13.25 22.75 0.0
13.25 23.25 0.0
13.25 23.75 0.0
13.25 24.25 0.0
13.75 6.25 0.0
13.75 6.75 0.0
13.75 7.25 0.0
13.75 7.75 0.0
13.75 8.25 0.0
13.75 8.75 0.0
13.75 9.25 0.0
13.75 9.75 0.0
13.75 10.25 0.0
13.75 10.75 0.0
13.75 11.25 0.0
13.75 11.75 0.0
13.75 12.25 0.0
13.75 12.75 0.0
13.75 13.25 0.0
13.75 13.75 0.0
13.75 14.25 0.0
13.75 14.75 0.0
13.75 15.25 0.0
13.75 15.75 0.0
13.75 16.25 0.0
13.75 16.75 0.0
13.75 17.25 0.0
13.75 17.75 0.0
13.75 18.25 0.0
13.75 18.75 0.0
13.75 19.25 0.0
13.75 19.75 0.0
13.75 20.25 0.0
13.75 20.75 0.0
13.75 21.25 0.0
13.75 21.75 0.0
13.75 22.25 0.0
13.75 22.75 0.0
13.75 23.25 0.0
14.25 6.75 0.0
14.25 7.25 0.0
14.25 7.75 0.0
14.25 8.25 0.0
14.25 8.75 0.0
14.25 9.25 0.0
14.25 9.75 0.0
14.25 10.25 0.0
14.25 10.75 0.0
14.25 11.25 0.0
14.25 11.75 0.0
14.25 12.25 0.0
14.25 12.75 0.0
14.25 13.25 0.0
14.25 13.75 0.0
14.25 14.25 0.0
14.25 14.75 0.0
14.25 15.25 0.0
14.25 15.75 0.0
14.25 16.25 0.0
14.25 16.75 0.0
14.25 17.25 0.0
14.25 17.75 0.0
14.25 18.25 0.0
14.25 18.75 0.0
14.25 19.25 0.0
14.25 19.75 0.0
14.25 20.25 0.0
14.25 20.75 0.0
14.25 21.25 0.0
14.25 21.75 0.0
14.25 22.25 0.0
14.75 7.25 0.0
14.75 7.75 0.0
14.75 8.25 0.0
14.75 8.75 0.0
14.75 9.25 0.0
14.75 9.75 0.0
14.75 10.25 0.0
14.75 10.75 0.0
14.75 11.25 0.0
14.75 11.75 0.0
14.75 12.25 0.0
14.75 12.75 0.0
14.75 13.25 0.0
14.75 13.75 0.0
14.75 14.25 0.0
14.75 14.75 0.0
14.75 15.25 0.0
14.75 15.75 0.0
14.75 16.25 0.0
14.75 16.75 0.0
14.75 17.25 0.0
14.75 17.75 0.0
14.75 18.25 0.0
14.75 18.75 0.0
14.75 19.25 0.0
14.75 19.75 0.0
14.75 20.25 0.0
14.75 20.75 0.0
14.75 21.25 0.0
14.75 21.75 0.0
14.75 22.25 0.0
15.25 7.75 0.0
15.25 8.25 0.0
15.25 8.75 0.0
15.25 9.25 0.0
15.25 9.75 0.0
15.25 10.25 0.0
15.25 10.75 0.0
15.25 11.25 0.0
15.25 11.75 0.0
15.25 12.25 0.0
15.25 12.75 0.0
15.25 13.25 0.0
15.25 13.75 0.0
15.25 14.25 0.0
15.25 14.75 0.0
15.25 15.25 0.0
15.25 15.75 0.0
15.25 16.25 0.0
15.25 16.75 0.0
15.25 17.25 0.0
15.25 17.75 0.0
15.25 18.25 0.0
15.25 18.75 0.0
15.25 19.25 0.0
15.25 19.75 0.0
15.25 20.25 0.0
15.25 20.75 0.0
15.25 21.25 0.0
15.25 21.75 0.0
15.75 8.25 0.0
15.75 8.75 0.0
15.75 9.25 0.0
15.75 9.75 0.0
15.75 10.25 0.0
15.75 10.75 0.0
15.75 11.25 0.0
15.75 11.75 0.0
15.75 12.25 0.0
15.75 12.75 0.0
15.75 13.25 0.0
15.75 13.75 0.0
15.75 14.25 0.0
15.75 14.75 0.0
15.75 15.25 0.0
15.75 15.75 0.0
15.75 16.25 0.0
15.75 16.75 0.0
15.75 17.25 0.0
15.75 17.75 0.0
15.75 18.25 0.0
15.75 18.75 0.0
15.75 19.25 0.0
15.75 19.75 0.0
15.75 20.25 0.0
15.75 20.75 0.0
15.75 21.25 0.0
15.75 21.75 0.0
16.25 10.25 0.0
16.25 10.75 0.0
16.25 11.25 0.0
16.25 11.75 0.0
16.25 12.25 0.0
16.25 12.75 0.0
16.25 13.25 0.0
16.25 13.75 0.0
16.25 14.25 0.0
16.25 14.75 0.0
16.25 15.25 0.0
16.25 15.75 0.0
16.25 16.25 0.0
16.25 16.75 0.0
16.25 17.25 0.0
16.25 17.75 0.0
16.25 18.25 0.0
16.25 18.75 0.0
16.25 19.25 0.0
16.25 19.75 0.0
16.25 20.25 0.0
16.25 20.75 0.0
16.25 21.25 0.0
16.25 21.75 0.0
16.25 22.25 0.0
16.75 16.75 0.0
16.75 17.25 0.0
16.75 17.75 0.0
16.75 18.25 0.0
16.75 18.75 0.0
16.75 19.25 0.0
16.75 19.75 0.0
16.75 20.25 0.0
16.75 20.75 0.0
16.75 21.25 0.0
16.75 21.75 0.0
16.75 22.25 0.0
17.25 16.75 0.0
17.25 17.25 0.0
17.25 17.75 0.0
17.25 18.25 0.0
17.25 18.75 0.0
17.25 19.25 0.0
17.25 19.75 0.0
17.25 20.25 0.0
17.25 20.75 0.0
17.25 21.25 0.0
17.25 21.75 0.0
17.25 22.25 0.0
17.75 16.75 0.0
17.75 17.25 0.0
17.75 17.75 0.0
17.75 18.25 0.0
17.75 18.75 0.0
17.75 19.25 0.0
17.75 19.75 0.0
17.75 20.25 0.0
17.75 20.75 0.0
17.75 21.25 0.0
17.75 21.75 0.0
17.75 22.25 0.0
18.25 16.75 0.0
18.25 17.25 0.0
18.25 17.75 0.0
18.25 18.25 0.0
18.25 18.75 0.0
18.25 19.25 0.0
18.25 19.75 0.0
18.25 20.25 0.0
18.25 20.75 0.0
18.25 21.25 0.0
18.25 21.75 0.0
18.75 17.25 0.0
18.75 17.75 0.0
18.75 18.25 0.0
18.75 18.75 0.0
18.75 19.25 0.0
18.75 19.75 0.0
18.75 20.25 0.0
18.75 20.75 0.0
18.75 21.25 0.0
18.75 21.75 0.0
18.75 25.25 0.0
18.75 25.75 0.0
18.75 26.25 0.0
19.25 17.25 0.0
19.25 17.75 0.0
19.25 18.25 0.0
19.25 18.75 0.0
19.25 19.25 0.0
19.25 19.75 0.0
19.25 20.25 0.0
19.25 20.75 0.0
19.25 21.25 0.0
19.25 21.75 0.0
19.25 24.75 0.0
19.25 25.25 0.0
19.25 25.75 0.0
19.25 26.25 0.0
19.25 26.75 0.0
19.75 17.25 0.0
19.75 17.75 0.0
19.75 18.25 0.0
19.75 18.75 0.0
19.75 19.25 0.0
19.75 19.75 0.0
19.75 20.25 0.0
19.75 20.75 0.0
19.75 21.25 0.0
19.75 21.75 0.0
19.75 24.25 0.0
19.75 24.75 0.0
19.75 25.25 0.0
19.75 25.75 0.0
19.75 26.25 0.0
19.75 26.75 0.0
20.25 17.25 0.0
20.25 17.75 0.0
20.25 18.25 0.0
20.25 18.75 0.0
20.25 19.25 0.0
20.25 19.75 0.0
20.25 20.25 0.0
20.25 20.75 0.0
20.25 21.25 0.0
20.25 21.75 0.0
20.25 24.25 0.0
20.25 24.75 0.0
20.25 25.25 0.0
20.25 25.75 0.0
20.25 26.25 0.0
20.25 26.75 0.0
20.25 27.25 0.0
20.75 17.75 0.0
20.75 18.25 0.0
20.75 18.75 0.0
20.75 19.25 0.0
20.75 19.75 0.0
20.75 20.25 0.0
20.75 20.75 0.0
20.75 21.25 0.0
20.75 21.75 0.0
20.75 24.25 0.0
20.75 24.75 0.0
20.75 25.25 0.0
20.75 25.75 0.0
20.75 26.25 0.0
20.75 26.75 0.0
20.75 27.25 0.0
21.25 17.75 0.0
21.25 18.25 0.0
21.25 18.75 0.0
21.25 19.25 0.0
21.25 19.75 0.0
21.25 20.25 0.0
21.25 20.75 0.0
21.25 21.25 0.0
21.25 21.75 0.0
21.25 24.25 0.0
21.25 24.75 0.0
21.25 25.25 0.0
21.25 25.75 0.0
21.25 26.25 0.0
21.25 26.75 0.0
21.25 27.25 0.0
21.75 17.75 0.0
21.75 18.25 0.0
21.75 18.75 0.0
21.75 19.25 0.0
21.75 19.75 0.0
21.75 20.25 0.0
21.75 20.75 0.0
21.75 21.25 0.0
21.75 21.75 0.0
21.75 22.25 0.0
21.75 24.25 0.0
21.75 24.75 0.0
21.75 25.25 0.0
21.75 25.75 0.0
21.75 26.25 0.0
21.75 26.75 0.0
21.75 27.25 0.0
22.25 18.25 0.0
22.25 18.75 0.0
22.25 19.25 0.0
22.25 19.75 0.0
22.25 20.25 0.0
22.25 20.75 0.0
22.25 21.25 0.0
22.25 21.75 0.0
22.25 22.25 0.0
22.25 23.75 0.0
22.25 24.25 0.0
22.25 24.75 0.0
22.25 25.25 0.0
22.25 25.75 0.0
22.25 26.25 0.0
22.25 26.75 0.0
22.75 18.25 0.0
22.75 18.75 0.0
22.75 19.25 0.0
22.75 19.75 0.0
22.75 20.25 0.0
22.75 20.75 0.0
22.75 21.25 0.0
22.75 21.75 0.0
22.75 22.25 0.0
22.75 23.75 0.0
22.75 24.25 0.0
22.75 24.75 0.0
22.75 25.25 0.0
22.75 25.75 0.0
22.75 26.25 0.0
22.75 26.75 0.0
23.25 18.75 0.0
23.25 19.25 0.0
23.25 19.75 0.0
23.25 20.25 0.0
23.25 20.75 0.0
23.25 21.25 0.0
23.25 21.75 0.0
23.25 22.25 0.0
23.25 22.75 0.0
23.25 23.25 0.0
23.25 24.25 0.0
23.25 24.75 0.0
23.25 25.25 0.0
23.25 25.75 0.0
23.25 26.25 0.0
23.25 26.75 0.0
23.25 27.25 0.0
23.75 19.25 0.0
23.75 19.75 0.0
23.75 20.25 0.0
23.75 20.75 0.0
23.75 21.25 0.0
23.75 21.75 0.0
23.75 22.25 0.0
23.75 22.75 0.0
23.75 23.25 0.0
23.75 24.25 0.0
23.75 24.75 0.0
23.75 25.25 0.0
23.75 25.75 0.0
23.75 26.25 0.0
23.75 26.75 0.0
23.75 27.25 0.0
24.25 19.25 0.0
24.25 19.75 0.0
24.25 20.25 0.0
24.25 20.75 0.0
24.25 21.25 0.0
24.25 21.75 0.0
24.25 22.25 0.0
24.25 22.75 0.0
24.25 23.25 0.0
24.25 23.75 0.0
24.25 24.25 0.0
24.25 24.75 0.0
24.25 25.25 0.0
24.25 25.75 0.0
24.25 26.25 0.0
24.25 26.75 0.0
24.25 27.25 0.0
24.75 19.25 0.0
24.75 19.75 0.0
24.75 20.25 0.0
24.75 20.75 0.0
24.75 21.25 0.0
24.75 21.75 0.0
24.75 22.25 0.0
24.75 22.75 0.0
24.75 23.25 0.0
24.75 23.75 0.0
24.75 24.25 0.0
24.75 24.75 0.0
24.75 25.25 0.0
24.75 25.75 0.0
24.75 26.25 0.0
24.75 26.75 0.0
24.75 27.25 0.0
25.25 19.25 0.0
25.25 19.75 0.0
25.25 20.25 0.0
25.25 20.75 0.0
25.25 21.25 0.0
25.25 21.75 0.0
25.25 22.25 0.0
25.25 22.75 0.0
25.25 23.25 0.0
25.25 23.75 0.0
25.25 24.25 0.0
25.25 24.75 0.0
25.25 25.25 0.0
25.25 25.75 0.0
25.25 26.25 0.0
25.25 26.75 0.0
25.25 27.25 0.0
25.75 19.75 0.0
25.75 20.25 0.0
25.75 20.75 0.0
25.75 21.25 0.0
25.75 21.75 0.0
25.75 22.25 0.0
25.75 22.75 0.0
25.75 23.25 0.0
25.75 23.75 0.0
25.75 24.25 0.0
25.75 24.75 0.0
25.75 25.25 0.0
25.75 25.75 0.0
25.75 26.25 0.0
25.75 26.75 0.0
26.25 19.75 0.0
26.25 20.25 0.0
26.25 20.75 0.0
26.25 21.25 0.0
26.25 21.75 0.0
26.25 22.25 0.0
26.25 22.75 0.0
26.25 23.25 0.0
26.25 23.75 0.0
26.25 24.25 0.0
26.25 24.75 0.0
26.25 25.25 0.0
26.25 25.75 0.0
26.25 26.25 0.0
26.25 26.75 0.0
26.75 19.75 0.0
26.75 20.25 0.0
26.75 20.75 0.0
26.75 21.25 0.0
26.75 21.75 0.0
26.75 22.25 0.0
26.75 22.75 0.0
26.75 23.25 0.0
26.75 23.75 0.0
26.75 24.25 0.0
26.75 24.75 0.0
26.75 25.25 0.0
26.75 25.75 0.0
26.75 26.25 0.0
26.75 26.75 0.0
27.25 20.25 0.0
27.25 20.75 0.0
27.25 21.25 0.0
27.25 21.75 0.0
27.25 22.25 0.0
27.25 22.75 0.0
27.25 23.25 0.0
27.25 23.75 0.0
27.25 24.25 0.0
27.25 24.75 0.0
27.25 25.25 0.0
27.25 25.75 0.0
27.25 26.25 0.0
27.25 26.75 0.0
27.75 20.25 0.0
27.75 20.75 0.0
27.75 21.25 0.0
27.75 21.75 0.0
27.75 22.25 0.0
27.75 22.75 0.0
27.75 23.25 0.0
27.75 23.75 0.0
27.75 24.25 0.0
27.75 24.75 0.0
27.75 25.25 0.0
27.75 25.75 0.0
27.75 26.25 0.0
27.75 26.75 0.0
28.25 20.25 0.0
28.25 20.75 0.0
28.25 21.25 0.0
28.25 21.75 0.0
28.25 22.25 0.0
28.25 22.75 0.0
28.25 23.25 0.0
28.25 23.75 0.0
28.25 24.25 0.0
28.25 24.75 0.0
28.25 25.25 0.0
28.25 25.75 0.0
28.25 26.25 0.0
28.25 26.75 0.0
28.75 20.25 0.0
28.75 20.75 0.0
28.75 21.25 0.0
28.75 21.75 0.0
28.75 22.25 0.0
28.75 22.75 0.0
28.75 23.25 0.0
28.75 23.75 0.0
28.75 24.25 0.0
28.75 24.75 0.0
28.75 25.25 0.0
28.75 25.75 0.0
28.75 26.25 0.0
29.25 20.75 0.0
29.25 21.25 0.0
29.25 21.75 0.0
29.25 22.25 0.0
29.25 22.75 0.0
29.25 23.25 0.0
29.25 23.75 0.0
29.25 24.25 0.0
29.25 24.75 0.0
29.25 25.25 0.0
29.25 25.75 0.0
29.25 26.25 0.0
29.75 20.75 0.0
29.75 21.25 0.0
29.75 21.75 0.0
29.75 22.25 0.0
29.75 22.75 0.0
29.75 23.25 0.0
29.75 23.75 0.0
29.75 24.25 0.0
29.75 24.75 0.0
29.75 25.25 0.0
29.75 25.75 0.0
29.75 26.25 0.0
29.75 26.75 0.0
30.25 21.25 0.0
30.25 21.75 0.0
30.25 22.25 0.0
30.25 22.75 0.0
30.25 23.25 0.0
30.25 23.75 0.0
30.25 24.25 0.0
30.25 24.75 0.0
30.25 25.25 0.0
30.25 25.75 0.0
30.25 26.25 0.0
30.25 26.75 0.0
30.75 21.25 0.0
30.75 21.75 0.0
30.75 22.25 0.0
30.75 22.75 0.0
30.75 23.25 0.0
30.75 23.75 0.0
30.75 24.25 0.0
30.75 24.75 0.0
30.75 25.25 0.0
30.75 25.75 0.0
30.75 26.25 0.0
30.75 26.75 0.0
31.25 21.25 0.0
31.25 21.75 0.0
31.25 22.25 0.0
31.25 22.75 0.0
31.25 23.25 0.0
31.25 23.75 0.0
31.25 24.25 0.0
31.25 24.75 0.0
31.25 25.25 0.0
31.25 25.75 0.0
31.25 26.25 0.0
31.25 26.75 0.0
31.75 21.75 0.0
31.75 22.25 0.0
31.75 22.75 0.0
31.75 23.25 0.0
31.75 23.75 0.0
31.75 24.25 0.0
31.75 24.75 0.0
31.75 25.25 0.0
31.75 25.75 0.0
31.75 26.25 0.0
31.75 26.75 0.0
32.25 21.75 0.0
32.25 22.25 0.0
32.25 22.75 0.0
32.25 23.25 0.0
32.25 23.75 0.0
32.25 24.25 0.0
32.25 24.75 0.0
32.25 25.25 0.0
32.25 25.75 0.0
32.25 26.25 0.0
32.75 21.75 0.0
32.75 22.25 0.0
32.75 22.75 0.0
32.75 23.25 0.0
32.75 23.75 0.0
32.75 24.25 0.0
32.75 24.75 0.0
32.75 25.25 0.0
32.75 25.75 0.0
32.75 26.25 0.0
33.25 21.75 0.0
33.25 22.25 0.0
33.25 22.75 0.0
33.25 23.25 0.0
33.25 23.75 0.0
33.25 24.25 0.0
33.25 24.75 0.0
33.25 25.25 0.0
33.25 25.75 0.0
33.25 26.25 0.0
33.75 22.25 0.0
33.75 22.75 0.0
33.75 23.25 0.0
33.75 23.75 0.0
33.75 24.25 0.0
33.75 24.75 0.0
33.75 25.25 0.0
33.75 25.75 0.0
34.25 22.25 0.0
34.25 22.75 0.0
34.25 23.25 0.0
34.25 23.75 0.0
34.25 24.25 0.0
34.25 24.75 0.0
34.25 25.25 0.0
34.25 25.75 0.0
34.75 22.25 0.0
34.75 22.75 0.0
34.75 23.25 0.0
34.75 23.75 0.0
34.75 24.25 0.0
34.75 24.75 0.0
34.75 25.25 0.0
35.25 22.75 0.0
35.25 23.25 0.0
35.25 23.75 0.0
35.25 24.25 0.0
35.25 24.75 0.0
