ply
format ascii 1.0
element vertex 1500
property float x
property float y
property float z
end_header
0.02455984614789486 0.0013816356658935547 0.9990078210830688
-0.03432106971740723 -0.02886860817670822 0.9983401298522949
0.0037538623437285423 0.058964814990758896 0.9976723790168762
0.040307626128196716 -0.05288780480623245 0.9970046281814575
-0.07764162868261337 0.014885441400110722 0.9963368773460388
0.07100589573383331 0.04737656190991402 0.9956691265106201
-0.025480519980192184 -0.08856966346502304 0.9950013756752014
-0.04740740731358528 0.09015914052724838 0.9943336248397827
0.09871874004602432 -0.035144951194524765 0.993665874004364
-0.10533490777015686 -0.04156256839632988 0.9929981231689453
0.04884370043873787 0.10853525251150131 0.9923303723335266
0.035748790949583054 -0.11673491448163986 0.9916626214981079
-0.11294575035572052 0.06608278304338455 0.9909948706626892
0.12965181469917297 0.030170967802405357 0.9903271198272705
-0.08120405673980713 -0.11227403581142426 0.9896593689918518
-0.019756395369768143 0.14381037652492523 0.9889916181564331
0.11198703944683075 -0.0940965786576271 0.9883238673210144
-0.15372268855571747 -0.004921531770378351 0.9876561760902405
0.10986245423555374 0.11200286448001862 0.9869884252548218
-0.008735673502087593 -0.15942730009555817 0.9863206744194031
-0.10703544318675995 0.1280883401632309 0.9856529235839844
0.1661691814661026 -0.021151071414351463 0.9849851727485657
-0.1431719958782196 -0.09732938557863235 0.984317421913147
0.03746141120791435 0.17367883026599884 0.9836496710777283
0.0883377194404602 -0.1550476849079132 0.9829819202423096
-0.17650295794010162 0.05727623775601387 0.9823141694068909
0.16885927319526672 0.0799994170665741 0.9816464185714722
-0.07500448077917099 -0.17473207414150238 0.9809786677360535
-0.06706853210926056 0.18423563241958618 0.9803109169006348
0.17367450892925262 -0.09057991951704025 0.9796431660652161
-0.1956193745136261 -0.049840398132801056 0.9789754152297974
0.10913428664207458 0.17313191294670105 0.9783076643943787
0.03382406011223793 -0.20299369096755981 0.97763991355896
-0.16772767901420593 0.1302727907896042 0.976972222328186
0.21155595779418945 0.019016293808817863 0.9763044714927673
-0.1484030783176422 -0.1576327681541443 0.9756367206573486
-0.00022839847952127457 0.2209935188293457 0.9749689698219299
0.148238405585289 -0.1634623408317566 0.9743012189865112
-0.22581253945827484 0.022189432755112648 0.9736334681510925
0.18059132993221283 0.1394304782152176 0.9729657173156738
-0.042677026242017746 -0.2260645180940628 0.9722979664802551
-0.12591683864593506 0.19941069185733795 0.9716302156448364
0.22701969742774963 -0.06119126081466675 0.9709624648094177
-0.21435025334358215 -0.10795237123966217 0.970294713973999
0.08288015425205231 0.22844244539737701 0.9696269631385803
0.09101058542728424 -0.22537638247013092 0.9689592123031616
-0.22491948306560516 0.10735920816659927 0.9682914614677429
0.23766610026359558 0.07505735754966736 0.9676237106323242
-0.12904083728790283 -0.2165859043598175 0.9669559597969055
-0.054877348244190216 0.25088322162628174 0.9662882089614868
0.20879793167114258 -0.14786191284656525 0.9656205177307129
-0.25950759649276733 -0.03079831227660179 0.9649527668952942
0.1689581573009491 0.20140759646892548 0.9642850160598755
0.00836208276450634 -0.26356208324432373 0.9636172652244568
-0.18909022212028503 0.19194072484970093 0.9629495143890381
0.2682863175868988 -0.012402480468153954 0.9622817635536194
-0.21122585237026215 -0.17206977307796478 0.9616140127182007
0.036653585731983185 0.27341240644454956 0.960946261882782
0.155790776014328 -0.22676239907741547 0.9602785110473633
-0.27349361777305603 0.064012810587883 0.9596107602119446
0.24370627105236053 0.14019224047660828 0.9589430093765259
-0.08889461308717728 -0.26863083243370056 0.9582752585411072
-0.12003445625305176 0.26169687509536743 0.9576075077056885
0.26414555311203003 -0.11123380064964294 0.9569397568702698
-0.2751866281032562 -0.09562347829341888 0.9562720060348511
0.1361600160598755 0.25985509157180786 0.9556042551994324
0.0724823996424675 -0.28416821360588074 0.9549365043640137
-0.25040045380592346 0.1632743626832962 0.9542688131332397
0.2938486635684967 0.05062451213598251 0.953601062297821
-0.18697911500930786 -0.23597198724746704 0.9529333114624023
-0.024879440665245056 0.3039255142211914 0.9522655606269836
0.2219817191362381 -0.2072053849697113 0.9515978097915649
-0.30891573429107666 0.004383014980703592 0.9509300589561462
0.22908765077590942 0.2083376944065094 0.9502623081207275
-0.03158220648765564 -0.3088824450969696 0.9495945572853088
-0.18977107107639313 0.25224047899246216 0.9489268064498901
0.3091086149215698 -0.05665401741862297 0.9482590556144714
-0.2710880935192108 -0.16656099259853363 0.9475913047790527
0.08472524583339691 0.3093723654747009 0.946923553943634
0.14420613646507263 -0.2855919301509857 0.9462558031082153
-0.3042752742767334 0.11539015173912048 0.9455880522727966
0.30092504620552063 0.12269824743270874 0.9449203014373779
-0.14304019510746002 -0.29396852850914 0.9442525506019592
-0.0968484878540039 0.31674832105636597 0.9435848593711853
0.2838256359100342 -0.16759170591831207 0.9429171085357666
-0.32753998041152954 -0.06701156497001648 0.9422493577003479
0.19416047632694244 0.27371707558631897 0.9415816068649292
0.03875663876533508 -0.3333224952220917 0.9409138560295105
-0.2583378851413727 0.2223385125398636 0.9402461051940918
0.3393365740776062 0.012140120379626751 0.9395783543586731
-0.24652378261089325 -0.23793281614780426 0.9389106035232544
0.017968541011214256 0.34531691670417786 0.9382428526878357
0.21796832978725433 -0.26664799451828003 0.937575101852417
-0.34582096338272095 0.051163289695978165 0.9369073510169983
0.2878509759902954 0.19840644299983978 0.9362396001815796
-0.08183109015226364 -0.34095528721809387 0.9355718493461609
-0.17403140664100647 0.3097575008869171 0.9349040985107422
0.33604878187179565 -0.10987953841686249 0.9342363476753235
-0.32680660486221313 -0.14517419040203094 0.9335685968399048
0.14041146636009216 0.3309277594089508 0.9329008460044861
0.11738360673189163 -0.3389791250228882 0.9322331547737122
-0.32024383544921875 0.17300167679786682 0.9315654039382935
0.351471871137619 0.09069942682981491 0.9308976531028748
-0.20202681422233582 -0.3041996657848358 0.930229902267456
-0.059978384524583817 0.3639737069606781 0.9295621514320374
0.2882211208343506 -0.22739312052726746 0.9288944005966187
-0.3709947168827057 -0.02561793476343155 0.9282266497612
0.2542111277580261 0.2722317576408386 0.9275588989257812
-0.006773206405341625 -0.3725929260253906 0.9268911480903625
-0.2509796619415283 0.28207242488861084 0.9262233972549438
0.37404799461364746 -0.03710253909230232 0.9255556464195251
-0.3053794205188751 -0.22476249933242798 0.9248878955841064
0.07046829909086227 0.3751365840435028 0.9242201447486877
0.19909879565238953 -0.32407301664352417 0.923552393913269
-0.37046074867248535 0.10643614083528519 0.9228846430778503
0.3433069884777069 0.17400150001049042 0.9222168922424316
-0.13936898112297058 -0.3601740300655365 0.9215491414070129
-0.14430426061153412 0.3627244830131531 0.920881450176239
0.3496542274951935 -0.1691547930240631 0.9202136993408203
-0.3767874538898468 -0.11038543283939362 0.9195459485054016
0.20088136196136475 0.3387780785560608 0.9188781976699829
0.07783888280391693 -0.3855038583278656 0.9182104468345642
-0.322248637676239 0.2341131865978241 0.9175426959991455
0.3941015303134918 0.04674667865037918 0.9168749451637268
-0.2632213234901428 -0.30032071471214294 0.9162071943283081
-0.012004787102341652 0.402304083108902 0.9155394434928894
0.27847257256507874 -0.28811129927635193 0.9148716926574707
-0.40465977787971497 0.025953508913517 0.914203941822052
0.31389763951301575 0.2566799521446228 0.9135361909866333
-0.0614873506128788 -0.401267945766449 0.9128684401512146
-0.22974245250225067 0.3401808440685272 0.9122006893157959
0.3974522054195404 -0.09447604417800903 0.9115329384803772
-0.3613767623901367 -0.19800816476345062 0.9108651876449585
0.12999381124973297 0.39303556084632874 0.9101974964141846
0.16704463958740234 -0.3774443566799164 0.9095297455787659
-0.38266849517822266 0.16758668422698975 0.9088619947433472
0.39355993270874023 0.13691186904907227 0.9081942439079285
-0.20160245895385742 -0.3665543794631958 0.9075264930725098
-0.10248830169439316 0.4093933701515198 0.9068587422370911
0.3501221537590027 -0.23191869258880615 0.9061909914016724
-0.4194372594356537 -0.06419440358877182 0.9055232405662537
0.26361748576164246 0.33330029249191284 0.904855489730835
0.02766313962638378 -0.42373400926589966 0.9041877388954163
-0.3108440041542053 0.29626235365867615 0.9035199880599976
0.4275493025779724 -0.0069876378402113914 0.9028522372245789
-0.32422828674316406 -0.2830599844455719 0.9021844863891602
0.0448298342525959 0.43064776062965393 0.9015167355537415
0.2554779052734375 -0.34742942452430725 0.9008489847183228
-0.42762142419815063 0.08540192991495132 0.900181233882904
0.37099364399909973 0.22812381386756897 0.8995134830474854
-0.12303898483514786 -0.41861578822135925 0.8988457918167114
-0.195846289396286 0.3945392668247223 0.8981780409812927
0.4090026617050171 -0.157600536942482 0.897510290145874
-0.41250449419021606 -0.1590404510498047 0.8968425393104553
0.1941455900669098 0.39865490794181824 0.8961747884750366
0.12331870198249817 -0.424874871969223 0.8955070376396179
-0.38227397203445435 0.23220956325531006 0.8948392868041992
0.4368571937084198 0.08878329396247864 0.8941715359687805
-0.2661343812942505 -0.3601151704788208 0.8935037851333618
-0.05035189911723137 0.4481557011604309 0.8928360342979431
0.33765944838523865 -0.2957964837551117 0.8921682834625244
-0.453300803899765 -0.008480967953801155 0.8915005326271057
0.3262816369533539 0.3148874044418335 0.890832781791687
-0.031164176762104034 -0.4523758292198181 0.8901650309562683
-0.2866057753562927 0.35716190934181213 0.8894972801208496
0.45069029927253723 -0.06843719631433487 0.8888295292854309
-0.38282540440559387 -0.25317180156707764 0.8881617784500122
0.10838563740253448 0.44805505871772766 0.8874940872192383
0.22016438841819763 -0.40320396423339844 0.8868263363838196
-0.4391104280948639 0.1505279392004013 0.8861585855484009
0.42344769835472107 0.18765690922737122 0.8854908347129822
-0.18918360769748688 -0.4240518808364868 0.8848230838775635
-0.15054315328598022 0.4432013928890228 0.8841553330421448
0.40830254554748535 -0.2242012917995453 0.8834875822067261
-0.4569338262081146 -0.10926087200641632 0.8828198313713074
0.26063379645347595 0.3917873203754425 0.8821520805358887
0.0694621279835701 -0.4646647572517395 0.88148432970047
-0.36926013231277466 0.29801517724990845 0.8808165788650513
0.47163891792297363 0.03128557652235031 0.8801488280296326
-0.33069074153900146 -0.3410286605358124 0.8794810771942139
0.010318275541067123 0.477601557970047 0.8788133263587952
0.312625914812088 -0.3585452139377594 0.8781455755233765
-0.4771270453929901 0.05486402288079262 0.8774778246879578
0.38667726516723633 0.28408342599868774 0.8768101334571838
-0.09666148573160172 -0.4703451693058014 0.8761423826217651
-0.250257670879364 0.4146765172481537 0.8754746317863464
0.462613970041275 -0.1355437934398651 0.8748068809509277
-0.4369531273841858 -0.21155385673046112 0.874139130115509
0.1765424758195877 0.4537946879863739 0.8734713792800903
0.1735966056585312 -0.45346537232398987 0.8728036284446716
-0.4385792016983032 0.21916458010673523 0.8721358776092529
0.469393789768219 0.13650257885456085 0.8714681267738342
-0.25772297382354736 -0.41721558570861816 0.8708003759384155
-0.0952058732509613 0.48441755771636963 0.8701326251029968
0.3951798677444458 -0.29206451773643494 0.8694648742675781
-0.49304333329200745 -0.0501813068985939 0.8687971234321594
0.3272450268268585 0.37244996428489685 0.8681293725967407
0.007114456966519356 -0.49533209204673767 0.867461621761322
-0.3438323438167572 0.36280637979507446 0.8667938709259033
0.4965727627277374 -0.03382636234164238 0.8661261200904846
-0.3931065797805786 -0.3096863925457001 0.8654584288597107
0.07766510546207428 0.4965572655200958 0.864790678024292
0.2755955457687378 -0.41804757714271545 0.8641229271888733
-0.489908903837204 0.12389514595270157 0.8634551763534546
0.442749947309494 0.24164003133773804 0.8627874255180359
-0.16680960357189178 -0.47680824995040894 0.8621196746826172
-0.20272287726402283 0.4668295383453369 0.8614519238471985
0.4626654088497162 -0.2062295824289322 0.8607841730117798
-0.4847268760204315 -0.15929335355758667 0.8601164221763611
0.2471793293952942 0.4473947286605835 0.8594486713409424
0.11701726913452148 -0.49643459916114807 0.8587809205055237
-0.4257417321205139 0.2891635298728943 0.858113169670105
0.5071712732315063 0.07604921609163284 0.8574454188346863
-0.32649749517440796 -0.3980081081390381 0.8567776679992676
-0.031357694417238235 0.5166573524475098 0.8561099171638489
0.36972320079803467 -0.3590354323387146 0.8554421663284302
-0.519443929195404 0.01655193418264389 0.8547744154930115
0.39184537529945374 0.3409174680709839 0.8541067242622375
-0.06196766719222069 -0.5156390070915222 0.8534389734268188
-0.30644866824150085 0.4244861304759979 0.8527712225914001
0.5105807185173035 -0.10469910502433777 0.8521034717559814
-0.45133721828460693 -0.2667257785797119 0.8514357209205627
0.1497526317834854 0.5041123628616333 0.850767970085144
0.22737975418567657 -0.4723266065120697 0.8501002192497253
-0.4909098744392395 0.196608766913414 0.8494324684143066
0.4926051199436188 0.1885358989238739 0.8487647175788879
-0.2395525872707367 -0.4712074100971222 0.8480969667434692
-0.1451394110918045 0.5118228197097778 0.8474292159080505
0.4504695534706116 -0.27840203046798706 0.8467614650726318
-0.5244583487510681 -0.09767857939004898 0.8460937142372131
0.31818312406539917 0.42866501212120056 0.8454259634017944
0.051854655146598816 -0.5305456519126892 0.8447582125663757
-0.40059351921081543 0.35840725898742676 0.844090461730957
0.5353479981422424 0.00785382091999054 0.8434227705001831
-0.3934013843536377 -0.36661016941070557 0.8427550196647644
0.03932793065905571 0.5386331081390381 0.8420872688293457
0.3322966396808624 -0.4230360984802246 0.841419517993927
-0.5350017547607422 0.08916208893060684 0.8407517671585083
0.4524005651473999 0.29773402214050293 0.8400840163230896
-0.13591808080673218 -0.5246137380599976 0.8394162654876709
-0.25782862305641174 0.48107922077178955 0.8387485146522522
0.5128603577613831 -0.17939163744449615 0.8380807638168335
-0.5034816265106201 -0.2130357027053833 0.8374130129814148
0.22458013892173767 0.4996393024921417 0.8367452621459961
0.16902951896190643 -0.5195698142051697 0.8360775113105774
-0.47968152165412903 0.2709600329399109 0.8354097604751587
0.5345326066017151 0.1259755790233612 0.83474200963974
-0.3128173351287842 -0.4532766044139862 0.8340742588043213
-0.07885574549436569 0.5480614900588989 0.8334065079689026
0.42594414949417114 -0.3499758541584015 0.8327387571334839
-0.5546798706054688 -0.028191104531288147 0.83207106590271
0.38747256994247437 0.39770734310150146 0.8314033150672913
-0.020288363099098206 -0.5544693470001221 0.8307355642318726
-0.36341923475265503 0.42483460903167725 0.8300678133964539
0.552743136882782 -0.06637212634086609 0.8294000625610352
-0.4564094841480255 -0.3234867453575134 0.8287323117256165
0.11504443734884262 0.549321174621582 0.8280645608901978
0.28354132175445557 -0.48209303617477417 0.827396810054779
-0.5388580560684204 0.1657617688179016 0.8267290592193604
0.5070040225982666 0.24371151626110077 0.8260613083839417
-0.21278341114521027 -0.5215685963630676 0.825393557548523
-0.19894830882549286 0.5307607054710388 0.8247258067131042
0.5029000043869019 -0.25589996576309204 0.8240580558776855
-0.5478104948997498 -0.14974842965602875 0.8233903050422668
0.3001087009906769 0.4828060567378998 0.8227225542068481
0.10182414948940277 -0.5581568479537964 0.8220548033714294
-0.45607393980026245 0.34489110112190247 0.8213870525360107
0.5670334100723267 0.055375147610902786 0.8207193613052368
-0.38454315066337585 -0.42304861545562744 0.8200516104698181
-0.005413366481661797 0.574179470539093 0.8193838596343994
0.38930419087409973 -0.4189037084579468 0.8187161087989807
-0.5741688013076782 0.0475144162774086 0.818048357963562
0.453029602766037 0.35491684079170227 0.8173806071281433
-0.09765712916851044 -0.5671355128288269 0.8167128562927246
-0.3147907555103302 0.48647254705429077 0.8160451054573059
0.5584472417831421 -0.14478790760040283 0.8153773546218872
-0.5136092305183411 -0.2693816125392914 0.8147096037864685
0.1938796192407608 0.5479796528816223 0.8140418529510498
0.22436687350273132 -0.5343689918518066 0.8133741021156311
-0.5304439663887024 0.2443823665380478 0.8127063512802124
0.5539080500602722 0.17991802096366882 0.8120386004447937
-0.2905542254447937 -0.5061120986938477 0.811370849609375
-0.1310255378484726 0.5718861818313599 0.8107030987739563
0.48048824071884155 -0.332189679145813 0.8100354075431824
-0.5827953815460205 -0.07822176069021225 0.8093676567077637
0.37429502606391907 0.45358288288116455 0.808699905872345
0.02725052833557129 -0.5866871476173401 0.8080321550369263
-0.4202387034893036 0.4163658022880554 0.8073644042015076
0.5888456702232361 -0.021661298349499702 0.8066966533660889
-0.4527170658111572 -0.3808550536632538 0.8060289025306702
0.07347921282052994 0.5890632271766663 0.8053611516952515
0.3410584628582001 -0.48321154713630676 0.8046934008598328
-0.5819684267044067 0.12763866782188416 0.8040256500244141
0.5129346251487732 0.3009752333164215 0.8033578991889954
-0.17837581038475037 -0.5677518248558044 0.8026901483535767
-0.255557119846344 0.5414710640907288 0.802022397518158
0.5518383383750916 -0.22545605897903442 0.8013546466827393
-0.5632346272468567 -0.20530420541763306 0.8006868958473206
0.2738497257232666 0.5341616868972778 0.8000191450119019
0.15593498945236206 -0.5781958103179932 0.7993513941764832
-0.5094910264015198 0.3230096399784088 0.7986837029457092
0.5915555953979492 0.10765817761421204 0.7980159521102905
-0.36720165610313416 -0.4781559705734253 0.7973482012748718
-0.05549738183617592 0.6030215620994568 0.7966804504394531
0.4457176923751831 -0.4062333106994629 0.7960126996040344
-0.6071365475654602 -1.3741781003773212e-05 0.7953449487686157
0.44512903690338135 0.4122420847415924 0.794677197933197
-0.0530247688293457 -0.6040053367614746 0.7940094470977783
-0.37262579798698425 0.4834073781967163 0.7933416962623596
0.598967432975769 -0.10337194055318832 0.7926739454269409
-0.5154111981391907 -0.3273196816444397 0.7920061945915222
0.1559789478778839 0.5918720364570618 0.7913384437561035
0.281999409198761 -0.5410356521606445 0.7906706929206848
-0.5774058103561401 0.21027205884456635 0.7900029420852661
0.5654027462005615 0.23683728277683258 0.7893351912498474
-0.26048341393470764 -0.5558182001113892 0.7886674404144287
-0.1868276745080948 0.5881380438804626 0.78799968957901
0.5325931310653687 -0.3063797354698181 0.7873319983482361
-0.6036998629570007 -0.13250958919525146 0.7866642475128174
0.3529379367828369 0.5077230334281921 0.7859964966773987
0.07963638007640839 -0.6121063828468323 0.78532874584198
-0.47603514790534973 0.3996226489543915 0.7846609950065613
0.618609607219696 0.02844719961285591 0.7839932441711426
-0.44071680307388306 -0.43791598081588745 0.7833254933357239
0.02600846253335476 0.6229705214500427 0.7826577425003052
0.3989819288253784 -0.47604990005493164 0.7819899916648865
-0.6197877526283264 0.08314846456050873 0.7813222408294678
0.5106734037399292 0.3593520522117615 0.7806544899940491
-0.1371888518333435 -0.609223484992981 0.7799867391586304
-0.3139735460281372 0.5441373586654663 0.7793189883232117
0.5966759324073792 -0.18787258863449097 0.778651237487793
-0.5708209276199341 -0.26334503293037415 0.7779834866523743
0.24014531075954437 0.5820540189743042 0.7773157358169556
0.21318642795085907 -0.5906593799591064 0.7766480445861816
-0.5601043701171875 0.2934330999851227 0.7759802937507629
0.6088189482688904 0.16371075809001923 0.7753125429153442
-0.34197327494621277 -0.5311360955238342 0.7746447920799255
-0.10994896292686462 0.624972939491272 0.7739770412445068
0.5006925463676453 -0.3855430483818054 0.7733092904090881
-0.6336303949356079 -0.05247234180569649 0.7726415395736694
0.42913511395454407 0.46882426738739014 0.7719737887382507
-0.0029381224885582924 -0.6348633170127869 0.771306037902832
-0.43041524291038513 0.4722350239753723 0.7706382870674133
0.6339795589447021 -0.05602046474814415 0.7699705362319946
-0.5091516375541687 -0.38590654730796814 0.7693027853965759
0.11170744150876999 0.6307981014251709 0.7686350345611572
0.3409668505191803 -0.5397453308105469 0.7679672837257385
-0.619976818561554 0.16940437257289886 0.7672995328903198
0.5691027641296387 0.2957645058631897 0.7666317820549011
-0.22332006692886353 -0.6017383337020874 0.7659640312194824
-0.24529290199279785 0.5968139171600342 0.7652963399887085
0.5815417766571045 -0.27319571375846863 0.7646285891532898
-0.6173014640808105 -0.1900930404663086 0.7639608383178711
0.32398054003715515 0.5593568086624146 0.7632930874824524
0.13592331111431122 -0.6305482387542725 0.7626253366470337
-0.529990553855896 0.3751096725463867 0.761957585811615
0.6417711973190308 0.08303089439868927 0.7612898349761963
-0.42083483934402466 -0.4938116669654846 0.7606220841407776
-0.02647625096142292 0.6506971716880798 0.7599543333053589
0.45642146468162537 -0.4609529972076416 0.7592865824699402
-0.6518915891647339 0.03314463421702385 0.7586188316345215
0.5004816055297852 0.4179267883300781 0.7579510807991028
-0.09003115445375443 -0.6454846262931824 0.7572833299636841
-0.3732653856277466 0.5389360189437866 0.7566155791282654
0.6368439793586731 -0.14390696585178375 0.7559478282928467
-0.5706596374511719 -0.3229294717311859 0.755280077457428
0.19969579577445984 0.625849723815918 0.7546123266220093
0.2726355493068695 -0.5955517292022705 0.7539446353912354
-0.6072215437889099 0.2567994296550751 0.7532768845558167
0.6187422871589661 0.22259636223316193 0.752609133720398
-0.3094286620616913 -0.5812437534332275 0.7519413828849792
-0.16784554719924927 0.6398681998252869 0.7512736320495605
0.5534371137619019 -0.3573320806026459 0.7506058812141418
-0.6534026861190796 -0.10896025598049164 0.7499381303787231
0.40547189116477966 0.5238321423530579 0.7492703795433044
0.05173035338521004 -0.6593821048736572 0.7486026287078857
-0.48729532957077026 0.4533015191555023 0.747934877872467
0.6630798578262329 -0.003570325206965208 0.7472671270370483
-0.49509626626968384 -0.4442530870437622 0.7465993762016296
0.06185974180698395 0.6642812490463257 0.7459316253662109
0.4003622531890869 -0.5306817293167114 0.7452638745307922
-0.6576120257377625 0.12252558767795563 0.7445961236953735
0.5651088953018188 0.3557824194431305 0.7439283728599548
-0.17975634336471558 -0.6432640552520752 0.7432606816291809
-0.3055010437965393 0.5979313850402832 0.7425929307937622
0.6266674995422363 -0.23327027261257172 0.7419251799583435
-0.6235349178314209 -0.25005656480789185 0.7412574291229248
0.2879912853240967 0.6077651977539062 0.7405896782875061
0.19520777463912964 -0.6418654322624207 0.7399219274520874
-0.5813395380973816 0.3433268964290619 0.7392541766166687
0.6581029295921326 0.14120547473430634 0.73858642578125
-0.3934992253780365 -0.5477368831634521 0.7379186749458313
-0.08311687409877777 0.6719378232955933 0.7372509241104126
0.512538731098175 -0.43827372789382935 0.7365831732749939
-0.6778995990753174 -0.02154778130352497 0.7359154224395752
0.4826347529888153 0.4758349657058716 0.7352476716041565
-0.037688303738832474 -0.6760834455490112 0.7345799207687378
-0.4325490891933441 0.5260631442070007 0.7339121699333191
0.671823263168335 -0.09429919719696045 0.7332444190979004
-0.5628666281700134 -0.38316211104393005 0.7325766682624817
0.15318995714187622 0.6649667024612427 0.7319089770317078
0.33338236808776855 -0.5929079651832581 0.7312412261962891
-0.6502026319503784 0.21374092996120453 0.7305734753608704
0.6212799549102783 0.28341758251190186 0.7299057245254517
-0.27013885974884033 -0.6277865767478943 0.729237973690033
-0.22829952836036682 0.6475818157196045 0.7285702228546143
0.6032124161720276 -0.3221059739589691 0.7279024720191956
-0.6662492752075195 -0.1686067283153534 0.7272347211837769
0.37457576394081116 0.5764862298965454 0.7265669703483582
0.11013361066579819 -0.6772812008857727 0.7258992195129395
-0.5424525737762451 0.4269709885120392 0.7252314686775208
0.6859139204025269 0.053161755204200745 0.724563717842102
-0.47353437542915344 -0.5015184879302979 0.7238959670066833
0.007215895690023899 0.6918966174125671 0.7232282161712646
0.45932427048683167 -0.5140573978424072 0.722560465335846
-0.6898196339607239 0.0703730508685112 0.7218927145004272
0.5535556674003601 0.4160159230232239 0.7212249636650085
-0.13048124313354492 -0.6798408627510071 0.7205572724342346
-0.36657050251960754 0.5915461182594299 0.7198895215988159
0.6673579812049866 -0.187238872051239 0.7192217707633972
-0.6223771572113037 -0.31151896715164185 0.7185540199279785
0.24554727971553802 0.6522831320762634 0.7178862690925598
0.2566160261631012 -0.6459567546844482 0.7172185182571411
-0.6293697953224182 0.30478882789611816 0.7165507674217224
0.6674266457557678 0.20211149752140045 0.7158830165863037
-0.35915806889533997 -0.5989379286766052 0.715215265750885
-0.14307497441768646 0.6864390969276428 0.7145475149154663
0.5665448904037476 -0.408390611410141 0.7138797640800476
-0.6974855065345764 -0.08011791855096817 0.7132120132446289
0.45743903517723083 0.5322588086128235 0.7125442624092102
0.01906266249716282 -0.700623631477356 0.7118765115737915
-0.49098464846611023 0.5057505965232849 0.7112087607383728
0.7011509537696838 -0.039786554872989655 0.7105410099029541
-0.5475978851318359 -0.4431873857975006 0.7098733186721802
0.10131962597370148 0.6988794207572937 0.7092055678367615
0.39456260204315186 -0.5828072428703308 0.7085378170013428
-0.6884639263153076 0.16489873826503754 0.7078700661659241
0.6164339780807495 0.34530824422836304 0.7072023153305054
-0.22468960285186768 -0.6701274514198303 0.7065345644950867
-0.2904496490955353 0.6480392217636108 0.705866813659668
0.6493332982063293 -0.2803906202316284 0.7051990628242493
-0.6720198392868042 -0.23056213557720184 0.7045313119888306
0.3369089663028717 0.6260589361190796 0.7038635611534119
0.1714402735233307 -0.6883359551429749 0.7031958103179932
-0.5951226949691772 0.393638551235199 0.7025280594825745
0.7021850347518921 0.11336909234523773 0.7018603086471558
-0.4447912275791168 -0.5569078922271729 0.7011925578117371
-0.05144832655787468 0.7132777571678162 0.7005248069763184
0.5170339345932007 -0.4901255667209625 0.6998570561408997
-0.7161668539047241 0.013685689307749271 0.699189305305481
0.5346224308013916 0.4756285548210144 0.698521614074707
-0.07619119435548782 -0.7109732031822205 0.6978538632392883
-0.4276537001132965 0.5777626633644104 0.6971861124038696
0.7030590772628784 -0.1357502043247223 0.6965183615684509
-0.6138572692871094 -0.3736283481121063 0.6958506107330322
0.19724462926387787 0.6923022270202637 0.6951828598976135
0.3192983865737915 -0.6427759528160095 0.6945151090621948
-0.6734239459037781 0.2600345015525818 0.6938473582267761
0.669621467590332 0.26490819454193115 0.6931796073913574
-0.31828930974006653 -0.6467136144638062 0.6925118565559387
-0.2055252343416214 0.6940065026283264 0.69184410572052
0.6177003979682922 -0.37171709537506104 0.6911763548851013
-0.7103831768035889 -0.14176221191883087 0.6905086040496826
0.4252404272556305 0.5864267349243164 0.6898408532142639
0.07944613695144653 -0.718769907951355 0.6891731023788452
-0.5477741956710815 0.47827446460723877 0.6885053515434265
0.724425196647644 0.01888924464583397 0.6878376007080078
-0.5250576734542847 -0.5021876692771912 0.6871699094772339
0.044787030667066574 0.7271231412887573 0.6865021586418152
0.455345094203949 -0.5653807520866394 0.6858344078063965
-0.7214815020561218 0.11093029379844666 0.6851666569709778
0.6042618155479431 0.4074302613735199 0.6844989061355591
-0.17368853092193604 -0.7076875567436218 0.6838311553001404
-0.35345742106437683 0.641223669052124 0.6831634044647217
0.6911706328392029 -0.2327394187450409 0.682495653629303
-0.6706240773200989 -0.29399409890174866 0.6818279027938843
0.29296645522117615 0.6718758344650269 0.6811601519584656
0.23483049869537354 -0.6923834085464478 0.6804924011230469
-0.6445915102958679 0.3537372648715973 0.6798246502876282
0.7116589546203613 0.17625068128108978 0.6791568994522095
-0.40923479199409485 -0.6096730828285217 0.6784891486167908
-0.11335686594247818 0.7281214594841003 0.6778213977813721
0.5727146863937378 -0.4591863453388214 0.6771536469459534
-0.7362838983535767 -0.046791307628154755 0.6764859557151794
0.5085395574569702 0.5338215827941895 0.6758182048797607
-0.01759490557014942 -0.7362280488014221 0.675150454044342
-0.4879360496997833 0.5567399859428406 0.6744827032089233
0.7332776784896851 -0.07947111129760742 0.6738149523735046
-0.5980619788169861 -0.43556055426597595 0.6731472015380859
0.14370329678058624 0.7272737622261047 0.6724794507026672
0.3824276030063629 -0.6323369741439819 0.6718116998672485
-0.7129017114639282 0.20963239669799805 0.6711439490318298
0.6646285653114319 0.32877156138420105 0.6704761981964111
-0.27140578627586365 -0.6904169917106628 0.6698084473609924
-0.26965317130088806 0.6945094466209412 0.6691406965255737
0.6653169393539429 -0.3287065327167511 0.668472945690155
-0.7163913249969482 -0.20568203926086426 0.6678051948547363
0.3864295184612274 0.6376141309738159 0.6671374440193176
0.14268538355827332 -0.7302519083023071 0.6664696931838989
-0.6021630167961121 0.44395971298217773 0.6658019423484802
0.7413091659545898 0.08097927272319794 0.6651342511177063
-0.49550318717956543 -0.5593835711479187 0.6644665002822876
-0.01569240167737007 0.7492970824241638 0.6637987494468689
0.5149322152137756 -0.540816068649292 0.6631309986114502
-0.7487939596176147 0.05251213535666466 0.6624632477760315
0.5848801136016846 0.4689738154411316 0.6617954969406128
-0.11776825785636902 -0.7399487495422363 0.6611277461051941
-0.4165070354938507 0.6271803975105286 0.6604599952697754
0.7281535863876343 -0.17973627150058746 0.6597922444343567
-0.6620355248451233 -0.3580871522426605 0.659124493598938
0.24327918887138367 0.7133181691169739 0.6584567427635193
0.2994953691959381 -0.689325749874115 0.6577889919281006
-0.6901969313621521 0.30774110555648804 0.6571212410926819
0.7141677737236023 0.2410103678703308 0.6564534902572632
-0.3672786056995392 -0.6591139435768127 0.6557857394218445
-0.1777324080467224 0.7361910343170166 0.6551179885864258
0.625633955001831 -0.42159000039100647 0.6544502377510071
-0.7498673796653748 -0.11030536890029907 0.6537825465202332
0.47559136152267456 0.5898355841636658 0.6531147956848145
0.04458550736308098 -0.7552375197410583 0.6524470448493958
-0.546637237071991 0.5286945700645447 0.651779294013977
0.7575849890708923 -0.019087836146354675 0.6511115431785583
-0.5751383304595947 -0.49652037024497986 0.6504437923431396
0.08556849509477615 0.756710946559906 0.649776041507721
0.4451996982097626 -0.6147165894508362 0.6491082906723022
-0.7472624182701111 0.15418189764022827 0.6484405398368835
0.652454137802124 0.392894983291626 0.6477727890014648
-0.21905657649040222 -0.7294579744338989 0.6471050381660461
-0.33465585112571716 0.6878836750984192 0.6464372873306274
0.7087594270706177 -0.2798536419868469 0.6457695364952087
-0.7153758406639099 -0.27108410000801086 0.64510178565979
0.3414430320262909 0.6851460933685303 0.6444340348243713
0.20800289511680603 -0.7348669767379761 0.6437662839889526
-0.6534411907196045 0.40318194031715393 0.6430985927581787
0.7515333294868469 0.14572767913341522 0.64243084192276
-0.45924606919288635 -0.6140362620353699 0.6417630910873413
-0.07939016073942184 0.7650671601295471 0.6410953402519226
0.5725615620613098 -0.5093587040901184 0.6404275894165039
-0.7700054049491882 -0.009660067036747932 0.6397598385810852
0.5584667325019836 0.529158890247345 0.6390920877456665
-0.05758636072278023 -0.7664564251899719 0.6384243369102478
-0.4788069725036621 0.6060183048248291 0.6377565860748291
0.759772539138794 -0.12199579924345016 0.6370888352394104
-0.6462934613227844 -0.42204421758651733 0.6364210844039917
0.18841421604156494 0.7498250603675842 0.635753333568573
0.36463844776153564 -0.6791327595710754 0.6350855827331543
-0.7313316464424133 0.25616538524627686 0.6344178318977356
0.7096117734909058 0.3068583607673645 0.6337500810623169
-0.3193824589252472 -0.7045812010765076 0.6330823302268982
-0.24379780888557434 0.7373183965682983 0.6324145793914795
0.675105631351471 -0.3777373135089874 0.6317468881607056
-0.7566822171211243 -0.17609788477420807 0.6310791373252869
0.43611687421798706 0.6429529786109924 0.6304113864898682
0.10961567610502243 -0.7677018046379089 0.6297436356544495
-0.6030136346817017 0.4939012825489044 0.6290758848190308
0.7756184935569763 0.044695038348436356 0.6284081339836121
-0.5452950596809387 -0.555743932723999 0.6277403831481934
0.023509744554758072 0.7801917791366577 0.6270726323127747
0.5068363547325134 -0.5900560021400452 0.626404881477356
-0.7760279774665833 0.0943124070763588 0.6257371306419373
0.6331709027290344 0.45649173855781555 0.6250693798065186
-0.16182629764080048 -0.7633057236671448 0.6244016289710999
-0.39974403381347656 0.6741328835487366 0.6237338781356812
0.747448742389679 -0.225693941116333 0.6230661273002625
-0.7072717547416687 -0.33718281984329224 0.6223983764648438
0.2907634675502777 0.7283996939659119 0.621730625629425
0.2746225893497467 -0.7324820756912231 0.6210628747940063
-0.700947105884552 0.3563670516014099 0.6203951835632324
0.7548977136611938 0.2123737633228302 0.6197274327278137
-0.41665250062942505 -0.6654500961303711 0.619059681892395
-0.14556671679019928 0.774168074131012 0.6183919310569763
0.6275089979171753 -0.47131258249282837 0.6177241802215576
-0.7847874760627747 -0.07487349957227707 0.6170564293861389
0.5252609848976135 0.5872385501861572 0.6163886785507202
0.006176384165883064 -0.7868216633796692 0.6157209277153015
-0.5395930409431458 0.5779104828834534 0.6150531768798828
0.7855811715126038 -0.06016160920262337 0.6143854260444641
-0.6235037446022034 -0.4850897789001465 0.6137176752090454
0.12897318601608276 0.7808965444564819 0.6130499243736267
0.4294787347316742 -0.6618421077728271 0.612382173538208
-0.7674456238746643 0.1995653510093689 0.6117144227027893
0.697960615158081 0.3730141520500183 0.6110466718673706
-0.2660510838031769 -0.7454792261123657 0.6103789210319519
-0.310778945684433 0.73140549659729 0.609711229801178
0.7204930782318115 -0.32807883620262146 0.6090434789657593
-0.756563663482666 -0.2434069961309433 0.6083757281303406
0.39050909876823425 0.6925010085105896 0.6077079772949219
0.1767517626285553 -0.7733905911445618 0.6070402264595032
-0.6563615798950195 0.45269259810447693 0.6063724756240845
0.7870842218399048 0.11115729063749313 0.6057047247886658
-0.5088018774986267 -0.6125019788742065 0.6050369739532471
-0.041781749576330185 0.7973611354827881 0.6043692231178284
0.5665884613990784 -0.5585601925849915 0.6037014722824097
-0.7987846732139587 0.03068096935749054 0.603033721446991
0.6069177389144897 0.5187984704971313 0.6023659706115723
-0.10033292323350906 -0.791491687297821 0.6016982197761536
-0.4641459286212921 0.6533289551734924 0.6010304689407349
0.7808648943901062 -0.16680172085762024 0.6003627181053162
-0.692083477973938 -0.4032037854194641 0.5996949672698975
0.23491708934307098 0.7668074369430542 0.5990272164344788
0.3417733609676361 -0.7230343222618103 0.5983595252037048
-0.7440701127052307 0.3039894998073578 0.5976917743682861
0.7512726783752441 0.2801555395126343 0.5970240235328674
-0.3681417405605316 -0.7129760980606079 0.5963562726974487
-0.21347492933273315 0.7764046788215637 0.59568852186203
0.6790923476219177 -0.4270385205745697 0.5950207710266113
-0.7928809523582458 -0.14240148663520813 0.5943530201911926
0.4855627417564392 0.6425023078918457 0.5936852693557739
0.07281925529241562 -0.8007234930992126 0.5930175185203552
-0.5981320738792419 0.5430936813354492 0.5923497676849365
0.8051993250846863 0.00509675033390522 0.5916820168495178
-0.5938382744789124 -0.5464736223220825 0.5910142660140991
0.06558946520090103 0.8060958981513977 0.5903465151786804
0.4932546019554138 -0.6375598311424255 0.5896787643432617
-0.7980492115020752 0.13853344321250916 0.589011013507843
0.6792536973953247 0.438710480928421 0.5883432626724243
-0.20783157646656036 -0.7812692523002625 0.5876755118370056
-0.3779087960720062 0.7184247970581055 0.5870078206062317
0.7612124681472778 -0.27311232686042786 0.586340069770813
-0.7494176030158997 -0.3114716112613678 0.5856723189353943
0.3392127752304077 0.7378553152084351 0.5850045680999756
0.24524439871311188 -0.7721441388130188 0.5843368172645569
-0.7060210704803467 0.405457079410553 0.5836690664291382
0.7917583584785461 0.179566890001297 0.5830013155937195
-0.4659881889820099 -0.6661039590835571 0.5823335647583008
-0.10959679633378983 0.8079325556755066 0.5816658139228821
0.6237399578094482 -0.5204971432685852 0.5809980630874634
-0.8151860237121582 -0.036031387746334076 0.5803303122520447
0.5738991498947144 0.5790792107582092 0.579662561416626
-0.03522421419620514 -0.8136116862297058 0.5789948105812073
-0.5271112322807312 0.6256116032600403 0.5783270597457886
0.8085492253303528 -0.10378666967153549 0.5776593089103699
-0.669884979724884 -0.46838805079460144 0.5769915580749512
0.17447105050086975 0.7998599410057068 0.5763238668441772
0.4086933135986328 -0.7065314650535583 0.5756561160087585
-0.7822539806365967 0.24656957387924194 0.5749883651733398
0.7405998706817627 0.34831398725509644 0.5743206143379211
-0.3141833245754242 -0.7560155987739563 0.5736528635025024
-0.2823643386363983 0.7716531157493591 0.5729851126670837
0.7266747951507568 -0.37695202231407166 0.572317361831665
-0.7940974831581116 -0.21150781214237213 0.5716496109962463
0.43973034620285034 0.6942803859710693 0.5709818601608276
0.14162574708461761 -0.8079104423522949 0.5703141093254089
-0.6537262797355652 0.5018665790557861 0.5696463584899902
0.8183143138885498 0.07308787852525711 0.5689786076545715
-0.5575337409973145 -0.605475127696991 0.5683108568191528
-0.0010758173884823918 0.82505202293396 0.5676431059837341
0.5552282333374023 -0.6064590215682983 0.5669753551483154
-0.822715699672699 0.0736955776810646 0.5663076043128967
0.6535993218421936 0.5031979084014893 0.565639853477478
-0.14531004428863525 -0.8114722371101379 0.5649721622467041
-0.444431871175766 0.6984192132949829 0.5643044114112854
0.7967361807823181 -0.2133796662092209 0.5636366605758667
-0.735221266746521 -0.3795360326766968 0.562968909740448
0.28272151947021484 0.7784436941146851 0.5623011589050293
0.31434327363967896 -0.7638742327690125 0.5616334080696106
-0.7513795495033264 0.3526364266872406 0.5609656572341919
0.7894879579544067 0.24918460845947266 0.5602979063987732
-0.4172406494617462 -0.715901792049408 0.5596301555633545
-0.1792127788066864 0.8116897344589233 0.5589624047279358
0.6776122450828552 -0.4761955142021179 0.5582946538925171
-0.8249538540840149 -0.1051240786910057 0.5576269030570984
0.5343835353851318 0.6366298794746399 0.5569591522216797
0.0328264981508255 -0.8293281197547913 0.556291401386261
-0.58791583776474 0.5911870002746582 0.5556236505508423
0.8301075100898743 -0.0372898131608963 0.5549558997154236
-0.6408187747001648 -0.5319968461990356 0.5542881488800049
0.11002928018569946 0.827109158039093 0.553620457649231
0.47463473677635193 -0.6830512285232544 0.5529527068138123
-0.8150002956390381 0.18466965854167938 0.5522849559783936
0.7228919267654419 0.4160979986190796 0.5516172051429749
-0.25529396533966064 -0.7940235733985901 0.5509494543075562
-0.35148608684539795 0.759860634803772 0.5502817034721375
0.7696689963340759 -0.3215201795101166 0.5496139526367188
-0.7883197069168091 -0.2814515233039856 0.5489462018013
0.38817793130874634 0.7419475317001343 0.5482784509658813
0.21186842024326324 -0.8082014918327332 0.5476107001304626
-0.7057173848152161 0.4545871317386627 0.546942949295044
0.8246830105781555 0.14310327172279358 0.5462751984596252
-0.5148895978927612 -0.661408007144928 0.5456074476242065
-0.07033839821815491 0.837461531162262 0.5449396967887878
0.6146904230117798 -0.5687783360481262 0.5442719459533691
-0.8410836458206177 0.005706691183149815 0.5436041951179504
0.621173620223999 0.5657496452331543 0.5429365038871765
-0.07910715788602829 -0.8356715440750122 0.5422687530517578
-0.5096094608306885 0.6715010404586792 0.5416010022163391
0.8265956044197083 -0.14946264028549194 0.5409332513809204
-0.7140223979949951 -0.4468550384044647 0.5402655005455017
0.22157399356365204 0.8137492537498474 0.539597749710083
0.38330239057540894 -0.7485638856887817 0.5389299988746643
-0.791875958442688 0.29472213983535767 0.5382622480392456
0.7801913619041443 0.3192691504955292 0.5375944972038269
-0.36299997568130493 -0.7612941265106201 0.5369267463684082
-0.2498987913131714 0.8084872961044312 0.5362589955329895
0.727568507194519 -0.42604193091392517 0.5355912446975708
-0.8278802037239075 -0.1758819967508316 0.5349234938621521
0.4887007474899292 0.6907829642295837 0.5342557430267334
0.10312531143426895 -0.838371992111206 0.5335879921913147
-0.6458665728569031 0.5503256320953369 0.532920241355896
0.8452116250991821 0.032021310180425644 0.5322524905204773
-0.6050940155982971 -0.5933167338371277 0.5315847992897034
0.042227961122989655 0.8481706380844116 0.5309170484542847
0.5388691425323486 -0.6527402400970459 0.530249297618866
-0.8418712019920349 0.11888987571001053 0.5295815467834473
0.69823157787323 0.48276960849761963 0.5289137959480286
-0.19203317165374756 -0.8265121579170227 0.5282460451126099
-0.42009833455085754 0.7410458922386169 0.5275782942771912
0.8075408935546875 -0.2612577974796295 0.5269105434417725
-0.7755018472671509 -0.35149240493774414 0.5262427926063538
0.3313717544078827 0.7849274277687073 0.5255750417709351
0.28281423449516296 -0.8014870285987854 0.5249072909355164
-0.7534911036491394 0.40166977047920227 0.5242395401000977
0.8241326808929443 0.21442261338233948 0.523571789264679
-0.46626517176628113 -0.7136247754096985 0.5229040384292603
-0.14149607717990875 0.8430899381637573 0.5222362875938416
0.6709654331207275 -0.5248193740844727 0.5215685367584229
-0.8528589606285095 -0.06475438922643661 0.5209007859230042
0.58221834897995 0.6256668567657471 0.5202330946922302
-0.009873321279883385 -0.8535155653953552 0.5195653438568115
-0.5727246403694153 0.6378506422042847 0.5188975930213928
0.8503844141960144 -0.08197839558124542 0.5182298421859741
-0.6859385371208191 -0.5126993060112 0.5175620913505554
0.15634945034980774 0.8433139324188232 0.5168943405151367
0.45138537883758545 -0.7262669205665588 0.516226589679718
-0.8270038962364197 0.2322513312101364 0.5155588388442993
0.7638584971427917 0.38908278942108154 0.5148910880088806
-0.3037570118904114 -0.8017305135726929 0.5142233371734619
-0.3209211230278015 0.798251211643219 0.5135555863380432
0.7730180621147156 -0.370477557182312 0.5128878355026245
-0.823827862739563 -0.24758106470108032 0.5122200846672058
0.4372387230396271 0.7409123182296753 0.5115523338317871
0.17496313154697418 -0.8405439853668213 0.5108845829963684
-0.7003063559532166 0.5033596754074097 0.5102168321609497
0.8536018133163452 0.10345793515443802 0.5095491409301758
-0.5629845857620239 -0.6516646146774292 0.5088813900947571
-0.028269609436392784 0.8627260327339172 0.5082136392593384
0.6006927490234375 -0.6158119440078735 0.5075458884239197
-0.8624923825263977 0.04986307770013809 0.506878137588501
0.6667705774307251 0.5476095080375671 0.5062103867530823
-0.12499868869781494 -0.853053867816925 0.5055426359176636
-0.48747172951698303 0.7152975797653198 0.5048748850822449
0.8398129343986511 -0.1967230886220932 0.5042071342468262
-0.755669116973877 -0.4208965599536896 0.5035393834114075
0.2698262929916382 0.8226962685585022 0.5028716325759888
0.35373032093048096 -0.7877285480499268 0.5022038817405701
-0.7964814305305481 0.34358134865760803 0.5015361309051514
0.8165616989135742 0.28631946444511414 0.5008683800697327
-0.41207632422447205 -0.7615213990211487 0.500200629234314
-0.21383431553840637 0.841773271560669 0.49953287839889526
0.7234157919883728 -0.4749440848827362 0.49886512756347656
-0.8578163981437683 -0.13699039816856384 0.49819743633270264
0.5370386838912964 0.6822834610939026 0.49752965569496155
0.06171668320894241 -0.8647196888923645 0.49686190485954285
-0.6330879926681519 0.5977140665054321 0.49619415402412415
0.8677607774734497 -0.01157418917864561 0.49552643299102783
-0.6511549949645996 -0.5763609409332275 0.49485868215560913
0.08766280859708786 0.866741418838501 0.49419093132019043
0.5178713202476501 -0.697106659412384 0.49352318048477173
-0.8563156127929688 0.16580192744731903 0.492855429649353
0.7405497431755066 0.45789697766304016 0.4921876788139343
-0.24004854261875153 -0.8367149233818054 0.4915199279785156
-0.39154911041259766 0.7809785008430481 0.4908521771430969
0.8134206533432007 -0.3099938929080963 0.4901844561100006
-0.812730610370636 -0.31949394941329956 0.4895167052745819
0.38044023513793945 0.7864371538162231 0.4888489544391632
0.24762146174907684 -0.8357152938842773 0.4881812036037445
-0.7506186962127686 0.4506796896457672 0.4875134527683258
0.8550876379013062 0.17631575465202332 0.4868457019329071
-0.5148260593414307 -0.7063928842544556 0.4861779510974884
-0.10077859461307526 0.8705248236656189 0.4855102002620697
0.659431517124176 -0.5725444555282593 0.484842449426651
-0.8765550851821899 -0.02175048366189003 0.4841747283935547
0.628727376461029 0.6099225282669067 0.483506977558136
-0.05482126399874687 -0.8732840418815613 0.4828392267227173
-0.552895188331604 0.6827731728553772 0.4821714758872986
0.8660675287246704 -0.12851253151893616 0.4815037250518799
-0.7289168238639832 -0.48894229531288147 0.4808359742164612
0.2040993571281433 0.8547866344451904 0.4801682233810425
0.423889696598053 -0.7669585943222046 0.4795004725456238
-0.8341745734214783 0.28083688020706177 0.47883275151252747
0.8019394874572754 0.35806718468666077 0.47816500067710876
-0.35279151797294617 -0.8045417666435242 0.47749724984169006
-0.2866321802139282 0.8334181308746338 0.47682949900627136
0.7714471817016602 -0.4195707142353058 0.47616174817085266
-0.8558005690574646 -0.21029147505760193 0.47549399733543396
0.48599979281425476 0.7349714040756226 0.47482624650001526
0.13496942818164825 -0.8690678477287292 0.47415849566459656
-0.6900424361228943 0.5514006018638611 0.47349074482917786
0.8784494400024414 0.061078157275915146 0.47282302379608154
-0.6099230051040649 -0.637158989906311 0.47215527296066284
0.016159236431121826 0.8836994767189026 0.47148752212524414
0.5820603370666504 -0.661274254322052 0.47081977128982544
-0.8794243931770325 0.09598769247531891 0.47015202045440674
0.7103949785232544 0.5249982476234436 0.46948426961898804
-0.17245230078697205 -0.8658092617988586 0.46881651878356934
-0.4610610604286194 0.7567368149757385 0.46814876794815063
0.8482899069786072 -0.24512836337089539 0.4674810469150543
-0.7945933938026428 -0.39089614152908325 0.4668132960796356
0.31879833340644836 0.8268269300460815 0.4661455452442169
0.3203783929347992 -0.8238280415534973 0.4654777944087982
-0.7962324023246765 0.3927307426929474 0.4648100435733795
0.8495489954948425 0.24988089501857758 0.4641422927379608
-0.46101224422454834 -0.7568942308425903 0.4634745419025421
-0.17459847033023834 0.8713856339454651 0.4628067910671234
0.7144467234611511 -0.5232774019241333 0.4621390700340271
-0.8838180303573608 -0.09526889771223068 0.4614713191986084
0.584385097026825 0.669043242931366 0.4608035683631897
0.017840923741459846 -0.8869034647941589 0.460135817527771
-0.6156814098358154 0.6436970233917236 0.4594680666923523
0.8859497904777527 -0.057255711406469345 0.4588003158569336
-0.695408821105957 -0.554925799369812 0.4581325650215149
0.13478723168373108 0.880790650844574 0.4574648141860962
0.4925774335861206 -0.7392793893814087 0.4567970633506775
-0.8661128282546997 0.21399492025375366 0.4561293423175812
0.7803059816360474 0.428944855928421 0.4554615914821625
-0.288927286863327 -0.8421816825866699 0.4547938406467438
-0.35916829109191895 0.8180019855499268 0.4541260898113251
0.8145128488540649 -0.3591700792312622 0.45345833897590637
-0.8467267155647278 -0.28394123911857605 0.45279058814048767
0.42952319979667664 0.783145546913147 0.45212283730506897
0.20917882025241852 -0.8664134740829468 0.45145508646965027
-0.742968738079071 0.4992794692516327 0.45078736543655396
0.8822435736656189 0.13528816401958466 0.45011961460113525
-0.5625565648078918 -0.6944446563720703 0.44945186376571655
-0.05749152600765228 0.8939222693443298 0.44878411293029785
0.6432793140411377 -0.6190263628959656 0.44811636209487915
-0.8960075974464417 0.023452596738934517 0.44744861125946045
0.6735914349555969 0.5896939635276794 0.44678086042404175
-0.10158167779445648 -0.8886365294456482 0.44611310958862305
-0.5287501811981201 0.7256627678871155 0.44544538855552673
0.8771974444389343 -0.17645922303199768 0.44477763772010803
-0.7694910764694214 -0.4610719680786133 0.44410988688468933
0.25285181403160095 0.8616048097610474 0.44344213604927063
0.39251473546028137 -0.8048949241638184 0.44277438521385193
-0.8366261720657349 0.3300081789493561 0.4421066343784332
0.8369362950325012 0.3234359920024872 0.4414388835430145
-0.4019913673400879 -0.8026065826416016 0.4407711327075958
-0.24901914596557617 0.8651971220970154 0.4401034116744995
0.7651398181915283 -0.46840858459472656 0.4394356608390808
-0.8841089010238647 -0.16999462246894836 0.4387679100036621
0.5340880155563354 0.7243411540985107 0.4381001591682434
0.09230810403823853 -0.893680214881897 0.4374324083328247
-0.6751728057861328 0.5983573198318481 0.436764657497406
0.8991698622703552 0.016390478238463402 0.4360969066619873
-0.6553754210472107 -0.6181672215461731 0.4354291558265686
0.06251904368400574 0.9003627896308899 0.4347614049911499
0.5590963959693909 -0.7048614621162415 0.4340936839580536
-0.8918976187705994 0.14365211129188538 0.4334259331226349
0.7517707347869873 0.4982435405254364 0.4327581822872162
-0.2210434079170227 -0.8739926815032959 0.4320904314517975
-0.43072715401649475 0.7955725789070129 0.4314226806163788
0.8521177172660828 -0.2942608892917633 0.4307549297809601
-0.830580472946167 -0.35722294449806213 0.4300871789455414
0.36808261275291443 0.8262679576873779 0.4294194281101227
0.2836323082447052 -0.8566804528236389 0.42875170707702637
-0.7912901639938354 0.441775918006897 0.42808395624160767
0.8790055513381958 0.21035277843475342 0.42741620540618896
-0.5094293355941772 -0.7476070523262024 0.42674845457077026
-0.13260121643543243 0.8972120881080627 0.42608070373535156
0.7008873224258423 -0.5706823468208313 0.42541295289993286
-0.9058087468147278 -0.051135022193193436 0.42474520206451416
0.6304017305374146 0.6513183116912842 0.42407745122909546
-0.028080081567168236 -0.9048833250999451 0.42340970039367676
-0.5939306020736694 0.6879602074623108 0.42274197936058044
0.8997754454612732 -0.10460013896226883 0.42207422852516174
-0.7375673055648804 -0.5293206572532654 0.42140647768974304
0.1831800639629364 0.8903515338897705 0.42073872685432434
0.46332013607025146 -0.7789984941482544 0.42007097601890564
-0.8713322281837463 0.2630527913570404 0.41940322518348694
0.8172703385353088 0.39626652002334595 0.41873547434806824
-0.3382614850997925 -0.8430173397064209 0.41806772351264954
-0.3233271837234497 0.8519180417060852 0.4174000024795532
0.8109571933746338 -0.4083896577358246 0.4167322516441345
-0.8773249983787537 -0.24522069096565247 0.4160645008087158
0.4782380759716034 0.7752257585525513 0.4153967499732971
0.16788503527641296 -0.8934507966041565 0.4147289991378784
-0.7307465672492981 0.5471035242080688 0.4140612483024597
0.9055048823356628 0.09174776077270508 0.413393497467041
-0.6091106534004211 -0.6780160069465637 0.4127257466316223
-0.012048973701894283 0.9132223725318909 0.412058025598526
0.6227733492851257 -0.6639414429664612 0.4113902747631073
-0.9111927151679993 0.0704377293586731 0.4107225239276886
0.7165111899375916 0.5652722120285034 0.4100547730922699
-0.14973753690719604 -0.8995853662490845 0.4093870222568512
-0.5006052255630493 0.7662467956542969 0.4087192714214325
0.8838223218917847 -0.22540464997291565 0.4080515205860138
-0.8074173927307129 -0.42942580580711365 0.4073837697505951
0.3021993339061737 0.863852322101593 0.4067160189151764
0.35761716961860657 -0.8398625254631042 0.4060482978820801
-0.8344773650169373 0.37936705350875854 0.4053805470466614
0.8686675429344177 0.285562664270401 0.4047127962112427
-0.45097073912620544 -0.7960774898529053 0.404045045375824
-0.2084691971540451 0.8934399485588074 0.4033772945404053
0.7542810440063477 -0.5166205167770386 0.4027095437049866
-0.9086388945579529 -0.1270885020494461 0.40204179286956787
0.5811505913734436 0.7092376351356506 0.40137404203414917
0.04738493636250496 -0.9143022298812866 0.40070632100105286
-0.6559430956840515 0.6438977122306824 0.40003857016563416
0.9157196879386902 -0.030194584280252457 0.39937081933021545
-0.699032723903656 -0.594962477684021 0.39870306849479675
0.11039764434099197 0.9127083420753479 0.39803531765937805
0.5320993661880493 -0.7462896108627319 0.39736756682395935
-0.8999402523040771 0.19244559109210968 0.39669981598854065
0.7906413078308105 0.46766695380210876 0.39603206515312195
-0.270365834236145 -0.8776675462722778 0.39536434412002563
-0.3968120813369751 0.8315771818161011 0.39469659328460693
0.8513947129249573 -0.34372201561927795 0.39402884244918823
-0.8634335398674011 -0.3202369809150696 0.39336109161376953
0.4172910749912262 0.821151614189148 0.39269334077835083
0.24386732280254364 -0.8861212134361267 0.39202558994293213
-0.7818199396133423 0.49034228920936584 0.3913578391075134
0.9048001170158386 0.16812267899513245 0.3906900882720947
-0.556969165802002 -0.7338566780090332 0.3900223672389984
-0.08823951333761215 0.919155478477478 0.3893546164035797
0.682964563369751 -0.6168192625045776 0.388686865568161
-0.9237264394760132 -0.0049921185709536076 0.3880191147327423
0.6747704148292542 0.6293638348579407 0.3873513638973236
-0.07563963532447815 -0.918632447719574 0.3866836130619049
-0.5681169629096985 0.7302091717720032 0.3860158622264862
0.9092461466789246 -0.15320052206516266 0.3853481113910675
-0.7773618698120117 -0.4998511075973511 0.3846803605556488
0.2324371486902237 0.8954678177833557 0.3840126395225525
0.4304267466068268 -0.8160232305526733 0.3833448886871338
-0.8720524907112122 0.31257715821266174 0.3826771378517151
0.8512317538261414 0.36020851135253906 0.3820093870162964
-0.3876616060733795 -0.8393347263336182 0.3813416361808777
-0.28438887000083923 0.8825467228889465 0.380673885345459
0.8028995990753174 -0.457274854183197 0.3800061345100403
-0.9043779373168945 -0.2037091851234436 0.3793383836746216
0.5262216925621033 0.7628557085990906 0.37867066264152527
0.12412786483764648 -0.9167130589485168 0.37800291180610657
-0.7141607403755188 0.5938059091567993 0.37733516097068787
0.9247915148735046 0.046090267598629 0.37666741013526917
-0.6541622877120972 -0.657344400882721 0.37599965929985046
0.03514841943979263 0.9283798933029175 0.37533190846443176
0.5981782674789429 -0.7069856524467468 0.37466415762901306
-0.9221001863479614 0.11880235373973846 0.37399640679359436
0.7572072744369507 0.5369470119476318 0.37332865595817566
-0.1988874226808548 -0.9061554074287415 0.37266093492507935
-0.46877267956733704 0.804272472858429 0.37199318408966064
0.8860017657279968 -0.2749515473842621 0.37132543325424194
-0.8424713015556335 -0.3943365812301636 0.37065768241882324
0.35175177454948425 0.8616227507591248 0.36998993158340454
0.3195476830005646 -0.8716669082641602 0.36932218074798584
-0.8278552293777466 0.42853349447250366 0.36865442991256714
0.8969701528549194 0.24481292068958282 0.36798667907714844
-0.4993625283241272 -0.7851138114929199 0.3673189580440521
-0.1653604507446289 0.9180161952972412 0.3666512072086334
0.7390612959861755 -0.5638551115989685 0.3659834563732147
-0.9292935132980347 -0.08196068555116653 0.365315705537796
0.626854419708252 0.689880907535553 0.3646479547023773
0.0005940053379163146 -0.9308709502220154 0.3639802038669586
-0.6326011419296265 0.6877093315124512 0.3633124530315399
0.9280705451965332 -0.07827944308519363 0.3626447021961212
-0.7406055331230164 -0.5678185820579529 0.3619769811630249
0.1593969613313675 0.9207425117492676 0.3613092303276062
0.5013667941093445 -0.7852945327758789 0.3606414794921875
-0.9035930633544922 0.24197259545326233 0.3599737286567688
0.8267695307731628 0.4335874617099762 0.3593059778213501
-0.32002946734428406 -0.8769089579582214 0.3586382269859314
-0.35965391993522644 0.8645426034927368 0.3579704761505127
0.8462294340133667 -0.3931301236152649 0.357302725315094
-0.8929749131202698 -0.28029268980026245 0.3566349744796753
0.46605342626571655 0.811619222164154 0.355967253446579
0.20145155489444733 -0.912004292011261 0.3552995026111603
-0.7679944038391113 0.5380736589431763 0.3546317517757416
0.9268195033073425 0.12356965988874435 0.3539640009403229
-0.6032923460006714 -0.7158459424972534 0.3532962501049042
-0.0419003963470459 0.937136173248291 0.3526284992694855
0.6609096527099609 -0.6613680720329285 0.3519607484340668
-0.9375253319740295 0.042767755687236786 0.35129299759864807
0.7171926498413086 0.6034377217292786 0.35062527656555176
-0.12444362044334412 -0.9281393885612488 0.34995752573013306
-0.5385231971740723 0.7701693773269653 0.34928977489471436
0.9143848419189453 -0.20266366004943848 0.34862202405929565
-0.8145439028739929 -0.46682223677635193 0.34795427322387695
0.2821691930294037 0.8961964845657349 0.34728652238845825
0.3942224681377411 -0.8501327633857727 0.34661877155303955
-0.8683640956878662 0.36218568682670593 0.34595102071762085
0.8819987177848816 0.3211136758327484 0.34528329968452454
-0.4367550015449524 -0.8312570452690125 0.34461554884910583
-0.24271118640899658 0.9097272753715515 0.34394779801368713
0.7904951572418213 -0.505465567111969 0.34328004717826843
-0.9277565479278564 -0.15977680683135986 0.34261229634284973
0.5731291174888611 0.7462211847305298 0.34194454550743103
0.07828681170940399 -0.9361041784286499 0.34127679467201233
-0.6934260725975037 0.6390596032142639 0.34060904383659363
0.9400410056114197 -0.0012983079068362713 0.3399413228034973
-0.6974046230316162 -0.6326720714569092 0.3392735719680786
0.08371106535196304 0.9393661618232727 0.3386058211326599
0.5697617530822754 -0.7478749752044678 0.3379380702972412
-0.9287353157997131 0.16815628111362457 0.3372703194618225
0.795420229434967 0.5050093531608582 0.3366025686264038
-0.24864350259304047 -0.9083858132362366 0.3359348177909851
-0.4335649013519287 0.8395068049430847 0.3352670669555664
0.8838085532188416 -0.3247174024581909 0.3345993161201477
-0.8744482398033142 -0.35613542795181274 0.3339315950870514
0.4011348485946655 0.8550218939781189 0.3332638442516327
0.2786535620689392 -0.9001332521438599 0.332596093416214
-0.8168975710868835 0.47714415192604065 0.3319283425807953
0.9217003583908081 0.20154760777950287 0.3312605917453766
-0.5468171238899231 -0.769884467124939 0.3305928409099579
-0.12006447464227676 0.938814103603363 0.3299250900745392
0.7196791172027588 -0.6097791194915771 0.3292573392391205
-0.9459940195083618 -0.034990664571523666 0.32858961820602417
0.6708852052688599 0.6664974689483643 0.32792186737060547
-0.04768015444278717 -0.9433411359786987 0.32725411653518677
-0.6053996682167053 0.7294991612434387 0.32658636569976807
0.9362107515335083 -0.1274774819612503 0.32591861486434937
-0.7798241376876831 -0.5370124578475952 0.32525086402893066
0.20913122594356537 0.9244874119758606 0.32458311319351196
0.4671979248523712 -0.8216320276260376 0.32391536235809326
-0.9029117226600647 0.29185110330581665 0.32324761152267456
0.8599385619163513 0.39632418751716614 0.32257989048957825
-0.36965906620025635 -0.8718054890632629 0.32191213965415955
-0.3195890784263611 0.894280731678009 0.32124438881874084
0.8367428183555603 -0.4421194791793823 0.32057663798332214
-0.9190467000007629 -0.23774129152297974 0.31990888714790344
0.5140161514282227 0.7978228330612183 0.31924113631248474
0.15674830973148346 -0.9342031478881836 0.31857338547706604
-0.7499958276748657 0.5846313834190369 0.31790563464164734
0.9449692964553833 0.07706626504659653 0.317237913608551
-0.6480777859687805 -0.6937857866287231 0.3165701627731323
0.006037145387381315 0.9510926604270935 0.3159024119377136
0.6349605321884155 -0.7040276527404785 0.3152346611022949
-0.9471772909164429 0.09176205843687057 0.3145669102668762
0.7573895454406738 0.5738030076026917 0.3138991594314575
-0.17410889267921448 -0.9334095120429993 0.3132314085960388
-0.5054353475570679 0.807586133480072 0.3125636577606201
0.9152302742004395 -0.2526087164878845 0.3118959367275238
-0.8488848209381104 -0.43054094910621643 0.3112281858921051
0.33200058341026306 0.8926092386245728 0.3105604350566864
0.35503268241882324 -0.881126344203949 0.3098926842212677
-0.8603711724281311 0.411510705947876 0.309224933385849
0.9093997478485107 0.2793233394622803 0.3085571825504303
-0.485184907913208 -0.8189201354980469 0.3078894317150116
-0.19864876568317413 0.9333188533782959 0.3072216808795929
0.7739101648330688 -0.5526185035705566 0.3065539598464966
-0.9473516941070557 -0.11378877609968185 0.3058862090110779
0.6186332702636719 0.7255174517631531 0.3052184581756592
0.030734889209270477 -0.9515473246574402 0.3045507073402405
-0.6687655448913574 0.6825560331344604 0.3038829565048218
0.9512092471122742 -0.05004001408815384 0.3032152056694031
-0.7385501265525818 -0.6042478084564209 0.3025474548339844
0.13325896859169006 0.9461703896522522 0.3018797039985657
0.5377964973449707 -0.7863447070121765 0.301211953163147
-0.9311205148696899 0.21812035143375397 0.30054423213005066
0.8309104442596436 0.4697539210319519 0.29987648129463196
-0.29863035678863525 -0.9063319563865662 0.29920873045921326
-0.3952959179878235 0.8717371225357056 0.29854097962379456
0.8773305416107178 -0.37433338165283203 0.29787322878837585
-0.9031638503074646 -0.31515341997146606 0.29720547795295715
0.44998911023139954 0.8441694378852844 0.29653772711753845
0.23528045415878296 -0.9251070618629456 0.29586997628211975
-0.8017547726631165 0.5248517394065857 0.29520225524902344
0.9427345991134644 0.15612421929836273 0.29453450441360474
-0.5930020809173584 -0.7505693435668945 0.29386675357818604
-0.07294788211584091 0.9557419419288635 0.29319900274276733
0.6963425874710083 -0.6540772914886475 0.29253125190734863
-0.9586809873580933 0.013448656536638737 0.29186350107192993
0.7129473686218262 0.63932204246521 0.29119575023651123
-0.09706122428178787 -0.9516860842704773 0.29052799940109253
-0.5745981931686401 0.7689934372901917 0.28986024856567383
0.940146803855896 -0.17741179466247559 0.2891925275325775
-0.8164388537406921 -0.5028263330459595 0.2885247766971588
0.25922584533691406 0.9239822030067444 0.2878570258617401
0.429895281791687 -0.8550781011581421 0.2871892750263214
-0.8979679942131042 0.34171178936958313 0.2865215241909027
0.8899518251419067 0.3561977744102478 0.285853773355484
-0.4188932180404663 -0.8624608516693115 0.2851860225200653
-0.27695390582084656 0.9206239581108093 0.2845182716846466
0.8230694532394409 -0.49033939838409424 0.2838505506515503
-0.9415113925933838 -0.19293220341205597 0.2831827998161316
0.5608420372009277 0.7799272537231445 0.2825150489807129
0.1101173460483551 -0.9526114463806152 0.2818472981452942
-0.7280175089836121 0.6296942830085754 0.2811795473098755
0.959175169467926 0.028979890048503876 0.2805117964744568
-0.691022515296936 -0.6678966283798218 0.2798440456390381
0.05520093813538551 0.9609830379486084 0.2791762948036194
0.6053630709648132 -0.7445157170295715 0.27850857377052307
-0.9526731371879578 0.14161670207977295 0.27784082293510437
0.7951016426086426 0.5407291054725647 0.27717307209968567
-0.2242622822523117 -0.9344663023948669 0.27650532126426697
-0.4691442549228668 0.842224657535553 0.27583757042884827
0.9118384122848511 -0.3026663064956665 0.27516981959342957
-0.8801763653755188 -0.3913172483444214 0.27450206875801086
0.3815684914588928 0.8847941160202026 0.27383431792259216
0.3131841719150543 -0.9088237881660461 0.27316659688949585
-0.8481930494308472 0.4601988196372986 0.27249884605407715
0.9332841038703918 0.23517850041389465 0.27183109521865845
-0.5326099395751953 -0.8024734854698181 0.27116334438323975
-0.1525541990995407 0.953201174736023 0.27049559354782104
0.7533231973648071 -0.598406970500946 0.26982784271240234
-0.9630743861198425 -0.06610655784606934 0.26916009187698364
0.6624245643615723 0.7009509801864624 0.26849234104156494
-0.01816035434603691 -0.9629855751991272 0.26782459020614624
-0.6404116153717041 0.7240050435066223 0.2671568691730499
0.9582718014717102 -0.09976401925086975 0.2664891183376312
-0.777330219745636 -0.5723283886909485 0.2658213675022125
0.18342088162899017 0.9488004446029663 0.2651536166667938
0.5025616884231567 -0.8221501111984253 0.2644858658313751
-0.9292962551116943 0.2683257460594177 0.2638181149959564
0.8634586930274963 0.431479811668396 0.2631503641605377
-0.34848442673683167 -0.9000663161277771 0.262482613325119
-0.3542826771736145 0.9007713198661804 0.2618148922920227
0.866671621799469 -0.42344391345977783 0.261147141456604
-0.9284546971321106 -0.27172282338142395 0.2604793906211853
0.49796968698501587 0.8291997909545898 0.2598116397857666
0.18977336585521698 -0.9464545845985413 0.2591438889503479
-0.782590925693512 0.5713247656822205 0.2584761381149292
0.9599698185920715 0.10889788717031479 0.2578083872795105
-0.6376017332077026 -0.7273607850074768 0.2571406364440918
-0.024373168125748634 0.9687281847000122 0.2564728856086731
0.6692706346511841 -0.6964523196220398 0.2558051645755768
-0.9673150181770325 0.06299019604921341 0.2551374137401581
0.7527639269828796 0.608598530292511 0.2544696629047394
-0.14718034863471985 -0.9558987617492676 0.2538019120693207
-0.5404636859893799 0.8059378266334534 0.253134161233902
0.939903736114502 -0.2277146279811859 0.2524664103984833
-0.8502198457717896 -0.46554824709892273 0.2517986595630646
0.3093169927597046 0.9192841053009033 0.2511309087276459
0.38976573944091797 -0.8854292035102844 0.25046318769454956
-0.8888505697250366 0.3911973536014557 0.24979543685913086
0.9166335463523865 0.31353145837783813 0.24912768602371216
-0.46738407015800476 -0.8489945530891418 0.24845993518829346
-0.23208555579185486 0.9434254765510559 0.24779218435287476
0.8053590059280396 -0.5374541282653809 0.24712443351745605
-0.9602525234222412 -0.14621387422084808 0.24645669758319855
0.6062098741531372 0.7581105828285217 0.24578894674777985
0.061915718019008636 -0.9671436548233032 0.24512119591236115
-0.7022650241851807 0.6729581952095032 0.24445344507694244
0.9693831205368042 -0.02032656967639923 0.24378570914268494
-0.7318418622016907 -0.6384096145629883 0.24311795830726624
0.10522501170635223 0.9667853713035583 0.24245020747184753
0.572372317314148 -0.7825690507888794 0.24178245663642883
-0.954023003578186 0.19196544587612152 0.24111472070217133
0.8300891518592834 0.5044928789138794 0.24044696986675262
-0.27454012632369995 -0.931351900100708 0.23977921903133392
-0.4299464523792267 0.8738705515861511 0.23911146819591522
0.9042830467224121 -0.35247811675071716 0.23844371736049652
-0.9082310795783997 -0.34946513175964355 0.237775981426239
0.43052271008491516 0.8728559613227844 0.2371082305908203
0.2690058648586273 -0.9330658912658691 0.2364404797554016
-0.8319646120071411 0.5079105496406555 0.2357727289199829
0.9535221457481384 0.18902049958705902 0.2351049929857254
-0.5787039399147034 -0.7820813059806824 0.2344372421503067
-0.10477868467569351 0.9692749977111816 0.233769491314888
0.7289262413978577 -0.6425207257270813 0.2331017404794693
-0.9748566150665283 -0.01708843745291233 0.2324340045452118
0.7042108774185181 0.6727399230003357 0.2317662537097931
-0.068036288022995 -0.9703825116157532 0.2310985028743744
-0.6086071133613586 0.7631350755691528 0.2304307520389557
0.9612241983413696 -0.15010616183280945 0.22976301610469818
-0.8134958148002625 -0.5371792912483215 0.22909526526927948
0.23383386433124542 0.9472838640213013 0.22842751443386078
0.46434321999549866 -0.8550663590431213 0.22775976359844208
-0.9233214259147644 0.3184135854244232 0.22709202766418457
0.8928661942481995 0.39049142599105835 0.22642427682876587
-0.3978535532951355 -0.8896790742874146 0.22575652599334717
-0.31084564328193665 0.9264381527900696 0.22508877515792847
0.8519523739814758 -0.471706360578537 0.22442103922367096
-0.9501782655715942 -0.2261776626110077 0.22375328838825226
0.5447461009025574 0.8102630376815796 0.22308553755283356
0.14247727394104004 -0.964063286781311 0.22241778671741486
-0.7595843076705933 0.6162473559379578 0.22175003588199615
0.9733242392539978 0.060221876949071884 0.22108229994773865
-0.6803171634674072 -0.7004639506340027 0.22041454911231995
0.02530081756412983 0.9777224063873291 0.21974679827690125
0.6386938691139221 -0.7366245985031128 0.21907904744148254
-0.9718772172927856 0.1132722944021225 0.21841131150722504
0.7900769114494324 0.5745809078216553 0.21774356067180634
-0.19767583906650543 -0.9559919834136963 0.21707580983638763
-0.5032715201377869 0.8400976657867432 0.21640805900096893
0.9355261325836182 -0.2780270278453827 0.21574032306671143
-0.8809576034545898 -0.42547279596328735 0.21507257223129272
0.3590511679649353 0.9104689359664917 0.21440482139587402
0.347121000289917 -0.9125025868415833 0.21373707056045532
-0.8756659030914307 0.43996262550354004 0.21306933462619781
0.9398290514945984 0.2686516046524048 0.2124015837907791
-0.5147973299026489 -0.8315427899360657 0.2117338329553604
-0.18532240390777588 0.9625599980354309 0.2110660821199417
0.7837761044502258 -0.5831426382064819 0.2103983461856842
-0.9751747846603394 -0.09793413430452347 0.2097305953502655
0.6498146057128906 0.7325649857521057 0.2090628445148468
0.012498083524405956 -0.9777355194091797 0.2083950936794281
-0.6729562878608704 0.7141362428665161 0.2077273577451706
0.9755603075027466 -0.07049441337585449 0.2070596069097519
-0.7702693343162537 -0.6055669188499451 0.2063918560743332
0.1557493954896927 0.9684982895851135 0.2057241052389145
0.5362526774406433 -0.8179435729980469 0.2050563544034958
-0.9512571096420288 0.2424498051404953 0.20438861846923828
0.8621323108673096 0.4653789699077606 0.20372086763381958
-0.3245881497859955 -0.9241277575492859 0.20305311679840088
-0.3881446421146393 0.9023299217224121 0.20238536596298218
0.8926563262939453 -0.4016968309879303 0.20171763002872467
-0.9328824281692505 -0.30530285835266113 0.20104987919330597
0.4785255491733551 0.8569168448448181 0.20038212835788727
0.22282923758029938 -0.9537147879600525 0.19971437752246857
-0.8118371963500977 0.5543204545974731 0.19904664158821106
0.9700055718421936 0.14119146764278412 0.19837889075279236
-0.6231561899185181 -0.7579225301742554 0.19771113991737366
-0.05567225068807602 0.9814625382423401 0.19704338908195496
0.700924813747406 -0.6846659779548645 0.19637565314769745
-0.9826515913009644 0.03291027620434761 0.19570790231227875
0.7437178492546082 0.6411145925521851 0.19504015147686005
-0.11853508651256561 -0.9737226963043213 0.19437240064144135
-0.5736052989959717 0.7996930480003357 0.19370466470718384
0.9600823521614075 -0.20070883631706238 0.19303691387176514
-0.846817135810852 -0.49907487630844116 0.19236916303634644
0.284143328666687 0.9416678547859192 0.19170141220092773
0.4234345257282257 -0.8848888278007507 0.19103367626667023
-0.9132742881774902 0.3680349290370941 0.19036592543125153
0.9189549684524536 0.34709882736206055 0.18969817459583282
-0.44639724493026733 -0.875278651714325 0.18903042376041412
-0.26530903577804565 0.9485876560211182 0.18836267292499542
0.833310604095459 -0.5187911987304688 0.18769493699073792
-0.9682137370109558 -0.1788538694381714 0.1870271861553192
0.5900022983551025 0.7875252366065979 0.1863594353199005
0.09373723715543747 -0.9778422117233276 0.1856916844844818
-0.7329279184341431 0.6593194007873535 0.1850239485502243
0.9827376008033752 0.010447707027196884 0.1843561977148056
-0.7208666205406189 -0.670097291469574 0.1836884468793869
0.07571882754564285 0.9826952815055847 0.1830206960439682
0.6048542857170105 -0.7743327021598816 0.1823529601097107
-0.9723696112632751 0.1639387160539627 0.181685209274292
0.8246471285820007 0.537533164024353 0.1810174584388733
-0.24819320440292358 -0.9519990682601929 0.1803497076034546
-0.4633055627346039 0.8712581396102905 0.17968197166919708
0.9270781874656677 -0.32799896597862244 0.17901422083377838
-0.9084630608558655 -0.38290145993232727 0.17834646999835968
0.40808552503585815 0.8976311683654785 0.17767871916294098
0.30227768421173096 -0.9361364841461182 0.17701098322868347
-0.8585381507873535 0.4876745343208313 0.17634323239326477
0.9594050049781799 0.22188761830329895 0.17567548155784607
-0.5608121752738953 -0.8102584481239319 0.17500773072242737
-0.13700416684150696 0.9779236912727356 0.17433999478816986
0.7585011720657349 -0.6270991563796997 0.17367224395275116
-0.9862047433853149 -0.048440322279930115 0.17300449311733246
0.691367506980896 0.7034968733787537 0.17233674228191376
-0.03778332099318504 -0.9843441843986511 0.17166899144649506
-0.640322208404541 0.7529590129852295 0.17100125551223755
0.9776949286460876 -0.12116918712854385 0.17033350467681885
-0.8060569167137146 -0.5696220993995667 0.16966575384140015
0.2064201384782791 0.9661411643028259 0.16899800300598145
0.49727821350097656 -0.8504146337509155 0.16833026707172394
-0.9444257616996765 0.2927190959453583 0.16766251623630524
0.8910313844680786 0.42368000745773315 0.16699476540088654
-0.37406161427497864 -0.9128748774528503 0.16632701456546783
-0.3440476059913635 0.9274296760559082 0.16565927863121033
0.8770691752433777 -0.4499863088130951 0.16499152779579163
-0.9539851546287537 -0.2591531276702881 0.16432377696037292
0.5252520442008972 0.8371167182922363 0.16365602612495422
0.1749882698059082 -0.9706541895866394 0.16298829019069672
-0.7879785299301147 0.5991172194480896 0.16232053935527802
0.9826478362083435 0.09203411638736725 0.16165278851985931
-0.6656715273857117 -0.7301915884017944 0.1609850376844406
-0.0055837444961071014 0.9897077083587646 0.1603173017501831
0.6695381999015808 -0.7245659828186035 0.1596495509147644
-0.9864341020584106 0.08353734016418457 0.1589818000793457
0.7806890606880188 0.6063178181648254 0.158314049243927
-0.16930381953716278 -0.9730119705200195 0.1576463133096695
-0.5356703996658325 0.8334449529647827 0.1569785624742508
0.9548830389976501 -0.2512211501598358 0.1563108116388321
-0.877084493637085 -0.4582987427711487 0.1556430608034134
0.3340030908584595 0.932019829750061 0.1549753099679947
0.38013628125190735 -0.9114335775375366 0.15430757403373718
-0.8992522954940796 0.41685110330581665 0.15363982319831848
0.9415681958198547 0.30161747336387634 0.15297207236289978
-0.4937868118286133 -0.856991708278656 0.15230432152748108
-0.21800075471401215 0.9670912027359009 0.15163658559322357
0.8109013438224792 -0.5643823742866516 0.15096883475780487
-0.9824618697166443 -0.13008925318717957 0.15030108392238617
0.6334372162818909 0.7611684799194336 0.14963333308696747
0.043898291885852814 -0.9877222776412964 0.14896559715270996
-0.7028295397758484 0.7002570629119873 0.14829784631729126
0.9881713390350342 -0.04007502272725105 0.14763009548187256
-0.7589856386184692 -0.6364925503730774 0.14696234464645386
0.12652938067913055 0.9836392402648926 0.14629460871219635
0.5680059194564819 -0.8093336224555969 0.14562685787677765
-0.9688154458999634 0.21463879942893982 0.14495910704135895
0.856255054473877 0.49772951006889343 0.14429135620594025
-0.298385351896286 -0.9439738392829895 0.14362362027168274
-0.4208580255508423 0.8992246389389038 0.14295586943626404
0.9146439433097839 -0.3772895932197571 0.14228811860084534
-0.9325681328773499 -0.3381423354148865 0.14162036776542664
0.4560880661010742 0.88088458776474 0.14095263183116913
0.2555573880672455 -0.9561904668807983 0.14028488099575043
-0.8376096487045288 0.534012496471405 0.13961713016033173
0.9752500057220459 0.17357200384140015 0.13894937932491302
-0.6051219701766968 -0.7853112816810608 0.13828162848949432
-0.08747167885303497 0.9894346594810486 0.13761389255523682
0.7297302484512329 -0.6690331101417542 0.13694614171981812
-0.9932906031608582 0.0019209973979741335 0.13627839088439941
0.7305964231491089 0.6711269617080688 0.1356106400489807
-0.08857888728380203 -0.9869487285614014 0.1349429041147232
-0.6046063899993896 0.7891750335693359 0.1342751532793045
0.9757968187332153 -0.1720009297132492 0.1336074024438858
-0.8389755487442017 -0.5308396220207214 0.1329396516084671
0.256889671087265 0.9597545266151428 0.1322719156742096
0.4557326138019562 -0.8797773122787476 0.1316041648387909
-0.9335998296737671 0.3424307703971863 0.1309364140033722
0.9166073799133301 0.3796963691711426 0.1302686631679535
-0.42262569069862366 -0.8976936936378479 0.12960092723369598
-0.2979702055454254 0.9490178227424622 0.12893317639827728
0.8576509952545166 -0.49702194333076477 0.12826542556285858
-0.9714155793190002 -0.2113427221775055 0.12759767472743988
0.5703904032707214 0.8136129975318909 0.12692993879318237
0.12581925094127655 -0.9837895631790161 0.12626218795776367
-0.7605727910995483 0.642004132270813 0.12559443712234497
0.9913845062255859 0.04189159721136093 0.12492668628692627
-0.7059705853462219 -0.6990978121757507 0.12425895035266876
0.04513949900865555 0.9939764738082886 0.12359119951725006
0.6349995732307434 -0.7619609236717224 0.12292344868183136
-0.9862006902694702 0.13444390892982483 0.12225569784641266
0.8148863911628723 0.5686042904853821 0.12158795446157455
-0.21999481320381165 -0.9682774543762207 0.12092020362615585
-0.49507710337638855 0.8641760945320129 0.12025246024131775
0.9456837773323059 -0.3012993335723877 0.11958470940589905
-0.9041081070899963 -0.415143221616745 0.11891696602106094
0.38307592272758484 0.9184272289276123 0.11824921518564224
0.3347562849521637 -0.9345372319221497 0.11758147180080414
-0.8813721537590027 0.46453389525413513 0.11691372096538544
0.9605702757835388 0.25436824560165405 0.11624597758054733
-0.5397056937217712 -0.8349634408950806 0.11557822674512863
-0.1692522019147873 0.9818422198295593 0.11491048336029053
0.7848967909812927 -0.6081773042678833 0.11424273252487183
-0.9928454160690308 -0.08022310584783554 0.11357498914003372
0.6747646927833557 0.7313908338546753 0.11290723830461502
-0.006694900803267956 -0.9936564564704895 0.11223949491977692
-0.6695115566253662 0.738792896270752 0.11157174408435822
0.9896088242530823 -0.09099897742271423 0.11090400069952011
-0.7944273948669434 -0.599894642829895 0.11023624986410141
0.177385151386261 0.9805681705474854 0.1095685064792633
0.5284143686294556 -0.8414032459259033 0.1089007556438446
-0.9612591862678528 0.2650279402732849 0.1082330122590065
0.8847007751464844 0.455454021692276 0.1075652614235878
-0.34791299700737 -0.9319908022880554 0.1068975180387497
-0.3762294054031372 0.9238229393959045 0.106229767203331
0.8983274102210999 -0.425567626953125 0.10556201636791229
-0.9531257748603821 -0.2915098965167999 0.10489427298307419
0.5027380585670471 0.8603617548942566 0.10422652214765549
0.20728613436222076 -0.9725458025932312 0.10355877876281738
-0.8130406737327576 0.5786686539649963 0.10289102792739868
0.9872742891311646 0.1240398958325386 0.10222328454256058
-0.6474342942237854 -0.7568880319595337 0.10155553370714188
-0.037066541612148285 0.9970330595970154 0.10088779032230377
0.6976748108863831 -0.7086697220802307 0.10022003948688507
-0.9964029788970947 0.05280441790819168 0.09955229610204697
0.7672464847564697 0.6356899738311768 0.09888454526662827
-0.13954205811023712 -0.9855499863624573 0.09821680188179016
-0.5660648941993713 0.8225509524345398 0.09754905104637146
0.9698973894119263 -0.2226446270942688 0.09688130766153336
-0.8688154816627502 -0.489495187997818 0.09621355682611465
0.3068171441555023 0.9493999481201172 0.09554581344127655
0.41190868616104126 -0.9058469533920288 0.09487806260585785
-0.9188705682754517 0.3912508487701416 0.09421031922101974
0.9387019872665405 0.333735853433609 0.09354256838560104
-0.46995577216148376 -0.8787045478820801 0.09287482500076294
-0.25023287534713745 0.9669638872146606 0.09220707416534424
0.8345500826835632 -0.5424911379814148 0.09153933078050613
-0.9850718975067139 -0.16220223903656006 0.09087157994508743
0.6136422157287598 0.7865807414054871 0.09020383656024933
0.075660340487957 -0.9930486083030701 0.08953608572483063
-0.7298204302787781 0.6826996207237244 0.08886833488941193
0.9961732029914856 -0.008893007412552834 0.08820059150457382
-0.7437905669212341 -0.6648657321929932 0.08753284066915512
0.09615210443735123 0.9942566752433777 0.08686509728431702
0.5975554585456848 -0.7966088056564331 0.08619734644889832
-0.9819697141647339 0.18528498709201813 0.08552960306406021
0.8460904359817505 0.528240978717804 0.08486185222864151
-0.2702661454677582 -0.9595678448677063 0.0841941088438034
-0.4521103501319885 0.8916915059089661 0.0835263580083847
0.9325631260871887 -0.35060712695121765 0.0828586146235466
-0.9277188181877136 -0.36990922689437866 0.0821908637881279
0.4310338497161865 0.9009978175163269 0.0815231204032898
0.2876090705394745 -0.9540579319000244 0.0808553695678711
-0.859769880771637 0.5107662081718445 0.08018762618303299
0.9758475422859192 0.20567680895328522 0.07951987534761429
-0.5838501453399658 -0.8093570470809937 0.07885213196277618
-0.11939769983291626 0.9927558898925781 0.07818438112735748
0.7554863095283508 -0.6498878002166748 0.07751663774251938
-0.9993095397949219 -0.029595833271741867 0.07684888690710068
0.7137143611907959 0.6984061598777771 0.07618114352226257
-0.05769853666424751 -0.9956198334693909 0.07551339268684387
-0.6332105994224548 0.7746764421463013 0.07484564930200577
0.9870555996894836 -0.14197959005832672 0.07417789846658707
-0.8269634246826172 -0.5605613589286804 0.07351015508174896
0.2279435098171234 0.9735177755355835 0.07284240424633026
0.48635637760162354 -0.8703365325927734 0.07217465341091156
-0.9497663974761963 0.3147680461406708 0.07150691002607346
0.9098042845726013 0.4110003709793091 0.07083915919065475
-0.39644527435302734 -0.9161450862884521 0.07017141580581665
-0.32972797751426697 0.9448997974395752 0.06950366497039795
0.8782524466514587 -0.4725118577480316 0.06883592158555984
-0.9700104594230652 -0.24332459270954132 0.06816817075014114
0.5477264523506165 0.8362142443656921 0.06750042736530304
0.15779413282871246 -0.9851056337356567 0.06683267652988434
-0.7850092053413391 0.6213487982749939 0.06616493314504623
0.9954104423522949 0.07362859696149826 0.06549718230962753
-0.6874716281890869 -0.7251918315887451 0.06482943892478943
0.013869402930140495 1.0006814002990723 0.06416168808937073
0.6625615954399109 -0.7457504868507385 0.06349394470453262
-0.9955344200134277 0.10386620461940765 0.06282619386911392
0.801080048084259 0.597434401512146 0.06215845048427582
-0.19032986462116241 -0.9801709055900574 0.06149069964885712
-0.5249662399291992 0.8528720736503601 0.06082295626401901
0.9600494503974915 -0.2727607786655426 0.06015520542860031
-0.8953863382339478 -0.4458748996257782 0.05948745831847191
0.3558691143989563 0.9351598620414734 0.058819711208343506
0.36610808968544006 -0.9284591674804688 0.0581519640982151
-0.9003493785858154 0.438854455947876 0.0574842169880867
0.9571781754493713 0.2861134111881256 0.0568164698779583
-0.5157381892204285 -0.8560469150543213 0.056148722767829895
-0.2011612504720688 0.9811589121818542 0.05548097565770149
0.8079330325126648 -0.5860936641693115 0.05481322854757309
-0.9948742985725403 -0.11206552386283875 0.05414548143744469
0.6547233462333679 0.7562122941017151 0.053477734327316284
0.024851005524396896 -0.9983811974525452 0.05280998721718788
-0.695937991142273 0.7209373712539673 0.05214224010705948
0.9969938397407532 -0.059977199882268906 0.051474492996931076
-0.7788853645324707 -0.6277343034744263 0.05080674588680267
0.1471112072467804 0.9905585050582886 0.05013899877667427
0.5574654340744019 -0.8282856345176697 0.04947125166654587
-0.9737813472747803 0.23572002351284027 0.048803504556417465
0.8741008639335632 0.4855060875415802 0.04813575744628906
-0.31978219747543335 -0.9469529986381531 0.04746800661087036
-0.40706491470336914 0.9158160090446472 0.04680025950074196
0.9156202077865601 -0.39881640672683716 0.046132512390613556
-0.9477682709693909 -0.3229057192802429 0.04546476528048515
0.47755885124206543 0.8798590898513794 0.04479701817035675
0.2390153408050537 -0.969874918460846 0.04412927106022835
-0.834600567817688 0.5552425384521484 0.043461523950099945
0.9873079657554626 0.15587317943572998 0.04279377683997154
-0.6259294152259827 -0.780353844165802 0.04212602972984314
-0.06877398490905762 0.9997696876525879 0.04145828261971474
0.7228760719299316 -0.6892403960227966 0.040790535509586334
-1.0018213987350464 0.021451693028211594 0.04012278839945793
0.7500320076942444 0.6624438166618347 0.03945504128932953
-0.10877026617527008 -0.9936098456382751 0.038787294179201126
-0.5941774845123291 0.8076745867729187 0.03811954706907272
0.9805391430854797 -0.19267569482326508 0.03745179995894432
-0.8563835024833679 -0.5187628269195557 0.03678405284881592
0.27786707878112793 0.9625455737113953 0.036116305738687515
0.4421195089817047 -0.8959479331970215 0.03544855862855911
-0.9344239830970764 0.36352819204330444 0.03478081151843071
0.9314063191413879 0.3646712899208069 0.03411306440830231
-0.443660169839859 -0.896552324295044 0.033445317298173904
-0.2816692292690277 0.9623230695724487 0.0327775701880455
0.8545624017715454 -0.5178117752075195 0.0321098230779171
-0.9831182360649109 -0.19391226768493652 0.031442075967788696
0.5907567143440247 0.8086121082305908 0.030774325132369995
0.10741499066352844 -0.9937950968742371 0.030106578022241592
-0.7537108659744263 0.6617723107337952 0.02943883091211319
0.9996132850646973 0.02267695777118206 0.028771085664629936
-0.7249718308448792 -0.6904420256614685 0.028103338554501534
0.0649947002530098 1.0003643035888672 0.02743559144437313
0.6246321797370911 -0.7800337076187134 0.02676784247159958
-0.990699827671051 0.15476496517658234 0.026100095361471176
0.8318776488304138 0.5566220879554749 0.025432348251342773
-0.24060362577438354 -0.9708563685417175 0.02476460114121437
-0.4815903604030609 0.879942774772644 0.024096854031085968
0.9463275671005249 -0.3220159411430359 0.023429106920957565
-0.91851806640625 -0.4002749025821686 0.022761359810829163
0.40372008085250854 0.9171378016471863 0.02209361270070076
0.3186407685279846 -0.9474706053733826 0.021425865590572357
-0.8781680464744568 0.4849265515804291 0.020758118480443954
0.9719202518463135 0.23715025186538696 0.020090371370315552
-0.5596706867218018 -0.829879641532898 0.01942262426018715
-0.15108546614646912 0.9915160536766052 0.018754877150058746
0.7779845595359802 -0.6275425553321838 0.018087128177285194
-1.0007652044296265 -0.06126904487609863 0.01741938106715679
0.6933640241622925 0.7227168083190918 0.01675163395702839
-0.026268569752573967 -0.9997595548629761 0.016083886846899986
-0.6591575741767883 0.7564672827720642 0.015416139736771584
0.9938486814498901 -0.11101973801851273 0.01474839262664318
-0.8110262751579285 -0.5879567265510559 0.014080645516514778
0.19767716526985168 0.9829142689704895 0.013412898406386375
0.5150019526481628 -0.8567857146263123 0.012745151296257973
-0.9616976380348206 0.285413533449173 0.012077403254806995
0.8987370133399963 0.4406889081001282 0.011409656144678593
-0.36821427941322327 -0.9305242300033569 0.01074190903455019
-0.3602447807788849 0.9363951086997986 0.010074161924421787
0.8949748873710632 -0.44560790061950684 0.009406414814293385
-0.9641291499137878 -0.27444908022880554 0.008738667704164982
0.5223434567451477 0.8551586270332336 0.008070919662714005
0.18930141627788544 -0.9818893671035767 0.007403172552585602
-0.8060381412506104 0.5976695418357849 0.006735425442457199
0.9948817491531372 0.10529104620218277 0.006067678332328796
-0.6656666994094849 -0.7481528520584106 0.005399931222200394
-0.017719566822052002 1.0028433799743652 0.004732183646410704
0.6872884631156921 -0.7259768843650818 0.004064436536282301
-1.0003708600997925 0.0725787952542305 0.0033966894261538982
0.7834799885749817 0.6237481236457825 0.0027289418503642082
-0.1595698595046997 -0.987646222114563 0.0020611947402358055
-0.5526764988899231 0.8375721573829651 0.0013934476301074028
0.9701090455055237 -0.2427501529455185 0.0007257002871483564
-0.8824965953826904 -0.47478124499320984 5.7952944189310074e-05
0.326824426651001 0.9477304816246033 -0.0006097942823544145
0.39600154757499695 -0.9180720448493958 -0.001277541508898139
-0.9153397679328918 0.41098520159721375 -0.0019452887354418635
