ply
format ascii 1.0
element vertex 512
property float x
property float y
property float z
end_header
0.0005280971527099609 0.9944835901260376 -1.0030649900436401
0.00022106348478700966 0.9953004121780396 -0.873530387878418
-8.597017585998401e-05 0.9961171746253967 -0.7439958453178406
-0.0003930038365069777 0.9969339966773987 -0.6144612431526184
-0.0007000375189818442 0.9977507591247559 -0.484926700592041
-0.0010070711141452193 0.998567521572113 -0.35539212822914124
-0.0013141047675162554 0.999384343624115 -0.22585754096508026
-0.0016211385373026133 1.0002011060714722 -0.09632296860218048
-0.0019281721906736493 1.0010179281234741 0.033211600035429
-0.0022352058440446854 1.001834750175476 0.16274617612361908
-0.0025422393810003996 1.0026514530181885 0.29228073358535767
-0.0028492731507867575 1.0034682750701904 0.42181530594825745
-0.0031563066877424717 1.0042850971221924 0.5513498783111572
-0.0034633404575288296 1.0051017999649048 0.6808844804763794
-0.0037703742273151875 1.0059186220169067 0.8104190230369568
-0.004077407997101545 1.0067354440689087 0.939953625202179
-0.2008083462715149 0.9740070104598999 -1.0034130811691284
-0.20111538469791412 0.9748238325119019 -0.873878538608551
-0.20142240822315216 0.975640594959259 -0.7443439364433289
-0.2017294466495514 0.976457417011261 -0.6148093938827515
-0.20203648507595062 0.9772741794586182 -0.4852747917175293
-0.20234352350234985 0.9780910015106201 -0.3557402193546295
-0.2026505470275879 0.9789077639579773 -0.22620564699172974
-0.20295758545398712 0.9797245264053345 -0.09667108207941055
-0.20326462388038635 0.9805413484573364 0.032863494008779526
-0.2035716474056244 0.9813581109046936 0.1623980700969696
-0.20387868583202362 0.9821749329566956 0.2919326424598694
-0.20418572425842285 0.9829916954040527 0.42146721482276917
-0.2044927477836609 0.9838084578514099 0.551001787185669
-0.20479978621006012 0.9846252799034119 0.6805363297462463
-0.20510682463645935 0.985442042350769 0.8100709319114685
-0.2054138481616974 0.986258864402771 0.9396054744720459
-0.393902063369751 0.913421630859375 -1.0034887790679932
-0.394209086894989 0.914238452911377 -0.873954176902771
-0.39451611042022705 0.9150552153587341 -0.7444195747375488
-0.3948231637477875 0.9158720374107361 -0.6148850321769714
-0.3951301872730255 0.9166887998580933 -0.48535045981407166
-0.39543721079826355 0.9175055623054504 -0.3558158874511719
-0.395744264125824 0.9183223843574524 -0.2262813150882721
-0.396051287651062 0.9191391468048096 -0.09674674272537231
-0.39635831117630005 0.9199559688568115 0.032787829637527466
-0.3966653645038605 0.9207727313041687 0.16232240200042725
-0.3969723880290985 0.9215894937515259 0.291856974363327
-0.39727941155433655 0.9224063158035278 0.4213915467262268
-0.397586464881897 0.923223078250885 0.5509260892868042
-0.397893488407135 0.924039900302887 0.6804606914520264
-0.39820051193237305 0.9248566627502441 0.8099952340126038
-0.39850756525993347 0.9256734251976013 0.9395298361778259
-0.570847749710083 0.8152077794075012 -1.0032888650894165
-0.571154773235321 0.8160246014595032 -0.8737542629241943
-0.5714617967605591 0.8168413639068604 -0.7442197203636169
-0.5717688202857971 0.8176581859588623 -0.6146851778030396
-0.5720759034156799 0.8184749484062195 -0.4851505756378174
-0.572382926940918 0.8192917704582214 -0.3556160032749176
-0.572689950466156 0.8201085329055786 -0.22608143091201782
-0.572996973991394 0.8209252953529358 -0.09654685854911804
-0.5733039975166321 0.8217421174049377 0.03298771008849144
-0.5736110210418701 0.8225588798522949 0.16252228617668152
-0.5739181041717529 0.8233757019042969 0.2920568585395813
-0.574225127696991 0.824192464351654 0.4215914309024811
-0.574532151222229 0.8250092267990112 0.5511260032653809
-0.574839174747467 0.8258260488510132 0.6806605458259583
-0.5751461982727051 0.8266428112983704 0.8101951479911804
-0.5754532217979431 0.8274596333503723 0.9397296905517578
-0.7244012355804443 0.6833863854408264 -1.0028215646743774
-0.7247082591056824 0.6842032074928284 -0.8732870221138
-0.7250152826309204 0.6850199699401855 -0.7437524795532227
-0.7253223657608032 0.6858367919921875 -0.6142178773880005
-0.7256293892860413 0.6866535544395447 -0.4846833348274231
-0.7259364128112793 0.6874703168869019 -0.3551487624645233
-0.7262434363365173 0.6882871389389038 -0.22561419010162354
-0.7265504598617554 0.689103901386261 -0.09607961773872375
-0.7268574833869934 0.6899207234382629 0.03345495089888573
-0.7271645665168762 0.6907374858856201 0.1629895269870758
-0.7274715900421143 0.6915543079376221 0.2925240993499756
-0.7277786135673523 0.6923710703849792 0.42205867171287537
-0.7280856370925903 0.6931878328323364 0.5515932440757751
-0.7283926606178284 0.6940046548843384 0.6811277866363525
-0.7286996841430664 0.6948214173316956 0.8106623888015747
-0.7290067672729492 0.6956382393836975 0.9401969313621521
-0.8482760190963745 0.5233542323112488 -1.0021061897277832
-0.8485831022262573 0.5241710543632507 -0.872571587562561
-0.8488901257514954 0.5249878168106079 -0.7430369853973389
-0.8491971492767334 0.5258045792579651 -0.6135024428367615
-0.8495041728019714 0.526621401309967 -0.4839678704738617
-0.8498111963272095 0.5274381637573242 -0.3544332981109619
-0.8501182198524475 0.5282549858093262 -0.22489872574806213
-0.8504253029823303 0.5290717482566833 -0.09536414593458176
-0.8507323265075684 0.5298885107040405 0.034170426428318024
-0.8510393500328064 0.5307053327560425 0.1637049913406372
-0.8513463735580444 0.5315220952033997 0.293239563703537
-0.8516533970832825 0.5323389172554016 0.42277413606643677
-0.8519604802131653 0.5331556797027588 0.5523087382316589
-0.8522675037384033 0.533972442150116 0.6818432807922363
-0.8525745272636414 0.5347892642021179 0.8113778829574585
-0.8528815507888794 0.5356060266494751 0.9409124255180359
-0.9374006986618042 0.34166303277015686 -1.0011717081069946
-0.9377077221870422 0.3424798250198364 -0.8716371655464172
-0.938014805316925 0.3432965874671936 -0.7421026229858398
-0.9383218288421631 0.34411337971687317 -0.6125680208206177
-0.9386288523674011 0.34493017196655273 -0.4830334484577179
-0.9389358758926392 0.3457469642162323 -0.3534988760948181
-0.9392428994178772 0.34656375646591187 -0.22396430373191833
-0.9395499229431152 0.34738054871559143 -0.09442973136901855
-0.939857006072998 0.3481973111629486 0.03510483726859093
-0.9401640295982361 0.3490141034126282 0.164639413356781
-0.9404710531234741 0.34983089566230774 0.2941739857196808
-0.9407780766487122 0.3506476879119873 0.42370855808258057
-0.9410851001739502 0.35146448016166687 0.553243100643158
-0.9413921236991882 0.35228124260902405 0.6827777028083801
-0.941699206829071 0.3530980348587036 0.8123122453689575
-0.9420062303543091 0.3539148271083832 0.9418468475341797
-0.9881264567375183 0.1457512378692627 -1.0000566244125366
-0.9884334802627563 0.14656801521778107 -0.8705220818519592
-0.9887405037879944 0.14738480746746063 -0.7409874796867371
-0.9890475869178772 0.1482015997171402 -0.6114529371261597
-0.9893546104431152 0.14901837706565857 -0.4819183647632599
-0.9896616339683533 0.14983516931533813 -0.3523837924003601
-0.9899686574935913 0.1506519466638565 -0.22284920513629913
-0.9902756810188293 0.15146873891353607 -0.09331463277339935
-0.9905827045440674 0.15228553116321564 0.03621993586421013
-0.9908897876739502 0.153102308511734 0.1657545119524002
-0.9911968111991882 0.15391910076141357 0.2952890694141388
-0.9915038347244263 0.15473589301109314 0.4248236417770386
-0.9918108582496643 0.1555526703596115 0.5543582439422607
-0.9921178817749023 0.15636946260929108 0.6838927865028381
-0.9924249053001404 0.15718625485897064 0.8134273886680603
-0.9927319884300232 0.158003032207489 0.9429619312286377
-0.9983765482902527 -0.05636049062013626 -0.9988065361976624
-0.9986836314201355 -0.055543702095746994 -0.8692719340324402
-0.9989906549453735 -0.05472691357135773 -0.7397373914718628
-0.9992976784706116 -0.05391012877225876 -0.6102027893066406
-0.9996047019958496 -0.05309334024786949 -0.48066821694374084
-0.9999117255210876 -0.05227655544877052 -0.35113364458084106
-1.0002187490463257 -0.051459766924381256 -0.22159907221794128
-1.0005258321762085 -0.05064297839999199 -0.0920645073056221
-1.0008327960968018 -0.04982619360089302 0.03747006505727768
-1.0011398792266846 -0.049009405076503754 0.16700464487075806
-1.0014469623565674 -0.048192620277404785 0.29653921723365784
-1.0017539262771606 -0.04737583175301552 0.4260737895965576
-1.0020610094070435 -0.04655904322862625 0.555608332157135
-1.0023679733276367 -0.04574225842952728 0.6851429343223572
-1.0026750564575195 -0.044925469905138016 0.8146774768829346
-1.0029820203781128 -0.04410868510603905 0.9442120790481567
-0.9677314162254333 -0.25639766454696655 -0.9974725246429443
-0.9680384397506714 -0.255580872297287 -0.8679379820823669
-0.9683454632759094 -0.2547640800476074 -0.7384033799171448
-0.9686524868011475 -0.25394728779792786 -0.6088688373565674
-0.9689595699310303 -0.2531305253505707 -0.4793342351913452
-0.9692665934562683 -0.2523137331008911 -0.34979966282844543
-0.9695736169815063 -0.25149694085121155 -0.22026509046554565
-0.9698806405067444 -0.250680148601532 -0.09073052555322647
-0.9701876640319824 -0.2498633712530136 0.03880404680967331
-0.9704946875572205 -0.24904657900333405 0.1683386266231537
-0.9708017706871033 -0.24822978675365448 0.29787319898605347
-0.9711087942123413 -0.2474130094051361 0.42740777134895325
-0.9714158177375793 -0.24659621715545654 0.556942343711853
-0.9717228412628174 -0.24577942490577698 0.6864768862724304
-0.9720298647880554 -0.2449626475572586 0.8160114884376526
-0.9723368883132935 -0.24414585530757904 0.94554603099823
-0.8974456191062927 -0.44617074728012085 -0.9961093068122864
-0.8977526426315308 -0.4453539550304413 -0.8665747046470642
-0.8980596661567688 -0.4445371627807617 -0.7370401620864868
-0.8983666896820068 -0.44372037053108215 -0.6075055599212646
-0.8986737132072449 -0.4429035782814026 -0.47797101736068726
-0.8989807367324829 -0.4420868158340454 -0.3484364449977875
-0.8992878198623657 -0.44127002358436584 -0.2189018726348877
-0.8995948433876038 -0.4404532313346863 -0.08936730027198792
-0.8999018669128418 -0.4396364390850067 0.04016726836562157
-0.9002088904380798 -0.43881964683532715 0.16970184445381165
-0.9005159139633179 -0.4380028545856476 0.2992364168167114
-0.9008229374885559 -0.4371860921382904 0.4287709891796112
-0.9011300206184387 -0.43636929988861084 0.558305561542511
-0.9014370441436768 -0.4355525076389313 0.6878401041030884
-0.9017440676689148 -0.4347357153892517 0.8173747062683105
-0.9020510911941528 -0.43391892313957214 0.9469092488288879
-0.7903966307640076 -0.6179103851318359 -0.9947726726531982
-0.7907036542892456 -0.6170936226844788 -0.8652380704879761
-0.7910106778144836 -0.6162768006324768 -0.7357035279273987
-0.7913177013397217 -0.6154600381851196 -0.6061689257621765
-0.7916247844696045 -0.6146432161331177 -0.47663435339927673
-0.7919318079948425 -0.6138264536857605 -0.34709981083869934
-0.7922388315200806 -0.6130096912384033 -0.21756522357463837
-0.7925458550453186 -0.6121928691864014 -0.08803065121173859
-0.7928528785705566 -0.6113761067390442 0.041503921151161194
-0.7931599020957947 -0.6105592846870422 0.17103849351406097
-0.7934669852256775 -0.6097425222396851 0.30057305097579956
-0.7937740087509155 -0.6089257597923279 0.43010762333869934
-0.7940810322761536 -0.6081089377403259 0.5596421957015991
-0.7943880558013916 -0.6072921752929688 0.6891767978668213
-0.7946950793266296 -0.6064753532409668 0.8187113404273987
-0.7950021028518677 -0.6056585907936096 0.9482459425926208
-0.6509671211242676 -0.764585554599762 -0.993517279624939
-0.6512741446495056 -0.7637687921524048 -0.8639827370643616
-0.6515811681747437 -0.7629519701004028 -0.7344481348991394
-0.6518881916999817 -0.7621352076530457 -0.604913592338562
-0.6521952152252197 -0.7613184452056885 -0.47537901997566223
-0.6525022983551025 -0.7605016231536865 -0.34584444761276245
-0.6528093218803406 -0.7596848607063293 -0.21630987524986267
-0.6531163454055786 -0.7588680386543274 -0.0867752954363823
-0.6534233689308167 -0.7580512762069702 0.04275927320122719
-0.6537303924560547 -0.757234513759613 0.17229384183883667
-0.6540374159812927 -0.7564176917076111 0.30182841420173645
-0.6543444991111755 -0.7556009292602539 0.43136298656463623
-0.6546515226364136 -0.754784107208252 0.5608975887298584
-0.6549585461616516 -0.7539673447608948 0.6904321312904358
-0.6552655696868896 -0.7531505227088928 0.819966733455658
-0.6555725932121277 -0.7523337602615356 0.9495012760162354
-0.48486530780792236 -0.8801913857460022 -0.9923946261405945
-0.4851723313331604 -0.879374623298645 -0.8628600835800171
-0.48547935485839844 -0.8785578012466431 -0.7333254814147949
-0.48578640818595886 -0.8777410387992859 -0.6037909388542175
-0.4860934317111969 -0.8769242167472839 -0.47425633668899536
-0.48640045523643494 -0.8761074542999268 -0.3447217643260956
-0.48670750856399536 -0.8752906918525696 -0.215187206864357
-0.4870145320892334 -0.8744738698005676 -0.08565262705087662
-0.48732155561447144 -0.8736571073532104 0.043881941586732864
-0.48762860894203186 -0.8728402853012085 0.17341651022434235
-0.4879356324672699 -0.8720235228538513 0.3029510974884033
-0.48824265599250793 -0.8712067008018494 0.4324856698513031
-0.48854970932006836 -0.8703899383544922 0.5620202422142029
-0.4888567328453064 -0.869573175907135 0.6915547847747803
-0.48916375637054443 -0.8687563538551331 0.8210893869400024
-0.48947080969810486 -0.8679395914077759 0.9506239295005798
-0.29889142513275146 -0.959994912147522 -0.9914506077766418
-0.2991984486579895 -0.9591781497001648 -0.8619160652160645
-0.2995055019855499 -0.9583613276481628 -0.7323814630508423
-0.29981252551078796 -0.9575445652008057 -0.6028469204902649
-0.300119549036026 -0.9567277431488037 -0.4733123183250427
-0.3004266023635864 -0.9559109807014465 -0.34377774596214294
-0.30073362588882446 -0.9550942182540894 -0.21424318850040436
-0.3010406494140625 -0.9542773962020874 -0.08470861613750458
-0.3013477027416229 -0.9534606337547302 0.0448259562253952
-0.30165472626686096 -0.9526438117027283 0.17436052858829498
-0.301961749792099 -0.9518270492553711 0.30389511585235596
-0.3022688031196594 -0.9510102868080139 0.43342968821525574
-0.30257582664489746 -0.950193464756012 0.5629642605781555
-0.3028828501701355 -0.9493767023086548 0.6924988031387329
-0.3031899034976959 -0.9485598802566528 0.8220334053039551
-0.30349692702293396 -0.9477431178092957 0.9515679478645325
-0.10065928846597672 -1.000728964805603 -0.9907239079475403
-0.10096631944179535 -0.9999122023582458 -0.8611893057823181
-0.10127335041761398 -0.9990954399108887 -0.7316547632217407
-0.10158038884401321 -0.9982786178588867 -0.6021201610565186
-0.10188741981983185 -0.9974618554115295 -0.47258561849594116
-0.10219445079565048 -0.9966450929641724 -0.3430510461330414
-0.10250148922204971 -0.9958282709121704 -0.2135164737701416
-0.10280852019786835 -0.9950115084648132 -0.08398189395666122
-0.10311555117368698 -0.9941946864128113 0.04555267468094826
-0.10342258960008621 -0.9933779239654541 0.17508724331855774
-0.10372962057590485 -0.9925611019134521 0.3046218156814575
-0.10403665900230408 -0.991744339466095 0.4341563880443573
-0.10434368997812271 -0.9909275770187378 0.5636909604072571
-0.10465072095394135 -0.9901107549667358 0.6932255625724792
-0.10495775938034058 -0.9892939925193787 0.8227601051330566
-0.10526479035615921 -0.9884771704673767 0.9522947072982788
0.10171548277139664 -1.0007259845733643 -0.9902442097663879
0.1014084443449974 -0.9999091625213623 -0.8607096672058105
0.10110141336917877 -0.9990924000740051 -0.7311750650405884
0.10079437494277954 -0.998275637626648 -0.601640522480011
0.10048734396696091 -0.997458815574646 -0.4721059501171112
0.10018031299114227 -0.9966420531272888 -0.3425713777542114
0.09987327456474304 -0.9958252310752869 -0.21303680539131165
0.09956624358892441 -0.9950084686279297 -0.08350223302841187
0.09925921261310577 -0.9941917061805725 0.046032343059778214
0.09895217418670654 -0.9933748841285706 0.1755669116973877
0.09864514321088791 -0.9925581216812134 0.3051014840602875
0.09833811223506927 -0.9917412996292114 0.43463605642318726
0.09803107380867004 -0.9909245371818542 0.5641706585884094
0.09772404283285141 -0.9901077151298523 0.6937052011489868
0.09741701185703278 -0.9892909526824951 0.8232397437095642
0.09710997343063354 -0.9884741902351379 0.9527743458747864
0.2999476194381714 -0.9599859714508057 -0.9900312423706055
0.29964059591293335 -0.9591692090034485 -0.8604966998100281
0.2993335425853729 -0.9583523869514465 -0.7309620976448059
0.2990265190601349 -0.9575356245040894 -0.6014275550842285
0.29871949553489685 -0.9567188024520874 -0.47189295291900635
0.2984124422073364 -0.9559020400047302 -0.34235841035842896
0.2981054186820984 -0.9550852179527283 -0.21282382309436798
0.29779839515686035 -0.9542684555053711 -0.0832892507314682
0.2974913418292999 -0.9534516930580139 0.04624532163143158
0.2971843183040619 -0.952634871006012 0.17577989399433136
0.29687729477882385 -0.9518181085586548 0.30531445145606995
0.2965702414512634 -0.9510012865066528 0.4348490238189697
0.2962632179260254 -0.9501845240592957 0.5643836259841919
0.29595619440078735 -0.9493677616119385 0.6939181685447693
0.29564914107322693 -0.9485509395599365 0.8234527707099915
0.2953421175479889 -0.9477341771125793 0.9529873132705688
0.4859215021133423 -0.8801769018173218 -0.9900937080383301
0.48561444878578186 -0.8793600797653198 -0.8605591058731079
0.4853074252605438 -0.8785433173179626 -0.7310245633125305
0.4850004017353058 -0.8777264952659607 -0.6014899611473083
0.48469334840774536 -0.8769097328186035 -0.47195538878440857
0.4843863248825073 -0.8760929703712463 -0.3424208164215088
0.4840793013572693 -0.8752761483192444 -0.2128862589597702
0.48377224802970886 -0.8744593858718872 -0.08335167914628983
0.4834652245044708 -0.8736425638198853 0.046182889491319656
0.4831582009792328 -0.8728258013725281 0.17571745812892914
0.48285114765167236 -0.8720089793205261 0.3052520453929901
0.4825441241264343 -0.871192216873169 0.4347866177558899
0.4822371006011963 -0.8703754544258118 0.5643211603164673
0.48193004727363586 -0.8695586323738098 0.6938557624816895
0.4816230237483978 -0.8687418699264526 0.8233903050422668
0.4813160002231598 -0.8679250478744507 0.952924907207489
0.6520233154296875 -0.7645661234855652 -0.9904289841651917
0.6517162919044495 -0.7637493014335632 -0.8608943819999695
0.6514092087745667 -0.762932538986206 -0.7313598394393921
0.6511021852493286 -0.7621157169342041 -0.6018252372741699
0.6507951617240906 -0.7612989544868469 -0.47229066491127014
0.6504881381988525 -0.760482132434845 -0.34275609254837036
0.6501811146736145 -0.7596653699874878 -0.21322153508663177
0.6498740911483765 -0.7588486075401306 -0.083686962723732
0.6495670080184937 -0.7580317854881287 0.045847609639167786
0.6492599844932556 -0.7572150230407715 0.17538218200206757
0.6489529609680176 -0.7563982009887695 0.30491673946380615
0.6486459374427795 -0.7555814385414124 0.43445131182670593
0.6483389139175415 -0.7547646760940552 0.5639858841896057
0.6480318903923035 -0.7539478540420532 0.6935204863548279
0.6477248072624207 -0.753131091594696 0.8230550289154053
0.6474177837371826 -0.7523142695426941 0.9525896310806274
0.7914528250694275 -0.6178867220878601 -0.9910233616828918
0.7911458015441895 -0.6170699596405029 -0.8614888191223145
0.7908387780189514 -0.6162531971931458 -0.7319542169570923
0.7905316948890686 -0.6154363751411438 -0.6024196743965149
0.7902246713638306 -0.6146196126937866 -0.4728850722312927
0.7899176478385925 -0.6138027906417847 -0.34335049986839294
0.7896106243133545 -0.6129860281944275 -0.21381594240665436
0.7893036007881165 -0.6121692657470703 -0.08428137004375458
0.7889965772628784 -0.6113524436950684 0.0452532023191452
0.7886894941329956 -0.6105356812477112 0.17478777468204498
0.7883824706077576 -0.6097188591957092 0.30432233214378357
0.7880754470825195 -0.608902096748352 0.43385690450668335
0.7877684235572815 -0.6080852746963501 0.5633915066719055
0.7874614000320435 -0.6072685122489929 0.6929260492324829
0.7871543169021606 -0.6064517498016357 0.8224606513977051
0.7868472933769226 -0.6056349277496338 0.9519951939582825
0.8985018134117126 -0.44614389538764954 -0.9918525815010071
0.8981947302818298 -0.44532710313796997 -0.8623179793357849
0.8978877067565918 -0.4445103108882904 -0.7327834367752075
0.8975806832313538 -0.4436935484409332 -0.6032488346099854
0.8972736597061157 -0.44287675619125366 -0.47371429204940796
0.8969666361808777 -0.4420599639415741 -0.3441797196865082
0.8966596126556396 -0.44124317169189453 -0.2146451324224472
0.8963525295257568 -0.44042637944221497 -0.08511056751012802
0.8960455060005188 -0.4396095871925354 0.04442400485277176
0.8957384824752808 -0.4387928247451782 0.17395856976509094
0.8954314589500427 -0.43797603249549866 0.3034931421279907
0.8951244354248047 -0.4371592402458191 0.4330277144908905
0.8948173522949219 -0.4363424479961395 0.5625622868537903
0.8945103287696838 -0.43552565574645996 0.6920968890190125
0.8942033052444458 -0.4347088932991028 0.8216314315795898
0.8938962817192078 -0.4338921010494232 0.951166033744812
0.9687876105308533 -0.2563687264919281 -0.9928826093673706
0.9684805870056152 -0.25555193424224854 -0.8633480668067932
0.9681735634803772 -0.25473514199256897 -0.733813464641571
0.9678664803504944 -0.2539183497428894 -0.6042789220809937
0.9675594568252563 -0.25310155749320984 -0.4747443199157715
0.9672524333000183 -0.25228479504585266 -0.3452097475528717
0.9669454097747803 -0.2514680027961731 -0.21567517518997192
0.9666383862495422 -0.25065121054649353 -0.08614061027765274
0.9663313627243042 -0.24983441829681396 0.04339396581053734
0.9660242795944214 -0.2490176409482956 0.17292854189872742
0.9657172560691833 -0.24820084869861603 0.3024631142616272
0.9654102325439453 -0.24738405644893646 0.431997686624527
0.9651032090187073 -0.2465672791004181 0.5615322589874268
0.9647961854934692 -0.24575048685073853 0.6910668015480042
0.9644891619682312 -0.24493369460105896 0.8206014037132263
0.9641820788383484 -0.2441169172525406 0.9501359462738037
0.9994327425956726 -0.05633063241839409 -0.9940713047981262
0.9991257190704346 -0.05551384389400482 -0.8645367622375488
0.9988186955451965 -0.054697055369615555 -0.7350021600723267
0.9985116720199585 -0.053880270570516586 -0.6054676175117493
0.9982046484947205 -0.05306348204612732 -0.4759330451488495
0.9978976249694824 -0.05224669724702835 -0.3463984727859497
0.9975905418395996 -0.051429908722639084 -0.21686388552188873
0.9972835183143616 -0.050613123923540115 -0.08732932060956955
0.9969764947891235 -0.04979633539915085 0.04220525175333023
0.9966694712638855 -0.04897954687476158 0.17173981666564941
0.9963624477386475 -0.04816276207566261 0.3012743890285492
0.9960553646087646 -0.047345973551273346 0.430808961391449
0.9957483410835266 -0.04652918875217438 0.5603435635566711
0.9954413175582886 -0.04571240022778511 0.6898781061172485
0.9951342940330505 -0.044895611703395844 0.8194127082824707
0.9948272705078125 -0.044078826904296875 0.9489472508430481
0.9891826510429382 0.1457807868719101 -0.9953700304031372
0.9888756275177002 0.14659756422042847 -0.8658354878425598
0.9885686039924622 0.14741435647010803 -0.7363008856773376
0.9882615208625793 0.1482311487197876 -0.6067663431167603
0.9879544973373413 0.14904792606830597 -0.4772317409515381
0.9876474738121033 0.14986471831798553 -0.3476971685886383
0.9873404502868652 0.1506815105676651 -0.21816261112689972
0.9870334267616272 0.15149828791618347 -0.08862803876399994
0.9867264032363892 0.15231508016586304 0.04090653359889984
0.9864193201065063 0.1531318724155426 0.17044110596179962
0.9861122965812683 0.15394864976406097 0.2999756634235382
0.9858052730560303 0.15476544201374054 0.429510235786438
0.9854982495307922 0.1555822342634201 0.5590448379516602
0.9851912260055542 0.15639901161193848 0.6885793805122375
0.9848842024803162 0.15721580386161804 0.8181139826774597
0.9845771193504333 0.1580325812101364 0.9476485252380371
0.9384568929672241 0.3416910469532013 -0.9967256188392639
0.9381498694419861 0.34250783920288086 -0.8671910166740417
0.937842845916748 0.3433246314525604 -0.7376564741134644
0.93753582239151 0.34414142370224 -0.6081218719482422
0.937228798866272 0.34495821595191956 -0.4785872995853424
0.9369217157363892 0.3457750082015991 -0.3490527272224426
0.9366146922111511 0.3465917706489563 -0.21951816976070404
0.9363076686859131 0.34740856289863586 -0.08998359739780426
0.936000645160675 0.34822535514831543 0.03955097496509552
0.935693621635437 0.349042147397995 0.1690855473279953
0.9353865385055542 0.34985893964767456 0.2986201047897339
0.9350795149803162 0.3506757318973541 0.42815467715263367
0.9347724914550781 0.3514924943447113 0.5576892495155334
0.9344654679298401 0.35230928659439087 0.6872238516807556
0.934158444404602 0.35312607884407043 0.816758394241333
0.933851420879364 0.35394287109375 0.9462929964065552
0.8493322134017944 0.5233796238899231 -0.9980825185775757
0.8490251898765564 0.5241963863372803 -0.8685479164123535
0.8487181663513184 0.5250132083892822 -0.7390133738517761
0.8484111428260803 0.5258299708366394 -0.609478771686554
0.8481041193008423 0.5266467332839966 -0.4799441993236542
0.8477970957756042 0.5274635553359985 -0.3504096269607544
0.8474900126457214 0.5282803177833557 -0.2208750694990158
0.8471829891204834 0.5290971398353577 -0.09134049713611603
0.8468759655952454 0.5299139022827148 0.03819407895207405
0.8465689420700073 0.530730664730072 0.16772864758968353
0.8462619185447693 0.531547486782074 0.2972632348537445
0.8459548950195312 0.5323642492294312 0.4267978072166443
0.8456478118896484 0.5331810712814331 0.5563323497772217
0.8453407883644104 0.5339978337287903 0.6858669519424438
0.8450337648391724 0.5348146557807922 0.8154014945030212
0.8447267413139343 0.5356314182281494 0.9449360966682434
0.7254574298858643 0.6834080815315247 -0.9993851780891418
0.7251504063606262 0.6842248439788818 -0.8698506355285645
0.7248433828353882 0.6850416660308838 -0.7403160333633423
0.7245363593101501 0.685858428478241 -0.6107814908027649
0.7242292761802673 0.6866752505302429 -0.4812468886375427
0.7239222526550293 0.6874920129776001 -0.35171231627464294
0.7236152291297913 0.6883087754249573 -0.22217775881290436
0.7233082056045532 0.6891255974769592 -0.09264317899942398
0.7230011820793152 0.6899423599243164 0.0368913933634758
0.7226941585540771 0.6907591819763184 0.16642595827579498
0.7223870754241943 0.6915759444236755 0.29596054553985596
0.7220800518989563 0.6923927068710327 0.42549511790275574
0.7217730283737183 0.6932095289230347 0.5550296902656555
0.7214660048484802 0.6940262913703918 0.6845642328262329
0.7211589813232422 0.6948431134223938 0.8140988349914551
0.7208519577980042 0.695659875869751 0.9436333775520325
0.5719039440155029 0.8152248859405518 -1.0005803108215332
0.5715969204902649 0.8160416483879089 -0.8710457682609558
0.5712898969650269 0.8168584704399109 -0.7415111660957336
0.570982813835144 0.8176752328872681 -0.6119766235351562
0.570675790309906 0.81849205493927 -0.48244205117225647
0.570368766784668 0.8193088173866272 -0.3529074788093567
0.5700617432594299 0.8201255798339844 -0.22337289154529572
0.5697547197341919 0.8209424018859863 -0.09383832663297653
0.5694476962089539 0.8217591643333435 0.03569624945521355
0.569140613079071 0.8225759863853455 0.16523082554340363
0.568833589553833 0.8233927488327026 0.2947653830051422
0.568526566028595 0.8242095708847046 0.424299955368042
0.5682195425033569 0.8250263333320618 0.5538345575332642
0.5679125189781189 0.825843095779419 0.6833691000938416
0.5676054954528809 0.8266599178314209 0.8129037022590637
0.567298412322998 0.8274766802787781 0.9424382448196411
0.3949582576751709 0.9134334325790405 -1.0016189813613892
0.3946512043476105 0.9142501950263977 -0.8720844388008118
0.39434418082237244 0.9150670170783997 -0.7425498366355896
0.3940371572971344 0.9158837795257568 -0.6130152940750122
0.393730103969574 0.9167006015777588 -0.4834807217121124
0.39342308044433594 0.917517364025116 -0.35394614934921265
0.3931160569190979 0.9183341860771179 -0.22441156208515167
0.3928090035915375 0.9191509485244751 -0.09487699717283249
0.39250198006629944 0.9199677109718323 0.03465757891535759
0.3921949565410614 0.9207845330238342 0.16419215500354767
0.391887903213501 0.9216012954711914 0.29372671246528625
0.39158087968826294 0.9224181175231934 0.42326128482818604
0.3912738561630249 0.9232348799705505 0.5527958869934082
0.3909668028354645 0.9240516424179077 0.6823304295539856
0.39065977931022644 0.9248684644699097 0.8118650317192078
0.3903527557849884 0.9256852269172668 0.9413995742797852
0.20186454057693481 0.9740130305290222 -1.0024586915969849
0.20155750215053558 0.9748298525810242 -0.8729240894317627
0.20125047862529755 0.9756466150283813 -0.7433895468711853
0.20094344019889832 0.9764634370803833 -0.6138549447059631
0.20063640177249908 0.9772801995277405 -0.48432037234306335
0.20032937824726105 0.9780970215797424 -0.3547857999801636
0.20002233982086182 0.9789137840270996 -0.225251242518425
0.19971530139446259 0.9797305464744568 -0.09571667015552521
0.19940827786922455 0.9805473685264587 0.03381790220737457
0.19910123944282532 0.9813641309738159 0.16335247457027435
0.1987942010164261 0.9821809530258179 0.2928870618343353
0.19848717749118805 0.982997715473175 0.4224216043949127
0.19818013906478882 0.9838144779205322 0.5519561767578125
0.1978731006383896 0.9846312999725342 0.6814907789230347
0.19756607711315155 0.9854480624198914 0.8110253214836121
0.19725903868675232 0.9862648844718933 0.9405599236488342
0.0005280971527099609 0.9944835901260376 -1.0030649900436401
0.00022106348478700966 0.9953004121780396 -0.873530387878418
-8.597017585998401e-05 0.9961171746253967 -0.7439958453178406
-0.0003930038365069777 0.9969339966773987 -0.6144612431526184
-0.0007000375189818442 0.9977507591247559 -0.484926700592041
-0.0010070711141452193 0.998567521572113 -0.35539212822914124
-0.0013141047675162554 0.999384343624115 -0.22585754096508026
-0.0016211385373026133 1.0002011060714722 -0.09632296860218048
-0.0019281721906736493 1.0010179281234741 0.033211600035429
-0.0022352058440446854 1.001834750175476 0.16274617612361908
-0.0025422393810003996 1.0026514530181885 0.29228073358535767
-0.0028492731507867575 1.0034682750701904 0.42181530594825745
-0.0031563066877424717 1.0042850971221924 0.5513498783111572
-0.0034633404575288296 1.0051017999649048 0.6808844804763794
-0.0037703742273151875 1.0059186220169067 0.8104190230369568
-0.004077407997101545 1.0067354440689087 0.939953625202179
