ply
format ascii 1.0
element vertex 512
property float x
property float y
property float z
end_header
0.0005127191543579102 0.9944937825202942 -1.0030479431152344
0.0002066397137241438 0.9953096508979797 -0.8735137581825256
-9.943974146153778e-05 0.9961255192756653 -0.7439795136451721
-0.00040551918209530413 0.9969413876533508 -0.6144452691078186
-0.0007115986081771553 0.9977571964263916 -0.4849110245704651
-0.0010176780633628368 0.9985730648040771 -0.3553767800331116
-0.0013237575767561793 0.9993889331817627 -0.22584255039691925
-0.0016298369737342 1.0002048015594482 -0.09630831331014633
-0.0019359163707122207 1.0010206699371338 0.03322592377662659
-0.002241995884105563 1.0018365383148193 0.1627601683139801
-0.002548075281083584 1.0026524066925049 0.2922944128513336
-0.0028541546780616045 1.0034681558609009 0.42182862758636475
-0.003160234307870269 1.0042840242385864 0.5513628721237183
-0.0034663137048482895 1.005099892616272 0.6808971166610718
-0.00377239310182631 1.0059157609939575 0.8104313611984253
-0.004078472498804331 1.006731629371643 0.9399656057357788
-0.20082415640354156 0.9740172028541565 -1.0033947229385376
-0.2011302411556244 0.974833071231842 -0.8738605380058289
-0.20143632590770721 0.9756488800048828 -0.7443262934684753
-0.20174239575862885 0.9764647483825684 -0.6147920489311218
-0.20204848051071167 0.9772806167602539 -0.4852578043937683
-0.2023545652627945 0.9780964851379395 -0.3557235598564148
-0.20266063511371613 0.9789122939109802 -0.22618933022022247
-0.20296671986579895 0.9797281622886658 -0.09665509313344955
-0.20327278971672058 0.9805440306663513 0.03287914767861366
-0.2035788744688034 0.9813598990440369 0.16241338849067688
-0.20388495922088623 0.9821757674217224 0.2919476330280304
-0.20419102907180786 0.9829915761947632 0.4214818775653839
-0.20449711382389069 0.9838074445724487 0.551016092300415
-0.2048031985759735 0.9846233129501343 0.6805503368377686
-0.20510926842689514 0.9854391813278198 0.8100845813751221
-0.20541535317897797 0.9862550497055054 0.9396188259124756
-0.3939182758331299 0.9134316444396973 -1.003469467163086
-0.3942243754863739 0.9142475128173828 -0.8739352226257324
-0.39453044533729553 0.9150633811950684 -0.7444009780883789
-0.39483651518821716 0.9158792495727539 -0.6148667335510254
-0.3951426148414612 0.9166951179504395 -0.4853324890136719
-0.3954486846923828 0.9175109267234802 -0.35579824447631836
-0.39575475454330444 0.9183267951011658 -0.22626399993896484
-0.39606085419654846 0.9191426634788513 -0.09672976285219193
-0.3963669240474701 0.9199585318565369 0.032804474234580994
-0.3966729938983917 0.9207744002342224 0.16233870387077332
-0.39697909355163574 0.9215902090072632 0.29187294840812683
-0.3972851634025574 0.9224060773849487 0.42140719294548035
-0.397591233253479 0.9232219457626343 0.5509414076805115
-0.397897332906723 0.9240378141403198 0.680475652217865
-0.39820340275764465 0.9248536825180054 0.8100098967552185
-0.3985094726085663 0.9256694912910461 0.939544141292572
-0.5708643794059753 0.8152176141738892 -1.0032689571380615
-0.571170449256897 0.8160334825515747 -0.873734712600708
-0.5714765191078186 0.8168493509292603 -0.7442004680633545
-0.5717825889587402 0.8176652193069458 -0.614666223526001
-0.5720886588096619 0.8184810280799866 -0.48513200879096985
-0.5723947286605835 0.8192968964576721 -0.35559776425361633
-0.5727008581161499 0.8201127648353577 -0.22606351971626282
-0.5730069279670715 0.8209286332130432 -0.0965292826294899
-0.5733129978179932 0.8217445015907288 0.03300495445728302
-0.5736190676689148 0.8225603103637695 0.16253918409347534
-0.5739251375198364 0.8233761787414551 0.29207342863082886
-0.5742312073707581 0.8241920471191406 0.4216076731681824
-0.5745373368263245 0.8250079154968262 0.5511419177055359
-0.5748434066772461 0.8258237838745117 0.6806761622428894
-0.5751494765281677 0.8266395926475525 0.8102104067802429
-0.5754555463790894 0.827455461025238 0.9397445917129517
-0.7244181632995605 0.6833959817886353 -1.002801537513733
-0.724724292755127 0.684211790561676 -0.8732672929763794
-0.7250303626060486 0.6850276589393616 -0.7437330484390259
-0.7253364324569702 0.6858435273170471 -0.6141988039016724
-0.7256425023078918 0.6866593956947327 -0.48466455936431885
-0.7259485721588135 0.6874752640724182 -0.3551303446292877
-0.7262546420097351 0.688291072845459 -0.2255961000919342
-0.7265607714653015 0.6891069412231445 -0.09606185555458069
-0.7268668413162231 0.6899228096008301 0.03347238153219223
-0.7271729111671448 0.6907386779785156 0.16300661861896515
-0.7274789810180664 0.6915544867515564 0.29254084825515747
-0.727785050868988 0.6923703551292419 0.422075092792511
-0.7280911207199097 0.6931862235069275 0.5516093373298645
-0.7283972501754761 0.694002091884613 0.681143581867218
-0.7287033200263977 0.6948179602622986 0.8106778264045715
-0.7290093898773193 0.6956337690353394 0.940212070941925
-0.8482932448387146 0.5233634114265442 -1.0020862817764282
-0.8485993146896362 0.5241792798042297 -0.8725520372390747
-0.8489054441452026 0.5249951481819153 -0.7430177927017212
-0.8492115139961243 0.5258110165596008 -0.6134835481643677
-0.8495175838470459 0.5266268849372864 -0.48394933342933655
-0.8498236536979675 0.5274426937103271 -0.35441508889198303
-0.8501297235488892 0.5282585620880127 -0.2248808592557907
-0.8504357933998108 0.5290744304656982 -0.09534662216901779
-0.8507419228553772 0.5298902988433838 0.034187618643045425
-0.8510479927062988 0.5307061672210693 0.16372185945510864
-0.8513540625572205 0.5315219759941101 0.29325610399246216
-0.8516601324081421 0.5323378443717957 0.4227903485298157
-0.8519662022590637 0.5331537127494812 0.5523245930671692
-0.8522722721099854 0.5339695811271667 0.6818588376045227
-0.8525784015655518 0.5347854495048523 0.8113930225372314
-0.8528844714164734 0.5356012582778931 0.940927267074585
-0.9374181032180786 0.34167182445526123 -1.001152515411377
-0.9377241730690002 0.3424876928329468 -0.8716182708740234
-0.9380303025245667 0.34330353140830994 -0.7420840263366699
-0.9383363723754883 0.3441193997859955 -0.6125497817993164
-0.9386424422264099 0.34493526816368103 -0.4830155670642853
-0.9389485120773315 0.3457511067390442 -0.35348132252693176
-0.9392545819282532 0.34656697511672974 -0.22394709289073944
-0.9395606517791748 0.3473828136920929 -0.09441284835338593
-0.9398667812347412 0.34819868206977844 0.03512138873338699
-0.9401728510856628 0.349014550447464 0.1646556258201599
-0.9404789209365845 0.34983038902282715 0.2941898703575134
-0.9407849907875061 0.3506462574005127 0.42372411489486694
-0.9410910606384277 0.35146209597587585 0.5532583594322205
-0.9413971304893494 0.3522779643535614 0.682792603969574
-0.941703200340271 0.35309383273124695 0.8123267889022827
-0.9420093297958374 0.3539096713066101 0.9418610334396362
-0.9881439805030823 0.14575961232185364 -1.000038504600525
-0.9884500503540039 0.146575465798378 -0.8705042004585266
-0.9887561202049255 0.14739131927490234 -0.7409699559211731
-0.9890621900558472 0.1482071876525879 -0.6114357113838196
-0.9893683195114136 0.14902304112911224 -0.48190149664878845
-0.9896743893623352 0.1498388946056366 -0.35236725211143494
-0.9899804592132568 0.15065474808216095 -0.22283302247524261
-0.9902865290641785 0.1514706015586853 -0.0932987853884697
-0.9905925989151001 0.15228646993637085 0.03623545542359352
-0.9908986687660217 0.1531023234128952 0.16576969623565674
-0.9912047386169434 0.15391817688941956 0.29530394077301025
-0.9915108680725098 0.1547340303659439 0.42483818531036377
-0.9918169379234314 0.15554988384246826 0.5543724298477173
-0.992123007774353 0.1563657522201538 0.6839066743850708
-0.9924290776252747 0.15718160569667816 0.8134408593177795
-0.9927351474761963 0.15799745917320251 0.9429751038551331
-0.9983941316604614 -0.05635254830121994 -0.9987896680831909
-0.9987002015113831 -0.05553669482469559 -0.8692554235458374
-0.9990062713623047 -0.054720837622880936 -0.7397212386131287
-0.9993123412132263 -0.053904980421066284 -0.6101869940757751
-0.999618411064148 -0.05308912321925163 -0.48065274953842163
-0.9999244809150696 -0.05227326974272728 -0.3511185050010681
-1.0002305507659912 -0.05145741254091263 -0.2215842604637146
-1.0005366802215576 -0.05064155533909798 -0.09205002337694168
-1.0008426904678345 -0.049825698137283325 0.037484217435121536
-1.0011488199234009 -0.04900984466075897 0.16701845824718475
-1.0014549493789673 -0.04819398745894432 0.2965526878833771
-1.0017609596252441 -0.04737813025712967 0.4260869324207306
-1.0020670890808105 -0.04656227305531502 0.5556211471557617
-1.0023730993270874 -0.045746419578790665 0.6851553916931152
-1.0026792287826538 -0.04493056237697601 0.8146896362304688
-1.0029853582382202 -0.04411470517516136 0.9442238807678223
-0.9677488803863525 -0.25639015436172485 -0.9974573850631714
-0.9680549502372742 -0.2555743157863617 -0.8679231405258179
-0.9683610200881958 -0.25475844740867615 -0.7383888959884644
-0.9686671495437622 -0.2539425790309906 -0.6088546514511108
-0.9689732193946838 -0.25312674045562744 -0.4793204069137573
-0.9692792892456055 -0.2523108720779419 -0.3497861623764038
-0.9695853590965271 -0.25149503350257874 -0.2202519327402115
-0.9698914289474487 -0.2506791651248932 -0.09071769565343857
-0.9701974987983704 -0.24986331164836884 0.03881654143333435
-0.970503568649292 -0.24904745817184448 0.16835078597068787
-0.9708096981048584 -0.24823160469532013 0.2978850305080414
-0.97111576795578 -0.24741573631763458 0.4274192452430725
-0.9714218378067017 -0.24659988284111023 0.556953489780426
-0.9717279076576233 -0.24578402936458588 0.6864877343177795
-0.9720339775085449 -0.24496817588806152 0.8160219788551331
-0.9723400473594666 -0.24415232241153717 0.9455562233924866
-0.8974629044532776 -0.4461636543273926 -0.9960960149765015
-0.8977689743041992 -0.4453478157520294 -0.866561770439148
-0.8980750441551208 -0.44453194737434387 -0.7370275259017944
-0.8983811736106873 -0.4437160789966583 -0.6074932813644409
-0.8986872434616089 -0.44290024042129517 -0.4779590666294098
-0.8989933133125305 -0.4420843720436096 -0.3484248220920563
-0.8992993831634521 -0.44126853346824646 -0.21889059245586395
-0.8996054530143738 -0.4404526650905609 -0.08935634791851044
-0.8999115228652954 -0.43963679671287537 0.04017788916826248
-0.9002176523208618 -0.4388209581375122 0.1697121262550354
-0.9005237221717834 -0.43800508975982666 0.2992463707923889
-0.9008297920227051 -0.4371892511844635 0.42878061532974243
-0.9011358618736267 -0.43637338280677795 0.558314859867096
-0.9014419317245483 -0.4355575144290924 0.6878491044044495
-0.90174800157547 -0.43474167585372925 0.8173832893371582
-0.9020541310310364 -0.4339258074760437 0.9469175338745117
-0.7904137372970581 -0.6179037094116211 -0.9947614073753357
-0.7907198071479797 -0.6170878410339355 -0.8652271628379822
-0.7910258769989014 -0.61627197265625 -0.7356929183006287
-0.791331946849823 -0.6154561042785645 -0.6061586737632751
-0.7916380167007446 -0.6146402955055237 -0.47662442922592163
-0.7919440865516663 -0.6138244271278381 -0.3470901846885681
-0.7922502160072327 -0.6130085587501526 -0.2175559550523758
-0.7925562858581543 -0.612192690372467 -0.08802171796560287
-0.7928623557090759 -0.6113768219947815 0.04151252284646034
-0.7931684255599976 -0.6105610132217407 0.17104676365852356
-0.7934744954109192 -0.6097451448440552 0.3005810081958771
-0.7937805652618408 -0.6089292764663696 0.4301152229309082
-0.7940866947174072 -0.6081134080886841 0.5596494674682617
-0.7943927645683289 -0.6072975397109985 0.6891837120056152
-0.7946988344192505 -0.6064817309379578 0.8187179565429688
-0.7950049042701721 -0.6056658625602722 0.9482522010803223
-0.6509838700294495 -0.764579176902771 -0.9935081005096436
-0.6512899994850159 -0.7637633681297302 -0.86397385597229
-0.6515960693359375 -0.7629474997520447 -0.7344396114349365
-0.6519021391868591 -0.7621316313743591 -0.604905366897583
-0.6522082090377808 -0.7613157629966736 -0.4753711521625519
-0.6525142788887024 -0.760499894618988 -0.34583690762519836
-0.652820348739624 -0.7596840858459473 -0.21630267798900604
-0.6531264781951904 -0.7588682174682617 -0.08676843345165253
-0.6534325480461121 -0.7580523490905762 0.04276580363512039
-0.6537386178970337 -0.7572364807128906 0.1723000407218933
-0.6540446877479553 -0.7564206123352051 0.3018342852592468
-0.654350757598877 -0.7556048035621643 0.43136852979660034
-0.6546568274497986 -0.7547889351844788 0.5609027743339539
-0.6549628973007202 -0.7539730668067932 0.6904370188713074
-0.6552690267562866 -0.7531571984291077 0.8199712038040161
-0.6555750966072083 -0.7523413300514221 0.9495054483413696
-0.484881728887558 -0.8801853060722351 -0.9923874735832214
-0.4851877987384796 -0.8793694376945496 -0.8628532290458679
-0.48549389839172363 -0.878553569316864 -0.7333189845085144
-0.48579996824264526 -0.8777377009391785 -0.6037847995758057
-0.4861060380935669 -0.8769218325614929 -0.47425052523612976
-0.4864121079444885 -0.8761060237884521 -0.34471628069877625
-0.48671820759773254 -0.8752901554107666 -0.21518205106258392
-0.4870242774486542 -0.874474287033081 -0.085647813975811
-0.4873303472995758 -0.8736584186553955 0.043886419385671616
-0.4876364469528198 -0.87284255027771 0.17342065274715424
-0.48794251680374146 -0.8720267415046692 0.30295488238334656
-0.4882485866546631 -0.8712108731269836 0.4324891269207001
-0.4885546863079071 -0.8703950047492981 0.562023401260376
-0.48886075615882874 -0.8695791363716125 0.6915575861930847
-0.48916682600975037 -0.868763267993927 0.8210918307304382
-0.4894729256629944 -0.8679474592208862 0.9506260752677917
-0.29890745878219604 -0.9599890112876892 -0.9914454221725464
-0.2992135286331177 -0.9591731429100037 -0.8619111776351929
-0.2995195984840393 -0.9583572745323181 -0.7323769330978394
-0.2998256981372833 -0.9575414061546326 -0.6028426885604858
-0.30013176798820496 -0.9567255973815918 -0.4733084440231323
-0.3004378378391266 -0.9559097290039062 -0.3437742292881012
-0.3007439374923706 -0.9550938606262207 -0.21423998475074768
-0.30105000734329224 -0.9542779922485352 -0.08470574021339417
-0.30135607719421387 -0.9534621238708496 0.044828496873378754
-0.3016621768474579 -0.9526463150978088 0.17436273396015167
-0.3019682466983795 -0.9518304467201233 0.303896963596344
-0.30227431654930115 -0.9510145783424377 0.4334312081336975
-0.30258041620254517 -0.9501987099647522 0.562965452671051
-0.3028864860534668 -0.9493828415870667 0.6924996972084045
-0.3031925559043884 -0.9485670328140259 0.8220339417457581
-0.30349865555763245 -0.9477511644363403 0.9515681862831116
-0.10067488253116608 -1.0007232427597046 -0.9907204508781433
-0.1009809598326683 -0.9999073147773743 -0.8611862063407898
-0.10128704458475113 -0.9990914463996887 -0.7316519618034363
-0.10159312188625336 -0.998275637626648 -0.6021177172660828
-0.10189919918775558 -0.9974597692489624 -0.47258347272872925
-0.10220527648925781 -0.9966439008712769 -0.3430492579936981
-0.10251136124134064 -0.9958280324935913 -0.2135150134563446
-0.10281743854284286 -0.9950121641159058 -0.08398076891899109
-0.10312351584434509 -0.994196355342865 0.04555346444249153
-0.10342960059642792 -0.9933804869651794 0.17508770525455475
-0.10373567789793015 -0.9925646185874939 0.30462193489074707
-0.10404175519943237 -0.9917487502098083 0.4341561794281006
-0.1043478325009346 -0.9909328818321228 0.5636904239654541
-0.10465391725301743 -0.990117073059082 0.6932246685028076
-0.10495999455451965 -0.9893012046813965 0.8227589130401611
-0.10526607185602188 -0.9884853363037109 0.9522931575775146
0.1017003208398819 -1.0007201433181763 -0.9902422428131104
0.10139424353837967 -0.9999043345451355 -0.8607079982757568
0.10108815878629684 -0.99908846616745 -0.7311738133430481
0.10078208148479462 -0.9982725977897644 -0.6016395688056946
0.10047600418329239 -0.9974567294120789 -0.4721052944660187
0.10016991943120956 -0.9966409206390381 -0.34257107973098755
0.09986384212970734 -0.9958250522613525 -0.21303683519363403
0.09955776482820511 -0.995009183883667 -0.08350259065628052
0.09925168752670288 -0.9941933155059814 0.0460316427052021
0.09894560277462006 -0.9933774471282959 0.17556588351726532
0.09863952547311783 -0.9925616383552551 0.30510011315345764
0.0983334481716156 -0.9917457699775696 0.43463435769081116
0.09802736341953278 -0.990929901599884 0.5641685724258423
0.09772128611803055 -0.9901140332221985 0.6937028169631958
0.09741520881652832 -0.9892981648445129 0.8232370615005493
0.09710913151502609 -0.9884823560714722 0.9527713060379028
0.29993289709091187 -0.9599800705909729 -0.9900304675102234
0.29962679743766785 -0.9591642618179321 -0.8604962229728699
0.2993207275867462 -0.9583483934402466 -0.7309619784355164
0.2990146577358246 -0.957532525062561 -0.6014277338981628
0.29870855808258057 -0.9567166566848755 -0.4718934893608093
0.29840248823165894 -0.9559007883071899 -0.3423592448234558
0.2980964183807373 -0.9550849795341492 -0.2128250151872635
0.2977903485298157 -0.9542691111564636 -0.08329078555107117
0.29748424887657166 -0.9534532427787781 0.04624345526099205
0.29717817902565 -0.9526373744010925 0.17577768862247467
0.2968721091747284 -0.951821506023407 0.305311918258667
0.2965660095214844 -0.9510056972503662 0.4348461627960205
0.29625993967056274 -0.9501898288726807 0.564380407333374
0.2959538698196411 -0.9493739604949951 0.6939146518707275
0.2956477701663971 -0.9485580921173096 0.823448896408081
0.29534170031547546 -0.947742223739624 0.9529831409454346
0.4859071671962738 -0.8801708221435547 -0.9900936484336853
0.4856010973453522 -0.8793549537658691 -0.8605594635009766
0.48529499769210815 -0.8785391449928284 -0.731025218963623
0.4849889278411865 -0.8777232766151428 -0.6014909744262695
0.4846828579902649 -0.8769074082374573 -0.471956729888916
0.4843767583370209 -0.8760915398597717 -0.3424224853515625
0.48407068848609924 -0.8752756714820862 -0.21288824081420898
0.4837646186351776 -0.8744598627090454 -0.08335401117801666
0.4834585189819336 -0.8736439943313599 0.046180229634046555
0.48315244913101196 -0.8728281259536743 0.17571446299552917
0.48284637928009033 -0.8720122575759888 0.3052487075328827
0.4825402796268463 -0.8711963891983032 0.4347829520702362
0.4822342097759247 -0.8703805804252625 0.5643171668052673
0.48192813992500305 -0.8695647120475769 0.6938514113426208
0.48162204027175903 -0.8687488436698914 0.8233856558799744
0.4813159704208374 -0.8679329752922058 0.9529199004173279
0.6520093083381653 -0.764559805393219 -0.9904293417930603
0.6517032384872437 -0.7637439370155334 -0.8608950972557068
0.651397168636322 -0.7629281282424927 -0.7313608527183533
0.6510910987854004 -0.7621122598648071 -0.6018266677856445
0.6507850289344788 -0.7612963914871216 -0.47229239344596863
0.6504789590835571 -0.760480523109436 -0.3427581489086151
0.6501728296279907 -0.7596646547317505 -0.2132239192724228
0.6498667597770691 -0.7588488459587097 -0.08368968218564987
0.6495606899261475 -0.7580329775810242 0.04584455490112305
0.6492546200752258 -0.7572171092033386 0.17537878453731537
0.6489485502243042 -0.7564012408256531 0.3049130439758301
0.6486424803733826 -0.7555853724479675 0.4344472587108612
0.6483363509178162 -0.7547695636749268 0.5639815330505371
0.6480302810668945 -0.7539536952972412 0.6935157179832458
0.6477242112159729 -0.7531378269195557 0.8230499625205994
0.6474181413650513 -0.7523219585418701 0.9525842070579529
0.7914391756057739 -0.6178801655769348 -0.9910237193107605
0.7911330461502075 -0.6170642971992493 -0.861489474773407
0.7908269762992859 -0.6162484288215637 -0.7319552302360535
0.7905209064483643 -0.6154325604438782 -0.6024210453033447
0.7902148365974426 -0.6146167516708374 -0.4728867709636688
0.789908766746521 -0.6138008832931519 -0.3433525562286377
0.7896026968955994 -0.6129850149154663 -0.21381831169128418
0.789296567440033 -0.6121691465377808 -0.08428406715393066
0.7889904975891113 -0.6113532781600952 0.045250169932842255
0.7886844277381897 -0.6105374693870544 0.17478440701961517
0.7883783578872681 -0.6097216010093689 0.3043186366558075
0.7880722880363464 -0.6089057326316833 0.433852881193161
0.7877662181854248 -0.6080898642539978 0.5633870959281921
0.7874600887298584 -0.6072739958763123 0.6929213404655457
0.7871540188789368 -0.6064581871032715 0.8224555850028992
0.7868479490280151 -0.6056423187255859 0.9519898295402527
0.8984883427619934 -0.4461369216442108 -0.9918524622917175
0.8981822729110718 -0.44532108306884766 -0.8623182773590088
0.8978762030601501 -0.4445052146911621 -0.7327840328216553
0.8975701332092285 -0.44368937611579895 -0.6032497882843018
0.8972640037536621 -0.4428735077381134 -0.47371554374694824
0.8969579339027405 -0.44205763936042786 -0.3441812992095947
0.8966518640518188 -0.4412418007850647 -0.2146470546722412
0.8963457942008972 -0.44042593240737915 -0.08511282503604889
0.8960397243499756 -0.439610093832016 0.04442141577601433
0.895733654499054 -0.43879422545433044 0.17395564913749695
0.8954275250434875 -0.4379783570766449 0.30348989367485046
0.8951214551925659 -0.43716251850128174 0.433024138212204
0.8948153853416443 -0.4363466501235962 0.5625583529472351
0.8945093154907227 -0.43553081154823303 0.6920925974845886
0.894203245639801 -0.4347149431705475 0.8216268420219421
0.8938971757888794 -0.43389907479286194 0.9511610865592957
0.9687743186950684 -0.25636133551597595 -0.992881715297699
0.9684682488441467 -0.2555454969406128 -0.8633474707603455
0.9681621789932251 -0.25472962856292725 -0.7338132262229919
0.9678561091423035 -0.2539137601852417 -0.6042789816856384
0.9675499796867371 -0.25309792160987854 -0.4747447371482849
0.9672439098358154 -0.252282053232193 -0.3452104926109314
0.9669378399848938 -0.25146621465682983 -0.21567626297473907
0.9666317701339722 -0.2506503462791443 -0.08614202588796616
0.9663257002830505 -0.24983449280261993 0.04339221492409706
0.9660196304321289 -0.24901863932609558 0.17292645573616028
0.9657135009765625 -0.24820278584957123 0.3024607002735138
0.9654074311256409 -0.24738691747188568 0.4319949448108673
0.9651013612747192 -0.24657106399536133 0.5615291595458984
0.9647952914237976 -0.24575521051883698 0.691063404083252
0.964489221572876 -0.24493935704231262 0.8205976486206055
0.9641831517219543 -0.24412350356578827 0.950131893157959
0.9994195699691772 -0.056322816759347916 -0.9940692186355591
0.9991134405136108 -0.05550696328282356 -0.8645349740982056
0.9988073706626892 -0.05469110608100891 -0.735000729560852
0.9985013008117676 -0.05387524887919426 -0.6054664850234985
0.998195230960846 -0.05305939167737961 -0.475932240486145
0.9978891611099243 -0.052243538200855255 -0.3463979959487915
0.9975830912590027 -0.051427680999040604 -0.21686376631259918
0.9972769618034363 -0.05061182379722595 -0.08732952922582626
0.9969708919525146 -0.0497959665954113 0.042204707860946655
0.996664822101593 -0.04898011311888695 0.17173895239830017
0.9963587522506714 -0.048164255917072296 0.3012731969356537
0.9960526823997498 -0.047348398715257645 0.4308074116706848
0.9957466125488281 -0.04653254151344299 0.5603416562080383
0.9954405426979065 -0.04571668803691864 0.6898759007453918
0.9951344132423401 -0.04490083083510399 0.8194101452827454
0.9948283433914185 -0.04408497363328934 0.9489443898200989
0.9891694188117981 0.1457890421152115 -0.9953663945198059
0.9888633489608765 0.14660489559173584 -0.8658321499824524
0.9885572791099548 0.1474207490682602 -0.7362979054450989
0.9882511496543884 0.14823660254478455 -0.6067636609077454
0.9879450798034668 0.1490524709224701 -0.47722944617271423
0.9876390099525452 0.14986832439899445 -0.3476952016353607
0.9873329401016235 0.1506841778755188 -0.2181609719991684
0.9870268702507019 0.15150003135204315 -0.08862672746181488
0.9867208003997803 0.1523158848285675 0.04090750962495804
0.9864146709442139 0.15313175320625305 0.17044174671173096
0.9861086010932922 0.1539476066827774 0.2999759912490845
0.9858025312423706 0.15476346015930176 0.429510235786438
0.985496461391449 0.1555793136358261 0.5590444803237915
0.9851903915405273 0.15639516711235046 0.688578724861145
0.9848843216896057 0.15721102058887482 0.8181129693984985
0.9845781922340393 0.15802688896656036 0.9476471543312073
0.9384435415267944 0.3416997492313385 -0.9967201948165894
0.9381374716758728 0.34251561760902405 -0.8671859502792358
0.9378314018249512 0.3433314561843872 -0.7376517057418823
0.9375253319740295 0.34414732456207275 -0.6081174612045288
0.9372192621231079 0.3449631631374359 -0.4785832166671753
0.9369131326675415 0.34577903151512146 -0.3490489721298218
0.9366070628166199 0.346594899892807 -0.21951474249362946
0.9363009929656982 0.34741073846817017 -0.08998051285743713
0.9359949231147766 0.3482266068458557 0.03955372795462608
0.935688853263855 0.34904244542121887 0.1690879613161087
0.9353827834129333 0.3498583137989044 0.298622190952301
0.9350766539573669 0.35067418217658997 0.42815643548965454
0.9347705841064453 0.3514900207519531 0.5576906800270081
0.9344645142555237 0.35230588912963867 0.6872249245643616
0.934158444404602 0.35312172770500183 0.8167591691017151
0.9338523745536804 0.3539375960826874 0.9462934136390686
0.8493186831474304 0.523388683795929 -0.9980751276016235
0.8490126132965088 0.5242045521736145 -0.86854088306427
0.8487065434455872 0.5250204205513 -0.7390066385269165
0.8484004735946655 0.5258362889289856 -0.609472393989563
0.8480944037437439 0.5266520977020264 -0.47993817925453186
0.8477882742881775 0.5274679660797119 -0.35040393471717834
0.8474822044372559 0.5282838344573975 -0.22086969017982483
0.8471761345863342 0.529099702835083 -0.09133545309305191
0.8468700647354126 0.5299155712127686 0.03819878771901131
0.846563994884491 0.5307313799858093 0.16773302853107452
0.8462579250335693 0.5315472483634949 0.29726725816726685
0.8459517955780029 0.5323631167411804 0.42680150270462036
0.8456457257270813 0.533178985118866 0.5563357472419739
0.8453396558761597 0.5339948534965515 0.6858699917793274
0.845033586025238 0.5348106622695923 0.8154042363166809
0.8447275161743164 0.5356265306472778 0.9449384808540344
0.7254436016082764 0.683417558670044 -0.9993757605552673
0.7251375317573547 0.6842333674430847 -0.8698415160179138
0.7248314619064331 0.6850492358207703 -0.7403072714805603
0.7245253920555115 0.6858651041984558 -0.6107730269432068
0.7242193222045898 0.6866809725761414 -0.48123878240585327
0.7239132523536682 0.6874968409538269 -0.35170456767082214
0.7236071228981018 0.6883126497268677 -0.22217032313346863
0.7233010530471802 0.6891285181045532 -0.09263607859611511
0.7229949831962585 0.6899443864822388 0.03689815476536751
0.7226889133453369 0.6907602548599243 0.16643239557743073
0.7223828434944153 0.6915760636329651 0.29596662521362305
0.7220767736434937 0.6923919320106506 0.42550086975097656
0.7217706441879272 0.6932078003883362 0.5550351142883301
0.7214645743370056 0.6940236687660217 0.6845693588256836
0.721158504486084 0.6948395371437073 0.8141036033630371
0.7208524346351624 0.695655345916748 0.9436378479003906
0.5718898177146912 0.8152346611022949 -1.0005688667297363
0.5715837478637695 0.8160504698753357 -0.871034562587738
0.5712776184082031 0.8168663382530212 -0.7415003180503845
0.5709715485572815 0.8176822066307068 -0.6119661331176758
0.5706654787063599 0.8184980750083923 -0.4824318587779999
0.5703594088554382 0.8193139433860779 -0.35289761424064636
0.5700533390045166 0.8201297521591187 -0.22336338460445404
0.569747269153595 0.8209456205368042 -0.09382915496826172
0.5694411396980286 0.8217614889144897 0.0357050858438015
0.5691350698471069 0.8225773572921753 0.16523931920528412
0.5688289999961853 0.8233932256698608 0.29477354884147644
0.5685229301452637 0.8242090344429016 0.42430779337882996
0.568216860294342 0.8250249028205872 0.5538420677185059
0.5679107904434204 0.8258407711982727 0.6833762526512146
0.567604660987854 0.8266566395759583 0.8129104971885681
0.5672985911369324 0.8274725079536438 0.9424447417259216
0.3949437141418457 0.913443386554718 -1.00160551071167
0.3946376442909241 0.9142592549324036 -0.8720712661743164
0.39433157444000244 0.9150751233100891 -0.7425370216369629
0.3940254747867584 0.9158909916877747 -0.6130027770996094
0.3937194049358368 0.9167068600654602 -0.48346853256225586
0.39341333508491516 0.917522668838501 -0.35393428802490234
0.39310723543167114 0.9183385372161865 -0.22440005838871002
0.3928011655807495 0.9191544055938721 -0.0948658213019371
0.3924950957298279 0.9199702739715576 0.034668419510126114
0.39218899607658386 0.9207861423492432 0.16420266032218933
0.39188292622566223 0.9216019511222839 0.29373690485954285
0.3915768563747406 0.9224178194999695 0.423271119594574
0.3912707567214966 0.923233687877655 0.5528053641319275
0.39096468687057495 0.9240495562553406 0.682339608669281
0.3906586170196533 0.9248654246330261 0.8118738532066345
0.3903525471687317 0.9256812334060669 0.941408097743988
0.20184959471225739 0.974023163318634 -1.0024433135986328
0.20154352486133575 0.9748390316963196 -0.8729090690612793
0.20123744010925293 0.9756549000740051 -0.7433748245239258
0.2009313553571701 0.9764707684516907 -0.6138405799865723
0.20062528550624847 0.9772865772247314 -0.48430636525154114
0.20031920075416565 0.978102445602417 -0.3547721207141876
0.20001311600208282 0.9789183139801025 -0.2252378761768341
0.1997070461511612 0.9797341823577881 -0.09570363909006119
0.19940096139907837 0.9805500507354736 0.03383059799671173
0.19909489154815674 0.9813658595085144 0.16336484253406525
0.1987888067960739 0.9821817278862 0.29289907217025757
0.1984827220439911 0.9829975962638855 0.4224333167076111
0.19817665219306946 0.983813464641571 0.5519675612449646
0.19787056744098663 0.9846293330192566 0.6815018057823181
0.1975644826889038 0.9854451417922974 0.8110360503196716
0.19725841283798218 0.9862610101699829 0.9405702948570251
0.0005127191543579102 0.9944937825202942 -1.0030479431152344
0.0002066397137241438 0.9953096508979797 -0.8735137581825256
-9.943974146153778e-05 0.9961255192756653 -0.7439795136451721
-0.00040551918209530413 0.9969413876533508 -0.6144452691078186
-0.0007115986081771553 0.9977571964263916 -0.4849110245704651
-0.0010176780633628368 0.9985730648040771 -0.3553767800331116
-0.0013237575767561793 0.9993889331817627 -0.22584255039691925
-0.0016298369737342 1.0002048015594482 -0.09630831331014633
-0.0019359163707122207 1.0010206699371338 0.03322592377662659
-0.002241995884105563 1.0018365383148193 0.1627601683139801
-0.002548075281083584 1.0026524066925049 0.2922944128513336
-0.0028541546780616045 1.0034681558609009 0.42182862758636475
-0.003160234307870269 1.0042840242385864 0.5513628721237183
-0.0034663137048482895 1.005099892616272 0.6808971166610718
-0.00377239310182631 1.0059157609939575 0.8104313611984253
-0.004078472498804331 1.006731629371643 0.9399656057357788
