ply
format ascii 1.0
element vertex 512
property float x
property float y
property float z
end_header
0.0035974979400634766 -1.002506971359253 0.9827064275741577
0.0031677524093538523 -1.002217411994934 0.8495734930038452
0.002738006878644228 -1.0019278526306152 0.7164405584335327
0.0023082613479346037 -1.0016382932662964 0.5833076238632202
0.0018785158172249794 -1.0013487339019775 0.4501746892929077
0.0014487702865153551 -1.0010591745376587 0.3170417547225952
0.0010190247558057308 -1.0007697343826294 0.18390882015228271
0.0005892792833037674 -1.0004801750183105 0.050775881856679916
0.00015953376714605838 -1.0001906156539917 -0.08235705643892288
-0.0002702117490116507 -0.9999009966850281 -0.21548998355865479
-0.0006999572506174445 -0.999611496925354 -0.3486229181289673
-0.0011297027813270688 -0.9993219375610352 -0.4817558526992798
-0.001559448312036693 -0.9990323781967163 -0.6148887872695923
-0.001989193959161639 -0.9987428188323975 -0.7480217218399048
-0.00241893925704062 -0.9984532594680786 -0.8811546564102173
-0.002848684787750244 -0.9981637001037598 -1.0142875909805298
-0.19779489934444427 -0.9820287227630615 0.9834010601043701
-0.19822464883327484 -0.9817391633987427 0.8502681255340576
-0.1986543983221054 -0.9814496636390686 0.7171351909637451
-0.19908413290977478 -0.9811601042747498 0.5840022563934326
-0.19951388239860535 -0.9808705449104309 0.4508693218231201
-0.1999436318874359 -0.9805809855461121 0.3177363872528076
-0.20037338137626648 -0.9802914261817932 0.18460343778133392
-0.20080311596393585 -0.9800018668174744 0.05147050321102142
-0.20123286545276642 -0.9797123074531555 -0.08166243135929108
-0.20166261494159698 -0.9794227480888367 -0.21479536592960358
-0.20209236443042755 -0.9791332483291626 -0.34792831540107727
-0.20252209901809692 -0.9788436889648438 -0.48106124997138977
-0.2029518485069275 -0.9785541296005249 -0.6141941547393799
-0.20338159799575806 -0.978264570236206 -0.7473270893096924
-0.20381134748458862 -0.9779750108718872 -0.8804600238800049
-0.204241082072258 -0.9776854515075684 -1.0135929584503174
-0.3909422755241394 -0.9214295148849487 0.9841563105583191
-0.39137202501296997 -0.9211400151252747 0.8510233759880066
-0.39180177450180054 -0.9208504557609558 0.7178904414176941
-0.3922315239906311 -0.920560896396637 0.5847575068473816
-0.39266127347946167 -0.9202713370323181 0.4516245722770691
-0.39309099316596985 -0.9199817776679993 0.3184916377067566
-0.3935207426548004 -0.9196922183036804 0.1853587031364441
-0.393950492143631 -0.9194026589393616 0.05222576856613159
-0.39438024163246155 -0.9191131591796875 -0.08090716600418091
-0.3948099911212921 -0.9188235998153687 -0.2140401005744934
-0.3952397406101227 -0.9185340404510498 -0.3471730351448059
-0.39566949009895325 -0.918244481086731 -0.4803059697151184
-0.3960992097854614 -0.9179549217224121 -0.6134389042854309
-0.396528959274292 -0.9176653623580933 -0.7465718388557434
-0.39695870876312256 -0.9173758029937744 -0.8797047734260559
-0.3973884582519531 -0.9170862436294556 -1.0128377676010132
-0.5679371356964111 -0.8231903314590454 0.984941303730011
-0.5683668851852417 -0.8229007720947266 0.8518083691596985
-0.5687966346740723 -0.8226112127304077 0.718675434589386
-0.5692263841629028 -0.8223217129707336 0.5855425000190735
-0.5696561336517334 -0.8220321536064148 0.452409565448761
-0.570085883140564 -0.821742594242096 0.3192766308784485
-0.5705156326293945 -0.8214530348777771 0.186143696308136
-0.5709453821182251 -0.8211634755134583 0.05301075801253319
-0.5713751316070557 -0.8208739161491394 -0.08012218028306961
-0.5718048810958862 -0.8205843567848206 -0.2132551074028015
-0.572234570980072 -0.8202947974205017 -0.346388041973114
-0.5726643204689026 -0.8200052976608276 -0.4795209765434265
-0.5730940699577332 -0.8197157382965088 -0.612653911113739
-0.5735238194465637 -0.8194261789321899 -0.7457868456840515
-0.5739535689353943 -0.8191366195678711 -0.878919780254364
-0.5743833184242249 -0.8188470602035522 -1.0120527744293213
-0.7215332984924316 -0.6913330554962158 0.9857239127159119
-0.7219630479812622 -0.691043496131897 0.8525909185409546
-0.7223927974700928 -0.6907539367675781 0.7194579839706421
-0.7228225469589233 -0.6904643774032593 0.5863250494003296
-0.7232522964477539 -0.6901748776435852 0.4531921446323395
-0.7236820459365845 -0.6898853182792664 0.320059210062027
-0.724111795425415 -0.6895957589149475 0.18692627549171448
-0.7245415449142456 -0.6893061995506287 0.05379333719611168
-0.7249712944030762 -0.6890166401863098 -0.07933960109949112
-0.7254010438919067 -0.688727080821991 -0.21247252821922302
-0.7258307933807373 -0.6884375214576721 -0.3456054627895355
-0.7262605428695679 -0.6881479620933533 -0.478738397359848
-0.7266902923583984 -0.6878584623336792 -0.6118713617324829
-0.7271199822425842 -0.6875689029693604 -0.7450042963027954
-0.7275497317314148 -0.6872793436050415 -0.8781372308731079
-0.7279794812202454 -0.6869897842407227 -1.0112701654434204
-0.845442533493042 -0.5312559604644775 0.9864720106124878
-0.8458722829818726 -0.5309664011001587 0.8533390760421753
-0.8463020324707031 -0.5306768417358398 0.7202061414718628
-0.8467317819595337 -0.530387282371521 0.5870732069015503
-0.8471615314483643 -0.5300977230072021 0.4539402723312378
-0.8475912809371948 -0.5298081636428833 0.3208073377609253
-0.8480210304260254 -0.5295186042785645 0.1876743882894516
-0.848450779914856 -0.5292291045188904 0.054541461169719696
-0.8488805294036865 -0.5289395451545715 -0.0785914734005928
-0.8493102788925171 -0.5286499857902527 -0.2117244154214859
-0.8497400283813477 -0.5283604264259338 -0.3448573350906372
-0.8501697778701782 -0.528070867061615 -0.4779902696609497
-0.850599467754364 -0.5277813076972961 -0.6111232042312622
-0.8510292172431946 -0.5274917483329773 -0.7442561388015747
-0.8514589667320251 -0.5272021889686584 -0.8773890733718872
-0.8518887162208557 -0.5269126892089844 -1.0105220079421997
-0.9345920085906982 -0.34951257705688477 0.9871550798416138
-0.9350217580795288 -0.3492230176925659 0.8540221452713013
-0.9354514479637146 -0.34893345832824707 0.7208892107009888
-0.9358811974525452 -0.3486438989639282 0.5877562165260315
-0.9363109469413757 -0.34835436940193176 0.4546233117580414
-0.9367406964302063 -0.3480648100376129 0.3214903771877289
-0.9371704459190369 -0.34777525067329407 0.18835744261741638
-0.9376001954078674 -0.3474857211112976 0.05522450432181358
-0.938029944896698 -0.34719616174697876 -0.07790843397378922
-0.9384596943855286 -0.3469066023826599 -0.21104136109352112
-0.9388894438743591 -0.34661704301834106 -0.3441742956638336
-0.9393191933631897 -0.3463275134563446 -0.4773072302341461
-0.9397489428520203 -0.34603795409202576 -0.610440194606781
-0.9401786923408508 -0.3457483947277069 -0.7435731291770935
-0.9406084418296814 -0.34545883536338806 -0.876706063747406
-0.941038191318512 -0.3451693058013916 -1.0098389387130737
-0.9853318333625793 -0.15354353189468384 0.9877450466156006
-0.9857615828514099 -0.15325398743152618 0.8546121120452881
-0.9861913323402405 -0.15296442806720734 0.7214791774749756
-0.986621081829071 -0.15267488360404968 0.5883462429046631
-0.9870508313179016 -0.15238532423973083 0.4552133083343506
-0.9874805808067322 -0.15209577977657318 0.3220803737640381
-0.9879103302955627 -0.15180623531341553 0.18894743919372559
-0.9883400201797485 -0.15151667594909668 0.055814504623413086
-0.9887697696685791 -0.15122713148593903 -0.07731842994689941
-0.9891995191574097 -0.15093757212162018 -0.21045136451721191
-0.9896292686462402 -0.15064802765846252 -0.3435842990875244
-0.9900590181350708 -0.15035846829414368 -0.4767172336578369
-0.9904887676239014 -0.15006892383098602 -0.6098501682281494
-0.9909185171127319 -0.14977936446666718 -0.7429831027984619
-0.9913482666015625 -0.14948982000350952 -0.8761160373687744
-0.9917780160903931 -0.14920026063919067 -1.009248971939087
-0.9955847859382629 0.04862815514206886 0.988217830657959
-0.9960145354270935 0.048917707055807114 0.8550848960876465
-0.9964442849159241 0.049207258969545364 0.721951961517334
-0.9968740344047546 0.049496810883283615 0.5888190269470215
-0.9973037838935852 0.049786362797021866 0.45568612217903137
-0.9977335333824158 0.05007591471076012 0.32255318760871887
-0.9981632828712463 0.05036546662449837 0.18942023813724518
-0.9985930323600769 0.05065501853823662 0.05628730356693268
-0.9990227818489075 0.05094457045197487 -0.07684563100337982
-0.9994524717330933 0.05123412236571312 -0.20997856557369232
-0.9998822212219238 0.05152367427945137 -0.343111515045166
-1.0003119707107544 0.05181322246789932 -0.4762444496154785
-1.000741720199585 0.05210277438163757 -0.609377384185791
-1.0011714696884155 0.052392326295375824 -0.7425103187561035
-1.001601219177246 0.052681878209114075 -0.875643253326416
-1.0020309686660767 0.052971430122852325 -1.0087761878967285
-0.9649311304092407 0.24872557818889618 0.9885541200637817
-0.9653608798980713 0.24901513755321503 0.8554211854934692
-0.9657906293869019 0.24930468201637268 0.7222882509231567
-0.9662203192710876 0.24959424138069153 0.5891553163528442
-0.9666500687599182 0.24988378584384918 0.45602235198020935
-0.9670798182487488 0.25017333030700684 0.32288941740989685
-0.9675095677375793 0.2504628896713257 0.18975648283958435
-0.9679393172264099 0.25075244903564453 0.05662354826927185
-0.9683690667152405 0.2510420083999634 -0.07650938630104065
-0.968798816204071 0.25133153796195984 -0.20964232087135315
-0.9692285656929016 0.2516210973262787 -0.34277525544166565
-0.9696583151817322 0.25191065669059753 -0.47590819001197815
-0.9700880646705627 0.252200186252594 -0.609041154384613
-0.9705178141593933 0.25248974561691284 -0.7421740889549255
-0.9709475636482239 0.2527793049812317 -0.875307023525238
-0.9713773131370544 0.25306886434555054 -1.0084398984909058
-0.8946257829666138 0.4385567307472229 0.9887400269508362
-0.8950555324554443 0.43884629011154175 0.8556070923805237
-0.8954852223396301 0.4391358196735382 0.7224741578102112
-0.8959149718284607 0.43942537903785706 0.5893412232398987
-0.8963447213172913 0.4397149384021759 0.4562082886695862
-0.8967744708061218 0.44000449776649475 0.3230753540992737
-0.8972042202949524 0.4402940273284912 0.1899424046278
-0.897633969783783 0.44058358669281006 0.05680947005748749
-0.8980637192726135 0.4408731460571289 -0.07632346451282501
-0.8984934687614441 0.44116270542144775 -0.2094563990831375
-0.8989232182502747 0.4414522349834442 -0.3425893485546112
-0.8993529677391052 0.44174179434776306 -0.4757222831249237
-0.8997827172279358 0.4420313537120819 -0.6088551878929138
-0.9002124667167664 0.44232088327407837 -0.7419881224632263
-0.9006422162055969 0.4426104426383972 -0.8751210570335388
-0.9010719656944275 0.44290000200271606 -1.008254051208496
-0.7875470519065857 0.6103498935699463 0.9887679815292358
-0.7879768013954163 0.6106394529342651 0.8556350469589233
-0.7884065508842468 0.610929012298584 0.7225021123886108
-0.7888363003730774 0.6112185120582581 0.5893691778182983
-0.789266049861908 0.6115080714225769 0.4562362730503082
-0.7896957397460938 0.6117976307868958 0.3231033384799957
-0.7901254892349243 0.6120871901512146 0.18997040390968323
-0.7905552387237549 0.6123767495155334 0.05683746188879013
-0.7909849882125854 0.6126663088798523 -0.07629547268152237
-0.791414737701416 0.6129558682441711 -0.20942841470241547
-0.7918444871902466 0.6132453680038452 -0.3425613343715668
-0.7922742366790771 0.6135349273681641 -0.4756942689418793
-0.7927039861679077 0.6138244867324829 -0.6088272333145142
-0.7931337356567383 0.6141140460968018 -0.7419601678848267
-0.7935634851455688 0.6144036054611206 -0.8750931024551392
-0.7939932346343994 0.6146931648254395 -1.0082260370254517
-0.6480787992477417 0.7570717930793762 0.9886369109153748
-0.6485084891319275 0.7573613524436951 0.8555039763450623
-0.6489382386207581 0.7576509118080139 0.7223710417747498
-0.6493679881095886 0.7579404711723328 0.5892381072044373
-0.6497977375984192 0.7582300305366516 0.45610517263412476
-0.6502274870872498 0.7585195899009705 0.32297223806381226
-0.6506572365760803 0.7588091492652893 0.18983930349349976
-0.6510869860649109 0.7590986490249634 0.056706372648477554
-0.6515167355537415 0.7593882083892822 -0.07642656564712524
-0.651946485042572 0.7596777677536011 -0.20955950021743774
-0.6523762345314026 0.7599673271179199 -0.34269243478775024
-0.6528059840202332 0.7602568864822388 -0.47582536935806274
-0.6532357335090637 0.7605464458465576 -0.6089583039283752
-0.6536654829978943 0.7608360052108765 -0.7420912384986877
-0.6540952324867249 0.7611255645751953 -0.8752241730690002
-0.6545249819755554 0.7614150643348694 -1.0083571672439575
-0.48193079233169556 0.8727157115936279 0.9883521199226379
-0.4823605418205261 0.8730052709579468 0.8552191853523254
-0.4827902913093567 0.8732948303222656 0.7220862507820129
-0.48322004079818726 0.8735843896865845 0.5889533162117004
-0.4836497902870178 0.8738738894462585 0.45582038164138794
-0.4840795397758484 0.8741634488105774 0.32268744707107544
-0.48450925946235657 0.8744530081748962 0.18955451250076294
-0.48493900895118713 0.8747425675392151 0.05642157047986984
-0.4853687584400177 0.8750321269035339 -0.07671136409044266
-0.48579850792884827 0.8753216862678528 -0.20984430611133575
-0.48622825741767883 0.8756112456321716 -0.34297722578048706
-0.4866580069065094 0.8759008049964905 -0.47611016035079956
-0.48708775639533997 0.8761903047561646 -0.6092430949211121
-0.48751750588417053 0.8764798641204834 -0.7423760294914246
-0.4879472255706787 0.8767694234848022 -0.8755089640617371
-0.4883769750595093 0.8770589828491211 -1.0086419582366943
-0.2959052324295044 0.9525470733642578 0.9879252910614014
-0.29633498191833496 0.9528366327285767 0.8547923564910889
-0.2967647314071655 0.9531261920928955 0.7216594219207764
-0.2971944808959961 0.9534157514572144 0.5885264873504639
-0.29762423038482666 0.9537053108215332 0.455393522977829
-0.2980539798736572 0.953994870185852 0.3222605884075165
-0.2984837293624878 0.9542844295501709 0.18912765383720398
-0.29891344904899597 0.954573929309845 0.05599471554160118
-0.29934319853782654 0.9548634886741638 -0.07713821530342102
-0.2997729480266571 0.9551530480384827 -0.21027114987373352
-0.30020269751548767 0.9554426074028015 -0.343404084444046
-0.30063244700431824 0.9557321667671204 -0.4765370190143585
-0.3010621964931488 0.9560217261314392 -0.6096699833869934
-0.30149194598197937 0.9563112854957581 -0.7428029179573059
-0.30192166566848755 0.9566008448600769 -0.8759358525276184
-0.3023514151573181 0.956890344619751 -1.0090687274932861
-0.09761800616979599 0.9932976961135864 0.9873738288879395
-0.09804775565862656 0.9935871958732605 0.854240894317627
-0.09847749769687653 0.9938767552375793 0.7211079597473145
-0.09890724718570709 0.9941663146018982 0.587975025177002
-0.09933698922395706 0.994455873966217 0.45484209060668945
-0.09976673126220703 0.9947454333305359 0.32170915603637695
-0.1001964807510376 0.9950349926948547 0.18857622146606445
-0.10062622278928757 0.9953245520591736 0.05544328689575195
-0.10105597227811813 0.9956140518188477 -0.07768964767456055
-0.1014857143163681 0.9959036111831665 -0.21082258224487305
-0.10191546380519867 0.9961931705474854 -0.34395551681518555
-0.10234520584344864 0.9964827299118042 -0.47708845138549805
-0.1027749553322792 0.996772289276123 -0.6102213859558105
-0.10320469737052917 0.9970618486404419 -0.743354320526123
-0.10363444685935974 0.9973514080047607 -0.8764872550964355
-0.10406418889760971 0.9976409673690796 -1.009620189666748
0.10481300204992294 0.9932990670204163 0.9867203831672668
0.10438326001167297 0.9935886263847351 0.8535874485969543
0.10395351052284241 0.993878185749054 0.7204545140266418
0.10352376848459244 0.9941677451133728 0.5873215794563293
0.10309401899576187 0.9944573044776917 0.45418864488601685
0.1026642769575119 0.9947468638420105 0.32105571031570435
0.10223452746868134 0.9950364232063293 0.18792279064655304
0.10180478543043137 0.9953259229660034 0.05478985235095024
0.1013750359416008 0.9956154823303223 -0.07834308594465256
0.10094529390335083 0.9959050416946411 -0.21147601306438446
0.10051554441452026 0.99619460105896 -0.34460896253585815
0.1000858023762703 0.9964841604232788 -0.47774189710617065
0.09965605288743973 0.9967737197875977 -0.6108748316764832
0.09922631084918976 0.9970632791519165 -0.7440077662467957
0.09879656881093979 0.9973528385162354 -0.8771407008171082
0.09836681932210922 0.9976423382759094 -1.0102735757827759
0.30310022830963135 0.9525513052940369 0.9859917163848877
0.3026704788208008 0.9528408646583557 0.8528587818145752
0.3022407591342926 0.9531304240226746 0.7197258472442627
0.30181100964546204 0.9534199833869934 0.5865929126739502
0.30138126015663147 0.9537094831466675 0.4534599781036377
0.3009515106678009 0.9539990425109863 0.3203270435333252
0.30052176117897034 0.9542886018753052 0.1871941089630127
0.30009201169013977 0.954578161239624 0.0540611706674099
0.2996622622013092 0.9548677206039429 -0.0790717676281929
0.299232542514801 0.9551572799682617 -0.2122046947479248
0.29880279302597046 0.9554468393325806 -0.3453376293182373
0.2983730435371399 0.9557363986968994 -0.4784705638885498
0.2979432940483093 0.9560258984565735 -0.6116034984588623
0.29751354455947876 0.9563154578208923 -0.7447364330291748
0.2970837950706482 0.9566050171852112 -0.8778693675994873
0.2966540455818176 0.95689457654953 -1.0110023021697998
0.4891257882118225 0.8727225065231323 0.9852176308631897
0.48869603872299194 0.8730120658874512 0.8520846962928772
0.48826631903648376 0.87330162525177 0.7189517617225647
0.4878365695476532 0.8735911846160889 0.5858188271522522
0.48740682005882263 0.8738807439804077 0.4526858627796173
0.48697707056999207 0.8741703033447266 0.3195529282093048
0.4865473210811615 0.8744598627090454 0.1864200085401535
0.48611757159233093 0.8747493624687195 0.053287070244550705
0.48568782210350037 0.8750389218330383 -0.0798458680510521
0.4852580726146698 0.8753284811973572 -0.212978795170784
0.4848283529281616 0.875618040561676 -0.3461117446422577
0.48439860343933105 0.8759075999259949 -0.4792446792125702
0.4839688539505005 0.8761971592903137 -0.6123775839805603
0.4835391044616699 0.8764867186546326 -0.7455105185508728
0.48310935497283936 0.8767762780189514 -0.8786434531211853
0.4826796054840088 0.8770657777786255 -1.0117764472961426
0.6552737951278687 0.7570809721946716 0.9844297766685486
0.6548440456390381 0.7573705315589905 0.8512968420982361
0.6544142961502075 0.7576600909233093 0.7181639075279236
0.653984546661377 0.7579495906829834 0.5850309729576111
0.6535547971725464 0.7582391500473022 0.4518980383872986
0.6531250476837158 0.7585287094116211 0.3187651038169861
0.6526952981948853 0.7588182687759399 0.18563218414783478
0.6522655487060547 0.7591078281402588 0.05249924585223198
0.6518357992172241 0.7593973875045776 -0.08063369244337082
0.6514060497283936 0.7596869468688965 -0.21376661956310272
0.650976300239563 0.7599765062332153 -0.3468995690345764
0.6505465507507324 0.7602660059928894 -0.4800325036048889
0.6501168012619019 0.7605555653572083 -0.6131654381752014
0.6496870517730713 0.7608451247215271 -0.7462983727455139
0.6492573022842407 0.761134684085846 -0.8794313073158264
0.6488276124000549 0.7614242434501648 -1.0125641822814941
0.7947420477867126 0.6103609800338745 0.9836605191230774
0.7943122982978821 0.6106505393981934 0.8505275845527649
0.7938825488090515 0.6109400987625122 0.7173946499824524
0.793452799320221 0.611229658126831 0.5842617154121399
0.7930230498313904 0.6115192174911499 0.451128751039505
0.7925933003425598 0.6118087768554688 0.3179958164691925
0.7921635508537292 0.6120982766151428 0.18486288189888
0.7917338013648987 0.6123878359794617 0.051729947328567505
0.7913040518760681 0.6126773953437805 -0.081402987241745
0.7908743023872375 0.6129669547080994 -0.2145359218120575
0.790444552898407 0.6132565140724182 -0.34766885638237
0.7900148630142212 0.6135460734367371 -0.4808017909526825
0.7895851135253906 0.6138356328010559 -0.6139347553253174
0.7891553640365601 0.61412513256073 -0.7470676898956299
0.7887256145477295 0.6144146919250488 -0.8802006244659424
0.7882958650588989 0.6147042512893677 -1.0133335590362549
0.9018207788467407 0.4385693371295929 0.982941210269928
0.9013910293579102 0.43885889649391174 0.8498082756996155
0.9009612798690796 0.4391484558582306 0.716675341129303
0.900531530380249 0.43943798542022705 0.5835424065589905
0.9001017808914185 0.4397275447845459 0.450409471988678
0.8996720314025879 0.44001710414886475 0.3172765374183655
0.8992422819137573 0.4403066337108612 0.18414360284805298
0.8988125324249268 0.44059619307518005 0.05101067200303078
0.8983827829360962 0.4408857524394989 -0.08212226629257202
0.8979530334472656 0.44117531180381775 -0.21525520086288452
0.8975232839584351 0.4414648413658142 -0.348388135433197
0.8970935344696045 0.44175440073013306 -0.4815210700035095
0.8966637849807739 0.4420439600944519 -0.614654004573822
0.8962340354919434 0.44233351945877075 -0.7477869391441345
0.8958043456077576 0.4426230490207672 -0.880919873714447
0.895374596118927 0.44291260838508606 -1.0140528678894043
0.9721261262893677 0.24873918294906616 0.9823014140129089
0.9716963768005371 0.24902872741222382 0.8491684794425964
0.9712666273117065 0.24931828677654266 0.7160355448722839
0.970836877822876 0.24960783123970032 0.5829026103019714
0.9704071283340454 0.24989739060401917 0.44976967573165894
0.9699773788452148 0.250186949968338 0.31663674116134644
0.9695476293563843 0.2504764795303345 0.18350380659103394
0.9691178798675537 0.2507660388946533 0.05037086829543114
0.9686881303787231 0.25105559825897217 -0.08276207000017166
0.9682583808898926 0.251345157623291 -0.21589499711990356
0.967828631401062 0.2516346871852875 -0.34902793169021606
0.9673988819122314 0.2519242465496063 -0.48216086626052856
0.9669691324234009 0.25221380591392517 -0.6152938008308411
0.9665394425392151 0.252503365278244 -0.7484267354011536
0.9661096930503845 0.2527928948402405 -0.8815596699714661
0.965679943561554 0.2530824542045593 -1.0146926641464233
1.0027798414230347 0.04864218458533287 0.9817672967910767
1.002350091934204 0.04893173649907112 0.8486343622207642
1.0019203424453735 0.04922128841280937 0.7155014276504517
1.001490592956543 0.04951084032654762 0.5823684930801392
1.0010608434677124 0.04980039224028587 0.4492355287075043
1.0006310939788818 0.050089944154024124 0.3161025941371918
1.0002013444900513 0.050379496067762375 0.18296965956687927
0.9997715950012207 0.050669047981500626 0.04983672872185707
0.9993418455123901 0.050958599895238876 -0.08329620957374573
0.9989120960235596 0.05124815180897713 -0.21642914414405823
0.998482346534729 0.05153770372271538 -0.3495620787143707
0.9980525970458984 0.05182725191116333 -0.4826950132846832
0.9976228475570679 0.05211680382490158 -0.6158279776573181
0.9971930980682373 0.05240635573863983 -0.7489609122276306
0.9967633485794067 0.05269590765237808 -0.8820938467979431
0.9963335990905762 0.05298545956611633 -1.0152267217636108
0.9925268292427063 -0.15352965891361237 0.981360673904419
0.9920970797538757 -0.15324009954929352 0.8482277393341064
0.9916673302650452 -0.15295055508613586 0.715094804763794
0.9912375807762146 -0.15266099572181702 0.5819618701934814
0.990807831287384 -0.15237145125865936 0.44882893562316895
0.9903780817985535 -0.15208189189434052 0.31569600105285645
0.9899483323097229 -0.15179234743118286 0.18256305158138275
0.9895185828208923 -0.151502788066864 0.04943011701107025
0.9890888333320618 -0.15121324360370636 -0.08370281755924225
0.988659143447876 -0.1509236842393875 -0.21683575212955475
0.9882293939590454 -0.15063413977622986 -0.34996870160102844
0.9877996444702148 -0.150344580411911 -0.48310163617134094
0.9873698949813843 -0.15005503594875336 -0.616234540939331
0.9869401454925537 -0.1497654765844345 -0.7493674755096436
0.9865103960037231 -0.14947593212127686 -0.882500410079956
0.9860806465148926 -0.149186372756958 -1.0156333446502686
0.9417870044708252 -0.3494994044303894 0.9810982346534729
0.9413572549819946 -0.34920984506607056 0.8479653000831604
0.9409275054931641 -0.3489202857017517 0.7148323655128479
0.9404977560043335 -0.34863072633743286 0.5816994309425354
0.9400680065155029 -0.3483411967754364 0.4485664963722229
0.9396382570266724 -0.34805163741111755 0.3154335618019104
0.9392085075378418 -0.3477620780467987 0.1823006272315979
0.9387787580490112 -0.34747251868247986 0.0491676889359951
0.9383490085601807 -0.3471829891204834 -0.0839652493596077
0.9379192590713501 -0.34689342975616455 -0.2170981764793396
0.9374895095825195 -0.3466038703918457 -0.3502311110496521
0.937059760093689 -0.34631434082984924 -0.4833640456199646
0.9366300106048584 -0.3460247814655304 -0.6164969801902771
0.9362002611160278 -0.34573522210121155 -0.7496299147605896
0.9357705116271973 -0.3454456627368927 -0.8827628493309021
0.9353408217430115 -0.34515613317489624 -1.0158958435058594
0.852637529373169 -0.5312440395355225 0.9809907078742981
0.8522077798843384 -0.5309544801712036 0.8478577733039856
0.8517780303955078 -0.5306649208068848 0.7147248387336731
0.8513482809066772 -0.5303753614425659 0.5815919041633606
0.8509185910224915 -0.5300858020782471 0.4484589993953705
0.8504888415336609 -0.5297962427139282 0.315326064825058
0.8500590920448303 -0.5295066833496094 0.1821931153535843
0.8496293425559998 -0.5292171835899353 0.04906018078327179
0.8491995930671692 -0.5289276242256165 -0.08407275378704071
0.8487698435783386 -0.5286380648612976 -0.2172056883573532
0.8483400940895081 -0.5283485054969788 -0.3503386378288269
0.8479103446006775 -0.5280589461326599 -0.4834715723991394
0.8474805951118469 -0.5277693867683411 -0.6166045069694519
0.8470508456230164 -0.5274798274040222 -0.7497374415397644
0.8466210961341858 -0.5271902680397034 -0.8828703761100769
0.8461913466453552 -0.5269007682800293 -1.0160032510757446
0.7287282943725586 -0.6913228631019592 0.9810425639152527
0.728298544883728 -0.6910333037376404 0.8479096293449402
0.7278687953948975 -0.6907437443733215 0.7147766947746277
0.7274391055107117 -0.6904542446136475 0.5816437602043152
0.7270093560218811 -0.6901646852493286 0.4485107958316803
0.7265796065330505 -0.6898751258850098 0.3153778612613678
0.72614985704422 -0.6895855665206909 0.1822449266910553
0.7257201075553894 -0.6892960071563721 0.049111995846033096
0.7252903580665588 -0.6890064477920532 -0.0840209424495697
0.7248606085777283 -0.6887168884277344 -0.2171538770198822
0.7244308590888977 -0.6884273290634155 -0.3502868115901947
0.7240011096000671 -0.6881378293037415 -0.4834197461605072
0.7235713601112366 -0.6878482699394226 -0.6165527105331421
0.723141610622406 -0.6875587105751038 -0.7496856451034546
0.7227118611335754 -0.6872691512107849 -0.8828185796737671
0.7222821116447449 -0.6869795918464661 -1.0159515142440796
0.5751321315765381 -0.8231823444366455 0.9812515377998352
0.5747023820877075 -0.8228927850723267 0.8481186032295227
0.574272632598877 -0.8226032257080078 0.7149856686592102
0.5738428831100464 -0.822313666343689 0.5818527340888977
0.5734131336212158 -0.8220241069793701 0.4487198293209076
0.5729833841323853 -0.8217345476150513 0.3155868947505951
0.5725536942481995 -0.8214449882507324 0.1824539452791214
0.5721239447593689 -0.8211554288864136 0.0493210144340992
0.5716941952705383 -0.8208659291267395 -0.0838119238615036
0.5712644457817078 -0.8205763697624207 -0.2169448584318161
0.5708346962928772 -0.8202868103981018 -0.3500777781009674
0.5704049468040466 -0.819997251033783 -0.4832107424736023
0.5699751973152161 -0.8197076916694641 -0.6163436770439148
0.5695454478263855 -0.8194181323051453 -0.7494766116142273
0.5691156983375549 -0.8191285729408264 -0.8826095461845398
0.5686859488487244 -0.8188390135765076 -1.0157424211502075
0.39813727140426636 -0.9214240312576294 0.9816092252731323
0.3977075219154358 -0.9211344718933105 0.8484762907028198
0.3972777724266052 -0.9208449125289917 0.7153433561325073
0.39684802293777466 -0.9205553531646729 0.5822104215621948
0.3964183032512665 -0.920265793800354 0.4490774869918823
0.3959885537624359 -0.9199762344360352 0.3159445524215698
0.39555880427360535 -0.9196866750717163 0.18281161785125732
0.3951290547847748 -0.9193971157073975 0.04967867583036423
0.3946993052959442 -0.9191076159477234 -0.08345425873994827
0.39426955580711365 -0.9188180565834045 -0.21658720076084137
0.3938398063182831 -0.9185284972190857 -0.3497201204299927
0.3934100866317749 -0.9182389378547668 -0.4828530550003052
0.39298033714294434 -0.917949378490448 -0.6159859895706177
0.39255058765411377 -0.9176598191261292 -0.7491189241409302
0.3921208381652832 -0.9173702597618103 -0.8822518587112427
0.39169108867645264 -0.9170807003974915 -1.0153847932815552
0.20498989522457123 -0.9820259213447571 0.9821009039878845
0.20456016063690186 -0.9817363619804382 0.848967969417572
0.2041304111480713 -0.9814468026161194 0.7158350348472595
0.20370066165924072 -0.9811572432518005 0.582702100276947
0.20327091217041016 -0.9808676838874817 0.44956913590431213
0.20284117758274078 -0.9805781245231628 0.31643620133399963
0.20241142809391022 -0.9802886247634888 0.18330328166484833
0.20198167860507965 -0.9799990653991699 0.05017034336924553
0.20155192911624908 -0.9797095060348511 -0.08296259492635727
0.2011221945285797 -0.9794199466705322 -0.21609552204608917
0.20069244503974915 -0.9791303873062134 -0.34922847151756287
0.20026269555091858 -0.9788408279418945 -0.48236140608787537
0.199832946062088 -0.9785512685775757 -0.6154943108558655
0.19940321147441864 -0.9782617688179016 -0.748627245426178
0.19897346198558807 -0.9779722094535828 -0.8817601799964905
0.1985437124967575 -0.9776826500892639 -1.0148931741714478
0.0035974979400634766 -1.002506971359253 0.9827064275741577
0.0031677524093538523 -1.002217411994934 0.8495734930038452
0.002738006878644228 -1.0019278526306152 0.7164405584335327
0.0023082613479346037 -1.0016382932662964 0.5833076238632202
0.0018785158172249794 -1.0013487339019775 0.4501746892929077
0.0014487702865153551 -1.0010591745376587 0.3170417547225952
0.0010190247558057308 -1.0007697343826294 0.18390882015228271
0.0005892792833037674 -1.0004801750183105 0.050775881856679916
0.00015953376714605838 -1.0001906156539917 -0.08235705643892288
-0.0002702117490116507 -0.9999009966850281 -0.21548998355865479
-0.0006999572506174445 -0.999611496925354 -0.3486229181289673
-0.0011297027813270688 -0.9993219375610352 -0.4817558526992798
-0.001559448312036693 -0.9990323781967163 -0.6148887872695923
-0.001989193959161639 -0.9987428188323975 -0.7480217218399048
-0.00241893925704062 -0.9984532594680786 -0.8811546564102173
-0.002848684787750244 -0.9981637001037598 -1.0142875909805298
