ply
format ascii 1.0
element vertex 512
property float x
property float y
property float z
end_header
-1.4811657667160034 -1.7527527809143066 0.010767936706542969
-1.3013116121292114 -1.7527527809143066 0.010357032530009747
-1.1214574575424194 -1.7527527809143066 0.009946129284799099
-0.9416033029556274 -1.7527527809143066 0.009535225108265877
-0.7617490887641907 -1.7527527809143066 0.00912432186305523
-0.5818949341773987 -1.7527527809143066 0.008713417686522007
-0.4020407795906067 -1.7527527809143066 0.008302513509988785
-0.2221866250038147 -1.7527527809143066 0.007891610264778137
-0.042332470417022705 -1.7527527809143066 0.007480706088244915
0.13752169907093048 -1.7527527809143066 0.00706980237737298
0.31737586855888367 -1.7527527809143066 0.006658898666501045
0.49723002314567566 -1.7527527809143066 0.00624799495562911
0.67708420753479 -1.7527527809143066 0.005837090779095888
0.856938362121582 -1.7527527809143066 0.005426187068223953
1.036792516708374 -1.7527527809143066 0.005015283357352018
1.216646671295166 -1.7527527809143066 0.0046043796464800835
-1.4817105531692505 -1.7285043001174927 -0.22768647968769073
-1.3018563985824585 -1.7285043001174927 -0.22809737920761108
-1.1220022439956665 -1.7285043001174927 -0.22850827872753143
-0.9421480894088745 -1.7285043001174927 -0.22891919314861298
-0.7622938752174377 -1.7285043001174927 -0.22933009266853333
-0.5824397206306458 -1.7285043001174927 -0.22974099218845367
-0.40258556604385376 -1.7285043001174927 -0.23015189170837402
-0.22273141145706177 -1.7285043001174927 -0.23056280612945557
-0.042877256870269775 -1.7285043001174927 -0.23097370564937592
0.1369769126176834 -1.7285043001174927 -0.23138460516929626
0.3168310821056366 -1.7285043001174927 -0.2317955195903778
0.4966852366924286 -1.7285043001174927 -0.23220641911029816
0.676539421081543 -1.7285043001174927 -0.2326173186302185
0.856393575668335 -1.7285043001174927 -0.23302821815013885
1.036247730255127 -1.7285043001174927 -0.2334391325712204
1.216101884841919 -1.7285043001174927 -0.23385003209114075
-1.4822330474853516 -1.6567515134811401 -0.4563785493373871
-1.3023788928985596 -1.6567515134811401 -0.45678943395614624
-1.1225247383117676 -1.6567515134811401 -0.4572003483772278
-0.9426705241203308 -1.6567515134811401 -0.45761123299598694
-0.7628163695335388 -1.6567515134811401 -0.4580221474170685
-0.5829622149467468 -1.6567515134811401 -0.45843306183815
-0.40310806035995483 -1.6567515134811401 -0.4588439464569092
-0.22325390577316284 -1.6567515134811401 -0.4592548608779907
-0.043399736285209656 -1.6567515134811401 -0.45966577529907227
0.13645441830158234 -1.6567515134811401 -0.4600766599178314
0.3163085877895355 -1.6567515134811401 -0.46048757433891296
0.4961627423763275 -1.6567515134811401 -0.4608984887599945
0.6760169267654419 -1.6567515134811401 -0.46130937337875366
0.8558710813522339 -1.6567515134811401 -0.4617202877998352
1.0357252359390259 -1.6567515134811401 -0.46213120222091675
1.2155793905258179 -1.6567515134811401 -0.4625420868396759
-1.4827117919921875 -1.5404319763183594 -0.6659455895423889
-1.3028576374053955 -1.5404319763183594 -0.6663564443588257
-1.1230034828186035 -1.5404319763183594 -0.6667673587799072
-0.9431493282318115 -1.5404319763183594 -0.6671782732009888
-0.7632951736450195 -1.5404319763183594 -0.6675891876220703
-0.5834410190582275 -1.5404319763183594 -0.6680001020431519
-0.40358683466911316 -1.5404319763183594 -0.6684110164642334
-0.22373268008232117 -1.5404319763183594 -0.6688218712806702
-0.043878525495529175 -1.5404319763183594 -0.6692327857017517
0.135975643992424 -1.5404319763183594 -0.6696437001228333
0.3158298134803772 -1.5404319763183594 -0.6700546145439148
0.4956839680671692 -1.5404319763183594 -0.6704655289649963
0.6755381226539612 -1.5404319763183594 -0.6708763837814331
0.8553922772407532 -1.5404319763183594 -0.6712872982025146
1.03524649143219 -1.5404319763183594 -0.6716982126235962
1.215100646018982 -1.5404319763183594 -0.6721091270446777
-1.4831273555755615 -1.3843079805374146 -0.8478078842163086
-1.3032732009887695 -1.3843079805374146 -0.8482187390327454
-1.1234190464019775 -1.3843079805374146 -0.8486296534538269
-0.9435648322105408 -1.3843079805374146 -0.8490405678749084
-0.7637106776237488 -1.3843079805374146 -0.84945148229599
-0.5838565230369568 -1.3843079805374146 -0.8498623967170715
-0.4040023386478424 -1.3843079805374146 -0.8502733111381531
-0.22414818406105042 -1.3843079805374146 -0.8506841659545898
-0.04429401457309723 -1.3843079805374146 -0.8510950803756714
0.13556014001369476 -1.3843079805374146 -0.8515059947967529
0.31541430950164795 -1.3843079805374146 -0.8519169092178345
0.49526846408843994 -1.3843079805374146 -0.852327823638916
0.6751226186752319 -1.3843079805374146 -0.8527387380599976
0.8549767732620239 -1.3843079805374146 -0.8531495928764343
1.034830927848816 -1.3843079805374146 -0.8535605072975159
1.214685082435608 -1.3843079805374146 -0.8539714217185974
-1.4834624528884888 -1.1947710514068604 -0.9945199489593506
-1.3036082983016968 -1.1947710514068604 -0.9949308633804321
-1.1237541437149048 -1.1947710514068604 -0.9953417778015137
-0.9438999891281128 -1.1947710514068604 -0.9957526922225952
-0.7640458345413208 -1.1947710514068604 -0.9961636066436768
-0.5841916799545288 -1.1947710514068604 -0.9965744614601135
-0.4043375253677368 -1.1947710514068604 -0.9969853758811951
-0.22448337078094482 -1.1947710514068604 -0.9973962903022766
-0.04462920129299164 -1.1947710514068604 -0.9978072047233582
0.13522495329380035 -1.1947710514068604 -0.9982181191444397
0.31507912278175354 -1.1947710514068604 -0.9986290335655212
0.49493327736854553 -1.1947710514068604 -0.999039888381958
0.6747874617576599 -1.1947710514068604 -0.9994508028030396
0.8546416163444519 -1.1947710514068604 -0.9998617172241211
1.0344957113265991 -1.1947710514068604 -1.0002726316452026
1.2143499851226807 -1.1947710514068604 -1.0006835460662842
-1.48370361328125 -0.9795809388160706 -1.1000754833221436
-1.303849458694458 -0.9795809388160706 -1.100486397743225
-1.123995304107666 -0.9795809388160706 -1.1008973121643066
-0.944141149520874 -0.9795809388160706 -1.1013082265853882
-0.764286994934082 -0.9795809388160706 -1.1017191410064697
-0.58443284034729 -0.9795809388160706 -1.1021299362182617
-0.40457868576049805 -0.9795809388160706 -1.1025408506393433
-0.22472451627254486 -0.9795809388160706 -1.1029517650604248
-0.04487035796046257 -0.9795809388160706 -1.1033626794815063
0.13498380780220032 -0.9795809388160706 -1.103773593902588
0.3148379623889923 -0.9795809388160706 -1.1041845083236694
0.4946921169757843 -0.9795809388160706 -1.104595422744751
0.6745463013648987 -0.9795809388160706 -1.1050063371658325
0.8544004559516907 -0.9795809388160706 -1.105417251586914
1.0342546701431274 -0.9795809388160706 -1.1058281660079956
1.2141088247299194 -0.9795809388160706 -1.1062390804290771
-1.4838409423828125 -0.7475475668907166 -1.1601529121398926
-1.3039867877960205 -0.7475475668907166 -1.1605638265609741
-1.1241326332092285 -0.7475475668907166 -1.1609747409820557
-0.9442784190177917 -0.7475475668907166 -1.1613856554031372
-0.7644242644309998 -0.7475475668907166 -1.1617965698242188
-0.5845701098442078 -0.7475475668907166 -1.1622074842453003
-0.4047159254550934 -0.7475475668907166 -1.1626182794570923
-0.2248617708683014 -0.7475475668907166 -1.1630291938781738
-0.0450076162815094 -0.7475475668907166 -1.1634401082992554
0.1348465532064438 -0.7475475668907166 -1.163851022720337
0.314700722694397 -0.7475475668907166 -1.1642619371414185
0.49455487728118896 -0.7475475668907166 -1.1646728515625
0.674409031867981 -0.7475475668907166 -1.1650837659835815
0.854263186454773 -0.7475475668907166 -1.165494680404663
1.034117341041565 -0.7475475668907166 -1.1659055948257446
1.213971495628357 -0.7475475668907166 -1.1663165092468262
-1.4838685989379883 -0.5081704258918762 -1.172292709350586
-1.3040144443511963 -0.5081704258918762 -1.1727036237716675
-1.1241602897644043 -0.5081704258918762 -1.173114538192749
-0.9443061351776123 -0.5081704258918762 -1.1735254526138306
-0.7644519805908203 -0.5081704258918762 -1.173936367034912
-0.5845978260040283 -0.5081704258918762 -1.1743472814559937
-0.40474367141723633 -0.5081704258918762 -1.1747580766677856
-0.22488951683044434 -0.5081704258918762 -1.1751689910888672
-0.04503535106778145 -0.5081704258918762 -1.1755799055099487
0.13481880724430084 -0.5081704258918762 -1.1759908199310303
0.31467297673225403 -0.5081704258918762 -1.1764017343521118
0.494527131319046 -0.5081704258918762 -1.1768126487731934
0.6743813157081604 -0.5081704258918762 -1.177223563194275
0.8542354702949524 -0.5081704258918762 -1.1776344776153564
1.0340895652770996 -0.5081704258918762 -1.178045392036438
1.2139438390731812 -0.5081704258918762 -1.1784563064575195
-1.4837857484817505 -0.2712496221065521 -1.1359978914260864
-1.3039315938949585 -0.2712496221065521 -1.136408805847168
-1.1240774393081665 -0.2712496221065521 -1.1368197202682495
-0.9442232251167297 -0.2712496221065521 -1.137230634689331
-0.7643690705299377 -0.2712496221065521 -1.137641429901123
-0.5845149159431458 -0.2712496221065521 -1.1380523443222046
-0.40466076135635376 -0.2712496221065521 -1.1384632587432861
-0.22480659186840057 -0.2712496221065521 -1.1388741731643677
-0.044952429831027985 -0.2712496221065521 -1.1392850875854492
0.1349017322063446 -0.2712496221065521 -1.1396960020065308
0.3147558867931366 -0.2712496221065521 -1.1401069164276123
0.494610071182251 -0.2712496221065521 -1.1405178308486938
0.674464225769043 -0.2712496221065521 -1.1409287452697754
0.854318380355835 -0.2712496221065521 -1.141339659690857
1.034172534942627 -0.2712496221065521 -1.1417505741119385
1.214026689529419 -0.2712496221065521 -1.14216148853302
-1.4835954904556274 -0.04648471251130104 -1.052754282951355
-1.3037413358688354 -0.04648471251130104 -1.0531651973724365
-1.1238871812820435 -0.04648471251130104 -1.053576111793518
-0.9440330862998962 -0.04648471251130104 -1.0539870262145996
-0.7641788721084595 -0.04648471251130104 -1.0543979406356812
-0.5843247175216675 -0.04648471251130104 -1.0548088550567627
-0.4044705629348755 -0.04648471251130104 -1.0552197694778442
-0.2246164083480835 -0.04648471251130104 -1.0556306838989258
-0.04476224631071091 -0.04648471251130104 -1.0560414791107178
0.13509191572666168 -0.04648471251130104 -1.0564523935317993
0.31494608521461487 -0.04648471251130104 -1.0568633079528809
0.49480023980140686 -0.04648471251130104 -1.0572742223739624
0.6746544241905212 -0.04648471251130104 -1.057685136795044
0.8545085787773132 -0.04648471251130104 -1.0580960512161255
1.0343626737594604 -0.04648471251130104 -1.058506965637207
1.2142168283462524 -0.04648471251130104 -1.0589178800582886
-1.4833059310913086 0.15692239999771118 -0.9259700179100037
-1.3034517765045166 0.15692239999771118 -0.9263809323310852
-1.123597502708435 0.15692239999771118 -0.9267918467521667
-0.9437434077262878 0.15692239999771118 -0.9272027015686035
-0.7638892531394958 0.15692239999771118 -0.9276136159896851
-0.5840350985527039 0.15692239999771118 -0.9280245304107666
-0.4041809141635895 0.15692239999771118 -0.9284354448318481
-0.2243267446756363 0.15692239999771118 -0.9288463592529297
-0.0444725900888443 0.15692239999771118 -0.9292572736740112
0.1353815793991089 0.15692239999771118 -0.929668128490448
0.3152357339859009 0.15692239999771118 -0.9300790429115295
0.49508988857269287 0.15692239999771118 -0.9304899573326111
0.6749440431594849 0.15692239999771118 -0.9309008717536926
0.8547981977462769 0.15692239999771118 -0.9313117861747742
1.0346523523330688 0.15692239999771118 -0.9317226409912109
1.2145065069198608 0.15692239999771118 -0.9321335554122925
-1.4829286336898804 0.3306441903114319 -0.760835587978363
-1.3030744791030884 0.3306441903114319 -0.7612464427947998
-1.1232203245162964 0.3306441903114319 -0.7616573572158813
-0.9433661103248596 0.3306441903114319 -0.7620682716369629
-0.7635119557380676 0.3306441903114319 -0.7624791860580444
-0.5836578011512756 0.3306441903114319 -0.762890100479126
-0.40380364656448364 0.3306441903114319 -0.7633010149002075
-0.22394947707653046 0.3306441903114319 -0.7637118697166443
-0.04409531503915787 0.3306441903114319 -0.7641227841377258
0.13575884699821472 0.3306441903114319 -0.7645336985588074
0.3156130015850067 0.3306441903114319 -0.7649446129798889
0.4954671859741211 0.3306441903114319 -0.7653555274009705
0.6753213405609131 0.3306441903114319 -0.7657663822174072
0.8551754951477051 0.3306441903114319 -0.7661772966384888
1.035029649734497 0.3306441903114319 -0.7665882110595703
1.214883804321289 0.3306441903114319 -0.7669991254806519
-1.482479214668274 0.4675684869289398 -0.564111590385437
-1.302625060081482 0.4675684869289398 -0.5645225048065186
-1.1227707862854004 0.4675684869289398 -0.5649333596229553
-0.9429166913032532 0.4675684869289398 -0.5653442740440369
-0.7630625367164612 0.4675684869289398 -0.5657551884651184
-0.5832083821296692 0.4675684869289398 -0.5661661028862
-0.4033541977405548 0.4675684869289398 -0.5665770173072815
-0.22350002825260162 0.4675684869289398 -0.5669878721237183
-0.04364586994051933 0.4675684869289398 -0.5673987865447998
0.13620829582214355 0.4675684869289398 -0.5678097009658813
0.31606245040893555 0.4675684869289398 -0.5682206153869629
0.49591660499572754 0.4675684869289398 -0.5686315298080444
0.6757707595825195 0.4675684869289398 -0.569042444229126
0.8556249141693115 0.4675684869289398 -0.5694532990455627
1.0354790687561035 0.4675684869289398 -0.5698642134666443
1.2153332233428955 0.4675684869289398 -0.5702751278877258
-1.4819759130477905 0.5620895624160767 -0.3438519537448883
-1.3021217584609985 0.5620895624160767 -0.34426283836364746
-1.1222676038742065 0.5620895624160767 -0.344673752784729
-0.9424134492874146 0.5620895624160767 -0.34508466720581055
-0.7625592947006226 0.5620895624160767 -0.3454955518245697
-0.5827051401138306 0.5620895624160767 -0.34590646624565125
-0.4028509855270386 0.5620895624160767 -0.3463173806667328
-0.2229968160390854 0.5620895624160767 -0.34672826528549194
-0.0431426540017128 0.5620895624160767 -0.3471391797065735
0.1367115080356598 0.5620895624160767 -0.34755009412765503
0.3165656626224518 0.5620895624160767 -0.3479609787464142
0.49641984701156616 0.5620895624160767 -0.3483718931674957
0.6762740015983582 0.5620895624160767 -0.3487827777862549
0.8561281561851501 0.5620895624160767 -0.3491936922073364
1.035982370376587 0.5620895624160767 -0.34960460662841797
1.215836524963379 0.5620895624160767 -0.3500154912471771
-1.4814395904541016 0.6103377938270569 -0.10907413810491562
-1.3015854358673096 0.6103377938270569 -0.10948504507541656
-1.1217312812805176 0.6103377938270569 -0.10989594459533691
-0.9418770670890808 0.6103377938270569 -0.11030685156583786
-0.7620229125022888 0.6103377938270569 -0.1107177585363388
-0.5821687579154968 0.6103377938270569 -0.11112865805625916
-0.40231460332870483 0.6103377938270569 -0.1115395650267601
-0.22246043384075165 0.6103377938270569 -0.11195046454668045
-0.04260626807808876 0.6103377938270569 -0.1123613715171814
0.13724789023399353 0.6103377938270569 -0.11277227103710175
0.3171020448207855 0.6103377938270569 -0.11318317800760269
0.4969562292098999 0.6103377938270569 -0.11359408497810364
0.6768103837966919 0.6103377938270569 -0.11400498449802399
0.8566645383834839 0.6103377938270569 -0.11441589146852493
1.0365186929702759 0.6103377938270569 -0.11482679098844528
1.2163728475570679 0.6103377938270569 -0.11523769795894623
-1.4808919429779053 0.6103377938270569 0.13061001896858215
-1.3010377883911133 0.6103377938270569 0.1301991045475006
-1.1211836338043213 0.6103377938270569 0.12978820502758026
-0.9413294792175293 0.6103377938270569 0.1293773055076599
-0.7614753246307373 0.6103377938270569 0.12896639108657837
-0.5816211700439453 0.6103377938270569 0.12855549156665802
-0.40176698565483093 0.6103377938270569 0.12814459204673767
-0.22191283106803894 0.6103377938270569 0.12773369252681732
-0.04205867275595665 0.6103377938270569 0.12732277810573578
0.13779549300670624 0.6103377938270569 0.12691187858581543
0.3176496624946594 0.6103377938270569 0.12650097906589508
0.4975038170814514 0.6103377938270569 0.12609006464481354
0.6773579716682434 0.6103377938270569 0.1256791651248932
0.8572121262550354 0.6103377938270569 0.12526826560497284
1.0370663404464722 0.6103377938270569 0.1248573586344719
1.2169204950332642 0.6103377938270569 0.12444645911455154
-1.4803556203842163 0.5620895624160767 0.36538782715797424
-1.3005014657974243 0.5620895624160767 0.3649769127368927
-1.1206473112106323 0.5620895624160767 0.36456599831581116
-0.9407930970191956 0.5620895624160767 0.364155113697052
-0.7609389424324036 0.5620895624160767 0.36374419927597046
-0.5810847878456116 0.5620895624160767 0.3633333146572113
-0.4012306034564972 0.5620895624160767 0.36292240023612976
-0.2213764488697052 0.5620895624160767 0.3625114858150482
-0.04152228683233261 0.5620895624160767 0.36210060119628906
0.13833187520503998 0.5620895624160767 0.3616896867752075
0.31818604469299316 0.5620895624160767 0.361278772354126
0.49804019927978516 0.5620895624160767 0.3608678877353668
0.6778943538665771 0.5620895624160767 0.3604569733142853
0.8577485084533691 0.5620895624160767 0.36004605889320374
1.0376026630401611 0.5620895624160767 0.3596351742744446
1.2174568176269531 0.5620895624160767 0.35922425985336304
-1.479852318763733 0.4675684869289398 0.585647463798523
-1.299998164176941 0.4675684869289398 0.5852365493774414
-1.120144009590149 0.4675684869289398 0.5848256349563599
-0.9402898550033569 0.4675684869289398 0.5844147205352783
-0.7604357004165649 0.4675684869289398 0.5840038061141968
-0.580581545829773 0.4675684869289398 0.58359295129776
-0.40072739124298096 0.4675684869289398 0.5831820368766785
-0.22087323665618896 0.4675684869289398 0.5827711224555969
-0.04101907089352608 0.4675684869289398 0.5823602080345154
0.1388350874185562 0.4675684869289398 0.5819492936134338
0.3186892569065094 0.4675684869289398 0.5815383791923523
0.4985434114933014 0.4675684869289398 0.5811275243759155
0.6783975958824158 0.4675684869289398 0.580716609954834
0.8582517504692078 0.4675684869289398 0.5803056955337524
1.038105845451355 0.4675684869289398 0.5798947811126709
1.2179601192474365 0.4675684869289398 0.5794838666915894
-1.4794028997421265 0.3306441903114319 0.782371461391449
-1.2995487451553345 0.3306441903114319 0.7819605469703674
-1.1196945905685425 0.3306441903114319 0.7815496325492859
-0.9398404359817505 0.3306441903114319 0.7811387181282043
-0.7599862813949585 0.3306441903114319 0.7807278037071228
-0.5801321268081665 0.3306441903114319 0.7803168892860413
-0.4002779424190521 0.3306441903114319 0.7799060344696045
-0.22042378783226013 0.3306441903114319 0.779495120048523
-0.04056962579488754 0.3306441903114319 0.7790842056274414
0.13928453624248505 0.3306441903114319 0.7786732912063599
0.31913870573043823 0.3306441903114319 0.7782623767852783
0.4989928603172302 0.3306441903114319 0.7778515219688416
0.6788470149040222 0.3306441903114319 0.77744060754776
0.8587011694908142 0.3306441903114319 0.7770296931266785
1.038555383682251 0.3306441903114319 0.7766187787055969
1.218409538269043 0.3306441903114319 0.7762078642845154
-1.4790256023406982 0.15692239999771118 0.9475058913230896
-1.2991714477539062 0.15692239999771118 0.9470949769020081
-1.1193172931671143 0.15692239999771118 0.9466840624809265
-0.9394631385803223 0.15692239999771118 0.946273148059845
-0.7596089839935303 0.15692239999771118 0.9458622932434082
-0.5797548294067383 0.15692239999771118 0.9454513788223267
-0.3999006748199463 0.15692239999771118 0.9450404644012451
-0.2200465202331543 0.15692239999771118 0.9446295499801636
-0.04019235074520111 0.15692239999771118 0.944218635559082
0.13966180384159088 0.15692239999771118 0.9438077807426453
0.31951597332954407 0.15692239999771118 0.9433968663215637
0.49937012791633606 0.15692239999771118 0.9429859519004822
0.6792243123054504 0.15692239999771118 0.9425750374794006
0.8590784668922424 0.15692239999771118 0.9421641230583191
1.0389325618743896 0.15692239999771118 0.9417532086372375
1.2187868356704712 0.15692239999771118 0.9413423538208008
-1.4787360429763794 -0.04648471251130104 1.074290156364441
-1.2988817691802979 -0.04648471251130104 1.0738792419433594
-1.1190276145935059 -0.04648471251130104 1.0734683275222778
-0.9391735196113586 -0.04648471251130104 1.0730574131011963
-0.7593193650245667 -0.04648471251130104 1.0726466178894043
-0.5794651508331299 -0.04648471251130104 1.0722357034683228
-0.3996110260486603 -0.04648471251130104 1.0718247890472412
-0.2197568565607071 -0.04648471251130104 1.0714138746261597
-0.0399026945233345 -0.04648471251130104 1.0710029602050781
0.13995146751403809 -0.04648471251130104 1.0705920457839966
0.3198056221008301 -0.04648471251130104 1.070181131362915
0.49965980648994446 -0.04648471251130104 1.0697702169418335
0.6795139312744141 -0.04648471251130104 1.069359302520752
0.8593681454658508 -0.04648471251130104 1.0689483880996704
1.039222240447998 -0.04648471251130104 1.0685374736785889
1.21907639503479 -0.04648471251130104 1.0681266784667969
-1.4785457849502563 -0.2712496221065521 1.1575337648391724
-1.2986916303634644 -0.2712496221065521 1.1571228504180908
-1.1188374757766724 -0.2712496221065521 1.1567119359970093
-0.9389833211898804 -0.2712496221065521 1.1563010215759277
-0.7591291666030884 -0.2712496221065521 1.1558901071548462
-0.5792750120162964 -0.2712496221065521 1.1554791927337646
-0.399420827627182 -0.2712496221065521 1.155068278312683
-0.21956667304039001 -0.2712496221065521 1.1546573638916016
-0.039712511003017426 -0.2712496221065521 1.1542465686798096
0.14014165103435516 -0.2712496221065521 1.153835654258728
0.31999582052230835 -0.2712496221065521 1.1534247398376465
0.49984997510910034 -0.2712496221065521 1.153013825416565
0.6797041296958923 -0.2712496221065521 1.1526029109954834
0.8595582842826843 -0.2712496221065521 1.1521919965744019
1.039412498474121 -0.2712496221065521 1.1517810821533203
1.219266653060913 -0.2712496221065521 1.1513701677322388
-1.4784629344940186 -0.5081704258918762 1.1938285827636719
-1.2986087799072266 -0.5081704258918762 1.1934176683425903
-1.118754506111145 -0.5081704258918762 1.1930067539215088
-0.9389004111289978 -0.5081704258918762 1.1925958395004272
-0.7590462565422058 -0.5081704258918762 1.1921849250793457
-0.5791921019554138 -0.5081704258918762 1.1917740106582642
-0.39933791756629944 -0.5081704258918762 1.1913632154464722
-0.21948374807834625 -0.5081704258918762 1.1909523010253906
-0.03962958976626396 -0.5081704258918762 1.190541386604309
0.14022457599639893 -0.5081704258918762 1.1901304721832275
0.3200787305831909 -0.5081704258918762 1.189719557762146
0.4999328851699829 -0.5081704258918762 1.1893086433410645
0.6797870397567749 -0.5081704258918762 1.188897728919983
0.8596411943435669 -0.5081704258918762 1.1884868144989014
1.0394953489303589 -0.5081704258918762 1.1880759000778198
1.2193495035171509 -0.5081704258918762 1.1876649856567383
-1.4784905910491943 -0.7475475668907166 1.1816887855529785
-1.2986364364624023 -0.7475475668907166 1.181277871131897
-1.1187822818756104 -0.7475475668907166 1.1808669567108154
-0.9389281272888184 -0.7475475668907166 1.1804560422897339
-0.7590739727020264 -0.7475475668907166 1.1800451278686523
-0.5792198181152344 -0.7475475668907166 1.1796342134475708
-0.3993656635284424 -0.7475475668907166 1.1792232990264893
-0.2195114940404892 -0.7475475668907166 1.1788125038146973
-0.03965732455253601 -0.7475475668907166 1.1784015893936157
0.14019683003425598 -0.7475475668907166 1.1779906749725342
0.320050984621048 -0.7475475668907166 1.1775797605514526
0.49990516901016235 -0.7475475668907166 1.177168846130371
0.6797593235969543 -0.7475475668907166 1.1767579317092896
0.8596134781837463 -0.7475475668907166 1.176347017288208
1.039467692375183 -0.7475475668907166 1.1759361028671265
1.219321846961975 -0.7475475668907166 1.175525188446045
-1.4786279201507568 -0.9795809388160706 1.1216113567352295
-1.2987737655639648 -0.9795809388160706 1.121200442314148
-1.1189196109771729 -0.9795809388160706 1.1207895278930664
-0.9390653967857361 -0.9795809388160706 1.1203786134719849
-0.7592112421989441 -0.9795809388160706 1.1199676990509033
-0.5793570876121521 -0.9795809388160706 1.1195567846298218
-0.3995029032230377 -0.9795809388160706 1.1191458702087402
-0.21964874863624573 -0.9795809388160706 1.1187349557876587
-0.03979458287358284 -0.9795809388160706 1.1183241605758667
0.14005957543849945 -0.9795809388160706 1.1179132461547852
0.31991374492645264 -0.9795809388160706 1.1175023317337036
0.49976789951324463 -0.9795809388160706 1.117091417312622
0.6796220541000366 -0.9795809388160706 1.1166805028915405
0.8594762086868286 -0.9795809388160706 1.116269588470459
1.0393303632736206 -0.9795809388160706 1.1158586740493774
1.2191845178604126 -0.9795809388160706 1.115447759628296
-1.478869080543518 -1.1947710514068604 1.0160558223724365
-1.299014925956726 -1.1947710514068604 1.015644907951355
-1.1191606521606445 -1.1947710514068604 1.0152339935302734
-0.9393065571784973 -1.1947710514068604 1.014823079109192
-0.7594524025917053 -1.1947710514068604 1.0144122838974
-0.5795982480049133 -1.1947710514068604 1.0140013694763184
-0.39974406361579895 -1.1947710514068604 1.0135904550552368
-0.21988989412784576 -1.1947710514068604 1.0131795406341553
-0.04003573954105377 -1.1947710514068604 1.0127686262130737
0.13981842994689941 -1.1947710514068604 1.0123577117919922
0.3196725845336914 -1.1947710514068604 1.0119467973709106
0.4995267391204834 -1.1947710514068604 1.011535882949829
0.6793808937072754 -1.1947710514068604 1.0111249685287476
0.8592350482940674 -1.1947710514068604 1.010714054107666
1.0390892028808594 -1.1947710514068604 1.0103031396865845
1.2189433574676514 -1.1947710514068604 1.009892225265503
-1.4792041778564453 -1.3843079805374146 0.8693437576293945
-1.2993500232696533 -1.3843079805374146 0.868932843208313
-1.1194958686828613 -1.3843079805374146 0.8685219287872314
-0.9396417140960693 -1.3843079805374146 0.8681110143661499
-0.7597875595092773 -1.3843079805374146 0.8677000999450684
-0.5799334049224854 -1.3843079805374146 0.8672892451286316
-0.40007925033569336 -1.3843079805374146 0.86687833070755
-0.22022508084774017 -1.3843079805374146 0.8664674162864685
-0.04037092626094818 -1.3843079805374146 0.866056501865387
0.139483243227005 -1.3843079805374146 0.8656455874443054
0.319337397813797 -1.3843079805374146 0.8652346730232239
0.499191552400589 -1.3843079805374146 0.8648238182067871
0.6790457367897034 -1.3843079805374146 0.8644129037857056
0.8588998913764954 -1.3843079805374146 0.864001989364624
1.0387541055679321 -1.3843079805374146 0.8635910749435425
1.2186082601547241 -1.3843079805374146 0.8631801605224609
-1.4796197414398193 -1.5404319763183594 0.6874814629554749
-1.2997655868530273 -1.5404319763183594 0.6870705485343933
-1.1199114322662354 -1.5404319763183594 0.6866596341133118
-0.9400572180747986 -1.5404319763183594 0.6862487196922302
-0.7602030634880066 -1.5404319763183594 0.6858378052711487
-0.5803489089012146 -1.5404319763183594 0.6854268908500671
-0.4004947543144226 -1.5404319763183594 0.6850160360336304
-0.22064058482646942 -1.5404319763183594 0.6846051216125488
-0.040786415338516235 -1.5404319763183594 0.6841942071914673
0.13906773924827576 -1.5404319763183594 0.6837832927703857
0.31892189383506775 -1.5404319763183594 0.6833723783493042
0.49877607822418213 -1.5404319763183594 0.6829615235328674
0.6786302328109741 -1.5404319763183594 0.6825506091117859
0.8584843873977661 -1.5404319763183594 0.6821396946907043
1.038338541984558 -1.5404319763183594 0.6817287802696228
1.21819269657135 -1.5404319763183594 0.6813178658485413
-1.4800984859466553 -1.6567515134811401 0.477914422750473
-1.3002443313598633 -1.6567515134811401 0.4775035083293915
-1.1203901767730713 -1.6567515134811401 0.47709259390830994
-0.9405360221862793 -1.6567515134811401 0.4766817092895508
-0.7606818675994873 -1.6567515134811401 0.47627079486846924
-0.5808277130126953 -1.6567515134811401 0.4758598804473877
-0.40097352862358093 -1.6567515134811401 0.47544899582862854
-0.22111935913562775 -1.6567515134811401 0.475038081407547
-0.041265204548835754 -1.6567515134811401 0.47462716698646545
0.13858896493911743 -1.6567515134811401 0.4742162823677063
0.3184431195259094 -1.6567515134811401 0.47380536794662476
0.4982972741127014 -1.6567515134811401 0.4733944535255432
0.6781514286994934 -1.6567515134811401 0.47298356890678406
0.8580055832862854 -1.6567515134811401 0.4725726544857025
1.0378597974777222 -1.6567515134811401 0.47216176986694336
1.2177139520645142 -1.6567515134811401 0.4717508554458618
-1.4806209802627563 -1.7285043001174927 0.24922235310077667
-1.3007668256759644 -1.7285043001174927 0.24881143867969513
-1.1209126710891724 -1.7285043001174927 0.24840053915977478
-0.9410585165023804 -1.7285043001174927 0.24798963963985443
-0.7612043619155884 -1.7285043001174927 0.24757874011993408
-0.5813501477241516 -1.7285043001174927 0.24716782569885254
-0.401496022939682 -1.7285043001174927 0.2467569261789322
-0.22164185345172882 -1.7285043001174927 0.24634602665901184
-0.041787683963775635 -1.7285043001174927 0.2459351122379303
0.13806647062301636 -1.7285043001174927 0.24552421271800995
0.31792062520980835 -1.7285043001174927 0.2451133131980896
0.49777480959892273 -1.7285043001174927 0.24470241367816925
0.6776289343833923 -1.7285043001174927 0.2442914992570877
0.8574831485748291 -1.7285043001174927 0.24388059973716736
1.037337303161621 -1.7285043001174927 0.243469700217247
1.217191457748413 -1.7285043001174927 0.24305878579616547
-1.4811657667160034 -1.7527527809143066 0.010767936706542969
-1.3013116121292114 -1.7527527809143066 0.010357032530009747
-1.1214574575424194 -1.7527527809143066 0.009946129284799099
-0.9416033029556274 -1.7527527809143066 0.009535225108265877
-0.7617490887641907 -1.7527527809143066 0.00912432186305523
-0.5818949341773987 -1.7527527809143066 0.008713417686522007
-0.4020407795906067 -1.7527527809143066 0.008302513509988785
-0.2221866250038147 -1.7527527809143066 0.007891610264778137
-0.042332470417022705 -1.7527527809143066 0.007480706088244915
0.13752169907093048 -1.7527527809143066 0.00706980237737298
0.31737586855888367 -1.7527527809143066 0.006658898666501045
0.49723002314567566 -1.7527527809143066 0.00624799495562911
0.67708420753479 -1.7527527809143066 0.005837090779095888
0.856938362121582 -1.7527527809143066 0.005426187068223953
1.036792516708374 -1.7527527809143066 0.005015283357352018
1.216646671295166 -1.7527527809143066 0.0046043796464800835
