ply
format ascii 1.0
element vertex 1347
property float x
property float y
property float z
end_header
3.75 22.25 0.0
3.75 22.75 0.0
4.25 12.25 0.0
4.25 12.75 0.0
4.25 13.25 0.0
4.25 20.75 0.0
4.25 21.25 0.0
4.25 21.75 0.0
4.25 22.25 0.0
4.25 22.75 0.0
4.25 23.25 0.0
4.75 11.75 0.0
4.75 12.25 0.0
4.75 12.75 0.0
4.75 13.25 0.0
4.75 13.75 0.0
4.75 20.25 0.0
4.75 20.75 0.0
4.75 21.25 0.0
4.75 21.75 0.0
4.75 22.25 0.0
4.75 22.75 0.0
4.75 23.25 0.0
5.25 11.25 0.0
5.25 11.75 0.0
5.25 12.25 0.0
5.25 12.75 0.0
5.25 13.25 0.0
5.25 13.75 0.0
5.25 14.25 0.0
5.25 19.75 0.0
5.25 20.25 0.0
5.25 20.75 0.0
5.25 21.25 0.0
5.25 21.75 0.0
5.25 22.25 0.0
5.25 22.75 0.0
5.25 23.25 0.0
5.75 11.25 0.0
5.75 11.75 0.0
5.75 12.25 0.0
5.75 12.75 0.0
5.75 13.25 0.0
5.75 13.75 0.0
5.75 14.25 0.0
5.75 19.75 0.0
5.75 20.25 0.0
5.75 20.75 0.0
5.75 21.25 0.0
5.75 21.75 0.0
5.75 22.25 0.0
5.75 22.75 0.0
5.75 23.25 0.0
6.25 10.75 0.0
6.25 11.25 0.0
6.25 11.75 0.0
6.25 12.25 0.0
6.25 12.75 0.0
6.25 13.25 0.0
6.25 13.75 0.0
6.25 14.25 0.0
6.25 19.25 0.0
6.25 19.75 0.0
6.25 20.25 0.0
6.25 20.75 0.0
6.25 21.25 0.0
6.25 21.75 0.0
6.25 22.25 0.0
6.25 22.75 0.0
6.75 10.25 0.0
6.75 10.75 0.0
6.75 11.25 0.0
6.75 11.75 0.0
6.75 12.25 0.0
6.75 12.75 0.0
6.75 13.25 0.0
6.75 13.75 0.0
6.75 18.75 0.0
6.75 19.25 0.0
6.75 19.75 0.0
6.75 20.25 0.0
6.75 20.75 0.0
6.75 21.25 0.0
6.75 21.75 0.0
6.75 22.25 0.0
7.25 10.25 0.0
7.25 10.75 0.0
7.25 11.25 0.0
7.25 11.75 0.0
7.25 12.25 0.0
7.25 12.75 0.0
7.25 13.25 0.0
7.25 13.75 0.0
7.25 18.25 0.0
7.25 18.75 0.0
7.25 19.25 0.0
7.25 19.75 0.0
7.25 20.25 0.0
7.25 20.75 0.0
7.25 21.25 0.0
7.25 21.75 0.0
7.25 22.25 0.0
7.75 9.75 0.0
7.75 10.25 0.0
7.75 10.75 0.0
7.75 11.25 0.0
7.75 11.75 0.0
7.75 12.25 0.0
7.75 12.75 0.0
7.75 13.25 0.0
7.75 18.25 0.0
7.75 18.75 0.0
7.75 19.25 0.0
7.75 19.75 0.0
7.75 20.25 0.0
7.75 20.75 0.0
7.75 21.25 0.0
7.75 21.75 0.0
7.75 22.25 0.0
8.25 9.75 0.0
8.25 10.25 0.0
8.25 10.75 0.0
8.25 11.25 0.0
8.25 11.75 0.0
8.25 12.25 0.0
8.25 12.75 0.0
8.25 13.25 0.0
8.25 17.75 0.0
8.25 18.25 0.0
8.25 18.75 0.0
8.25 19.25 0.0
8.25 19.75 0.0
8.25 20.25 0.0
8.25 20.75 0.0
8.25 21.25 0.0
8.25 21.75 0.0
8.25 22.25 0.0
8.75 9.25 0.0
8.75 9.75 0.0
8.75 10.25 0.0
8.75 10.75 0.0
8.75 11.25 0.0
8.75 11.75 0.0
8.75 12.25 0.0
8.75 12.75 0.0
8.75 17.75 0.0
8.75 18.25 0.0
8.75 18.75 0.0
8.75 19.25 0.0
8.75 19.75 0.0
8.75 20.25 0.0
8.75 20.75 0.0
8.75 21.25 0.0
8.75 21.75 0.0
8.75 22.25 0.0
9.25 9.25 0.0
9.25 9.75 0.0
9.25 10.25 0.0
9.25 10.75 0.0
9.25 11.25 0.0
9.25 11.75 0.0
9.25 12.25 0.0
9.25 12.75 0.0
9.25 17.25 0.0
9.25 17.75 0.0
9.25 18.25 0.0
9.25 18.75 0.0
9.25 19.25 0.0
9.25 19.75 0.0
9.25 20.25 0.0
9.25 20.75 0.0
9.25 21.25 0.0
9.25 21.75 0.0
9.25 22.25 0.0
9.75 0.25 0.0
9.75 9.25 0.0
9.75 9.75 0.0
9.75 10.25 0.0
9.75 10.75 0.0
9.75 11.25 0.0
9.75 11.75 0.0
9.75 12.25 0.0
9.75 17.25 0.0
9.75 17.75 0.0
9.75 18.25 0.0
9.75 18.75 0.0
9.75 19.25 0.0
9.75 19.75 0.0
9.75 20.25 0.0
9.75 20.75 0.0
9.75 21.25 0.0
9.75 21.75 0.0
9.75 22.25 0.0
9.75 22.75 0.0
10.25 0.25 0.0
10.25 9.25 0.0
10.25 9.75 0.0
10.25 10.25 0.0
10.25 10.75 0.0
10.25 11.25 0.0
10.25 11.75 0.0
10.25 12.25 0.0
10.25 12.75 0.0
10.25 17.25 0.0
10.25 17.75 0.0
10.25 18.25 0.0
10.25 18.75 0.0
10.25 19.25 0.0
10.25 19.75 0.0
10.25 20.25 0.0
10.25 20.75 0.0
10.25 21.25 0.0
10.25 21.75 0.0
10.25 22.25 0.0
10.75 0.25 0.0
10.75 0.75 0.0
10.75 1.25 0.0
10.75 9.25 0.0
10.75 9.75 0.0
10.75 10.25 0.0
10.75 10.75 0.0
10.75 11.25 0.0
10.75 11.75 0.0
10.75 12.25 0.0
10.75 16.75 0.0
10.75 17.25 0.0
10.75 17.75 0.0
10.75 18.25 0.0
10.75 18.75 0.0
10.75 19.25 0.0
10.75 19.75 0.0
10.75 20.25 0.0
10.75 20.75 0.0
10.75 21.25 0.0
10.75 21.75 0.0
10.75 22.25 0.0
11.25 0.25 0.0
11.25 0.75 0.0
11.25 1.25 0.0
11.25 9.25 0.0
11.25 9.75 0.0
11.25 10.25 0.0
11.25 10.75 0.0
11.25 11.25 0.0
11.25 11.75 0.0
11.25 12.25 0.0
11.25 16.75 0.0
11.25 17.25 0.0
11.25 17.75 0.0
11.25 18.25 0.0
11.25 18.75 0.0
11.25 19.25 0.0
11.25 19.75 0.0
11.25 20.25 0.0
11.25 20.75 0.0
11.25 21.25 0.0
11.25 21.75 0.0
11.25 22.25 0.0
11.75 0.25 0.0
11.75 0.75 0.0
11.75 1.25 0.0
11.75 8.75 0.0
11.75 9.25 0.0
11.75 9.75 0.0
11.75 10.25 0.0
11.75 10.75 0.0
11.75 11.25 0.0
11.75 11.75 0.0
11.75 12.25 0.0
11.75 16.75 0.0
11.75 17.25 0.0
11.75 17.75 0.0
11.75 18.25 0.0
11.75 18.75 0.0
11.75 19.25 0.0
11.75 19.75 0.0
11.75 20.25 0.0
11.75 20.75 0.0
11.75 21.25 0.0
11.75 21.75 0.0
12.25 0.25 0.0
12.25 0.75 0.0
12.25 1.25 0.0
12.25 1.75 0.0
12.25 2.25 0.0
12.25 8.75 0.0
12.25 9.25 0.0
12.25 9.75 0.0
12.25 10.25 0.0
12.25 10.75 0.0
12.25 11.25 0.0
12.25 11.75 0.0
12.25 16.25 0.0
12.25 16.75 0.0
12.25 17.25 0.0
12.25 17.75 0.0
12.25 18.25 0.0
12.25 18.75 0.0
12.25 19.25 0.0
12.25 19.75 0.0
12.25 20.25 0.0
12.25 20.75 0.0
12.25 21.25 0.0
12.25 21.75 0.0
12.75 0.25 0.0
12.75 0.75 0.0
12.75 1.25 0.0
12.75 1.75 0.0
12.75 2.25 0.0
12.75 8.75 0.0
12.75 9.25 0.0
12.75 9.75 0.0
12.75 10.25 0.0
12.75 10.75 0.0
12.75 11.25 0.0
12.75 11.75 0.0
12.75 16.25 0.0
12.75 16.75 0.0
12.75 17.25 0.0
12.75 17.75 0.0
12.75 18.25 0.0
12.75 18.75 0.0
12.75 19.25 0.0
12.75 19.75 0.0
12.75 20.25 0.0
12.75 20.75 0.0
12.75 21.25 0.0
13.25 0.25 0.0
13.25 0.75 0.0
13.25 1.25 0.0
13.25 1.75 0.0
13.25 2.25 0.0
13.25 2.75 0.0
13.25 8.75 0.0
13.25 9.25 0.0
13.25 9.75 0.0
13.25 10.25 0.0
13.25 10.75 0.0
13.25 11.25 0.0
13.25 11.75 0.0
13.25 16.25 0.0
13.25 16.75 0.0
13.25 17.25 0.0
13.25 17.75 0.0
13.25 18.25 0.0
13.25 18.75 0.0
13.25 19.25 0.0
13.25 19.75 0.0
13.25 20.25 0.0
13.25 20.75 0.0
13.25 21.25 0.0
13.75 0.25 0.0
13.75 0.75 0.0
13.75 1.25 0.0
13.75 1.75 0.0
13.75 2.25 0.0
13.75 2.75 0.0
13.75 3.25 0.0
13.75 8.25 0.0
13.75 8.75 0.0
13.75 9.25 0.0
13.75 9.75 0.0
13.75 10.25 0.0
13.75 10.75 0.0
13.75 11.25 0.0
13.75 16.25 0.0
13.75 16.75 0.0
13.75 17.25 0.0
13.75 17.75 0.0
13.75 18.25 0.0
13.75 18.75 0.0
13.75 19.25 0.0
13.75 19.75 0.0
13.75 20.25 0.0
13.75 20.75 0.0
14.25 0.25 0.0
14.25 0.75 0.0
14.25 1.25 0.0
14.25 1.75 0.0
14.25 2.25 0.0
14.25 2.75 0.0
14.25 3.25 0.0
14.25 3.75 0.0
14.25 8.25 0.0
14.25 8.75 0.0
14.25 9.25 0.0
14.25 9.75 0.0
14.25 10.25 0.0
14.25 10.75 0.0
14.25 11.25 0.0
14.25 15.75 0.0
14.25 16.25 0.0
14.25 16.75 0.0
14.25 17.25 0.0
14.25 17.75 0.0
14.25 18.25 0.0
14.25 18.75 0.0
14.25 19.25 0.0
14.25 19.75 0.0
14.25 20.25 0.0
14.75 0.25 0.0
14.75 0.75 0.0
14.75 1.25 0.0
14.75 1.75 0.0
14.75 2.25 0.0
14.75 2.75 0.0
14.75 3.25 0.0
14.75 3.75 0.0
14.75 4.25 0.0
14.75 4.75 0.0
14.75 8.25 0.0
14.75 8.75 0.0
14.75 9.25 0.0
14.75 9.75 0.0
14.75 10.25 0.0
14.75 10.75 0.0
14.75 11.25 0.0
14.75 15.75 0.0
14.75 16.25 0.0
14.75 16.75 0.0
14.75 17.25 0.0
14.75 17.75 0.0
14.75 18.25 0.0
14.75 18.75 0.0
14.75 19.25 0.0
14.75 19.75 0.0
14.75 20.25 0.0
15.25 0.25 0.0
15.25 0.75 0.0
15.25 1.25 0.0
15.25 1.75 0.0
15.25 2.25 0.0
15.25 2.75 0.0
15.25 3.25 0.0
15.25 3.75 0.0
15.25 4.25 0.0
15.25 4.75 0.0
15.25 5.25 0.0
15.25 5.75 0.0
15.25 6.25 0.0
15.25 7.75 0.0
15.25 8.25 0.0
15.25 8.75 0.0
15.25 9.25 0.0
15.25 9.75 0.0
15.25 10.25 0.0
15.25 10.75 0.0
15.25 11.25 0.0
15.25 14.75 0.0
15.25 15.25 0.0
15.25 15.75 0.0
15.25 16.25 0.0
15.25 16.75 0.0
15.25 17.25 0.0
15.25 17.75 0.0
15.25 18.25 0.0
15.25 18.75 0.0
15.25 19.25 0.0
15.25 19.75 0.0
15.75 0.25 0.0
15.75 0.75 0.0
15.75 1.25 0.0
15.75 1.75 0.0
15.75 2.25 0.0
15.75 2.75 0.0
15.75 3.25 0.0
15.75 3.75 0.0
15.75 4.25 0.0
15.75 4.75 0.0
15.75 5.25 0.0
15.75 5.75 0.0
15.75 6.25 0.0
15.75 6.75 0.0
15.75 7.25 0.0
15.75 7.75 0.0
15.75 8.25 0.0
15.75 8.75 0.0
15.75 9.25 0.0
15.75 9.75 0.0
15.75 10.25 0.0
15.75 10.75 0.0
15.75 11.25 0.0
15.75 11.75 0.0
15.75 12.25 0.0
15.75 12.75 0.0
15.75 13.25 0.0
15.75 13.75 0.0
15.75 14.25 0.0
15.75 14.75 0.0
15.75 15.25 0.0
15.75 15.75 0.0
15.75 16.25 0.0
15.75 16.75 0.0
15.75 17.25 0.0
15.75 17.75 0.0
15.75 18.25 0.0
15.75 18.75 0.0
15.75 19.25 0.0
16.25 0.75 0.0
16.25 1.25 0.0
16.25 1.75 0.0
16.25 2.25 0.0
16.25 2.75 0.0
16.25 3.25 0.0
16.25 3.75 0.0
16.25 4.25 0.0
16.25 4.75 0.0
16.25 5.25 0.0
16.25 5.75 0.0
16.25 6.25 0.0
16.25 6.75 0.0
16.25 7.25 0.0
16.25 7.75 0.0
16.25 8.25 0.0
16.25 8.75 0.0
16.25 9.25 0.0
16.25 9.75 0.0
16.25 10.25 0.0
16.25 10.75 0.0
16.25 11.25 0.0
16.25 11.75 0.0
16.25 12.25 0.0
16.25 12.75 0.0
16.25 13.25 0.0
16.25 13.75 0.0
16.25 14.25 0.0
16.25 14.75 0.0
16.25 15.25 0.0
16.25 15.75 0.0
16.25 16.25 0.0
16.25 16.75 0.0
16.25 17.25 0.0
16.25 17.75 0.0
16.25 18.25 0.0
16.25 18.75 0.0
16.25 19.25 0.0
16.75 1.25 0.0
16.75 1.75 0.0
16.75 2.25 0.0
16.75 2.75 0.0
16.75 3.25 0.0
16.75 3.75 0.0
16.75 4.25 0.0
16.75 4.75 0.0
16.75 5.25 0.0
16.75 5.75 0.0
16.75 6.25 0.0
16.75 6.75 0.0
16.75 7.25 0.0
16.75 7.75 0.0
16.75 8.25 0.0
16.75 8.75 0.0
16.75 9.25 0.0
16.75 9.75 0.0
16.75 10.25 0.0
16.75 10.75 0.0
16.75 11.25 0.0
16.75 11.75 0.0
16.75 12.25 0.0
16.75 12.75 0.0
16.75 13.25 0.0
16.75 13.75 0.0
16.75 14.25 0.0
16.75 14.75 0.0
16.75 15.25 0.0
16.75 15.75 0.0
16.75 16.25 0.0
16.75 16.75 0.0
16.75 17.25 0.0
16.75 17.75 0.0
16.75 18.25 0.0
16.75 18.75 0.0
16.75 19.25 0.0
16.75 19.75 0.0
17.25 2.75 0.0
17.25 3.25 0.0
17.25 3.75 0.0
17.25 4.25 0.0
17.25 4.75 0.0
17.25 5.25 0.0
17.25 5.75 0.0
17.25 6.25 0.0
17.25 6.75 0.0
17.25 7.25 0.0
17.25 7.75 0.0
17.25 8.25 0.0
17.25 8.75 0.0
17.25 9.25 0.0
17.25 9.75 0.0
17.25 10.25 0.0
17.25 10.75 0.0
17.25 11.25 0.0
17.25 11.75 0.0
17.25 12.25 0.0
17.25 12.75 0.0
17.25 13.25 0.0
17.25 13.75 0.0
17.25 14.25 0.0
17.25 14.75 0.0
17.25 15.25 0.0
17.25 15.75 0.0
17.25 16.25 0.0
17.25 16.75 0.0
17.25 17.25 0.0
17.25 17.75 0.0
17.25 18.25 0.0
17.25 18.75 0.0
17.25 19.25 0.0
17.25 19.75 0.0
17.75 3.75 0.0
17.75 4.25 0.0
17.75 4.75 0.0
17.75 5.25 0.0
17.75 5.75 0.0
17.75 6.25 0.0
17.75 6.75 0.0
17.75 7.25 0.0
17.75 7.75 0.0
17.75 8.25 0.0
17.75 8.75 0.0
17.75 9.25 0.0
17.75 9.75 0.0
17.75 10.25 0.0
17.75 10.75 0.0
17.75 11.25 0.0
17.75 11.75 0.0
17.75 12.25 0.0
17.75 12.75 0.0
17.75 13.25 0.0
17.75 13.75 0.0
17.75 14.25 0.0
17.75 14.75 0.0
17.75 15.25 0.0
17.75 15.75 0.0
17.75 16.25 0.0
17.75 16.75 0.0
17.75 17.25 0.0
17.75 17.75 0.0
17.75 18.25 0.0
17.75 18.75 0.0
17.75 19.25 0.0
17.75 19.75 0.0
18.25 4.75 0.0
18.25 5.25 0.0
18.25 5.75 0.0
18.25 6.25 0.0
18.25 6.75 0.0
18.25 7.25 0.0
18.25 7.75 0.0
18.25 8.25 0.0
18.25 8.75 0.0
18.25 9.25 0.0
18.25 9.75 0.0
18.25 10.25 0.0
18.25 10.75 0.0
18.25 11.25 0.0
18.25 11.75 0.0
18.25 12.25 0.0
18.25 12.75 0.0
18.25 13.25 0.0
18.25 13.75 0.0
18.25 14.25 0.0
18.25 14.75 0.0
18.25 15.25 0.0
18.25 15.75 0.0
18.25 16.75 0.0
18.25 17.25 0.0
18.25 17.75 0.0
18.25 18.25 0.0
18.25 18.75 0.0
18.25 19.25 0.0
18.25 19.75 0.0
18.75 6.75 0.0
18.75 7.25 0.0
18.75 7.75 0.0
18.75 8.25 0.0
18.75 8.75 0.0
18.75 9.25 0.0
18.75 9.75 0.0
18.75 10.25 0.0
18.75 10.75 0.0
18.75 11.25 0.0
18.75 11.75 0.0
18.75 12.25 0.0
18.75 12.75 0.0
18.75 13.25 0.0
18.75 13.75 0.0
18.75 14.25 0.0
18.75 14.75 0.0
18.75 15.25 0.0
18.75 16.75 0.0
18.75 17.25 0.0
18.75 17.75 0.0
18.75 18.25 0.0
18.75 18.75 0.0
18.75 19.25 0.0
18.75 19.75 0.0
19.25 8.25 0.0
19.25 8.75 0.0
19.25 9.25 0.0
19.25 9.75 0.0
19.25 10.25 0.0
19.25 10.75 0.0
19.25 11.25 0.0
19.25 11.75 0.0
19.25 17.25 0.0
19.25 17.75 0.0
19.25 18.25 0.0
19.25 18.75 0.0
19.25 19.25 0.0
19.25 19.75 0.0
19.25 20.25 0.0
19.75 8.75 0.0
19.75 9.25 0.0
19.75 9.75 0.0
19.75 10.25 0.0
19.75 10.75 0.0
19.75 11.25 0.0
19.75 11.75 0.0
19.75 17.25 0.0
19.75 17.75 0.0
19.75 18.25 0.0
19.75 18.75 0.0
19.75 19.25 0.0
19.75 19.75 0.0
19.75 20.25 0.0
20.25 8.75 0.0
20.25 9.25 0.0
20.25 9.75 0.0
20.25 10.25 0.0
20.25 10.75 0.0
20.25 11.25 0.0
20.25 11.75 0.0
20.25 17.25 0.0
20.25 17.75 0.0
20.25 18.25 0.0
20.25 18.75 0.0
20.25 19.25 0.0
20.25 19.75 0.0
20.25 20.25 0.0
20.75 8.75 0.0
20.75 9.25 0.0
20.75 9.75 0.0
20.75 10.25 0.0
20.75 10.75 0.0
20.75 11.25 0.0
20.75 11.75 0.0
20.75 17.25 0.0
20.75 17.75 0.0
20.75 18.25 0.0
20.75 18.75 0.0
20.75 19.25 0.0
20.75 19.75 0.0
20.75 20.25 0.0
21.25 8.75 0.0
21.25 9.25 0.0
21.25 9.75 0.0
21.25 10.25 0.0
21.25 10.75 0.0
21.25 11.25 0.0
21.25 11.75 0.0
21.25 17.25 0.0
21.25 17.75 0.0
21.25 18.25 0.0
21.25 18.75 0.0
21.25 19.25 0.0
21.25 19.75 0.0
21.25 20.25 0.0
21.75 8.75 0.0
21.75 9.25 0.0
21.75 9.75 0.0
21.75 10.25 0.0
21.75 10.75 0.0
21.75 11.25 0.0
21.75 11.75 0.0
21.75 12.25 0.0
21.75 16.75 0.0
21.75 17.25 0.0
21.75 17.75 0.0
21.75 18.25 0.0
21.75 18.75 0.0
21.75 19.25 0.0
21.75 19.75 0.0
21.75 20.25 0.0
21.75 20.75 0.0
22.25 9.25 0.0
22.25 9.75 0.0
22.25 10.25 0.0
22.25 10.75 0.0
22.25 11.25 0.0
22.25 11.75 0.0
22.25 12.25 0.0
22.25 16.75 0.0
22.25 17.25 0.0
22.25 17.75 0.0
22.25 18.25 0.0
22.25 18.75 0.0
22.25 19.25 0.0
22.25 19.75 0.0
22.25 20.25 0.0
22.25 20.75 0.0
22.75 9.25 0.0
22.75 9.75 0.0
22.75 10.25 0.0
22.75 10.75 0.0
22.75 11.25 0.0
22.75 11.75 0.0
22.75 12.25 0.0
22.75 16.25 0.0
22.75 16.75 0.0
22.75 17.25 0.0
22.75 17.75 0.0
22.75 18.25 0.0
22.75 18.75 0.0
22.75 19.25 0.0
22.75 19.75 0.0
22.75 20.25 0.0
22.75 20.75 0.0
23.25 9.25 0.0
23.25 9.75 0.0
23.25 10.25 0.0
23.25 10.75 0.0
23.25 11.25 0.0
23.25 11.75 0.0
23.25 12.25 0.0
23.25 16.75 0.0
23.25 17.25 0.0
23.25 17.75 0.0
23.25 18.25 0.0
23.25 18.75 0.0
23.25 19.25 0.0
23.25 19.75 0.0
23.25 20.25 0.0
23.25 20.75 0.0
23.25 21.25 0.0
23.75 9.75 0.0
23.75 10.25 0.0
23.75 10.75 0.0
23.75 11.25 0.0
23.75 11.75 0.0
23.75 12.25 0.0
23.75 12.75 0.0
23.75 13.25 0.0
23.75 16.75 0.0
23.75 17.25 0.0
23.75 17.75 0.0
23.75 18.25 0.0
23.75 18.75 0.0
23.75 19.25 0.0
23.75 19.75 0.0
23.75 20.25 0.0
23.75 20.75 0.0
23.75 21.25 0.0
23.75 21.75 0.0
24.25 10.25 0.0
24.25 10.75 0.0
24.25 11.25 0.0
24.25 11.75 0.0
24.25 12.25 0.0
24.25 12.75 0.0
24.25 13.25 0.0
24.25 16.75 0.0
24.25 17.25 0.0
24.25 17.75 0.0
24.25 18.25 0.0
24.25 18.75 0.0
24.25 19.25 0.0
24.25 19.75 0.0
24.25 20.25 0.0
24.25 20.75 0.0
24.25 21.25 0.0
24.25 21.75 0.0
24.75 10.25 0.0
24.75 10.75 0.0
24.75 11.25 0.0
24.75 11.75 0.0
24.75 12.25 0.0
24.75 12.75 0.0
24.75 13.25 0.0
24.75 16.25 0.0
24.75 16.75 0.0
24.75 17.25 0.0
24.75 17.75 0.0
24.75 18.25 0.0
24.75 18.75 0.0
24.75 19.25 0.0
24.75 19.75 0.0
24.75 20.25 0.0
24.75 20.75 0.0
24.75 21.25 0.0
24.75 21.75 0.0
25.25 10.25 0.0
25.25 10.75 0.0
25.25 11.25 0.0
25.25 11.75 0.0
25.25 12.25 0.0
25.25 12.75 0.0
25.25 13.25 0.0
25.25 16.25 0.0
25.25 16.75 0.0
25.25 17.25 0.0
25.25 17.75 0.0
25.25 18.25 0.0
25.25 18.75 0.0
25.25 19.25 0.0
25.25 19.75 0.0
25.25 20.25 0.0
25.25 20.75 0.0
25.25 21.25 0.0
25.25 21.75 0.0
25.75 10.25 0.0
25.75 10.75 0.0
25.75 11.25 0.0
25.75 11.75 0.0
25.75 12.25 0.0
25.75 12.75 0.0
25.75 13.25 0.0
25.75 13.75 0.0
25.75 16.25 0.0
25.75 16.75 0.0
25.75 17.25 0.0
25.75 17.75 0.0
25.75 18.25 0.0
25.75 18.75 0.0
25.75 19.25 0.0
25.75 19.75 0.0
25.75 20.25 0.0
25.75 20.75 0.0
25.75 21.25 0.0
25.75 21.75 0.0
25.75 22.25 0.0
26.25 10.75 0.0
26.25 11.25 0.0
26.25 11.75 0.0
26.25 12.25 0.0
26.25 12.75 0.0
26.25 13.25 0.0
26.25 13.75 0.0
26.25 16.25 0.0
26.25 16.75 0.0
26.25 17.25 0.0
26.25 17.75 0.0
26.25 18.25 0.0
26.25 18.75 0.0
26.25 19.25 0.0
26.25 19.75 0.0
26.25 20.25 0.0
26.25 20.75 0.0
26.25 21.25 0.0
26.25 21.75 0.0
26.25 22.25 0.0
26.75 10.75 0.0
26.75 11.25 0.0
26.75 11.75 0.0
26.75 12.25 0.0
26.75 12.75 0.0
26.75 13.25 0.0
26.75 13.75 0.0
26.75 16.25 0.0
26.75 16.75 0.0
26.75 17.25 0.0
26.75 17.75 0.0
26.75 18.25 0.0
26.75 18.75 0.0
26.75 19.25 0.0
26.75 19.75 0.0
26.75 20.25 0.0
26.75 20.75 0.0
26.75 21.25 0.0
26.75 21.75 0.0
26.75 22.25 0.0
26.75 22.75 0.0
26.75 23.25 0.0
27.25 10.75 0.0
27.25 11.25 0.0
27.25 11.75 0.0
27.25 12.25 0.0
27.25 12.75 0.0
27.25 13.25 0.0
27.25 13.75 0.0
27.25 15.75 0.0
27.25 16.25 0.0
27.25 16.75 0.0
27.25 17.25 0.0
27.25 17.75 0.0
27.25 18.25 0.0
27.25 18.75 0.0
27.25 19.25 0.0
27.25 19.75 0.0
27.25 20.25 0.0
27.25 20.75 0.0
27.25 21.25 0.0
27.25 21.75 0.0
27.25 22.25 0.0
27.25 22.75 0.0
27.25 23.25 0.0
27.75 10.75 0.0
27.75 11.25 0.0
27.75 11.75 0.0
27.75 12.25 0.0
27.75 12.75 0.0
27.75 13.25 0.0
27.75 13.75 0.0
27.75 14.25 0.0
27.75 15.75 0.0
27.75 16.25 0.0
27.75 16.75 0.0
27.75 17.25 0.0
27.75 17.75 0.0
27.75 18.25 0.0
27.75 18.75 0.0
27.75 19.75 0.0
27.75 20.25 0.0
27.75 20.75 0.0
27.75 21.25 0.0
27.75 21.75 0.0
27.75 22.25 0.0
27.75 22.75 0.0
27.75 23.25 0.0
27.75 23.75 0.0
28.25 11.25 0.0
28.25 11.75 0.0
28.25 12.25 0.0
28.25 12.75 0.0
28.25 13.25 0.0
28.25 13.75 0.0
28.25 14.25 0.0
28.25 15.75 0.0
28.25 16.25 0.0
28.25 16.75 0.0
28.25 17.25 0.0
28.25 17.75 0.0
28.25 18.25 0.0
28.25 18.75 0.0
28.25 20.25 0.0
28.25 20.75 0.0
28.25 21.25 0.0
28.25 21.75 0.0
28.25 22.25 0.0
28.25 22.75 0.0
28.25 23.25 0.0
28.25 23.75 0.0
28.25 24.25 0.0
28.75 11.25 0.0
28.75 11.75 0.0
28.75 12.25 0.0
28.75 12.75 0.0
28.75 13.25 0.0
28.75 13.75 0.0
28.75 14.25 0.0
28.75 15.25 0.0
28.75 15.75 0.0
28.75 16.25 0.0
28.75 16.75 0.0
28.75 17.25 0.0
28.75 17.75 0.0
28.75 18.25 0.0
28.75 20.25 0.0
28.75 20.75 0.0
28.75 21.25 0.0
28.75 21.75 0.0
28.75 22.25 0.0
28.75 22.75 0.0
28.75 23.25 0.0
28.75 23.75 0.0
28.75 24.25 0.0
28.75 24.75 0.0
29.25 11.25 0.0
29.25 11.75 0.0
29.25 12.25 0.0
29.25 12.75 0.0
29.25 13.25 0.0
29.25 13.75 0.0
29.25 14.25 0.0
29.25 15.25 0.0
29.25 15.75 0.0
29.25 16.25 0.0
29.25 16.75 0.0
29.25 17.25 0.0
29.25 17.75 0.0
29.25 18.25 0.0
29.25 20.75 0.0
29.25 21.25 0.0
29.25 21.75 0.0
29.25 22.25 0.0
29.25 22.75 0.0
29.25 23.25 0.0
29.25 23.75 0.0
29.25 24.25 0.0
29.25 24.75 0.0
29.25 25.25 0.0
29.75 11.25 0.0
29.75 11.75 0.0
29.75 12.25 0.0
29.75 12.75 0.0
29.75 13.25 0.0
29.75 13.75 0.0
29.75 14.25 0.0
29.75 14.75 0.0
29.75 15.25 0.0
29.75 15.75 0.0
29.75 16.25 0.0
29.75 16.75 0.0
29.75 17.25 0.0
29.75 17.75 0.0
29.75 18.25 0.0
29.75 21.25 0.0
29.75 21.75 0.0
29.75 22.25 0.0
29.75 22.75 0.0
29.75 23.25 0.0
29.75 23.75 0.0
29.75 24.25 0.0
29.75 24.75 0.0
29.75 25.25 0.0
29.75 25.75 0.0
29.75 26.25 0.0
30.25 11.75 0.0
30.25 12.25 0.0
30.25 12.75 0.0
30.25 13.25 0.0
30.25 13.75 0.0
30.25 14.25 0.0
30.25 14.75 0.0
30.25 15.25 0.0
30.25 15.75 0.0
30.25 16.25 0.0
30.25 16.75 0.0
30.25 17.25 0.0
30.25 17.75 0.0
30.25 18.25 0.0
30.25 18.75 0.0
30.25 21.75 0.0
30.25 22.25 0.0
30.25 22.75 0.0
30.25 23.25 0.0
30.25 23.75 0.0
30.25 24.25 0.0
30.25 24.75 0.0
30.25 25.25 0.0
30.25 25.75 0.0
30.25 26.25 0.0
30.25 26.75 0.0
30.75 12.25 0.0
30.75 12.75 0.0
30.75 13.25 0.0
30.75 13.75 0.0
30.75 14.25 0.0
30.75 14.75 0.0
30.75 15.25 0.0
30.75 15.75 0.0
30.75 16.25 0.0
30.75 16.75 0.0
30.75 17.25 0.0
30.75 17.75 0.0
30.75 18.25 0.0
30.75 22.25 0.0
30.75 22.75 0.0
30.75 23.25 0.0
30.75 23.75 0.0
30.75 24.25 0.0
30.75 24.75 0.0
30.75 25.25 0.0
30.75 25.75 0.0
30.75 26.25 0.0
30.75 26.75 0.0
30.75 27.25 0.0
30.75 27.75 0.0
31.25 12.25 0.0
31.25 12.75 0.0
31.25 13.25 0.0
31.25 13.75 0.0
31.25 14.25 0.0
31.25 14.75 0.0
31.25 15.25 0.0
31.25 15.75 0.0
31.25 16.25 0.0
31.25 16.75 0.0
31.25 17.25 0.0
31.25 17.75 0.0
31.25 18.25 0.0
31.25 22.75 0.0
31.25 23.25 0.0
31.25 23.75 0.0
31.25 24.25 0.0
31.25 24.75 0.0
31.25 25.25 0.0
31.25 25.75 0.0
31.25 26.25 0.0
31.25 26.75 0.0
31.25 27.25 0.0
31.25 27.75 0.0
31.25 28.25 0.0
31.75 12.25 0.0
31.75 12.75 0.0
31.75 13.25 0.0
31.75 13.75 0.0
31.75 14.25 0.0
31.75 14.75 0.0
31.75 15.25 0.0
31.75 15.75 0.0
31.75 16.25 0.0
31.75 16.75 0.0
31.75 17.25 0.0
31.75 17.75 0.0
31.75 18.25 0.0
31.75 23.75 0.0
31.75 24.25 0.0
31.75 24.75 0.0
31.75 25.25 0.0
31.75 25.75 0.0
31.75 26.25 0.0
31.75 26.75 0.0
31.75 27.25 0.0
31.75 27.75 0.0
31.75 28.25 0.0
31.75 28.75 0.0
32.25 12.25 0.0
32.25 12.75 0.0
32.25 13.25 0.0
32.25 13.75 0.0
32.25 14.25 0.0
32.25 14.75 0.0
32.25 15.25 0.0
32.25 15.75 0.0
32.25 16.25 0.0
32.25 16.75 0.0
32.25 17.25 0.0
32.25 17.75 0.0
32.25 24.25 0.0
32.25 24.75 0.0
32.25 25.25 0.0
32.25 25.75 0.0
32.25 26.25 0.0
32.25 26.75 0.0
32.25 27.25 0.0
32.25 27.75 0.0
32.25 28.25 0.0
32.25 28.75 0.0
32.75 12.25 0.0
32.75 12.75 0.0
32.75 13.25 0.0
32.75 13.75 0.0
32.75 14.25 0.0
32.75 14.75 0.0
32.75 15.25 0.0
32.75 15.75 0.0
32.75 16.25 0.0
32.75 16.75 0.0
32.75 17.25 0.0
32.75 17.75 0.0
32.75 24.75 0.0
32.75 25.25 0.0
32.75 25.75 0.0
32.75 26.25 0.0
32.75 26.75 0.0
32.75 27.25 0.0
32.75 27.75 0.0
32.75 28.25 0.0
32.75 28.75 0.0
32.75 29.25 0.0
33.25 12.75 0.0
33.25 13.25 0.0
33.25 13.75 0.0
33.25 14.25 0.0
33.25 14.75 0.0
33.25 15.25 0.0
33.25 15.75 0.0
33.25 16.25 0.0
33.25 16.75 0.0
33.25 17.25 0.0
33.25 17.75 0.0
33.25 25.25 0.0
33.25 25.75 0.0
33.25 26.25 0.0
33.25 26.75 0.0
33.25 27.25 0.0
33.25 27.75 0.0
33.25 28.25 0.0
33.25 28.75 0.0
33.25 29.25 0.0
33.75 12.75 0.0
33.75 13.25 0.0
33.75 13.75 0.0
33.75 14.25 0.0
33.75 14.75 0.0
33.75 15.25 0.0
33.75 15.75 0.0
33.75 16.25 0.0
33.75 16.75 0.0
33.75 17.25 0.0
33.75 26.25 0.0
33.75 26.75 0.0
33.75 27.25 0.0
33.75 27.75 0.0
33.75 28.25 0.0
33.75 28.75 0.0
33.75 29.25 0.0
34.25 12.75 0.0
34.25 13.25 0.0
34.25 13.75 0.0
34.25 14.25 0.0
34.25 14.75 0.0
34.25 15.25 0.0
34.25 15.75 0.0
34.25 16.25 0.0
34.25 16.75 0.0
34.25 17.25 0.0
34.25 26.75 0.0
34.25 27.25 0.0
34.25 27.75 0.0
34.25 28.25 0.0
34.25 28.75 0.0
34.75 12.75 0.0
34.75 13.25 0.0
34.75 13.75 0.0
34.75 14.25 0.0
34.75 14.75 0.0
34.75 15.25 0.0
34.75 15.75 0.0
34.75 16.25 0.0
34.75 16.75 0.0
35.25 13.25 0.0
35.25 13.75 0.0
35.25 14.25 0.0
35.25 14.75 0.0
35.25 15.25 0.0
35.25 15.75 0.0
35.25 16.25 0.0
35.25 16.75 0.0
35.75 13.25 0.0
35.75 13.75 0.0
35.75 14.25 0.0
35.75 14.75 0.0
35.75 15.25 0.0
35.75 15.75 0.0
35.75 16.25 0.0
36.25 13.75 0.0
36.25 14.25 0.0
36.25 14.75 0.0
36.25 15.25 0.0
36.25 15.75 0.0
36.25 16.25 0.0
36.75 14.25 0.0
36.75 14.75 0.0
36.75 15.25 0.0
36.75 15.75 0.0
