ply
format ascii 1.0
element vertex 512
property float x
property float y
property float z
end_header
0.0035872459411621094 -1.0025033950805664 0.9826931357383728
0.0031583430245518684 -1.0022135972976685 0.8495611548423767
0.002729439875110984 -1.001923680305481 0.7164292335510254
0.002300536958500743 -1.001633882522583 0.5832972526550293
0.0018716339254751801 -1.0013439655303955 0.4501653015613556
0.0014427310088649392 -1.0010541677474976 0.3170333504676819
0.0010138279758393764 -1.00076425075531 0.18390138447284698
0.0005849250010214746 -1.000474452972412 0.05076942220330238
0.00015602198254782706 -1.0001845359802246 -0.08236254006624222
-0.00027288100682199 -0.9998946785926819 -0.21549449861049652
-0.0007017839816398919 -0.9996048212051392 -0.3486264646053314
-0.0011306869564577937 -0.9993149638175964 -0.4817584156990051
-0.0015595899894833565 -0.9990251064300537 -0.6148903965950012
-0.0019884929060935974 -0.998735249042511 -0.7480223178863525
-0.002417396055534482 -0.9984453916549683 -0.8811542987823486
-0.002846298972144723 -0.9981555342674255 -1.0142862796783447
-0.19780577719211578 -0.9820250868797302 0.9833865165710449
-0.1982346922159195 -0.9817352294921875 0.8502545952796936
-0.198663592338562 -0.9814453721046448 0.7171226143836975
-0.19909249246120453 -0.981155514717102 0.5839906930923462
-0.19952139258384705 -0.9808656573295593 0.4508587121963501
-0.19995029270648956 -0.9805757999420166 0.317726731300354
-0.20037920773029327 -0.9802859425544739 0.1845947802066803
-0.2008081078529358 -0.9799960851669312 0.05146282538771629
-0.2012370079755783 -0.9797062277793884 -0.08166913688182831
-0.20166590809822083 -0.9794163703918457 -0.21480108797550201
-0.20209480822086334 -0.979126513004303 -0.3479330539703369
-0.20252372324466705 -0.9788366556167603 -0.4810650050640106
-0.20295262336730957 -0.9785467982292175 -0.6141969561576843
-0.2033815234899521 -0.9782569408416748 -0.7473289370536804
-0.2038104236125946 -0.9779670834541321 -0.8804609179496765
-0.20423932373523712 -0.9776772260665894 -1.0135928392410278
-0.39095374941825867 -0.9214257001876831 0.9841407537460327
-0.3913826644420624 -0.9211358428001404 0.8510087728500366
-0.3918115794658661 -0.9208459854125977 0.7178767919540405
-0.3922404646873474 -0.9205561280250549 0.5847448706626892
-0.3926693797111511 -0.9202662706375122 0.4516128897666931
-0.39309826493263245 -0.9199764132499695 0.3184809386730194
-0.39352717995643616 -0.9196865558624268 0.1853489726781845
-0.3939560651779175 -0.919396698474884 0.052217014133930206
-0.3943849802017212 -0.9191068410873413 -0.0809149444103241
-0.3948138952255249 -0.9188169836997986 -0.214046910405159
-0.3952427804470062 -0.9185271263122559 -0.3471788763999939
-0.39567169547080994 -0.9182372689247131 -0.4803108274936676
-0.39610058069229126 -0.9179474115371704 -0.6134427785873413
-0.39652949571609497 -0.9176575541496277 -0.7465747594833374
-0.3969584107398987 -0.917367696762085 -0.8797066807746887
-0.39738729596138 -0.9170778393745422 -1.0128387212753296
-0.5679491758346558 -0.8231862187385559 0.984924852848053
-0.5683780908584595 -0.8228963613510132 0.8517928719520569
-0.5688070058822632 -0.8226065039634705 0.7186608910560608
-0.5692358613014221 -0.8223166465759277 0.5855289697647095
-0.5696647763252258 -0.822026789188385 0.4523969888687134
-0.5700936913490295 -0.8217369318008423 0.3192650377750397
-0.5705226063728333 -0.8214470744132996 0.18613307178020477
-0.570951521396637 -0.8211572170257568 0.05300112068653107
-0.5713803768157959 -0.8208673596382141 -0.08013083785772324
-0.5718092918395996 -0.8205775022506714 -0.21326279640197754
-0.5722382068634033 -0.8202876448631287 -0.34639474749565125
-0.572667121887207 -0.8199977874755859 -0.47952672839164734
-0.5730960369110107 -0.8197079300880432 -0.612658679485321
-0.5735248923301697 -0.8194180727005005 -0.7457906603813171
-0.5739538073539734 -0.8191282153129578 -0.8789225816726685
-0.5743827223777771 -0.818838357925415 -1.0120545625686646
-0.7215458154678345 -0.6913285255432129 0.9857067465782166
-0.7219747304916382 -0.6910386681556702 0.8525747656822205
-0.7224036455154419 -0.6907488107681274 0.7194428443908691
-0.7228325605392456 -0.6904589533805847 0.586310863494873
-0.7232614159584045 -0.690169095993042 0.45317891240119934
-0.7236903309822083 -0.6898792386054993 0.32004696130752563
-0.724119246006012 -0.6895893812179565 0.18691499531269073
-0.7245481610298157 -0.6892995238304138 0.05378303304314613
-0.7249770760536194 -0.6890096664428711 -0.07934892177581787
-0.7254059314727783 -0.6887198090553284 -0.21248088777065277
-0.725834846496582 -0.6884299516677856 -0.34561285376548767
-0.7262637615203857 -0.6881400942802429 -0.4787448048591614
-0.7266926765441895 -0.6878502368927002 -0.6118767857551575
-0.7271215915679932 -0.6875603795051575 -0.7450087070465088
-0.7275504469871521 -0.6872705221176147 -0.8781406879425049
-0.7279793620109558 -0.686980664730072 -1.011272668838501
-0.8454554677009583 -0.5312508940696716 0.9864544868469238
-0.8458843231201172 -0.5309610366821289 0.8533225059509277
-0.8463132381439209 -0.5306711792945862 0.7201905250549316
-0.8467421531677246 -0.5303813219070435 0.5870586037635803
-0.8471710681915283 -0.5300914645195007 0.45392662286758423
-0.847599983215332 -0.529801607131958 0.3207946717739105
-0.848028838634491 -0.5295117497444153 0.18766270577907562
-0.8484577536582947 -0.5292218923568726 0.05453075096011162
-0.8488866686820984 -0.5289320349693298 -0.07860121130943298
-0.8493155837059021 -0.5286421775817871 -0.2117331624031067
-0.8497444987297058 -0.5283523201942444 -0.3448651432991028
-0.8501733541488647 -0.5280624628067017 -0.4779970943927765
-0.8506022691726685 -0.5277726054191589 -0.6111290454864502
-0.8510311841964722 -0.5274827480316162 -0.7442610263824463
-0.8514600992202759 -0.5271928906440735 -0.8773929476737976
-0.8518890142440796 -0.5269030332565308 -1.0105249881744385
-0.9346051812171936 -0.3495069742202759 0.9871373772621155
-0.9350340366363525 -0.34921711683273315 0.8540053963661194
-0.9354629516601562 -0.34892725944519043 0.7208734750747681
-0.93589186668396 -0.3486374020576477 0.587741494178772
-0.9363207817077637 -0.348347544670105 0.45460954308509827
-0.9367496967315674 -0.34805768728256226 0.3214775621891022
-0.9371785521507263 -0.34776782989501953 0.18834561109542847
-0.93760746717453 -0.3474779725074768 0.055213652551174164
-0.9380363821983337 -0.3471881151199341 -0.07791830599308014
-0.9384652972221375 -0.34689825773239136 -0.21105027198791504
-0.9388942122459412 -0.34660840034484863 -0.34418222308158875
-0.9393230676651001 -0.3463185429573059 -0.47731417417526245
-0.9397519826889038 -0.3460286855697632 -0.6104461550712585
-0.9401808977127075 -0.34573882818222046 -0.7435780763626099
-0.9406098127365112 -0.34544897079467773 -0.876710057258606
-0.9410387277603149 -0.345159113407135 -1.009842038154602
-0.985345184803009 -0.153537318110466 0.9877275228500366
-0.985774040222168 -0.15324746072292328 0.8545955419540405
-0.9862029552459717 -0.15295760333538055 0.7214635610580444
-0.9866318702697754 -0.15266774594783783 0.5883316397666931
-0.9870607852935791 -0.1523779034614563 0.455199658870697
-0.9874897003173828 -0.15208804607391357 0.3220677077770233
-0.9879185557365417 -0.15179818868637085 0.18893574178218842
-0.9883474707603455 -0.15150833129882812 0.05580378696322441
-0.9887763857841492 -0.1512184739112854 -0.0773281678557396
-0.9892053008079529 -0.15092861652374268 -0.2104601263999939
-0.9896342158317566 -0.15063875913619995 -0.3435920774936676
-0.9900630712509155 -0.15034890174865723 -0.4767240583896637
-0.9904919862747192 -0.1500590443611145 -0.6098560094833374
-0.990920901298523 -0.14976918697357178 -0.7429879903793335
-0.9913498163223267 -0.14947932958602905 -0.8761199116706848
-0.9917787313461304 -0.14918947219848633 -1.0092518329620361
-0.9955981373786926 0.04863499477505684 0.9882007241249084
-0.9960270524024963 0.048924852162599564 0.8550687432289124
-0.9964559674263 0.04921470955014229 0.721936821937561
-0.9968848824501038 0.04950456693768501 0.5888048410415649
-0.9973137974739075 0.04979442432522774 0.45567286014556885
-0.9977426528930664 0.05008428171277046 0.32254090905189514
-0.9981715679168701 0.05037413910031319 0.18940895795822144
-0.9986004829406738 0.05066399648785591 0.056276991963386536
-0.9990293979644775 0.05095385015010834 -0.07685496658086777
-0.9994583129882812 0.05124370753765106 -0.20998692512512207
-0.9998871684074402 0.05153356492519379 -0.3431188762187958
-1.0003161430358887 0.05182342231273651 -0.47625085711479187
-1.0007449388504028 0.052113279700279236 -0.6093828082084656
-1.0011738538742065 0.05240313708782196 -0.7425147891044617
-1.0016027688980103 0.052692994475364685 -0.875646710395813
-1.002031683921814 0.05298285186290741 -1.008778691291809
-0.9649443626403809 0.2487330436706543 0.988537609577179
-0.9653732776641846 0.24902290105819702 0.8554056286811829
-0.9658021926879883 0.24931275844573975 0.7222737073898315
-0.966231107711792 0.24960261583328247 0.5891417264938354
-0.9666600227355957 0.2498924732208252 0.45600977540016174
-0.9670888781547546 0.2501823306083679 0.32287782430648804
-0.9675177931785583 0.25047218799591064 0.18974585831165314
-0.9679467082023621 0.25076204538345337 0.05661389231681824
-0.9683756232261658 0.2510519027709961 -0.07651806622743607
-0.9688045382499695 0.2513417601585388 -0.20965002477169037
-0.9692333936691284 0.25163161754608154 -0.34278199076652527
-0.9696623086929321 0.25192147493362427 -0.475913941860199
-0.9700912237167358 0.252211332321167 -0.6090459227561951
-0.9705201387405396 0.2525011897087097 -0.7421778440475464
-0.9709490537643433 0.25279104709625244 -0.8753098249435425
-0.9713779091835022 0.25308090448379517 -1.0084418058395386
-0.8946388363838196 0.4385647773742676 0.988724410533905
-0.8950676918029785 0.4388546347618103 0.8555924296379089
-0.8954966068267822 0.439144492149353 0.7224605083465576
-0.8959255218505859 0.43943434953689575 0.5893285274505615
-0.8963544368743896 0.4397242069244385 0.4561965763568878
-0.8967833518981934 0.4400140643119812 0.3230646252632141
-0.8972122073173523 0.4403039216995239 0.1899326592683792
-0.897641122341156 0.44059377908706665 0.05680070072412491
-0.8980700373649597 0.4408836364746094 -0.0763312578201294
-0.8984989523887634 0.4411734938621521 -0.2094632238149643
-0.8989278674125671 0.4414633512496948 -0.3425951898097992
-0.8993567228317261 0.44175320863723755 -0.4757271409034729
-0.8997856378555298 0.4420430660247803 -0.608859121799469
-0.9002145528793335 0.442332923412323 -0.7419910430908203
-0.9006434679031372 0.4426227807998657 -0.8751230239868164
-0.9010723829269409 0.44291263818740845 -1.0082550048828125
-0.7875597476959229 0.610358476638794 0.9887534976005554
-0.7879886627197266 0.6106483340263367 0.8556215167045593
-0.7884175777435303 0.6109381914138794 0.7224895358085632
-0.788846492767334 0.6112280488014221 0.5893576145172119
-0.7892753481864929 0.6115179061889648 0.4562256336212158
-0.7897042632102966 0.6118077635765076 0.3230936825275421
-0.7901331782341003 0.6120976209640503 0.18996171653270721
-0.790562093257904 0.612387478351593 0.05682976171374321
-0.7909910082817078 0.6126773357391357 -0.07630220055580139
-0.7914198637008667 0.6129671931266785 -0.2094341516494751
-0.7918487787246704 0.6132570505142212 -0.3425661325454712
-0.7922776937484741 0.6135469079017639 -0.4756980836391449
-0.7927066087722778 0.6138367652893066 -0.6088300347328186
-0.7931355237960815 0.6141266226768494 -0.7419620156288147
-0.7935643792152405 0.6144164800643921 -0.875093936920166
-0.7939932942390442 0.6147063374519348 -1.008225917816162
-0.6480910778045654 0.7570808529853821 0.9886236190795898
-0.6485199332237244 0.7573707103729248 0.8554916381835938
-0.6489488482475281 0.7576605677604675 0.7223597168922424
-0.6493777632713318 0.7579504251480103 0.5892277359962463
-0.6498066782951355 0.758240282535553 0.45609578490257263
-0.6502355933189392 0.7585301399230957 0.32296380400657654
-0.6506644487380981 0.7588199973106384 0.18983185291290283
-0.6510933637619019 0.7591098546981812 0.05669989064335823
-0.6515222787857056 0.7593997120857239 -0.07643207162618637
-0.6519511938095093 0.7596895694732666 -0.20956403017044067
-0.652380108833313 0.7599794268608093 -0.3426959812641144
-0.6528089642524719 0.760269284248352 -0.4758279621601105
-0.6532378792762756 0.7605591416358948 -0.6089599132537842
-0.6536667943000793 0.7608489990234375 -0.7420918941497803
-0.6540957093238831 0.7611388564109802 -0.8752238154411316
-0.6545246243476868 0.761428713798523 -1.008355736732483
-0.4819425642490387 0.8727250695228577 0.9883401393890381
-0.4823714792728424 0.8730149269104004 0.855208158493042
-0.48280036449432373 0.8733047842979431 0.7220761775970459
-0.48322927951812744 0.8735946416854858 0.5889442563056946
-0.48365816473960876 0.8738844990730286 0.4558122754096985
-0.4840870797634125 0.8741743564605713 0.3226803243160248
-0.4845159947872162 0.874464213848114 0.18954835832118988
-0.4849448800086975 0.8747540712356567 0.056416403502225876
-0.4853737950325012 0.8750439286231995 -0.07671555876731873
-0.48580268025398254 0.8753337860107422 -0.20984750986099243
-0.48623159527778625 0.8756236433982849 -0.3429794907569885
-0.48666051030158997 0.8759135007858276 -0.47611144185066223
-0.4870893955230713 0.8762033581733704 -0.6092433929443359
-0.487518310546875 0.8764932155609131 -0.742375373840332
-0.4879471957683563 0.8767830729484558 -0.8755072951316833
-0.48837611079216003 0.8770729303359985 -1.0086393356323242
-0.29591643810272217 0.9525567293167114 0.9879146218299866
-0.2963453233242035 0.9528465867042542 0.8547826409339905
-0.2967742383480072 0.9531364440917969 0.7216507196426392
-0.2972031235694885 0.9534263014793396 0.5885187387466431
-0.29763203859329224 0.9537161588668823 0.45538678765296936
-0.29806095361709595 0.954006016254425 0.32225483655929565
-0.29848983883857727 0.9542958736419678 0.18912287056446075
-0.298918753862381 0.9545857310295105 0.055990904569625854
-0.2993476390838623 0.9548755884170532 -0.07714105397462845
-0.299776554107666 0.955165445804596 -0.21027301251888275
-0.3002054691314697 0.9554553031921387 -0.34340497851371765
-0.30063435435295105 0.9557451605796814 -0.47653692960739136
-0.30106326937675476 0.9560350179672241 -0.6096689105033875
-0.3014921545982361 0.9563248753547668 -0.7428008317947388
-0.3019210696220398 0.9566147327423096 -0.8759328126907349
-0.3023499846458435 0.9569045901298523 -1.009064793586731
-0.09762857109308243 0.9933074116706848 0.9873645305633545
-0.09805747866630554 0.9935972690582275 0.8542325496673584
-0.09848637878894806 0.9938871264457703 0.7211006283760071
-0.09891528636217117 0.994176983833313 0.587968647480011
-0.09934418648481369 0.9944668412208557 0.4548366963863373
-0.09977308660745621 0.9947566986083984 0.3217047452926636
-0.10020199418067932 0.9950465559959412 0.18857277929782867
-0.10063089430332184 0.9953364133834839 0.05544081702828407
-0.10105980187654495 0.9956262707710266 -0.07769114524126053
-0.10148870199918747 0.9959161281585693 -0.21082310378551483
-0.10191760212182999 0.9962059855461121 -0.34395506978034973
-0.1023465096950531 0.9964958429336548 -0.47708702087402344
-0.10277540981769562 0.9967857003211975 -0.6102190017700195
-0.10320430994033813 0.9970755577087402 -0.7433509230613708
-0.10363321751356125 0.997365415096283 -0.8764829039573669
-0.10406211763620377 0.9976552724838257 -1.0096148252487183
0.10480306297540665 0.9933088421821594 0.9867123961448669
0.10437416285276413 0.9935986995697021 0.8535804152488708
0.10394526273012161 0.9938885569572449 0.7204484343528748
0.1035163551568985 0.9941784143447876 0.5873165130615234
0.10308745503425598 0.9944682717323303 0.45418453216552734
0.10265855491161346 0.994758129119873 0.32105258107185364
0.10222964733839035 0.9950479865074158 0.18792061507701874
0.10180074721574783 0.9953378438949585 0.054788656532764435
0.10137183964252472 0.9956277012825012 -0.07834330201148987
0.1009429395198822 0.995917558670044 -0.21147526800632477
0.10051403939723969 0.9962074160575867 -0.34460723400115967
0.10008513182401657 0.9964972734451294 -0.4777391850948334
0.09965623170137405 0.9967871308326721 -0.6108711361885071
0.09922732412815094 0.9970769882202148 -0.7440031170845032
0.09879842400550842 0.9973668456077576 -0.8771350383758545
0.0983695238828659 0.9976567029953003 -1.0102670192718506
0.3030909299850464 0.9525609016418457 0.9859848618507385
0.3026620149612427 0.9528507590293884 0.8528528809547424
0.30223309993743896 0.9531406164169312 0.7197209000587463
0.30180421471595764 0.9534304738044739 0.586588978767395
0.30137529969215393 0.9537203311920166 0.4534569978713989
0.3009464144706726 0.9540101885795593 0.3203250467777252
0.3005174994468689 0.954300045967102 0.1871930956840515
0.3000885844230652 0.9545899033546448 0.054061129689216614
0.29965969920158386 0.9548797607421875 -0.07907082885503769
0.29923078417778015 0.9551696181297302 -0.212202787399292
0.29880189895629883 0.955459475517273 -0.3453347384929657
0.2983729839324951 0.9557493329048157 -0.4784667193889618
0.2979440987110138 0.9560391902923584 -0.6115986704826355
0.2975151836872101 0.9563290476799011 -0.7447306513786316
0.29708626866340637 0.9566189050674438 -0.8778625726699829
0.29665738344192505 0.9569087624549866 -1.010994553565979
0.4891170561313629 0.8727319240570068 0.9852117300033569
0.4886881411075592 0.8730217814445496 0.8520797491073608
0.4882592558860779 0.8733116388320923 0.7189478278160095
0.48783034086227417 0.873601496219635 0.5858158469200134
0.48740145564079285 0.8738913536071777 0.4526838958263397
0.48697254061698914 0.8741812109947205 0.319551944732666
0.4865436255931854 0.8744710683822632 0.18641997873783112
0.4861147403717041 0.8747609257698059 0.053288016468286514
0.4856858253479004 0.8750507831573486 -0.07984394580125809
0.48525694012641907 0.8753406405448914 -0.2129759043455124
0.48482802510261536 0.8756304979324341 -0.3461078703403473
0.48439911007881165 0.8759203553199768 -0.479239821434021
0.4839702248573303 0.8762102127075195 -0.6123718023300171
0.4835413098335266 0.8765000700950623 -0.7455037236213684
0.4831124246120453 0.876789927482605 -0.8786357045173645
0.4826835095882416 0.8770797848701477 -1.0117676258087158
0.6552655696868896 0.7570899724960327 0.9844247102737427
0.6548366546630859 0.7573798298835754 0.8512927293777466
0.6544077396392822 0.7576696872711182 0.7181607484817505
0.6539788246154785 0.7579595446586609 0.5850288271903992
0.6535499095916748 0.7582494020462036 0.4518968462944031
0.6531210541725159 0.7585392594337463 0.31876489520072937
0.6526921391487122 0.7588291168212891 0.18563292920589447
0.6522632241249084 0.7591189742088318 0.05250096693634987
0.6518343091011047 0.7594088315963745 -0.08063099533319473
0.651405394077301 0.7596986889839172 -0.21376295387744904
0.6509765386581421 0.75998854637146 -0.34689491987228394
0.6505476236343384 0.7602784037590027 -0.48002687096595764
0.6501187086105347 0.7605682611465454 -0.6131588220596313
0.649689793586731 0.7608581185340881 -0.7462908029556274
0.6492608785629272 0.7611479759216309 -0.8794227242469788
0.6488320231437683 0.7614378333091736 -1.0125547647476196
0.7947342395782471 0.6103695631027222 0.9836559295654297
0.7943053245544434 0.6106594204902649 0.8505239486694336
0.7938764691352844 0.6109492778778076 0.7173920273780823
0.7934475541114807 0.6112391352653503 0.5842600464820862
0.793018639087677 0.6115289926528931 0.4511280953884125
0.7925897240638733 0.6118188500404358 0.3179961144924164
0.7921608090400696 0.6121087074279785 0.18486416339874268
0.7917319536209106 0.6123985648155212 0.05173220857977867
0.7913030385971069 0.612688422203064 -0.08139975368976593
0.7908741235733032 0.6129782795906067 -0.21453171968460083
0.7904452085494995 0.6132681369781494 -0.34766367077827454
0.7900162935256958 0.6135579943656921 -0.48079562187194824
0.7895874381065369 0.6138478517532349 -0.6139276027679443
0.7891585230827332 0.6141377091407776 -0.7470595240592957
0.7887296080589294 0.6144275665283203 -0.8801915049552917
0.7883006930351257 0.614717423915863 -1.013323426246643
0.9018133282661438 0.4385773837566376 0.9829369187355042
0.9013844132423401 0.4388672411441803 0.8498049974441528
0.9009554982185364 0.439157098531723 0.7166730165481567
0.9005265831947327 0.43944695591926575 0.5835410356521606
0.900097668170929 0.43973681330680847 0.45040908455848694
0.89966881275177 0.4400266706943512 0.31727713346481323
0.8992398977279663 0.4403165280818939 0.18414516746997833
0.8988109827041626 0.44060635566711426 0.05101320892572403
0.8983820676803589 0.440896213054657 -0.08211874961853027
0.8979531526565552 0.4411860704421997 -0.21525071561336517
0.8975242972373962 0.44147592782974243 -0.3483826816082001
0.8970953822135925 0.44176578521728516 -0.4815146327018738
0.8966664671897888 0.4420556426048279 -0.6146466135978699
0.8962375521659851 0.4423454999923706 -0.7477785348892212
0.8958086371421814 0.44263535737991333 -0.8809105157852173
0.8953797817230225 0.44292521476745605 -1.0140424966812134
0.9721188545227051 0.2487466186285019 0.9822971224784851
0.9716899991035461 0.24903647601604462 0.849165141582489
0.9712610840797424 0.24932633340358734 0.7160332202911377
0.9708321690559387 0.24961619079113007 0.5829012393951416
0.970403254032135 0.2499060481786728 0.4497692883014679
0.9699743390083313 0.2501959204673767 0.3166373372077942
0.9695454835891724 0.25048577785491943 0.1835053712129593
0.9691165685653687 0.25077563524246216 0.05037340521812439
0.9686876535415649 0.2510654926300049 -0.08275855332612991
0.9682587385177612 0.2513553500175476 -0.21589051187038422
0.9678298234939575 0.25164520740509033 -0.3490224778652191
0.9674009680747986 0.25193506479263306 -0.4821544289588928
0.9669720530509949 0.2522249221801758 -0.6152864098548889
0.9665431380271912 0.2525147795677185 -0.7484183311462402
0.9661142230033875 0.25280463695526123 -0.8815503120422363
0.9656853079795837 0.25309449434280396 -1.0146822929382324
1.0027726888656616 0.04864901304244995 0.981762707233429
1.002343773841858 0.048938870429992676 0.8486307263374329
1.0019148588180542 0.0492287278175354 0.7154988050460815
1.0014859437942505 0.04951858147978783 0.5823668241500854
1.0010570287704468 0.04980843886733055 0.44923487305641174
1.000628113746643 0.050098296254873276 0.31610292196273804
1.0001991987228394 0.050388153642416 0.18297095596790314
0.9997703433036804 0.050678011029958725 0.049838997423648834
0.9993414282798767 0.05096786841750145 -0.08329296112060547
0.998912513256073 0.051257725805044174 -0.21642492711544037
0.9984835982322693 0.0515475831925869 -0.34955689311027527
0.9980547428131104 0.05183744058012962 -0.482688844203949
0.9976258277893066 0.05212729796767235 -0.6158208250999451
0.9971969127655029 0.05241715535521507 -0.7489527463912964
0.9967679977416992 0.0527070127427578 -0.8820847272872925
0.9963390827178955 0.05299686640501022 -1.0152167081832886
0.9925196766853333 -0.15352344512939453 0.9813555479049683
0.9920907616615295 -0.1532335877418518 0.8482236266136169
0.9916618466377258 -0.15294373035430908 0.7150916457176208
0.9912329316139221 -0.15265387296676636 0.5819596648216248
0.9908040165901184 -0.15236401557922363 0.44882774353027344
0.9903751611709595 -0.1520741730928421 0.31569576263427734
0.9899462461471558 -0.15178431570529938 0.18256381154060364
0.989517331123352 -0.15149445831775665 0.049431852996349335
0.9890884160995483 -0.15120460093021393 -0.08370010554790497
0.9886595010757446 -0.1509147435426712 -0.21683207154273987
0.9882306456565857 -0.15062488615512848 -0.3499640226364136
0.987801730632782 -0.15033502876758575 -0.4830959737300873
0.9873728156089783 -0.15004517138004303 -0.616227924823761
0.9869439005851746 -0.1497553139925003 -0.7493599057197571
0.9865149855613708 -0.14946545660495758 -0.8824918866157532
0.9860861301422119 -0.14917559921741486 -1.0156238079071045
0.9417796730995178 -0.3494938015937805 0.9810923933982849
0.9413507580757141 -0.3492039442062378 0.8479604125022888
0.9409218430519104 -0.34891408681869507 0.7148284316062927
0.9404929280281067 -0.34862422943115234 0.5816965103149414
0.940064013004303 -0.3483343720436096 0.4485645294189453
0.939635157585144 -0.3480445146560669 0.3154325783252716
0.9392062425613403 -0.34775465726852417 0.1823006123304367
0.9387773275375366 -0.34746479988098145 0.049168650060892105
0.9383484125137329 -0.3471749424934387 -0.0839633122086525
0.9379194974899292 -0.346885085105896 -0.2170952707529068
0.9374906420707703 -0.34659522771835327 -0.3502272367477417
0.9370617270469666 -0.34630537033081055 -0.4833591878414154
0.9366328120231628 -0.3460155129432678 -0.6164911389350891
0.9362038969993591 -0.3457256555557251 -0.7496231198310852
0.9357749819755554 -0.3454357981681824 -0.8827550411224365
0.9353461265563965 -0.34514594078063965 -1.0158870220184326
0.8526299595832825 -0.5312389731407166 0.9809838533401489
0.8522010445594788 -0.5309491157531738 0.8478519320487976
0.851772129535675 -0.5306592583656311 0.7147199511528015
0.8513432145118713 -0.5303694009780884 0.5815879702568054
0.8509143590927124 -0.5300795435905457 0.4484560489654541
0.8504854440689087 -0.5297896862030029 0.315324068069458
0.850056529045105 -0.5294998288154602 0.1821921169757843
0.8496276140213013 -0.5292099714279175 0.04906015843153
0.8491986989974976 -0.5289201140403748 -0.0840718001127243
0.8487698435783386 -0.528630256652832 -0.2172037661075592
0.8483409285545349 -0.5283403992652893 -0.3503357172012329
0.8479120135307312 -0.5280505418777466 -0.4834676682949066
0.8474830985069275 -0.5277606844902039 -0.6165996193885803
0.8470541834831238 -0.5274708271026611 -0.7497316002845764
0.8466253280639648 -0.5271809697151184 -0.8828635811805725
0.8461964130401611 -0.5268911123275757 -1.0159955024719238
0.7287203073501587 -0.6913183331489563 0.981034517288208
0.728291392326355 -0.6910284757614136 0.8479025959968567
0.727862536907196 -0.6907386183738708 0.7147706151008606
0.7274336218833923 -0.6904487609863281 0.5816386342048645
0.7270047068595886 -0.6901589035987854 0.4485067129135132
0.7265757918357849 -0.6898690462112427 0.3153747320175171
0.7261468768119812 -0.6895791888237 0.18224278092384338
0.7257180213928223 -0.6892893314361572 0.04911082237958908
0.7252891063690186 -0.6889994740486145 -0.08402113616466522
0.7248601913452148 -0.6887096166610718 -0.21715310215950012
0.7244312763214111 -0.688419759273529 -0.35028505325317383
0.7240023612976074 -0.6881299018859863 -0.48341700434684753
0.7235735058784485 -0.6878400444984436 -0.6165489554405212
0.7231445908546448 -0.6875501871109009 -0.7496809363365173
0.7227156758308411 -0.6872603297233582 -0.8828129172325134
0.7222867608070374 -0.6869704723358154 -1.0159448385238647
0.57512366771698 -0.8231781721115112 0.981242299079895
0.5746947526931763 -0.8228883147239685 0.8481103181838989
0.5742658376693726 -0.8225984573364258 0.7149783968925476
0.5738369822502136 -0.8223085999488831 0.5818464159965515
0.5734080672264099 -0.8220187425613403 0.4487144351005554
0.5729791522026062 -0.8217288851737976 0.3155824840068817
0.5725502371788025 -0.8214390277862549 0.182450532913208
0.5721213221549988 -0.8211491703987122 0.049318570643663406
0.5716924667358398 -0.8208593130111694 -0.0838133916258812
0.5712635517120361 -0.8205694556236267 -0.2169453501701355
0.5708346366882324 -0.820279598236084 -0.3500773012638092
0.5704057216644287 -0.8199897408485413 -0.4832092821598053
0.569976806640625 -0.8196998834609985 -0.616341233253479
0.5695479512214661 -0.8194100260734558 -0.7494732141494751
0.5691190361976624 -0.8191201686859131 -0.8826051354408264
0.5686901211738586 -0.8188303112983704 -1.0157370567321777
0.3981282413005829 -0.921420156955719 0.9815986156463623
0.39769935607910156 -0.9211302995681763 0.8484666347503662
0.39727044105529785 -0.9208404421806335 0.7153347134590149
0.39684155583381653 -0.9205505847930908 0.5822027325630188
0.3964126408100128 -0.9202607274055481 0.4490707814693451
0.3959837257862091 -0.9199708700180054 0.315938800573349
0.3955548405647278 -0.9196810126304626 0.1828068494796753
0.3951259255409241 -0.9193911552429199 0.04967489093542099
0.39469704031944275 -0.9191012978553772 -0.08345706760883331
0.39426812529563904 -0.9188114404678345 -0.2165890336036682
0.3938392102718353 -0.9185215830802917 -0.3497209846973419
0.393410325050354 -0.918231725692749 -0.4828529357910156
0.3929814100265503 -0.9179418683052063 -0.6159849166870117
0.39255252480506897 -0.9176520109176636 -0.7491168975830078
0.39212360978126526 -0.9173621535301208 -0.8822488188743591
0.39169469475746155 -0.9170722961425781 -1.0153807401657104
0.20498026907444 -0.9820222854614258 0.9820889234542847
0.20455136895179749 -0.9817324280738831 0.8489569425582886
0.20412246882915497 -0.9814425706863403 0.7158250212669373
0.20369356870651245 -0.9811527132987976 0.5826930403709412
0.20326466858386993 -0.9808628559112549 0.44956108927726746
0.20283575356006622 -0.9805729985237122 0.31642910838127136
0.2024068534374237 -0.9802831411361694 0.18329715728759766
0.2019779533147812 -0.9799932837486267 0.05016519874334335
0.20154905319213867 -0.979703426361084 -0.08296675980091095
0.20112015306949615 -0.9794135689735413 -0.21609872579574585
0.20069125294685364 -0.9791237115859985 -0.34923067688941956
0.20026233792304993 -0.9788338541984558 -0.48236262798309326
0.1998334378004074 -0.9785439968109131 -0.6154946088790894
0.1994045376777649 -0.9782541394233704 -0.7486265301704407
0.19897563755512238 -0.9779642820358276 -0.8817585110664368
0.19854673743247986 -0.9776744246482849 -1.014890432357788
0.0035872459411621094 -1.0025033950805664 0.9826931357383728
0.0031583430245518684 -1.0022135972976685 0.8495611548423767
0.002729439875110984 -1.001923680305481 0.7164292335510254
0.002300536958500743 -1.001633882522583 0.5832972526550293
0.0018716339254751801 -1.0013439655303955 0.4501653015613556
0.0014427310088649392 -1.0010541677474976 0.3170333504676819
0.0010138279758393764 -1.00076425075531 0.18390138447284698
0.0005849250010214746 -1.000474452972412 0.05076942220330238
0.00015602198254782706 -1.0001845359802246 -0.08236254006624222
-0.00027288100682199 -0.9998946785926819 -0.21549449861049652
-0.0007017839816398919 -0.9996048212051392 -0.3486264646053314
-0.0011306869564577937 -0.9993149638175964 -0.4817584156990051
-0.0015595899894833565 -0.9990251064300537 -0.6148903965950012
-0.0019884929060935974 -0.998735249042511 -0.7480223178863525
-0.002417396055534482 -0.9984453916549683 -0.8811542987823486
-0.002846298972144723 -0.9981555342674255 -1.0142862796783447
