ply
format ascii 1.0
element vertex 512
property float x
property float y
property float z
end_header
-1.4161890745162964 -1.2050334215164185 -0.02404928207397461
-1.239814281463623 -1.2050334215164185 -0.0246864203363657
-1.0634396076202393 -1.2050334215164185 -0.02532356046140194
-0.8870648145675659 -1.2050334215164185 -0.02596069872379303
-0.7106900215148926 -1.2050334215164185 -0.02659783698618412
-0.534315288066864 -1.2050334215164185 -0.02723497524857521
-0.3579404950141907 -1.2050334215164185 -0.02787211537361145
-0.18156573176383972 -1.2050334215164185 -0.02850925363600254
-0.005190971773117781 -1.2050334215164185 -0.02914639189839363
0.17118379473686218 -1.2050334215164185 -0.02978353202342987
0.34755855798721313 -1.2050334215164185 -0.03042067028582096
0.5239332914352417 -1.2050334215164185 -0.03105780854821205
0.700308084487915 -1.2050334215164185 -0.03169494867324829
0.8766828179359436 -1.2050334215164185 -0.03233208507299423
1.0530575513839722 -1.2050334215164185 -0.03296922519803047
1.2294323444366455 -1.2050334215164185 -0.03360636532306671
-1.4170441627502441 -1.1809617280960083 -0.26076382398605347
-1.2406693696975708 -1.1809617280960083 -0.26140096783638
-1.064294695854187 -1.1809617280960083 -0.26203811168670654
-0.8879199028015137 -1.1809617280960083 -0.2626752555370331
-0.7115451097488403 -1.1809617280960083 -0.2633123993873596
-0.5351703763008118 -1.1809617280960083 -0.26394951343536377
-0.3587956130504608 -1.1809617280960083 -0.2645866572856903
-0.18242084980010986 -1.1809617280960083 -0.26522380113601685
-0.0060460832901299 -1.1809617280960083 -0.2658609449863434
0.17032867670059204 -1.1809617280960083 -0.2664980888366699
0.346703439950943 -1.1809617280960083 -0.26713523268699646
0.523078203201294 -1.1809617280960083 -0.2677723467350006
0.6994529962539673 -1.1809617280960083 -0.26840949058532715
0.8758277297019958 -1.1809617280960083 -0.2690466344356537
1.0522024631500244 -1.1809617280960083 -0.2696837782859802
1.2285772562026978 -1.1809617280960083 -0.27032092213630676
-1.4178643226623535 -1.1097322702407837 -0.48778724670410156
-1.2414895296096802 -1.1097322702407837 -0.4884243905544281
-1.0651147365570068 -1.1097322702407837 -0.48906153440475464
-0.8887400031089783 -1.1097322702407837 -0.4896986782550812
-0.7123652100563049 -1.1097322702407837 -0.4903358221054077
-0.5359904766082764 -1.1097322702407837 -0.49097296595573425
-0.3596157133579254 -1.1097322702407837 -0.4916100800037384
-0.18324095010757446 -1.1097322702407837 -0.49224722385406494
-0.006866185925900936 -1.1097322702407837 -0.4928843677043915
0.16950857639312744 -1.1097322702407837 -0.493521511554718
0.3458833396434784 -1.1097322702407837 -0.49415865540504456
0.5222581028938293 -1.1097322702407837 -0.4947957992553711
0.6986328363418579 -1.1097322702407837 -0.49543291330337524
0.8750076293945312 -1.1097322702407837 -0.4960700571537018
1.0513824224472046 -1.1097322702407837 -0.4967072010040283
1.2277570962905884 -1.1097322702407837 -0.49734434485435486
-1.4186158180236816 -0.9942609667778015 -0.6958252191543579
-1.2422410249710083 -0.9942609667778015 -0.6964623332023621
-1.065866231918335 -0.9942609667778015 -0.6970994472503662
-0.8894914984703064 -0.9942609667778015 -0.6977366209030151
-0.7131167650222778 -0.9942609667778015 -0.6983737349510193
-0.5367419719696045 -0.9942609667778015 -0.6990109086036682
-0.3603672385215759 -0.9942609667778015 -0.6996480226516724
-0.18399247527122498 -0.9942609667778015 -0.7002851963043213
-0.007617705035954714 -0.9942609667778015 -0.7009223103523254
0.16875705122947693 -0.9942609667778015 -0.7015594244003296
0.3451318144798279 -0.9942609667778015 -0.7021965980529785
0.5215066075325012 -0.9942609667778015 -0.7028337121009827
0.6978813409805298 -0.9942609667778015 -0.7034708857536316
0.8742561340332031 -0.9942609667778015 -0.7041079998016357
1.0506309270858765 -0.9942609667778015 -0.7047451138496399
1.2270056009292603 -0.9942609667778015 -0.7053822875022888
-1.419268012046814 -0.8392754793167114 -0.8763605356216431
-1.2428932189941406 -0.8392754793167114 -0.876997709274292
-1.0665184259414673 -0.8392754793167114 -0.8776348233222961
-0.8901436924934387 -0.8392754793167114 -0.8782719969749451
-0.7137688994407654 -0.8392754793167114 -0.8789091110229492
-0.5373941659927368 -0.8392754793167114 -0.8795462250709534
-0.36101940274238586 -0.8392754793167114 -0.8801833987236023
-0.1846446394920349 -0.8392754793167114 -0.8808205127716064
-0.008269873447716236 -0.8392754793167114 -0.8814576864242554
0.168104887008667 -0.8392754793167114 -0.8820948004722595
0.34447965025901794 -0.8392754793167114 -0.8827319145202637
0.5208544135093689 -0.8392754793167114 -0.8833690881729126
0.6972292065620422 -0.8392754793167114 -0.8840062022209167
0.8736039400100708 -0.8392754793167114 -0.8846433758735657
1.0499787330627441 -0.8392754793167114 -0.8852804899215698
1.226353406906128 -0.8392754793167114 -0.8859176635742188
-1.4197940826416016 -0.6511207818984985 -1.0220022201538086
-1.2434192895889282 -0.6511207818984985 -1.022639274597168
-1.0670446157455444 -0.6511207818984985 -1.023276448249817
-0.8906698226928711 -0.6511207818984985 -1.0239136219024658
-0.7142950296401978 -0.6511207818984985 -1.0245507955551147
-0.5379202961921692 -0.6511207818984985 -1.0251878499984741
-0.36154550313949585 -0.6511207818984985 -1.025825023651123
-0.1851707547903061 -0.6511207818984985 -1.026462197303772
-0.00879599153995514 -0.6511207818984985 -1.0270992517471313
0.1675787717103958 -0.6511207818984985 -1.0277364253997803
0.34395352005958557 -0.6511207818984985 -1.0283735990524292
0.5203282833099365 -0.6511207818984985 -1.0290106534957886
0.6967030763626099 -0.6511207818984985 -1.0296478271484375
0.8730778098106384 -0.6511207818984985 -1.0302850008010864
1.049452543258667 -0.6511207818984985 -1.0309221744537354
1.2258273363113403 -0.6511207818984985 -1.0315592288970947
-1.4201725721359253 -0.4374999701976776 -1.126787543296814
-1.2437978982925415 -0.4374999701976776 -1.1274245977401733
-1.0674231052398682 -0.4374999701976776 -1.1280617713928223
-0.8910483121871948 -0.4374999701976776 -1.1286989450454712
-0.7146735787391663 -0.4374999701976776 -1.1293361186981201
-0.5382987856864929 -0.4374999701976776 -1.1299731731414795
-0.36192405223846436 -0.4374999701976776 -1.1306103467941284
-0.1855492889881134 -0.4374999701976776 -1.1312475204467773
-0.009174520149827003 -0.4374999701976776 -1.1318845748901367
0.1672002375125885 -0.4374999701976776 -1.1325217485427856
0.34357500076293945 -0.4374999701976776 -1.1331589221954346
0.5199497938156128 -0.4374999701976776 -1.133795976638794
0.6963245272636414 -0.4374999701976776 -1.1344331502914429
0.8726993203163147 -0.4374999701976776 -1.1350703239440918
1.0490740537643433 -0.4374999701976776 -1.1357074975967407
1.2254488468170166 -0.4374999701976776 -1.1363445520401
-1.420388102531433 -0.20715871453285217 -1.1864266395568848
-1.2440133094787598 -0.20715871453285217 -1.1870636940002441
-1.0676385164260864 -0.20715871453285217 -1.187700867652893
-0.8912637829780579 -0.20715871453285217 -1.188338041305542
-0.7148889899253845 -0.20715871453285217 -1.1889750957489014
-0.538514256477356 -0.20715871453285217 -1.1896122694015503
-0.362139493227005 -0.20715871453285217 -1.1902494430541992
-0.18576472997665405 -0.20715871453285217 -1.1908866167068481
-0.009389961138367653 -0.20715871453285217 -1.1915236711502075
0.16698479652404785 -0.20715871453285217 -1.1921608448028564
0.3433595597743988 -0.20715871453285217 -1.1927980184555054
0.5197343230247498 -0.20715871453285217 -1.1934350728988647
0.6961091160774231 -0.20715871453285217 -1.1940722465515137
0.8724838495254517 -0.20715871453285217 -1.1947094202041626
1.048858642578125 -0.20715871453285217 -1.1953465938568115
1.2252334356307983 -0.20715871453285217 -1.195983648300171
-1.4204316139221191 0.030472762882709503 -1.198477864265442
-1.2440568208694458 0.030472762882709503 -1.1991149187088013
-1.0676820278167725 0.030472762882709503 -1.1997520923614502
-0.8913072943687439 0.030472762882709503 -1.2003892660140991
-0.7149325609207153 0.030472762882709503 -1.2010263204574585
-0.538557767868042 0.030472762882709503 -1.2016634941101074
-0.3621830344200134 0.030472762882709503 -1.2023006677627563
-0.18580825626850128 0.030472762882709503 -1.2029378414154053
-0.009433494880795479 0.030472762882709503 -1.2035748958587646
0.16694127023220062 0.030472762882709503 -1.2042120695114136
0.3433160185813904 0.030472762882709503 -1.2048492431640625
0.5196908116340637 0.030472762882709503 -1.2054862976074219
0.6960655450820923 0.030472762882709503 -1.2061234712600708
0.8724403381347656 0.030472762882709503 -1.2067606449127197
1.048815131187439 0.030472762882709503 -1.2073978185653687
1.2251898050308228 0.030472762882709503 -1.208034873008728
-1.4203014373779297 0.26566582918167114 -1.1624478101730347
-1.2439266443252563 0.26566582918167114 -1.1630849838256836
-1.0675519704818726 0.26566582918167114 -1.163722038269043
-0.8911771774291992 0.26566582918167114 -1.164359211921692
-0.7148023843765259 0.26566582918167114 -1.1649963855743408
-0.5384276509284973 0.26566582918167114 -1.1656335592269897
-0.362052857875824 0.26566582918167114 -1.1662706136703491
-0.18567810952663422 0.26566582918167114 -1.166907787322998
-0.009303339757025242 0.26566582918167114 -1.167544960975647
0.1670714169740677 0.26566582918167114 -1.1681820154190063
0.34344619512557983 0.26566582918167114 -1.1688191890716553
0.5198209285736084 0.26566582918167114 -1.1694563627243042
0.6961957216262817 0.26566582918167114 -1.1700934171676636
0.8725704550743103 0.26566582918167114 -1.1707305908203125
1.0489451885223389 0.26566582918167114 -1.1713677644729614
1.2253199815750122 0.26566582918167114 -1.1720049381256104
-1.4200029373168945 0.4887916147708893 -1.0798115730285645
-1.2436281442642212 0.4887916147708893 -1.0804487466812134
-1.0672533512115479 0.4887916147708893 -1.0810859203338623
-0.8908786177635193 0.4887916147708893 -1.0817230939865112
-0.7145038843154907 0.4887916147708893 -1.0823601484298706
-0.5381290912628174 0.4887916147708893 -1.0829973220825195
-0.3617543578147888 0.4887916147708893 -1.0836344957351685
-0.18537957966327667 0.4887916147708893 -1.0842715501785278
-0.009004823863506317 0.4887916147708893 -1.0849087238311768
0.16736993193626404 0.4887916147708893 -1.0855458974838257
0.343744695186615 0.4887916147708893 -1.086182951927185
0.5201194882392883 0.4887916147708893 -1.086820125579834
0.6964942216873169 0.4887916147708893 -1.087457299232483
0.8728690147399902 0.4887916147708893 -1.0880944728851318
1.0492438077926636 0.4887916147708893 -1.0887315273284912
1.2256184816360474 0.4887916147708893 -1.0893687009811401
-1.4195482730865479 0.6907153725624084 -0.9539523720741272
-1.2431734800338745 0.6907153725624084 -0.9545895457267761
-1.0667986869812012 0.6907153725624084 -0.9552266597747803
-0.8904239535331726 0.6907153725624084 -0.9558638334274292
-0.714049220085144 0.6907153725624084 -0.9565009474754333
-0.5376744270324707 0.6907153725624084 -0.9571381211280823
-0.36129969358444214 0.6907153725624084 -0.9577752351760864
-0.1849249303340912 0.6907153725624084 -0.9584123492240906
-0.008550168015062809 0.6907153725624084 -0.9590495228767395
0.16782459616661072 0.6907153725624084 -0.9596866369247437
0.34419935941696167 0.6907153725624084 -0.9603238105773926
0.5205740928649902 0.6907153725624084 -0.9609609246253967
0.6969488859176636 0.6907153725624084 -0.9615980386734009
0.8733236193656921 0.6907153725624084 -0.9622352123260498
1.0496983528137207 0.6907153725624084 -0.962872326374054
1.226073145866394 0.6907153725624084 -0.9635095000267029
-1.4189560413360596 0.863170325756073 -0.7900228500366211
-1.2425813674926758 0.863170325756073 -0.7906599640846252
-1.0662065744400024 0.863170325756073 -0.7912971377372742
-0.8898317813873291 0.863170325756073 -0.7919342517852783
-0.7134570479393005 0.863170325756073 -0.7925713658332825
-0.5370822548866272 0.863170325756073 -0.7932085394859314
-0.36070752143859863 0.863170325756073 -0.7938456535339355
-0.1843327432870865 0.863170325756073 -0.7944828271865845
-0.007957986555993557 0.863170325756073 -0.7951199412345886
0.16841678321361542 0.863170325756073 -0.7957571148872375
0.3447915315628052 0.863170325756073 -0.7963942289352417
0.5211663246154785 0.863170325756073 -0.7970313429832458
0.6975410580635071 0.863170325756073 -0.7976685166358948
0.8739158511161804 0.863170325756073 -0.7983056306838989
1.050290584564209 0.863170325756073 -0.7989428043365479
1.2266653776168823 0.863170325756073 -0.799579918384552
-1.4182506799697876 0.9990960955619812 -0.594734251499176
-1.2418758869171143 0.9990960955619812 -0.5953713655471802
-1.065501093864441 0.9990960955619812 -0.5960084795951843
-0.8891263604164124 0.9990960955619812 -0.5966456532478333
-0.712751567363739 0.9990960955619812 -0.5972827672958374
-0.5363768339157104 0.9990960955619812 -0.5979199409484863
-0.3600020408630371 0.9990960955619812 -0.5985570549964905
-0.18362729251384735 0.9990960955619812 -0.5991942286491394
-0.007252522744238377 0.9990960955619812 -0.5998313426971436
0.16912223398685455 0.9990960955619812 -0.6004684567451477
0.3454970121383667 0.9990960955619812 -0.6011056303977966
0.5218717455863953 0.9990960955619812 -0.6017427444458008
0.6982465386390686 0.9990960955619812 -0.6023799180984497
0.8746212720870972 0.9990960955619812 -0.6030170321464539
1.0509960651397705 0.9990960955619812 -0.603654146194458
1.2273708581924438 0.9990960955619812 -0.6042913198471069
-1.4174607992172241 1.0929279327392578 -0.3760817050933838
-1.2410860061645508 1.0929279327392578 -0.3767188489437103
-1.0647112131118774 1.0929279327392578 -0.37735599279403687
-0.8883364796638489 1.0929279327392578 -0.3779931366443634
-0.7119616866111755 1.0929279327392578 -0.37863025069236755
-0.535586953163147 1.0929279327392578 -0.3792673945426941
-0.359212189912796 1.0929279327392578 -0.37990453839302063
-0.18283742666244507 1.0929279327392578 -0.38054168224334717
-0.0064626592211425304 1.0929279327392578 -0.3811788260936737
0.16991209983825684 1.0929279327392578 -0.38181596994400024
0.3462868630886078 1.0929279327392578 -0.3824530839920044
0.5226616263389587 1.0929279327392578 -0.38309022784233093
0.6990364193916321 1.0929279327392578 -0.38372737169265747
0.8754111528396606 1.0929279327392578 -0.384364515542984
1.051785945892334 1.0929279327392578 -0.38500165939331055
1.2281607389450073 1.0929279327392578 -0.3856388032436371
-1.416618824005127 1.1408241987228394 -0.14301693439483643
-1.2402440309524536 1.1408241987228394 -0.14365407824516296
-1.0638693571090698 1.1408241987228394 -0.1442912220954895
-0.8874945640563965 1.1408241987228394 -0.14492835104465485
-0.7111197710037231 1.1408241987228394 -0.14556549489498138
-0.5347450375556946 1.1408241987228394 -0.14620263874530792
-0.35837024450302124 1.1408241987228394 -0.14683976769447327
-0.18199549615383148 1.1408241987228394 -0.1474769115447998
-0.0056207324378192425 1.1408241987228394 -0.14811405539512634
0.17075403034687042 1.1408241987228394 -0.1487511843442917
0.3471287786960602 1.1408241987228394 -0.14938832819461823
0.5235035419464111 1.1408241987228394 -0.15002547204494476
0.6998783349990845 1.1408241987228394 -0.1506626009941101
0.876253068447113 1.1408241987228394 -0.15129974484443665
1.0526278018951416 1.1408241987228394 -0.15193688869476318
1.229002594947815 1.1408241987228394 -0.15257401764392853
-1.4157593250274658 1.1408241987228394 0.0949183776974678
-1.2393845319747925 1.1408241987228394 0.09428124129772186
-1.0630097389221191 1.1408241987228394 0.09364409744739532
-0.8866350054740906 1.1408241987228394 0.09300696104764938
-0.710260272026062 1.1408241987228394 0.09236982464790344
-0.5338854789733887 1.1408241987228394 0.0917326807975769
-0.3575107455253601 1.1408241987228394 0.09109554439783096
-0.18113596737384796 1.1408241987228394 0.09045840799808502
-0.004761211574077606 1.1408241987228394 0.08982126414775848
0.17161354422569275 1.1408241987228394 0.08918412774801254
0.3479883074760437 1.1408241987228394 0.0885469913482666
0.524363100528717 1.1408241987228394 0.08790984749794006
0.7007378339767456 1.1408241987228394 0.08727271109819412
0.877112627029419 1.1408241987228394 0.08663557469844818
1.0534874200820923 1.1408241987228394 0.08599843084812164
1.229862093925476 1.1408241987228394 0.0853612944483757
-1.4149173498153687 1.0929279327392578 0.32798314094543457
-1.2385426759719849 1.0929279327392578 0.32734599709510803
-1.0621678829193115 1.0929279327392578 0.3267088532447815
-0.8857930898666382 1.0929279327392578 0.32607173919677734
-0.7094183564186096 1.0929279327392578 0.3254345953464508
-0.5330435633659363 1.0929279327392578 0.32479745149612427
-0.3566688001155853 1.0929279327392578 0.32416030764579773
-0.18029405176639557 1.0929279327392578 0.3235231637954712
-0.003919284790754318 1.0929279327392578 0.32288601994514465
0.17245547473430634 1.0929279327392578 0.3222489058971405
0.3488302528858185 1.0929279327392578 0.32161176204681396
0.5252050161361694 1.0929279327392578 0.3209746181964874
0.701579749584198 1.0929279327392578 0.3203374743461609
0.8779545426368713 1.0929279327392578 0.31970033049583435
1.0543292760849 1.0929279327392578 0.3190631866455078
1.2307040691375732 1.0929279327392578 0.31842607259750366
-1.4141274690628052 0.9990960955619812 0.5466356873512268
-1.2377527952194214 0.9990960955619812 0.5459985136985779
-1.061378002166748 0.9990960955619812 0.5453613996505737
-0.8850032091140747 0.9990960955619812 0.5447242259979248
-0.7086284756660461 0.9990960955619812 0.5440871119499207
-0.5322536826133728 0.9990960955619812 0.5434499979019165
-0.35587894916534424 0.9990960955619812 0.5428128242492676
-0.1795041859149933 0.9990960955619812 0.5421757102012634
-0.003129421267658472 0.9990960955619812 0.5415385365486145
0.17324534058570862 0.9990960955619812 0.5409014225006104
0.34962010383605957 0.9990960955619812 0.5402642488479614
0.5259948968887329 0.9990960955619812 0.5396271347999573
0.7023696303367615 0.9990960955619812 0.5389900207519531
0.87874436378479 0.9990960955619812 0.5383528470993042
1.0551191568374634 0.9990960955619812 0.5377157330513
1.2314939498901367 0.9990960955619812 0.5370785593986511
-1.4134221076965332 0.863170325756073 0.7419242858886719
-1.2370473146438599 0.863170325756073 0.741287112236023
-1.0606725215911865 0.863170325756073 0.7406499981880188
-0.884297788143158 0.863170325756073 0.7400128841400146
-0.7079229950904846 0.863170325756073 0.7393757104873657
-0.531548261642456 0.863170325756073 0.7387385964393616
-0.3551734685897827 0.863170325756073 0.7381014227867126
-0.17879872024059296 0.863170325756073 0.7374643087387085
-0.0024239576887339354 0.863170325756073 0.7368271350860596
0.17395080626010895 0.863170325756073 0.7361900210380554
0.3503255546092987 0.863170325756073 0.7355529069900513
0.5267003178596497 0.863170325756073 0.7349157333374023
0.703075110912323 0.863170325756073 0.7342786192893982
0.8794498443603516 0.863170325756073 0.7336414456367493
1.055824637413025 0.863170325756073 0.7330043315887451
1.2321994304656982 0.863170325756073 0.732367217540741
-1.412829875946045 0.6907153725624084 0.905853807926178
-1.2364550828933716 0.6907153725624084 0.9052166938781738
-1.0600804090499878 0.6907153725624084 0.9045795798301697
-0.8837056159973145 0.6907153725624084 0.9039424061775208
-0.7073308229446411 0.6907153725624084 0.9033052921295166
-0.5309560894966125 0.6907153725624084 0.9026681184768677
-0.3545812964439392 0.6907153725624084 0.9020310044288635
-0.17820653319358826 0.6907153725624084 0.9013938903808594
-0.0018317761132493615 0.6907153725624084 0.9007567167282104
0.17454299330711365 0.6907153725624084 0.9001196026802063
0.3509177565574646 0.6907153725624084 0.8994824290275574
0.5272924900054932 0.6907153725624084 0.8988453149795532
0.7036672830581665 0.6907153725624084 0.8982081413269043
0.8800420165061951 0.6907153725624084 0.8975710272789001
1.0564167499542236 0.6907153725624084 0.896933913230896
1.232791543006897 0.6907153725624084 0.8962967395782471
-1.4123752117156982 0.4887916147708893 1.0317130088806152
-1.236000418663025 0.4887916147708893 1.0310759544372559
-1.0596257448196411 0.4887916147708893 1.030438780784607
-0.8832509517669678 0.4887916147708893 1.029801607131958
-0.7068761587142944 0.4887916147708893 1.0291645526885986
-0.5305014252662659 0.4887916147708893 1.0285273790359497
-0.35412663221359253 0.4887916147708893 1.0278902053833008
-0.17775188386440277 0.4887916147708893 1.0272530317306519
-0.001377120497636497 0.4887916147708893 1.0266159772872925
0.17499764263629913 0.4887916147708893 1.0259788036346436
0.3513723909854889 0.4887916147708893 1.0253416299819946
0.5277471542358398 0.4887916147708893 1.0247045755386353
0.7041219472885132 0.4887916147708893 1.0240674018859863
0.8804966807365417 0.4887916147708893 1.0234302282333374
1.0568714141845703 0.4887916147708893 1.0227930545806885
1.2332462072372437 0.4887916147708893 1.022156000137329
-1.412076711654663 0.26566582918167114 1.1143492460250854
-1.2357019186019897 0.26566582918167114 1.1137120723724365
-1.0593271255493164 0.26566582918167114 1.1130750179290771
-0.8829523921012878 0.26566582918167114 1.1124378442764282
-0.7065776586532593 0.26566582918167114 1.1118006706237793
-0.5302028656005859 0.26566582918167114 1.1111634969711304
-0.3538281321525574 0.26566582918167114 1.110526442527771
-0.17745336890220642 0.26566582918167114 1.109889268875122
-0.0010786042548716068 0.26566582918167114 1.1092520952224731
0.17529615759849548 0.26566582918167114 1.1086150407791138
0.35167092084884644 0.26566582918167114 1.1079778671264648
0.5280457139015198 0.26566582918167114 1.107340693473816
0.7044204473495483 0.26566582918167114 1.106703519821167
0.8807951807975769 0.26566582918167114 1.1060664653778076
1.0571699142456055 0.26566582918167114 1.1054292917251587
1.2335447072982788 0.26566582918167114 1.1047921180725098
-1.4119465351104736 0.030472762882709503 1.1503793001174927
-1.2355717420578003 0.030472762882709503 1.1497421264648438
-1.0591970682144165 0.030472762882709503 1.1491049528121948
-0.8828222751617432 0.030472762882709503 1.1484678983688354
-0.7064474821090698 0.030472762882709503 1.1478307247161865
-0.5300727486610413 0.030472762882709503 1.1471935510635376
-0.3536979854106903 0.030472762882709503 1.1465563774108887
-0.17732320725917816 0.030472762882709503 1.1459193229675293
-0.0009484488982707262 0.030472762882709503 1.1452821493148804
0.17542631924152374 0.030472762882709503 1.1446449756622314
0.3518010675907135 0.030472762882709503 1.144007921218872
0.5281758308410645 0.030472762882709503 1.1433707475662231
0.7045506238937378 0.030472762882709503 1.1427335739135742
0.8809253573417664 0.030472762882709503 1.1420964002609253
1.057300090789795 0.030472762882709503 1.141459345817566
1.2336748838424683 0.030472762882709503 1.140822172164917
-1.4119900465011597 -0.20715871453285217 1.1383280754089355
-1.2356153726577759 -0.20715871453285217 1.1376909017562866
-1.0592405796051025 -0.20715871453285217 1.1370537281036377
-0.8828657865524292 -0.20715871453285217 1.1364166736602783
-0.7064910531044006 -0.20715871453285217 1.1357795000076294
-0.5301162600517273 -0.20715871453285217 1.1351423263549805
-0.35374149680137634 -0.20715871453285217 1.1345051527023315
-0.17736674845218658 -0.20715871453285217 1.1338680982589722
-0.0009919829899445176 -0.20715871453285217 1.1332309246063232
0.17538277804851532 -0.20715871453285217 1.1325937509536743
0.35175755620002747 -0.20715871453285217 1.131956696510315
0.5281323194503784 -0.20715871453285217 1.131319522857666
0.704507052898407 -0.20715871453285217 1.130682349205017
0.8808818459510803 -0.20715871453285217 1.1300451755523682
1.0572565793991089 -0.20715871453285217 1.1294081211090088
1.2336313724517822 -0.20715871453285217 1.1287709474563599
-1.4122055768966675 -0.4374999701976776 1.0786889791488647
-1.2358307838439941 -0.4374999701976776 1.0780518054962158
-1.0594559907913208 -0.4374999701976776 1.077414631843567
-0.8830812573432922 -0.4374999701976776 1.0767775774002075
-0.7067064642906189 -0.4374999701976776 1.0761404037475586
-0.5303317308425903 -0.4374999701976776 1.0755032300949097
-0.353956937789917 -0.4374999701976776 1.0748660564422607
-0.17758218944072723 -0.4374999701976776 1.0742290019989014
-0.0012074240949004889 -0.4374999701976776 1.0735918283462524
0.17516733705997467 -0.4374999701976776 1.0729546546936035
0.3515421152114868 -0.4374999701976776 1.0723176002502441
0.5279168486595154 -0.4374999701976776 1.0716804265975952
0.7042916417121887 -0.4374999701976776 1.0710432529449463
0.8806663751602173 -0.4374999701976776 1.0704060792922974
1.0570411682128906 -0.4374999701976776 1.069769024848938
1.233415961265564 -0.4374999701976776 1.069131851196289
-1.4125840663909912 -0.6511207818984985 0.9739035964012146
-1.2362092733383179 -0.6511207818984985 0.9732664823532104
-1.0598344802856445 -0.6511207818984985 0.9726293683052063
-0.883459746837616 -0.6511207818984985 0.9719921946525574
-0.7070850133895874 -0.6511207818984985 0.9713550806045532
-0.5307102203369141 -0.6511207818984985 0.9707179069519043
-0.3543354868888855 -0.6511207818984985 0.9700807929039001
-0.17796070873737335 -0.6511207818984985 0.9694436192512512
-0.001585952122695744 -0.6511207818984985 0.9688065052032471
0.17478881776332855 -0.6511207818984985 0.9681693911552429
0.3511635661125183 -0.6511207818984985 0.967532217502594
0.5275383591651917 -0.6511207818984985 0.9668951034545898
0.7039130926132202 -0.6511207818984985 0.9662579298019409
0.8802878856658936 -0.6511207818984985 0.9656208157539368
1.056662678718567 -0.6511207818984985 0.9649837017059326
1.2330373525619507 -0.6511207818984985 0.9643465280532837
-1.4131101369857788 -0.8392754793167114 0.8282619714736938
-1.236735463142395 -0.8392754793167114 0.8276248574256897
-1.0603606700897217 -0.8392754793167114 0.8269876837730408
-0.8839858770370483 -0.8392754793167114 0.8263505697250366
-0.7076111435890198 -0.8392754793167114 0.8257134556770325
-0.5312363505363464 -0.8392754793167114 0.8250762820243835
-0.3548615872859955 -0.8392754793167114 0.8244391679763794
-0.17848683893680573 -0.8392754793167114 0.8238019943237305
-0.0021120700985193253 -0.8392754793167114 0.8231648802757263
0.17426268756389618 -0.8392754793167114 0.8225277662277222
0.3506374657154083 -0.8392754793167114 0.8218905925750732
0.5270122289657593 -0.8392754793167114 0.8212534785270691
0.7033869624137878 -0.8392754793167114 0.8206163048744202
0.8797617554664612 -0.8392754793167114 0.819979190826416
1.0561364889144897 -0.8392754793167114 0.8193420171737671
1.232511281967163 -0.8392754793167114 0.8187049031257629
-1.4137623310089111 -0.9942609667778015 0.6477266550064087
-1.2373875379562378 -0.9942609667778015 0.6470894813537598
-1.061012864112854 -0.9942609667778015 0.6464523673057556
-0.8846380710601807 -0.9942609667778015 0.6458151936531067
-0.7082632780075073 -0.9942609667778015 0.6451780796051025
-0.5318885445594788 -0.9942609667778015 0.6445409655570984
-0.3555137515068054 -0.9942609667778015 0.6439037919044495
-0.17913900315761566 -0.9942609667778015 0.6432666778564453
-0.002764238743111491 -0.9942609667778015 0.6426295042037964
0.17361052334308624 -0.9942609667778015 0.6419923901557922
0.3499853014945984 -0.9942609667778015 0.6413552165031433
0.526360034942627 -0.9942609667778015 0.6407181024551392
0.7027348279953003 -0.9942609667778015 0.640080988407135
0.8791095614433289 -0.9942609667778015 0.6394438147544861
1.0554842948913574 -0.9942609667778015 0.6388067007064819
1.2318590879440308 -0.9942609667778015 0.638169527053833
-1.4145138263702393 -1.1097322702407837 0.43968868255615234
-1.2381391525268555 -1.1097322702407837 0.4390515685081482
-1.0617643594741821 -1.1097322702407837 0.43841442465782166
-0.8853895664215088 -1.1097322702407837 0.4377772808074951
-0.7090148329734802 -1.1097322702407837 0.4371401369571686
-0.5326400399208069 -1.1097322702407837 0.43650299310684204
-0.35626527667045593 -1.1097322702407837 0.4358658492565155
-0.17989051342010498 -1.1097322702407837 0.43522873520851135
-0.0035157580859959126 -1.1097322702407837 0.4345915913581848
0.17285899817943573 -1.1097322702407837 0.4339544475078583
0.3492337763309479 -1.1097322702407837 0.43331730365753174
0.5256085395812988 -1.1097322702407837 0.4326801598072052
0.7019832730293274 -1.1097322702407837 0.43204301595687866
0.8783580660820007 -1.1097322702407837 0.4314059019088745
1.0547327995300293 -1.1097322702407837 0.430768758058548
1.2311075925827026 -1.1097322702407837 0.43013161420822144
-1.4153339862823486 -1.1809617280960083 0.21266525983810425
-1.2389591932296753 -1.1809617280960083 0.2120281308889389
-1.062584400177002 -1.1809617280960083 0.21139098703861237
-0.8862096667289734 -1.1809617280960083 0.21075384318828583
-0.7098349332809448 -1.1809617280960083 0.21011671423912048
-0.5334601402282715 -1.1809617280960083 0.20947957038879395
-0.35708537697792053 -1.1809617280960083 0.2088424265384674
-0.18071062862873077 -1.1809617280960083 0.20820529758930206
-0.004335860721766949 -1.1809617280960083 0.20756815373897552
0.17203889787197113 -1.1809617280960083 0.206931009888649
0.3484136760234833 -1.1809617280960083 0.20629388093948364
0.5247884392738342 -1.1809617280960083 0.2056567370891571
0.7011631727218628 -1.1809617280960083 0.20501960813999176
0.8775379657745361 -1.1809617280960083 0.20438246428966522
1.0539127588272095 -1.1809617280960083 0.20374532043933868
1.2302874326705933 -1.1809617280960083 0.20310819149017334
-1.4161890745162964 -1.2050334215164185 -0.02404928207397461
-1.239814281463623 -1.2050334215164185 -0.0246864203363657
-1.0634396076202393 -1.2050334215164185 -0.02532356046140194
-0.8870648145675659 -1.2050334215164185 -0.02596069872379303
-0.7106900215148926 -1.2050334215164185 -0.02659783698618412
-0.534315288066864 -1.2050334215164185 -0.02723497524857521
-0.3579404950141907 -1.2050334215164185 -0.02787211537361145
-0.18156573176383972 -1.2050334215164185 -0.02850925363600254
-0.005190971773117781 -1.2050334215164185 -0.02914639189839363
0.17118379473686218 -1.2050334215164185 -0.02978353202342987
0.34755855798721313 -1.2050334215164185 -0.03042067028582096
0.5239332914352417 -1.2050334215164185 -0.03105780854821205
0.700308084487915 -1.2050334215164185 -0.03169494867324829
0.8766828179359436 -1.2050334215164185 -0.03233208507299423
1.0530575513839722 -1.2050334215164185 -0.03296922519803047
1.2294323444366455 -1.2050334215164185 -0.03360636532306671
