ply
format ascii 1.0
element vertex 512
property float x
property float y
property float z
end_header
0.003573775291442871 -1.0025062561035156 0.9827001690864563
0.0031458023004233837 -1.002216100692749 0.8495668172836304
0.0027178293094038963 -1.0019258260726929 0.7164334654808044
0.002289856318384409 -1.0016356706619263 0.5833001136779785
0.0018618832109495997 -1.0013455152511597 0.4501667320728302
0.0014339102199301124 -1.0010552406311035 0.3170333802700043
0.001005937228910625 -1.000765085220337 0.18390001356601715
0.0005779642378911376 -1.0004749298095703 0.050766654312610626
0.00014999121776781976 -1.0001847743988037 -0.0823667049407959
-0.0002779817732516676 -0.9998944997787476 -0.21550007164478302
-0.0007059547933749855 -0.999604344367981 -0.34863343834877014
-0.0011339278426021338 -0.9993141293525696 -0.48176679015159607
-0.0015619008336216211 -0.999023973941803 -0.6149001717567444
-0.0019898738246411085 -0.9987337589263916 -0.7480335235595703
-0.002417846815660596 -0.9984435439109802 -0.8811668753623962
-0.0028458198066800833 -0.9981533885002136 -1.0143002271652222
-0.19781911373138428 -0.9820279479026794 0.9833922386169434
-0.19824708998203278 -0.9817377924919128 0.8502588272094727
-0.19867506623268127 -0.9814475774765015 0.7171254754066467
-0.19910302758216858 -0.9811573624610901 0.5839921236038208
-0.19953100383281708 -0.9808672070503235 0.4508587718009949
-0.19995898008346558 -0.9805769920349121 0.31772541999816895
-0.20038695633411407 -0.9802867770195007 0.18459205329418182
-0.20081493258476257 -0.9799966216087341 0.051458690315485
-0.20124289393424988 -0.9797064065933228 -0.08167467266321182
-0.20167087018489838 -0.9794162511825562 -0.21480803191661835
-0.20209884643554688 -0.9791260361671448 -0.34794139862060547
-0.20252682268619537 -0.9788358211517334 -0.4810747504234314
-0.20295478403568268 -0.9785456657409668 -0.6142081022262573
-0.20338276028633118 -0.9782554507255554 -0.7473414540290833
-0.20381073653697968 -0.977965235710144 -0.8804748058319092
-0.20423871278762817 -0.9776750802993774 -1.0136082172393799
-0.3909669518470764 -0.9214286208152771 0.9841452240943909
-0.3913949429988861 -0.9211384057998657 0.8510118722915649
-0.3918229043483734 -0.9208482503890991 0.7178784608840942
-0.3922508656978607 -0.9205580353736877 0.5847451090812683
-0.3926788568496704 -0.9202678203582764 0.4516117572784424
-0.3931068181991577 -0.9199776649475098 0.31847840547561646
-0.3935348093509674 -0.9196874499320984 0.18534503877162933
-0.3939627707004547 -0.9193972945213318 0.05221167579293251
-0.394390732049942 -0.9191070795059204 -0.08092168718576431
-0.3948187232017517 -0.918816864490509 -0.21405504643917084
-0.395246684551239 -0.9185267090797424 -0.34718841314315796
-0.3956746459007263 -0.918236494064331 -0.4803217649459839
-0.396102637052536 -0.9179462790489197 -0.6134551167488098
-0.3965305984020233 -0.9176561236381531 -0.7465884685516357
-0.396958589553833 -0.9173659086227417 -0.8797218203544617
-0.3973865509033203 -0.9170757532119751 -1.0128551721572876
-0.5679622292518616 -0.8231891989707947 0.98492830991745
-0.5683902502059937 -0.8228989839553833 0.851794958114624
-0.568818211555481 -0.8226087689399719 0.7186616063117981
-0.5692461729049683 -0.8223186135292053 0.5855282545089722
-0.5696741342544556 -0.822028398513794 0.45239487290382385
-0.5701020956039429 -0.8217382431030273 0.31926149129867554
-0.570530116558075 -0.821448028087616 0.1861281394958496
-0.5709580779075623 -0.8211578130722046 0.05299478396773338
-0.5713860392570496 -0.820867657661438 -0.08013857901096344
-0.5718140006065369 -0.8205774426460266 -0.21327193081378937
-0.5722419619560242 -0.8202872276306152 -0.3464052975177765
-0.5726699829101562 -0.8199970722198486 -0.4795386493206024
-0.5730979442596436 -0.8197068572044373 -0.6126720309257507
-0.5735259056091309 -0.8194166421890259 -0.7458053827285767
-0.5739538669586182 -0.8191264867782593 -0.8789387345314026
-0.5743818283081055 -0.8188362717628479 -1.0120720863342285
-0.7215588092803955 -0.6913315653800964 0.9857094883918762
-0.7219867706298828 -0.6910414099693298 0.8525761365890503
-0.7224147319793701 -0.6907511949539185 0.7194427251815796
-0.7228426933288574 -0.6904609799385071 0.5863093733787537
-0.7232707142829895 -0.6901708245277405 0.45317602157592773
-0.7236986756324768 -0.6898806095123291 0.3200426697731018
-0.7241266369819641 -0.6895903944969177 0.18690931797027588
-0.7245545983314514 -0.6893002390861511 0.05377595126628876
-0.7249825596809387 -0.6890100240707397 -0.07935740798711777
-0.7254105806350708 -0.6887198686599731 -0.2124907672405243
-0.7258385419845581 -0.6884296536445618 -0.3456241190433502
-0.7262665033340454 -0.6881394386291504 -0.47875750064849854
-0.7266944646835327 -0.6878492832183838 -0.6118908524513245
-0.72712242603302 -0.6875590682029724 -0.7450242042541504
-0.7275504469871521 -0.687268853187561 -0.8781575560569763
-0.7279784083366394 -0.6869786977767944 -1.0112909078598022
-0.8454683423042297 -0.5312540531158447 0.9864567518234253
-0.845896303653717 -0.5309638977050781 0.8533233404159546
-0.8463242650032043 -0.5306736826896667 0.7201899886131287
-0.8467522263526917 -0.5303835272789001 0.5870566368103027
-0.8471802473068237 -0.5300933122634888 0.4539232850074768
-0.847608208656311 -0.5298030972480774 0.3207899034023285
-0.8480361700057983 -0.5295129418373108 0.18765655159950256
-0.8484641313552856 -0.5292227268218994 0.05452319607138634
-0.848892092704773 -0.528932511806488 -0.07861016690731049
-0.849320113658905 -0.5286423563957214 -0.2117435187101364
-0.8497480750083923 -0.5283521413803101 -0.34487688541412354
-0.8501760363578796 -0.5280619859695435 -0.47801023721694946
-0.8506039977073669 -0.5277717709541321 -0.6111435890197754
-0.8510319590568542 -0.5274815559387207 -0.7442769408226013
-0.8514599800109863 -0.5271914005279541 -0.877410352230072
-0.8518879413604736 -0.5269011855125427 -1.010543704032898
-0.9346179962158203 -0.3495102822780609 0.9871394634246826
-0.9350459575653076 -0.3492200970649719 0.8540061116218567
-0.9354739189147949 -0.34892988204956055 0.7208727598190308
-0.9359018802642822 -0.34863969683647156 0.5877393484115601
-0.9363299012184143 -0.34834951162338257 0.45460599660873413
-0.9367578625679016 -0.3480593264102936 0.3214726448059082
-0.9371858239173889 -0.3477691113948822 0.18833929300308228
-0.9376137852668762 -0.3474789261817932 0.055205926299095154
-0.9380417466163635 -0.3471887409687042 -0.07792743295431137
-0.9384697675704956 -0.34689855575561523 -0.2110607922077179
-0.9388977289199829 -0.34660834074020386 -0.3441941440105438
-0.9393256902694702 -0.34631815552711487 -0.47732752561569214
-0.9397536516189575 -0.3460279703140259 -0.6104608774185181
-0.9401816129684448 -0.3457377552986145 -0.743594229221344
-0.9406095743179321 -0.3454475700855255 -0.8767275810241699
-0.9410375952720642 -0.3451573848724365 -1.0098609924316406
-0.985357940196991 -0.15354079008102417 0.9877297282218933
-0.9857859015464783 -0.153250589966774 0.8545963764190674
-0.9862139225006104 -0.152960404753685 0.7214630246162415
-0.9866418838500977 -0.15267020463943481 0.5883296132087708
-0.987069845199585 -0.15238001942634583 0.4551962912082672
-0.9874978065490723 -0.15208981931209564 0.3220629096031189
-0.9879257678985596 -0.15179961919784546 0.18892955780029297
-0.9883537888526917 -0.15150943398475647 0.055796194821596146
-0.988781750202179 -0.1512192338705063 -0.07733716815710068
-0.9892097115516663 -0.1509290486574173 -0.2104705274105072
-0.9896376729011536 -0.15063884854316711 -0.34360387921333313
-0.9900656342506409 -0.15034866333007812 -0.47673726081848145
-0.990493655204773 -0.15005846321582794 -0.6098706126213074
-0.9909216165542603 -0.14976827800273895 -0.7430039644241333
-0.9913495779037476 -0.14947807788848877 -0.8761373162269592
-0.9917775392532349 -0.14918789267539978 -1.0092706680297852
-0.9956109523773193 0.04863138869404793 0.9882033467292786
-0.9960389137268066 0.048921581357717514 0.8550699949264526
-0.996466875076294 0.0492117740213871 0.7219366431236267
-0.9968948364257812 0.049501970410346985 0.5888032913208008
-0.9973228573799133 0.04979216307401657 0.45566990971565247
-0.9977508187294006 0.05008235573768616 0.32253655791282654
-0.9981787800788879 0.05037254840135574 0.18940319120883942
-0.9986067414283752 0.05066274106502533 0.05626983195543289
-0.9990347027778625 0.050952933728694916 -0.07686352729797363
-0.9994627237319946 0.0512431263923645 -0.20999689400196075
-0.9998906850814819 0.05153331905603409 -0.3431302607059479
-1.0003186464309692 0.051823511719703674 -0.4762636125087738
-1.0007466077804565 0.05211370810866356 -0.6093969941139221
-1.0011745691299438 0.052403900772333145 -0.742530345916748
-1.0016025304794312 0.05269409343600273 -0.875663697719574
-1.0020304918289185 0.05298428609967232 -1.0087970495224
-0.9649571776390076 0.24872928857803345 0.9885409474372864
-0.9653851389884949 0.24901948869228363 0.8554075956344604
-0.965813159942627 0.24930967390537262 0.7222742438316345
-0.9662411212921143 0.2495998740196228 0.5891408920288086
-0.9666690826416016 0.2498900592327118 0.45600754022598267
-0.9670970439910889 0.2501802444458008 0.32287415862083435
-0.9675250053405762 0.25047045946121216 0.18974080681800842
-0.9679529666900635 0.25076064467430115 0.0566074512898922
-0.9683809876441956 0.25105082988739014 -0.07652591168880463
-0.9688089489936829 0.2513410151004791 -0.20965927839279175
-0.9692369103431702 0.2516312301158905 -0.3427926301956177
-0.9696648716926575 0.2519214153289795 -0.4759259819984436
-0.9700928330421448 0.2522116005420685 -0.6090593338012695
-0.9705208539962769 0.25250178575515747 -0.7421927452087402
-0.9709488153457642 0.25279200077056885 -0.8753260970115662
-0.9713767766952515 0.25308218598365784 -1.008459448814392
-0.8946516513824463 0.4385608732700348 0.9887287616729736
-0.8950796127319336 0.43885108828544617 0.8555954098701477
-0.8955076336860657 0.43914127349853516 0.7224620580673218
-0.895935595035553 0.43943145871162415 0.5893286466598511
-0.8963635563850403 0.43972164392471313 0.45619529485702515
-0.8967915177345276 0.4400118589401245 0.3230619430541992
-0.8972194790840149 0.4403020441532135 0.1899285912513733
-0.897647500038147 0.4405922293663025 0.05679522454738617
-0.8980754613876343 0.4408824145793915 -0.07633813470602036
-0.8985034227371216 0.44117262959480286 -0.20947149395942688
-0.8989313840866089 0.44146281480789185 -0.3426048457622528
-0.8993593454360962 0.44175300002098083 -0.4757382273674011
-0.8997873663902283 0.4420431852340698 -0.608871579170227
-0.9002153277397156 0.4423334002494812 -0.742004930973053
-0.9006432890892029 0.4426235854625702 -0.8751382827758789
-0.9010712504386902 0.4429137706756592 -1.0082716941833496
-0.7875726819038391 0.6103544235229492 0.9887589812278748
-0.7880006432533264 0.6106446385383606 0.8556256294250488
-0.7884286046028137 0.610934853553772 0.7224922776222229
-0.7888566255569458 0.6112250089645386 0.589358925819397
-0.7892845869064331 0.61151522397995 0.45622554421424866
-0.7897125482559204 0.6118053793907166 0.32309219241142273
-0.7901405096054077 0.6120955944061279 0.1899588257074356
-0.790568470954895 0.6123858094215393 0.05682546645402908
-0.7909964919090271 0.6126759648323059 -0.07630789279937744
-0.7914244532585144 0.6129661798477173 -0.20944125950336456
-0.7918524146080017 0.6132563948631287 -0.3425746262073517
-0.792280375957489 0.6135465502738953 -0.4757079780101776
-0.7927083373069763 0.6138367652893066 -0.6088413596153259
-0.7931363582611084 0.614126980304718 -0.7419747114181519
-0.7935643196105957 0.6144171357154846 -0.8751080632209778
-0.793992280960083 0.614707350730896 -1.0082414150238037
-0.6481040716171265 0.7570767402648926 0.988630473613739
-0.6485320329666138 0.7573668956756592 0.8554971218109131
-0.6489599943161011 0.7576571106910706 0.7223637700080872
-0.6493880152702332 0.7579473257064819 0.5892303586006165
-0.6498159766197205 0.7582374811172485 0.4560970366001129
-0.6502439379692078 0.7585276961326599 0.3229636549949646
-0.6506718993186951 0.7588178515434265 0.18983030319213867
-0.6510998606681824 0.7591080665588379 0.05669694021344185
-0.6515278816223145 0.7593982815742493 -0.07643642276525497
-0.6519558429718018 0.7596884369850159 -0.2095697820186615
-0.6523838043212891 0.7599786520004272 -0.3427031338214874
-0.6528117656707764 0.7602688670158386 -0.47583651542663574
-0.6532397270202637 0.7605590224266052 -0.6089698672294617
-0.6536677479743958 0.7608492374420166 -0.7421032190322876
-0.6540957093238831 0.761139452457428 -0.8752365708351135
-0.6545236706733704 0.7614296078681946 -1.0083699226379395
-0.48195570707321167 0.8727208971977234 0.9883484244346619
-0.482383668422699 0.8730111122131348 0.8552150726318359
-0.48281165957450867 0.8733012676239014 0.72208172082901
-0.48323962092399597 0.8735914826393127 0.5889483690261841
-0.4836675822734833 0.8738816380500793 0.45581498742103577
-0.48409557342529297 0.8741718530654907 0.32268163561820984
-0.4845235347747803 0.8744620680809021 0.18954826891422272
-0.48495152592658997 0.8747522234916687 0.05641490966081619
-0.48537948727607727 0.8750424385070801 -0.07671844959259033
-0.4858074486255646 0.8753326535224915 -0.20985181629657745
-0.48623543977737427 0.8756228089332581 -0.3429851830005646
-0.4866634011268616 0.8759130239486694 -0.4761185348033905
-0.4870913624763489 0.876203179359436 -0.6092519164085388
-0.48751935362815857 0.8764933943748474 -0.7423852682113647
-0.4879473149776459 0.8767836093902588 -0.8755186200141907
-0.48837530612945557 0.8770737648010254 -1.0086519718170166
-0.2959297001361847 0.9525524377822876 0.9879244565963745
-0.296357661485672 0.952842652797699 0.8547911047935486
-0.2967856228351593 0.9531328678131104 0.7216576933860779
-0.297213613986969 0.953423023223877 0.588524341583252
-0.2976415753364563 0.9537132382392883 0.455390989780426
-0.298069566488266 0.9540034532546997 0.3222576379776001
-0.2984975278377533 0.9542936086654663 0.18912427127361298
-0.2989254891872406 0.9545838236808777 0.05599091574549675
-0.2993534803390503 0.9548740386962891 -0.07714244723320007
-0.2997814416885376 0.9551641941070557 -0.210275799036026
-0.3002094328403473 0.955454409122467 -0.34340915083885193
-0.3006373941898346 0.9557445645332336 -0.47654253244400024
-0.3010653555393219 0.956034779548645 -0.6096758842468262
-0.3014933466911316 0.9563249945640564 -0.7428092360496521
-0.3019213080406189 0.956615149974823 -0.875942587852478
-0.3023492991924286 0.9569053649902344 -1.0090759992599487
-0.0976419746875763 0.993303120136261 0.9873758554458618
-0.09806995093822479 0.9935933351516724 0.8542425036430359
-0.0984979197382927 0.993883490562439 0.72110915184021
-0.09892589598894119 0.9941737055778503 0.5879757404327393
-0.0993538647890091 0.9944639205932617 0.4548424184322357
-0.09978184103965759 0.9947540760040283 0.3217090368270874
-0.1002098098397255 0.9950442910194397 0.18857568502426147
-0.10063778609037399 0.9953345060348511 0.05544232204556465
-0.10106576234102249 0.9956246614456177 -0.07769104093313217
-0.1014937311410904 0.995914876461029 -0.2108244001865387
-0.10192170739173889 0.9962050318717957 -0.3439577519893646
-0.1023496761918068 0.996495246887207 -0.47709113359451294
-0.10277765244245529 0.9967854619026184 -0.6102244853973389
-0.1032056212425232 0.997075617313385 -0.7433578372001648
-0.10363359749317169 0.9973658323287964 -0.8764911890029907
-0.10406157374382019 0.9976560473442078 -1.0096246004104614
0.10478952527046204 0.9933045506477356 0.9867250919342041
0.10436154901981354 0.993594765663147 0.8535917401313782
0.10393358021974564 0.9938849210739136 0.7204583883285522
0.10350560396909714 0.994175136089325 0.5873250365257263
0.10307763516902924 0.9944652915000916 0.454191654920578
0.10264965891838074 0.9947555065155029 0.3210583031177521
0.10222169011831284 0.9950457215309143 0.18792495131492615
0.10179371386766434 0.9953358769416809 0.054791584610939026
0.10136574506759644 0.9956260919570923 -0.0783417746424675
0.10093776881694794 0.9959163069725037 -0.21147513389587402
0.10050979256629944 0.9962064623832703 -0.34460848569869995
0.10008182376623154 0.9964966773986816 -0.47774186730384827
0.09965384751558304 0.996786892414093 -0.6108751893043518
0.09922587871551514 0.9970770478248596 -0.7440086007118225
0.09879790246486664 0.997367262840271 -0.8771419525146484
0.09836993366479874 0.9976574182510376 -1.0102752447128296
0.30307725071907043 0.9525566697120667 0.9859988689422607
0.30264925956726074 0.952846884727478 0.8528655171394348
0.30222129821777344 0.9531370401382446 0.7197321653366089
0.30179333686828613 0.953427255153656 0.586598813533783
0.30136534571647644 0.9537174105644226 0.45346543192863464
0.30093738436698914 0.954007625579834 0.3203320801258087
0.30050939321517944 0.9542978405952454 0.1871987134218216
0.30008143186569214 0.954587996006012 0.05406534671783447
0.29965347051620483 0.9548782110214233 -0.07906801253557205
0.29922547936439514 0.9551684260368347 -0.21220137178897858
0.29879751801490784 0.9554585814476013 -0.3453347384929657
0.29836952686309814 0.9557487964630127 -0.4784680902957916
0.29794156551361084 0.9560389518737793 -0.6116014719009399
0.29751360416412354 0.9563291668891907 -0.7447348237037659
0.29708561301231384 0.956619381904602 -0.8778681755065918
0.29665765166282654 0.9569095373153687 -1.0110015869140625
0.4891032576560974 0.8727276921272278 0.9852268695831299
0.4886752665042877 0.8730179071426392 0.852093517780304
0.4882473051548004 0.8733080625534058 0.718960165977478
0.4878193438053131 0.8735982775688171 0.5858267545700073
0.4873913526535034 0.8738884925842285 0.4526934325695038
0.4869633913040161 0.8741786479949951 0.31956005096435547
0.4865354001522064 0.8744688630104065 0.18642669916152954
0.4861074388027191 0.8747590184211731 0.053293339908123016
0.4856794774532318 0.8750492334365845 -0.07984001934528351
0.4852514863014221 0.8753394484519958 -0.21297338604927063
0.4848235249519348 0.8756296038627625 -0.34610673785209656
0.4843955338001251 0.8759198188781738 -0.4792400896549225
0.4839675724506378 0.8762100338935852 -0.6123734712600708
0.4835396111011505 0.8765001893043518 -0.7455068230628967
0.4831116199493408 0.8767904043197632 -0.8786401748657227
0.4826836585998535 0.8770806193351746 -1.0117735862731934
0.6552516222000122 0.7570858597755432 0.9844406843185425
0.6548236608505249 0.7573760747909546 0.8513073325157166
0.6543956995010376 0.7576662302017212 0.7181739807128906
0.6539676785469055 0.7579564452171326 0.5850406289100647
0.6535397171974182 0.7582466006278992 0.4519072473049164
0.6531117558479309 0.7585368156433105 0.31877389550209045
0.6526837944984436 0.7588270306587219 0.18564052879810333
0.6522558331489563 0.7591171860694885 0.05250716954469681
0.6518278121948242 0.7594074010848999 -0.08062618970870972
0.6513998508453369 0.7596976161003113 -0.21375955641269684
0.6509718894958496 0.7599877715110779 -0.34689292311668396
0.6505439281463623 0.7602779865264893 -0.4800262749195099
0.650115966796875 0.7605681419372559 -0.6131596565246582
0.6496880054473877 0.7608583569526672 -0.7462930083274841
0.6492599844932556 0.7611485719680786 -0.8794263601303101
0.6488320231437683 0.7614387273788452 -1.0125597715377808
0.7947202324867249 0.6103655099868774 0.983672559261322
0.7942922711372375 0.6106557250022888 0.8505392074584961
0.7938643097877502 0.6109459400177002 0.7174058556556702
0.7934362888336182 0.6112360954284668 0.5842724442481995
0.7930083274841309 0.6115263104438782 0.45113909244537354
0.7925803661346436 0.6118165254592896 0.3180057406425476
0.7921524047851562 0.6121066808700562 0.18487238883972168
0.791724443435669 0.6123968958854675 0.05173902213573456
0.7912964224815369 0.6126870512962341 -0.08139433711767197
0.7908684611320496 0.6129772663116455 -0.2145276963710785
0.7904404997825623 0.6132674813270569 -0.3476610481739044
0.790012538433075 0.6135576367378235 -0.48079442977905273
0.7895845770835876 0.6138478517532349 -0.6139277815818787
0.7891565561294556 0.6141380667686462 -0.7470611333847046
0.7887285947799683 0.6144282221794128 -0.8801944851875305
0.788300633430481 0.6147184371948242 -1.0133278369903564
0.901799201965332 0.4385734796524048 0.9829538464546204
0.9013712406158447 0.4388636648654938 0.8498204946517944
0.9009432792663574 0.43915385007858276 0.7166871428489685
0.9005153179168701 0.43944403529167175 0.5835537910461426
0.900087296962738 0.43973425030708313 0.45042043924331665
0.8996593356132507 0.4400244355201721 0.31728705763816833
0.8992313742637634 0.4403146207332611 0.1841537058353424
0.8988034129142761 0.4406048357486725 0.05102034658193588
0.8983754515647888 0.4408950209617615 -0.08211301267147064
0.8979474306106567 0.44118520617485046 -0.21524637937545776
0.8975194692611694 0.44147539138793945 -0.3483797311782837
0.8970915079116821 0.44176560640335083 -0.4815130829811096
0.8966635465621948 0.4420557916164398 -0.6146464347839355
0.8962355852127075 0.4423459768295288 -0.7477798461914062
0.8958075642585754 0.4426361620426178 -0.8809131979942322
0.8953796029090881 0.4429263770580292 -1.014046549797058
0.9721047282218933 0.24874286353588104 0.9823141098022461
0.971676766872406 0.24903304874897003 0.8491807579994202
0.9712488055229187 0.24932324886322021 0.7160473465919495
0.9708208441734314 0.2496134340763092 0.5829139947891235
0.9703928232192993 0.2499036341905594 0.4497806429862976
0.969964861869812 0.25019383430480957 0.3166472911834717
0.9695369005203247 0.25048401951789856 0.18351392447948456
0.9691089391708374 0.25077420473098755 0.05038056522607803
0.9686809778213501 0.2510644197463989 -0.08275279402732849
0.968252956867218 0.2513546049594879 -0.2158861607313156
0.9678249955177307 0.2516447901725769 -0.34901952743530273
0.9673970341682434 0.2519349753856659 -0.48215287923812866
0.9669690728187561 0.25222519040107727 -0.6152862310409546
0.9665411114692688 0.25251537561416626 -0.7484195828437805
0.9661130905151367 0.25280556082725525 -0.8815529346466064
0.9656851291656494 0.25309574604034424 -1.0146863460540771
1.002758502960205 0.048645392060279846 0.9817793965339661
1.0023305416107178 0.04893558472394943 0.8486460447311401
1.0019025802612305 0.04922577738761902 0.7155126929283142
1.0014746189117432 0.049515970051288605 0.5823793411254883
1.0010465383529663 0.04980616271495819 0.44924595952033997
1.000618577003479 0.050096359103918076 0.31611257791519165
1.0001906156539917 0.05038655176758766 0.18297922611236572
0.9997626543045044 0.05067674443125725 0.0498458668589592
0.9993346929550171 0.050966937094926834 -0.08328749239444733
0.9989067316055298 0.05125712975859642 -0.21642085909843445
0.9984787702560425 0.051547322422266006 -0.3495542109012604
0.9980508089065552 0.05183751508593559 -0.4826875627040863
0.9976227879524231 0.05212770774960518 -0.6158209443092346
0.9971948266029358 0.052417900413274765 -0.7489542961120605
0.9967668652534485 0.05270809307694435 -0.8820876479148865
0.9963389039039612 0.052998289465904236 -1.0152209997177124
0.9925054907798767 -0.1535269320011139 0.9813717007637024
0.9920775294303894 -0.1532367318868637 0.8482382893562317
0.9916495680809021 -0.15294654667377472 0.7151049375534058
0.9912216067314148 -0.15265634655952454 0.5819715857505798
0.9907935857772827 -0.15236614644527435 0.4488382339477539
0.9903656244277954 -0.15207596123218536 0.315704882144928
0.9899376630783081 -0.15178576111793518 0.18257151544094086
0.9895097017288208 -0.1514955759048462 0.049438148736953735
0.9890817403793335 -0.151205375790596 -0.08369521051645279
0.9886537194252014 -0.15091519057750702 -0.21682856976985931
0.9882257580757141 -0.15062499046325684 -0.34996193647384644
0.9877977967262268 -0.15033480525016785 -0.48309528827667236
0.9873698353767395 -0.15004460513591766 -0.6162286400794983
0.9869418740272522 -0.14975441992282867 -0.7493619918823242
0.9865138530731201 -0.1494642198085785 -0.8824954032897949
0.9860858917236328 -0.1491740345954895 -1.015628695487976
0.941765546798706 -0.34949713945388794 0.9811076521873474
0.9413375854492188 -0.34920692443847656 0.8479742407798767
0.9409095644950867 -0.3489167392253876 0.7148408889770508
0.9404816031455994 -0.3486265540122986 0.5817075371742249
0.9400536417961121 -0.3483363687992096 0.4485741853713989
0.9396256804466248 -0.3480461537837982 0.315440833568573
0.9391977190971375 -0.34775596857070923 0.18230746686458588
0.9387696981430054 -0.34746578335762024 0.049174100160598755
0.9383417367935181 -0.34717559814453125 -0.08395925909280777
0.9379137754440308 -0.3468853831291199 -0.2170926183462143
0.9374858140945435 -0.3465951979160309 -0.3502259850502014
0.9370578527450562 -0.3463050127029419 -0.48335933685302734
0.9366298317909241 -0.3460148274898529 -0.6164926886558533
0.9362018704414368 -0.34572461247444153 -0.7496260404586792
0.9357739090919495 -0.34543442726135254 -0.8827594518661499
0.9353459477424622 -0.34514424204826355 -1.015892744064331
0.8526158928871155 -0.5312421917915344 0.9809980392456055
0.8521879315376282 -0.530951976776123 0.8478646874427795
0.8517599105834961 -0.5306618213653564 0.7147313356399536
0.8513319492340088 -0.5303716063499451 0.5815979838371277
0.8509039878845215 -0.5300813913345337 0.44846460223197937
0.8504760265350342 -0.5297912359237671 0.31533125042915344
0.8500480651855469 -0.5295010209083557 0.18219788372516632
0.8496200442314148 -0.5292108058929443 0.049064528197050095
0.8491920828819275 -0.5289206504821777 -0.08406883478164673
0.8487641215324402 -0.5286304354667664 -0.21720218658447266
0.8483361601829529 -0.5283402800559998 -0.35033556818962097
0.8479081988334656 -0.5280500650405884 -0.4834689199924469
0.8474801778793335 -0.527759850025177 -0.6166023015975952
0.8470522165298462 -0.5274696946144104 -0.7497356534004211
0.8466242551803589 -0.527179479598999 -0.8828690052032471
0.8461962938308716 -0.5268892645835876 -1.0160024166107178
0.7287063598632812 -0.6913214325904846 0.9810474514961243
0.728278398513794 -0.6910312175750732 0.8479140996932983
0.7278503775596619 -0.6907410621643066 0.7147807478904724
0.7274224162101746 -0.6904508471488953 0.5816473960876465
0.7269944548606873 -0.6901606321334839 0.44851401448249817
0.7265664935112 -0.6898704767227173 0.31538063287734985
0.7261385321617126 -0.6895802617073059 0.18224728107452393
0.7257105112075806 -0.6892900466918945 0.0491139218211174
0.7252825498580933 -0.6889998912811279 -0.08401943743228912
0.724854588508606 -0.6887096762657166 -0.21715280413627625
0.7244266271591187 -0.6884194612503052 -0.3502861559391022
0.7239986658096313 -0.6881293058395386 -0.4834195077419281
0.7235706448554993 -0.6878390908241272 -0.6165528893470764
0.723142683506012 -0.6875489354133606 -0.7496862411499023
0.7227147221565247 -0.6872587203979492 -0.8828195929527283
0.7222867608070374 -0.6869685053825378 -1.0159529447555542
0.5751097798347473 -0.82318115234375 0.9812538027763367
0.57468181848526 -0.8228909969329834 0.8481204509735107
0.5742538571357727 -0.822600781917572 0.71498703956604
0.5738258957862854 -0.8223105669021606 0.5818536877632141
0.5733979344367981 -0.822020411491394 0.4487203359603882
0.572969913482666 -0.8217301964759827 0.31558698415756226
0.5725419521331787 -0.8214400410652161 0.18245361745357513
0.5721139907836914 -0.8211498260498047 0.04932026192545891
0.5716860294342041 -0.8208596110343933 -0.08381310105323792
0.5712580680847168 -0.8205694556236267 -0.21694646775722504
0.5708300471305847 -0.8202792406082153 -0.35007983446121216
0.5704020857810974 -0.819989025592804 -0.4832131862640381
0.5699741244316101 -0.8196988701820374 -0.616346538066864
0.5695461630821228 -0.819408655166626 -0.7494798898696899
0.5691182017326355 -0.8191184401512146 -0.8826132416725159
0.5686901807785034 -0.818828284740448 -1.0157465934753418
0.39811450242996216 -0.921423077583313 0.9816086292266846
0.39768654108047485 -0.9211329221725464 0.8484752774238586
0.39725854992866516 -0.920842707157135 0.7153419256210327
0.39683058857917786 -0.9205524921417236 0.582208514213562
0.39640262722969055 -0.920262336730957 0.4490751624107361
0.39597463607788086 -0.9199721217155457 0.31594181060791016
0.39554667472839355 -0.9196819067001343 0.18280845880508423
0.39511868357658386 -0.9193917512893677 0.04967509210109711
0.39469072222709656 -0.9191015362739563 -0.08345826715230942
0.39426276087760925 -0.9188113808631897 -0.21659162640571594
0.39383476972579956 -0.9185211658477783 -0.34972497820854187
0.39340680837631226 -0.9182309508323669 -0.4828583598136902
0.39297881722450256 -0.9179407954216003 -0.6159917116165161
0.39255085587501526 -0.917650580406189 -0.749125063419342
0.39212289452552795 -0.9173603653907776 -0.882258415222168
0.39169490337371826 -0.917070209980011 -1.0153918266296387
0.20496666431427002 -0.982025146484375 0.9820974469184875
0.20453868806362152 -0.9817349314689636 0.8489640355110168
0.20411072671413422 -0.981444776058197 0.7158306837081909
0.20368275046348572 -0.9811545610427856 0.582697331905365
0.20325477421283722 -0.9808643460273743 0.44956398010253906
0.20282679796218872 -0.9805741906166077 0.31643062829971313
0.20239882171154022 -0.9802839756011963 0.183297261595726
0.20197086036205292 -0.9799937605857849 0.05016389489173889
0.20154288411140442 -0.9797036051750183 -0.08296946436166763
0.20111490786075592 -0.9794133901596069 -0.21610282361507416
0.20068693161010742 -0.9791232347488403 -0.3492361903190613
0.20025895535945892 -0.978833019733429 -0.4823695421218872
0.19983099400997162 -0.9785428047180176 -0.6155028939247131
0.19940301775932312 -0.978252649307251 -0.7486362457275391
0.19897504150867462 -0.9779624342918396 -0.8817696571350098
0.19854706525802612 -0.9776722192764282 -1.014902949333191
0.003573775291442871 -1.0025062561035156 0.9827001690864563
0.0031458023004233837 -1.002216100692749 0.8495668172836304
0.0027178293094038963 -1.0019258260726929 0.7164334654808044
0.002289856318384409 -1.0016356706619263 0.5833001136779785
0.0018618832109495997 -1.0013455152511597 0.4501667320728302
0.0014339102199301124 -1.0010552406311035 0.3170333802700043
0.001005937228910625 -1.000765085220337 0.18390001356601715
0.0005779642378911376 -1.0004749298095703 0.050766654312610626
0.00014999121776781976 -1.0001847743988037 -0.0823667049407959
-0.0002779817732516676 -0.9998944997787476 -0.21550007164478302
-0.0007059547933749855 -0.999604344367981 -0.34863343834877014
-0.0011339278426021338 -0.9993141293525696 -0.48176679015159607
-0.0015619008336216211 -0.999023973941803 -0.6149001717567444
-0.0019898738246411085 -0.9987337589263916 -0.7480335235595703
-0.002417846815660596 -0.9984435439109802 -0.8811668753623962
-0.0028458198066800833 -0.9981533885002136 -1.0143002271652222
