ply
format ascii 1.0
element vertex 512
property float x
property float y
property float z
end_header
0.003586292266845703 -1.0025027990341187 0.9826921224594116
0.0031573385931551456 -1.002212643623352 0.8495600819587708
0.0027283846866339445 -1.001922607421875 0.7164280414581299
0.002299431012943387 -1.0016324520111084 0.583296000957489
0.001870477106422186 -1.0013422966003418 0.45016396045684814
0.0014415233163163066 -1.0010521411895752 0.3170319199562073
0.0010125695262104273 -1.0007621049880981 0.1838998794555664
0.000583615736104548 -1.0004719495773315 0.05076783522963524
0.00015466194599866867 -1.000181794166565 -0.08236420154571533
-0.00027429184410721064 -0.9998916983604431 -0.2154962420463562
-0.0007032456342130899 -0.9996016025543213 -0.34862828254699707
-0.0011321994243189692 -0.9993114471435547 -0.48176032304763794
-0.0015611532144248486 -0.9990213513374329 -0.6148923635482788
-0.001990106888115406 -0.9987311959266663 -0.7480244040489197
-0.002419060794636607 -0.9984411001205444 -0.8811564445495605
-0.0028480144683271646 -0.9981509447097778 -1.0142884254455566
-0.19780641794204712 -0.9820245504379272 0.9833856225013733
-0.1982353776693344 -0.9817343950271606 0.8502535820007324
-0.1986643373966217 -0.9814442992210388 0.7171215415000916
-0.1990932822227478 -0.9811541438102722 0.5839895009994507
-0.1995222419500351 -0.9808640480041504 0.4508574604988098
-0.1999511867761612 -0.9805738925933838 0.31772541999816895
-0.2003801465034485 -0.980283796787262 0.18459339439868927
-0.20080910623073578 -0.9799936413764954 0.0514613538980484
-0.20123805105686188 -0.9797035455703735 -0.08167068660259247
-0.20166701078414917 -0.9794134497642517 -0.21480272710323334
-0.20209597051143646 -0.9791232943534851 -0.347934752702713
-0.20252491533756256 -0.9788331985473633 -0.4810667932033539
-0.20295387506484985 -0.9785430431365967 -0.6141988635063171
-0.20338281989097595 -0.9782529473304749 -0.747330904006958
-0.20381177961826324 -0.9779627919197083 -0.8804629445075989
-0.20424073934555054 -0.9776726961135864 -1.0135949850082397
-0.3909541070461273 -0.9214252233505249 0.9841399788856506
-0.3913830518722534 -0.9211351275444031 0.8510079979896545
-0.3918119966983795 -0.9208449721336365 0.7178759574890137
-0.392240971326828 -0.9205548763275146 0.5847439169883728
-0.3926699161529541 -0.920264720916748 0.45161184668540955
-0.3930988609790802 -0.9199746251106262 0.3184798061847687
-0.3935278356075287 -0.9196845293045044 0.185347780585289
-0.3939567804336548 -0.9193943738937378 0.052215736359357834
-0.3943857252597809 -0.919104278087616 -0.08091630041599274
-0.39481469988822937 -0.9188141226768494 -0.2140483409166336
-0.39524364471435547 -0.9185240268707275 -0.3471803665161133
-0.39567258954048157 -0.9182338714599609 -0.48031240701675415
-0.39610153436660767 -0.9179437756538391 -0.613444447517395
-0.39653050899505615 -0.9176536202430725 -0.7465764880180359
-0.39695945382118225 -0.9173635244369507 -0.8797085285186768
-0.39738839864730835 -0.9170734286308289 -1.0128406286239624
-0.5679492354393005 -0.8231858611106873 0.9849243760108948
-0.568378210067749 -0.8228957653045654 0.8517923355102539
-0.5688071250915527 -0.8226056098937988 0.718660295009613
-0.5692360997200012 -0.822315514087677 0.5855282545089722
-0.5696650743484497 -0.8220254182815552 0.4523962140083313
-0.5700939893722534 -0.8217352628707886 0.31926417350769043
-0.5705229640007019 -0.8214451670646667 0.18613214790821075
-0.5709519386291504 -0.8211550116539001 0.05300010368227959
-0.5713808536529541 -0.8208649158477783 -0.08013193309307098
-0.5718098282814026 -0.8205747604370117 -0.21326397359371185
-0.5722388029098511 -0.8202846646308899 -0.34639599919319153
-0.5726677179336548 -0.8199945092201233 -0.4795280396938324
-0.5730966925621033 -0.8197044134140015 -0.6126601099967957
-0.5735256671905518 -0.8194143176078796 -0.7457921504974365
-0.5739545822143555 -0.819124162197113 -0.8789241909980774
-0.574383556842804 -0.8188340663909912 -1.0120562314987183
-0.7215456366539001 -0.6913284063339233 0.985706627368927
-0.7219746112823486 -0.6910382509231567 0.8525745868682861
-0.7224035859107971 -0.6907481551170349 0.7194425463676453
-0.7228325009346008 -0.6904579997062683 0.5863105058670044
-0.7232614755630493 -0.6901679039001465 0.4531784653663635
-0.7236904501914978 -0.6898778080940247 0.32004642486572266
-0.7241193652153015 -0.6895876526832581 0.1869143694639206
-0.72454833984375 -0.6892975568771362 0.05378233641386032
-0.7249773144721985 -0.6890074014663696 -0.07934970408678055
-0.7254062294960022 -0.6887173056602478 -0.21248173713684082
-0.7258352041244507 -0.6884271502494812 -0.3456137776374817
-0.7262641787528992 -0.6881370544433594 -0.47874581813812256
-0.7266930937767029 -0.6878468990325928 -0.6118778586387634
-0.7271220684051514 -0.687556803226471 -0.7450098991394043
-0.7275510430335999 -0.6872667074203491 -0.8781419396400452
-0.7279799580574036 -0.6869765520095825 -1.011273980140686
-0.8454551100730896 -0.5312510132789612 0.9864546656608582
-0.8458840250968933 -0.5309609174728394 0.8533226251602173
-0.8463129997253418 -0.5306707620620728 0.7201905846595764
-0.8467419743537903 -0.5303806662559509 0.5870585441589355
-0.847170889377594 -0.5300905704498291 0.45392653346061707
-0.8475998640060425 -0.5298004150390625 0.3207944929599762
-0.848028838634491 -0.5295103192329407 0.18766245245933533
-0.8484577536582947 -0.5292201638221741 0.054530419409275055
-0.8488867282867432 -0.5289300680160522 -0.07860162109136581
-0.8493156433105469 -0.5286399126052856 -0.2117336541414261
-0.8497446179389954 -0.5283498167991638 -0.34486570954322815
-0.8501735925674438 -0.5280596613883972 -0.477997750043869
-0.8506025075912476 -0.5277695655822754 -0.6111297607421875
-0.851031482219696 -0.5274794101715088 -0.7442618012428284
-0.8514604568481445 -0.527189314365387 -0.8773938417434692
-0.8518893718719482 -0.5268992185592651 -1.0105259418487549
-0.9346046447753906 -0.3495073914527893 0.9871379733085632
-0.9350336194038391 -0.3492172658443451 0.8540059328079224
-0.9354625940322876 -0.3489271402359009 0.7208738923072815
-0.9358915090560913 -0.34863701462745667 0.5877418518066406
-0.9363204836845398 -0.34834688901901245 0.45460984110832214
-0.9367494583129883 -0.34805676341056824 0.3214778006076813
-0.937178373336792 -0.347766637802124 0.1883457601070404
-0.9376073479652405 -0.3474765121936798 0.05521371588110924
-0.9380362629890442 -0.3471863865852356 -0.07791832089424133
-0.9384652376174927 -0.34689629077911377 -0.2110503613948822
-0.9388942122459412 -0.34660616517066956 -0.34418240189552307
-0.9393231272697449 -0.34631603956222534 -0.47731444239616394
-0.9397521018981934 -0.34602591395378113 -0.6104464530944824
-0.9401810765266418 -0.3457357883453369 -0.7435784935951233
-0.9406099915504456 -0.3454456627368927 -0.8767105340957642
-0.941038966178894 -0.3451555371284485 -1.0098426342010498
-0.9853445887565613 -0.1535380482673645 0.9877285361289978
-0.9857735633850098 -0.1532479226589203 0.8545964956283569
-0.9862024784088135 -0.15295781195163727 0.7214644551277161
-0.986631453037262 -0.15266768634319305 0.5883324146270752
-0.9870604276657104 -0.15237756073474884 0.4552003741264343
-0.9874893426895142 -0.15208743512630463 0.32206833362579346
-0.9879183173179626 -0.1517973095178604 0.1889362931251526
-0.9883472323417664 -0.1515071988105774 0.055804260075092316
-0.9887762069702148 -0.15121707320213318 -0.07732778042554855
-0.9892051815986633 -0.15092694759368896 -0.21045981347560883
-0.989634096622467 -0.15063682198524475 -0.3435918688774109
-0.9900630712509155 -0.15034669637680054 -0.47672390937805176
-0.990492045879364 -0.15005658566951752 -0.6098559498786926
-0.9909209609031677 -0.1497664600610733 -0.7429879903793335
-0.9913499355316162 -0.1494763344526291 -0.8761200308799744
-0.9917789101600647 -0.14918620884418488 -1.0092520713806152
-0.9955975413322449 0.04863395541906357 0.9882021546363831
-0.9960265159606934 0.048924077302217484 0.8550701141357422
-0.9964554905891418 0.0492141991853714 0.7219380736351013
-0.9968844056129456 0.04950432479381561 0.5888060331344604
-0.997313380241394 0.04979444667696953 0.4556739926338196
-0.9977423548698425 0.050084568560123444 0.3225419521331787
-0.9981712698936462 0.05037469044327736 0.18940991163253784
-0.9986002445220947 0.050664812326431274 0.05627787113189697
-0.9990292191505432 0.05095493420958519 -0.0768541693687439
-0.9994581341743469 0.051245059818029404 -0.20998620986938477
-0.9998871088027954 0.05153518170118332 -0.34311825037002563
-1.0003160238265991 0.051825303584337234 -0.4762502908706665
-1.0007450580596924 0.05211542546749115 -0.6093823313713074
-1.001173973083496 0.052405547350645065 -0.7425143718719482
-1.0016028881072998 0.05269566923379898 -0.8756464123725891
-1.002031922340393 0.052985794842243195 -1.00877845287323
-0.9649438261985779 0.24873168766498566 0.988539457321167
-0.9653728008270264 0.24902181327342987 0.8554074168205261
-0.9658017158508301 0.24931193888187408 0.7222753763198853
-0.9662306904792786 0.2496020495891571 0.5891433358192444
-0.966659665107727 0.24989217519760132 0.45601126551628113
-0.9670885801315308 0.25018230080604553 0.32287922501564026
-0.9675175547599792 0.25047242641448975 0.18974719941616058
-0.9679465293884277 0.25076255202293396 0.056615158915519714
-0.9683754444122314 0.2510526776313782 -0.07651688158512115
-0.9688044190406799 0.2513428032398224 -0.20964892208576202
-0.9692333936691284 0.2516329288482666 -0.3427809476852417
-0.9696623086929321 0.2519230246543884 -0.47591298818588257
-0.9700912833213806 0.25221315026283264 -0.6090450286865234
-0.9705202579498291 0.25250327587127686 -0.7421770691871643
-0.9709491729736328 0.25279340147972107 -0.8753091096878052
-0.9713781476020813 0.2530835270881653 -1.0084412097930908
-0.8946383595466614 0.43856313824653625 0.9887265563011169
-0.8950673341751099 0.4388532340526581 0.8555945754051208
-0.8954963088035583 0.4391433596611023 0.72246253490448
-0.8959252238273621 0.4394334852695465 0.5893304944038391
-0.8963541984558105 0.4397236108779907 0.45619842410087585
-0.8967831134796143 0.44001373648643494 0.323066383600235
-0.8972120881080627 0.44030386209487915 0.1899343580007553
-0.8976410627365112 0.44059398770332336 0.05680231377482414
-0.8980699777603149 0.4408841133117676 -0.07632972300052643
-0.8984989523887634 0.4411742389202118 -0.2094617635011673
-0.8989279270172119 0.441464364528656 -0.342593789100647
-0.8993568420410156 0.44175446033477783 -0.47572582960128784
-0.8997858166694641 0.44204458594322205 -0.6088578701019287
-0.9002147912979126 0.44233471155166626 -0.7419899106025696
-0.9006437063217163 0.4426248371601105 -0.8751219511032104
-0.9010726809501648 0.4429149627685547 -1.008254051208496
-0.7875595092773438 0.6103565692901611 0.9887559413909912
-0.7879884243011475 0.610646665096283 0.8556239008903503
-0.788417398929596 0.6109367609024048 0.7224918603897095
-0.7888463735580444 0.6112269163131714 0.5893598198890686
-0.7892752885818481 0.6115170121192932 0.4562278091907501
-0.7897042632102966 0.6118071675300598 0.32309576869010925
-0.7901332378387451 0.6120972633361816 0.1899637132883072
-0.7905621528625488 0.6123874187469482 0.05683168023824692
-0.7909911274909973 0.6126775145530701 -0.07630036026239395
-0.791420042514801 0.6129676699638367 -0.20943239331245422
-0.7918490171432495 0.6132577657699585 -0.3425644338130951
-0.792277991771698 0.6135479211807251 -0.47569647431373596
-0.7927069067955017 0.6138380169868469 -0.6088284850120544
-0.7931358814239502 0.6141281127929688 -0.7419605255126953
-0.7935648560523987 0.6144182682037354 -0.8750925660133362
-0.7939937710762024 0.6147083640098572 -1.008224606513977
-0.6480910181999207 0.7570787072181702 0.9886263012886047
-0.6485199332237244 0.757368803024292 0.8554942607879639
-0.6489489078521729 0.7576589584350586 0.722362220287323
-0.6493778824806213 0.7579490542411804 0.5892301797866821
-0.649806797504425 0.758239209651947 0.45609816908836365
-0.6502357721328735 0.7585293054580688 0.3229661285877228
-0.650664746761322 0.7588194608688354 0.1898340880870819
-0.6510936617851257 0.7591095566749573 0.05670204758644104
-0.6515226364135742 0.7593997120857239 -0.07642999291419983
-0.6519516110420227 0.7596898078918457 -0.2095620334148407
-0.6523805260658264 0.7599799036979675 -0.34269407391548157
-0.6528095006942749 0.7602700591087341 -0.47582611441612244
-0.6532384157180786 0.760560154914856 -0.6089581251144409
-0.6536673903465271 0.7608503103256226 -0.7420901656150818
-0.6540963649749756 0.7611404061317444 -0.8752222061157227
-0.6545252799987793 0.761430561542511 -1.0083543062210083
-0.4819427728652954 0.8727228045463562 0.9883430004119873
-0.4823717176914215 0.873012900352478 0.8552109599113464
-0.4828006625175476 0.8733029961585999 0.7220789194107056
-0.4832296371459961 0.8735931515693665 0.5889468789100647
-0.4836585819721222 0.8738832473754883 0.45581483840942383
-0.4840875267982483 0.8741734027862549 0.32268279790878296
-0.4845165014266968 0.8744634985923767 0.18955077230930328
-0.4849454462528229 0.8747536540031433 0.056418728083372116
-0.485374391078949 0.8750437498092651 -0.07671330869197845
-0.4858033359050751 0.8753339052200317 -0.20984534919261932
-0.48623231053352356 0.8756240010261536 -0.342977374792099
-0.48666125535964966 0.8759140968322754 -0.47610941529273987
-0.48709020018577576 0.876204252243042 -0.6092414855957031
-0.48751917481422424 0.8764943480491638 -0.742373526096344
-0.48794811964035034 0.8767845034599304 -0.8755055665969849
-0.48837706446647644 0.8770745992660522 -1.008637547492981
-0.29591691493988037 0.9525542855262756 0.9879176020622253
-0.29634585976600647 0.9528443813323975 0.8547855615615845
-0.29677483439445496 0.9531345367431641 0.7216535210609436
-0.29720377922058105 0.9534246325492859 0.5885214805603027
-0.29763272404670715 0.9537147879600525 0.45538944005966187
-0.29806169867515564 0.9540048837661743 0.322257399559021
-0.29849064350128174 0.9542950391769409 0.18912535905838013
-0.29891958832740784 0.9545851349830627 0.05599331855773926
-0.29934853315353394 0.9548752903938293 -0.07713872194290161
-0.2997775077819824 0.9551653861999512 -0.21027076244354248
-0.3002064526081085 0.9554555416107178 -0.34340280294418335
-0.3006353974342346 0.9557456374168396 -0.4765348434448242
-0.3010643720626831 0.9560357332229614 -0.6096668839454651
-0.3014933168888092 0.956325888633728 -0.742798924446106
-0.3019222617149353 0.9566159844398499 -0.8759309649467468
-0.3023512363433838 0.9569061398506165 -1.0090630054473877
-0.0976293683052063 0.9933049082756042 0.9873675107955933
-0.09805832803249359 0.9935950636863708 0.8542354702949524
-0.09848728030920029 0.9938851594924927 0.7211034297943115
-0.09891623258590698 0.9941753149032593 0.5879713892936707
-0.09934518486261368 0.9944654107093811 0.4548393487930298
-0.09977413713932037 0.9947555065155029 0.3217073082923889
-0.10020309686660767 0.9950456619262695 0.18857526779174805
-0.10063204914331436 0.9953357577323914 0.055443234741687775
-0.10106100142002106 0.995625913143158 -0.0776888057589531
-0.10148995369672775 0.9959160089492798 -0.21082083880901337
-0.10191890597343445 0.9962061643600464 -0.34395289421081543
-0.10234786570072174 0.9964962601661682 -0.4770849049091339
-0.10277681797742844 0.9967864155769348 -0.6102169752120972
-0.10320577025413513 0.9970765113830566 -0.743349015712738
-0.10363472253084183 0.9973666667938232 -0.8764810562133789
-0.10406367480754852 0.9976567625999451 -1.009613037109375
0.1048019528388977 0.9933063387870789 0.9867152571678162
0.10437300056219101 0.9935964941978455 0.8535832166671753
0.10394404828548431 0.9938865900039673 0.7204511761665344
0.10351509600877762 0.9941766858100891 0.5873191356658936
0.10308614373207092 0.9944668412208557 0.4541871249675751
0.10265718400478363 0.9947569370269775 0.3210550844669342
0.10222823172807693 0.9950470924377441 0.18792304396629333
0.10179927945137024 0.995337188243866 0.054791003465652466
0.10137032717466354 0.9956273436546326 -0.0783410370349884
0.10094137489795685 0.9959174394607544 -0.21147307753562927
0.10051241517066956 0.996207594871521 -0.34460511803627014
0.10008346289396286 0.9964976906776428 -0.477737158536911
0.09965451061725616 0.9967877864837646 -0.6108691692352295
0.09922555834054947 0.9970779418945312 -0.7440012097358704
0.09879660606384277 0.9973680377006531 -0.8771332502365112
0.09836764633655548 0.9976581931114197 -1.0102653503417969
0.3030894994735718 0.9525585174560547 0.9859876036643982
0.3026605546474457 0.9528486132621765 0.8528555631637573
0.3022315800189972 0.9531387686729431 0.7197235226631165
0.3018026351928711 0.9534288644790649 0.5865914821624756
0.301373690366745 0.9537189602851868 0.4534594416618347
0.3009447455406189 0.9540091156959534 0.32032740116119385
0.3005157709121704 0.9542992115020752 0.18719536066055298
0.3000868260860443 0.9545893669128418 0.05406331643462181
0.2996578812599182 0.9548794627189636 -0.07906872034072876
0.2992289066314697 0.9551696181297302 -0.21220076084136963
0.29879996180534363 0.955459713935852 -0.3453328013420105
0.29837101697921753 0.9557498693466187 -0.47846484184265137
0.29794204235076904 0.9560399651527405 -0.6115968823432922
0.29751309752464294 0.9563300609588623 -0.7447289228439331
0.29708415269851685 0.9566202163696289 -0.877860963344574
0.29665520787239075 0.9569103121757507 -1.0109930038452148
0.4891153573989868 0.8727295994758606 0.9852142333984375
0.48868638277053833 0.8730196952819824 0.8520821928977966
0.48825743794441223 0.873309850692749 0.7189501523971558
0.48782849311828613 0.8735999464988708 0.5858181118965149
0.48739954829216003 0.8738901019096375 0.4526861011981964
0.48697057366371155 0.8741801977157593 0.31955406069755554
0.48654162883758545 0.8744703531265259 0.18642202019691467
0.48611268401145935 0.8747604489326477 0.053289975970983505
0.48568370938301086 0.8750506043434143 -0.07984206080436707
0.48525476455688477 0.8753407001495361 -0.21297410130500793
0.48482581973075867 0.875630795955658 -0.3461061418056488
0.4843968451023102 0.8759209513664246 -0.4792381823062897
0.4839679002761841 0.8762110471725464 -0.6123701930046082
0.483538955450058 0.876501202583313 -0.745502233505249
0.4831100106239319 0.8767912983894348 -0.8786342740058899
0.4826810359954834 0.8770814538002014 -1.0117663145065308
0.6552636027336121 0.7570878267288208 0.9844269156455994
0.6548346281051636 0.7573779821395874 0.8512948751449585
0.6544056534767151 0.7576680779457092 0.7181628346443176
0.6539767384529114 0.7579582333564758 0.5850307941436768
0.6535477638244629 0.7582483291625977 0.4518987536430359
0.6531187891960144 0.7585384845733643 0.318766713142395
0.6526898741722107 0.7588285803794861 0.18563467264175415
0.6522608995437622 0.7591187357902527 0.05250263586640358
0.6518319249153137 0.7594088315963745 -0.08062940090894699
0.65140300989151 0.7596989274024963 -0.21376144886016846
0.6509740352630615 0.7599890828132629 -0.3468934893608093
0.6505451202392578 0.7602791786193848 -0.4800255298614502
0.6501161456108093 0.7605693340301514 -0.6131575703620911
0.6496871709823608 0.7608594298362732 -0.7462896108627319
0.6492582559585571 0.7611495852470398 -0.8794216513633728
0.6488292813301086 0.7614396810531616 -1.0125536918640137
0.7947320938110352 0.6103676557540894 0.9836577773094177
0.7943031191825867 0.6106577515602112 0.8505257368087769
0.7938741445541382 0.6109479069709778 0.717393696308136
0.7934452295303345 0.6112380027770996 0.5842617154121399
0.793016254901886 0.6115281581878662 0.45112964510917664
0.7925872802734375 0.611818253993988 0.31799760460853577
0.7921583652496338 0.6121084094047546 0.1848655641078949
0.7917293906211853 0.6123985052108765 0.051733531057834625
0.7913004159927368 0.6126886606216431 -0.08139850944280624
0.7908715009689331 0.6129787564277649 -0.21453054249286652
0.7904425263404846 0.6132688522338867 -0.3476625978946686
0.7900135517120361 0.6135590076446533 -0.48079460859298706
0.7895846366882324 0.6138491034507751 -0.6139266490936279
0.7891556620597839 0.6141392588615417 -0.7470586895942688
0.7887267470359802 0.6144293546676636 -0.8801907300949097
0.7882977724075317 0.6147195100784302 -1.0133228302001953
0.9018109440803528 0.43857574462890625 0.9829384088516235
0.9013820290565491 0.43886587023735046 0.8498063683509827
0.9009530544281006 0.4391559958457947 0.7166743278503418
0.9005240797996521 0.4394461214542389 0.5835422873497009
0.9000951647758484 0.4397362172603607 0.45041027665138245
0.8996661901473999 0.44002634286880493 0.3172782361507416
0.8992372155189514 0.44031646847724915 0.1841461956501007
0.8988083004951477 0.44060659408569336 0.05101415142416954
0.8983793258666992 0.4408967196941376 -0.08211788535118103
0.8979503512382507 0.4411868453025818 -0.2152499258518219
0.897521436214447 0.441476970911026 -0.34838196635246277
0.8970924615859985 0.4417670965194702 -0.48151400685310364
0.89666348695755 0.44205722212791443 -0.6146460175514221
0.8962345719337463 0.44234731793403625 -0.747778058052063
0.8958055973052979 0.44263744354248047 -0.8809100985527039
0.8953766226768494 0.4429275691509247 -1.0140421390533447
0.9721164107322693 0.24874529242515564 0.9822981953620911
0.9716874957084656 0.24903541803359985 0.8491661548614502
0.9712585210800171 0.24932552874088287 0.7160341143608093
0.9708295464515686 0.2496156543493271 0.5829020738601685
0.9704006314277649 0.2499057799577713 0.44977006316185
0.9699716567993164 0.2501958906650543 0.3166380226612091
0.9695426821708679 0.25048601627349854 0.18350598216056824
0.9691137671470642 0.25077614188194275 0.05037394538521767
0.9686847925186157 0.25106626749038696 -0.0827580913901329
0.9682558178901672 0.2513563930988312 -0.21589013934135437
0.9678269028663635 0.2516465187072754 -0.34902217984199524
0.967397928237915 0.2519366443157196 -0.4821542203426361
0.9669689536094666 0.2522267699241638 -0.6152862310409546
0.9665400385856628 0.25251689553260803 -0.7484182715415955
0.9661110639572144 0.25280699133872986 -0.8815503120422363
0.9656820893287659 0.2530971169471741 -1.014682412147522
1.002770185470581 0.048647988587617874 0.9817634224891663
1.0023411512374878 0.04893811047077179 0.8486313819885254
1.001912236213684 0.049228232353925705 0.7154993414878845
1.0014833211898804 0.04951835423707962 0.5823673009872437
1.001054286956787 0.049808476120233536 0.4492352306842804
1.0006253719329834 0.05009859800338745 0.3161031901836395
1.0001964569091797 0.050388723611831665 0.18297116458415985
0.9997674822807312 0.05067884549498558 0.04983912408351898
0.9993385076522827 0.050968967378139496 -0.08329291641712189
0.998909592628479 0.05125908926129341 -0.21642495691776276
0.9984806180000305 0.05154921114444733 -0.34955698251724243
0.998051643371582 0.05183933302760124 -0.4826890230178833
0.9976227283477783 0.052129458636045456 -0.6158210635185242
0.9971937537193298 0.05241958051919937 -0.748953104019165
0.9967647790908813 0.05270970240235329 -0.8820851445198059
0.9963358640670776 0.0529998242855072 -1.0152171850204468
0.9925171732902527 -0.15352416038513184 0.9813558459281921
0.9920881986618042 -0.15323403477668762 0.8482238054275513
0.9916592836380005 -0.1529439240694046 0.7150917649269104
0.991230309009552 -0.1526537984609604 0.5819597244262695
0.9908013343811035 -0.15236367285251617 0.44882771372795105
0.9903724193572998 -0.15207354724407196 0.3156956732273102
0.9899434447288513 -0.15178342163562775 0.18256361782550812
0.9895144701004028 -0.15149331092834473 0.049431584775447845
0.9890855550765991 -0.1512031853199005 -0.08370045572519302
0.9886565804481506 -0.1509130597114563 -0.2168324887752533
0.9882276058197021 -0.15062293410301208 -0.34996452927589417
0.9877986907958984 -0.15033280849456787 -0.48309656977653503
0.98736971616745 -0.15004269778728485 -0.6162285804748535
0.9869407415390015 -0.14975257217884064 -0.7493606209754944
0.9865118265151978 -0.14946244657039642 -0.8824926614761353
0.9860828518867493 -0.1491723209619522 -1.015624761581421
0.941777229309082 -0.34949421882629395 0.9810922741889954
0.9413483142852783 -0.34920409321784973 0.8479602336883545
0.9409193396568298 -0.3489139676094055 0.7148281931877136
0.9404903650283813 -0.3486238420009613 0.5816961526870728
0.9400614500045776 -0.3483337163925171 0.4485641121864319
0.9396324753761292 -0.3480435907840729 0.3154321014881134
0.9392035007476807 -0.34775346517562866 0.18230004608631134
0.938774585723877 -0.34746333956718445 0.04916800931096077
0.9383456110954285 -0.34717321395874023 -0.0839640274643898
0.93791663646698 -0.3468831181526184 -0.21709606051445007
0.9374877214431763 -0.3465929925441742 -0.35022810101509094
0.9370587468147278 -0.34630286693573 -0.4833601415157318
0.9366297721862793 -0.34601274132728577 -0.6164922118186951
0.9362008571624756 -0.34572261571884155 -0.7496241927146912
0.9357718825340271 -0.34543249011039734 -0.882756233215332
0.9353429079055786 -0.3451423645019531 -1.0158883333206177
0.852627694606781 -0.5312390923500061 0.9809834361076355
0.8521987199783325 -0.5309489965438843 0.8478513956069946
0.851769745349884 -0.5306588411331177 0.7147193551063538
0.8513408303260803 -0.5303687453269958 0.5815873742103577
0.8509118556976318 -0.5300785899162292 0.4484553039073944
0.8504828810691833 -0.5297884941101074 0.31532326340675354
0.8500539660453796 -0.5294983983039856 0.18219122290611267
0.8496249914169312 -0.529208242893219 0.0490591898560524
0.8491960167884827 -0.5289181470870972 -0.08407285064458847
0.848767101764679 -0.5286279916763306 -0.21720488369464874
0.8483381271362305 -0.5283378958702087 -0.3503369390964508
0.847909152507782 -0.5280477404594421 -0.4834689497947693
0.8474802374839783 -0.5277576446533203 -0.6166009902954102
0.8470512628555298 -0.5274674892425537 -0.749733030796051
0.8466223478317261 -0.5271773934364319 -0.8828650712966919
0.8461933732032776 -0.5268872976303101 -1.0159971714019775
0.7287182211875916 -0.6913182139396667 0.9810338616371155
0.7282893061637878 -0.6910281181335449 0.8479018211364746
0.7278603315353394 -0.6907379627227783 0.7147697806358337
0.7274313569068909 -0.6904478669166565 0.5816377401351929
0.7270024418830872 -0.6901577115058899 0.448505699634552
0.7265734672546387 -0.6898676156997681 0.31537365913391113
0.726144552230835 -0.6895774602890015 0.18224161863327026
0.7257155776023865 -0.6892873644828796 0.04910958558320999
0.725286602973938 -0.688997209072113 -0.08402245491743088
0.7248576879501343 -0.6887071132659912 -0.21715448796749115
0.7244287133216858 -0.6884169578552246 -0.3502865433692932
0.7239997386932373 -0.6881268620491028 -0.4834185838699341
0.7235708236694336 -0.687836766242981 -0.616550624370575
0.7231418490409851 -0.6875466108322144 -0.7496826648712158
0.7227128744125366 -0.6872565150260925 -0.8828147053718567
0.7222839593887329 -0.6869663596153259 -1.0159467458724976
0.5751218199729919 -0.8231778740882874 0.9812414050102234
0.5746929049491882 -0.8228877186775208 0.8481093645095825
0.5742639303207397 -0.8225976228713989 0.7149773240089417
0.5738349556922913 -0.8223074674606323 0.5818452835083008
0.5734060406684875 -0.8220173716545105 0.4487132430076599
0.5729770660400391 -0.8217272162437439 0.31558120250701904
0.5725480914115906 -0.8214371204376221 0.18244916200637817
0.5721191763877869 -0.8211470246315002 0.0493171252310276
0.5716902017593384 -0.8208568692207336 -0.08381491154432297
0.5712612271308899 -0.8205667734146118 -0.21694695949554443
0.5708323121070862 -0.8202766180038452 -0.3500789999961853
0.5704033374786377 -0.8199865221977234 -0.48321104049682617
0.5699743628501892 -0.8196963667869568 -0.616343080997467
0.5695454478263855 -0.819406270980835 -0.7494751214981079
0.569116473197937 -0.8191161155700684 -0.8826071619987488
0.5686874985694885 -0.8188260197639465 -1.0157392024993896
0.3981266915798187 -0.9214196801185608 0.9815976023674011
0.3976977467536926 -0.921129584312439 0.8484655618667603
0.39726877212524414 -0.9208394289016724 0.7153335213661194
0.39683982729911804 -0.9205493330955505 0.5822014808654785
0.39641088247299194 -0.9202591776847839 0.44906944036483765
0.39598190784454346 -0.9199690818786621 0.3159373998641968
0.39555296301841736 -0.9196789860725403 0.1828053593635559
0.39512401819229126 -0.9193888306617737 0.04967331513762474
0.3946950435638428 -0.9190987348556519 -0.08345872163772583
0.3942660987377167 -0.9188085794448853 -0.2165907621383667
0.3938371539115906 -0.9185184836387634 -0.34972280263900757
0.3934081792831421 -0.9182283282279968 -0.48285484313964844
0.392979234457016 -0.917938232421875 -0.6159868836402893
0.3925502896308899 -0.9176480770111084 -0.7491189241409302
0.3921213448047638 -0.9173579812049866 -0.882250964641571
0.3916923701763153 -0.9170678853988647 -1.015383005142212
0.20497900247573853 -0.982021689414978 0.9820878505706787
0.20455005764961243 -0.9817315936088562 0.8489558100700378
0.20412109792232513 -0.9814414381980896 0.715823769569397
0.20369215309619904 -0.9811513423919678 0.5826917290687561
0.20326319336891174 -0.9808611869812012 0.44955968856811523
0.20283423364162445 -0.9805710911750793 0.31642764806747437
0.20240528881549835 -0.9802809357643127 0.1832956224679947
0.20197632908821106 -0.9799908399581909 0.05016357824206352
0.20154738426208496 -0.9797007441520691 -0.08296845853328705
0.20111842453479767 -0.9794105887413025 -0.21610049903392792
0.20068946480751038 -0.9791204929351807 -0.3492325246334076
0.20026051998138428 -0.9788303375244141 -0.48236456513404846
0.19983156025409698 -0.9785402417182922 -0.6154966354370117
0.1994026154279709 -0.9782500863075256 -0.7486286759376526
0.1989736557006836 -0.9779599905014038 -0.8817607164382935
0.1985446959733963 -0.9776698350906372 -1.0148926973342896
0.003586292266845703 -1.0025027990341187 0.9826921224594116
0.0031573385931551456 -1.002212643623352 0.8495600819587708
0.0027283846866339445 -1.001922607421875 0.7164280414581299
0.002299431012943387 -1.0016324520111084 0.583296000957489
0.001870477106422186 -1.0013422966003418 0.45016396045684814
0.0014415233163163066 -1.0010521411895752 0.3170319199562073
0.0010125695262104273 -1.0007621049880981 0.1838998794555664
0.000583615736104548 -1.0004719495773315 0.05076783522963524
0.00015466194599866867 -1.000181794166565 -0.08236420154571533
-0.00027429184410721064 -0.9998916983604431 -0.2154962420463562
-0.0007032456342130899 -0.9996016025543213 -0.34862828254699707
-0.0011321994243189692 -0.9993114471435547 -0.48176032304763794
-0.0015611532144248486 -0.9990213513374329 -0.6148923635482788
-0.001990106888115406 -0.9987311959266663 -0.7480244040489197
-0.002419060794636607 -0.9984411001205444 -0.8811564445495605
-0.0028480144683271646 -0.9981509447097778 -1.0142884254455566
