ply
format ascii 1.0
element vertex 512
property float x
property float y
property float z
end_header
-0.0017752647399902344 1.0034693479537964 -0.9608301520347595
-0.001628036960028112 1.0033318996429443 -0.8329240679740906
-0.0014808090636506677 1.0031944513320923 -0.7050180435180664
-0.0013335812836885452 1.0030570030212402 -0.5771119594573975
-0.001186353387311101 1.0029195547103882 -0.4492059350013733
-0.0010391256073489785 1.0027821063995361 -0.32129988074302673
-0.0008918977691791952 1.002644658088684 -0.19339382648468018
-0.0007446699310094118 1.002507209777832 -0.06548776477575302
-0.0005974421510472894 1.00236976146698 0.06241828575730324
-0.000450214312877506 1.002232313156128 0.1903243362903595
-0.00030298647470772266 1.0020948648452759 0.31823039054870605
-0.00015575865108985454 1.0019574165344238 0.4461364448070526
-8.5308211055235e-06 1.0018199682235718 0.5740424990653992
0.00013869701069779694 1.0016825199127197 0.7019485235214233
0.00028592481976374984 1.0015450716018677 0.8298546075820923
0.0004331526579335332 1.0014076232910156 0.9577606320381165
-0.2032347470521927 0.9829826951026917 -0.9606202840805054
-0.20308750867843628 0.9828452467918396 -0.8327142000198364
-0.20294028520584106 0.9827077984809875 -0.7048081755638123
-0.20279306173324585 0.9825703501701355 -0.5769020915031433
-0.20264582335948944 0.9824329018592834 -0.44899603724479675
-0.20249859988689423 0.9822954535484314 -0.3210899829864502
-0.202351376414299 0.9821580052375793 -0.19318394362926483
-0.2022041529417038 0.9820205569267273 -0.06527788937091827
-0.2020569145679474 0.9818831086158752 0.06262816488742828
-0.20190969109535217 0.9817456603050232 0.19053421914577484
-0.20176246762275696 0.9816082119941711 0.3184402585029602
-0.20161522924900055 0.9814707636833191 0.44634631276130676
-0.20146800577640533 0.981333315372467 0.5742523670196533
-0.20132078230381012 0.981195867061615 0.7021584510803223
-0.2011735439300537 0.9810584187507629 0.8300644755363464
-0.2010263204574585 0.9809209704399109 0.9579705595970154
-0.39644643664360046 0.9223619103431702 -0.9604629874229431
-0.39629921317100525 0.9222244620323181 -0.832556962966919
-0.39615198969841003 0.9220870137214661 -0.70465087890625
-0.3960047662258148 0.921949565410614 -0.5767448544502258
-0.3958575427532196 0.921812117099762 -0.4488388001918793
-0.395710289478302 0.9216746687889099 -0.3209327459335327
-0.3955630660057068 0.9215372204780579 -0.19302669167518616
-0.3954158425331116 0.9213997721672058 -0.0651206374168396
-0.39526861906051636 0.9212623238563538 0.06278541684150696
-0.39512139558792114 0.9211248755455017 0.19069147109985352
-0.3949741721153259 0.9209874272346497 0.3185975253582001
-0.3948269486427307 0.9208499789237976 0.44650357961654663
-0.3946796953678131 0.9207125306129456 0.5744096040725708
-0.3945324718952179 0.9205750823020935 0.7023156881332397
-0.3943852484226227 0.9204376339912415 0.8302217125892639
-0.39423802495002747 0.9203001856803894 0.9581277966499329
-0.5735002756118774 0.8240887522697449 -0.960364818572998
-0.5733530521392822 0.8239513039588928 -0.8324587345123291
-0.573205828666687 0.8238138556480408 -0.7045527100563049
-0.5730586051940918 0.8236764073371887 -0.576646625995636
-0.5729113221168518 0.8235389590263367 -0.4487406015396118
-0.5727640986442566 0.8234015107154846 -0.32083454728126526
-0.5726168751716614 0.8232640624046326 -0.1929284930229187
-0.5724696516990662 0.8231266140937805 -0.06502243876457214
-0.572322428226471 0.8229891657829285 0.06288361549377441
-0.5721752047538757 0.8228517174720764 0.19078966975212097
-0.5720279812812805 0.8227142691612244 0.31869572401046753
-0.5718807578086853 0.8225768208503723 0.4466017782688141
-0.5717335343360901 0.8224393725395203 0.5745078325271606
-0.5715863108634949 0.8223019242286682 0.7024138569831848
-0.5714390873908997 0.8221644759178162 0.8303199410438538
-0.5712918639183044 0.8220270276069641 0.9582259654998779
-0.7271475791931152 0.6921866536140442 -0.9603297114372253
-0.72700035572052 0.6920492053031921 -0.8324236273765564
-0.7268531322479248 0.6919117569923401 -0.7045176029205322
-0.7267059087753296 0.691774308681488 -0.5766115188598633
-0.7265586853027344 0.691636860370636 -0.4487054944038391
-0.7264114618301392 0.6914994120597839 -0.32079944014549255
-0.726264238357544 0.6913619637489319 -0.1928933709859848
-0.7261170148849487 0.6912245154380798 -0.06498732417821884
-0.7259697914123535 0.6910870671272278 0.06291873008012772
-0.7258225083351135 0.6909496188163757 0.19082477688789368
-0.7256752848625183 0.6908121705055237 0.31873083114624023
-0.7255280613899231 0.6906747221946716 0.4466368854045868
-0.7253808379173279 0.6905372738838196 0.5745429396629333
-0.7252336144447327 0.6903998255729675 0.7024489641189575
-0.7250863909721375 0.6902623772621155 0.8303550481796265
-0.7249391674995422 0.6901249289512634 0.9582610726356506
-0.8510980606079102 0.532055675983429 -0.9603590965270996
-0.8509508371353149 0.5319182276725769 -0.8324530124664307
-0.8508036136627197 0.5317807793617249 -0.7045469880104065
-0.8506563901901245 0.5316433310508728 -0.5766409635543823
-0.8505091667175293 0.5315058827400208 -0.4487348794937134
-0.8503619432449341 0.5313684344291687 -0.3208288252353668
-0.8502147197723389 0.5312309861183167 -0.19292278587818146
-0.8500674962997437 0.5310935378074646 -0.0650167241692543
-0.8499202728271484 0.5309560894966125 0.06288932263851166
-0.8497730493545532 0.5308186411857605 0.19079537689685822
-0.849625825881958 0.5306811928749084 0.31870144605636597
-0.8494786024093628 0.5305437445640564 0.44660747051239014
-0.8493313789367676 0.5304062962532043 0.5745135545730591
-0.8491841554641724 0.5302688479423523 0.7024195790290833
-0.8490368723869324 0.5301313996315002 0.8303256630897522
-0.8488896489143372 0.5299939513206482 0.9582316875457764
-0.9402772188186646 0.35025152564048767 -0.9604517817497253
-0.9401299953460693 0.3501140773296356 -0.8325457572937012
-0.9399827718734741 0.34997662901878357 -0.704639732837677
-0.9398355484008789 0.3498391807079315 -0.5767336487770081
-0.9396883249282837 0.34970173239707947 -0.4488275945186615
-0.9395411014556885 0.3495642840862274 -0.32092154026031494
-0.9393938183784485 0.34942683577537537 -0.19301550090312958
-0.9392465949058533 0.3492893874645233 -0.06510944664478302
-0.9390993714332581 0.34915193915367126 0.06279660761356354
-0.9389521479606628 0.3490144908428192 0.1907026618719101
-0.9388049244880676 0.34887704253196716 0.31860870122909546
-0.9386577010154724 0.3487395942211151 0.446514755487442
-0.9385104775428772 0.34860214591026306 0.5744208097457886
-0.938363254070282 0.348464697599411 0.7023268938064575
-0.9382160305976868 0.34832724928855896 0.8302329182624817
-0.9380688071250916 0.3481898009777069 0.9581390023231506
-0.9910339713096619 0.15421733260154724 -0.9606040716171265
-0.9908867478370667 0.1540798842906952 -0.8326979875564575
-0.9907395243644714 0.15394243597984314 -0.7047919631004333
-0.9905923008918762 0.1538049876689911 -0.5768858790397644
-0.9904450178146362 0.15366753935813904 -0.44897982478141785
-0.990297794342041 0.153530091047287 -0.3210737705230713
-0.9901505708694458 0.15339264273643494 -0.19316773116588593
-0.9900033473968506 0.15325519442558289 -0.06526167690753937
-0.9898561239242554 0.15311774611473083 0.06264437735080719
-0.9897089004516602 0.15298029780387878 0.19055043160915375
-0.9895616769790649 0.15284284949302673 0.3184564709663391
-0.9894144535064697 0.15270540118217468 0.44636252522468567
-0.9892672300338745 0.15256795287132263 0.5742685794830322
-0.9891200065612793 0.15243050456047058 0.7021746635437012
-0.9889727830886841 0.15229305624961853 0.8300806879997253
-0.9888255596160889 0.15215560793876648 0.9579867720603943
-1.0012903213500977 -0.048021215945482254 -0.960809588432312
-1.0011430978775024 -0.048158664256334305 -0.8329035043716431
-1.0009958744049072 -0.048296112567186356 -0.7049974799156189
-1.000848650932312 -0.048433560878038406 -0.57709139585495
-1.0007014274597168 -0.04857100918889046 -0.4491853713989258
-1.0005542039871216 -0.04870845749974251 -0.3212793171405792
-1.0004069805145264 -0.04884590581059456 -0.19337324798107147
-1.0002597570419312 -0.04898335412144661 -0.06546720117330551
-1.000112533569336 -0.04912080243229866 0.062438853085041046
-0.9999653100967407 -0.04925825074315071 0.190344899892807
-0.9998180270195007 -0.04939569905400276 0.31825095415115356
-0.9996708035469055 -0.04953314736485481 0.4461570084095001
-0.9995235800743103 -0.04967059567570686 0.5740630626678467
-0.9993763566017151 -0.049808043986558914 0.7019691467285156
-0.9992291331291199 -0.049945492297410965 0.8298751711845398
-0.9990819096565247 -0.050082940608263016 0.957781195640564
-0.9706264734268188 -0.248184472322464 -0.9610599875450134
-0.9704791903495789 -0.24832192063331604 -0.8331539034843445
-0.9703319668769836 -0.2484593689441681 -0.7052478790283203
-0.9701847434043884 -0.24859681725502014 -0.5773417949676514
-0.9700375199317932 -0.2487342655658722 -0.4494357407093048
-0.969890296459198 -0.24887171387672424 -0.32152968645095825
-0.9697430729866028 -0.2490091621875763 -0.1936236470937729
-0.9695958495140076 -0.24914661049842834 -0.06571759283542633
-0.9694486260414124 -0.2492840588092804 0.06218846142292023
-0.9693014025688171 -0.24942152202129364 0.19009451568126678
-0.9691541790962219 -0.2495589703321457 0.31800055503845215
-0.9690069556236267 -0.24969641864299774 0.4459066092967987
-0.9688597321510315 -0.2498338669538498 0.5738126635551453
-0.9687125086784363 -0.24997131526470184 0.7017187476158142
-0.9685652852058411 -0.2501087486743927 0.8296247720718384
-0.9684180021286011 -0.25024619698524475 0.9575308561325073
-0.9002977013587952 -0.43807774782180786 -0.9613449573516846
-0.9001504778862 -0.4382151961326599 -0.8334389328956604
-0.90000319480896 -0.43835264444351196 -0.7055328488349915
-0.8998559713363647 -0.438490092754364 -0.5776268243789673
-0.8997087478637695 -0.43862754106521606 -0.4497207701206207
-0.8995615243911743 -0.4387649893760681 -0.32181471586227417
-0.8994143009185791 -0.43890243768692017 -0.1939086616039276
-0.8992670774459839 -0.4390398859977722 -0.06600260734558105
-0.8991198539733887 -0.43917733430862427 0.0619034469127655
-0.8989726305007935 -0.4393147826194763 0.18980950117111206
-0.8988254070281982 -0.43945223093032837 0.3177155554294586
-0.898678183555603 -0.4395896792411804 0.4456216096878052
-0.8985309600830078 -0.43972712755203247 0.5735276341438293
-0.8983837366104126 -0.4398645758628845 0.7014337182044983
-0.8982365131378174 -0.4400020241737366 0.8293397426605225
-0.8980892896652222 -0.4401394724845886 0.9572458267211914
-0.7931833267211914 -0.6099267601966858 -0.961652934551239
-0.7930360436439514 -0.6100642085075378 -0.8337469100952148
-0.7928888201713562 -0.6102016568183899 -0.7058408260345459
-0.792741596698761 -0.6103391051292419 -0.5779348015785217
-0.7925943732261658 -0.610476553440094 -0.4500287175178528
-0.7924471497535706 -0.610614001750946 -0.3221226632595062
-0.7922999262809753 -0.6107514500617981 -0.19421662390232086
-0.7921527028083801 -0.6108888983726501 -0.0663105696439743
-0.7920054793357849 -0.6110263466835022 0.06159548461437225
-0.7918582558631897 -0.6111637949943542 0.1895015388727188
-0.7917110323905945 -0.6113012433052063 0.3174075782299042
-0.7915638089179993 -0.6114386916160583 0.44531363248825073
-0.791416585445404 -0.6115761399269104 0.5732197165489197
-0.7912693619728088 -0.6117135882377625 0.7011257410049438
-0.7911220788955688 -0.6118510365486145 0.8290318250656128
-0.7909748554229736 -0.6119884848594666 0.956937849521637
-0.6536685824394226 -0.7566959857940674 -0.9619712233543396
-0.6535213589668274 -0.7568334341049194 -0.8340651988983154
-0.6533741354942322 -0.7569708824157715 -0.7061591148376465
-0.653226912021637 -0.7571083307266235 -0.5782530903816223
-0.6530796885490417 -0.7572457790374756 -0.45034703612327576
-0.6529324650764465 -0.7573832273483276 -0.3224409818649292
-0.6527851819992065 -0.7575206756591797 -0.19453492760658264
-0.6526379585266113 -0.7576581239700317 -0.06662888079881668
-0.6524907350540161 -0.7577955722808838 0.06127717345952988
-0.6523435115814209 -0.7579330205917358 0.18918322026729584
-0.6521962881088257 -0.7580704689025879 0.3170892894268036
-0.6520490646362305 -0.7582079172134399 0.44499534368515015
-0.6519018411636353 -0.758345365524292 0.5729013681411743
-0.65175461769104 -0.758482813835144 0.7008074522018433
-0.6516073942184448 -0.7586202621459961 0.8287134766578674
-0.6514601707458496 -0.7587577104568481 0.9566195607185364
-0.4874652624130249 -0.8723767399787903 -0.9622868895530701
-0.4873180389404297 -0.8725141882896423 -0.8343808054924011
-0.4871708154678345 -0.8726516366004944 -0.706474781036377
-0.48702359199523926 -0.8727890849113464 -0.578568696975708
-0.48687636852264404 -0.8729265332221985 -0.45066264271736145
-0.48672914505004883 -0.8730639815330505 -0.3227566182613373
-0.4865818917751312 -0.8732014298439026 -0.19485054910182953
-0.486434668302536 -0.8733388781547546 -0.06694450229406357
-0.4862874448299408 -0.8734763264656067 0.06096155196428299
-0.4861402213573456 -0.8736137747764587 0.18886759877204895
-0.48599299788475037 -0.8737512230873108 0.3167736530303955
-0.48584577441215515 -0.8738886713981628 0.44467970728874207
-0.48569852113723755 -0.8740261197090149 0.5725857615470886
-0.48555129766464233 -0.8741635680198669 0.7004918456077576
-0.4854040741920471 -0.874301016330719 0.8283978700637817
-0.4852568507194519 -0.874438464641571 0.9563038945198059
-0.3013777434825897 -0.9522329568862915 -0.9625868797302246
-0.3012305200099945 -0.9523704051971436 -0.8346808552742004
-0.3010832965373993 -0.9525078535079956 -0.7067747712135315
-0.3009360730648041 -0.9526453018188477 -0.5788687467575073
-0.30078884959220886 -0.9527827501296997 -0.4509626626968384
-0.30064162611961365 -0.9529201984405518 -0.3230566084384918
-0.30049440264701843 -0.9530576467514038 -0.19515056908130646
-0.30034714937210083 -0.9531950950622559 -0.0672445148229599
-0.3001999258995056 -0.9533325433731079 0.06066153943538666
-0.3000527024269104 -0.95346999168396 0.18856759369373322
-0.2999054789543152 -0.953607439994812 0.3164736330509186
-0.29975825548171997 -0.9537448883056641 0.44437968730926514
-0.29961103200912476 -0.9538823366165161 0.5722857713699341
-0.29946377873420715 -0.9540197849273682 0.7001917958259583
-0.29931655526161194 -0.9541572332382202 0.8280978798866272
-0.2991693317890167 -0.9542946815490723 0.9560039043426514
-0.10302448272705078 -0.9929953217506409 -0.9628589749336243
-0.10287725180387497 -0.9931327700614929 -0.8349529504776001
-0.10273002088069916 -0.993270218372345 -0.7070468664169312
-0.10258279740810394 -0.993407666683197 -0.579140841960907
-0.10243556648492813 -0.9935451149940491 -0.4512347877025604
-0.10228834301233292 -0.9936825633049011 -0.32332873344421387
-0.1021411120891571 -0.9938200116157532 -0.1954226791858673
-0.10199388861656189 -0.9939574599266052 -0.06751663237810135
-0.10184665769338608 -0.9940949082374573 0.06038942188024521
-0.10169942677021027 -0.9942323565483093 0.18829546868801117
-0.10155220329761505 -0.9943698048591614 0.3162015378475189
-0.10140497237443924 -0.9945072531700134 0.4441075921058655
-0.10125774890184402 -0.9946447014808655 0.5720136165618896
-0.10111051797866821 -0.9947821497917175 0.6999197006225586
-0.1009632870554924 -0.9949195981025696 0.8278257250785828
-0.10081606358289719 -0.9950570464134216 0.9557318091392517
0.09947395324707031 -0.9929950833320618 -0.9630920886993408
0.09962117671966553 -0.9931325316429138 -0.8351860642433167
0.09976840764284134 -0.9932699799537659 -0.7072799801826477
0.09991563111543655 -0.9934074282646179 -0.5793739557266235
0.10006286203861237 -0.99354487657547 -0.4514678716659546
0.10021009296178818 -0.993682324886322 -0.32356181740760803
0.10035731643438339 -0.9938197731971741 -0.19565577805042267
0.1005045473575592 -0.9939572215080261 -0.06774972379207611
0.10065177083015442 -0.9940946698188782 0.060156334191560745
0.10079900175333023 -0.9942321181297302 0.188062384724617
0.10094622522592545 -0.9943695664405823 0.31596842408180237
0.10109345614910126 -0.9945070147514343 0.4438744783401489
0.10124068707227707 -0.9946444630622864 0.5717805624008179
0.10138791054487228 -0.9947819113731384 0.699686586856842
0.1015351414680481 -0.9949193596839905 0.827592670917511
0.10168236494064331 -0.9950568079948425 0.9554986953735352
0.29782721400260925 -0.9522321820259094 -0.9632766246795654
0.29797446727752686 -0.9523696303367615 -0.8353705406188965
0.29812169075012207 -0.9525070786476135 -0.7074645161628723
0.2982689142227173 -0.9526445269584656 -0.5795584321022034
0.2984161376953125 -0.9527819752693176 -0.4516523778438568
0.2985633611679077 -0.9529194235801697 -0.32374632358551025
0.29871058464050293 -0.9530568718910217 -0.1958402842283249
0.29885780811309814 -0.9531943202018738 -0.06793422996997833
0.29900506138801575 -0.9533317685127258 0.05997182056307793
0.29915228486061096 -0.9534692168235779 0.18787787854671478
0.2992995083332062 -0.9536066651344299 0.31578391790390015
0.2994467318058014 -0.953744113445282 0.4436899721622467
0.2995939552783966 -0.953881561756134 0.5715960264205933
0.2997411787509918 -0.9540190100669861 0.6995021104812622
0.29988840222358704 -0.9541564583778381 0.8274081349372864
0.30003565549850464 -0.9542939066886902 0.9553141593933105
0.48391473293304443 -0.87237548828125 -0.9634050130844116
0.48406195640563965 -0.872512936592102 -0.8354989290237427
0.48420920968055725 -0.8726503849029541 -0.7075929045677185
0.48435643315315247 -0.8727878332138062 -0.5796868205070496
0.4845036566257477 -0.8729252815246582 -0.451780766248703
0.4846508800983429 -0.8730627298355103 -0.32387471199035645
0.4847981035709381 -0.8732001781463623 -0.19596867263317108
0.4849453270435333 -0.8733376264572144 -0.06806261837482452
0.48509255051612854 -0.8734750747680664 0.059843435883522034
0.48523980379104614 -0.8736125230789185 0.1877494901418686
0.48538702726364136 -0.8737499713897705 0.31565552949905396
0.4855342507362366 -0.8738874197006226 0.4435615837574005
0.4856814742088318 -0.8740248680114746 0.5714676380157471
0.485828697681427 -0.8741623163223267 0.699373722076416
0.4859759211540222 -0.8742997646331787 0.8272797465324402
0.48612314462661743 -0.8744372129440308 0.9551858305931091
0.6501180529594421 -0.7566943764686584 -0.9634720087051392
0.6502652764320374 -0.7568318247795105 -0.8355659246444702
0.6504124999046326 -0.7569692730903625 -0.707659900188446
0.6505597233772278 -0.7571067214012146 -0.5797538161277771
0.650706946849823 -0.7572441697120667 -0.45184776186943054
0.6508541703224182 -0.7573816180229187 -0.323941707611084
0.6510013937950134 -0.7575190663337708 -0.19603566825389862
0.6511486172676086 -0.7576565146446228 -0.06812961399555206
0.6512959003448486 -0.7577939629554749 0.059776436537504196
0.6514431238174438 -0.7579314112663269 0.18768249452114105
0.6515903472900391 -0.758068859577179 0.3155885338783264
0.6517375707626343 -0.758206307888031 0.443494588136673
0.6518847942352295 -0.7583437561988831 0.5714006423950195
0.6520320177078247 -0.7584812045097351 0.6993067264556885
0.6521792411804199 -0.7586186528205872 0.8272127509117126
0.6523264646530151 -0.7587561011314392 0.9551187753677368
0.7896327972412109 -0.6099247932434082 -0.9634748697280884
0.7897800207138062 -0.6100622415542603 -0.8355687856674194
0.7899272441864014 -0.6101996898651123 -0.7076627612113953
0.7900744676589966 -0.6103371381759644 -0.5797566771507263
0.7902216911315918 -0.6104745864868164 -0.45185065269470215
0.790368914604187 -0.6106120347976685 -0.3239445984363556
0.7905161380767822 -0.6107494831085205 -0.19603854417800903
0.7906633615493774 -0.6108869314193726 -0.06813248991966248
0.7908105850219727 -0.6110243797302246 0.05977356433868408
0.7909578084945679 -0.6111618280410767 0.18767961859703064
0.7911050319671631 -0.6112992763519287 0.3155856728553772
0.7912522554397583 -0.6114367246627808 0.44349172711372375
0.7913994789123535 -0.6115741729736328 0.5713977813720703
0.7915467023849487 -0.6117116212844849 0.6993038058280945
0.7916939854621887 -0.6118490695953369 0.8272098898887634
0.7918412089347839 -0.611986517906189 0.9551159143447876
0.8967471718788147 -0.4380755126476288 -0.9634134769439697
0.8968943953514099 -0.43821296095848083 -0.8355074524879456
0.8970416188240051 -0.4383504092693329 -0.7076013684272766
0.8971888422966003 -0.43848785758018494 -0.5796953439712524
0.8973360657691956 -0.438625305891037 -0.4517892599105835
0.8974832892417908 -0.43876275420188904 -0.32388320565223694
0.897630512714386 -0.4389002025127411 -0.19597716629505157
0.8977777361869812 -0.43903765082359314 -0.06807111203670502
0.8979249596595764 -0.4391750991344452 0.05983494222164154
0.8980721831321716 -0.43931254744529724 0.1877409964799881
0.8982194066047668 -0.4394499957561493 0.31564703583717346
0.8983666300773621 -0.43958744406700134 0.44355309009552
0.8985138535499573 -0.4397248923778534 0.571459174156189
0.8986611366271973 -0.43986234068870544 0.6993651986122131
0.8988083600997925 -0.4399997889995575 0.8272712826728821
0.8989555835723877 -0.44013723731040955 0.9551773071289062
0.9670759439468384 -0.24818208813667297 -0.9632903933525085
0.9672231674194336 -0.24831953644752502 -0.8353843092918396
0.9673703908920288 -0.24845698475837708 -0.7074782848358154
0.967517614364624 -0.24859443306922913 -0.5795722007751465
0.9676648378372192 -0.24873188138008118 -0.4516661763191223
0.9678120613098145 -0.24886932969093323 -0.32376012206077576
0.9679592847824097 -0.24900677800178528 -0.195854052901268
0.9681065082550049 -0.24914422631263733 -0.06794800609350204
0.9682537317276001 -0.24928167462348938 0.05995804816484451
0.9684009552001953 -0.24941912293434143 0.18786409497261047
0.9685481786727905 -0.24955657124519348 0.31577014923095703
0.9686954021453857 -0.24969401955604553 0.4436762034893036
0.968842625617981 -0.24983146786689758 0.5715822577476501
0.968989908695221 -0.24996891617774963 0.6994882822036743
0.9691371321678162 -0.2501063644886017 0.8273943662643433
0.9692843556404114 -0.25024381279945374 0.9553003907203674
0.9977397918701172 -0.048018742352724075 -0.9631105661392212
0.9978870153427124 -0.048156190663576126 -0.835204541683197
0.9980342388153076 -0.04829363897442818 -0.7072984576225281
0.9981814622879028 -0.04843108728528023 -0.5793924331665039
0.9983287453651428 -0.04856853559613228 -0.45148634910583496
0.998475968837738 -0.04870598390698433 -0.3235802948474884
0.9986231923103333 -0.04884343221783638 -0.19567425549030304
0.9987704157829285 -0.04898088052868843 -0.06776820123195648
0.9989176392555237 -0.04911832883954048 0.06013784930109978
0.9990648627281189 -0.04925577715039253 0.18804390728473663
0.9992120862007141 -0.04939322918653488 0.315949946641922
0.9993593096733093 -0.04953067749738693 0.44385600090026855
0.9995065331459045 -0.04966812580823898 0.5717620849609375
0.9996537566184998 -0.049805574119091034 0.6996681094169617
0.999800980091095 -0.049943022429943085 0.8275741934776306
0.9999482035636902 -0.050080470740795135 0.9554802179336548
0.9874834418296814 0.15421979129314423 -0.9628814458847046
0.9876306653022766 0.15408234298229218 -0.8349753618240356
0.9877778887748718 0.15394489467144012 -0.7070693373680115
0.987925112247467 0.15380744636058807 -0.5791632533073425
0.9880723357200623 0.15366999804973602 -0.45125722885131836
0.9882195591926575 0.15353254973888397 -0.3233511745929718
0.9883667826652527 0.15339510142803192 -0.19544512033462524
0.9885140061378479 0.15325765311717987 -0.06753907352685928
0.9886612296104431 0.15312020480632782 0.060366980731487274
0.9888084530830383 0.15298275649547577 0.18827302753925323
0.9889556765556335 0.15284530818462372 0.316179096698761
0.9891029596328735 0.15270785987377167 0.44408515095710754
0.9892501831054688 0.15257041156291962 0.5719912052154541
0.989397406578064 0.15243296325206757 0.6998972296714783
0.9895446300506592 0.15229551494121552 0.8278033137321472
0.9896918535232544 0.15215806663036346 0.9557093381881714
0.9367266893386841 0.3502538502216339 -0.9626123309135437
0.9368739128112793 0.35011640191078186 -0.8347063064575195
0.9370211362838745 0.3499789535999298 -0.7068002223968506
0.9371683597564697 0.34984150528907776 -0.5788941979408264
0.9373155832290649 0.3497040569782257 -0.45098814368247986
0.9374628067016602 0.34956660866737366 -0.3230820894241333
0.9376100301742554 0.3494291603565216 -0.19517603516578674
0.9377572536468506 0.34929171204566956 -0.06726998835802078
0.9379044771194458 0.3491542637348175 0.06063606217503548
0.9380517601966858 0.34901681542396545 0.18854211270809174
0.938198983669281 0.3488793671131134 0.3164481818675995
0.9383462071418762 0.34874191880226135 0.44435423612594604
0.9384934306144714 0.3486044704914093 0.5722602605819702
0.9386406540870667 0.34846702218055725 0.7001663446426392
0.9387878775596619 0.3483295738697052 0.8280723690986633
0.9389351010322571 0.34819212555885315 0.9559784531593323
0.8475475311279297 0.5320577621459961 -0.9623143672943115
0.8476948142051697 0.531920313835144 -0.8344082832336426
0.8478420376777649 0.531782865524292 -0.7065022587776184
0.8479892611503601 0.5316454172134399 -0.5785961747169495
0.8481364846229553 0.5315079689025879 -0.4506901204586029
0.8482837080955505 0.5313705205917358 -0.32278406620025635
0.8484309315681458 0.5312330722808838 -0.19487802684307098
0.848578155040741 0.5310956239700317 -0.06697197258472443
0.8487253785133362 0.5309581756591797 0.06093408167362213
0.8488726019859314 0.5308207273483276 0.1888401359319687
0.8490198254585266 0.5306832790374756 0.31674617528915405
0.8491670489311218 0.5305458307266235 0.4446522295475006
0.849314272403717 0.5304083824157715 0.5725582838058472
0.8494614958763123 0.5302709341049194 0.7004643678665161
0.8496087193489075 0.5301334857940674 0.8283703923225403
0.8497560024261475 0.5299960374832153 0.9562764763832092
0.7235970497131348 0.6921884417533875 -0.9619995951652527
0.72374427318573 0.6920509934425354 -0.8340935111045837
0.7238914966583252 0.6919135451316833 -0.7061874866485596
0.7240387201309204 0.6917760968208313 -0.5782814025878906
0.7241859436035156 0.6916386485099792 -0.45037537813186646
0.7243332266807556 0.6915012001991272 -0.3224693238735199
0.7244804501533508 0.6913637518882751 -0.19456326961517334
0.724627673625946 0.6912263035774231 -0.06665721535682678
0.7247748970985413 0.691088855266571 0.06124883517622948
0.7249221205711365 0.690951406955719 0.18915489315986633
0.7250693440437317 0.6908139586448669 0.3170609474182129
0.7252165675163269 0.6906765103340149 0.44496700167655945
0.7253637909889221 0.6905390620231628 0.572873055934906
0.7255110144615173 0.6904016137123108 0.7007790803909302
0.7256582379341125 0.6902641654014587 0.8286851644515991
0.7258054614067078 0.6901267170906067 0.9565911889076233
0.569949746131897 0.8240901827812195 -0.9616810083389282
0.5700969696044922 0.8239527344703674 -0.8337749242782593
0.5702441930770874 0.8238152861595154 -0.7058688998222351
0.5703914165496826 0.8236778378486633 -0.5779628157615662
0.5705386400222778 0.8235403895378113 -0.450056791305542
0.570685863494873 0.8234029412269592 -0.32215073704719543
0.5708330869674683 0.8232654929161072 -0.19424466788768768
0.5709803104400635 0.8231280446052551 -0.06633862107992172
0.5711275339126587 0.8229905962944031 0.061567433178424835
0.5712747573852539 0.822853147983551 0.1894734799861908
0.5714219808578491 0.822715699672699 0.31737953424453735
0.5715692639350891 0.8225782513618469 0.4452855885028839
0.5717164874076843 0.8224408030509949 0.5731916427612305
0.5718637108802795 0.8223033547401428 0.7010976672172546
0.5720109343528748 0.8221659064292908 0.8290037512779236
0.57215815782547 0.8220284581184387 0.9569097757339478
0.39289590716362 0.9223628640174866 -0.9613716006278992
0.3930431306362152 0.9222254157066345 -0.8334655165672302
0.3931903541088104 0.9220879673957825 -0.705559492111206
0.393337607383728 0.9219505190849304 -0.5776534080505371
0.39348483085632324 0.9218130707740784 -0.44974738359451294
0.39363205432891846 0.9216756224632263 -0.3218413293361664
0.39377927780151367 0.9215381741523743 -0.19393527507781982
0.3939265012741089 0.9214007258415222 -0.06602921336889267
0.3940737247467041 0.9212632775306702 0.06187683716416359
0.3942209780216217 0.9211258292198181 0.18978288769721985
0.3943682014942169 0.9209883809089661 0.3176889419555664
0.39451542496681213 0.920850932598114 0.44559499621391296
0.39466264843940735 0.920713484287262 0.5735010504722595
0.39480987191200256 0.9205760359764099 0.7014070749282837
0.3949570953845978 0.9204385876655579 0.8293131589889526
0.395104318857193 0.9203011393547058 0.9572191834449768
0.19968421757221222 0.9829831719398499 -0.9610840678215027
0.19983144104480743 0.9828457236289978 -0.8331779837608337
0.19997866451740265 0.9827082753181458 -0.7052719593048096
0.20012588798999786 0.9825708270072937 -0.5773658752441406
0.20027312636375427 0.9824333786964417 -0.44945982098579407
0.2004203498363495 0.9822959303855896 -0.3215537667274475
0.2005675733089447 0.9821584820747375 -0.19364772737026215
0.2007148116827011 0.9820210337638855 -0.06574167311191559
0.20086203515529633 0.9818835854530334 0.06216437742114067
0.20100925862789154 0.9817461371421814 0.19007043540477753
0.20115649700164795 0.9816086888313293 0.3179764747619629
0.20130372047424316 0.9814712405204773 0.44588252902030945
0.20145094394683838 0.9813337922096252 0.573788583278656
0.2015981674194336 0.9811963438987732 0.701694667339325
0.20174540579319 0.9810588955879211 0.8296006917953491
0.20189262926578522 0.9809214472770691 0.9575067758560181
-0.0017752647399902344 1.0034693479537964 -0.9608301520347595
-0.001628036960028112 1.0033318996429443 -0.8329240679740906
-0.0014808090636506677 1.0031944513320923 -0.7050180435180664
-0.0013335812836885452 1.0030570030212402 -0.5771119594573975
-0.001186353387311101 1.0029195547103882 -0.4492059350013733
-0.0010391256073489785 1.0027821063995361 -0.32129988074302673
-0.0008918977691791952 1.002644658088684 -0.19339382648468018
-0.0007446699310094118 1.002507209777832 -0.06548776477575302
-0.0005974421510472894 1.00236976146698 0.06241828575730324
-0.000450214312877506 1.002232313156128 0.1903243362903595
-0.00030298647470772266 1.0020948648452759 0.31823039054870605
-0.00015575865108985454 1.0019574165344238 0.4461364448070526
-8.5308211055235e-06 1.0018199682235718 0.5740424990653992
0.00013869701069779694 1.0016825199127197 0.7019485235214233
0.00028592481976374984 1.0015450716018677 0.8298546075820923
0.0004331526579335332 1.0014076232910156 0.9577606320381165
