ply
format ascii 1.0
element vertex 3356
property float x
property float y
property float z
end_header
0.25 37.25 0.0
0.25 37.75 0.0
0.25 38.25 0.0
0.25 38.75 0.0
0.25 39.25 0.0
0.25 39.75 0.0
0.25 40.25 0.0
0.25 40.75 0.0
0.25 41.25 0.0
0.25 41.75 0.0
0.25 42.25 0.0
0.25 42.75 0.0
0.75 16.75 0.0
0.75 17.25 0.0
0.75 17.75 0.0
0.75 18.25 0.0
0.75 18.75 0.0
0.75 36.75 0.0
0.75 37.25 0.0
0.75 37.75 0.0
0.75 38.25 0.0
0.75 38.75 0.0
0.75 39.25 0.0
0.75 39.75 0.0
0.75 40.25 0.0
0.75 40.75 0.0
0.75 41.25 0.0
0.75 41.75 0.0
0.75 42.25 0.0
0.75 42.75 0.0
1.25 10.75 0.0
1.25 11.25 0.0
1.25 11.75 0.0
1.25 12.25 0.0
1.25 12.75 0.0
1.25 13.25 0.0
1.25 13.75 0.0
1.25 14.25 0.0
1.25 14.75 0.0
1.25 15.25 0.0
1.25 15.75 0.0
1.25 16.25 0.0
1.25 16.75 0.0
1.25 17.25 0.0
1.25 17.75 0.0
1.25 18.25 0.0
1.25 18.75 0.0
1.25 36.25 0.0
1.25 36.75 0.0
1.25 37.25 0.0
1.25 37.75 0.0
1.25 38.25 0.0
1.25 38.75 0.0
1.25 39.25 0.0
1.25 39.75 0.0
1.25 40.25 0.0
1.25 40.75 0.0
1.25 41.25 0.0
1.25 41.75 0.0
1.25 42.25 0.0
1.75 9.75 0.0
1.75 10.25 0.0
1.75 10.75 0.0
1.75 11.25 0.0
1.75 11.75 0.0
1.75 12.25 0.0
1.75 12.75 0.0
1.75 13.25 0.0
1.75 13.75 0.0
1.75 14.25 0.0
1.75 14.75 0.0
1.75 15.25 0.0
1.75 15.75 0.0
1.75 16.25 0.0
1.75 16.75 0.0
1.75 17.25 0.0
1.75 17.75 0.0
1.75 18.25 0.0
1.75 18.75 0.0
1.75 35.75 0.0
1.75 36.25 0.0
1.75 36.75 0.0
1.75 37.25 0.0
1.75 37.75 0.0
1.75 38.25 0.0
1.75 38.75 0.0
1.75 39.25 0.0
1.75 39.75 0.0
1.75 40.25 0.0
1.75 40.75 0.0
1.75 41.25 0.0
1.75 41.75 0.0
2.25 9.25 0.0
2.25 9.75 0.0
2.25 10.25 0.0
2.25 10.75 0.0
2.25 11.25 0.0
2.25 11.75 0.0
2.25 12.25 0.0
2.25 12.75 0.0
2.25 13.25 0.0
2.25 13.75 0.0
2.25 14.25 0.0
2.25 14.75 0.0
2.25 15.25 0.0
2.25 15.75 0.0
2.25 16.25 0.0
2.25 16.75 0.0
2.25 17.25 0.0
2.25 17.75 0.0
2.25 18.25 0.0
2.25 35.75 0.0
2.25 36.25 0.0
2.25 36.75 0.0
2.25 37.25 0.0
2.25 37.75 0.0
2.25 38.25 0.0
2.25 38.75 0.0
2.25 39.25 0.0
2.25 39.75 0.0
2.25 40.25 0.0
2.25 40.75 0.0
2.75 9.25 0.0
2.75 9.75 0.0
2.75 10.25 0.0
2.75 10.75 0.0
2.75 11.25 0.0
2.75 11.75 0.0
2.75 12.25 0.0
2.75 12.75 0.0
2.75 13.25 0.0
2.75 13.75 0.0
2.75 14.25 0.0
2.75 14.75 0.0
2.75 15.25 0.0
2.75 15.75 0.0
2.75 16.25 0.0
2.75 16.75 0.0
2.75 17.25 0.0
2.75 17.75 0.0
2.75 18.25 0.0
2.75 35.25 0.0
2.75 35.75 0.0
2.75 36.25 0.0
2.75 36.75 0.0
2.75 37.25 0.0
2.75 37.75 0.0
2.75 38.25 0.0
2.75 38.75 0.0
2.75 39.25 0.0
2.75 39.75 0.0
2.75 40.25 0.0
3.25 9.25 0.0
3.25 9.75 0.0
3.25 10.25 0.0
3.25 10.75 0.0
3.25 11.25 0.0
3.25 11.75 0.0
3.25 12.25 0.0
3.25 12.75 0.0
3.25 13.25 0.0
3.25 13.75 0.0
3.25 14.25 0.0
3.25 14.75 0.0
3.25 15.25 0.0
3.25 15.75 0.0
3.25 16.25 0.0
3.25 16.75 0.0
3.25 17.25 0.0
3.25 34.75 0.0
3.25 35.25 0.0
3.25 35.75 0.0
3.25 36.25 0.0
3.25 36.75 0.0
3.25 37.25 0.0
3.25 37.75 0.0
3.25 38.25 0.0
3.25 38.75 0.0
3.25 39.25 0.0
3.25 39.75 0.0
3.75 9.25 0.0
3.75 9.75 0.0
3.75 10.25 0.0
3.75 10.75 0.0
3.75 11.25 0.0
3.75 11.75 0.0
3.75 12.25 0.0
3.75 12.75 0.0
3.75 13.25 0.0
3.75 13.75 0.0
3.75 14.25 0.0
3.75 14.75 0.0
3.75 15.25 0.0
3.75 15.75 0.0
3.75 16.25 0.0
3.75 16.75 0.0
3.75 34.25 0.0
3.75 34.75 0.0
3.75 35.25 0.0
3.75 35.75 0.0
3.75 36.25 0.0
3.75 36.75 0.0
3.75 37.25 0.0
3.75 37.75 0.0
3.75 38.25 0.0
3.75 38.75 0.0
3.75 39.25 0.0
3.75 39.75 0.0
4.25 9.25 0.0
4.25 9.75 0.0
4.25 10.25 0.0
4.25 10.75 0.0
4.25 11.25 0.0
4.25 11.75 0.0
4.25 12.25 0.0
4.25 12.75 0.0
4.25 13.25 0.0
4.25 13.75 0.0
4.25 14.25 0.0
4.25 14.75 0.0
4.25 15.25 0.0
4.25 15.75 0.0
4.25 16.25 0.0
4.25 34.25 0.0
4.25 34.75 0.0
4.25 35.25 0.0
4.25 35.75 0.0
4.25 36.25 0.0
4.25 36.75 0.0
4.25 37.25 0.0
4.25 37.75 0.0
4.25 38.25 0.0
4.25 38.75 0.0
4.25 39.25 0.0
4.25 39.75 0.0
4.75 9.25 0.0
4.75 9.75 0.0
4.75 10.25 0.0
4.75 10.75 0.0
4.75 11.25 0.0
4.75 11.75 0.0
4.75 12.25 0.0
4.75 12.75 0.0
4.75 13.25 0.0
4.75 13.75 0.0
4.75 14.25 0.0
4.75 14.75 0.0
4.75 15.25 0.0
4.75 15.75 0.0
4.75 16.25 0.0
4.75 33.75 0.0
4.75 34.25 0.0
4.75 34.75 0.0
4.75 35.25 0.0
4.75 35.75 0.0
4.75 36.25 0.0
4.75 36.75 0.0
4.75 37.25 0.0
4.75 37.75 0.0
4.75 38.25 0.0
4.75 38.75 0.0
4.75 39.25 0.0
5.25 9.25 0.0
5.25 9.75 0.0
5.25 10.25 0.0
5.25 10.75 0.0
5.25 11.25 0.0
5.25 11.75 0.0
5.25 12.25 0.0
5.25 12.75 0.0
5.25 13.25 0.0
5.25 13.75 0.0
5.25 14.25 0.0
5.25 14.75 0.0
5.25 15.25 0.0
5.25 33.75 0.0
5.25 34.25 0.0
5.25 34.75 0.0
5.25 35.25 0.0
5.25 35.75 0.0
5.25 36.25 0.0
5.25 36.75 0.0
5.25 37.25 0.0
5.25 37.75 0.0
5.25 38.25 0.0
5.25 38.75 0.0
5.25 39.25 0.0
5.75 8.75 0.0
5.75 9.25 0.0
5.75 9.75 0.0
5.75 10.25 0.0
5.75 10.75 0.0
5.75 11.25 0.0
5.75 11.75 0.0
5.75 12.25 0.0
5.75 12.75 0.0
5.75 13.25 0.0
5.75 13.75 0.0
5.75 14.25 0.0
5.75 14.75 0.0
5.75 33.75 0.0
5.75 34.25 0.0
5.75 34.75 0.0
5.75 35.25 0.0
5.75 35.75 0.0
5.75 36.25 0.0
5.75 36.75 0.0
5.75 37.25 0.0
5.75 37.75 0.0
5.75 38.25 0.0
5.75 38.75 0.0
6.25 8.75 0.0
6.25 9.25 0.0
6.25 9.75 0.0
6.25 10.25 0.0
6.25 10.75 0.0
6.25 11.25 0.0
6.25 11.75 0.0
6.25 12.25 0.0
6.25 12.75 0.0
6.25 13.25 0.0
6.25 13.75 0.0
6.25 14.25 0.0
6.25 14.75 0.0
6.25 33.25 0.0
6.25 33.75 0.0
6.25 34.25 0.0
6.25 34.75 0.0
6.25 35.25 0.0
6.25 35.75 0.0
6.25 36.25 0.0
6.25 36.75 0.0
6.25 37.25 0.0
6.25 37.75 0.0
6.25 38.25 0.0
6.75 9.25 0.0
6.75 9.75 0.0
6.75 10.25 0.0
6.75 10.75 0.0
6.75 11.25 0.0
6.75 11.75 0.0
6.75 12.25 0.0
6.75 12.75 0.0
6.75 13.25 0.0
6.75 13.75 0.0
6.75 14.25 0.0
6.75 33.25 0.0
6.75 33.75 0.0
6.75 34.25 0.0
6.75 34.75 0.0
6.75 35.25 0.0
6.75 35.75 0.0
6.75 36.25 0.0
6.75 36.75 0.0
6.75 37.25 0.0
6.75 37.75 0.0
7.25 8.75 0.0
7.25 9.25 0.0
7.25 9.75 0.0
7.25 10.25 0.0
7.25 10.75 0.0
7.25 11.25 0.0
7.25 11.75 0.0
7.25 12.25 0.0
7.25 12.75 0.0
7.25 13.25 0.0
7.25 13.75 0.0
7.25 32.75 0.0
7.25 33.25 0.0
7.25 33.75 0.0
7.25 34.25 0.0
7.25 34.75 0.0
7.25 35.25 0.0
7.25 35.75 0.0
7.25 36.25 0.0
7.25 36.75 0.0
7.25 37.25 0.0
7.25 37.75 0.0
7.75 8.75 0.0
7.75 9.25 0.0
7.75 9.75 0.0
7.75 10.25 0.0
7.75 10.75 0.0
7.75 11.25 0.0
7.75 11.75 0.0
7.75 12.25 0.0
7.75 12.75 0.0
7.75 13.25 0.0
7.75 32.25 0.0
7.75 32.75 0.0
7.75 33.25 0.0
7.75 33.75 0.0
7.75 34.25 0.0
7.75 34.75 0.0
7.75 35.25 0.0
7.75 35.75 0.0
7.75 36.25 0.0
7.75 36.75 0.0
7.75 37.25 0.0
8.25 8.25 0.0
8.25 8.75 0.0
8.25 9.25 0.0
8.25 9.75 0.0
8.25 10.25 0.0
8.25 10.75 0.0
8.25 11.25 0.0
8.25 11.75 0.0
8.25 12.25 0.0
8.25 12.75 0.0
8.25 13.25 0.0
8.25 32.25 0.0
8.25 32.75 0.0
8.25 33.25 0.0
8.25 33.75 0.0
8.25 34.25 0.0
8.25 34.75 0.0
8.25 35.25 0.0
8.25 35.75 0.0
8.25 36.25 0.0
8.25 36.75 0.0
8.75 8.25 0.0
8.75 8.75 0.0
8.75 9.25 0.0
8.75 9.75 0.0
8.75 10.25 0.0
8.75 10.75 0.0
8.75 11.25 0.0
8.75 11.75 0.0
8.75 12.25 0.0
8.75 12.75 0.0
8.75 13.25 0.0
8.75 31.75 0.0
8.75 32.25 0.0
8.75 32.75 0.0
8.75 33.25 0.0
8.75 33.75 0.0
8.75 34.25 0.0
8.75 34.75 0.0
8.75 35.25 0.0
8.75 35.75 0.0
8.75 36.25 0.0
9.25 7.75 0.0
9.25 8.25 0.0
9.25 8.75 0.0
9.25 9.25 0.0
9.25 9.75 0.0
9.25 10.25 0.0
9.25 10.75 0.0
9.25 11.25 0.0
9.25 11.75 0.0
9.25 12.25 0.0
9.25 12.75 0.0
9.25 13.25 0.0
9.25 31.75 0.0
9.25 32.25 0.0
9.25 32.75 0.0
9.25 33.25 0.0
9.25 33.75 0.0
9.25 34.25 0.0
9.25 34.75 0.0
9.25 35.25 0.0
9.25 35.75 0.0
9.25 36.25 0.0
9.75 7.75 0.0
9.75 8.25 0.0
9.75 8.75 0.0
9.75 9.25 0.0
9.75 9.75 0.0
9.75 10.25 0.0
9.75 10.75 0.0
9.75 11.25 0.0
9.75 11.75 0.0
9.75 12.25 0.0
9.75 12.75 0.0
9.75 13.25 0.0
9.75 31.25 0.0
9.75 31.75 0.0
9.75 32.25 0.0
9.75 32.75 0.0
9.75 33.25 0.0
9.75 33.75 0.0
9.75 34.25 0.0
9.75 34.75 0.0
9.75 35.25 0.0
9.75 35.75 0.0
10.25 7.25 0.0
10.25 7.75 0.0
10.25 8.25 0.0
10.25 8.75 0.0
10.25 9.25 0.0
10.25 9.75 0.0
10.25 10.25 0.0
10.25 10.75 0.0
10.25 11.25 0.0
10.25 11.75 0.0
10.25 12.25 0.0
10.25 12.75 0.0
10.25 13.25 0.0
10.25 31.25 0.0
10.25 31.75 0.0
10.25 32.25 0.0
10.25 32.75 0.0
10.25 33.25 0.0
10.25 33.75 0.0
10.25 34.25 0.0
10.25 34.75 0.0
10.25 35.25 0.0
10.25 35.75 0.0
10.75 7.25 0.0
10.75 7.75 0.0
10.75 8.25 0.0
10.75 8.75 0.0
10.75 9.25 0.0
10.75 9.75 0.0
10.75 10.25 0.0
10.75 10.75 0.0
10.75 11.25 0.0
10.75 11.75 0.0
10.75 12.25 0.0
10.75 12.75 0.0
10.75 13.25 0.0
10.75 30.75 0.0
10.75 31.25 0.0
10.75 31.75 0.0
10.75 32.25 0.0
10.75 32.75 0.0
10.75 33.25 0.0
10.75 33.75 0.0
10.75 34.25 0.0
10.75 34.75 0.0
10.75 35.25 0.0
11.25 6.75 0.0
11.25 7.25 0.0
11.25 7.75 0.0
11.25 8.25 0.0
11.25 8.75 0.0
11.25 9.25 0.0
11.25 9.75 0.0
11.25 10.25 0.0
11.25 10.75 0.0
11.25 11.25 0.0
11.25 11.75 0.0
11.25 12.25 0.0
11.25 12.75 0.0
11.25 13.25 0.0
11.25 30.75 0.0
11.25 31.25 0.0
11.25 31.75 0.0
11.25 32.25 0.0
11.25 32.75 0.0
11.25 33.25 0.0
11.25 33.75 0.0
11.25 34.25 0.0
11.25 34.75 0.0
11.25 35.25 0.0
11.75 6.75 0.0
11.75 7.25 0.0
11.75 7.75 0.0
11.75 8.25 0.0
11.75 8.75 0.0
11.75 9.25 0.0
11.75 9.75 0.0
11.75 10.25 0.0
11.75 10.75 0.0
11.75 11.25 0.0
11.75 11.75 0.0
11.75 12.25 0.0
11.75 12.75 0.0
11.75 13.25 0.0
11.75 30.75 0.0
11.75 31.25 0.0
11.75 31.75 0.0
11.75 32.25 0.0
11.75 32.75 0.0
11.75 33.25 0.0
11.75 33.75 0.0
11.75 34.25 0.0
11.75 34.75 0.0
11.75 35.25 0.0
12.25 6.75 0.0
12.25 7.25 0.0
12.25 7.75 0.0
12.25 8.25 0.0
12.25 8.75 0.0
12.25 9.25 0.0
12.25 9.75 0.0
12.25 10.25 0.0
12.25 10.75 0.0
12.25 11.25 0.0
12.25 11.75 0.0
12.25 12.25 0.0
12.25 12.75 0.0
12.25 13.25 0.0
12.25 13.75 0.0
12.25 30.75 0.0
12.25 31.25 0.0
12.25 31.75 0.0
12.25 32.25 0.0
12.25 32.75 0.0
12.25 33.25 0.0
12.25 33.75 0.0
12.25 34.25 0.0
12.25 34.75 0.0
12.75 6.75 0.0
12.75 7.25 0.0
12.75 7.75 0.0
12.75 8.25 0.0
12.75 8.75 0.0
12.75 9.25 0.0
12.75 9.75 0.0
12.75 10.25 0.0
12.75 10.75 0.0
12.75 11.25 0.0
12.75 11.75 0.0
12.75 12.25 0.0
12.75 12.75 0.0
12.75 13.25 0.0
12.75 13.75 0.0
12.75 30.25 0.0
12.75 30.75 0.0
12.75 31.25 0.0
12.75 31.75 0.0
12.75 32.25 0.0
12.75 32.75 0.0
12.75 33.25 0.0
12.75 33.75 0.0
12.75 34.25 0.0
12.75 34.75 0.0
13.25 6.75 0.0
13.25 7.25 0.0
13.25 7.75 0.0
13.25 8.25 0.0
13.25 8.75 0.0
13.25 9.25 0.0
13.25 9.75 0.0
13.25 10.25 0.0
13.25 10.75 0.0
13.25 11.25 0.0
13.25 11.75 0.0
13.25 12.25 0.0
13.25 12.75 0.0
13.25 13.25 0.0
13.25 13.75 0.0
13.25 30.25 0.0
13.25 30.75 0.0
13.25 31.25 0.0
13.25 31.75 0.0
13.25 32.25 0.0
13.25 32.75 0.0
13.25 33.25 0.0
13.25 33.75 0.0
13.25 34.25 0.0
13.75 6.75 0.0
13.75 7.25 0.0
13.75 7.75 0.0
13.75 8.25 0.0
13.75 8.75 0.0
13.75 9.25 0.0
13.75 9.75 0.0
13.75 10.25 0.0
13.75 10.75 0.0
13.75 11.25 0.0
13.75 11.75 0.0
13.75 12.25 0.0
13.75 12.75 0.0
13.75 13.25 0.0
13.75 13.75 0.0
13.75 29.75 0.0
13.75 30.25 0.0
13.75 30.75 0.0
13.75 31.25 0.0
13.75 31.75 0.0
13.75 32.25 0.0
13.75 32.75 0.0
13.75 33.25 0.0
13.75 33.75 0.0
13.75 34.25 0.0
14.25 6.25 0.0
14.25 6.75 0.0
14.25 7.25 0.0
14.25 7.75 0.0
14.25 8.25 0.0
14.25 8.75 0.0
14.25 9.25 0.0
14.25 9.75 0.0
14.25 10.25 0.0
14.25 10.75 0.0
14.25 11.25 0.0
14.25 11.75 0.0
14.25 12.25 0.0
14.25 12.75 0.0
14.25 13.25 0.0
14.25 13.75 0.0
14.25 29.75 0.0
14.25 30.25 0.0
14.25 30.75 0.0
14.25 31.25 0.0
14.25 31.75 0.0
14.25 32.25 0.0
14.25 32.75 0.0
14.25 33.25 0.0
14.25 33.75 0.0
14.25 34.25 0.0
14.75 6.25 0.0
14.75 6.75 0.0
14.75 7.25 0.0
14.75 7.75 0.0
14.75 8.25 0.0
14.75 8.75 0.0
14.75 9.25 0.0
14.75 9.75 0.0
14.75 10.25 0.0
14.75 10.75 0.0
14.75 11.25 0.0
14.75 11.75 0.0
14.75 12.25 0.0
14.75 12.75 0.0
14.75 13.25 0.0
14.75 13.75 0.0
14.75 29.25 0.0
14.75 29.75 0.0
14.75 30.25 0.0
14.75 30.75 0.0
14.75 31.25 0.0
14.75 31.75 0.0
14.75 32.25 0.0
14.75 32.75 0.0
14.75 33.25 0.0
14.75 33.75 0.0
15.25 6.25 0.0
15.25 6.75 0.0
15.25 7.25 0.0
15.25 7.75 0.0
15.25 8.25 0.0
15.25 8.75 0.0
15.25 9.25 0.0
15.25 9.75 0.0
15.25 10.25 0.0
15.25 10.75 0.0
15.25 11.25 0.0
15.25 11.75 0.0
15.25 12.25 0.0
15.25 12.75 0.0
15.25 13.25 0.0
15.25 13.75 0.0
15.25 29.25 0.0
15.25 29.75 0.0
15.25 30.25 0.0
15.25 30.75 0.0
15.25 31.25 0.0
15.25 31.75 0.0
15.25 32.25 0.0
15.25 32.75 0.0
15.25 33.25 0.0
15.25 33.75 0.0
15.75 6.25 0.0
15.75 6.75 0.0
15.75 7.25 0.0
15.75 7.75 0.0
15.75 8.25 0.0
15.75 8.75 0.0
15.75 9.25 0.0
15.75 9.75 0.0
15.75 10.25 0.0
15.75 10.75 0.0
15.75 11.25 0.0
15.75 11.75 0.0
15.75 12.25 0.0
15.75 12.75 0.0
15.75 13.25 0.0
15.75 13.75 0.0
15.75 29.25 0.0
15.75 29.75 0.0
15.75 30.25 0.0
15.75 30.75 0.0
15.75 31.25 0.0
15.75 31.75 0.0
15.75 32.25 0.0
15.75 32.75 0.0
15.75 33.25 0.0
15.75 33.75 0.0
16.25 5.75 0.0
16.25 6.25 0.0
16.25 6.75 0.0
16.25 7.25 0.0
16.25 7.75 0.0
16.25 8.25 0.0
16.25 8.75 0.0
16.25 9.25 0.0
16.25 9.75 0.0
16.25 10.25 0.0
16.25 10.75 0.0
16.25 11.25 0.0
16.25 11.75 0.0
16.25 12.25 0.0
16.25 12.75 0.0
16.25 13.25 0.0
16.25 13.75 0.0
16.25 28.75 0.0
16.25 29.25 0.0
16.25 29.75 0.0
16.25 30.25 0.0
16.25 30.75 0.0
16.25 31.25 0.0
16.25 31.75 0.0
16.25 32.25 0.0
16.25 32.75 0.0
16.25 33.25 0.0
16.75 5.75 0.0
16.75 6.25 0.0
16.75 6.75 0.0
16.75 7.25 0.0
16.75 7.75 0.0
16.75 8.25 0.0
16.75 8.75 0.0
16.75 9.25 0.0
16.75 9.75 0.0
16.75 10.25 0.0
16.75 10.75 0.0
16.75 11.25 0.0
16.75 11.75 0.0
16.75 12.25 0.0
16.75 12.75 0.0
16.75 13.25 0.0
16.75 13.75 0.0
16.75 14.25 0.0
16.75 28.75 0.0
16.75 29.25 0.0
16.75 29.75 0.0
16.75 30.25 0.0
16.75 30.75 0.0
16.75 31.25 0.0
16.75 31.75 0.0
16.75 32.25 0.0
16.75 32.75 0.0
16.75 33.25 0.0
17.25 5.75 0.0
17.25 6.25 0.0
17.25 6.75 0.0
17.25 7.25 0.0
17.25 7.75 0.0
17.25 8.25 0.0
17.25 8.75 0.0
17.25 9.25 0.0
17.25 9.75 0.0
17.25 10.25 0.0
17.25 10.75 0.0
17.25 11.25 0.0
17.25 11.75 0.0
17.25 12.25 0.0
17.25 12.75 0.0
17.25 13.25 0.0
17.25 13.75 0.0
17.25 14.25 0.0
17.25 28.75 0.0
17.25 29.25 0.0
17.25 29.75 0.0
17.25 30.25 0.0
17.25 30.75 0.0
17.25 31.25 0.0
17.25 31.75 0.0
17.25 32.25 0.0
17.25 32.75 0.0
17.25 33.25 0.0
17.75 5.75 0.0
17.75 6.25 0.0
17.75 6.75 0.0
17.75 7.25 0.0
17.75 7.75 0.0
17.75 8.25 0.0
17.75 8.75 0.0
17.75 9.25 0.0
17.75 9.75 0.0
17.75 10.25 0.0
17.75 10.75 0.0
17.75 11.25 0.0
17.75 11.75 0.0
17.75 12.25 0.0
17.75 12.75 0.0
17.75 13.25 0.0
17.75 13.75 0.0
17.75 14.25 0.0
17.75 28.75 0.0
17.75 29.25 0.0
17.75 29.75 0.0
17.75 30.25 0.0
17.75 30.75 0.0
17.75 31.25 0.0
17.75 31.75 0.0
17.75 32.25 0.0
17.75 32.75 0.0
17.75 33.25 0.0
18.25 5.75 0.0
18.25 6.25 0.0
18.25 6.75 0.0
18.25 7.25 0.0
18.25 7.75 0.0
18.25 8.25 0.0
18.25 8.75 0.0
18.25 9.25 0.0
18.25 9.75 0.0
18.25 10.25 0.0
18.25 10.75 0.0
18.25 11.25 0.0
18.25 11.75 0.0
18.25 12.25 0.0
18.25 12.75 0.0
18.25 13.25 0.0
18.25 13.75 0.0
18.25 14.25 0.0
18.25 14.75 0.0
18.25 15.25 0.0
18.25 28.75 0.0
18.25 29.25 0.0
18.25 29.75 0.0
18.25 30.25 0.0
18.25 30.75 0.0
18.25 31.25 0.0
18.25 31.75 0.0
18.25 32.25 0.0
18.25 32.75 0.0
18.75 5.75 0.0
18.75 6.25 0.0
18.75 6.75 0.0
18.75 7.25 0.0
18.75 7.75 0.0
18.75 8.25 0.0
18.75 8.75 0.0
18.75 9.25 0.0
18.75 9.75 0.0
18.75 10.25 0.0
18.75 10.75 0.0
18.75 11.25 0.0
18.75 11.75 0.0
18.75 12.25 0.0
18.75 12.75 0.0
18.75 13.25 0.0
18.75 13.75 0.0
18.75 14.25 0.0
18.75 14.75 0.0
18.75 15.25 0.0
18.75 28.75 0.0
18.75 29.25 0.0
18.75 29.75 0.0
18.75 30.25 0.0
18.75 30.75 0.0
18.75 31.25 0.0
18.75 31.75 0.0
18.75 32.25 0.0
18.75 32.75 0.0
19.25 5.75 0.0
19.25 6.25 0.0
19.25 6.75 0.0
19.25 7.25 0.0
19.25 7.75 0.0
19.25 8.25 0.0
19.25 8.75 0.0
19.25 9.25 0.0
19.25 9.75 0.0
19.25 10.25 0.0
19.25 10.75 0.0
19.25 11.25 0.0
19.25 11.75 0.0
19.25 12.25 0.0
19.25 12.75 0.0
19.25 13.25 0.0
19.25 13.75 0.0
19.25 14.25 0.0
19.25 14.75 0.0
19.25 15.25 0.0
19.25 15.75 0.0
19.25 28.25 0.0
19.25 28.75 0.0
19.25 29.25 0.0
19.25 29.75 0.0
19.25 30.25 0.0
19.25 30.75 0.0
19.25 31.25 0.0
19.25 31.75 0.0
19.25 32.25 0.0
19.25 32.75 0.0
19.75 5.75 0.0
19.75 6.25 0.0
19.75 6.75 0.0
19.75 7.25 0.0
19.75 7.75 0.0
19.75 8.25 0.0
19.75 8.75 0.0
19.75 9.25 0.0
19.75 9.75 0.0
19.75 11.25 0.0
19.75 11.75 0.0
19.75 12.25 0.0
19.75 12.75 0.0
19.75 13.25 0.0
19.75 13.75 0.0
19.75 14.25 0.0
19.75 14.75 0.0
19.75 15.25 0.0
19.75 15.75 0.0
19.75 28.25 0.0
19.75 28.75 0.0
19.75 29.25 0.0
19.75 29.75 0.0
19.75 30.25 0.0
19.75 30.75 0.0
19.75 31.25 0.0
19.75 31.75 0.0
19.75 32.25 0.0
20.25 5.75 0.0
20.25 6.25 0.0
20.25 6.75 0.0
20.25 7.25 0.0
20.25 7.75 0.0
20.25 8.25 0.0
20.25 8.75 0.0
20.25 9.25 0.0
20.25 9.75 0.0
20.25 11.25 0.0
20.25 11.75 0.0
20.25 12.25 0.0
20.25 12.75 0.0
20.25 13.25 0.0
20.25 13.75 0.0
20.25 14.25 0.0
20.25 14.75 0.0
20.25 15.25 0.0
20.25 15.75 0.0
20.25 16.25 0.0
20.25 27.75 0.0
20.25 28.25 0.0
20.25 28.75 0.0
20.25 29.25 0.0
20.25 29.75 0.0
20.25 30.25 0.0
20.25 30.75 0.0
20.25 31.25 0.0
20.25 31.75 0.0
20.25 32.25 0.0
20.75 5.75 0.0
20.75 6.25 0.0
20.75 6.75 0.0
20.75 7.25 0.0
20.75 7.75 0.0
20.75 8.25 0.0
20.75 8.75 0.0
20.75 9.25 0.0
20.75 9.75 0.0
20.75 11.25 0.0
20.75 11.75 0.0
20.75 12.25 0.0
20.75 12.75 0.0
20.75 13.25 0.0
20.75 13.75 0.0
20.75 14.25 0.0
20.75 14.75 0.0
20.75 15.25 0.0
20.75 15.75 0.0
20.75 16.25 0.0
20.75 16.75 0.0
20.75 17.25 0.0
20.75 27.75 0.0
20.75 28.25 0.0
20.75 28.75 0.0
20.75 29.25 0.0
20.75 29.75 0.0
20.75 30.25 0.0
20.75 30.75 0.0
20.75 31.25 0.0
20.75 31.75 0.0
21.25 5.75 0.0
21.25 6.25 0.0
21.25 6.75 0.0
21.25 7.25 0.0
21.25 7.75 0.0
21.25 8.25 0.0
21.25 8.75 0.0
21.25 9.25 0.0
21.25 9.75 0.0
21.25 11.75 0.0
21.25 12.25 0.0
21.25 12.75 0.0
21.25 13.25 0.0
21.25 13.75 0.0
21.25 14.25 0.0
21.25 14.75 0.0
21.25 15.25 0.0
21.25 15.75 0.0
21.25 16.25 0.0
21.25 16.75 0.0
21.25 17.25 0.0
21.25 17.75 0.0
21.25 27.75 0.0
21.25 28.25 0.0
21.25 28.75 0.0
21.25 29.25 0.0
21.25 29.75 0.0
21.25 30.25 0.0
21.25 30.75 0.0
21.25 31.25 0.0
21.25 31.75 0.0
21.75 5.75 0.0
21.75 6.25 0.0
21.75 6.75 0.0
21.75 7.25 0.0
21.75 7.75 0.0
21.75 8.25 0.0
21.75 8.75 0.0
21.75 9.25 0.0
21.75 9.75 0.0
21.75 12.25 0.0
21.75 12.75 0.0
21.75 13.25 0.0
21.75 13.75 0.0
21.75 14.25 0.0
21.75 14.75 0.0
21.75 15.25 0.0
21.75 15.75 0.0
21.75 16.25 0.0
21.75 16.75 0.0
21.75 17.25 0.0
21.75 17.75 0.0
21.75 18.25 0.0
21.75 27.25 0.0
21.75 27.75 0.0
21.75 28.25 0.0
21.75 28.75 0.0
21.75 29.25 0.0
21.75 29.75 0.0
21.75 30.25 0.0
21.75 30.75 0.0
21.75 31.25 0.0
21.75 31.75 0.0
22.25 5.25 0.0
22.25 5.75 0.0
22.25 6.25 0.0
22.25 6.75 0.0
22.25 7.25 0.0
22.25 7.75 0.0
22.25 8.25 0.0
22.25 8.75 0.0
22.25 9.25 0.0
22.25 12.25 0.0
22.25 12.75 0.0
22.25 13.25 0.0
22.25 13.75 0.0
22.25 14.25 0.0
22.25 14.75 0.0
22.25 15.25 0.0
22.25 15.75 0.0
22.25 16.25 0.0
22.25 16.75 0.0
22.25 17.25 0.0
22.25 17.75 0.0
22.25 18.25 0.0
22.25 18.75 0.0
22.25 27.25 0.0
22.25 27.75 0.0
22.25 28.25 0.0
22.25 28.75 0.0
22.25 29.25 0.0
22.25 29.75 0.0
22.25 30.25 0.0
22.25 30.75 0.0
22.25 31.25 0.0
22.75 5.25 0.0
22.75 5.75 0.0
22.75 6.25 0.0
22.75 6.75 0.0
22.75 7.25 0.0
22.75 7.75 0.0
22.75 8.25 0.0
22.75 8.75 0.0
22.75 9.25 0.0
22.75 12.75 0.0
22.75 13.25 0.0
22.75 13.75 0.0
22.75 14.25 0.0
22.75 14.75 0.0
22.75 15.25 0.0
22.75 15.75 0.0
22.75 16.25 0.0
22.75 16.75 0.0
22.75 17.25 0.0
22.75 17.75 0.0
22.75 18.25 0.0
22.75 18.75 0.0
22.75 19.25 0.0
22.75 19.75 0.0
22.75 27.25 0.0
22.75 27.75 0.0
22.75 28.25 0.0
22.75 28.75 0.0
22.75 29.25 0.0
22.75 29.75 0.0
22.75 30.25 0.0
22.75 30.75 0.0
22.75 31.25 0.0
23.25 5.25 0.0
23.25 5.75 0.0
23.25 6.25 0.0
23.25 6.75 0.0
23.25 7.25 0.0
23.25 7.75 0.0
23.25 8.25 0.0
23.25 8.75 0.0
23.25 9.25 0.0
23.25 13.25 0.0
23.25 13.75 0.0
23.25 14.25 0.0
23.25 14.75 0.0
23.25 15.25 0.0
23.25 15.75 0.0
23.25 16.25 0.0
23.25 16.75 0.0
23.25 17.25 0.0
23.25 17.75 0.0
23.25 18.25 0.0
23.25 18.75 0.0
23.25 19.25 0.0
23.25 19.75 0.0
23.25 20.25 0.0
23.25 26.75 0.0
23.25 27.25 0.0
23.25 27.75 0.0
23.25 28.25 0.0
23.25 28.75 0.0
23.25 29.25 0.0
23.25 29.75 0.0
23.25 30.25 0.0
23.25 30.75 0.0
23.25 31.25 0.0
23.25 31.75 0.0
23.75 5.25 0.0
23.75 5.75 0.0
23.75 6.25 0.0
23.75 6.75 0.0
23.75 7.25 0.0
23.75 7.75 0.0
23.75 8.25 0.0
23.75 8.75 0.0
23.75 9.25 0.0
23.75 13.25 0.0
23.75 13.75 0.0
23.75 14.25 0.0
23.75 14.75 0.0
23.75 15.25 0.0
23.75 15.75 0.0
23.75 16.25 0.0
23.75 16.75 0.0
23.75 17.25 0.0
23.75 17.75 0.0
23.75 18.25 0.0
23.75 18.75 0.0
23.75 19.25 0.0
23.75 19.75 0.0
23.75 20.25 0.0
23.75 20.75 0.0
23.75 21.25 0.0
23.75 21.75 0.0
23.75 27.25 0.0
23.75 27.75 0.0
23.75 28.25 0.0
23.75 28.75 0.0
23.75 29.25 0.0
23.75 29.75 0.0
23.75 30.25 0.0
23.75 30.75 0.0
23.75 31.25 0.0
24.25 5.75 0.0
24.25 6.25 0.0
24.25 6.75 0.0
24.25 7.25 0.0
24.25 7.75 0.0
24.25 8.25 0.0
24.25 8.75 0.0
24.25 9.25 0.0
24.25 9.75 0.0
24.25 14.25 0.0
24.25 14.75 0.0
24.25 15.25 0.0
24.25 15.75 0.0
24.25 16.25 0.0
24.25 16.75 0.0
24.25 17.25 0.0
24.25 17.75 0.0
24.25 18.25 0.0
24.25 18.75 0.0
24.25 19.25 0.0
24.25 19.75 0.0
24.25 20.25 0.0
24.25 20.75 0.0
24.25 21.25 0.0
24.25 21.75 0.0
24.25 22.25 0.0
24.25 22.75 0.0
24.25 23.25 0.0
24.25 23.75 0.0
24.25 27.25 0.0
24.25 27.75 0.0
24.25 28.25 0.0
24.25 28.75 0.0
24.25 29.25 0.0
24.25 29.75 0.0
24.25 30.25 0.0
24.25 30.75 0.0
24.25 31.25 0.0
24.75 5.75 0.0
24.75 6.25 0.0
24.75 6.75 0.0
24.75 7.25 0.0
24.75 7.75 0.0
24.75 8.25 0.0
24.75 8.75 0.0
24.75 9.25 0.0
24.75 9.75 0.0
24.75 14.75 0.0
24.75 15.25 0.0
24.75 15.75 0.0
24.75 16.25 0.0
24.75 16.75 0.0
24.75 17.25 0.0
24.75 17.75 0.0
24.75 18.25 0.0
24.75 18.75 0.0
24.75 19.25 0.0
24.75 19.75 0.0
24.75 20.25 0.0
24.75 20.75 0.0
24.75 21.25 0.0
24.75 21.75 0.0
24.75 22.25 0.0
24.75 22.75 0.0
24.75 23.25 0.0
24.75 23.75 0.0
24.75 24.25 0.0
24.75 24.75 0.0
24.75 26.75 0.0
24.75 27.25 0.0
24.75 27.75 0.0
24.75 28.25 0.0
24.75 28.75 0.0
24.75 29.25 0.0
24.75 29.75 0.0
24.75 30.25 0.0
24.75 30.75 0.0
24.75 31.25 0.0
25.25 5.75 0.0
25.25 6.25 0.0
25.25 6.75 0.0
25.25 7.25 0.0
25.25 7.75 0.0
25.25 8.25 0.0
25.25 8.75 0.0
25.25 9.25 0.0
25.25 9.75 0.0
25.25 15.25 0.0
25.25 15.75 0.0
25.25 16.25 0.0
25.25 16.75 0.0
25.25 17.25 0.0
25.25 17.75 0.0
25.25 18.25 0.0
25.25 18.75 0.0
25.25 19.25 0.0
25.25 19.75 0.0
25.25 20.25 0.0
25.25 20.75 0.0
25.25 21.25 0.0
25.25 21.75 0.0
25.25 22.25 0.0
25.25 22.75 0.0
25.25 23.25 0.0
25.25 23.75 0.0
25.25 24.25 0.0
25.25 24.75 0.0
25.25 25.25 0.0
25.25 25.75 0.0
25.25 26.75 0.0
25.25 27.25 0.0
25.25 27.75 0.0
25.25 28.25 0.0
25.25 28.75 0.0
25.25 29.25 0.0
25.25 29.75 0.0
25.25 30.25 0.0
25.25 30.75 0.0
25.75 5.75 0.0
25.75 6.25 0.0
25.75 6.75 0.0
25.75 7.25 0.0
25.75 7.75 0.0
25.75 8.25 0.0
25.75 8.75 0.0
25.75 9.25 0.0
25.75 16.25 0.0
25.75 16.75 0.0
25.75 17.25 0.0
25.75 17.75 0.0
25.75 18.25 0.0
25.75 18.75 0.0
25.75 19.25 0.0
25.75 19.75 0.0
25.75 20.25 0.0
25.75 20.75 0.0
25.75 21.25 0.0
25.75 21.75 0.0
25.75 22.25 0.0
25.75 22.75 0.0
25.75 23.25 0.0
25.75 23.75 0.0
25.75 24.25 0.0
25.75 24.75 0.0
25.75 25.25 0.0
25.75 25.75 0.0
25.75 26.25 0.0
25.75 26.75 0.0
25.75 27.25 0.0
25.75 27.75 0.0
25.75 28.25 0.0
25.75 28.75 0.0
25.75 29.25 0.0
25.75 29.75 0.0
25.75 30.25 0.0
25.75 30.75 0.0
26.25 5.25 0.0
26.25 5.75 0.0
26.25 6.25 0.0
26.25 6.75 0.0
26.25 7.25 0.0
26.25 7.75 0.0
26.25 8.25 0.0
26.25 8.75 0.0
26.25 9.25 0.0
26.25 16.75 0.0
26.25 17.25 0.0
26.25 17.75 0.0
26.25 18.25 0.0
26.25 18.75 0.0
26.25 19.25 0.0
26.25 19.75 0.0
26.25 20.25 0.0
26.25 20.75 0.0
26.25 21.25 0.0
26.25 21.75 0.0
26.25 22.25 0.0
26.25 22.75 0.0
26.25 23.25 0.0
26.25 23.75 0.0
26.25 24.25 0.0
26.25 24.75 0.0
26.25 25.25 0.0
26.25 25.75 0.0
26.25 26.25 0.0
26.25 26.75 0.0
26.25 27.25 0.0
26.25 27.75 0.0
26.25 28.25 0.0
26.25 28.75 0.0
26.25 29.25 0.0
26.25 29.75 0.0
26.25 30.25 0.0
26.25 30.75 0.0
26.75 5.25 0.0
26.75 5.75 0.0
26.75 6.25 0.0
26.75 6.75 0.0
26.75 7.25 0.0
26.75 7.75 0.0
26.75 8.25 0.0
26.75 8.75 0.0
26.75 9.25 0.0
26.75 17.25 0.0
26.75 18.25 0.0
26.75 18.75 0.0
26.75 19.25 0.0
26.75 19.75 0.0
26.75 20.25 0.0
26.75 20.75 0.0
26.75 21.25 0.0
26.75 21.75 0.0
26.75 22.25 0.0
26.75 22.75 0.0
26.75 23.25 0.0
26.75 23.75 0.0
26.75 24.25 0.0
26.75 24.75 0.0
26.75 25.25 0.0
26.75 25.75 0.0
26.75 26.25 0.0
26.75 26.75 0.0
26.75 27.25 0.0
26.75 27.75 0.0
26.75 28.25 0.0
26.75 28.75 0.0
26.75 29.25 0.0
26.75 29.75 0.0
26.75 30.25 0.0
26.75 30.75 0.0
27.25 5.25 0.0
27.25 5.75 0.0
27.25 6.25 0.0
27.25 6.75 0.0
27.25 7.25 0.0
27.25 7.75 0.0
27.25 8.25 0.0
27.25 8.75 0.0
27.25 9.25 0.0
27.25 18.75 0.0
27.25 19.25 0.0
27.25 19.75 0.0
27.25 20.25 0.0
27.25 20.75 0.0
27.25 21.25 0.0
27.25 21.75 0.0
27.25 22.25 0.0
27.25 22.75 0.0
27.25 23.25 0.0
27.25 23.75 0.0
27.25 24.25 0.0
27.25 24.75 0.0
27.25 25.25 0.0
27.25 25.75 0.0
27.25 26.25 0.0
27.25 26.75 0.0
27.25 27.25 0.0
27.25 27.75 0.0
27.25 28.25 0.0
27.25 28.75 0.0
27.25 29.25 0.0
27.25 29.75 0.0
27.25 30.25 0.0
27.25 30.75 0.0
27.75 5.25 0.0
27.75 5.75 0.0
27.75 6.25 0.0
27.75 6.75 0.0
27.75 7.25 0.0
27.75 7.75 0.0
27.75 8.25 0.0
27.75 8.75 0.0
27.75 9.25 0.0
27.75 19.25 0.0
27.75 19.75 0.0
27.75 20.25 0.0
27.75 20.75 0.0
27.75 21.25 0.0
27.75 21.75 0.0
27.75 22.25 0.0
27.75 22.75 0.0
27.75 23.25 0.0
27.75 23.75 0.0
27.75 24.25 0.0
27.75 24.75 0.0
27.75 25.25 0.0
27.75 25.75 0.0
27.75 26.25 0.0
27.75 26.75 0.0
27.75 27.25 0.0
27.75 27.75 0.0
27.75 28.25 0.0
27.75 28.75 0.0
27.75 29.25 0.0
27.75 29.75 0.0
27.75 30.25 0.0
27.75 30.75 0.0
27.75 31.25 0.0
28.25 5.25 0.0
28.25 5.75 0.0
28.25 6.25 0.0
28.25 6.75 0.0
28.25 7.25 0.0
28.25 7.75 0.0
28.25 8.25 0.0
28.25 8.75 0.0
28.25 9.25 0.0
28.25 18.75 0.0
28.25 19.25 0.0
28.25 19.75 0.0
28.25 20.25 0.0
28.25 20.75 0.0
28.25 21.25 0.0
28.25 21.75 0.0
28.25 22.25 0.0
28.25 22.75 0.0
28.25 23.25 0.0
28.25 23.75 0.0
28.25 24.25 0.0
28.25 24.75 0.0
28.25 25.25 0.0
28.25 25.75 0.0
28.25 26.25 0.0
28.25 26.75 0.0
28.25 27.25 0.0
28.25 27.75 0.0
28.25 28.25 0.0
28.25 28.75 0.0
28.25 29.25 0.0
28.25 29.75 0.0
28.25 30.25 0.0
28.25 30.75 0.0
28.25 31.25 0.0
28.25 31.75 0.0
28.25 50.75 0.0
28.25 51.25 0.0
28.25 51.75 0.0
28.25 52.25 0.0
28.75 5.25 0.0
28.75 5.75 0.0
28.75 6.25 0.0
28.75 6.75 0.0
28.75 7.25 0.0
28.75 7.75 0.0
28.75 8.25 0.0
28.75 8.75 0.0
28.75 9.25 0.0
28.75 18.25 0.0
28.75 18.75 0.0
28.75 19.25 0.0
28.75 19.75 0.0
28.75 20.25 0.0
28.75 20.75 0.0
28.75 21.25 0.0
28.75 21.75 0.0
28.75 22.25 0.0
28.75 22.75 0.0
28.75 23.25 0.0
28.75 23.75 0.0
28.75 24.25 0.0
28.75 24.75 0.0
28.75 25.25 0.0
28.75 25.75 0.0
28.75 26.25 0.0
28.75 26.75 0.0
28.75 27.25 0.0
28.75 27.75 0.0
28.75 28.25 0.0
28.75 28.75 0.0
28.75 29.25 0.0
28.75 29.75 0.0
28.75 30.25 0.0
28.75 30.75 0.0
28.75 31.25 0.0
28.75 31.75 0.0
28.75 32.25 0.0
28.75 32.75 0.0
28.75 50.25 0.0
28.75 50.75 0.0
28.75 51.25 0.0
28.75 51.75 0.0
28.75 52.25 0.0
29.25 5.25 0.0
29.25 5.75 0.0
29.25 6.25 0.0
29.25 6.75 0.0
29.25 7.25 0.0
29.25 7.75 0.0
29.25 8.25 0.0
29.25 8.75 0.0
29.25 17.75 0.0
29.25 18.25 0.0
29.25 18.75 0.0
29.25 19.25 0.0
29.25 19.75 0.0
29.25 20.25 0.0
29.25 20.75 0.0
29.25 21.25 0.0
29.25 21.75 0.0
29.25 22.25 0.0
29.25 22.75 0.0
29.25 23.25 0.0
29.25 23.75 0.0
29.25 24.25 0.0
29.25 24.75 0.0
29.25 25.25 0.0
29.25 25.75 0.0
29.25 26.25 0.0
29.25 26.75 0.0
29.25 27.25 0.0
29.25 27.75 0.0
29.25 28.25 0.0
29.25 28.75 0.0
29.25 29.25 0.0
29.25 29.75 0.0
29.25 30.25 0.0
29.25 30.75 0.0
29.25 31.25 0.0
29.25 31.75 0.0
29.25 32.25 0.0
29.25 32.75 0.0
29.25 33.25 0.0
29.25 33.75 0.0
29.25 49.25 0.0
29.25 49.75 0.0
29.25 50.25 0.0
29.25 50.75 0.0
29.25 51.25 0.0
29.25 51.75 0.0
29.25 52.25 0.0
29.75 4.75 0.0
29.75 5.25 0.0
29.75 5.75 0.0
29.75 6.25 0.0
29.75 6.75 0.0
29.75 7.25 0.0
29.75 7.75 0.0
29.75 8.25 0.0
29.75 8.75 0.0
29.75 17.75 0.0
29.75 18.25 0.0
29.75 18.75 0.0
29.75 19.25 0.0
29.75 19.75 0.0
29.75 20.25 0.0
29.75 20.75 0.0
29.75 21.25 0.0
29.75 21.75 0.0
29.75 22.25 0.0
29.75 25.25 0.0
29.75 25.75 0.0
29.75 26.25 0.0
29.75 26.75 0.0
29.75 27.25 0.0
29.75 27.75 0.0
29.75 28.25 0.0
29.75 28.75 0.0
29.75 29.25 0.0
29.75 29.75 0.0
29.75 30.25 0.0
29.75 30.75 0.0
29.75 31.25 0.0
29.75 31.75 0.0
29.75 32.25 0.0
29.75 32.75 0.0
29.75 33.25 0.0
29.75 33.75 0.0
29.75 34.25 0.0
29.75 35.25 0.0
29.75 48.75 0.0
29.75 49.25 0.0
29.75 49.75 0.0
29.75 50.25 0.0
29.75 50.75 0.0
29.75 51.25 0.0
29.75 51.75 0.0
29.75 52.25 0.0
30.25 5.25 0.0
30.25 5.75 0.0
30.25 6.25 0.0
30.25 6.75 0.0
30.25 7.25 0.0
30.25 7.75 0.0
30.25 8.25 0.0
30.25 8.75 0.0
30.25 9.25 0.0
30.25 17.75 0.0
30.25 18.25 0.0
30.25 18.75 0.0
30.25 19.25 0.0
30.25 19.75 0.0
30.25 20.25 0.0
30.25 20.75 0.0
30.25 21.25 0.0
30.25 21.75 0.0
30.25 22.25 0.0
30.25 26.25 0.0
30.25 26.75 0.0
30.25 27.25 0.0
30.25 27.75 0.0
30.25 28.25 0.0
30.25 28.75 0.0
30.25 29.25 0.0
30.25 29.75 0.0
30.25 30.25 0.0
30.25 30.75 0.0
30.25 31.25 0.0
30.25 31.75 0.0
30.25 32.25 0.0
30.25 32.75 0.0
30.25 33.25 0.0
30.25 33.75 0.0
30.25 34.25 0.0
30.25 34.75 0.0
30.25 35.25 0.0
30.25 35.75 0.0
30.25 47.75 0.0
30.25 48.25 0.0
30.25 48.75 0.0
30.25 49.25 0.0
30.25 49.75 0.0
30.25 50.25 0.0
30.25 50.75 0.0
30.25 51.25 0.0
30.25 51.75 0.0
30.25 52.25 0.0
30.75 5.25 0.0
30.75 5.75 0.0
30.75 6.25 0.0
30.75 6.75 0.0
30.75 7.25 0.0
30.75 7.75 0.0
30.75 8.25 0.0
30.75 8.75 0.0
30.75 9.25 0.0
30.75 17.25 0.0
30.75 17.75 0.0
30.75 18.25 0.0
30.75 18.75 0.0
30.75 19.25 0.0
30.75 19.75 0.0
30.75 20.25 0.0
30.75 20.75 0.0
30.75 21.25 0.0
30.75 21.75 0.0
30.75 22.25 0.0
30.75 26.25 0.0
30.75 26.75 0.0
30.75 27.25 0.0
30.75 27.75 0.0
30.75 28.25 0.0
30.75 28.75 0.0
30.75 29.25 0.0
30.75 29.75 0.0
30.75 30.25 0.0
30.75 30.75 0.0
30.75 31.25 0.0
30.75 31.75 0.0
30.75 32.25 0.0
30.75 32.75 0.0
30.75 33.25 0.0
30.75 33.75 0.0
30.75 34.25 0.0
30.75 34.75 0.0
30.75 35.25 0.0
30.75 35.75 0.0
30.75 36.25 0.0
30.75 36.75 0.0
30.75 47.25 0.0
30.75 47.75 0.0
30.75 48.25 0.0
30.75 48.75 0.0
30.75 49.25 0.0
30.75 49.75 0.0
30.75 50.25 0.0
30.75 50.75 0.0
30.75 51.25 0.0
30.75 51.75 0.0
30.75 52.25 0.0
31.25 5.25 0.0
31.25 5.75 0.0
31.25 6.25 0.0
31.25 6.75 0.0
31.25 7.25 0.0
31.25 7.75 0.0
31.25 8.25 0.0
31.25 8.75 0.0
31.25 9.25 0.0
31.25 16.75 0.0
31.25 17.25 0.0
31.25 17.75 0.0
31.25 18.25 0.0
31.25 18.75 0.0
31.25 19.25 0.0
31.25 19.75 0.0
31.25 20.25 0.0
31.25 20.75 0.0
31.25 21.25 0.0
31.25 21.75 0.0
31.25 22.25 0.0
31.25 26.25 0.0
31.25 26.75 0.0
31.25 27.25 0.0
31.25 27.75 0.0
31.25 28.25 0.0
31.25 28.75 0.0
31.25 29.25 0.0
31.25 29.75 0.0
31.25 30.25 0.0
31.25 30.75 0.0
31.25 31.25 0.0
31.25 31.75 0.0
31.25 32.25 0.0
31.25 32.75 0.0
31.25 33.25 0.0
31.25 33.75 0.0
31.25 34.25 0.0
31.25 34.75 0.0
31.25 35.25 0.0
31.25 35.75 0.0
31.25 36.25 0.0
31.25 36.75 0.0
31.25 37.25 0.0
31.25 37.75 0.0
31.25 46.75 0.0
31.25 47.25 0.0
31.25 47.75 0.0
31.25 48.25 0.0
31.25 48.75 0.0
31.25 49.25 0.0
31.25 49.75 0.0
31.25 50.25 0.0
31.25 50.75 0.0
31.25 51.25 0.0
31.25 51.75 0.0
31.25 52.25 0.0
31.75 5.25 0.0
31.75 5.75 0.0
31.75 6.25 0.0
31.75 6.75 0.0
31.75 7.25 0.0
31.75 7.75 0.0
31.75 8.25 0.0
31.75 8.75 0.0
31.75 9.25 0.0
31.75 16.75 0.0
31.75 17.25 0.0
31.75 17.75 0.0
31.75 18.25 0.0
31.75 18.75 0.0
31.75 19.25 0.0
31.75 19.75 0.0
31.75 20.25 0.0
31.75 20.75 0.0
31.75 21.25 0.0
31.75 21.75 0.0
31.75 26.25 0.0
31.75 26.75 0.0
31.75 27.25 0.0
31.75 27.75 0.0
31.75 28.25 0.0
31.75 28.75 0.0
31.75 29.25 0.0
31.75 29.75 0.0
31.75 30.25 0.0
31.75 30.75 0.0
31.75 31.25 0.0
31.75 31.75 0.0
31.75 32.25 0.0
31.75 32.75 0.0
31.75 33.25 0.0
31.75 33.75 0.0
31.75 34.25 0.0
31.75 34.75 0.0
31.75 35.25 0.0
31.75 35.75 0.0
31.75 36.25 0.0
31.75 36.75 0.0
31.75 37.25 0.0
31.75 37.75 0.0
31.75 38.25 0.0
31.75 45.75 0.0
31.75 46.25 0.0
31.75 46.75 0.0
31.75 47.25 0.0
31.75 47.75 0.0
31.75 48.25 0.0
31.75 48.75 0.0
31.75 49.25 0.0
31.75 49.75 0.0
31.75 50.25 0.0
31.75 50.75 0.0
31.75 51.25 0.0
31.75 51.75 0.0
31.75 52.25 0.0
32.25 5.25 0.0
32.25 5.75 0.0
32.25 6.25 0.0
32.25 6.75 0.0
32.25 7.25 0.0
32.25 7.75 0.0
32.25 8.25 0.0
32.25 8.75 0.0
32.25 9.25 0.0
32.25 16.25 0.0
32.25 16.75 0.0
32.25 17.25 0.0
32.25 17.75 0.0
32.25 18.25 0.0
32.25 18.75 0.0
32.25 19.25 0.0
32.25 19.75 0.0
32.25 20.25 0.0
32.25 20.75 0.0
32.25 21.25 0.0
32.25 26.25 0.0
32.25 26.75 0.0
32.25 27.25 0.0
32.25 27.75 0.0
32.25 28.25 0.0
32.25 28.75 0.0
32.25 29.25 0.0
32.25 29.75 0.0
32.25 30.25 0.0
32.25 30.75 0.0
32.25 31.25 0.0
32.25 31.75 0.0
32.25 32.25 0.0
32.25 32.75 0.0
32.25 33.25 0.0
32.25 33.75 0.0
32.25 34.25 0.0
32.25 34.75 0.0
32.25 35.25 0.0
32.25 35.75 0.0
32.25 36.25 0.0
32.25 36.75 0.0
32.25 37.25 0.0
32.25 37.75 0.0
32.25 38.25 0.0
32.25 38.75 0.0
32.25 39.25 0.0
32.25 39.75 0.0
32.25 41.25 0.0
32.25 44.25 0.0
32.25 44.75 0.0
32.25 45.25 0.0
32.25 45.75 0.0
32.25 46.25 0.0
32.25 46.75 0.0
32.25 47.25 0.0
32.25 47.75 0.0
32.25 48.25 0.0
32.25 48.75 0.0
32.25 49.25 0.0
32.25 49.75 0.0
32.25 50.25 0.0
32.25 50.75 0.0
32.25 51.25 0.0
32.25 51.75 0.0
32.25 52.25 0.0
32.75 4.75 0.0
32.75 5.25 0.0
32.75 5.75 0.0
32.75 6.25 0.0
32.75 6.75 0.0
32.75 7.25 0.0
32.75 7.75 0.0
32.75 8.25 0.0
32.75 8.75 0.0
32.75 15.75 0.0
32.75 16.25 0.0
32.75 16.75 0.0
32.75 17.25 0.0
32.75 17.75 0.0
32.75 18.25 0.0
32.75 18.75 0.0
32.75 19.25 0.0
32.75 19.75 0.0
32.75 20.25 0.0
32.75 20.75 0.0
32.75 26.25 0.0
32.75 26.75 0.0
32.75 27.25 0.0
32.75 27.75 0.0
32.75 28.25 0.0
32.75 28.75 0.0
32.75 29.25 0.0
32.75 29.75 0.0
32.75 30.25 0.0
32.75 30.75 0.0
32.75 31.25 0.0
32.75 31.75 0.0
32.75 32.25 0.0
32.75 32.75 0.0
32.75 33.25 0.0
32.75 33.75 0.0
32.75 34.25 0.0
32.75 34.75 0.0
32.75 35.25 0.0
32.75 35.75 0.0
32.75 36.25 0.0
32.75 36.75 0.0
32.75 37.25 0.0
32.75 37.75 0.0
32.75 38.25 0.0
32.75 38.75 0.0
32.75 39.25 0.0
32.75 39.75 0.0
32.75 40.25 0.0
32.75 40.75 0.0
32.75 41.25 0.0
32.75 41.75 0.0
32.75 42.25 0.0
32.75 42.75 0.0
32.75 43.25 0.0
32.75 43.75 0.0
32.75 44.25 0.0
32.75 44.75 0.0
32.75 45.25 0.0
32.75 45.75 0.0
32.75 46.25 0.0
32.75 46.75 0.0
32.75 47.25 0.0
32.75 47.75 0.0
32.75 48.25 0.0
32.75 48.75 0.0
32.75 49.25 0.0
32.75 49.75 0.0
32.75 50.25 0.0
32.75 50.75 0.0
32.75 51.25 0.0
32.75 51.75 0.0
32.75 52.25 0.0
33.25 4.75 0.0
33.25 5.25 0.0
33.25 5.75 0.0
33.25 6.25 0.0
33.25 6.75 0.0
33.25 7.25 0.0
33.25 7.75 0.0
33.25 8.25 0.0
33.25 8.75 0.0
33.25 15.25 0.0
33.25 15.75 0.0
33.25 16.25 0.0
33.25 16.75 0.0
33.25 17.25 0.0
33.25 17.75 0.0
33.25 18.25 0.0
33.25 18.75 0.0
33.25 19.25 0.0
33.25 19.75 0.0
33.25 20.25 0.0
33.25 20.75 0.0
33.25 26.25 0.0
33.25 26.75 0.0
33.25 27.25 0.0
33.25 27.75 0.0
33.25 28.25 0.0
33.25 28.75 0.0
33.25 29.25 0.0
33.25 29.75 0.0
33.25 30.25 0.0
33.25 30.75 0.0
33.25 31.75 0.0
33.25 32.25 0.0
33.25 32.75 0.0
33.25 33.25 0.0
33.25 33.75 0.0
33.25 34.25 0.0
33.25 34.75 0.0
33.25 35.25 0.0
33.25 35.75 0.0
33.25 36.25 0.0
33.25 36.75 0.0
33.25 37.25 0.0
33.25 37.75 0.0
33.25 38.25 0.0
33.25 38.75 0.0
33.25 39.25 0.0
33.25 39.75 0.0
33.25 40.25 0.0
33.25 40.75 0.0
33.25 41.25 0.0
33.25 41.75 0.0
33.25 42.25 0.0
33.25 42.75 0.0
33.25 43.25 0.0
33.25 43.75 0.0
33.25 44.25 0.0
33.25 44.75 0.0
33.25 45.25 0.0
33.25 45.75 0.0
33.25 46.25 0.0
33.25 46.75 0.0
33.25 47.25 0.0
33.25 47.75 0.0
33.25 48.25 0.0
33.25 48.75 0.0
33.25 49.25 0.0
33.25 49.75 0.0
33.25 50.25 0.0
33.25 50.75 0.0
33.25 51.25 0.0
33.75 4.75 0.0
33.75 5.25 0.0
33.75 5.75 0.0
33.75 6.25 0.0
33.75 6.75 0.0
33.75 7.25 0.0
33.75 7.75 0.0
33.75 8.25 0.0
33.75 8.75 0.0
33.75 14.75 0.0
33.75 15.25 0.0
33.75 15.75 0.0
33.75 16.25 0.0
33.75 16.75 0.0
33.75 17.25 0.0
33.75 17.75 0.0
33.75 18.25 0.0
33.75 18.75 0.0
33.75 19.25 0.0
33.75 19.75 0.0
33.75 20.25 0.0
33.75 26.25 0.0
33.75 26.75 0.0
33.75 27.25 0.0
33.75 27.75 0.0
33.75 28.25 0.0
33.75 28.75 0.0
33.75 29.25 0.0
33.75 29.75 0.0
33.75 30.25 0.0
33.75 30.75 0.0
33.75 32.75 0.0
33.75 33.25 0.0
33.75 33.75 0.0
33.75 34.25 0.0
33.75 34.75 0.0
33.75 35.25 0.0
33.75 35.75 0.0
33.75 36.25 0.0
33.75 36.75 0.0
33.75 37.25 0.0
33.75 37.75 0.0
33.75 38.25 0.0
33.75 38.75 0.0
33.75 39.25 0.0
33.75 39.75 0.0
33.75 40.25 0.0
33.75 40.75 0.0
33.75 41.25 0.0
33.75 41.75 0.0
33.75 42.25 0.0
33.75 42.75 0.0
33.75 43.25 0.0
33.75 43.75 0.0
33.75 44.25 0.0
33.75 44.75 0.0
33.75 45.25 0.0
33.75 45.75 0.0
33.75 46.25 0.0
33.75 46.75 0.0
33.75 47.25 0.0
33.75 47.75 0.0
33.75 48.25 0.0
33.75 48.75 0.0
33.75 49.25 0.0
33.75 49.75 0.0
33.75 50.25 0.0
33.75 50.75 0.0
34.25 4.75 0.0
34.25 5.25 0.0
34.25 5.75 0.0
34.25 6.25 0.0
34.25 6.75 0.0
34.25 7.25 0.0
34.25 7.75 0.0
34.25 8.25 0.0
34.25 8.75 0.0
34.25 14.25 0.0
34.25 14.75 0.0
34.25 15.25 0.0
34.25 15.75 0.0
34.25 16.25 0.0
34.25 16.75 0.0
34.25 17.25 0.0
34.25 17.75 0.0
34.25 18.25 0.0
34.25 18.75 0.0
34.25 19.25 0.0
34.25 19.75 0.0
34.25 26.75 0.0
34.25 27.25 0.0
34.25 27.75 0.0
34.25 28.25 0.0
34.25 28.75 0.0
34.25 29.25 0.0
34.25 29.75 0.0
34.25 30.25 0.0
34.25 30.75 0.0
34.25 33.25 0.0
34.25 33.75 0.0
34.25 34.25 0.0
34.25 34.75 0.0
34.25 35.25 0.0
34.25 35.75 0.0
34.25 36.25 0.0
34.25 36.75 0.0
34.25 37.25 0.0
34.25 37.75 0.0
34.25 38.25 0.0
34.25 38.75 0.0
34.25 39.25 0.0
34.25 39.75 0.0
34.25 40.25 0.0
34.25 40.75 0.0
34.25 41.25 0.0
34.25 41.75 0.0
34.25 42.25 0.0
34.25 42.75 0.0
34.25 43.25 0.0
34.25 43.75 0.0
34.25 44.25 0.0
34.25 44.75 0.0
34.25 45.25 0.0
34.25 45.75 0.0
34.25 46.25 0.0
34.25 46.75 0.0
34.25 47.25 0.0
34.25 47.75 0.0
34.25 48.25 0.0
34.25 48.75 0.0
34.25 49.25 0.0
34.25 49.75 0.0
34.25 50.25 0.0
34.75 4.75 0.0
34.75 5.25 0.0
34.75 5.75 0.0
34.75 6.25 0.0
34.75 6.75 0.0
34.75 7.25 0.0
34.75 7.75 0.0
34.75 8.25 0.0
34.75 8.75 0.0
34.75 13.75 0.0
34.75 14.25 0.0
34.75 14.75 0.0
34.75 15.25 0.0
34.75 15.75 0.0
34.75 16.25 0.0
34.75 16.75 0.0
34.75 17.25 0.0
34.75 17.75 0.0
34.75 18.25 0.0
34.75 18.75 0.0
34.75 19.25 0.0
34.75 26.75 0.0
34.75 27.25 0.0
34.75 27.75 0.0
34.75 28.25 0.0
34.75 28.75 0.0
34.75 29.25 0.0
34.75 29.75 0.0
34.75 30.25 0.0
34.75 30.75 0.0
34.75 34.75 0.0
34.75 35.25 0.0
34.75 35.75 0.0
34.75 36.25 0.0
34.75 36.75 0.0
34.75 37.25 0.0
34.75 37.75 0.0
34.75 38.25 0.0
34.75 38.75 0.0
34.75 39.25 0.0
34.75 39.75 0.0
34.75 40.25 0.0
34.75 40.75 0.0
34.75 41.25 0.0
34.75 41.75 0.0
34.75 42.25 0.0
34.75 42.75 0.0
34.75 43.25 0.0
34.75 43.75 0.0
34.75 44.25 0.0
34.75 44.75 0.0
34.75 45.25 0.0
34.75 45.75 0.0
34.75 46.25 0.0
34.75 46.75 0.0
34.75 47.25 0.0
34.75 47.75 0.0
34.75 48.25 0.0
34.75 48.75 0.0
34.75 49.25 0.0
35.25 4.25 0.0
35.25 4.75 0.0
35.25 5.25 0.0
35.25 5.75 0.0
35.25 6.25 0.0
35.25 6.75 0.0
35.25 7.25 0.0
35.25 7.75 0.0
35.25 8.25 0.0
35.25 13.25 0.0
35.25 13.75 0.0
35.25 14.25 0.0
35.25 14.75 0.0
35.25 15.25 0.0
35.25 15.75 0.0
35.25 16.25 0.0
35.25 16.75 0.0
35.25 17.25 0.0
35.25 17.75 0.0
35.25 18.25 0.0
35.25 18.75 0.0
35.25 27.25 0.0
35.25 27.75 0.0
35.25 28.25 0.0
35.25 28.75 0.0
35.25 29.25 0.0
35.25 29.75 0.0
35.25 30.25 0.0
35.25 30.75 0.0
35.25 31.25 0.0
35.25 35.25 0.0
35.25 36.25 0.0
35.25 36.75 0.0
35.25 37.25 0.0
35.25 37.75 0.0
35.25 38.25 0.0
35.25 38.75 0.0
35.25 39.25 0.0
35.25 39.75 0.0
35.25 40.25 0.0
35.25 40.75 0.0
35.25 41.25 0.0
35.25 41.75 0.0
35.25 42.25 0.0
35.25 42.75 0.0
35.25 43.25 0.0
35.25 43.75 0.0
35.25 44.25 0.0
35.25 44.75 0.0
35.25 45.25 0.0
35.25 45.75 0.0
35.25 46.25 0.0
35.25 46.75 0.0
35.25 47.25 0.0
35.25 47.75 0.0
35.25 48.25 0.0
35.75 4.25 0.0
35.75 4.75 0.0
35.75 5.25 0.0
35.75 5.75 0.0
35.75 6.25 0.0
35.75 6.75 0.0
35.75 7.25 0.0
35.75 7.75 0.0
35.75 8.25 0.0
35.75 13.25 0.0
35.75 13.75 0.0
35.75 14.25 0.0
35.75 14.75 0.0
35.75 15.25 0.0
35.75 15.75 0.0
35.75 16.25 0.0
35.75 16.75 0.0
35.75 17.25 0.0
35.75 17.75 0.0
35.75 18.25 0.0
35.75 18.75 0.0
35.75 27.25 0.0
35.75 27.75 0.0
35.75 28.25 0.0
35.75 28.75 0.0
35.75 29.25 0.0
35.75 29.75 0.0
35.75 30.25 0.0
35.75 30.75 0.0
35.75 31.25 0.0
35.75 37.25 0.0
35.75 37.75 0.0
35.75 38.25 0.0
35.75 38.75 0.0
35.75 39.25 0.0
35.75 39.75 0.0
35.75 40.25 0.0
35.75 40.75 0.0
35.75 41.25 0.0
35.75 41.75 0.0
35.75 42.25 0.0
35.75 42.75 0.0
35.75 43.25 0.0
35.75 43.75 0.0
35.75 44.25 0.0
35.75 44.75 0.0
35.75 45.25 0.0
35.75 45.75 0.0
35.75 46.25 0.0
35.75 46.75 0.0
36.25 4.75 0.0
36.25 5.25 0.0
36.25 5.75 0.0
36.25 6.25 0.0
36.25 6.75 0.0
36.25 7.25 0.0
36.25 7.75 0.0
36.25 8.25 0.0
36.25 8.75 0.0
36.25 13.25 0.0
36.25 13.75 0.0
36.25 14.25 0.0
36.25 14.75 0.0
36.25 15.25 0.0
36.25 15.75 0.0
36.25 16.25 0.0
36.25 16.75 0.0
36.25 17.25 0.0
36.25 17.75 0.0
36.25 18.25 0.0
36.25 27.25 0.0
36.25 27.75 0.0
36.25 28.25 0.0
36.25 28.75 0.0
36.25 29.25 0.0
36.25 29.75 0.0
36.25 30.25 0.0
36.25 30.75 0.0
36.25 31.25 0.0
36.25 38.25 0.0
36.25 38.75 0.0
36.25 39.25 0.0
36.25 39.75 0.0
36.25 40.25 0.0
36.25 40.75 0.0
36.25 41.25 0.0
36.25 41.75 0.0
36.25 42.25 0.0
36.25 42.75 0.0
36.25 43.25 0.0
36.25 43.75 0.0
36.25 44.25 0.0
36.25 44.75 0.0
36.25 45.25 0.0
36.25 45.75 0.0
36.25 46.25 0.0
36.25 46.75 0.0
36.75 4.75 0.0
36.75 5.25 0.0
36.75 5.75 0.0
36.75 6.25 0.0
36.75 6.75 0.0
36.75 7.25 0.0
36.75 7.75 0.0
36.75 8.25 0.0
36.75 8.75 0.0
36.75 12.75 0.0
36.75 13.25 0.0
36.75 13.75 0.0
36.75 14.25 0.0
36.75 14.75 0.0
36.75 15.25 0.0
36.75 15.75 0.0
36.75 16.25 0.0
36.75 16.75 0.0
36.75 17.25 0.0
36.75 17.75 0.0
36.75 27.25 0.0
36.75 27.75 0.0
36.75 28.25 0.0
36.75 28.75 0.0
36.75 29.25 0.0
36.75 29.75 0.0
36.75 30.25 0.0
36.75 30.75 0.0
36.75 31.25 0.0
36.75 39.75 0.0
36.75 40.25 0.0
36.75 40.75 0.0
36.75 41.25 0.0
36.75 41.75 0.0
36.75 42.25 0.0
36.75 42.75 0.0
36.75 43.25 0.0
36.75 43.75 0.0
36.75 44.25 0.0
37.25 4.25 0.0
37.25 4.75 0.0
37.25 5.25 0.0
37.25 5.75 0.0
37.25 6.25 0.0
37.25 6.75 0.0
37.25 7.25 0.0
37.25 7.75 0.0
37.25 8.25 0.0
37.25 12.25 0.0
37.25 12.75 0.0
37.25 13.25 0.0
37.25 13.75 0.0
37.25 14.25 0.0
37.25 14.75 0.0
37.25 15.25 0.0
37.25 15.75 0.0
37.25 16.25 0.0
37.25 16.75 0.0
37.25 17.25 0.0
37.25 17.75 0.0
37.25 27.25 0.0
37.25 27.75 0.0
37.25 28.25 0.0
37.25 28.75 0.0
37.25 29.25 0.0
37.25 29.75 0.0
37.25 30.25 0.0
37.25 30.75 0.0
37.25 31.25 0.0
37.75 4.25 0.0
37.75 4.75 0.0
37.75 5.25 0.0
37.75 5.75 0.0
37.75 6.25 0.0
37.75 6.75 0.0
37.75 7.25 0.0
37.75 7.75 0.0
37.75 8.25 0.0
37.75 12.25 0.0
37.75 12.75 0.0
37.75 13.25 0.0
37.75 13.75 0.0
37.75 14.25 0.0
37.75 14.75 0.0
37.75 15.25 0.0
37.75 15.75 0.0
37.75 16.25 0.0
37.75 16.75 0.0
37.75 17.25 0.0
37.75 27.25 0.0
37.75 27.75 0.0
37.75 28.25 0.0
37.75 28.75 0.0
37.75 29.25 0.0
37.75 29.75 0.0
37.75 30.25 0.0
37.75 30.75 0.0
37.75 31.25 0.0
38.25 4.25 0.0
38.25 4.75 0.0
38.25 5.25 0.0
38.25 5.75 0.0
38.25 6.25 0.0
38.25 6.75 0.0
38.25 7.25 0.0
38.25 7.75 0.0
38.25 8.25 0.0
38.25 11.75 0.0
38.25 12.25 0.0
38.25 12.75 0.0
38.25 13.25 0.0
38.25 13.75 0.0
38.25 14.25 0.0
38.25 14.75 0.0
38.25 15.25 0.0
38.25 15.75 0.0
38.25 16.25 0.0
38.25 16.75 0.0
38.25 27.25 0.0
38.25 27.75 0.0
38.25 28.25 0.0
38.25 28.75 0.0
38.25 29.25 0.0
38.25 29.75 0.0
38.25 30.25 0.0
38.25 30.75 0.0
38.25 31.25 0.0
38.75 3.75 0.0
38.75 4.25 0.0
38.75 4.75 0.0
38.75 5.25 0.0
38.75 5.75 0.0
38.75 6.25 0.0
38.75 6.75 0.0
38.75 7.25 0.0
38.75 7.75 0.0
38.75 8.25 0.0
38.75 11.25 0.0
38.75 11.75 0.0
38.75 12.25 0.0
38.75 12.75 0.0
38.75 13.25 0.0
38.75 13.75 0.0
38.75 14.25 0.0
38.75 14.75 0.0
38.75 15.25 0.0
38.75 15.75 0.0
38.75 16.25 0.0
38.75 16.75 0.0
38.75 27.25 0.0
38.75 27.75 0.0
38.75 28.25 0.0
38.75 28.75 0.0
38.75 29.25 0.0
38.75 29.75 0.0
38.75 30.25 0.0
38.75 30.75 0.0
38.75 31.25 0.0
39.25 3.75 0.0
39.25 4.25 0.0
39.25 4.75 0.0
39.25 5.25 0.0
39.25 5.75 0.0
39.25 6.25 0.0
39.25 6.75 0.0
39.25 7.25 0.0
39.25 7.75 0.0
39.25 10.75 0.0
39.25 11.25 0.0
39.25 11.75 0.0
39.25 12.25 0.0
39.25 12.75 0.0
39.25 13.25 0.0
39.25 13.75 0.0
39.25 14.25 0.0
39.25 14.75 0.0
39.25 15.25 0.0
39.25 15.75 0.0
39.25 16.25 0.0
39.25 27.25 0.0
39.25 27.75 0.0
39.25 28.25 0.0
39.25 28.75 0.0
39.25 29.25 0.0
39.25 29.75 0.0
39.25 30.25 0.0
39.25 30.75 0.0
39.25 31.25 0.0
39.25 31.75 0.0
39.75 3.75 0.0
39.75 4.25 0.0
39.75 4.75 0.0
39.75 5.25 0.0
39.75 5.75 0.0
39.75 6.25 0.0
39.75 6.75 0.0
39.75 7.25 0.0
39.75 7.75 0.0
39.75 10.25 0.0
39.75 10.75 0.0
39.75 11.25 0.0
39.75 11.75 0.0
39.75 12.25 0.0
39.75 12.75 0.0
39.75 13.25 0.0
39.75 13.75 0.0
39.75 14.25 0.0
39.75 14.75 0.0
39.75 15.25 0.0
39.75 15.75 0.0
39.75 27.75 0.0
39.75 28.25 0.0
39.75 28.75 0.0
39.75 29.25 0.0
39.75 29.75 0.0
39.75 30.25 0.0
39.75 30.75 0.0
39.75 31.25 0.0
39.75 31.75 0.0
40.25 3.25 0.0
40.25 3.75 0.0
40.25 4.25 0.0
40.25 4.75 0.0
40.25 5.25 0.0
40.25 5.75 0.0
40.25 6.25 0.0
40.25 6.75 0.0
40.25 7.25 0.0
40.25 7.75 0.0
40.25 9.75 0.0
40.25 10.25 0.0
40.25 10.75 0.0
40.25 11.25 0.0
40.25 11.75 0.0
40.25 12.25 0.0
40.25 12.75 0.0
40.25 13.25 0.0
40.25 13.75 0.0
40.25 14.25 0.0
40.25 14.75 0.0
40.25 15.25 0.0
40.25 27.75 0.0
40.25 28.25 0.0
40.25 28.75 0.0
40.25 29.25 0.0
40.25 29.75 0.0
40.25 30.25 0.0
40.25 30.75 0.0
40.25 31.25 0.0
40.25 31.75 0.0
40.75 3.25 0.0
40.75 3.75 0.0
40.75 4.25 0.0
40.75 4.75 0.0
40.75 5.25 0.0
40.75 5.75 0.0
40.75 6.25 0.0
40.75 6.75 0.0
40.75 7.25 0.0
40.75 9.25 0.0
40.75 9.75 0.0
40.75 10.25 0.0
40.75 10.75 0.0
40.75 11.25 0.0
40.75 11.75 0.0
40.75 12.25 0.0
40.75 12.75 0.0
40.75 13.25 0.0
40.75 13.75 0.0
40.75 14.25 0.0
40.75 14.75 0.0
40.75 27.75 0.0
40.75 28.25 0.0
40.75 28.75 0.0
40.75 29.25 0.0
40.75 29.75 0.0
40.75 30.25 0.0
40.75 30.75 0.0
40.75 31.25 0.0
40.75 31.75 0.0
40.75 32.25 0.0
41.25 3.25 0.0
41.25 3.75 0.0
41.25 4.25 0.0
41.25 4.75 0.0
41.25 5.25 0.0
41.25 5.75 0.0
41.25 6.25 0.0
41.25 6.75 0.0
41.25 7.25 0.0
41.25 8.75 0.0
41.25 9.25 0.0
41.25 9.75 0.0
41.25 10.25 0.0
41.25 10.75 0.0
41.25 11.25 0.0
41.25 11.75 0.0
41.25 12.25 0.0
41.25 12.75 0.0
41.25 13.25 0.0
41.25 13.75 0.0
41.25 14.25 0.0
41.25 28.25 0.0
41.25 28.75 0.0
41.25 29.25 0.0
41.25 29.75 0.0
41.25 30.25 0.0
41.25 30.75 0.0
41.25 31.25 0.0
41.25 31.75 0.0
41.25 32.25 0.0
41.75 2.75 0.0
41.75 3.25 0.0
41.75 3.75 0.0
41.75 4.25 0.0
41.75 4.75 0.0
41.75 5.25 0.0
41.75 5.75 0.0
41.75 6.25 0.0
41.75 6.75 0.0
41.75 7.25 0.0
41.75 7.75 0.0
41.75 8.75 0.0
41.75 9.25 0.0
41.75 9.75 0.0
41.75 10.25 0.0
41.75 10.75 0.0
41.75 11.25 0.0
41.75 11.75 0.0
41.75 12.25 0.0
41.75 12.75 0.0
41.75 13.25 0.0
41.75 13.75 0.0
41.75 14.25 0.0
41.75 28.25 0.0
41.75 28.75 0.0
41.75 29.25 0.0
41.75 29.75 0.0
41.75 30.25 0.0
41.75 30.75 0.0
41.75 31.25 0.0
41.75 31.75 0.0
41.75 32.25 0.0
42.25 3.25 0.0
42.25 3.75 0.0
42.25 4.25 0.0
42.25 4.75 0.0
42.25 5.25 0.0
42.25 5.75 0.0
42.25 6.25 0.0
42.25 6.75 0.0
42.25 7.25 0.0
42.25 7.75 0.0
42.25 8.25 0.0
42.25 8.75 0.0
42.25 9.25 0.0
42.25 9.75 0.0
42.25 10.25 0.0
42.25 10.75 0.0
42.25 11.25 0.0
42.25 11.75 0.0
42.25 12.25 0.0
42.25 12.75 0.0
42.25 13.25 0.0
42.25 13.75 0.0
42.25 28.25 0.0
42.25 28.75 0.0
42.25 29.25 0.0
42.25 29.75 0.0
42.25 30.25 0.0
42.25 30.75 0.0
42.25 31.25 0.0
42.25 31.75 0.0
42.25 32.25 0.0
42.75 3.25 0.0
42.75 3.75 0.0
42.75 4.25 0.0
42.75 4.75 0.0
42.75 5.25 0.0
42.75 5.75 0.0
42.75 6.25 0.0
42.75 6.75 0.0
42.75 7.25 0.0
42.75 7.75 0.0
42.75 8.25 0.0
42.75 8.75 0.0
42.75 9.25 0.0
42.75 9.75 0.0
42.75 10.25 0.0
42.75 10.75 0.0
42.75 11.25 0.0
42.75 11.75 0.0
42.75 12.25 0.0
42.75 12.75 0.0
42.75 13.25 0.0
42.75 28.25 0.0
42.75 28.75 0.0
42.75 29.25 0.0
42.75 29.75 0.0
42.75 30.25 0.0
42.75 30.75 0.0
42.75 31.25 0.0
42.75 31.75 0.0
42.75 32.25 0.0
42.75 32.75 0.0
43.25 2.75 0.0
43.25 3.25 0.0
43.25 3.75 0.0
43.25 4.25 0.0
43.25 4.75 0.0
43.25 5.25 0.0
43.25 5.75 0.0
43.25 6.25 0.0
43.25 6.75 0.0
43.25 7.25 0.0
43.25 7.75 0.0
43.25 8.25 0.0
43.25 8.75 0.0
43.25 9.25 0.0
43.25 9.75 0.0
43.25 10.25 0.0
43.25 10.75 0.0
43.25 11.25 0.0
43.25 11.75 0.0
43.25 12.25 0.0
43.25 12.75 0.0
43.25 28.25 0.0
43.25 28.75 0.0
43.25 29.25 0.0
43.25 29.75 0.0
43.25 30.25 0.0
43.25 30.75 0.0
43.25 31.25 0.0
43.25 31.75 0.0
43.25 32.25 0.0
43.25 32.75 0.0
43.75 2.75 0.0
43.75 3.25 0.0
43.75 3.75 0.0
43.75 4.25 0.0
43.75 4.75 0.0
43.75 5.25 0.0
43.75 5.75 0.0
43.75 6.25 0.0
43.75 6.75 0.0
43.75 7.25 0.0
43.75 7.75 0.0
43.75 8.25 0.0
43.75 8.75 0.0
43.75 9.25 0.0
43.75 9.75 0.0
43.75 10.25 0.0
43.75 10.75 0.0
43.75 11.25 0.0
43.75 11.75 0.0
43.75 12.25 0.0
43.75 28.75 0.0
43.75 29.25 0.0
43.75 29.75 0.0
43.75 30.25 0.0
43.75 30.75 0.0
43.75 31.25 0.0
43.75 31.75 0.0
43.75 32.25 0.0
43.75 32.75 0.0
44.25 2.75 0.0
44.25 3.25 0.0
44.25 3.75 0.0
44.25 4.25 0.0
44.25 4.75 0.0
44.25 5.25 0.0
44.25 5.75 0.0
44.25 6.25 0.0
44.25 6.75 0.0
44.25 7.25 0.0
44.25 7.75 0.0
44.25 8.25 0.0
44.25 8.75 0.0
44.25 9.25 0.0
44.25 9.75 0.0
44.25 10.25 0.0
44.25 10.75 0.0
44.25 11.25 0.0
44.25 11.75 0.0
44.25 12.25 0.0
44.25 28.75 0.0
44.25 29.25 0.0
44.25 29.75 0.0
44.25 30.25 0.0
44.25 30.75 0.0
44.25 31.25 0.0
44.25 31.75 0.0
44.25 32.25 0.0
44.25 32.75 0.0
44.75 2.25 0.0
44.75 2.75 0.0
44.75 3.25 0.0
44.75 3.75 0.0
44.75 4.25 0.0
44.75 4.75 0.0
44.75 5.25 0.0
44.75 5.75 0.0
44.75 6.25 0.0
44.75 6.75 0.0
44.75 7.25 0.0
44.75 7.75 0.0
44.75 8.25 0.0
44.75 8.75 0.0
44.75 9.25 0.0
44.75 9.75 0.0
44.75 10.25 0.0
44.75 10.75 0.0
44.75 11.25 0.0
44.75 11.75 0.0
44.75 28.75 0.0
44.75 29.25 0.0
44.75 29.75 0.0
44.75 30.25 0.0
44.75 30.75 0.0
44.75 31.25 0.0
44.75 31.75 0.0
44.75 32.25 0.0
44.75 32.75 0.0
45.25 2.25 0.0
45.25 2.75 0.0
45.25 3.25 0.0
45.25 3.75 0.0
45.25 4.25 0.0
45.25 4.75 0.0
45.25 5.25 0.0
45.25 5.75 0.0
45.25 6.25 0.0
45.25 6.75 0.0
45.25 7.25 0.0
45.25 7.75 0.0
45.25 8.25 0.0
45.25 8.75 0.0
45.25 9.25 0.0
45.25 9.75 0.0
45.25 10.25 0.0
45.25 10.75 0.0
45.25 11.25 0.0
45.25 28.75 0.0
45.25 29.25 0.0
45.25 29.75 0.0
45.25 30.25 0.0
45.25 30.75 0.0
45.25 31.25 0.0
45.25 31.75 0.0
45.25 32.25 0.0
45.25 32.75 0.0
45.75 2.25 0.0
45.75 2.75 0.0
45.75 3.25 0.0
45.75 3.75 0.0
45.75 4.25 0.0
45.75 4.75 0.0
45.75 5.25 0.0
45.75 5.75 0.0
45.75 6.25 0.0
45.75 6.75 0.0
45.75 7.25 0.0
45.75 7.75 0.0
45.75 8.25 0.0
45.75 8.75 0.0
45.75 9.25 0.0
45.75 9.75 0.0
45.75 10.25 0.0
45.75 10.75 0.0
45.75 28.75 0.0
45.75 29.25 0.0
45.75 29.75 0.0
45.75 30.25 0.0
45.75 30.75 0.0
45.75 31.25 0.0
45.75 31.75 0.0
45.75 32.25 0.0
45.75 32.75 0.0
45.75 33.25 0.0
46.25 1.75 0.0
46.25 2.25 0.0
46.25 2.75 0.0
46.25 3.25 0.0
46.25 3.75 0.0
46.25 4.25 0.0
46.25 4.75 0.0
46.25 5.25 0.0
46.25 5.75 0.0
46.25 6.25 0.0
46.25 6.75 0.0
46.25 7.25 0.0
46.25 7.75 0.0
46.25 8.25 0.0
46.25 8.75 0.0
46.25 9.25 0.0
46.25 9.75 0.0
46.25 10.25 0.0
46.25 28.75 0.0
46.25 29.25 0.0
46.25 29.75 0.0
46.25 30.25 0.0
46.25 30.75 0.0
46.25 31.25 0.0
46.25 31.75 0.0
46.25 32.25 0.0
46.25 32.75 0.0
46.25 33.25 0.0
46.75 1.75 0.0
46.75 2.25 0.0
46.75 2.75 0.0
46.75 3.25 0.0
46.75 3.75 0.0
46.75 4.25 0.0
46.75 4.75 0.0
46.75 5.25 0.0
46.75 5.75 0.0
46.75 6.25 0.0
46.75 6.75 0.0
46.75 7.25 0.0
46.75 7.75 0.0
46.75 8.25 0.0
46.75 8.75 0.0
46.75 9.25 0.0
46.75 9.75 0.0
46.75 29.75 0.0
46.75 30.25 0.0
46.75 30.75 0.0
46.75 31.25 0.0
46.75 31.75 0.0
46.75 32.25 0.0
46.75 32.75 0.0
46.75 33.25 0.0
46.75 33.75 0.0
47.25 1.75 0.0
47.25 2.25 0.0
47.25 2.75 0.0
47.25 3.25 0.0
47.25 3.75 0.0
47.25 4.25 0.0
47.25 4.75 0.0
47.25 5.25 0.0
47.25 5.75 0.0
47.25 6.25 0.0
47.25 6.75 0.0
47.25 7.25 0.0
47.25 7.75 0.0
47.25 8.25 0.0
47.25 8.75 0.0
47.25 9.25 0.0
47.25 29.75 0.0
47.25 30.25 0.0
47.25 30.75 0.0
47.25 31.25 0.0
47.25 31.75 0.0
47.25 32.25 0.0
47.25 32.75 0.0
47.25 33.25 0.0
47.25 33.75 0.0
47.75 1.75 0.0
47.75 2.25 0.0
47.75 2.75 0.0
47.75 3.25 0.0
47.75 3.75 0.0
47.75 4.25 0.0
47.75 4.75 0.0
47.75 5.25 0.0
47.75 5.75 0.0
47.75 6.25 0.0
47.75 6.75 0.0
47.75 7.25 0.0
47.75 7.75 0.0
47.75 8.25 0.0
47.75 8.75 0.0
47.75 9.25 0.0
47.75 29.75 0.0
47.75 30.25 0.0
47.75 30.75 0.0
47.75 31.25 0.0
47.75 31.75 0.0
47.75 32.25 0.0
47.75 32.75 0.0
47.75 33.25 0.0
47.75 33.75 0.0
48.25 2.25 0.0
48.25 2.75 0.0
48.25 3.25 0.0
48.25 3.75 0.0
48.25 4.25 0.0
48.25 4.75 0.0
48.25 5.25 0.0
48.25 5.75 0.0
48.25 6.25 0.0
48.25 6.75 0.0
48.25 7.25 0.0
48.25 7.75 0.0
48.25 8.25 0.0
48.25 8.75 0.0
48.25 29.75 0.0
48.25 30.25 0.0
48.25 30.75 0.0
48.25 31.25 0.0
48.25 31.75 0.0
48.25 32.25 0.0
48.25 32.75 0.0
48.25 33.25 0.0
48.25 33.75 0.0
48.75 2.25 0.0
48.75 2.75 0.0
48.75 3.25 0.0
48.75 3.75 0.0
48.75 4.25 0.0
48.75 4.75 0.0
48.75 5.25 0.0
48.75 5.75 0.0
48.75 6.25 0.0
48.75 6.75 0.0
48.75 7.25 0.0
48.75 7.75 0.0
48.75 8.25 0.0
48.75 29.75 0.0
48.75 30.25 0.0
48.75 30.75 0.0
48.75 31.25 0.0
48.75 31.75 0.0
48.75 32.25 0.0
48.75 32.75 0.0
48.75 33.25 0.0
48.75 33.75 0.0
48.75 34.25 0.0
49.25 2.25 0.0
49.25 2.75 0.0
49.25 3.25 0.0
49.25 3.75 0.0
49.25 4.25 0.0
49.25 4.75 0.0
49.25 5.25 0.0
49.25 5.75 0.0
49.25 6.25 0.0
49.25 6.75 0.0
49.25 7.25 0.0
49.25 7.75 0.0
49.25 29.75 0.0
49.25 30.25 0.0
49.25 30.75 0.0
49.25 31.25 0.0
49.25 31.75 0.0
49.25 32.25 0.0
49.25 32.75 0.0
49.25 33.25 0.0
49.25 33.75 0.0
49.25 34.25 0.0
49.75 2.25 0.0
49.75 2.75 0.0
49.75 3.25 0.0
49.75 3.75 0.0
49.75 4.25 0.0
49.75 4.75 0.0
49.75 5.25 0.0
49.75 5.75 0.0
49.75 6.25 0.0
49.75 6.75 0.0
49.75 7.25 0.0
49.75 30.25 0.0
49.75 30.75 0.0
49.75 31.25 0.0
49.75 31.75 0.0
49.75 32.25 0.0
49.75 32.75 0.0
49.75 33.25 0.0
49.75 33.75 0.0
49.75 34.25 0.0
50.25 2.25 0.0
50.25 2.75 0.0
50.25 3.25 0.0
50.25 3.75 0.0
50.25 4.25 0.0
50.25 4.75 0.0
50.25 5.25 0.0
50.25 5.75 0.0
50.25 6.25 0.0
50.25 6.75 0.0
50.25 30.25 0.0
50.25 30.75 0.0
50.25 31.25 0.0
50.25 31.75 0.0
50.25 32.25 0.0
50.25 32.75 0.0
50.25 33.25 0.0
50.25 33.75 0.0
50.25 34.25 0.0
50.75 2.25 0.0
50.75 2.75 0.0
50.75 3.25 0.0
50.75 3.75 0.0
50.75 4.25 0.0
50.75 4.75 0.0
50.75 5.25 0.0
50.75 5.75 0.0
50.75 6.25 0.0
50.75 6.75 0.0
50.75 30.25 0.0
50.75 30.75 0.0
50.75 31.25 0.0
50.75 31.75 0.0
50.75 32.25 0.0
50.75 32.75 0.0
50.75 33.25 0.0
50.75 33.75 0.0
50.75 34.25 0.0
51.25 2.25 0.0
51.25 2.75 0.0
51.25 3.25 0.0
51.25 3.75 0.0
51.25 4.25 0.0
51.25 4.75 0.0
51.25 5.25 0.0
51.25 5.75 0.0
51.25 6.25 0.0
51.25 30.75 0.0
51.25 31.25 0.0
51.25 31.75 0.0
51.25 32.25 0.0
51.25 32.75 0.0
51.25 33.25 0.0
51.25 33.75 0.0
51.75 2.75 0.0
51.75 3.25 0.0
51.75 3.75 0.0
51.75 4.25 0.0
51.75 4.75 0.0
51.75 5.25 0.0
51.75 31.25 0.0
51.75 31.75 0.0
51.75 32.25 0.0
51.75 32.75 0.0
51.75 33.25 0.0
