ply
format ascii 1.0
element vertex 1488
property float x
property float y
property float z
end_header
5.25 29.25 0.0
5.25 29.75 0.0
5.25 30.25 0.0
5.25 30.75 0.0
5.75 29.25 0.0
5.75 29.75 0.0
5.75 30.25 0.0
5.75 30.75 0.0
5.75 31.25 0.0
6.25 17.25 0.0
6.25 17.75 0.0
6.25 18.25 0.0
6.25 18.75 0.0
6.25 28.25 0.0
6.25 28.75 0.0
6.25 29.25 0.0
6.25 29.75 0.0
6.25 30.25 0.0
6.25 30.75 0.0
6.25 31.25 0.0
6.75 16.75 0.0
6.75 17.25 0.0
6.75 17.75 0.0
6.75 18.25 0.0
6.75 18.75 0.0
6.75 19.25 0.0
6.75 27.75 0.0
6.75 28.25 0.0
6.75 28.75 0.0
6.75 29.25 0.0
6.75 29.75 0.0
6.75 30.25 0.0
6.75 30.75 0.0
6.75 31.25 0.0
7.25 16.25 0.0
7.25 16.75 0.0
7.25 17.25 0.0
7.25 17.75 0.0
7.25 18.25 0.0
7.25 18.75 0.0
7.25 19.25 0.0
7.25 27.25 0.0
7.25 27.75 0.0
7.25 28.25 0.0
7.25 28.75 0.0
7.25 29.25 0.0
7.25 29.75 0.0
7.25 30.25 0.0
7.25 30.75 0.0
7.25 31.25 0.0
7.75 15.75 0.0
7.75 16.25 0.0
7.75 16.75 0.0
7.75 17.25 0.0
7.75 17.75 0.0
7.75 18.25 0.0
7.75 18.75 0.0
7.75 19.25 0.0
7.75 26.75 0.0
7.75 27.25 0.0
7.75 27.75 0.0
7.75 28.25 0.0
7.75 28.75 0.0
7.75 29.25 0.0
7.75 29.75 0.0
7.75 30.25 0.0
7.75 30.75 0.0
7.75 31.25 0.0
8.25 15.75 0.0
8.25 16.25 0.0
8.25 16.75 0.0
8.25 17.25 0.0
8.25 17.75 0.0
8.25 18.25 0.0
8.25 18.75 0.0
8.25 19.25 0.0
8.25 26.75 0.0
8.25 27.25 0.0
8.25 27.75 0.0
8.25 28.25 0.0
8.25 28.75 0.0
8.25 29.25 0.0
8.25 29.75 0.0
8.25 30.25 0.0
8.25 30.75 0.0
8.25 31.25 0.0
8.75 4.75 0.0
8.75 5.25 0.0
8.75 5.75 0.0
8.75 15.25 0.0
8.75 15.75 0.0
8.75 16.25 0.0
8.75 16.75 0.0
8.75 17.25 0.0
8.75 17.75 0.0
8.75 18.25 0.0
8.75 18.75 0.0
8.75 26.25 0.0
8.75 26.75 0.0
8.75 27.25 0.0
8.75 27.75 0.0
8.75 28.25 0.0
8.75 28.75 0.0
8.75 29.25 0.0
8.75 29.75 0.0
8.75 30.25 0.0
8.75 30.75 0.0
8.75 31.25 0.0
9.25 3.75 0.0
9.25 4.25 0.0
9.25 4.75 0.0
9.25 5.25 0.0
9.25 5.75 0.0
9.25 6.25 0.0
9.25 15.25 0.0
9.25 15.75 0.0
9.25 16.25 0.0
9.25 16.75 0.0
9.25 17.25 0.0
9.25 17.75 0.0
9.25 18.25 0.0
9.25 18.75 0.0
9.25 26.25 0.0
9.25 26.75 0.0
9.25 27.25 0.0
9.25 27.75 0.0
9.25 28.25 0.0
9.25 28.75 0.0
9.25 29.25 0.0
9.25 29.75 0.0
9.25 30.25 0.0
9.25 30.75 0.0
9.25 31.25 0.0
9.25 31.75 0.0
9.75 3.75 0.0
9.75 4.25 0.0
9.75 4.75 0.0
9.75 5.25 0.0
9.75 5.75 0.0
9.75 6.25 0.0
9.75 15.25 0.0
9.75 15.75 0.0
9.75 16.25 0.0
9.75 16.75 0.0
9.75 17.25 0.0
9.75 17.75 0.0
9.75 18.25 0.0
9.75 18.75 0.0
9.75 25.75 0.0
9.75 26.25 0.0
9.75 26.75 0.0
9.75 27.25 0.0
9.75 27.75 0.0
9.75 28.25 0.0
9.75 28.75 0.0
9.75 29.25 0.0
9.75 29.75 0.0
9.75 30.25 0.0
9.75 30.75 0.0
9.75 31.25 0.0
9.75 31.75 0.0
10.25 4.25 0.0
10.25 4.75 0.0
10.25 5.25 0.0
10.25 5.75 0.0
10.25 6.25 0.0
10.25 6.75 0.0
10.25 7.25 0.0
10.25 14.75 0.0
10.25 15.25 0.0
10.25 15.75 0.0
10.25 16.25 0.0
10.25 16.75 0.0
10.25 17.25 0.0
10.25 17.75 0.0
10.25 18.25 0.0
10.25 25.25 0.0
10.25 25.75 0.0
10.25 26.25 0.0
10.25 26.75 0.0
10.25 27.25 0.0
10.25 27.75 0.0
10.25 28.25 0.0
10.25 28.75 0.0
10.25 29.25 0.0
10.25 29.75 0.0
10.25 30.25 0.0
10.25 30.75 0.0
10.25 31.25 0.0
10.25 31.75 0.0
10.75 4.25 0.0
10.75 4.75 0.0
10.75 5.25 0.0
10.75 5.75 0.0
10.75 6.25 0.0
10.75 6.75 0.0
10.75 7.25 0.0
10.75 14.75 0.0
10.75 15.25 0.0
10.75 15.75 0.0
10.75 16.25 0.0
10.75 16.75 0.0
10.75 17.25 0.0
10.75 17.75 0.0
10.75 18.25 0.0
10.75 24.75 0.0
10.75 25.25 0.0
10.75 25.75 0.0
10.75 26.25 0.0
10.75 26.75 0.0
10.75 27.25 0.0
10.75 27.75 0.0
10.75 28.25 0.0
10.75 28.75 0.0
10.75 29.25 0.0
10.75 29.75 0.0
10.75 30.25 0.0
10.75 30.75 0.0
10.75 31.25 0.0
10.75 31.75 0.0
11.25 4.25 0.0
11.25 4.75 0.0
11.25 5.25 0.0
11.25 5.75 0.0
11.25 6.25 0.0
11.25 6.75 0.0
11.25 7.25 0.0
11.25 7.75 0.0
11.25 14.25 0.0
11.25 14.75 0.0
11.25 15.25 0.0
11.25 15.75 0.0
11.25 16.25 0.0
11.25 16.75 0.0
11.25 17.25 0.0
11.25 17.75 0.0
11.25 24.75 0.0
11.25 25.25 0.0
11.25 25.75 0.0
11.25 26.25 0.0
11.25 26.75 0.0
11.25 27.25 0.0
11.25 27.75 0.0
11.25 28.25 0.0
11.25 28.75 0.0
11.25 29.25 0.0
11.25 29.75 0.0
11.25 30.25 0.0
11.25 30.75 0.0
11.25 31.25 0.0
11.75 4.75 0.0
11.75 5.25 0.0
11.75 5.75 0.0
11.75 6.25 0.0
11.75 6.75 0.0
11.75 7.25 0.0
11.75 7.75 0.0
11.75 14.25 0.0
11.75 14.75 0.0
11.75 15.25 0.0
11.75 15.75 0.0
11.75 16.25 0.0
11.75 16.75 0.0
11.75 17.25 0.0
11.75 24.25 0.0
11.75 24.75 0.0
11.75 25.25 0.0
11.75 25.75 0.0
11.75 26.25 0.0
11.75 26.75 0.0
11.75 27.25 0.0
11.75 27.75 0.0
11.75 28.25 0.0
11.75 28.75 0.0
11.75 29.25 0.0
11.75 29.75 0.0
11.75 30.25 0.0
11.75 30.75 0.0
11.75 31.25 0.0
12.25 4.75 0.0
12.25 5.25 0.0
12.25 5.75 0.0
12.25 6.25 0.0
12.25 6.75 0.0
12.25 7.25 0.0
12.25 7.75 0.0
12.25 8.25 0.0
12.25 13.75 0.0
12.25 14.25 0.0
12.25 14.75 0.0
12.25 15.25 0.0
12.25 15.75 0.0
12.25 16.25 0.0
12.25 16.75 0.0
12.25 17.25 0.0
12.25 23.75 0.0
12.25 24.25 0.0
12.25 24.75 0.0
12.25 25.25 0.0
12.25 25.75 0.0
12.25 26.25 0.0
12.25 26.75 0.0
12.25 27.25 0.0
12.25 27.75 0.0
12.25 28.25 0.0
12.25 28.75 0.0
12.25 29.25 0.0
12.25 29.75 0.0
12.25 30.25 0.0
12.25 30.75 0.0
12.75 4.75 0.0
12.75 5.25 0.0
12.75 5.75 0.0
12.75 6.25 0.0
12.75 6.75 0.0
12.75 7.25 0.0
12.75 7.75 0.0
12.75 8.25 0.0
12.75 8.75 0.0
12.75 13.75 0.0
12.75 14.25 0.0
12.75 14.75 0.0
12.75 15.25 0.0
12.75 15.75 0.0
12.75 16.25 0.0
12.75 16.75 0.0
12.75 23.75 0.0
12.75 24.25 0.0
12.75 24.75 0.0
12.75 25.25 0.0
12.75 25.75 0.0
12.75 26.25 0.0
12.75 26.75 0.0
12.75 27.25 0.0
12.75 27.75 0.0
12.75 28.25 0.0
12.75 28.75 0.0
12.75 29.25 0.0
12.75 29.75 0.0
12.75 30.25 0.0
13.25 5.25 0.0
13.25 5.75 0.0
13.25 6.25 0.0
13.25 6.75 0.0
13.25 7.25 0.0
13.25 7.75 0.0
13.25 8.25 0.0
13.25 8.75 0.0
13.25 9.25 0.0
13.25 13.25 0.0
13.25 13.75 0.0
13.25 14.25 0.0
13.25 14.75 0.0
13.25 15.25 0.0
13.25 15.75 0.0
13.25 16.25 0.0
13.25 16.75 0.0
13.25 23.25 0.0
13.25 23.75 0.0
13.25 24.25 0.0
13.25 24.75 0.0
13.25 25.25 0.0
13.25 25.75 0.0
13.25 26.25 0.0
13.25 26.75 0.0
13.25 27.25 0.0
13.25 27.75 0.0
13.25 28.25 0.0
13.25 28.75 0.0
13.25 29.25 0.0
13.25 29.75 0.0
13.75 5.25 0.0
13.75 5.75 0.0
13.75 6.25 0.0
13.75 6.75 0.0
13.75 7.25 0.0
13.75 7.75 0.0
13.75 8.25 0.0
13.75 8.75 0.0
13.75 9.25 0.0
13.75 13.25 0.0
13.75 13.75 0.0
13.75 14.25 0.0
13.75 14.75 0.0
13.75 15.25 0.0
13.75 15.75 0.0
13.75 16.25 0.0
13.75 23.25 0.0
13.75 23.75 0.0
13.75 24.25 0.0
13.75 24.75 0.0
13.75 25.25 0.0
13.75 25.75 0.0
13.75 26.25 0.0
13.75 26.75 0.0
13.75 27.25 0.0
13.75 27.75 0.0
13.75 28.25 0.0
13.75 28.75 0.0
13.75 29.25 0.0
14.25 5.75 0.0
14.25 6.25 0.0
14.25 6.75 0.0
14.25 7.25 0.0
14.25 7.75 0.0
14.25 8.25 0.0
14.25 8.75 0.0
14.25 9.25 0.0
14.25 9.75 0.0
14.25 13.25 0.0
14.25 13.75 0.0
14.25 14.25 0.0
14.25 14.75 0.0
14.25 15.25 0.0
14.25 15.75 0.0
14.25 16.25 0.0
14.25 23.25 0.0
14.25 23.75 0.0
14.25 24.25 0.0
14.25 24.75 0.0
14.25 25.25 0.0
14.25 25.75 0.0
14.25 26.25 0.0
14.25 26.75 0.0
14.25 27.25 0.0
14.25 27.75 0.0
14.25 28.25 0.0
14.25 28.75 0.0
14.75 6.25 0.0
14.75 6.75 0.0
14.75 7.25 0.0
14.75 7.75 0.0
14.75 8.25 0.0
14.75 8.75 0.0
14.75 9.25 0.0
14.75 9.75 0.0
14.75 10.25 0.0
14.75 12.75 0.0
14.75 13.25 0.0
14.75 13.75 0.0
14.75 14.25 0.0
14.75 14.75 0.0
14.75 15.25 0.0
14.75 15.75 0.0
14.75 22.75 0.0
14.75 23.25 0.0
14.75 23.75 0.0
14.75 24.25 0.0
14.75 24.75 0.0
14.75 25.25 0.0
14.75 25.75 0.0
14.75 26.25 0.0
14.75 26.75 0.0
14.75 27.25 0.0
14.75 27.75 0.0
14.75 28.25 0.0
14.75 28.75 0.0
15.25 6.25 0.0
15.25 6.75 0.0
15.25 7.25 0.0
15.25 7.75 0.0
15.25 8.25 0.0
15.25 8.75 0.0
15.25 9.25 0.0
15.25 9.75 0.0
15.25 10.25 0.0
15.25 10.75 0.0
15.25 11.25 0.0
15.25 12.75 0.0
15.25 13.25 0.0
15.25 13.75 0.0
15.25 14.25 0.0
15.25 14.75 0.0
15.25 15.25 0.0
15.25 15.75 0.0
15.25 22.75 0.0
15.25 23.25 0.0
15.25 23.75 0.0
15.25 24.25 0.0
15.25 24.75 0.0
15.25 25.25 0.0
15.25 25.75 0.0
15.25 26.25 0.0
15.25 26.75 0.0
15.25 27.25 0.0
15.25 27.75 0.0
15.25 28.25 0.0
15.25 28.75 0.0
15.75 6.75 0.0
15.75 7.25 0.0
15.75 7.75 0.0
15.75 8.25 0.0
15.75 8.75 0.0
15.75 9.25 0.0
15.75 9.75 0.0
15.75 10.25 0.0
15.75 10.75 0.0
15.75 11.25 0.0
15.75 11.75 0.0
15.75 12.25 0.0
15.75 12.75 0.0
15.75 13.25 0.0
15.75 13.75 0.0
15.75 14.25 0.0
15.75 14.75 0.0
15.75 15.25 0.0
15.75 15.75 0.0
15.75 22.25 0.0
15.75 22.75 0.0
15.75 23.25 0.0
15.75 23.75 0.0
15.75 24.25 0.0
15.75 24.75 0.0
15.75 25.25 0.0
15.75 25.75 0.0
15.75 26.25 0.0
15.75 26.75 0.0
15.75 27.25 0.0
15.75 27.75 0.0
15.75 28.25 0.0
16.25 6.75 0.0
16.25 7.25 0.0
16.25 7.75 0.0
16.25 8.25 0.0
16.25 8.75 0.0
16.25 9.25 0.0
16.25 9.75 0.0
16.25 10.25 0.0
16.25 10.75 0.0
16.25 11.25 0.0
16.25 11.75 0.0
16.25 12.25 0.0
16.25 12.75 0.0
16.25 13.25 0.0
16.25 13.75 0.0
16.25 14.25 0.0
16.25 14.75 0.0
16.25 15.25 0.0
16.25 15.75 0.0
16.25 16.25 0.0
16.25 16.75 0.0
16.25 17.25 0.0
16.25 17.75 0.0
16.25 18.25 0.0
16.25 18.75 0.0
16.25 19.25 0.0
16.25 19.75 0.0
16.25 20.25 0.0
16.25 20.75 0.0
16.25 21.25 0.0
16.25 21.75 0.0
16.25 22.25 0.0
16.25 22.75 0.0
16.25 23.25 0.0
16.25 23.75 0.0
16.25 24.25 0.0
16.25 24.75 0.0
16.25 25.25 0.0
16.25 25.75 0.0
16.25 26.25 0.0
16.25 26.75 0.0
16.25 27.25 0.0
16.25 27.75 0.0
16.25 28.25 0.0
16.75 7.75 0.0
16.75 8.25 0.0
16.75 8.75 0.0
16.75 9.25 0.0
16.75 9.75 0.0
16.75 10.25 0.0
16.75 10.75 0.0
16.75 11.25 0.0
16.75 11.75 0.0
16.75 12.25 0.0
16.75 12.75 0.0
16.75 13.25 0.0
16.75 13.75 0.0
16.75 14.25 0.0
16.75 14.75 0.0
16.75 15.25 0.0
16.75 15.75 0.0
16.75 16.25 0.0
16.75 16.75 0.0
16.75 17.25 0.0
16.75 17.75 0.0
16.75 18.25 0.0
16.75 18.75 0.0
16.75 19.25 0.0
16.75 19.75 0.0
16.75 20.25 0.0
16.75 20.75 0.0
16.75 21.25 0.0
16.75 21.75 0.0
16.75 22.25 0.0
16.75 22.75 0.0
16.75 23.25 0.0
16.75 23.75 0.0
16.75 24.25 0.0
16.75 24.75 0.0
16.75 25.25 0.0
16.75 25.75 0.0
16.75 26.25 0.0
16.75 26.75 0.0
16.75 27.25 0.0
17.25 8.25 0.0
17.25 8.75 0.0
17.25 9.25 0.0
17.25 9.75 0.0
17.25 10.25 0.0
17.25 10.75 0.0
17.25 11.25 0.0
17.25 11.75 0.0
17.25 12.25 0.0
17.25 12.75 0.0
17.25 13.25 0.0
17.25 13.75 0.0
17.25 14.25 0.0
17.25 14.75 0.0
17.25 15.25 0.0
17.25 15.75 0.0
17.25 16.25 0.0
17.25 16.75 0.0
17.25 17.25 0.0
17.25 17.75 0.0
17.25 18.25 0.0
17.25 18.75 0.0
17.25 19.25 0.0
17.25 19.75 0.0
17.25 20.25 0.0
17.25 20.75 0.0
17.25 21.25 0.0
17.25 21.75 0.0
17.25 22.25 0.0
17.25 22.75 0.0
17.25 23.25 0.0
17.25 23.75 0.0
17.25 24.25 0.0
17.25 24.75 0.0
17.25 25.25 0.0
17.25 25.75 0.0
17.25 26.25 0.0
17.25 26.75 0.0
17.75 8.75 0.0
17.75 9.25 0.0
17.75 9.75 0.0
17.75 10.25 0.0
17.75 10.75 0.0
17.75 11.25 0.0
17.75 11.75 0.0
17.75 12.25 0.0
17.75 12.75 0.0
17.75 13.25 0.0
17.75 13.75 0.0
17.75 14.25 0.0
17.75 14.75 0.0
17.75 15.25 0.0
17.75 15.75 0.0
17.75 16.25 0.0
17.75 16.75 0.0
17.75 17.25 0.0
17.75 17.75 0.0
17.75 18.25 0.0
17.75 18.75 0.0
17.75 19.25 0.0
17.75 19.75 0.0
17.75 20.25 0.0
17.75 20.75 0.0
17.75 21.25 0.0
17.75 21.75 0.0
17.75 22.25 0.0
17.75 22.75 0.0
17.75 23.25 0.0
17.75 23.75 0.0
17.75 24.25 0.0
17.75 24.75 0.0
17.75 25.25 0.0
17.75 25.75 0.0
17.75 26.25 0.0
18.25 10.25 0.0
18.25 10.75 0.0
18.25 11.25 0.0
18.25 11.75 0.0
18.25 12.25 0.0
18.25 12.75 0.0
18.25 13.25 0.0
18.25 13.75 0.0
18.25 14.25 0.0
18.25 14.75 0.0
18.25 15.25 0.0
18.25 15.75 0.0
18.25 16.25 0.0
18.25 16.75 0.0
18.25 17.25 0.0
18.25 17.75 0.0
18.25 18.25 0.0
18.25 18.75 0.0
18.25 19.25 0.0
18.25 19.75 0.0
18.25 20.25 0.0
18.25 20.75 0.0
18.25 21.25 0.0
18.25 21.75 0.0
18.25 22.25 0.0
18.25 22.75 0.0
18.25 23.25 0.0
18.25 23.75 0.0
18.25 24.25 0.0
18.25 24.75 0.0
18.25 25.25 0.0
18.25 25.75 0.0
18.75 11.25 0.0
18.75 11.75 0.0
18.75 12.25 0.0
18.75 12.75 0.0
18.75 13.25 0.0
18.75 13.75 0.0
18.75 14.25 0.0
18.75 14.75 0.0
18.75 15.25 0.0
18.75 15.75 0.0
18.75 16.25 0.0
18.75 16.75 0.0
18.75 17.25 0.0
18.75 17.75 0.0
18.75 18.25 0.0
18.75 18.75 0.0
18.75 19.25 0.0
18.75 19.75 0.0
18.75 20.25 0.0
18.75 20.75 0.0
18.75 21.25 0.0
18.75 21.75 0.0
18.75 22.25 0.0
18.75 22.75 0.0
18.75 23.25 0.0
18.75 23.75 0.0
18.75 24.25 0.0
18.75 24.75 0.0
18.75 25.25 0.0
18.75 25.75 0.0
19.25 12.75 0.0
19.25 13.25 0.0
19.25 13.75 0.0
19.25 14.25 0.0
19.25 14.75 0.0
19.25 15.25 0.0
19.25 15.75 0.0
19.25 16.25 0.0
19.25 16.75 0.0
19.25 17.25 0.0
19.25 17.75 0.0
19.25 18.25 0.0
19.25 18.75 0.0
19.25 19.25 0.0
19.25 19.75 0.0
19.25 20.25 0.0
19.25 20.75 0.0
19.25 21.25 0.0
19.25 21.75 0.0
19.25 22.25 0.0
19.25 22.75 0.0
19.25 23.25 0.0
19.25 23.75 0.0
19.25 24.25 0.0
19.25 24.75 0.0
19.25 25.25 0.0
19.25 25.75 0.0
19.75 12.75 0.0
19.75 13.25 0.0
19.75 13.75 0.0
19.75 14.25 0.0
19.75 14.75 0.0
19.75 15.25 0.0
19.75 15.75 0.0
19.75 16.25 0.0
19.75 23.25 0.0
19.75 23.75 0.0
19.75 24.25 0.0
19.75 24.75 0.0
19.75 25.25 0.0
19.75 25.75 0.0
19.75 26.25 0.0
20.25 13.25 0.0
20.25 13.75 0.0
20.25 14.25 0.0
20.25 14.75 0.0
20.25 15.25 0.0
20.25 15.75 0.0
20.25 16.25 0.0
20.25 23.25 0.0
20.25 23.75 0.0
20.25 24.25 0.0
20.25 24.75 0.0
20.25 25.25 0.0
20.25 25.75 0.0
20.25 26.25 0.0
20.75 13.25 0.0
20.75 13.75 0.0
20.75 14.25 0.0
20.75 14.75 0.0
20.75 15.25 0.0
20.75 15.75 0.0
20.75 16.25 0.0
20.75 23.25 0.0
20.75 23.75 0.0
20.75 24.25 0.0
20.75 24.75 0.0
20.75 25.25 0.0
20.75 25.75 0.0
20.75 26.25 0.0
21.25 13.25 0.0
21.25 13.75 0.0
21.25 14.25 0.0
21.25 14.75 0.0
21.25 15.25 0.0
21.25 15.75 0.0
21.25 16.25 0.0
21.25 23.25 0.0
21.25 23.75 0.0
21.25 24.25 0.0
21.25 24.75 0.0
21.25 25.25 0.0
21.25 25.75 0.0
21.25 26.25 0.0
21.75 13.25 0.0
21.75 13.75 0.0
21.75 14.25 0.0
21.75 14.75 0.0
21.75 15.25 0.0
21.75 15.75 0.0
21.75 16.25 0.0
21.75 23.25 0.0
21.75 23.75 0.0
21.75 24.25 0.0
21.75 24.75 0.0
21.75 25.25 0.0
21.75 25.75 0.0
21.75 26.25 0.0
22.25 13.25 0.0
22.25 13.75 0.0
22.25 14.25 0.0
22.25 14.75 0.0
22.25 15.25 0.0
22.25 15.75 0.0
22.25 16.25 0.0
22.25 23.75 0.0
22.25 24.25 0.0
22.25 24.75 0.0
22.25 25.25 0.0
22.25 25.75 0.0
22.25 26.25 0.0
22.25 26.75 0.0
22.75 13.25 0.0
22.75 13.75 0.0
22.75 14.25 0.0
22.75 14.75 0.0
22.75 15.25 0.0
22.75 15.75 0.0
22.75 16.25 0.0
22.75 16.75 0.0
22.75 23.75 0.0
22.75 24.25 0.0
22.75 24.75 0.0
22.75 25.25 0.0
22.75 25.75 0.0
22.75 26.25 0.0
22.75 26.75 0.0
23.25 13.25 0.0
23.25 13.75 0.0
23.25 14.25 0.0
23.25 14.75 0.0
23.25 15.25 0.0
23.25 15.75 0.0
23.25 16.25 0.0
23.25 16.75 0.0
23.25 17.25 0.0
23.25 24.25 0.0
23.25 24.75 0.0
23.25 25.25 0.0
23.25 25.75 0.0
23.25 26.25 0.0
23.25 26.75 0.0
23.25 27.25 0.0
23.75 14.25 0.0
23.75 14.75 0.0
23.75 15.25 0.0
23.75 15.75 0.0
23.75 16.25 0.0
23.75 16.75 0.0
23.75 17.25 0.0
23.75 21.75 0.0
23.75 22.25 0.0
23.75 22.75 0.0
23.75 23.25 0.0
23.75 24.25 0.0
23.75 24.75 0.0
23.75 25.25 0.0
23.75 25.75 0.0
23.75 26.25 0.0
23.75 26.75 0.0
23.75 27.25 0.0
24.25 14.25 0.0
24.25 14.75 0.0
24.25 15.25 0.0
24.25 15.75 0.0
24.25 16.25 0.0
24.25 16.75 0.0
24.25 17.25 0.0
24.25 20.75 0.0
24.25 21.25 0.0
24.25 21.75 0.0
24.25 22.25 0.0
24.25 22.75 0.0
24.25 23.25 0.0
24.25 24.25 0.0
24.25 24.75 0.0
24.25 25.25 0.0
24.25 25.75 0.0
24.25 26.25 0.0
24.25 26.75 0.0
24.25 27.25 0.0
24.25 27.75 0.0
24.75 14.25 0.0
24.75 14.75 0.0
24.75 15.25 0.0
24.75 15.75 0.0
24.75 16.25 0.0
24.75 16.75 0.0
24.75 17.25 0.0
24.75 20.75 0.0
24.75 21.25 0.0
24.75 21.75 0.0
24.75 22.25 0.0
24.75 22.75 0.0
24.75 23.25 0.0
24.75 24.75 0.0
24.75 25.25 0.0
24.75 25.75 0.0
24.75 26.25 0.0
24.75 26.75 0.0
24.75 27.25 0.0
24.75 27.75 0.0
25.25 14.25 0.0
25.25 14.75 0.0
25.25 15.25 0.0
25.25 15.75 0.0
25.25 16.25 0.0
25.25 16.75 0.0
25.25 17.25 0.0
25.25 20.25 0.0
25.25 20.75 0.0
25.25 21.25 0.0
25.25 21.75 0.0
25.25 22.25 0.0
25.25 22.75 0.0
25.25 23.25 0.0
25.25 24.75 0.0
25.25 25.25 0.0
25.25 25.75 0.0
25.25 26.25 0.0
25.25 26.75 0.0
25.25 27.25 0.0
25.25 27.75 0.0
25.75 14.25 0.0
25.75 14.75 0.0
25.75 15.25 0.0
25.75 15.75 0.0
25.75 16.25 0.0
25.75 16.75 0.0
25.75 17.25 0.0
25.75 17.75 0.0
25.75 20.25 0.0
25.75 20.75 0.0
25.75 21.25 0.0
25.75 21.75 0.0
25.75 22.25 0.0
25.75 22.75 0.0
25.75 23.25 0.0
25.75 24.75 0.0
25.75 25.25 0.0
25.75 25.75 0.0
25.75 26.25 0.0
25.75 26.75 0.0
25.75 27.25 0.0
25.75 27.75 0.0
26.25 14.75 0.0
26.25 15.25 0.0
26.25 15.75 0.0
26.25 16.25 0.0
26.25 16.75 0.0
26.25 17.25 0.0
26.25 17.75 0.0
26.25 20.25 0.0
26.25 20.75 0.0
26.25 21.25 0.0
26.25 21.75 0.0
26.25 22.25 0.0
26.25 22.75 0.0
26.25 23.25 0.0
26.25 24.75 0.0
26.25 25.25 0.0
26.25 25.75 0.0
26.25 26.25 0.0
26.25 26.75 0.0
26.25 27.25 0.0
26.25 27.75 0.0
26.25 28.25 0.0
26.75 14.75 0.0
26.75 15.25 0.0
26.75 15.75 0.0
26.75 16.25 0.0
26.75 16.75 0.0
26.75 17.25 0.0
26.75 17.75 0.0
26.75 19.75 0.0
26.75 20.25 0.0
26.75 20.75 0.0
26.75 21.25 0.0
26.75 21.75 0.0
26.75 22.25 0.0
26.75 22.75 0.0
26.75 25.25 0.0
26.75 25.75 0.0
26.75 26.25 0.0
26.75 26.75 0.0
26.75 27.25 0.0
26.75 27.75 0.0
26.75 28.25 0.0
27.25 14.75 0.0
27.25 15.25 0.0
27.25 15.75 0.0
27.25 16.25 0.0
27.25 16.75 0.0
27.25 17.25 0.0
27.25 17.75 0.0
27.25 19.75 0.0
27.25 20.25 0.0
27.25 20.75 0.0
27.25 21.25 0.0
27.25 21.75 0.0
27.25 22.25 0.0
27.25 22.75 0.0
27.25 25.25 0.0
27.25 25.75 0.0
27.25 26.25 0.0
27.25 26.75 0.0
27.25 27.25 0.0
27.25 27.75 0.0
27.25 28.25 0.0
27.75 14.75 0.0
27.75 15.25 0.0
27.75 15.75 0.0
27.75 16.25 0.0
27.75 16.75 0.0
27.75 17.25 0.0
27.75 17.75 0.0
27.75 19.75 0.0
27.75 20.25 0.0
27.75 20.75 0.0
27.75 21.25 0.0
27.75 21.75 0.0
27.75 22.25 0.0
27.75 22.75 0.0
27.75 25.25 0.0
27.75 25.75 0.0
27.75 26.25 0.0
27.75 26.75 0.0
27.75 27.25 0.0
27.75 27.75 0.0
27.75 28.25 0.0
27.75 28.75 0.0
28.25 14.75 0.0
28.25 15.25 0.0
28.25 15.75 0.0
28.25 16.25 0.0
28.25 16.75 0.0
28.25 17.25 0.0
28.25 17.75 0.0
28.25 18.25 0.0
28.25 19.25 0.0
28.25 19.75 0.0
28.25 20.25 0.0
28.25 20.75 0.0
28.25 21.25 0.0
28.25 21.75 0.0
28.25 22.25 0.0
28.25 22.75 0.0
28.25 25.75 0.0
28.25 26.25 0.0
28.25 26.75 0.0
28.25 27.25 0.0
28.25 27.75 0.0
28.25 28.25 0.0
28.25 28.75 0.0
28.75 14.75 0.0
28.75 15.25 0.0
28.75 15.75 0.0
28.75 16.25 0.0
28.75 16.75 0.0
28.75 17.25 0.0
28.75 17.75 0.0
28.75 18.25 0.0
28.75 19.25 0.0
28.75 19.75 0.0
28.75 20.25 0.0
28.75 20.75 0.0
28.75 21.25 0.0
28.75 21.75 0.0
28.75 22.25 0.0
28.75 25.75 0.0
28.75 26.25 0.0
28.75 26.75 0.0
28.75 27.25 0.0
28.75 27.75 0.0
28.75 28.25 0.0
28.75 28.75 0.0
29.25 15.25 0.0
29.25 15.75 0.0
29.25 16.25 0.0
29.25 16.75 0.0
29.25 17.25 0.0
29.25 17.75 0.0
29.25 18.25 0.0
29.25 18.75 0.0
29.25 19.25 0.0
29.25 19.75 0.0
29.25 20.25 0.0
29.25 20.75 0.0
29.25 21.25 0.0
29.25 21.75 0.0
29.25 22.25 0.0
29.25 25.75 0.0
29.25 26.25 0.0
29.25 26.75 0.0
29.25 27.25 0.0
29.25 27.75 0.0
29.25 28.25 0.0
29.25 28.75 0.0
29.25 29.25 0.0
29.75 15.25 0.0
29.75 15.75 0.0
29.75 16.25 0.0
29.75 16.75 0.0
29.75 17.25 0.0
29.75 17.75 0.0
29.75 18.25 0.0
29.75 18.75 0.0
29.75 19.25 0.0
29.75 19.75 0.0
29.75 20.25 0.0
29.75 20.75 0.0
29.75 21.25 0.0
29.75 21.75 0.0
29.75 22.25 0.0
29.75 26.75 0.0
29.75 27.25 0.0
29.75 27.75 0.0
29.75 28.25 0.0
29.75 28.75 0.0
29.75 29.25 0.0
29.75 29.75 0.0
29.75 30.25 0.0
30.25 15.75 0.0
30.25 16.25 0.0
30.25 16.75 0.0
30.25 17.25 0.0
30.25 17.75 0.0
30.25 18.25 0.0
30.25 18.75 0.0
30.25 19.25 0.0
30.25 19.75 0.0
30.25 20.25 0.0
30.25 20.75 0.0
30.25 21.25 0.0
30.25 21.75 0.0
30.25 22.25 0.0
30.25 26.75 0.0
30.25 27.25 0.0
30.25 27.75 0.0
30.25 28.25 0.0
30.25 28.75 0.0
30.25 29.25 0.0
30.25 29.75 0.0
30.25 30.25 0.0
30.25 30.75 0.0
30.75 15.75 0.0
30.75 16.25 0.0
30.75 16.75 0.0
30.75 17.25 0.0
30.75 17.75 0.0
30.75 18.25 0.0
30.75 18.75 0.0
30.75 19.25 0.0
30.75 19.75 0.0
30.75 20.25 0.0
30.75 20.75 0.0
30.75 21.25 0.0
30.75 21.75 0.0
30.75 22.25 0.0
30.75 27.25 0.0
30.75 27.75 0.0
30.75 28.25 0.0
30.75 28.75 0.0
30.75 29.25 0.0
30.75 29.75 0.0
30.75 30.25 0.0
30.75 30.75 0.0
31.25 15.75 0.0
31.25 16.25 0.0
31.25 16.75 0.0
31.25 17.25 0.0
31.25 17.75 0.0
31.25 18.25 0.0
31.25 18.75 0.0
31.25 19.25 0.0
31.25 19.75 0.0
31.25 20.25 0.0
31.25 20.75 0.0
31.25 21.25 0.0
31.25 21.75 0.0
31.25 22.25 0.0
31.25 27.25 0.0
31.25 27.75 0.0
31.25 28.25 0.0
31.25 28.75 0.0
31.25 29.25 0.0
31.25 29.75 0.0
31.25 30.25 0.0
31.25 30.75 0.0
31.25 31.25 0.0
31.75 15.75 0.0
31.75 16.25 0.0
31.75 16.75 0.0
31.75 17.25 0.0
31.75 17.75 0.0
31.75 18.25 0.0
31.75 18.75 0.0
31.75 19.25 0.0
31.75 19.75 0.0
31.75 20.25 0.0
31.75 20.75 0.0
31.75 21.25 0.0
31.75 21.75 0.0
31.75 27.75 0.0
31.75 28.25 0.0
31.75 28.75 0.0
31.75 29.25 0.0
31.75 29.75 0.0
31.75 30.25 0.0
31.75 30.75 0.0
31.75 31.25 0.0
31.75 31.75 0.0
32.25 15.75 0.0
32.25 16.25 0.0
32.25 16.75 0.0
32.25 17.25 0.0
32.25 17.75 0.0
32.25 18.25 0.0
32.25 18.75 0.0
32.25 19.25 0.0
32.25 19.75 0.0
32.25 20.25 0.0
32.25 20.75 0.0
32.25 21.25 0.0
32.25 21.75 0.0
32.25 27.75 0.0
32.25 28.25 0.0
32.25 28.75 0.0
32.25 29.25 0.0
32.25 29.75 0.0
32.25 30.25 0.0
32.25 30.75 0.0
32.25 31.25 0.0
32.25 31.75 0.0
32.25 32.25 0.0
32.75 15.75 0.0
32.75 16.25 0.0
32.75 16.75 0.0
32.75 17.25 0.0
32.75 17.75 0.0
32.75 18.25 0.0
32.75 18.75 0.0
32.75 19.25 0.0
32.75 19.75 0.0
32.75 20.25 0.0
32.75 20.75 0.0
32.75 21.25 0.0
32.75 28.25 0.0
32.75 28.75 0.0
32.75 29.25 0.0
32.75 29.75 0.0
32.75 30.25 0.0
32.75 30.75 0.0
32.75 31.25 0.0
32.75 31.75 0.0
32.75 32.25 0.0
32.75 32.75 0.0
33.25 15.75 0.0
33.25 16.25 0.0
33.25 16.75 0.0
33.25 17.25 0.0
33.25 17.75 0.0
33.25 18.25 0.0
33.25 18.75 0.0
33.25 19.25 0.0
33.25 19.75 0.0
33.25 20.25 0.0
33.25 20.75 0.0
33.25 21.25 0.0
33.25 28.75 0.0
33.25 29.25 0.0
33.25 29.75 0.0
33.25 30.25 0.0
33.25 30.75 0.0
33.25 31.25 0.0
33.25 31.75 0.0
33.25 32.25 0.0
33.25 32.75 0.0
33.75 15.75 0.0
33.75 16.25 0.0
33.75 16.75 0.0
33.75 17.25 0.0
33.75 17.75 0.0
33.75 18.25 0.0
33.75 18.75 0.0
33.75 19.25 0.0
33.75 19.75 0.0
33.75 20.25 0.0
33.75 20.75 0.0
33.75 21.25 0.0
33.75 28.75 0.0
33.75 29.25 0.0
33.75 29.75 0.0
33.75 30.25 0.0
33.75 30.75 0.0
33.75 31.25 0.0
33.75 31.75 0.0
33.75 32.25 0.0
33.75 32.75 0.0
33.75 33.25 0.0
34.25 16.25 0.0
34.25 16.75 0.0
34.25 17.25 0.0
34.25 17.75 0.0
34.25 18.25 0.0
34.25 18.75 0.0
34.25 19.25 0.0
34.25 19.75 0.0
34.25 20.25 0.0
34.25 20.75 0.0
34.25 29.25 0.0
34.25 29.75 0.0
34.25 30.25 0.0
34.25 30.75 0.0
34.25 31.25 0.0
34.25 31.75 0.0
34.25 32.25 0.0
34.25 32.75 0.0
34.25 33.25 0.0
34.25 33.75 0.0
34.75 16.25 0.0
34.75 16.75 0.0
34.75 17.25 0.0
34.75 17.75 0.0
34.75 18.25 0.0
34.75 18.75 0.0
34.75 19.25 0.0
34.75 19.75 0.0
34.75 20.25 0.0
34.75 20.75 0.0
34.75 29.75 0.0
34.75 30.25 0.0
34.75 30.75 0.0
34.75 31.25 0.0
34.75 31.75 0.0
34.75 32.25 0.0
34.75 32.75 0.0
34.75 33.25 0.0
34.75 33.75 0.0
34.75 34.25 0.0
35.25 16.25 0.0
35.25 16.75 0.0
35.25 17.25 0.0
35.25 17.75 0.0
35.25 18.25 0.0
35.25 18.75 0.0
35.25 19.25 0.0
35.25 19.75 0.0
35.25 20.25 0.0
35.25 30.25 0.0
35.25 30.75 0.0
35.25 31.25 0.0
35.25 31.75 0.0
35.25 32.25 0.0
35.25 32.75 0.0
35.25 33.25 0.0
35.25 33.75 0.0
35.25 34.25 0.0
35.25 34.75 0.0
35.75 16.25 0.0
35.75 16.75 0.0
35.75 17.25 0.0
35.75 17.75 0.0
35.75 18.25 0.0
35.75 18.75 0.0
35.75 19.25 0.0
35.75 19.75 0.0
35.75 20.25 0.0
35.75 30.75 0.0
35.75 31.25 0.0
35.75 31.75 0.0
35.75 32.25 0.0
35.75 32.75 0.0
35.75 33.25 0.0
35.75 33.75 0.0
35.75 34.25 0.0
35.75 34.75 0.0
35.75 35.25 0.0
36.25 16.25 0.0
36.25 16.75 0.0
36.25 17.25 0.0
36.25 17.75 0.0
36.25 18.25 0.0
36.25 18.75 0.0
36.25 19.25 0.0
36.25 19.75 0.0
36.25 31.25 0.0
36.25 31.75 0.0
36.25 32.25 0.0
36.25 32.75 0.0
36.25 33.25 0.0
36.25 33.75 0.0
36.25 34.25 0.0
36.25 34.75 0.0
36.25 35.25 0.0
36.25 35.75 0.0
36.25 36.25 0.0
36.75 16.75 0.0
36.75 17.25 0.0
36.75 17.75 0.0
36.75 18.25 0.0
36.75 18.75 0.0
36.75 19.25 0.0
36.75 32.25 0.0
36.75 32.75 0.0
36.75 33.25 0.0
36.75 33.75 0.0
36.75 34.25 0.0
36.75 34.75 0.0
36.75 35.25 0.0
36.75 35.75 0.0
36.75 36.25 0.0
36.75 36.75 0.0
37.25 18.25 0.0
37.25 18.75 0.0
37.25 19.25 0.0
37.25 32.75 0.0
37.25 33.25 0.0
37.25 33.75 0.0
37.25 34.25 0.0
37.25 34.75 0.0
37.25 35.25 0.0
37.25 35.75 0.0
37.25 36.25 0.0
37.25 36.75 0.0
37.75 33.25 0.0
37.75 33.75 0.0
37.75 34.25 0.0
37.75 34.75 0.0
37.75 35.25 0.0
37.75 35.75 0.0
37.75 36.25 0.0
37.75 36.75 0.0
38.25 33.75 0.0
38.25 34.25 0.0
38.25 34.75 0.0
38.25 35.25 0.0
38.25 35.75 0.0
38.25 36.25 0.0
38.25 36.75 0.0
38.75 34.25 0.0
38.75 34.75 0.0
38.75 35.25 0.0
38.75 35.75 0.0
38.75 36.25 0.0
38.75 36.75 0.0
39.25 35.25 0.0
39.25 35.75 0.0
